<svg width="14" height="13" viewBox="0 0 14 13" fill="none" xmlns="http://www.w3.org/2000/svg">
<path d="M6.76271 0.777874C6.86337 0.587079 7.13663 0.587079 7.23729 0.777874L9.07798 4.26663C9.1168 4.3402 9.18755 4.39161 9.26953 4.40579L13.1563 5.07831C13.3689 5.11509 13.4533 5.37497 13.303 5.52966L10.5538 8.35835C10.4958 8.418 10.4688 8.50118 10.4806 8.58352L11.0421 12.4879C11.0728 12.7014 10.8518 12.8621 10.6582 12.7669L7.11838 11.0263C7.04373 10.9896 6.95627 10.9896 6.88162 11.0263L3.34183 12.7669C3.14824 12.8621 2.92718 12.7014 2.95789 12.4879L3.51938 8.58352C3.53122 8.50118 3.50419 8.418 3.44621 8.35835L0.697014 5.52966C0.546664 5.37497 0.631104 5.11509 0.843668 5.07831L4.73047 4.40579C4.81245 4.39161 4.8832 4.3402 4.92202 4.26663L6.76271 0.777874Z" fill="#EFBF13"/>
</svg>
