<svg width="24" height="15" viewBox="0 0 24 15" fill="none" xmlns="http://www.w3.org/2000/svg">
<path d="M23.082 1.29347C23.2471 0.747807 23.082 0.347656 22.3016 0.347656H19.7162C19.0584 0.347656 18.7577 0.693828 18.5927 1.07403C18.5927 1.07403 17.2782 4.26467 15.4155 6.33349C14.8143 6.93547 14.5396 7.12557 14.2118 7.12557C14.048 7.12557 13.8098 6.93547 13.8098 6.38981V1.29347C13.8098 0.638675 13.62 0.347656 13.0718 0.347656H9.00928C8.59902 0.347656 8.35144 0.65041 8.35144 0.939081C8.35144 1.55867 9.28279 1.70183 9.37828 3.44794V7.23588C9.37828 8.06552 9.22856 8.21689 8.89846 8.21689C8.02253 8.21689 5.89105 5.01451 4.62607 1.34862C4.37967 0.636328 4.13092 0.34883 3.47073 0.34883H0.886545C0.147365 0.34883 0 0.695001 0 1.0752C0 1.75816 0.875935 5.13773 4.08023 9.60744C6.21643 12.6596 9.22384 14.3142 11.9636 14.3142C13.6059 14.3142 13.8087 13.9469 13.8087 13.3132V11.0062C13.8087 10.2716 13.9654 10.1238 14.4853 10.1238C14.8673 10.1238 15.5252 10.3162 17.0589 11.7866C18.8108 13.5303 19.1008 14.313 20.0852 14.313H22.6694C23.4074 14.313 23.7764 13.9457 23.5642 13.2205C23.3319 12.4989 22.4949 11.4486 21.3844 10.2059C20.7808 9.49714 19.8789 8.73439 19.6042 8.35301C19.2211 7.86133 19.3319 7.64424 19.6042 7.20772C19.6054 7.20889 22.7543 2.79432 23.082 1.29347Z" fill="white"/>
</svg>
