<svg width="26" height="26" viewBox="0 0 26 26" fill="none" xmlns="http://www.w3.org/2000/svg">
<path fill-rule="evenodd" clip-rule="evenodd" d="M18.8561 15.7073C18.5334 15.5484 16.9515 14.7823 16.657 14.6756C16.3625 14.57 16.1481 14.5177 15.9327 14.8357C15.7183 15.1515 15.1022 15.8663 14.9149 16.0775C14.7265 16.2898 14.5392 16.3154 14.2176 16.1575C13.896 15.9975 12.8587 15.6636 11.6298 14.5839C10.6738 13.7432 10.0274 12.7051 9.84004 12.3872C9.65272 12.0703 9.81947 11.8985 9.9808 11.7406C10.1259 11.5987 10.3024 11.3704 10.4637 11.1858C10.625 11.0002 10.6781 10.8679 10.7853 10.6556C10.8936 10.4444 10.8394 10.2598 10.7582 10.1008C10.6781 9.94185 10.0349 8.38099 9.76641 7.7462C9.50547 7.12847 9.24019 7.21275 9.04313 7.20208C8.85474 7.19355 8.64035 7.19141 8.42597 7.19141C8.21158 7.19141 7.86294 7.27036 7.56843 7.5883C7.27284 7.90516 6.44237 8.67226 6.44237 10.2331C6.44237 11.7929 7.59441 13.3004 7.75574 13.5127C7.91707 13.724 10.0241 16.9268 13.2518 18.2999C14.0205 18.6263 14.6193 18.8216 15.086 18.9667C15.8569 19.2088 16.5585 19.1747 17.1129 19.0926C17.73 19.0019 19.0164 18.3255 19.2849 17.585C19.5523 16.8446 19.5523 16.2098 19.4722 16.0775C19.3921 15.9452 19.1777 15.8663 18.855 15.7073H18.8561ZM12.9854 23.6055H12.9811C11.064 23.6058 9.18213 23.098 7.5327 22.1353L7.14291 21.907L3.09125 22.9547L4.17292 19.0627L3.91847 18.6637C2.8467 16.9826 2.27951 15.0371 2.28244 13.0518C2.2846 7.23729 7.08552 2.5067 12.9898 2.5067C15.8482 2.5067 18.5356 3.6056 20.556 5.59855C21.5526 6.57644 22.3424 7.73933 22.8799 9.01995C23.4174 10.3006 23.6918 11.6735 23.6873 13.0593C23.6852 18.8738 18.8843 23.6055 12.9854 23.6055ZM22.0935 4.08463C20.9005 2.90137 19.4811 1.96316 17.9175 1.32438C16.3538 0.685593 14.677 0.358932 12.9843 0.363325C5.888 0.363325 0.110441 6.05518 0.108275 13.0508C0.104987 15.2771 0.697697 17.4649 1.8266 19.3934L0 25.9687L6.82566 24.204C8.71384 25.2177 10.8298 25.7488 12.98 25.7489H12.9854C20.0818 25.7489 25.8593 20.057 25.8615 13.0604C25.8667 11.3931 25.5364 9.74138 24.8897 8.20073C24.2429 6.66007 23.2925 5.26106 22.0935 4.08463Z" fill="white"/>
</svg>
