<svg width="24" height="17" viewBox="0 0 24 17" fill="none" xmlns="http://www.w3.org/2000/svg">
<path d="M23.1306 2.53787C22.9961 2.05041 22.7325 1.60587 22.366 1.24875C21.9995 0.891622 21.5431 0.63444 21.0425 0.502939C19.1995 0.0205079 11.8118 0.0205078 11.8118 0.0205078C11.8118 0.0205078 4.42416 0.0205077 2.5812 0.500373C2.08031 0.631448 1.62366 0.888487 1.25713 1.24568C0.890599 1.60287 0.627079 2.04763 0.493038 2.53531C-1.00577e-07 4.33159 0 8.07813 0 8.07813C0 8.07813 -1.00577e-07 11.8247 0.493038 13.6184C0.764605 14.6089 1.56612 15.389 2.5812 15.6533C4.42416 16.1358 11.8118 16.1358 11.8118 16.1358C11.8118 16.1358 19.1995 16.1358 21.0425 15.6533C22.0602 15.389 22.859 14.6089 23.1306 13.6184C23.6237 11.8247 23.6237 8.07813 23.6237 8.07813C23.6237 8.07813 23.6237 4.33159 23.1306 2.53787ZM9.46528 11.5167V4.63953L15.5821 8.05247L9.46528 11.5167Z" fill="white"/>
</svg>
