<svg width="28" height="28" viewBox="0 0 28 28" fill="none" xmlns="http://www.w3.org/2000/svg">
<path fill-rule="evenodd" clip-rule="evenodd" d="M3.5636 0C1.60315 1.3733e-05 0 1.60315 0 3.5636C0 5.52406 1.60315 7.1272 3.5636 7.12721C5.52407 7.12721 7.12721 5.52406 7.12721 3.5636C7.12721 1.60314 5.52407 0 3.5636 0ZM3.5636 1.28747C4.82828 1.28747 5.83974 2.29893 5.83974 3.5636C5.83974 4.82826 4.82828 5.83974 3.5636 5.83974C2.29896 5.83974 1.28747 4.82825 1.28747 3.5636C1.28747 2.29895 2.29896 1.28748 3.5636 1.28747Z" fill="#1A2F47"/>
<path fill-rule="evenodd" clip-rule="evenodd" d="M9.60394 1.06641C9.43321 1.06641 9.26949 1.13421 9.14877 1.25493C9.02804 1.37566 8.96021 1.53941 8.96021 1.71014C8.96021 1.88087 9.02804 2.04459 9.14877 2.16531C9.26949 2.28604 9.43321 2.35387 9.60394 2.35387H27.3562C27.527 2.35387 27.6907 2.28604 27.8114 2.16531C27.9321 2.04459 28 1.88087 28 1.71014C28 1.53941 27.9321 1.37566 27.8114 1.25493C27.6907 1.13421 27.527 1.06641 27.3562 1.06641H9.60394Z" fill="#1A2F47"/>
<path fill-rule="evenodd" clip-rule="evenodd" d="M9.60394 4.77344C9.43321 4.77344 9.26949 4.84127 9.14877 4.962C9.02804 5.08272 8.96021 5.24644 8.96021 5.41717C8.96021 5.5879 9.02804 5.75166 9.14877 5.87238C9.26949 5.9931 9.43321 6.06091 9.60394 6.06091H16.9519C17.1226 6.06091 17.2863 5.9931 17.4071 5.87238C17.5278 5.75166 17.5956 5.5879 17.5956 5.41717C17.5956 5.24644 17.5278 5.08272 17.4071 4.962C17.2863 4.84127 17.1226 4.77344 16.9519 4.77344H9.60394Z" fill="#1A2F47"/>
<path fill-rule="evenodd" clip-rule="evenodd" d="M3.5636 10.4141C1.60315 10.4141 0 12.0172 0 13.9777C0 15.9381 1.60315 17.541 3.5636 17.541C5.52407 17.541 7.12721 15.9381 7.12721 13.9777C7.12721 12.0172 5.52407 10.4141 3.5636 10.4141ZM3.5636 11.7015C4.82828 11.7015 5.83974 12.713 5.83974 13.9777C5.83974 15.2423 4.82828 16.2535 3.5636 16.2535C2.29896 16.2535 1.28747 15.2423 1.28747 13.9777C1.28747 12.713 2.29896 11.7015 3.5636 11.7015Z" fill="#1A2F47"/>
<path fill-rule="evenodd" clip-rule="evenodd" d="M9.60394 11.4814C9.43321 11.4814 9.26949 11.5493 9.14877 11.67C9.02804 11.7907 8.96021 11.9545 8.96021 12.1252C8.96021 12.2959 9.02804 12.4596 9.14877 12.5804C9.26949 12.7011 9.43321 12.7689 9.60394 12.7689H27.3562C27.527 12.7689 27.6907 12.7011 27.8114 12.5804C27.9321 12.4596 28 12.2959 28 12.1252C28 11.9545 27.9321 11.7907 27.8114 11.67C27.6907 11.5493 27.527 11.4814 27.3562 11.4814H9.60394Z" fill="#1A2F47"/>
<path fill-rule="evenodd" clip-rule="evenodd" d="M9.60394 15.1875C9.43321 15.1875 9.26949 15.2553 9.14877 15.376C9.02804 15.4968 8.96021 15.6605 8.96021 15.8312C8.96021 16.002 9.02804 16.1657 9.14877 16.2864C9.26949 16.4071 9.43321 16.475 9.60394 16.475H16.9519C17.1226 16.475 17.2863 16.4071 17.4071 16.2864C17.5278 16.1657 17.5956 16.002 17.5956 15.8312C17.5956 15.6605 17.5278 15.4968 17.4071 15.376C17.2863 15.2553 17.1226 15.1875 16.9519 15.1875H9.60394Z" fill="#1A2F47"/>
<path fill-rule="evenodd" clip-rule="evenodd" d="M3.5636 20.8291C1.60316 20.8291 1.3733e-05 22.432 0 24.3924C0 26.3529 1.60315 27.956 3.5636 27.956C5.52407 27.956 7.12721 26.3529 7.12721 24.3924C7.1272 22.432 5.52406 20.8291 3.5636 20.8291ZM3.5636 22.1166C4.82826 22.1166 5.83973 23.1278 5.83974 24.3924C5.83974 25.6571 4.82828 26.6686 3.5636 26.6686C2.29896 26.6686 1.28747 25.6571 1.28747 24.3924C1.28747 23.1278 2.29896 22.1166 3.5636 22.1166Z" fill="#1A2F47"/>
<path fill-rule="evenodd" clip-rule="evenodd" d="M9.60394 21.8955C9.43321 21.8955 9.26949 21.9633 9.14877 22.084C9.02804 22.2048 8.96021 22.3685 8.96021 22.5392C8.96021 22.71 9.02804 22.8737 9.14877 22.9944C9.26949 23.1151 9.43321 23.183 9.60394 23.183H27.3562C27.527 23.183 27.6907 23.1151 27.8114 22.9944C27.9321 22.8737 28 22.71 28 22.5392C28 22.3685 27.9321 22.2048 27.8114 22.084C27.6907 21.9633 27.527 21.8955 27.3562 21.8955H9.60394Z" fill="#1A2F47"/>
<path fill-rule="evenodd" clip-rule="evenodd" d="M9.60394 25.6025C9.43321 25.6025 9.26949 25.6704 9.14877 25.7911C9.02804 25.9118 8.96021 26.0755 8.96021 26.2463C8.96021 26.417 9.02804 26.5808 9.14877 26.7015C9.26949 26.8222 9.43321 26.89 9.60394 26.89H16.9519C17.1226 26.89 17.2863 26.8222 17.4071 26.7015C17.5278 26.5808 17.5956 26.417 17.5956 26.2463C17.5956 26.0755 17.5278 25.9118 17.4071 25.7911C17.2863 25.6704 17.1226 25.6025 16.9519 25.6025H9.60394Z" fill="#1A2F47"/>
</svg>
