<svg width="28" height="28" viewBox="0 0 28 28" fill="none" xmlns="http://www.w3.org/2000/svg">
<path fill-rule="evenodd" clip-rule="evenodd" d="M12.2327 12.2737C12.0501 12.4563 12.0501 12.7513 12.2327 12.9338L15.0335 15.7347C15.1245 15.8257 15.244 15.8714 15.3635 15.8714C15.483 15.8714 15.6025 15.8257 15.6936 15.7347C15.8761 15.5521 15.8761 15.2571 15.6936 15.0746L12.8927 12.2737C12.7102 12.0912 12.4152 12.0912 12.2327 12.2737ZM11.0255 14.141C10.843 13.9585 10.548 13.9585 10.3654 14.141C10.1829 14.3235 10.1829 14.6185 10.3654 14.801L13.1663 17.6019C13.2573 17.6929 13.3768 17.7387 13.4963 17.7387C13.6158 17.7387 13.7353 17.6929 13.8263 17.6019C14.0089 17.4194 14.0089 17.1243 13.8263 16.9418L11.0255 14.141ZM9.15828 16.0082C8.97576 15.8257 8.68074 15.8257 8.49822 16.0082C8.31569 16.1907 8.31569 16.4857 8.49822 16.6683L11.2991 19.4691C11.3901 19.5601 11.5096 19.6059 11.6291 19.6059C11.7486 19.6059 11.8681 19.5601 11.9591 19.4691C12.1416 19.2866 12.1416 18.9916 11.9591 18.809L9.15828 16.0082ZM17.9711 14.9378L13.0295 9.9962L6.22067 16.805L11.1623 21.7467L17.9711 14.9378ZM13.3595 9.0061L18.9612 14.6078C19.1437 14.7903 19.1437 15.0853 18.9612 15.2678L11.4923 22.7368C11.4013 22.8278 11.2818 22.8735 11.1623 22.8735C11.0428 22.8735 10.9233 22.8278 10.8322 22.7368L5.23057 17.1351C5.04805 16.9526 5.04805 16.6575 5.23057 16.475L12.6995 9.0061C12.882 8.82358 13.177 8.82358 13.3595 9.0061ZM24.2212 17.0735C23.9981 16.9423 23.7124 17.0174 23.5821 17.2401L18.2316 26.3662C17.8451 27.0351 16.9866 27.2652 16.3387 26.8918L15.2963 26.2163C15.0807 26.0758 14.7912 26.1379 14.6512 26.354C14.5107 26.5706 14.5723 26.8596 14.7889 26.9996L15.8514 27.6882C16.2178 27.8996 16.6188 28 17.0146 28C17.8217 28 18.6074 27.5822 19.0382 26.8358L24.3874 17.712C24.5176 17.4898 24.4434 17.2042 24.2212 17.0735ZM27.9673 2.33403V9.80294C27.9673 11.2472 27.508 12.3232 26.4301 13.4006L12.5669 27.2835C12.1258 27.7246 11.5395 27.9669 10.9158 27.9669C10.2922 27.9669 9.70631 27.7246 9.26611 27.2835L0.683872 18.7017C0.24274 18.2605 0 17.6742 0 17.0506C0 16.4269 0.24274 15.8411 0.683872 15.4004L12.8087 3.29192C9.63816 2.57117 7.67057 2.52262 7.09453 2.69114C7.33773 2.93995 8.09536 3.46837 9.92384 4.18912C10.1638 4.28389 10.2814 4.55463 10.1871 4.79457C10.0924 5.03451 9.82115 5.15075 9.58167 5.05785C5.79681 3.56594 6.01807 2.73875 6.10163 2.4274C6.27482 1.77853 7.19956 1.5624 9.09386 1.72812C10.6367 1.86303 12.6281 2.24347 14.7011 2.79851C16.7742 3.35401 18.6881 4.02014 20.0914 4.67507C21.8162 5.47938 22.5076 6.12777 22.3334 6.7771C22.1654 7.40355 21.292 7.48011 21.0049 7.50532C20.9914 7.50672 20.9774 7.50718 20.9638 7.50718C20.7243 7.50718 20.5208 7.32373 20.4993 7.08099C20.4765 6.82425 20.6665 6.59785 20.9237 6.57544C21.1225 6.55817 21.2546 6.53109 21.3401 6.50682C21.1403 6.29816 20.6347 5.97279 19.8262 5.58534C19.6568 5.87103 19.5648 6.19919 19.5648 6.53529C19.5648 7.56507 20.4023 8.40252 21.432 8.40252C22.4618 8.40252 23.2993 7.56507 23.2993 6.53529C23.2993 5.50552 22.4618 4.66807 21.432 4.66807C21.1739 4.66807 20.9652 4.4594 20.9652 4.20126C20.9652 3.94312 21.1739 3.73445 21.432 3.73445C22.9767 3.73445 24.2329 4.99063 24.2329 6.53529C24.2329 8.07996 22.9767 9.33613 21.432 9.33613C19.8874 9.33613 18.6312 8.07996 18.6312 6.53529C18.6312 6.06709 18.7544 5.61102 18.9743 5.20396C17.8572 4.73482 16.3588 4.20966 14.4598 3.70038C14.2595 3.64669 14.0668 3.59768 13.874 3.54866L1.34394 16.061C1.07926 16.3252 0.933613 16.6771 0.933613 17.0506C0.933613 17.425 1.07926 17.7765 1.34394 18.0411L9.92618 26.6234C10.4551 27.1523 11.3775 27.1523 11.9064 26.6234L25.7696 12.7406C26.6794 11.8312 27.0337 11.0073 27.0337 9.80294V2.33403C27.0337 1.56194 26.4054 0.933613 25.6333 0.933613H18.1644C16.96 0.933613 16.1361 1.28792 15.2268 2.19726C15.0442 2.37978 14.7492 2.37978 14.5667 2.19726C14.3842 2.01474 14.3842 1.71972 14.5667 1.53719C15.6441 0.459338 16.7201 0 18.1644 0H25.6333C26.9203 0 27.9673 1.04705 27.9673 2.33403Z" fill="#1A2F47"/>
</svg>
