<svg width="28" height="28" viewBox="0 0 28 28" fill="none" xmlns="http://www.w3.org/2000/svg">
<path d="M13.9856 25.1591C20.1416 25.1591 25.1477 20.1531 25.1477 13.997C25.1477 7.84099 20.1416 2.83496 13.9856 2.83496C7.82951 2.83496 2.82349 7.84099 2.82349 13.997C2.82349 20.1531 7.82951 25.1591 13.9856 25.1591ZM13.9856 3.73695C19.6455 3.73695 24.2457 8.33708 24.2457 13.997C24.2457 19.657 19.6455 24.2572 13.9856 24.2572C8.32561 24.2572 3.72547 19.657 3.72547 13.997C3.72547 8.33708 8.32561 3.73695 13.9856 3.73695Z" fill="#1A2F47"/>
<path d="M23.9976 25.8129V22.4756L23.2309 23.2423C19.1945 27.2787 13.0836 28.2258 8.0099 25.6325L7.604 26.4443C9.63347 27.4816 11.8208 28.0003 13.9856 28.0003C17.2778 28.0003 20.5024 26.8277 23.0956 24.6178V25.8355H23.9976V25.8129Z" fill="#1A2F47"/>
<path d="M2.16946 23.1065V24.0085H5.50681L4.74012 23.2418C0.726277 19.2505 -0.243359 13.1621 2.30475 8.11097L1.49297 7.70508C-1.05515 12.7788 -0.288458 18.8446 3.38714 23.1065H2.16946Z" fill="#1A2F47"/>
<path d="M25.6436 19.9271L26.4554 20.333C29.0486 15.2368 28.2819 9.14834 24.5838 4.8639H26.9289V3.96191H22.4641L23.2308 4.75115C27.2446 8.76499 28.2143 14.876 25.6436 19.9271Z" fill="#1A2F47"/>
<path d="M19.916 2.33847L20.3219 1.52668C15.2257 -1.06653 9.13726 -0.29984 4.87538 3.39831V2.18062H3.97339V5.51798L4.74008 4.75129C8.75392 0.737445 14.8649 -0.232191 19.916 2.33847Z" fill="#1A2F47"/>
<path d="M14.4364 5.06738H13.5344V5.78897H14.4364V5.06738Z" fill="#1A2F47"/>
<path d="M22.9152 13.5459H22.1936V14.4479H22.9152V13.5459Z" fill="#1A2F47"/>
<path d="M14.4364 22.2051H13.5344V22.9267H14.4364V22.2051Z" fill="#1A2F47"/>
<path d="M5.7775 13.5459H5.05591V14.4479H5.7775V13.5459Z" fill="#1A2F47"/>
<path d="M13.5345 15.7782H14.4365V14.4478H18.6308V13.5458H14.4365V7.11914H13.5345V13.5458H12.2041V14.4478H13.5345V15.7782Z" fill="#1A2F47"/>
</svg>
