<svg width="29" height="28" viewBox="0 0 29 28" fill="none" xmlns="http://www.w3.org/2000/svg">
<path d="M14.2647 0L0 6.75038V11.1066H1.94051V28H3.12935V11.1066H25.402V28H26.5909V11.1066H28.5317V6.69378L14.2647 0ZM27.3429 9.91775H1.18884V7.50326L14.267 1.31421L27.343 7.449V9.91775H27.3429Z" fill="#1A2F47"/>
<path d="M13.6044 15.9023H8.16528V21.2674H13.6044V15.9023ZM12.4155 20.0786H9.35407V17.0912H12.4155V20.0786Z" fill="#1A2F47"/>
<path d="M20.3661 15.9023H14.927V21.2674H20.3661V15.9023ZM19.1772 20.0786H16.1158V17.0912H19.1772V20.0786Z" fill="#1A2F47"/>
<path d="M4.84692 27.674H10.2863V22.3086H4.84692V27.674ZM6.03571 23.4974H9.09746V26.4852H6.03571V23.4974Z" fill="#1A2F47"/>
<path d="M11.5461 27.674H16.9855V22.3086H11.5461V27.674ZM12.7349 23.4974H15.7967V26.4852H12.7349V23.4974Z" fill="#1A2F47"/>
<path d="M18.2454 27.674H23.6844V22.3086H18.2454V27.674ZM19.4341 23.4974H22.4956V26.4852H19.4341V23.4974Z" fill="#1A2F47"/>
<path d="M8.09377 7.3877H5.26074V8.57654H8.09377V7.3877Z" fill="#1A2F47"/>
<path d="M15.6821 7.3877H12.8491V8.57654H15.6821V7.3877Z" fill="#1A2F47"/>
<path d="M23.2705 7.3877H20.4375V8.57654H23.2705V7.3877Z" fill="#1A2F47"/>
</svg>
