<svg width="26" height="24" viewBox="0 0 26 24" fill="none" xmlns="http://www.w3.org/2000/svg">
<path d="M18.5166 20H14.45V24H18.5166V20Z" fill="#21364D"/>
<path d="M25.6333 20H21.5667V24H25.6333V20Z" fill="#21364D"/>
<path d="M18.5166 13H14.45V17H18.5166V13Z" fill="#21364D"/>
<path d="M25.6333 13H21.5667V17H25.6333V13Z" fill="#21364D"/>
<path d="M25.6333 7H19.5333V3C19.5333 1.3 18.2117 0 16.4833 0H10.3833C8.65501 0 7.33334 1.3 7.33334 3V7H1.23334C0.623341 7 0.216675 7.4 0.216675 8C0.216675 8.1 0.216675 8.1 0.216675 8.2L2.14834 20.3C2.25001 21.3 3.16501 22 4.18167 22H12.4167V20H4.18167L2.45334 9H25.6333V7ZM9.36667 3C9.36667 2.4 9.77334 2 10.3833 2H16.4833C17.0933 2 17.5 2.4 17.5 3V7H9.36667V3Z" fill="#21364D"/>
</svg>
