<svg width="21" height="20" viewBox="0 0 21 20" fill="none" xmlns="http://www.w3.org/2000/svg">
<path d="M11.0008 0.0292969V0.0492969V2.0493C15.3908 2.5893 18.5008 6.5793 17.9608 10.9693C17.5008 14.6093 14.6408 17.4993 11.0008 17.9293V19.9293C16.5008 19.3793 20.5008 14.4993 19.9508 8.9993C19.5008 4.2493 15.7308 0.499297 11.0008 0.0292969ZM9.00078 0.0592968C7.05078 0.249297 5.19078 0.999297 3.67078 2.2593L5.10078 3.7393C6.22078 2.8393 7.57078 2.2593 9.00078 2.0593V0.0592968ZM2.26078 3.6693C1.00078 5.1893 0.250781 7.0393 0.0507812 8.9993H2.05078C2.24078 7.5793 2.80078 6.2293 3.69078 5.0993L2.26078 3.6693ZM13.5008 6.4993L8.62078 11.3793L6.50078 9.2593L5.44078 10.3193L8.62078 13.4993L14.5608 7.5593L13.5008 6.4993ZM0.0607812 10.9993C0.260781 12.9593 1.03078 14.8093 2.27078 16.3293L3.69078 14.8993C2.81078 13.7693 2.24078 12.4193 2.06078 10.9993H0.0607812ZM5.10078 16.3693L3.67078 17.7393C5.18078 18.9993 7.04078 19.7893 9.00078 19.9993V17.9993C7.58078 17.8193 6.23078 17.2493 5.10078 16.3693Z" fill="#21364D"/>
</svg>
