<svg width="30" height="31" viewBox="0 0 30 31" fill="none" xmlns="http://www.w3.org/2000/svg">
<path d="M29.126 21.9609L22.5635 19.1484C22.3877 19.0898 22.2119 19.0312 21.9775 19.0312C21.5674 19.0312 21.1572 19.2656 20.9229 19.5586L17.9932 23.1328C13.4229 20.9648 9.79004 17.332 7.62207 12.7617L11.1963 9.83203C11.4893 9.59766 11.7236 9.1875 11.7236 8.71875C11.7236 8.54297 11.665 8.36719 11.6064 8.19141L8.79395 1.62891C8.55957 1.10156 8.03223 0.75 7.44629 0.75C7.3877 0.75 7.27051 0.808594 7.15332 0.808594L1.05957 2.21484C0.415039 2.39062 0.00488281 2.91797 0.00488281 3.5625C0.00488281 18.6211 12.1338 30.75 27.1924 30.75C27.8369 30.75 28.3643 30.3398 28.54 29.6953L29.9463 23.6016C29.9463 23.4844 29.9463 23.3672 29.9463 23.3086C29.9463 22.7227 29.5947 22.1953 29.126 21.9609Z" fill="white"/>
</svg>
