<svg width="24" height="31" viewBox="0 0 24 31" fill="none" xmlns="http://www.w3.org/2000/svg">
<path d="M10.833 30.1641C11.3604 30.9844 12.5908 30.9844 13.1182 30.1641C21.6729 17.8594 23.2549 16.5703 23.2549 12C23.2549 5.78906 18.2158 0.75 12.0049 0.75C5.73535 0.75 0.754883 5.78906 0.754883 12C0.754883 16.5703 2.27832 17.8594 10.833 30.1641ZM12.0049 16.6875C9.36816 16.6875 7.31738 14.6367 7.31738 12C7.31738 9.42188 9.36816 7.3125 12.0049 7.3125C14.583 7.3125 16.6924 9.42188 16.6924 12C16.6924 14.6367 14.583 16.6875 12.0049 16.6875Z" fill="white"/>
</svg>
