<svg width="49" height="60" viewBox="0 0 49 60" fill="none" xmlns="http://www.w3.org/2000/svg">
<path d="M36.4157 8.44968C36.4144 8.43304 36.409 8.41839 36.409 8.40174C36.409 8.38577 36.4144 8.37045 36.4157 8.35381V4.10932H30.4661C29.7537 4.10932 29.0992 3.70585 28.7849 3.06601C27.8515 1.17447 25.9773 0 23.8993 0C21.816 0 19.9438 1.17447 19.0083 3.06535C18.6934 3.70518 18.0396 4.10932 17.3298 4.10932H11.3789V8.37711C11.3789 8.38577 11.3816 8.39309 11.3816 8.40174C11.3816 8.4104 11.3789 8.41772 11.3789 8.42571V12.6948H36.4157V8.44968Z" fill="#1A2F47"/>
<path d="M40.1651 10.2754V14.5685C40.1651 15.6031 39.3262 16.4427 38.2916 16.4427H9.50697C8.46899 16.4427 7.63208 15.6031 7.63208 14.5685V10.2754H0V59.9988H44.0521C46.2352 59.9988 48.0089 58.2237 48.0089 56.0446V10.2754H40.1651Z" fill="#D9D9D9"/>
<path d="M13.5249 49.918H7.35696C6.32164 49.918 5.4834 49.0791 5.4834 48.0451C5.4834 47.0085 6.32231 46.1702 7.35696 46.1702H13.5249C14.5616 46.1702 15.3985 47.0091 15.3985 48.0451C15.3992 49.0791 14.5616 49.918 13.5249 49.918ZM24.1664 49.918H19.5864C18.5524 49.918 17.7128 49.0791 17.7128 48.0451C17.7128 47.0085 18.5531 46.1702 19.5864 46.1702H24.1664C25.2004 46.1702 26.04 47.0091 26.04 48.0451C26.04 49.0791 25.1998 49.918 24.1664 49.918ZM36.2521 49.918H30.4057C29.369 49.918 28.5294 49.0791 28.5294 48.0451C28.5294 47.0085 29.3697 46.1702 30.4057 46.1702H36.2521C37.2847 46.1702 38.1256 47.0091 38.1256 48.0451C38.1256 49.0791 37.2847 49.918 36.2521 49.918ZM40.6483 38.6314H7.35696C6.32164 38.6314 5.4834 37.7924 5.4834 36.7578C5.4834 35.7211 6.32231 34.8829 7.35696 34.8829H40.6483C41.685 34.8829 42.5219 35.7218 42.5219 36.7578C42.5226 37.7931 41.685 38.6314 40.6483 38.6314ZM40.6483 27.3507H7.35696C6.32164 27.3507 5.4834 26.5118 5.4834 25.4765C5.4834 24.4405 6.32231 23.6016 7.35696 23.6016H40.6483C41.685 23.6016 42.5219 24.4411 42.5219 25.4765C42.5226 26.5118 41.685 27.3507 40.6483 27.3507Z" fill="#1A2F47"/>
</svg>
