<svg width="51" height="61" viewBox="0 0 51 61" fill="none" xmlns="http://www.w3.org/2000/svg">
<path d="M8.05383 52.0401V11.4033H0V60.7816H35.4542C37.1866 60.7816 38.5962 59.372 38.5962 57.637V53.9202H9.93528C8.89664 53.9202 8.05383 53.0794 8.05383 52.0401Z" fill="#1A2F47"/>
<path d="M41.6648 12.0324H47.6166L38.5234 3.31152V8.89105C38.5234 10.6241 39.9317 12.0324 41.6648 12.0324Z" fill="#1A2F47"/>
<path d="M41.663 15.7944C37.8567 15.7944 34.7588 12.6965 34.7588 8.89019V0.782227H11.8164V50.1599H40.2721C40.3397 50.1519 40.4072 50.1391 40.478 50.1391C40.5495 50.1391 40.6164 50.1525 40.6859 50.1599H47.272C49.0064 50.1599 50.414 48.7489 50.414 47.0152V15.7944H41.663Z" fill="#D9D9D9"/>
<path d="M26.8522 36.7707H20.4713C19.4306 36.7707 18.5898 35.9299 18.5898 34.8899C18.5898 33.8519 19.4313 33.0098 20.4713 33.0098H26.8522C27.8888 33.0098 28.7316 33.8519 28.7316 34.8899C28.731 35.9299 27.8882 36.7707 26.8522 36.7707Z" fill="#1A2F47"/>
<path d="M36.9685 36.7707H34.3512C33.3119 36.7707 32.4697 35.9299 32.4697 34.8899C32.4697 33.8519 33.3125 33.0098 34.3512 33.0098H36.9685C38.0078 33.0098 38.85 33.8519 38.85 34.8899C38.8506 35.9299 38.0078 36.7707 36.9685 36.7707Z" fill="#1A2F47"/>
<path d="M41.7578 28.1317H20.4703C19.4297 28.1317 18.5889 27.2902 18.5889 26.2509C18.5889 25.2123 19.4303 24.3701 20.4703 24.3701H41.7578C42.7971 24.3701 43.6393 25.2123 43.6393 26.2509C43.6399 27.2902 42.7971 28.1317 41.7578 28.1317Z" fill="#1A2F47"/>
</svg>
