<svg width="15" height="15" viewBox="0 0 15 15" fill="none" xmlns="http://www.w3.org/2000/svg">
<path d="M12.1875 7.5L9.375 11.25H11.2505V15H13.1255V11.25H15L12.1875 7.5Z" fill="white"/>
<path d="M14.5875 0.412031C14.4961 0.320625 14.3878 0.246562 14.2734 0.182812C14.1502 0.114375 14.0189 0.058125 13.8764 0.0285938C13.7845 0.00984375 13.6898 0 13.5933 0H1.40578C1.30875 0 1.21406 0.00984375 1.12219 0.0285938C0.970313 0.0595312 0.830156 0.12 0.700312 0.195937C0.595312 0.257344 0.495937 0.326719 0.411094 0.411563H0.411563C0.157031 0.666562 0 1.01812 0 1.40625V10.7812C0 11.1694 0.157031 11.5209 0.411563 11.7755C0.496406 11.8608 0.595781 11.9302 0.700781 11.9911C0.830625 12.067 0.970312 12.1275 1.12266 12.1584C1.21406 12.1777 1.30875 12.1875 1.40578 12.1875H8.4375V11.25H1.59984L6.09328 6.75656L6.50531 7.16859C6.77859 7.44234 7.14141 7.58109 7.49953 7.58063C7.85766 7.58109 8.22047 7.44234 8.49375 7.16859L8.90578 6.75656L10.3823 8.23312L11.0452 7.57031L9.56859 6.09375L14.0625 1.60031V8.4375H15V1.40625C15 1.01812 14.842 0.666562 14.5875 0.412031ZM0.9375 10.5872V1.60031L5.43094 6.09375L0.9375 10.5872ZM7.83094 6.50578C7.73812 6.59812 7.62094 6.64266 7.49953 6.64313C7.37812 6.64266 7.26094 6.59812 7.16813 6.50578L1.59984 0.9375H13.3992L7.83094 6.50578Z" fill="#8B9198"/>
</svg>
