<svg width="15" height="15" viewBox="0 0 15 15" fill="none" xmlns="http://www.w3.org/2000/svg">
<path d="M8.40233 0.933557C9.94736 0.933557 11.3449 1.56091 12.3611 2.57615C13.3763 3.59233 14.0037 4.98986 14.0037 6.5349C14.0037 6.79256 14.2128 7.00168 14.4704 7.00168C14.7281 7.00168 14.9372 6.79256 14.9372 6.5349C14.9363 2.93044 12.0068 0.000933557 8.40233 0C8.14466 0 7.93555 0.209117 7.93555 0.466779C7.93555 0.72444 8.14466 0.933557 8.40233 0.933557Z" fill="white"/>
<path d="M8.40233 2.80074C9.43251 2.80074 10.3637 3.21851 11.0415 3.89581C11.7188 4.57357 12.1366 5.50479 12.1366 6.53497C12.1366 6.79264 12.3457 7.00175 12.6033 7.00175C12.861 7.00175 13.0701 6.79264 13.0701 6.53497C13.0692 3.95976 10.9775 1.86812 8.40233 1.86719C8.14466 1.86719 7.93555 2.0763 7.93555 2.33397C7.93555 2.59163 8.14466 2.80074 8.40233 2.80074Z" fill="white"/>
<path d="M8.40233 4.66793C9.43064 4.6698 10.2676 5.50627 10.2694 6.53505C10.2694 6.79271 10.4786 7.00183 10.7362 7.00183C10.9939 7.00183 11.203 6.79271 11.203 6.53505C11.2021 4.98908 9.94783 3.73531 8.40233 3.73438C8.14466 3.73438 7.93555 3.94349 7.93555 4.20115C7.93555 4.45882 8.14466 4.66793 8.40233 4.66793Z" fill="white"/>
<path d="M11.9491 8.33153C11.677 8.05893 11.3157 7.92077 10.9591 7.92123C10.6025 7.92077 10.2412 8.05893 9.96906 8.33153L9.30904 8.99156C9.21661 9.08351 9.09992 9.12786 8.97902 9.12832C8.85813 9.12786 8.74143 9.08351 8.64901 8.99156L6.00844 6.35099C5.91649 6.25857 5.87214 6.14187 5.87168 6.02098C5.87214 5.90008 5.91649 5.78339 6.00844 5.69097L6.66847 5.03094C6.94107 4.75881 7.07923 4.39752 7.07877 4.0409C7.07923 3.68428 6.94107 3.323 6.66847 3.05087L4.0279 0.4103C3.7553 0.137701 3.39448 -0.0004656 3.0374 1.17875e-06C2.68078 -0.0004656 2.31949 0.137701 2.04736 0.4103L0.726843 1.73035C0.228324 2.22233 -0.00459903 2.84875 6.87522e-05 3.47237C0.0145389 4.73547 0.804328 5.98597 1.75096 7.17812C2.70458 8.36514 3.85473 9.47841 4.68793 10.3121C5.52159 11.1453 6.63486 12.2954 7.82188 13.249C9.01403 14.1957 10.2645 14.9855 11.5276 14.9999C12.1512 15.0046 12.7772 14.7717 13.2697 14.2732L14.5902 12.9531C14.8628 12.681 15.0009 12.3197 15.0005 11.9631C15.0009 11.606 14.8628 11.2452 14.5902 10.973L11.9491 8.33153ZM2.70739 1.07032C2.79981 0.978369 2.9165 0.934025 3.0374 0.933559C3.15829 0.934025 3.27499 0.978369 3.36741 1.07032L6.00798 3.71089C6.09993 3.80331 6.14428 3.92001 6.14474 4.0409C6.14428 4.1618 6.09993 4.27849 6.00798 4.37092L5.67796 4.70093L2.37737 1.40034L2.70739 1.07032ZM12.6092 13.6127C12.2735 13.9417 11.9407 14.0612 11.5272 14.0659C10.694 14.0804 9.52609 13.4316 8.40629 12.5209C7.28088 11.6177 6.18769 10.4918 5.34795 9.65158C4.50775 8.81185 3.38235 7.71865 2.47866 6.59325C1.56844 5.47345 0.919623 4.30557 0.933626 3.47237C0.938294 3.0588 1.05779 2.72645 1.38687 2.39037L1.71688 2.06036L5.08422 5.4277C4.9946 5.61722 4.93719 5.817 4.93719 6.02098C4.93672 6.3776 5.07489 6.73888 5.34748 7.01102L7.98805 9.65158C8.26018 9.92418 8.62147 10.0623 8.97809 10.0619C9.18207 10.0623 9.38185 10.0045 9.57136 9.91485L12.9387 13.2822L12.6092 13.6127ZM13.9297 12.2921L13.5997 12.6222L10.2991 9.32157L10.6291 8.99156C10.7215 8.8996 10.8382 8.85526 10.9591 8.85479C11.08 8.85526 11.1967 8.8996 11.2891 8.99156L13.9297 11.6321C14.0216 11.7245 14.066 11.8412 14.0664 11.9621C14.0655 12.0835 14.0216 12.2002 13.9297 12.2921Z" fill="#8B9198"/>
</svg>
