<svg width="12" height="20" viewBox="0 0 12 20" fill="none" xmlns="http://www.w3.org/2000/svg">
<path d="M10.197 0H1.80037C0.991031 0 0.332031 0.659 0.332031 1.46834V18.5314C0.332031 19.341 0.991031 20 1.80037 20H10.1967C11.0064 20 11.6654 19.341 11.6654 18.5317V1.46834C11.6654 0.659 11.0064 0 10.197 0ZM0.998703 2.66666H10.9987V15.3334H0.998703V2.66666ZM1.80037 0.666667H10.1967C10.639 0.666667 10.9987 1.02634 10.9987 1.46834V2H0.998703V1.46834C0.998703 1.02634 1.35837 0.666667 1.80037 0.666667ZM10.197 19.3334H1.80037C1.35837 19.3334 0.998703 18.9736 0.998703 18.5317V16H10.9987V18.5317C10.9987 18.9736 10.639 19.3334 10.197 19.3334Z" fill="#21364D"/>
<path d="M5.99742 16.334C5.26206 16.334 4.66406 16.932 4.66406 17.6673C4.66406 18.4026 5.26206 19.0006 5.99742 19.0006C6.73271 19.0006 7.3307 18.4026 7.3307 17.6673C7.3307 16.932 6.73271 16.334 5.99742 16.334ZM5.99742 18.334C5.62971 18.334 5.33071 18.035 5.33071 17.6673C5.33071 17.2996 5.62971 17.0006 5.99742 17.0006C6.36506 17.0006 6.66406 17.2996 6.66406 17.6673C6.66406 18.035 6.36506 18.334 5.99742 18.334Z" fill="#21364D"/>
</svg>
