<svg width="51" height="50" viewBox="0 0 51 50" fill="none" xmlns="http://www.w3.org/2000/svg">
<path d="M35.0859 15.4764L31.0234 14.5389C30.5938 14.4217 30.125 14.656 29.9297 15.0857L28.0547 19.4607C27.8984 19.8514 28.0156 20.281 28.3281 20.5545L30.7109 22.5076C29.3047 25.4764 26.8438 27.9764 23.7969 29.4217L21.8438 27.0389C21.5703 26.7264 21.1406 26.6092 20.75 26.7654L16.375 28.6404C15.9453 28.8357 15.75 29.3045 15.8281 29.7342L16.7656 33.7967C16.8828 34.2264 17.2344 34.4998 17.7031 34.4998C27.7031 34.4998 35.8281 26.4139 35.8281 16.3748C35.8281 15.9451 35.5156 15.5935 35.0859 15.4764Z" fill="white"/>
<rect x="1.82812" y="1" width="48" height="48" rx="24" stroke="#E0E4E8" stroke-width="2"/>
</svg>
