<svg width="18" height="20" viewBox="0 0 18 20" fill="none" xmlns="http://www.w3.org/2000/svg">
<path d="M12.9572 5.38855C12.9572 6.82391 12.6058 8.08935 11.9421 8.9862C11.2875 9.87085 10.3141 10.4197 8.99604 10.4197C7.67797 10.4197 6.70461 9.87085 6.04997 8.9862C5.38632 8.08935 5.03491 6.82391 5.03491 5.38855C5.03491 3.93362 5.30072 2.67117 5.91627 1.7817C6.51476 0.916868 7.4744 0.36018 8.98475 0.357422C10.5842 0.461227 11.5478 1.02568 12.1278 1.86226C12.7236 2.72159 12.9572 3.92703 12.9572 5.38855Z" stroke="#21364D"/>
<path d="M11.5046 11.2344C12.4331 11.7699 15.0597 12.9504 15.9682 13.4124C16.8767 13.8745 16.9673 16.9471 16.4677 17.5541C15.9682 18.1611 11.0252 19.2857 8.89844 19.4464" stroke="#21364D"/>
<path d="M6.38986 11.2344C5.46135 11.7699 2.8348 12.9504 1.92626 13.4124C1.01771 13.8745 0.92717 16.9471 1.42671 17.5541C1.92626 18.1611 6.86928 19.2857 8.996 19.4464" stroke="#21364D"/>
</svg>
