<svg width="10" height="11" viewBox="0 0 10 11" fill="none" xmlns="http://www.w3.org/2000/svg">
<path d="M6.99961 10.9308H2.94961C2.12461 10.9308 1.47461 10.2569 1.47461 9.45829V4.94098C1.47461 4.79124 1.57461 4.69141 1.72461 4.69141C1.87461 4.69141 1.97461 4.79124 1.97461 4.94098V9.45829C1.97461 10.0073 2.42461 10.4316 2.94961 10.4316H6.99961C7.54961 10.4316 7.97461 9.98239 7.97461 9.45829V4.94098C7.97461 4.79124 8.07461 4.69141 8.22461 4.69141C8.37461 4.69141 8.47461 4.79124 8.47461 4.94098V9.45829C8.47461 10.2569 7.79961 10.9308 6.99961 10.9308Z" fill="#A3A3A3"/>
<path d="M8.32461 2.17018H6.42461C6.29961 1.47137 5.69961 0.947266 4.97461 0.947266C4.24961 0.947266 3.64961 1.47137 3.52461 2.17018H1.62461C1.04961 2.17018 0.599609 2.61942 0.599609 3.19344C0.599609 3.76746 1.04961 4.19174 1.62461 4.19174H8.34961C8.92461 4.19174 9.37461 3.7425 9.37461 3.16848C9.37461 2.59446 8.89961 2.17018 8.32461 2.17018ZM4.97461 1.44642C5.42461 1.44642 5.79961 1.74591 5.89961 2.17018H4.02461C4.14961 1.74591 4.52461 1.44642 4.97461 1.44642ZM8.32461 3.69259H1.62461C1.34961 3.69259 1.09961 3.46797 1.09961 3.16848C1.09961 2.89395 1.32461 2.64437 1.62461 2.64437H8.34961C8.62461 2.64437 8.87461 2.86899 8.87461 3.16848C8.84961 3.46797 8.62461 3.69259 8.32461 3.69259Z" fill="#A3A3A3"/>
<path d="M3.22461 9.70709C3.07461 9.70709 2.97461 9.60726 2.97461 9.45751V5.28961C2.97461 5.13987 3.07461 5.04004 3.22461 5.04004C3.37461 5.04004 3.47461 5.13987 3.47461 5.28961V9.45751C3.47461 9.5823 3.34961 9.70709 3.22461 9.70709Z" fill="#A3A3A3"/>
<path d="M6.72461 9.70709C6.57461 9.70709 6.47461 9.60726 6.47461 9.45751V5.28961C6.47461 5.13987 6.57461 5.04004 6.72461 5.04004C6.87461 5.04004 6.97461 5.13987 6.97461 5.28961V9.45751C6.97461 9.5823 6.84961 9.70709 6.72461 9.70709Z" fill="#A3A3A3"/>
<path d="M4.97461 9.70709C4.82461 9.70709 4.72461 9.60726 4.72461 9.45751V5.28961C4.72461 5.13987 4.82461 5.04004 4.97461 5.04004C5.12461 5.04004 5.22461 5.13987 5.22461 5.28961V9.45751C5.22461 9.5823 5.09961 9.70709 4.97461 9.70709Z" fill="#A3A3A3"/>
</svg>
