<svg width="1346" height="397" viewBox="0 0 1346 397" fill="none" xmlns="http://www.w3.org/2000/svg">
<path d="M1250.94 184.478L1200.45 198.432C1200.08 225.302 1189.15 250.949 1170 269.822C1150.86 288.695 1125.05 299.276 1098.16 299.276C1071.26 299.276 1045.45 288.695 1026.31 269.822C1007.17 250.949 996.229 225.302 995.865 198.432C995.805 146.616 975.413 96.8895 939.068 59.9326C902.722 22.9757 853.323 1.73597 801.479 0.774902H798.03C745.586 0.83437 695.306 21.6768 658.219 58.7307C621.132 95.7846 600.265 146.025 600.195 198.432C599.831 225.302 588.894 250.949 569.75 269.822C550.607 288.695 524.796 299.276 497.904 299.276C471.012 299.276 445.202 288.695 426.058 269.822C406.914 250.949 395.977 225.302 395.613 198.432C395.554 146.625 375.169 96.9073 338.836 59.952C302.503 22.9967 253.118 1.7505 201.283 0.774902H197.835C145.39 0.83437 95.1107 21.6768 58.0234 58.7307C20.9362 95.7846 0.0694486 146.025 0 198.432L0 208.377L47.6265 201.579L95.2718 208.377V198.432H95.5904C95.6202 171.328 106.408 145.344 125.586 126.179C144.765 107.014 170.768 96.2337 197.891 96.2039C199.053 96.2039 200.196 96.2039 201.34 96.2976C227.844 97.2146 252.957 108.373 271.392 127.424C289.827 146.475 300.145 171.931 300.173 198.432C300.173 250.864 321.016 301.148 358.117 338.223C395.218 375.298 445.538 396.126 498.007 396.126C550.476 396.126 600.796 375.298 637.898 338.223C674.999 301.148 695.842 250.864 695.842 198.432C695.867 171.33 706.65 145.345 725.826 126.18C745.002 107.014 771.003 96.2337 798.124 96.2039C799.286 96.2039 800.429 96.2039 801.573 96.2976C828.08 97.2098 853.198 108.367 871.637 127.418C890.076 146.469 900.396 171.928 900.424 198.432C900.424 250.864 921.268 301.148 958.369 338.223C995.47 375.298 1045.79 396.126 1098.26 396.126C1150.73 396.126 1201.05 375.298 1238.15 338.223C1275.25 301.148 1296.09 250.864 1296.09 198.432L1250.94 184.478Z" fill="url(#paint0_linear_436_1098)"/>
<g style="mix-blend-mode:multiply">
<path d="M197.835 13.5862H201.283C253.135 14.5426 302.543 35.786 338.891 72.752C375.238 109.718 395.624 159.457 395.669 211.281C395.486 224.821 397.996 238.262 403.055 250.824C408.113 263.387 415.618 274.82 425.135 284.46C434.652 294.099 445.99 301.753 458.492 306.978C470.994 312.202 484.41 314.892 497.96 314.892C511.511 314.892 524.927 312.202 537.429 306.978C549.931 301.753 561.269 294.099 570.786 284.46C580.303 274.82 587.808 263.387 592.866 250.824C597.925 238.262 600.435 224.821 600.252 211.281C600.311 158.877 621.166 108.635 658.242 71.5751C695.318 34.5146 745.589 13.6605 798.03 13.5862C799.192 13.5862 800.336 13.5862 801.479 13.5862C853.331 14.5426 902.739 35.786 939.086 72.752C975.433 109.718 995.82 159.457 995.865 211.281C995.681 224.821 998.192 238.262 1003.25 250.824C1008.31 263.387 1015.81 274.82 1025.33 284.46C1034.85 294.099 1046.19 301.753 1058.69 306.978C1071.19 312.202 1084.61 314.892 1098.16 314.892C1111.71 314.892 1125.12 312.202 1137.62 306.978C1150.13 301.753 1161.46 294.099 1170.98 284.46C1180.5 274.82 1188 263.387 1193.06 250.824C1198.12 238.262 1200.63 224.821 1200.45 211.281L1250.94 197.346L1295.57 211.075C1295.85 206.879 1296 202.627 1296 198.357L1251.02 184.403L1200.52 198.357C1200.16 225.227 1189.22 250.874 1170.08 269.747C1150.93 288.62 1125.12 299.201 1098.23 299.201C1071.34 299.201 1045.53 288.62 1026.38 269.747C1007.24 250.874 996.304 225.227 995.94 198.357C995.86 146.541 975.449 96.8228 939.089 59.88C902.73 22.9372 853.323 1.71633 801.479 0.774902H798.03C745.586 0.83437 695.306 21.6768 658.219 58.7307C621.132 95.7846 600.265 146.025 600.195 198.432C599.831 225.302 588.894 250.949 569.75 269.822C550.607 288.695 524.796 299.276 497.904 299.276C471.012 299.276 445.202 288.695 426.058 269.822C406.914 250.949 395.977 225.302 395.613 198.432C395.554 146.625 375.169 96.9073 338.836 59.952C302.503 22.9967 253.118 1.7505 201.283 0.774902H197.835C145.39 0.83437 95.1106 21.6768 58.0234 58.7307C20.9362 95.7846 0.0694486 146.025 0 198.432L0 208.377C0.821017 156.469 22.0191 106.961 59.0253 70.5239C96.0316 34.087 145.883 13.6386 197.835 13.5862Z" fill="#D1D3D4"/>
</g>
<path d="M33.3579 161.013C35.1275 161.013 36.5653 161.594 37.6713 162.755C38.7994 163.905 39.3634 165.327 39.3634 167.019C39.3634 168.711 38.7994 170.138 37.6713 171.299C36.5542 172.449 35.1164 173.024 33.3579 173.024C32.2961 173.024 31.3118 172.764 30.4048 172.245C29.4979 171.725 28.8067 171.028 28.3311 170.154L29.3597 169.574C29.7246 170.281 30.2666 170.845 30.9855 171.266C31.7044 171.686 32.4952 171.896 33.3579 171.896C34.6851 171.896 35.7911 171.487 36.6759 170.668C37.5496 169.861 38.0473 168.827 38.169 167.566H31.815V166.471H38.169C38.0473 165.21 37.5496 164.176 36.6759 163.369C35.7911 162.55 34.6851 162.141 33.3579 162.141C32.4952 162.141 31.7044 162.351 30.9855 162.772C30.2666 163.192 29.7246 163.756 29.3597 164.464L28.3311 163.867C28.8288 162.993 29.5256 162.302 30.4214 161.793C31.3173 161.273 32.2961 161.013 33.3579 161.013ZM40.1968 164.53H47.1646V165.592H44.2282V172.825H43.1333V165.592H40.1968V164.53ZM55.3086 166.156V164.53H56.4036V172.825H55.3086V171.199C54.5455 172.416 53.4284 173.024 51.9575 173.024C50.774 173.024 49.762 172.604 48.9215 171.763C48.092 170.923 47.6772 169.894 47.6772 168.678C47.6772 167.461 48.092 166.433 48.9215 165.592C49.762 164.751 50.774 164.331 51.9575 164.331C53.4284 164.331 54.5455 164.939 55.3086 166.156ZM49.7178 171.017C50.3482 171.647 51.1224 171.963 52.0404 171.963C52.9584 171.963 53.7326 171.647 54.363 171.017C54.9934 170.364 55.3086 169.585 55.3086 168.678C55.3086 167.76 54.9934 166.986 54.363 166.355C53.7326 165.714 52.9584 165.393 52.0404 165.393C51.1224 165.393 50.3482 165.714 49.7178 166.355C49.0874 166.986 48.7722 167.76 48.7722 168.678C48.7722 169.585 49.0874 170.364 49.7178 171.017ZM58.7219 164.53H65.6897V172.825H64.5948V165.592H59.8168V172.825H58.7219V164.53ZM71.2402 162.274L74.3094 161.212H75.3048V172.825H74.1435V162.49L71.5388 163.269L71.2402 162.274Z" fill="white"/>
<path d="M326.473 161.013C328.243 161.013 329.68 161.594 330.786 162.755C331.915 163.905 332.479 165.327 332.479 167.019C332.479 168.711 331.915 170.138 330.786 171.299C329.669 172.449 328.232 173.024 326.473 173.024C325.411 173.024 324.427 172.764 323.52 172.245C322.613 171.725 321.922 171.028 321.446 170.154L322.475 169.574C322.84 170.281 323.382 170.845 324.101 171.266C324.82 171.686 325.61 171.896 326.473 171.896C327.8 171.896 328.906 171.487 329.791 170.668C330.665 169.861 331.162 168.827 331.284 167.566H324.93V166.471H331.284C331.162 165.21 330.665 164.176 329.791 163.369C328.906 162.55 327.8 162.141 326.473 162.141C325.61 162.141 324.82 162.351 324.101 162.772C323.382 163.192 322.84 163.756 322.475 164.464L321.446 163.867C321.944 162.993 322.641 162.302 323.537 161.793C324.432 161.273 325.411 161.013 326.473 161.013ZM333.312 164.53H340.28V165.592H337.343V172.825H336.248V165.592H333.312V164.53ZM348.424 166.156V164.53H349.519V172.825H348.424V171.199C347.661 172.416 346.544 173.024 345.073 173.024C343.889 173.024 342.877 172.604 342.037 171.763C341.207 170.923 340.792 169.894 340.792 168.678C340.792 167.461 341.207 166.433 342.037 165.592C342.877 164.751 343.889 164.331 345.073 164.331C346.544 164.331 347.661 164.939 348.424 166.156ZM342.833 171.017C343.463 171.647 344.238 171.963 345.156 171.963C346.074 171.963 346.848 171.647 347.478 171.017C348.109 170.364 348.424 169.585 348.424 168.678C348.424 167.76 348.109 166.986 347.478 166.355C346.848 165.714 346.074 165.393 345.156 165.393C344.238 165.393 343.463 165.714 342.833 166.355C342.203 166.986 341.887 167.76 341.887 168.678C341.887 169.585 342.203 170.364 342.833 171.017ZM351.837 164.53H358.805V172.825H357.71V165.592H352.932V172.825H351.837V164.53ZM372.153 172.825H364.77V171.78L368.951 167.566C370.145 166.372 370.743 165.349 370.743 164.497C370.743 163.778 370.516 163.209 370.062 162.788C369.62 162.357 369.067 162.141 368.403 162.141C367.22 162.141 366.352 162.689 365.799 163.784L364.82 163.203C365.174 162.495 365.666 161.953 366.296 161.577C366.927 161.201 367.629 161.013 368.403 161.013C369.332 161.013 370.145 161.328 370.842 161.959C371.55 162.567 371.904 163.413 371.904 164.497C371.904 165.138 371.727 165.769 371.373 166.388C371.019 166.997 370.477 167.666 369.747 168.396L366.429 171.697H372.153V172.825Z" fill="white"/>
<path d="M634.073 161.013C635.843 161.013 637.281 161.594 638.387 162.755C639.515 163.905 640.079 165.327 640.079 167.019C640.079 168.711 639.515 170.138 638.387 171.299C637.27 172.449 635.832 173.024 634.073 173.024C633.011 173.024 632.027 172.764 631.12 172.245C630.213 171.725 629.522 171.028 629.046 170.154L630.075 169.574C630.44 170.281 630.982 170.845 631.701 171.266C632.42 171.686 633.21 171.896 634.073 171.896C635.4 171.896 636.506 171.487 637.391 170.668C638.265 169.861 638.763 168.827 638.884 167.566H632.53V166.471H638.884C638.763 165.21 638.265 164.176 637.391 163.369C636.506 162.55 635.4 162.141 634.073 162.141C633.21 162.141 632.42 162.351 631.701 162.772C630.982 163.192 630.44 163.756 630.075 164.464L629.046 163.867C629.544 162.993 630.241 162.302 631.137 161.793C632.033 161.273 633.011 161.013 634.073 161.013ZM640.912 164.53H647.88V165.592H644.944V172.825H643.849V165.592H640.912V164.53ZM656.024 166.156V164.53H657.119V172.825H656.024V171.199C655.261 172.416 654.144 173.024 652.673 173.024C651.489 173.024 650.477 172.604 649.637 171.763C648.807 170.923 648.393 169.894 648.393 168.678C648.393 167.461 648.807 166.433 649.637 165.592C650.477 164.751 651.489 164.331 652.673 164.331C654.144 164.331 655.261 164.939 656.024 166.156ZM650.433 171.017C651.064 171.647 651.838 171.963 652.756 171.963C653.674 171.963 654.448 171.647 655.078 171.017C655.709 170.364 656.024 169.585 656.024 168.678C656.024 167.76 655.709 166.986 655.078 166.355C654.448 165.714 653.674 165.393 652.756 165.393C651.838 165.393 651.064 165.714 650.433 166.355C649.803 166.986 649.487 167.76 649.487 168.678C649.487 169.585 649.803 170.364 650.433 171.017ZM659.437 164.53H666.405V172.825H665.31V165.592H660.532V172.825H659.437V164.53ZM679.338 162.307L676.634 166.04C677.552 166.15 678.315 166.51 678.923 167.118C679.532 167.693 679.836 168.473 679.836 169.457C679.836 170.552 679.454 171.426 678.691 172.079C677.95 172.709 677.032 173.024 675.937 173.024C675.063 173.024 674.289 172.825 673.615 172.427C672.94 172.018 672.47 171.448 672.204 170.718L673.167 170.154C673.355 170.718 673.686 171.15 674.162 171.448C674.649 171.747 675.24 171.896 675.937 171.896C676.756 171.896 677.414 171.68 677.911 171.249C678.42 170.807 678.674 170.21 678.674 169.457C678.674 168.705 678.42 168.114 677.911 167.682C677.414 167.24 676.756 167.019 675.937 167.019V167.002L675.921 167.019H675.605L675.108 166.256L677.994 162.307H672.536V161.212H679.338V162.307Z" fill="white"/>
<path d="M923.296 161.013C925.065 161.013 926.503 161.594 927.609 162.755C928.737 163.905 929.301 165.327 929.301 167.019C929.301 168.711 928.737 170.138 927.609 171.299C926.492 172.449 925.054 173.024 923.296 173.024C922.234 173.024 921.25 172.764 920.343 172.245C919.436 171.725 918.745 171.028 918.269 170.154L919.298 169.574C919.663 170.281 920.205 170.845 920.923 171.266C921.642 171.686 922.433 171.896 923.296 171.896C924.623 171.896 925.729 171.487 926.614 170.668C927.488 169.861 927.985 168.827 928.107 167.566H921.753V166.471H928.107C927.985 165.21 927.488 164.176 926.614 163.369C925.729 162.55 924.623 162.141 923.296 162.141C922.433 162.141 921.642 162.351 920.923 162.772C920.205 163.192 919.663 163.756 919.298 164.464L918.269 163.867C918.767 162.993 919.463 162.302 920.359 161.793C921.255 161.273 922.234 161.013 923.296 161.013ZM930.135 164.53H937.103V165.592H934.166V172.825H933.071V165.592H930.135V164.53ZM945.247 166.156V164.53H946.341V172.825H945.247V171.199C944.483 172.416 943.366 173.024 941.895 173.024C940.712 173.024 939.7 172.604 938.859 171.763C938.03 170.923 937.615 169.894 937.615 168.678C937.615 167.461 938.03 166.433 938.859 165.592C939.7 164.751 940.712 164.331 941.895 164.331C943.366 164.331 944.483 164.939 945.247 166.156ZM939.656 171.017C940.286 171.647 941.06 171.963 941.978 171.963C942.896 171.963 943.671 171.647 944.301 171.017C944.931 170.364 945.247 169.585 945.247 168.678C945.247 167.76 944.931 166.986 944.301 166.355C943.671 165.714 942.896 165.393 941.978 165.393C941.06 165.393 940.286 165.714 939.656 166.355C939.025 166.986 938.71 167.76 938.71 168.678C938.71 169.585 939.025 170.364 939.656 171.017ZM948.66 164.53H955.628V172.825H954.533V165.592H949.755V172.825H948.66V164.53ZM968.644 169.408H970.137V170.503H968.644V172.825H967.482V170.503H961.344V169.408L965.657 161.212H966.935L962.621 169.408H967.482V165.857H968.644V169.408Z" fill="white"/>
<path d="M1225.96 209.711C1227.73 209.711 1229.17 210.292 1230.27 211.453C1231.4 212.603 1231.96 214.025 1231.96 215.717C1231.96 217.409 1231.4 218.836 1230.27 219.997C1229.16 221.147 1227.72 221.722 1225.96 221.722C1224.9 221.722 1223.91 221.462 1223.01 220.943C1222.1 220.423 1221.41 219.726 1220.93 218.852L1221.96 218.272C1222.33 218.979 1222.87 219.543 1223.59 219.964C1224.31 220.384 1225.1 220.594 1225.96 220.594C1227.29 220.594 1228.39 220.185 1229.28 219.366C1230.15 218.559 1230.65 217.525 1230.77 216.264H1224.42V215.169H1230.77C1230.65 213.908 1230.15 212.874 1229.28 212.067C1228.39 211.248 1227.29 210.839 1225.96 210.839C1225.1 210.839 1224.31 211.049 1223.59 211.47C1222.87 211.89 1222.33 212.454 1221.96 213.162L1220.93 212.565C1221.43 211.691 1222.13 211 1223.02 210.491C1223.92 209.971 1224.9 209.711 1225.96 209.711ZM1232.8 213.228H1239.77V214.29H1236.83V221.523H1235.73V214.29H1232.8V213.228ZM1247.91 214.854V213.228H1249V221.523H1247.91V219.897C1247.15 221.114 1246.03 221.722 1244.56 221.722C1243.38 221.722 1242.36 221.302 1241.52 220.461C1240.69 219.621 1240.28 218.592 1240.28 217.376C1240.28 216.159 1240.69 215.131 1241.52 214.29C1242.36 213.449 1243.38 213.029 1244.56 213.029C1246.03 213.029 1247.15 213.637 1247.91 214.854ZM1242.32 219.715C1242.95 220.345 1243.72 220.661 1244.64 220.661C1245.56 220.661 1246.33 220.345 1246.96 219.715C1247.59 219.062 1247.91 218.283 1247.91 217.376C1247.91 216.458 1247.59 215.684 1246.96 215.053C1246.33 214.412 1245.56 214.091 1244.64 214.091C1243.72 214.091 1242.95 214.412 1242.32 215.053C1241.69 215.684 1241.37 216.458 1241.37 217.376C1241.37 218.283 1241.69 219.062 1242.32 219.715ZM1251.32 213.228H1258.29V221.523H1257.2V214.29H1252.42V221.523H1251.32V213.228ZM1266.03 214.589H1267.99C1269.08 214.589 1270 214.909 1270.74 215.551C1271.51 216.181 1271.89 217.049 1271.89 218.155C1271.89 219.25 1271.51 220.124 1270.74 220.777C1270 221.407 1269.08 221.722 1267.99 221.722C1267.09 221.722 1266.3 221.507 1265.62 221.075C1264.94 220.633 1264.49 220.025 1264.26 219.25L1265.23 218.686C1265.4 219.295 1265.73 219.765 1266.21 220.096C1266.7 220.428 1267.29 220.594 1267.99 220.594C1268.81 220.594 1269.47 220.378 1269.96 219.947C1270.47 219.505 1270.73 218.908 1270.73 218.155C1270.73 217.403 1270.47 216.812 1269.96 216.38C1269.47 215.938 1268.81 215.717 1267.99 215.717H1264.84L1265.25 209.91H1271.47V211.005H1266.28L1266.03 214.589Z" fill="white"/>
<path d="M347.05 151.139C337.105 120.163 317.574 93.142 291.272 73.9719C264.971 54.8017 233.257 44.4722 200.703 44.4722C168.148 44.4722 136.435 54.8017 110.133 73.9719C83.8314 93.142 64.3005 120.163 54.3555 151.139" stroke="white" stroke-width="0.57" stroke-miterlimit="10"/>
<path d="M947.769 151.139C937.847 120.128 918.32 93.0696 892.007 73.8709C865.694 54.6721 833.956 44.3259 801.375 44.3259C768.795 44.3259 737.057 54.6721 710.744 73.8709C684.431 93.0696 664.904 120.128 654.981 151.139" stroke="white" stroke-width="0.57" stroke-miterlimit="10"/>
<path d="M347.649 203.058C348.275 242.753 364.494 280.611 392.806 308.462C421.118 336.313 459.254 351.922 498.982 351.922C538.711 351.922 576.846 336.313 605.158 308.462C633.471 280.611 649.69 242.753 650.315 203.058" stroke="white" stroke-width="0.55" stroke-miterlimit="10"/>
<path d="M952.605 200.511C953.024 236.591 965.916 271.416 989.095 299.082C1012.27 326.748 1044.31 345.553 1079.78 352.309C1115.25 359.064 1151.97 353.355 1183.71 336.148C1215.44 318.941 1240.25 291.296 1253.92 257.899" stroke="white" stroke-width="0.57" stroke-miterlimit="10"/>
<path d="M125.13 67.4161C125.13 68.3459 124.854 69.2548 124.337 70.0279C123.82 70.801 123.085 71.4036 122.226 71.7594C121.366 72.1153 120.42 72.2083 119.507 72.0269C118.595 71.8455 117.757 71.3978 117.099 70.7403C116.441 70.0829 115.993 69.2452 115.811 68.3332C115.63 67.4213 115.723 66.476 116.079 65.617C116.435 64.758 117.038 64.0237 117.812 63.5072C118.585 62.9906 119.495 62.7148 120.425 62.7148C121.673 62.7148 122.87 63.2102 123.752 64.0918C124.634 64.9735 125.13 66.1692 125.13 67.4161Z" fill="white"/>
<path d="M882.281 72.1173C884.879 72.1173 886.985 70.0125 886.985 67.4161C886.985 64.8197 884.879 62.7148 882.281 62.7148C879.682 62.7148 877.576 64.8197 877.576 67.4161C877.576 70.0125 879.682 72.1173 882.281 72.1173Z" fill="white"/>
<path d="M721.089 72.1173C723.688 72.1173 725.794 70.0125 725.794 67.4161C725.794 64.8197 723.688 62.7148 721.089 62.7148C718.491 62.7148 716.385 64.8197 716.385 67.4161C716.385 70.0125 718.491 72.1173 721.089 72.1173Z" fill="white"/>
<path d="M286.134 67.4161C286.134 68.3459 285.858 69.2548 285.341 70.0279C284.824 70.801 284.089 71.4036 283.23 71.7594C282.37 72.1153 281.424 72.2083 280.511 72.0269C279.599 71.8455 278.76 71.3978 278.103 70.7403C277.445 70.0829 276.997 69.2452 276.815 68.3332C276.633 67.4213 276.727 66.476 277.083 65.617C277.439 64.758 278.042 64.0237 278.815 63.5072C279.589 62.9906 280.499 62.7148 281.429 62.7148C282.677 62.7148 283.873 63.2102 284.756 64.0918C285.638 64.9735 286.134 66.1692 286.134 67.4161Z" fill="white"/>
<path d="M383.88 303.619C386.395 303.619 388.434 301.581 388.434 299.068C388.434 296.554 386.395 294.516 383.88 294.516C381.364 294.516 379.325 296.554 379.325 299.068C379.325 301.581 381.364 303.619 383.88 303.619Z" fill="white"/>
<path d="M619.557 299.105C619.557 300.005 619.29 300.885 618.79 301.634C618.289 302.382 617.578 302.966 616.746 303.31C615.914 303.655 614.998 303.745 614.114 303.569C613.231 303.393 612.419 302.96 611.782 302.323C611.145 301.687 610.712 300.876 610.536 299.993C610.36 299.11 610.45 298.195 610.795 297.363C611.14 296.532 611.723 295.821 612.472 295.321C613.221 294.821 614.102 294.554 615.003 294.554C615.602 294.551 616.195 294.667 616.749 294.895C617.302 295.123 617.806 295.458 618.229 295.881C618.652 296.304 618.988 296.807 619.216 297.36C619.444 297.914 619.56 298.507 619.557 299.105Z" fill="white"/>
<path d="M989.118 304.481C991.716 304.481 993.822 302.376 993.822 299.779C993.822 297.183 991.716 295.078 989.118 295.078C986.519 295.078 984.413 297.183 984.413 299.779C984.413 302.376 986.519 304.481 989.118 304.481Z" fill="white"/>
<path d="M1190.61 335.366C1190.61 336.296 1190.33 337.205 1189.81 337.978C1189.3 338.751 1188.56 339.354 1187.7 339.71C1186.84 340.065 1185.9 340.159 1184.98 339.977C1184.07 339.796 1183.23 339.348 1182.58 338.69C1181.92 338.033 1181.47 337.195 1181.29 336.283C1181.11 335.371 1181.2 334.426 1181.56 333.567C1181.91 332.708 1182.51 331.974 1183.29 331.457C1184.06 330.941 1184.97 330.665 1185.9 330.665C1187.15 330.665 1188.35 331.16 1189.23 332.042C1190.11 332.924 1190.61 334.119 1190.61 335.366Z" fill="white"/>
<path d="M1246.38 101H1186V165.22H1246.38V101Z" fill="url(#paint1_linear_436_1098)"/>
<path d="M1306.77 101H1246.38V165.22H1306.77V101Z" fill="url(#paint2_linear_436_1098)"/>
<path d="M1306.77 105.681H1186V106.311H1306.77V105.681Z" fill="#676F73"/>
<path d="M1306.77 111.101H1186V111.731H1306.77V111.101Z" fill="#676F73"/>
<path d="M1306.77 116.527H1186V117.156H1306.77V116.527Z" fill="#676F73"/>
<path d="M1306.77 121.946H1186V122.576H1306.77V121.946Z" fill="#676F73"/>
<path d="M1306.77 127.372H1186V128.002H1306.77V127.372Z" fill="#676F73"/>
<path d="M1306.77 132.792H1186V133.422H1306.77V132.792Z" fill="#676F73"/>
<path d="M1306.77 138.218H1186V138.848H1306.77V138.218Z" fill="#676F73"/>
<path d="M1306.77 143.637H1186V144.267H1306.77V143.637Z" fill="#676F73"/>
<path d="M1306.77 149.063H1186V149.693H1306.77V149.063Z" fill="#676F73"/>
<path d="M1306.77 154.483H1186V155.113H1306.77V154.483Z" fill="#676F73"/>
<path d="M1306.77 159.909H1186V160.539H1306.77V159.909Z" fill="#676F73"/>
<path d="M1212.31 111.416H1197.9V128.032H1212.31V111.416Z" fill="#4D4D4D"/>
<path d="M1211.06 112.675H1199.15V126.785H1211.06V112.675Z" fill="#A6B5BD"/>
<path style="mix-blend-mode:screen" d="M1211.05 116.072V112.675H1199.15V122.195C1202.33 118.878 1206.51 116.722 1211.05 116.072Z" fill="url(#paint3_linear_436_1098)"/>
<path d="M1294.25 111.416H1279.84V128.032H1294.25V111.416Z" fill="#4D4D4D"/>
<path d="M1292.99 112.675H1281.09V126.785H1292.99V112.675Z" fill="#A6B5BD"/>
<path d="M1264.74 165.22H1228.52V182.575H1264.74V165.22Z" fill="url(#paint4_linear_436_1098)"/>
<path d="M1261.42 165.22H1260.38V182.575H1261.42V165.22Z" fill="#D4D4D4"/>
<path d="M1232.84 165.22H1231.8V182.575H1232.84V165.22Z" fill="#D4D4D4"/>
<path d="M1264.75 182.569L1263.5 169.471V165.22H1264.75V182.569Z" fill="black"/>
<path d="M1228.52 182.569L1229.77 169.471V165.22H1228.52V182.569Z" fill="black"/>
<path d="M1234.21 165.22H1233.68V182.369H1234.21V165.22Z" fill="#6E6E6E"/>
<path d="M1236.27 165.22H1235.74V182.369H1236.27V165.22Z" fill="#6E6E6E"/>
<path d="M1238.33 165.22H1237.8V182.369H1238.33V165.22Z" fill="#6E6E6E"/>
<path d="M1240.4 165.22H1239.86V182.369H1240.4V165.22Z" fill="#6E6E6E"/>
<path d="M1242.46 165.22H1241.92V182.369H1242.46V165.22Z" fill="#6E6E6E"/>
<path d="M1244.52 165.22H1243.98V182.369H1244.52V165.22Z" fill="#6E6E6E"/>
<path d="M1246.58 165.22H1246.04V182.369H1246.58V165.22Z" fill="#6E6E6E"/>
<path d="M1248.64 165.22H1248.1V182.369H1248.64V165.22Z" fill="#6E6E6E"/>
<path d="M1250.7 165.22H1250.16V182.369H1250.7V165.22Z" fill="#6E6E6E"/>
<path d="M1252.76 165.22H1252.22V182.369H1252.76V165.22Z" fill="#6E6E6E"/>
<path d="M1254.82 165.22H1254.28V182.369H1254.82V165.22Z" fill="#6E6E6E"/>
<path d="M1256.88 165.22H1256.34V182.369H1256.88V165.22Z" fill="#6E6E6E"/>
<path d="M1258.93 165.22H1258.4V182.369H1258.93V165.22Z" fill="#6E6E6E"/>
<path d="M1212.31 138.533H1197.9V155.149H1212.31V138.533Z" fill="#4D4D4D"/>
<path d="M1211.06 139.786H1199.15V153.896H1211.06V139.786Z" fill="#A6B5BD"/>
<path d="M1294.25 138.533H1279.84V155.149H1294.25V138.533Z" fill="#4D4D4D"/>
<path d="M1292.99 139.786H1281.09V153.896H1292.99V139.786Z" fill="#A6B5BD"/>
<path style="mix-blend-mode:screen" d="M1211.05 143.189V139.786H1199.15V149.318C1202.32 145.996 1206.51 143.838 1211.05 143.189Z" fill="url(#paint5_linear_436_1098)"/>
<path style="mix-blend-mode:screen" d="M1281.09 143.189V139.786H1292.99V149.318C1289.82 145.996 1285.63 143.838 1281.09 143.189Z" fill="url(#paint6_linear_436_1098)"/>
<path style="mix-blend-mode:screen" d="M1281.09 116.072V112.675H1292.99V122.195C1289.82 118.877 1285.63 116.722 1281.09 116.072Z" fill="url(#paint7_linear_436_1098)"/>
<defs>
<linearGradient id="paint0_linear_436_1098" x1="-4.04854" y1="180.47" x2="1312.19" y2="216.782" gradientUnits="userSpaceOnUse">
<stop stop-color="#40971D"/>
<stop offset="0.52" stop-color="#76BB20"/>
<stop offset="0.99" stop-color="#CACBCB"/>
</linearGradient>
<linearGradient id="paint1_linear_436_1098" x1="1187.25" y1="133.107" x2="1246.15" y2="133.107" gradientUnits="userSpaceOnUse">
<stop stop-color="#737373"/>
<stop offset="0.35" stop-color="#6F6F6F"/>
<stop offset="0.72" stop-color="#626362"/>
<stop offset="1" stop-color="#535453"/>
</linearGradient>
<linearGradient id="paint2_linear_436_1098" x1="1246.38" y1="133.107" x2="1306.77" y2="133.107" gradientUnits="userSpaceOnUse">
<stop stop-color="#3B3B3B"/>
<stop offset="1" stop-color="#636363"/>
</linearGradient>
<linearGradient id="paint3_linear_436_1098" x1="1205.11" y1="112.675" x2="1205.11" y2="122.201" gradientUnits="userSpaceOnUse">
<stop stop-color="#868786"/>
<stop offset="1" stop-color="#999999"/>
</linearGradient>
<linearGradient id="paint4_linear_436_1098" x1="1246.63" y1="163.984" x2="1246.63" y2="182.272" gradientUnits="userSpaceOnUse">
<stop stop-color="#383838"/>
<stop offset="1" stop-color="#636363"/>
</linearGradient>
<linearGradient id="paint5_linear_436_1098" x1="1205.11" y1="139.786" x2="1205.11" y2="149.318" gradientUnits="userSpaceOnUse">
<stop stop-color="#868786"/>
<stop offset="1" stop-color="#999999"/>
</linearGradient>
<linearGradient id="paint6_linear_436_1098" x1="1287.04" y1="139.786" x2="1287.04" y2="149.318" gradientUnits="userSpaceOnUse">
<stop stop-color="#868786"/>
<stop offset="1" stop-color="#999999"/>
</linearGradient>
<linearGradient id="paint7_linear_436_1098" x1="1287.04" y1="112.675" x2="1287.04" y2="122.201" gradientUnits="userSpaceOnUse">
<stop stop-color="#868786"/>
<stop offset="1" stop-color="#999999"/>
</linearGradient>
</defs>
</svg>
