<svg width="56" height="58" viewBox="0 0 56 58" fill="none" xmlns="http://www.w3.org/2000/svg">
<path d="M12.6437 34.2158L12.7456 34.2419L36.7171 41.7157C37.1017 41.8281 37.4304 42.0842 37.6375 42.4329C37.8447 42.7815 37.9149 43.197 37.8343 43.5962L37.8043 43.7198L33.7872 56.8183C33.6524 57.1988 33.395 57.5215 33.057 57.7338C32.719 57.9461 32.3203 58.0355 31.926 57.9872L31.814 57.9694L7.84257 50.424C7.461 50.3057 7.13717 50.0453 6.93551 49.6948C6.73385 49.3442 6.66915 48.9292 6.75429 48.5322L6.78273 48.4199L10.7725 35.3491C10.8861 34.9543 11.1422 34.6179 11.4893 34.4077C11.8365 34.1974 12.2489 34.1289 12.6437 34.2158ZM53.1113 40.1967L53.0571 40.2542L37.0485 55.3512C36.4594 55.951 36.1554 55.7529 36.3433 54.9717L36.3636 54.8915L39.7013 43.9522C39.8427 43.5254 40.0817 43.139 40.3987 42.8248C40.7156 42.5107 41.1014 42.2779 41.5241 42.1456L41.6744 42.1032L52.6764 39.5565C53.4561 39.2713 53.6385 39.5891 53.1612 40.1408L53.1113 40.1967ZM0.736044 23.166L0.787013 23.2251L8.45135 31.6511C8.73525 32.0002 8.93965 32.409 9.04984 32.8482C9.16002 33.2874 9.17325 33.746 9.08857 34.1911L9.05466 34.347L5.7172 45.2865C5.51223 46.1054 5.1397 46.1326 4.9776 45.3683L4.96163 45.2865L0.102107 23.6126C-0.13458 22.7928 0.22942 22.6005 0.735826 23.166H0.736044ZM49.6091 9.22596C49.9341 9.42425 50.1774 9.73586 50.294 10.103L50.3225 10.2042L55.9378 35.0115C55.9971 35.2143 56.0143 35.4271 55.9881 35.6368C55.9517 35.9314 55.8315 36.2088 55.6422 36.4347C55.4529 36.6606 55.2028 36.825 54.9228 36.9078L54.8018 36.9381L41.5983 40.0218C41.2134 40.1196 40.8065 40.0649 40.4596 39.8689C40.1128 39.6728 39.8519 39.35 39.7297 38.9656L39.7013 38.8647L34.1026 14.0573C34.0063 13.6675 34.0587 13.255 34.2492 12.9029C34.4396 12.5509 34.754 12.2855 35.129 12.1602L35.2276 12.1307L48.4255 9.04681C48.8277 8.9446 49.2533 9.00903 49.6089 9.22596H49.6091ZM32.3985 15.0266L32.423 15.109L37.7336 38.5271C37.9493 39.3789 37.4624 39.8366 36.6723 39.6546L36.5922 39.6343L13.9851 32.5479C13.1823 32.3236 13.0125 31.6707 13.5498 31.0728L13.6099 31.0089L30.9065 14.6442C31.4896 14.0502 32.149 14.2476 32.3985 15.0266ZM19.962 0.000470794C20.3351 0.00979375 20.6925 0.155561 20.9689 0.411141L21.0568 0.499158L30.2213 10.6082C30.4864 10.8996 30.6332 11.2825 30.6324 11.6797C30.6316 12.077 30.4832 12.4592 30.217 12.7495L30.1454 12.8226L11.789 30.1619C11.4991 30.4347 11.1187 30.5859 10.724 30.5852C10.3293 30.5845 9.94938 30.432 9.66038 30.1581L9.58754 30.0844L0.406607 19.9698C0.144167 19.6771 -0.000927122 19.2948 4.45825e-06 18.8983C0.000936038 18.5019 0.147825 18.1203 0.411638 17.8289L0.482732 17.7553L18.8446 0.443897C18.9928 0.298321 19.1678 0.184161 19.3596 0.108042C19.5514 0.0319228 19.7562 -0.00464135 19.962 0.000470794ZM24.6065 0.423842L24.6824 0.443897L45.6207 6.97095C46.43 7.19044 46.4569 7.55988 45.7261 7.7943L45.648 7.81814L34.646 10.359C34.2109 10.45 33.7612 10.4395 33.3306 10.3284C32.9 10.2173 32.4996 10.0085 32.1595 9.71752L32.0424 9.61168L24.3779 1.21332C23.7199 0.543055 23.8419 0.231097 24.6065 0.42362V0.423842Z" fill="#2B8FE3"/>
</svg>
