<svg width="24" height="24" viewBox="0 0 24 24" fill="none" xmlns="http://www.w3.org/2000/svg">
<path d="M5.41872 14.1583L5.46241 14.1691L15.7359 17.2617C15.9007 17.3082 16.0416 17.4142 16.1304 17.5584C16.2191 17.7027 16.2493 17.8746 16.2147 18.0398L16.2018 18.091L14.4802 23.511C14.4225 23.6685 14.3122 23.802 14.1673 23.8899C14.0224 23.9777 13.8516 24.0147 13.6826 23.9947L13.6346 23.9873L3.3611 20.8651C3.19757 20.8161 3.05879 20.7084 2.97236 20.5633C2.88594 20.4183 2.85821 20.2466 2.8947 20.0823L2.90688 20.0358L4.61679 14.6272C4.66546 14.4638 4.77522 14.3247 4.924 14.2377C5.07278 14.1507 5.24954 14.1223 5.41872 14.1583ZM22.762 16.6331L22.7387 16.6569L15.8779 22.9039C15.6255 23.1522 15.4952 23.0702 15.5757 22.7469L15.5844 22.7137L17.0148 18.1871C17.0754 18.0105 17.1779 17.8506 17.3137 17.7206C17.4496 17.5906 17.6149 17.4943 17.7961 17.4395L17.8605 17.422L22.5756 16.3682C22.9097 16.2502 22.9879 16.3817 22.7834 16.61L22.762 16.6331ZM0.315448 9.58594L0.337291 9.61038L3.62201 13.097C3.74368 13.2414 3.83128 13.4106 3.8785 13.5924C3.92572 13.7741 3.93139 13.9639 3.8951 14.148L3.88057 14.2126L2.45023 18.7393C2.36238 19.0781 2.20273 19.0894 2.13326 18.7731L2.12641 18.7393L0.0437604 9.77072C-0.0576771 9.4315 0.0983228 9.35193 0.315354 9.58594H0.315448ZM21.2611 3.81764C21.4003 3.89969 21.5046 4.02863 21.5546 4.18056L21.5668 4.22242L23.9733 14.4875C23.9987 14.5714 24.0061 14.6595 23.9949 14.7463C23.9793 14.8682 23.9278 14.983 23.8467 15.0764C23.7655 15.1699 23.6583 15.2379 23.5383 15.2722L23.4865 15.2847L17.8278 16.5607C17.6629 16.6012 17.4885 16.5786 17.3398 16.4975C17.1912 16.4163 17.0794 16.2828 17.027 16.1237L17.0148 16.0819L14.6154 5.81681C14.5741 5.65551 14.5966 5.48482 14.6782 5.33914C14.7598 5.19347 14.8946 5.08364 15.0553 5.03179L15.0976 5.01962L20.7538 3.74351C20.9261 3.70121 21.1085 3.72787 21.261 3.81764H21.2611ZM13.8851 6.2179L13.8956 6.25202L16.1716 15.9422C16.264 16.2947 16.0553 16.4841 15.7167 16.4088L15.6824 16.4004L5.9936 13.4681C5.64954 13.3753 5.57679 13.1051 5.80704 12.8577L5.83282 12.8313L13.2456 6.05968C13.4956 5.81386 13.7781 5.89556 13.8851 6.2179ZM8.55513 0.000194811C8.71505 0.00405259 8.86822 0.0643702 8.98666 0.170127L9.02435 0.206548L12.952 4.38958C13.0656 4.51018 13.1285 4.6686 13.1282 4.83299C13.1278 4.99737 13.0642 5.15553 12.9501 5.27567L12.9195 5.30591L5.05244 12.4808C4.92818 12.5937 4.76515 12.6562 4.59599 12.656C4.42683 12.6557 4.26402 12.5925 4.14016 12.4792L4.10894 12.4487L0.17426 8.26336C0.0617857 8.14225 -0.000397338 7.98403 1.91068e-06 7.82C0.000401159 7.65597 0.0633536 7.49805 0.176416 7.37746L0.206885 7.34704L8.07625 0.183681C8.13975 0.123443 8.21478 0.0762047 8.29698 0.0447071C8.37919 0.0132094 8.46693 -0.00192056 8.55513 0.000194811ZM10.5456 0.175383L10.5782 0.183681L19.5517 2.88453C19.8986 2.97535 19.9101 3.12823 19.5969 3.22523L19.5634 3.23509L14.8483 4.2865C14.6618 4.32412 14.4691 4.31979 14.2845 4.27382C14.1 4.22785 13.9284 4.14144 13.7826 4.02104L13.7325 3.97724L10.4477 0.502063C10.1657 0.224712 10.218 0.0956263 10.5456 0.175291V0.175383Z" fill="white"/>
</svg>
