<svg width="93" height="88" viewBox="0 0 93 88" fill="none" xmlns="http://www.w3.org/2000/svg">
<path d="M22.4877 72.2065L22.047 74.1574L22.4877 72.2065L13.5998 70.1985C12.1301 69.8665 11.1347 68.4959 11.2737 66.9956L12.1068 58.0023C12.2848 56.0811 11.6619 54.1716 10.3853 52.7249L4.4138 45.958C3.41435 44.8255 3.41284 43.1264 4.41027 41.9921L10.3935 35.1875L8.89154 33.8668L10.3935 35.1875C11.6651 33.7413 12.2848 31.8352 12.1066 29.9177L11.2759 20.9745C11.1362 19.4709 12.1358 18.0979 13.6096 17.769L22.4738 15.7908C24.3502 15.3721 25.9718 14.1999 26.958 12.5496L31.6041 4.77451C32.374 3.48616 33.9774 2.96498 35.3577 3.55447L43.7506 7.13906C45.5068 7.88914 47.4932 7.88914 49.2494 7.13906L57.6423 3.55447C59.0226 2.96498 60.626 3.48616 61.3959 4.77451L66.046 12.5562C67.0289 14.2011 68.6432 15.3712 70.5123 15.7935L79.3991 17.8012C80.8691 18.1333 81.8646 19.5044 81.7252 21.0049L80.8938 29.9545C80.7153 31.8763 81.3382 33.7865 82.6152 35.2336L88.581 41.994C89.5818 43.1281 89.5818 44.8299 88.581 45.964L82.6152 52.7244C81.3382 54.1715 80.7153 56.0817 80.8938 58.0035L81.7252 66.953C81.8646 68.4536 80.8691 69.8246 79.3991 70.1567L70.5123 72.1645C68.6432 72.5868 67.0289 73.7568 66.046 75.4017L61.3959 83.1834C60.626 84.4718 59.0226 84.993 57.6423 84.4035L49.2561 80.8218C47.4944 80.0693 45.5013 80.0718 43.7414 80.8286L35.3589 84.4333C33.9775 85.0273 32.3698 84.5069 31.5985 83.2161L26.954 75.4438C25.9711 73.7989 24.3568 72.6288 22.4877 72.2065Z" stroke="white" stroke-width="4"/>
<path d="M65.7692 44.5758L69 47.823L53.9308 63L45.9231 54.9394L49.1538 51.6921L53.9308 56.4824L65.7692 44.5758ZM42.4615 25C44.9097 25 47.2576 25.9706 48.9887 27.6982C50.7198 29.4258 51.6923 31.7689 51.6923 34.2121C51.6923 36.6553 50.7198 38.9985 48.9887 40.7261C47.2576 42.4537 44.9097 43.4242 42.4615 43.4242C40.0134 43.4242 37.6655 42.4537 35.9344 40.7261C34.2033 38.9985 33.2308 36.6553 33.2308 34.2121C33.2308 31.7689 34.2033 29.4258 35.9344 27.6982C37.6655 25.9706 40.0134 25 42.4615 25ZM42.4615 29.6061C41.2375 29.6061 40.0635 30.0913 39.198 30.9551C38.3324 31.8189 37.8462 32.9905 37.8462 34.2121C37.8462 35.4337 38.3324 36.6053 39.198 37.4691C40.0635 38.3329 41.2375 38.8182 42.4615 38.8182C43.6856 38.8182 44.8596 38.3329 45.7251 37.4691C46.5907 36.6053 47.0769 35.4337 47.0769 34.2121C47.0769 32.9905 46.5907 31.8189 45.7251 30.9551C44.8596 30.0913 43.6856 29.6061 42.4615 29.6061ZM42.4615 45.7273C44.0308 45.7273 45.9231 45.9345 48.0231 46.3261L44.1692 50.1721L42.4615 50.103C35.6077 50.103 28.3846 53.4655 28.3846 54.9394V57.4727H42.6923L47.0769 61.8485H24V54.9394C24 48.8133 36.3 45.7273 42.4615 45.7273Z" fill="white"/>
</svg>
