<svg width="50" height="46" viewBox="0 0 50 46" fill="none" xmlns="http://www.w3.org/2000/svg">
<path d="M0.0910254 20.775C0.260025 20.398 0.377026 19.981 0.611026 19.63C1.14303 18.835 1.91103 18.419 2.87103 18.406C5.71703 18.393 8.55003 18.393 11.396 18.406C11.916 18.406 12.253 18.706 12.24 19.135C12.227 19.565 11.902 19.851 11.37 19.864C10.278 19.877 9.20003 19.864 8.10803 19.864H3.14503C2.07903 19.864 1.54603 20.398 1.54603 21.453C1.54603 25.098 1.54603 28.744 1.55903 32.39C1.55903 32.611 1.68903 32.885 1.83203 33.054C2.33505 33.6309 2.8919 34.1586 3.49503 34.63V23.692C3.49503 22.416 4.06703 21.843 5.32703 21.843H14.294V9.08297C14.294 6.97297 15.632 5.61897 17.724 5.61897H39.788C40.022 5.61897 40.321 5.64497 40.477 5.77497C40.646 5.91897 40.776 6.23097 40.75 6.43997C40.71 6.64797 40.49 6.88197 40.282 6.99997C40.1 7.10397 39.84 7.07797 39.619 7.07797H17.789C16.698 7.07797 16.035 7.53297 15.801 8.43197C15.788 8.49697 15.763 8.56197 15.763 8.62697V13.237H48.455C48.468 13.132 48.494 13.002 48.494 12.885V8.97797C48.494 7.81997 47.779 7.10297 46.61 7.08997C45.713 7.07797 44.83 7.08997 43.933 7.08997C43.79 7.08997 43.634 7.10397 43.491 7.06397C43.088 6.98597 42.841 6.72597 42.868 6.30897C42.893 5.90597 43.128 5.63197 43.556 5.63197C44.752 5.61897 45.96 5.55397 47.156 5.67197C48.442 5.78797 49.299 6.58197 49.767 7.79397C49.832 7.96297 49.897 8.11897 49.949 8.28797V26.557C49.9197 26.596 49.8977 26.6401 49.884 26.687C49.377 28.445 48.26 29.291 46.428 29.291H40.399V42.468C40.399 44.486 39.242 45.658 37.229 45.658H3.22203C2.87103 45.658 2.50703 45.632 2.15603 45.541C0.986026 45.228 0.363025 44.382 0.0510254 43.275C0.103025 35.749 0.103026 28.262 0.0900259 20.775H0.0910254ZM11.071 42.182C11.045 42.221 11.019 42.272 10.993 42.312C11.526 42.82 12.045 43.353 12.591 43.848C12.773 44.018 13.059 44.148 13.306 44.148C21.296 44.161 29.288 44.161 37.279 44.161C38.462 44.161 38.969 43.64 38.969 42.455V29.265H23.259C21.375 29.265 19.491 29.278 17.607 29.265C16.112 29.252 14.891 28.367 14.475 26.999C14.358 26.622 14.332 26.205 14.319 25.801C14.293 24.981 14.306 24.161 14.306 23.341H4.99003C4.97703 23.445 4.96403 23.523 4.96403 23.614C4.96403 27.716 4.96403 31.817 4.97703 35.919C4.97703 36.114 5.10703 36.349 5.25003 36.492C6.54174 37.8188 7.84984 39.1296 9.17403 40.424C9.34303 40.594 9.64103 40.71 9.88803 40.71C18.256 40.723 26.611 40.723 34.979 40.723C35.149 40.723 35.317 40.71 35.538 40.697V32.208C35.538 32.051 35.525 31.882 35.551 31.726C35.603 31.361 35.824 31.14 36.201 31.114C36.565 31.088 36.837 31.257 36.941 31.609C36.993 31.791 36.993 31.999 36.993 32.182C36.993 34.864 36.967 37.546 37.006 40.242C37.019 41.348 36.474 42.208 35.057 42.208C27.247 42.168 19.439 42.195 11.629 42.195C11.448 42.182 11.266 42.182 11.071 42.182ZM15.787 19.89V25.827C15.787 27.077 16.502 27.807 17.749 27.807H46.583C47.804 27.807 48.532 27.077 48.532 25.867V19.903C37.604 19.89 26.728 19.89 15.787 19.89ZM15.8 18.367H48.493V14.747H15.8V18.367ZM1.56003 34.994V42.377C1.56003 43.666 2.04003 44.147 3.31303 44.147H10.226C10.382 44.147 10.525 44.122 10.668 44.122L1.55903 34.994H1.56003Z" fill="#397A7C"/>
<path d="M21.934 12.39C21.024 12.39 20.114 12.403 19.204 12.39C18.282 12.377 17.736 11.83 17.724 10.893C17.724 10.502 17.711 10.111 17.724 9.72098C17.75 8.96598 18.295 8.37997 19.049 8.37997C20.998 8.35397 22.934 8.35397 24.883 8.37997C25.611 8.39297 26.156 8.96597 26.196 9.69497C26.222 10.137 26.209 10.567 26.196 11.01C26.17 11.817 25.598 12.377 24.792 12.39C23.857 12.39 22.895 12.377 21.934 12.39ZM19.192 10.88H24.714V9.84997H19.192V10.879V10.88Z" fill="#397A7C"/>
<path d="M13.124 3.86097C12.968 4.05697 12.851 4.34297 12.656 4.40797C12.409 4.48597 12.019 4.48597 11.85 4.32997C10.954 3.56197 10.096 2.74197 9.23904 1.90797C9.17134 1.84327 9.11745 1.76551 9.08064 1.6794C9.04382 1.59329 9.02484 1.50062 9.02484 1.40697C9.02484 1.31332 9.04382 1.22064 9.08064 1.13453C9.11745 1.04842 9.17134 0.97067 9.23904 0.905967C9.53804 0.618967 9.90104 0.579967 10.2 0.853967C11.097 1.66097 11.967 2.48097 12.838 3.31397C12.968 3.43197 13.007 3.62697 13.124 3.86097Z" fill="#397A7C"/>
<path d="M10.187 7.03807C9.90103 7.03807 9.60203 7.05107 9.31703 7.03807C8.92703 7.01207 8.68003 6.77807 8.65403 6.38807C8.62803 5.97107 8.82303 5.65807 9.23903 5.61907C9.89942 5.55189 10.5637 5.53017 11.227 5.55407C11.642 5.56707 11.877 5.86707 11.877 6.27007C11.877 6.68707 11.617 6.93407 11.214 6.98607C10.876 7.02607 10.538 6.99907 10.187 6.99907V7.03907V7.03807Z" fill="#397A7C"/>
<path d="M15.3981 1.752C15.3981 1.96 15.4111 2.221 15.3981 2.482C15.3721 2.898 15.0731 3.197 14.6831 3.197C14.2671 3.184 13.9941 2.95 13.9551 2.547C13.9075 1.94889 13.8858 1.34899 13.8901 0.749002C13.8901 0.346002 14.1241 0.0850008 14.5531 0.0460008C14.9561 0.00700081 15.2681 0.255001 15.3201 0.684001C15.3721 1.023 15.3721 1.361 15.3981 1.752Z" fill="#397A7C"/>
<path d="M46.933 10.424C46.9276 10.628 46.8433 10.822 46.6978 10.9652C46.5524 11.1085 46.3571 11.1897 46.153 11.192C45.738 11.192 45.4 10.84 45.4 10.411C45.3989 10.3099 45.418 10.2096 45.4562 10.116C45.4943 10.0225 45.5508 9.93741 45.6222 9.86589C45.6936 9.79438 45.7786 9.73783 45.8722 9.69955C45.9657 9.66127 46.0659 9.64204 46.167 9.64298C46.37 9.65107 46.5622 9.73627 46.7046 9.8812C46.8469 10.0261 46.9286 10.2199 46.933 10.423V10.424Z" fill="#397A7C"/>
<path d="M11.058 29.356C11.058 29.929 11.032 30.411 11.071 30.906C11.084 31.036 11.214 31.231 11.344 31.283C12.357 31.7 12.981 32.403 12.981 33.536C12.981 34.708 12.409 35.528 11.357 36.049C11.227 36.114 11.084 36.27 11.057 36.413C10.954 36.999 10.746 37.273 10.33 37.286C9.901 37.286 9.655 36.986 9.577 36.387C9.577 36.361 9.563 36.322 9.563 36.335C9.07 36.114 8.589 35.932 8.147 35.671C7.731 35.437 7.627 34.994 7.861 34.63C8.082 34.291 8.472 34.2 8.888 34.421C9.083 34.525 9.278 34.63 9.576 34.773C9.576 33.874 9.59 33.08 9.564 32.273C9.564 32.182 9.408 32.077 9.304 32.025C8.459 31.609 7.926 30.997 7.965 30.007C8.005 29.044 8.498 28.367 9.343 27.924C9.459 27.859 9.563 27.676 9.59 27.534C9.68 27.064 9.953 26.765 10.343 26.791C10.772 26.817 10.993 27.078 11.071 27.507C11.097 27.65 11.253 27.807 11.396 27.897C11.577 28.028 11.811 28.08 12.006 28.197C12.396 28.419 12.513 28.77 12.344 29.147C12.162 29.538 11.837 29.669 11.409 29.487C11.305 29.434 11.214 29.408 11.058 29.357V29.356ZM11.097 32.859V34.447C11.681 33.822 11.669 33.21 11.097 32.859Z" fill="#397A7C"/>
<path d="M21.375 35.788H26.585C26.949 35.788 27.261 35.854 27.43 36.218C27.638 36.674 27.339 37.182 26.806 37.234C26.481 37.273 26.156 37.247 25.832 37.247H16.437C16.294 37.247 16.138 37.26 15.995 37.247C15.54 37.207 15.242 36.908 15.255 36.505C15.255 36.088 15.553 35.815 16.021 35.801C16.631 35.788 17.256 35.801 17.866 35.801C19.036 35.788 20.206 35.788 21.375 35.788Z" fill="#397A7C"/>
<path d="M17.775 34.4599C17.191 34.4599 16.605 34.4729 16.021 34.4599C15.553 34.4469 15.254 34.1739 15.254 33.7569C15.241 33.3269 15.554 33.0149 16.034 33.0019C17.217 32.9889 18.399 32.9889 19.581 33.0019C20.075 33.0019 20.374 33.3019 20.374 33.7319C20.374 34.1609 20.075 34.4469 19.568 34.4469C18.984 34.4729 18.373 34.4599 17.775 34.4599Z" fill="#397A7C"/>
<path d="M39.839 23.783C39.8365 23.3839 39.9129 22.9882 40.0639 22.6187C40.2149 22.2492 40.4375 21.9132 40.7188 21.63C41.0001 21.3468 41.3346 21.122 41.7031 20.9686C42.0716 20.8152 42.4668 20.7362 42.866 20.736C43.2654 20.7334 43.6615 20.81 44.0311 20.9615C44.4007 21.1129 44.7366 21.3362 45.0194 21.6184C45.3021 21.9006 45.5261 22.236 45.6783 22.6054C45.8304 22.9747 45.9078 23.3706 45.906 23.77C45.906 25.45 44.543 26.817 42.879 26.817C41.203 26.83 39.839 25.463 39.839 23.783ZM41.294 23.783C41.2932 23.9899 41.3333 24.1948 41.412 24.3861C41.4906 24.5775 41.6063 24.7513 41.7524 24.8978C41.8985 25.0442 42.0721 25.1604 42.2632 25.2395C42.4543 25.3187 42.6591 25.3593 42.866 25.359C43.724 25.359 44.439 24.643 44.439 23.783C44.439 22.911 43.737 22.208 42.866 22.221C41.983 22.208 41.294 22.898 41.294 23.783Z" fill="#397A7C"/>
<path d="M19.36 22.69C20.205 22.065 20.478 22.013 20.816 22.364C21.154 22.729 21.076 23.054 20.452 23.77C20.79 24.187 21.349 24.59 20.79 25.19C20.465 25.541 20.102 25.437 19.387 24.851C18.971 25.203 18.529 25.737 17.957 25.164C17.399 24.591 17.997 24.187 18.321 23.77C17.685 23.041 17.607 22.716 17.971 22.351C18.308 21.999 18.633 22.078 19.361 22.69H19.36Z" fill="#397A7C"/>
<path d="M27.482 23.783C26.897 22.976 26.832 22.65 27.196 22.325C27.56 21.999 27.859 22.078 28.522 22.65C28.872 22.481 29.197 22.273 29.535 22.169C29.652 22.129 29.873 22.259 29.99 22.377C30.354 22.716 30.276 23.028 29.652 23.783C30.25 24.551 30.328 24.864 29.99 25.203C29.652 25.541 29.288 25.463 28.548 24.864C28.158 25.229 27.742 25.697 27.144 25.203C26.807 24.89 26.897 24.564 27.482 23.783Z" fill="#397A7C"/>
<path d="M25.065 23.783C25.675 24.564 25.741 24.851 25.39 25.203C25.065 25.528 24.74 25.463 23.96 24.89C23.22 25.463 22.869 25.528 22.531 25.203C22.206 24.863 22.271 24.603 22.869 23.783C22.259 23.015 22.193 22.715 22.531 22.377C22.882 22.012 23.207 22.09 23.961 22.728C24.363 22.377 24.766 21.83 25.377 22.39C25.767 22.702 25.676 23.002 25.065 23.783Z" fill="#397A7C"/>
<path d="M33.186 22.715C33.901 22.077 34.252 21.999 34.616 22.377C34.953 22.729 34.862 23.093 34.252 23.783C34.602 24.2 35.174 24.63 34.55 25.242C34.226 25.567 33.875 25.45 33.186 24.864C32.77 25.203 32.355 25.724 31.756 25.19C31.419 24.89 31.51 24.578 32.095 23.77C31.497 23.041 31.419 22.702 31.77 22.364C32.134 21.999 32.471 22.078 33.186 22.716V22.715Z" fill="#397A7C"/>
</svg>
