<svg width="32" height="51" viewBox="0 0 32 51" fill="none" xmlns="http://www.w3.org/2000/svg">
<path d="M2.823 50.728C2.367 50.495 1.859 50.326 1.456 50.027C0.700001 49.442 0.401001 48.611 0.401001 47.675V4.43203C0.401001 2.32703 0.896002 1.58603 2.823 0.832031H29.385C29.815 1.04003 30.297 1.19603 30.675 1.46903C31.43 2.01503 31.781 2.82003 31.795 3.74303C31.808 5.23734 31.808 6.73173 31.795 8.22603C31.795 8.75903 31.508 9.09603 31.078 9.09603C30.648 9.09603 30.362 8.75903 30.362 8.22603V3.88603C30.362 2.84603 29.776 2.24903 28.734 2.24903H3.448C2.432 2.24903 1.833 2.84603 1.833 3.84703V47.701C1.833 48.675 2.433 49.286 3.422 49.286H28.76C29.815 49.286 30.375 48.688 30.375 47.584V13.332C30.375 13.151 30.362 12.969 30.388 12.8C30.453 12.41 30.688 12.176 31.078 12.176C31.468 12.176 31.716 12.396 31.794 12.786C31.834 12.982 31.82 13.176 31.82 13.371V47.13C31.82 49.248 31.325 49.976 29.398 50.73H2.823V50.728Z" fill="#397A7C"/>
<path d="M3.34406 23.325V5.53604C3.34406 4.93804 3.44806 4.40604 3.91606 4.00304C4.32006 3.65304 4.78906 3.61304 5.28406 3.61304H26.8591C28.2651 3.61304 28.8391 4.19804 28.8391 5.60104V41.074C28.8391 42.49 28.2521 43.075 26.8201 43.075H5.33606C3.91606 43.075 3.33105 42.477 3.33105 41.061C3.34405 35.149 3.34406 29.237 3.34406 23.325ZM4.77605 8.30404V8.78404C4.77605 19.557 4.77606 30.315 4.76306 41.087C4.76306 41.594 4.94506 41.672 5.38806 41.672C12.5361 41.659 19.6721 41.659 26.8201 41.672C27.3281 41.672 27.4321 41.503 27.4321 41.035C27.4191 30.302 27.4191 19.57 27.4191 8.83704V8.31704C19.8411 8.30404 12.3411 8.30404 4.77605 8.30404ZM27.4191 6.84904V5.73004C27.4191 5.02804 27.4191 5.02804 26.7291 5.02804H5.45305C5.32305 5.02804 5.18006 4.99004 5.06306 5.04204C4.94506 5.09304 4.78905 5.23604 4.77605 5.34004C4.75005 5.83404 4.76306 6.32804 4.76306 6.84804H27.4191V6.84904Z" fill="#397A7C"/>
<path d="M16.04 48.8181C14.594 48.7791 13.435 47.5841 13.487 46.1681C13.5064 45.4773 13.7978 44.8221 14.2979 44.3451C14.7979 43.8681 15.4661 43.6079 16.157 43.6211C17.576 43.6471 18.761 44.8681 18.708 46.2841C18.669 47.7141 17.471 48.8441 16.039 48.8181H16.04ZM17.276 46.2071C17.276 45.5571 16.768 45.0501 16.104 45.0371C15.44 45.0371 14.932 45.5441 14.919 46.1941C14.9177 46.3516 14.9478 46.5079 15.0076 46.6537C15.0673 46.7995 15.1556 46.9319 15.2671 47.0431C15.3787 47.1544 15.5113 47.2423 15.6572 47.3017C15.8032 47.3611 15.9595 47.3908 16.117 47.3891C16.755 47.3891 17.277 46.8561 17.277 46.2071H17.276Z" fill="#397A7C"/>
<path d="M13.526 17.5551V15.9571C13.083 15.9571 12.654 16.0091 12.25 15.9441C11.964 15.8921 11.586 15.7241 11.482 15.5021C11.378 15.2691 11.456 14.8401 11.625 14.6191C12.8784 13.0235 14.1501 11.4424 15.44 9.87612C15.844 9.38212 16.365 9.38212 16.768 9.87612C18.058 11.4611 19.359 13.0461 20.609 14.6581C20.766 14.8661 20.831 15.2811 20.727 15.5021C20.623 15.7231 20.271 15.9051 19.997 15.9441C19.581 16.0221 19.125 15.9571 18.669 15.9571V17.5551C22.953 18.9981 25.128 23.2851 24.255 27.2751C23.396 31.1471 20.05 33.8371 16.13 33.8501C12.276 33.8621 8.87796 31.1861 7.99196 27.4571C7.50283 25.4133 7.80047 23.2602 8.82573 21.4257C9.851 19.5912 11.5289 18.2095 13.526 17.5551ZM15.974 18.6081C12.12 18.6981 9.09896 21.8301 9.17696 25.6901C9.25496 29.5231 12.445 32.5111 16.365 32.4201C20.102 32.3301 23.096 29.1461 23.018 25.3521C22.94 21.5701 19.75 18.5171 15.974 18.6081ZM16.104 11.3051C15.232 12.3841 14.399 13.4231 13.5 14.5281C13.682 14.5411 13.76 14.5541 13.826 14.5541C14.802 14.5801 14.971 14.7621 14.971 15.7491V17.2051H17.211C17.211 16.7371 17.237 16.2821 17.211 15.8401C17.146 14.8401 17.511 14.4501 18.422 14.5541C18.474 14.5671 18.539 14.5411 18.695 14.5281C17.81 13.4101 16.977 12.3841 16.105 11.3051H16.104Z" fill="#397A7C"/>
<path d="M16.612 22.4411C16.612 23.3111 16.599 24.0261 16.625 24.7411C16.625 24.8581 16.742 24.9881 16.833 25.0661C16.963 25.1561 17.133 25.1961 17.276 25.2611C18.461 25.8191 18.942 26.6511 18.826 27.8981C18.721 29.0031 18.096 29.6911 16.872 30.0291C16.794 30.0551 16.716 30.0691 16.638 30.0941C16.664 30.1341 16.703 30.1591 16.728 30.1981C16.56 30.3801 16.39 30.5621 16.221 30.7571L15.765 30.2631C15.791 30.2241 15.83 30.1851 15.856 30.1461C15.531 30.0811 15.166 30.0811 14.88 29.9511C14.411 29.7311 13.93 29.4711 13.539 29.1201C13.213 28.8341 13.291 28.3921 13.591 28.1321C13.916 27.8461 14.151 28.0671 14.398 28.2751C14.815 28.6131 15.258 28.9121 15.882 28.8991C15.882 28.0151 15.896 27.1451 15.87 26.2741C15.87 26.1701 15.726 26.0401 15.622 25.9881C15.362 25.8581 15.075 25.7681 14.828 25.6381C13.903 25.1701 13.487 24.4291 13.578 23.4811C13.668 22.4931 14.228 21.8561 15.244 21.5711C15.44 21.5181 15.648 21.4671 15.778 21.3371L16.221 20.8171C16.403 20.9731 16.573 21.1291 16.755 21.2721C16.729 21.2981 16.715 21.3101 16.69 21.3371C17.185 21.4671 17.692 21.5701 18.174 21.7521C18.526 21.8821 18.721 22.1551 18.552 22.5711C18.408 22.9351 18.174 23.0651 17.783 22.8961C17.432 22.7141 17.067 22.6101 16.612 22.4411ZM15.948 24.6891V22.5841C15.283 22.5971 14.867 22.9091 14.815 23.4151C14.75 24.0521 15.088 24.4551 15.948 24.6891ZM16.573 28.8731C17.315 28.6781 17.627 28.3141 17.614 27.6911C17.614 27.0411 17.237 26.5861 16.573 26.4311V28.8731Z" fill="#397A7C"/>
<path d="M16.3119 36.8771H8.55195C8.40895 36.8771 8.25195 36.8901 8.10895 36.8641C7.73195 36.7861 7.49695 36.5521 7.49695 36.1501C7.49695 35.7861 7.71895 35.5391 8.08295 35.4741C8.23995 35.4481 8.40895 35.4481 8.56495 35.4481H24.0469C24.1769 35.4481 24.3069 35.4351 24.4369 35.4611C24.8539 35.5131 25.089 35.7341 25.115 36.1501C25.1409 36.5401 24.8409 36.8381 24.4109 36.8641C24.2159 36.8771 24.0209 36.8641 23.8249 36.8641C21.3249 36.8771 18.8249 36.8771 16.3119 36.8771Z" fill="#397A7C"/>
<path d="M19.216 38.241H24.151C24.294 38.241 24.451 38.228 24.593 38.267C24.958 38.358 25.153 38.605 25.14 38.969C25.127 39.307 24.945 39.554 24.593 39.619C24.45 39.645 24.307 39.645 24.151 39.645H14.19C14.073 39.645 13.955 39.645 13.851 39.632C13.448 39.58 13.239 39.332 13.239 38.943C13.239 38.553 13.461 38.306 13.851 38.254C13.995 38.228 14.138 38.241 14.294 38.241H19.216Z" fill="#397A7C"/>
<path d="M8.82499 38.254C9.04699 38.254 9.28099 38.228 9.50199 38.254C9.89299 38.306 10.127 38.554 10.127 38.944C10.127 39.333 9.91899 39.606 9.51599 39.632C9.06521 39.6688 8.61238 39.6732 8.16099 39.645C7.74499 39.619 7.51099 39.359 7.51099 38.943C7.52299 38.527 7.77099 38.293 8.18699 38.254C8.39599 38.228 8.61699 38.241 8.82499 38.254C8.82499 38.241 8.82499 38.241 8.82499 38.254Z" fill="#397A7C"/>
</svg>
