<svg width="44" height="51" viewBox="0 0 44 51" fill="none" xmlns="http://www.w3.org/2000/svg">
<path d="M20.151 50.728C19.266 50.638 18.381 50.547 17.495 50.43C13.693 49.923 10.021 49.013 6.72698 46.934C3.44498 44.855 1.36198 41.971 0.853981 38.06C0.489981 35.24 0.970982 32.537 1.96098 29.886C3.35398 26.118 5.52898 22.818 8.13298 19.803C9.61698 18.088 11.245 16.49 12.807 14.84C12.899 14.749 13.016 14.684 13.159 14.593C12.313 13.839 12 12.994 12.352 11.994C12.703 10.994 13.498 10.552 14.617 10.5C14.435 10.214 14.279 9.99303 14.136 9.77203C13.042 8.09603 11.974 6.40703 11.271 4.52203C11.1186 4.11364 11.0051 3.69176 10.932 3.26203C10.698 1.97603 11.076 1.32603 12.326 0.80603H13.406C15.281 1.32603 17.156 1.85903 19.031 2.34003C20.984 2.83303 22.951 2.88503 24.917 2.37903C26.883 1.87203 28.837 1.32603 30.789 0.80603H31.869C33.146 1.32603 33.576 2.00203 33.224 3.35303C32.9427 4.43601 32.5366 5.48268 32.014 6.47203C31.31 7.83603 30.451 9.13503 29.644 10.5C30.646 10.552 31.454 10.968 31.818 11.955C32.182 12.943 31.909 13.8 31.102 14.528C31.192 14.632 31.284 14.736 31.388 14.84C32.169 15.62 32.964 16.399 33.732 17.178C34.084 17.542 34.109 17.958 33.823 18.257C33.523 18.569 33.093 18.543 32.716 18.167C31.74 17.205 30.776 16.243 29.786 15.307C29.5616 15.1104 29.277 14.9961 28.979 14.983C24.396 14.957 19.799 14.97 15.216 14.983C14.995 14.983 14.708 15.048 14.552 15.177C10.893 18.53 7.59898 22.194 5.11198 26.521C3.75798 28.886 2.71598 31.381 2.32598 34.096C1.60998 39.125 3.27598 43.348 8.05498 46.076C10.672 47.571 13.524 48.376 16.479 48.831C21.922 49.676 27.274 49.377 32.534 47.675C34.461 47.051 36.271 46.168 37.873 44.907C41.115 42.347 42.339 38.943 41.961 34.915C41.597 30.991 39.891 27.587 37.742 24.365C37.117 23.428 36.427 22.558 35.763 21.648C35.463 21.233 35.49 20.83 35.815 20.57C36.154 20.297 36.557 20.362 36.87 20.778C39.344 23.909 41.453 27.248 42.638 31.082C43.537 33.992 43.81 36.942 42.951 39.905C41.935 43.439 39.539 45.855 36.375 47.558C33.771 48.961 30.959 49.754 28.055 50.208C26.818 50.404 25.568 50.495 24.331 50.624C24.201 50.638 24.083 50.677 23.953 50.702C22.69 50.728 21.414 50.728 20.151 50.728ZM22.091 10.538C23.875 10.538 25.672 10.538 27.456 10.526C27.626 10.526 27.886 10.474 27.951 10.356C29.031 8.60303 30.125 6.84803 31.128 5.05603C31.479 4.43203 31.675 3.70403 31.831 3.00203C31.987 2.34003 31.818 2.17103 31.154 2.28803C30.242 2.44403 29.344 2.67803 28.458 2.93803C26.662 3.45803 24.878 4.00303 22.99 4.14603C20.893 4.30203 18.888 3.86003 16.896 3.28803C15.659 2.93803 14.435 2.57303 13.172 2.31403C12.3 2.13203 12.104 2.37903 12.365 3.23603C12.625 4.09403 12.938 4.96403 13.38 5.75703C14.227 7.25103 15.177 8.68103 16.063 10.162C16.245 10.474 16.44 10.565 16.792 10.565C18.576 10.525 20.333 10.539 22.092 10.539L22.091 10.538ZM22.078 11.942H14.813C14.63 11.942 14.448 11.929 14.279 11.981C13.862 12.085 13.628 12.371 13.654 12.787C13.68 13.189 13.901 13.449 14.318 13.514C14.474 13.54 14.643 13.54 14.8 13.54H29.383C29.578 13.54 29.773 13.54 29.969 13.501C30.333 13.423 30.581 13.137 30.529 12.813C30.489 12.54 30.269 12.253 30.06 12.046C29.93 11.929 29.656 11.955 29.448 11.955C26.988 11.942 24.539 11.942 22.078 11.942Z" fill="#397A7C"/>
<path d="M21.74 43.374C16.467 43.14 12.091 39.619 10.854 34.604C10.698 33.993 10.854 33.616 11.297 33.486C11.727 33.369 12.065 33.642 12.235 34.239C13.407 38.371 16.089 40.931 20.308 41.776C25.92 42.906 31.48 38.826 32.17 33.135C32.834 27.678 29.357 22.895 23.953 21.817C18.797 20.791 13.511 24.157 12.248 29.25C12.196 29.445 12.17 29.64 12.091 29.809C11.935 30.172 11.636 30.315 11.258 30.224C10.894 30.134 10.698 29.874 10.738 29.51C10.776 29.146 10.881 28.782 10.985 28.418C12.508 23.364 17.391 19.933 22.651 20.206C28.042 20.492 32.508 24.39 33.498 29.64C34.865 36.93 29.045 43.699 21.74 43.374Z" fill="#397A7C"/>
<path d="M21.896 37.267C21.896 35.799 21.909 34.382 21.883 32.979C21.883 32.849 21.688 32.68 21.544 32.615C20.984 32.329 20.373 32.135 19.826 31.822C18.719 31.172 18.289 30.172 18.354 28.912C18.432 27.612 19.057 26.703 20.242 26.196C20.75 25.976 21.297 25.871 21.87 25.703C22.013 25.456 21.662 24.832 22.326 24.832C22.938 24.819 22.742 25.365 22.821 25.702C23.354 25.793 23.888 25.845 24.409 25.962C24.735 26.04 25.06 26.157 25.359 26.313C25.867 26.586 25.971 27.002 25.724 27.496C25.477 27.963 25.216 28.016 24.63 27.769C24.07 27.535 23.485 27.366 22.833 27.145V31.199C23.211 31.368 23.602 31.524 23.979 31.706C25.646 32.498 26.389 33.824 26.179 35.604C25.985 37.344 24.969 38.41 23.146 38.814C23.055 38.839 22.951 38.852 22.86 38.865C22.664 39.203 23.068 39.918 22.313 39.892C21.688 39.879 22 39.294 21.87 38.956C21.414 38.891 20.932 38.891 20.503 38.722C19.826 38.462 19.188 38.124 18.563 37.761C18.341 37.631 18.198 37.345 18.093 37.098C17.925 36.734 18.107 36.228 18.433 35.968C18.797 35.682 19.071 35.916 19.331 36.136C20.047 36.773 20.828 37.254 21.896 37.266V37.267ZM22.703 37.241C23.901 37.02 24.487 36.409 24.526 35.383C24.566 34.291 23.876 33.421 22.703 33.122V37.241ZM21.974 30.874V27.327C20.894 27.353 20.138 27.885 20.034 28.691C19.904 29.769 20.503 30.471 21.974 30.874Z" fill="#397A7C"/>
</svg>
