<svg width="51" height="50" viewBox="0 0 51 50" fill="none" xmlns="http://www.w3.org/2000/svg">
<path d="M49.9999 33.108C49.5969 34.424 48.6619 35.101 47.3749 35.426C46.5569 35.635 45.7639 35.908 44.9709 36.208C44.7249 36.298 44.4389 36.494 44.3089 36.715C42.8269 39.176 40.7489 40.999 38.2669 42.379C37.9939 42.536 37.8369 42.692 37.7729 43.03C37.4869 44.658 37.1629 46.286 36.8499 47.913C36.6419 48.955 35.9929 49.502 34.9529 49.502C33.9009 49.515 32.8479 49.515 31.7829 49.502C30.7559 49.489 30.1069 48.968 29.8989 47.965C29.7169 47.093 29.5609 46.221 29.4049 45.4C26.8449 45.452 24.3109 45.504 21.6999 45.543L21.2579 47.796C21.0369 48.955 20.4129 49.489 19.2569 49.502H16.2419C15.1249 49.502 14.4619 48.942 14.2539 47.835C13.9679 46.325 13.6819 44.801 13.3709 43.291C13.3182 43.0679 13.1836 42.8727 12.9939 42.744C9.04394 40.439 6.57394 37.093 5.83394 32.536C5.62594 31.246 5.61394 29.918 5.50894 28.512C5.32694 28.395 5.20994 28.564 5.06794 28.799C4.30094 29.997 3.31294 30.921 1.88394 31.286C1.63694 31.351 1.37694 31.364 1.11694 31.39C0.662944 31.442 0.324943 31.26 0.116943 30.869V30.374C0.336943 30.049 0.623943 29.892 1.03894 29.854C2.15694 29.749 3.01494 29.202 3.68994 28.252C3.50794 28.2 3.36494 28.174 3.23494 28.122C2.79394 27.965 2.33894 27.835 1.92294 27.627C0.675944 26.989 0.350944 25.908 1.02694 24.801C1.76694 23.603 3.04094 23.317 4.15794 24.137C5.02794 24.775 5.44394 25.661 5.56094 26.715C5.56914 26.8538 5.62993 26.9843 5.73094 27.08C5.76894 26.937 5.82094 26.806 5.84694 26.663C6.60094 22.353 8.88694 19.098 12.6299 16.846C13.1099 16.559 13.5519 16.624 13.7729 17.015C14.0069 17.405 13.8639 17.796 13.3579 18.095C10.8759 19.593 8.96594 21.611 7.97794 24.372C6.54794 28.395 6.62694 32.392 8.54994 36.26C9.67994 38.525 11.4479 40.205 13.6429 41.416C14.3579 41.806 14.7089 42.314 14.8259 43.109C15.0599 44.606 15.3979 46.077 15.6709 47.562C15.7349 47.926 15.8909 48.056 16.2549 48.056C17.2469 48.043 18.239 48.043 19.2309 48.056C19.6209 48.07 19.7759 47.9 19.8409 47.536C19.9709 46.728 20.1409 45.934 20.2829 45.14C20.4529 44.202 20.8549 43.864 21.7909 43.955C24.3309 44.2045 26.8916 44.1474 29.4179 43.785C30.1449 43.682 30.6389 44.085 30.7819 44.853C30.9519 45.726 31.1329 46.611 31.2759 47.483C31.3409 47.9 31.4959 48.07 31.9389 48.056C32.8958 48.03 33.8531 48.03 34.8099 48.056C35.2519 48.07 35.4079 47.874 35.4729 47.471C35.7849 45.765 36.1229 44.059 36.4349 42.341C36.5249 41.846 36.7719 41.52 37.2009 41.286C39.6569 39.983 41.7099 38.239 43.1389 35.804C43.4509 35.27 43.9319 34.958 44.5169 34.775C45.4779 34.475 46.4399 34.163 47.3879 33.864C48.2719 33.577 48.5449 33.213 48.5449 32.301V29.281C48.5449 28.538 48.2589 28.135 47.5569 27.901C46.9742 27.7038 46.3895 27.5124 45.8029 27.327C44.9189 27.067 44.3609 26.494 44.0749 25.622C43.6592 24.319 43.0122 23.1016 42.1649 22.028C42.0739 21.911 41.9569 21.793 41.8269 21.624C41.7359 21.819 41.6709 21.963 41.6059 22.106C40.9299 23.851 39.5919 24.566 37.7859 24.554C34.4589 24.541 32.0429 22.184 31.9909 18.864C31.9779 17.991 32.0809 17.119 32.1469 16.168C31.8219 16.09 31.4319 15.986 31.0419 15.921C30.9519 15.908 30.8079 15.973 30.7689 16.051C30.0159 17.145 29.0669 18.043 27.8979 18.825C28.3389 18.968 28.7159 19.072 29.0799 19.202C29.5999 19.385 29.7949 19.723 29.6649 20.152C29.5349 20.569 29.1449 20.752 28.6249 20.582C26.7078 19.9555 24.7039 19.6349 22.6869 19.632C20.7172 19.6158 18.7571 19.9101 16.8789 20.504C16.7229 20.556 16.5669 20.596 16.4109 20.634C15.9949 20.726 15.7089 20.556 15.5529 20.179C15.4109 19.814 15.5929 19.411 15.9829 19.267C16.3849 19.111 16.8129 19.007 17.2819 18.851C17.1389 18.734 17.0479 18.655 16.9569 18.591C13.6169 16.233 12.0319 12.171 12.9289 8.26496C13.3623 6.31655 14.3726 4.5439 15.8281 3.17808C17.2837 1.81225 19.1169 0.916632 21.0889 0.60796C25.1559 -0.0420402 29.3139 2.01496 31.3019 5.66096C31.6399 6.27296 31.5879 6.70196 31.1459 6.93696C30.7299 7.15796 30.3789 6.97596 30.0289 6.38996C28.2999 3.42096 25.7149 1.90996 22.2839 1.97596C18.3859 2.04096 14.9939 5.02296 14.2799 8.91596C13.5649 12.836 15.7349 16.819 19.3739 18.252C19.6079 18.342 19.8799 18.356 20.1269 18.33C21.7715 18.1346 23.4334 18.1346 25.0779 18.33C25.3379 18.356 25.6499 18.343 25.8839 18.239C28.9499 16.846 30.6779 14.476 31.0289 11.103C31.0419 10.973 31.0419 10.843 31.0809 10.713C31.1849 10.309 31.4449 10.101 31.8609 10.14C32.2769 10.179 32.5489 10.465 32.4839 10.869C32.3029 11.924 32.0689 12.965 31.8479 14.007C31.8079 14.177 31.7309 14.333 31.6399 14.554C32.3549 14.658 32.9519 15.01 33.7319 14.606C35.5899 13.681 37.5129 12.887 39.5659 12.458L39.9949 12.379C41.6579 12.171 42.3599 12.692 42.6199 14.385C42.8799 16.129 42.6979 17.861 42.3989 19.58C42.3589 19.775 42.4249 20.075 42.5679 20.218C43.8669 21.663 44.8679 23.278 45.4649 25.14C45.6079 25.57 45.8549 25.83 46.2839 25.947C46.6609 26.051 47.0239 26.207 47.4009 26.286C48.6879 26.586 49.6359 27.276 50.0259 28.59C49.9999 30.114 49.9999 31.611 49.9999 33.109V33.108ZM41.2939 16.221C41.2419 15.635 41.2039 15.049 41.1249 14.476C41.0209 13.773 40.8909 13.694 40.1899 13.825C38.0589 14.228 36.0839 15.114 34.1349 16.012C33.9139 16.116 33.6799 16.429 33.6539 16.676C33.5369 17.523 33.4199 18.395 33.4719 19.241C33.6019 21.194 34.8229 22.627 36.7329 22.978C39.2539 23.448 39.8779 22.757 40.5019 20.908C41.0079 19.398 41.2289 17.822 41.2939 16.22V16.221ZM4.11994 26.91C3.97694 26.09 3.72994 25.53 3.11994 25.204C2.76894 25.022 2.45694 25.178 2.22294 25.594C2.02794 25.946 2.19694 26.167 2.49594 26.284C2.98994 26.506 3.49594 26.675 4.11994 26.91Z" fill="#397A7C"/>
<path d="M22.401 5.69994C22.571 5.52994 22.726 5.21794 22.895 5.21794C23.064 5.20494 23.245 5.50394 23.337 5.73794C23.869 5.88194 24.402 5.99894 24.909 6.16794C25.247 6.28594 25.442 6.53294 25.351 6.92394C25.247 7.36594 24.948 7.53594 24.519 7.36594C24.142 7.22294 23.766 7.09294 23.298 6.91094C23.298 7.82194 23.298 8.62894 23.311 9.43694C23.311 9.51494 23.428 9.61894 23.506 9.65794C23.675 9.74894 23.856 9.81394 24.038 9.89194C25.208 10.4519 25.741 11.3769 25.611 12.5879C25.481 13.8249 24.844 14.5539 23.584 14.8919C23.5075 14.9155 23.4293 14.9329 23.35 14.9439C23.389 14.9839 23.415 15.0229 23.454 15.0489L22.882 15.6609C22.726 15.4779 22.557 15.3089 22.402 15.1269C22.44 15.0869 22.466 15.0489 22.505 15.0099C22.18 14.9439 21.829 14.9439 21.518 14.8139C21.0605 14.6219 20.6248 14.3819 20.218 14.0979C20.049 13.9809 19.893 13.6819 19.919 13.4729C19.945 13.2389 20.101 12.9529 20.296 12.8089C20.4 12.7309 20.725 12.8489 20.881 12.9649C21.361 13.3429 21.842 13.6809 22.531 13.7069C22.531 12.7699 22.544 11.8459 22.518 10.9339C22.518 10.8299 22.388 10.6869 22.284 10.6339C21.985 10.4779 21.661 10.3739 21.349 10.2179C20.465 9.76194 20.036 9.01994 20.101 8.02994C20.166 7.01494 20.712 6.33794 21.661 6.01194C21.921 5.92194 22.193 5.86894 22.453 5.80394C22.4277 5.77384 22.4099 5.73821 22.401 5.69994ZM23.22 11.1029V13.6549C23.856 13.6159 24.26 13.2389 24.324 12.5879C24.402 11.8849 23.999 11.3249 23.22 11.1029ZM22.596 7.06694C21.842 7.11894 21.401 7.48394 21.388 8.06894C21.375 8.68194 21.894 9.20194 22.596 9.25394V7.06694Z" fill="#397A7C"/>
<path d="M39.618 29.527C39.0194 29.5247 38.4436 29.2971 38.0054 28.8894C37.5671 28.4817 37.2985 27.9239 37.253 27.327C37.214 26.845 37.487 26.494 37.903 26.455C38.332 26.415 38.618 26.663 38.696 27.132C38.8 27.757 39.111 28.069 39.606 28.082C40.112 28.095 40.436 27.757 40.541 27.158C40.619 26.663 40.931 26.403 41.359 26.455C41.775 26.507 42.022 26.845 41.983 27.34C41.905 28.564 40.853 29.528 39.618 29.528V29.527Z" fill="#397A7C"/>
</svg>
