<svg width="46" height="38" viewBox="0 0 46 38" fill="none" xmlns="http://www.w3.org/2000/svg">
<path d="M14.976 6.52306C13.1412 6.61375 11.3245 6.66362 9.55163 6.87673C8.67821 6.97245 7.81359 7.13617 6.96564 7.36642C6.14949 7.60522 5.35752 7.94075 4.824 8.45915C4.29048 8.97756 4.05924 9.66827 4.14086 10.4527C4.181 10.8607 4.26928 11.2625 4.40384 11.6497C4.54306 12.059 4.70865 12.4588 4.89957 12.8467C5.29671 13.6454 5.74135 14.4197 6.23111 15.1652C6.47293 15.5476 6.72987 15.9209 6.9868 16.3002L7.75912 17.4353C7.58229 17.2842 7.40999 17.133 7.23618 16.9819L6.72987 16.5134C6.39736 16.1939 6.07594 15.8635 5.7656 15.5219C5.1309 14.8358 4.56166 14.092 4.06529 13.3001C3.81196 12.8927 3.59161 12.4656 3.40632 12.023C3.20847 11.5618 3.07228 11.0765 3.00127 10.5796C2.96355 10.3179 2.95241 10.0531 2.96802 9.78918C2.98504 9.51519 3.0327 9.24397 3.11009 8.98058C3.19641 8.71508 3.3152 8.46126 3.46375 8.22489C3.61184 7.99292 3.78631 7.77889 3.98367 7.58708C4.36638 7.23232 4.80438 6.94235 5.28044 6.72861C5.72979 6.52882 6.19683 6.37146 6.67546 6.25857C7.59776 6.05008 8.5396 5.94014 9.48513 5.9306C11.3326 5.90693 13.1761 6.10585 14.976 6.52306Z" fill="url(#paint0_linear_105_5595)"/>
<path d="M4.72754 17.4352C5.02982 17.4352 5.33209 17.4352 5.63437 17.4518C5.93665 17.4684 6.22986 17.4881 6.52609 17.5168C7.12007 17.5712 7.70951 17.6513 8.29593 17.745L7.94982 18.0941C7.81833 17.4019 7.70498 16.7067 7.62185 16.0069C7.57802 15.6563 7.55082 15.3041 7.52361 14.9489C7.49641 14.5937 7.48129 14.2401 7.48885 13.8804C7.62336 14.2144 7.72916 14.5529 7.83345 14.8915C7.93773 15.23 8.02993 15.5716 8.11154 15.9147C8.28082 16.5994 8.41382 17.2901 8.53926 17.9838C8.55123 18.0612 8.53272 18.1402 8.48761 18.2042C8.44251 18.2681 8.37433 18.3121 8.29744 18.3269C8.26294 18.3329 8.22766 18.3329 8.19316 18.3269C7.60825 18.2196 7.02636 18.0971 6.44901 17.9505C6.16034 17.878 5.87317 17.7994 5.58601 17.7133C5.29884 17.6271 5.01017 17.5455 4.72754 17.4352Z" fill="url(#paint1_linear_105_5595)"/>
<path d="M23.5972 28.547C26.1665 29.4085 28.7072 30.2594 31.2781 31.0091C32.5627 31.3824 33.8474 31.736 35.1442 32.0353C36.4274 32.3457 37.728 32.5794 39.039 32.7351C39.6815 32.8115 40.3282 32.8468 40.9751 32.8409C41.5978 32.8427 42.2183 32.7665 42.822 32.6142C43.1049 32.5408 43.3783 32.4348 43.6367 32.2983C43.7578 32.2307 43.8735 32.1539 43.9828 32.0686C44.0916 31.9877 44.1927 31.8972 44.2851 31.798C44.3334 31.7497 44.3667 31.6907 44.4105 31.6469C44.4539 31.595 44.4919 31.5388 44.5239 31.4791L44.6236 31.3023L44.7022 31.1088L44.743 31.0121C44.7551 30.9788 44.7612 30.9426 44.7702 30.9093L44.8261 30.7007C44.8549 30.5587 44.873 30.4106 44.8927 30.2624C44.9295 29.6341 44.8745 29.0038 44.7294 28.3913C44.7022 28.2311 44.6539 28.0755 44.6161 27.9168L44.5571 27.6795L44.4831 27.4437L44.3319 26.9721L44.1642 26.5051C43.6925 25.2491 43.1552 24.0186 42.5545 22.8188C43.3755 23.9022 44.0969 25.0576 44.7098 26.2709L44.9319 26.7349C45.0015 26.886 45.0665 27.0523 45.133 27.2109L45.2327 27.4497L45.3219 27.6946C45.3778 27.8593 45.4443 28.0211 45.4912 28.1888L45.6423 28.6966L45.7496 29.2196C45.7814 29.3964 45.798 29.5778 45.8206 29.7576C45.8433 29.9375 45.8358 30.1249 45.8418 30.3093C45.8478 30.4937 45.8191 30.6856 45.7934 30.873L45.7375 31.1587C45.7284 31.2056 45.7209 31.2524 45.7073 31.3008L45.6604 31.4398C45.6302 31.5335 45.6 31.6287 45.5637 31.7209L45.4307 31.99C45.3885 32.0806 45.3379 32.1672 45.2796 32.2484C45.2206 32.33 45.1692 32.4192 45.1027 32.4948C44.8458 32.8015 44.5392 33.0631 44.1959 33.2686C43.8657 33.4601 43.5141 33.6123 43.1485 33.722C42.4513 33.9224 41.7307 34.0302 41.0054 34.0424C40.3057 34.0561 39.6059 34.0233 38.9106 33.9442C38.2229 33.8641 37.5413 33.7553 36.8687 33.6223C36.1961 33.4893 35.5311 33.3291 34.8721 33.1537C34.2132 32.9784 33.5587 32.7865 32.9073 32.5779C32.2559 32.3693 31.6181 32.1502 30.9818 31.9159C28.4366 30.9863 25.9675 29.86 23.5972 28.547Z" fill="url(#paint2_linear_105_5595)"/>
<path d="M45.5305 23.3826C45.2282 23.3342 44.938 23.2677 44.6478 23.1967C44.3576 23.1256 44.0689 23.0455 43.7833 22.9639C43.2105 22.7977 42.6467 22.6087 42.089 22.4062L42.4941 22.1281C42.4941 22.8324 42.4729 23.5367 42.4215 24.2441C42.3989 24.5962 42.3596 24.9484 42.3188 25.302C42.2779 25.6557 42.2266 26.0064 42.151 26.36C42.0815 26.0079 42.0422 25.6542 41.9999 25.302C41.9575 24.9499 41.9349 24.5977 41.9197 24.2441C41.882 23.5398 41.8774 22.8355 41.891 22.1281C41.8938 22.0498 41.9268 21.9756 41.9832 21.9212C42.0396 21.8668 42.1149 21.8364 42.1933 21.8364C42.2285 21.8367 42.2633 21.8433 42.2961 21.8561C42.8493 22.0737 43.3979 22.3095 43.9375 22.5558C44.208 22.6813 44.474 22.8158 44.74 22.9518C45.006 23.0879 45.2735 23.2224 45.5305 23.3826Z" fill="url(#paint3_linear_105_5595)"/>
<path d="M36.2293 27.2442C35.8218 27.0314 35.3977 26.852 34.9613 26.7076L29.0185 24.6491C25.0546 23.2788 21.0907 21.906 17.1269 20.5306L14.3928 19.5799C13.3678 19.2121 12.2479 19.2057 11.2188 19.5618C8.95175 20.3099 6.66955 21.0112 4.3934 21.7337C3.09965 22.1432 1.79683 22.5317 0.518195 22.9836C0.484157 22.9957 0.450851 23.0099 0.418443 23.0259C0.299407 23.0865 0.198293 23.1772 0.125131 23.289C0.0519683 23.4008 0.00929921 23.5298 0.00135593 23.6631C-0.00658735 23.7965 0.0204712 23.9296 0.0798476 24.0493C0.139224 24.1689 0.228855 24.271 0.339851 24.3453H0.348919C1.82404 25.2522 3.3188 26.1318 4.80752 27.0205C10.3956 30.3576 15.9878 33.6913 21.5839 37.0214C23.3462 38.0657 25.3322 38.5328 27.0355 37.0954C29.1182 35.3467 31.2296 33.6328 33.3305 31.9053C34.3884 31.0423 35.4374 30.1853 36.4681 29.2982C37.3462 28.541 37.2782 27.8215 36.2293 27.2442Z" fill="url(#paint4_linear_105_5595)"/>
<path d="M41.7942 13.9471C41.3196 17.3366 40.8435 20.7267 40.3659 24.1172C40.1226 25.8296 38.8696 26.6292 37.1995 26.1138C31.9883 24.5016 26.7785 22.8844 21.5702 21.2622L14.1493 18.9649C13.1503 18.6626 12.7256 18.0581 12.774 17.0092C12.7891 16.7069 12.8344 16.4046 12.8767 16.1023C13.4501 12.0175 14.0239 7.93176 14.5982 3.84496C14.636 3.5714 14.6723 3.29481 14.7327 3.02579C14.964 1.99049 15.5217 1.49928 16.5615 1.4751C19.8291 1.39953 23.0968 1.34059 26.3644 1.27257C30.9378 1.17685 35.5118 1.08063 40.0863 0.983899C40.4895 0.963709 40.8936 0.973307 41.2954 1.01262C42.6557 1.18491 43.4401 2.18999 43.2602 3.55175C42.772 7.01888 42.2808 10.483 41.7942 13.9471ZM40.6757 4.17142L15.7846 3.67871C15.1801 8.03 14.5755 12.3042 13.971 16.5981L38.0293 23.0139C38.9135 16.7175 39.7885 10.4921 40.6757 4.17142Z" fill="url(#paint5_linear_105_5595)"/>
<path d="M12.5853 20.6802L33.1825 28.1978L25.5772 34.0484L4.72754 23.2586L12.5853 20.6802Z" fill="white"/>
<path d="M11.2444 27.4409L14.4153 29.1322L12.5397 30.574L8.96826 28.5201L11.2444 27.4409Z" fill="white"/>
<path d="M39.4093 8.42449C41.7356 8.42449 43.6215 6.5386 43.6215 4.21224C43.6215 1.88589 41.7356 0 39.4093 0C37.0829 0 35.197 1.88589 35.197 4.21224C35.197 6.5386 37.0829 8.42449 39.4093 8.42449Z" fill="url(#paint6_linear_105_5595)"/>
<path d="M32.4613 10.5296C33.6241 10.5296 34.5667 9.58698 34.5667 8.42421C34.5667 7.26145 33.6241 6.31885 32.4613 6.31885C31.2986 6.31885 30.356 7.26145 30.356 8.42421C30.356 9.58698 31.2986 10.5296 32.4613 10.5296Z" fill="url(#paint7_linear_105_5595)"/>
<path d="M36.9785 12.2994C37.1604 11.5259 36.6807 10.7514 35.9071 10.5695C35.1336 10.3876 34.3591 10.8673 34.1772 11.6408C33.9953 12.4144 34.475 13.1889 35.2486 13.3708C36.0221 13.5527 36.7966 13.073 36.9785 12.2994Z" fill="url(#paint8_linear_105_5595)"/>
<path d="M22.379 16.2322C23.051 16.2322 23.5957 15.6874 23.5957 15.0155C23.5957 14.3435 23.051 13.7988 22.379 13.7988C21.7071 13.7988 21.1624 14.3435 21.1624 15.0155C21.1624 15.6874 21.7071 16.2322 22.379 16.2322Z" fill="url(#paint9_linear_105_5595)"/>
<path d="M24.8033 12.6925C25.4694 12.6925 26.0093 12.1525 26.0093 11.4864C26.0093 10.8203 25.4694 10.2803 24.8033 10.2803C24.1372 10.2803 23.5972 10.8203 23.5972 11.4864C23.5972 12.1525 24.1372 12.6925 24.8033 12.6925Z" fill="url(#paint10_linear_105_5595)"/>
<path d="M20.6243 12.1368C21.6493 12.1368 22.4803 11.3058 22.4803 10.2808C22.4803 9.25576 21.6493 8.4248 20.6243 8.4248C19.5993 8.4248 18.7683 9.25576 18.7683 10.2808C18.7683 11.3058 19.5993 12.1368 20.6243 12.1368Z" fill="url(#paint11_linear_105_5595)"/>
<path d="M18.058 19.1678C19.9251 18.4078 20.8225 16.2781 20.0625 14.411C19.3025 12.5439 17.1728 11.6465 15.3057 12.4065C13.4386 13.1666 12.5412 15.2963 13.3012 17.1634C14.0613 19.0304 16.191 19.9279 18.058 19.1678Z" fill="url(#paint12_linear_105_5595)"/>
<defs>
<linearGradient id="paint0_linear_105_5595" x1="2.93779" y1="11.6829" x2="15.5806" y2="11.6829" gradientUnits="userSpaceOnUse">
<stop stop-color="#76BB20"/>
<stop offset="1" stop-color="#599E03"/>
</linearGradient>
<linearGradient id="paint1_linear_105_5595" x1="4.42526" y1="16.1127" x2="8.54229" y2="16.1127" gradientUnits="userSpaceOnUse">
<stop stop-color="#76BB20"/>
<stop offset="1" stop-color="#5DA701"/>
</linearGradient>
<linearGradient id="paint2_linear_105_5595" x1="46.1819" y1="29.4599" x2="23.6425" y2="25.1177" gradientUnits="userSpaceOnUse">
<stop stop-color="#76BB20"/>
<stop offset="1" stop-color="#5CA600"/>
</linearGradient>
<linearGradient id="paint3_linear_105_5595" x1="45.5758" y1="24.7398" x2="41.5328" y2="23.9614" gradientUnits="userSpaceOnUse">
<stop stop-color="#76BB20"/>
<stop offset="1" stop-color="#61AE00"/>
</linearGradient>
<linearGradient id="paint4_linear_105_5595" x1="-0.00021223" y1="28.6513" x2="37.0742" y2="28.6513" gradientUnits="userSpaceOnUse">
<stop stop-color="#76BB20"/>
<stop offset="1" stop-color="#5BA303"/>
</linearGradient>
<linearGradient id="paint5_linear_105_5595" x1="12.7709" y1="13.6221" x2="43.2768" y2="13.6221" gradientUnits="userSpaceOnUse">
<stop stop-color="#76BB20"/>
<stop offset="1" stop-color="#6EC600"/>
</linearGradient>
<linearGradient id="paint6_linear_105_5595" x1="35.197" y1="4.21224" x2="43.6215" y2="4.21224" gradientUnits="userSpaceOnUse">
<stop stop-color="#6DC500"/>
<stop offset="1" stop-color="#559A00"/>
</linearGradient>
<linearGradient id="paint7_linear_105_5595" x1="30.356" y1="8.42421" x2="34.5667" y2="8.42421" gradientUnits="userSpaceOnUse">
<stop stop-color="#76BB20"/>
<stop offset="1" stop-color="#559801"/>
</linearGradient>
<linearGradient id="paint8_linear_105_5595" x1="34.1404" y1="11.9684" x2="37.018" y2="11.9684" gradientUnits="userSpaceOnUse">
<stop stop-color="#76BB20"/>
<stop offset="1" stop-color="#5EA802"/>
</linearGradient>
<linearGradient id="paint9_linear_105_5595" x1="21.1624" y1="15.0155" x2="23.5972" y2="15.0155" gradientUnits="userSpaceOnUse">
<stop stop-color="#76BB20"/>
<stop offset="1" stop-color="#559801"/>
</linearGradient>
<linearGradient id="paint10_linear_105_5595" x1="23.5972" y1="11.4864" x2="26.0093" y2="11.4864" gradientUnits="userSpaceOnUse">
<stop stop-color="#76BB20"/>
<stop offset="1" stop-color="#529400"/>
</linearGradient>
<linearGradient id="paint11_linear_105_5595" x1="18.7683" y1="10.2808" x2="22.4803" y2="10.2808" gradientUnits="userSpaceOnUse">
<stop stop-color="#76BB20"/>
<stop offset="1" stop-color="#549700"/>
</linearGradient>
<linearGradient id="paint12_linear_105_5595" x1="13.0321" y1="15.7862" x2="20.3336" y2="15.7862" gradientUnits="userSpaceOnUse">
<stop stop-color="#76BB20"/>
<stop offset="1" stop-color="#539600"/>
</linearGradient>
</defs>
</svg>
