<svg width="65" height="57" viewBox="0 0 65 57" fill="none" xmlns="http://www.w3.org/2000/svg">
<path d="M45.4842 27.6251L49.3013 31.6108L53.287 27.7938L49.47 23.8081L45.4842 27.6251Z" fill="white"/>
<path d="M48.1653 10.4918L47.908 10.5888L47.4198 10.8185C47.1078 10.9576 46.8064 11.1192 46.5179 11.3021C44.3691 12.6373 42.3041 14.1026 40.3343 15.69C36.411 18.7623 32.6588 21.9595 28.9183 25.2568L28.8269 25.3435C28.6046 25.558 28.4268 25.8143 28.3038 26.0977C28.1807 26.3811 28.1148 26.686 28.1099 26.9949C28.105 27.3038 28.1611 27.6106 28.275 27.8978C28.3889 28.185 28.5584 28.4468 28.7738 28.6683C32.435 32.3174 36.1211 35.8591 40.013 39.2711C41.968 41.038 44.0549 42.6531 46.2556 44.1025L47.2157 44.6224C47.6316 44.7995 48.0661 44.9293 48.511 45.0094C49.262 45.0905 50.0211 45.0513 50.7597 44.8933C52.2468 44.5811 53.5889 43.786 54.5771 42.6316C54.7388 42.4633 54.827 42.2376 54.8224 42.0042C54.8177 41.7708 54.7205 41.5488 54.5521 41.3871C54.3838 41.2253 54.1581 41.1371 53.9247 41.1418C53.6913 41.1465 53.4693 41.2437 53.3075 41.412L53.2197 41.4908C52.4432 42.1913 51.4664 42.6302 50.4271 42.7458C49.9106 42.8013 49.3886 42.7779 48.8791 42.6762C48.6479 42.6 48.5612 42.5086 48.3708 42.4367L47.6991 41.9714C45.8016 40.3957 44.0229 38.6823 42.3773 36.8451C39.4709 33.7084 36.6879 30.4141 33.9506 27.1025C36.7353 24.0936 39.6159 21.1139 42.5596 18.2671C44.2629 16.5813 46.0656 14.999 47.9579 13.5286C48.1701 13.3566 48.3957 13.2017 48.6324 13.0654C48.801 12.9451 48.9801 12.8405 49.1676 12.7526C49.2224 12.7309 49.2724 12.6988 49.3148 12.6579L49.691 12.6337C49.9486 12.6309 50.206 12.6429 50.4622 12.6696C51.4848 12.7729 52.4623 13.1433 53.2965 13.7436L53.4004 13.8285C53.595 13.9763 53.839 14.0437 54.0819 14.0168C54.3248 13.9899 54.5481 13.8708 54.7057 13.684C54.8633 13.4972 54.9431 13.257 54.9287 13.013C54.9143 12.7691 54.8068 12.54 54.6283 12.373C53.5739 11.3798 52.2638 10.6998 50.8447 10.4094C50.4975 10.3349 50.146 10.2819 49.7922 10.2509C49.6062 10.2426 49.4431 10.2257 49.2457 10.2218C48.9957 10.2565 48.7477 10.3042 48.5027 10.3646L48.1653 10.4918Z" fill="white"/>
<path d="M29.0914 4.14196C28.4672 4.28111 27.8739 4.53351 27.3408 4.88663C26.5432 5.3889 25.7747 5.93587 25.0389 6.52492C23.6087 7.65175 22.263 8.81206 20.9446 10.0274C15.6493 14.7793 10.6375 19.7118 5.651 24.7458C5.20195 25.2027 4.9381 25.8098 4.91036 26.4499C4.88263 27.0899 5.09299 27.7176 5.50083 28.2116L5.52239 28.2688C10.2616 33.6343 15.0335 38.8959 20.1399 43.9532C21.4245 45.2128 22.7277 46.4524 24.1517 47.6661C24.8781 48.3002 25.6477 48.8831 26.455 49.4104C26.9884 49.7781 27.5961 50.0239 28.2351 50.1306C28.7448 50.1763 29.257 50.1862 29.7681 50.1603C33.5679 49.8449 36.9518 48.8765 40.4193 47.87C40.611 47.8137 40.7747 47.6879 40.8783 47.5171C40.9819 47.3464 41.0179 47.143 40.9793 46.9471C40.9593 46.8444 40.9192 46.7466 40.8613 46.6595C40.8034 46.5723 40.7289 46.4975 40.642 46.4392C40.5551 46.3809 40.4576 46.3404 40.3549 46.3199C40.2523 46.2994 40.1467 46.2994 40.0441 46.3199L40.0155 46.3307C36.6068 47.008 33.0421 47.6527 29.7402 47.5909C29.3637 47.5772 28.9887 47.5375 28.6177 47.4719C28.4008 47.3662 28.1976 47.2345 28.0126 47.0795C27.3778 46.5722 26.7765 46.0244 26.2123 45.4395C25.0201 44.2169 23.8727 42.9055 22.7381 41.5762C18.7059 36.7868 14.8693 31.754 11.1284 26.698C15.1347 21.9225 19.2334 17.1839 23.4762 12.6719C24.6729 11.411 25.8861 10.1765 27.1217 9.01855C27.7135 8.45615 28.3361 7.92713 28.9867 7.43393C29.2453 7.21891 29.6798 7.00288 29.5783 7.02809C29.5594 7.02589 29.5412 7.01931 29.5253 7.00887L29.6491 7.00794L29.908 7.00178C30.0761 6.99721 30.2821 7.02406 30.4738 7.03018C33.871 7.5193 37.2242 8.27549 40.5025 9.29171C40.7368 9.36285 40.9897 9.33921 41.2069 9.22587C41.424 9.11254 41.5879 8.91854 41.6635 8.68559C41.7391 8.45264 41.7203 8.19933 41.6111 7.98011C41.5019 7.76089 41.3111 7.59325 41.0796 7.51323C37.7458 6.15815 34.3067 5.07778 30.7969 4.28289C30.55 4.25183 30.3218 4.20071 30.0542 4.18399L29.6507 4.15318L29.449 4.13778C29.3588 4.10646 29.2201 4.11957 29.0914 4.14196Z" fill="white"/>
</svg>
