<svg width="65" height="57" viewBox="0 0 65 57" fill="none" xmlns="http://www.w3.org/2000/svg">
<path d="M19.5157 29.3749L15.6987 25.3892L11.7129 29.2062L15.53 33.1919L19.5157 29.3749Z" fill="white"/>
<path d="M16.8347 46.5082L17.0921 46.4112L17.5803 46.1815C17.8922 46.0424 18.1937 45.8808 18.4822 45.6979C20.6309 44.3627 22.696 42.8974 24.6658 41.31C28.5891 38.2377 32.3412 35.0405 36.0817 31.7432L36.1731 31.6565C36.3955 31.442 36.5733 31.1857 36.6963 30.9023C36.8193 30.6189 36.8852 30.314 36.8901 30.0051C36.8951 29.6962 36.839 29.3894 36.725 29.1022C36.6111 28.815 36.4416 28.5532 36.2263 28.3317C32.565 24.6826 28.8789 21.1409 24.987 17.7289C23.032 15.962 20.9451 14.3469 18.7444 12.8975L17.7844 12.3776C17.3684 12.2005 16.9339 12.0707 16.489 11.9906C15.7381 11.9095 14.9789 11.9487 14.2403 12.1067C12.7532 12.4189 11.4111 13.214 10.423 14.3684C10.2612 14.5367 10.173 14.7624 10.1777 14.9958C10.1824 15.2292 10.2796 15.4512 10.4479 15.613C10.6163 15.7747 10.842 15.8629 11.0754 15.8582C11.3088 15.8535 11.5308 15.7563 11.6925 15.588L11.7804 15.5092C12.5568 14.8087 13.5336 14.3698 14.5729 14.2542C15.0895 14.1987 15.6115 14.2221 16.121 14.3238C16.3521 14.4 16.4388 14.4914 16.6292 14.5633L17.3009 15.0286C19.1984 16.6043 20.9771 18.3177 22.6227 20.1549C25.5292 23.2916 28.3122 26.5859 31.0494 29.8975C28.2647 32.9064 25.3842 35.8861 22.4405 38.7329C20.7372 40.4187 18.9345 42.001 17.0421 43.4714C16.8299 43.6434 16.6044 43.7983 16.3677 43.9346C16.1991 44.0549 16.0199 44.1595 15.8324 44.2474C15.7777 44.2691 15.7277 44.3012 15.6852 44.3421L15.309 44.3663C15.0515 44.3691 14.794 44.3571 14.5379 44.3304C13.5153 44.2271 12.5378 43.8567 11.7035 43.2564L11.5996 43.1715C11.405 43.0237 11.1611 42.9563 10.9181 42.9832C10.6752 43.0101 10.4519 43.1292 10.2943 43.316C10.1368 43.5028 10.0569 43.743 10.0713 43.987C10.0857 44.2309 10.1933 44.46 10.3718 44.627C11.4261 45.6202 12.7363 46.3002 14.1554 46.5906C14.5026 46.6651 14.8541 46.7181 15.2078 46.7491C15.3938 46.7574 15.5569 46.7743 15.7544 46.7782C16.0043 46.7435 16.2523 46.6958 16.4973 46.6354L16.8347 46.5082Z" fill="white"/>
<path d="M35.9087 52.858C36.5328 52.7189 37.1261 52.4665 37.6592 52.1134C38.4568 51.6111 39.2254 51.0641 39.9612 50.4751C41.3913 49.3483 42.737 48.1879 44.0554 46.9726C49.3507 42.2207 54.3625 37.2882 59.349 32.2542C59.7981 31.7973 60.0619 31.1902 60.0897 30.5501C60.1174 29.9101 59.9071 29.2824 59.4992 28.7884L59.4777 28.7312C54.7385 23.3657 49.9665 18.1041 44.8602 13.0468C43.5756 11.7872 42.2724 10.5476 40.8483 9.33395C40.122 8.69976 39.3524 8.1169 38.545 7.58959C38.0116 7.22192 37.4039 6.97607 36.7649 6.8694C36.2552 6.82373 35.743 6.81381 35.232 6.83975C31.4321 7.15508 28.0482 8.12352 24.5807 9.12999C24.3891 9.18626 24.2254 9.31213 24.1217 9.48289C24.0181 9.65365 23.9821 9.85697 24.0207 10.0529C24.0407 10.1556 24.0808 10.2534 24.1387 10.3405C24.1966 10.4277 24.2711 10.5025 24.358 10.5608C24.4449 10.6191 24.5425 10.6596 24.6451 10.6801C24.7477 10.7006 24.8533 10.7006 24.9559 10.6801L24.9845 10.6694C28.3932 9.99202 31.9579 9.34732 35.2598 9.40906C35.6363 9.42276 36.0114 9.46252 36.3823 9.52807C36.5993 9.63376 36.8025 9.76555 36.9874 9.92049C37.6222 10.4278 38.2235 10.9757 38.7877 11.5605C39.98 12.7831 41.1274 14.0945 42.2619 15.4238C46.2941 20.2132 50.1308 25.246 53.8716 30.302C49.8653 35.0775 45.7667 39.8161 41.5239 44.3281C40.3272 45.589 39.1139 46.8235 37.8784 47.9814C37.2866 48.5439 36.664 49.0729 36.0134 49.5661C35.7548 49.7811 35.3202 49.9971 35.4218 49.9719C35.4407 49.9741 35.4588 49.9807 35.4747 49.9911L35.351 49.9921L35.0921 49.9982C34.924 50.0028 34.7179 49.9759 34.5262 49.9698C31.1291 49.4807 27.7758 48.7245 24.4975 47.7083C24.2632 47.6371 24.0103 47.6608 23.7932 47.7741C23.5761 47.8875 23.4121 48.0815 23.3365 48.3144C23.2609 48.5474 23.2797 48.8007 23.3889 49.0199C23.4981 49.2391 23.6889 49.4068 23.9204 49.4868C27.2543 50.8419 30.6933 51.9222 34.2032 52.7171C34.45 52.7482 34.6783 52.7993 34.9458 52.816L35.3493 52.8468L35.551 52.8622C35.6412 52.8935 35.78 52.8804 35.9087 52.858Z" fill="white"/>
</svg>
