<svg width="65" height="57" viewBox="0 0 65 57" fill="none" xmlns="http://www.w3.org/2000/svg">
<path d="M45.4842 27.1878L49.3013 31.1736L53.287 27.3565L49.47 23.3708L45.4842 27.1878Z" fill="url(#paint0_linear_3_442)"/>
<path d="M48.1653 10.0546L47.908 10.1516L47.4198 10.3813C47.1078 10.5204 46.8064 10.682 46.5179 10.8649C44.3691 12.2001 42.3041 13.6654 40.3343 15.2528C36.411 18.3251 32.6588 21.5223 28.9183 24.8196L28.8269 24.9063C28.6046 25.1208 28.4268 25.3771 28.3038 25.6605C28.1807 25.9439 28.1148 26.2488 28.1099 26.5577C28.105 26.8666 28.1611 27.1734 28.275 27.4606C28.3889 27.7478 28.5584 28.0096 28.7738 28.2311C32.435 31.8802 36.1211 35.4219 40.013 38.8339C41.968 40.6008 44.0549 42.2159 46.2556 43.6653L47.2157 44.1852C47.6316 44.3623 48.0661 44.4921 48.511 44.5722C49.262 44.6533 50.0211 44.6141 50.7597 44.4561C52.2468 44.1439 53.5889 43.3488 54.5771 42.1944C54.7388 42.0261 54.827 41.8004 54.8224 41.567C54.8177 41.3336 54.7205 41.1116 54.5521 40.9499C54.3838 40.7881 54.1581 40.6999 53.9247 40.7046C53.6913 40.7093 53.4693 40.8065 53.3075 40.9748L53.2197 41.0536C52.4432 41.7541 51.4664 42.193 50.4271 42.3086C49.9106 42.3642 49.3886 42.3407 48.8791 42.239C48.6479 42.1628 48.5612 42.0714 48.3708 41.9995L47.6991 41.5342C45.8016 39.9585 44.0229 38.2451 42.3773 36.4079C39.4709 33.2712 36.6879 29.9769 33.9506 26.6653C36.7353 23.6564 39.6159 20.6767 42.5596 17.8299C44.2629 16.1441 46.0656 14.5618 47.9579 13.0914C48.1701 12.9194 48.3957 12.7645 48.6324 12.6282C48.801 12.5079 48.9801 12.4033 49.1676 12.3154C49.2224 12.2937 49.2724 12.2616 49.3148 12.2208L49.691 12.1965C49.9486 12.1937 50.206 12.2057 50.4622 12.2324C51.4848 12.3357 52.4623 12.7061 53.2965 13.3064L53.4004 13.3913C53.595 13.5391 53.839 13.6065 54.0819 13.5796C54.3248 13.5527 54.5481 13.4336 54.7057 13.2468C54.8633 13.06 54.9431 12.8198 54.9287 12.5759C54.9143 12.3319 54.8068 12.1028 54.6283 11.9358C53.5739 10.9426 52.2638 10.2626 50.8447 9.97217C50.4975 9.89768 50.146 9.84475 49.7922 9.81369C49.6062 9.80542 49.4431 9.78852 49.2457 9.78456C48.9957 9.8193 48.7477 9.86699 48.5027 9.92743L48.1653 10.0546Z" fill="url(#paint1_linear_3_442)"/>
<path d="M29.0914 3.70458C28.4672 3.84374 27.8739 4.09613 27.3408 4.44925C26.5432 4.95152 25.7747 5.49849 25.0389 6.08754C23.6087 7.21437 22.263 8.37468 20.9446 9.59002C15.6493 14.342 10.6375 19.2744 5.651 24.3084C5.20195 24.7653 4.9381 25.3724 4.91036 26.0125C4.88263 26.6526 5.09299 27.2802 5.50083 27.7743L5.52239 27.8315C10.2616 33.1969 15.0335 38.4586 20.1399 43.5158C21.4245 44.7754 22.7277 46.015 24.1517 47.2287C24.8781 47.8629 25.6477 48.4457 26.455 48.973C26.9884 49.3407 27.5961 49.5866 28.2351 49.6932C28.7448 49.7389 29.257 49.7488 29.7681 49.7229C33.5679 49.4075 36.9518 48.4391 40.4193 47.4326C40.611 47.3764 40.7747 47.2505 40.8783 47.0797C40.9819 46.909 41.0179 46.7057 40.9793 46.5097C40.9593 46.407 40.9192 46.3093 40.8613 46.2221C40.8034 46.1349 40.7289 46.0601 40.642 46.0018C40.5551 45.9435 40.4576 45.903 40.3549 45.8825C40.2523 45.862 40.1467 45.862 40.0441 45.8825L40.0155 45.8933C36.6068 46.5706 33.0421 47.2153 29.7402 47.1536C29.3637 47.1399 28.9887 47.1001 28.6177 47.0346C28.4008 46.9289 28.1976 46.7971 28.0126 46.6421C27.3778 46.1348 26.7765 45.587 26.2123 45.0021C25.0201 43.7795 23.8727 42.4681 22.7381 41.1388C18.7059 36.3495 14.8693 31.3166 11.1284 26.2606C15.1347 21.4851 19.2334 16.7466 23.4762 12.2346C24.6729 10.9736 25.8861 9.73915 27.1217 8.58118C27.7135 8.01877 28.3361 7.48975 28.9867 6.99655C29.2453 6.78153 29.6798 6.56551 29.5783 6.59071C29.5594 6.58851 29.5412 6.58193 29.5253 6.57149L29.6491 6.57056L29.908 6.56441C30.0761 6.55983 30.2821 6.58668 30.4738 6.5928C33.871 7.08193 37.2242 7.83811 40.5025 8.85433C40.7368 8.92548 40.9897 8.90184 41.2069 8.7885C41.424 8.67516 41.5879 8.48116 41.6635 8.24821C41.7391 8.01527 41.7203 7.76196 41.6111 7.54273C41.5019 7.32351 41.3111 7.15587 41.0796 7.07585C37.7458 5.72077 34.3067 4.64041 30.7969 3.84551C30.55 3.81445 30.3218 3.76333 30.0542 3.74661L29.6507 3.7158L29.449 3.70041C29.3588 3.66908 29.2201 3.68219 29.0914 3.70458Z" fill="url(#paint2_linear_3_442)"/>
<defs>
<linearGradient id="paint0_linear_3_442" x1="3.82067" y1="6.65493" x2="130.286" y2="63.8807" gradientUnits="userSpaceOnUse">
<stop offset="0.2" stop-color="#BE9600"/>
<stop offset="0.5" stop-color="#E0C91F"/>
<stop offset="0.78" stop-color="#BE9600"/>
</linearGradient>
<linearGradient id="paint1_linear_3_442" x1="3.87325" y1="6.56041" x2="130.333" y2="63.7884" gradientUnits="userSpaceOnUse">
<stop offset="0.2" stop-color="#BE9600"/>
<stop offset="0.5" stop-color="#E0C91F"/>
<stop offset="0.78" stop-color="#BE9600"/>
</linearGradient>
<linearGradient id="paint2_linear_3_442" x1="0.897847" y1="13.1355" x2="127.358" y2="70.3635" gradientUnits="userSpaceOnUse">
<stop offset="0.2" stop-color="#BE9600"/>
<stop offset="0.5" stop-color="#E0C91F"/>
<stop offset="0.78" stop-color="#BE9600"/>
</linearGradient>
</defs>
</svg>
