<svg width="22" height="24" viewBox="0 0 22 24" fill="none" xmlns="http://www.w3.org/2000/svg">
<path d="M17.2899 23.0507H4.94892C3.78716 23.0507 2.84229 22.1058 2.84229 20.9449L1.09427 12.7379C0.433785 12.4105 0 11.7425 0 10.9966C0 9.90659 0.886607 9.02075 1.97588 9.02075H20.0241C21.1134 9.02075 22 9.90659 22 10.9966C22 11.6344 21.6922 12.2184 21.1774 12.586L19.3821 21.0783C19.3965 22.1058 18.4516 23.0507 17.2899 23.0507ZM1.97588 10.3165C1.60131 10.3165 1.29597 10.6219 1.29597 10.9964C1.29597 11.2918 1.5094 11.5533 1.81571 11.631C2.05452 11.6917 2.23757 11.884 2.28814 12.1253L4.12385 20.8116C4.13827 21.3919 4.50187 21.7547 4.94892 21.7547H17.2899C17.7369 21.7547 18.1007 21.3919 18.1007 20.9449L19.9678 12.0444C20.0084 11.8486 20.1374 11.6833 20.3154 11.5956C20.555 11.4793 20.7044 11.2479 20.7044 10.9966C20.7044 10.6221 20.3991 10.3167 20.0243 10.3167L1.97588 10.3165Z" fill="white"/>
<path d="M6.61279 19.2513C6.61279 19.502 6.40763 19.7071 6.1569 19.7071H6.03134C5.7806 19.7071 5.57544 19.502 5.57544 19.2513V13.9149C5.57544 13.6641 5.7806 13.459 6.03134 13.459H6.1569C6.40763 13.459 6.61279 13.6641 6.61279 13.9149V19.2513Z" fill="white"/>
<path d="M9.95051 19.2513C9.95051 19.502 9.74535 19.7071 9.49461 19.7071H9.36905C9.11832 19.7071 8.91296 19.502 8.91296 19.2513V13.9149C8.91296 13.6641 9.11813 13.459 9.36905 13.459H9.49461C9.74535 13.459 9.95051 13.6641 9.95051 13.9149V19.2513Z" fill="white"/>
<path d="M13.289 19.2513C13.289 19.502 13.0838 19.7071 12.8331 19.7071H12.7074C12.4566 19.7071 12.2515 19.502 12.2515 19.2513V13.9149C12.2515 13.6641 12.4566 13.459 12.7074 13.459H12.8331C13.0838 13.459 13.289 13.6641 13.289 13.9149V19.2513Z" fill="white"/>
<path d="M16.627 19.2513C16.627 19.502 16.4218 19.7071 16.1711 19.7071H16.0453C15.7946 19.7071 15.5892 19.502 15.5892 19.2513V13.9149C15.5892 13.6641 15.7946 13.459 16.0453 13.459H16.1709C16.4216 13.459 16.6268 13.6641 16.6268 13.9149L16.627 19.2513Z" fill="white"/>
<path d="M4.86391 6.70445C5.29654 3.6916 7.88079 1.37385 11.013 1.37385C14.1455 1.37385 16.7299 3.69179 17.1626 6.70445C17.2256 7.73315 18.5508 7.56856 18.5508 6.70445C18.1097 2.93036 14.906 0 11.0132 0C7.12071 0 3.91673 2.93036 3.47583 6.70445C3.47564 7.77449 4.88083 7.81564 4.86391 6.70445Z" fill="white"/>
</svg>
