<svg width="115" height="116" viewBox="0 0 115 116" fill="none" xmlns="http://www.w3.org/2000/svg">
<path d="M60.8403 56.3935L73.6309 44.0642L83.2167 47.4753L78.6241 56.4178L60.8403 56.3935Z" fill="url(#paint0_linear_3_522)"/>
<path d="M89.7997 44.7927L86.4434 43.3486L84.9993 46.705L88.3556 48.1491L89.7997 44.7927Z" fill="url(#paint1_linear_3_522)"/>
<path d="M92.6043 55.9238L92.7257 55.7903L92.9685 55.5273C93.1216 55.3601 93.2635 55.183 93.3934 54.9972C94.3563 53.6262 95.2373 52.1994 96.0316 50.7243C97.6259 47.8352 99.0866 44.9177 100.515 41.9436L100.551 41.8668C100.707 41.4868 100.706 41.0607 100.548 40.6816C100.39 40.3025 100.089 40.0012 99.7097 39.8436C96.5374 38.5649 93.3731 37.3591 90.1158 36.2828C88.4666 35.7077 86.7756 35.2599 85.0579 34.9434L84.3376 34.8706C84.0381 34.8724 83.7397 34.9063 83.4474 34.9718C82.9696 35.1176 82.5177 35.3374 82.1081 35.6232C81.2803 36.1953 80.6667 37.0267 80.3641 37.9863C80.3248 38.127 80.3399 38.2773 80.4062 38.4075C80.4726 38.5376 80.5854 38.6381 80.7223 38.689C80.8592 38.7399 81.0103 38.7375 81.1455 38.6823C81.2808 38.6271 81.3903 38.5231 81.4525 38.3909L81.4849 38.3181C81.7812 37.687 82.268 37.1647 82.8769 36.825C83.18 36.6572 83.5077 36.5384 83.848 36.473C84.0058 36.473 84.0827 36.4932 84.2162 36.473L84.7463 36.5863C86.3099 37.0561 87.8368 37.6404 89.3146 38.3343C91.8962 39.4956 94.4495 40.7621 96.9703 42.0974C96.0356 44.6547 95.0645 47.212 94.0044 49.7086C93.4027 51.1723 92.715 52.5991 91.9448 53.9816C91.8599 54.1414 91.7625 54.2943 91.6534 54.4388C91.5685 54.544 91.4268 54.7828 91.3945 54.7787C91.3679 54.8051 91.3472 54.8369 91.3338 54.8718L91.1072 54.9851C90.9494 55.0498 90.7916 55.1146 90.6297 55.1631C89.9738 55.3662 89.2759 55.3927 88.6065 55.24L88.5215 55.2157C88.3606 55.1664 88.1866 55.183 88.0378 55.2619C87.8891 55.3408 87.7778 55.4756 87.7284 55.6365C87.6791 55.7975 87.6957 55.9715 87.7746 56.1202C87.8535 56.269 87.9883 56.3803 88.1493 56.4296C89.0541 56.7668 90.0353 56.8439 90.9817 56.6522C91.2145 56.6071 91.4442 56.5477 91.6696 56.4741C91.7829 56.4337 91.8881 56.4013 92.0055 56.3528C92.1228 56.3042 92.2887 56.1747 92.4101 56.0736L92.6043 55.9238Z" fill="url(#paint2_linear_3_522)"/>
<path d="M105.872 54.8678C106.218 54.6234 106.515 54.3159 106.746 53.9615C107.104 53.4515 107.431 52.9205 107.726 52.3712C108.308 51.3151 108.83 50.259 109.344 49.1908C111.343 44.93 113.123 40.6246 114.863 36.2667C115.019 35.8714 115.022 35.4324 114.873 35.0347C114.723 34.637 114.432 34.309 114.054 34.114H114.018C109.741 32.0706 105.472 30.096 101.069 28.3318C99.9607 27.8948 98.8439 27.474 97.6825 27.1179C97.0776 26.9214 96.4597 26.7673 95.8334 26.6566C95.4136 26.5684 94.9795 26.5753 94.5628 26.6768C94.2413 26.7814 93.9276 26.9085 93.624 27.0572C91.3864 28.2266 89.5777 29.6954 87.7204 31.2047C87.6193 31.2886 87.5529 31.4072 87.5342 31.5373C87.5155 31.6674 87.5458 31.7998 87.6192 31.9088C87.6579 31.9663 87.7076 32.0156 87.7654 32.0539C87.8231 32.0922 87.8879 32.1187 87.956 32.1319C88.024 32.145 88.094 32.1446 88.1619 32.1306C88.2298 32.1166 88.2943 32.0894 88.3516 32.0504C90.2534 30.7596 92.2645 29.4445 94.2836 28.6191C94.5157 28.5312 94.7537 28.4595 94.9958 28.4046C95.1551 28.4105 95.313 28.4377 95.4651 28.4855C95.9832 28.6307 96.4914 28.8091 96.9866 29.0197C98.0265 29.4567 99.0704 29.9625 100.106 30.4804C103.797 32.3579 107.438 34.4337 111.032 36.55C109.818 40.4952 108.547 44.4444 107.123 48.2844C106.718 49.3607 106.313 50.429 105.844 51.4527C105.63 51.949 105.389 52.4326 105.12 52.9013C105.015 53.0996 104.808 53.3424 104.861 53.306C104.874 53.3019 104.888 53.3019 104.901 53.306L104.824 53.3383L104.671 53.4071C104.569 53.4516 104.432 53.488 104.315 53.5326C102.119 54.1143 99.8814 54.5202 97.6219 54.7465H97.5976C97.4438 54.7657 97.303 54.8422 97.2032 54.9607C97.1035 55.0792 97.0521 55.231 97.0594 55.3858C97.0668 55.5504 97.139 55.7054 97.2603 55.8168C97.3817 55.9283 97.5422 55.9872 97.7068 55.9806C100.084 55.9284 102.454 55.6835 104.792 55.2482C104.954 55.2077 105.104 55.1794 105.274 55.1228L105.524 55.0337L105.654 54.9892C105.73 54.954 105.803 54.9134 105.872 54.8678Z" fill="url(#paint3_linear_3_522)"/>
<path d="M58.5016 53.9495L58.5461 36.1859L67.6666 31.6702L70.8916 41.1913L58.5016 53.9495Z" fill="url(#paint4_linear_3_522)"/>
<path d="M70.3224 25.0766L66.9501 26.4832L68.3566 29.8555L71.7289 28.4489L70.3224 25.0766Z" fill="url(#paint5_linear_3_522)"/>
<path d="M80.2632 30.8286V30.6465L80.2389 30.2905C80.2248 30.065 80.1964 29.8406 80.1539 29.6188C79.841 27.9768 79.4289 26.3553 78.9198 24.7631C77.9567 21.607 76.8764 18.5277 75.7353 15.4322L75.7029 15.3553C75.6219 15.168 75.5048 14.9985 75.3583 14.8564C75.2117 14.7143 75.0386 14.6025 74.8489 14.5274C74.6591 14.4522 74.4564 14.4152 74.2523 14.4184C74.0482 14.4216 73.8468 14.465 73.6595 14.5461C70.5317 15.934 67.4605 17.3785 64.4257 18.9566C62.8545 19.7417 61.3461 20.6467 59.914 21.6636L59.3637 22.133C59.1547 22.348 58.9702 22.5855 58.8134 22.8411C58.5864 23.2861 58.4307 23.764 58.3521 24.2573C58.1884 25.2502 58.3592 26.2693 58.8377 27.1545C58.9065 27.2803 59.0191 27.3765 59.154 27.4249C59.2889 27.4734 59.4369 27.4708 59.5701 27.4175C59.6413 27.3895 59.7062 27.3476 59.7611 27.2942C59.816 27.2409 59.8598 27.1772 59.8899 27.1068C59.92 27.0364 59.9359 26.9608 59.9365 26.8842C59.9372 26.8077 59.9227 26.7318 59.8938 26.6609L59.8614 26.584C59.6146 25.9374 59.5778 25.2295 59.7562 24.5608C59.8491 24.2268 59.9923 23.9089 60.1811 23.618C60.2822 23.4966 60.3591 23.4642 60.4481 23.3631L60.9013 23.0596C62.3322 22.2632 63.8199 21.5734 65.3523 20.996C67.9825 19.952 70.6854 19.0092 73.3803 18.115C74.5699 20.5671 75.7312 23.0434 76.7833 25.54C77.4105 26.9903 77.9509 28.4766 78.4018 29.991C78.4581 30.164 78.5001 30.3413 78.5273 30.5211C78.5635 30.6532 78.5852 30.7889 78.592 30.9257C78.5931 30.9647 78.6014 31.0031 78.6163 31.039L78.5394 31.2778C78.4799 31.4382 78.411 31.5949 78.333 31.7472C78.0267 32.3536 77.5644 32.8675 76.9937 33.2362L76.9209 33.2848C76.7749 33.3647 76.6667 33.4994 76.62 33.6591C76.5734 33.8189 76.5921 33.9906 76.672 34.1365C76.752 34.2825 76.8866 34.3907 77.0464 34.4374C77.2061 34.484 77.3778 34.4653 77.5238 34.3854C78.3896 33.9735 79.1228 33.3273 79.64 32.52C79.7694 32.3229 79.8857 32.1174 79.988 31.905C80.0406 31.7957 80.0892 31.6986 80.1377 31.5772C80.1763 31.4144 80.206 31.2496 80.2268 31.0836L80.2632 30.8286Z" fill="url(#paint6_linear_3_522)"/>
<path d="M88.7362 20.5427C88.8003 20.123 88.7866 19.6951 88.6957 19.2803C88.576 18.6692 88.422 18.0653 88.2344 17.4716C87.8783 16.3183 87.4818 15.2096 87.0691 14.105C85.3979 9.70254 83.5447 5.42958 81.6227 1.15662C81.4481 0.770124 81.136 0.462408 80.7471 0.293371C80.3581 0.124333 79.9202 0.106068 79.5186 0.242136H79.4781C75.0271 1.88901 70.6449 3.58444 66.3031 5.53074C65.2187 6.02035 64.1383 6.53019 63.066 7.10882C62.5043 7.40761 61.9635 7.74423 61.4475 8.11636C61.0925 8.35871 60.7954 8.67651 60.5775 9.04703C60.4283 9.3504 60.3012 9.66413 60.1972 9.98578C59.481 12.4136 59.2746 14.7281 59.0723 17.1074C59.054 17.2458 59.0915 17.3858 59.1765 17.4966C59.2615 17.6074 59.387 17.6799 59.5255 17.6982C59.6639 17.7164 59.8039 17.6789 59.9147 17.5939C60.0255 17.5089 60.098 17.3834 60.1162 17.245V17.2126C60.5209 14.9507 60.966 12.5916 61.7793 10.5644C61.8753 10.3361 61.9889 10.1155 62.1192 9.90486C62.2392 9.79083 62.3756 9.69536 62.5238 9.62161C62.9865 9.35527 63.4663 9.12006 63.9603 8.91754C64.9961 8.47244 66.0846 8.07185 67.1771 7.70363C71.094 6.35619 75.1161 5.1868 79.1341 4.08214C81.125 7.69554 83.0753 11.3656 84.8476 15.0599C85.3413 16.0958 85.8187 17.1398 86.2355 18.1837C86.4426 18.6816 86.621 19.1909 86.7696 19.7092C86.8384 19.9237 86.8708 20.2433 86.8789 20.1745C86.887 20.1057 86.8789 20.1462 86.9032 20.1462L86.8748 20.2231L86.8182 20.3809C86.7818 20.4861 86.713 20.6115 86.6644 20.7248C85.5536 22.7102 84.2871 24.6044 82.877 26.3897C82.7735 26.5174 82.7249 26.6811 82.742 26.8446C82.759 27.0081 82.8404 27.1582 82.9681 27.2617C83.0958 27.3653 83.2594 27.4139 83.4229 27.3968C83.5865 27.3797 83.7365 27.2984 83.8401 27.1707C85.4747 25.4349 86.9634 23.5672 88.2911 21.5867C88.372 21.441 88.457 21.3156 88.5339 21.1538L88.6472 20.911L88.7038 20.7896C88.7194 20.708 88.7302 20.6256 88.7362 20.5427Z" fill="url(#paint7_linear_3_522)"/>
<path d="M56.3004 53.9613L43.87 41.2719L47.2002 31.6577L56.179 36.1775L56.3004 53.9613Z" fill="url(#paint8_linear_3_522)"/>
<path d="M44.4641 25.0821L43.0476 28.4502L46.4157 29.8667L47.8322 26.4986L44.4641 25.0821Z" fill="url(#paint9_linear_3_522)"/>
<path d="M55.5721 22.1816L55.4386 22.0602L55.1715 21.8255C55.0035 21.6779 54.825 21.5427 54.6374 21.4209C53.2607 20.4657 51.827 19.5955 50.3442 18.815C47.443 17.245 44.5134 15.8045 41.5312 14.4045L41.4503 14.3681C41.0682 14.2146 40.6408 14.2187 40.2617 14.3795C39.8826 14.5402 39.5825 14.8445 39.4271 15.2259C38.1728 18.4104 36.9993 21.5827 35.9432 24.8481C35.3827 26.5029 34.9485 28.1978 34.6443 29.9182L34.5796 30.6385C34.5846 30.938 34.6199 31.2362 34.6848 31.5287C34.8381 32.0052 35.0632 32.4555 35.3524 32.864C35.9303 33.6878 36.7682 34.2934 37.7317 34.5837C37.8683 34.6264 38.0159 34.6169 38.1459 34.5571C38.276 34.4973 38.3792 34.3915 38.4358 34.26C38.4667 34.1899 38.4835 34.1143 38.4852 34.0377C38.4868 33.9611 38.4734 33.8849 38.4456 33.8135C38.4178 33.742 38.3761 33.6768 38.3231 33.6215C38.27 33.5662 38.2065 33.5219 38.1363 33.4912L38.0635 33.4628C37.4287 33.1733 36.9018 32.6903 36.5583 32.083C36.3896 31.7809 36.2682 31.4548 36.1981 31.116C36.1981 30.9581 36.2184 30.8813 36.1981 30.7477L36.3074 30.2136C36.7632 28.6464 37.3354 27.1153 38.019 25.6331C39.1601 23.0394 40.4225 20.4781 41.7174 17.945C44.2828 18.8555 46.8482 19.8064 49.3529 20.8463C50.8211 21.4358 52.2533 22.1114 53.642 22.8695C53.803 22.9531 53.9573 23.0491 54.1033 23.1568C54.2085 23.2417 54.4472 23.3793 54.4432 23.4117C54.4719 23.4383 54.5047 23.4601 54.5403 23.4764L54.6536 23.699C54.7238 23.8544 54.7846 24.0138 54.8357 24.1764C55.0428 24.8242 55.0749 25.5152 54.9288 26.1794V26.2644C54.8805 26.4253 54.8981 26.5989 54.9778 26.7469C55.0575 26.8949 55.1926 27.0051 55.3536 27.0534C55.5146 27.1017 55.6882 27.0841 55.8361 27.0044C55.9841 26.9247 56.0944 26.7895 56.1427 26.6285C56.4705 25.7281 56.5392 24.7538 56.3409 23.8163C56.295 23.5847 56.2342 23.3563 56.1589 23.1325C56.1184 23.0192 56.086 22.914 56.0334 22.7926C55.9808 22.6712 55.8554 22.5134 55.7542 22.3879L55.5721 22.1816Z" fill="url(#paint10_linear_3_522)"/>
<path d="M54.4109 8.94976C54.1608 8.60716 53.8511 8.31245 53.4964 8.07979C52.9756 7.7272 52.4352 7.40433 51.8779 7.1127C50.8218 6.54217 49.7576 6.02828 48.6893 5.53058C44.4083 3.56809 40.0908 1.82411 35.7167 0.116542C35.3223 -0.0367315 34.8853 -0.0388887 34.4894 0.110485C34.0936 0.259859 33.7669 0.55023 33.5721 0.925815V0.962231C31.5489 5.25138 29.6229 9.53648 27.9072 13.9713C27.4783 15.084 27.0696 16.2049 26.6933 17.3662C26.5034 17.9735 26.3534 18.5926 26.2442 19.2194C26.1646 19.642 26.1771 20.0767 26.2806 20.494C26.393 20.8148 26.5282 21.1272 26.6852 21.4287C27.8748 23.6542 29.3558 25.4549 30.8813 27.296C30.9659 27.3976 31.0855 27.4639 31.2165 27.4818C31.3475 27.4998 31.4805 27.4681 31.5894 27.3931C31.6463 27.3538 31.6949 27.3037 31.7324 27.2456C31.7699 27.1875 31.7956 27.1226 31.808 27.0546C31.8204 26.9865 31.8193 26.9168 31.8047 26.8492C31.7901 26.7816 31.7623 26.7175 31.7229 26.6607V26.6405C30.416 24.7508 29.0847 22.7519 28.2431 20.7409C28.1527 20.5088 28.0783 20.2709 28.0205 20.0287C28.0263 19.8696 28.0521 19.7119 28.0974 19.5593C28.2414 19.0406 28.4171 18.5311 28.6234 18.0338C29.0523 16.9899 29.546 15.9419 30.0558 14.906C31.905 11.1955 33.9484 7.53757 36.0364 3.93226C39.9897 5.1138 43.947 6.36008 47.8113 7.74799C48.8876 8.15262 49.9599 8.55726 50.9877 8.99831C51.4863 9.20941 51.9727 9.44853 52.4444 9.71452C52.6426 9.81568 52.8854 10.022 52.849 9.96539C52.845 9.95358 52.845 9.94079 52.849 9.92898L52.8814 10.0059L52.9502 10.1596C52.9995 10.2746 53.0427 10.3921 53.0796 10.5117C53.6709 12.7083 54.0837 14.9492 54.3138 17.2124V17.2367C54.3529 17.3772 54.4403 17.4994 54.5607 17.5817C54.6811 17.6641 54.8267 17.7012 54.9718 17.6867C55.1169 17.6722 55.2523 17.6069 55.354 17.5024C55.4557 17.3979 55.5172 17.2608 55.5277 17.1153C55.4023 14.7522 55.3092 12.462 54.7832 10.022C54.7387 9.86019 54.7063 9.71047 54.6496 9.54052L54.5606 9.28965L54.5161 9.16421C54.4999 9.1197 54.4554 9.01855 54.4109 8.94976Z" fill="url(#paint11_linear_3_522)"/>
<path d="M53.9819 56.2157L36.2143 56.3168L31.6298 47.2327L41.1225 43.9309L53.9819 56.2157Z" fill="url(#paint12_linear_3_522)"/>
<path d="M25.001 44.6328L26.4352 47.9934L29.7958 46.5593L28.3617 43.1986L25.001 44.6328Z" fill="url(#paint13_linear_3_522)"/>
<path d="M30.6628 34.6438H30.4807L30.1246 34.6721C29.8988 34.6854 29.6743 34.7152 29.4529 34.7611C27.8099 35.0866 26.1883 35.5122 24.5973 36.0357C21.4492 37.0231 18.378 38.1277 15.2906 39.2971L15.2137 39.3295C15.0259 39.4105 14.8559 39.5278 14.7135 39.6746C14.5711 39.8214 14.4591 39.9949 14.3839 40.1852C14.3087 40.3754 14.2719 40.5786 14.2754 40.7831C14.2789 40.9876 14.3228 41.1894 14.4045 41.3769C15.8207 44.4926 17.2774 47.5477 18.8919 50.5703C19.6905 52.1215 20.6063 53.6094 21.6313 55.0213L22.1047 55.5676C22.321 55.7744 22.5599 55.9563 22.8169 56.1098C23.2632 56.3354 23.7426 56.4884 24.2371 56.563C25.2314 56.7168 26.2485 56.5375 27.1303 56.0531C27.2698 55.9866 27.3772 55.8673 27.4288 55.7216C27.4804 55.576 27.472 55.4157 27.4054 55.2762C27.3389 55.1367 27.2197 55.0293 27.074 54.9777C26.9283 54.9261 26.7681 54.9345 26.6285 55.0011L26.5557 55.0294C25.9111 55.282 25.2034 55.3259 24.5325 55.1548C24.1995 55.0686 23.8816 54.9322 23.5897 54.7502C23.4643 54.649 23.4319 54.5721 23.3308 54.4831L23.0232 54.038C22.2156 52.6187 21.5137 51.1419 20.9232 49.6194C19.8549 46.9973 18.9 44.3065 17.9774 41.6157C20.4052 40.4018 22.8857 39.2283 25.3742 38.152C26.8231 37.5053 28.3094 36.9459 29.8252 36.4768C29.9968 36.4198 30.1727 36.3765 30.3512 36.3473C30.4837 36.3122 30.6192 36.2892 30.7558 36.2785C30.7948 36.2779 30.8333 36.2696 30.8691 36.2543L31.1079 36.3271C31.2681 36.3855 31.4248 36.453 31.5772 36.5294C32.1867 36.8322 32.7058 37.2899 33.0825 37.8566L33.127 37.9335C33.2131 38.0705 33.3485 38.1692 33.5053 38.2093C33.662 38.2493 33.8282 38.2277 33.9694 38.1487C34.1107 38.0698 34.2162 37.9396 34.2643 37.7851C34.3123 37.6306 34.2992 37.4636 34.2276 37.3184C33.8063 36.4569 33.1534 35.7297 32.342 35.2184C32.1443 35.0912 31.9389 34.9763 31.727 34.8744C31.6137 34.8259 31.5166 34.7773 31.3952 34.7288C31.2322 34.6919 31.0674 34.6636 30.9015 34.6438H30.6628Z" fill="url(#paint14_linear_3_522)"/>
<path d="M20.3282 26.2561C19.9091 26.1966 19.4826 26.2144 19.0698 26.3087C18.4584 26.4336 17.8545 26.593 17.2611 26.7862C16.1119 27.1503 15.0073 27.555 13.9067 28.0001C9.51636 29.7076 5.25958 31.5932 0.994714 33.5476C0.609808 33.7259 0.304578 34.0404 0.137939 34.4305C-0.0287001 34.8205 -0.0449319 35.2585 0.0923761 35.6598V35.7003C1.77566 40.1311 3.50346 44.5052 5.48618 48.8307C5.98793 49.9111 6.50586 50.9834 7.10472 52.0678C7.40665 52.6304 7.74737 53.1712 8.12441 53.6864C8.36903 54.0387 8.68814 54.333 9.05912 54.5483C9.36421 54.6956 9.67925 54.8213 10.0019 54.9246C12.4297 55.6165 14.7524 55.8067 17.1357 55.9928C17.2675 56.0027 17.3983 55.9629 17.5024 55.8813C17.6065 55.7997 17.6763 55.6822 17.6981 55.5518C17.7097 55.4835 17.7077 55.4135 17.6922 55.346C17.6766 55.2785 17.6479 55.2147 17.6077 55.1583C17.5675 55.1019 17.5165 55.054 17.4577 55.0174C17.3989 54.9808 17.3335 54.9561 17.2651 54.9448H17.2449C14.9749 54.5685 12.6159 54.1355 10.5846 53.3263C10.3546 53.2299 10.1315 53.1177 9.91695 52.9904C9.80724 52.8743 9.71212 52.7452 9.6337 52.606C9.3589 52.1435 9.11426 51.6636 8.90131 51.1696C8.44811 50.1337 8.04348 49.0533 7.65098 47.9648C6.27117 44.056 5.0694 40.042 3.93238 36.0361C7.52959 34.013 11.1754 32.0343 14.8576 30.2296C15.8934 29.7279 16.9333 29.2463 17.9692 28.8174C18.4672 28.6072 18.9765 28.4248 19.4947 28.2712C19.7051 28.1983 20.0248 28.166 19.956 28.1579C19.9448 28.1521 19.9351 28.1438 19.9277 28.1336L20.0045 28.1619L20.1664 28.2186C20.2716 28.255 20.393 28.3197 20.5103 28.3683C22.5008 29.4646 24.4017 30.7161 26.1955 32.1112C26.324 32.21 26.4863 32.2544 26.6472 32.2349C26.8082 32.2153 26.9551 32.1334 27.0563 32.0068C27.1575 31.8801 27.205 31.7188 27.1886 31.5574C27.1721 31.3961 27.093 31.2477 26.9683 31.1441C25.2193 29.5261 23.3409 28.0537 21.352 26.7416C21.2063 26.6648 21.0768 26.5798 20.915 26.507L20.6722 26.3937L20.5508 26.337C20.5022 26.2965 20.4132 26.2723 20.3282 26.2561Z" fill="url(#paint15_linear_3_522)"/>
<path d="M54.1421 59.6065L41.3515 71.9358L31.7657 68.5247L36.3583 59.5822L54.1421 59.6065Z" fill="url(#paint16_linear_3_522)"/>
<path d="M25.1827 71.2073L28.5391 72.6514L29.9832 69.295L26.6268 67.8509L25.1827 71.2073Z" fill="url(#paint17_linear_3_522)"/>
<path d="M22.3781 60.0762L22.2567 60.2097L22.0139 60.4727C21.8609 60.6399 21.7189 60.817 21.5891 61.0028C20.6261 62.3738 19.7451 63.8006 18.9508 65.2757C17.3566 68.1648 15.8958 71.0823 14.4675 74.0563L14.431 74.1332C14.2756 74.5132 14.2768 74.9393 14.4345 75.3184C14.5922 75.6975 14.8935 75.9988 15.2727 76.1564C18.445 77.4351 21.6093 78.6409 24.8666 79.7172C26.5159 80.2923 28.2068 80.7401 29.9246 81.0566L30.6448 81.1294C30.9443 81.1276 31.2428 81.0937 31.535 81.0282C32.0128 80.8824 32.4647 80.6626 32.8744 80.3768C33.7021 79.8047 34.3157 78.9733 34.6184 78.0137C34.6576 77.873 34.6426 77.7227 34.5762 77.5925C34.5099 77.4624 34.3971 77.3619 34.2601 77.311C34.1232 77.2601 33.9722 77.2625 33.8369 77.3177C33.7017 77.3729 33.5921 77.4769 33.5299 77.6091L33.4975 77.6819C33.2013 78.313 32.7144 78.8353 32.1056 79.175C31.8024 79.3428 31.4747 79.4616 31.1344 79.527C30.9766 79.527 30.8997 79.5068 30.7662 79.527L30.2361 79.4137C28.6726 78.9439 27.1456 78.3596 25.6678 77.6657C23.0862 76.5044 20.533 75.2379 18.0121 73.9026C18.9468 71.3453 19.9179 68.788 20.9781 66.2914C21.5797 64.8277 22.2675 63.4009 23.0377 62.0184C23.1225 61.8586 23.22 61.7057 23.329 61.5612C23.414 61.456 23.5556 61.2172 23.588 61.2213C23.6145 61.1949 23.6352 61.1631 23.6487 61.1282L23.8753 61.0149C24.0331 60.9502 24.1909 60.8854 24.3527 60.8369C25.0086 60.6338 25.7065 60.6073 26.3759 60.76L26.4609 60.7843C26.6219 60.8336 26.7959 60.817 26.9446 60.7381C27.0933 60.6592 27.2046 60.5244 27.254 60.3635C27.3033 60.2025 27.2867 60.0285 27.2078 59.8798C27.1289 59.731 26.9941 59.6197 26.8332 59.5704C25.9283 59.2332 24.9471 59.1561 24.0007 59.3478C23.7679 59.3929 23.5382 59.4523 23.3128 59.5259C23.1995 59.5663 23.0943 59.5987 22.977 59.6472C22.8596 59.6958 22.6937 59.8253 22.5723 59.9264L22.3781 60.0762Z" fill="url(#paint18_linear_3_522)"/>
<path d="M9.11016 61.1322C8.76441 61.3766 8.46788 61.6841 8.23614 62.0385C7.87808 62.5485 7.55108 63.0795 7.25692 63.6288C6.67424 64.6849 6.15226 65.741 5.63837 66.8092C3.63947 71.07 1.85907 75.3754 0.119134 79.7333C-0.0364429 80.1286 -0.0398132 80.5676 0.109687 80.9653C0.259186 81.363 0.550923 81.691 0.928406 81.886L0.964822 81.886C5.24183 83.9294 9.51074 85.904 13.9132 87.6682C15.0219 88.1052 16.1387 88.526 17.3 88.8821C17.905 89.0786 18.5228 89.2327 19.1492 89.3434C19.5689 89.4316 20.003 89.4247 20.4197 89.3232C20.7412 89.2186 21.0549 89.0915 21.3585 88.9428C23.5961 87.7734 25.4049 86.3046 27.2621 84.7953C27.3633 84.7114 27.4297 84.5928 27.4483 84.4627C27.467 84.3326 27.4367 84.2002 27.3633 84.0912C27.3246 84.0337 27.275 83.9844 27.2172 83.9461C27.1594 83.9078 27.0946 83.8813 27.0266 83.8681C26.9585 83.855 26.8885 83.8554 26.8206 83.8694C26.7527 83.8834 26.6882 83.9106 26.6309 83.9496C24.7291 85.2404 22.7181 86.5555 20.6989 87.3809C20.4668 87.4688 20.2288 87.5405 19.9868 87.5954C19.8274 87.5895 19.6695 87.5623 19.5174 87.5145C18.9993 87.3693 18.4911 87.1909 17.996 86.9803C16.9561 86.5433 15.9121 86.0375 14.8762 85.5196C11.1859 83.6421 7.54421 81.5663 3.95104 79.45C5.16495 75.5048 6.4355 71.5556 7.85982 67.7156C8.26446 66.6393 8.66909 65.571 9.13847 64.5473C9.35217 64.051 9.594 63.5674 9.86278 63.0987C9.96798 62.9004 10.1744 62.6576 10.1217 62.694C10.1086 62.6981 10.0945 62.6981 10.0813 62.694L10.1582 62.6617L10.3119 62.5929C10.4131 62.5484 10.5507 62.512 10.668 62.4674C12.8631 61.8857 15.1011 61.4798 17.3607 61.2535L17.385 61.2535C17.5387 61.2343 17.6795 61.1578 17.7793 61.0393C17.8791 60.9208 17.9305 60.769 17.9231 60.6142C17.9158 60.4496 17.8435 60.2946 17.7222 60.1832C17.6009 60.0717 17.4403 60.0128 17.2757 60.0194C14.8981 60.0716 12.5286 60.3165 10.1905 60.7518C10.0287 60.7923 9.87896 60.8206 9.70901 60.8772L9.45814 60.9662L9.32865 61.0108C9.25303 61.046 9.18002 61.0866 9.11016 61.1322Z" fill="url(#paint19_linear_3_522)"/>
<path d="M56.481 62.0505L56.4364 79.8141L47.3159 84.3298L44.091 74.8087L56.481 62.0505Z" fill="url(#paint20_linear_3_522)"/>
<path d="M44.6602 90.9234L48.0325 89.5168L46.626 86.1445L43.2536 87.5511L44.6602 90.9234Z" fill="url(#paint21_linear_3_522)"/>
<path d="M34.7194 85.1714L34.7194 85.3535L34.7437 85.7095C34.7577 85.935 34.7861 86.1594 34.8286 86.3812C35.1415 88.0232 35.5536 89.6447 36.0628 91.2369C37.0258 94.393 38.1062 97.4723 39.2473 100.568L39.2796 100.645C39.3606 100.832 39.4778 101.002 39.6243 101.144C39.7708 101.286 39.9439 101.397 40.1337 101.473C40.3234 101.548 40.5262 101.585 40.7302 101.582C40.9343 101.578 41.1357 101.535 41.323 101.454C44.4509 100.066 47.5221 98.6215 50.5568 97.0434C52.1281 96.2583 53.6364 95.3533 55.0685 94.3364L55.6189 93.867C55.8278 93.652 56.0124 93.4145 56.1692 93.1589C56.3962 92.7139 56.5518 92.236 56.6304 91.7427C56.7941 90.7498 56.6233 89.7307 56.1449 88.8455C56.076 88.7197 55.9635 88.6235 55.8286 88.5751C55.6936 88.5266 55.5456 88.5292 55.4125 88.5825C55.3413 88.6105 55.2763 88.6524 55.2214 88.7058C55.1665 88.7591 55.1228 88.8228 55.0926 88.8932C55.0625 88.9636 55.0467 89.0392 55.046 89.1158C55.0454 89.1923 55.0599 89.2682 55.0888 89.3391L55.1211 89.416C55.3679 90.0626 55.4047 90.7705 55.2264 91.4392C55.1335 91.7732 54.9902 92.0911 54.8015 92.382C54.7003 92.5034 54.6234 92.5358 54.5344 92.6369L54.0812 92.9404C52.6503 93.7368 51.1626 94.4266 49.6302 95.004C47.0001 96.048 44.2971 96.9908 41.6022 97.885C40.4126 95.4329 39.2513 92.9566 38.1993 90.46C37.5721 89.0097 37.0316 87.5234 36.5807 86.009C36.5244 85.836 36.4825 85.6587 36.4553 85.4789C36.4191 85.3468 36.3973 85.2111 36.3905 85.0743C36.3894 85.0353 36.3812 84.9969 36.3662 84.961L36.4431 84.7222C36.5026 84.5618 36.5715 84.4051 36.6495 84.2528C36.9559 83.6464 37.4182 83.1325 37.9888 82.7638L38.0617 82.7152C38.2076 82.6353 38.3158 82.5006 38.3625 82.3409C38.4092 82.1811 38.3905 82.0094 38.3105 81.8635C38.2306 81.7175 38.0959 81.6093 37.9362 81.5626C37.7765 81.516 37.6047 81.5347 37.4588 81.6146C36.5929 82.0265 35.8598 82.6727 35.3425 83.48C35.2131 83.6771 35.0969 83.8826 34.9945 84.095C34.9419 84.2043 34.8934 84.3014 34.8448 84.4228C34.8063 84.5856 34.7765 84.7504 34.7558 84.9164L34.7194 85.1714Z" fill="url(#paint22_linear_3_522)"/>
<path d="M26.2464 95.4572C26.1823 95.877 26.196 96.3049 26.2868 96.7197C26.4065 97.3308 26.5605 97.9347 26.7481 98.5284C27.1042 99.6817 27.5008 100.79 27.9135 101.895C29.5846 106.297 31.4379 110.57 33.3599 114.843C33.5344 115.23 33.8466 115.538 34.2355 115.707C34.6244 115.876 35.0623 115.894 35.464 115.758L35.5045 115.758C39.9555 114.111 44.3377 112.416 48.6794 110.469C49.7638 109.98 50.8442 109.47 51.9165 108.891C52.4782 108.592 53.019 108.256 53.5351 107.884C53.8901 107.641 54.1871 107.323 54.405 106.953C54.5542 106.65 54.6813 106.336 54.7854 106.014C55.5016 103.586 55.708 101.272 55.9103 98.8926C55.9285 98.7542 55.891 98.6142 55.806 98.5034C55.721 98.3926 55.5955 98.3201 55.4571 98.3018C55.3187 98.2836 55.1786 98.3211 55.0678 98.4061C54.9571 98.4911 54.8846 98.6166 54.8663 98.755L54.8663 98.7874C54.4617 101.049 54.0166 103.408 53.2033 105.436C53.1073 105.664 52.9936 105.884 52.8634 106.095C52.7433 106.209 52.607 106.305 52.4587 106.378C51.9961 106.645 51.5162 106.88 51.0223 107.082C49.9864 107.528 48.8979 107.928 47.8054 108.296C43.8885 109.644 39.8664 110.813 35.8484 111.918C33.8576 108.304 31.9072 104.634 30.1349 100.94C29.6413 99.9042 29.1638 98.8602 28.747 97.8163C28.5399 97.3184 28.3616 96.8091 28.2129 96.2908C28.1441 96.0763 28.1117 95.7567 28.1037 95.8255C28.0956 95.8943 28.1037 95.8538 28.0794 95.8538L28.1077 95.7769L28.1644 95.6191C28.2008 95.5139 28.2696 95.3885 28.3181 95.2752C29.429 93.2898 30.6954 91.3956 32.1055 89.6103C32.2091 89.4825 32.2577 89.3189 32.2406 89.1554C32.2235 88.9919 32.1422 88.8418 32.0145 88.7383C31.8868 88.6347 31.7232 88.5861 31.5596 88.6032C31.3961 88.6203 31.246 88.7016 31.1425 88.8293C29.5079 90.5651 28.0192 92.4328 26.6915 94.4133C26.6105 94.559 26.5256 94.6844 26.4487 94.8462L26.3354 95.089L26.2788 95.2104C26.2632 95.292 26.2523 95.3744 26.2464 95.4572Z" fill="url(#paint23_linear_3_522)"/>
<path d="M58.682 62.0387L71.1124 74.7281L67.7823 84.3423L58.8034 79.8225L58.682 62.0387Z" fill="url(#paint24_linear_3_522)"/>
<path d="M70.5184 90.9179L71.9349 87.5498L68.5668 86.1333L67.1503 89.5014L70.5184 90.9179Z" fill="url(#paint25_linear_3_522)"/>
<path d="M59.4103 93.8184L59.5438 93.9398L59.8109 94.1745C59.979 94.322 60.1575 94.4573 60.345 94.5791C61.7217 95.5343 63.1554 96.4045 64.6382 97.185C67.5394 98.755 70.469 100.195 73.4512 101.596L73.5321 101.632C73.9142 101.785 74.3416 101.781 74.7207 101.621C75.0998 101.46 75.3999 101.155 75.5553 100.774C76.8097 97.5896 77.9831 94.4173 79.0392 91.1519C79.5997 89.4971 80.0339 87.8022 80.3381 86.0818L80.4028 85.3615C80.3978 85.062 80.3626 84.7638 80.2976 84.4713C80.1444 83.9948 79.9192 83.5445 79.63 83.136C79.0521 82.3122 78.2142 81.7066 77.2507 81.4163C77.1141 81.3736 76.9665 81.3831 76.8365 81.4429C76.7065 81.5027 76.6032 81.6085 76.5466 81.74C76.5157 81.8101 76.4989 81.8857 76.4973 81.9623C76.4956 82.0389 76.509 82.1151 76.5369 82.1865C76.5647 82.258 76.6063 82.3232 76.6594 82.3785C76.7124 82.4338 76.7759 82.4781 76.8461 82.5088L76.9189 82.5372C77.5537 82.8267 78.0806 83.3097 78.4242 83.917C78.5928 84.2191 78.7142 84.5452 78.7843 84.884C78.7843 85.0419 78.7641 85.1187 78.7843 85.2523L78.675 85.7864C78.2192 87.3536 77.6471 88.8847 76.9634 90.3669C75.8223 92.9606 74.5599 95.5219 73.265 98.055C70.6997 97.1445 68.1343 96.1936 65.6296 95.1537C64.1613 94.5642 62.7291 93.8886 61.3404 93.1305C61.1794 93.0469 61.0252 92.9509 60.8791 92.8432C60.7739 92.7583 60.5352 92.6207 60.5392 92.5883C60.5105 92.5617 60.4777 92.5399 60.4421 92.5236L60.3288 92.301C60.2587 92.1456 60.1979 91.9862 60.1467 91.8236C59.9396 91.1758 59.9075 90.4848 60.0537 89.8206L60.0537 89.7356C60.102 89.5747 60.0843 89.4011 60.0046 89.2531C59.925 89.1051 59.7898 88.9949 59.6288 88.9466C59.4678 88.8983 59.2943 88.9159 59.1463 88.9956C58.9983 89.0753 58.8881 89.2105 58.8398 89.3715C58.5119 90.2719 58.4433 91.2462 58.6415 92.1837C58.6874 92.4153 58.7482 92.6437 58.8236 92.8675C58.864 92.9808 58.8964 93.086 58.949 93.2074C59.0016 93.3288 59.127 93.4866 59.2282 93.6121L59.4103 93.8184Z" fill="url(#paint26_linear_3_522)"/>
<path d="M60.5716 107.05C60.8217 107.393 61.1315 107.688 61.4861 107.92C62.007 108.273 62.5474 108.596 63.1047 108.887C64.1608 109.458 65.225 109.972 66.2932 110.469C70.5743 112.432 74.8917 114.176 79.2659 115.883C79.6602 116.037 80.0973 116.039 80.4931 115.89C80.889 115.74 81.2156 115.45 81.4104 115.074L81.4104 115.038C83.4336 110.749 85.3597 106.464 87.0753 102.029C87.5043 100.916 87.9129 99.7951 88.2892 98.6338C88.4791 98.0265 88.6292 97.4074 88.7384 96.7806C88.8179 96.358 88.8055 95.9233 88.702 95.506C88.5895 95.1852 88.4543 94.8728 88.2973 94.5713C87.1077 92.3458 85.6267 90.5451 84.1013 88.704C84.0166 88.6024 83.897 88.5361 83.766 88.5182C83.635 88.5002 83.502 88.5319 83.3931 88.6069C83.3362 88.6462 83.2877 88.6963 83.2501 88.7544C83.2126 88.8125 83.1869 88.8774 83.1745 88.9454C83.1621 89.0135 83.1633 89.0832 83.1779 89.1508C83.1925 89.2184 83.2202 89.2825 83.2596 89.3393L83.2596 89.3595C84.5666 91.2492 85.8978 93.2481 86.7395 95.2591C86.8299 95.4912 86.9042 95.7291 86.962 95.9713C86.9563 96.1304 86.9305 96.2881 86.8852 96.4407C86.7411 96.9594 86.5655 97.4689 86.3591 97.9662C85.9302 99.0101 85.4366 100.058 84.9267 101.094C83.0775 104.805 81.0341 108.462 78.9462 112.068C74.9929 110.886 71.0355 109.64 67.1713 108.252C66.0949 107.847 65.0226 107.443 63.9949 107.002C63.4962 106.791 63.0099 106.551 62.5382 106.285C62.3399 106.184 62.0971 105.978 62.1335 106.035C62.1376 106.046 62.1376 106.059 62.1335 106.071L62.1012 105.994L62.0324 105.84C61.9831 105.725 61.9398 105.608 61.9029 105.488C61.3116 103.292 60.8989 101.051 60.6688 98.7876L60.6688 98.7633C60.6296 98.6228 60.5422 98.5006 60.4218 98.4183C60.3014 98.3359 60.1558 98.2988 60.0107 98.3133C59.8656 98.3278 59.7303 98.3931 59.6286 98.4976C59.5269 98.6021 59.4654 98.7392 59.4548 98.8847C59.5803 101.248 59.6733 103.538 60.1994 105.978C60.2439 106.14 60.2763 106.29 60.3329 106.459L60.4219 106.71L60.4664 106.836C60.4826 106.88 60.5271 106.981 60.5716 107.05Z" fill="url(#paint27_linear_3_522)"/>
<path d="M61.0005 59.7843L78.7681 59.6832L83.3527 68.7673L73.8599 72.0691L61.0005 59.7843Z" fill="url(#paint28_linear_3_522)"/>
<path d="M89.9814 71.3672L88.5472 68.0066L85.1866 69.4407L86.6207 72.8014L89.9814 71.3672Z" fill="url(#paint29_linear_3_522)"/>
<path d="M84.3197 81.3562L84.5017 81.3562L84.8578 81.3279C85.0836 81.3146 85.3081 81.2848 85.5295 81.2389C87.1725 80.9134 88.7941 80.4878 90.3852 79.9642C93.5332 78.9769 96.6044 77.8723 99.6918 76.7029L99.7687 76.6705C99.9565 76.5895 100.126 76.4722 100.269 76.3254C100.411 76.1786 100.523 76.0051 100.598 75.8148C100.674 75.6246 100.711 75.4214 100.707 75.2169C100.704 75.0124 100.66 74.8106 100.578 74.6231C99.1617 71.5074 97.705 68.4523 96.0905 65.4297C95.2919 63.8785 94.3761 62.3906 93.3511 60.9787L92.8777 60.4324C92.6614 60.2256 92.4225 60.0437 92.1656 59.8902C91.7192 59.6646 91.2398 59.5116 90.7453 59.437C89.7511 59.2832 88.7339 59.4625 87.8521 59.9469C87.7126 60.0134 87.6053 60.1327 87.5537 60.2783C87.502 60.424 87.5104 60.5843 87.577 60.7238C87.6435 60.8633 87.7627 60.9707 87.9084 61.0223C88.0541 61.0739 88.2144 61.0655 88.3539 60.9989L88.4267 60.9706C89.0713 60.718 89.779 60.6741 90.4499 60.8452C90.7829 60.9314 91.1008 61.0678 91.3927 61.2498C91.5181 61.351 91.5505 61.4279 91.6517 61.5169L91.9592 61.962C92.7668 63.3813 93.4687 64.8581 94.0593 66.3806C95.1275 69.0027 96.0824 71.6935 97.005 74.3843C94.5772 75.5982 92.0968 76.7717 89.6083 77.848C88.1593 78.4947 86.673 79.0541 85.1573 79.5232C84.9856 79.5802 84.8097 79.6235 84.6312 79.6527C84.4987 79.6878 84.3633 79.7108 84.2266 79.7215C84.1876 79.7221 84.1491 79.7304 84.1133 79.7457L83.8746 79.6729C83.7143 79.6145 83.5576 79.547 83.4052 79.4706C82.7957 79.1678 82.2766 78.7101 81.8999 78.1434L81.8554 78.0665C81.7693 77.9295 81.6339 77.8308 81.4772 77.7907C81.3204 77.7506 81.1542 77.7723 81.013 77.8513C80.8717 77.9302 80.7662 78.0604 80.7181 78.2149C80.6701 78.3694 80.6832 78.5364 80.7548 78.6816C81.1761 79.5431 81.829 80.2703 82.6404 80.7816C82.8381 80.9088 83.0435 81.0237 83.2555 81.1256C83.3688 81.1741 83.4659 81.2227 83.5873 81.2712C83.7502 81.3081 83.915 81.3364 84.0809 81.3562L84.3197 81.3562Z" fill="url(#paint30_linear_3_522)"/>
<path d="M94.6542 89.7439C95.0733 89.8034 95.4999 89.7856 95.9126 89.6913C96.524 89.5664 97.1279 89.407 97.7213 89.2138C98.8705 88.8497 99.9751 88.445 101.076 87.9999C105.466 86.2924 109.723 84.4068 113.988 82.4524C114.373 82.2741 114.678 81.9596 114.844 81.5695C115.011 81.1795 115.027 80.7415 114.89 80.3402L114.89 80.2997C113.207 75.8689 111.479 71.4948 109.496 67.1693C108.994 66.0889 108.477 65.0166 107.878 63.9322C107.576 63.3696 107.235 62.8288 106.858 62.3136C106.613 61.9613 106.294 61.667 105.923 61.4517C105.618 61.3044 105.303 61.1787 104.981 61.0754C102.553 60.3835 100.23 60.1933 97.8468 60.0072C97.7149 59.9973 97.5841 60.0371 97.48 60.1187C97.376 60.2003 97.3062 60.3178 97.2843 60.4482C97.2727 60.5165 97.2748 60.5864 97.2903 60.654C97.3058 60.7215 97.3345 60.7853 97.3747 60.8417C97.4149 60.8981 97.4659 60.946 97.5247 60.9826C97.5835 61.0192 97.6489 61.0439 97.7173 61.0552L97.7375 61.0552C100.008 61.4315 102.367 61.8645 104.398 62.6737C104.628 62.7701 104.851 62.8823 105.065 63.0096C105.175 63.1257 105.27 63.2548 105.349 63.394C105.624 63.8565 105.868 64.3364 106.081 64.8304C106.534 65.8663 106.939 66.9467 107.331 68.0352C108.711 71.944 109.913 75.958 111.05 79.9639C107.453 81.987 103.807 83.9657 100.125 85.7704C99.089 86.2721 98.0491 86.7537 97.0132 87.1826C96.5152 87.3928 96.006 87.5752 95.4877 87.7288C95.2773 87.8017 94.9577 87.834 95.0264 87.8421C95.0376 87.8479 95.0474 87.8562 95.0548 87.8664L94.9779 87.8381L94.816 87.7814C94.7108 87.745 94.5894 87.6803 94.4721 87.6317C92.4816 86.5354 90.5807 85.2839 88.787 83.8888C88.6584 83.79 88.4962 83.7456 88.3352 83.7651C88.1742 83.7847 88.0273 83.8666 87.9261 83.9932C87.8249 84.1199 87.7774 84.2812 87.7938 84.4426C87.8103 84.6039 87.8894 84.7523 88.0141 84.8559C89.7632 86.4739 91.6415 87.9463 93.6304 89.2584C93.7761 89.3352 93.9056 89.4202 94.0675 89.493L94.3102 89.6063L94.4316 89.663C94.4802 89.7035 94.5692 89.7277 94.6542 89.7439Z" fill="url(#paint31_linear_3_522)"/>
<defs>
<linearGradient id="paint0_linear_3_522" x1="23.1323" y1="3.03812" x2="88.1209" y2="68.0227" gradientUnits="userSpaceOnUse">
<stop offset="0.2" stop-color="#BE9600"/>
<stop offset="0.5" stop-color="#E0C91F"/>
<stop offset="0.78" stop-color="#BE9600"/>
</linearGradient>
<linearGradient id="paint1_linear_3_522" x1="33.915" y1="-7.74853" x2="98.8996" y2="57.2361" gradientUnits="userSpaceOnUse">
<stop offset="0.2" stop-color="#BE9600"/>
<stop offset="0.5" stop-color="#E0C91F"/>
<stop offset="0.78" stop-color="#BE9600"/>
</linearGradient>
<linearGradient id="paint2_linear_3_522" x1="36.0038" y1="-9.83363" x2="100.992" y2="55.155" gradientUnits="userSpaceOnUse">
<stop offset="0.2" stop-color="#BE9600"/>
<stop offset="0.5" stop-color="#E0C91F"/>
<stop offset="0.78" stop-color="#BE9600"/>
</linearGradient>
<linearGradient id="paint3_linear_3_522" x1="43.4653" y1="-17.291" x2="108.45" y2="47.6936" gradientUnits="userSpaceOnUse">
<stop offset="0.2" stop-color="#BE9600"/>
<stop offset="0.5" stop-color="#E0C91F"/>
<stop offset="0.78" stop-color="#BE9600"/>
</linearGradient>
<linearGradient id="paint4_linear_3_522" x1="23.1687" y1="2.89646" x2="88.1574" y2="67.8851" gradientUnits="userSpaceOnUse">
<stop offset="0.2" stop-color="#BE9600"/>
<stop offset="0.5" stop-color="#E0C91F"/>
<stop offset="0.78" stop-color="#BE9600"/>
</linearGradient>
<linearGradient id="paint5_linear_3_522" x1="33.9764" y1="-7.89386" x2="98.961" y2="57.0907" gradientUnits="userSpaceOnUse">
<stop offset="0.2" stop-color="#BE9600"/>
<stop offset="0.5" stop-color="#E0C91F"/>
<stop offset="0.78" stop-color="#BE9600"/>
</linearGradient>
<linearGradient id="paint6_linear_3_522" x1="36.089" y1="-9.99918" x2="101.074" y2="54.9895" gradientUnits="userSpaceOnUse">
<stop offset="0.2" stop-color="#BE9600"/>
<stop offset="0.5" stop-color="#E0C91F"/>
<stop offset="0.78" stop-color="#BE9600"/>
</linearGradient>
<linearGradient id="paint7_linear_3_522" x1="43.6152" y1="-17.5497" x2="108.604" y2="47.4389" gradientUnits="userSpaceOnUse">
<stop offset="0.2" stop-color="#BE9600"/>
<stop offset="0.5" stop-color="#E0C91F"/>
<stop offset="0.78" stop-color="#BE9600"/>
</linearGradient>
<linearGradient id="paint8_linear_3_522" x1="18.7218" y1="7.55352" x2="83.7105" y2="72.5381" gradientUnits="userSpaceOnUse">
<stop offset="0.2" stop-color="#BE9600"/>
<stop offset="0.5" stop-color="#E0C91F"/>
<stop offset="0.78" stop-color="#BE9600"/>
</linearGradient>
<linearGradient id="paint9_linear_3_522" x1="22.1256" y1="4.14838" x2="87.1142" y2="69.137" gradientUnits="userSpaceOnUse">
<stop offset="0.2" stop-color="#BE9600"/>
<stop offset="0.5" stop-color="#E0C91F"/>
<stop offset="0.78" stop-color="#BE9600"/>
</linearGradient>
<linearGradient id="paint10_linear_3_522" x1="22.0723" y1="4.18335" x2="87.0609" y2="69.168" gradientUnits="userSpaceOnUse">
<stop offset="0.2" stop-color="#BE9600"/>
<stop offset="0.5" stop-color="#E0C91F"/>
<stop offset="0.78" stop-color="#BE9600"/>
</linearGradient>
<linearGradient id="paint11_linear_3_522" x1="25.4066" y1="0.873213" x2="90.3952" y2="65.8578" gradientUnits="userSpaceOnUse">
<stop offset="0.2" stop-color="#BE9600"/>
<stop offset="0.5" stop-color="#E0C91F"/>
<stop offset="0.78" stop-color="#BE9600"/>
</linearGradient>
<linearGradient id="paint12_linear_3_522" x1="7.50129" y1="18.6695" x2="72.49" y2="83.6581" gradientUnits="userSpaceOnUse">
<stop offset="0.2" stop-color="#BE9600"/>
<stop offset="0.5" stop-color="#E0C91F"/>
<stop offset="0.78" stop-color="#BE9600"/>
</linearGradient>
<linearGradient id="paint13_linear_3_522" x1="3.9831" y1="22.1829" x2="68.9718" y2="87.1675" gradientUnits="userSpaceOnUse">
<stop offset="0.2" stop-color="#BE9600"/>
<stop offset="0.5" stop-color="#E0C91F"/>
<stop offset="0.78" stop-color="#BE9600"/>
</linearGradient>
<linearGradient id="paint14_linear_3_522" x1="4.03769" y1="22.1365" x2="69.0223" y2="87.1211" gradientUnits="userSpaceOnUse">
<stop offset="0.2" stop-color="#BE9600"/>
<stop offset="0.5" stop-color="#E0C91F"/>
<stop offset="0.78" stop-color="#BE9600"/>
</linearGradient>
<linearGradient id="paint15_linear_3_522" x1="0.658867" y1="25.5156" x2="65.6435" y2="90.5002" gradientUnits="userSpaceOnUse">
<stop offset="0.2" stop-color="#BE9600"/>
<stop offset="0.5" stop-color="#E0C91F"/>
<stop offset="0.78" stop-color="#BE9600"/>
</linearGradient>
<linearGradient id="paint16_linear_3_522" x1="91.8502" y1="112.962" x2="26.8615" y2="47.9773" gradientUnits="userSpaceOnUse">
<stop offset="0.2" stop-color="#BE9600"/>
<stop offset="0.5" stop-color="#E0C91F"/>
<stop offset="0.78" stop-color="#BE9600"/>
</linearGradient>
<linearGradient id="paint17_linear_3_522" x1="81.0674" y1="123.749" x2="16.0828" y2="58.7639" gradientUnits="userSpaceOnUse">
<stop offset="0.2" stop-color="#BE9600"/>
<stop offset="0.5" stop-color="#E0C91F"/>
<stop offset="0.78" stop-color="#BE9600"/>
</linearGradient>
<linearGradient id="paint18_linear_3_522" x1="78.9786" y1="125.834" x2="13.99" y2="60.845" gradientUnits="userSpaceOnUse">
<stop offset="0.2" stop-color="#BE9600"/>
<stop offset="0.5" stop-color="#E0C91F"/>
<stop offset="0.78" stop-color="#BE9600"/>
</linearGradient>
<linearGradient id="paint19_linear_3_522" x1="71.5172" y1="133.291" x2="6.5326" y2="68.3064" gradientUnits="userSpaceOnUse">
<stop offset="0.2" stop-color="#BE9600"/>
<stop offset="0.5" stop-color="#E0C91F"/>
<stop offset="0.78" stop-color="#BE9600"/>
</linearGradient>
<linearGradient id="paint20_linear_3_522" x1="91.8138" y1="113.104" x2="26.8251" y2="48.1149" gradientUnits="userSpaceOnUse">
<stop offset="0.2" stop-color="#BE9600"/>
<stop offset="0.5" stop-color="#E0C91F"/>
<stop offset="0.78" stop-color="#BE9600"/>
</linearGradient>
<linearGradient id="paint21_linear_3_522" x1="81.0061" y1="123.894" x2="16.0215" y2="58.9092" gradientUnits="userSpaceOnUse">
<stop offset="0.2" stop-color="#BE9600"/>
<stop offset="0.5" stop-color="#E0C91F"/>
<stop offset="0.78" stop-color="#BE9600"/>
</linearGradient>
<linearGradient id="paint22_linear_3_522" x1="78.8935" y1="125.999" x2="13.9089" y2="61.0105" gradientUnits="userSpaceOnUse">
<stop offset="0.2" stop-color="#BE9600"/>
<stop offset="0.5" stop-color="#E0C91F"/>
<stop offset="0.78" stop-color="#BE9600"/>
</linearGradient>
<linearGradient id="paint23_linear_3_522" x1="71.3674" y1="133.55" x2="6.37874" y2="68.5611" gradientUnits="userSpaceOnUse">
<stop offset="0.2" stop-color="#BE9600"/>
<stop offset="0.5" stop-color="#E0C91F"/>
<stop offset="0.78" stop-color="#BE9600"/>
</linearGradient>
<linearGradient id="paint24_linear_3_522" x1="96.2606" y1="108.446" x2="31.2719" y2="43.4619" gradientUnits="userSpaceOnUse">
<stop offset="0.2" stop-color="#BE9600"/>
<stop offset="0.5" stop-color="#E0C91F"/>
<stop offset="0.78" stop-color="#BE9600"/>
</linearGradient>
<linearGradient id="paint25_linear_3_522" x1="92.8569" y1="111.852" x2="27.8683" y2="46.863" gradientUnits="userSpaceOnUse">
<stop offset="0.2" stop-color="#BE9600"/>
<stop offset="0.5" stop-color="#E0C91F"/>
<stop offset="0.78" stop-color="#BE9600"/>
</linearGradient>
<linearGradient id="paint26_linear_3_522" x1="92.9101" y1="111.817" x2="27.9215" y2="46.832" gradientUnits="userSpaceOnUse">
<stop offset="0.2" stop-color="#BE9600"/>
<stop offset="0.5" stop-color="#E0C91F"/>
<stop offset="0.78" stop-color="#BE9600"/>
</linearGradient>
<linearGradient id="paint27_linear_3_522" x1="89.576" y1="115.127" x2="24.5873" y2="50.1422" gradientUnits="userSpaceOnUse">
<stop offset="0.2" stop-color="#BE9600"/>
<stop offset="0.5" stop-color="#E0C91F"/>
<stop offset="0.78" stop-color="#BE9600"/>
</linearGradient>
<linearGradient id="paint28_linear_3_522" x1="107.481" y1="97.3305" x2="42.4925" y2="32.3419" gradientUnits="userSpaceOnUse">
<stop offset="0.2" stop-color="#BE9600"/>
<stop offset="0.5" stop-color="#E0C91F"/>
<stop offset="0.78" stop-color="#BE9600"/>
</linearGradient>
<linearGradient id="paint29_linear_3_522" x1="110.999" y1="93.8171" x2="46.0107" y2="28.8325" gradientUnits="userSpaceOnUse">
<stop offset="0.2" stop-color="#BE9600"/>
<stop offset="0.5" stop-color="#E0C91F"/>
<stop offset="0.78" stop-color="#BE9600"/>
</linearGradient>
<linearGradient id="paint30_linear_3_522" x1="110.945" y1="93.8635" x2="45.9601" y2="28.8789" gradientUnits="userSpaceOnUse">
<stop offset="0.2" stop-color="#BE9600"/>
<stop offset="0.5" stop-color="#E0C91F"/>
<stop offset="0.78" stop-color="#BE9600"/>
</linearGradient>
<linearGradient id="paint31_linear_3_522" x1="114.324" y1="90.4844" x2="49.339" y2="25.4998" gradientUnits="userSpaceOnUse">
<stop offset="0.2" stop-color="#BE9600"/>
<stop offset="0.5" stop-color="#E0C91F"/>
<stop offset="0.78" stop-color="#BE9600"/>
</linearGradient>
</defs>
</svg>
