<svg width="74" height="76" viewBox="0 0 74 76" fill="none" xmlns="http://www.w3.org/2000/svg">
<path d="M68.0585 35.2711C68.2808 35.1139 68.4714 34.9163 68.6204 34.6884C68.8505 34.3607 69.0607 34.0193 69.2498 33.6662C69.6244 32.9873 69.96 32.3084 70.2903 31.6217C71.5753 28.8827 72.7198 26.1151 73.8383 23.3136C73.9383 23.0595 73.9404 22.7773 73.8443 22.5216C73.7482 22.266 73.5607 22.0551 73.318 21.9298H73.2946C70.5452 20.6162 67.801 19.3469 64.971 18.2128C64.2582 17.9318 63.5403 17.6613 62.7938 17.4324C62.4049 17.3061 62.0077 17.2071 61.6051 17.1359C61.3353 17.0792 61.0562 17.0837 60.7883 17.1489C60.5817 17.2161 60.38 17.2978 60.1848 17.3934C58.7464 18.1451 57.5837 19.0894 56.3898 20.0596C56.3247 20.1135 56.2821 20.1897 56.2701 20.2734C56.258 20.357 56.2775 20.4421 56.3247 20.5122C56.3496 20.5492 56.3815 20.5809 56.4187 20.6055C56.4558 20.6301 56.4975 20.6471 56.5412 20.6556C56.585 20.6641 56.63 20.6638 56.6736 20.6548C56.7173 20.6458 56.7587 20.6283 56.7955 20.6032C58.0181 19.7735 59.3109 18.9281 60.6088 18.3974C60.758 18.3409 60.911 18.2949 61.0666 18.2596C61.1691 18.2633 61.2706 18.2808 61.3684 18.3116C61.7014 18.4049 62.0281 18.5196 62.3464 18.655C63.0149 18.9359 63.686 19.261 64.3519 19.594C66.7241 20.8009 69.0652 22.1353 71.375 23.4957C70.5946 26.0318 69.7779 28.5705 68.8623 31.039C68.6022 31.7309 68.342 32.4176 68.0403 33.0757C67.9029 33.3947 67.7475 33.7056 67.5747 34.0069C67.5071 34.1344 67.3744 34.2905 67.4082 34.2671C67.4167 34.2645 67.4258 34.2645 67.4342 34.2671L67.3848 34.2879L67.286 34.3321C67.2209 34.3607 67.1325 34.3841 67.0571 34.4127C65.646 34.7867 64.2073 35.0476 62.7548 35.1931H62.7392C62.6403 35.2054 62.5498 35.2546 62.4857 35.3308C62.4215 35.407 62.3885 35.5046 62.3932 35.604C62.3979 35.7099 62.4444 35.8095 62.5224 35.8811C62.6004 35.9528 62.7036 35.9906 62.8094 35.9864C64.3378 35.9529 65.861 35.7954 67.364 35.5156C67.4681 35.4896 67.5643 35.4714 67.6735 35.435L67.8348 35.3777L67.9181 35.3491C67.9667 35.3265 68.0136 35.3004 68.0585 35.2711Z" fill="#A3A3A3"/>
<path d="M57.0428 13.2057C57.084 12.9358 57.0751 12.6607 57.0167 12.3941C56.9398 12.0013 56.8408 11.6131 56.7202 11.2314C56.4913 10.4901 56.2364 9.77734 55.9711 9.06723C54.8968 6.23718 53.7055 3.49037 52.4699 0.743554C52.3577 0.495102 52.1571 0.29729 51.9071 0.188627C51.657 0.0799641 51.3755 0.0682225 51.1173 0.155692H51.0913C48.2301 1.21436 45.413 2.30424 42.622 3.55539C41.9249 3.87013 41.2304 4.19788 40.5411 4.56984C40.18 4.76191 39.8323 4.97831 39.5006 5.21753C39.2724 5.37332 39.0814 5.57761 38.9414 5.81579C38.8455 6.01081 38.7637 6.21249 38.6969 6.41926C38.2364 7.97995 38.1038 9.46781 37.9737 10.9973C37.962 11.0863 37.9861 11.1763 38.0407 11.2475C38.0954 11.3187 38.1761 11.3653 38.2651 11.377C38.354 11.3888 38.4441 11.3647 38.5153 11.31C38.5865 11.2554 38.6331 11.1747 38.6448 11.0857V11.0649C38.9049 9.61087 39.1911 8.0944 39.7139 6.79122C39.7756 6.64443 39.8487 6.50267 39.9324 6.36724C40.0096 6.29393 40.0972 6.23256 40.1925 6.18516C40.4899 6.01394 40.7984 5.86274 41.1159 5.73255C41.7818 5.44643 42.4815 5.18891 43.1838 4.95221C45.7017 4.08603 48.2873 3.3343 50.8702 2.62418C52.15 4.94701 53.4037 7.30625 54.543 9.6811C54.8604 10.347 55.1673 11.0181 55.4352 11.6892C55.5684 12.0092 55.683 12.3366 55.7786 12.6698C55.8228 12.8077 55.8436 13.0132 55.8488 12.969C55.854 12.9247 55.8488 12.9507 55.8644 12.9507L55.8462 13.0002L55.8098 13.1016C55.7864 13.1692 55.7422 13.2499 55.711 13.3227C54.9969 14.599 54.1827 15.8166 53.2763 16.9643C53.2097 17.0464 53.1785 17.1516 53.1895 17.2567C53.2004 17.3618 53.2527 17.4583 53.3348 17.5249C53.4169 17.5914 53.5221 17.6227 53.6272 17.6117C53.7323 17.6007 53.8288 17.5484 53.8954 17.4663C54.9461 16.3505 55.9031 15.1499 56.7566 13.8768C56.8086 13.7831 56.8633 13.7025 56.9127 13.5984L56.9855 13.4424L57.0219 13.3643C57.032 13.3119 57.0389 13.2589 57.0428 13.2057Z" fill="#A3A3A3"/>
<path d="M34.9772 5.75323C34.8165 5.53299 34.6173 5.34354 34.3893 5.19398C34.0545 4.96732 33.7071 4.75977 33.3489 4.5723C32.67 4.20554 31.9859 3.8752 31.2992 3.55526C28.5472 2.2937 25.7717 1.1726 22.9599 0.0749176C22.7064 -0.0236123 22.4254 -0.0249991 22.171 0.071024C21.9165 0.167047 21.7065 0.353708 21.5813 0.595147V0.618557C20.2807 3.37577 19.0426 6.13039 17.9397 8.98125C17.664 9.69657 17.4012 10.4171 17.1593 11.1636C17.0373 11.554 16.9408 11.952 16.8706 12.3549C16.8195 12.6266 16.8275 12.906 16.894 13.1743C16.9663 13.3805 17.0532 13.5813 17.1541 13.7752C17.9189 15.2058 18.8709 16.3633 19.8515 17.5468C19.9059 17.6121 19.9828 17.6548 20.067 17.6663C20.1512 17.6779 20.2367 17.6575 20.3067 17.6093C20.3433 17.584 20.3745 17.5518 20.3986 17.5144C20.4228 17.4771 20.4393 17.4354 20.4472 17.3917C20.4552 17.3479 20.4545 17.3031 20.4451 17.2596C20.4357 17.2162 20.4179 17.175 20.3926 17.1385V17.1254C19.5524 15.9107 18.6966 14.6257 18.1556 13.333C18.0975 13.1838 18.0497 13.0309 18.0125 12.8752C18.0162 12.7729 18.0328 12.6715 18.0619 12.5734C18.1545 12.24 18.2674 11.9125 18.4001 11.5928C18.6758 10.9217 18.9931 10.248 19.3209 9.58212C20.5096 7.19686 21.8232 4.84542 23.1654 2.5278C25.7067 3.28733 28.2506 4.08849 30.7347 4.98068C31.4266 5.2408 32.1159 5.50091 32.7766 5.78444C33.0972 5.92014 33.4098 6.07385 33.713 6.24484C33.8405 6.30987 33.9966 6.44253 33.9732 6.40611C33.9706 6.39852 33.9706 6.39029 33.9732 6.3827L33.994 6.43213L34.0382 6.53097C34.0699 6.60489 34.0977 6.68042 34.1214 6.75727C34.5015 8.16938 34.7668 9.6099 34.9148 11.0648V11.0804C34.9399 11.1707 34.9961 11.2492 35.0735 11.3022C35.1509 11.3551 35.2445 11.379 35.3378 11.3697C35.4311 11.3603 35.5181 11.3184 35.5834 11.2512C35.6488 11.184 35.6884 11.0959 35.6951 11.0023C35.6145 9.48327 35.5547 8.01102 35.2165 6.44253C35.1879 6.33848 35.1671 6.24224 35.1307 6.13299L35.0734 5.97172L35.0448 5.89109C35.0344 5.86247 35.0058 5.79745 34.9772 5.75323Z" fill="#A3A3A3"/>
<path d="M13.0677 16.8783C12.7983 16.8401 12.5241 16.8515 12.2588 16.9121C11.8657 16.9924 11.4775 17.0949 11.0961 17.2191C10.3573 17.4532 9.64721 17.7133 8.9397 17.9994C6.11746 19.0971 3.38105 20.3092 0.639438 21.5656C0.392006 21.6802 0.195794 21.8823 0.0886722 22.1331C-0.0184494 22.3838 -0.0288838 22.6654 0.0593826 22.9234V22.9494C1.14146 25.7977 2.25215 28.6095 3.52671 31.3901C3.84925 32.0846 4.1822 32.7739 4.56717 33.471C4.76126 33.8327 4.98029 34.1803 5.22266 34.5115C5.37991 34.738 5.58505 34.9271 5.82353 35.0655C6.01965 35.1602 6.22217 35.2411 6.42959 35.3075C7.99028 35.7522 9.48334 35.8745 11.0154 35.9942C11.1002 36.0005 11.1843 35.975 11.2512 35.9225C11.3181 35.87 11.3629 35.7945 11.377 35.7106C11.3844 35.6667 11.3831 35.6218 11.3732 35.5784C11.3632 35.535 11.3447 35.494 11.3189 35.4577C11.293 35.4215 11.2602 35.3907 11.2225 35.3671C11.1847 35.3436 11.1426 35.3277 11.0987 35.3205H11.0856C9.62641 35.0785 8.10993 34.8002 6.80416 34.28C6.65628 34.218 6.51287 34.1459 6.37497 34.0641C6.30445 33.9895 6.2433 33.9065 6.19289 33.817C6.01624 33.5196 5.85897 33.2112 5.72208 32.8936C5.43075 32.2277 5.17064 31.5332 4.91833 30.8335C4.03133 28.3208 3.25879 25.7404 2.52787 23.1653C4.84029 21.8647 7.18393 20.5928 9.55097 19.4326C10.2169 19.1101 10.8854 18.8006 11.5513 18.5248C11.8714 18.3897 12.1987 18.2725 12.5319 18.1737C12.6671 18.1269 12.8726 18.1061 12.8284 18.1009C12.8212 18.0971 12.815 18.0918 12.8102 18.0852L12.8596 18.1035L12.9637 18.1399C13.0313 18.1633 13.1093 18.2049 13.1848 18.2361C14.4643 18.9409 15.6863 19.7454 16.8394 20.6422C16.922 20.7057 17.0263 20.7342 17.1298 20.7217C17.2333 20.7091 17.3277 20.6565 17.3928 20.5751C17.4578 20.4936 17.4884 20.3899 17.4778 20.2862C17.4672 20.1825 17.4164 20.0871 17.3362 20.0205C16.2118 18.9804 15.0044 18.0339 13.7258 17.1905C13.6322 17.141 13.5489 17.0864 13.4449 17.0396L13.2888 16.9668L13.2108 16.9303C13.1796 16.9043 13.1223 16.8887 13.0677 16.8783Z" fill="#A3A3A3"/>
<path d="M5.85641 40.7289C5.63415 40.8861 5.44353 41.0837 5.29456 41.3116C5.06438 41.6393 4.85417 41.9807 4.66507 42.3338C4.29051 43.0127 3.95496 43.6916 3.62462 44.3783C2.33965 47.1173 1.19515 49.8849 0.0766531 52.6864C-0.0233588 52.9405 -0.0255256 53.2227 0.07058 53.4784C0.166684 53.734 0.354222 53.9449 0.596882 54.0702L0.620291 54.0702C3.3697 55.3838 6.11392 56.6531 8.94397 57.7872C9.65668 58.0682 10.3746 58.3387 11.1211 58.5676C11.51 58.6939 11.9072 58.7929 12.3099 58.8641C12.5797 58.9208 12.8587 58.9163 13.1266 58.8511C13.3333 58.7839 13.5349 58.7022 13.7301 58.6066C15.1685 57.8549 16.3312 56.9106 17.5252 55.9404C17.5902 55.8865 17.6328 55.8103 17.6449 55.7266C17.6569 55.643 17.6374 55.5579 17.5902 55.4878C17.5653 55.4508 17.5334 55.4191 17.4963 55.3945C17.4591 55.3699 17.4175 55.3529 17.3737 55.3444C17.33 55.3359 17.285 55.3362 17.2413 55.3452C17.1977 55.3542 17.1562 55.3717 17.1194 55.3968C15.8968 56.2265 14.6041 57.0719 13.3061 57.6026C13.1569 57.6591 13.0039 57.7051 12.8483 57.7404C12.7458 57.7367 12.6444 57.7192 12.5466 57.6884C12.2135 57.5951 11.8868 57.4804 11.5685 57.345C10.9 57.0641 10.2289 56.739 9.56304 56.406C7.19079 55.1991 4.84976 53.8647 2.53994 52.5043C3.32028 49.9682 4.13704 47.4295 5.05264 44.961C5.31276 44.2691 5.57287 43.5824 5.87461 42.9243C6.01198 42.6053 6.16744 42.2944 6.34022 41.9931C6.40785 41.8656 6.54051 41.7095 6.50669 41.7329C6.49822 41.7355 6.48915 41.7355 6.48068 41.7329L6.5301 41.7121L6.62895 41.6679C6.69398 41.6393 6.78241 41.6159 6.85784 41.5873C8.26895 41.2133 9.7076 40.9524 11.1601 40.8069L11.1757 40.8069C11.2746 40.7946 11.3651 40.7454 11.4292 40.6692C11.4934 40.593 11.5264 40.4954 11.5217 40.396C11.517 40.2901 11.4705 40.1905 11.3925 40.1189C11.3145 40.0472 11.2114 40.0094 11.1055 40.0136C9.57709 40.0471 8.05389 40.2046 6.55091 40.4844C6.44686 40.5104 6.35062 40.5286 6.24137 40.565L6.0801 40.6223L5.99686 40.6509C5.94825 40.6735 5.90132 40.6996 5.85641 40.7289Z" fill="#A3A3A3"/>
<path d="M16.8722 62.7943C16.831 63.0642 16.8398 63.3393 16.8982 63.6059C16.9751 63.9987 17.0741 64.3869 17.1947 64.7686C17.4236 65.5099 17.6785 66.2227 17.9438 66.9328C19.0181 69.7628 20.2094 72.5096 21.445 75.2564C21.5572 75.5049 21.7578 75.7027 22.0079 75.8114C22.2579 75.92 22.5394 75.9318 22.7976 75.8443L22.8236 75.8443C25.6849 74.7856 28.5019 73.6958 31.2929 72.4446C31.99 72.1299 32.6845 71.8021 33.3739 71.4302C33.7349 71.2381 34.0826 71.0217 34.4143 70.7825C34.6425 70.6267 34.8335 70.4224 34.9736 70.1842C35.0695 69.9892 35.1512 69.7875 35.2181 69.5807C35.6785 68.0201 35.8111 66.5322 35.9412 65.0027C35.9529 64.9137 35.9288 64.8237 35.8742 64.7525C35.8195 64.6813 35.7389 64.6347 35.6499 64.623C35.5609 64.6112 35.4709 64.6353 35.3996 64.69C35.3284 64.7446 35.2818 64.8253 35.2701 64.9143L35.2701 64.9351C35.01 66.3891 34.7239 67.9056 34.201 69.2088C34.1393 69.3556 34.0663 69.4973 33.9825 69.6328C33.9054 69.7061 33.8177 69.7674 33.7224 69.8148C33.425 69.9861 33.1165 70.1373 32.799 70.2674C32.1331 70.5536 31.4334 70.8111 30.7311 71.0478C28.2132 71.914 25.6276 72.6657 23.0447 73.3758C21.7649 71.053 20.5112 68.6938 19.3719 66.3189C19.0545 65.653 18.7476 64.9819 18.4797 64.3108C18.3465 63.9908 18.2319 63.6634 18.1363 63.3302C18.0921 63.1923 18.0713 62.9868 18.0661 63.031C18.0609 63.0753 18.0661 63.0493 18.0505 63.0493L18.0687 62.9998L18.1051 62.8984C18.1285 62.8308 18.1727 62.7501 18.204 62.6773C18.9181 61.401 19.7322 60.1833 20.6386 59.0357C20.7052 58.9536 20.7364 58.8484 20.7255 58.7433C20.7145 58.6382 20.6622 58.5417 20.5801 58.4751C20.498 58.4086 20.3928 58.3773 20.2877 58.3883C20.1826 58.3993 20.0861 58.4516 20.0196 58.5337C18.9688 59.6495 18.0118 60.8501 17.1583 62.1232C17.1063 62.2169 17.0516 62.2975 17.0022 62.4016L16.9294 62.5576L16.893 62.6357C16.883 62.6881 16.876 62.7411 16.8722 62.7943Z" fill="#A3A3A3"/>
<path d="M38.9378 70.2468C39.0986 70.467 39.2977 70.6565 39.5257 70.806C39.8605 71.0327 40.2079 71.2402 40.5662 71.4277C41.2451 71.7945 41.9292 72.1248 42.6159 72.4447C45.3679 73.7063 48.1433 74.8274 50.9551 75.9251C51.2086 76.0236 51.4896 76.025 51.7441 75.929C51.9985 75.833 52.2085 75.6463 52.3338 75.4049L52.3338 75.3814C53.6343 72.6242 54.8725 69.8696 55.9754 67.0187C56.2511 66.3034 56.5138 65.5829 56.7557 64.8364C56.8778 64.446 56.9742 64.048 57.0444 63.6451C57.0956 63.3734 57.0876 63.094 57.021 62.8257C56.9487 62.6195 56.8618 62.4187 56.7609 62.2248C55.9962 60.7942 55.0442 59.6367 54.0635 58.4532C54.0091 58.3879 53.9322 58.3452 53.848 58.3337C53.7638 58.3221 53.6783 58.3425 53.6083 58.3907C53.5717 58.416 53.5405 58.4482 53.5164 58.4856C53.4923 58.5229 53.4758 58.5646 53.4678 58.6083C53.4598 58.6521 53.4605 58.6969 53.4699 58.7404C53.4793 58.7838 53.4972 58.825 53.5225 58.8615L53.5225 58.8746C54.3627 60.0893 55.2184 61.3743 55.7595 62.667C55.8176 62.8162 55.8654 62.9691 55.9025 63.1248C55.8988 63.2271 55.8822 63.3285 55.8531 63.4266C55.7605 63.76 55.6476 64.0875 55.515 64.4072C55.2392 65.0783 54.9219 65.752 54.5942 66.4179C53.4054 68.8031 52.0918 71.1546 50.7497 73.4722C48.2083 72.7127 45.6644 71.9115 43.1803 71.0193C42.4884 70.7592 41.7991 70.4991 41.1384 70.2156C40.8178 70.0799 40.5052 69.9261 40.202 69.7552C40.0745 69.6901 39.9185 69.5575 39.9419 69.5939C39.9445 69.6015 39.9445 69.6097 39.9419 69.6173L39.9211 69.5679L39.8769 69.469C39.8451 69.3951 39.8174 69.3196 39.7936 69.2427C39.4135 67.8306 39.1482 66.3901 39.0003 64.9352L39.0003 64.9196C38.9751 64.8293 38.9189 64.7508 38.8415 64.6978C38.7641 64.6449 38.6705 64.621 38.5773 64.6303C38.484 64.6397 38.397 64.6816 38.3316 64.7488C38.2662 64.816 38.2267 64.9041 38.2199 64.9977C38.3006 66.5167 38.3604 67.989 38.6985 69.5575C38.7271 69.6615 38.748 69.7578 38.7844 69.867L38.8416 70.0283L38.8702 70.1089C38.8806 70.1375 38.9092 70.2026 38.9378 70.2468Z" fill="#A3A3A3"/>
<path d="M60.8473 59.1217C61.1168 59.1599 61.391 59.1485 61.6563 59.0879C62.0493 59.0076 62.4375 58.9051 62.819 58.7809C63.5577 58.5468 64.2678 58.2867 64.9753 58.0006C67.7976 56.9029 70.534 55.6908 73.2756 54.4344C73.523 54.3198 73.7192 54.1177 73.8264 53.8669C73.9335 53.6162 73.9439 53.3346 73.8557 53.0766L73.8557 53.0506C72.7736 50.2023 71.6629 47.3905 70.3883 44.6099C70.0658 43.9154 69.7328 43.2261 69.3479 42.529C69.1538 42.1673 68.9348 41.8197 68.6924 41.4885C68.5351 41.262 68.33 41.0729 68.0915 40.9345C67.8954 40.8398 67.6929 40.7589 67.4854 40.6925C65.9248 40.2478 64.4317 40.1255 62.8996 40.0058C62.8149 39.9995 62.7308 40.025 62.6639 40.0775C62.597 40.13 62.5521 40.2055 62.5381 40.2894C62.5306 40.3333 62.5319 40.3782 62.5419 40.4216C62.5519 40.465 62.5703 40.506 62.5962 40.5423C62.622 40.5785 62.6548 40.6093 62.6926 40.6329C62.7304 40.6564 62.7724 40.6723 62.8164 40.6795L62.8294 40.6795C64.2886 40.9215 65.8051 41.1998 67.1109 41.72C67.2588 41.782 67.4022 41.8541 67.5401 41.9359C67.6106 42.0105 67.6717 42.0935 67.7221 42.183C67.8988 42.4804 68.0561 42.7888 68.193 43.1064C68.4843 43.7723 68.7444 44.4668 68.9967 45.1665C69.8837 47.6792 70.6562 50.2596 71.3872 52.8347C69.0747 54.1353 66.7311 55.4072 64.3641 56.5674C63.6982 56.8899 63.0297 57.1994 62.3638 57.4752C62.0437 57.6103 61.7163 57.7275 61.3832 57.8263C61.2479 57.8731 61.0424 57.8939 61.0866 57.8991C61.0938 57.9029 61.1001 57.9082 61.1048 57.9147L61.0554 57.8965L60.9514 57.8601C60.8837 57.8367 60.8057 57.7951 60.7303 57.7639C59.4507 57.0591 58.2287 56.2546 57.0757 55.3578C56.993 55.2943 56.8887 55.2658 56.7852 55.2783C56.6818 55.2909 56.5873 55.3435 56.5223 55.4249C56.4572 55.5064 56.4267 55.6101 56.4372 55.7138C56.4478 55.8175 56.4987 55.9129 56.5788 55.9795C57.7032 57.0196 58.9107 57.9661 60.1892 58.8095C60.2829 58.859 60.3661 58.9136 60.4702 58.9604L60.6262 59.0332L60.7043 59.0697C60.7355 59.0957 60.7927 59.1113 60.8473 59.1217Z" fill="#A3A3A3"/>
<path d="M23 29H29" stroke="#A3A3A3" stroke-miterlimit="10" stroke-linecap="round"/>
<path d="M39 29L51 29" stroke="#A3A3A3" stroke-miterlimit="10" stroke-linecap="round"/>
<path d="M34 32C35.6569 32 37 30.6569 37 29C37 27.3431 35.6569 26 34 26C32.3431 26 31 27.3431 31 29C31 30.6569 32.3431 32 34 32Z" stroke="#A3A3A3" stroke-miterlimit="10" stroke-linecap="round"/>
<path d="M51 38H45" stroke="#A3A3A3" stroke-miterlimit="10" stroke-linecap="round"/>
<path d="M35 38H23" stroke="#A3A3A3" stroke-miterlimit="10" stroke-linecap="round"/>
<path d="M40 41C41.6569 41 43 39.6569 43 38C43 36.3431 41.6569 35 40 35C38.3431 35 37 36.3431 37 38C37 39.6569 38.3431 41 40 41Z" stroke="#A3A3A3" stroke-miterlimit="10" stroke-linecap="round"/>
<path d="M51 47H41" stroke="#A3A3A3" stroke-miterlimit="10" stroke-linecap="round"/>
<path d="M31 47H23" stroke="#A3A3A3" stroke-miterlimit="10" stroke-linecap="round"/>
<path d="M36 50C37.6569 50 39 48.6569 39 47C39 45.3431 37.6569 44 36 44C34.3431 44 33 45.3431 33 47C33 48.6569 34.3431 50 36 50Z" stroke="#A3A3A3" stroke-miterlimit="10" stroke-linecap="round"/>
</svg>
