<svg width="60" height="53" viewBox="0 0 60 53" fill="none" xmlns="http://www.w3.org/2000/svg">
<path d="M17.5098 28.2972C25.255 28.2972 31.5602 21.9499 31.5602 14.1486C31.5602 6.34737 25.255 0 17.5098 0C9.7674 0 3.4668 6.34737 3.4668 14.1486C3.4668 21.9499 9.76806 28.2972 17.5098 28.2972Z" fill="#E0C91F"/>
<path d="M29.4952 26.1194C26.4311 29.2216 22.1911 31.1472 17.51 31.1472C12.8771 31.1472 8.67785 29.2577 5.62176 26.2076C1.85811 28.0216 0 30.7176 0 34.4485V47.492C1.88283 48.5363 6.4663 52.348 17.7412 52.348C29.1191 52.348 33.8615 48.6211 35.2733 47.6122V34.4465C35.2733 30.6441 33.3631 27.92 29.4952 26.1194Z" fill="#E0C91F"/>
<path d="M57.7669 8.80085H37.8976C36.6642 8.80085 35.666 7.80264 35.666 6.56925C35.666 5.33719 36.6642 4.33765 37.8976 4.33765H57.7669C58.9976 4.33765 59.9985 5.33719 59.9985 6.56925C59.9985 7.80264 58.9976 8.80085 57.7669 8.80085Z" fill="#D9D9D9"/>
<path d="M57.7669 21.4307H37.8976C36.6642 21.4307 35.666 20.4312 35.666 19.1991C35.666 17.9657 36.6642 16.9675 37.8976 16.9675H57.7669C58.9976 16.9675 59.9985 17.9657 59.9985 19.1991C59.9985 20.4305 58.9976 21.4307 57.7669 21.4307Z" fill="#D9D9D9"/>
<path d="M57.7683 34.0589H41.215C39.9816 34.0589 38.9834 33.0607 38.9834 31.8273C38.9834 30.5952 39.9816 29.5957 41.215 29.5957H57.7683C59.0003 29.5957 59.9999 30.5952 59.9999 31.8273C59.9999 33.0607 59.0003 34.0589 57.7683 34.0589Z" fill="#D9D9D9"/>
<path d="M57.7683 46.6878H41.215C39.9816 46.6878 38.9834 45.6883 38.9834 44.4562C38.9834 43.2228 39.9816 42.2246 41.215 42.2246H57.7683C59.0003 42.2246 59.9999 43.2228 59.9999 44.4562C59.9999 45.6883 59.0003 46.6878 57.7683 46.6878Z" fill="#D9D9D9"/>
</svg>
