<svg width="60" height="56" viewBox="0 0 60 56" fill="none" xmlns="http://www.w3.org/2000/svg">
<path d="M50.0606 18.6567H1.67131C0.748219 18.6567 0 17.9071 0 16.984V6.17924C0 5.25481 0.748219 4.50659 1.67131 4.50659H50.0606C50.985 4.50659 51.7332 5.25481 51.7332 6.17924V16.984C51.7332 17.9071 50.985 18.6567 50.0606 18.6567ZM3.34396 15.3127H48.3899V7.85055H3.34396V15.3127Z" fill="#D9D9D9"/>
<path d="M11.4096 12.5048C10.4865 12.5048 9.73828 11.7566 9.73828 10.8335V1.67265C9.73828 0.749554 10.4865 0 11.4096 0C12.334 0 13.0822 0.749554 13.0822 1.67265V10.8335C13.0822 11.7566 12.334 12.5048 11.4096 12.5048Z" fill="#D9D9D9"/>
<path d="M25.868 12.5048C24.9435 12.5048 24.1953 11.7566 24.1953 10.8335V1.67265C24.1953 0.749554 24.9435 0 25.868 0C26.7911 0 27.5393 0.749554 27.5393 1.67265V10.8335C27.5393 11.7566 26.7911 12.5048 25.868 12.5048Z" fill="#D9D9D9"/>
<path d="M40.323 12.5048C39.3986 12.5048 38.6504 11.7566 38.6504 10.8335V1.67265C38.6504 0.749554 39.3986 0 40.323 0C41.2461 0 41.9943 0.749554 41.9943 1.67265V10.8335C41.9943 11.7566 41.2455 12.5048 40.323 12.5048Z" fill="#D9D9D9"/>
<path d="M14.6651 25.542H9.59375V30.612H14.6651V25.542Z" fill="#D9D9D9"/>
<path d="M14.6651 40.0037H9.59375V45.0737H14.6651V40.0037Z" fill="#D9D9D9"/>
<path d="M42.5637 30.121C43.1618 30.392 43.8619 30.2892 44.3552 29.8574L51.1612 23.9157C51.525 23.5986 51.7332 23.1401 51.7332 22.6575V16.9861C51.7332 16.063 50.985 15.3135 50.0606 15.3135H1.67131C0.748219 15.3135 0 16.063 0 16.9861V53.9813C0 54.9057 0.748219 55.6526 1.67131 55.6526H45.1955C48.8011 55.6526 51.7332 52.7191 51.7332 49.1122V32.8416C51.7332 32.1754 51.3381 31.5734 50.7267 31.3084C50.1193 31.0441 49.4058 31.1649 48.9199 31.6214L42.1138 37.9877C41.7748 38.3034 41.5846 38.7452 41.5846 39.2078V44.5187H23.8903V26.1016H41.5846V29.7125C41.5846 30.3686 41.9663 29.8487 42.5637 30.121ZM17.452 46.1874C17.452 47.1118 16.7024 47.86 15.7793 47.86H8.47937C7.55628 47.86 6.80806 47.1118 6.80806 46.1874V38.8901C6.80806 37.967 7.55628 37.2174 8.47937 37.2174H15.78C16.7031 37.2174 17.4527 37.967 17.4527 38.8901V46.1874H17.452ZM17.452 31.7269C17.452 32.65 16.7024 33.3982 15.7793 33.3982H8.47937C7.55628 33.3982 6.80806 32.65 6.80806 31.7269V24.4283C6.80806 23.5038 7.55628 22.7556 8.47937 22.7556H15.78C16.7031 22.7556 17.4527 23.5038 17.4527 24.4283V31.7269H17.452Z" fill="#D9D9D9"/>
<path d="M32.7365 40.5621C32.6651 40.5621 32.5916 40.5567 32.5189 40.548C32.0443 40.4866 31.6178 40.2236 31.3495 39.8258L26.5211 32.662C26.0052 31.8958 26.2067 30.8566 26.9736 30.3413C27.7399 29.8227 28.7791 30.0269 29.2944 30.7912L33.0642 36.3858L57.2281 15.2968C57.923 14.6908 58.9802 14.7608 59.5876 15.457C60.195 16.1518 60.1222 17.2091 59.4274 17.8171L33.8358 40.1502C33.5294 40.4179 33.1383 40.5621 32.7365 40.5621Z" fill="#E0C91F"/>
</svg>
