<svg width="61" height="56" viewBox="0 0 61 56" fill="none" xmlns="http://www.w3.org/2000/svg">
<path d="M58.7496 14.4722L30.9287 0.751349C30.4836 0.533404 29.9683 0.533404 29.5246 0.751349L1.70827 14.4722C1.13802 14.7527 0.774414 15.3502 0.774414 16.0068C0.774414 16.6606 1.13802 17.2574 1.70827 17.5393L29.5246 31.2581C29.7465 31.3667 29.9862 31.4224 30.226 31.4224C30.4664 31.4224 30.7068 31.3667 30.9287 31.2581L58.7496 17.5393C59.3199 17.2574 59.6835 16.6606 59.6835 16.0068C59.6835 15.3502 59.3199 14.7527 58.7496 14.4722Z" fill="#E0C91F"/>
<path d="M30.2263 43.5553C29.9064 43.5553 29.5871 43.4831 29.2898 43.3373L1.4741 29.6178C0.385927 29.0809 -0.0763642 27.7313 0.439574 26.6024C0.956176 25.4735 2.25563 24.9929 3.34579 25.5285L30.2249 38.7859L57.1114 25.5285C58.1969 24.9922 59.4997 25.4714 60.0163 26.6024C60.5329 27.732 60.0712 29.0809 58.9817 29.6178L31.1621 43.3373C30.8661 43.4824 30.5462 43.5553 30.2263 43.5553Z" fill="#D9D9D9"/>
<path d="M30.2263 55.1238C29.9064 55.1238 29.5871 55.0516 29.2898 54.9059L1.4741 41.187C0.385927 40.6508 -0.0763642 39.2991 0.439574 38.1695C0.956175 37.0385 2.25563 36.5593 3.34579 37.0956L30.2249 50.3524L57.112 37.0956C58.1995 36.5593 59.5003 37.0385 60.0169 38.1695C60.5335 39.2991 60.0719 40.6501 58.9837 41.187L31.1621 54.9059C30.866 55.0516 30.5462 55.1238 30.2263 55.1238Z" fill="#D9D9D9"/>
</svg>
