<svg width="16" height="20" viewBox="0 0 16 20" fill="none" xmlns="http://www.w3.org/2000/svg">
<path d="M8 10.625C7.0111 10.625 6.0444 10.3318 5.22215 9.78235C4.39991 9.23294 3.75904 8.45205 3.3806 7.53842C3.00217 6.62479 2.90315 5.61946 3.09608 4.64955C3.289 3.67965 3.76521 2.78873 4.46447 2.08947C5.16373 1.39021 6.05465 0.914002 7.02455 0.721076C7.99446 0.52815 8.99979 0.627166 9.91342 1.0056C10.8271 1.38404 11.6079 2.02491 12.1574 2.84715C12.7068 3.6694 13 4.6361 13 5.625C13 6.95109 12.4732 8.22285 11.5355 9.16054C10.5979 10.0982 9.32609 10.625 8 10.625ZM8 1.875C7.25832 1.875 6.5333 2.09494 5.91661 2.50699C5.29993 2.91905 4.81928 3.50472 4.53545 4.18994C4.25163 4.87516 4.17736 5.62916 4.32206 6.35659C4.46675 7.08402 4.8239 7.75221 5.34835 8.27665C5.8728 8.8011 6.54098 9.15825 7.26841 9.30295C7.99584 9.44764 8.74984 9.37338 9.43507 9.08955C10.1203 8.80572 10.706 8.32508 11.118 7.70839C11.5301 7.09171 11.75 6.36668 11.75 5.625C11.75 4.63044 11.3549 3.67661 10.6517 2.97335C9.94839 2.27009 8.99456 1.875 8 1.875Z" fill="#BE9600"/>
<path d="M12.375 19.3751H3.625C2.7962 19.3751 2.00134 19.0458 1.41529 18.4598C0.82924 17.8737 0.5 17.0789 0.5 16.2501V13.7501C0.500019 13.6416 0.528265 13.535 0.58196 13.4408C0.635655 13.3465 0.712952 13.2679 0.80625 13.2126L3.93125 11.3376C4.07224 11.2738 4.23186 11.2647 4.37922 11.3119C4.52658 11.359 4.6512 11.4592 4.72896 11.593C4.80673 11.7267 4.83212 11.8846 4.80022 12.036C4.76831 12.1874 4.68138 12.3216 4.55625 12.4126L1.75 14.1063V16.2501C1.75 16.7473 1.94754 17.2242 2.29917 17.5759C2.65081 17.9275 3.12772 18.1251 3.625 18.1251H12.375C12.8723 18.1251 13.3492 17.9275 13.7008 17.5759C14.0525 17.2242 14.25 16.7473 14.25 16.2501V14.1063L11.4312 12.4126C11.3516 12.3765 11.2803 12.3242 11.2221 12.2589C11.1639 12.1936 11.1201 12.1169 11.0934 12.0336C11.0667 11.9503 11.0579 11.8623 11.0673 11.7754C11.0768 11.6885 11.1044 11.6045 11.1483 11.5289C11.1923 11.4533 11.2516 11.3877 11.3225 11.3365C11.3934 11.2853 11.4742 11.2495 11.5598 11.2314C11.6453 11.2134 11.7337 11.2135 11.8193 11.2318C11.9048 11.2501 11.9855 11.2861 12.0562 11.3376L15.1812 13.2126C15.2769 13.2663 15.3567 13.3443 15.4126 13.4386C15.4686 13.533 15.4987 13.6404 15.5 13.7501V16.2501C15.5 17.0789 15.1708 17.8737 14.5847 18.4598C13.9987 19.0458 13.2038 19.3751 12.375 19.3751Z" fill="#BE9600"/>
</svg>
