<svg width="15" height="16" viewBox="0 0 15 16" fill="none" xmlns="http://www.w3.org/2000/svg">
<path d="M10.24 16H3.76C2.44 16 1.4 14.92 1.4 13.64V6.4C1.4 6.16 1.56 6 1.8 6C2.04 6 2.2 6.16 2.2 6.4V13.64C2.2 14.52 2.92 15.2 3.76 15.2H10.24C11.12 15.2 11.8 14.48 11.8 13.64V6.4C11.8 6.16 11.96 6 12.2 6C12.44 6 12.6 6.16 12.6 6.4V13.64C12.6 14.92 11.52 16 10.24 16Z" fill="#A3A3A3"/>
<path d="M12.36 1.96H9.32C9.12 0.84 8.16 0 7 0C5.84 0 4.88 0.84 4.68 1.96H1.64C0.72 1.96 0 2.68 0 3.6C0 4.52 0.72 5.2 1.64 5.2H12.4C13.32 5.2 14.04 4.48 14.04 3.56C14.04 2.64 13.28 1.96 12.36 1.96ZM7 0.8C7.72 0.8 8.32 1.28 8.48 1.96H5.48C5.68 1.28 6.28 0.8 7 0.8ZM12.36 4.4H1.64C1.2 4.4 0.8 4.04 0.8 3.56C0.8 3.12 1.16 2.72 1.64 2.72H12.4C12.84 2.72 13.24 3.08 13.24 3.56C13.2 4.04 12.84 4.4 12.36 4.4Z" fill="#A3A3A3"/>
<path d="M4.2 14.0393C3.96 14.0393 3.8 13.8793 3.8 13.6393V6.95933C3.8 6.71933 3.96 6.55933 4.2 6.55933C4.44 6.55933 4.6 6.71933 4.6 6.95933V13.6393C4.6 13.8393 4.4 14.0393 4.2 14.0393Z" fill="#A3A3A3"/>
<path d="M9.8 14.0393C9.56 14.0393 9.4 13.8793 9.4 13.6393V6.95933C9.4 6.71933 9.56 6.55933 9.8 6.55933C10.04 6.55933 10.2 6.71933 10.2 6.95933V13.6393C10.2 13.8393 10 14.0393 9.8 14.0393Z" fill="#A3A3A3"/>
<path d="M7 14.0393C6.76 14.0393 6.6 13.8793 6.6 13.6393V6.95933C6.6 6.71933 6.76 6.55933 7 6.55933C7.24 6.55933 7.4 6.71933 7.4 6.95933V13.6393C7.4 13.8393 7.2 14.0393 7 14.0393Z" fill="#A3A3A3"/>
</svg>
