<svg width="167" height="77" viewBox="0 0 167 77" fill="none" xmlns="http://www.w3.org/2000/svg">
<path d="M48.8066 0.144402V54H47.1236L10.3083 3.3H10.0979V54H8.41494V0.144402H10.0979L46.9133 50.8444H47.1236V0.144402H48.8066ZM67.2998 0.144402V54H65.6168V0.144402H67.2998ZM84.1296 54V0.144402H85.8126V33.699H86.023L116.527 0.144402H118.841L95.0691 26.2307L118.526 54H116.317L93.912 27.4929L85.8126 36.4338V54H84.1296ZM125.553 54H123.765L143.014 0.144402H145.329L164.578 54H162.79L144.277 2.24813H144.066L125.553 54ZM131.654 34.1197H156.689V35.8027H131.654V34.1197Z" fill="white"/>
<path d="M39.7701 69.0828H38.5256C38.452 68.7248 38.3232 68.4104 38.1392 68.1394C37.9586 67.8684 37.7378 67.6409 37.4768 67.4569C37.2192 67.2696 36.9332 67.1291 36.6187 67.0354C36.3042 66.9417 35.9764 66.8949 35.6351 66.8949C35.0129 66.8949 34.4492 67.0521 33.944 67.3666C33.4422 67.6811 33.0424 68.1444 32.7446 68.7566C32.4502 69.3689 32.303 70.1199 32.303 71.0098C32.303 71.8997 32.4502 72.6508 32.7446 73.263C33.0424 73.8752 33.4422 74.3385 33.944 74.653C34.4492 74.9675 35.0129 75.1247 35.6351 75.1247C35.9764 75.1247 36.3042 75.0779 36.6187 74.9842C36.9332 74.8905 37.2192 74.7517 37.4768 74.5677C37.7378 74.3804 37.9586 74.1512 38.1392 73.8802C38.3232 73.6059 38.452 73.2914 38.5256 72.9368H39.7701C39.6764 73.462 39.5058 73.9321 39.2583 74.3469C39.0107 74.7617 38.7029 75.1147 38.3349 75.4057C37.9669 75.6935 37.5538 75.9126 37.0954 76.0631C36.6404 76.2137 36.1537 76.2889 35.6351 76.2889C34.7586 76.2889 33.9791 76.0748 33.2966 75.6466C32.6142 75.2184 32.0772 74.6095 31.6858 73.82C31.2944 73.0305 31.0987 72.0937 31.0987 71.0098C31.0987 69.9259 31.2944 68.9891 31.6858 68.1996C32.0772 67.4101 32.6142 66.8012 33.2966 66.373C33.9791 65.9448 34.7586 65.7307 35.6351 65.7307C36.1537 65.7307 36.6404 65.8059 37.0954 65.9565C37.5538 66.107 37.9669 66.3278 38.3349 66.6189C38.7029 66.9066 39.0107 67.2579 39.2583 67.6727C39.5058 68.0842 39.6764 68.5542 39.7701 69.0828ZM53.6514 76.1484V65.8712H54.8959V75.0444H59.6733V76.1484H53.6514ZM74.715 65.8712V76.1484H73.4705V65.8712H74.715ZM97.2301 65.8712V76.1484H96.0257L90.4254 68.0792H90.3251V76.1484H89.0806V65.8712H90.2849L95.9053 73.9605H96.0057V65.8712H97.2301ZM112.835 65.8712V76.1484H111.591V65.8712H112.835ZM135.471 69.0828H134.226C134.153 68.7248 134.024 68.4104 133.84 68.1394C133.659 67.8684 133.438 67.6409 133.177 67.4569C132.92 67.2696 132.634 67.1291 132.319 67.0354C132.005 66.9417 131.677 66.8949 131.336 66.8949C130.713 66.8949 130.15 67.0521 129.645 67.3666C129.143 67.6811 128.743 68.1444 128.445 68.7566C128.151 69.3689 128.004 70.1199 128.004 71.0098C128.004 71.8997 128.151 72.6508 128.445 73.263C128.743 73.8752 129.143 74.3385 129.645 74.653C130.15 74.9675 130.713 75.1247 131.336 75.1247C131.677 75.1247 132.005 75.0779 132.319 74.9842C132.634 74.8905 132.92 74.7517 133.177 74.5677C133.438 74.3804 133.659 74.1512 133.84 73.8802C134.024 73.6059 134.153 73.2914 134.226 72.9368H135.471C135.377 73.462 135.206 73.9321 134.959 74.3469C134.711 74.7617 134.403 75.1147 134.035 75.4057C133.667 75.6935 133.254 75.9126 132.796 76.0631C132.341 76.2137 131.854 76.2889 131.336 76.2889C130.459 76.2889 129.68 76.0748 128.997 75.6466C128.315 75.2184 127.778 74.6095 127.386 73.82C126.995 73.0305 126.799 72.0937 126.799 71.0098C126.799 69.9259 126.995 68.9891 127.386 68.1996C127.778 67.4101 128.315 66.8012 128.997 66.373C129.68 65.9448 130.459 65.7307 131.336 65.7307C131.854 65.7307 132.341 65.8059 132.796 65.9565C133.254 66.107 133.667 66.3278 134.035 66.6189C134.403 66.9066 134.711 67.2579 134.959 67.6727C135.206 68.0842 135.377 68.5542 135.471 69.0828Z" fill="white"/>
</svg>
