<svg width="300" height="16" viewBox="0 0 300 16" fill="none" xmlns="http://www.w3.org/2000/svg">
<path d="M-15 3C-5.2623 3 -5.26236 13 4.49606 13C14.2545 13 14.2338 3 23.9922 3C33.7507 3 33.7299 13 43.4883 13C53.2467 13 53.2261 3 62.9845 3C72.7429 3 72.7221 13 82.4805 13C92.2389 13 92.2183 3 101.977 3C111.735 3 111.735 13 121.473 13C131.21 13 131.231 3 140.969 3C150.707 3 150.727 13 160.465 13C170.203 13 170.223 3 179.961 3C189.699 3 189.72 13 199.457 13C209.195 13 209.216 3 218.974 3C228.732 3 228.712 13 238.47 13C248.229 13 248.229 3 257.966 3C267.704 3 267.725 13 277.483 13C287.241 13 287.242 3 297 3" stroke="url(#paint0_linear_234_9626)" stroke-width="5" stroke-miterlimit="10" stroke-linecap="round"/>
<defs>
<linearGradient id="paint0_linear_234_9626" x1="27.5" y1="-12" x2="296.232" y2="24.5094" gradientUnits="userSpaceOnUse">
<stop stop-color="#F2403E"/>
<stop offset="0.630208" stop-color="#00974C"/>
</linearGradient>
</defs>
</svg>
