<svg width="317" height="16" viewBox="0 0 317 16" fill="none" xmlns="http://www.w3.org/2000/svg">
<path d="M3 3C12.7377 3 12.7376 13 22.4961 13C32.2545 13 32.2338 3 41.9922 3C51.7507 3 51.7299 13 61.4883 13C71.2467 13 71.2261 3 80.9845 3C90.7429 3 90.7221 13 100.481 13C110.239 13 110.218 3 119.977 3C129.735 3 129.735 13 139.473 13C149.21 13 149.231 3 158.969 3C168.707 3 168.727 13 178.465 13C188.203 13 188.223 3 197.961 3C207.699 3 207.72 13 217.457 13C227.195 13 227.216 3 236.974 3C246.732 3 246.712 13 256.47 13C266.229 13 266.229 3 275.966 3C285.704 3 285.725 13 295.483 13C305.241 13 305.242 3 315 3" stroke="url(#paint0_linear_234_9646)" stroke-width="5" stroke-miterlimit="10" stroke-linecap="round"/>
<defs>
<linearGradient id="paint0_linear_234_9646" x1="45.5" y1="-12" x2="314.232" y2="24.5094" gradientUnits="userSpaceOnUse">
<stop stop-color="#F2403E"/>
<stop offset="0.630208" stop-color="#00974C"/>
</linearGradient>
</defs>
</svg>
