<svg width="15" height="15" viewBox="0 0 15 15" fill="none" xmlns="http://www.w3.org/2000/svg">
<path d="M14.0445 10.3125V8.4375H12.1901L11.2538 7.5L7.49927 11.25L8.42667 12.1875C8.42667 13.1747 8.42667 14.0255 8.42667 15C8.89482 15 9.83112 15 10.2993 15C10.2993 14.0625 10.2993 13.2816 10.2993 12.1875H12.1719V15C12.64 15 13.5763 15 14.0445 15C14.0445 14.0625 14.0445 13.2816 14.0445 12.1875L14.9808 11.25L14.0445 10.3125Z" fill="#015FC9"/>
<path d="M5.62813 0H5.62719H5.62672C2.66287 0.0084375 0.436343 2.22938 0.0768039 4.79859C0.0290526 5.1375 2.72488e-05 5.44922 2.72488e-05 5.75531C-0.0032498 6.69234 0.288876 7.51172 0.974248 8.7225C1.66196 9.94312 2.76399 11.6203 4.48959 14.4033L4.50035 14.4206L4.513 14.4375C4.78827 14.8059 5.2096 15 5.62298 15H5.62766H5.63234C6.04572 15 6.46705 14.8059 6.74186 14.4375L6.75403 14.4211L6.7648 14.4038C7.14213 13.7953 7.48949 13.2394 7.80971 12.7294L7.01713 12.2306C6.70206 12.7327 6.35938 13.2806 5.98814 13.8787C5.89451 14.0002 5.76576 14.0578 5.62719 14.0616C5.48862 14.0578 5.35988 14.0002 5.26625 13.8787C3.54767 11.1084 2.44564 9.42703 1.79023 8.26219C1.12967 7.08281 0.939605 6.48844 0.936328 5.75531C0.936328 5.50969 0.959735 5.24156 1.00374 4.92891C1.30289 2.80359 3.15489 0.939375 5.62719 0.9375C8.09949 0.939375 9.9515 2.80359 10.2502 4.92891C10.2942 5.24156 10.3176 5.50969 10.3176 5.75531C10.3171 6.08625 10.2769 6.37875 10.1776 6.71297L11.0746 6.98203C11.1996 6.56672 11.2544 6.16687 11.2539 5.75578C11.2539 5.44969 11.2249 5.13797 11.1771 4.79906C10.8176 2.22938 8.59105 0.0084375 5.62813 0Z" fill="#97A2B7"/>
<path d="M3.76343 5.625C3.76436 6.66 4.60235 7.49906 5.63603 7.5C6.6697 7.49906 7.50769 6.66 7.50863 5.625C7.50769 4.59 6.6697 3.75094 5.63603 3.75C4.60235 3.75094 3.76436 4.59 3.76343 5.625ZM6.57233 5.625C6.57139 6.14062 6.15099 6.56156 5.63603 6.5625C5.12106 6.56156 4.70066 6.14062 4.69973 5.625C4.70066 5.10938 5.12106 4.68844 5.63603 4.6875C6.15146 4.68844 6.57186 5.10938 6.57233 5.625Z" fill="#97A2B7"/>
</svg>
