<svg width="52" height="48" viewBox="0 0 52 48" fill="none" xmlns="http://www.w3.org/2000/svg">
<path d="M26.9367 25.6051L31.9894 24.6578C33.6736 25.3946 35.4631 25.7104 37.4631 25.3946C41.8841 24.763 45.4631 21.1841 45.9894 16.763C46.7262 10.342 41.2525 4.86828 34.8315 5.71038C30.4104 6.2367 26.8315 9.81565 26.1999 14.342C25.8841 16.763 26.5157 19.0788 27.6736 20.8683L26.8315 25.4999C26.8315 25.6051 26.9367 25.6051 26.9367 25.6051Z" stroke="white" stroke-width="2" stroke-miterlimit="10"/>
<path d="M29.884 38.5528H33.463C34.6209 38.5528 35.5682 37.6054 35.5682 36.4475C35.5682 35.2897 34.6209 34.3423 33.463 34.3423H29.884" stroke="white" stroke-width="2" stroke-miterlimit="10"/>
<path d="M28.4106 42.6578H31.2528C32.4106 42.6578 33.358 41.7104 33.358 40.5525C33.358 39.3946 32.4106 38.4473 31.2528 38.4473H28.4106" stroke="white" stroke-width="2" stroke-miterlimit="10"/>
<path d="M28.2 42.6582H29.0421C30.2 42.6582 31.1474 43.6056 31.1474 44.7635C31.1474 45.9214 30.2 46.8687 29.0421 46.8687H17.2526C16.7263 46.8687 16.2 46.6582 15.8842 46.2372L13.779 44.1319C13.4632 43.8161 13.0421 43.6056 12.6211 43.6056H11.3579" stroke="white" stroke-width="2" stroke-miterlimit="10"/>
<path d="M28.4105 34.3424H32.621C33.7789 34.3424 34.7263 33.395 34.7263 32.2371C34.7263 31.0792 33.7789 30.1319 32.621 30.1319H24.7263H19.7789C19.7789 30.1319 21.4631 25.8161 21.4631 23.8161C21.4631 22.8687 21.6736 20.974 21.1473 20.1319C20.9368 19.8161 19.2526 19.8161 19.0421 20.1319C19.0421 20.1319 17.4631 24.974 16.4105 26.4477C15.7789 27.2898 13.5684 30.2371 13.5684 30.2371H12.2" stroke="white" stroke-width="2" stroke-miterlimit="10"/>
<path d="M0.199951 28.0264H11.5684C11.6736 28.0264 11.6736 28.0264 11.6736 28.1316V45.5001C11.6736 45.6053 11.6736 45.6053 11.5684 45.6053H0.199951" stroke="white" stroke-width="2" stroke-miterlimit="10"/>
<path d="M36.0947 1.5C43.8842 1.5 50.2 7.81579 50.2 15.6053C50.2 23.3947 43.8842 29.7105 36.0947 29.7105" stroke="white" stroke-width="2" stroke-miterlimit="10"/>
<path d="M21.9893 15.6053C21.9893 7.81579 28.305 1.5 36.0945 1.5" stroke="white" stroke-width="2" stroke-miterlimit="10" stroke-dasharray="1.99 1.99"/>
<path d="M30.8315 12.3418H41.1473" stroke="white" stroke-width="2" stroke-miterlimit="10"/>
<path d="M30.9368 15.605H41.2526" stroke="white" stroke-width="2" stroke-miterlimit="10"/>
<path d="M31.042 18.9736H36.1999" stroke="white" stroke-width="2" stroke-miterlimit="10"/>
</svg>
