<svg width="48" height="52" viewBox="0 0 48 52" fill="none" xmlns="http://www.w3.org/2000/svg">
<path d="M24.0594 51.0004H1.45662C1.22831 51.0004 1 50.7721 1 50.5438V18.2379C1 18.0096 1.22831 17.7812 1.45662 17.7812H24.0594C24.2877 17.7812 24.516 18.0096 24.516 18.2379V50.5438C24.516 50.7721 24.2877 51.0004 24.0594 51.0004Z" stroke="white" stroke-width="2" stroke-miterlimit="10"/>
<path d="M21.0912 27.5981H4.42456V21.5479" stroke="white" stroke-width="2" stroke-miterlimit="10"/>
<path d="M5.22363 34.3335H7.05012" stroke="white" stroke-width="2" stroke-miterlimit="10"/>
<path d="M9.56152 34.3335H11.388" stroke="white" stroke-width="2" stroke-miterlimit="10"/>
<path d="M13.8997 34.3335H15.8403" stroke="white" stroke-width="2" stroke-miterlimit="10"/>
<path d="M18.2375 34.3335H20.1782" stroke="white" stroke-width="2" stroke-miterlimit="10"/>
<path d="M5.22363 38.1006H7.16427" stroke="white" stroke-width="2" stroke-miterlimit="10"/>
<path d="M9.67603 38.1006H11.5025" stroke="white" stroke-width="2" stroke-miterlimit="10"/>
<path d="M14.0137 38.1006H15.9543" stroke="white" stroke-width="2" stroke-miterlimit="10"/>
<path d="M18.3516 38.1006H20.2922" stroke="white" stroke-width="2" stroke-miterlimit="10"/>
<path d="M5.33789 41.8677H7.27853" stroke="white" stroke-width="2" stroke-miterlimit="10"/>
<path d="M9.78979 41.8677H11.6163" stroke="white" stroke-width="2" stroke-miterlimit="10"/>
<path d="M14.1279 41.8677H16.0686" stroke="white" stroke-width="2" stroke-miterlimit="10"/>
<path d="M18.4658 41.8677H20.4065" stroke="white" stroke-width="2" stroke-miterlimit="10"/>
<path d="M5.4519 45.5205H7.39254" stroke="white" stroke-width="2" stroke-miterlimit="10"/>
<path d="M9.90405 45.5205H11.7305" stroke="white" stroke-width="2" stroke-miterlimit="10"/>
<path d="M14.2422 45.5205H16.1828" stroke="white" stroke-width="2" stroke-miterlimit="10"/>
<path d="M18.5798 45.5205H20.5205" stroke="white" stroke-width="2" stroke-miterlimit="10"/>
<path d="M10.3606 13.3288C11.8446 6.25114 18.009 1 25.4291 1C33.9907 1 40.84 7.84931 40.84 16.411C40.84 24.4018 34.7898 30.9087 27.0273 31.7078" stroke="white" stroke-width="2" stroke-miterlimit="10"/>
<path d="M46.4336 16.5254C46.4336 27.3701 38.2144 36.2742 27.7122 37.4158" stroke="white" stroke-width="2" stroke-miterlimit="10" stroke-dasharray="1.99 1.99"/>
<path d="M25.6577 2.02734V16.4109H40.6121" stroke="white" stroke-width="2" stroke-miterlimit="10"/>
<path d="M36.3882 16.411L40.3836 12.4155" stroke="white" stroke-width="2" stroke-miterlimit="10"/>
<path d="M31.0229 16.1826L38.6713 8.53418" stroke="white" stroke-width="2" stroke-miterlimit="10"/>
<path d="M25.886 15.7261L36.16 5.45215" stroke="white" stroke-width="2" stroke-miterlimit="10"/>
<path d="M25.7717 10.3606L33.0777 3.05469" stroke="white" stroke-width="2" stroke-miterlimit="10"/>
<path d="M25.5435 4.99546L28.854 1.5708" stroke="white" stroke-width="2" stroke-miterlimit="10"/>
</svg>
