<svg width="52" height="51" viewBox="0 0 52 51" fill="none" xmlns="http://www.w3.org/2000/svg">
<path d="M25.0867 29.7676H18.009C17.5524 29.7676 17.21 29.4251 17.21 28.9685V27.2562C17.21 26.7995 17.4383 26.2288 17.8949 26.0005L23.146 22.1192C23.6027 21.7767 23.9451 21.2059 23.9451 20.6352V19.8361C23.9451 19.037 23.2602 18.3521 22.4611 18.3521H18.694C17.8949 18.3521 17.21 19.037 17.21 19.8361V20.4068" stroke="white" stroke-width="2" stroke-miterlimit="10"/>
<path d="M32.7352 30.795V18.3521H31.4795L26 24.9731V25.0872H35.9315" stroke="white" stroke-width="2" stroke-miterlimit="10"/>
<path d="M25.201 49.8585H20.4064C19.379 49.8585 18.58 49.0594 18.58 48.032C18.58 47.0047 19.379 46.2056 20.4064 46.2056H25.201C26.2284 46.2056 27.0274 47.0047 27.0274 48.032C27.0274 49.0594 26.2284 49.8585 25.201 49.8585Z" stroke="white" stroke-width="2" stroke-miterlimit="10"/>
<path d="M8.30594 29.8809H4.42466C2.59817 29.8809 1 28.3969 1 26.4563V21.4334C1 19.607 2.48402 18.0088 4.42466 18.0088H8.30594V29.8809Z" stroke="white" stroke-width="2" stroke-miterlimit="10"/>
<path d="M43.6941 29.8809H47.5754C49.4019 29.8809 51 28.3969 51 26.4563V21.4334C51 19.607 49.516 18.0088 47.5754 18.0088H43.6941V29.8809Z" stroke="white" stroke-width="2" stroke-miterlimit="10"/>
<path d="M43.3517 14.9269C41.6393 6.93607 34.4476 1 26.0001 1C16.9818 1 9.44756 7.84931 8.42017 16.6393" stroke="white" stroke-width="2" stroke-miterlimit="10" stroke-dasharray="1.99 1.99"/>
<path d="M26 48.0321C35.7032 48.0321 43.6941 40.0412 43.6941 30.338V26.6851" stroke="white" stroke-width="2" stroke-miterlimit="10"/>
</svg>
