<svg width="51" height="50" viewBox="0 0 51 50" fill="none" xmlns="http://www.w3.org/2000/svg">
<path d="M35.0859 15.4766L31.0234 14.5391C30.5938 14.4219 30.125 14.6562 29.9297 15.0859L28.0547 19.4609C27.8984 19.8516 28.0156 20.2812 28.3281 20.5547L30.7109 22.5078C29.3047 25.4766 26.8438 27.9766 23.7969 29.4219L21.8438 27.0391C21.5703 26.7266 21.1406 26.6094 20.75 26.7656L16.375 28.6406C15.9453 28.8359 15.75 29.3047 15.8281 29.7344L16.7656 33.7969C16.8828 34.2266 17.2344 34.5 17.7031 34.5C27.7031 34.5 35.8281 26.4141 35.8281 16.375C35.8281 15.9453 35.5156 15.5938 35.0859 15.4766Z" fill="#015FC9"/>
<rect x="1.82812" y="1" width="48" height="48" rx="24" stroke="#E0E4E8" stroke-width="2"/>
</svg>
