<svg width="46" height="40" viewBox="0 0 46 40" fill="none" xmlns="http://www.w3.org/2000/svg">
<path d="M36.4105 3.78709C36.4105 1.70005 34.7132 0 32.6262 0H13.7971C11.7102 0 10.014 1.70005 10.014 3.78709V15.8719C10.014 17.9587 11.7103 19.6578 13.7971 19.6578H32.6263C34.7132 19.6578 36.4106 17.9587 36.4106 15.8719L36.4105 3.78709ZM34.8219 15.8719C34.8219 17.0825 33.8361 18.0681 32.6262 18.0681H13.7971C12.5871 18.0681 11.6014 17.0825 11.6014 15.8719V3.78709C11.6014 2.57536 12.587 1.59075 13.7971 1.59075H32.6263C33.8362 1.59075 34.822 2.57536 34.822 3.78709L34.8219 15.8719ZM33.7607 3.78709V15.8719C33.7607 16.5001 33.2523 17.0086 32.6263 17.0086H13.7971C13.1733 17.0086 12.6605 16.5001 12.6605 15.8719V3.78709C12.6605 3.15875 13.1733 2.6504 13.7971 2.6504H32.6263C33.2523 2.6504 33.7607 3.15875 33.7607 3.78709ZM10.1494 33.8335V38.7778C10.1494 39.4516 9.59986 40 8.92503 40H1.22215C0.549403 40 0 39.4517 0 38.7778V33.8335C0 33.1585 0.549493 32.608 1.22215 32.608H8.92503C9.59986 32.608 10.1494 33.1586 10.1494 33.8335ZM45.4686 33.8335V38.7778C45.4686 39.4516 44.9192 40 44.2443 40H36.5426C35.8676 40 35.3193 39.4517 35.3193 38.7778V33.8335C35.3193 33.1585 35.8677 32.608 36.5426 32.608H44.2443C44.9192 32.608 45.4686 33.1586 45.4686 33.8335ZM28.2858 33.8335V38.7778C28.2858 39.4516 27.7375 40 27.0625 40H19.3608C18.6859 40 18.1375 39.4517 18.1375 38.7778V33.8335C18.1375 33.1585 18.6859 32.608 19.3608 32.608H27.0625C27.7375 32.608 28.2858 33.1586 28.2858 33.8335Z" fill="white"/>
<path d="M40.3943 30.1001C39.957 30.1001 39.5984 29.7449 39.5984 29.3059C39.5984 28.0953 38.6137 27.1096 37.4016 27.1096H8.06443C6.85451 27.1096 5.86873 28.0954 5.86873 29.3059C5.86873 29.7449 5.51354 30.1001 5.07389 30.1001C4.63533 30.1001 4.28015 29.7449 4.28015 29.3059C4.28015 27.2189 5.97748 25.52 8.06443 25.52H37.4015C39.4885 25.52 41.1913 27.219 41.1913 29.3059C41.1913 29.7449 40.8328 30.1001 40.3943 30.1001Z" fill="white"/>
<path d="M23.1548 30.1002C22.7153 30.1002 22.3579 29.745 22.3579 29.306V23.1184C22.3579 22.6794 22.7153 22.3242 23.1548 22.3242C23.5922 22.3242 23.9475 22.6794 23.9475 23.1184V29.306C23.9475 29.745 23.5922 30.1002 23.1548 30.1002Z" fill="white"/>
<path d="M26.6094 23.3761H19.6969C19.2584 23.3761 18.901 23.0209 18.901 22.5835C18.901 22.1444 19.2585 21.7881 19.6969 21.7881H26.6094C27.049 21.7881 27.4053 22.1444 27.4053 22.5835C27.4053 23.0208 27.049 23.3761 26.6094 23.3761Z" fill="white"/>
<path d="M7.35839 30.5681H2.78934C2.34978 30.5681 1.99451 30.2117 1.99451 29.7739C1.99451 29.3338 2.34969 28.9785 2.78934 28.9785H7.35839C7.79577 28.9785 8.15331 29.3337 8.15331 29.7739C8.15322 30.2117 7.79577 30.5681 7.35839 30.5681Z" fill="white"/>
<path d="M42.6768 30.5681H38.1099C37.6703 30.5681 37.3151 30.2117 37.3151 29.7739C37.3151 29.3338 37.6703 28.9785 38.1099 28.9785H42.6768C43.1185 28.9785 43.4737 29.3337 43.4737 29.7739C43.4738 30.2117 43.1185 30.5681 42.6768 30.5681Z" fill="white"/>
<path d="M25.4971 30.5681H20.928C20.4884 30.5681 20.1321 30.2117 20.1321 29.7739C20.1321 29.3338 20.4884 28.9785 20.928 28.9785H25.4971C25.9344 28.9785 26.2896 29.3337 26.2896 29.7739C26.2896 30.2117 25.9344 30.5681 25.4971 30.5681Z" fill="white"/>
</svg>
