<svg width="43" height="40" viewBox="0 0 43 40" fill="none" xmlns="http://www.w3.org/2000/svg">
<path d="M10.6668 5.3335H2.66678C1.19274 5.3335 0 6.52878 0 8.0001V37.3337C0 38.8075 1.19274 40 2.66678 40H10.6668C12.1408 40 13.3334 38.8075 13.3334 37.3337V8.0001C13.3333 6.52878 12.1407 5.3335 10.6668 5.3335ZM4.00012 32.0001C3.26306 32.0001 2.66678 31.4038 2.66678 30.6663C2.66678 29.9297 3.26306 29.3334 4.00012 29.3334C4.73701 29.3334 5.33329 29.9297 5.33329 30.6663C5.33329 31.4038 4.73701 32.0001 4.00012 32.0001ZM10.6668 16.0001H2.66678V13.3336H10.6668L10.6668 16.0001ZM10.6668 10.6668H2.66678V8.0001H10.6668L10.6668 10.6668Z" fill="white"/>
<path d="M28.0003 34.6663V32H20V34.6663C18.5263 34.6663 17.3333 35.8593 17.3333 37.3335H30.6666C30.6666 35.8593 29.4741 34.6663 28.0003 34.6663Z" fill="white"/>
<path d="M40.0002 0H8.00003C6.52608 0 5.33325 1.19529 5.33325 2.66678H8.00003H16.0001H40.0003V23.9999H16V29.3334H40.0002C41.4739 29.3334 42.6666 28.1409 42.6666 26.6662V2.66669C42.6666 1.1952 41.4738 0 40.0002 0ZM24.0001 28.0001C23.263 28.0001 22.6667 27.4041 22.6667 26.6662C22.6667 25.9296 23.263 25.3333 24.0001 25.3333C24.7372 25.3333 25.3335 25.9296 25.3335 26.6662C25.3335 27.4041 24.7371 28.0001 24.0001 28.0001Z" fill="white"/>
</svg>
