<svg width="40" height="34" viewBox="0 0 40 34" fill="none" xmlns="http://www.w3.org/2000/svg">
<path d="M9.4 1.99976C9.4 1.90797 9.42218 1.72812 9.5764 1.57617C9.72843 1.42195 9.90757 1.39976 10 1.39976H27.0002V2.99999C27.0002 3.51179 27.1952 4.02359 27.5852 4.41421C27.9766 4.80444 28.4884 4.99983 29 4.99983H30.6V15.6002H31.9997V4.99999V4.99976L27.0002 0H10C9.48742 0 8.97562 0.196015 8.58656 0.586405C8.19656 0.97617 8 1.48804 8 1.99984V15.6002H9.4V1.99976Z" fill="white"/>
<path d="M28.2001 13.3999H11.7999C11.5253 13.3999 11.3003 13.6247 11.3003 13.8999C11.3003 14.1749 11.5253 14.4003 11.7999 14.4003H28.2001C28.4753 14.4003 28.7003 14.1749 28.7003 13.8999C28.7003 13.6247 28.4753 13.3999 28.2001 13.3999Z" fill="white"/>
<path d="M28.2001 10.7002H11.7999C11.5253 10.7002 11.3003 10.9252 11.3003 11.2002C11.3003 11.4752 11.5253 11.7002 11.7999 11.7002H28.2001C28.4753 11.7002 28.7003 11.475 28.7003 11.2002C28.7003 10.9252 28.4753 10.7002 28.2001 10.7002Z" fill="white"/>
<path d="M28.2001 8H11.7999C11.5253 8 11.3003 8.22461 11.3003 8.49961C11.3003 8.77484 11.5253 8.99984 11.7999 8.99984H28.2001C28.4753 8.99984 28.7003 8.77484 28.7003 8.49961C28.7003 8.22453 28.4753 7.99977 28.2001 8Z" fill="white"/>
<path d="M11.7999 6.2998H24.9995C25.2755 6.2998 25.4999 6.0748 25.4999 5.7998C25.4999 5.5248 25.2755 5.2998 24.9996 5.2998H11.7999C11.5253 5.2998 11.3003 5.5248 11.3003 5.7998C11.3003 6.0748 11.5253 6.2998 11.7999 6.2998Z" fill="white"/>
<path d="M38.5356 9.96388C37.5594 8.9881 36.2799 8.49951 34.9995 8.49951H33.3998V16.3999C33.3998 16.5533 33.3416 16.7067 33.2242 16.8239C33.1071 16.9411 32.9538 16.9999 32.7998 16.9999H7.20022C7.046 16.9999 6.89264 16.9411 6.77522 16.8239C6.65842 16.7067 6.5996 16.5532 6.5996 16.3999V8.49967H5.00038C3.72015 8.49967 2.44078 8.9881 1.46437 9.96404C0.488202 10.9411 0 12.2205 0 13.4999V27.0999C0 27.4578 0.137031 27.8163 0.409999 28.0896C0.683827 28.3626 1.04156 28.5 1.4 28.5H8.59998V25.4999C8.59998 25.3463 8.65819 25.1931 8.77561 25.0759C8.89241 24.9587 9.04662 24.8999 9.19998 24.8999H9.99998V31.5001C9.99998 32.0119 10.195 32.5233 10.5856 32.9143C10.9756 33.3042 11.488 33.4999 11.9998 33.4999H27.9994C28.512 33.4999 29.0236 33.3042 29.4144 32.9143C29.8042 32.5233 30.0008 32.0117 30.0008 31.5001V24.8999H30.8C30.9542 24.8999 31.1066 24.9587 31.2242 25.0759C31.3418 25.1931 31.4 25.3465 31.4 25.4999V28.5003H38.6002C38.9587 28.5003 39.3168 28.3628 39.59 28.0899C39.8638 27.8164 40 27.4581 40 27.1001V13.5001C39.9999 12.2205 39.5125 10.9411 38.5356 9.96388ZM28.6002 31.5001C28.6002 31.5925 28.5772 31.7713 28.4238 31.9245C28.2717 32.077 28.0926 32.1001 27.9994 32.1001H12C11.9068 32.1001 11.7284 32.0771 11.5756 31.9245C11.423 31.7713 11.4 31.5924 11.4 31.5001V24.8999H28.6002V31.5001ZM37.2002 25.8996H36.2002C35.9258 25.8996 35.6999 25.675 35.6999 25.4C35.6999 25.1248 35.9257 24.8998 36.2002 24.8998H37.2002C37.4754 24.8998 37.7006 25.1248 37.7006 25.4C37.7006 25.6751 37.4753 25.8996 37.2002 25.8996ZM36.7006 15.2661C36.1471 15.2661 35.6999 14.8189 35.6999 14.2661C35.6999 13.714 36.1471 13.2661 36.7006 13.2661C37.2526 13.2661 37.7006 13.714 37.7006 14.2661C37.7006 14.8189 37.2525 15.2661 36.7006 15.2661Z" fill="white"/>
</svg>
