<svg width="40" height="35" viewBox="0 0 40 35" fill="none" xmlns="http://www.w3.org/2000/svg">
<path d="M23.2464 16.665C23.2551 16.6703 23.2794 16.6815 23.2829 16.6842C23.2864 16.6842 23.2863 16.6867 23.2863 16.6867C23.2863 16.6867 23.3297 16.7128 23.3888 16.7467C23.4443 16.7788 23.769 17.0887 23.9999 17.3222L24.7204 18.0435L23.0728 19.6907L22.3627 18.9789C22.1301 18.7428 21.9131 18.517 21.8766 18.4771C21.8454 18.4372 21.7724 18.3274 21.7724 18.3274C21.7707 18.3283 20.4517 15.8534 20.4517 15.8534C20.2954 15.5609 20.4187 15.4307 20.7208 15.5617C20.7208 15.5617 23.236 16.665 23.2464 16.665Z" fill="white"/>
<path d="M38.2449 34.8679L37.5695 34.1873C37.5609 34.196 37.5574 34.203 37.5504 34.2116C37.3386 34.4217 36.9983 34.4217 36.7882 34.2116L34.8004 32.2238C34.5903 32.0154 34.5903 31.6734 34.8004 31.4633C34.8074 31.4564 34.8177 31.4512 34.8229 31.446L23.4443 20.0639L25.0919 18.4146L39.896 33.2168C40.0348 33.3574 40.0348 33.5866 39.896 33.7255L38.7536 34.8679C38.6146 35.0085 38.3855 35.0085 38.2449 34.8679Z" fill="white"/>
<path d="M32.4721 24.2724L35.3489 27.1509H35.6406C37.8177 27.1457 39.5816 25.3835 39.585 23.203V3.94883C39.5816 1.76998 37.8177 0.00867485 35.6406 0H3.94969C1.76736 0.00867485 0.00868213 1.76998 0 3.94883V23.203C0.00868213 25.3835 1.76736 27.1457 3.94969 27.1509H29.0068L26.137 24.2776H4.30732C3.72399 24.2776 3.23092 23.7863 3.22921 23.203V3.94883C3.23092 3.36549 3.72399 2.87413 4.30732 2.87157H32.4096C32.9912 2.87413 33.4843 3.36549 33.486 3.94883V23.203C33.4843 23.7637 33.026 24.2359 32.4721 24.2724Z" fill="white"/>
</svg>
