<svg width="47" height="40" viewBox="0 0 47 40" fill="none" xmlns="http://www.w3.org/2000/svg">
<path d="M2.69118 9.63993H43.8182C43.8599 9.63993 43.8991 9.60247 43.8991 9.55992V0.0800074C43.8982 0.0399658 43.859 0 43.8182 0H2.68951C2.64946 0 2.60774 0.0399657 2.60774 0.0817549V9.56C2.60774 9.6008 2.64863 9.63993 2.69118 9.63993ZM38.974 3.36137H41.3271V5.7141H38.974V3.36137ZM24.7706 3.3597H34.7239V5.71501H24.7706V3.3597ZM5.17886 5.41626H6.77094V3.65845H5.17886V1.30489H7.53377V3.3597H8.36043V1.30489H10.7153V3.3597H11.542V1.30489H13.8968V3.36137H14.7244V1.30489H17.0776V3.36137H17.906V1.30489H20.2601V3.3597H21.8512V5.71501H20.2601V7.76808H17.906V5.71159H17.0776V7.76808H14.7244V5.7141H13.8968V7.76808H11.542V5.71501H10.7153V7.76808H8.36043V5.71159H7.53377V7.76732H5.17886V5.41626ZM42.0524 13.1971V11.6215H4.45516V13.1971H42.0524ZM46.4276 32.1153H45.8785V38.2406H46.4276C46.4668 38.2406 46.5085 38.1998 46.5085 38.1598V32.1953C46.5085 32.1553 46.4685 32.1153 46.4276 32.1153ZM46.4234 1.75598H45.8785V7.88045H46.4276C46.4685 7.88045 46.5085 7.84049 46.5085 7.79961V1.8369C46.5085 1.79853 46.4668 1.75598 46.4234 1.75598ZM46.4234 16.9356H45.8785V23.0626H46.4276C46.4685 23.0626 46.5085 23.0209 46.5085 22.9774V17.0165C46.5085 16.9774 46.4668 16.9356 46.4234 16.9356ZM0 32.1987V38.1623C0 38.2006 0.039973 38.2415 0.0817698 38.2415H0.626649V32.1162H0.0817698C0.039973 32.1153 0 32.1553 0 32.1987ZM0 17.0182V22.9809C0 23.0228 0.0408849 23.0636 0.0851136 23.0636H0.626573V16.9365H0.0842776C0.039973 16.9356 0 16.9757 0 17.0182ZM42.0524 28.3759V26.8004H4.45516V28.3759H42.0524ZM43.8182 30.3584H2.68951C2.64946 30.3584 2.60865 30.3992 2.60865 30.4402V39.9175C2.60865 39.9601 2.64954 40 2.6921 40H43.8191C43.86 40 43.9 39.9601 43.9 39.9175V36.1271V30.4383C43.8982 30.3992 43.8599 30.3584 43.8182 30.3584ZM21.8521 36.0709H20.2608V38.1249H17.9068V36.07H17.0783V38.1265H14.7252V36.0708H13.8976V38.1248H11.5428V36.0717H10.7161V38.1265H8.36036V36.07H7.53377V38.1249H5.17886V35.7721H6.77094V34.0153H5.17886V31.6625H7.53377V33.7173H8.36043V31.6625H10.7153V33.7156H11.542V31.6607H13.8968V33.7172H14.7244V31.6625H17.0776V33.7181H17.906V31.6625H20.2601V33.7172H21.8512V36.0708L21.8521 36.0709ZM34.7239 36.0717H24.7706V33.7181H34.7239V36.0717ZM41.327 36.07H38.9739V33.7182H41.327V36.07ZM2.68951 24.8204H43.8182C43.859 24.8204 43.8991 24.7787 43.8991 24.7404V15.2596C43.8991 15.217 43.8599 15.1771 43.8182 15.1771H2.68951C2.64946 15.1771 2.60865 15.2179 2.60865 15.2613V24.7396C2.60774 24.7788 2.64946 24.8204 2.68951 24.8204ZM38.974 18.5376H41.3271V20.8929H38.974V18.5376ZM24.7706 18.5359H34.7239V20.8929H24.7706V18.5359ZM5.17886 20.5933H6.77094V18.8381H5.17886V16.4836H7.53377V18.5376H8.36043V16.4836H10.7153V18.5376H11.542V16.4836H13.8968V18.5359H14.7244V16.4829H17.0776V18.5385H17.906V16.4836H20.2601V18.5359H21.8512V20.8929H20.2601V22.9469H17.906V20.892H17.0776V22.9485H14.7244V20.8938H13.8968V22.9485H11.542V20.8938H10.7153V22.9485H8.36043V20.8938H7.53377V22.9485H5.17886V20.5933ZM0 1.84032V7.80136C0 7.84307 0.039973 7.88136 0.0842776 7.88136H0.627485V1.75598H0.0842776C0.039973 1.75598 0 1.79602 0 1.84032Z" fill="white"/>
</svg>
