<svg width="41" height="40" viewBox="0 0 41 40" fill="none" xmlns="http://www.w3.org/2000/svg">
<path d="M34.4672 34.3992L34.4674 34.399C35.2681 33.5984 35.2681 32.2955 34.4674 31.4947C34.0796 31.107 33.5637 30.8931 33.015 30.8931C32.4667 30.8931 31.9508 31.107 31.5628 31.4951C30.7623 32.2955 30.7623 33.5984 31.563 34.3991C32.3638 35.1996 33.6666 35.1996 34.4672 34.3992ZM32.2016 33.7603C31.9844 33.5432 31.8648 33.2543 31.8648 32.9469C31.8648 32.6396 31.9844 32.3505 32.2016 32.1333C32.419 31.9162 32.708 31.7964 33.0153 31.7964C33.3226 31.7964 33.6114 31.9161 33.8287 32.1333C34.2772 32.582 34.2772 33.3117 33.8286 33.7603C33.38 34.209 32.6503 34.2088 32.2016 33.7603Z" fill="white"/>
<path d="M38.0511 8.81458C38.0516 8.81399 38.0522 8.81361 38.0526 8.81311C38.0536 8.81215 38.0545 8.81107 38.0555 8.8101L38.1793 8.68627L38.1762 8.68315C40.017 6.7079 39.9765 3.60378 38.0523 1.67964C37.0996 0.726879 35.833 0.202148 34.4856 0.202148C33.1984 0.202148 31.9854 0.682139 31.0488 1.55581L31.0458 1.5528L30.9218 1.67667C30.9208 1.6777 30.9198 1.67858 30.9188 1.67962C30.9183 1.68009 30.9179 1.68063 30.9174 1.68117L1.28394 31.3145L1.29548 31.3261C1.12984 31.4329 1.00983 31.6083 0.98102 31.8188L0.00646389 38.9372C-0.0232051 39.1542 0.0503264 39.3724 0.205105 39.5273C0.337254 39.6593 0.515673 39.7321 0.700053 39.7321C0.731589 39.7321 0.763328 39.73 0.795066 39.7257L7.91318 38.7509C8.12383 38.7222 8.29924 38.602 8.40606 38.4364L8.41757 38.448L38.0511 8.81458ZM34.4856 1.60219C35.459 1.60219 36.374 1.98125 37.0623 2.66956C38.3139 3.92106 38.4631 5.86409 37.5098 7.28036L32.4511 2.2218C33.0474 1.81881 33.7499 1.60219 34.4856 1.60219ZM31.0458 3.5327L36.1993 8.68625L8.41757 36.468L6.47874 34.5293L28.7794 12.229L27.4444 10.8942L5.14402 33.1947L3.26389 31.3145L31.0458 3.5327ZM1.51862 38.2136L2.32119 32.3516L7.38033 37.4108L1.51862 38.2136Z" fill="white"/>
<path d="M11.194 17.8514L12.4714 16.574L2.24929 6.35179L6.42032 2.18065L8.39805 4.15856L6.96314 5.59326L8.09596 6.72602L9.53087 5.2914L10.6839 6.44437L9.24902 7.87919L10.3819 9.01183L11.8169 7.57722L12.9698 8.73039L10.847 10.8527L11.9801 11.9856L14.1027 9.86304L15.5086 11.2688L14.0737 12.704L15.2065 13.8366L16.6414 12.4017L16.6424 12.4027L17.9198 11.1254L7.05891 0.264626C6.70617 -0.0882085 6.13438 -0.0882085 5.78164 0.264626L0.333246 5.71309C-0.0196106 6.06585 -0.0196106 6.63773 0.333246 6.99047L11.194 17.8514Z" fill="white"/>
<path d="M39.8057 33.0075C39.7894 32.9911 39.7725 32.9755 39.7553 32.9606L28.3897 21.5952L24.9896 24.9953L26.1201 26.1258L28.2428 24.0031L37.8879 33.648L33.7166 37.819L22.9412 27.0437L21.6638 28.3212L33.0779 39.7351C33.4306 40.088 34.0024 40.088 34.3553 39.7351L39.804 34.2868C39.8044 34.2861 39.805 34.2857 39.8057 34.2849C40.1585 33.9323 40.1585 33.3603 39.8057 33.0075Z" fill="white"/>
</svg>
