<svg width="50" height="50" viewBox="0 0 50 50" fill="none" xmlns="http://www.w3.org/2000/svg">
<path d="M47.4673 27.9063C46.9048 27.0313 46.186 26.25 45.4048 25.5625C43.2798 23.5938 40.5298 22.2813 37.4985 21.9688C36.9985 21.9063 36.4673 21.875 35.936 21.875C35.4048 21.875 34.8735 21.9063 34.3735 21.9688C31.3423 22.2813 28.5923 23.5938 26.4673 25.5625C25.686 26.25 24.9673 27.0313 24.4048 27.9063C22.811 30.1875 21.8735 32.9688 21.8735 35.9375C21.8735 43.375 27.6548 49.4062 34.9985 49.9062C35.2798 49.9688 35.6235 50 35.936 50C36.2485 50 36.5923 49.9688 36.8735 49.9062C44.2173 49.4062 49.9985 43.375 49.9985 35.9375C49.9985 32.9688 49.061 30.1875 47.4673 27.9063ZM38.9985 27.9063C39.2485 28.375 39.436 28.875 39.6235 29.4375C39.8423 30 39.9985 30.4063 40.1235 30.9063C40.311 31.625 40.436 32.5312 40.4985 34.375H37.5001V25.75C37.5001 26.2187 38.5298 26.9375 38.9985 27.9063ZM27.1548 29.5312C27.7798 28.5937 28.5923 27.7813 29.4985 27.125L29.936 26.8125L29.7798 27.2188C29.5923 27.625 29.436 28 29.2798 28.4375C29.061 29.0625 28.9048 29.5625 28.7485 30.125C28.4985 31.1875 28.3423 32.3438 28.2485 34.375H25.1548C25.436 32.5938 26.0907 30.9375 27.1548 29.5312ZM25.1548 37.5H28.2173C28.3735 40.625 28.9673 42.9688 29.9673 45.0625C27.4048 43.4062 25.6235 40.625 25.1548 37.5ZM31.7782 30.9063C32.0595 29.7188 32.4032 28.7813 32.8407 27.9063L32.9048 27.7813C33.3735 26.875 34.3751 26.1875 34.3751 25.75V34.375H31.3423C31.4048 33 31.5595 31.875 31.7782 30.9063ZM31.372 37.5H34.3751V46.125C34.3751 45.4375 32.811 44.1562 32.2485 42.4375C31.7485 41.0312 31.4985 40.625 31.372 37.5ZM38.9673 44.0625C38.4985 45 37.5001 45.6875 37.5001 46.125V37.5H40.5282C40.372 40.625 39.7798 42.4375 38.9673 44.0625ZM41.9345 45.0625C42.1845 44.5312 42.4032 44 42.5907 43.4375C43.1845 41.6875 43.497 40.625 43.622 37.5H46.7157C46.2485 40.625 44.4985 43.375 41.9345 45.0625ZM43.6532 34.375C43.5595 32.7812 43.372 31.4062 43.0595 30.1562C42.8095 29.0937 42.497 28.125 42.0907 27.2188L41.9032 26.8125L42.3407 27.125C43.2782 27.7813 44.0907 28.5937 44.747 29.5312C45.7782 30.9375 46.4345 32.5938 46.7157 34.375H43.6532Z" fill="#015FC9"/>
<path d="M45.3109 0H4.68594C2.09531 0.0015625 0 2.09844 0 4.6875V45.3125C0 47.9016 2.09531 49.9984 4.68594 50H25V46.875H4.68594C3.82344 46.8734 3.125 46.175 3.125 45.3125V34.375H18.75V31.25H3.125V18.75H46.875V25H50V4.6875C50 2.09844 47.9 0.0015625 45.3109 0ZM46.875 15.625H3.125V4.6875C3.125 3.825 3.82344 3.12656 4.68594 3.125H45.3109C46.1719 3.12656 46.875 3.825 46.875 4.6875V15.625Z" fill="#97A2B7"/>
<path d="M40.625 6.25H21.875V9.375H40.625V6.25Z" fill="#97A2B7"/>
<path d="M12.4985 12.5C14.2244 12.5 15.6235 11.1009 15.6235 9.375C15.6235 7.64911 14.2244 6.25 12.4985 6.25C10.7726 6.25 9.37354 7.64911 9.37354 9.375C9.37354 11.1009 10.7726 12.5 12.4985 12.5Z" fill="#97A2B7"/>
<path d="M12.4985 28.125C14.2244 28.125 15.6235 26.7259 15.6235 25C15.6235 23.2741 14.2244 21.875 12.4985 21.875C10.7726 21.875 9.37354 23.2741 9.37354 25C9.37354 26.7259 10.7726 28.125 12.4985 28.125Z" fill="#97A2B7"/>
<path d="M12.4985 43.75C14.2244 43.75 15.6235 42.3509 15.6235 40.625C15.6235 38.8991 14.2244 37.5 12.4985 37.5C10.7726 37.5 9.37354 38.8991 9.37354 40.625C9.37354 42.3509 10.7726 43.75 12.4985 43.75Z" fill="#97A2B7"/>
</svg>
