<svg width="50" height="50" viewBox="0 0 50 50" fill="none" xmlns="http://www.w3.org/2000/svg">
<path d="M39.061 28.125C33.0204 28.125 28.1235 33.0219 28.1235 39.0625C28.1235 45.1031 33.0204 50 39.061 50C45.1017 50 49.9985 45.1031 49.9985 39.0625C49.9985 33.0219 45.1001 28.125 39.061 28.125ZM46.4157 37.0422L38.6032 44.8547C38.311 45.1453 37.9095 45.3125 37.4985 45.3125C37.0876 45.3125 36.6845 45.1453 36.3938 44.8547L31.7063 40.1672C31.0954 39.5563 31.0954 38.5672 31.7063 37.9578C32.3173 37.3469 33.3063 37.3469 33.9157 37.9578L37.4985 41.5406L44.2063 34.8328C44.8173 34.2219 45.8063 34.2219 46.4157 34.8328C47.0251 35.4437 47.0251 36.4328 46.4157 37.0422Z" fill="#015FC9"/>
<path d="M4.68594 50H28.125V46.875H4.68594C3.82344 46.8734 3.125 46.175 3.125 45.3125V10.9375C3.125 10.075 3.82344 9.37656 4.68594 9.375H6.53594C6.36094 9.86563 6.25 10.3859 6.25 10.9375V14.0625V15.625H34.375V10.9375C34.375 10.3859 34.2594 9.86563 34.0859 9.375H35.9359C36.7969 9.37656 37.5 10.075 37.5 10.9375V25H40.625V10.9375C40.625 8.34844 38.525 6.25156 35.9359 6.25H29.6859H27.9656C27.2406 2.68437 24.0906 0 20.3109 0C16.5312 0 13.3797 2.68437 12.6563 6.25H10.9359H4.68594C2.09531 6.25156 0 8.34844 0 10.9375V45.3125C0 47.9016 2.09531 49.9984 4.68594 50ZM9.375 10.9375C9.375 10.075 10.0734 9.37656 10.9359 9.375H14.0609H15.625V7.8125C15.625 5.22344 17.7234 3.12969 20.3125 3.125C22.9 3.12969 25 5.225 25 7.8125V9.375H26.5609H29.6859C30.5469 9.37656 31.25 10.075 31.25 10.9375V12.5H9.375V10.9375Z" fill="#97A2B7"/>
<path d="M20.311 9.375C21.174 9.375 21.8735 8.67545 21.8735 7.8125C21.8735 6.94956 21.174 6.25 20.311 6.25C19.4481 6.25 18.7485 6.94956 18.7485 7.8125C18.7485 8.67545 19.4481 9.375 20.311 9.375Z" fill="#97A2B7"/>
</svg>
