<svg width="50" height="51" viewBox="0 0 50 51" fill="none" xmlns="http://www.w3.org/2000/svg">
<path d="M46.4733 10.9716L49.0847 8.41631C50.3023 7.1987 50.3023 5.22495 49.0847 4.00734L46.8803 1.80286C45.6626 0.585246 43.6889 0.585246 42.4713 1.80286L39.916 4.41269L46.4733 10.9716Z" fill="#015FC9"/>
<path d="M37.735 6.64209L24.9446 19.7084V26.0553H31.1792L44.2455 13.2088L37.735 6.64209Z" fill="#015FC9"/>
<path d="M40.5351 22.9374H37.417V41.6459H32.7383H12.4723V43.0943C12.4723 45.676 10.377 47.7667 7.7952 47.7714C5.21343 47.7667 3.11808 45.676 3.11808 43.0943V5.67727C3.11808 4.81668 3.81497 4.22892 4.67556 4.22892H35.8564L36.4816 4.30376L37.7366 1.47721C37.1597 1.22309 36.519 1.11084 35.8548 1.11084H4.674C2.09067 1.11084 0 3.09394 0 5.67727V43.0943C0 47.4003 3.48757 51.0001 7.79365 51.0001H38.9745C43.279 51.0001 46.7712 47.4003 46.7712 43.0943V41.6459H40.5351V22.9374ZM43.3616 44.764C42.7162 46.323 41.0059 47.8821 38.9729 47.8821H13.994C14.6815 46.323 15.196 46.323 15.4314 44.764H32.7383H38.9745H43.3616Z" fill="#97A2B7"/>
</svg>
