<svg width="50" height="50" viewBox="0 0 50 50" fill="none" xmlns="http://www.w3.org/2000/svg">
<path d="M24.9985 31.5188C25.4032 31.5172 25.7938 31.3688 26.1032 31.0609L35.1344 22.0297L34.3735 21.875H15.6235L14.8625 22.0281L23.8938 31.0594C24.2016 31.3688 24.5922 31.5156 24.9985 31.5188Z" fill="#015FC9"/>
<path d="M28.3125 33.2706C27.4016 34.1831 26.1922 34.6456 24.9984 34.644C23.8047 34.6456 22.5953 34.1831 21.6844 33.2706L12.6531 24.2394L12.5 25.0003V37.5003C12.5 39.2253 13.8969 40.6253 15.6234 40.6253H34.3734C36.0984 40.6253 37.5 39.2253 37.5 37.5003V25.0003L37.3453 24.2378L28.3125 33.2706Z" fill="#015FC9"/>
<path d="M45.3125 0H4.6875C2.09844 0 0 2.09844 0 4.6875V45.3125C0 47.9016 2.09844 50 4.6875 50H45.3125C47.9016 50 50 47.9016 50 45.3125V4.6875C50 2.09844 47.9016 0 45.3125 0ZM46.875 45.3125C46.875 46.175 46.1719 46.8734 45.3109 46.875H4.68594C3.82344 46.8734 3.125 46.175 3.125 45.3125V15.625H46.875V45.3125ZM46.875 12.5H3.125V4.6875C3.125 3.825 3.82344 3.12656 4.68594 3.125H45.3109C46.1719 3.12656 46.875 3.825 46.875 4.6875V12.5Z" fill="#97A2B7"/>
<path d="M42.1846 9.375C43.0475 9.375 43.7471 8.67545 43.7471 7.8125C43.7471 6.94956 43.0475 6.25 42.1846 6.25C41.3216 6.25 40.6221 6.94956 40.6221 7.8125C40.6221 8.67545 41.3216 9.375 42.1846 9.375Z" fill="#97A2B7"/>
<path d="M35.9346 9.375C36.7975 9.375 37.4971 8.67545 37.4971 7.8125C37.4971 6.94956 36.7975 6.25 35.9346 6.25C35.0716 6.25 34.3721 6.94956 34.3721 7.8125C34.3721 8.67545 35.0716 9.375 35.9346 9.375Z" fill="#97A2B7"/>
<path d="M29.6846 9.375C30.5475 9.375 31.2471 8.67545 31.2471 7.8125C31.2471 6.94956 30.5475 6.25 29.6846 6.25C28.8216 6.25 28.1221 6.94956 28.1221 7.8125C28.1221 8.67545 28.8216 9.375 29.6846 9.375Z" fill="#97A2B7"/>
</svg>
