<svg width="16" height="17" viewBox="0 0 16 17" fill="none" xmlns="http://www.w3.org/2000/svg">
<path d="M13.4906 1.58008L1.30312 8.61133C0.277734 9.19727 0.365625 10.6914 1.44961 11.1309L4.81875 12.5078V14.9688C4.81875 16.3457 6.54727 16.9023 7.33828 15.8184L8.62734 14.0898L11.9086 15.4375C12.0844 15.5254 12.2602 15.5547 12.4359 15.5547C12.6703 15.5547 12.9047 15.4961 13.1391 15.3789C13.5199 15.1445 13.7543 14.793 13.8422 14.3535L15.5707 3.01562C15.7465 1.84375 14.4867 0.994141 13.4906 1.58008ZM6.225 14.9688V13.0938L7.27969 13.5332L6.225 14.9688ZM12.4359 14.1484L7.92422 12.2734L12.0551 6.35547C12.348 5.88672 11.7621 5.35938 11.352 5.74023L5.14102 11.1309L2.00625 9.8125L14.1937 2.78125L12.4359 14.1484Z" fill="white"/>
</svg>
