<svg width="862" height="628" viewBox="0 0 862 628" fill="none" xmlns="http://www.w3.org/2000/svg">
<path style="mix-blend-mode:multiply" d="M284.398 600.572C287.462 585.687 227.523 560.774 150.521 544.928C73.5186 529.082 8.61208 528.304 5.548 543.189C2.48393 558.074 62.4226 582.987 139.425 598.833C216.427 614.679 281.334 615.458 284.398 600.572Z" fill="url(#paint0_radial_13_1211)" fill-opacity="0.5"/>
<path style="mix-blend-mode:multiply" d="M558.03 466.189C560.963 448.044 491.685 421.755 403.294 407.472C314.904 393.188 240.871 396.319 237.938 414.464C235.005 432.61 304.282 458.898 392.673 473.182C481.064 487.465 555.097 484.334 558.03 466.189Z" fill="url(#paint1_radial_13_1211)"/>
<path style="mix-blend-mode:multiply" d="M785.683 337.776C787.785 320.02 728.093 298.361 652.357 289.398C576.621 280.435 513.52 287.564 511.419 305.32C509.317 323.075 569.009 344.735 644.745 353.698C720.481 362.66 783.581 355.532 785.683 337.776Z" fill="url(#paint2_radial_13_1211)"/>
<path d="M751.011 0.157227L562.679 138.072L604.658 142.948H604.406C603.439 143.239 603.11 145.948 602.781 146.954C599.516 156.797 596.045 166.589 592.368 176.329C584.346 198.161 575.007 219.486 564.402 240.187C559.234 250.318 553.376 260.081 546.867 269.407C541.235 277.283 534.675 285.681 526.12 290.558C522.825 292.618 518.935 293.517 515.069 293.112L549.732 297.911L622.638 307.954L687.067 316.914L701.543 318.849C713.368 320.455 723.007 309.87 729.761 301.433C743.754 284.153 754.069 263.795 763.282 243.67C772.494 223.545 780.526 203.343 787.9 182.695C789.564 178.038 791.19 173.368 792.777 168.685C794.067 165.021 795.274 161.358 796.396 157.694L842.516 165.976L751.011 0.157227Z" fill="url(#paint3_linear_13_1211)"/>
<mask id="mask0_13_1211" style="mask-type:luminance" maskUnits="userSpaceOnUse" x="464" y="202" width="236" height="135">
<path d="M699.995 336.381L512.921 309.386C508.107 308.774 503.658 306.502 500.341 302.962C497.012 299.204 494.542 294.767 493.103 289.958C491.359 284.42 490.135 278.732 489.445 272.968C488.612 266.911 488.109 260.622 487.625 254.546C486.987 246.805 486.348 239.742 485.458 233.55C484.781 228.101 483.562 222.734 481.819 217.527C480.54 213.536 478.308 209.916 475.316 206.981C472.345 204.317 468.575 202.711 464.594 202.414L649.539 221.765C653.733 222.089 657.698 223.805 660.803 226.642C663.946 229.806 666.277 233.683 667.597 237.943C669.445 243.524 670.741 249.273 671.467 255.107C672.377 261.744 673.035 269.272 673.674 277.593C674.157 284.114 674.68 290.848 675.512 297.331C676.237 303.507 677.533 309.603 679.383 315.54C680.878 320.671 683.466 325.418 686.97 329.453C690.362 333.222 694.973 335.675 699.995 336.381Z" fill="white"/>
</mask>
<g mask="url(#mask0_13_1211)">
<path d="M699.995 336.381L512.921 309.386C508.107 308.774 503.659 306.502 500.341 302.962C497.012 299.204 494.542 294.767 493.103 289.958C491.359 284.42 490.135 278.732 489.445 272.968C488.612 266.911 488.109 260.622 487.625 254.546C486.987 246.805 486.348 239.742 485.458 233.55C484.781 228.101 483.562 222.734 481.819 217.527C480.54 213.536 478.308 209.916 475.316 206.981C472.345 204.317 468.575 202.711 464.594 202.414L649.539 221.765C653.733 222.089 657.698 223.805 660.803 226.642C663.946 229.806 666.277 233.683 667.597 237.943C669.445 243.524 670.741 249.273 671.467 255.107C672.377 261.744 673.035 269.272 673.674 277.593C674.158 284.114 674.68 290.848 675.512 297.331C676.237 303.507 677.533 309.603 679.383 315.54C680.878 320.671 683.466 325.418 686.97 329.453C690.413 333.226 695.083 335.653 700.15 336.304" fill="url(#paint4_linear_13_1211)"/>
</g>
<path d="M543.655 345.263C554.667 322.139 565.447 298.821 577.524 276.219C583.078 265.808 588.943 255.552 595.446 245.702C601.764 235.682 609.262 226.456 617.78 218.224C626.605 210.058 637.83 203.207 650.314 204.194L637.869 202.975L606.4 199.86L564.75 195.776L521.688 191.519L486.058 187.997L466.704 186.062C451.395 184.553 438.544 194.054 428.654 204.775C411.584 223.274 399.624 246.379 388.205 268.633C375.722 293.189 364.342 318.307 351.858 342.864C346.052 354.339 339.975 365.736 333.163 376.67C326.737 387.003 319.48 398.42 309.203 405.309C307.116 406.756 304.753 407.756 302.262 408.245C299.77 408.735 297.205 408.704 294.726 408.154L323.118 413.804L384.644 426.054L444.97 438.051L464.033 441.921C467.398 442.749 470.82 443.318 474.271 443.624C481.103 443.895 487.161 439.057 491.69 434.491C497.998 427.871 503.566 420.584 508.295 412.759C518.787 395.552 528.298 377.766 536.784 359.486C539.094 354.726 541.384 349.959 543.655 345.186V345.263Z" fill="url(#paint5_linear_13_1211)"/>
<path d="M446.557 450.126C441.594 444.653 437.836 438.199 435.525 431.182C432.874 423.317 430.982 415.217 429.874 406.993C428.596 398.42 427.783 389.577 426.99 380.966C426.08 371 425.151 361.963 423.874 353.874C422.893 346.776 421.201 339.793 418.823 333.033C417.028 327.73 414.019 322.919 410.036 318.984C406.053 315.352 401.044 313.04 395.695 312.366L224.123 286.281C229.159 286.949 233.879 289.113 237.671 292.493C241.439 296.158 244.301 300.65 246.032 305.613C248.296 311.883 249.917 318.366 250.87 324.964C252.089 332.414 252.999 340.851 253.889 350.12C254.664 358.151 255.457 366.414 256.696 374.386C257.77 382.065 259.585 389.621 262.115 396.95C264.33 403.526 267.912 409.56 272.624 414.656C277.507 419.636 283.792 423.011 290.642 424.331L465.543 460.363C458.303 459.01 451.665 455.431 446.557 450.126Z" fill="url(#paint6_linear_13_1211)"/>
<path d="M796.396 157.868L808.512 162.783C808.841 162.919 810.079 163.209 810.254 163.499C810.428 163.789 809.305 166.789 809.073 167.505C807.854 171.259 806.596 175.032 805.318 178.786C798.603 198.505 791.267 218.03 783.042 237.168C774.76 257.169 764.897 276.478 753.547 294.912C748.535 302.999 742.844 310.644 736.535 317.765C730.129 324.828 722.542 331.64 713.426 334.91C705.685 337.658 696.647 337.329 689.892 332.317C682.325 326.705 679.131 316.836 677.215 308.07C672.764 287.404 674.274 265.905 669.648 245.238C667.713 236.897 664.481 227.415 656.1 223.584C647.72 219.752 638.488 222.713 631.327 228.17C623.586 234.092 617.315 242.045 611.741 249.979C605.826 258.542 600.355 267.404 595.349 276.528C573.789 315.23 557.048 356.39 536.436 395.576C526.991 413.572 516.811 432.343 502.392 446.914C495.967 453.435 488.109 459.395 478.877 460.982C469.84 462.314 460.625 460.342 452.924 455.428C436.338 444.727 431.983 422.532 429.487 404.322C426.622 383.52 426.545 362.137 421.435 341.683C419.306 333.149 416.055 324.112 409.146 318.288C405.834 315.724 402.022 313.882 397.955 312.882C393.888 311.883 389.657 311.746 385.534 312.482C367.477 315.23 352.749 330.402 341.523 343.657C329.001 358.854 317.854 375.134 308.216 392.305C297.126 411.405 287.159 431.162 277.83 451.171C259.87 489.823 243.94 529.385 230.104 569.696C227.491 577.243 224.936 584.829 222.517 592.453L210.208 588.583C209.492 588.351 207.034 587.925 206.821 587.306C206.608 586.686 207.382 585.603 207.518 585.196C208.118 583.261 208.718 581.5 209.337 579.662C215.337 561.743 221.762 543.959 228.478 526.292C244.193 484.997 261.534 444.166 282.204 405.077C291.585 387.029 302.076 369.58 313.615 352.829C324.821 336.826 337.42 321.19 352.981 309.251C368.541 297.311 387.818 290.132 407.017 296.886C425.713 303.446 433.919 322.197 437.867 340.232C442.454 361.266 442.589 382.939 445.821 404.09C448.357 420.635 453.988 444.727 475.432 443.721C484.355 443.315 491.67 435.071 496.935 428.685C503.439 420.566 509.265 411.926 514.353 402.852C525.501 383.636 535.1 363.55 544.642 343.502C554.183 323.454 563.686 303.02 574.001 283.166C583.795 264.318 594.284 245.296 607.948 228.983C619.87 214.644 636.34 200.672 656.333 205.336C676.325 210 683.312 230.995 686.176 249.147C687.937 260.196 688.479 271.362 689.486 282.469C689.993 291.377 691.354 300.216 693.55 308.864C694.537 312.25 695.911 316.256 699.105 318.152C702.975 320.455 708.143 319.391 711.956 317.61C720.491 313.605 727.09 305.632 732.664 298.259C745.438 281.366 755.115 262.112 763.901 242.935C773.055 222.965 781.126 202.472 788.481 181.766C791.19 173.716 793.861 165.821 796.396 157.868Z" fill="url(#paint7_linear_13_1211)"/>
<path d="M224.53 570.489L62.9446 524.453L48.0422 519.654L208.776 565.4L224.53 570.489Z" fill="#808080"/>
<path d="M226.388 269.639C210.44 267.317 195.422 273.955 183.016 283.475C168.481 294.563 156.656 309.096 146.243 323.919C124.064 355.268 106.704 390.119 91.1431 425.125C75.8665 459.415 62.1318 494.33 49.9389 529.872C48.7389 533.413 47.539 536.935 46.3778 540.476C46.0681 541.444 45.9326 541.25 46.3778 541.618C46.8229 541.985 49.0099 542.373 49.784 542.605L66.0219 547.191L121.645 563.02L179.861 579.584L199.35 585.119L204.847 586.686C205.195 586.783 206.434 587.383 206.782 587.248C207.131 587.112 208.079 583.281 208.272 582.681C208.892 580.746 209.53 578.927 210.208 577.049C211.601 572.934 213.014 568.825 214.446 564.723C217.388 556.312 220.407 547.926 223.504 539.567C230.162 521.57 237.161 503.716 244.503 486.003C259.85 449.062 276.766 412.566 297.261 378.16C306.947 361.401 318.093 345.53 330.569 330.731C342.182 317.378 355.729 304.355 372.354 297.834C380.564 294.469 389.518 293.334 398.308 294.544L381.179 292.067L340.072 286.107L290.565 278.928L247.599 272.697L226.775 269.678L226.388 269.639Z" fill="url(#paint8_linear_13_1211)"/>
<path d="M861.425 172.884L769.572 8.11049L751.011 0.157227L842.516 165.918L861.425 172.884Z" fill="url(#paint9_linear_13_1211)"/>
<path d="M796.396 157.868L810.35 163.538L861.425 172.884L841.8 165.937L796.396 157.868Z" fill="#86839A"/>
<path style="mix-blend-mode:screen" d="M245.006 326.59C243.94 326.493 242.867 326.693 241.907 327.168C240.948 327.642 240.138 328.373 239.568 329.279C239.309 329.618 239.144 330.018 239.09 330.441C239.035 330.863 239.094 331.293 239.259 331.685C239.424 332.078 239.689 332.42 240.029 332.678C240.369 332.935 240.77 333.097 241.193 333.15C242.257 333.265 243.331 333.075 244.291 332.602C245.251 332.129 246.056 331.393 246.612 330.479C246.876 330.142 247.045 329.741 247.103 329.317C247.161 328.894 247.105 328.462 246.942 328.067C246.779 327.671 246.514 327.326 246.173 327.067C245.833 326.807 245.43 326.643 245.006 326.59ZM236.335 321.442C237.399 321.558 238.474 321.368 239.433 320.895C240.393 320.422 241.198 319.686 241.754 318.772C242.013 318.435 242.178 318.036 242.233 317.614C242.289 317.193 242.232 316.765 242.069 316.373C241.906 315.981 241.643 315.638 241.306 315.38C240.969 315.122 240.569 314.957 240.148 314.902C239.082 314.787 238.005 314.977 237.042 315.45C236.08 315.922 235.271 316.658 234.71 317.572C234.476 317.911 234.331 318.304 234.29 318.714C234.249 319.124 234.313 319.538 234.476 319.917C234.638 320.296 234.894 320.627 235.219 320.88C235.544 321.134 235.928 321.3 236.335 321.365V321.442ZM250.715 316.701C249.649 316.605 248.577 316.805 247.617 317.279C246.657 317.754 245.847 318.485 245.277 319.391C245.018 319.729 244.853 320.13 244.799 320.553C244.745 320.975 244.803 321.404 244.968 321.797C245.133 322.19 245.399 322.532 245.738 322.789C246.078 323.046 246.48 323.209 246.903 323.261C247.969 323.376 249.046 323.186 250.008 322.713C250.971 322.24 251.78 321.504 252.341 320.591C252.619 320.251 252.8 319.842 252.865 319.408C252.929 318.973 252.876 318.53 252.709 318.123C252.543 317.717 252.27 317.363 251.919 317.099C251.568 316.835 251.152 316.671 250.715 316.624V316.701ZM263.76 300.853L246.128 297.737L242.258 304.336L259.87 307.432L263.76 300.853ZM257.47 325.158C258.536 325.272 259.613 325.082 260.576 324.609C261.538 324.137 262.347 323.401 262.908 322.487C263.167 322.149 263.332 321.748 263.386 321.326C263.44 320.903 263.382 320.474 263.217 320.081C263.052 319.688 262.786 319.346 262.447 319.089C262.107 318.832 261.705 318.669 261.282 318.617C260.219 318.501 259.144 318.691 258.185 319.164C257.225 319.637 256.42 320.374 255.863 321.287C255.618 321.622 255.465 322.015 255.417 322.427C255.369 322.84 255.429 323.257 255.591 323.639C255.753 324.021 256.011 324.355 256.34 324.608C256.67 324.86 257.059 325.023 257.47 325.08V325.158ZM251.76 335.065C252.827 335.162 253.899 334.962 254.859 334.487C255.819 334.012 256.629 333.282 257.199 332.375C257.458 332.037 257.623 331.636 257.677 331.214C257.731 330.791 257.673 330.362 257.508 329.969C257.343 329.577 257.077 329.234 256.737 328.977C256.398 328.72 255.996 328.557 255.573 328.505C254.507 328.391 253.43 328.581 252.467 329.053C251.505 329.526 250.696 330.262 250.135 331.176C249.896 331.515 249.748 331.91 249.705 332.323C249.661 332.735 249.724 333.152 249.887 333.534C250.049 333.916 250.307 334.25 250.635 334.504C250.963 334.758 251.35 334.925 251.76 334.988V335.065ZM230.626 331.331C231.69 331.446 232.764 331.256 233.724 330.783C234.684 330.31 235.489 329.574 236.045 328.66C236.304 328.323 236.469 327.924 236.524 327.503C236.579 327.082 236.522 326.653 236.36 326.261C236.197 325.869 235.934 325.526 235.596 325.268C235.259 325.01 234.86 324.845 234.439 324.79C233.372 324.675 232.296 324.865 231.333 325.338C230.37 325.811 229.562 326.547 229 327.46C228.761 327.798 228.612 328.192 228.568 328.604C228.524 329.015 228.587 329.432 228.75 329.812C228.913 330.193 229.172 330.525 229.5 330.778C229.828 331.03 230.216 331.194 230.626 331.253V331.331ZM214.446 339.284C215.509 339.395 216.582 339.203 217.541 338.73C218.5 338.258 219.306 337.524 219.865 336.613C220.124 336.275 220.289 335.874 220.343 335.452C220.397 335.029 220.339 334.6 220.174 334.207C220.009 333.814 219.743 333.472 219.404 333.215C219.064 332.958 218.662 332.795 218.24 332.743C217.176 332.628 216.101 332.817 215.142 333.29C214.182 333.763 213.377 334.5 212.821 335.414C212.568 335.754 212.408 336.154 212.357 336.574C212.306 336.995 212.365 337.422 212.529 337.812C212.693 338.203 212.957 338.544 213.293 338.802C213.629 339.06 214.026 339.226 214.446 339.284ZM281.469 303.871L277.946 303.252L274.075 309.851L277.598 310.47L252.844 353.333L199.97 344.005L224.704 301.143L228.226 301.782L232.097 295.183L228.575 294.564C226.445 294.334 224.293 294.713 222.371 295.659C220.448 296.605 218.835 298.077 217.717 299.904L192.925 342.767C190.815 346.405 192.267 349.908 196.157 350.604L249.012 359.912C251.142 360.142 253.294 359.762 255.216 358.817C257.138 357.871 258.752 356.399 259.87 354.571L284.604 311.709C286.713 308.071 285.262 304.568 281.372 303.871H281.469ZM220.059 329.395C221.124 329.502 222.197 329.306 223.156 328.83C224.114 328.355 224.919 327.618 225.478 326.706C225.737 326.367 225.902 325.967 225.956 325.544C226.01 325.122 225.952 324.692 225.787 324.299C225.622 323.907 225.356 323.565 225.016 323.307C224.677 323.05 224.275 322.888 223.852 322.835C222.789 322.72 221.714 322.91 220.754 323.383C219.795 323.856 218.989 324.592 218.433 325.506C218.175 325.846 218.012 326.248 217.958 326.671C217.904 327.094 217.962 327.524 218.127 327.918C218.292 328.312 218.557 328.656 218.896 328.915C219.235 329.174 219.636 329.34 220.059 329.395ZM225.768 319.507C226.833 319.614 227.906 319.418 228.865 318.942C229.823 318.466 230.628 317.73 231.187 316.817C231.446 316.479 231.611 316.078 231.665 315.656C231.719 315.233 231.661 314.804 231.496 314.411C231.331 314.018 231.065 313.676 230.726 313.419C230.386 313.162 229.984 312.999 229.562 312.947C228.498 312.832 227.423 313.021 226.464 313.494C225.504 313.967 224.699 314.704 224.143 315.617C223.885 315.958 223.721 316.359 223.667 316.783C223.614 317.206 223.672 317.636 223.836 318.03C224.001 318.424 224.266 318.767 224.605 319.026C224.944 319.286 225.345 319.451 225.768 319.507ZM224.917 341.141C225.98 341.257 227.055 341.067 228.015 340.594C228.974 340.121 229.779 339.385 230.336 338.471C230.595 338.133 230.759 337.732 230.814 337.309C230.868 336.887 230.81 336.458 230.645 336.065C230.48 335.672 230.214 335.33 229.874 335.073C229.534 334.816 229.133 334.653 228.71 334.601C227.645 334.49 226.57 334.683 225.61 335.16C224.651 335.636 223.846 336.375 223.291 337.291C223.037 337.629 222.876 338.028 222.825 338.448C222.773 338.868 222.833 339.293 222.997 339.683C223.162 340.073 223.425 340.412 223.762 340.668C224.099 340.924 224.497 341.087 224.917 341.141ZM235.29 303.02C236.356 303.131 237.431 302.937 238.39 302.461C239.35 301.985 240.154 301.246 240.709 300.33L244.58 293.751C244.833 293.411 244.993 293.011 245.044 292.59C245.095 292.169 245.035 291.743 244.871 291.352C244.707 290.961 244.444 290.62 244.108 290.362C243.772 290.104 243.374 289.938 242.954 289.881C241.889 289.769 240.814 289.963 239.855 290.439C238.895 290.916 238.091 291.655 237.535 292.57L233.665 299.15C233.412 299.49 233.252 299.89 233.201 300.311C233.15 300.731 233.209 301.158 233.373 301.549C233.537 301.939 233.801 302.28 234.137 302.538C234.473 302.796 234.87 302.962 235.29 303.02ZM266.992 308.612C268.057 308.719 269.13 308.523 270.089 308.047C271.047 307.572 271.852 306.835 272.411 305.923L276.282 299.343C276.54 299.006 276.705 298.607 276.76 298.186C276.816 297.765 276.759 297.337 276.596 296.944C276.433 296.552 276.17 296.21 275.833 295.951C275.496 295.693 275.097 295.528 274.675 295.473C273.609 295.356 272.531 295.545 271.568 296.018C270.605 296.491 269.796 297.228 269.237 298.144L265.366 304.742C265.113 305.082 264.954 305.482 264.902 305.903C264.851 306.324 264.911 306.75 265.075 307.141C265.239 307.532 265.502 307.873 265.838 308.131C266.174 308.389 266.572 308.555 266.992 308.612Z" fill="url(#paint10_linear_13_1211)"/>
<path style="mix-blend-mode:screen" d="M529.914 215.766L483.174 209.187C481.757 209.1 480.343 209.417 479.1 210.102C477.856 210.788 476.832 211.812 476.149 213.057L458.459 246.302C458.191 246.646 458.021 247.057 457.969 247.491C457.917 247.924 457.984 248.364 458.163 248.762C458.343 249.16 458.627 249.502 458.986 249.75C459.345 249.999 459.765 250.145 460.201 250.172L509.302 256.926C510.361 256.998 511.419 256.769 512.354 256.266C513.289 255.762 514.062 255.005 514.585 254.081L532.255 220.836C532.599 220.378 532.811 219.836 532.872 219.266C532.932 218.697 532.837 218.122 532.597 217.603C532.357 217.083 531.98 216.638 531.508 216.315C531.036 215.992 530.485 215.802 529.914 215.766ZM509.921 251.12L465.523 244.87L481.529 214.915L525.907 221.146L509.921 251.12ZM513.927 259.828L453.447 251.333C453.095 251.316 452.744 251.395 452.434 251.562C452.124 251.729 451.865 251.978 451.685 252.281L449.498 256.384C448.337 258.59 449.731 260.699 452.634 261.106L504.889 268.459C506.297 268.667 507.735 268.473 509.037 267.897C510.338 267.322 511.45 266.389 512.244 265.208L514.431 261.106C514.533 260.997 514.603 260.863 514.632 260.717C514.661 260.571 514.649 260.42 514.597 260.281C514.544 260.141 514.454 260.02 514.335 259.929C514.217 259.839 514.075 259.784 513.927 259.77V259.828ZM489.716 261.376C489.536 261.68 489.277 261.929 488.967 262.096C488.657 262.263 488.307 262.342 487.954 262.325L473.362 260.273C473.218 260.265 473.079 260.217 472.96 260.135C472.841 260.054 472.746 259.941 472.687 259.81C472.627 259.678 472.604 259.533 472.621 259.39C472.637 259.247 472.693 259.11 472.781 258.996C472.96 258.693 473.219 258.444 473.53 258.277C473.84 258.11 474.19 258.031 474.542 258.048L489.135 260.099C489.267 260.119 489.392 260.17 489.5 260.25C489.607 260.329 489.693 260.433 489.751 260.554C489.808 260.674 489.835 260.807 489.829 260.941C489.823 261.074 489.784 261.204 489.716 261.318V261.376Z" fill="url(#paint11_linear_13_1211)"/>
<path style="mix-blend-mode:screen" d="M701.872 138.885C682.847 138.885 672.996 123.404 679.925 104.382C686.854 85.3597 707.969 69.8789 726.993 69.8789C746.018 69.8789 755.869 85.3597 748.941 104.382C742.012 123.404 720.897 138.885 701.872 138.885ZM728.232 107.517C725.568 114.266 722.028 120.635 717.704 126.461C716.437 128.126 715.059 129.703 713.581 131.183C719.557 129.288 725.094 126.219 729.866 122.155C734.639 118.091 738.551 113.114 741.373 107.517H728.232ZM685.228 107.517C682.46 118.45 686.679 127.738 695.776 131.183C695.358 129.636 695.13 128.044 695.098 126.442C695.118 119.996 696.217 113.599 698.35 107.517H685.228ZM704.582 107.517C702.726 112.857 701.759 118.466 701.717 124.12C701.911 129.054 703.478 130.815 704.775 130.815C706.072 130.815 708.917 129.054 712.691 124.12C716.465 119.003 719.568 113.423 721.923 107.517H704.582ZM743.618 101.247C746.367 90.3136 742.147 81.0251 733.051 77.5806C733.469 79.1275 733.697 80.7196 733.728 82.3216C733.709 88.7673 732.61 95.1642 730.477 101.247H743.618ZM724.264 101.247C726.12 95.9061 727.087 90.2974 727.129 84.6437C726.935 79.7092 725.368 77.9483 724.071 77.9483C722.774 77.9483 719.929 79.7092 716.155 84.6437C712.381 89.7608 709.278 95.3407 706.923 101.247H724.264ZM700.653 101.247C703.324 94.5016 706.864 88.1331 711.181 82.3023C712.448 80.6379 713.825 79.0605 715.304 77.5806C709.327 79.4685 703.79 82.5357 699.019 86.6007C694.249 90.6657 690.343 95.646 687.531 101.247H700.653Z" fill="url(#paint12_linear_13_1211)"/>
<path d="M228.497 526.098C228.497 526.098 231.11 518.996 235.89 506.612C240.671 494.227 247.503 476.56 256.889 455.777C266.276 434.994 277.637 410.998 291.726 386.21C298.881 373.445 306.678 361.051 315.086 349.075C323.659 336.562 333.582 325.031 344.678 314.688C350.314 309.48 356.528 304.935 363.2 301.143C369.872 297.365 377.179 294.84 384.76 293.693C392.236 292.58 399.87 293.283 407.017 295.744C410.514 296.989 413.832 298.687 416.887 300.794C419.833 302.958 422.504 305.473 424.842 308.283C429.23 313.836 432.634 320.1 434.906 326.802C437.096 333.159 438.741 339.691 439.822 346.327C442.086 359.235 442.918 371.484 443.983 382.862C444.765 393.166 446.122 403.419 448.047 413.572C449.982 422.57 453.06 430.195 457.259 435.323C460.457 439.372 465.017 442.123 470.091 443.063C471.413 443.348 472.764 443.478 474.116 443.45C472.761 443.502 471.404 443.398 470.072 443.14C464.94 442.257 460.301 439.549 457.008 435.516C452.672 430.388 449.46 422.725 447.331 413.708C445.177 403.597 443.671 393.358 442.821 383.056C441.699 371.735 440.789 359.428 438.486 346.637C437.397 340.056 435.739 333.581 433.532 327.286C431.28 320.744 427.921 314.637 423.603 309.231C421.322 306.535 418.722 304.124 415.862 302.052C412.916 300.046 409.722 298.433 406.359 297.253C399.446 294.881 392.062 294.217 384.837 295.318C377.5 296.493 370.437 298.991 363.993 302.691C357.481 306.428 351.41 310.887 345.897 315.985C334.847 326.185 324.95 337.567 316.383 349.927C307.905 361.807 300.037 374.111 292.81 386.79C278.701 411.443 267.127 435.361 257.721 456.067C248.315 476.773 241.038 494.266 236.084 506.592C231.129 518.919 228.497 526.098 228.497 526.098Z" fill="white"/>
<path d="M514.276 402.716C514.276 402.716 514.992 401.458 516.308 399.078C517.624 396.698 519.559 393.273 521.901 388.706C526.643 379.708 532.952 366.665 540.365 350.914C547.777 335.162 556.177 316.662 565.815 297.137C570.653 287.462 575.782 277.36 581.298 267.317C586.788 257.124 592.896 247.275 599.587 237.826C602.998 233.117 606.661 228.595 610.561 224.281C614.418 219.924 618.719 215.981 623.392 212.515C628.013 209.041 633.217 206.42 638.759 204.775C644.235 203.254 649.996 203.068 655.559 204.233C657.029 204.485 658.21 204.968 659.545 205.317C660.881 205.665 662.119 206.381 663.416 206.903C664.713 207.426 665.816 208.239 666.938 208.974C668.044 209.752 669.11 210.585 670.132 211.47C673.979 215.007 677.118 219.243 679.383 223.952C683.298 232.531 685.839 241.674 686.912 251.043C688.131 259.693 688.576 267.685 689.079 274.729C689.582 281.772 690.028 287.926 690.589 292.977C690.979 296.878 691.586 300.754 692.408 304.587C693.008 307.238 693.415 308.632 693.415 308.632C693.415 308.632 692.969 307.258 692.331 304.607C691.429 300.777 690.737 296.901 690.26 292.996C689.602 287.945 689.002 281.811 688.325 274.767C687.647 267.724 687.047 259.77 685.789 251.178C684.633 241.931 682.02 232.924 678.048 224.493C675.828 219.977 672.759 215.93 669.009 212.573C668.039 211.74 667.024 210.958 665.971 210.232C664.887 209.535 663.745 208.916 662.623 208.297C661.5 207.677 660.3 207.252 659.023 206.845C657.754 206.423 656.461 206.074 655.152 205.8C649.854 204.707 644.371 204.906 639.166 206.381C633.835 207.992 628.834 210.541 624.399 213.908C615.303 220.604 607.909 229.66 601.174 238.949C594.48 248.316 588.359 258.08 582.846 268.188C577.33 278.173 572.163 288.158 567.363 297.872C557.686 317.34 548.977 335.723 541.371 351.378C533.765 367.033 527.107 379.94 522.211 388.842C519.772 393.312 517.779 396.756 516.405 399.117L514.276 402.716Z" fill="white"/>
<path style="mix-blend-mode:color-dodge" d="M731.677 310.373C728.155 308.903 739.67 272.832 757.398 229.776C775.126 186.72 792.39 153.011 795.912 154.462C799.435 155.913 787.919 192.003 770.172 235.04C752.424 278.076 735.199 311.825 731.677 310.373Z" fill="url(#paint13_radial_13_1211)"/>
<defs>
<radialGradient id="paint0_radial_13_1211" cx="0" cy="0" r="1" gradientUnits="userSpaceOnUse" gradientTransform="translate(139.815 586.135) rotate(11.6284) scale(141.549 28.306)">
<stop stop-color="#444444"/>
<stop offset="0.08" stop-color="#2C2C2C"/>
<stop offset="0.18" stop-color="#646464"/>
<stop offset="0.29" stop-color="#939393"/>
<stop offset="0.4" stop-color="#BABABA"/>
<stop offset="0.5" stop-color="#D8D8D8"/>
<stop offset="0.6" stop-color="#EEEEEE"/>
<stop offset="0.7" stop-color="#FBFBFB"/>
<stop offset="0.79" stop-color="white"/>
</radialGradient>
<radialGradient id="paint1_radial_13_1211" cx="0" cy="0" r="1" gradientUnits="userSpaceOnUse" gradientTransform="translate(397.577 433.134) rotate(9.17923) scale(161.622 32.7566)">
<stop/>
<stop offset="0.08" stop-color="#2C2C2C"/>
<stop offset="0.18" stop-color="#646464"/>
<stop offset="0.29" stop-color="#939393"/>
<stop offset="0.4" stop-color="#BABABA"/>
<stop offset="0.5" stop-color="#D8D8D8"/>
<stop offset="0.6" stop-color="#EEEEEE"/>
<stop offset="0.7" stop-color="#FBFBFB"/>
<stop offset="0.79" stop-color="white"/>
</radialGradient>
<radialGradient id="paint2_radial_13_1211" cx="0" cy="0" r="1" gradientUnits="userSpaceOnUse" gradientTransform="translate(644.076 324.373) rotate(6.74903) scale(137.219 32.6665)">
<stop/>
<stop offset="0.08" stop-color="#2C2C2C"/>
<stop offset="0.18" stop-color="#646464"/>
<stop offset="0.29" stop-color="#939393"/>
<stop offset="0.4" stop-color="#BABABA"/>
<stop offset="0.5" stop-color="#D8D8D8"/>
<stop offset="0.6" stop-color="#EEEEEE"/>
<stop offset="0.7" stop-color="#FBFBFB"/>
<stop offset="0.79" stop-color="white"/>
</radialGradient>
<linearGradient id="paint3_linear_13_1211" x1="598.291" y1="269.523" x2="801.166" y2="60.6578" gradientUnits="userSpaceOnUse">
<stop stop-color="#B2B2B2"/>
<stop offset="0.38" stop-color="#E1E1E1"/>
<stop offset="1" stop-color="#E1E1E1"/>
</linearGradient>
<linearGradient id="paint4_linear_13_1211" x1="464.594" y1="269.388" x2="699.995" y2="269.388" gradientUnits="userSpaceOnUse">
<stop offset="0.37" stop-color="#0086C3"/>
<stop offset="0.79" stop-color="#0078AF"/>
<stop offset="0.99" stop-color="#0086C3"/>
</linearGradient>
<linearGradient id="paint5_linear_13_1211" x1="458.014" y1="435.361" x2="485.798" y2="187.01" gradientUnits="userSpaceOnUse">
<stop stop-color="#026694"/>
<stop offset="0.15" stop-color="#0086C3"/>
<stop offset="0.35" stop-color="#0086C3"/>
<stop offset="0.57" stop-color="#0086C3"/>
<stop offset="0.8" stop-color="#309BCB"/>
<stop offset="0.9" stop-color="#309BCB"/>
<stop offset="1" stop-color="#20AFEF"/>
</linearGradient>
<linearGradient id="paint6_linear_13_1211" x1="224.046" y1="373.38" x2="465.523" y2="373.38" gradientUnits="userSpaceOnUse">
<stop offset="0.01" stop-color="#026782"/>
<stop offset="1" stop-color="#037795"/>
</linearGradient>
<linearGradient id="paint7_linear_13_1211" x1="544.603" y1="467.774" x2="453.179" y2="233.25" gradientUnits="userSpaceOnUse">
<stop stop-color="#464465"/>
<stop offset="0.49" stop-color="#9897A9"/>
<stop offset="0.5" stop-color="#D9D9DF"/>
<stop offset="1" stop-color="#9897A9"/>
</linearGradient>
<linearGradient id="paint8_linear_13_1211" x1="198.092" y1="599.013" x2="247.759" y2="225.188" gradientUnits="userSpaceOnUse">
<stop stop-color="#037795"/>
<stop offset="0.8125" stop-color="#009CC5"/>
<stop offset="1" stop-color="#01AAD6"/>
</linearGradient>
<linearGradient id="paint9_linear_13_1211" x1="822.079" y1="1.39569" x2="789.264" y2="177.434" gradientUnits="userSpaceOnUse">
<stop offset="0.5" stop-color="#D9D9DF"/>
<stop offset="1" stop-color="#464465"/>
</linearGradient>
<linearGradient id="paint10_linear_13_1211" x1="238.755" y1="360.028" x2="238.755" y2="289.765" gradientUnits="userSpaceOnUse">
<stop stop-color="#211915"/>
<stop offset="1" stop-color="white"/>
</linearGradient>
<linearGradient id="paint11_linear_13_1211" x1="474.407" y1="275.87" x2="497.277" y2="224.143" gradientUnits="userSpaceOnUse">
<stop stop-color="#211915"/>
<stop offset="1" stop-color="white"/>
</linearGradient>
<linearGradient id="paint12_linear_13_1211" x1="714.433" y1="138.962" x2="714.433" y2="69.9563" gradientUnits="userSpaceOnUse">
<stop stop-color="#211915"/>
<stop offset="1" stop-color="white"/>
</linearGradient>
<radialGradient id="paint13_radial_13_1211" cx="0" cy="0" r="1" gradientUnits="userSpaceOnUse" gradientTransform="translate(772.745 255.253) rotate(112.383) scale(84.7981 7.02542)">
<stop stop-color="white"/>
<stop offset="0.03" stop-color="#E1E1E1"/>
<stop offset="0.07" stop-color="#B2B2B2"/>
<stop offset="0.12" stop-color="#878787"/>
<stop offset="0.17" stop-color="#636363"/>
<stop offset="0.22" stop-color="#444444"/>
<stop offset="0.28" stop-color="#2B2B2B"/>
<stop offset="0.35" stop-color="#181818"/>
<stop offset="0.43" stop-color="#0A0A0A"/>
<stop offset="0.52" stop-color="#020202"/>
<stop offset="0.71"/>
</radialGradient>
</defs>
</svg>
