<svg width="633" height="399" viewBox="0 0 633 399" fill="none" xmlns="http://www.w3.org/2000/svg">
<g style="mix-blend-mode:multiply">
<path d="M441.027 393.412L623.325 288.108C637.676 279.828 635.846 265.217 619.295 255.656L248.158 41.3034C231.606 31.7304 206.3 30.6893 191.949 38.9819L9.67517 144.214C-4.67614 152.506 -2.84635 167.105 13.7055 176.678L384.842 391.078C401.394 400.651 426.676 401.692 441.027 393.412Z" fill="#DEE5E9"/>
</g>
<path d="M0 126.025L11.493 130.919L191.973 26.6565C206.324 18.3758 231.606 19.4169 248.182 28.9899L619.295 243.378C620.024 243.809 620.682 244.252 621.352 244.682L633 241.272V256.086C632.892 261.28 629.735 266.222 623.349 269.907L441.051 375.211C426.7 383.503 401.418 382.45 384.842 372.889L13.7055 158.501C4.78377 153.356 0.191351 146.738 0 140.444V126.025Z" fill="url(#paint0_linear_14_1692)"/>
<path d="M464.109 353.899C464.109 355.227 465.054 355.766 466.214 355.096C466.823 354.704 467.331 354.176 467.699 353.552C468.066 352.929 468.283 352.228 468.331 351.506C468.331 350.166 467.386 349.627 466.214 350.309C465.611 350.705 465.107 351.235 464.742 351.858C464.377 352.48 464.16 353.179 464.109 353.899Z" fill="#888DA3"/>
<path d="M471.476 349.292C471.476 350.62 472.421 351.159 473.593 350.489C474.199 350.095 474.705 349.566 475.07 348.943C475.435 348.32 475.65 347.62 475.698 346.899C475.698 345.558 474.753 345.02 473.593 345.702C472.986 346.095 472.479 346.624 472.112 347.247C471.744 347.87 471.527 348.57 471.476 349.292Z" fill="#888DA3"/>
<path d="M478.855 344.685C478.855 346.013 479.8 346.552 480.96 345.882C481.567 345.49 482.074 344.961 482.439 344.337C482.805 343.714 483.019 343.013 483.065 342.292C483.065 340.951 482.132 340.413 480.96 341.095C480.357 341.491 479.853 342.021 479.488 342.644C479.123 343.266 478.906 343.965 478.855 344.685Z" fill="#888DA3"/>
<path d="M486.222 340.078C486.222 341.406 487.167 341.945 488.339 341.275C488.945 340.881 489.451 340.352 489.816 339.729C490.181 339.106 490.396 338.406 490.444 337.685C490.444 336.345 489.499 335.806 488.339 336.488C487.732 336.881 487.225 337.41 486.858 338.033C486.49 338.656 486.273 339.356 486.222 340.078Z" fill="#888DA3"/>
<path d="M582.424 285.751C582.424 287.091 583.368 287.63 584.54 286.947C585.145 286.553 585.65 286.023 586.015 285.4C586.38 284.777 586.596 284.078 586.645 283.358C586.645 282.017 585.701 281.479 584.54 282.161C583.932 282.552 583.423 283.081 583.056 283.704C582.688 284.328 582.472 285.029 582.424 285.751Z" fill="#888DA3"/>
<path d="M589.839 281.144C589.839 282.484 590.783 283.023 591.943 282.341C592.551 281.949 593.059 281.42 593.427 280.797C593.795 280.173 594.011 279.473 594.06 278.751C594.06 277.41 593.115 276.872 591.943 277.554C591.338 277.947 590.832 278.477 590.466 279.1C590.101 279.723 589.886 280.423 589.839 281.144Z" fill="#888DA3"/>
<path d="M597.205 276.537C597.205 277.877 598.15 278.415 599.322 277.733C599.927 277.339 600.432 276.809 600.797 276.186C601.162 275.563 601.378 274.864 601.427 274.143C601.427 272.803 600.482 272.265 599.322 272.947C598.714 273.338 598.205 273.867 597.837 274.49C597.47 275.113 597.253 275.814 597.205 276.537Z" fill="#888DA3"/>
<path d="M604.584 271.93C604.584 273.27 605.529 273.809 606.689 273.126C607.296 272.734 607.802 272.205 608.167 271.581C608.533 270.958 608.748 270.258 608.794 269.537C608.794 268.196 607.861 267.658 606.689 268.34C606.083 268.733 605.578 269.262 605.212 269.886C604.847 270.509 604.632 271.209 604.584 271.93Z" fill="#888DA3"/>
<path d="M441.027 361.079L623.325 255.775C637.676 247.495 635.846 232.896 619.295 223.323L248.158 8.91058C231.606 -0.662462 206.3 -1.70353 191.949 6.58912L9.67517 111.905C-4.67614 120.185 -2.84635 134.784 13.7055 144.357L384.842 358.745C401.394 368.318 426.676 369.371 441.027 361.079Z" fill="#EFF0F5"/>
<path d="M13.7055 142.311L384.842 356.711C401.394 366.284 426.7 367.325 441.051 359.044L623.349 253.741C629.412 250.235 632.558 245.604 632.916 240.698C633.335 246.346 630.213 251.791 623.349 255.775L441.051 361.079C426.7 369.371 401.418 368.258 384.842 358.685L13.7055 144.357C4.13796 138.829 -0.46642 131.637 0.0717537 124.936C0.526212 131.051 5.11863 137.345 13.7055 142.311Z" fill="#BFC4D5"/>
<path d="M11.7083 133.575C14.0752 136.968 17.1995 139.762 20.8333 141.736L111.223 193.933L226.212 260.346L389.423 354.629C403.272 362.646 424.404 363.532 436.399 356.579L602.994 260.346L615.551 253.107C627.511 246.154 626.016 233.961 612.155 225.931L556.771 193.933L452.281 133.575L309.079 50.8764L243.613 13.0389C229.752 5.02153 208.596 4.17192 196.589 11.0884L127.774 50.8764L17.4727 114.561C9.10111 119.419 7.3072 126.826 11.7083 133.575Z" fill="#2A2A2C"/>
<path d="M14.1241 131.996C14.4909 132.546 14.8903 133.073 15.32 133.575C17.2787 135.879 19.6416 137.805 22.2924 139.259L116.903 193.921L129.987 201.46L231.917 260.286L249.426 270.41L334.421 319.472L390.858 352.068C398.556 356.275 407.201 358.442 415.972 358.362C423.363 358.362 430.156 356.783 434.916 354.018L472.265 332.479L597.277 260.286L614.104 250.713C618.445 248.177 620.754 244.934 620.754 241.416C620.754 236.845 617.058 232.166 610.72 228.42L551.006 193.969L446.553 133.623L435.502 127.245L303.279 50.8763L284.371 39.963L242.178 15.5518C235.337 11.5311 226.129 9.30538 216.98 9.30538C212.245 9.23663 207.531 9.93988 203.023 11.3875C201.265 11.9137 199.575 12.6447 197.988 13.5654L133.515 50.8763L105.829 66.8393L18.9318 117.014C15.3439 119.096 13.1075 121.693 12.4617 124.457C12.1908 125.76 12.1988 127.105 12.4854 128.405C12.7719 129.704 13.3304 130.928 14.1241 131.996Z" fill="#3A3F47"/>
<path d="M284.371 39.9272L334.421 319.532L390.858 352.128C398.556 356.335 407.201 358.502 415.972 358.422C423.363 358.422 430.156 356.843 434.916 354.078L472.265 332.539L435.502 127.197L303.279 50.8764L284.371 39.9272Z" fill="#3E444D"/>
<path d="M105.829 66.8395L129.951 201.46L231.917 260.287L249.426 270.41L203.023 11.3877C201.265 11.9139 199.575 12.6449 197.988 13.5656L133.515 50.8765L105.829 66.8395Z" fill="#3E444D"/>
<path d="M608.974 241.691C608.974 244.994 606.797 248.021 602.719 250.426L586.92 259.509L555.36 277.734L503.551 307.649L469.467 327.298L434.366 347.641C429.893 350.249 423.507 351.709 416.558 351.709C408.311 351.791 400.18 349.76 392.939 345.81L333.345 311.383L253.54 265.241L237.072 255.728L155.221 208.461L141.193 200.455L128.911 193.275L103.054 178.377L39.9803 141.952C37.5026 140.583 35.3006 138.765 33.4864 136.591C33.0895 136.128 32.722 135.64 32.3861 135.131C31.6419 134.127 31.1186 132.977 30.8506 131.756C30.5827 130.535 30.5761 129.271 30.8314 128.047C31.4294 125.438 33.5222 122.997 36.9187 121.035L89.4325 93.2611L116.006 94.8885L131.422 85.9736L174.213 61.2393L175.528 60.4854L177.585 59.2888L176.94 41.3393L205.068 23.7968C206.578 22.9349 208.184 22.2522 209.852 21.7625C214.101 20.396 218.545 19.7331 223.007 19.8C231.606 19.8 240.241 21.8941 246.675 25.6755L286.32 48.567L304.092 58.8341L428.351 130.632L438.731 136.615L536.87 193.275L599.55 229.438C605.493 233.004 608.974 237.383 608.974 241.691Z" fill="#E1EAFB"/>
<path d="M103.485 86.7752L148.392 60.8323C149.206 60.3656 149.11 59.528 148.165 58.9775C147.676 58.7063 147.131 58.5532 146.572 58.5303C146.014 58.5075 145.458 58.6155 144.948 58.8459L100.041 84.729C99.2273 85.2076 99.323 86.0453 100.268 86.5838C100.752 86.8645 101.295 87.028 101.854 87.0613C102.412 87.0945 102.971 86.9966 103.485 86.7752Z" fill="#2A2A2C"/>
<path d="M148.739 60.4494C148.588 60.241 148.392 60.0693 148.165 59.9468C147.677 59.6737 147.132 59.5185 146.574 59.4936C146.015 59.4687 145.458 59.5747 144.948 59.8032L100.041 85.7581C99.9065 85.8393 99.7889 85.9448 99.6937 86.0692C99.6092 85.9646 99.5503 85.8415 99.5219 85.71C99.4934 85.5784 99.4961 85.442 99.5299 85.3117C99.5636 85.1815 99.6273 85.0609 99.716 84.9597C99.8047 84.8585 99.9158 84.7795 100.041 84.729L144.948 58.7861C145.458 58.5557 146.014 58.4477 146.572 58.4705C147.131 58.4934 147.676 58.6465 148.165 58.9177C148.919 59.3605 149.11 59.9827 148.739 60.4494Z" fill="#3A3F47"/>
<path d="M160.077 51.4388C161.59 52.21 163.264 52.6121 164.962 52.6121C166.66 52.6121 168.334 52.21 169.848 51.4388C172.55 49.8712 172.562 47.3463 169.848 45.7907C168.334 45.0195 166.66 44.6174 164.962 44.6174C163.264 44.6174 161.59 45.0195 160.077 45.7907C157.398 47.3583 157.386 49.8832 160.077 51.4388Z" fill="#3A3F47"/>
<path d="M161.871 50.3977C162.829 50.8843 163.888 51.138 164.962 51.138C166.037 51.138 167.096 50.8843 168.054 50.3977C169.764 49.4045 169.776 47.813 168.054 46.8078C167.098 46.3212 166.041 46.0676 164.968 46.0676C163.896 46.0676 162.839 46.3212 161.883 46.8078C160.184 47.813 160.173 49.4164 161.871 50.3977Z" fill="#516F83"/>
<path d="M150.748 57.6374C151.818 58.1798 153 58.4625 154.199 58.4625C155.398 58.4625 156.58 58.1798 157.649 57.6374C159.563 56.5365 159.575 54.7535 157.649 53.6526C156.579 53.1129 155.397 52.8318 154.199 52.8318C153 52.8318 151.819 53.1129 150.748 53.6526C148.859 54.7535 148.847 56.5365 150.748 57.6374Z" fill="#2A2A2C"/>
<path d="M40.4467 171.185L62.189 183.702C63.959 184.731 65.406 183.63 65.406 181.309C65.388 180.1 65.0877 178.912 64.5292 177.84C63.9706 176.768 63.1692 175.841 62.189 175.134L40.4467 162.594C38.6768 161.577 37.2297 162.665 37.2297 164.987C37.2421 166.2 37.5398 167.394 38.0986 168.47C38.6575 169.547 39.4619 170.477 40.4467 171.185Z" fill="#C4C8D8"/>
<path d="M38.8083 172.215L60.5146 184.743C62.2846 185.773 63.7317 184.672 63.7317 182.35C63.7119 181.143 63.4107 179.958 62.8522 178.888C62.2937 177.818 61.4932 176.893 60.5146 176.188L38.8083 163.623C37.0383 162.594 35.5912 163.695 35.5912 166.016C35.6074 167.229 35.9067 168.421 36.4653 169.497C37.0239 170.573 37.8262 171.504 38.8083 172.215Z" fill="#A0A6C0"/>
<path d="M178.578 250.917L200.284 263.458C202.054 264.487 203.501 263.386 203.501 261.064C203.482 259.857 203.18 258.672 202.622 257.602C202.063 256.532 201.263 255.607 200.284 254.902L178.578 242.337C176.808 241.32 175.361 242.421 175.361 244.73C175.374 245.942 175.672 247.133 176.231 248.208C176.79 249.283 177.594 250.211 178.578 250.917Z" fill="#C4C8D8"/>
<path d="M176.999 251.91L198.706 264.451C200.476 265.468 201.923 264.367 201.923 262.058C201.903 260.852 201.602 259.669 201.043 258.601C200.485 257.533 199.684 256.61 198.706 255.907L176.999 243.354C175.229 242.325 173.782 243.426 173.782 245.748C173.802 246.954 174.103 248.14 174.662 249.21C175.22 250.28 176.021 251.204 176.999 251.91Z" fill="#A0A6C0"/>
<path d="M521.586 321.494C521.586 323.612 522.89 324.594 524.48 323.672L544.022 312.424C544.901 311.786 545.621 310.953 546.123 309.989C546.625 309.025 546.897 307.958 546.916 306.872C546.916 304.753 545.613 303.748 544.022 304.67L542.108 305.783L524.48 315.954C523.106 316.917 522.141 318.36 521.777 319.999C521.646 320.486 521.581 320.989 521.586 321.494Z" fill="#A0A6C0"/>
<path d="M521.777 319.998L539.37 309.803C540.74 308.847 541.704 307.413 542.073 305.782L524.444 315.954C523.083 316.923 522.132 318.365 521.777 319.998Z" fill="#767C95"/>
<path d="M555.359 277.733L503.551 307.649L258.323 165.478C253.964 162.945 249.013 161.611 243.972 161.611C238.931 161.611 233.98 162.945 229.621 165.478L155.197 208.46L141.193 200.455L128.911 193.275L103.054 178.377L180.037 133.91C181.231 133.219 182.223 132.225 182.912 131.029C183.602 129.833 183.965 128.476 183.965 127.096C183.965 125.715 183.602 124.358 182.912 123.162C182.223 121.966 181.231 120.972 180.037 120.281L126.375 89.2881C128.049 88.1752 129.736 87.0743 131.47 85.9734C133.862 84.4537 136.254 82.9579 138.849 81.51C149.313 75.5268 166.906 65.4153 174.261 61.2391L175.576 60.4852L177.633 59.2886L555.359 277.733Z" fill="#85787C"/>
<path d="M131.338 185.808L135.692 188.321L151.526 179.179L147.173 176.666L131.338 185.808Z" fill="url(#paint1_linear_14_1692)"/>
<path d="M156.381 171.341L160.735 173.854L176.569 164.712L172.216 162.199L156.381 171.341Z" fill="url(#paint2_linear_14_1692)"/>
<path d="M181.424 156.874L185.778 159.387L201.612 150.245L197.247 147.732L181.424 156.874Z" fill="url(#paint3_linear_14_1692)"/>
<path d="M206.467 142.407L210.821 144.92L226.655 135.777L222.29 133.264L206.467 142.407Z" fill="url(#paint4_linear_14_1692)"/>
<path d="M233.352 128.31L235.242 130.632C235.464 130.899 235.756 131.098 236.087 131.206C236.417 131.314 236.771 131.327 237.107 131.242C242.67 129.982 248.444 129.982 254.006 131.242C254.348 131.322 254.706 131.304 255.038 131.19C255.37 131.075 255.663 130.869 255.884 130.596L257.678 128.298C249.701 126.232 241.329 126.232 233.352 128.298V128.31Z" fill="url(#paint5_linear_14_1692)"/>
<path d="M264.554 135.729L280.484 144.932L284.814 142.431L268.884 133.229L264.554 135.729Z" fill="url(#paint6_linear_14_1692)"/>
<path d="M289.753 150.292L305.683 159.483L310.012 156.994L294.082 147.792L289.753 150.292Z" fill="url(#paint7_linear_14_1692)"/>
<path d="M314.951 164.843L330.881 174.046L335.211 171.545L319.281 162.343L314.951 164.843Z" fill="url(#paint8_linear_14_1692)"/>
<path d="M340.15 179.406L356.08 188.597L360.409 186.096L344.479 176.906L340.15 179.406Z" fill="url(#paint9_linear_14_1692)"/>
<path d="M365.348 193.958L381.278 203.16L385.607 200.659L369.678 191.457L365.348 193.958Z" fill="url(#paint10_linear_14_1692)"/>
<path d="M390.547 208.521L406.477 217.723L410.806 215.222L394.876 206.02L390.547 208.521Z" fill="url(#paint11_linear_14_1692)"/>
<path d="M415.745 223.072L431.675 232.274L436.005 229.773L420.075 220.571L415.745 223.072Z" fill="url(#paint12_linear_14_1692)"/>
<path d="M445.273 235.122L440.944 237.623L456.874 246.825L461.203 244.336L445.273 235.122Z" fill="url(#paint13_linear_14_1692)"/>
<path d="M470.316 250.139L465.987 252.64L481.917 261.842L486.246 259.341L470.316 250.139Z" fill="url(#paint14_linear_14_1692)"/>
<g style="mix-blend-mode:multiply">
<path d="M544.919 247.315L521.933 233.793L551.018 217.95L553.374 247.315H544.919Z" fill="#DFE4EB"/>
</g>
<path d="M582.46 214.252V231.484L553.374 247.315V230.084L582.46 214.252Z" fill="#EDF4FF"/>
<path d="M553.374 230.084V247.315L530.388 233.793V216.574L553.374 230.084Z" fill="#DDE7F8"/>
<path d="M553.374 230.096L530.388 216.574L559.485 200.73L582.459 214.252L553.374 230.096Z" fill="#EBF4FF"/>
<g style="mix-blend-mode:multiply">
<path d="M267.52 65.0564L246.866 52.8986L263.717 43.7324L275.976 65.0564H267.52Z" fill="#DFE4EB"/>
</g>
<path d="M292.826 45.6592V55.8784L275.976 65.0565V54.8373L292.826 45.6592Z" fill="#EDF4FF"/>
<path d="M275.975 54.8372V65.0564L255.322 52.8987V42.6794L275.975 54.8372Z" fill="#DDE7F8"/>
<path d="M275.975 54.8371L255.322 42.6913L272.184 33.5132L292.838 45.659L275.975 54.8371Z" fill="#EBF4FF"/>
<g style="mix-blend-mode:multiply">
<path d="M225.028 81.8454L204.375 69.6996L230.518 55.4597L233.484 81.8454H225.028Z" fill="#DFE4EB"/>
</g>
<path d="M259.627 47.2026V67.6171L233.484 81.8451V61.4306L259.627 47.2026Z" fill="#EDF4FF"/>
<path d="M233.484 61.4307V81.8452L212.842 69.6994V49.2849L233.484 61.4307Z" fill="#DDE7F8"/>
<path d="M233.496 61.4306L212.842 49.2848L238.973 35.0449L259.627 47.2027L233.496 61.4306Z" fill="#EBF4FF"/>
<g style="mix-blend-mode:multiply">
<path d="M206.91 45.6351L191.231 36.4091L211.072 25.6035L215.365 46.0898L206.91 45.6351Z" fill="#DFE4EB"/>
</g>
<path d="M235.218 13.4338V35.2843L215.365 46.0899V24.2394L235.218 13.4338Z" fill="#EDF4FF"/>
<path d="M215.365 24.2394V46.0899L199.686 36.8639V15.0134L215.365 24.2394Z" fill="#DDE7F8"/>
<path d="M215.365 24.2393L199.686 15.0133L219.539 4.20776L235.218 13.4338L215.365 24.2393Z" fill="#EBF4FF"/>
<g style="mix-blend-mode:multiply">
<path d="M247.105 257.032L226.44 244.886L243.302 235.708L255.549 257.032H247.105Z" fill="#DFE4EB"/>
</g>
<path d="M272.412 237.646V247.866L255.549 257.032V246.813L272.412 237.646Z" fill="#EDF4FF"/>
<path d="M255.549 246.813V257.032L234.907 244.886V234.667L255.549 246.813Z" fill="#DDE7F8"/>
<path d="M255.561 246.812L234.907 234.667L251.758 225.489L272.412 237.646L255.561 246.812Z" fill="#EBF4FF"/>
<g style="mix-blend-mode:multiply">
<path d="M505.537 217.423L484.883 205.266L512.617 190.176L513.992 217.423H505.537Z" fill="#DFE4EB"/>
</g>
<path d="M541.726 192.103V202.322L513.992 217.423V207.192L541.726 192.103Z" fill="#EDF4FF"/>
<path d="M513.992 207.192V217.423L493.338 205.266V195.046L513.992 207.192Z" fill="#DDE7F8"/>
<path d="M514.004 207.204L493.338 195.046L521.072 179.957L541.726 192.103L514.004 207.204Z" fill="#EBF4FF"/>
<g style="mix-blend-mode:multiply">
<path d="M368.864 323.66L348.21 311.502L365.061 302.324L377.32 323.66H368.864Z" fill="#DFE4EB"/>
</g>
<path d="M394.17 304.263V314.482L377.32 323.66V313.441L394.17 304.263Z" fill="#EDF4FF"/>
<path d="M377.32 313.441V323.66L356.666 311.502V301.283L377.32 313.441Z" fill="#DDE7F8"/>
<path d="M377.32 313.441L356.666 301.283L373.517 292.117L394.17 304.263L377.32 313.441Z" fill="#EBF4FF"/>
<g style="mix-blend-mode:multiply">
<path d="M334.923 107.752L285.16 78.4707L308.768 65.6189L358.531 94.8885L334.923 107.752Z" fill="#DFE4EB"/>
</g>
<path d="M366.987 84.6812V98.6578L343.379 111.51V97.533L366.987 84.6812Z" fill="#EDF4FF"/>
<path d="M343.379 97.533V111.51L293.616 82.2281V68.2515L343.379 97.533Z" fill="#DDE7F8"/>
<path d="M343.379 97.533L293.616 68.2515L317.224 55.3997L366.987 84.6812L343.379 97.533Z" fill="#EBF4FF"/>
<g style="mix-blend-mode:multiply">
<path d="M468.151 192.892L412.636 160.823L435.969 147.349L476.607 192.892H468.151Z" fill="#DFE4EB"/>
</g>
<path d="M499.928 154.397V179.418L476.607 192.892V167.871L499.928 154.397Z" fill="#EDF4FF"/>
<path d="M476.607 167.871V192.892L421.091 160.823V135.801L476.607 167.871Z" fill="#DDE7F8"/>
<path d="M476.607 167.871L421.103 135.801L444.424 122.327L499.94 154.397L476.607 167.871Z" fill="#EBF4FF"/>
<g style="mix-blend-mode:multiply">
<path d="M389.949 152.781L351.894 130.799L376.471 116.619L398.404 152.733L389.949 152.781Z" fill="#DFE4EB"/>
</g>
<path d="M422.969 121.418V138.565L398.404 152.734V135.586L422.969 121.418Z" fill="#EDF4FF"/>
<path d="M398.404 135.586V152.734L360.349 130.751V113.604L398.404 135.586Z" fill="#DDE7F8"/>
<path d="M398.404 135.586L360.349 113.604L384.926 99.4236L422.981 121.418L398.404 135.586Z" fill="#EBF4FF"/>
<g style="mix-blend-mode:multiply">
<path d="M52.167 137.584L32.6014 126.085L79.5301 100.537L60.6103 137.297L52.167 137.584Z" fill="#DFE4EB"/>
</g>
<path d="M100.22 103.803V115.734L60.6103 137.297V125.366L100.22 103.803Z" fill="#EDF4FF"/>
<path d="M60.6103 125.367V137.297L41.0567 125.785V113.867L60.6103 125.367Z" fill="#DDE7F8"/>
<path d="M60.6222 125.366L41.0566 113.867L80.6662 92.3035L100.232 103.803L60.6222 125.366Z" fill="#EBF4FF"/>
<g style="mix-blend-mode:multiply">
<path d="M107.073 131.242L92.2071 122.495L111.019 112.251L115.085 131.673L107.073 131.242Z" fill="#DFE4EB"/>
</g>
<path d="M115.085 104.737V131.673L100.232 122.925V95.9893L115.085 104.737Z" fill="#DDE7F8"/>
<path d="M133.91 94.4937V121.43L115.085 131.673V104.737L133.91 94.4937Z" fill="#EDF4FF"/>
<path d="M115.097 104.737L100.232 95.9892L119.044 85.7461L133.91 94.4935L115.097 104.737Z" fill="#EBF4FF"/>
<g style="mix-blend-mode:multiply">
<path d="M445.094 322.667L430.228 313.919L449.04 303.676L453.106 323.098L445.094 322.667Z" fill="#DFE4EB"/>
</g>
<path d="M471.919 285.918V312.855L453.107 323.098V296.162L471.919 285.918Z" fill="#EDF4FF"/>
<path d="M453.106 296.162V323.098L438.241 314.35V287.414L453.106 296.162Z" fill="#DDE7F8"/>
<path d="M453.106 296.162L438.241 287.414L457.053 277.171L471.919 285.919L453.106 296.162Z" fill="#EBF4FF"/>
<g style="mix-blend-mode:multiply">
<path d="M138.406 142.885L120.228 132.188L144.625 118.905L145.845 142.885H138.406Z" fill="#DFE4EB"/>
</g>
<path d="M170.242 120.604V129.603L145.845 142.885V133.887L170.242 120.604Z" fill="#EDF4FF"/>
<path d="M145.845 133.887V142.885L127.667 132.188V123.201L145.845 133.887Z" fill="#DDE7F8"/>
<path d="M145.845 133.886L127.667 123.201L152.076 109.918L170.254 120.604L145.845 133.886Z" fill="#EBF4FF"/>
<g style="mix-blend-mode:multiply">
<path d="M407.398 336.943L389.231 326.257L413.628 312.974L414.848 336.943H407.398Z" fill="#DFE4EB"/>
</g>
<path d="M439.246 314.673V323.672L414.848 336.943V327.956L439.246 314.673Z" fill="#EDF4FF"/>
<path d="M414.848 327.956V336.943L396.67 326.257V317.258L414.848 327.956Z" fill="#DDE7F8"/>
<path d="M414.848 327.956L396.67 317.258L421.067 303.976L439.245 314.673L414.848 327.956Z" fill="#EBF4FF"/>
<g style="mix-blend-mode:multiply">
<path d="M101.32 163.455L80.6663 151.309L97.529 142.131L109.775 163.455H101.32Z" fill="#DFE4EB"/>
</g>
<path d="M126.626 144.058V154.277L109.775 163.455V153.236L126.626 144.058Z" fill="#EDF4FF"/>
<path d="M109.776 153.236V163.455L89.1216 151.31V141.09L109.776 153.236Z" fill="#DDE7F8"/>
<path d="M109.787 153.236L89.1216 141.09L105.984 131.912L126.638 144.058L109.787 153.236Z" fill="#EBF4FF"/>
<g style="mix-blend-mode:multiply">
<path d="M408.091 299.991L387.437 287.845L404.288 278.667L416.547 299.991H408.091Z" fill="#DFE4EB"/>
</g>
<path d="M433.397 280.605V290.825L416.547 299.991V289.772L433.397 280.605Z" fill="#EDF4FF"/>
<path d="M416.547 289.772V299.991L395.893 287.845V277.626L416.547 289.772Z" fill="#DDE7F8"/>
<path d="M416.547 289.772L395.893 277.626L412.743 268.448L433.397 280.606L416.547 289.772Z" fill="#EBF4FF"/>
<g style="mix-blend-mode:multiply">
<path d="M204.793 214.887L185.239 203.387L232.168 177.839L213.248 214.887H204.793Z" fill="#DFE4EB"/>
</g>
<path d="M260.177 177.42V189.338L213.248 214.886V202.956L260.177 177.42Z" fill="#EDF4FF"/>
<path d="M213.248 202.956V214.887L193.695 203.387V191.457L213.248 202.956Z" fill="#DDE7F8"/>
<path d="M213.248 202.968L193.695 191.456L240.623 165.908L260.177 177.42L213.248 202.968Z" fill="#EBF4FF"/>
<g style="mix-blend-mode:multiply">
<path d="M261.253 232.501L234.572 216.801L268.345 198.409L268.202 232.573L261.253 232.501Z" fill="#DFE4EB"/>
</g>
<path d="M293.986 188.537V218.536L268.202 232.573V202.573L293.986 188.537Z" fill="#EDF4FF"/>
<path d="M268.202 202.573V232.573L241.532 216.873V186.873L268.202 202.573Z" fill="#DDE7F8"/>
<path d="M268.214 202.573L241.532 186.873L267.305 172.837L293.986 188.537L268.214 202.573Z" fill="#EBF4FF"/>
<g style="mix-blend-mode:multiply">
<path d="M320.154 270.147L277.267 245.365L304.953 229.39L328.597 270.757L320.154 270.147Z" fill="#DFE4EB"/>
</g>
<path d="M356.295 220.571V254.794L328.597 270.757V236.534L356.295 220.571Z" fill="#EDF4FF"/>
<path d="M328.597 236.533V270.757L285.722 245.987V211.763L328.597 236.533Z" fill="#DDE7F8"/>
<path d="M328.609 236.546L285.722 211.763L313.408 195.788L356.295 220.571L328.609 236.546Z" fill="#EBF4FF"/>
<g style="mix-blend-mode:multiply">
<path d="M351.093 291.914L331.539 280.414L378.468 254.866L359.548 291.626L351.093 291.914Z" fill="#DFE4EB"/>
</g>
<path d="M399.158 258.145V270.063L359.548 291.626V279.696L399.158 258.145Z" fill="#EDF4FF"/>
<path d="M359.548 279.696V291.626L339.994 280.127V268.196L359.548 279.696Z" fill="#DDE7F8"/>
<path d="M359.548 279.708L339.994 268.196L379.604 246.633L399.158 258.145L359.548 279.708Z" fill="#EBF4FF"/>
<g style="mix-blend-mode:multiply">
<path d="M304.391 286.385L272.866 267.837L289.717 258.659L312.846 286.385H304.391Z" fill="#DFE4EB"/>
</g>
<path d="M329.697 256.326V277.207L312.846 286.385V265.504L329.697 256.326Z" fill="#EDF4FF"/>
<path d="M312.846 265.504V286.385L281.321 267.837V246.956L312.846 265.504Z" fill="#DDE7F8"/>
<path d="M312.846 265.504L281.321 246.956L298.172 237.778L329.697 256.326L312.846 265.504Z" fill="#EBF4FF"/>
<g style="mix-blend-mode:multiply">
<path d="M287.026 114.812L444.125 205.589L391.037 236.258L233.938 145.482L287.026 114.812Z" fill="#BFB5BF"/>
</g>
<path d="M264.626 152.781L271.742 147.277L297 165.047L357.718 206.558L365.623 201.795L386.696 215.186L376.949 188.094L264.925 132.439L264.626 152.781Z" fill="#0F0E1B"/>
<path d="M390.044 214.815C390.044 207.922 385.177 199.534 379.173 196.063C376.183 194.34 373.481 194.161 371.507 195.274L364.607 199.258V204.583L380.011 225.752L386.445 222.006C386.75 221.865 387.042 221.697 387.318 221.504C389.016 220.283 390.044 217.986 390.044 214.815Z" fill="#23222D"/>
<path d="M296.163 160.583C296.163 153.691 291.296 145.29 285.292 141.832C282.123 140.001 279.312 139.906 277.279 141.258L270.486 145.183L275.091 152.686C276.378 157.283 278.926 161.428 282.446 164.652L286.488 171.257L292.468 167.775C292.855 167.609 293.22 167.396 293.556 167.141C295.17 165.944 296.163 163.683 296.163 160.583Z" fill="#23222D"/>
<path d="M438.349 171.736V190.882L430.156 186.155C428.018 179.24 423.446 173.334 417.288 169.534C409.55 165.059 408.486 170.264 404.133 178.018C403.803 178.721 403.519 179.445 403.284 180.184L338.129 142.55C338.129 141.713 338.129 140.827 338.129 139.906C338.129 131.027 331.862 115.387 324.124 110.923C316.386 106.46 310.12 110.038 310.12 118.917C310.12 119.85 310.12 120.748 310.12 121.597L289.346 109.631V40.6094L416.355 113.939L423.842 154.098L438.349 171.736Z" fill="#E4DFD9"/>
<path d="M428.901 192.366C428.901 199.258 424.033 202.035 418.03 198.564C412.026 195.094 407.17 186.706 407.17 179.813C407.17 172.921 412.026 170.156 418.03 173.615C424.033 177.073 428.901 185.485 428.901 192.366Z" fill="#2D2C37"/>
<path d="M335.007 138.135C335.007 145.027 330.152 147.803 324.148 144.333C318.144 140.863 313.337 127.664 313.337 120.772C313.337 113.879 318.204 111.115 324.208 114.585C330.211 118.055 335.007 131.242 335.007 138.135Z" fill="#2D2C37"/>
<path d="M331.694 136.22C331.694 141.007 328.322 142.933 324.148 140.528C319.974 138.123 316.602 127.485 316.602 122.698C316.602 117.912 319.974 115.973 324.148 118.39C328.322 120.807 331.694 131.433 331.694 136.22Z" fill="#504F58"/>
<path d="M330.989 135.837C330.989 140.169 327.927 141.916 324.148 139.738C320.369 137.56 317.307 127.461 317.307 123.129C317.307 118.797 320.369 117.038 324.148 119.228C327.927 121.418 330.989 131.469 330.989 135.837Z" fill="#C2C7D6"/>
<path d="M330.295 135.418C330.295 139.319 327.545 140.887 324.148 138.924C320.752 136.962 318.001 127.401 318.001 123.5C318.001 119.599 320.752 118.031 324.148 119.994C327.545 121.956 330.295 131.517 330.295 135.418Z" fill="#A5ACC2"/>
<path d="M327.927 129.232C327.927 131.625 326.229 137.393 324.148 136.196C322.067 134.999 320.369 127.269 320.369 124.876C320.369 122.483 322.067 121.478 324.1 122.674C325.209 123.388 326.134 124.355 326.799 125.494C327.464 126.634 327.851 127.914 327.927 129.232Z" fill="#CFD9E7"/>
<path d="M425.576 190.451C425.576 195.238 422.203 197.164 418.03 194.759C415.836 193.334 414.009 191.411 412.698 189.147C411.387 186.883 410.628 184.341 410.483 181.728C410.483 176.941 413.856 175.015 418.03 177.432C420.223 178.854 422.05 180.775 423.361 183.037C424.672 185.3 425.431 187.84 425.576 190.451Z" fill="#504F58"/>
<path d="M422.892 194.429C425.544 192.879 425.515 187.893 422.828 183.295C420.142 178.696 415.814 176.226 413.163 177.777C410.511 179.327 410.54 184.313 413.226 188.911C415.913 193.51 420.241 195.98 422.892 194.429Z" fill="#B5BBCD"/>
<path d="M423.28 189.123C423.28 192.45 420.888 193.79 418.03 192.115C416.507 191.125 415.24 189.79 414.33 188.218C413.42 186.646 412.893 184.882 412.791 183.068C412.791 179.742 415.183 178.401 418.03 180.077C419.555 181.065 420.825 182.399 421.737 183.971C422.65 185.543 423.178 187.308 423.28 189.123Z" fill="#CFD9E7"/>
<path d="M420.888 187.747C420.888 189.566 419.608 190.296 418.03 189.374C417.2 188.835 416.509 188.107 416.012 187.251C415.515 186.394 415.227 185.433 415.171 184.444C415.171 182.625 416.451 181.895 418.03 182.805C418.86 183.346 419.552 184.076 420.048 184.934C420.545 185.793 420.833 186.756 420.888 187.747Z" fill="#E1E7EF"/>
<path d="M419.584 186.993C419.584 187.974 418.891 188.369 418.03 187.879C417.577 187.586 417.201 187.191 416.93 186.725C416.66 186.259 416.504 185.736 416.475 185.198C416.475 184.205 417.168 183.81 418.03 184.313C418.482 184.605 418.859 185 419.129 185.466C419.399 185.932 419.555 186.455 419.584 186.993Z" fill="#C2C7D6"/>
<path d="M440.561 198.409L394.78 218.488L387.126 215.856L382.343 213.092L431.149 184.911L438.648 189.243L440.561 192.043V198.409Z" fill="#6B6164"/>
<path d="M415.506 111.151L290.458 38.9102L289.418 40.6094L416.355 113.939L415.506 111.151Z" fill="#F3F1EE"/>
<path d="M382.02 138.865L291.355 86.5V83.8674L382.02 136.232V138.865Z" fill="#98979D"/>
<path d="M383.24 165.992V102.631L409.371 117.72V159.901L400.772 176.128L383.24 165.992Z" fill="#CDC6BC"/>
<path d="M416.917 122.088L411.033 118.677V152.04L419.764 157.089L422.227 153.069L416.917 122.088Z" fill="#2D2C37"/>
<path d="M411.823 151.597V120.042L416.319 122.638L421.39 152.47L419.285 155.904L411.823 151.597Z" fill="#7572A4"/>
<path d="M403.283 178.377L382.02 166.088V167.942L403.283 180.232V178.377Z" fill="#9B897F"/>
<path d="M289.418 107.788L281.967 103.492V105.347L289.418 109.643V107.788Z" fill="#9B897F"/>
<path d="M436.005 178.712L432.883 176.918V173.328L436.005 175.135V178.712Z" fill="#504F58"/>
<path d="M435.741 178.258L433.146 176.762V173.794L435.741 175.29V178.258Z" fill="#FF9A2E"/>
<path d="M296.115 95.6421C296.115 96.7549 295.338 97.1977 294.381 96.6353C293.873 96.3086 293.45 95.866 293.147 95.3438C292.843 94.8217 292.668 94.2349 292.635 93.6317C292.635 92.5189 293.412 92.0761 294.381 92.6266C294.885 92.9593 295.304 93.4052 295.605 93.9288C295.906 94.4523 296.081 95.039 296.115 95.6421Z" fill="#504F58"/>
<path d="M295.756 95.439C295.756 96.3126 295.134 96.6356 294.381 96.2288C293.978 95.9667 293.643 95.6136 293.402 95.1978C293.161 94.782 293.021 94.3154 292.994 93.8355C292.994 92.962 293.616 92.6389 294.381 93.0458C294.781 93.3098 295.113 93.6638 295.352 94.0793C295.591 94.4948 295.729 94.9605 295.756 95.439Z" fill="#037795"/>
<path d="M295.398 101.996C295.398 102.75 294.871 103.049 294.202 102.678C293.855 102.456 293.566 102.155 293.358 101.799C293.15 101.443 293.029 101.044 293.006 100.632C293.006 99.8784 293.532 99.5792 294.202 99.9502C294.548 100.173 294.837 100.474 295.045 100.83C295.253 101.185 295.374 101.585 295.398 101.996Z" fill="#F9F1EC"/>
<path d="M295.182 101.901C295.182 102.535 294.74 102.786 294.178 102.475C293.885 102.283 293.642 102.025 293.468 101.721C293.293 101.418 293.192 101.078 293.173 100.728C293.173 100.094 293.628 99.8425 294.178 100.154C294.471 100.345 294.716 100.602 294.89 100.906C295.065 101.21 295.165 101.551 295.182 101.901Z" fill="#FF9A2E"/>
<path d="M343.75 134.76C343.75 135.514 343.223 135.813 342.554 135.43C342.206 135.209 341.915 134.908 341.707 134.552C341.499 134.196 341.379 133.796 341.358 133.384C341.358 132.63 341.884 127.521 342.554 127.904C343.223 128.286 343.75 134.006 343.75 134.76Z" fill="#F9F1EC"/>
<path d="M343.57 134.64C343.57 135.275 343.116 135.538 342.566 135.215C342.273 135.026 342.029 134.77 341.854 134.468C341.68 134.167 341.579 133.828 341.561 133.48C341.561 132.845 342.003 132.582 342.566 132.905C342.856 133.096 343.099 133.353 343.273 133.654C343.447 133.955 343.549 134.293 343.57 134.64Z" fill="#FF9A2E"/>
<path d="M379.317 150.496C379.317 151.25 378.779 151.549 378.121 151.178C377.775 150.952 377.486 150.649 377.278 150.291C377.071 149.934 376.95 149.532 376.925 149.12C376.925 148.378 377.463 148.067 378.121 148.45C378.466 148.674 378.753 148.976 378.961 149.331C379.168 149.686 379.29 150.085 379.317 150.496Z" fill="#F9F1EC"/>
<path d="M379.114 150.388C379.114 151.034 378.659 151.286 378.109 150.963C377.816 150.774 377.571 150.519 377.396 150.217C377.222 149.915 377.122 149.576 377.104 149.227C377.104 148.593 377.547 148.33 378.109 148.653C378.4 148.844 378.642 149.101 378.816 149.402C378.991 149.703 379.093 150.041 379.114 150.388Z" fill="#FF9A2E"/>
<path d="M297.048 47.9326L292.994 45.5872V43.7803L297.048 46.1257V47.9326Z" fill="#CDC6BC"/>
<path d="M296.689 47.4062L293.353 45.4677V44.1394L296.689 46.066V47.4062Z" fill="#FF9A2E"/>
<path d="M347.624 77.1423L343.57 74.7969V73.002L347.624 75.3473V77.1423Z" fill="#CDC6BC"/>
<path d="M347.266 76.6159L343.929 74.6893V73.3611L347.266 75.2877V76.6159Z" fill="#FF9A2E"/>
<path d="M411.404 113.987L407.35 111.641V109.834L411.404 112.18V113.987Z" fill="#CDC6BC"/>
<path d="M411.045 113.46L407.697 111.534V110.193L411.045 112.132V113.46Z" fill="#FF9A2E"/>
<path d="M325.081 95.6544C324.367 95.6339 323.67 95.4277 323.06 95.056L297.502 80.2896C294.883 78.7699 292.719 74.7133 292.719 71.2431V56.6562C292.639 55.8864 292.76 55.1092 293.071 54.4003C293.381 53.6914 293.869 53.0751 294.489 52.6116C295.025 52.3439 295.622 52.225 296.22 52.2671C296.817 52.3092 297.392 52.5108 297.885 52.8509L323.478 67.6293C326.097 69.149 328.262 73.2056 328.262 76.6758V91.2627C328.34 92.0336 328.217 92.8115 327.905 93.5205C327.593 94.2295 327.102 94.8452 326.48 95.3073C326.053 95.5454 325.57 95.6652 325.081 95.6544ZM323.478 94.3261C323.846 94.5883 324.276 94.7485 324.726 94.7906C325.175 94.8326 325.628 94.7549 326.038 94.5654C326.526 94.1733 326.906 93.6632 327.143 93.0833C327.379 92.5033 327.464 91.8726 327.389 91.2508V76.6638C327.389 73.4569 325.452 69.7234 323.06 68.2874L297.502 53.5808C297.137 53.3185 296.709 53.1582 296.261 53.1161C295.814 53.074 295.363 53.1518 294.955 53.3415C294.463 53.7308 294.079 54.2401 293.84 54.8205C293.602 55.401 293.516 56.0331 293.592 56.6562V71.2192C293.592 74.4261 295.529 78.1596 297.921 79.5956L323.478 94.3261Z" fill="#CDC6BC"/>
<path d="M364.858 118.63C364.147 118.614 363.453 118.408 362.849 118.031L337.256 103.265C334.636 101.757 332.472 97.7005 332.472 94.2302V79.5955C332.39 78.826 332.511 78.0484 332.824 77.3407C333.136 76.6329 333.63 76.0198 334.254 75.5628C334.786 75.2899 335.383 75.1679 335.979 75.2101C336.576 75.2522 337.15 75.457 337.638 75.8022L363.208 90.5686C365.815 92.0763 367.991 96.1329 367.991 99.6031V114.298C368.071 115.067 367.949 115.844 367.636 116.551C367.323 117.258 366.832 117.872 366.209 118.33C365.792 118.544 365.326 118.647 364.858 118.63ZM335.689 76.0774C335.355 76.0759 335.026 76.1582 334.732 76.3167C334.242 76.7075 333.859 77.217 333.621 77.797C333.382 78.3771 333.295 79.0084 333.369 79.6314V94.2302C333.369 97.4252 335.306 101.159 337.698 102.535L363.267 117.301C363.633 117.564 364.061 117.724 364.509 117.766C364.956 117.808 365.407 117.73 365.815 117.541C366.297 117.16 366.673 116.662 366.907 116.094C367.142 115.526 367.227 114.908 367.154 114.298V99.6989C367.154 96.4919 365.217 92.7704 362.837 91.3942L337.256 76.568C336.784 76.2731 336.244 76.1042 335.689 76.0774Z" fill="#CDC6BC"/>
<path d="M402.745 147.265L388.681 134.341C387.859 133.753 387.186 132.98 386.716 132.085C386.247 131.189 385.994 130.195 385.978 129.184V110.038C385.978 108.051 387.174 107.142 388.681 108.004L402.721 116.117C403.543 116.703 404.216 117.474 404.685 118.368C405.154 119.261 405.408 120.253 405.424 121.262V145.195C405.424 147.205 404.228 148.115 402.745 147.265Z" fill="#2D2C37"/>
<path d="M386.792 129.782V110.361C386.792 108.949 387.653 108.303 388.705 108.913L402.745 117.026C403.328 117.441 403.805 117.988 404.138 118.622C404.47 119.256 404.649 119.96 404.659 120.676V144.92C404.659 146.32 403.81 146.966 402.745 146.356L388.681 133.444C388.101 133.025 387.628 132.475 387.299 131.839C386.971 131.203 386.797 130.498 386.792 129.782Z" fill="#7572A4"/>
<path d="M393.034 163.587L388.681 161.086C387.186 160.224 385.978 153.104 385.978 151.118V138.936C385.978 136.95 387.174 136.04 388.681 136.902L393.01 139.403C393.829 139.991 394.499 140.763 394.966 141.656C395.433 142.55 395.685 143.54 395.701 144.549V161.541C395.725 163.527 394.517 164.436 393.034 163.587Z" fill="#2D2C37"/>
<path d="M386.792 151.728V139.247C386.792 137.835 387.653 137.189 388.705 137.799L393.034 140.3C393.614 140.718 394.087 141.266 394.418 141.9C394.748 142.533 394.925 143.236 394.936 143.95V161.241C394.936 162.642 394.087 163.288 393.034 162.677L388.681 160.176C387.653 159.566 386.792 153.128 386.792 151.728Z" fill="#7572A4"/>
<path d="M414.992 186.096C415.24 186.984 415.69 187.803 416.307 188.489C416.427 188.611 416.518 188.758 416.576 188.919C416.634 189.08 416.656 189.252 416.642 189.422C416.559 189.674 416.2 189.602 415.877 189.219C415.103 188.3 414.507 187.245 414.119 186.108C413.963 185.629 414.119 185.306 414.358 185.378C414.507 185.447 414.641 185.547 414.75 185.67C414.859 185.794 414.941 185.939 414.992 186.096Z" fill="#504F58"/>
<path d="M420.971 186.095C420.72 185.226 420.27 184.427 419.656 183.762C419.537 183.637 419.447 183.488 419.391 183.325C419.335 183.161 419.316 182.988 419.333 182.817C419.405 182.577 419.764 182.649 420.086 183.032C420.862 183.949 421.459 185.005 421.845 186.143C422 186.61 421.845 186.945 421.617 186.873C421.459 186.798 421.32 186.69 421.208 186.556C421.097 186.421 421.016 186.264 420.971 186.095Z" fill="#504F58"/>
<path d="M419.584 190.427C419.865 190.476 420.154 190.429 420.405 190.295C420.657 190.161 420.856 189.946 420.971 189.686C421.103 189.47 421.366 189.446 421.617 189.686C421.748 189.808 421.837 189.969 421.874 190.144C421.91 190.32 421.891 190.502 421.821 190.667C421.637 190.983 421.368 191.24 421.044 191.41C420.72 191.579 420.355 191.653 419.991 191.624C419.811 191.596 419.643 191.515 419.509 191.392C419.375 191.268 419.28 191.107 419.237 190.93C419.166 190.619 419.333 190.415 419.584 190.427Z" fill="#504F58"/>
<path d="M416.475 181.764C416.198 181.712 415.912 181.755 415.663 181.885C415.414 182.015 415.215 182.225 415.099 182.482C414.98 182.697 414.705 182.721 414.454 182.482C414.324 182.356 414.235 182.194 414.198 182.017C414.162 181.839 414.18 181.655 414.25 181.489C414.436 181.175 414.706 180.919 415.029 180.75C415.352 180.58 415.716 180.505 416.08 180.531C416.261 180.562 416.429 180.645 416.563 180.771C416.697 180.896 416.791 181.058 416.834 181.237C416.893 181.56 416.726 181.776 416.475 181.764Z" fill="#504F58"/>
<path d="M421.486 172.502H421.067L421.079 160.44L423.639 154.014L424.033 154.169L421.486 160.559V172.502Z" fill="#C9C3B9"/>
<path d="M438.193 175.039L422.407 157.448L422.718 157.173L438.504 174.764L438.193 175.039Z" fill="#C9C3B9"/>
<path d="M243.853 139.439L236.402 135.131L245.252 130.021L252.703 134.329L243.853 139.439Z" fill="#6B6164"/>
<path d="M392.783 198.062V217.208L384.591 212.421C382.45 205.51 377.878 199.609 371.723 195.812C363.985 191.337 362.92 196.542 358.567 204.296C358.238 204.999 357.954 205.722 357.718 206.462L292.563 168.816C292.563 167.99 292.563 167.105 292.563 166.172C292.563 157.293 286.296 146.475 278.559 142C270.821 137.524 264.554 141.114 264.554 149.993C264.554 150.927 264.554 151.824 264.554 152.686L243.781 140.719V66.9351L370.742 140.265L378.229 180.411L392.783 198.062Z" fill="#DED8D1"/>
<path d="M249.868 127.904C249.868 128.777 249.258 129.1 248.493 128.693C248.089 128.432 247.754 128.079 247.512 127.663C247.271 127.247 247.132 126.78 247.105 126.3C247.105 125.415 247.727 125.103 248.493 125.51C248.896 125.771 249.231 126.124 249.47 126.54C249.709 126.956 249.846 127.424 249.868 127.904Z" fill="#CDC6BC"/>
<path d="M335.282 171.329L244.63 118.953V116.32L245.79 114.992L335.282 168.696L336.442 169.989L335.282 171.329Z" fill="#CDC6BC"/>
<path d="M389.052 205.589L386.971 204.38V201.987L387.581 200.108L390.176 204.584L389.052 205.589Z" fill="#B5AA9C"/>
<path d="M380.195 225.663C384.409 223.198 384.363 215.275 380.093 207.967C375.823 200.658 368.945 196.731 364.731 199.196C360.518 201.661 360.563 209.584 364.833 216.893C369.103 224.201 375.981 228.128 380.195 225.663Z" fill="#2D2C37"/>
<path d="M380.195 225.663C384.409 223.198 384.363 215.275 380.093 207.967C375.823 200.658 368.945 196.731 364.731 199.196C360.518 201.661 360.563 209.584 364.833 216.893C369.103 224.201 375.981 228.128 380.195 225.663Z" fill="#393843"/>
<path d="M382.701 218.572C382.701 225.189 378.025 227.87 372.249 224.555C366.472 221.241 361.796 213.139 361.796 206.51C361.796 199.881 366.472 197.224 372.249 200.527C378.025 203.83 382.701 211.943 382.701 218.572Z" fill="#2D2C37"/>
<path d="M289.418 164.46C289.418 171.353 284.562 174.117 278.559 170.659C272.555 167.201 267.688 158.8 267.688 151.908C267.688 145.015 272.555 142.239 278.559 145.709C284.562 149.18 289.418 157.568 289.418 164.46Z" fill="#393843"/>
<path d="M288.354 164.329C288.354 170.958 283.677 173.627 277.901 170.312C272.125 166.997 267.448 158.896 267.448 152.267C267.448 145.637 272.137 142.969 277.901 146.284C283.665 149.598 288.354 157.7 288.354 164.329Z" fill="#2D2C37"/>
<path d="M283.753 167.538C286.684 165.824 286.655 160.318 283.688 155.24C280.721 150.162 275.94 147.435 273.009 149.15C270.078 150.864 270.107 156.37 273.074 161.448C276.041 166.526 280.822 169.253 283.753 167.538Z" fill="#504F58"/>
<path d="M285.423 162.163C285.423 166.507 282.362 168.254 278.583 166.076C276.595 164.784 274.94 163.041 273.751 160.989C272.563 158.937 271.874 156.633 271.742 154.265C271.742 149.933 274.804 148.186 278.583 150.364C280.57 151.654 282.225 153.394 283.414 155.445C284.603 157.495 285.291 159.797 285.423 162.163Z" fill="#C4C2BB"/>
<path d="M284.73 161.732C284.73 165.633 281.979 167.213 278.583 165.25C276.795 164.087 275.305 162.519 274.235 160.673C273.165 158.827 272.545 156.755 272.424 154.624C272.424 150.723 275.186 149.155 278.583 151.118C278.898 151.302 279.202 151.506 279.492 151.728C282.272 153.925 284.118 157.093 284.658 160.595C284.705 160.972 284.729 161.352 284.73 161.732Z" fill="#B0AC9E"/>
<path d="M280.807 163.659C279.114 162.56 277.704 161.077 276.692 159.33C275.68 157.584 275.095 155.623 274.983 153.607C274.941 153.005 275.021 152.4 275.216 151.829C275.411 151.258 275.718 150.731 276.119 150.28C273.954 150.113 272.424 151.728 272.424 154.624C272.545 156.755 273.165 158.827 274.235 160.673C275.305 162.519 276.795 164.087 278.583 165.25C281.058 166.674 283.187 166.231 284.168 164.377C282.997 164.562 281.8 164.306 280.807 163.659Z" fill="#B7B4A9"/>
<g style="mix-blend-mode:multiply">
<path d="M284.371 161.05C284.371 163.443 282.685 164.401 280.604 163.204C279.508 162.488 278.596 161.525 277.94 160.393C277.283 159.26 276.901 157.989 276.825 156.682C276.825 154.289 278.511 153.332 280.604 154.54C281.699 155.252 282.612 156.213 283.266 157.344C283.921 158.475 284.299 159.745 284.371 161.05Z" fill="#CDC6BC"/>
</g>
<path d="M284.634 160.595C283.988 161.541 282.757 161.72 281.357 160.906C280.262 160.19 279.349 159.228 278.693 158.095C278.037 156.962 277.655 155.692 277.578 154.385C277.578 152.781 278.343 151.812 279.468 151.728C282.248 153.925 284.094 157.093 284.634 160.595Z" fill="#9D9783"/>
<path d="M278.583 152.04L275.748 153.679L281.333 162.737L284.12 161.122L282.218 156.575L278.583 152.04Z" fill="#9D9783"/>
<path d="M282.362 160.356C282.362 162.749 280.664 163.719 278.583 162.51C277.489 161.795 276.577 160.834 275.921 159.704C275.265 158.574 274.882 157.305 274.804 156C274.804 153.607 276.502 152.65 278.583 153.846C279.677 154.561 280.588 155.522 281.244 156.653C281.901 157.783 282.283 159.051 282.362 160.356Z" fill="#B7B4A9"/>
<path d="M281.991 160.296C281.991 162.594 280.377 163.515 278.403 162.366C277.359 161.681 276.491 160.759 275.868 159.677C275.244 158.594 274.884 157.38 274.815 156.132C274.815 153.846 276.43 152.925 278.403 154.074C279.448 154.755 280.318 155.674 280.941 156.755C281.565 157.837 281.924 159.05 281.991 160.296Z" fill="#D5D2C9"/>
<path d="M379.807 216.933C379.807 221.719 376.435 223.646 372.261 221.229C370.078 219.799 368.262 217.875 366.96 215.614C365.657 213.352 364.904 210.816 364.762 208.209C364.762 203.423 368.147 201.496 372.309 203.901C374.493 205.332 376.311 207.257 377.614 209.521C378.916 211.785 379.668 214.324 379.807 216.933Z" fill="#504F58"/>
<path d="M379.305 216.37C379.305 220.702 376.243 222.449 372.464 220.271C370.476 218.979 368.821 217.236 367.633 215.184C366.444 213.132 365.756 210.829 365.623 208.461C365.623 204.129 368.685 202.382 372.464 204.56C374.452 205.852 376.107 207.595 377.296 209.647C378.484 211.699 379.173 214.002 379.305 216.37Z" fill="#C4C2BB"/>
<path d="M378.444 215.868C378.444 219.673 375.765 221.193 372.464 219.29C370.725 218.162 369.276 216.638 368.237 214.844C367.198 213.049 366.598 211.034 366.484 208.963C366.484 205.17 369.163 203.638 372.464 205.541C374.203 206.669 375.652 208.193 376.691 209.987C377.73 211.782 378.331 213.797 378.444 215.868Z" fill="#B7B4A9"/>
<path d="M377.714 215.449C377.714 218.775 375.322 220.116 372.464 218.44C370.94 217.448 369.671 216.111 368.759 214.538C367.847 212.964 367.318 211.198 367.214 209.382C367.214 206.055 369.606 204.715 372.464 206.39C373.988 207.382 375.257 208.719 376.169 210.293C377.081 211.866 377.611 213.633 377.714 215.449Z" fill="#D5D2C9"/>
<path d="M375.167 214.623C375.167 216.61 373.756 217.411 372.034 216.406C371.121 215.816 370.36 215.019 369.813 214.079C369.267 213.139 368.95 212.083 368.888 210.997C368.888 209.011 370.299 208.209 372.034 209.214C372.943 209.807 373.7 210.605 374.245 211.545C374.789 212.485 375.105 213.539 375.167 214.623Z" fill="#CAC6BC"/>
<path d="M369.474 212.421C369.723 213.31 370.173 214.129 370.79 214.815C370.909 214.937 371.001 215.084 371.058 215.245C371.116 215.406 371.139 215.578 371.125 215.748C371.041 215.987 370.682 215.916 370.359 215.533C369.583 214.62 368.987 213.568 368.601 212.433C368.446 211.955 368.601 211.632 368.84 211.691C368.991 211.762 369.125 211.864 369.234 211.99C369.343 212.115 369.425 212.262 369.474 212.421Z" fill="#504F58"/>
<path d="M374.414 214.432C374.414 216.179 373.218 216.825 371.651 215.999C370.846 215.476 370.176 214.77 369.696 213.938C369.216 213.106 368.939 212.172 368.888 211.213C368.888 209.466 370.084 208.82 371.651 209.633C372.458 210.157 373.13 210.865 373.61 211.699C374.09 212.534 374.366 213.47 374.414 214.432Z" fill="#DDDDDB"/>
<path d="M373.134 213.702C373.134 214.647 372.452 215.03 371.627 214.551C371.193 214.268 370.832 213.886 370.572 213.437C370.312 212.988 370.162 212.484 370.132 211.967C370.132 211.009 370.802 210.626 371.627 211.105C372.064 211.389 372.428 211.772 372.69 212.224C372.952 212.675 373.104 213.181 373.134 213.702Z" fill="#B7B4A9"/>
<path d="M394.78 224.842L386.863 223.969L383.204 221.851L382.343 213.092L387.126 215.856L394.78 218.488V224.842Z" fill="#493F41"/>
<path d="M369.941 137.476L244.893 65.2358L243.853 66.9351L370.79 140.265L369.941 137.476Z" fill="#F3F1EE"/>
<path d="M335.593 167.859L244.941 115.482L245.79 114.992L336.442 167.368L335.593 167.859Z" fill="#6B6164"/>
<path d="M335.593 167.859V170.491L336.442 169.989V167.368L335.593 167.859Z" fill="#554D4E"/>
<path d="M337.674 192.318V133.755L363.806 148.856V186.227L355.207 202.453L337.674 192.318Z" fill="#CDC6BC"/>
<path d="M371.352 148.402L365.468 145.003V178.365L374.186 183.403L376.662 179.383L371.352 148.402Z" fill="#2D2C37"/>
<path d="M366.257 177.922V146.355L370.754 148.964L375.825 178.796L373.72 182.23L366.257 177.922Z" fill="#573F3F"/>
<path d="M243.853 139.439L236.402 135.131V136.471L243.853 140.779V139.439Z" fill="#493F41"/>
<path d="M390.439 205.038L387.318 203.231V199.653L390.439 201.46V205.038Z" fill="#504F58"/>
<path d="M390.176 204.584L386.744 201.173L387.581 200.108L390.176 201.604V204.584Z" fill="#FF9A2E"/>
<path d="M388.825 204.775L386.744 203.566V201.173L388.825 202.382V204.775Z" fill="#E06F2E"/>
<path d="M250.55 126.779C250.55 127.88 249.772 128.322 248.816 127.772C248.309 127.441 247.887 126.996 247.584 126.472C247.28 125.948 247.104 125.361 247.07 124.756C247.07 123.644 247.847 123.201 248.816 123.763C249.322 124.094 249.742 124.539 250.044 125.063C250.345 125.587 250.518 126.175 250.55 126.779Z" fill="#504F58"/>
<path d="M250.191 126.563C250.191 127.437 249.569 127.76 248.816 127.353C248.412 127.092 248.076 126.739 247.835 126.323C247.594 125.907 247.455 125.44 247.428 124.96C247.428 124.086 248.05 123.763 248.816 124.182C249.215 124.443 249.548 124.795 249.787 125.209C250.026 125.622 250.164 126.086 250.191 126.563Z" fill="#037795"/>
<path d="M247.727 124.146C247.438 124.438 247.185 124.763 246.974 125.115C246.842 125.426 248.445 127.676 248.445 127.676C248.897 127.689 249.347 127.616 249.772 127.461C250.275 127.221 247.727 124.146 247.727 124.146Z" fill="#037795"/>
<path d="M249.952 133.611C249.952 134.365 249.426 134.664 248.756 134.293C248.409 134.071 248.12 133.77 247.912 133.414C247.704 133.058 247.584 132.659 247.56 132.247C247.56 131.493 248.086 131.194 248.756 131.565C249.103 131.788 249.392 132.089 249.6 132.445C249.807 132.8 249.928 133.2 249.952 133.611Z" fill="#B5AA9C"/>
<path d="M298.316 161.565C298.316 162.319 297.789 162.618 297.12 162.247C296.774 162.023 296.486 161.721 296.279 161.366C296.071 161.011 295.949 160.611 295.924 160.2C295.924 159.447 296.45 159.135 297.12 159.518C297.466 159.741 297.756 160.042 297.963 160.398C298.171 160.753 298.292 161.153 298.316 161.565Z" fill="#B5AA9C"/>
<path d="M333.883 182.111C333.883 182.865 333.345 183.164 332.687 182.793C332.342 182.566 332.055 182.262 331.847 181.905C331.639 181.547 331.518 181.147 331.491 180.735C331.491 179.993 332.029 179.682 332.687 180.065C333.033 180.288 333.322 180.589 333.53 180.945C333.737 181.3 333.858 181.7 333.883 182.111Z" fill="#B5AA9C"/>
<path d="M248.995 126.91C248.995 127.604 248.517 127.879 247.919 127.532C247.602 127.327 247.339 127.05 247.149 126.724C246.96 126.397 246.851 126.031 246.83 125.654C246.83 124.96 247.309 124.684 247.919 125.031C248.233 125.238 248.494 125.516 248.681 125.842C248.868 126.168 248.976 126.534 248.995 126.91Z" fill="#037795"/>
<path d="M250.059 133.013C250.059 133.767 249.521 134.066 248.864 133.695C248.519 133.471 248.231 133.169 248.024 132.814C247.816 132.458 247.694 132.06 247.668 131.649C247.668 130.895 248.206 130.584 248.864 130.967C249.208 131.191 249.496 131.493 249.703 131.848C249.911 132.204 250.033 132.602 250.059 133.013Z" fill="#9DA1BF"/>
<path d="M298.447 160.966C298.447 161.72 297.909 162.019 297.251 161.636C296.905 161.413 296.617 161.112 296.409 160.756C296.201 160.401 296.08 160.001 296.055 159.59C296.055 158.848 296.594 158.537 297.251 158.92C297.599 159.142 297.888 159.443 298.096 159.799C298.304 160.155 298.425 160.555 298.447 160.966Z" fill="#9DA1BF"/>
<path d="M334.003 181.512C334.003 182.266 333.476 182.565 332.807 182.183C332.459 181.962 332.169 181.661 331.96 181.305C331.752 180.949 331.632 180.548 331.611 180.136C331.611 179.382 332.137 179.083 332.807 179.466C333.155 179.687 333.445 179.988 333.653 180.344C333.861 180.7 333.981 181.101 334.003 181.512Z" fill="#9DA1BF"/>
<path d="M249.796 133.133C249.796 133.875 249.27 134.186 248.6 133.803C248.252 133.582 247.962 133.281 247.754 132.925C247.546 132.569 247.426 132.168 247.404 131.757C247.404 131.003 247.931 130.703 248.6 131.074C248.947 131.299 249.236 131.603 249.444 131.961C249.652 132.318 249.773 132.72 249.796 133.133Z" fill="#F9F1EC"/>
<path d="M249.617 133.025C249.617 133.659 249.174 133.923 248.612 133.6C248.322 133.408 248.079 133.152 247.905 132.851C247.731 132.55 247.629 132.212 247.608 131.864C247.608 131.218 248.062 130.967 248.612 131.29C248.905 131.479 249.149 131.735 249.324 132.036C249.498 132.338 249.599 132.677 249.617 133.025Z" fill="#E06F2E"/>
<path d="M298.184 161.074C298.184 161.828 297.658 162.139 296.988 161.756C296.642 161.534 296.352 161.232 296.145 160.877C295.937 160.521 295.816 160.121 295.792 159.71C295.792 158.956 296.319 158.657 296.988 159.028C297.334 159.252 297.622 159.553 297.829 159.909C298.037 160.264 298.159 160.663 298.184 161.074Z" fill="#F9F1EC"/>
<path d="M298.005 160.966C298.005 161.6 297.55 161.864 297 161.541C296.707 161.352 296.464 161.096 296.289 160.794C296.114 160.493 296.014 160.154 295.996 159.806C295.996 159.159 296.438 158.908 297 159.231C297.293 159.42 297.537 159.676 297.711 159.978C297.886 160.279 297.987 160.618 298.005 160.966Z" fill="#E06F2E"/>
<path d="M333.752 181.62C333.752 182.374 333.213 182.685 332.556 182.302C332.21 182.079 331.921 181.778 331.713 181.422C331.505 181.067 331.384 180.667 331.36 180.256C331.36 179.502 331.898 179.203 332.556 179.574C332.9 179.798 333.188 180.1 333.395 180.455C333.603 180.811 333.725 181.21 333.752 181.62Z" fill="#F9F1EC"/>
<path d="M333.572 181.524C333.572 182.158 333.118 182.41 332.567 182.099C332.274 181.908 332.03 181.65 331.855 181.346C331.68 181.042 331.58 180.702 331.563 180.352C331.563 179.717 332.005 179.466 332.567 179.777C332.86 179.969 333.103 180.228 333.278 180.531C333.452 180.835 333.553 181.175 333.572 181.524Z" fill="#E06F2E"/>
<path d="M251.483 74.2465L247.428 71.9011V70.1062L251.483 72.4516V74.2465Z" fill="#CDC6BC"/>
<path d="M251.124 73.7202L247.787 71.7936V70.4653L251.124 72.3919V73.7202Z" fill="#E06F2E"/>
<path d="M302.059 103.468L298.005 101.123V99.3159L302.059 101.661V103.468Z" fill="#CDC6BC"/>
<path d="M301.7 102.942L298.364 101.015V99.675L301.7 101.614V102.942Z" fill="#E06F2E"/>
<path d="M365.839 140.312L361.772 137.967V136.16L365.839 138.506V140.312Z" fill="#CDC6BC"/>
<path d="M365.48 139.786L362.143 137.86V136.519L365.48 138.446V139.786Z" fill="#E06F2E"/>
<path d="M357.18 173.579L343.14 165.466C342.318 164.88 341.645 164.109 341.176 163.215C340.707 162.321 340.453 161.33 340.437 160.32V141.174C340.437 139.188 341.633 138.278 343.14 139.14L357.18 147.253C358.002 147.841 358.676 148.614 359.145 149.51C359.614 150.406 359.867 151.399 359.883 152.41V171.557C359.883 173.531 358.675 174.44 357.18 173.579Z" fill="#2D2C37"/>
<path d="M341.226 160.966V141.485C341.226 140.073 342.087 139.427 343.14 140.037L357.18 148.162C357.756 148.571 358.228 149.108 358.56 149.731C358.892 150.354 359.075 151.046 359.093 151.752V171.174C359.093 172.586 358.244 173.232 357.18 172.622L343.14 164.556C342.567 164.145 342.096 163.607 341.764 162.985C341.432 162.362 341.248 161.672 341.226 160.966Z" fill="#573F3F"/>
<path d="M347.469 189.901L343.14 187.4C342.317 186.814 341.644 186.043 341.175 185.15C340.705 184.256 340.452 183.264 340.437 182.254V170.061C340.437 168.074 341.633 167.165 343.14 168.026L347.469 170.527C348.288 171.118 348.958 171.892 349.425 172.787C349.892 173.683 350.144 174.675 350.16 175.685V187.866C350.16 189.853 348.952 190.762 347.469 189.901Z" fill="#2D2C37"/>
<path d="M341.226 182.853V170.372C341.226 168.972 342.087 168.325 343.14 168.924L347.469 171.437C348.042 171.847 348.513 172.384 348.843 173.007C349.173 173.63 349.353 174.322 349.37 175.027V187.507C349.37 188.919 348.521 189.566 347.469 188.955L343.14 186.454C342.565 186.042 342.093 185.502 341.762 184.878C341.43 184.253 341.246 183.56 341.226 182.853Z" fill="#573F3F"/>
<path d="M375.454 212.421C375.21 211.531 374.759 210.711 374.138 210.028C374.016 209.908 373.924 209.761 373.868 209.599C373.812 209.437 373.794 209.265 373.816 209.095C373.887 208.856 374.246 208.927 374.569 209.31C375.345 210.228 375.941 211.283 376.327 212.421C376.482 212.888 376.327 213.223 376.1 213.151C375.947 213.082 375.81 212.981 375.699 212.855C375.588 212.729 375.504 212.582 375.454 212.421Z" fill="#504F58"/>
<path d="M374.019 216.753C374.297 216.802 374.583 216.757 374.832 216.624C375.081 216.492 375.279 216.281 375.394 216.023C375.526 215.82 375.789 215.796 376.04 216.023C376.17 216.149 376.259 216.311 376.295 216.488C376.332 216.666 376.313 216.85 376.243 217.016C376.057 217.33 375.788 217.586 375.464 217.756C375.141 217.925 374.777 218 374.414 217.974C374.233 217.946 374.066 217.865 373.931 217.741C373.797 217.618 373.703 217.457 373.66 217.28C373.6 216.945 373.768 216.741 374.019 216.753Z" fill="#504F58"/>
<path d="M370.909 208.078C370.631 208.036 370.346 208.087 370.1 208.223C369.853 208.36 369.659 208.573 369.546 208.832C369.426 209.035 369.151 209.059 368.9 208.832C368.77 208.706 368.681 208.544 368.645 208.367C368.609 208.189 368.627 208.005 368.697 207.838C368.883 207.524 369.152 207.268 369.476 207.099C369.799 206.93 370.163 206.855 370.527 206.881C370.706 206.911 370.873 206.992 371.007 207.115C371.141 207.239 371.236 207.399 371.28 207.575C371.328 207.886 371.161 208.09 370.909 208.078Z" fill="#504F58"/>
<path d="M370.598 215.221C369.825 214.303 369.228 213.248 368.84 212.11C368.813 211.976 368.813 211.838 368.84 211.703C368.613 211.703 368.506 211.991 368.649 212.433C369.034 213.568 369.631 214.62 370.407 215.533C370.73 215.916 371.089 215.987 371.173 215.748C371.173 215.748 371.173 215.616 371.173 215.557C370.947 215.518 370.743 215.399 370.598 215.221Z" fill="#B7B4A9"/>
<path d="M376.339 212.816C376.181 212.742 376.041 212.633 375.93 212.499C375.818 212.365 375.738 212.207 375.693 212.038C375.451 211.148 375 210.327 374.378 209.645C374.198 209.433 374.089 209.169 374.067 208.891C373.947 208.891 373.839 208.891 373.816 209.023C373.794 209.193 373.812 209.366 373.868 209.527C373.924 209.689 374.016 209.836 374.138 209.956C374.759 210.639 375.21 211.459 375.454 212.35C375.498 212.519 375.579 212.676 375.691 212.81C375.802 212.945 375.942 213.053 376.1 213.127C376.267 213.127 376.375 213.032 376.387 212.804L376.339 212.816Z" fill="#B7B4A9"/>
<path d="M374.653 217.663C374.472 217.631 374.305 217.547 374.171 217.422C374.037 217.296 373.943 217.135 373.899 216.957C373.899 216.885 373.899 216.849 373.899 216.789C373.849 216.803 373.802 216.826 373.761 216.859C373.72 216.891 373.687 216.932 373.662 216.978C373.637 217.024 373.622 217.074 373.618 217.126C373.613 217.178 373.62 217.23 373.636 217.28C373.679 217.457 373.773 217.618 373.908 217.741C374.042 217.865 374.209 217.946 374.39 217.974C374.753 218 375.117 217.925 375.441 217.756C375.764 217.586 376.033 217.33 376.219 217.016C376.024 217.236 375.782 217.408 375.51 217.52C375.239 217.632 374.946 217.681 374.653 217.663Z" fill="#B7B4A9"/>
<path d="M369.127 208.484C368.999 208.362 368.912 208.204 368.875 208.031C368.839 207.858 368.856 207.678 368.924 207.515C368.834 207.606 368.754 207.707 368.685 207.814C368.615 207.981 368.597 208.165 368.633 208.342C368.669 208.52 368.758 208.682 368.888 208.807C369.139 209.035 369.414 209.011 369.534 208.807C369.597 208.702 369.669 208.602 369.749 208.508C369.618 208.688 369.367 208.712 369.127 208.484Z" fill="#B7B4A9"/>
<path d="M371.149 207.767C370.886 207.711 370.612 207.746 370.371 207.865C370.13 207.985 369.936 208.182 369.821 208.425C369.963 208.287 370.136 208.183 370.324 208.123C370.513 208.063 370.714 208.047 370.909 208.078C371.113 208.078 371.22 207.934 371.244 207.719C371.208 207.731 371.184 207.767 371.149 207.767Z" fill="#B7B4A9"/>
<path d="M375.92 198.828H375.502L375.514 186.766L378.073 180.34L378.468 180.495L375.92 186.885V198.828Z" fill="#C9C3B9"/>
<path d="M392.628 201.364L376.841 183.774L377.152 183.487L392.939 201.077L392.628 201.364Z" fill="#C9C3B9"/>
<path d="M438.349 171.736L392.783 198.05V217.256L438.349 190.93V171.736Z" fill="#E4DFD9"/>
<path d="M428.494 178.413L402.638 193.347V212.302L428.494 197.356V178.413Z" fill="#EBE7E3"/>
<path d="M427.178 181.524L403.941 194.95V199.665L427.178 186.251V181.524Z" fill="#554D4E"/>
<path d="M427.178 189.913L403.941 203.339V210.291L427.178 196.865V189.913Z" fill="#554D4E"/>
<path d="M425.827 185.461L403.941 198.109V199.665L427.178 186.251V181.524L425.827 182.302V185.461Z" fill="#CDC6BC"/>
<path d="M425.827 190.691V196.087L403.941 208.724V210.291L427.178 196.865V189.913L425.827 190.691Z" fill="#CDC6BC"/>
<path d="M392.783 198.05L438.349 171.736L423.842 154.097L378.276 180.411L392.783 198.05Z" fill="#F3F1EE"/>
<path d="M378.276 180.411L392.891 197.188L401.454 192.545L437.715 171.484L423.842 154.097L438.349 171.736L392.783 198.05L378.276 180.411Z" fill="#FAF8F5"/>
<path d="M402.638 193.347L428.494 178.413L419.333 167.679L393.465 182.613L402.638 193.347Z" fill="#F3F1EE"/>
<path d="M370.79 140.265L416.355 113.939L423.842 154.098L378.276 180.412L370.79 140.265Z" fill="#EBE7E3"/>
<path d="M401.49 164.532L401.657 165.31L378.934 178.437L373.564 147.612L396.168 134.557L396.335 135.334L401.49 164.532Z" fill="#554D4E"/>
<path d="M400.808 164.927L392.544 169.702L379.46 177.264L378.276 170.36L374.557 148.809L374.425 147.995L387.055 140.695L395.641 135.729L398.966 154.541L399.648 158.37L400.808 164.927Z" fill="#B08480"/>
<path d="M422.55 153.236L402.506 164.819L402.339 164.042L397.172 134.844L397.017 134.066L417.192 122.411L422.55 153.236Z" fill="#554D4E"/>
<path d="M421.701 152.853L414.86 156.814L405.556 162.187L403.032 163.647L402.052 158.118L401.872 157.113L398.452 137.752L397.866 134.449L409.502 127.724L416.666 123.583L419.345 139.152L421.438 151.333L421.701 152.853Z" fill="#B08480"/>
<path d="M421.39 152.47L420.852 153.356L417.85 155.079L411.811 151.597V126.384L416.499 123.691L421.39 152.47Z" fill="#D6B6B2"/>
<path d="M370.79 140.265L416.355 113.939L415.506 111.151L369.941 137.476L370.79 140.265Z" fill="#F3F1EE"/>
<path d="M415.506 111.151L290.458 38.9102L244.893 65.236L369.941 137.477L415.506 111.151Z" fill="#FCFBFA"/>
<path d="M440.561 192.043L394.78 218.488V224.842L440.561 198.409V192.043Z" fill="#554D4E"/>
<path d="M390.176 201.604L388.825 202.382V204.775L390.176 204.584V201.604Z" fill="#E07427"/>
<path d="M401.729 192.88V212.086L402.638 212.302V193.347L401.729 192.88Z" fill="#DED8D1"/>
<path d="M335.593 170.491L244.941 118.115V115.482L335.593 167.859V170.491Z" fill="#493F41"/>
<path d="M429.224 194.257L435.454 190.655L429.75 191.516L429.224 192.378V194.257Z" fill="#B5AA9C"/>
<path d="M429.642 178.605L434.426 176.331C434.904 176.056 435.287 176.271 435.287 176.81V186.849C435.271 187.147 435.185 187.437 435.036 187.695C434.886 187.953 434.677 188.172 434.426 188.333L429.642 191.109C429.176 191.385 428.793 191.109 428.793 190.619V180.579C428.819 179.838 429.122 179.133 429.642 178.605Z" fill="#B5AA9C"/>
<path d="M435.921 175.625L435.43 175.338C435.333 175.296 435.227 175.28 435.122 175.293C435.017 175.305 434.917 175.346 434.832 175.41L430.049 178.186C429.803 178.348 429.598 178.566 429.451 178.822C429.303 179.077 429.217 179.363 429.2 179.658V189.685C429.191 189.784 429.206 189.883 429.244 189.975C429.281 190.066 429.34 190.148 429.415 190.212H429.475L429.953 190.487L430.097 190.104L434.88 187.364C435.131 187.203 435.34 186.984 435.49 186.726C435.64 186.468 435.726 186.178 435.741 185.88V176.187L435.921 175.625Z" fill="#393843"/>
<path d="M430.455 178.425L435.239 175.649C435.705 175.374 436.088 175.649 436.088 176.14V186.179C436.07 186.474 435.984 186.76 435.837 187.015C435.69 187.271 435.485 187.488 435.239 187.651L430.455 190.427C429.989 190.703 429.606 190.427 429.606 189.949V179.909C429.622 179.612 429.707 179.324 429.855 179.066C430.002 178.809 430.208 178.589 430.455 178.425Z" fill="#5C5B64"/>
<path d="M430.707 179.012L435.036 176.511C435.347 176.331 435.61 176.511 435.61 176.846V186.096C435.599 186.295 435.541 186.488 435.441 186.661C435.342 186.833 435.203 186.98 435.036 187.089L430.707 189.59C430.384 189.781 430.12 189.59 430.12 189.267V180.041C430.129 179.835 430.187 179.634 430.289 179.455C430.391 179.276 430.534 179.124 430.707 179.012Z" fill="#CFCEDF"/>
<path d="M436.483 177.312L435.478 176.499L430.336 189.626L431.556 189.889L436.483 177.312Z" fill="#CFCEDF"/>
<path d="M431.902 179.718L436.04 177.324C436.351 177.145 436.603 177.324 436.603 177.635V186.479C436.591 186.67 436.534 186.855 436.436 187.02C436.339 187.184 436.203 187.323 436.04 187.424L431.902 189.817C431.592 189.997 431.34 189.817 431.34 189.506V180.675C431.35 180.482 431.406 180.294 431.504 180.127C431.602 179.96 431.738 179.82 431.902 179.718Z" fill="#F3F1EE"/>
<g style="mix-blend-mode:multiply">
<path d="M430.922 179.335L435.06 176.941C435.371 176.762 435.622 176.941 435.622 177.252V186.095C435.612 186.289 435.556 186.477 435.458 186.643C435.361 186.81 435.224 186.951 435.06 187.053L430.922 189.446C430.611 189.614 430.36 189.446 430.36 189.123V180.292C430.369 180.099 430.425 179.911 430.523 179.744C430.621 179.577 430.758 179.437 430.922 179.335Z" fill="#EEFAF9"/>
</g>
<path d="M430.527 193.85L436.758 190.248V188.357L430.527 191.959V193.85Z" fill="#E07427"/>
<path d="M430.527 191.959L429.75 191.516L435.981 187.915L436.758 188.357L430.527 191.959Z" fill="#FF9A2E"/>
<path d="M430.527 191.959L429.75 191.516V193.395L430.527 193.85V191.959Z" fill="#E06F2E"/>
<path d="M394.194 214.527L400.425 210.926L394.721 211.787L394.194 212.649V214.527Z" fill="#B5AA9C"/>
<path d="M394.661 198.876L399.445 196.602C399.923 196.327 400.306 196.542 400.306 197.081V207.12C400.29 207.418 400.204 207.708 400.054 207.966C399.905 208.224 399.696 208.443 399.445 208.604L394.661 211.38C394.194 211.656 393.812 211.38 393.812 210.89V200.85C393.838 200.109 394.141 199.404 394.661 198.876Z" fill="#B5AA9C"/>
<path d="M400.892 195.896L400.401 195.609C400.304 195.567 400.198 195.551 400.093 195.564C399.988 195.576 399.888 195.617 399.803 195.681L395.02 198.457C394.774 198.619 394.569 198.837 394.422 199.093C394.274 199.348 394.188 199.634 394.17 199.929V209.968C394.162 210.067 394.177 210.166 394.214 210.258C394.252 210.349 394.311 210.431 394.386 210.495H394.446L394.924 210.77L395.067 210.387L399.851 207.647C400.102 207.486 400.311 207.267 400.461 207.009C400.611 206.751 400.697 206.461 400.712 206.163V196.47L400.892 195.896Z" fill="#393843"/>
<path d="M395.438 198.696L400.222 195.92C400.688 195.645 401.071 195.92 401.071 196.411V206.438C401.053 206.733 400.967 207.019 400.82 207.274C400.672 207.53 400.468 207.747 400.222 207.91L395.438 210.686C394.96 210.962 394.577 210.746 394.577 210.208V200.168C394.594 199.872 394.681 199.584 394.831 199.329C394.981 199.073 395.189 198.856 395.438 198.696Z" fill="#5C5B64"/>
<path d="M395.677 199.259L400.007 196.758C400.318 196.578 400.581 196.758 400.581 197.093V206.319C400.57 206.518 400.512 206.711 400.412 206.884C400.313 207.057 400.174 207.203 400.007 207.312L395.677 209.813C395.354 210.004 395.091 209.813 395.091 209.49V200.264C395.104 200.062 395.163 199.866 395.265 199.691C395.367 199.517 395.508 199.369 395.677 199.259Z" fill="#CFCEDF"/>
<path d="M401.454 197.583L400.449 196.77L395.307 209.909L396.526 210.16L401.454 197.583Z" fill="#CFCEDF"/>
<path d="M396.873 199.989L401.011 197.595C401.322 197.416 401.573 197.595 401.573 197.906V206.75C401.562 206.941 401.505 207.126 401.407 207.291C401.309 207.455 401.174 207.594 401.011 207.695L396.873 210.088C396.562 210.256 396.311 210.088 396.311 209.765V200.934C396.323 200.743 396.379 200.557 396.477 200.393C396.575 200.228 396.711 200.09 396.873 199.989Z" fill="#F3F1EE"/>
<path d="M395.498 214.121L401.729 210.519V208.64L395.498 212.23V214.121Z" fill="#E07427"/>
<g style="mix-blend-mode:multiply">
<path d="M429.881 193.491L436.112 189.889V188.01L429.881 191.612V193.491Z" fill="#F5EC73"/>
</g>
<g style="mix-blend-mode:multiply">
<path d="M394.852 213.762L401.083 210.16V208.281L394.852 211.883V213.762Z" fill="#F5EC73"/>
</g>
<path d="M395.498 212.23L394.721 211.787L400.951 208.185L401.729 208.64L395.498 212.23Z" fill="#FF9A2E"/>
<path d="M395.498 212.23L394.721 211.787V213.666L395.498 214.121V212.23Z" fill="#E06F2E"/>
<path d="M339.038 191.528V134.545L337.674 133.755V192.318L355.207 202.453L355.852 201.245L339.038 191.528Z" fill="#9B897F"/>
<path d="M399.648 158.37L400.808 164.927L379.46 177.264L378.276 170.36L399.648 158.37Z" fill="#997A77"/>
<path d="M421.701 152.853L403.032 163.647L401.872 157.113L414.884 149.814L421.438 151.333L421.701 152.853Z" fill="#997A77"/>
<path d="M339.038 191.528L337.674 192.318L355.207 202.454L355.852 201.245L339.038 191.528Z" fill="#F3F1EE"/>
<path d="M354.358 207.156L333.082 194.879V196.207L354.358 208.497V207.156Z" fill="#493F41"/>
<path d="M354.358 207.156L357.718 205.218V206.558L354.358 208.497V207.156Z" fill="#554D4E"/>
<path d="M354.358 207.156L357.718 205.218L336.442 192.928L333.082 194.879L354.358 207.156Z" fill="#6B6164"/>
<g style="mix-blend-mode:multiply">
<path d="M395.857 199.462L400.007 197.069C400.318 196.901 400.557 197.069 400.557 197.392V206.223C400.549 206.415 400.494 206.602 400.399 206.769C400.303 206.935 400.168 207.077 400.007 207.18L395.857 209.573C395.558 209.753 395.307 209.573 395.307 209.262V200.455C395.309 200.257 395.36 200.062 395.456 199.889C395.552 199.716 395.69 199.569 395.857 199.462Z" fill="#EEFAF9"/>
</g>
<g style="mix-blend-mode:multiply">
<path d="M339.038 134.545V135.729L362.143 149.335V186.095L354.716 200.587L355.852 201.245L363.806 186.227V148.856L339.038 134.545Z" fill="#F2F1F0"/>
</g>
<path d="M401.729 192.88L389.53 178.042L402.638 193.347L401.729 192.88Z" fill="#DED8D1"/>
<path d="M425.827 185.461L427.178 186.251L403.941 199.665V198.11L425.827 185.461Z" fill="#F3F1EE"/>
<path d="M425.827 196.088L427.178 196.865L403.941 210.292V208.724L425.827 196.088Z" fill="#F3F1EE"/>
<path d="M395.641 135.729L396.503 140.612L392.915 137.309L395.641 135.729Z" fill="#CBCADD"/>
<path d="M404.659 130.524V144.884C404.659 146.284 403.81 146.93 402.745 146.32L399.445 143.304L397.878 134.449L404.659 130.524Z" fill="#CBCADD"/>
<path d="M396.503 140.612L392.915 137.309L395.641 135.729L396.503 140.612Z" fill="#D6B6B2"/>
<path d="M397.866 134.449L404.659 130.524V144.884C404.659 146.284 403.81 146.93 402.745 146.32L399.445 143.304L397.866 134.449Z" fill="#D6B6B2"/>
<path d="M369.462 134.892L247.895 64.5658L248.744 64.0752L369.749 134.892H369.462Z" fill="#EBE7E3"/>
<path d="M369.749 134.617L248.194 64.2907L249.043 63.8L370.598 134.126L369.749 134.617Z" fill="#FCFBFA"/>
<path d="M369.749 134.617V134.892L370.598 134.401V134.126L369.749 134.617Z" fill="#EBE7E3"/>
<path d="M369.749 134.892L248.194 64.5658V64.2905L369.749 134.616V134.892Z" fill="#CDC6BC"/>
<path d="M375.047 131.661L253.492 61.3349L254.341 60.8442L375.346 131.661H375.047Z" fill="#EBE7E3"/>
<path d="M375.346 131.386L253.779 61.0597L254.64 60.5691L376.195 130.895L375.346 131.386Z" fill="#FCFBFA"/>
<path d="M375.346 131.386V131.661L376.195 131.171V130.895L375.346 131.386Z" fill="#EBE7E3"/>
<path d="M375.346 131.661L253.779 61.335V61.0598L375.346 131.386V131.661Z" fill="#CDC6BC"/>
<path d="M380.644 128.43L259.077 58.1039L259.938 57.6133L380.943 128.43H380.644Z" fill="#EBE7E3"/>
<path d="M380.943 128.155L259.376 57.8287L260.225 57.3381L381.792 127.664L380.943 128.155Z" fill="#FCFBFA"/>
<path d="M380.943 128.155V128.43L381.792 127.939V127.664L380.943 128.155Z" fill="#EBE7E3"/>
<path d="M380.943 128.43L259.376 58.1041V57.8289L380.943 128.155V128.43Z" fill="#CDC6BC"/>
<path d="M386.241 125.199L264.674 54.8732L265.523 54.3826L386.528 125.199H386.241Z" fill="#EBE7E3"/>
<path d="M386.528 124.924L264.973 54.5978L265.822 54.1072L387.389 124.433L386.528 124.924Z" fill="#FCFBFA"/>
<path d="M386.528 124.924V125.199L387.389 124.708V124.433L386.528 124.924Z" fill="#EBE7E3"/>
<path d="M386.528 125.199L264.973 54.8731V54.5979L386.528 124.924V125.199Z" fill="#CDC6BC"/>
<path d="M391.838 121.968L270.271 51.6422L271.12 51.1516L392.125 121.968H391.838Z" fill="#EBE7E3"/>
<path d="M392.125 121.693L270.57 51.3671L271.419 50.8765L392.986 121.19L392.125 121.693Z" fill="#FCFBFA"/>
<path d="M392.125 121.693V121.968L392.987 121.478V121.19L392.125 121.693Z" fill="#EBE7E3"/>
<path d="M392.125 121.968L270.57 51.6422V51.3669L392.125 121.693V121.968Z" fill="#CDC6BC"/>
<path d="M397.423 118.737L275.868 48.4113L276.717 47.9207L397.722 118.737H397.423Z" fill="#EBE7E3"/>
<path d="M397.722 118.462L276.155 48.1361L277.016 47.6455L398.572 117.959L397.722 118.462Z" fill="#FCFBFA"/>
<path d="M397.722 118.462V118.737L398.571 118.247V117.959L397.722 118.462Z" fill="#EBE7E3"/>
<path d="M397.722 118.737L276.155 48.4112V48.136L397.722 118.462V118.737Z" fill="#CDC6BC"/>
<path d="M403.02 115.506L281.453 45.1803L282.314 44.6897L403.319 115.506H403.02Z" fill="#EBE7E3"/>
<path d="M403.319 115.231L281.752 44.9052L282.601 44.4026L404.169 114.729L403.319 115.231Z" fill="#FCFBFA"/>
<path d="M403.319 115.231V115.506L404.169 115.016V114.729L403.319 115.231Z" fill="#EBE7E3"/>
<path d="M403.319 115.506L281.752 45.1805V44.9053L403.319 115.231V115.506Z" fill="#CDC6BC"/>
<path d="M408.617 112.276L287.05 41.9496L287.911 41.459L408.916 112.276H408.617Z" fill="#EBE7E3"/>
<path d="M408.916 111.988L287.349 41.6742L288.198 41.1716L409.766 111.498L408.916 111.988Z" fill="#FCFBFA"/>
<path d="M408.916 111.988V112.275L409.766 111.785V111.498L408.916 111.988Z" fill="#EBE7E3"/>
<path d="M408.916 112.275L287.349 41.9495V41.6743L408.916 111.988V112.275Z" fill="#CDC6BC"/>
<path d="M381.302 129.579L379.305 128.43L380.884 127.485L382.45 129.579H381.302Z" fill="#EBE7E3"/>
<path d="M382.45 129.579L384.029 128.634V127.844L382.45 128.789V129.579Z" fill="#E07427"/>
<path d="M382.45 128.789L380.441 127.64L382.02 126.695L384.029 127.844L382.45 128.789Z" fill="#FF9A2E"/>
<path d="M382.45 128.789L380.441 127.64V128.43L382.45 129.579V128.789Z" fill="#E06F2E"/>
<path d="M389.231 124.852L387.222 123.715L388.813 122.77L390.367 124.852H389.231Z" fill="#EBE7E3"/>
<path d="M390.367 124.852L391.958 123.918V123.129L390.367 124.074V124.852Z" fill="#E07427"/>
<path d="M390.367 124.074L388.37 122.926L389.949 121.98L391.958 123.129L390.367 124.074Z" fill="#FF9A2E"/>
<path d="M390.367 124.074L388.37 122.926V123.715L390.367 124.852V124.074Z" fill="#E06F2E"/>
<path d="M397.16 120.137L395.151 118.989L396.742 118.043L398.296 120.137H397.16Z" fill="#EBE7E3"/>
<path d="M398.296 120.137L399.875 119.192V118.414L398.296 119.347V120.137Z" fill="#E07427"/>
<path d="M398.296 119.348L396.287 118.199L397.878 117.265L399.875 118.414L398.296 119.348Z" fill="#FF9A2E"/>
<path d="M398.296 119.348L396.287 118.199V118.989L398.296 120.137V119.348Z" fill="#E06F2E"/>
<path d="M393.309 176.415L403.702 170.408L401.681 167.943L391.288 173.95L393.309 176.415Z" fill="#CDC6BC"/>
<path d="M407.816 167.978L418.209 161.971L416.2 159.506L405.807 165.501L407.816 167.978Z" fill="#CDC6BC"/>
<path d="M397.71 168.697C397.76 168.752 397.822 168.794 397.891 168.821C397.96 168.847 398.035 168.856 398.109 168.848C398.182 168.84 398.253 168.814 398.315 168.774C398.376 168.733 398.428 168.678 398.464 168.613C398.554 168.472 398.596 168.306 398.583 168.14C398.57 167.974 398.503 167.816 398.392 167.691C398.341 167.639 398.279 167.598 398.21 167.573C398.141 167.548 398.068 167.54 397.995 167.548C397.922 167.556 397.852 167.581 397.79 167.62C397.729 167.659 397.677 167.713 397.639 167.775C397.549 167.916 397.507 168.082 397.52 168.248C397.533 168.414 397.6 168.572 397.71 168.697Z" fill="#493F41"/>
<path d="M397.758 168.637C397.801 168.685 397.855 168.721 397.915 168.744C397.975 168.766 398.04 168.773 398.103 168.765C398.167 168.757 398.227 168.733 398.28 168.696C398.332 168.659 398.375 168.61 398.404 168.553C398.486 168.432 398.525 168.287 398.514 168.142C398.503 167.996 398.443 167.858 398.344 167.751C398.306 167.708 398.259 167.673 398.207 167.65C398.154 167.626 398.097 167.614 398.039 167.614C397.982 167.614 397.925 167.626 397.872 167.65C397.819 167.673 397.773 167.708 397.734 167.751V167.811C397.641 167.93 397.593 168.077 397.597 168.228C397.602 168.379 397.659 168.524 397.758 168.637Z" fill="#493F41"/>
<path d="M398.057 167.62C398.219 167.634 398.379 167.662 398.536 167.703C398.655 167.703 398.607 168.565 398.607 168.565C398.449 168.654 398.28 168.722 398.105 168.768C397.878 168.804 398.057 167.62 398.057 167.62Z" fill="#493F41"/>
<path d="M398.249 168.493C398.277 168.533 398.315 168.565 398.359 168.587C398.403 168.609 398.451 168.621 398.5 168.621C398.549 168.621 398.597 168.609 398.641 168.587C398.684 168.565 398.722 168.533 398.751 168.493C398.818 168.401 398.854 168.29 398.854 168.176C398.854 168.062 398.818 167.951 398.751 167.859C398.721 167.819 398.682 167.787 398.637 167.765C398.593 167.743 398.544 167.731 398.494 167.731C398.444 167.731 398.395 167.743 398.35 167.765C398.306 167.787 398.267 167.819 398.237 167.859C398.169 167.951 398.134 168.064 398.136 168.178C398.139 168.292 398.178 168.403 398.249 168.493Z" fill="#5C504E"/>
<g style="mix-blend-mode:screen">
<path d="M399.648 158.37L400.808 164.927L392.544 169.702L374.557 148.808L374.425 147.995L387.055 140.695L398.966 154.54L399.648 158.37Z" fill="#383838"/>
</g>
<g style="mix-blend-mode:screen">
<path d="M405.556 162.187L403.032 163.647L402.052 158.118L405.556 162.187Z" fill="#383838"/>
</g>
<g style="mix-blend-mode:screen">
<path d="M421.701 152.853L414.86 156.814L398.452 137.752L397.866 134.449L409.502 127.724L419.345 139.152L421.438 151.333L421.701 152.853Z" fill="#383838"/>
</g>
<path d="M408.354 213.522L405.46 215.198V213.917L408.354 212.23V213.522Z" fill="#493F41"/>
<path d="M408.103 213.439L405.711 214.827V213.869L408.103 212.493V213.439Z" fill="#E06F2E"/>
<path d="M429.008 201.042L426.616 202.418V201.472L429.008 200.084V201.042Z" fill="#E06F2E"/>
<path d="M393.166 168.481L392.508 169.091L398.021 168.541L397.962 167.751L393.166 168.481Z" fill="#493F41"/>
<path d="M398.44 166.184C398.38 166.184 382.785 174.273 382.785 174.273L382.618 173.782L397.818 165.561L398.44 166.184Z" fill="#5C504E"/>
<path d="M319.316 151.082C318.517 151.065 317.736 150.833 317.056 150.412L291.499 135.646C288.7 134.03 286.512 129.878 286.512 126.192V111.594C286.427 110.737 286.569 109.874 286.924 109.09C287.279 108.307 287.834 107.631 288.533 107.13C289.141 106.821 289.822 106.68 290.503 106.722C291.184 106.764 291.842 106.987 292.408 107.369L317.965 122.148C320.764 123.763 322.964 127.916 322.964 131.601V146.2C323.047 147.054 322.904 147.915 322.549 148.696C322.194 149.478 321.64 150.152 320.943 150.652C320.448 150.936 319.887 151.084 319.316 151.082ZM317.965 148.845C318.261 149.058 318.606 149.193 318.968 149.235C319.331 149.277 319.698 149.225 320.034 149.084C320.442 148.732 320.757 148.284 320.951 147.781C321.145 147.278 321.212 146.735 321.146 146.2V131.601C321.146 128.61 319.269 124.996 317.056 123.715L291.499 108.949C291.204 108.734 290.858 108.599 290.496 108.557C290.133 108.515 289.766 108.568 289.43 108.71C289.021 109.061 288.705 109.508 288.511 110.012C288.317 110.515 288.251 111.058 288.318 111.594V126.192C288.318 129.184 290.195 132.798 292.408 134.078L317.965 148.845Z" fill="#E9E5E1"/>
<path d="M319.316 150.197C318.518 150.179 317.739 149.952 317.056 149.539L291.487 134.76C288.688 133.145 286.5 128.992 286.5 125.307V110.708C286.417 109.854 286.56 108.993 286.915 108.212C287.27 107.43 287.824 106.756 288.521 106.256C289.128 105.941 289.809 105.796 290.492 105.838C291.174 105.88 291.832 106.108 292.396 106.496L317.965 121.262C320.764 122.878 322.952 127.03 322.952 130.716V145.41C323.037 146.266 322.895 147.13 322.54 147.913C322.185 148.697 321.63 149.373 320.931 149.874C320.431 150.122 319.874 150.234 319.316 150.197ZM290.147 107.633C289.896 107.632 289.648 107.698 289.43 107.824C289.022 108.176 288.707 108.624 288.513 109.127C288.319 109.63 288.252 110.173 288.318 110.708V125.307C288.318 128.298 290.183 131.912 292.396 133.193L317.965 147.959C318.258 148.173 318.602 148.307 318.962 148.349C319.323 148.391 319.688 148.339 320.022 148.198C320.435 147.849 320.754 147.403 320.95 146.899C321.147 146.396 321.214 145.851 321.146 145.314V130.716C321.146 127.724 319.269 124.11 317.056 122.83L291.487 108.063C291.073 107.82 290.603 107.688 290.124 107.68L290.147 107.633Z" fill="#D9D3CC"/>
<path d="M279.527 128.107C278.729 128.084 277.95 127.853 277.267 127.437L251.71 112.67C248.911 111.055 246.723 106.903 246.723 103.205V88.6181C246.638 87.762 246.78 86.8986 247.135 86.115C247.49 85.3314 248.045 84.6552 248.744 84.1546C249.351 83.8388 250.032 83.6942 250.715 83.7364C251.397 83.7786 252.055 84.0059 252.619 84.394L278.176 99.1604C280.975 100.776 283.175 104.94 283.175 108.626V123.225C283.257 124.079 283.113 124.939 282.758 125.72C282.404 126.501 281.85 127.176 281.154 127.676C280.659 127.96 280.098 128.109 279.527 128.107ZM278.176 125.869C278.472 126.083 278.817 126.217 279.179 126.259C279.542 126.301 279.909 126.249 280.245 126.108C280.653 125.756 280.968 125.309 281.162 124.806C281.356 124.303 281.423 123.76 281.357 123.225V108.626C281.357 105.622 279.48 102.008 277.267 100.74L251.71 85.9615C251.413 85.7498 251.068 85.6167 250.706 85.5748C250.344 85.533 249.978 85.5837 249.641 85.7222C249.232 86.0762 248.916 86.5256 248.722 87.0308C248.528 87.5359 248.462 88.0811 248.529 88.6181V103.205C248.529 106.209 250.406 109.822 252.619 111.103L278.176 125.869Z" fill="#E9E5E1"/>
<path d="M279.516 127.269C278.717 127.247 277.937 127.016 277.255 126.599L251.686 111.833C248.887 110.217 246.699 106.065 246.699 102.379V87.7805C246.616 86.9247 246.76 86.0622 247.114 85.279C247.469 84.4958 248.023 83.8194 248.72 83.3171C249.329 83.0076 250.009 82.8666 250.69 82.9086C251.371 82.9507 252.029 83.1744 252.595 83.5564L278.164 98.3348C280.963 99.9503 283.151 104.103 283.151 107.788V122.387C283.236 123.241 283.094 124.103 282.739 124.885C282.384 125.667 281.829 126.341 281.13 126.839C280.64 127.124 280.083 127.273 279.516 127.269ZM250.347 84.7052C250.095 84.7049 249.847 84.7709 249.629 84.8967C249.22 85.2481 248.904 85.6954 248.71 86.1986C248.516 86.7019 248.45 87.2453 248.517 87.7805V102.332C248.517 105.323 250.382 108.937 252.595 110.217L278.164 125.068C278.457 125.281 278.801 125.416 279.161 125.458C279.522 125.5 279.887 125.448 280.221 125.307C280.633 124.957 280.952 124.511 281.148 124.007C281.344 123.504 281.412 122.959 281.345 122.423V107.824C281.345 104.832 279.468 101.219 277.255 99.9383L251.686 85.1719C251.286 84.9048 250.825 84.7441 250.347 84.7052Z" fill="#D9D3CC"/>
<path d="M334.505 164.018L243.853 111.653V109.021L334.505 161.397V164.018Z" fill="#F5B53D"/>
<path d="M418.484 156.659C418.532 156.714 418.593 156.756 418.662 156.783C418.73 156.809 418.804 156.819 418.877 156.811C418.949 156.802 419.019 156.777 419.08 156.735C419.141 156.694 419.191 156.639 419.225 156.575C419.317 156.436 419.361 156.27 419.35 156.104C419.339 155.938 419.274 155.78 419.166 155.653C419.115 155.601 419.053 155.56 418.984 155.535C418.915 155.51 418.841 155.502 418.768 155.51C418.696 155.518 418.626 155.543 418.564 155.582C418.502 155.621 418.45 155.674 418.412 155.737C418.32 155.877 418.277 156.043 418.29 156.21C418.303 156.377 418.372 156.535 418.484 156.659Z" fill="#493F41"/>
<path d="M418.58 156.599C418.624 156.646 418.678 156.683 418.739 156.705C418.8 156.728 418.866 156.735 418.93 156.727C418.994 156.719 419.056 156.695 419.109 156.658C419.163 156.621 419.207 156.572 419.237 156.515C419.315 156.393 419.352 156.249 419.341 156.104C419.33 155.96 419.273 155.822 419.178 155.713C419.139 155.67 419.093 155.635 419.04 155.611C418.987 155.588 418.93 155.575 418.873 155.575C418.815 155.575 418.758 155.588 418.705 155.611C418.653 155.635 418.606 155.67 418.568 155.713V155.773C418.479 155.893 418.432 156.039 418.435 156.188C418.437 156.337 418.488 156.481 418.58 156.599Z" fill="#493F41"/>
<path d="M418.831 155.582C418.992 155.596 419.152 155.624 419.309 155.665C419.417 155.665 419.369 156.527 419.369 156.527C419.211 156.615 419.042 156.684 418.867 156.73C418.639 156.766 418.831 155.582 418.831 155.582Z" fill="#493F41"/>
<path d="M419.01 156.455C419.04 156.495 419.079 156.527 419.124 156.549C419.168 156.571 419.217 156.583 419.267 156.583C419.317 156.583 419.366 156.571 419.411 156.549C419.455 156.527 419.494 156.495 419.524 156.455C419.593 156.364 419.631 156.252 419.631 156.138C419.631 156.023 419.593 155.912 419.524 155.821C419.494 155.781 419.455 155.749 419.411 155.727C419.366 155.705 419.317 155.693 419.267 155.693C419.217 155.693 419.168 155.705 419.124 155.727C419.079 155.749 419.04 155.781 419.01 155.821C418.941 155.912 418.904 156.023 418.904 156.138C418.904 156.252 418.941 156.364 419.01 156.455Z" fill="#5C504E"/>
<path d="M413.927 156.443L413.27 157.066L418.795 156.503L418.735 155.725L413.927 156.443Z" fill="#493F41"/>
<path d="M419.202 154.145L403.559 162.247L403.391 161.744L418.58 153.523L419.202 154.145Z" fill="#5C504E"/>
<path d="M419.333 167.679L427.8 178.258L402.769 192.749L389.53 178.042L402.638 193.347L428.494 178.413L419.333 167.679Z" fill="#FAF8F5"/>
<path d="M411.476 217.77L418.855 213.51C419.254 213.226 419.582 212.851 419.81 212.417C420.039 211.982 420.162 211.5 420.17 211.009V206.797C420.17 205.828 419.584 205.385 418.855 205.804L411.476 210.028C411.08 210.316 410.756 210.691 410.53 211.125C410.303 211.559 410.181 212.04 410.172 212.529V216.741C410.208 217.746 410.758 218.189 411.476 217.77Z" fill="#FAF8F5"/>
<path d="M420.565 206.965V211.225C420.556 211.715 420.432 212.197 420.203 212.631C419.975 213.066 419.648 213.44 419.249 213.726L411.87 217.986C411.141 218.405 410.567 217.986 410.567 217.005V212.792C410.572 212.302 410.693 211.82 410.919 211.386C411.146 210.951 411.472 210.576 411.87 210.291L419.249 206.019C419.967 205.553 420.565 206.008 420.565 206.965Z" fill="#EBE7E3"/>
<g style="mix-blend-mode:multiply">
<path d="M420.565 206.965V207.431L410.567 213.211V212.744C410.572 212.254 410.693 211.772 410.919 211.337C411.146 210.903 411.472 210.528 411.87 210.243L419.249 205.971C419.967 205.553 420.565 206.007 420.565 206.965Z" fill="#FF8E8C"/>
</g>
<path d="M239.451 134.892C239.451 134.784 239.451 126.36 239.451 121.322L236.988 120.125L236.486 119.85L236.629 119.168C237.057 118.627 237.589 118.176 238.192 117.841C238.796 117.506 239.459 117.294 240.145 117.218C240.34 117.247 240.518 117.347 240.644 117.5C240.77 117.652 240.835 117.846 240.827 118.043C240.827 118.498 240.827 119.371 240.827 120.436L242.489 121.226C242.762 121.418 243.085 121.527 243.419 121.537C243.753 121.548 244.082 121.461 244.367 121.286L245.3 120.688L246.029 121.884L245.096 122.471C244.611 122.787 244.044 122.956 243.464 122.956C242.884 122.956 242.317 122.787 241.831 122.471L240.827 122.004C240.827 127.066 240.827 134.82 240.827 134.928L239.451 134.892ZM238.339 119.276L239.428 119.814C239.428 119.383 239.428 119.012 239.428 118.689C239.049 118.855 238.685 119.051 238.339 119.276Z" fill="#898184"/>
<path d="M240.6 134.64C240.452 134.564 240.288 134.524 240.121 134.524C239.955 134.524 239.791 134.564 239.643 134.64C239.38 134.796 239.38 135.035 239.643 135.191C239.793 135.268 239.959 135.308 240.127 135.308C240.296 135.308 240.462 135.268 240.612 135.191C240.875 135.023 240.863 134.772 240.6 134.64Z" fill="#898184"/>
<path d="M245.168 121.011C245.18 121.177 245.231 121.338 245.316 121.482C245.401 121.625 245.518 121.746 245.658 121.837C245.933 121.98 246.149 121.837 246.137 121.549C246.125 121.383 246.075 121.222 245.99 121.078C245.905 120.935 245.787 120.813 245.646 120.724C245.335 120.58 245.168 120.712 245.168 121.011Z" fill="#898184"/>
<path d="M517.843 280.246C515.48 281.444 512.868 282.068 510.219 282.068C507.57 282.068 504.958 281.444 502.595 280.246C498.361 277.853 498.349 273.868 502.595 271.439C504.957 270.239 507.569 269.613 510.219 269.613C512.868 269.613 515.48 270.239 517.843 271.439C522.064 273.868 522.088 277.817 517.843 280.246Z" fill="url(#paint15_linear_14_1692)"/>
<path d="M517.986 178.976C514.183 177.396 509.232 177.959 503.79 181.094C491.831 188.01 482.096 204.787 482.096 218.548C482.096 237.275 503.79 258.587 503.79 258.587L510.249 261.77L524.6 182.231L517.986 178.976Z" fill="#0086C3"/>
<path d="M510.237 184.289C522.196 177.372 531.943 182.913 531.943 196.674C531.943 215.401 510.237 261.782 510.237 261.782C510.237 261.782 488.542 240.482 488.542 221.755C488.542 207.982 498.253 191.217 510.237 184.289Z" fill="#5195F9"/>
<path d="M517.91 217.638C522.805 209.215 522.831 200.094 517.968 197.265C513.106 194.436 505.197 198.972 500.302 207.395C495.408 215.818 495.382 224.939 500.245 227.768C505.107 230.596 513.016 226.061 517.91 217.638Z" fill="#FCFBFA"/>
<path d="M490.264 222.473C490.264 209.035 499.748 192.653 511.456 185.892C523.165 179.131 531.728 184.109 531.931 197.236C531.931 197.057 531.931 196.853 531.931 196.674C531.931 182.913 522.22 177.372 510.225 184.289C498.229 191.205 488.53 207.982 488.53 221.755C488.53 240.482 510.225 261.782 510.225 261.782C510.225 261.782 490.264 240.77 490.264 222.473Z" fill="#037795"/>
<defs>
<linearGradient id="paint0_linear_14_1692" x1="633" y1="200.946" x2="0" y2="200.946" gradientUnits="userSpaceOnUse">
<stop stop-color="#C4C8D8"/>
<stop offset="0.02" stop-color="#C4C8D8"/>
<stop offset="0.28" stop-color="#C4C8D8"/>
<stop offset="0.3" stop-color="#C0C5D6"/>
<stop offset="0.32" stop-color="#B6BACE"/>
<stop offset="0.34" stop-color="#A0A6C0"/>
<stop offset="0.99" stop-color="#B4B9CD"/>
<stop offset="1" stop-color="#C4C8D8"/>
</linearGradient>
<linearGradient id="paint1_linear_14_1692" x1="62.189" y1="228.648" x2="320.277" y2="78.4921" gradientUnits="userSpaceOnUse">
<stop stop-color="#FFE25B"/>
<stop offset="1" stop-color="#FF7270"/>
</linearGradient>
<linearGradient id="paint2_linear_14_1692" x1="62.2368" y1="228.743" x2="320.324" y2="78.5757" gradientUnits="userSpaceOnUse">
<stop stop-color="#FFE25B"/>
<stop offset="1" stop-color="#FF7270"/>
</linearGradient>
<linearGradient id="paint3_linear_14_1692" x1="62.2846" y1="228.839" x2="320.384" y2="78.6714" gradientUnits="userSpaceOnUse">
<stop stop-color="#FFE25B"/>
<stop offset="1" stop-color="#FF7270"/>
</linearGradient>
<linearGradient id="paint4_linear_14_1692" x1="62.3444" y1="228.923" x2="320.432" y2="78.7551" gradientUnits="userSpaceOnUse">
<stop stop-color="#FFE25B"/>
<stop offset="1" stop-color="#FF7270"/>
</linearGradient>
<linearGradient id="paint5_linear_14_1692" x1="65.2864" y1="233.973" x2="323.374" y2="83.8169" gradientUnits="userSpaceOnUse">
<stop stop-color="#FFE25B"/>
<stop offset="1" stop-color="#FF7270"/>
</linearGradient>
<linearGradient id="paint6_linear_14_1692" x1="77.0427" y1="254.196" x2="335.142" y2="104.04" gradientUnits="userSpaceOnUse">
<stop stop-color="#FFE25B"/>
<stop offset="1" stop-color="#FF7270"/>
</linearGradient>
<linearGradient id="paint7_linear_14_1692" x1="89.7554" y1="276.034" x2="347.843" y2="125.866" gradientUnits="userSpaceOnUse">
<stop stop-color="#FFE25B"/>
<stop offset="1" stop-color="#FF7270"/>
</linearGradient>
<linearGradient id="paint8_linear_14_1692" x1="102.456" y1="297.873" x2="360.556" y2="147.705" gradientUnits="userSpaceOnUse">
<stop stop-color="#FFE25B"/>
<stop offset="1" stop-color="#FF7270"/>
</linearGradient>
<linearGradient id="paint9_linear_14_1692" x1="115.158" y1="319.711" x2="373.257" y2="169.544" gradientUnits="userSpaceOnUse">
<stop stop-color="#FFE25B"/>
<stop offset="1" stop-color="#FF7270"/>
</linearGradient>
<linearGradient id="paint10_linear_14_1692" x1="127.87" y1="341.538" x2="385.958" y2="191.37" gradientUnits="userSpaceOnUse">
<stop stop-color="#FFE25B"/>
<stop offset="1" stop-color="#FF7270"/>
</linearGradient>
<linearGradient id="paint11_linear_14_1692" x1="140.571" y1="363.376" x2="398.659" y2="213.209" gradientUnits="userSpaceOnUse">
<stop stop-color="#FFE25B"/>
<stop offset="1" stop-color="#FF7270"/>
</linearGradient>
<linearGradient id="paint12_linear_14_1692" x1="153.272" y1="385.215" x2="411.371" y2="235.047" gradientUnits="userSpaceOnUse">
<stop stop-color="#FFE25B"/>
<stop offset="1" stop-color="#FF7270"/>
</linearGradient>
<linearGradient id="paint13_linear_14_1692" x1="165.973" y1="407.041" x2="424.072" y2="256.886" gradientUnits="userSpaceOnUse">
<stop stop-color="#FFE25B"/>
<stop offset="1" stop-color="#FF7270"/>
</linearGradient>
<linearGradient id="paint14_linear_14_1692" x1="191.016" y1="422.059" x2="449.116" y2="271.892" gradientUnits="userSpaceOnUse">
<stop stop-color="#FFE25B"/>
<stop offset="1" stop-color="#FF7270"/>
</linearGradient>
<linearGradient id="paint15_linear_14_1692" x1="156.752" y1="275.819" x2="505.716" y2="275.819" gradientUnits="userSpaceOnUse">
<stop stop-color="#57A2FF"/>
<stop offset="1" stop-color="#037795"/>
</linearGradient>
</defs>
</svg>
