<svg width="27" height="30" viewBox="0 0 27 30" fill="none" xmlns="http://www.w3.org/2000/svg">
<path d="M0 27.1875C0 28.7402 1.26292 30 2.81955 30H23.4962C25.0529 30 26.3158 28.7402 26.3158 27.1875V11.25H0V27.1875ZM18.797 15.7031C18.797 15.3164 19.1142 15 19.5019 15H21.8515C22.2392 15 22.5564 15.3164 22.5564 15.7031V18.0469C22.5564 18.4336 22.2392 18.75 21.8515 18.75H19.5019C19.1142 18.75 18.797 18.4336 18.797 18.0469V15.7031ZM18.797 23.2031C18.797 22.8164 19.1142 22.5 19.5019 22.5H21.8515C22.2392 22.5 22.5564 22.8164 22.5564 23.2031V25.5469C22.5564 25.9336 22.2392 26.25 21.8515 26.25H19.5019C19.1142 26.25 18.797 25.9336 18.797 25.5469V23.2031ZM11.2782 15.7031C11.2782 15.3164 11.5954 15 11.9831 15H14.3327C14.7204 15 15.0376 15.3164 15.0376 15.7031V18.0469C15.0376 18.4336 14.7204 18.75 14.3327 18.75H11.9831C11.5954 18.75 11.2782 18.4336 11.2782 18.0469V15.7031ZM11.2782 23.2031C11.2782 22.8164 11.5954 22.5 11.9831 22.5H14.3327C14.7204 22.5 15.0376 22.8164 15.0376 23.2031V25.5469C15.0376 25.9336 14.7204 26.25 14.3327 26.25H11.9831C11.5954 26.25 11.2782 25.9336 11.2782 25.5469V23.2031ZM3.7594 15.7031C3.7594 15.3164 4.0766 15 4.46429 15H6.81391C7.2016 15 7.5188 15.3164 7.5188 15.7031V18.0469C7.5188 18.4336 7.2016 18.75 6.81391 18.75H4.46429C4.0766 18.75 3.7594 18.4336 3.7594 18.0469V15.7031ZM3.7594 23.2031C3.7594 22.8164 4.0766 22.5 4.46429 22.5H6.81391C7.2016 22.5 7.5188 22.8164 7.5188 23.2031V25.5469C7.5188 25.9336 7.2016 26.25 6.81391 26.25H4.46429C4.0766 26.25 3.7594 25.9336 3.7594 25.5469V23.2031ZM23.4962 3.75H20.6767V0.9375C20.6767 0.421875 20.2538 0 19.7368 0H17.8571C17.3402 0 16.9173 0.421875 16.9173 0.9375V3.75H9.3985V0.9375C9.3985 0.421875 8.97556 0 8.45865 0H6.57895C6.06203 0 5.6391 0.421875 5.6391 0.9375V3.75H2.81955C1.26292 3.75 0 5.00977 0 6.5625V9.375H26.3158V6.5625C26.3158 5.00977 25.0529 3.75 23.4962 3.75Z" fill="#F26624"/>
</svg>
