<svg width="22" height="20" viewBox="0 0 22 20" fill="none" xmlns="http://www.w3.org/2000/svg">
<path d="M5.98291 12.9412H16.7521C17.4103 12.9412 17.9487 13.4706 17.9487 14.1176C17.9487 14.7647 17.4103 15.2941 16.7521 15.2941H4.78632C4.12821 15.2941 3.58974 14.7647 3.58974 14.1176V2.35294H1.19658C0.538462 2.35294 0 1.82353 0 1.17647C0 0.529412 0.538462 0 1.19658 0H4.78632C5.44444 0 5.98291 0.529412 5.98291 1.17647V3.52941H21.5385L16.7521 11.7647H5.98291V12.9412ZM5.38462 16.4706C6.37778 16.4706 7.17949 17.2588 7.17949 18.2353C7.17949 19.2118 6.37778 20 5.38462 20C4.39145 20 3.58974 19.2118 3.58974 18.2353C3.58974 17.2588 4.39145 16.4706 5.38462 16.4706ZM16.1538 16.4706C17.147 16.4706 17.9487 17.2588 17.9487 18.2353C17.9487 19.2118 17.147 20 16.1538 20C15.1607 20 14.359 19.2118 14.359 18.2353C14.359 17.2588 15.1607 16.4706 16.1538 16.4706Z" fill="#F26624"/>
</svg>
