<svg width="52" height="33" viewBox="0 0 52 33" fill="none" xmlns="http://www.w3.org/2000/svg">
<path fill-rule="evenodd" clip-rule="evenodd" d="M1.04795 0.741702C0.830925 1.05149 0.802734 2.56575 0.802734 13.9358C0.802734 25.3058 0.830925 26.82 1.04795 27.1298C1.27662 27.4564 1.41222 27.4799 3.07091 27.4799C5.11119 27.4799 5.20348 27.43 5.51279 26.1595C5.93628 24.4203 6.87382 23.2357 8.46668 22.4271C9.46532 21.9203 9.61919 21.889 11.1101 21.8898C12.4929 21.8906 12.8063 21.9437 13.587 22.3089C15.274 23.0981 16.4913 24.6126 16.7937 26.2987C17.0187 27.5539 16.5554 27.4799 24.19 27.4799C30.5797 27.4799 31.0078 27.4624 31.2527 27.1919C31.4908 26.9288 31.5133 25.7798 31.5133 13.9083C31.5133 1.5186 31.4999 0.900767 31.2253 0.652248C30.9616 0.41365 29.6863 0.391602 16.1152 0.391602H1.293L1.04795 0.741702ZM33.8757 6.21874C33.5671 6.52726 33.5607 6.74365 33.5607 16.6567C33.5607 25.564 33.5901 26.8219 33.8059 27.1298C34.0185 27.4334 34.1936 27.4799 35.1252 27.4799C35.7931 27.4799 36.2608 27.4054 36.3618 27.283C36.4509 27.1748 36.6302 26.6786 36.7598 26.1806C37.2664 24.2348 38.6215 22.7361 40.4028 22.1514C43.8306 21.0261 47.1933 22.8517 48.038 26.2967C48.3114 27.4112 48.4041 27.4799 49.6351 27.4799C51.2766 27.4799 51.1996 27.7709 51.1996 21.5658V16.3518L47.3289 11.7183C45.2001 9.16994 43.2098 6.81925 42.906 6.49434L42.3535 5.90376H38.2722C34.4006 5.90376 34.1744 5.91998 33.8757 6.21874ZM41.6295 8.14799C41.7694 8.25634 42.846 9.50319 44.022 10.9189C46.1884 13.5271 46.3742 13.871 45.9969 14.5761C45.8411 14.867 45.618 14.8807 41.009 14.8807C36.7404 14.8807 36.1509 14.8506 35.8961 14.62C35.6369 14.3854 35.6081 14.0684 35.6081 11.4433C35.6081 8.95072 35.6458 8.48533 35.8687 8.23918C36.1013 7.98215 36.4112 7.95113 38.7522 7.95113C40.6096 7.95113 41.4492 8.00861 41.6295 8.14799ZM9.85842 23.9093C7.90885 24.6737 6.90406 26.0808 6.9154 28.0305C6.92516 29.7404 7.8312 31.1134 9.43744 31.8526C10.132 32.1723 10.4572 32.2278 11.3273 32.1747C12.5452 32.1005 13.3026 31.7773 14.1209 30.9823C15.2466 29.8892 15.6736 28.0061 15.1452 26.465C14.4754 24.5114 11.7201 23.1795 9.85842 23.9093ZM40.7104 24.0773C39.7634 24.5183 38.9364 25.3004 38.5117 26.1565C38.0462 27.0947 38.0869 28.8992 38.5963 29.8963C39.3527 31.3771 40.6991 32.1955 42.3886 32.2011C46.1411 32.2137 48.049 27.6472 45.3984 24.9966C44.6118 24.2099 43.4293 23.7033 42.3801 23.7033C41.7987 23.7033 41.2497 23.8263 40.7104 24.0773ZM11.9233 27.0613C12.7321 27.7571 12.2367 29.2123 11.1909 29.2123C10.0627 29.2123 9.52155 27.8812 10.3238 27.0791C10.8098 26.5929 11.3714 26.5866 11.9233 27.0613ZM42.9066 26.8673C43.6756 27.2177 43.8541 28.2251 43.2534 28.8257C42.4915 29.5878 41.1133 29.0523 41.1252 27.9988C41.1308 27.5098 41.3547 27.1547 41.8289 26.8827C42.2293 26.6531 42.4302 26.6502 42.9066 26.8673Z" fill="#F26624"/>
</svg>
