<svg width="48" height="48" viewBox="0 0 48 48" fill="none" xmlns="http://www.w3.org/2000/svg">
<path fill-rule="evenodd" clip-rule="evenodd" d="M19.5835 4.42462L16.0918 7.88928H12.6635H9.23542L8.56275 8.56178L7.89026 9.23444V12.6625V16.0908L4.4256 19.5825L0.960938 23.0742V24V24.9257L4.4256 28.4174L7.89026 31.9091V35.3374V38.7655L8.56275 39.4382L9.23542 40.1106H12.6635H16.0918L19.5835 43.5753L23.0752 47.04H24.0009H24.9267L28.4184 43.5753L31.9101 40.1106H35.3384H38.7665L39.4391 39.4382L40.1116 38.7655V35.3374V31.9091L43.5763 28.4174L47.0409 24.9257V24V23.0742L43.5763 19.5825L40.1116 16.0908V12.6625V9.23444L39.4391 8.56178L38.7665 7.88928H35.3384H31.9101L28.4184 4.42462L24.9267 0.959961H24.0009H23.0752L19.5835 4.42462ZM33.3917 16.4035C34.097 16.9057 34.4486 17.7897 34.3033 18.695C34.1974 19.3542 33.7049 19.8924 27.9254 25.6673C21.294 32.2933 21.3117 32.2793 19.9733 32.0272C19.1634 31.8748 13.8725 26.5941 13.6958 25.7621C13.4053 24.3935 14.2072 23.0945 15.4748 22.8804C16.4901 22.7089 17.0212 23.0155 18.8457 24.8268L20.5332 26.5021L25.787 21.2667L31.0408 16.0312H31.9549C32.6124 16.0312 33.0156 16.1357 33.3917 16.4035Z" fill="#F26624"/>
</svg>
