<svg width="57" height="56" viewBox="0 0 57 56" fill="none" xmlns="http://www.w3.org/2000/svg">
<path fill-rule="evenodd" clip-rule="evenodd" d="M23.2379 0.0471431C18.8371 0.69748 15.2917 2.17528 12.1699 4.66026C7.73609 8.18956 4.59699 13.816 4.13372 19.064L4.01278 20.434L5.08648 20.2783C5.67725 20.1925 7.04782 20.0674 8.13225 20.0003L10.1041 19.8781L10.45 18.4685C11.157 15.5867 12.7207 12.9177 14.9241 10.8324C17.6311 8.27058 20.4718 6.93734 24.2314 6.46393C26.8216 6.13807 32.9098 6.32016 34.6561 6.77589C37.2397 7.45006 40.3026 9.1735 42.2206 11.0326C44.1883 12.9399 45.9757 16.3123 46.6455 19.3817C46.7511 19.866 46.8022 19.8795 48.7355 19.9337C50.4875 19.983 51.6194 20.1891 52.7761 20.6699C53.0794 20.7958 53.1232 20.6915 53.1205 19.8497C53.1155 18.3159 52.4076 15.3653 51.5547 13.3241C49.2391 7.78228 44.9034 3.55996 39.3226 1.41196C36.0759 0.162119 35.5038 0.0818935 29.3938 0.0175548C26.3357 -0.0146145 23.5656 -0.00130951 23.2379 0.0471431ZM4.32216 22.5661C2.94722 23.2531 1.84076 24.3765 1.22319 25.7119C0.817296 26.5898 0.798828 26.9101 0.798828 33.0835V39.5372L1.35087 40.6613C2.01431 42.0122 3.14342 43.079 4.63075 43.7599C5.54639 44.1791 6.11848 44.2792 8.04825 44.3588C10.7123 44.4684 11.5579 44.2744 12.3097 43.381L12.8127 42.7833V33.257C12.8127 25.1936 12.7672 23.6426 12.516 23.1568C11.9505 22.0635 11.6073 21.9632 8.4315 21.9632C5.59583 21.9632 5.50091 21.9771 4.32216 22.5661ZM45.2237 22.2732C44.1895 22.9974 44.1877 23.0172 44.1885 33.1232C44.1891 42.1937 44.203 42.5383 44.59 43.1731C45.1101 44.0264 46.048 44.4023 47.6564 44.4023H48.9535L48.9492 45.0477C48.9392 46.5128 47.6396 48.3579 46.043 49.1733C45.1147 49.6475 44.9215 49.6668 40.4755 49.7273L35.8698 49.7901L35.4365 48.7827C34.9637 47.6836 34.0613 46.7767 32.9112 46.2449C32.2954 45.9601 31.5329 45.9027 28.2875 45.8978L24.4014 45.8916L23.2306 46.4903C21.6307 47.3087 20.8959 48.4753 20.7891 50.3673C20.6987 51.9651 20.9765 52.925 21.8004 53.8635C23.0358 55.2704 23.5773 55.4155 27.857 55.4882C32.0319 55.5589 33.0204 55.3923 34.1088 54.4346C34.8318 53.7983 35.6489 52.5765 35.6489 52.1319C35.6489 51.8003 35.9881 51.7705 40.4644 51.7089C44.9407 51.6472 45.3603 51.6104 46.4211 51.1857C48.8296 50.2212 50.6901 47.7866 50.8863 45.3428L50.9866 44.0949L52.1119 43.5663C53.5049 42.9118 54.9235 41.5001 55.6501 40.0455L56.2016 38.9415V33.0835V27.2255L55.6321 26.0835C54.883 24.581 53.0954 22.9241 51.6337 22.3772C50.1931 21.8381 45.9431 21.7692 45.2237 22.2732Z" fill="#F26624"/>
</svg>
