<svg width="12" height="10" viewBox="0 0 12 10" fill="none" xmlns="http://www.w3.org/2000/svg">
<path d="M11.8327 3.02137V7.77087C11.8327 8.25512 11.6474 8.72102 11.3149 9.07301C10.9823 9.42499 10.5277 9.63638 10.0442 9.66379L9.93685 9.66671H2.06185C1.5776 9.66674 1.1117 9.48147 0.759714 9.1489C0.40773 8.81633 0.196348 8.36168 0.168932 7.87821L0.166016 7.77087V3.02137L5.79635 5.97071C5.85899 6.00352 5.92864 6.02065 5.99935 6.02065C6.07006 6.02065 6.13971 6.00352 6.20235 5.97071L11.8327 3.02137ZM2.06185 0.333374H9.93685C10.4068 0.333317 10.86 0.507788 11.2085 0.822947C11.5571 1.13811 11.7762 1.57149 11.8233 2.03904L5.99935 5.08987L0.175349 2.03904C0.220571 1.59006 0.424461 1.17193 0.75037 0.859811C1.07628 0.547696 1.50283 0.362066 1.95335 0.336291L2.06185 0.333374H9.93685H2.06185Z" fill="white"/>
</svg>
