<svg width="10" height="14" viewBox="0 0 10 14" fill="none" xmlns="http://www.w3.org/2000/svg">
<path d="M5 0.875C2.58473 0.875 0.625 2.63895 0.625 4.8125C0.625 8.3125 5 13.125 5 13.125C5 13.125 9.375 8.3125 9.375 4.8125C9.375 2.63895 7.41527 0.875 5 0.875ZM5 7C4.65388 7 4.31554 6.89736 4.02775 6.70507C3.73997 6.51278 3.51566 6.23947 3.38321 5.9197C3.25076 5.59993 3.2161 5.24806 3.28363 4.90859C3.35115 4.56913 3.51782 4.2573 3.76256 4.01256C4.0073 3.76782 4.31913 3.60115 4.65859 3.53363C4.99806 3.4661 5.34993 3.50076 5.6697 3.63321C5.98947 3.76566 6.26278 3.98997 6.45507 4.27775C6.64736 4.56554 6.75 4.90388 6.75 5.25C6.74949 5.71397 6.56496 6.1588 6.23688 6.48688C5.9088 6.81496 5.46397 6.99949 5 7Z" fill="white"/>
</svg>
