<svg width="502" height="598" viewBox="0 0 502 598" fill="none" xmlns="http://www.w3.org/2000/svg">
<rect width="502" height="598" fill="#DADADA"/>
<g id="&#209;&#128;&#208;&#181;&#208;&#180;&#208;&#184;&#208;&#183; _ &#208;&#161;&#208;&#144;&#208;&#157;&#208;&#162;&#208;&#149;&#208;&#165;&#208;&#157;&#208;&#152;&#208;&#167;&#208;&#149;&#208;&#161;&#208;&#154;&#208;&#152;&#208;&#149; &#208;&#160;&#208;&#144;&#208;&#145;&#208;&#158;&#208;&#162;&#208;&#171;" clip-path="url(#clip0_0_1)">
<rect width="1920" height="11697" transform="translate(-230 -9356)" fill="white"/>
<g id="Group 1084">
<path id="image 25 (Traced)" fill-rule="evenodd" clip-rule="evenodd" d="M207.685 1.43496C207.371 2.25375 206.045 2.92367 204.74 2.92367C201.737 2.92367 201.602 5.45645 204.443 8.4815C206.902 11.1006 206.239 14.8333 203.314 14.8333C202.273 14.8333 198.956 15.8387 195.943 17.0664L190.465 19.2994L190.463 24.4513C190.463 27.2848 190.908 29.8791 191.454 30.2166C192 30.554 192.449 31.5852 192.452 32.5082C192.456 33.4312 193.083 35.3844 193.847 36.8493C194.611 38.3132 195.531 40.9928 195.893 42.8041C196.256 44.6143 197.7 49.6353 199.102 53.9604C202.004 62.9115 206.032 67.985 215.531 74.6505C218.741 76.9034 222.015 79.9989 222.805 81.5293C223.597 83.0587 224.518 88.6641 224.854 93.9848C225.334 101.613 226.001 104.709 228.008 108.622C230.327 113.14 230.612 115.047 231.214 129.96C231.577 138.966 232.444 148.284 233.141 150.664C234.254 154.468 234.196 155.35 232.663 157.947C230.406 161.769 231.2 172.42 234.663 184.732C236.005 189.51 237.086 196.01 237.086 199.307C237.086 208.945 238.566 211.143 246.136 212.75C247.825 213.108 249.178 214.365 249.993 216.331C251.392 219.709 254.47 222.26 257.147 222.26C258.622 222.26 258.91 221.37 258.91 216.801V211.342H264.862H270.814V207.442C270.814 203.639 270.883 203.561 273.6 204.34C275.132 204.78 277.758 205.85 279.435 206.717L282.484 208.294L283.109 205.168C283.453 203.449 286.679 196.086 290.278 188.805L296.822 175.569L297.361 165.011L297.9 154.452L304.796 147.943L311.693 141.434L311.063 135.87C310.474 130.658 310.587 130.236 312.837 129.21C314.863 128.287 315.558 128.454 317.264 130.278C318.378 131.467 319.755 133.67 320.324 135.17C321.306 137.766 321.676 137.9 327.877 137.9H334.396L334.102 131.697L333.806 125.494L327.11 125.2C321.47 124.953 320.414 124.629 320.414 123.147C320.414 120.708 337.502 104.156 340.02 104.156C341.123 104.156 342.305 103.428 342.646 102.539C343.422 100.515 341.229 94.2309 339.747 94.2309C339.142 94.2309 336.219 92.1527 333.25 89.6129C330.282 87.0742 324.742 83.5013 320.938 81.6732C314.513 78.5866 313.316 78.3514 304.074 78.3494C285.843 78.3474 264.241 72.8084 245.022 63.2093C237.503 59.4537 235.892 59.0141 230.142 59.1441C226.596 59.2245 221.834 59.6026 219.561 59.9847L215.429 60.6795L214.781 55.3727C214.426 52.4538 214.628 47.3863 215.232 44.1112C216.614 36.623 218.207 11.2703 217.523 7.66767C217.241 6.18194 216.17 4.70019 215.143 4.37466C214.116 4.04813 212.815 2.91869 212.25 1.8637C211.029 -0.417989 208.487 -0.656176 207.685 1.43496ZM24.8357 59.5351C21.4907 62.3954 21.1227 62.4719 10.6997 62.4719C4.81318 62.4719 -0.000991847 62.8073 1.5328e-07 63.2162C0.000992153 63.6251 2.23298 67.6724 4.95999 72.208C7.687 76.7446 9.91803 80.781 9.91803 81.1779C9.91803 81.5749 8.59668 83.4467 6.9827 85.3364C4.06919 88.7465 4.04636 88.8686 4.00668 101.401L3.966 114.03L6.89243 115.543C8.51732 116.384 12.3494 117.058 15.505 117.058C18.6328 117.058 24.681 118 28.9466 119.152C36.6891 121.242 36.702 121.251 36.702 124.61V127.975H42.158C47.4692 127.975 47.614 127.901 47.614 125.203C47.614 122.758 47.0893 122.291 43.1699 121.243L38.7257 120.053L43.1699 107.519C45.6141 100.625 47.614 94.8046 47.614 94.5822C47.614 94.3609 48.85 94.8194 50.3618 95.6015C52.693 96.8074 53.5908 96.8202 56.296 95.6819L59.4823 94.3411L63.1408 100.986C65.1526 104.64 66.9074 107.777 67.0414 107.958C67.1743 108.138 68.2149 107.788 69.3527 107.179C71.1819 106.199 71.422 105.162 71.422 98.2325C71.422 91.2237 71.2087 90.3275 69.4053 89.7539L67.3875 89.1137L69.4926 85.7056L71.5986 82.2984L66.3955 76.289C62.7103 72.0333 59.265 69.309 54.5848 66.9519C47.0109 63.1358 30.874 56.4972 29.3176 56.5577C28.7412 56.5796 26.7245 57.9194 24.8357 59.5351ZM81.6882 61.2233C80.5435 62.7726 79.2925 65.4731 78.9077 67.2258C78.5158 69.0122 77.5814 70.4116 76.7798 70.4116C74.4585 70.4116 76.2382 75.5427 79.4672 78.1588C82.1485 80.3304 82.2616 80.7412 81.6882 86.2286C81.0881 91.97 81.1128 92.0425 85.306 96.593C87.6283 99.1139 91.8156 102.489 94.611 104.094C97.4065 105.699 101.436 108.801 103.565 110.99L107.435 114.969L103.426 121.223C101.221 124.664 98.8885 129.146 98.2427 131.184L97.0702 134.891L90.9426 134.76C87.5717 134.688 84.1444 134.263 83.326 133.817C79.1397 131.53 79.0941 131.392 81.1644 127.331C82.587 124.54 82.8776 122.957 82.1912 121.73C81.0742 119.732 81.846 118.05 83.8806 118.05C84.6672 118.05 85.31 117.38 85.31 116.561C85.31 115.404 83.9907 115.073 79.3868 115.073C73.6897 115.073 73.164 115.299 65.5613 121.019C57.9854 126.718 57.6342 127.16 57.0688 131.688C56.7454 134.286 55.8704 137.596 55.1245 139.043C53.6255 141.956 54.6225 143.854 57.6511 143.854C62.3055 143.854 64.3282 148.043 61.006 150.802C60.1876 151.481 59.518 153.268 59.518 154.772C59.518 156.275 60.1876 158.062 61.006 158.741C62.7718 160.208 62.9454 164.001 61.3621 166.536C59.9307 168.83 61.0407 175.224 63.0019 175.977C64.5296 176.563 66.462 173.892 66.462 171.194C66.462 170.021 67.079 169.776 68.8894 170.23C70.8318 170.719 71.9428 170.127 74.4486 167.272L77.5793 163.704H87.3972C92.7966 163.704 97.211 164.039 97.2061 164.448C97.1584 169.206 94.8075 178.204 93.3433 179.23C91.9346 180.217 91.4217 182.463 90.895 189.97C90.2839 198.66 89.8732 200.106 86.0332 207.065C82.5513 213.374 81.0782 215.055 77.374 216.949C73.165 219.1 72.8227 219.133 71.3873 217.519C70.5501 216.579 68.4301 214.79 66.6753 213.546C63.0436 210.969 62.8968 211.32 64.3857 219.02C65.1674 223.064 65.0623 223.326 61.6141 225.948C54.1612 231.615 48.9919 239.131 52.5482 239.131C53.0799 239.131 54.2078 240.471 55.054 242.109C56.7484 245.388 58.6103 245.888 60.5259 243.579C61.5447 242.35 61.4752 241.74 60.1509 240.276C57.9249 237.814 58.0905 237.195 61.2748 236.085C62.7857 235.558 64.4602 234.299 64.9948 233.288C70.6294 222.628 73.9189 219.282 78.7668 219.282C80.1834 219.282 81.3371 219.394 81.3311 219.53C81.3252 219.666 80.6555 221.971 79.8431 224.65C79.0306 227.33 78.366 231.461 78.366 233.831V238.139H90.645C100.349 238.139 103.182 237.826 104.158 236.65C105.11 235.502 107.744 235.162 115.665 235.162C124.079 235.162 127.076 234.733 132.242 232.788L138.547 230.413L143.672 238.555C149.858 248.382 150.37 252.584 146.07 258.254C142.58 262.855 139.233 265.421 133.524 267.869C131.013 268.946 128.958 270.335 128.958 270.954C128.958 271.574 130.533 273.658 132.458 275.583C135.593 278.72 136.371 279.029 139.935 278.55C148.9 277.348 151.804 273.205 152.119 261.168C152.324 253.352 152.683 251.761 155.054 248.178C157.044 245.169 158.469 244.056 160.468 243.95C167.274 243.588 170.24 244.462 176.503 248.675L183.022 253.061L183.34 250.518C183.515 249.12 182.019 244.158 180.016 239.492C177.67 234.027 175.744 227.245 174.602 220.431C173.119 211.579 172.078 208.481 168.223 201.436C165.689 196.807 163.21 192.612 162.714 192.116C161.317 190.719 162.725 174.276 164.321 173.331C166.793 171.868 165.698 170.911 160.806 170.262C154.722 169.455 153.076 167.746 154.672 163.893C155.72 161.36 155.18 159.701 148.769 145.78C144.889 137.352 140.777 126.76 139.633 122.243C137.622 114.306 137.345 113.847 131.367 108.597C124.76 102.793 122.782 102.161 119.77 104.887C117.963 106.524 117.803 106.524 116.607 104.887C115.914 103.939 114.057 103.156 112.481 103.148C107.16 103.119 106.846 102.573 102.642 85.9934C100.804 78.7474 98.9877 75.2231 95.2756 71.7038C93.1756 69.7119 92.1151 67.5156 91.5368 63.9606C90.7611 59.1828 90.6014 58.9873 87.2494 58.7035C84.3954 58.4613 83.3935 58.9158 81.6882 61.2233ZM188.333 69.6643C186.343 70.9208 181.348 75.1497 177.231 79.062C167.337 88.4646 152.715 95.7444 140.506 97.3473C136.065 97.9308 132.072 98.7417 131.633 99.1506C130.803 99.9247 134.577 107.133 135.812 107.133C136.2 107.133 137.942 108.525 139.682 110.229C142.068 112.563 142.854 114.209 142.879 116.928C142.897 118.91 143.738 122.764 144.749 125.494C145.76 128.223 147.663 133.381 148.98 136.956C150.296 140.531 153.313 146.783 155.683 150.85C158.932 156.423 159.949 159.162 159.812 161.967C159.648 165.315 159.877 165.689 162.085 165.689C165.914 165.689 169.399 167.368 170.09 169.545C170.46 170.714 169.883 173.172 168.687 175.517C167.341 178.156 166.654 181.417 166.654 185.161C166.654 190.281 167.172 191.662 172.112 199.697C177.336 208.193 177.597 208.946 178.187 217.154C178.63 223.311 179.587 227.554 181.575 232.184C183.097 235.732 184.652 240.296 185.028 242.324C185.756 246.261 189.453 251.041 191.768 251.041C193.859 251.041 197.978 247.488 200.361 243.631C203.579 238.423 207.657 236.482 216.75 235.833C231.784 234.758 234.084 233.096 236.171 221.8C236.981 217.416 236.864 215.731 235.533 212.644C234.636 210.563 233.5 205.096 233.01 200.493C232.519 195.89 231.449 191.105 230.634 189.858C229.818 188.613 229.15 185.365 229.15 182.642C229.15 179.92 228.622 176.532 227.977 175.116C227.069 173.121 227.091 170.196 228.075 162.142C229.204 152.895 229.169 151.475 227.759 149.322C226.459 147.337 226.174 143.769 226.174 129.477C226.174 112.803 226.072 111.894 223.805 108.353C221.848 105.297 221.327 102.85 220.813 94.3133C220.47 88.6274 219.658 83.3326 219.006 82.5475C218.355 81.7625 215.348 79.3855 212.326 77.2656C209.303 75.1457 205.383 72.2348 203.614 70.7977C199.092 67.1246 193.064 66.677 188.333 69.6643ZM344.222 106.637C342.94 108.001 341.188 109.134 340.329 109.153C337.623 109.214 334.583 111.448 330.92 116.065C328.971 118.522 327.373 120.867 327.368 121.276C327.362 121.685 330.036 122.02 333.31 122.02H339.262V128.819C339.262 134.154 337.891 141.839 336.933 141.875C336.849 141.878 334.143 142.313 330.918 142.842C326.938 143.494 323.697 143.46 320.829 142.738L316.604 141.674L308.589 149.789L300.574 157.906L300.55 165.023C300.516 175.07 299.338 179.161 292.612 192.618C287.435 202.975 286.686 205.193 286.686 210.175C286.686 215.416 286.919 216.014 289.567 217.579C291.152 218.516 293.745 219.282 295.329 219.282C296.915 219.282 299.077 219.938 300.137 220.739C301.195 221.541 303.457 222.211 305.161 222.228C306.866 222.246 310.159 222.929 312.478 223.748C314.797 224.567 318.09 225.244 319.795 225.253C325.625 225.284 330.313 229.025 334.484 236.977L338.299 244.252L337.638 253.653L336.977 263.056L340.848 267.058C342.976 269.258 346.387 271.921 348.426 272.974C350.466 274.027 354.136 276.892 356.583 279.34C360.477 283.236 361.568 283.793 365.302 283.793C369.042 283.793 370.551 284.566 377.481 290.037C381.831 293.472 389.631 298.702 394.814 301.659C412.084 311.513 427.941 321.704 438.181 329.529L448.317 337.274L454.449 332.757C459.427 329.09 462.891 327.57 472.864 324.676C483.956 321.458 485.201 320.866 485.705 318.58C486.012 317.187 486.457 315.321 486.694 314.434C486.931 313.546 489.686 311.887 492.817 310.744C495.947 309.602 499.297 308.09 500.262 307.385C501.913 306.177 501.871 305.905 499.524 302.722C498.153 300.862 495.794 298.526 494.282 297.528C491.336 295.584 483.632 295.034 482.606 296.695C482.258 297.257 483.092 297.687 484.531 297.687C486.578 297.687 487.07 298.169 487.07 300.168C487.07 302.624 486.979 302.65 478.39 302.681C472.335 302.703 469.128 303.154 467.785 304.17C466.725 304.971 464.828 305.627 463.569 305.627C462.309 305.627 461.278 306.074 461.278 306.619C461.278 307.165 459.716 307.612 457.806 307.612C455.896 307.612 454.334 307.165 454.334 306.619C454.334 306.074 452.341 305.627 449.905 305.627C446.364 305.627 444.771 305.009 441.969 302.546C438.116 299.162 437.566 296.343 439.886 291.854C442.146 287.484 449.852 281.806 455.837 280.103L461.278 278.553V274.083V269.613L454.27 270.264C450.415 270.624 445.521 271.804 443.396 272.888C440.923 274.151 437.563 274.86 434.06 274.86C425.124 274.86 425.284 275.565 426.127 239.929C426.751 213.557 426.638 209.15 425.211 204.236C424.067 200.299 423.582 194.743 423.582 185.568C423.582 178.383 423.147 171.692 422.616 170.699C422.084 169.705 413.491 161.602 403.52 152.69C393.548 143.779 378.471 130.198 370.014 122.51C347.546 102.086 348.147 102.456 344.222 106.637ZM274.079 213.233C273.288 214.5 271.11 215.427 267.633 215.978C262.546 216.783 262.372 216.917 262.053 220.275C261.629 224.74 260.329 226.229 256.855 226.229C253.585 226.229 245.022 220.792 245.022 218.715C245.022 217.874 244.039 217.297 242.603 217.297C240.335 217.297 240.139 217.731 239.505 224.176C238.868 230.639 238.595 231.241 234.987 234.142C230.086 238.082 225.916 239.498 214.439 241.115L205.184 242.419L202.239 247.64C198.88 253.594 196.173 255.718 191.354 256.178C188.215 256.478 187.96 256.768 187.665 260.375C187.213 265.9 188.02 268.222 191.612 271.736C194.424 274.486 195.222 274.761 198.819 274.219C201.043 273.884 204.339 272.44 206.144 271.01C218.058 261.568 221.552 260.739 226.991 266.06C231.039 270.018 231.586 272.341 229.72 277.628C228.15 282.081 215.749 296.56 211.608 298.777C205.975 301.793 204.588 309.018 208.445 315.261C210.903 319.24 214.325 320.246 219.667 318.56C221.882 317.861 226.429 317.086 229.772 316.838L235.85 316.385L238.343 311.254C239.715 308.433 241.116 305.284 241.46 304.258C242 302.637 242.63 302.502 246.28 303.225C248.589 303.682 255.388 304.067 261.39 304.081C273.927 304.107 278.185 302.522 279.308 297.408C279.92 294.618 280.089 294.547 285.297 294.872C288.244 295.055 290.656 294.88 290.655 294.481C290.652 292.546 295.805 292.641 299.185 294.636C303.236 297.027 305.511 296.691 308.789 293.215C310 291.932 312.329 290.738 313.966 290.562C316.605 290.279 316.977 289.833 317.245 286.618C317.634 281.94 313.607 277.154 305.551 272.723C299.307 269.289 298.626 267.868 298.601 258.237L298.59 254.019L302.806 254.001C306.836 253.985 307.155 253.756 310.026 248.817C312.65 244.302 313.551 243.546 317.155 242.833C320.011 242.268 322.216 240.951 324.32 238.555C329.512 232.639 328.424 231.111 317.438 228.882C305.929 226.548 292.326 223.168 290.42 222.169C289.473 221.673 287.664 221.267 286.401 221.267C284.663 221.267 283.579 220.182 281.936 216.801C280.744 214.345 279.352 212.335 278.844 212.335C278.336 212.335 277.324 212.107 276.597 211.827C275.869 211.548 274.736 212.18 274.079 213.233ZM130.446 237.669C126.916 239.844 125.368 240.114 116.431 240.119C108.716 240.123 106.098 240.469 105.15 241.613C104.18 242.782 101.405 243.101 92.2133 243.101C85.7782 243.101 79.8064 243.372 78.9434 243.704C77.628 244.209 77.374 246.318 77.374 256.744C77.374 271.066 80.1526 289.517 83.7476 299.074C85.0313 302.486 86.6373 307.764 87.3178 310.803C88.2989 315.192 90.4536 318.951 97.7993 329.09C102.884 336.109 108.274 343.574 109.777 345.678C111.608 348.243 112.706 351.296 113.107 354.941C113.695 360.293 113.646 360.428 109.93 363.61C104.502 368.259 104.04 371.85 108.203 377.032L111.473 381.103L109.076 382.816C105.807 385.152 103.48 385.802 97.9927 385.918C94.2271 385.998 93.1032 385.619 92.2233 383.975C91.4039 382.443 90.3394 382.007 87.9725 382.238C85.0858 382.517 84.7873 382.873 84.4996 386.376C84.196 390.075 84.0799 390.187 81.1516 389.602C79.483 389.267 77.755 388.994 77.3105 388.994C76.8671 388.994 76.2024 386.985 75.8344 384.528C75.4664 382.072 74.6361 380.062 73.9903 380.062C73.3445 380.062 71.0728 381.849 68.942 384.032C66.8112 386.216 64.2925 388.002 63.3452 388.002C62.0655 388.002 61.4514 389.147 60.9544 392.468C60.2769 396.986 59.6906 397.684 57.9804 396.012C56.7126 394.772 52.8796 397.985 51.5959 401.365C51.0424 402.821 50.59 406.259 50.59 409.008C50.59 413.368 51.0205 414.435 53.9628 417.379C57.6134 421.031 59.6043 421.552 61.4415 419.337C63.1765 417.246 68.2823 419.26 69.0551 422.341C69.4598 423.954 70.3586 424.723 71.8387 424.723C73.1223 424.723 74.9426 425.966 76.2491 427.733L78.4722 430.742L82.6088 427.2C88.0638 422.528 90.7531 421.89 93.0466 424.723C94.7876 426.875 94.9314 426.888 99.5273 425.328C102.112 424.449 104.881 423.731 105.681 423.731C106.645 423.731 107.134 422.694 107.134 420.648C107.134 418.777 108.147 416.362 109.712 414.501C111.779 412.045 112.179 410.749 111.732 407.986C111.424 406.09 110.645 404.212 109.999 403.813C109.204 403.322 109.065 401.857 109.569 399.267C109.978 397.165 110.239 392.878 110.15 389.739L109.987 384.032H116.276C120.365 384.032 123.336 384.573 124.772 385.578C127.376 387.403 133.038 395.659 138.347 405.37C140.436 409.191 142.303 412.504 142.497 412.732C142.69 412.961 146.089 410.058 150.049 406.281C154.009 402.505 161.846 395.456 167.465 390.619C178.831 380.832 187.892 370.635 186.827 368.827C186.448 368.183 185.102 366.275 183.836 364.586C182.57 362.896 181.534 361.078 181.534 360.545C181.534 360.012 186.579 354.208 192.746 347.647C209.257 330.079 211.641 326.987 210.424 324.713C209.871 323.678 208.692 322.229 207.804 321.492C204.314 318.595 202.129 312.474 202.591 306.897C202.98 302.206 203.556 301.032 207.411 297.088C209.82 294.624 214.128 290.799 216.986 288.585C219.844 286.373 223.08 283.109 224.178 281.331C226.729 277.202 226.82 270.79 224.36 268.563C221.094 265.607 217.397 266.509 212.434 271.474C206.425 277.485 203.579 278.83 196.861 278.83C191.946 278.83 190.925 278.474 188.546 275.926C186.916 274.18 184.949 270.039 183.614 265.538C181.675 259.005 180.805 257.567 176.752 254.197C170.697 249.164 168.471 248.057 164.487 248.095C158.016 248.157 156.777 250.547 155.805 264.833C155.128 274.777 154.989 275.253 151.973 277.949C150.252 279.487 146.374 281.465 143.354 282.343C134.912 284.798 129.765 282.405 125.55 274.066C123.158 269.33 124.238 267.504 131.22 264.491C139.228 261.035 144.83 255.699 144.83 251.525C144.83 247.227 137.473 235.126 134.91 235.208C134.637 235.216 132.628 236.324 130.446 237.669ZM325.87 243.56C323.688 245.451 321.009 247.021 319.918 247.049C316.984 247.127 315.687 248.225 312.172 253.613C309.834 257.193 308.271 258.568 306.271 258.798C303.921 259.07 303.55 259.556 303.55 262.366C303.55 265.965 304.736 267.265 311.579 271.169C318.384 275.052 321.672 279.897 321.737 286.142C321.81 292.901 320.222 295.702 316.318 295.702C314.119 295.702 313.142 296.248 312.766 297.687C312.426 298.986 311.413 299.672 309.833 299.672C308.506 299.672 306.127 300.34 304.549 301.158C302.405 302.266 301.014 302.391 299.063 301.648L296.449 300.654L297.024 308.103C297.339 312.2 297.866 318.789 298.194 322.747L298.789 329.942L304.394 332.641C311.025 335.835 322.598 340.363 324.127 340.363C324.72 340.363 327.029 342.436 329.258 344.969C332.907 349.117 333.31 350.097 333.31 354.818C333.31 362.059 331.16 364.26 316.058 372.479L303.55 379.286V387.616V395.946L309.75 400.55C313.16 403.082 318.405 406.317 321.406 407.74C326.697 410.25 327.339 410.318 342.715 409.987C359.912 409.618 363.189 408.851 376.695 402.03C384.344 398.166 388.575 397.926 389.423 401.307C389.791 402.775 389.373 404.686 388.336 406.269C387.003 408.305 386.789 410.041 387.313 414.551C388.239 422.505 390.715 430.877 391.921 430.13C392.471 429.791 394.725 427.207 396.93 424.389C399.135 421.57 405.068 414.799 410.115 409.34C420.962 397.608 424.027 391.286 423.033 382.696C422.708 379.883 422.074 376.688 421.626 375.596C420.866 373.749 417.134 353.968 417.134 351.791C417.134 349.244 420.8 350.748 427.929 356.216C435.726 362.197 438.462 363.397 438.462 360.835C438.462 360.086 439.364 357.434 440.465 354.943C442.137 351.159 442.305 349.706 441.482 346.133C440.938 343.778 440.479 340.512 440.46 338.875C440.431 336.335 439.326 335.082 432.939 330.351C428.821 327.301 413.907 317.763 399.799 309.154C385.691 300.546 372.91 292.211 371.399 290.632C369.27 288.409 367.743 287.755 364.62 287.728C359.59 287.683 357.764 286.598 351.737 280.071C349.092 277.206 346.49 274.86 345.955 274.86C344.395 274.86 335.577 268.059 334.684 266.167C334.236 265.217 333.631 259.085 333.342 252.541C332.733 238.796 332.162 238.11 325.87 243.56ZM282.302 303.514L279.879 307.356L271.13 308.014C260.284 308.83 252.419 308.838 248.364 308.036C245.404 307.45 245.176 307.639 243.489 312.056C242.517 314.605 240.839 317.811 239.761 319.182L237.802 321.674L242.549 330.771C245.16 335.774 248.298 341.207 249.522 342.845C250.747 344.482 252.043 347.216 252.404 348.92C252.905 351.289 253.982 352.434 256.977 353.785C260.446 355.35 260.894 355.946 260.894 358.992C260.894 361.399 260 363.45 257.918 365.823C254.62 369.582 254 374.075 256.495 376.147C257.35 376.856 258.717 378.729 259.533 380.308C260.967 383.082 260.894 383.331 257.373 387.63C253.899 391.872 253.693 392.543 252.949 402.015C252.52 407.479 251.952 412.166 251.688 412.431C251.423 412.695 247.583 412.285 243.155 411.52L235.102 410.128V414.863C235.102 417.467 234.863 420.222 234.57 420.985C234.209 421.928 235.162 422.668 237.545 423.299L241.051 424.227L238.505 429.683C237.104 432.683 235.269 435.901 234.425 436.832C233.223 438.161 233.111 439.154 233.904 441.431C234.67 443.627 234.589 444.665 233.577 445.694C232.841 446.442 231.933 449.399 231.559 452.264C230.881 457.455 230.889 457.475 233.614 457.475C236.346 457.475 236.349 457.483 235.619 462.685C235.217 465.551 234.568 472.262 234.176 477.597C233.785 482.934 232.94 487.824 232.3 488.465C230.339 490.426 230.982 491.912 234.358 493.225C236.132 493.914 239.368 495.288 241.55 496.277C244.845 497.771 250.813 498.316 276.766 499.493L308.014 500.911L310.99 497.547C312.675 495.642 314.909 494.186 316.141 494.19C317.339 494.193 318.901 493.388 319.613 492.402C320.327 491.415 322.919 489.167 325.374 487.408C327.829 485.648 331.769 482.66 334.131 480.766C336.829 478.604 339.502 477.324 341.323 477.324C343.185 477.324 344.222 476.813 344.222 475.894C344.222 475.107 346.788 472.252 349.926 469.548C353.064 466.845 361.88 459.281 369.518 452.741C377.156 446.199 384.406 439.477 385.628 437.801L387.851 434.754L385.412 425.52C382.638 415.02 382.273 410.741 383.749 406.065C384.729 402.963 384.669 402.824 382.606 403.431C381.41 403.782 377.858 405.576 374.713 407.416C365.572 412.763 360.403 413.888 342.072 414.517L325.54 415.085L320.744 412.309C311.405 406.903 301.234 399.413 299.616 396.751C298.261 394.521 298.13 392.964 298.862 387.801C299.35 384.364 299.953 380.113 300.201 378.354C300.626 375.353 301.4 374.8 312.857 369.317C319.795 365.997 325.771 362.463 326.705 361.128C327.668 359.753 328.35 356.853 328.35 354.14C328.35 350.077 327.918 349.121 324.86 346.435C322.941 344.749 320.15 343.121 318.66 342.818C317.169 342.515 314.164 341.391 311.982 340.32C309.8 339.249 307.164 338.375 306.124 338.376C305.086 338.378 302.091 337.374 299.469 336.145L294.703 333.912L294.652 327.461C294.624 323.913 293.936 318.818 293.123 316.138C292.311 313.459 291.646 309.176 291.646 306.621C291.646 302.606 291.303 301.82 289.119 300.824C285.403 299.13 284.958 299.306 282.302 303.514ZM223.49 321.716C221.504 322.369 218.71 324.827 216.05 328.267C210.648 335.247 199.592 347.471 193.436 353.266C186.439 359.852 185.943 361.3 189.513 364.72C191.126 366.266 192.446 368.189 192.446 368.992C192.446 372.416 175.785 391.596 168.142 396.969C165.96 398.503 160.185 403.533 155.31 408.145L146.446 416.532L158.215 434.77C164.688 444.801 172.998 457.525 176.682 463.047C184.212 474.33 184.396 474.449 200.242 478.313C210.314 480.769 211.018 481.432 212.618 489.958C213.27 493.426 211.507 495.189 207.391 495.189C205.707 495.189 205.342 495.813 205.342 498.693C205.342 501.156 205.858 502.365 207.078 502.759C212.299 504.446 215.117 506.62 215.67 509.385C216.649 514.285 216.347 516.879 214.025 523.537L211.797 529.925L206.833 529.922C200.997 529.919 192.99 533.024 180.076 540.297C174.945 543.187 168.436 545.943 164.7 546.807L158.222 548.305L157.914 553.131C157.746 555.786 157.888 558.685 158.229 559.573C158.792 561.034 158.944 561.023 159.826 559.451C160.922 557.497 168.219 556.954 168.828 558.78C169.023 559.367 172.073 560.098 175.607 560.406C179.139 560.713 183.816 561.86 185.998 562.954C191.847 565.885 201.361 573.472 202.599 576.189C203.549 578.276 204.338 578.556 209.274 578.556C214.393 578.556 215.166 578.253 218.292 575.015C221.138 572.066 222.197 571.569 224.621 572.049C230.19 573.151 231.134 574.97 231.134 584.597C231.134 593.145 231.19 593.348 234.112 595.429C235.75 596.596 238.093 597.408 239.32 597.233C241.292 596.954 241.55 596.344 241.55 591.955C241.55 587.554 241.804 586.956 243.798 586.673C245.88 586.377 245.672 585.939 240.959 580.718C232.876 571.764 231.625 566.841 234.606 555.729C235.412 552.727 236.076 547.952 236.082 545.119C236.089 542.285 236.54 539.691 237.086 539.354C237.632 539.016 238.081 536.422 238.084 533.588C238.09 527.212 239.614 521.519 242.278 517.913C244.633 514.726 244.344 510.834 241.226 503.783C239.692 500.312 238.615 499.216 236.221 498.69C231.791 497.717 227.166 493.038 227.166 489.531C227.166 487.948 227.725 486.097 228.406 485.417C230.083 483.744 231.114 461.44 229.514 461.443C228.895 461.444 228.156 460.552 227.87 459.46C227.56 458.272 226.517 457.475 225.275 457.475C222.56 457.475 222.394 453.013 225.056 451.587C227.466 450.297 229.691 441.955 228.128 440.071C226.799 438.468 227.864 436.176 231.539 432.738C234.649 429.829 234.834 427.166 232.033 425.666C230.236 424.704 230.032 423.929 230.521 419.925C230.831 417.378 231.095 413.508 231.106 411.325C231.138 405.023 231.939 404.447 238.118 406.282C241.022 407.146 244.398 407.851 245.619 407.851C248.061 407.851 248.413 406.809 249.478 396.438C249.815 393.163 251.043 388.635 252.207 386.376C254.211 382.491 254.236 382.135 252.672 379.748C251.764 378.36 250.74 375.475 250.399 373.336C249.856 369.943 250.169 369.001 252.856 365.94C256.948 361.277 256.839 358.334 252.47 355.503C250.487 354.218 248.748 352.115 248.366 350.54C248.001 349.037 245.595 344.234 243.021 339.867C240.447 335.5 237.054 329.471 235.482 326.469C233.045 321.817 232.183 320.985 229.646 320.841C228.009 320.747 225.239 321.141 223.49 321.716ZM370.092 335.98C370.14 337.136 370.375 337.371 370.692 336.58C370.978 335.864 370.943 335.007 370.613 334.678C370.284 334.348 370.05 334.934 370.092 335.98ZM204.35 582.055C204.35 582.886 203.327 583.956 202.077 584.433C199.154 585.544 197.541 587.528 196.442 591.362C195.642 594.151 195.768 594.436 197.798 594.436C199.029 594.436 201.084 593.319 202.366 591.955C204.286 589.91 205.627 589.473 209.979 589.473C212.884 589.473 215.262 589.048 215.262 588.527C215.262 587.47 206.531 580.541 205.199 580.541C204.732 580.541 204.35 581.222 204.35 582.055Z" fill="black" fill-opacity="0.4"/>
<path id="image 25 (Traced)_2" fill-rule="evenodd" clip-rule="evenodd" d="M207.685 1.43496C207.371 2.25375 206.045 2.92367 204.74 2.92367C201.737 2.92367 201.602 5.45645 204.443 8.4815C206.902 11.1006 206.239 14.8333 203.314 14.8333C202.273 14.8333 198.956 15.8387 195.943 17.0664L190.465 19.2994L190.463 24.4513C190.463 27.2848 190.908 29.8791 191.454 30.2166C192 30.554 192.449 31.5852 192.452 32.5082C192.456 33.4312 193.083 35.3844 193.847 36.8493C194.611 38.3132 195.531 40.9928 195.893 42.8041C196.256 44.6143 197.7 49.6353 199.102 53.9604C202.004 62.9115 206.032 67.985 215.531 74.6505C218.741 76.9034 222.015 79.9989 222.805 81.5293C223.597 83.0587 224.518 88.6641 224.854 93.9848C225.334 101.613 226.001 104.709 228.008 108.622C230.327 113.14 230.612 115.047 231.214 129.96C231.577 138.966 232.444 148.284 233.141 150.664C234.254 154.468 234.196 155.35 232.663 157.947C230.406 161.769 231.2 172.42 234.663 184.732C236.005 189.51 237.086 196.01 237.086 199.307C237.086 208.945 238.566 211.143 246.136 212.75C247.825 213.108 249.178 214.365 249.993 216.331C251.392 219.709 254.47 222.26 257.147 222.26C258.622 222.26 258.91 221.37 258.91 216.801V211.342H264.862H270.814V207.442C270.814 203.639 270.883 203.561 273.6 204.34C275.132 204.78 277.758 205.85 279.435 206.717L282.484 208.294L283.109 205.168C283.453 203.449 286.679 196.086 290.278 188.805L296.822 175.569L297.361 165.011L297.9 154.452L304.796 147.943L311.693 141.434L311.063 135.87C310.474 130.658 310.587 130.236 312.837 129.21C314.863 128.287 315.558 128.454 317.264 130.278C318.378 131.467 319.755 133.67 320.324 135.17C321.306 137.766 321.676 137.9 327.877 137.9H334.396L334.102 131.697L333.806 125.494L327.11 125.2C321.47 124.953 320.414 124.629 320.414 123.147C320.414 120.708 337.502 104.156 340.02 104.156C341.123 104.156 342.305 103.428 342.646 102.539C343.422 100.515 341.229 94.2309 339.747 94.2309C339.142 94.2309 336.219 92.1527 333.25 89.6129C330.282 87.0742 324.742 83.5013 320.938 81.6732C314.513 78.5866 313.316 78.3514 304.074 78.3494C285.843 78.3474 264.241 72.8084 245.022 63.2093C237.503 59.4537 235.892 59.0141 230.142 59.1441C226.596 59.2245 221.834 59.6026 219.561 59.9847L215.429 60.6795L214.781 55.3727C214.426 52.4538 214.628 47.3863 215.232 44.1112C216.614 36.623 218.207 11.2703 217.523 7.66767C217.241 6.18194 216.17 4.70019 215.143 4.37466C214.116 4.04813 212.815 2.91869 212.25 1.8637C211.029 -0.417989 208.487 -0.656176 207.685 1.43496Z" fill="#F26624"/>
<path id="&#208;&#151;&#208;&#181;&#208;&#187; &#208;&#144;&#208;&#158;" d="M20.3 82.448C21.542 81.926 22.028 81.08 22.028 79.802C22.028 77.552 20.57 76.13 18.338 76.13C15.872 76.13 14.594 77.804 14.45 80.144H16.646C16.7 79.082 17.114 78.254 18.338 78.254C19.292 78.254 19.796 78.866 19.796 79.82C19.796 80.99 19.22 81.566 17.996 81.566H17.258V83.492H18.158C19.4 83.492 20.138 84.122 20.138 85.31C20.138 86.462 19.346 87.11 18.32 87.11C17.06 87.11 16.502 86.174 16.466 85.274H14.234C14.324 87.398 15.782 89.252 18.338 89.252C20.624 89.252 22.406 87.812 22.406 85.436C22.406 84.014 21.884 82.898 20.3 82.448ZM28.2439 85.994C28.0819 86.822 27.7579 87.182 26.8759 87.182C26.0839 87.182 25.6339 86.678 25.6339 85.544V84.986H30.2599V82.862C30.2599 80.576 28.9819 79.244 26.8579 79.244C24.7699 79.244 23.5099 80.576 23.5099 82.862V85.544C23.5099 87.848 24.7699 89.216 26.8399 89.216C28.9279 89.216 30.2059 88.028 30.3859 85.994H28.2439ZM26.8759 81.224C27.7039 81.224 28.1539 81.728 28.1539 82.844V83.474H25.6339V82.844C25.6339 81.728 26.0839 81.224 26.8759 81.224ZM30.9089 89.162C32.8889 89.162 33.9329 87.974 34.2029 85.454C34.3649 84.284 34.4549 82.394 34.4909 81.44H36.2369V89H38.3429V79.478H32.4569C32.4029 81.386 32.2409 83.924 32.1149 85.058C31.9889 86.372 31.7909 87.11 30.9089 87.11V89.162ZM49.3931 89H51.6971L48.6011 76.4H46.2251L43.1291 89H45.4331L45.9371 86.714H48.8891L49.3931 89ZM46.3871 84.608L46.8911 82.268C47.0711 81.404 47.2691 80.018 47.3771 79.172H47.4311C47.5571 80.018 47.7551 81.404 47.9351 82.268L48.4391 84.608H46.3871ZM56.3529 89.216C58.8369 89.216 60.3129 87.614 60.3129 84.95V80.45C60.3129 77.786 58.8369 76.184 56.3529 76.184C53.8509 76.184 52.3749 77.786 52.3749 80.45V84.95C52.3749 87.614 53.8509 89.216 56.3529 89.216ZM56.3529 87.074C55.2369 87.074 54.6609 86.318 54.6609 84.95V80.45C54.6609 79.082 55.2369 78.326 56.3529 78.326C57.4689 78.326 58.0269 79.082 58.0269 80.45V84.95C58.0269 86.318 57.4689 87.074 56.3529 87.074Z" fill="#2A2A2A"/>
<path id="&#208;&#161;&#208;&#144;&#208;&#158;" d="M190.608 147.216C193.038 147.216 194.46 145.812 194.55 143.256H192.336C192.246 144.516 191.706 145.074 190.608 145.074C189.672 145.074 189.114 144.48 189.114 143.22V138.18C189.114 136.884 189.672 136.29 190.59 136.29C191.67 136.29 192.21 136.848 192.282 138.144H194.496C194.388 135.57 193.02 134.148 190.608 134.148C188.25 134.148 186.828 135.57 186.828 138.18V143.22C186.828 145.812 188.268 147.216 190.608 147.216ZM200.985 147H203.289L200.193 134.4H197.817L194.721 147H197.025L197.529 144.714H200.481L200.985 147ZM197.979 142.608L198.483 140.268C198.663 139.404 198.861 138.018 198.969 137.172H199.023C199.149 138.018 199.347 139.404 199.527 140.268L200.031 142.608H197.979ZM207.945 147.216C210.429 147.216 211.905 145.614 211.905 142.95V138.45C211.905 135.786 210.429 134.184 207.945 134.184C205.443 134.184 203.967 135.786 203.967 138.45V142.95C203.967 145.614 205.443 147.216 207.945 147.216ZM207.945 145.074C206.829 145.074 206.253 144.318 206.253 142.95V138.45C206.253 137.082 206.829 136.326 207.945 136.326C209.061 136.326 209.619 137.082 209.619 138.45V142.95C209.619 144.318 209.061 145.074 207.945 145.074Z" fill="#2A2A2A"/>
<path id="&#208;&#161;&#208;&#151;&#208;&#144;&#208;&#158;" d="M115.608 206.216C118.038 206.216 119.46 204.812 119.55 202.256H117.336C117.246 203.516 116.706 204.074 115.608 204.074C114.672 204.074 114.114 203.48 114.114 202.22V197.18C114.114 195.884 114.672 195.29 115.59 195.29C116.67 195.29 117.21 195.848 117.282 197.144H119.496C119.388 194.57 118.02 193.148 115.608 193.148C113.25 193.148 111.828 194.57 111.828 197.18V202.22C111.828 204.812 113.268 206.216 115.608 206.216ZM126.265 199.448C127.507 198.926 127.993 198.08 127.993 196.802C127.993 194.552 126.535 193.13 124.303 193.13C121.837 193.13 120.559 194.804 120.415 197.144H122.611C122.665 196.082 123.079 195.254 124.303 195.254C125.257 195.254 125.761 195.866 125.761 196.82C125.761 197.99 125.185 198.566 123.961 198.566H123.223V200.492H124.123C125.365 200.492 126.103 201.122 126.103 202.31C126.103 203.462 125.311 204.11 124.285 204.11C123.025 204.11 122.467 203.174 122.431 202.274H120.199C120.289 204.398 121.747 206.252 124.303 206.252C126.589 206.252 128.371 204.812 128.371 202.436C128.371 201.014 127.849 199.898 126.265 199.448ZM134.704 206H137.008L133.912 193.4H131.536L128.44 206H130.744L131.248 203.714H134.2L134.704 206ZM131.698 201.608L132.202 199.268C132.382 198.404 132.58 197.018 132.688 196.172H132.742C132.868 197.018 133.066 198.404 133.246 199.268L133.75 201.608H131.698ZM141.663 206.216C144.147 206.216 145.623 204.614 145.623 201.95V197.45C145.623 194.786 144.147 193.184 141.663 193.184C139.161 193.184 137.685 194.786 137.685 197.45V201.95C137.685 204.614 139.161 206.216 141.663 206.216ZM141.663 204.074C140.547 204.074 139.971 203.318 139.971 201.95V197.45C139.971 196.082 140.547 195.326 141.663 195.326C142.779 195.326 143.337 196.082 143.337 197.45V201.95C143.337 203.318 142.779 204.074 141.663 204.074Z" fill="#2A2A2A"/>
<path id="&#208;&#151;&#208;&#144;&#208;&#158;" d="M146.3 321.448C147.542 320.926 148.028 320.08 148.028 318.802C148.028 316.552 146.57 315.13 144.338 315.13C141.872 315.13 140.594 316.804 140.45 319.144H142.646C142.7 318.082 143.114 317.254 144.338 317.254C145.292 317.254 145.796 317.866 145.796 318.82C145.796 319.99 145.22 320.566 143.996 320.566H143.258V322.492H144.158C145.4 322.492 146.138 323.122 146.138 324.31C146.138 325.462 145.346 326.11 144.32 326.11C143.06 326.11 142.502 325.174 142.466 324.274H140.234C140.324 326.398 141.782 328.252 144.338 328.252C146.624 328.252 148.406 326.812 148.406 324.436C148.406 323.014 147.884 321.898 146.3 321.448ZM154.739 328H157.043L153.947 315.4H151.571L148.475 328H150.779L151.283 325.714H154.235L154.739 328ZM151.733 323.608L152.237 321.268C152.417 320.404 152.615 319.018 152.723 318.172H152.777C152.903 319.018 153.101 320.404 153.281 321.268L153.785 323.608H151.733ZM161.699 328.216C164.183 328.216 165.659 326.614 165.659 323.95V319.45C165.659 316.786 164.183 315.184 161.699 315.184C159.197 315.184 157.721 316.786 157.721 319.45V323.95C157.721 326.614 159.197 328.216 161.699 328.216ZM161.699 326.074C160.583 326.074 160.007 325.318 160.007 323.95V319.45C160.007 318.082 160.583 317.326 161.699 317.326C162.815 317.326 163.373 318.082 163.373 319.45V323.95C163.373 325.318 162.815 326.074 161.699 326.074Z" fill="#2A2A2A"/>
<path id="&#208;&#174;&#208;&#151;&#208;&#144;&#208;&#158;" d="M188.198 408.202C185.732 408.202 184.274 409.804 184.274 412.504V413.584H182.384V408.4H180.188V421H182.384V415.69H184.274V416.896C184.274 419.596 185.732 421.198 188.198 421.198C190.646 421.198 192.104 419.596 192.104 416.896V412.504C192.104 409.804 190.646 408.202 188.198 408.202ZM189.836 416.896C189.836 418.3 189.278 419.056 188.198 419.056C187.1 419.056 186.56 418.3 186.56 416.896V412.504C186.56 411.1 187.1 410.344 188.198 410.344C189.278 410.344 189.836 411.1 189.836 412.504V416.896ZM199.239 414.448C200.481 413.926 200.967 413.08 200.967 411.802C200.967 409.552 199.509 408.13 197.277 408.13C194.811 408.13 193.533 409.804 193.389 412.144H195.585C195.639 411.082 196.053 410.254 197.277 410.254C198.231 410.254 198.735 410.866 198.735 411.82C198.735 412.99 198.159 413.566 196.935 413.566H196.197V415.492H197.097C198.339 415.492 199.077 416.122 199.077 417.31C199.077 418.462 198.285 419.11 197.259 419.11C195.999 419.11 195.441 418.174 195.405 417.274H193.173C193.263 419.398 194.721 421.252 197.277 421.252C199.563 421.252 201.345 419.812 201.345 417.436C201.345 416.014 200.823 414.898 199.239 414.448ZM207.678 421H209.982L206.886 408.4H204.51L201.414 421H203.718L204.222 418.714H207.174L207.678 421ZM204.672 416.608L205.176 414.268C205.356 413.404 205.554 412.018 205.662 411.172H205.716C205.842 412.018 206.04 413.404 206.22 414.268L206.724 416.608H204.672ZM214.638 421.216C217.122 421.216 218.598 419.614 218.598 416.95V412.45C218.598 409.786 217.122 408.184 214.638 408.184C212.136 408.184 210.66 409.786 210.66 412.45V416.95C210.66 419.614 212.136 421.216 214.638 421.216ZM214.638 419.074C213.522 419.074 212.946 418.318 212.946 416.95V412.45C212.946 411.082 213.522 410.326 214.638 410.326C215.754 410.326 216.312 411.082 216.312 412.45V416.95C216.312 418.318 215.754 419.074 214.638 419.074Z" fill="#2A2A2A"/>
<path id="&#208;&#174;&#208;&#144;&#208;&#158;" d="M292.198 445.202C289.732 445.202 288.274 446.804 288.274 449.504V450.584H286.384V445.4H284.188V458H286.384V452.69H288.274V453.896C288.274 456.596 289.732 458.198 292.198 458.198C294.646 458.198 296.104 456.596 296.104 453.896V449.504C296.104 446.804 294.646 445.202 292.198 445.202ZM293.836 453.896C293.836 455.3 293.278 456.056 292.198 456.056C291.1 456.056 290.56 455.3 290.56 453.896V449.504C290.56 448.1 291.1 447.344 292.198 447.344C293.278 447.344 293.836 448.1 293.836 449.504V453.896ZM303.065 458H305.369L302.273 445.4H299.897L296.801 458H299.105L299.609 455.714H302.561L303.065 458ZM300.059 453.608L300.563 451.268C300.743 450.404 300.941 449.018 301.049 448.172H301.103C301.229 449.018 301.427 450.404 301.607 451.268L302.111 453.608H300.059ZM310.025 458.216C312.509 458.216 313.985 456.614 313.985 453.95V449.45C313.985 446.786 312.509 445.184 310.025 445.184C307.523 445.184 306.047 446.786 306.047 449.45V453.95C306.047 456.614 307.523 458.216 310.025 458.216ZM310.025 456.074C308.909 456.074 308.333 455.318 308.333 453.95V449.45C308.333 448.082 308.909 447.326 310.025 447.326C311.141 447.326 311.699 448.082 311.699 449.45V453.95C311.699 455.318 311.141 456.074 310.025 456.074Z" fill="#2A2A2A"/>
<path id="&#208;&#174;&#208;&#146;&#208;&#144;&#208;&#158;" d="M358.198 344.202C355.732 344.202 354.274 345.804 354.274 348.504V349.584H352.384V344.4H350.188V357H352.384V351.69H354.274V352.896C354.274 355.596 355.732 357.198 358.198 357.198C360.646 357.198 362.104 355.596 362.104 352.896V348.504C362.104 345.804 360.646 344.202 358.198 344.202ZM359.836 352.896C359.836 354.3 359.278 355.056 358.198 355.056C357.1 355.056 356.56 354.3 356.56 352.896V348.504C356.56 347.1 357.1 346.344 358.198 346.344C359.278 346.344 359.836 347.1 359.836 348.504V352.896ZM369.995 350.538C370.715 349.98 371.147 348.99 371.147 347.91C371.147 345.786 369.797 344.4 367.817 344.4H364.127V357H367.925C370.103 357 371.597 355.56 371.597 353.31C371.597 352.086 371.003 351.042 369.995 350.538ZM367.475 346.488C368.447 346.488 368.897 346.992 368.897 348C368.897 349.026 368.447 349.584 367.547 349.584H366.341V346.488H367.475ZM367.583 354.912H366.341V351.654H367.565C368.681 351.654 369.329 352.212 369.329 353.31C369.329 354.372 368.735 354.912 367.583 354.912ZM378.1 357H380.404L377.308 344.4H374.932L371.836 357H374.14L374.644 354.714H377.596L378.1 357ZM375.094 352.608L375.598 350.268C375.778 349.404 375.976 348.018 376.084 347.172H376.138C376.264 348.018 376.462 349.404 376.642 350.268L377.146 352.608H375.094ZM385.06 357.216C387.544 357.216 389.02 355.614 389.02 352.95V348.45C389.02 345.786 387.544 344.184 385.06 344.184C382.558 344.184 381.082 345.786 381.082 348.45V352.95C381.082 355.614 382.558 357.216 385.06 357.216ZM385.06 355.074C383.944 355.074 383.368 354.318 383.368 352.95V348.45C383.368 347.082 383.944 346.326 385.06 346.326C386.176 346.326 386.734 347.082 386.734 348.45V352.95C386.734 354.318 386.176 355.074 385.06 355.074Z" fill="#2A2A2A"/>
<path id="&#208;&#146;&#208;&#144;&#208;&#158;" d="M363.056 206.538C363.776 205.98 364.208 204.99 364.208 203.91C364.208 201.786 362.858 200.4 360.878 200.4H357.188V213H360.986C363.164 213 364.658 211.56 364.658 209.31C364.658 208.086 364.064 207.042 363.056 206.538ZM360.536 202.488C361.508 202.488 361.958 202.992 361.958 204C361.958 205.026 361.508 205.584 360.608 205.584H359.402V202.488H360.536ZM360.644 210.912H359.402V207.654H360.626C361.742 207.654 362.39 208.212 362.39 209.31C362.39 210.372 361.796 210.912 360.644 210.912ZM371.161 213H373.465L370.369 200.4H367.993L364.897 213H367.201L367.705 210.714H370.657L371.161 213ZM368.155 208.608L368.659 206.268C368.839 205.404 369.037 204.018 369.145 203.172H369.199C369.325 204.018 369.523 205.404 369.703 206.268L370.207 208.608H368.155ZM378.12 213.216C380.604 213.216 382.08 211.614 382.08 208.95V204.45C382.08 201.786 380.604 200.184 378.12 200.184C375.618 200.184 374.142 201.786 374.142 204.45V208.95C374.142 211.614 375.618 213.216 378.12 213.216ZM378.12 211.074C377.004 211.074 376.428 210.318 376.428 208.95V204.45C376.428 203.082 377.004 202.326 378.12 202.326C379.236 202.326 379.794 203.082 379.794 204.45V208.95C379.794 210.318 379.236 211.074 378.12 211.074Z" fill="#2A2A2A"/>
<path id="126" d="M263.916 127.4L261.432 129.056V131.396L263.232 130.262V139.982H265.338V127.4H263.916ZM266.97 140H273.738V138.038H269.184C269.184 135.716 273.666 133.682 273.666 130.37C273.666 128.786 272.586 127.184 270.336 127.184C268.374 127.184 267.186 128.426 267.078 130.694H269.094C269.13 129.722 269.598 129.182 270.354 129.182C271.182 129.182 271.56 129.794 271.56 130.46C271.56 132.8 266.97 134.564 266.97 138.632V140ZM278.772 131.756C278.196 131.756 277.62 131.954 277.224 132.278V130.532C277.224 129.668 277.692 129.254 278.412 129.254C279.114 129.254 279.528 129.722 279.6 130.532H281.724C281.652 128.498 280.338 127.184 278.412 127.184C276.432 127.184 275.082 128.516 275.082 130.568V136.814C275.082 138.866 276.468 140.216 278.43 140.216C280.41 140.216 281.796 138.866 281.796 136.814V134.924C281.796 133.07 280.536 131.756 278.772 131.756ZM279.654 136.796C279.654 137.66 279.168 138.146 278.43 138.146C277.71 138.146 277.224 137.66 277.224 136.796V135.068C277.224 134.204 277.692 133.7 278.43 133.7C279.168 133.7 279.654 134.204 279.654 135.068V136.796Z" fill="white"/>
</g>
</g>
<defs>
<clipPath id="clip0_0_1">
<rect width="1920" height="11697" fill="white" transform="translate(-230 -9356)"/>
</clipPath>
</defs>
</svg>
