<svg width="43" height="48" viewBox="0 0 43 48" fill="none" xmlns="http://www.w3.org/2000/svg">
<path fill-rule="evenodd" clip-rule="evenodd" d="M18.7643 0.346584C16.8671 0.610858 15.6251 0.954296 15.2654 1.31401C14.6599 1.9195 14.7849 2.42186 16.4886 6.22868C19.5127 12.986 19.7767 13.59 19.8653 13.9573C19.9806 14.4354 19.4905 15.2452 18.9648 15.4451C18.4589 15.6375 17.6779 15.3898 17.3991 14.9485C17.286 14.7696 16.2371 12.4758 15.0683 9.85113C13.8993 7.22644 12.9044 5.07984 12.8572 5.08088C12.6587 5.08502 11.4402 5.85772 10.4134 6.63042C7.03204 9.17535 4.36577 13.511 3.61024 17.6935L3.50991 18.2484H21.2797H39.0496L38.9493 17.6935C38.1857 13.4666 35.5267 9.17268 32.0512 6.55377C30.9434 5.71907 29.7427 4.99787 29.6405 5.10574C29.6158 5.13178 29.2828 5.85224 28.9005 6.70677C28.5183 7.56129 28.0542 8.59338 27.8694 9.0003C27.6846 9.40722 27.0472 10.8388 26.4528 12.1816C25.1475 15.131 25.0864 15.2306 24.4531 15.4396C23.8083 15.6524 23.2549 15.4047 22.8598 14.7264C22.5785 14.2435 22.5786 14.2291 22.8701 13.4687C23.0324 13.0456 24.1726 10.4537 25.4038 7.70867C26.8286 4.53191 27.6424 2.54024 27.6424 2.22965C27.6424 1.62741 27.3401 1.17492 26.7975 0.96495C25.3331 0.39793 20.8643 0.0538998 18.7643 0.346584ZM1.13012 21.3132C0.591212 21.6474 0.416016 22.0973 0.416016 23.1458C0.416016 24.0891 0.684877 24.8029 1.12982 25.0411C1.72732 25.3609 7.48127 26.6333 10.478 27.1084C20.0127 28.6199 28.6149 28.1995 39.0031 25.7145C41.4278 25.1345 41.616 25.054 41.92 24.4661C42.1882 23.9476 42.2157 22.416 41.9667 21.8695C41.5779 21.0162 42.692 21.0595 21.2502 21.0638C3.13955 21.0674 1.49338 21.0878 1.13012 21.3132ZM3.22744 30.5496V32.5967L3.65922 33.08C4.07338 33.5436 4.14248 33.5654 5.35377 33.6152L6.61654 33.667L6.92654 34.577C7.097 35.0775 7.39353 35.7865 7.58559 36.1527L7.93465 36.8186L7.06075 37.7305C6.31039 38.5138 6.18684 38.7214 6.18684 39.1999C6.18684 39.7212 6.33628 39.9076 8.50034 42.0871C9.77288 43.3685 10.9668 44.4553 11.1536 44.5022C11.6815 44.6348 12.2592 44.3417 13.1006 43.5148L13.8736 42.7552L14.5803 43.1097C14.969 43.3047 15.6865 43.6094 16.1748 43.7867L17.0626 44.1089L17.1366 45.4711C17.2054 46.737 17.2399 46.8585 17.6258 47.1898C18.0371 47.5432 18.0709 47.5464 21.2797 47.5464C24.4886 47.5464 24.5224 47.5432 24.9337 47.1898C25.3196 46.8585 25.3541 46.737 25.4229 45.4711L25.4969 44.1089L26.3847 43.7867C26.873 43.6094 27.5905 43.3047 27.9792 43.1097L28.6859 42.7552L29.4589 43.5148C30.3003 44.3417 30.878 44.6348 31.4059 44.5022C31.5926 44.4553 32.7866 43.3685 34.0592 42.0871C36.2232 39.9076 36.3727 39.7212 36.3727 39.1999C36.3727 38.7214 36.2491 38.5138 35.4988 37.7305L34.6248 36.8186L34.9739 36.1527C35.166 35.7865 35.4625 35.0775 35.633 34.577L35.943 33.667L37.2057 33.6152C38.417 33.5654 38.4861 33.5436 38.9003 33.08L39.3321 32.5967V30.5496V28.5024L37.7414 28.8552C36.8664 29.0493 34.9891 29.4076 33.5694 29.6513C32.1495 29.8951 30.9818 30.1092 30.9743 30.1273C30.9667 30.1452 30.8547 30.6927 30.7253 31.3437C29.5551 37.2277 23.2964 40.6315 17.7285 38.4118C16.407 37.885 15.6329 37.3794 14.606 36.3722C13.0769 34.8722 12.1284 33.1066 11.791 31.1327C11.6996 30.5977 11.6111 30.1436 11.5944 30.1236C11.5778 30.1035 10.4041 29.889 8.98642 29.647C7.56872 29.405 5.69291 29.0484 4.81812 28.8547L3.22744 28.5024V30.5496Z" fill="#F26624"/>
</svg>
