<svg width="7" height="11" viewBox="0 0 7 11" fill="none" xmlns="http://www.w3.org/2000/svg">
<path d="M6.0899 10.7579C6.24494 10.6028 6.33203 10.3925 6.33203 10.1732C6.33203 9.95392 6.24494 9.74361 6.0899 9.58853L1.99638 5.49501L6.0899 1.40148C6.24054 1.24551 6.3239 1.03662 6.32201 0.819788C6.32013 0.602958 6.23316 0.395542 6.07983 0.242214C5.9265 0.0888863 5.71909 0.00191593 5.50226 3.14713e-05C5.28543 -0.00185299 5.07653 0.081502 4.92056 0.232141L0.242368 4.91034C0.0873342 5.06542 0.000240803 5.27572 0.000240803 5.49501C0.000240803 5.71429 0.0873342 5.9246 0.242368 6.07968L4.92056 10.7579C5.07564 10.9129 5.28595 11 5.50523 11C5.72452 11 5.93482 10.9129 6.0899 10.7579Z" fill="#5F5F5F"/>
</svg>
