<svg width="20" height="20" viewBox="0 0 20 20" fill="none" xmlns="http://www.w3.org/2000/svg">
<path d="M12.6745 13.5052L14.3115 11.8682C14.5319 11.6505 14.8109 11.5014 15.1145 11.4391C15.418 11.3769 15.7331 11.4041 16.0215 11.5174L18.0166 12.314C18.3081 12.4323 18.558 12.6342 18.7348 12.8943C18.9117 13.1544 19.0076 13.4611 19.0105 13.7756V17.4296C19.0088 17.6435 18.9638 17.8549 18.8783 18.0511C18.7927 18.2472 18.6684 18.424 18.5127 18.5708C18.357 18.7176 18.1732 18.8313 17.9724 18.9052C17.7716 18.9791 17.558 19.0116 17.3443 19.0008C3.3641 18.1311 0.543215 6.29221 0.00973239 1.76125C-0.0150323 1.53875 0.00759454 1.31353 0.0761241 1.1004C0.144654 0.887271 0.257533 0.691068 0.407336 0.524697C0.557139 0.358326 0.740471 0.225558 0.94527 0.135128C1.15007 0.0446983 1.37169 -0.00134406 1.59557 2.9867e-05H5.12532C5.4403 0.00096221 5.7478 0.0961061 6.00827 0.273224C6.26874 0.450342 6.47026 0.701333 6.58692 0.993916L7.38349 2.989C7.5006 3.27625 7.53048 3.59164 7.46939 3.89578C7.40831 4.19992 7.25896 4.47931 7.04001 4.69907L5.40303 6.33605C5.40303 6.33605 6.34576 12.7159 12.6745 13.5052Z" fill="white"/>
</svg>
