<svg width="49" height="49" viewBox="0 0 49 49" fill="none" xmlns="http://www.w3.org/2000/svg">
<path fill-rule="evenodd" clip-rule="evenodd" d="M18.6813 2.56592V5.13168L18.0323 5.33426C17.6754 5.44558 16.8108 5.78537 16.1112 6.08932L14.8389 6.64195L13.045 4.85284L11.2513 3.06373L7.15706 7.16013L3.06281 11.2565L4.85284 13.0466L6.64287 14.8366L6.08978 16.11C5.78568 16.8104 5.44558 17.6754 5.33426 18.0323L5.13168 18.6813H2.56592H0V24.5V30.3188H2.56592H5.13168L5.33426 30.9677C5.44558 31.3246 5.78537 32.1892 6.08932 32.8888L6.64195 34.1611L4.85284 35.955L3.06373 37.7487L7.16012 41.8429L11.2565 45.9372L13.0414 44.1525L14.8262 42.3677L16.1029 42.9156C16.8052 43.2168 17.6725 43.5544 18.0305 43.6659L18.6813 43.8683V46.4341V49H24.5H30.3188V46.4341V43.8683L30.9695 43.6679C31.3274 43.5576 32.1958 43.2217 32.8991 42.9211L34.178 42.3747L35.9632 44.1556L37.7487 45.9363L41.8429 41.8399L45.9372 37.7435L44.1556 35.9617L42.3738 34.1801L42.9206 32.9001C43.2214 32.1962 43.5576 31.3274 43.6679 30.9695L43.8683 30.3188H46.4341H49V24.5V18.6813H46.4341H43.8683L43.6679 18.0305C43.5576 17.6725 43.2217 16.8042 42.9211 16.1009L42.3747 14.822L44.1556 13.0368L45.9363 11.2513L41.839 7.15614L37.7418 3.06097L35.9851 4.82267C35.0189 5.79165 34.1773 6.58438 34.1149 6.58438C34.0525 6.58438 33.569 6.38669 33.0405 6.14521C32.5121 5.90374 31.684 5.57635 31.2003 5.41787L30.3209 5.12969L30.3198 2.56484L30.3188 0H24.5H18.6813V2.56592ZM32.9874 14.7439C34.413 17.0358 35.7135 19.2555 35.8772 19.6766C36.083 20.2056 36.1762 20.827 36.1792 21.6872C36.1828 22.7631 36.1193 23.0694 35.711 23.9417C35.0748 25.3013 34.0374 26.3798 32.7824 26.9858C31.8658 27.4287 31.6404 27.4731 30.3188 27.4729C28.4283 27.4726 27.3631 27.0281 26.1127 25.717C24.4799 24.0053 23.9878 21.8557 24.7406 19.7225C24.9608 19.0981 30.158 10.5777 30.3188 10.5773C30.3609 10.5771 31.5618 12.4521 32.9874 14.7439ZM28.8731 18.2073C28.1412 19.3853 27.4717 20.6048 27.3855 20.9173C27.0258 22.2201 27.7616 23.7982 28.9884 24.3553C30.7178 25.1404 32.6415 24.2797 33.2249 22.4596C33.5569 21.4237 33.3289 20.748 31.8419 18.3614C31.0856 17.1477 30.4077 16.1346 30.3354 16.11C30.263 16.0855 29.605 17.0292 28.8731 18.2073ZM21.422 24.5651C22.8652 26.8748 24.1588 29.0625 24.2965 29.4268C24.6654 30.4025 24.6361 32.3314 24.2372 33.3382C23.7858 34.4772 22.9458 35.5524 22.0131 36.1853C18.4704 38.5884 13.5548 36.4863 12.8694 32.2751C12.7003 31.2361 12.876 29.8274 13.2785 28.9941C13.7051 28.1113 18.563 20.3656 18.6903 20.3656C18.7495 20.3656 19.9788 22.2553 21.422 24.5651ZM17.2889 27.8305C16.5652 28.9884 15.8864 30.1995 15.7803 30.5216C15.1814 32.3397 16.6912 34.3 18.6903 34.3C20.083 34.3 21.2473 33.4313 21.5975 32.1308C21.8983 31.0141 21.686 30.3864 20.2044 28.0082C19.4481 26.7946 18.7788 25.7843 18.7169 25.7633C18.6551 25.7422 18.0124 26.6724 17.2889 27.8305Z" fill="#F26624"/>
</svg>
