<svg width="45" height="40" viewBox="0 0 45 40" fill="none" xmlns="http://www.w3.org/2000/svg">
<path fill-rule="evenodd" clip-rule="evenodd" d="M20.7835 0.128356C19.836 0.416069 18.6027 1.35423 18.0322 2.22102C17.7341 2.674 16.8012 4.24041 15.959 5.70213C13.3999 10.1435 6.39864 22.2647 3.47757 27.3114C1.96271 29.9285 0.551741 32.4941 0.342062 33.0127C-0.634642 35.4285 0.551898 38.363 2.98938 39.5604L3.8844 40H22.3622H40.8399L41.7349 39.5604C42.7887 39.0427 43.8295 37.9732 44.2898 36.9351C44.7816 35.8259 44.8393 34.1891 44.4251 33.1006C44.2425 32.6208 42.6474 29.727 40.8805 26.6699C39.1135 23.6129 35.2054 16.8362 32.1958 11.611C28.6251 5.41125 26.5028 1.88699 26.0877 1.46716C25.1076 0.47634 24.1086 0.0574584 22.601 0.00559376C21.9027 -0.0183559 21.0847 0.0368391 20.7835 0.128356ZM24.1152 9.7896C24.8664 10.1728 25.6161 11.15 25.7641 11.939C25.9345 12.8472 24.6133 25.6218 24.2907 26.1845C23.4118 27.7183 21.3039 27.7183 20.4373 26.1845C20.0616 25.5196 18.7832 12.5938 19.0114 11.7671C19.2285 10.9807 19.8785 10.1657 20.5864 9.79182C21.4189 9.35201 23.2554 9.3509 24.1152 9.7896ZM23.755 28.747C25.1105 29.3123 26.0031 30.6631 26.0031 32.149C26.0031 34.2002 24.4095 35.7969 22.3622 35.7969C19.1561 35.7969 17.5067 31.9575 19.7136 29.6315C20.7212 28.5695 22.4319 28.195 23.755 28.747Z" fill="#F26624"/>
</svg>
