<svg width="48" height="48" viewBox="0 0 48 48" fill="none" xmlns="http://www.w3.org/2000/svg">
<path fill-rule="evenodd" clip-rule="evenodd" d="M19.9061 0.7125C19.7931 1.10445 19.3686 2.58195 18.9629 3.99585L18.225 6.5667L17.7 6.75405C17.4113 6.85695 16.8605 7.0917 16.4762 7.27545L15.7773 7.6098L12.8762 5.9862C11.2805 5.0931 9.90675 4.35975 9.8235 4.3563C9.7401 4.35285 8.46195 5.5614 6.9831 7.0419C4.49205 9.5358 4.30635 9.75915 4.4571 10.0794C4.54665 10.2695 5.29245 11.6295 6.1146 13.1016L7.60935 15.7782L7.2753 16.4766C7.09155 16.8607 6.85575 17.4149 6.7512 17.7081L6.561 18.241L3.993 18.9734C2.5806 19.3761 1.10445 19.7994 0.7125 19.9142L0 20.1225V24V27.8775L0.7125 28.0859C1.10445 28.2006 2.5806 28.6239 3.993 29.0266L6.561 29.759L6.7512 30.2919C6.85575 30.5852 7.0917 31.1396 7.27545 31.5239L7.6098 32.2227L5.9862 35.1239C5.0931 36.7196 4.35975 38.0933 4.3563 38.1765C4.35285 38.2599 5.5614 39.5381 7.0419 41.0169C9.5358 43.508 9.75915 43.6937 10.0794 43.5429C10.2695 43.4534 11.6295 42.7076 13.1016 41.8854L15.7782 40.3907L16.4766 40.7247C16.8607 40.9084 17.4113 41.1431 17.7 41.246L18.225 41.4333L18.9629 44.0042C19.3686 45.4181 19.7931 46.8956 19.9061 47.2875L20.1116 48H24H27.8885L28.094 47.2875C28.2069 46.8956 28.6302 45.4227 29.0343 44.0145L29.7693 41.4539L30.9721 40.9731C31.6336 40.7087 32.231 40.494 32.2994 40.4961C32.3678 40.4984 33.6956 41.2088 35.25 42.075C36.8045 42.9413 38.133 43.65 38.2022 43.65C38.3646 43.65 43.65 38.3618 43.65 38.1992C43.65 38.1317 42.9413 36.8045 42.075 35.25C41.2088 33.6956 40.4984 32.3678 40.4961 32.2994C40.494 32.231 40.7088 31.6333 40.9734 30.9715L41.4545 29.768L44.0148 29.0363C45.4229 28.6338 46.8956 28.211 47.2875 28.0965L48 27.8885V24V20.1116L47.2875 19.9035C46.8956 19.7891 45.4229 19.3662 44.0148 18.9638L41.4545 18.2321L40.9734 17.0284C40.7088 16.3666 40.494 15.7691 40.4961 15.7007C40.4984 15.6323 41.2088 14.3045 42.075 12.75C42.9413 11.1956 43.65 9.867 43.65 9.79785C43.65 9.72855 42.4386 8.46195 40.9581 6.9831C38.4642 4.49205 38.2408 4.30635 37.9206 4.4571C37.7305 4.54665 36.3705 5.29245 34.8984 6.1146L32.2218 7.60935L31.5234 7.2753C31.1393 7.09155 30.5888 6.85695 30.3 6.75405L29.775 6.5667L29.0372 3.99585C28.6314 2.58195 28.2069 1.10445 28.094 0.7125L27.8885 0H24H20.1116L19.9061 0.7125ZM27.15 11.7207C31.5999 12.8442 35.111 16.3716 36.3117 20.925C36.7332 22.5236 36.768 25.0991 36.3906 26.775C35.3322 31.4762 31.5383 35.2728 26.775 36.3972C25.2329 36.7613 22.4679 36.7214 20.925 36.3129C16.3385 35.0987 12.8949 31.6547 11.6888 27.075C11.4482 26.1617 11.3727 25.4271 11.3727 24C11.3727 22.5729 11.4482 21.8384 11.6888 20.925C13.4982 14.0552 20.3172 9.9957 27.15 11.7207ZM21.908 14.3415C20.6739 14.6114 18.7397 15.5537 17.775 16.3553C15.5336 18.2175 14.1 21.1997 14.1 24C14.1 26.0195 14.9468 28.4351 16.2323 30.0833C18.0167 32.3709 21.1287 33.9 24 33.9C26.0525 33.9 28.6574 32.9622 30.2589 31.6467C32.4426 29.853 33.9 26.7923 33.9 24C33.9 21.9485 33.0471 19.5483 31.7162 17.8542C29.4513 14.9715 25.4999 13.5563 21.908 14.3415ZM25.35 21.15V25.35H24H22.65V21.15V16.95H24H25.35V21.15ZM25.35 29.625V31.05H24H22.65V29.625V28.2H24H25.35V29.625Z" fill="#F26624"/>
</svg>
