<svg width="41" height="41" viewBox="0 0 41 41" fill="none" xmlns="http://www.w3.org/2000/svg">
<path fill-rule="evenodd" clip-rule="evenodd" d="M4.06734 4.06734C1.1169 7.01793 0 8.22333 0 8.45717C0 8.65821 0.311882 9.10313 0.829189 9.64009C1.6089 10.4493 1.65032 10.5268 1.52562 10.9408C1.32868 11.5942 1.65103 12.4233 2.26207 12.8354C2.65836 13.1025 2.90435 13.1599 3.49687 13.1233L4.237 13.0776L6.14293 14.9793C7.19112 16.0253 8.08987 16.84 8.1402 16.7898C8.19039 16.7395 8.44218 16.2137 8.69978 15.621L9.16817 14.5437L8.82688 13.8106C8.2328 12.5348 8.39411 10.9709 9.2332 9.87082C10.2595 8.52531 12.2194 8.08605 13.8371 8.83903L14.5966 9.19262L15.6366 8.80242C16.2086 8.58766 16.7124 8.32017 16.7564 8.20792C16.8082 8.07587 16.1732 7.33942 14.9569 6.12045L13.0776 4.237L13.1233 3.49688C13.1599 2.90436 13.1025 2.65836 12.8354 2.26207C12.4294 1.65993 11.5949 1.33137 10.9569 1.52265C10.5644 1.64028 10.4679 1.5884 9.66144 0.824948C9.11458 0.307217 8.66797 0 8.4624 0C8.22163 0 7.05596 1.07872 4.06734 4.06734ZM19.4959 7.10714C18.8657 7.52817 18.5211 8.24142 18.521 9.12604L18.5207 9.84L17.7078 10.0092C17.2607 10.1023 16.3019 10.469 15.5773 10.824L14.2597 11.4697L13.6587 10.9156C12.8785 10.1966 12.2419 10.0668 11.3752 10.4501C10.8581 10.6788 10.6788 10.8581 10.4501 11.3752C10.0663 12.2427 10.1964 12.8784 10.9179 13.6611L11.4741 14.2645L10.9781 15.1106C10.4489 16.0133 9.75517 17.7924 9.75517 18.2464C9.75517 18.4794 9.65394 18.5207 9.08362 18.521C7.34706 18.5215 6.24868 20.1116 7.06274 21.4467C7.45097 22.0833 7.94467 22.3627 8.85855 22.4631L9.64985 22.55L9.89316 23.4872C10.1407 24.4401 10.8202 25.9973 11.2108 26.5066C11.4107 26.7675 11.3882 26.8287 10.8938 27.365C10.1975 28.1203 10.0706 28.7669 10.4501 29.6248C10.6788 30.1419 10.8581 30.3212 11.3752 30.5499C12.2286 30.9274 12.8784 30.8019 13.6332 30.1135L14.2086 29.5889L14.6328 29.8631C15.3821 30.3481 16.5824 30.8651 17.5286 31.1109L18.45 31.3502L18.5369 32.1415C18.6373 33.0553 18.9167 33.549 19.5533 33.9373C20.8884 34.7513 22.4785 33.6529 22.479 31.9164C22.4793 31.3461 22.5206 31.2448 22.7536 31.2448C23.193 31.2448 24.938 30.5713 25.8843 30.0363L26.7552 29.544L27.3488 30.0912C28.1212 30.8032 28.7608 30.9321 29.6248 30.5499C30.1419 30.3212 30.3212 30.1419 30.5499 29.6248C30.9337 28.7574 30.8036 28.1216 30.0825 27.3394L29.5268 26.7364L30.1192 25.541C30.4449 24.8835 30.822 23.9415 30.9568 23.4478L31.2021 22.55L32.0624 22.4663C33.0388 22.3714 33.5394 22.0991 33.9373 21.4467C34.7621 20.0938 33.6521 18.5214 31.8721 18.521L31.1562 18.5207L30.8357 17.4113C30.6592 16.8011 30.2719 15.8626 29.9747 15.3259L29.4345 14.35L30.0358 13.707C30.8058 12.8838 30.9427 12.2631 30.5499 11.3752C30.3212 10.8581 30.1419 10.6788 29.6248 10.4501C28.7369 10.0573 28.1162 10.1942 27.293 10.9642L26.65 11.5655L25.6741 11.0253C25.1374 10.7281 24.1989 10.3408 23.5887 10.1643L22.4793 9.84382L22.479 9.12787C22.4787 7.81121 21.6125 6.78621 20.5 6.78621C20.1909 6.78621 19.7795 6.91769 19.4959 7.10714ZM19.5103 15.8677V18.4458L17.7425 16.6822C16.7703 15.7123 15.9944 14.8601 16.0183 14.7884C16.1314 14.4491 18.5644 13.3796 19.4043 13.2997C19.4626 13.2942 19.5103 14.4498 19.5103 15.8677ZM23.5397 14.011C25.0739 14.751 25.0817 14.6099 23.4154 16.2749C22.6073 17.0824 21.8116 17.8643 21.6472 18.0124L21.3483 18.2818V15.8028V13.3239L22.0198 13.4628C22.3893 13.5393 23.0731 13.7859 23.5397 14.011ZM15.6753 19.6198C14.3411 19.6411 13.2194 19.6285 13.1828 19.5919C13.0557 19.4648 13.7117 17.5976 14.1495 16.8401L14.5899 16.0785L16.3456 17.8298L18.1014 19.581L15.6753 19.6198ZM27.3494 18.3401C27.4844 18.7893 27.6252 19.2682 27.6621 19.4043C27.7243 19.6332 27.541 19.6517 25.2125 19.6517H22.6956L24.4572 17.8859L26.2188 16.1201L26.6613 16.8217C26.9046 17.2077 27.2142 17.891 27.3494 18.3401ZM17.9528 21.7046C17.8547 21.8227 17.0689 22.6232 16.2065 23.4832L14.6386 25.047L14.3176 24.6468C13.9837 24.2303 13.3782 22.7445 13.2183 21.9491L13.1258 21.4897H15.6285C17.8518 21.4897 18.1113 21.5137 17.9528 21.7046ZM27.6576 21.7371C27.6182 21.8732 27.512 22.2696 27.4216 22.6183C27.2503 23.2802 26.7556 24.328 26.3859 24.8121C26.1781 25.0844 26.1068 25.0319 24.466 23.4005C23.5289 22.4686 22.7621 21.6575 22.7621 21.598C22.7621 21.5384 23.8797 21.4897 25.2457 21.4897C27.5442 21.4897 27.7241 21.508 27.6576 21.7371ZM19.5103 25.3888V27.8742L19.0509 27.7851C18.4188 27.6626 16.8393 27.0143 16.3508 26.677L15.9483 26.3991L17.6918 24.6512C18.6508 23.6899 19.4522 22.9034 19.4729 22.9034C19.4935 22.9034 19.5103 24.0219 19.5103 25.3888ZM24.6376 26.5553C24.0076 27.0296 21.9951 27.8517 21.4639 27.8517C21.4003 27.8517 21.3483 26.7234 21.3483 25.3444V22.837L23.1178 24.6021C24.7284 26.2086 24.8649 26.3841 24.6376 26.5553ZM32.5625 24.4233C32.5146 24.5594 32.321 25.0456 32.1325 25.5037L31.7898 26.3368L32.1707 27.1858C32.5008 27.9213 32.5431 28.1688 32.4866 29.0389C32.4133 30.1691 32.1717 30.7328 31.4522 31.4522C30.732 32.1724 30.1689 32.4133 29.0338 32.487C28.1677 32.5431 27.9132 32.5014 27.239 32.1928L26.4535 31.8331L25.3774 32.3008C24.7858 32.5581 24.267 32.803 24.2249 32.8452C24.1828 32.8874 24.9974 33.7853 26.0353 34.8405L27.9224 36.759L27.8814 37.5011C27.8076 38.8352 28.8145 39.7928 29.9718 39.4891C30.4476 39.3642 30.5019 39.3917 31.3386 40.1796C31.8834 40.6925 32.3327 41 32.5376 41C33.006 41 41 33.006 41 32.5376C41 32.3313 40.6929 31.8873 40.1708 31.3386C39.401 30.5294 39.3518 30.4383 39.4813 30.0618C39.6903 29.4547 39.3962 28.6437 38.8032 28.1915C38.3763 27.8659 38.2117 27.8251 37.5443 27.8806L36.7766 27.9442L34.8962 26.06C33.8622 25.0237 32.9336 24.1759 32.8329 24.1759C32.7321 24.1759 32.6106 24.2871 32.5625 24.4233Z" fill="#F26624"/>
</svg>
