<svg width="48" height="28" viewBox="0 0 48 28" fill="none" xmlns="http://www.w3.org/2000/svg">
<path d="M21.0414 20.4203V27.1237H0.931034V20.4203H7.54138V8.54956C7.26207 8.92198 6.82759 9.29439 6.23793 9.6668C5.64828 10.0392 4.98103 10.3961 4.23621 10.7375C3.52241 11.0789 2.7931 11.3582 2.04828 11.5754C1.30345 11.7616 0.62069 11.8547 0 11.8547V4.96508C0.527586 4.96508 1.17931 4.80991 1.95517 4.49956C2.73103 4.15818 3.5069 3.73922 4.28276 3.24267C5.08966 2.74611 5.78793 2.24956 6.37759 1.75301C6.99828 1.25646 7.38621 0.85301 7.54138 0.542665H15.1293V20.4203H21.0414Z" fill="#F26624"/>
<path d="M23.7683 27.1237C23.7683 25.6651 23.8769 24.3616 24.0942 23.2134C24.3424 22.0651 24.7304 21.0254 25.2579 20.0944C25.8166 19.1323 26.5459 18.2478 27.4459 17.4409C28.3769 16.603 29.5407 15.8116 30.9373 15.0668C32.3959 14.2909 33.6062 13.6392 34.5683 13.1116C35.5614 12.553 36.3528 12.0875 36.9424 11.7151C37.5321 11.3427 37.9355 10.9858 38.1528 10.6444C38.4011 10.272 38.5252 9.86853 38.5252 9.43405C38.5252 8.84439 38.3855 8.33232 38.1062 7.89784C37.8269 7.46335 37.4235 7.13749 36.8959 6.92025C36.3683 6.67198 35.7166 6.54784 34.9407 6.54784C34.32 6.54784 33.7304 6.62542 33.1717 6.7806C32.6131 6.93577 32.07 7.16853 31.5424 7.47887C31.0459 7.78922 30.5648 8.16163 30.0993 8.59611C29.6338 8.99956 29.1683 9.46508 28.7028 9.99267L24.001 4.49956C24.5286 3.97198 25.1959 3.44439 26.0028 2.9168C26.8407 2.38922 27.7873 1.9237 28.8424 1.52025C29.8976 1.08577 31.0459 0.744391 32.2873 0.496115C33.5597 0.216804 34.8786 0.0771484 36.2442 0.0771484C38.4786 0.0771484 40.3562 0.418529 41.8769 1.10129C43.4286 1.75301 44.6079 2.68404 45.4148 3.89439C46.2217 5.10474 46.6252 6.53232 46.6252 8.17715C46.6252 9.23232 46.4545 10.1634 46.1131 10.9703C45.8028 11.7461 45.3838 12.4444 44.8562 13.0651C44.3286 13.6858 43.7235 14.2444 43.0407 14.7409C42.389 15.2375 41.7373 15.6875 41.0855 16.0909C40.3407 16.4634 39.6424 16.8358 38.9907 17.2082C38.339 17.5496 37.7338 17.8909 37.1752 18.2323C36.6166 18.5427 36.089 18.884 35.5924 19.2565C35.1269 19.5978 34.6769 19.9858 34.2424 20.4203H47.1373V27.1237H23.7683Z" fill="#F26624"/>
</svg>
