<svg width="38" height="38" viewBox="0 0 38 38" fill="none" xmlns="http://www.w3.org/2000/svg">
<path fill-rule="evenodd" clip-rule="evenodd" d="M6.25731 0.208591C5.91448 0.265632 5.50243 0.398492 5.34194 0.503717C4.99627 0.730228 4.81192 1.31517 4.95399 1.73429C5.00985 1.8988 6.01084 2.98766 7.17859 4.15411L9.30175 6.27479V7.84089V9.40686H7.73566H6.16969L4.10416 7.32811C2.96818 6.1848 1.86597 5.17436 1.65493 5.08272C1.32225 4.93816 1.21549 4.93923 0.853522 5.09051C0.200442 5.36331 0.0484511 5.85555 0.0488054 7.69444C0.0491597 9.03769 0.0883682 9.34793 0.361882 10.1745C0.806283 11.5171 1.43008 12.4981 2.43993 13.4423C4.00212 14.9028 6.05419 15.6499 8.12078 15.5106C8.67288 15.4734 9.39032 15.3611 9.71509 15.261L10.3056 15.0791L16.5335 21.307L22.7613 27.5348L22.5803 28.1253C22.0784 29.7629 22.2914 31.8428 23.1427 33.6169C24.0142 35.4332 25.8596 36.973 27.9021 37.5883C28.4181 37.7437 28.9959 37.8011 30.0279 37.7994C32.2129 37.7961 32.8032 37.5241 32.8032 36.5205C32.8032 36.0706 32.7166 35.965 30.6184 33.8561L28.4336 31.6603V30.0996V28.5387H29.9997H31.5656L33.6312 30.6174C34.7671 31.7607 35.8693 32.7712 36.0804 32.8628C36.4131 33.0074 36.5198 33.0063 36.8818 32.855C37.5349 32.5822 37.6869 32.09 37.6865 30.2511C37.6862 28.9078 37.6469 28.5976 37.3734 27.771C36.929 26.4284 36.3052 25.4475 35.2954 24.5033C33.3594 22.6933 30.5854 21.9922 28.0793 22.6793L27.4297 22.8574L21.2019 16.634L14.974 10.4107L15.155 9.8202C15.6559 8.1862 15.4437 6.10013 14.5976 4.34153C13.9242 2.94184 12.5982 1.60828 11.1912 0.915995C9.69407 0.179302 7.94186 -0.0718909 6.25731 0.208591ZM31.4063 1.78342C28.5214 3.22634 27.9743 3.54083 27.8615 3.82061C27.7882 4.00259 27.5655 5.29411 27.3669 6.69061L27.0058 9.22971L24.5026 11.7393L21.9994 14.2487L22.7955 15.045L23.5917 15.8411L26.1011 13.3395L28.6107 10.838L31.1897 10.4695C32.6081 10.2667 33.8999 10.0412 34.0604 9.96806C34.2834 9.86638 34.7544 9.03367 36.0577 6.4367C36.9958 4.56757 37.7633 2.92743 37.7633 2.79186C37.7633 2.38052 37.4651 1.94522 36.6206 1.12373C35.7645 0.291023 35.4451 0.0771484 35.0582 0.0771484C34.926 0.0771484 33.2825 0.845019 31.4063 1.78342ZM5.9786 24.0195C1.34646 28.6702 0.917767 29.1345 0.564655 29.883C-0.169085 31.4382 -0.188217 33.1173 0.510094 34.6733L0.838878 35.406L5.15889 31.099C7.53489 28.7301 9.59499 26.7332 9.73682 26.6615C10.4585 26.2965 11.3094 26.8404 11.3094 27.6668C11.3094 28.0951 11.1392 28.2828 6.8739 32.5578L2.43839 37.0033L3.16906 37.3313C4.725 38.0295 6.46965 38.0073 7.98827 37.2701C8.68788 36.9304 9.30282 36.3598 13.8211 31.8583L18.8719 26.8263L14.9406 22.8976L11.0091 18.969L5.9786 24.0195Z" fill="#F26624"/>
</svg>
