<svg width="39" height="46" viewBox="0 0 39 46" fill="none" xmlns="http://www.w3.org/2000/svg">
<path fill-rule="evenodd" clip-rule="evenodd" d="M2.00292 0.297189C1.29976 0.516495 0.624804 1.0807 0.245242 1.76638C0.021383 2.17076 0.00125985 3.80726 0.00125985 21.6699C0.00125985 43.1652 -0.0724782 41.4806 0.908302 42.4123C1.80668 43.266 1.76423 43.2626 11.7709 43.2626C16.8101 43.2626 20.933 43.2297 20.933 43.1895C20.933 43.1494 20.7021 42.7951 20.4199 42.4023C19.803 41.5436 19.2752 40.3837 18.9282 39.1249C18.5729 37.8349 18.5751 34.8748 18.9325 33.5764C19.9334 29.94 22.5178 27.2216 26.1476 25.987C27.1792 25.6362 27.5558 25.5861 29.2322 25.5773C31.03 25.5679 31.7871 25.6851 33.0459 26.1682C33.2473 26.2455 33.2717 25.3708 33.2718 18.0501L33.272 9.84529L30.4799 9.89347C28.141 9.93386 27.5628 9.90052 26.9177 9.68841C25.4638 9.21014 24.5125 8.3432 23.8336 6.87754C23.5297 6.22168 23.5071 5.963 23.5055 3.1251L23.5036 0.0771484L13.0744 0.0869902C4.69981 0.0949222 2.51865 0.136198 2.00292 0.297189ZM25.7297 0.345808C25.5234 0.573634 25.4866 0.994619 25.4866 3.11879C25.4866 5.85695 25.5834 6.30908 26.3191 7.00989C27.0982 7.75182 27.6082 7.86228 30.2558 7.86228C32.4883 7.86228 32.7078 7.83863 32.9779 7.5685C33.6322 6.91426 33.485 6.69628 30.0813 3.27963C27.2836 0.4714 26.8343 0.0771484 26.4318 0.0771484C26.1737 0.0771484 25.8664 0.194659 25.7297 0.345808ZM17.2859 12.0714C17.6719 12.4207 17.6396 13.221 17.228 13.5091C16.9489 13.7047 16.2139 13.7379 12.1603 13.7379C7.61497 13.7379 7.40698 13.7257 7.12539 13.4441C6.77315 13.0918 6.74833 12.6001 7.06032 12.1548C7.28873 11.8286 7.29314 11.8283 12.1531 11.8283C16.4731 11.8283 17.0473 11.8555 17.2859 12.0714ZM26.0414 16.9044C26.4375 17.1818 26.4813 17.9227 26.1248 18.3165C25.8942 18.5714 25.4049 18.5852 16.5854 18.5852H7.28888L7.06032 18.2587C6.74833 17.8134 6.77315 17.3217 7.12539 16.9694C7.41286 16.682 7.61498 16.6756 16.567 16.6756C24.6089 16.6756 25.7545 16.7033 26.0414 16.9044ZM22.2009 21.8464C22.5223 22.1681 22.5223 22.9343 22.2009 23.256C21.9734 23.4835 21.3026 23.5097 14.7559 23.5468L7.56077 23.5875L7.19619 23.2229C6.99569 23.0224 6.83161 22.7201 6.83161 22.5512C6.83161 22.3823 6.99569 22.08 7.19619 21.8795L7.56077 21.5149L14.7559 21.5556C21.3026 21.5928 21.9734 21.6189 22.2009 21.8464ZM28.1306 27.5452C24.6781 28.0543 21.8345 30.5532 20.8588 33.9351C20.5493 35.0082 20.5072 37.1458 20.7735 38.2684C21.5139 41.3902 24.1879 44.074 27.2854 44.8044C28.3744 45.0611 30.1588 45.0886 31.2448 44.8652C31.6728 44.777 32.585 44.437 33.2717 44.1094C35.6275 42.9857 37.4886 40.5751 37.9814 38.0091C38.2279 36.7257 38.0829 34.4653 37.6803 33.3148C36.3329 29.4654 32.169 26.9497 28.1306 27.5452ZM32.8702 32.503C33.427 33.1208 33.3581 33.3705 31.7226 36.6601C30.8612 38.3929 30.0807 39.8593 29.9881 39.9187C29.8956 39.978 29.6205 40.0275 29.3768 40.0288C29.0057 40.0308 28.6545 39.7509 27.2102 38.3029C25.3598 36.4475 25.1752 36.0827 25.7803 35.4775C26.2937 34.9641 26.6526 35.1081 27.8659 36.3143C28.4913 36.9361 29.0307 37.4152 29.0643 37.3793C29.098 37.3431 29.6359 36.289 30.2596 35.0368C30.8833 33.7846 31.4958 32.6443 31.621 32.503C31.746 32.3617 32.0261 32.2459 32.2435 32.2459C32.4609 32.2459 32.7429 32.3617 32.8702 32.503Z" fill="#F26624"/>
</svg>
