<svg width="22" height="38" viewBox="0 0 22 38" fill="none" xmlns="http://www.w3.org/2000/svg">
<path d="M20.8732 0.829925C21.4046 1.36149 21.7031 2.08234 21.7031 2.83397C21.7031 3.5856 21.4046 4.30645 20.8732 4.83801L6.84205 18.8692L20.8732 32.9003C21.3895 33.4349 21.6753 34.1509 21.6688 34.8942C21.6623 35.6374 21.3642 36.3483 20.8387 36.8739C20.3131 37.3994 19.6022 37.6975 18.859 37.704C18.1157 37.7104 17.3997 37.4247 16.8651 36.9084L0.829914 20.8732C0.298513 20.3416 -1.14441e-05 19.6208 -1.14441e-05 18.8692C-1.14441e-05 18.1175 0.298513 17.3967 0.829914 16.8651L16.8651 0.829925C17.3967 0.298524 18.1175 0 18.8692 0C19.6208 0 20.3416 0.298524 20.8732 0.829925Z" fill="#F26624"/>
</svg>
