<svg width="22" height="38" viewBox="0 0 22 38" fill="none" xmlns="http://www.w3.org/2000/svg">
<path d="M20.8732 1.05942C21.4046 1.59098 21.7031 2.31183 21.7031 3.06346C21.7031 3.81509 21.4046 4.53595 20.8732 5.06751L6.84205 19.0987L20.8732 33.1298C21.3895 33.6644 21.6753 34.3804 21.6688 35.1236C21.6623 35.8669 21.3642 36.5778 20.8387 37.1034C20.3131 37.6289 19.6022 37.927 18.859 37.9335C18.1157 37.9399 17.3997 37.6542 16.8651 37.1379L0.829914 21.1027C0.298513 20.5711 -1.14441e-05 19.8503 -1.14441e-05 19.0987C-1.14441e-05 18.347 0.298513 17.6262 0.829914 17.0946L16.8651 1.05942C17.3967 0.528017 18.1175 0.229492 18.8692 0.229492C19.6208 0.229492 20.3416 0.528017 20.8732 1.05942Z" fill="#F26624"/>
</svg>
