<svg width="22" height="38" viewBox="0 0 22 38" fill="none" xmlns="http://www.w3.org/2000/svg">
<path d="M0.829926 0.829925C0.298525 1.36149 0 2.08234 0 2.83397C0 3.5856 0.298525 4.30645 0.829926 4.83801L14.8611 18.8692L0.829926 32.9003C0.313585 33.4349 0.0278744 34.1509 0.0343328 34.8942C0.0407911 35.6374 0.338901 36.3483 0.864455 36.8739C1.39001 37.3994 2.10095 37.6975 2.84417 37.704C3.58739 37.7104 4.30341 37.4247 4.83801 36.9084L20.8732 20.8732C21.4046 20.3416 21.7031 19.6208 21.7031 18.8692C21.7031 18.1175 21.4046 17.3967 20.8732 16.8651L4.83801 0.829925C4.30645 0.298524 3.5856 0 2.83397 0C2.08234 0 1.36149 0.298524 0.829926 0.829925Z" fill="#F26624"/>
</svg>
