<svg width="38" height="38" viewBox="0 0 38 38" fill="none" xmlns="http://www.w3.org/2000/svg">
<path fill-rule="evenodd" clip-rule="evenodd" d="M21.615 0.0664263C16.4274 0.729447 11.8212 4.37797 9.90393 9.34265C8.73472 12.3702 8.65166 15.9235 9.67678 19.0639C11.0762 23.3507 14.653 26.9222 18.9562 28.3293C20.569 28.8567 21.6998 29.0279 23.5311 29.0219C27.4265 29.0095 30.633 27.7285 33.451 25.0592C35.507 23.1116 36.8848 20.7937 37.5909 18.0945C37.9346 16.7805 37.9642 16.5138 37.9732 14.6474C37.9807 13.099 37.9317 12.3874 37.764 11.6131C36.5414 5.969 32.1899 1.53799 26.6591 0.305481C25.4612 0.0384636 22.8148 -0.0868348 21.615 0.0664263ZM25.5292 4.66212C27.3499 5.03635 29.0221 5.9239 30.4099 7.25256C31.7109 8.49817 32.5315 9.80826 33.1198 11.579C33.5431 12.853 33.6479 15.0458 33.3547 16.4956C32.5988 20.2313 29.8424 23.1716 26.0894 24.2453C24.84 24.6027 22.2376 24.6315 21.0323 24.3013C19.9381 24.0016 18.2487 23.1722 17.3591 22.4981C15.7298 21.2636 14.2149 18.9532 13.6937 16.9083C13.3994 15.7537 13.4034 13.1674 13.7011 12.0893C14.7585 8.25983 17.6502 5.47233 21.4127 4.65545C22.4461 4.43104 24.4204 4.43425 25.5292 4.66212ZM22.3691 6.74649C18.6542 7.30551 15.8847 10.3591 15.7046 14.0947C15.6381 15.4757 15.7659 16.2738 16.2407 17.4437C16.6636 18.4857 17.0212 19.038 17.8098 19.8676C19.3658 21.5043 21.2293 22.3093 23.4823 22.3181C26.6212 22.3305 29.2772 20.6263 30.616 17.7412C31.107 16.6829 31.3053 15.7455 31.308 14.4689C31.3109 13.1594 31.1262 12.4028 30.4686 11.0288C30.0305 10.1135 29.7645 9.74056 29.0119 8.98805C28.2594 8.23555 27.8865 7.96949 26.9712 7.53136C25.3644 6.76232 23.9113 6.51446 22.3691 6.74649ZM4.88606 28.4207C0.410668 32.907 0.342842 32.9822 0.14377 33.6771C-0.607186 36.2982 1.70184 38.6072 4.32287 37.8562C5.01778 37.6572 5.09299 37.5893 9.57932 33.1139C12.0825 30.6167 14.1307 28.5446 14.1307 28.5091C14.1307 28.4736 13.8009 28.205 13.3976 27.9121C12.4745 27.2414 10.761 25.525 10.0772 24.5858C9.79018 24.1917 9.52637 23.8693 9.49091 23.8693C9.45545 23.8693 7.38333 25.9173 4.88606 28.4207Z" fill="#F26624"/>
</svg>
