<svg width="37" height="40" viewBox="0 0 37 40" fill="none" xmlns="http://www.w3.org/2000/svg">
<path fill-rule="evenodd" clip-rule="evenodd" d="M10.9786 0.28032C10.6888 0.437606 10.3737 0.726763 10.2782 0.92267C10.1825 1.11858 10.0593 8.27168 10.0043 16.8185L9.9042 32.358L6.6138 28.3893C4.80401 26.2065 3.11129 24.3238 2.85235 24.2058C1.14942 23.43 -0.63996 25.2255 0.225112 26.8418C0.650144 27.636 10.4363 39.2986 10.9714 39.6488C11.5975 40.0584 12.1842 40.0922 12.9114 39.7609C14.0487 39.2428 14.0064 40.0044 14.0064 20.0085C14.0064 6.16073 13.9472 1.46777 13.7673 1.07315C13.3205 0.0924168 12.0099 -0.280186 10.9786 0.28032ZM23.0334 0.257508C21.9892 0.836223 22.0254 0.131839 22.0178 19.9491C22.0102 40.0122 21.968 39.2424 23.1058 39.7609C23.3944 39.8923 23.8108 40 24.0313 40C24.594 40 25.5313 39.4823 25.7386 39.0569C25.8345 38.8602 25.958 31.7025 26.013 23.151L26.113 7.60272L29.4 11.5785C31.2078 13.7653 32.9005 15.6517 33.1615 15.7708C34.8714 16.5498 36.658 14.7544 35.7889 13.1303C35.3607 12.3303 25.585 0.680737 25.0469 0.329346C24.4147 -0.0834797 23.6947 -0.109092 23.0334 0.257508Z" fill="#F26624"/>
</svg>
