<svg width="40" height="40" viewBox="0 0 40 40" fill="none" xmlns="http://www.w3.org/2000/svg">
<path fill-rule="evenodd" clip-rule="evenodd" d="M3.39698 0.11047C2.92809 0.299726 1.55267 1.6884 1.11641 2.41304C0.309256 3.75359 0.0644974 4.63187 0.050747 6.23717C0.0404966 7.44508 0.0872485 7.82347 0.343507 8.60599C0.9124 10.3434 2.14156 11.8433 3.75124 12.7644L4.46876 13.1749L4.47239 20.0172L4.47614 26.8595L4.06988 27.0321C2.80634 27.5689 1.29891 29.142 0.638891 30.613C-0.547522 33.2569 -0.0512563 36.4439 1.87556 38.5546C3.07834 39.8721 3.67861 40.1754 4.41714 39.8389C5.03941 39.5554 5.10116 39.2366 5.10116 36.3069V33.613H7.41373H9.72631L9.72818 36.3319C9.73018 39.2839 9.78056 39.5484 10.3968 39.8439C11.048 40.1561 11.5386 39.9412 12.6017 38.8781C13.7487 37.7311 14.3473 36.6096 14.6702 35.0033C15.2886 31.9259 13.6494 28.4925 10.9085 27.1235L10.3513 26.8453V19.9749C10.3513 13.5454 10.3653 13.0994 10.5701 13.0248C11.0585 12.8466 12.0755 12.1181 12.6639 11.5252C14.3723 9.80353 15.1382 7.30145 14.6702 4.97188C14.3473 3.36557 13.7487 2.24416 12.6017 1.09713C11.5386 0.0339669 11.048 -0.180915 10.3968 0.131345C9.78056 0.426855 9.73018 0.691363 9.72818 3.64333L9.72631 6.36217H7.41373H5.10116V3.66833C5.10116 0.738614 5.03941 0.419855 4.41714 0.136346C4.0405 -0.035285 3.77462 -0.0420353 3.39698 0.11047ZM30.82 0.157971C30.1606 0.403854 29.2294 1.20063 29.0223 1.69627C28.9218 1.93665 28.8823 2.25966 28.9292 2.4568C29.0316 2.88793 36.7119 10.6423 37.3243 10.9328C37.5683 11.0486 37.878 11.1016 38.0535 11.0576C38.5404 10.9353 39.3166 10.1475 39.678 9.40877C39.9563 8.84025 39.9999 8.61724 39.9423 8.05898C39.9043 7.69121 39.7852 7.21995 39.6774 7.01157C39.4221 6.51793 33.4463 0.542109 32.9527 0.286851C32.4184 0.0105918 31.3833 -0.0519109 30.82 0.157971ZM28.4607 6.58093L28.0188 7.04969L28.8429 11.1437L29.6671 15.2376L31.7895 13.1124L33.912 10.9872L31.4769 8.54962C30.1376 7.20907 29.0106 6.11216 28.9723 6.11216C28.9339 6.11216 28.7038 6.32317 28.4607 6.58093ZM24.2019 10.8293L22.3645 12.6749L21.7313 15.2088C21.1323 17.6055 21.1084 17.7629 21.2894 18.1132C21.3948 18.3167 21.6481 18.5698 21.8525 18.6754C22.2042 18.8573 22.358 18.8339 24.7567 18.2343C26.3025 17.8479 27.3675 17.5182 27.49 17.388C27.6748 17.1918 27.6255 16.8521 26.865 13.0794L26.0393 8.98376L24.2019 10.8293ZM21.1307 26.0284L18.7148 28.4443L18.752 31.841L18.7891 35.2377L21.1332 37.5817L23.4771 39.9258L26.8739 39.9629L30.2706 40L32.6864 37.5842L35.1021 35.1685V31.7414V28.3141L32.7514 25.9634L30.4007 23.6127H26.9735H23.5464L21.1307 26.0284ZM28.4269 28.6194C29.1008 28.945 29.7808 29.6374 30.127 30.3504C30.4741 31.0652 30.4985 32.4256 30.1773 33.1527C29.8581 33.8756 29.0496 34.6761 28.3233 34.9885C27.4169 35.3785 26.0137 35.305 25.1942 34.8247C24.0504 34.1544 23.4831 33.1532 23.4808 31.8005C23.4778 30.0904 24.4665 28.8203 26.1643 28.3531C26.7125 28.2022 27.8379 28.3348 28.4269 28.6194Z" fill="#F26624"/>
</svg>
