<svg width="43" height="42" viewBox="0 0 43 42" fill="none" xmlns="http://www.w3.org/2000/svg">
<path fill-rule="evenodd" clip-rule="evenodd" d="M23.2617 0.611018L21.0127 1.20847L18.7275 0.718907C17.4704 0.449518 16.1271 0.196533 15.7419 0.156659C15.0762 0.0878444 15.0206 0.106915 14.6084 0.544738C14.3701 0.79799 13.6108 1.79886 12.9214 2.76879C12.2319 3.73886 11.4869 4.68465 11.266 4.87056C11.0448 5.05659 10.2887 5.50148 9.58561 5.85929C7.22979 7.0582 6.32014 7.63659 6.18464 8.02173C6.10236 8.25551 6.11916 9.28933 6.23225 10.977C6.32814 12.4048 6.36841 13.7757 6.32187 14.0236C6.27533 14.2717 5.9474 15.1609 5.59306 15.9998C4.65806 18.2135 4.34333 19.1891 4.43989 19.5741C4.4859 19.7572 5.38635 20.7819 6.44096 21.8514L8.35855 23.7958L9.24687 26.4616C9.79218 28.0982 10.2487 29.2453 10.4292 29.4325C10.7669 29.7826 11.389 29.8993 14.4146 30.1803L16.3879 30.3635L17.4152 31.0014C19.8128 32.4903 21.3101 33.3284 21.573 33.3284C21.9995 33.3284 22.6664 32.9435 24.7104 31.5181L26.5775 30.2163L29.1909 29.843C32.1306 29.4233 32.4059 29.3468 32.7239 28.8615C32.9081 28.5802 33.9703 25.1822 34.2879 23.8582C34.3321 23.6739 35.2091 22.5734 36.2369 21.4125C38.1653 19.2344 38.4035 18.8222 38.138 18.1239C38.0685 17.9412 37.5727 16.8317 37.0362 15.6581L36.0605 13.5243L36.095 10.5234L36.1296 7.52243L35.7544 7.16609C35.5481 6.97005 34.3591 6.30098 33.1121 5.67925C30.6044 4.429 30.5698 4.40019 28.7757 2.07919C27.2963 0.165194 27.0729 -0.0151098 26.2005 0.00089343C25.8211 0.00796154 24.4985 0.282551 23.2617 0.611018ZM23.3041 9.12009C24.6495 9.47816 25.711 10.1079 26.7927 11.1896C28.3852 12.782 29.0464 14.4005 29.0431 16.6982C29.0393 19.272 27.7855 21.6101 25.6393 23.0456C23.3167 24.5991 20.4453 24.7954 17.8965 23.5752C16.6301 22.9689 14.9772 21.3333 14.3987 20.1139C13.6331 18.5001 13.3865 16.6532 13.7202 15.0312C13.9381 13.9717 14.8031 12.2865 15.5655 11.4359C16.3966 10.5085 17.6511 9.69954 18.9377 9.26132C20.0935 8.86751 22.1099 8.80229 23.3041 9.12009ZM3.77442 30.0501C1.7508 33.1099 0.0600577 35.7891 0.0171156 36.0037C-0.0258265 36.2184 0.0148486 36.5773 0.107668 36.8012C0.390792 37.4847 0.792741 37.5955 2.99933 37.599L4.97306 37.6022L6.05622 39.6994C7.20058 41.9153 7.40529 42.135 8.15211 41.9475C8.36029 41.8952 8.70889 41.5778 9.01522 41.1614C9.5644 40.4149 15.454 32.0364 15.6182 31.7681C15.7946 31.4796 15.2309 31.3302 12.5074 30.944C10.186 30.6148 9.78631 30.5231 9.49999 30.2541C9.16112 29.9358 8.73357 28.7105 8.03676 26.0602C7.84392 25.3267 7.63387 24.6726 7.56999 24.6067C7.50278 24.5374 5.90125 26.8342 3.77442 30.0501ZM34.9093 25.0847C34.4183 26.9501 33.7196 29.3308 33.5354 29.7658C33.2503 30.4395 32.8874 30.5718 30.3783 30.9169C27.911 31.2565 27.0442 31.4405 27.0442 31.625C27.0442 31.7003 27.5765 32.5194 28.2269 33.4453C28.8774 34.3713 30.4424 36.599 31.7047 38.3961C32.9669 40.1931 34.1301 41.7364 34.2893 41.8254C34.7015 42.0558 35.1068 42.0336 35.4216 41.7634C35.5712 41.6351 36.151 40.6489 36.7102 39.572L37.727 37.614L39.8657 37.5716L42.0044 37.5292L42.3259 37.155C42.8971 36.4904 42.7821 35.9821 41.6686 34.2504C39.4228 30.7584 35.2994 24.5902 35.1846 24.5512C35.1166 24.5282 34.9927 24.7682 34.9093 25.0847Z" fill="#F26624"/>
</svg>
