<svg width="45" height="46" viewBox="0 0 45 46" fill="none" xmlns="http://www.w3.org/2000/svg">
<path fill-rule="evenodd" clip-rule="evenodd" d="M20.8681 0.151572C20.0262 0.466321 19.6016 0.791734 17.7839 2.51637C15.8197 4.37993 16.0141 4.31853 13.3633 3.91025C10.4017 3.45413 9.34504 3.61885 8.14672 4.7235C7.30537 5.49898 7.00647 6.27577 6.5711 8.8184C6.3372 10.1842 6.10662 11.1042 5.94333 11.323C5.80138 11.5132 4.84315 12.1093 3.81417 12.6477C2.78504 13.1861 1.65892 13.8707 1.31174 14.1688C0.42572 14.9298 0.000433545 15.906 1.1979e-06 17.1801C-0.000287033 18.1414 0.0505866 18.2942 1.07943 20.418C1.67333 21.6441 2.15929 22.8135 2.15929 23.0168C2.15929 23.2202 1.67333 24.3895 1.07943 25.6157C0.0505866 27.7395 -0.000287033 27.8923 1.1979e-06 28.8535C0.000433545 30.0905 0.409289 31.066 1.24199 31.8165C1.55501 32.0986 2.70073 32.799 3.78794 33.3728C4.87529 33.9467 5.8645 34.5681 5.98613 34.7539C6.10791 34.9398 6.37251 36.0553 6.57413 37.2328C7.00763 39.7649 7.30609 40.5354 8.15753 41.3202C9.34389 42.4138 10.164 42.5638 12.8707 42.1826C16.1431 41.7217 15.7984 41.6266 17.8026 43.5431C20.0227 45.6659 20.6074 46.0043 22.0473 46C23.4306 45.9956 24.0301 45.6923 25.5781 44.2129C27.8423 42.0493 28.0449 41.896 28.6413 41.896C28.9425 41.896 30.1055 42.0251 31.2258 42.1829C34.0382 42.5789 34.9289 42.3912 36.1272 41.1489C36.8234 40.4272 37.1242 39.5855 37.5309 37.222C37.7345 36.0385 37.9965 34.9245 38.1131 34.7467C38.2296 34.5688 39.2717 33.9202 40.4289 33.3052C43.4259 31.7123 44.106 30.8763 44.1161 28.7727C44.1199 27.991 44.0188 27.7007 43.0278 25.6441C42.4268 24.3973 41.9351 23.215 41.9351 23.0168C41.9351 22.8187 42.4268 21.6363 43.0278 20.3896C44.0188 18.3329 44.1199 18.0427 44.1161 17.261C44.1062 15.1828 43.28 14.1866 40.2803 12.636C39.2513 12.1039 38.2951 11.5145 38.1555 11.326C37.9983 11.1134 37.7613 10.1642 37.5323 8.82906C37.3291 7.64429 37.0297 6.36498 36.8667 5.9861C36.5299 5.2034 35.5441 4.22414 34.7568 3.89008C34.0841 3.60473 32.6686 3.61193 30.7312 3.91025C28.0814 4.31839 28.2997 4.39045 26.2002 2.41476C25.195 1.46864 24.0944 0.552789 23.7546 0.379418C22.9859 -0.0127206 21.6003 -0.122103 20.8681 0.151572ZM18.7405 11.5138C19.7315 11.9699 20.6268 12.8649 21.1421 13.9139C21.4869 14.6165 21.5421 14.9008 21.5375 15.9552C21.533 17.012 21.475 17.2947 21.115 18.0146C20.6103 19.0241 19.7032 19.8918 18.648 20.375C17.536 20.8841 15.8926 20.8835 14.7789 20.3736C11.7947 19.0074 10.9225 15.1703 13.0565 12.7967C14.2144 11.5088 15.3157 11.0288 16.9391 11.1048C17.6403 11.1377 18.1992 11.2645 18.7405 11.5138ZM31.7141 13.35C32.1828 13.8188 32.2504 14.3121 31.9285 14.9175C31.6784 15.3879 14.3255 32.7197 13.8782 32.9458C13.3362 33.2198 12.8274 33.1307 12.3804 32.6837C11.8691 32.1722 11.83 31.5786 12.2709 31.0181C12.6779 30.5007 29.5312 13.6474 30.0486 13.2404C30.609 12.7996 31.2026 12.8387 31.7141 13.35ZM15.3686 14.225C14.7355 14.781 14.4983 15.3686 14.5877 16.1605C14.8224 18.2441 17.4827 18.8496 18.5977 17.0733C18.8258 16.71 18.881 16.4227 18.8415 15.8046C18.7559 14.4641 18.029 13.7934 16.6618 13.7934C15.9771 13.7934 15.7887 13.8563 15.3686 14.225ZM29.5189 25.7374C30.2665 26.1263 31.2941 27.1214 31.6416 27.7931C31.961 28.4104 32.2756 29.5865 32.2777 30.1714C32.2787 30.4206 32.1483 31.0494 31.9879 31.5685C31.618 32.7662 30.6083 33.9223 29.4245 34.5037C28.7221 34.8486 28.4288 34.9064 27.3795 34.9064C26.358 34.9064 26.0228 34.844 25.3619 34.5305C24.371 34.0606 23.4485 33.131 22.948 32.098C22.4209 31.0103 22.3974 29.2008 22.8968 28.1739C23.4009 27.1372 24.2588 26.2576 25.258 25.7527C26.1112 25.3218 26.2207 25.3026 27.5236 25.3558C28.5879 25.3993 29.0321 25.4844 29.5189 25.7374ZM26.3736 28.161C24.8692 28.9414 24.8071 31.1625 26.2655 32.0242C26.8342 32.36 28.0438 32.3379 28.5234 31.9828C28.7266 31.8324 29.0386 31.4949 29.217 31.2329C29.8089 30.3633 29.5364 28.9518 28.6512 28.3031C28.1057 27.9034 27.0028 27.8345 26.3736 28.161Z" fill="#F26624"/>
</svg>
