<svg width="50" height="53" viewBox="0 0 50 53" fill="none" xmlns="http://www.w3.org/2000/svg">
<path d="M25 0.97583C11.1895 0.97583 0 12.4301 0 26.5674C0 40.7048 11.1895 52.1591 25 52.1591C38.8105 52.1591 50 40.7048 50 26.5674C50 12.4301 38.8105 0.97583 25 0.97583ZM37.2782 18.5082L33.1754 38.3004C32.873 39.7038 32.0565 40.0443 30.9173 39.3839L24.6673 34.668L21.6532 37.6399C21.3206 37.9805 21.0383 38.2694 20.3931 38.2694L20.8367 31.758L32.4194 21.0467C32.9234 20.5926 32.3085 20.3347 31.6431 20.7887L17.3286 30.0141L11.1593 28.0431C9.81855 27.6097 9.78831 26.6706 11.4415 26.0102L35.5444 16.4959C36.6633 16.0831 37.6411 16.7745 37.2782 18.5082Z" fill="#F26624"/>
</svg>
