<svg width="51" height="53" viewBox="0 0 51 53" fill="none" xmlns="http://www.w3.org/2000/svg">
<path d="M46.3885 12.8117C38.8885 0.975439 23.5758 -2.54343 11.7008 4.81421C0.138167 12.1719 -3.61186 28.1667 3.8882 40.0029L4.5132 40.9626L2.01318 50.5596L11.3883 48.0004L12.3258 48.6402C16.3883 50.8795 20.7633 52.1591 25.1384 52.1591C29.8259 52.1591 34.5134 50.8795 38.576 48.3203C50.1385 40.6427 53.5761 24.9678 46.3885 12.8117ZM39.826 37.4438C38.576 39.3632 37.0134 40.6427 34.8259 40.9626C33.5759 40.9626 32.0134 41.6024 25.7634 39.0433C20.4508 36.4841 16.0758 32.3254 12.9508 27.5269C11.0757 25.2877 10.1382 22.4086 9.82574 19.5295C9.82574 16.9703 10.7632 14.731 12.3258 13.1315C12.9508 12.4918 13.5758 12.1719 14.2008 12.1719H15.7633C16.3883 12.1719 17.0133 12.1719 17.3258 13.4514C17.9508 15.0509 19.5133 18.8897 19.5133 19.2096C19.8258 19.5295 19.8258 20.1693 19.5133 20.4892C19.8258 21.129 19.5133 21.7688 19.2008 22.0887C18.8883 22.4086 18.5758 23.0484 18.2633 23.3683C17.6383 23.6882 17.3258 24.328 17.6383 24.9678C18.8883 26.8871 20.4508 28.8065 22.0133 30.406C23.8883 32.0055 25.7634 33.2851 27.9509 34.2448C28.5759 34.5647 29.2009 34.5647 29.5134 33.9249C29.8259 33.2851 31.3884 31.6856 32.0134 31.0458C32.6384 30.406 32.9509 30.406 33.5759 30.7259L38.576 33.2851C39.201 33.605 39.826 33.9249 40.1385 34.2448C40.451 35.2045 40.451 36.4841 39.826 37.4438Z" fill="#F26624"/>
</svg>
