<svg width="52" height="33" viewBox="0 0 52 33" fill="none" xmlns="http://www.w3.org/2000/svg">
<path fill-rule="evenodd" clip-rule="evenodd" d="M1.0499 0.741702C0.832878 1.05149 0.804688 2.56575 0.804688 13.9358C0.804688 25.3058 0.832878 26.82 1.0499 27.1298C1.27858 27.4564 1.41417 27.4799 3.07286 27.4799C5.11314 27.4799 5.20543 27.43 5.51474 26.1595C5.93824 24.4203 6.87577 23.2357 8.46863 22.4271C9.46727 21.9203 9.62114 21.889 11.1121 21.8898C12.4949 21.8906 12.8083 21.9437 13.5889 22.3089C15.276 23.0981 16.4932 24.6126 16.7956 26.2987C17.0207 27.5539 16.5573 27.4799 24.192 27.4799C30.5817 27.4799 31.0097 27.4624 31.2546 27.1919C31.4927 26.9288 31.5153 25.7798 31.5153 13.9083C31.5153 1.5186 31.5019 0.900767 31.2272 0.652248C30.9636 0.41365 29.6882 0.391602 16.1171 0.391602H1.29495L1.0499 0.741702ZM33.8776 6.21874C33.5691 6.52726 33.5626 6.74365 33.5626 16.6567C33.5626 25.564 33.5921 26.8219 33.8078 27.1298C34.0205 27.4334 34.1956 27.4799 35.1271 27.4799C35.7951 27.4799 36.2628 27.4054 36.3638 27.283C36.4529 27.1748 36.6321 26.6786 36.7617 26.1806C37.2684 24.2348 38.6234 22.7361 40.4048 22.1514C43.8326 21.0261 47.1953 22.8517 48.0399 26.2967C48.3133 27.4112 48.4061 27.4799 49.637 27.4799C51.2785 27.4799 51.2015 27.7709 51.2015 21.5658V16.3518L47.3309 11.7183C45.2021 9.16994 43.2117 6.81925 42.9079 6.49434L42.3555 5.90376H38.2741C34.4025 5.90376 34.1764 5.91998 33.8776 6.21874ZM41.6315 8.14799C41.7713 8.25634 42.8479 9.50319 44.0239 10.9189C46.1903 13.5271 46.3762 13.871 45.9988 14.5761C45.8431 14.867 45.6199 14.8807 41.011 14.8807C36.7424 14.8807 36.1529 14.8506 35.8981 14.62C35.6388 14.3854 35.61 14.0684 35.61 11.4433C35.61 8.95072 35.6478 8.48533 35.8707 8.23918C36.1033 7.98215 36.4132 7.95113 38.7541 7.95113C40.6116 7.95113 41.4512 8.00861 41.6315 8.14799ZM9.86037 23.9093C7.9108 24.6737 6.90601 26.0808 6.91735 28.0305C6.92712 29.7404 7.83316 31.1134 9.4394 31.8526C10.1339 32.1723 10.4591 32.2278 11.3293 32.1747C12.5471 32.1005 13.3045 31.7773 14.1228 30.9823C15.2486 29.8892 15.6755 28.0061 15.1472 26.465C14.4774 24.5114 11.7221 23.1795 9.86037 23.9093ZM40.7124 24.0773C39.7654 24.5183 38.9384 25.3004 38.5137 26.1565C38.0481 27.0947 38.0889 28.8992 38.5982 29.8963C39.3546 31.3771 40.701 32.1955 42.3906 32.2011C46.1431 32.2137 48.0509 27.6472 45.4004 24.9966C44.6137 24.2099 43.4313 23.7033 42.3821 23.7033C41.8006 23.7033 41.2516 23.8263 40.7124 24.0773ZM11.9252 27.0613C12.7341 27.7571 12.2386 29.2123 11.1929 29.2123C10.0646 29.2123 9.5235 27.8812 10.3258 27.0791C10.8118 26.5929 11.3734 26.5866 11.9252 27.0613ZM42.9086 26.8673C43.6776 27.2177 43.856 28.2251 43.2554 28.8257C42.4934 29.5878 41.1152 29.0523 41.1272 27.9988C41.1327 27.5098 41.3567 27.1547 41.8309 26.8827C42.2312 26.6531 42.4322 26.6502 42.9086 26.8673Z" fill="#F26624"/>
</svg>
