<svg width="47" height="42" viewBox="0 0 47 42" fill="none" xmlns="http://www.w3.org/2000/svg">
<path fill-rule="evenodd" clip-rule="evenodd" d="M9.32038 0.351316C8.43316 0.769837 8.04331 1.17461 7.63167 2.10512C7.32344 2.80202 7.31759 2.97347 7.2582 13.0014C7.225 18.605 7.17146 25.148 7.13913 27.5417L7.08047 31.8936H16.8352C25.2726 31.8936 26.6323 31.9233 26.9035 32.1132C27.2009 32.3215 27.2198 32.4704 27.2708 35.0023C27.3191 37.3934 27.3609 37.7635 27.6719 38.5496C28.1498 39.7576 29.4813 41.0891 30.6469 41.5247C31.7966 41.9542 33.3627 41.9542 34.5123 41.5247C35.6724 41.0913 37.0065 39.7597 37.493 38.5496L37.8459 37.6719L37.919 20.0446L37.9922 2.41729L38.3285 1.68763C38.5134 1.28637 38.7834 0.825571 38.9284 0.663634C39.0733 0.501844 39.2386 0.287098 39.2955 0.186454C39.3781 0.0407544 36.4224 0.00389101 24.7255 0.00506129L10.0518 0.00652333L9.32038 0.351316ZM41.502 0.347513C41.0991 0.535196 40.5477 0.941136 40.2768 1.2498C39.359 2.295 39.3232 2.48298 39.2637 6.54983L39.2097 10.2435H43.0261H46.8424V6.79749C46.8424 4.85673 46.7748 3.08347 46.6875 2.7381C46.1326 0.540316 43.5976 -0.628352 41.502 0.347513ZM25.5362 5.56461C27.4303 6.48795 28.9055 7.29574 28.9917 7.45665C29.1848 7.81754 29.1887 13.0923 28.9967 14.2663C28.808 15.4201 28.1403 16.7482 27.3583 17.5259C27.0117 17.8704 25.7121 18.8418 24.4703 19.6849C22.8056 20.8148 22.1362 21.1932 21.9224 21.1253C21.3496 20.9435 17.3527 18.1107 16.7214 17.439C16.3668 17.0618 15.873 16.3253 15.6242 15.8023L15.1718 14.8515V11.0618V7.27204L18.4632 5.62151C20.2734 4.71382 21.8618 3.96703 21.9927 3.9622C22.1236 3.95723 23.7183 4.67841 25.5362 5.56461ZM19.2184 6.82002L16.3897 8.19905L16.4485 11.2327C16.4981 13.7876 16.5521 14.3818 16.7904 14.9978C17.1725 15.9852 18.2954 17.0746 20.3809 18.4811L22.0754 19.6239L23.5972 18.5787C24.4342 18.0038 25.3782 17.3579 25.6949 17.1433C26.3911 16.6717 27.0787 15.739 27.4169 14.808C27.6209 14.2467 27.668 13.5746 27.6729 11.1585L27.6791 8.197L24.9011 6.80656C23.3732 6.04179 22.1061 5.42169 22.0852 5.42856C22.0642 5.43544 20.7742 6.06168 19.2184 6.82002ZM24.9624 10.4733C25.0888 10.5999 25.1923 10.817 25.1923 10.9561C25.1923 11.095 24.3457 12.0463 23.3112 13.07C21.8347 14.531 21.3706 14.9104 21.1535 14.8342C20.8281 14.7201 19.5919 13.5655 19.1694 12.9814C18.894 12.6003 18.8902 12.5507 19.1113 12.2134C19.4605 11.6805 19.8998 11.7647 20.6563 12.5098L21.3235 13.167L22.7797 11.7052C23.5806 10.9014 24.3476 10.2435 24.4842 10.2435C24.6207 10.2435 24.8359 10.3469 24.9624 10.4733ZM32.5692 23.7852C32.8937 24.1098 32.8545 24.524 32.4739 24.7905C32.1876 24.9911 30.9976 25.018 22.4899 25.0161C15.0154 25.0145 12.7486 24.9723 12.4655 24.8296C12.025 24.6075 11.9228 24.1189 12.2487 23.7931C12.4634 23.5784 13.4459 23.5554 22.4128 23.5554C31.2418 23.5554 32.3647 23.5809 32.5692 23.7852ZM32.6235 27.5344C32.8922 27.8031 32.8324 28.3547 32.5161 28.524C32.329 28.624 28.8859 28.6754 22.3597 28.6754C13.579 28.6754 12.461 28.6499 12.2565 28.4456C11.9828 28.1717 11.9592 27.7773 12.2022 27.5344C12.4561 27.2804 32.3696 27.2804 32.6235 27.5344ZM0.0624627 35.5873C0.110737 37.3094 0.186367 37.9683 0.394237 38.4764C0.984934 39.9206 2.06261 40.9906 3.51946 41.5797L4.3467 41.9141L16.4152 41.957L28.4837 42L27.8788 41.3719C27.0874 40.5502 26.5882 39.727 26.2217 38.6388C25.9743 37.9046 25.9237 37.3806 25.9237 35.5554V33.3565H12.9618H0L0.0624627 35.5873Z" fill="#F26624"/>
</svg>
