<svg width="23" height="42" viewBox="0 0 23 42" fill="none" xmlns="http://www.w3.org/2000/svg">
<path d="M11.5878 0C4.9229 0 0.402344 4.46259 0.402344 11.1855V16.9231C0.402344 22.8346 4.34334 27.2392 10.2548 27.2392C11.8776 27.2392 13.6742 26.7176 14.8333 25.7903V30.8904C14.8333 33.2666 13.6163 34.3098 11.6458 34.3098C9.67527 34.3098 8.74798 32.9769 8.51616 30.8325H0.634167C0.808035 37.6713 5.09676 41.96 11.6458 41.96C18.3107 41.96 22.7733 37.5554 22.7733 30.7745V11.1855C22.7733 4.46259 18.2527 0 11.5878 0ZM11.5299 20.0527C9.50141 20.0527 8.34229 18.6618 8.34229 16.3435V11.2434C8.34229 8.98315 9.55936 7.65017 11.5878 7.65017C13.6163 7.65017 14.8333 8.98315 14.8333 11.2434V16.3435C14.8333 18.6618 13.6163 20.0527 11.5299 20.0527Z" fill="#F26624"/>
</svg>
