<svg width="43" height="48" viewBox="0 0 43 48" fill="none" xmlns="http://www.w3.org/2000/svg">
<path fill-rule="evenodd" clip-rule="evenodd" d="M18.7623 0.346828C16.8652 0.611102 15.6231 0.95454 15.2634 1.31425C14.6579 1.91975 14.783 2.4221 16.4867 6.22892C19.5107 12.9863 19.7747 13.5903 19.8634 13.9575C19.9786 14.4356 19.4885 15.2455 18.9628 15.4454C18.4569 15.6377 17.6759 15.39 17.3971 14.9488C17.2841 14.7699 16.2351 12.4761 15.0663 9.85137C13.8974 7.22668 12.9024 5.08008 12.8552 5.08112C12.6568 5.08526 11.4383 5.85796 10.4115 6.63066C7.03008 9.17559 4.36382 13.5113 3.60829 17.6938L3.50796 18.2487H21.2778H39.0476L38.9473 17.6938C38.1838 13.4669 35.5248 9.17293 32.0493 6.55401C30.9414 5.71931 29.7408 4.99811 29.6385 5.10598C29.6138 5.13202 29.2809 5.85249 28.8985 6.70701C28.5163 7.56154 28.0523 8.59363 27.8675 9.00054C27.6827 9.40746 27.0452 10.8391 26.4508 12.1819C25.1456 15.1312 25.0845 15.2308 24.4512 15.4399C23.8063 15.6527 23.2529 15.405 22.8578 14.7267C22.5765 14.2437 22.5767 14.2294 22.8682 13.4689C23.0305 13.0459 24.1706 10.4539 25.4019 7.70892C26.8267 4.53215 27.6405 2.54048 27.6405 2.22989C27.6405 1.62765 27.3382 1.17516 26.7956 0.965194C25.3311 0.398174 20.8623 0.0541439 18.7623 0.346828ZM1.12817 21.3134C0.589259 21.6477 0.414062 22.0975 0.414062 23.146C0.414062 24.0893 0.682924 24.8031 1.12787 25.0414C1.72537 25.3611 7.47932 26.6335 10.476 27.1086C20.0107 28.6201 28.613 28.1998 39.0012 25.7148C41.4258 25.1347 41.614 25.0542 41.9181 24.4663C42.1862 23.9479 42.2137 22.4162 41.9647 21.8698C41.576 21.0164 42.6901 21.0598 21.2482 21.0641C3.13759 21.0676 1.49143 21.088 1.12817 21.3134ZM3.22549 30.5498V32.597L3.65726 33.0803C4.07143 33.5438 4.14053 33.5656 5.35181 33.6155L6.61459 33.6672L6.92458 34.5773C7.09504 35.0777 7.39158 35.7868 7.58364 36.153L7.9327 36.8189L7.05879 37.7308C6.30844 38.514 6.18488 38.7216 6.18488 39.2001C6.18488 39.7214 6.33433 39.9079 8.49839 42.0873C9.77093 43.3687 10.9649 44.4556 11.1516 44.5025C11.6796 44.6351 12.2573 44.3419 13.0986 43.5151L13.8716 42.7554L14.5783 43.1099C14.967 43.305 15.6845 43.6096 16.1728 43.7869L17.0607 44.1092L17.1346 45.4714C17.2034 46.7373 17.2379 46.8588 17.6238 47.1901C18.0352 47.5434 18.0689 47.5467 21.2778 47.5467C24.4867 47.5467 24.5204 47.5434 24.9318 47.1901C25.3177 46.8588 25.3521 46.7373 25.4209 45.4714L25.4949 44.1092L26.3828 43.7869C26.8711 43.6096 27.5886 43.305 27.9773 43.1099L28.684 42.7554L29.457 43.5151C30.2983 44.3419 30.876 44.6351 31.404 44.5025C31.5907 44.4556 32.7847 43.3687 34.0572 42.0873C36.2213 39.9079 36.3707 39.7214 36.3707 39.2001C36.3707 38.7216 36.2472 38.514 35.4968 37.7308L34.6229 36.8189L34.972 36.153C35.164 35.7868 35.4605 35.0777 35.631 34.5773L35.941 33.6672L37.2038 33.6155C38.4151 33.5656 38.4842 33.5438 38.8983 33.0803L39.3301 32.597V30.5498V28.5027L37.7394 28.8554C36.8645 29.0496 34.9872 29.4078 33.5674 29.6515C32.1475 29.8954 30.9799 30.1095 30.9723 30.1275C30.9648 30.1454 30.8528 30.6929 30.7233 31.344C29.5532 37.228 23.2945 40.6317 17.7265 38.412C16.405 37.8853 15.631 37.3797 14.6041 36.3724C13.0749 34.8725 12.1265 33.1069 11.7891 31.133C11.6976 30.5979 11.6092 30.1438 11.5924 30.1238C11.5759 30.1037 10.4022 29.8893 8.98447 29.6472C7.56677 29.4053 5.69096 29.0487 4.81616 28.855L3.22549 28.5027V30.5498Z" fill="#F26624"/>
</svg>
