<svg width="1308" height="17" viewBox="0 0 1308 17" fill="none" xmlns="http://www.w3.org/2000/svg">
<path d="M0.166667 5.5C0.166667 8.44552 2.55448 10.8333 5.5 10.8333C8.44552 10.8333 10.8333 8.44552 10.8333 5.5C10.8333 2.55448 8.44552 0.166667 5.5 0.166667C2.55448 0.166667 0.166667 2.55448 0.166667 5.5ZM1296.67 11C1296.67 13.9455 1299.05 16.3333 1302 16.3333C1304.95 16.3333 1307.33 13.9455 1307.33 11C1307.33 8.05448 1304.95 5.66667 1302 5.66667C1299.05 5.66667 1296.67 8.05448 1296.67 11ZM64 3L64.0268 2.00036L63.992 1.99943L63.9573 2.00091L64 3ZM410 10.2588L409.986 11.2587L410 10.2588ZM664.5 5L664.504 4.00001L664.5 5ZM925.5 12.6355L925.497 11.6355L925.5 12.6355ZM1088 9L1088 9.99999L1088 9ZM5.5427 6.49909L12.8552 6.18659L12.7698 4.18841L5.4573 4.50091L5.5427 6.49909ZM27.4802 5.56159L42.1052 4.93659L42.0198 2.93841L27.3948 3.56341L27.4802 5.56159ZM56.7302 4.31159L64.0427 3.99909L63.9573 2.00091L56.6448 2.31341L56.7302 4.31159ZM63.9732 3.99964C66.6037 4.07006 69.2278 4.14 71.8457 4.20949L71.8988 2.21019C69.281 2.14071 66.657 2.07077 64.0268 2.00036L63.9732 3.99964ZM87.5625 4.62304C92.8322 4.76049 98.0769 4.89604 103.297 5.02973L103.348 3.03039C98.1284 2.89671 92.8841 2.76116 87.6146 2.62372L87.5625 4.62304ZM119.023 5.42871C124.287 5.56099 129.527 5.69137 134.742 5.81986L134.792 3.82047C129.577 3.69199 124.337 3.56162 119.073 3.42934L119.023 5.42871ZM150.477 6.20354C155.742 6.33061 160.983 6.45574 166.2 6.57895L166.247 4.57951C161.03 4.4563 155.79 4.33118 150.525 4.20412L150.477 6.20354ZM181.928 6.94631C187.194 7.06795 192.437 7.18762 197.657 7.30537L197.702 5.30587C192.483 5.18814 187.24 5.06847 181.974 4.94685L181.928 6.94631ZM213.378 7.65575C218.646 7.77172 223.891 7.8857 229.112 7.99774L229.155 5.9982C223.934 5.88617 218.69 5.77219 213.422 5.65624L213.378 7.65575ZM244.833 8.33062C250.1 8.44067 255.345 8.54873 260.567 8.65482L260.608 6.65524C255.386 6.54915 250.142 6.4411 244.874 6.33106L244.833 8.33062ZM276.29 8.96964C281.556 9.07355 286.801 9.17545 292.023 9.27539L292.062 7.27575C286.839 7.17583 281.595 7.07393 276.33 6.97003L276.29 8.96964ZM307.747 9.57152C313.012 9.6691 318.257 9.76467 323.48 9.85828L323.516 7.8586C318.293 7.765 313.049 7.66943 307.784 7.57187L307.747 9.57152ZM339.204 10.1352C344.468 10.2262 349.713 10.3153 354.938 10.4024L354.972 8.4027C349.747 8.3156 344.503 8.22653 339.238 8.13546L339.204 10.1352ZM370.663 10.6596C375.926 10.744 381.17 10.8264 386.396 10.9069L386.427 8.90715C381.201 8.82668 375.958 8.74427 370.695 8.65987L370.663 10.6596ZM402.124 11.144C404.749 11.1827 407.369 11.221 409.986 11.2587L410.014 9.25892C407.398 9.22118 404.778 9.18295 402.154 9.14423L402.124 11.144ZM409.986 11.2587C412.65 11.2972 415.304 11.3281 417.947 11.3521L417.965 9.35218C415.325 9.32826 412.675 9.29731 410.014 9.25892L409.986 11.2587ZM433.869 11.4146C439.211 11.409 444.515 11.3774 449.789 11.3235L449.769 9.32365C444.501 9.37745 439.202 9.409 433.867 9.41464L433.869 11.4146ZM465.707 11.0955C471.035 10.9984 476.337 10.8819 481.62 10.7499L481.57 8.75053C476.291 8.88238 470.993 8.99879 465.67 9.09586L465.707 11.0955ZM497.53 10.3083C502.843 10.1473 508.143 9.97458 513.436 9.79411L513.368 7.79527C508.077 7.97567 502.779 8.14833 497.469 8.30919L497.53 10.3083ZM529.34 9.23227C534.637 9.03999 539.935 8.84402 545.24 8.64841L545.167 6.64977C539.861 6.84539 534.564 7.04134 529.267 7.23358L529.34 9.23227ZM561.139 8.06835C566.423 7.87903 571.72 7.69406 577.037 7.5174L576.971 5.5185C571.651 5.69524 566.352 5.88027 561.068 6.06963L561.139 8.06835ZM592.936 7.01984C598.208 6.86626 603.505 6.72452 608.835 6.59837L608.788 4.59893C603.454 4.72517 598.153 4.86702 592.878 5.02069L592.936 7.01984ZM624.736 6.27368C629.999 6.18433 635.298 6.11334 640.639 6.06417L640.62 4.06426C635.274 4.11347 629.97 4.18454 624.702 4.27397L624.736 6.27368ZM656.543 5.98576C659.182 5.9844 661.833 5.98901 664.496 5.99999L664.504 4.00001C661.838 3.98902 659.184 3.9844 656.542 3.98576L656.543 5.98576ZM664.496 5.99999C667.214 6.0112 669.933 6.02965 672.651 6.05486L672.67 4.05495C669.948 4.02971 667.226 4.01123 664.504 4.00001L664.496 5.99999ZM688.961 6.28348C694.396 6.38415 699.832 6.50803 705.27 6.65128L705.322 4.65197C699.88 4.50859 694.439 4.3846 688.998 4.28382L688.961 6.28348ZM721.577 7.1349C727.008 7.31268 732.443 7.50594 737.883 7.71088L737.958 5.7123C732.516 5.50725 727.078 5.31387 721.642 5.13597L721.577 7.1349ZM754.187 8.35577C759.616 8.57937 765.05 8.81078 770.491 9.04625L770.577 7.04812C765.135 6.81261 759.7 6.58113 754.269 6.35746L754.187 8.35577ZM786.795 9.75922C792.222 9.99772 797.657 10.2365 803.101 10.4719L803.188 8.47376C797.744 8.23842 792.31 7.99965 786.883 7.76115L786.795 9.75922ZM819.409 11.1619C824.836 11.3852 830.273 11.6015 835.721 11.8072L835.796 9.80866C830.351 9.60307 824.916 9.38684 819.492 9.16357L819.409 11.1619ZM852.036 12.3866C857.463 12.5659 862.902 12.7313 868.356 12.8791L868.41 10.8798C862.961 10.7321 857.526 10.5669 852.102 10.3876L852.036 12.3866ZM884.679 13.2646C890.107 13.3728 895.549 13.4604 901.007 13.5238L901.03 11.524C895.578 11.4606 890.141 11.3731 884.719 11.265L884.679 13.2646ZM917.337 13.6382C920.055 13.6442 922.777 13.6434 925.503 13.6355L925.497 11.6355C922.774 11.6434 920.056 11.6442 917.341 11.6382L917.337 13.6382ZM925.503 13.6355C928.209 13.6276 930.92 13.6115 933.635 13.588L933.617 11.5881C930.906 11.6115 928.2 11.6276 925.497 11.6355L925.503 13.6355ZM949.898 13.3664C955.299 13.2683 960.718 13.1479 966.155 13.0115L966.105 11.0122C960.672 11.1484 955.258 11.2687 949.862 11.3667L949.898 13.3664ZM982.408 12.5646C987.805 12.4054 993.221 12.2369 998.657 12.0654L998.594 10.0664C993.158 10.2379 987.743 10.4063 982.349 10.5655L982.408 12.5646ZM1014.9 11.5519C1020.3 11.3831 1025.71 11.2173 1031.15 11.0605L1031.09 9.06132C1025.65 9.21822 1020.24 9.38405 1014.84 9.55289L1014.9 11.5519ZM1047.39 10.6258C1052.78 10.4947 1058.2 10.3778 1063.64 10.281L1063.6 8.28128C1058.16 8.37824 1052.74 8.49517 1047.34 8.62644L1047.39 10.6258ZM1079.88 10.0572C1082.58 10.0317 1085.29 10.0124 1088 9.99999L1088 8.00001C1085.28 8.01243 1082.57 8.03173 1079.86 8.05725L1079.88 10.0572ZM1088 9.99999C1090.54 9.9884 1093.09 9.98767 1095.64 9.99673L1095.65 7.99674C1093.09 7.98767 1090.54 7.9884 1088 8.00001L1088 9.99999ZM1110.92 10.1573C1115.98 10.2426 1121.07 10.3571 1126.2 10.493L1126.25 8.49369C1121.12 8.35769 1116.02 8.24297 1110.95 8.15757L1110.92 10.1573ZM1141.48 10.9505C1146.55 11.117 1151.64 11.2962 1156.76 11.4808L1156.83 9.48209C1151.71 9.2975 1146.61 9.11813 1141.54 8.95154L1141.48 10.9505ZM1172.04 12.038C1177.12 12.2227 1182.21 12.4052 1187.32 12.5784L1187.39 10.5795C1182.28 10.4064 1177.19 10.224 1172.11 10.0393L1172.04 12.038ZM1202.61 13.0602C1207.7 13.2062 1212.8 13.3361 1217.91 13.4429L1217.95 11.4433C1212.85 11.3366 1207.75 11.2069 1202.67 11.061L1202.61 13.0602ZM1233.21 13.6864C1238.31 13.7399 1243.41 13.7638 1248.52 13.7513L1248.51 11.7513C1243.41 11.7638 1238.32 11.74 1233.23 11.6865L1233.21 13.6864ZM1263.82 13.5979C1268.92 13.5061 1274.03 13.3712 1279.13 13.1865L1279.06 11.1878C1273.97 11.372 1268.88 11.5066 1263.79 11.5982L1263.82 13.5979ZM1294.43 12.4769C1296.97 12.3316 1299.52 12.1721 1302.07 11.9977L1301.93 10.0023C1299.39 10.1762 1296.85 10.3352 1294.31 10.4802L1294.43 12.4769Z" fill="#D9D9D9"/>
</svg>
