<svg width="182" height="41" viewBox="0 0 182 41" fill="none" xmlns="http://www.w3.org/2000/svg">
<path d="M64.5639 5.76538C66.4752 5.76538 68.3852 6.16251 70.0265 6.93048V11.5646C68.869 10.6112 67.1475 10.0549 65.4246 10.0549C62.4373 10.0549 59.4768 11.6697 59.4768 15.695C59.4768 19.2955 62.4373 20.7788 65.3698 20.7788C67.3078 20.7788 69.0842 20.1963 70.1601 19.164V23.9296C68.5188 24.6975 66.6609 25.0947 64.6708 25.0947C59.5035 25.0947 54.363 22.3147 54.363 15.695C54.3644 8.70441 59.4782 5.76538 64.5639 5.76538Z" fill="white"/>
<path d="M74.1994 24.6962V6.1626H82.1388C85.9601 6.1626 89.8629 7.51311 89.8629 12.4115C89.8629 15.4834 88.3285 17.1508 86.2568 17.9713L91.4508 24.6962H85.8264L81.3315 18.659H79.1782V24.6962H74.1994ZM79.1782 14.6877H82.3539C83.7801 14.6877 84.7491 13.9723 84.7491 12.543C84.7491 11.1136 83.7801 10.3982 82.3539 10.3982H79.1782V14.6877Z" fill="white"/>
<path d="M98.6897 24.6962V18.3684L91.3425 6.1626H96.9936L101.165 13.8146L105.337 6.1626H110.988L103.64 18.3684V24.6962H98.6897Z" fill="white"/>
<path d="M119.601 5.76538C121.942 5.76538 124.283 6.32164 125.925 7.24873V11.75C124.311 10.5586 122.184 9.97606 120.004 10.0024C118.175 10.0286 117.609 10.506 117.609 11.1937C117.609 13.6028 127.405 12.8611 127.405 19.4283C127.405 23.823 123.987 25.0947 119.869 25.0947C117.151 25.0947 114.622 24.4858 112.63 23.3996V18.7655C114.864 20.2751 117.341 20.8577 119.492 20.8577C121.457 20.8577 122.291 20.5394 122.291 19.6137C122.291 16.939 112.495 17.8398 112.495 11.22C112.495 7.51303 115.725 5.76538 119.601 5.76538Z" fill="white"/>
<path d="M145.005 6.1626V10.531H139.703V24.6962H134.724V10.531H129.395V6.1626H145.005Z" fill="white"/>
<path d="M144.44 24.6962L151.841 6.1626H157.223L164.624 24.6962H159.51L158.434 21.7835H150.63L149.554 24.6962H144.44ZM152.111 17.8122H156.954L155.016 12.4641C154.854 12.0144 154.693 11.5633 154.532 10.5836C154.371 11.5633 154.209 12.013 154.049 12.4641L152.111 17.8122Z" fill="white"/>
<path d="M172.698 6.1626V20.3278H181.31V24.6962H167.719V6.1626H172.698Z" fill="white"/>
<path d="M57.159 32.8296C58.2518 32.8296 58.8411 33.7 58.8411 34.6257C58.8411 35.5514 58.2518 36.4217 57.159 36.4217C56.6133 36.4217 56.2462 36.2031 56.0226 35.9623V37.8788H55.0226V32.9278H55.9072V33.4232C56.1238 33.1202 56.5191 32.8296 57.159 32.8296ZM56.9157 33.6584C56.4769 33.6584 56.1534 33.9269 56.017 34.2244V35.0311C56.1534 35.3286 56.4769 35.597 56.9157 35.597C57.4839 35.597 57.8214 35.1584 57.8214 34.6284C57.8214 34.0985 57.4825 33.6584 56.9157 33.6584Z" fill="white"/>
<path d="M61.0773 32.8296C62.5077 32.8296 62.9676 33.9407 62.7383 34.9439H60.308C60.4233 35.4393 60.955 35.6441 61.5232 35.6441C61.9184 35.6441 62.2714 35.5666 62.5653 35.4393V36.21C62.2418 36.3443 61.8171 36.4217 61.2995 36.4217C60.2067 36.4217 59.301 35.806 59.301 34.6257C59.301 33.3471 60.301 32.8296 61.0773 32.8296ZM61.1139 33.5796C60.6891 33.5796 60.3164 33.8411 60.301 34.3088H61.8396C61.8748 34.0749 61.7383 33.5796 61.1139 33.5796Z" fill="white"/>
<path d="M63.4134 36.3251V32.9294H64.4134V34.1956H64.8297L65.7073 32.9294H66.8283L65.6426 34.6051L66.9295 36.3237H65.8086L64.817 34.9801H64.4148V36.3237H63.4134V36.3251Z" fill="white"/>
<path d="M67.568 36.3957C67.4105 36.3957 67.2235 36.368 67.0209 36.2961V35.5184C67.0927 35.5461 67.1644 35.5613 67.2291 35.5613C67.7762 35.5613 67.8971 34.4502 67.9618 32.9294H70.7663V36.3251H69.7663V33.7085H68.8817C68.7832 35.2347 68.5174 36.3957 67.568 36.3957Z" fill="white"/>
<path d="M74.9448 35.6732C75.0025 35.6732 75.0672 35.6663 75.1319 35.6456V36.289C74.9743 36.3457 74.7718 36.3886 74.5777 36.3886C74.2261 36.3886 73.9589 36.2613 73.8154 36.0067C73.4779 36.2682 73.0827 36.4246 72.5721 36.4246C71.9252 36.4246 71.364 36.0565 71.364 35.3854C71.364 34.522 72.191 34.2535 72.8816 34.2535C73.1544 34.2535 73.4568 34.2895 73.7015 34.3449V34.2245C73.7015 33.8855 73.4287 33.6516 72.8886 33.6516C72.4146 33.6516 71.9899 33.7789 71.6664 33.9062V33.058C71.9463 32.9667 72.4709 32.8311 73.0039 32.8311C74.0391 32.8311 74.7001 33.2489 74.7001 34.3656V35.4477C74.7001 35.6248 74.8154 35.6732 74.9448 35.6732ZM72.3851 35.3065C72.3851 35.5611 72.6228 35.7244 72.9238 35.7244C73.2036 35.7244 73.4695 35.6469 73.7001 35.4491V34.9191C73.5496 34.8831 73.319 34.8416 73.1108 34.8416C72.7451 34.8388 72.3851 34.9592 72.3851 35.3065Z" fill="white"/>
<path d="M75.6635 36.3251V32.9294H76.6199L77.6916 34.6134L78.7703 32.9294H79.7197V36.3251H78.7563V34.3229L77.9433 35.589H77.4469L76.6339 34.3229V36.3251H75.6635Z" fill="white"/>
<path d="M80.5649 36.3251V32.9294H81.5649V34.2163H82.9601V32.9294H83.9601V36.3251H82.9601V35.0382H81.5649V36.3251H80.5649Z" fill="white"/>
<path d="M86.5184 32.8296C87.5254 32.8296 88.4241 33.4384 88.4241 34.6257C88.4241 35.8129 87.5254 36.4217 86.5184 36.4217C85.5184 36.4217 84.6127 35.8129 84.6127 34.6257C84.6127 33.4384 85.5184 32.8296 86.5184 32.8296ZM86.5184 33.7069C85.9502 33.7069 85.6338 34.1026 85.6338 34.627C85.6338 35.1515 85.9502 35.5472 86.5184 35.5472C87.0936 35.5472 87.4101 35.1515 87.4101 34.627C87.4101 34.1026 87.0936 33.7069 86.5184 33.7069Z" fill="white"/>
<path d="M91.7222 34.1885V35.0159H89.0472V34.1885H91.7222Z" fill="white"/>
<path d="M92.5422 36.3251V32.9294H95.9359V36.3251H94.9359V33.7569H93.5407V36.3251H92.5422Z" fill="white"/>
<path d="M98.919 32.8296C100.012 32.8296 100.601 33.7 100.601 34.6257C100.601 35.5514 100.012 36.4217 98.919 36.4217C98.3733 36.4217 98.0062 36.2031 97.7826 35.9623V37.8788H96.7826V32.9278H97.6672V33.4232C97.8838 33.1202 98.279 32.8296 98.919 32.8296ZM98.6743 33.6584C98.2354 33.6584 97.912 33.9269 97.7755 34.2244V35.0311C97.912 35.3286 98.2354 35.597 98.6743 35.597C99.2425 35.597 99.58 35.1584 99.58 34.6284C99.58 34.0985 99.2425 33.6584 98.6743 33.6584Z" fill="white"/>
<path d="M102.965 32.8296C103.972 32.8296 104.871 33.4384 104.871 34.6257C104.871 35.8129 103.972 36.4217 102.965 36.4217C101.965 36.4217 101.06 35.8129 101.06 34.6257C101.06 33.4384 101.967 32.8296 102.965 32.8296ZM102.965 33.7069C102.397 33.7069 102.081 34.1026 102.081 34.627C102.081 35.1515 102.397 35.5472 102.965 35.5472C103.541 35.5472 103.857 35.1515 103.857 34.627C103.857 34.1026 103.541 33.7069 102.965 33.7069Z" fill="white"/>
<path d="M105.525 36.3251V32.9294H106.525V34.839L108.064 32.9294H108.926V36.3251H107.934V34.4156L106.396 36.3251H105.525Z" fill="white"/>
<path d="M110.909 36.4162C110.37 36.4162 109.909 36.3027 109.594 36.1409V35.3563C109.853 35.4974 110.356 35.6469 110.779 35.6469C111.246 35.6469 111.585 35.5555 111.585 35.2649C111.585 34.9674 111.262 34.9329 110.924 34.9329H110.284V34.2825H110.924C111.269 34.2825 111.514 34.1981 111.514 33.9642C111.514 33.7373 111.283 33.6031 110.839 33.6031C110.436 33.6031 109.933 33.7442 109.66 33.8854V33.1077C109.983 32.9375 110.48 32.8254 110.961 32.8254C112.155 32.8254 112.535 33.3416 112.535 33.8369C112.535 34.2396 112.276 34.4942 111.952 34.58C112.355 34.7004 112.606 34.9827 112.606 35.3867C112.606 35.9139 112.096 36.4162 110.909 36.4162Z" fill="white"/>
<path d="M113.275 36.3251V32.9294H115.331C116.151 32.9294 116.467 33.3681 116.467 33.8275C116.467 34.2163 116.273 34.4778 115.935 34.6051C116.31 34.7255 116.547 34.994 116.547 35.4049C116.547 35.8865 116.26 36.3251 115.39 36.3251H113.275ZM114.266 34.3229H115.028C115.266 34.3229 115.46 34.2315 115.46 33.9686C115.46 33.6863 115.252 33.6006 115.021 33.6006H114.266V34.3229ZM114.273 35.6526H115.093C115.345 35.6526 115.553 35.5613 115.553 35.2915C115.553 35.0009 115.338 34.9165 115.093 34.9165H114.273V35.6526Z" fill="white"/>
<path d="M118.933 32.8296C119.94 32.8296 120.838 33.4384 120.838 34.6257C120.838 35.8129 119.94 36.4217 118.933 36.4217C117.933 36.4217 117.027 35.8129 117.027 34.6257C117.027 33.4384 117.933 32.8296 118.933 32.8296ZM118.933 33.7069C118.364 33.7069 118.048 34.1026 118.048 34.627C118.048 35.1515 118.364 35.5472 118.933 35.5472C119.508 35.5472 119.824 35.1515 119.824 34.627C119.824 34.1026 119.508 33.7069 118.933 33.7069Z" fill="white"/>
<path d="M121.124 37.2232V35.5751H121.605C122.021 34.8611 122.129 34.0046 122.108 32.9294H124.948V35.5751H125.466V37.2232H124.546V36.3251H122.044V37.2232H121.124ZM122.641 35.5751H123.956V33.6794H123.03C123.001 34.4792 122.9 35.023 122.641 35.5751Z" fill="white"/>
<path d="M127.759 32.8228C128.141 32.8228 128.515 32.9072 128.824 33.0704V33.9339C128.579 33.7789 128.235 33.6793 127.904 33.6793C127.359 33.6793 126.833 33.9408 126.833 34.6271C126.833 35.2775 127.35 35.575 127.889 35.575C128.256 35.575 128.608 35.4754 128.859 35.3273V36.1977C128.522 36.3388 128.134 36.4246 127.695 36.4246C126.752 36.4246 125.812 35.8863 125.812 34.6769C125.812 33.3749 126.803 32.8228 127.759 32.8228Z" fill="white"/>
<path d="M130.34 36.3251V33.7569H129.24V32.9294H132.433V33.7569H131.333V36.3251H130.34Z" fill="white"/>
<path d="M132.972 36.3251V32.9294H135.028C135.848 32.9294 136.164 33.3681 136.164 33.8275C136.164 34.2163 135.97 34.4778 135.633 34.6051C136.007 34.7255 136.244 34.994 136.244 35.4049C136.244 35.8865 135.958 36.3251 135.087 36.3251H132.972ZM133.963 34.3229H134.726C134.963 34.3229 135.157 34.2315 135.157 33.9686C135.157 33.6863 134.949 33.6006 134.718 33.6006H133.963V34.3229ZM133.97 35.6526H134.79C135.042 35.6526 135.25 35.5613 135.25 35.2915C135.25 35.0009 135.035 34.9165 134.79 34.9165H133.97V35.6526Z" fill="white"/>
<path d="M138.5 32.8296C139.931 32.8296 140.391 33.9407 140.161 34.9439H137.731C137.846 35.4393 138.378 35.6441 138.946 35.6441C139.341 35.6441 139.694 35.5666 139.988 35.4393V36.21C139.665 36.3443 139.24 36.4217 138.723 36.4217C137.63 36.4217 136.724 35.806 136.724 34.6257C136.724 33.3471 137.724 32.8296 138.5 32.8296ZM138.536 33.5796C138.111 33.5796 137.738 33.8411 137.723 34.3088H139.261C139.298 34.0749 139.161 33.5796 138.536 33.5796Z" fill="white"/>
<path d="M140.837 36.3251V32.9294H141.836V34.2163H143.232V32.9294H144.232V36.3251H143.232V35.0382H141.836V36.3251H140.837Z" fill="white"/>
<path d="M145.077 36.3251V32.9294H146.077V34.2163H147.472V32.9294H148.472V36.3251H147.472V35.0382H146.077V36.3251H145.077Z" fill="white"/>
<path d="M152.648 35.6732C152.705 35.6732 152.77 35.6663 152.835 35.6456V36.289C152.677 36.3457 152.475 36.3886 152.281 36.3886C151.929 36.3886 151.662 36.2613 151.518 36.0067C151.181 36.2682 150.786 36.4246 150.275 36.4246C149.628 36.4246 149.067 36.0565 149.067 35.3854C149.067 34.522 149.894 34.2535 150.585 34.2535C150.857 34.2535 151.16 34.2895 151.404 34.3449V34.2245C151.404 33.8855 151.132 33.6516 150.592 33.6516C150.118 33.6516 149.693 33.7789 149.369 33.9062V33.058C149.649 32.9667 150.174 32.8311 150.707 32.8311C151.742 32.8311 152.403 33.2489 152.403 34.3656V35.4477C152.403 35.6248 152.518 35.6732 152.648 35.6732ZM150.088 35.3065C150.088 35.5611 150.326 35.7244 150.627 35.7244C150.907 35.7244 151.172 35.6469 151.403 35.4491V34.9191C151.253 34.8831 151.022 34.8416 150.814 34.8416C150.448 34.8388 150.088 34.9592 150.088 35.3065Z" fill="white"/>
<path d="M153.064 36.3251L153.97 35.1863C153.503 34.9884 153.265 34.5775 153.265 34.1181C153.265 33.4816 153.739 32.9294 154.645 32.9294H156.514V36.3251H155.514V35.3136H154.953L154.184 36.3251H153.064ZM154.847 34.5775H155.516V33.7071H154.847C154.487 33.7071 154.279 33.8621 154.279 34.1457C154.279 34.4225 154.487 34.5775 154.847 34.5775Z" fill="white"/>
<path d="M160.749 37.8803V36.4232C159.605 36.3803 158.757 35.7092 158.757 34.6272C158.757 33.5451 159.605 32.8726 160.749 32.8311V31.374H161.698V32.8311C162.842 32.874 163.69 33.5451 163.69 34.6272C163.69 35.7092 162.842 36.3817 161.698 36.4232V37.8803H160.749ZM160.756 35.6027V33.6503C160.088 33.6862 159.756 34.1166 159.756 34.6258C159.756 35.135 160.088 35.5681 160.756 35.6027ZM161.705 35.6027C162.373 35.5667 162.704 35.1364 162.704 34.6272C162.704 34.118 162.373 33.6862 161.705 33.6516V35.6027Z" fill="white"/>
<path d="M164.335 36.3251V32.9294H165.335V34.839L166.874 32.9294H167.736V36.3251H166.745V34.4156L165.206 36.3251H164.335Z" fill="white"/>
<path d="M170.719 32.8296C171.812 32.8296 172.401 33.7 172.401 34.6257C172.401 35.5514 171.812 36.4217 170.719 36.4217C170.173 36.4217 169.806 36.2031 169.583 35.9623V37.8788H168.583V32.9278H169.467V33.4232C169.684 33.1202 170.079 32.8296 170.719 32.8296ZM170.476 33.6584C170.037 33.6584 169.714 33.9269 169.577 34.2244V35.0311C169.714 35.3286 170.037 35.597 170.476 35.597C171.044 35.597 171.382 35.1584 171.382 34.6284C171.382 34.0985 171.043 33.6584 170.476 33.6584Z" fill="white"/>
<path d="M173.055 36.3251V32.9294H174.012L175.083 34.6134L176.162 32.9294H177.111V36.3251H176.148V34.3229L175.335 35.589H174.839L174.026 34.3229V36.3251H173.055Z" fill="white"/>
<path d="M181.287 35.6732C181.345 35.6732 181.409 35.6663 181.474 35.6456V36.289C181.317 36.3457 181.114 36.3886 180.92 36.3886C180.568 36.3886 180.301 36.2613 180.158 36.0067C179.82 36.2682 179.425 36.4246 178.914 36.4246C178.267 36.4246 177.706 36.0565 177.706 35.3854C177.706 34.522 178.533 34.2535 179.224 34.2535C179.497 34.2535 179.799 34.2895 180.044 34.3449V34.2245C180.044 33.8855 179.771 33.6516 179.231 33.6516C178.757 33.6516 178.332 33.7789 178.009 33.9062V33.058C178.289 32.9667 178.813 32.8311 179.346 32.8311C180.381 32.8311 181.042 33.2489 181.042 34.3656V35.4477C181.042 35.6248 181.158 35.6732 181.287 35.6732ZM178.727 35.3065C178.727 35.5611 178.965 35.7244 179.266 35.7244C179.546 35.7244 179.812 35.6469 180.042 35.4491V34.9191C179.892 34.8831 179.661 34.8416 179.453 34.8416C179.087 34.8388 178.727 34.9592 178.727 35.3065Z" fill="white"/>
<path d="M7.11223 35.6138L23.0064 39.9822C24.0176 40.2603 25.0921 40.1206 25.9852 39.6238C26.2778 39.4619 26.5492 39.2613 26.7939 39.0261L38.5855 27.6684C39.5813 26.7095 39.9835 25.2898 39.6375 23.9628L35.5364 8.23539C35.1904 6.9084 34.1426 5.854 32.8008 5.48593L16.9067 1.1175C15.5649 0.748048 14.1135 1.11474 13.1191 2.07366L1.32613 13.4313C0.330376 14.3902 -0.0718658 15.8099 0.274118 17.1369L4.3753 32.863C4.72128 34.1913 5.77048 35.2443 7.11223 35.6138ZM3.36969 16.7868C3.51174 16.7079 3.6763 16.672 3.84648 16.6872L25.1498 18.6009C25.3397 18.6175 25.41 18.7406 25.4353 18.8417C25.4606 18.9413 25.4592 19.0824 25.3017 19.1862L7.47649 30.941C7.21771 31.1112 6.90267 31.1457 6.61153 31.0337C6.3204 30.9216 6.11084 30.685 6.03911 30.3847L2.97308 17.6821C2.91119 17.4247 2.97589 17.1632 3.15169 16.9639C3.21498 16.8906 3.28953 16.8325 3.36969 16.7868ZM34.3592 12.958L36.4421 20.6294C36.5645 20.9961 36.5378 21.2576 36.4168 21.3365C36.2691 21.4334 36.0652 21.3088 35.9049 21.1705C35.7656 21.0501 34.8458 20.0829 34.8458 20.0829L32.4619 17.6337C32.2875 17.4441 32.1131 17.1424 32.2777 16.4879L33.3254 13.0494C33.3747 12.9069 33.4942 12.5097 33.829 12.4585C34.0582 12.4239 34.2537 12.5941 34.3592 12.958ZM26.6646 15.2813C26.77 15.3893 26.6997 15.5705 26.6646 15.6439C26.5788 15.8224 26.3931 15.9939 26.2032 15.9815L5.54686 14.3238C5.1179 14.2933 4.96319 13.9613 4.92521 13.8602C4.87739 13.7343 4.79863 13.4105 5.08274 13.1352L14.0207 4.4592C14.1191 4.36372 14.2288 4.28208 14.3455 4.21705C14.5804 4.08698 14.8476 4.01918 15.1261 4.02333C15.5565 4.03025 15.9587 4.2046 16.2597 4.51732L26.6646 15.2813ZM20.0613 4.50348C20.0923 4.45367 20.254 4.33467 20.3651 4.31806C20.472 4.30146 20.7491 4.33467 20.908 4.37618L30.9823 7.0191C31.3283 7.11042 31.6068 7.3332 31.7657 7.64869C31.926 7.9628 31.9415 8.31703 31.8093 8.64359L31.7756 8.74322L30.0597 14.8593C30.0386 14.9326 29.9894 14.9797 29.9148 14.999C29.8389 15.0184 29.7742 14.999 29.7193 14.9437L20.119 5.09156C19.8911 4.84526 20.0022 4.59896 20.0613 4.50348ZM26.9782 34.0294L30.6588 20.4814C30.732 20.2351 30.9598 20.1548 31.0287 20.1368C31.1075 20.1161 31.3044 20.0815 31.4577 20.2226L31.476 20.2392L36.594 24.7266C36.7797 24.9024 36.8809 25.139 36.8781 25.3964C36.8753 25.6911 36.7375 25.9803 36.4984 26.1934L36.4674 26.2211L27.7405 34.6756C27.4986 34.8818 27.2398 34.85 27.0752 34.7504C26.8249 34.5954 26.9782 34.0294 26.9782 34.0294ZM23.697 36.4648C23.6238 36.772 23.4311 37.0252 23.1569 37.1788L23.1555 37.1802C22.8812 37.3324 22.5634 37.3642 22.2582 37.2687L9.72258 33.3583C9.47786 33.2822 9.42301 33.076 9.41035 32.9916C9.39629 32.8934 9.3991 32.7094 9.58615 32.5848L27.8713 20.3541C27.898 20.3361 27.9585 20.2987 28.0513 20.361C28.1216 20.408 28.1497 20.4717 28.1343 20.5506L23.697 36.4648Z" fill="#FF8989"/>
<path d="M39.5939 23.8119L35.4576 8.0942C35.1088 6.76721 34.0582 5.71696 32.7151 5.35027L16.8124 1.01644C15.4693 0.651136 14.0193 1.02059 13.0263 1.9809L1.25863 13.3634C0.265682 14.3237 -0.135153 15.7448 0.21505 17.0718L4.35139 32.7896C4.70019 34.1166 5.76908 35.2484 7.11223 35.6138L23.0162 39.9476C23.3468 40.0375 23.6829 40.0832 24.019 40.0859C25.0457 40.0956 26.0457 39.7497 26.7953 39.0246L38.5869 27.667C39.5785 26.7067 39.9427 25.1376 39.5939 23.8119ZM32.4281 9.54988C32.6799 9.64121 32.8655 9.83908 32.9373 10.0937L36.4928 22.8599C36.5771 23.1574 36.5096 23.4632 36.3099 23.7012C36.1102 23.9379 35.8177 24.0569 35.5082 24.032L14.5537 21.7917C14.3652 21.7765 14.2949 21.6533 14.2682 21.5537C14.2415 21.4541 14.2429 21.3116 14.4004 21.2078L31.6841 9.64121C31.8248 9.54711 31.9865 9.50007 32.1497 9.50145C32.2439 9.50007 32.3367 9.51667 32.4281 9.54988ZM3.95618 19.8822C4.27544 19.7673 4.57361 20.0579 4.68753 20.1603L7.12208 22.7465C7.5862 23.2405 7.58198 23.5878 7.52291 23.8369L6.63967 27.1149C6.63967 27.1149 6.37947 28.0863 6.31618 28.2579C6.24446 28.4543 6.12632 28.6605 5.95051 28.6467C5.80705 28.6342 5.65516 28.4184 5.58202 28.0392L3.73959 20.5713C3.65098 20.2018 3.73959 19.9597 3.95618 19.8822ZM15.188 5.13164C15.2991 4.71514 15.5649 4.37059 15.9376 4.16027C16.1795 4.02466 16.4468 3.95547 16.7168 3.95824C16.8518 3.95963 16.9868 3.979 17.1205 4.01498L29.0386 7.06886C29.4212 7.17541 29.5112 7.49505 29.5323 7.62927C29.5492 7.73581 29.5759 8.09973 29.2158 8.33082L12.1937 19.4131C12.0348 19.5155 11.7872 19.4518 11.6241 19.337C11.558 19.2899 11.4075 19.164 11.4455 19.0201L15.188 5.13164ZM12.1698 7.47152L8.60306 20.1769C8.58337 20.2502 8.53414 20.2987 8.4596 20.318C8.38506 20.3374 8.31895 20.3194 8.2641 20.2641L4.07713 16.0409L3.99837 15.9704C3.7213 15.7476 3.56238 15.4307 3.54831 15.0793C3.53425 14.7278 3.66786 14.3998 3.92524 14.1549L11.129 7.22245C11.2472 7.11037 11.4736 6.94986 11.5749 6.91388C11.6803 6.87652 11.8801 6.90281 11.9321 6.93187C12.0291 6.98584 12.2485 7.14911 12.1698 7.47152ZM20.6464 36.2586C20.5522 36.4246 20.3412 36.5754 20.0276 36.5104L8.40193 32.9556L8.36115 32.9459C7.96031 32.7052 7.87452 32.6415 7.72825 32.3841C7.60026 32.16 7.48915 31.7573 7.5651 31.5152L9.66492 25.6482L9.67336 25.6246C9.73805 25.4281 9.92792 25.3645 10.0067 25.3451C10.0756 25.3285 10.3161 25.2898 10.5003 25.471L20.3792 35.5805C20.3806 35.5805 20.7913 36.004 20.6464 36.2586ZM12.7464 24.3308C12.6944 24.27 12.6888 24.2008 12.7267 24.1261C12.7774 24.0278 12.8477 24.032 12.88 24.0347L34.8964 26.0467C35.1215 26.066 35.2157 26.2265 35.2509 26.3193C35.2818 26.3995 35.3338 26.6057 35.158 26.7883L25.9515 35.6899C25.5563 36.1243 25.455 36.1382 25.1414 36.1354C25.14 36.1354 24.5999 36.1285 24.3158 35.7673L12.7464 24.3308Z" fill="#CF0101"/>
</svg>
