<svg width="68" height="44" viewBox="0 0 68 44" fill="none" xmlns="http://www.w3.org/2000/svg">
<path d="M43.8965 1C27.664 12.5864 32.3838 33.0388 32.3838 33.0388L35.9048 26.3712M43.8965 1C50.5484 19.8008 34.9537 33.8474 34.9537 33.8474L35.8939 26.3665M15.5292 4.64483C23.9189 5.19328 30.9108 13.735 30.9108 13.735C28.8165 18.6652 28.2425 24.1087 29.2623 29.3673C21.49 22.5619 14.2819 15.5041 15.5276 4.64483H15.5292ZM1 30.834C10.5755 37.109 21.5236 40.9809 32.915 42.1211C27.2143 28.9254 17.0836 24.1947 1 30.834V30.834ZM35.1621 42.049C52.4382 41.1731 66.9595 31.0612 66.9768 30.9625C52.2784 24.624 41.6024 28.1435 35.1621 42.049Z" stroke="#C1D788" stroke-width="2" stroke-linecap="round" stroke-linejoin="round"/>
</svg>
