<svg width="197" height="75" viewBox="0 0 197 75" fill="none" xmlns="http://www.w3.org/2000/svg">
<path d="M59.9296 38.9888H66.1985C65.9423 34.7934 65.3152 30.9248 62.7538 27.6347C61.4157 25.9079 59.6006 24.8701 57.5338 24.3468C57.0259 24.2187 56.3326 24.6471 55.7673 24.9231C53.9677 25.8063 52.2497 26.8927 50.3905 27.6148C48.7587 28.2463 47.7408 27.7429 46.831 26.3252C46.4181 27.0076 46.0449 27.6501 45.643 28.2839C41.6508 34.5571 37.7357 40.8856 33.6286 47.0838C30.9149 51.1799 27.9935 55.1457 25.0346 59.0695C22.3849 62.5826 19.5982 65.9964 16.7851 69.3837C15.4667 70.9166 14.0662 72.3768 12.5896 73.7579C11.4061 74.904 10.7171 74.6743 9.6153 73.4069C9.09859 72.8129 8.14689 72.5943 7.39171 72.2034C6.98983 71.9959 6.58943 71.7868 6.1905 71.5763C6.51509 71.2208 6.77565 70.7527 7.17311 70.5275C10.8607 68.4474 14.5151 66.3144 17.3923 63.1325C19.0793 61.2666 20.954 59.5156 21.7489 57.0071C21.8836 56.5876 22.1044 56.1923 22.1906 55.7662C22.5394 54.1918 21.9499 53.4278 20.3247 53.4233C17.9311 53.4233 15.5684 53.3593 13.2587 52.5114C9.5623 51.1512 6.63433 48.7708 4.0707 45.8671C1.95531 43.4735 0.506784 40.7266 0.060743 37.5513C-0.0982419 36.412 0.0960739 35.2174 0.175566 34.0537C0.272724 32.6361 0.455998 31.2229 0.531074 29.803C0.618683 28.2658 1.1933 26.7964 2.17171 25.6076C3.49658 26.6984 4.78171 27.7561 6.06021 28.8337C9.50268 31.7396 12.9319 34.6609 16.3832 37.5558C16.8536 37.9639 17.3857 38.2948 17.9598 38.5362C18.2689 38.6598 18.7039 38.4699 19.0815 38.4191C19.0197 38.0813 19.0815 37.6507 18.8806 37.4167C18.0901 36.4561 17.2223 35.5596 16.3964 34.6278C15.9646 34.1773 15.5695 33.6929 15.2151 33.1793C14.5705 32.1412 13.5795 31.3645 12.4174 30.9866C11.9122 30.7718 11.4601 30.4493 11.0925 30.0415C9.67712 28.5974 8.29042 27.1246 6.91255 25.6451C5.31387 23.925 5.17697 22.7128 6.59458 20.8623C7.47783 19.7119 8.59956 18.7425 9.6153 17.6959C9.89573 17.4066 10.2932 17.1814 10.4566 16.8414C11.5761 14.4941 13.8174 13.2002 15.6368 11.1599C16.1911 12.4847 16.6239 13.6992 17.2024 14.8452C19.3575 19.1268 21.5259 23.4039 23.7826 27.6325C24.147 28.3192 24.9794 28.7586 25.5955 29.3106L26.0989 28.9882C25.9024 28.2993 25.8075 27.5574 25.4939 26.9259C24.105 24.1326 22.3827 21.474 21.2985 18.5703C20.2651 15.7792 19.8566 12.7541 19.2361 9.81732C19.1787 9.54792 19.4812 9.0533 19.755 8.88549C22.4776 7.25589 25.2466 5.90894 28.4771 5.7102C29.389 5.65279 30.2855 5.17142 31.1666 4.82695C31.8091 4.57523 32.412 4.22635 33.1981 3.83992C33.1981 5.46289 33.1981 6.93129 33.1981 8.40632C33.1981 11.1378 33.0943 13.8847 34.1564 16.4858C34.3904 17.0555 34.6355 17.7003 35.0705 18.0912C35.5983 18.5615 36.444 19.1798 36.9541 19.034C37.4641 18.8883 37.9919 17.9476 38.1443 17.2675C38.3651 16.3224 38.2502 15.3023 38.2524 14.3153C38.2524 11.8863 38.1089 9.45739 38.2524 7.0417C38.4733 3.59041 39.871 1.23655 44.5081 2.07342C47.8202 2.67183 50.9911 2.69612 54.067 1.19018C54.1487 1.15043 54.2658 1.19018 54.544 1.19018C52.1151 7.62465 49.7281 13.973 47.2241 20.6217C51.5343 14.0547 53.9743 6.96884 56.4606 0C56.7764 0.0198731 56.9023 -1.34905e-06 56.9133 0.0331205C57.982 2.03589 59.8545 3.23048 61.4863 4.68784C66.2206 8.92082 65.5515 14.355 62.3055 18.7116C61.4554 19.8532 60.4684 20.8933 59.5586 21.962C60.8239 22.6664 62.1179 23.3266 63.3522 24.0884C65.3748 25.336 66.6048 27.2571 67.4681 29.3879C68.0708 30.8853 68.5552 32.4276 68.9167 34.0007C69.2744 35.5618 69.4113 37.1738 69.663 38.8873C70.3254 38.8873 71.0453 38.8873 71.7673 38.8873C76.3205 38.8402 80.8744 38.7908 85.429 38.7393C87.4163 38.7172 89.4036 38.7261 91.3733 38.6157C91.7752 38.5914 92.2764 38.174 92.5127 37.7942C95.3457 33.3117 98.139 28.8248 100.937 24.3357C102.337 22.0923 103.779 19.8731 105.106 17.5899C105.658 16.6382 106.15 16.4859 106.941 17.23C107.16 17.4029 107.392 17.56 107.634 17.7003L94.6833 38.5781L133.946 38.0195C134.011 38.2061 134.062 38.3973 134.098 38.5914C134.257 40.1172 134.253 40.0973 132.714 40.1128C124.738 40.2026 116.761 40.2983 108.782 40.3998C104.006 40.4617 99.2276 40.5588 94.4492 40.5897C93.683 40.5897 93.1861 40.837 92.8417 41.473C91.296 44.3435 89.7039 47.1986 88.2687 50.1266C87.8756 50.9304 87.8469 51.9792 87.8756 52.9088C87.9154 54.1851 89.1276 55.3599 90.5077 55.2119C92.378 55.011 94.2151 54.4656 96.0523 54.0107C96.2422 53.9621 96.4939 53.4918 96.452 53.2644C95.9706 50.5947 98.0551 48.3182 100.007 47.5365C102.052 46.7173 105.028 47.1456 106.457 49.197C106.514 49.2765 106.629 49.314 106.971 49.5348C106.971 48.2939 107.122 47.2053 106.934 46.1785C106.682 44.7896 104.865 44.094 103.352 44.7079C102.644 44.9971 101.983 45.4056 101.197 45.8119L100.159 44.2177C102.191 41.9389 106.287 41.7379 108.314 43.86C108.865 44.4457 109.229 45.182 109.361 45.9753C109.623 47.9627 109.566 49.9742 108.612 51.7849C108.067 52.8183 108.455 53.6707 108.996 54.3088C109.376 54.7504 110.379 55.0794 110.939 54.9094C113.081 54.2602 115.252 53.5227 115.934 50.9569C116.109 50.4338 116.319 49.9233 116.564 49.4288C117.416 47.4018 118.27 45.3747 119.114 43.3653C121.055 43.5641 121.139 43.7429 120.412 46.2359C121.161 45.8914 121.803 45.5845 122.455 45.2997C123.941 44.6527 125.473 44.4164 127.072 44.8006C128.445 45.1318 129.15 45.9047 129.373 47.2892C129.636 48.9254 129.059 50.4004 128.516 51.8821C128.251 52.6041 127.957 53.3196 127.719 54.0504C127.37 55.1126 127.84 55.7684 128.936 55.5453C129.879 55.351 130.883 55.0242 131.645 54.4634C132.996 53.4653 134.385 52.3988 135.388 51.0783C136.342 49.8219 136.83 48.2077 137.508 46.7438C137.892 45.9091 138.247 45.0634 138.612 44.2199C139.113 43.0628 139.835 43.8887 140.453 44.0344C141.208 44.211 141.045 44.6968 140.793 45.2224C139.8 47.2605 138.775 49.2831 137.859 51.3521C137.447 52.3325 137.136 53.3519 136.929 54.3949C136.73 55.3135 137.163 55.7463 138.086 55.6072C141.049 55.1655 143.688 53.8782 146.201 52.3259C146.459 52.1669 146.563 51.6635 146.618 51.2859C147.082 48.1526 148.683 45.8119 151.514 44.3943C153.395 43.4492 155.831 43.8224 156.813 45.0744C157.842 46.3728 157.747 47.9759 156.473 49.462L154.848 48.3932C154.91 48.2077 154.943 48.0708 154.998 47.9516C155.588 46.587 155.128 45.94 153.625 46.0283C150.862 46.1895 147.974 50.555 148.91 53.1562C149.507 54.8122 151.509 55.9936 153.404 55.4018C155.232 54.8321 156.937 53.8363 158.664 52.9729C158.884 52.8603 159.07 52.4496 159.105 52.1603C159.346 49.7049 160.808 48.1857 162.996 47.4393C165.184 46.693 167.191 47.1191 168.83 48.8591C169 49.0402 169.188 49.2014 169.384 49.3891C170.018 48.0488 169.952 45.8428 169.13 45.1937C167.291 43.7385 165.597 44.7631 163.901 45.8164L162.813 44.1448C165.491 41.8219 169.252 41.5458 171.464 44.6372C171.987 45.3703 172.202 46.5141 172.127 47.4393C172.009 48.8442 171.688 50.2247 171.175 51.5376C170.804 52.4981 170.689 53.3637 171.294 54.1123C171.899 54.8608 172.917 55.3069 173.869 54.8807C175.264 54.2558 176.569 53.43 177.894 52.6527C177.992 52.5753 178.072 52.4775 178.128 52.3662C178.184 52.2548 178.215 52.1325 178.219 52.0079C178.148 48.8282 179.568 46.1034 180.851 43.341C183.161 38.3661 185.768 33.5569 189.169 29.2311C190.4 27.7226 191.713 26.2836 193.104 24.9209C193.824 24.19 194.74 23.7771 195.811 24.2584C196.882 24.7398 197.014 25.7048 196.999 26.6675C196.952 29.474 195.895 32.0443 194.972 34.6322C193.662 38.28 191.479 41.4288 189.01 44.348C186.482 47.3422 183.71 50.1332 181.092 53.0502C180.893 53.271 180.871 53.9091 181.05 54.1542C181.798 55.2252 182.896 55.6867 184.203 55.5873C186.881 55.3842 189.217 54.2624 191.507 52.7432C191.909 53.3019 192.285 53.8252 192.731 54.4501C191.118 55.6669 189.301 56.5846 187.365 57.1595C186.1 57.5307 184.79 57.7261 183.472 57.7402C181.438 57.7402 179.981 56.5633 178.793 54.8564C177.744 55.4195 176.735 55.9848 175.702 56.5103C173.204 57.791 170.711 57.2014 169.055 54.9006C168.885 55.0075 168.722 55.1255 168.567 55.2539C166.065 57.5636 162.875 57.6409 160.329 55.3797C159.763 54.8763 159.399 55.117 158.882 55.3797C157.337 56.1305 155.822 57.0204 154.19 57.4973C151.428 58.3033 149.151 57.2765 147.382 55.0684C147.268 54.9249 147.162 54.7791 147.044 54.6378C147.025 54.6113 146.978 54.6091 147.044 54.6378C144.836 55.563 142.73 56.4816 140.588 57.3317C139.931 57.5676 139.248 57.7233 138.554 57.7954C136.313 58.0957 135.284 57.4024 134.524 55.0419C133.741 55.616 133.01 56.2034 132.226 56.7112C130.901 57.5768 129.466 58.0979 127.84 57.685C125.789 57.1639 124.97 55.828 125.544 53.8009C125.919 52.4959 126.527 51.255 126.836 49.9389C127.039 49.0557 127.264 47.7683 126.811 47.2892C126.359 46.81 125.021 46.8807 124.173 47.1015C121.953 47.7082 119.986 49.0116 118.562 50.82C117.712 51.8644 117.356 53.3129 116.795 54.587C116.354 55.5807 115.941 56.5743 115.457 57.7203L113.194 56.5456C110.88 57.7181 107.793 57.3295 106.406 54.9889C106.201 55.1173 106.003 55.2566 105.812 55.4062C103.591 57.3207 101.01 57.5525 98.4614 56.1482C97.9912 55.9436 97.4652 55.9062 96.9709 56.0422C95.3413 56.4441 93.7625 57.0756 92.113 57.3803C87.1756 58.2635 84.3448 54.0681 86.1467 49.568C87.1801 46.9889 88.6617 44.5908 89.9402 42.1089C90.1345 41.7313 90.3134 41.3449 90.5011 40.9629H69.7072C69.4687 43.0341 69.3495 44.9375 69.016 46.8078C68.0025 52.5224 65.9777 57.7535 61.6762 61.8517C57.547 65.7866 52.6649 67.6149 46.9215 67.1203C43.9914 66.8664 41.0788 66.4248 38.63 64.804C36.6957 63.5233 35.0087 61.8252 33.3769 60.1493C31.4271 58.1465 30.3076 57.7689 27.7064 58.6743C27.3796 58.7869 26.9711 58.6743 26.6024 58.6632C26.6355 58.279 26.5295 57.78 26.7305 57.5327C27.1068 57.0441 27.5933 56.6514 28.1503 56.3866C31.0363 55.1567 33.4498 56.1658 35.6093 58.1244C39.9417 62.0792 44.9696 63.7088 50.7526 62.4435C55.4493 61.4167 58.9426 58.5771 61.4996 54.6025C63.9506 50.789 65.5824 46.6532 66.1146 42.0979C66.2228 41.1815 65.9467 40.9938 65.1408 41.0424C63.9337 41.1219 62.7243 41.1719 61.5128 41.1925C59.6889 41.2212 59.6006 41.0998 59.9296 38.9888ZM48.847 23.1036C51.1589 21.4917 53.6077 21.3371 56.1184 21.4497C56.3193 21.4497 56.5843 21.2421 56.7278 21.0589C58.1587 19.2438 59.753 17.5259 60.9498 15.5651C63.3677 11.5904 61.769 7.2029 57.5029 5.55343C54.6566 11.3233 51.8125 17.0931 48.847 23.1036ZM180.414 50.0427L180.8 50.3143C181.084 50.1031 181.35 49.8698 181.597 49.6165C184.084 46.6775 186.612 43.7716 189.021 40.7686C191.85 37.2356 193.475 33.1174 194.561 28.7696C194.7 28.0589 194.797 27.3408 194.853 26.6189L194.437 26.5151C187.822 33.2058 183.788 41.4244 180.414 50.0317V50.0427ZM41.3659 63.7839C41.5026 63.9022 41.6464 64.0121 41.7965 64.1129C45.0822 66.0869 48.6417 66.7118 52.2873 65.6321C59.9804 63.3466 64.8073 58.2635 66.4789 50.3275C66.6467 49.526 66.766 48.7156 66.9205 47.8986C66.6227 48.0128 66.379 48.2352 66.2382 48.5213C64.5733 51.3919 63.1468 54.4457 61.1949 57.1109C57.7988 61.748 53.0535 64.2476 47.255 64.3734C45.2964 64.4463 43.3378 64.0047 41.3659 63.7839ZM33.1561 45.2356L32.9353 45.0413C31.9218 46.3883 30.9149 47.7396 29.8925 49.0778C27.0219 52.8316 24.2353 56.6582 21.2389 60.3083C18.4831 63.6779 15.3432 66.6544 11.6578 69.0105C10.6818 69.631 9.78532 70.3773 8.721 71.1612C9.26862 71.4438 9.66387 71.6227 10.0326 71.8457C11.1654 72.5324 12.095 72.2101 12.9407 71.3224C14.9678 69.196 17.0633 67.127 19.0197 64.9453C23.3483 60.0967 27.263 54.8938 30.7227 49.3913C31.5729 48.0377 32.3457 46.6334 33.1561 45.2533V45.2356ZM164.44 54.8189C165.661 54.8675 167.752 53.494 168.123 52.4032C168.163 52.2314 168.156 52.052 168.101 51.8843C167.938 51.2019 167.57 50.5855 167.047 50.1173C166.525 49.649 165.872 49.3511 165.175 49.2632C163.409 49.0181 161.47 50.4468 161.324 52.0963C161.185 53.6994 162.393 54.7548 164.44 54.8365V54.8189ZM101.729 54.852C103.129 54.916 105.483 53.2114 105.499 52.1272C105.512 50.8906 103.803 49.3714 102.29 49.2765C100.484 49.1595 98.6446 50.7361 98.5894 52.4518C98.5497 53.7678 99.8812 54.7858 101.732 54.8697L101.729 54.852ZM53.9456 23.7638C51.945 23.6578 50.3618 23.8941 49.0369 25.0202C48.7874 25.2411 48.7344 25.6827 48.5953 26.0183C48.9552 26.1265 49.3372 26.3716 49.6707 26.3164C51.3003 26.0514 52.6008 25.1726 53.9456 23.7638Z" fill="#2C3832"/>
<path d="M76.5913 56.3005C72.1 56.4043 70.0509 53.0546 70.3534 50.014C70.5985 47.5188 71.9697 45.6839 74.2308 44.6659C76.1961 43.7827 78.2607 43.5155 80.4268 44.136C84.3882 45.2731 85.3289 49.3427 83.5425 52.4098C82.8277 53.6118 81.8089 54.6042 80.5886 55.2872C79.3683 55.9702 77.9896 56.3197 76.5913 56.3005ZM76.5913 54.1366C79.0666 54.1211 81.0827 52.8117 81.946 50.6411C82.7189 48.7024 81.7981 46.8078 79.7975 46.205C77.9162 45.6353 76.174 46.0107 74.5532 47.0264C72.9325 48.0421 72.1596 49.9654 72.6366 51.5508C73.1886 53.3615 74.392 54.1476 76.5913 54.1366Z" fill="#2C3832"/>
<path d="M142.705 41.6541C141.159 41.6165 139.984 40.6118 140.002 39.3311C140.02 38.0504 141.219 37.0545 142.756 37.0766C144.244 37.0965 145.507 38.1807 145.481 39.404C145.454 40.6273 144.18 41.6872 142.705 41.6541Z" fill="#2C3832"/>
<path d="M23.6043 55.1722C23.1958 52.7432 22.3104 51.9218 20.1597 51.9726C17.2206 52.0432 14.3766 51.6656 11.7202 50.3805C9.7329 49.4156 8.06356 47.9715 6.445 46.4832C3.8532 44.1472 2.00949 41.0974 1.14551 37.7169C0.802032 36.4673 0.828879 35.1448 1.22279 33.9101C1.56284 32.8966 1.40606 31.872 1.43256 30.8497C1.45017 29.8224 1.63898 28.8052 1.99122 27.84C2.21203 27.2637 2.48142 27.1135 3.03566 27.5772C5.83777 29.9178 8.6178 32.2916 11.4265 34.6145C13.193 36.0653 14.7564 37.7633 16.7437 38.9491C18.3247 39.8897 19.5303 39.6844 20.1486 38.3109C20.4975 37.5381 19.9477 37.0037 19.707 36.4097C19.4199 35.6833 18.7089 35.2615 18.19 34.6984C17.3244 33.7622 16.4677 32.8105 15.697 31.7948C14.8138 30.6421 13.7583 29.8074 12.365 29.3945C11.5414 29.1516 11.0401 28.434 10.5676 27.8488C9.71303 26.7978 8.71496 25.8902 7.84275 24.8612C6.43176 23.1963 6.29706 22.5295 7.60206 20.8358C8.38166 19.7824 9.31941 18.8558 10.3821 18.0889C11.4861 17.3183 11.9543 16.0089 12.8508 15.0461C13.4721 14.4126 14.1361 13.8224 14.8381 13.2796C15.2135 12.9727 15.421 13.2443 15.5513 13.6131C16.6841 16.8104 18.4528 19.7097 19.824 22.7922C20.7934 24.9716 21.8533 27.0649 23.4652 28.8403C24.057 29.4917 24.6797 30.132 25.6733 30.0746C26.4926 30.0305 26.89 29.6087 27.0358 28.7895C27.3537 26.9943 26.2452 25.7158 25.4349 24.3732C23.4233 21.0346 21.8224 17.5281 20.9457 13.7279C20.7249 12.7673 20.5858 11.7847 20.4357 10.811C20.2634 9.70689 20.6565 9.02678 21.9637 8.488C24.1078 7.60475 26.1591 6.38146 28.6433 6.64422C29.3631 6.72151 29.9858 6.12973 30.6681 5.87579C31.8517 5.43417 31.9201 5.46729 31.9245 6.69501C31.9245 7.32211 31.9555 7.94922 31.9025 8.57191C31.7104 10.7911 32.0946 12.9727 32.4192 15.1389C32.6257 16.519 33.2208 17.8118 34.1349 18.8662C34.9232 19.7627 36.0824 20.4119 37.2792 19.9967C38.688 19.5021 39.2864 18.153 39.3372 16.7486C39.4322 14.0304 39.3593 11.3056 39.3615 8.57854C39.3615 7.76815 39.3173 6.95336 39.3968 6.1496C39.6839 3.27904 41.0595 2.32072 44.0074 2.81975C46.7366 3.28346 49.4305 3.36295 52.1465 2.83741C52.1924 2.83219 52.2387 2.84145 52.279 2.86391C46.5026 22.2711 36.2525 39.245 23.6043 55.1722Z" fill="#2C3832"/>
</svg>
