<svg width="70" height="70" viewBox="0 0 70 70" fill="none" xmlns="http://www.w3.org/2000/svg">
<path d="M34.6084 0C15.4965 0 0 15.4965 0 34.6084C0 53.7203 15.4965 69.2169 34.6084 69.2169C53.7203 69.2169 69.2169 53.7203 69.2169 34.6084C69.2169 15.4965 53.7203 0 34.6084 0ZM34.6084 63.3458C18.7411 63.3458 5.87107 50.4758 5.87107 34.6084C5.87107 18.7411 18.7411 5.87107 34.6084 5.87107C50.4758 5.87107 63.3458 18.7411 63.3458 34.6084C63.3458 50.4758 50.4758 63.3458 34.6084 63.3458Z" fill="#C1D788"/>
<path d="M46.3975 43.0027L35.3815 35.0382V15.9185C35.3815 15.5786 35.1034 15.3005 34.7635 15.3005H31.0477C30.7078 15.3005 30.4297 15.5786 30.4297 15.9185V37.1935C30.4297 37.3943 30.5224 37.5797 30.6846 37.6956L43.4619 47.0121C43.74 47.2129 44.1263 47.1511 44.3271 46.8807L46.5365 43.8679C46.7374 43.5821 46.6756 43.1959 46.3975 43.0027Z" fill="#C1D788"/>
</svg>
