<svg width="21" height="7" viewBox="0 0 21 7" fill="none" xmlns="http://www.w3.org/2000/svg">
<path d="M20.7844 3.10766L15.7608 0.0607511C15.5545 -0.0643217 15.2908 0.00992484 15.1717 0.226548C15.0526 0.443217 15.1234 0.720225 15.3296 0.845343L18.9609 3.04782H0.431212C0.193053 3.04782 0 3.25067 0 3.50082C0 3.75092 0.193053 3.95382 0.431212 3.95382H18.958L15.3296 6.15462C15.1233 6.27973 15.0526 6.55674 15.1717 6.77341C15.2516 6.91873 15.3965 7 15.5456 7C15.6187 7 15.6929 6.98034 15.7608 6.93921L20.7844 3.89225C20.9178 3.81135 21 3.66177 21 3.49996C21 3.33815 20.9178 3.18857 20.7844 3.10766Z" fill="#E29520"/>
</svg>
