<svg width="679" height="410" viewBox="0 0 679 410" fill="none" xmlns="http://www.w3.org/2000/svg">
<path d="M668.061 409.061C667.475 409.646 666.525 409.646 665.939 409.061L656.393 399.515C655.808 398.929 655.808 397.979 656.393 397.393C656.979 396.808 657.929 396.808 658.515 397.393L667 405.879L675.485 397.393C676.071 396.808 677.021 396.808 677.607 397.393C678.192 397.979 678.192 398.929 677.607 399.515L668.061 409.061ZM297.27 206.615L297.583 205.148L297.27 206.615ZM665.5 408C665.5 406.547 665.455 405.098 665.367 403.655L668.361 403.471C668.454 404.976 668.5 406.485 668.5 408H665.5ZM664.307 395.052C663.784 392.225 663.089 389.416 662.227 386.625L665.093 385.739C665.989 388.639 666.712 391.561 667.257 394.506L664.307 395.052ZM659.209 378.466C658.077 375.842 656.795 373.234 655.366 370.641L657.993 369.193C659.467 371.866 660.792 374.561 661.964 377.278L659.209 378.466ZM650.82 363.184C649.233 360.81 647.522 358.45 645.688 356.104L648.051 354.256C649.929 356.658 651.684 359.078 653.314 361.517L650.82 363.184ZM640.071 349.389C638.166 347.253 636.158 345.129 634.05 343.019L636.173 340.899C638.319 343.047 640.365 345.212 642.31 347.392L640.071 349.389ZM627.691 336.965C625.559 335.031 623.343 333.109 621.043 331.199L622.96 328.891C625.292 330.828 627.541 332.779 629.707 334.743L627.691 336.965ZM614.142 325.692C611.847 323.931 609.481 322.18 607.044 320.439L608.788 317.998C611.251 319.758 613.645 321.529 615.969 323.313L614.142 325.692ZM599.824 315.448C597.419 313.838 594.954 312.237 592.43 310.646L594.03 308.108C596.576 309.714 599.064 311.329 601.493 312.955L599.824 315.448ZM584.872 306.016C582.384 304.533 579.844 303.059 577.253 301.593L578.73 298.982C581.34 300.458 583.9 301.944 586.408 303.439L584.872 306.016ZM569.538 297.335C566.965 295.949 564.347 294.571 561.684 293.201L563.056 290.533C565.736 291.912 568.371 293.298 570.961 294.693L569.538 297.335ZM553.814 289.24C551.202 287.954 548.551 286.675 545.86 285.403L547.141 282.691C549.847 283.97 552.513 285.256 555.14 286.549L553.814 289.24ZM537.795 281.668C535.153 280.468 532.477 279.275 529.766 278.089L530.968 275.34C533.692 276.532 536.381 277.731 539.035 278.936L537.795 281.668ZM521.61 274.585C518.925 273.453 516.208 272.326 513.46 271.206L514.592 268.428C517.352 269.553 520.08 270.684 522.776 271.821L521.61 274.585ZM505.245 267.914C502.521 266.84 499.768 265.773 496.986 264.711L498.056 261.908C500.848 262.974 503.611 264.045 506.346 265.123L505.245 267.914ZM488.721 261.606C485.966 260.587 483.184 259.574 480.376 258.566L481.39 255.742C484.207 256.753 486.998 257.77 489.762 258.793L488.721 261.606ZM472.066 255.628C469.286 254.659 466.482 253.696 463.654 252.738L464.616 249.896C467.453 250.857 470.265 251.823 473.053 252.795L472.066 255.628ZM455.301 249.948C452.502 249.026 449.681 248.11 446.837 247.199L447.753 244.342C450.604 245.255 453.433 246.174 456.24 247.099L455.301 249.948ZM438.442 244.543C435.628 243.665 432.794 242.791 429.939 241.923L430.812 239.053C433.674 239.923 436.515 240.799 439.336 241.679L438.442 244.543ZM421.502 239.389C418.677 238.552 415.832 237.719 412.969 236.891L413.803 234.009C416.672 234.839 419.523 235.673 422.355 236.513L421.502 239.389ZM404.49 234.468C401.656 233.668 398.805 232.873 395.936 232.083L396.733 229.19C399.608 229.982 402.465 230.779 405.305 231.581L404.49 234.468ZM387.414 229.762C384.574 228.998 381.717 228.238 378.844 227.483L379.607 224.581C382.485 225.338 385.348 226.099 388.194 226.865L387.414 229.762ZM370.28 225.257C367.435 224.526 364.575 223.799 361.7 223.077L362.43 220.167C365.311 220.891 368.176 221.619 371.026 222.351L370.28 225.257ZM353.092 220.939C350.244 220.239 347.381 219.544 344.505 218.853L345.206 215.936C348.087 216.628 350.954 217.324 353.807 218.025L353.092 220.939ZM335.854 216.797C333.004 216.127 330.14 215.461 327.264 214.799L327.936 211.876C330.817 212.539 333.686 213.205 336.541 213.877L335.854 216.797ZM318.596 212.827C315.736 212.183 312.863 211.543 309.979 210.907L310.625 207.978C313.514 208.614 316.391 209.255 319.255 209.9L318.596 212.827ZM301.315 209.018C299.865 208.705 298.413 208.393 296.957 208.082L297.583 205.148C299.041 205.46 300.496 205.772 301.948 206.085L301.315 209.018ZM296.957 208.082C295.432 207.757 293.913 207.429 292.401 207.099L293.04 204.168C294.548 204.497 296.062 204.824 297.583 205.148L296.957 208.082ZM283.412 205.099C280.413 204.418 277.441 203.729 274.497 203.032L275.188 200.113C278.123 200.807 281.086 201.494 284.076 202.173L283.412 205.099ZM265.515 200.863C262.536 200.129 259.585 199.386 256.664 198.636L257.41 195.731C260.322 196.478 263.263 197.218 266.233 197.95L265.515 200.863ZM247.705 196.288C244.743 195.495 241.811 194.695 238.911 193.886L239.716 190.996C242.607 191.802 245.528 192.6 248.48 193.39L247.705 196.288ZM229.992 191.347C227.045 190.49 224.131 189.625 221.249 188.752L222.119 185.881C224.99 186.751 227.893 187.613 230.83 188.466L229.992 191.347ZM212.393 186.011C209.46 185.084 206.561 184.148 203.697 183.204L204.637 180.355C207.489 181.295 210.376 182.227 213.297 183.151L212.393 186.011ZM194.929 180.249C192.009 179.243 189.127 178.229 186.282 177.206L187.297 174.383C190.129 175.401 192.999 176.411 195.905 177.412L194.929 180.249ZM177.629 174.024C174.725 172.932 171.861 171.831 169.038 170.721L170.136 167.929C172.945 169.033 175.794 170.129 178.684 171.216L177.629 174.024ZM160.532 167.299C157.647 166.111 154.806 164.914 152.009 163.708L153.197 160.953C155.978 162.153 158.804 163.343 161.673 164.524L160.532 167.299ZM143.631 160.008C140.791 158.723 137.997 157.428 135.252 156.124L136.539 153.414C139.268 154.71 142.044 155.997 144.868 157.274L143.631 160.008ZM126.963 152.087C124.196 150.704 121.48 149.312 118.814 147.911L120.21 145.255C122.857 146.647 125.555 148.03 128.303 149.403L126.963 152.087ZM110.673 143.514C107.945 142 105.273 140.477 102.657 138.943L104.175 136.355C106.769 137.876 109.42 139.388 112.128 140.891L110.673 143.514ZM94.7904 134.197C92.1437 132.554 89.559 130.901 87.0352 129.238L88.686 126.733C91.1867 128.381 93.7487 130.02 96.3727 131.649L94.7904 134.197ZM79.3819 124.034C76.8222 122.238 74.3312 120.431 71.908 118.615L73.7072 116.214C76.1049 118.012 78.5706 119.8 81.1052 121.578L79.3819 124.034ZM64.6241 112.964C62.189 111.008 59.8298 109.042 57.5454 107.066L59.5078 104.797C61.7642 106.748 64.0956 108.692 66.5031 110.626L64.6241 112.964ZM50.6917 100.904C48.4004 98.7603 46.1943 96.6072 44.0721 94.4458L46.2127 92.344C48.3046 94.4745 50.4803 96.5979 52.7412 98.7132L50.6917 100.904ZM37.7388 87.6963C35.6432 85.3561 33.6427 83.0077 31.7357 80.6524L34.0673 78.7646C35.9423 81.0804 37.9105 83.391 39.9737 85.695L37.7388 87.6963ZM26.104 73.3064C24.2609 70.7616 22.5239 68.2107 20.8906 65.6554L23.4185 64.0398C25.0197 66.5451 26.724 69.048 28.5337 71.5467L26.104 73.3064ZM16.1433 57.6949C14.6164 54.9394 13.2072 52.1812 11.9132 49.4223L14.6293 48.1483C15.8942 50.8451 17.2726 53.5433 18.7674 56.2408L16.1433 57.6949ZM8.26886 40.8738C7.14203 37.9395 6.14264 35.0074 5.26758 32.0802L8.14185 31.2209C8.99487 34.0742 9.9696 36.9342 11.0695 39.7984L8.26886 40.8738ZM2.96167 23.0819C2.30658 20.0186 1.7854 16.9643 1.39441 13.9223L4.36993 13.5398C4.75037 16.4993 5.25751 19.4719 5.89532 22.4546L2.96167 23.0819ZM0.599548 4.6446C0.53302 3.09201 0.5 1.54367 0.5 0H3.5C3.5 1.50089 3.5321 3.00641 3.5968 4.51614L0.599548 4.6446Z" fill="#C1D788"/>
</svg>
