<svg width="76" height="57" viewBox="0 0 76 57" fill="none" xmlns="http://www.w3.org/2000/svg">
<path d="M71.25 0H4.75C3.49022 0 2.28204 0.500445 1.39124 1.39124C0.500445 2.28204 0 3.49022 0 4.75V52.25C0 53.5098 0.500445 54.718 1.39124 55.6088C2.28204 56.4996 3.49022 57 4.75 57H71.25C72.5098 57 73.718 56.4996 74.6088 55.6088C75.4996 54.718 76 53.5098 76 52.25V4.75C76 3.49022 75.4996 2.28204 74.6088 1.39124C73.718 0.500445 72.5098 0 71.25 0ZM67.5925 52.25H8.6925L25.3175 35.055L21.8975 31.7538L4.75 49.495V8.36L34.2713 37.7387C35.1612 38.6234 36.3651 39.12 37.62 39.12C38.8749 39.12 40.0788 38.6234 40.9688 37.7387L71.25 7.62375V49.1862L53.77 31.7063L50.4212 35.055L67.5925 52.25ZM7.86125 4.75H67.4025L37.62 34.3662L7.86125 4.75Z" fill="#C1D788"/>
</svg>
