<svg width="68" height="81" viewBox="0 0 68 81" fill="none" xmlns="http://www.w3.org/2000/svg">
<path d="M33.994 4C26.042 4.00888 18.4183 7.00396 12.7954 12.3282C7.17249 17.6525 4.00941 24.8712 4.00003 32.4009C3.99051 38.5541 6.11319 44.5404 10.0424 49.4414C10.0424 49.4414 10.8605 50.4613 10.9941 50.6085L33.994 76.2932L57.0048 50.5955C57.1248 50.4587 57.9455 49.4414 57.9455 49.4414L57.9482 49.4337C61.8756 44.5348 63.9973 38.5513 63.9879 32.4009C63.9785 24.8712 60.8155 17.6525 55.1925 12.3282C49.5696 7.00396 41.946 4.00888 33.994 4V4ZM33.994 42.7285C31.8368 42.7285 29.7281 42.1228 27.9344 40.988C26.1408 39.8532 24.7428 38.2402 23.9173 36.3531C23.0918 34.466 22.8758 32.3894 23.2967 30.3861C23.7175 28.3827 24.7563 26.5425 26.2816 25.0982C27.807 23.6538 29.7504 22.6702 31.8662 22.2717C33.9819 21.8732 36.1749 22.0778 38.1679 22.8594C40.1608 23.6411 41.8643 24.9648 43.0627 26.6632C44.2612 28.3616 44.9009 30.3583 44.9009 32.4009C44.8973 35.1389 43.747 37.7638 41.7023 39.6998C39.6577 41.6359 36.8856 42.7251 33.994 42.7285V42.7285Z" stroke="#C1D788" stroke-width="6.15261"/>
</svg>
