<svg width="76" height="76" viewBox="0 0 76 76" fill="none" xmlns="http://www.w3.org/2000/svg">
<path d="M54.5734 74.8313C25.0326 74.8313 1 50.7988 1 21.2579C1.00533 16.2993 2.81559 11.5122 6.09264 7.79082C9.36969 4.06942 13.8894 1.66826 18.8075 1.03583C19.9392 0.903352 21.0834 1.14038 22.0693 1.71153C23.0552 2.28268 23.83 3.15734 24.278 4.20496L31.8613 21.8993C32.2053 22.6999 32.3474 23.5727 32.275 24.4411C32.2026 25.3094 31.9181 26.1467 31.4463 26.8794L25.1458 36.4622C25.0835 36.5703 25.0476 36.6915 25.0411 36.8161C25.0345 36.9407 25.0575 37.065 25.108 37.179C28.006 43.1209 32.8157 47.9172 38.7655 50.7988C38.881 50.8506 39.0082 50.8709 39.1341 50.8577C39.26 50.8444 39.3801 50.7981 39.4823 50.7233L48.952 44.4228C49.6774 43.9354 50.5138 43.6385 51.3841 43.5594C52.2544 43.4802 53.1307 43.6215 53.9321 43.97L71.6264 51.5533C72.674 52.0013 73.5487 52.7761 74.1198 53.7621C74.691 54.748 74.928 55.8922 74.7955 57.0238C74.1631 61.9419 71.7619 66.4616 68.0405 69.7387C64.3191 73.0157 59.532 74.826 54.5734 74.8313ZM19.4489 5.52543H19.3734C15.5522 6.02772 12.043 7.89903 9.49673 10.7922C6.95048 13.6853 5.54013 17.4039 5.52733 21.2579C5.53732 34.2627 10.7079 46.7319 19.9036 55.9277C29.0994 65.1235 41.5687 70.294 54.5734 70.304C58.4275 70.2912 62.146 68.8809 65.0392 66.3346C67.9323 63.7884 69.8036 60.2791 70.3059 56.4579C70.3188 56.3006 70.2821 56.1432 70.2009 56.0078C70.1197 55.8725 69.9981 55.766 69.8532 55.7034L52.1589 48.1201C52.0419 48.0751 51.916 48.0585 51.7914 48.0716C51.6668 48.0847 51.547 48.1272 51.442 48.1955L42.0101 54.4961C41.2464 54.9977 40.3672 55.2957 39.4559 55.3617C38.5447 55.4278 37.6316 55.2596 36.8036 54.8734C29.9411 51.5325 24.3907 45.9954 21.0334 39.1409C20.6414 38.3227 20.4666 37.4173 20.5261 36.512C20.5856 35.6067 20.8773 34.732 21.373 33.9722L27.6358 24.3893C27.7106 24.2871 27.7569 24.167 27.7702 24.0411C27.7834 23.9152 27.7631 23.788 27.7113 23.6725L20.128 5.97817C20.0701 5.84553 19.9753 5.73233 19.8549 5.65206C19.7345 5.57179 19.5936 5.52783 19.4489 5.52543Z" fill="#C1D788" stroke="#C1D788" stroke-width="1.53815"/>
</svg>
