<svg width="39" height="13" viewBox="0 0 39 13" fill="none" xmlns="http://www.w3.org/2000/svg">
<path d="M38.5996 5.54995L29.27 0.16355C28.887 -0.0575572 28.3973 0.0736977 28.1761 0.45665C27.9549 0.839683 28.0862 1.32938 28.4692 1.55057L35.2132 5.44417H0.800821C0.358528 5.44417 0 5.80277 0 6.24499C0 6.68712 0.358528 7.04581 0.800821 7.04581H35.2078L28.4692 10.9364C28.0862 11.1576 27.9549 11.6473 28.1761 12.0304C28.3245 12.2873 28.5936 12.4309 28.8703 12.4309C29.0061 12.4309 29.1439 12.3962 29.27 12.3235L38.5996 6.93698C38.8474 6.79395 39 6.52952 39 6.24346C39 5.95741 38.8474 5.69298 38.5996 5.54995Z" fill="#4B6256"/>
</svg>
