<svg width="38" height="38" viewBox="0 0 38 38" fill="none" xmlns="http://www.w3.org/2000/svg">
<path d="M18.7115 37.48C16.0058 37.4759 13.3331 36.8859 10.8771 35.7507C8.42113 34.6154 6.24009 32.9618 4.48392 30.9035C2.72775 28.8452 1.43811 26.4311 0.703648 23.827C-0.0308114 21.2229 -0.192673 18.4907 0.229193 15.8181C0.65106 13.1455 1.64665 10.596 3.14752 8.34471C4.64839 6.09347 6.61894 4.19392 8.92373 2.77665C11.2285 1.35938 13.8129 0.457999 16.4991 0.134462C19.1854 -0.189074 21.9099 0.0729113 24.4852 0.902409C24.5641 0.927848 24.6371 0.968624 24.7002 1.02239C24.7632 1.07616 24.815 1.14186 24.8525 1.21571C24.8901 1.28957 24.9127 1.37012 24.919 1.45273C24.9253 1.53534 24.9152 1.61839 24.8893 1.69709C24.8644 1.77577 24.8241 1.84872 24.7707 1.91171C24.7174 1.97471 24.6521 2.02649 24.5786 2.06407C24.5051 2.10166 24.4249 2.12428 24.3426 2.13065C24.2603 2.13702 24.1775 2.12699 24.0991 2.10116C23.4848 1.90289 22.8597 1.73951 22.2269 1.61178C18.3365 0.81122 14.2895 1.36029 10.753 3.16847C7.21657 4.97666 4.40188 7.93599 2.77301 11.5585C1.14415 15.1811 0.798384 19.2506 1.79272 23.096C2.78705 26.9414 5.06212 30.3332 8.24281 32.7121C11.4235 35.091 15.3199 36.315 19.2896 36.1823C23.2593 36.0496 27.0652 34.5681 30.0799 31.982C33.0946 29.396 35.1381 25.8598 35.8733 21.9566C36.6086 18.0533 35.9918 14.016 34.1246 10.5104C34.0857 10.4372 34.0616 10.3572 34.0536 10.2748C34.0456 10.1923 34.054 10.1091 34.0782 10.0299C34.1023 9.9507 34.1419 9.87702 34.1945 9.81309C34.2472 9.74916 34.3119 9.69623 34.385 9.65732C34.4581 9.61841 34.5382 9.59427 34.6206 9.5863C34.7031 9.57832 34.7863 9.58667 34.8655 9.61085C34.9447 9.63503 35.0184 9.67458 35.0823 9.72723C35.1462 9.77988 35.1992 9.84461 35.2381 9.91772C36.7592 12.7739 37.5152 15.9752 37.4325 19.2102C37.3498 22.4452 36.4312 25.6037 34.7661 28.3784C33.101 31.1532 30.746 33.4497 27.9303 35.0446C25.1146 36.6395 21.9341 37.4785 18.698 37.48H18.7115Z" fill="#C1D788"/>
<path d="M31.4314 6.4518C31.3484 6.45324 31.2659 6.4381 31.1888 6.40726C31.1117 6.37642 31.0416 6.33051 30.9824 6.27221C30.5344 5.83035 30.0623 5.41367 29.5682 5.02408C29.1911 4.72327 28.796 4.43593 28.3964 4.17104C28.2703 4.07283 28.186 3.93056 28.1605 3.7728C28.1349 3.61503 28.17 3.45345 28.2587 3.32047C28.3473 3.18749 28.483 3.09297 28.6384 3.05587C28.7939 3.01877 28.9576 3.04184 29.0968 3.12045C29.5457 3.40779 29.9453 3.71309 30.3539 4.01839C30.8823 4.43958 31.3874 4.88921 31.8669 5.3653C31.9567 5.45322 32.018 5.56603 32.043 5.68916C32.0681 5.81229 32.0556 5.9401 32.0073 6.05609C31.959 6.17207 31.877 6.27091 31.7719 6.33984C31.6669 6.40878 31.5436 6.44465 31.4179 6.44282L31.4314 6.4518Z" fill="#C1D788"/>
<path fill-rule="evenodd" clip-rule="evenodd" d="M25.6969 10.0003C25.9509 9.89152 26.2288 9.854 26.5018 9.89165C26.7748 9.9293 27.0329 10.0407 27.2493 10.2144C27.4656 10.388 27.6322 10.6175 27.7319 10.879C27.8315 11.1404 27.8605 11.4243 27.8158 11.701L25.4853 26.09C25.2592 27.478 23.7631 28.2739 22.5125 27.5826C21.4665 27.0042 19.9128 26.113 18.5154 25.1832C17.8166 24.7177 15.6762 23.2273 15.9393 22.1667C16.1653 21.2599 19.7618 17.8522 21.8169 15.8262C22.6235 15.0302 22.2557 14.5711 21.3031 15.3032C18.9367 17.1211 15.1398 19.8855 13.8842 20.6637C12.7765 21.3498 12.199 21.467 11.5085 21.3498C10.2487 21.1364 9.08035 20.8059 8.12677 20.4032C6.83822 19.8593 6.9009 18.0561 8.12575 17.5311L25.6969 10.0003V10.0003Z" stroke="#C1D788" stroke-width="1.34691"/>
</svg>
