<svg width="39" height="38" viewBox="0 0 39 38" fill="none" xmlns="http://www.w3.org/2000/svg">
<path d="M19.5884 37.48C16.8828 37.4759 14.2101 36.8859 11.7541 35.7507C9.29808 34.6154 7.11704 32.9618 5.36087 30.9035C3.6047 28.8452 2.31506 26.4311 1.5806 23.827C0.846142 21.2229 0.68428 18.4907 1.10615 15.8181C1.52801 13.1455 2.5236 10.596 4.02447 8.34471C5.52534 6.09347 7.4959 4.19392 9.80068 2.77665C12.1055 1.35938 14.6898 0.457999 17.3761 0.134462C20.0623 -0.189074 22.7868 0.0729113 25.3622 0.902409C25.441 0.927848 25.5141 0.968624 25.5771 1.02239C25.6402 1.07616 25.6919 1.14186 25.7295 1.21571C25.7671 1.28957 25.7896 1.37012 25.7959 1.45273C25.8023 1.53534 25.7922 1.61839 25.7663 1.69709C25.7413 1.77577 25.701 1.84872 25.6477 1.91171C25.5943 1.97471 25.529 2.02649 25.4555 2.06407C25.382 2.10166 25.3018 2.12428 25.2195 2.13065C25.1372 2.13702 25.0545 2.12699 24.9761 2.10116C24.3617 1.90289 23.7367 1.73951 23.1039 1.61178C19.2135 0.81122 15.1664 1.36029 11.63 3.16847C8.09352 4.97666 5.27883 7.93599 3.64997 11.5585C2.02111 15.1811 1.67534 19.2506 2.66967 23.096C3.664 26.9414 5.93907 30.3332 9.11976 32.7121C12.3004 35.091 16.1969 36.315 20.1665 36.1823C24.1362 36.0496 27.9422 34.5681 30.9569 31.982C33.9716 29.396 36.015 25.8598 36.7503 21.9566C37.4856 18.0533 36.8688 14.016 35.0016 10.5104C34.9627 10.4372 34.9385 10.3572 34.9306 10.2748C34.9226 10.1923 34.9309 10.1091 34.9551 10.0299C34.9793 9.9507 35.0188 9.87702 35.0715 9.81309C35.1241 9.74916 35.1889 9.69623 35.262 9.65732C35.3351 9.61841 35.4152 9.59427 35.4976 9.5863C35.58 9.57832 35.6632 9.58667 35.7424 9.61085C35.8216 9.63503 35.8953 9.67458 35.9593 9.72723C36.0232 9.77988 36.0761 9.84461 36.115 9.91772C37.6362 12.7739 38.3922 15.9752 38.3095 19.2102C38.2267 22.4452 37.3082 25.6037 35.643 28.3784C33.9779 31.1532 31.623 33.4497 28.8073 35.0446C25.9916 36.6395 22.811 37.4785 19.575 37.48H19.5884Z" fill="#C1D788"/>
<path d="M32.3084 6.4518C32.2253 6.45324 32.1429 6.4381 32.0658 6.40726C31.9887 6.37642 31.9185 6.33051 31.8594 6.27221C31.4114 5.83035 30.9393 5.41367 30.4451 5.02408C30.068 4.72327 29.6729 4.43593 29.2733 4.17104C29.1472 4.07283 29.063 3.93056 29.0374 3.7728C29.0119 3.61503 29.047 3.45345 29.1356 3.32047C29.2243 3.18749 29.3599 3.09297 29.5154 3.05587C29.6708 3.01877 29.8346 3.04184 29.9737 3.12045C30.4227 3.40779 30.8223 3.71309 31.2308 4.01839C31.7592 4.43958 32.2643 4.88921 32.7439 5.3653C32.8336 5.45322 32.895 5.56603 32.92 5.68916C32.945 5.81229 32.9326 5.9401 32.8842 6.05609C32.8359 6.17207 32.7539 6.27091 32.6489 6.33984C32.5438 6.40878 32.4205 6.44465 32.2949 6.44282L32.3084 6.4518Z" fill="#C1D788"/>
<path d="M19.5288 9.87744C18.1795 9.87744 14.8416 10.0205 13.0662 11.7377C11.7879 12.954 11.2907 14.8143 11.2197 17.0323C11.0777 20.5382 11.8589 22.7563 13.1372 23.901C13.4213 24.1157 14.1314 24.6881 15.4808 25.1174V26.9061C15.4808 26.9061 15.4808 27.6216 15.9069 27.7647C15.9779 27.7647 16.0489 27.8362 16.1199 27.8362C16.546 27.8362 16.9011 27.3354 17.3983 26.8345C17.8244 26.3337 18.1795 25.976 18.3925 25.6182H19.9549C21.3042 25.6182 24.6421 25.4751 26.4175 23.7579C27.6958 22.4701 28.193 20.6098 28.193 18.2487C28.264 17.8909 28.264 17.4616 28.264 17.0323C28.193 14.385 27.4118 12.5963 26.3465 11.5946C25.9204 11.2369 24.0739 9.87744 20.0969 9.87744H19.5288V9.87744ZM19.3868 11.2369H20.0259C23.7899 11.2369 25.2102 12.4532 25.3522 12.5963C26.2045 13.3118 26.7016 14.8859 26.7726 16.9608V17.247C26.8436 17.6763 26.8436 18.034 26.8436 18.2487C26.7726 20.3951 26.3465 21.8261 25.4943 22.7563C24.0029 24.1157 20.8781 24.1872 20.0259 24.1872H18.6766L17.5403 25.4751L16.8301 26.2621L16.6881 26.4768C16.546 26.6199 16.333 26.9061 16.191 26.9776V23.7579C14.7706 23.4002 14.2025 22.8993 14.0604 22.7563C13.0662 21.8977 12.498 19.8227 12.6401 17.0323V16.3168C12.7821 14.5997 13.2082 13.4549 13.9184 12.6679C15.4098 11.3084 18.5345 11.2369 19.3868 11.2369V11.2369ZM19.3157 12.8109C18.9606 12.8109 18.9606 13.3118 19.3157 13.3118C21.9434 13.3118 24.216 15.1005 24.216 18.4633C24.216 18.8211 24.7131 18.8211 24.7131 18.4633C24.7131 14.8143 22.2985 12.7394 19.3157 12.8109V12.8109ZM16.5013 13.4728C16.3404 13.4533 16.1783 13.498 16.0496 13.5973C15.3395 13.955 14.6286 14.6719 14.8416 15.459C14.8416 15.459 14.9837 16.1022 15.7648 17.4616C16.191 18.1056 16.546 18.678 16.9011 19.1073C17.2562 19.6081 17.8244 20.1805 18.3925 20.6098C19.5288 21.5399 21.3042 22.4701 22.0854 22.6847C22.7956 22.8993 23.5768 22.1839 23.9319 21.4684C24.0739 21.1822 24.0029 20.8244 23.7188 20.6098C23.2927 20.1805 22.5826 19.6796 22.0854 19.3935C21.7303 19.1788 21.3042 19.3219 21.1622 19.5365L20.8071 19.9658C20.6651 20.1805 20.31 20.1805 20.31 20.1805C17.9664 19.5365 17.3272 17.1039 17.3272 17.1039C17.3272 17.1039 17.3272 16.8177 17.5403 16.603L17.9664 16.2453C18.1795 16.1022 18.3215 15.6729 18.1084 15.3152C17.9664 15.1005 17.7533 14.6712 17.5403 14.4566C17.3272 14.1704 16.9011 13.6695 16.9011 13.6695C16.7934 13.5608 16.6526 13.4916 16.5013 13.4728V13.4728ZM19.8129 14.2419C19.4578 14.1704 19.3868 14.7428 19.7418 14.7428C21.7303 14.8859 22.8666 16.2453 22.7956 17.9625C22.7246 18.3202 23.2927 18.3202 23.2927 17.9625C23.3637 15.9591 22.0854 14.3135 19.8129 14.2419V14.2419ZM20.0259 15.6014C19.6708 15.5298 19.6708 16.1022 20.0259 16.1022C20.8781 16.1022 21.3042 16.603 21.3042 17.4616C21.3753 17.8194 21.8724 17.8194 21.8724 17.4616C21.8014 16.3168 21.1622 15.6014 20.0259 15.6014Z" fill="#C1D788"/>
</svg>
