<svg width="38" height="38" viewBox="0 0 38 38" fill="none" xmlns="http://www.w3.org/2000/svg">
<path d="M14.3264 16.5305C14.3232 16.1038 14.4073 15.681 14.5733 15.2879C14.7366 14.9015 14.9757 14.5519 15.2765 14.2597C15.4071 14.1199 15.5633 14.0062 15.7367 13.9249C15.9182 13.8397 16.1149 13.7917 16.3152 13.7837L16.3287 13.7831H16.3422C16.4509 13.7831 16.5503 13.7928 16.6167 13.7993L16.6214 13.7998C16.6916 13.8066 16.7255 13.8096 16.7526 13.81C16.7549 13.8099 16.7581 13.8096 16.7625 13.8093L16.7662 13.809C16.7824 13.8078 16.8178 13.8051 16.8559 13.8044C16.9455 13.8026 17.086 13.8096 17.2429 13.8726C17.5739 14.0054 17.7616 14.2927 17.8807 14.5815C17.9022 14.6335 17.9272 14.6943 17.9548 14.7612C18.0434 14.9764 18.1582 15.2553 18.2644 15.5108C18.3341 15.6783 18.3992 15.8339 18.4502 15.9536C18.487 16.0397 18.5098 16.0914 18.5208 16.1163C18.5276 16.1316 18.5299 16.1368 18.5282 16.1337L18.5297 16.1365L18.5297 16.1365C18.6135 16.293 18.6574 16.4678 18.6574 16.6453C18.6574 16.8229 18.6135 16.9977 18.5297 17.1541L18.5273 17.1586L18.5273 17.1586C18.5224 17.1675 18.5148 17.1823 18.505 17.2011C18.4727 17.2638 18.4173 17.3709 18.3663 17.4517L18.363 17.4569L18.363 17.4569C18.323 17.5188 18.2783 17.5775 18.2291 17.6325C18.1585 17.7173 18.0823 17.8086 18.0061 17.8964C18.2776 18.3092 18.5981 18.6879 18.9607 19.0243C19.384 19.3921 19.8612 19.6923 20.3754 19.9146C20.5462 19.7192 20.7093 19.5172 20.8642 19.3089C21.0127 19.0891 21.2419 18.9006 21.566 18.8664C21.8008 18.8416 22.0177 18.9153 22.1028 18.9443C22.1084 18.9462 22.1135 18.9479 22.1179 18.9494C22.2709 19.0004 22.6412 19.1767 22.9364 19.3186C23.1038 19.3991 23.2651 19.4775 23.3985 19.5424C23.3999 19.5431 23.4013 19.5437 23.4027 19.5444L23.6716 19.6427C23.9066 19.7286 24.123 19.8589 24.3089 20.0264L24.4838 20.1841L24.5223 20.4164C24.6006 20.8882 24.5402 21.3724 24.3487 21.8101C24.1762 22.274 23.7549 22.6167 23.4364 22.8209C23.0997 23.0369 22.6677 23.231 22.3103 23.2627C22.2855 23.2649 22.2813 23.2661 22.265 23.2706C22.2468 23.2756 22.2135 23.2848 22.1191 23.3042C21.9681 23.3354 21.7936 23.3535 21.5572 23.3308C21.1285 23.2896 20.4979 23.1126 19.3829 22.6757C18.1404 22.1887 17.1523 21.3271 16.4745 20.5971C16.1322 20.2286 15.8609 19.8847 15.6679 19.6231C15.5712 19.4921 15.4941 19.3815 15.4376 19.2989C15.4109 19.2599 15.3888 19.227 15.3724 19.2027L15.3698 19.1989C15.3599 19.1841 15.3541 19.1755 15.351 19.1709C15.3504 19.1701 15.35 19.1695 15.3496 19.1689C14.9594 18.6563 14.6604 18.0804 14.4656 17.4662L14.4635 17.4595L14.4615 17.4526C14.3734 17.1531 14.3279 16.8427 14.3264 16.5305ZM14.3264 16.5305C14.3264 16.5301 14.3263 16.5298 14.3263 16.5294L14.9998 16.5263L14.3264 16.5315C14.3264 16.5311 14.3264 16.5308 14.3264 16.5305ZM20.6003 20.0125C20.6003 20.0126 20.5986 20.012 20.5952 20.0104C20.5985 20.0116 20.6002 20.0124 20.6003 20.0125ZM11.1218 26.7813L12.3018 23.2973L12.4024 23.0003L12.2398 22.7321C11.4681 21.4595 11.0637 19.9981 11.0713 18.5097H11.0713V18.5063V18.1384C11.1881 16.022 12.1147 14.0315 13.6596 12.5797C15.2087 11.1238 17.2599 10.322 19.3856 10.3413C21.5114 10.3605 23.5477 11.1994 25.0701 12.6831C26.5448 14.1202 27.4272 16.0549 27.5485 18.1056V18.2818V18.5037C27.5366 19.9311 27.1546 21.331 26.4399 22.5667C25.7246 23.8032 24.7007 24.8328 23.4682 25.5549C22.2357 26.277 20.8369 26.6668 19.4086 26.6862C17.9803 26.7055 16.5715 26.3538 15.3199 25.6654L15.0666 25.5261L14.7911 25.6138L11.1218 26.7813Z" stroke="#C1D788" stroke-width="1.34691"/>
<path d="M19.149 37.48C16.4433 37.4759 13.7706 36.8859 11.3146 35.7507C8.85863 34.6154 6.67759 32.9618 4.92142 30.9035C3.16525 28.8452 1.87561 26.4311 1.14115 23.827C0.406689 21.2229 0.244827 18.4907 0.666693 15.8181C1.08856 13.1455 2.08415 10.596 3.58502 8.34471C5.08589 6.09347 7.05644 4.19392 9.36123 2.77665C11.666 1.35938 14.2504 0.457999 16.9366 0.134462C19.6229 -0.189074 22.3474 0.0729113 24.9227 0.902409C25.0016 0.927848 25.0746 0.968624 25.1377 1.02239C25.2007 1.07616 25.2525 1.14186 25.29 1.21571C25.3276 1.28957 25.3502 1.37012 25.3565 1.45273C25.3628 1.53534 25.3527 1.61839 25.3268 1.69709C25.3019 1.77577 25.2616 1.84872 25.2082 1.91171C25.1549 1.97471 25.0896 2.02649 25.0161 2.06407C24.9426 2.10166 24.8624 2.12428 24.7801 2.13065C24.6978 2.13702 24.615 2.12699 24.5366 2.10116C23.9223 1.90289 23.2972 1.73951 22.6644 1.61178C18.774 0.81122 14.727 1.36029 11.1905 3.16847C7.65407 4.97666 4.83938 7.93599 3.21051 11.5585C1.58165 15.1811 1.23588 19.2506 2.23022 23.096C3.22455 26.9414 5.49962 30.3332 8.68031 32.7121C11.861 35.091 15.7574 36.315 19.7271 36.1823C23.6968 36.0496 27.5027 34.5681 30.5174 31.982C33.5321 29.396 35.5756 25.8598 36.3108 21.9566C37.0461 18.0533 36.4293 14.016 34.5621 10.5104C34.5232 10.4372 34.4991 10.3572 34.4911 10.2748C34.4831 10.1923 34.4915 10.1091 34.5157 10.0299C34.5398 9.9507 34.5794 9.87702 34.632 9.81309C34.6847 9.74916 34.7494 9.69623 34.8225 9.65732C34.8956 9.61841 34.9757 9.59427 35.0581 9.5863C35.1406 9.57832 35.2238 9.58667 35.303 9.61085C35.3822 9.63503 35.4559 9.67458 35.5198 9.72723C35.5837 9.77988 35.6367 9.84461 35.6756 9.91772C37.1967 12.7739 37.9527 15.9752 37.87 19.2102C37.7873 22.4452 36.8687 25.6037 35.2036 28.3784C33.5385 31.1532 31.1835 33.4497 28.3678 35.0446C25.5521 36.6395 22.3716 37.4785 19.1355 37.48H19.149Z" fill="#C1D788"/>
<path d="M31.8689 6.4518C31.7859 6.45324 31.7034 6.4381 31.6263 6.40726C31.5492 6.37642 31.4791 6.33051 31.4199 6.27221C30.9719 5.83035 30.4998 5.41367 30.0057 5.02408C29.6286 4.72327 29.2335 4.43593 28.8339 4.17104C28.7078 4.07283 28.6235 3.93056 28.598 3.7728C28.5724 3.61503 28.6075 3.45345 28.6962 3.32047C28.7848 3.18749 28.9205 3.09297 29.0759 3.05587C29.2314 3.01877 29.3951 3.04184 29.5343 3.12045C29.9832 3.40779 30.3828 3.71309 30.7914 4.01839C31.3198 4.43958 31.8249 4.88921 32.3044 5.3653C32.3942 5.45322 32.4555 5.56603 32.4805 5.68916C32.5056 5.81229 32.4931 5.9401 32.4448 6.05609C32.3965 6.17207 32.3145 6.27091 32.2094 6.33984C32.1044 6.40878 31.9811 6.44465 31.8554 6.44282L31.8689 6.4518Z" fill="#C1D788"/>
</svg>
