<svg width="27" height="29" viewBox="0 0 27 29" fill="none" xmlns="http://www.w3.org/2000/svg">
<path d="M21.8135 20.9278V27.5705C21.8135 28.0576 21.415 28.4561 20.9278 28.4561H1.88568C1.39856 28.4561 1 28.0576 1 27.5705V1.88568C1 1.39856 1.39856 1 1.88568 1H13.3553L21.8135 9.01542V15.6138" stroke="#CF0101"/>
<path d="M21.8135 9.36972H14.2852C13.7981 9.36972 13.3995 8.97117 13.3995 8.48404V1.44287" stroke="#CF0101"/>
<path d="M4.9856 8.52832H10.7425" stroke="#CF0101"/>
<path d="M4.9856 12.9568H18.7137" stroke="#CF0101"/>
<path d="M4.9856 16.0566H18.7137" stroke="#CF0101"/>
<path d="M4.9856 20.0422H15.6138" stroke="#CF0101"/>
<path d="M4.9856 22.6992H12.5139" stroke="#CF0101"/>
<path d="M12.9567 27.1275L14.6838 22.9648L23.6735 13.9751C23.8506 13.798 24.1606 13.798 24.382 13.9751L26.1091 15.7022C26.2862 15.8794 26.2862 16.1893 26.1091 16.4108L17.1194 25.4004L12.9567 27.1275Z" stroke="#CF0101" stroke-linejoin="round"/>
<path d="M22.655 15.0381L25.0463 17.4294" stroke="#CF0101"/>
</svg>
