<svg width="17" height="17" viewBox="0 0 17 17" fill="none" xmlns="http://www.w3.org/2000/svg">
<path d="M2.85186 14.2147L9.30722 15.9908C9.71792 16.1038 10.1543 16.047 10.5171 15.8451C10.6359 15.7792 10.7461 15.6977 10.8455 15.602L15.6346 10.9844C16.039 10.5946 16.2024 10.0174 16.0619 9.47788L14.3962 3.08369C14.2557 2.54419 13.8301 2.11551 13.2852 1.96586L6.82984 0.189824C6.28489 0.0396172 5.69539 0.188699 5.29154 0.578561L0.501866 5.19615C0.0974425 5.58601 -0.0659263 6.16321 0.0745937 6.70271L1.74027 13.0963C1.88079 13.6364 2.30692 14.0645 2.85186 14.2147ZM1.33185 6.56038C1.38954 6.52832 1.45637 6.51369 1.52549 6.51988L10.1778 7.29791C10.2549 7.30467 10.2834 7.35473 10.2937 7.3958C10.304 7.43631 10.3034 7.49369 10.2394 7.53588L2.99981 12.3149C2.8947 12.3841 2.76675 12.3982 2.64851 12.3526C2.53027 12.3071 2.44515 12.2109 2.41602 12.0888L1.17076 6.92437C1.14563 6.81973 1.17191 6.7134 1.24331 6.63239C1.26901 6.60258 1.29929 6.57895 1.33185 6.56038ZM13.9181 5.00375L14.7641 8.12264C14.8138 8.27173 14.8029 8.37805 14.7538 8.41012C14.6938 8.4495 14.611 8.39887 14.5459 8.34261C14.4893 8.29367 14.1157 7.90043 14.1157 7.90043L13.1475 6.90468C13.0767 6.82761 13.0059 6.70496 13.0727 6.43887L13.4983 5.04088C13.5182 4.98293 13.5668 4.82148 13.7028 4.80066C13.7959 4.7866 13.8753 4.85579 13.9181 5.00375ZM10.793 5.94831C10.8358 5.99219 10.8072 6.06588 10.793 6.0957C10.7581 6.16827 10.6827 6.23803 10.6056 6.23297L2.2161 5.55901C2.04187 5.54663 1.97904 5.41161 1.96362 5.37055C1.9442 5.31935 1.91221 5.18771 2.02759 5.07576L5.65769 1.54843C5.69768 1.50962 5.74223 1.47642 5.78965 1.44998C5.88504 1.3971 5.99357 1.36954 6.10667 1.37122C6.28147 1.37404 6.44483 1.44492 6.56708 1.57206L10.793 5.94831ZM8.11108 1.56644C8.12365 1.54618 8.18934 1.4978 8.23447 1.49105C8.27788 1.4843 8.39041 1.4978 8.45496 1.51468L12.5466 2.58919C12.6871 2.62632 12.8002 2.7169 12.8648 2.84516C12.9299 2.97287 12.9362 3.11688 12.8825 3.24965L12.8688 3.29016L12.1719 5.77672C12.1633 5.80654 12.1433 5.82567 12.113 5.83354C12.0822 5.84142 12.0559 5.83354 12.0336 5.81104L8.1345 1.80553C8.04196 1.70539 8.08709 1.60525 8.11108 1.56644ZM10.9203 13.5706L12.4152 8.06245C12.4449 7.96231 12.5375 7.92968 12.5655 7.92237C12.5974 7.91393 12.6774 7.89987 12.7397 7.95725L12.7471 7.964L14.8258 9.78842C14.9012 9.85987 14.9423 9.95607 14.9412 10.0607C14.94 10.1805 14.884 10.2981 14.7869 10.3847L14.7744 10.396L11.2299 13.8333C11.1317 13.9171 11.0266 13.9042 10.9598 13.8637C10.8581 13.8007 10.9203 13.5706 10.9203 13.5706ZM9.58768 14.5607C9.55798 14.6856 9.47972 14.7886 9.36834 14.851L9.36777 14.8516C9.25638 14.9134 9.12728 14.9264 9.00333 14.8876L3.91205 13.2977C3.81265 13.2668 3.79038 13.183 3.78524 13.1487C3.77952 13.1087 3.78067 13.0339 3.85664 12.9833L11.2831 8.01069C11.2939 8.00338 11.3185 7.98819 11.3562 8.01351C11.3847 8.03263 11.3962 8.05851 11.3899 8.09058L9.58768 14.5607Z" fill="#FEF415"/>
<path d="M16.0442 9.4164L14.3642 3.02615C14.2225 2.48665 13.7958 2.05965 13.2503 1.91057L6.79155 0.148598C6.24604 7.94679e-05 5.65711 0.150286 5.25383 0.540711L0.474437 5.16842C0.0711557 5.55885 -0.091642 6.13661 0.0505917 6.67612L1.73055 13.0664C1.87221 13.6059 2.30634 14.0661 2.85185 14.2146L9.3112 15.9765C9.44544 16.0131 9.58196 16.0317 9.71848 16.0328C10.1355 16.0367 10.5416 15.8961 10.8461 15.6013L15.6352 10.9837C16.0379 10.5933 16.1858 9.95535 16.0442 9.4164ZM13.1338 3.61798C13.2361 3.65511 13.3115 3.73555 13.3406 3.83907L14.7846 9.02935C14.8189 9.1503 14.7915 9.27463 14.7104 9.3714C14.6293 9.4676 14.5104 9.51598 14.3848 9.50585L5.87418 8.59505C5.79763 8.58886 5.76907 8.53879 5.75822 8.49828C5.74736 8.45778 5.74794 8.39983 5.81191 8.35764L12.8316 3.65511C12.8888 3.61685 12.9544 3.59772 13.0207 3.59829C13.059 3.59772 13.0967 3.60448 13.1338 3.61798ZM1.57004 7.8187C1.6997 7.77201 1.8208 7.89014 1.86707 7.93178L2.85585 8.98322C3.04435 9.18406 3.04264 9.32526 3.01865 9.42653L2.65992 10.7593C2.65992 10.7593 2.55425 11.1542 2.52854 11.2239C2.49941 11.3038 2.45143 11.3877 2.38003 11.382C2.32176 11.377 2.26007 11.2892 2.23037 11.1351L1.48207 8.09886C1.44608 7.94865 1.48207 7.8502 1.57004 7.8187ZM6.13179 1.82169C6.17692 1.65235 6.28488 1.51227 6.43625 1.42676C6.5345 1.37163 6.64304 1.3435 6.75271 1.34463C6.80755 1.34519 6.86239 1.35306 6.91665 1.36769L11.7572 2.60929C11.9125 2.6526 11.9491 2.78256 11.9577 2.83713C11.9645 2.88045 11.9754 3.0284 11.8291 3.12235L4.91567 7.62799C4.85112 7.66962 4.75059 7.64374 4.68432 7.59705C4.65748 7.57792 4.59636 7.52672 4.61178 7.46822L6.13179 1.82169ZM4.90596 2.77299L3.45735 7.93853C3.44935 7.96834 3.42936 7.98803 3.39908 7.99591C3.36881 8.00378 3.34196 7.99647 3.31968 7.97397L1.61916 6.257L1.58717 6.22831C1.47464 6.13773 1.41009 6.00891 1.40438 5.86601C1.39867 5.72312 1.45294 5.58979 1.55747 5.49021L4.48326 2.67173C4.53124 2.62616 4.6232 2.5609 4.66433 2.54628C4.70717 2.53109 4.78829 2.54178 4.80942 2.55359C4.84884 2.57553 4.93795 2.64192 4.90596 2.77299ZM8.3487 14.4767C8.31043 14.5442 8.22474 14.6056 8.09736 14.5791L3.37566 13.1339L3.3591 13.1299C3.1963 13.032 3.16145 13.0062 3.10205 12.9015C3.05007 12.8104 3.00494 12.6467 3.03579 12.5482L3.88862 10.1629L3.89204 10.1534C3.91832 10.0735 3.99543 10.0476 4.02742 10.0397C4.05541 10.033 4.15309 10.0172 4.22792 10.0909L8.24017 14.2011C8.24074 14.2011 8.40753 14.3732 8.3487 14.4767ZM5.14016 9.62737C5.11902 9.60261 5.11674 9.57448 5.13216 9.54411C5.15272 9.50416 5.18129 9.50585 5.19442 9.50698L14.1363 10.325C14.2277 10.3328 14.266 10.3981 14.2802 10.4358C14.2928 10.4684 14.3139 10.5522 14.2425 10.6265L10.5033 14.2455C10.3428 14.4222 10.3017 14.4278 10.1743 14.4267C10.1737 14.4267 9.9544 14.4239 9.83901 14.277L5.14016 9.62737Z" fill="#CF0101"/>
</svg>
