<svg width="23" height="29" viewBox="0 0 23 29" fill="none" xmlns="http://www.w3.org/2000/svg">
<path d="M2.32349 4.61248C2.32349 3.43501 3.278 2.48047 4.4555 2.48047H20.499C21.6764 2.48047 22.6309 3.43501 22.6309 4.61248V26.342C22.6309 27.5194 21.6764 28.4742 20.499 28.4742H4.4555C3.278 28.4742 2.32349 27.5194 2.32349 26.342V4.61248Z" fill="#CF0101"/>
<path d="M0.901978 3.19085C0.901978 2.01338 1.85652 1.05884 3.03399 1.05884H19.0774C20.2549 1.05884 21.2095 2.01338 21.2095 3.19085V24.9203C21.2095 26.098 20.2549 27.0524 19.0774 27.0524H3.03399C1.85652 27.0524 0.901978 26.098 0.901978 24.9203V3.19085Z" fill="white"/>
<path fill-rule="evenodd" clip-rule="evenodd" d="M3.03403 0.525879H19.0775C20.5493 0.525879 21.7425 1.71907 21.7425 3.19089V24.9204C21.7425 26.3923 20.5493 27.5855 19.0775 27.5855H3.03403C1.56218 27.5855 0.369019 26.3923 0.369019 24.9204V3.19089C0.369019 1.71904 1.56221 0.525879 3.03403 0.525879ZM3.03403 1.05888C1.85656 1.05888 0.902021 2.01342 0.902021 3.19089V24.9204C0.902021 26.098 1.85656 27.0525 3.03403 27.0525H19.0775C20.255 27.0525 21.2095 26.098 21.2095 24.9204V3.19089C21.2095 2.01342 20.255 1.05888 19.0775 1.05888H3.03403Z" fill="#CF0101"/>
<path d="M3.36438 4.51156C3.36438 3.92283 3.84165 3.44556 4.43038 3.44556H17.9605C18.5493 3.44556 19.0265 3.92283 19.0265 4.51156V7.00944C19.0265 7.59817 18.5493 8.07544 17.9605 8.07544H4.43038C3.84165 8.07544 3.36438 7.59817 3.36438 7.00944V4.51156Z" fill="#CF0101"/>
<path fill-rule="evenodd" clip-rule="evenodd" d="M4.30355 9.9585H6.58828C7.17701 9.9585 7.65428 10.4357 7.65428 11.0245V11.5024C7.65428 12.0911 7.17701 12.5684 6.58828 12.5684H4.30355C3.71482 12.5684 3.23755 12.0911 3.23755 11.5024V11.0245C3.23755 10.4357 3.71482 9.9585 4.30355 9.9585ZM4.30355 10.4915C4.00917 10.4915 3.77055 10.7301 3.77055 11.0245V11.5024C3.77055 11.7967 4.00917 12.0354 4.30355 12.0354H6.58828C6.88266 12.0354 7.12128 11.7967 7.12128 11.5024V11.0245C7.12128 10.7301 6.88266 10.4915 6.58828 10.4915H4.30355Z" fill="#CF0101"/>
<path fill-rule="evenodd" clip-rule="evenodd" d="M4.30355 13.7153H6.58828C7.17701 13.7153 7.65428 14.1926 7.65428 14.7813V15.2592C7.65428 15.8479 7.17701 16.3252 6.58828 16.3252H4.30355C3.71482 16.3252 3.23755 15.8479 3.23755 15.2592V14.7813C3.23755 14.1926 3.71482 13.7153 4.30355 13.7153ZM4.30355 14.2483C4.00917 14.2483 3.77055 14.487 3.77055 14.7813V15.2592C3.77055 15.5536 4.00917 15.7922 4.30355 15.7922H6.58828C6.88266 15.7922 7.12128 15.5536 7.12128 15.2592V14.7813C7.12128 14.487 6.88266 14.2483 6.58828 14.2483H4.30355Z" fill="#CF0101"/>
<path fill-rule="evenodd" clip-rule="evenodd" d="M4.30355 17.675H6.58828C7.17701 17.675 7.65428 18.1523 7.65428 18.741V19.2189C7.65428 19.8077 7.17701 20.2849 6.58828 20.2849H4.30355C3.71482 20.2849 3.23755 19.8077 3.23755 19.2189V18.741C3.23755 18.1523 3.71482 17.675 4.30355 17.675ZM4.30355 18.2081C4.00917 18.2081 3.77055 18.4467 3.77055 18.741V19.2189C3.77055 19.5133 4.00917 19.7519 4.30355 19.7519H6.58828C6.88266 19.7519 7.12128 19.5133 7.12128 19.2189V18.741C7.12128 18.4467 6.88266 18.2081 6.58828 18.2081H4.30355Z" fill="#CF0101"/>
<path fill-rule="evenodd" clip-rule="evenodd" d="M4.30355 21.6353H6.58828C7.17701 21.6353 7.65428 22.1125 7.65428 22.7013V23.1791C7.65428 23.7679 7.17701 24.2451 6.58828 24.2451H4.30355C3.71482 24.2451 3.23755 23.7679 3.23755 23.1791V22.7013C3.23755 22.1125 3.71482 21.6353 4.30355 21.6353ZM4.30355 22.1683C4.00917 22.1683 3.77055 22.4069 3.77055 22.7013V23.1791C3.77055 23.4735 4.00917 23.7121 4.30355 23.7121H6.58828C6.88266 23.7121 7.12128 23.4735 7.12128 23.1791V22.7013C7.12128 22.4069 6.88266 22.1683 6.58828 22.1683H4.30355Z" fill="#CF0101"/>
<path fill-rule="evenodd" clip-rule="evenodd" d="M10.1927 9.9585H12.4774C13.0662 9.9585 13.5434 10.4357 13.5434 11.0245V11.5024C13.5434 12.0911 13.0662 12.5684 12.4774 12.5684H10.1927C9.60398 12.5684 9.12671 12.0911 9.12671 11.5024V11.0245C9.12671 10.4357 9.60398 9.9585 10.1927 9.9585ZM10.1927 10.4915C9.89836 10.4915 9.65971 10.7301 9.65971 11.0245V11.5024C9.65971 11.7967 9.89836 12.0354 10.1927 12.0354H12.4774C12.7718 12.0354 13.0104 11.7967 13.0104 11.5024V11.0245C13.0104 10.7301 12.7718 10.4915 12.4774 10.4915H10.1927Z" fill="#CF0101"/>
<path fill-rule="evenodd" clip-rule="evenodd" d="M10.1927 13.7153H12.4774C13.0662 13.7153 13.5434 14.1926 13.5434 14.7813V15.2592C13.5434 15.8479 13.0662 16.3252 12.4774 16.3252H10.1927C9.60398 16.3252 9.12671 15.8479 9.12671 15.2592V14.7813C9.12671 14.1926 9.60398 13.7153 10.1927 13.7153ZM10.1927 14.2483C9.89836 14.2483 9.65971 14.487 9.65971 14.7813V15.2592C9.65971 15.5536 9.89836 15.7922 10.1927 15.7922H12.4774C12.7718 15.7922 13.0104 15.5536 13.0104 15.2592V14.7813C13.0104 14.487 12.7718 14.2483 12.4774 14.2483H10.1927Z" fill="#CF0101"/>
<path fill-rule="evenodd" clip-rule="evenodd" d="M10.1927 17.675H12.4774C13.0662 17.675 13.5434 18.1523 13.5434 18.741V19.2189C13.5434 19.8077 13.0662 20.2849 12.4774 20.2849H10.1927C9.60398 20.2849 9.12671 19.8077 9.12671 19.2189V18.741C9.12671 18.1523 9.60398 17.675 10.1927 17.675ZM10.1927 18.2081C9.89836 18.2081 9.65971 18.4467 9.65971 18.741V19.2189C9.65971 19.5133 9.89836 19.7519 10.1927 19.7519H12.4774C12.7718 19.7519 13.0104 19.5133 13.0104 19.2189V18.741C13.0104 18.4467 12.7718 18.2081 12.4774 18.2081H10.1927Z" fill="#CF0101"/>
<path fill-rule="evenodd" clip-rule="evenodd" d="M10.1927 21.6353H12.4774C13.0662 21.6353 13.5434 22.1125 13.5434 22.7013V23.1791C13.5434 23.7679 13.0662 24.2451 12.4774 24.2451H10.1927C9.60398 24.2451 9.12671 23.7679 9.12671 23.1791V22.7013C9.12671 22.1125 9.60398 21.6353 10.1927 21.6353ZM10.1927 22.1683C9.89836 22.1683 9.65971 22.4069 9.65971 22.7013V23.1791C9.65971 23.4735 9.89836 23.7121 10.1927 23.7121H12.4774C12.7718 23.7121 13.0104 23.4735 13.0104 23.1791V22.7013C13.0104 22.4069 12.7718 22.1683 12.4774 22.1683H10.1927Z" fill="#CF0101"/>
<path fill-rule="evenodd" clip-rule="evenodd" d="M15.9297 9.9585H18.2144C18.8031 9.9585 19.2804 10.4357 19.2804 11.0245V11.5024C19.2804 12.0911 18.8031 12.5684 18.2144 12.5684H15.9297C15.3409 12.5684 14.8636 12.0911 14.8636 11.5024V11.0245C14.8636 10.4357 15.3409 9.9585 15.9297 9.9585ZM15.9297 10.4915C15.6353 10.4915 15.3967 10.7301 15.3967 11.0245V11.5024C15.3967 11.7967 15.6353 12.0354 15.9297 12.0354H18.2144C18.5088 12.0354 18.7474 11.7967 18.7474 11.5024V11.0245C18.7474 10.7301 18.5088 10.4915 18.2144 10.4915H15.9297Z" fill="#CF0101"/>
<path fill-rule="evenodd" clip-rule="evenodd" d="M15.6248 13.7153H17.9096C18.4983 13.7153 18.9756 14.1926 18.9756 14.7813V23.179C18.9756 23.7678 18.4983 24.245 17.9096 24.245H15.6248C15.0361 24.245 14.5588 23.7678 14.5588 23.179V14.7813C14.5588 14.1926 15.0361 13.7153 15.6248 13.7153ZM15.6248 14.2483C15.3305 14.2483 15.0918 14.487 15.0918 14.7813V23.179C15.0918 23.4734 15.3305 23.712 15.6248 23.712H17.9096C18.2039 23.712 18.4426 23.4734 18.4426 23.179V14.7813C18.4426 14.487 18.2039 14.2483 17.9096 14.2483H15.6248Z" fill="#CF0101"/>
<path fill-rule="evenodd" clip-rule="evenodd" d="M15.9423 18.4323C15.9423 18.2851 16.0616 18.1658 16.2088 18.1658H17.3257C17.4729 18.1658 17.5922 18.2851 17.5922 18.4323C17.5922 18.5794 17.4729 18.6988 17.3257 18.6988H16.2088C16.0616 18.6988 15.9423 18.5794 15.9423 18.4323Z" fill="#CF0101"/>
<path fill-rule="evenodd" clip-rule="evenodd" d="M15.9423 19.4223C15.9423 19.2751 16.0616 19.1558 16.2088 19.1558H17.3257C17.4729 19.1558 17.5922 19.2751 17.5922 19.4223C17.5922 19.5694 17.4729 19.6888 17.3257 19.6888H16.2088C16.0616 19.6888 15.9423 19.5694 15.9423 19.4223Z" fill="#CF0101"/>
<path fill-rule="evenodd" clip-rule="evenodd" d="M15.9423 5.03943C15.9423 4.62731 16.2764 4.29321 16.6885 4.29321H16.9221C17.3342 4.29321 17.6683 4.62731 17.6683 5.03943V6.35192C17.6683 6.76403 17.3342 7.09813 16.9221 7.09813H16.6885C16.2764 7.09813 15.9423 6.76403 15.9423 6.35192V5.03943ZM16.6885 4.82622C16.5707 4.82622 16.4753 4.92166 16.4753 5.03943V6.35192C16.4753 6.46965 16.5707 6.56513 16.6885 6.56513H16.9221C17.0399 6.56513 17.1353 6.46965 17.1353 6.35192V5.03943C17.1353 4.92166 17.0399 4.82622 16.9221 4.82622H16.6885Z" fill="white"/>
</svg>
