<svg width="51" height="51" viewBox="0 0 51 51" fill="none" xmlns="http://www.w3.org/2000/svg">
<path d="M16.3235 15.6125C16.3235 14.435 17.278 13.4805 18.4555 13.4805H34.499C35.6764 13.4805 36.6309 14.435 36.6309 15.6125V37.342C36.6309 38.5194 35.6764 39.4742 34.499 39.4742H18.4555C17.278 39.4742 16.3235 38.5194 16.3235 37.342V15.6125Z" fill="#CF0101"/>
<path d="M14.902 14.1908C14.902 13.0134 15.8565 12.0588 17.034 12.0588H33.0774C34.2549 12.0588 35.2095 13.0134 35.2095 14.1908V35.9203C35.2095 37.098 34.2549 38.0524 33.0774 38.0524H17.034C15.8565 38.0524 14.902 37.098 14.902 35.9203V14.1908Z" fill="white"/>
<path fill-rule="evenodd" clip-rule="evenodd" d="M17.034 11.5259H33.0775C34.5493 11.5259 35.7425 12.7191 35.7425 14.1909V35.9204C35.7425 37.3923 34.5493 38.5855 33.0775 38.5855H17.034C15.5622 38.5855 14.369 37.3923 14.369 35.9204V14.1909C14.369 12.719 15.5622 11.5259 17.034 11.5259ZM17.034 12.0589C15.8566 12.0589 14.902 13.0134 14.902 14.1909V35.9204C14.902 37.098 15.8566 38.0525 17.034 38.0525H33.0775C34.255 38.0525 35.2095 37.098 35.2095 35.9204V14.1909C35.2095 13.0134 34.255 12.0589 33.0775 12.0589H17.034Z" fill="#CF0101"/>
<path d="M17.3644 15.5116C17.3644 14.9228 17.8417 14.4456 18.4304 14.4456H31.9605C32.5493 14.4456 33.0265 14.9228 33.0265 15.5116V18.0094C33.0265 18.5982 32.5493 19.0754 31.9605 19.0754H18.4304C17.8417 19.0754 17.3644 18.5982 17.3644 18.0094V15.5116Z" fill="#CF0101"/>
<path fill-rule="evenodd" clip-rule="evenodd" d="M18.3036 20.9585H20.5883C21.177 20.9585 21.6543 21.4357 21.6543 22.0245V22.5024C21.6543 23.0911 21.177 23.5684 20.5883 23.5684H18.3036C17.7148 23.5684 17.2375 23.0911 17.2375 22.5024V22.0245C17.2375 21.4357 17.7148 20.9585 18.3036 20.9585ZM18.3036 21.4915C18.0092 21.4915 17.7706 21.7301 17.7706 22.0245V22.5024C17.7706 22.7967 18.0092 23.0354 18.3036 23.0354H20.5883C20.8827 23.0354 21.1213 22.7967 21.1213 22.5024V22.0245C21.1213 21.7301 20.8827 21.4915 20.5883 21.4915H18.3036Z" fill="#CF0101"/>
<path fill-rule="evenodd" clip-rule="evenodd" d="M18.3036 24.7153H20.5883C21.177 24.7153 21.6543 25.1926 21.6543 25.7813V26.2592C21.6543 26.8479 21.177 27.3252 20.5883 27.3252H18.3036C17.7148 27.3252 17.2375 26.8479 17.2375 26.2592V25.7813C17.2375 25.1926 17.7148 24.7153 18.3036 24.7153ZM18.3036 25.2483C18.0092 25.2483 17.7706 25.487 17.7706 25.7813V26.2592C17.7706 26.5536 18.0092 26.7922 18.3036 26.7922H20.5883C20.8827 26.7922 21.1213 26.5536 21.1213 26.2592V25.7813C21.1213 25.487 20.8827 25.2483 20.5883 25.2483H18.3036Z" fill="#CF0101"/>
<path fill-rule="evenodd" clip-rule="evenodd" d="M18.3036 28.675H20.5883C21.177 28.675 21.6543 29.1523 21.6543 29.741V30.2189C21.6543 30.8077 21.177 31.2849 20.5883 31.2849H18.3036C17.7148 31.2849 17.2375 30.8077 17.2375 30.2189V29.741C17.2375 29.1523 17.7148 28.675 18.3036 28.675ZM18.3036 29.2081C18.0092 29.2081 17.7706 29.4467 17.7706 29.741V30.2189C17.7706 30.5133 18.0092 30.7519 18.3036 30.7519H20.5883C20.8827 30.7519 21.1213 30.5133 21.1213 30.2189V29.741C21.1213 29.4467 20.8827 29.2081 20.5883 29.2081H18.3036Z" fill="#CF0101"/>
<path fill-rule="evenodd" clip-rule="evenodd" d="M18.3036 32.6353H20.5883C21.177 32.6353 21.6543 33.1125 21.6543 33.7013V34.1791C21.6543 34.7679 21.177 35.2451 20.5883 35.2451H18.3036C17.7148 35.2451 17.2375 34.7679 17.2375 34.1791V33.7013C17.2375 33.1125 17.7148 32.6353 18.3036 32.6353ZM18.3036 33.1683C18.0092 33.1683 17.7706 33.4069 17.7706 33.7013V34.1791C17.7706 34.4735 18.0092 34.7121 18.3036 34.7121H20.5883C20.8827 34.7121 21.1213 34.4735 21.1213 34.1791V33.7013C21.1213 33.4069 20.8827 33.1683 20.5883 33.1683H18.3036Z" fill="#CF0101"/>
<path fill-rule="evenodd" clip-rule="evenodd" d="M24.1927 20.9585H26.4774C27.0662 20.9585 27.5434 21.4357 27.5434 22.0245V22.5024C27.5434 23.0911 27.0662 23.5684 26.4774 23.5684H24.1927C23.604 23.5684 23.1267 23.0911 23.1267 22.5024V22.0245C23.1267 21.4357 23.604 20.9585 24.1927 20.9585ZM24.1927 21.4915C23.8984 21.4915 23.6597 21.7301 23.6597 22.0245V22.5024C23.6597 22.7967 23.8984 23.0354 24.1927 23.0354H26.4774C26.7718 23.0354 27.0104 22.7967 27.0104 22.5024V22.0245C27.0104 21.7301 26.7718 21.4915 26.4774 21.4915H24.1927Z" fill="#CF0101"/>
<path fill-rule="evenodd" clip-rule="evenodd" d="M24.1927 24.7153H26.4774C27.0662 24.7153 27.5434 25.1926 27.5434 25.7813V26.2592C27.5434 26.8479 27.0662 27.3252 26.4774 27.3252H24.1927C23.604 27.3252 23.1267 26.8479 23.1267 26.2592V25.7813C23.1267 25.1926 23.604 24.7153 24.1927 24.7153ZM24.1927 25.2483C23.8984 25.2483 23.6597 25.487 23.6597 25.7813V26.2592C23.6597 26.5536 23.8984 26.7922 24.1927 26.7922H26.4774C26.7718 26.7922 27.0104 26.5536 27.0104 26.2592V25.7813C27.0104 25.487 26.7718 25.2483 26.4774 25.2483H24.1927Z" fill="#CF0101"/>
<path fill-rule="evenodd" clip-rule="evenodd" d="M24.1927 28.675H26.4774C27.0662 28.675 27.5434 29.1523 27.5434 29.741V30.2189C27.5434 30.8077 27.0662 31.2849 26.4774 31.2849H24.1927C23.604 31.2849 23.1267 30.8077 23.1267 30.2189V29.741C23.1267 29.1523 23.604 28.675 24.1927 28.675ZM24.1927 29.2081C23.8984 29.2081 23.6597 29.4467 23.6597 29.741V30.2189C23.6597 30.5133 23.8984 30.7519 24.1927 30.7519H26.4774C26.7718 30.7519 27.0104 30.5133 27.0104 30.2189V29.741C27.0104 29.4467 26.7718 29.2081 26.4774 29.2081H24.1927Z" fill="#CF0101"/>
<path fill-rule="evenodd" clip-rule="evenodd" d="M24.1927 32.6353H26.4774C27.0662 32.6353 27.5434 33.1125 27.5434 33.7013V34.1791C27.5434 34.7679 27.0662 35.2451 26.4774 35.2451H24.1927C23.604 35.2451 23.1267 34.7679 23.1267 34.1791V33.7013C23.1267 33.1125 23.604 32.6353 24.1927 32.6353ZM24.1927 33.1683C23.8984 33.1683 23.6597 33.4069 23.6597 33.7013V34.1791C23.6597 34.4735 23.8984 34.7121 24.1927 34.7121H26.4774C26.7718 34.7121 27.0104 34.4735 27.0104 34.1791V33.7013C27.0104 33.4069 26.7718 33.1683 26.4774 33.1683H24.1927Z" fill="#CF0101"/>
<path fill-rule="evenodd" clip-rule="evenodd" d="M29.9297 20.9585H32.2144C32.8031 20.9585 33.2804 21.4357 33.2804 22.0245V22.5024C33.2804 23.0911 32.8031 23.5684 32.2144 23.5684H29.9297C29.3409 23.5684 28.8636 23.0911 28.8636 22.5024V22.0245C28.8636 21.4357 29.3409 20.9585 29.9297 20.9585ZM29.9297 21.4915C29.6353 21.4915 29.3967 21.7301 29.3967 22.0245V22.5024C29.3967 22.7967 29.6353 23.0354 29.9297 23.0354H32.2144C32.5088 23.0354 32.7474 22.7967 32.7474 22.5024V22.0245C32.7474 21.7301 32.5088 21.4915 32.2144 21.4915H29.9297Z" fill="#CF0101"/>
<path fill-rule="evenodd" clip-rule="evenodd" d="M29.6248 24.7153H31.9096C32.4983 24.7153 32.9756 25.1926 32.9756 25.7813V34.179C32.9756 34.7678 32.4983 35.245 31.9096 35.245H29.6248C29.0361 35.245 28.5588 34.7678 28.5588 34.179V25.7813C28.5588 25.1926 29.0361 24.7153 29.6248 24.7153ZM29.6248 25.2483C29.3305 25.2483 29.0918 25.487 29.0918 25.7813V34.179C29.0918 34.4734 29.3305 34.712 29.6248 34.712H31.9096C32.2039 34.712 32.4426 34.4734 32.4426 34.179V25.7813C32.4426 25.487 32.2039 25.2483 31.9096 25.2483H29.6248Z" fill="#CF0101"/>
<path fill-rule="evenodd" clip-rule="evenodd" d="M29.9423 29.4323C29.9423 29.2851 30.0616 29.1658 30.2088 29.1658H31.3257C31.4729 29.1658 31.5922 29.2851 31.5922 29.4323C31.5922 29.5794 31.4729 29.6988 31.3257 29.6988H30.2088C30.0616 29.6988 29.9423 29.5794 29.9423 29.4323Z" fill="#CF0101"/>
<path fill-rule="evenodd" clip-rule="evenodd" d="M29.9423 30.4223C29.9423 30.2751 30.0616 30.1558 30.2088 30.1558H31.3257C31.4729 30.1558 31.5922 30.2751 31.5922 30.4223C31.5922 30.5694 31.4729 30.6888 31.3257 30.6888H30.2088C30.0616 30.6888 29.9423 30.5694 29.9423 30.4223Z" fill="#CF0101"/>
<path fill-rule="evenodd" clip-rule="evenodd" d="M29.9423 16.0394C29.9423 15.6273 30.2764 15.2932 30.6885 15.2932H30.9221C31.3342 15.2932 31.6683 15.6273 31.6683 16.0394V17.3519C31.6683 17.764 31.3342 18.0981 30.9221 18.0981H30.6885C30.2764 18.0981 29.9423 17.764 29.9423 17.3519V16.0394ZM30.6885 15.8262C30.5707 15.8262 30.4753 15.9217 30.4753 16.0394V17.3519C30.4753 17.4697 30.5707 17.5651 30.6885 17.5651H30.9221C31.0399 17.5651 31.1353 17.4697 31.1353 17.3519V16.0394C31.1353 15.9217 31.0399 15.8262 30.9221 15.8262H30.6885Z" fill="white"/>
<path d="M23.25 1.87639C24.6423 1.07254 26.3577 1.07254 27.75 1.87639L44.8336 11.7396C46.226 12.5435 47.0836 14.0291 47.0836 15.6368V35.3633C47.0836 36.9709 46.226 38.4565 44.8336 39.2604L27.75 49.1236C26.3577 49.9275 24.6423 49.9275 23.25 49.1236L6.16635 39.2604C4.77405 38.4565 3.91635 36.9709 3.91635 35.3633V15.6368C3.91635 14.0291 4.77405 12.5435 6.16635 11.7396L23.25 1.87639Z" stroke="#CF0101"/>
</svg>
