<svg width="32" height="24" viewBox="0 0 32 24" fill="none" xmlns="http://www.w3.org/2000/svg">
<path d="M1.14285 12.75C0.932569 12.75 0.761902 12.918 0.761902 13.125V22.125C0.761902 22.7452 1.27466 23.25 1.90476 23.25H9.52381C9.73409 23.25 9.90476 23.082 9.90476 22.875C9.90476 22.668 9.73409 22.5 9.52381 22.5H1.90476C1.69447 22.5 1.52381 22.332 1.52381 22.125V13.125C1.52381 12.918 1.35314 12.75 1.14285 12.75Z" fill="#CF0101"/>
<path d="M30.8572 12.75C30.6469 12.75 30.4762 12.918 30.4762 13.125V22.125C30.4762 22.332 30.3055 22.5 30.0952 22.5H14.0952C13.885 22.5 13.7143 22.668 13.7143 22.875C13.7143 23.082 13.885 23.25 14.0952 23.25H30.0952C30.7253 23.25 31.2381 22.7452 31.2381 22.125V13.125C31.2381 12.918 31.0674 12.75 30.8572 12.75Z" fill="#CF0101"/>
<path d="M13.7143 1.125C13.7143 1.332 13.885 1.5 14.0952 1.5H30.0952C30.3055 1.5 30.4762 1.668 30.4762 1.875V8.5935C30.4762 8.8005 30.6469 8.9685 30.8572 8.9685C31.0674 8.9685 31.2381 8.8005 31.2381 8.5935V1.875C31.2381 1.25475 30.7253 0.75 30.0952 0.75H14.0952C13.885 0.75 13.7143 0.918 13.7143 1.125Z" fill="#CF0101"/>
<path d="M1.90476 0.75C1.27466 0.75 0.761902 1.25475 0.761902 1.875V8.5935C0.761902 8.8005 0.932569 8.9685 1.14285 8.9685C1.35314 8.9685 1.52381 8.8005 1.52381 8.5935V1.875C1.52381 1.668 1.69447 1.5 1.90476 1.5H9.52381C9.73409 1.5 9.90476 1.332 9.90476 1.125C9.90476 0.918 9.73409 0.75 9.52381 0.75H1.90476Z" fill="#CF0101"/>
<path d="M31.619 10.4685H16.0762C16.3787 10.3365 16.64 10.1827 16.8259 9.99975C17.9771 8.8665 17.9771 7.023 16.8259 5.88975C15.7105 4.79175 13.7661 4.79175 12.6507 5.88975C12.4716 6.066 12.3215 6.312 12.1905 6.59475V0.375C12.1905 0.168 12.0198 0 11.8095 0C11.5992 0 11.4286 0.168 11.4286 0.375V10.2938C10.131 9.76725 7.84686 8.68575 7.37829 7.7535C7.07352 7.1475 7.02705 6.462 7.24648 5.8215C7.46667 5.181 7.9261 4.66425 8.54095 4.36425C8.72991 4.272 8.80686 4.04775 8.71391 3.86175C8.61943 3.67575 8.39238 3.59925 8.20343 3.6915C7.40571 4.08 6.80991 4.75125 6.52495 5.5815C6.24 6.41175 6.30095 7.30125 6.69562 8.08575C7.15657 9.00225 8.69943 9.879 9.95276 10.4685H0.380952C0.170667 10.4685 0 10.6365 0 10.8435C0 11.0505 0.170667 11.2185 0.380952 11.2185H7.50171C7.20686 11.349 6.95162 11.4998 6.76952 11.679C5.61829 12.8123 5.61829 14.6558 6.76952 15.789C7.32724 16.338 8.06857 16.6403 8.85714 16.6403C9.64571 16.6403 10.387 16.338 10.9448 15.789C11.1337 15.603 11.2922 15.3398 11.4286 15.0353V23.625C11.4286 23.832 11.5992 24 11.8095 24C12.0198 24 12.1905 23.832 12.1905 23.625V11.3962C13.4918 11.9257 15.7509 12.9998 16.2171 13.9268C16.5219 14.5328 16.5684 15.2183 16.349 15.8588C16.1288 16.4993 15.6693 17.016 15.0545 17.316C14.8655 17.4082 14.7886 17.6325 14.8815 17.8185C14.9478 17.9505 15.0834 18.027 15.2236 18.027C15.28 18.027 15.3379 18.0142 15.392 17.988C16.1897 17.5995 16.7855 16.9283 17.0705 16.098C17.3554 15.2678 17.2945 14.379 16.8998 13.5938C16.4411 12.6818 14.9105 11.8088 13.6602 11.2185H31.619C31.8293 11.2185 32 11.0505 32 10.8435C32 10.6365 31.8293 10.4685 31.619 10.4685ZM13.1893 6.42075C13.603 6.0135 14.1531 5.78925 14.7383 5.78925C15.3234 5.78925 15.8735 6.0135 16.2872 6.42075C17.1413 7.2615 17.1413 8.6295 16.2872 9.47025C15.6366 10.1108 13.3996 10.3717 12.1981 10.4452C12.2834 9.04725 12.5958 7.005 13.1893 6.42075ZM10.4061 15.2587C9.57867 16.0732 8.13562 16.0732 7.30819 15.2587C6.4541 14.418 6.4541 13.05 7.30819 12.2092C7.95886 11.5687 10.1958 11.3077 11.3973 11.2343C11.312 12.6322 10.9996 14.6745 10.4061 15.2587Z" fill="#CF0101"/>
</svg>
