<svg width="60" height="60" viewBox="0 0 60 60" fill="none" xmlns="http://www.w3.org/2000/svg">
<rect width="60" height="60" rx="30" fill="#CF0101"/>
<path d="M44.4141 25.9414C43.0664 26.9961 41.3672 28.2852 35.3906 32.6211C34.2188 33.5 32.0508 35.4336 30 35.4336C27.8906 35.4336 25.7812 33.5 24.5508 32.6211C18.5742 28.2852 16.875 26.9961 15.5273 25.9414C15.293 25.7656 15 25.9414 15 26.2344V38.1875C15 39.7695 16.2305 41 17.8125 41H42.1875C43.7109 41 45 39.7695 45 38.1875V26.2344C45 25.9414 44.6484 25.7656 44.4141 25.9414ZM30 33.5C31.3477 33.5586 33.2812 31.8008 34.2773 31.0977C42.0703 25.4727 42.6562 24.9453 44.4141 23.5391C44.7656 23.3047 45 22.8945 45 22.4258V21.3125C45 19.7891 43.7109 18.5 42.1875 18.5H17.8125C16.2305 18.5 15 19.7891 15 21.3125V22.4258C15 22.8945 15.1758 23.3047 15.5273 23.5391C17.2852 24.9453 17.8711 25.4727 25.6641 31.0977C26.6602 31.8008 28.5938 33.5586 30 33.5Z" fill="white"/>
</svg>
