<svg width="60" height="60" viewBox="0 0 60 60" fill="none" xmlns="http://www.w3.org/2000/svg">
<rect x="0.00488281" width="60" height="60" rx="30" fill="#CF0101"/>
<path d="M28.833 44.1641C29.3604 44.9844 30.5908 44.9844 31.1182 44.1641C39.6729 31.8594 41.2549 30.5703 41.2549 26C41.2549 19.7891 36.2158 14.75 30.0049 14.75C23.7354 14.75 18.7549 19.7891 18.7549 26C18.7549 30.5703 20.2783 31.8594 28.833 44.1641ZM30.0049 30.6875C27.3682 30.6875 25.3174 28.6367 25.3174 26C25.3174 23.4219 27.3682 21.3125 30.0049 21.3125C32.583 21.3125 34.6924 23.4219 34.6924 26C34.6924 28.6367 32.583 30.6875 30.0049 30.6875Z" fill="white"/>
</svg>
