<svg width="30" height="31" viewBox="0 0 30 31" fill="none" xmlns="http://www.w3.org/2000/svg">
<path d="M10.2178 14.8472C11.4978 17.3558 13.56 19.4123 16.0756 20.6887L18.0311 18.7386C18.28 18.4904 18.6267 18.4195 18.9378 18.517C19.9333 18.845 21 19.0223 22.1111 19.0223C22.3469 19.0223 22.573 19.1156 22.7397 19.2819C22.9064 19.4481 23 19.6736 23 19.9087V23.0112C23 23.2463 22.9064 23.4717 22.7397 23.638C22.573 23.8042 22.3469 23.8976 22.1111 23.8976C18.1034 23.8976 14.2598 22.31 11.4259 19.4839C8.59206 16.6579 7 12.8249 7 8.82832C7 8.59323 7.09365 8.36776 7.26035 8.20152C7.42705 8.03529 7.65314 7.94189 7.88889 7.94189H11C11.2357 7.94189 11.4618 8.03529 11.6285 8.20152C11.7952 8.36776 11.8889 8.59323 11.8889 8.82832C11.8889 9.93636 12.0667 11.0001 12.3956 11.9929C12.4933 12.3031 12.4222 12.6488 12.1733 12.897L10.2178 14.8472Z" fill="#CF0101"/>
<path d="M29.5 15.9197C29.5 23.9036 23.0094 30.3782 15 30.3782C6.99056 30.3782 0.5 23.9036 0.5 15.9197C0.5 7.93577 6.99056 1.46118 15 1.46118C23.0094 1.46118 29.5 7.93577 29.5 15.9197Z" stroke="#CF0101"/>
</svg>
