<svg width="60" height="60" viewBox="0 0 60 60" fill="none" xmlns="http://www.w3.org/2000/svg">
<rect x="0.00488281" width="60" height="60" rx="30" fill="#CF0101"/>
<path d="M44.126 35.9609L37.5635 33.1484C37.3877 33.0898 37.2119 33.0312 36.9775 33.0312C36.5674 33.0312 36.1572 33.2656 35.9229 33.5586L32.9932 37.1328C28.4229 34.9648 24.79 31.332 22.6221 26.7617L26.1963 23.832C26.4893 23.5977 26.7236 23.1875 26.7236 22.7188C26.7236 22.543 26.665 22.3672 26.6064 22.1914L23.7939 15.6289C23.5596 15.1016 23.0322 14.75 22.4463 14.75C22.3877 14.75 22.2705 14.8086 22.1533 14.8086L16.0596 16.2148C15.415 16.3906 15.0049 16.918 15.0049 17.5625C15.0049 32.6211 27.1338 44.75 42.1924 44.75C42.8369 44.75 43.3643 44.3398 43.54 43.6953L44.9463 37.6016C44.9463 37.4844 44.9463 37.3672 44.9463 37.3086C44.9463 36.7227 44.5947 36.1953 44.126 35.9609Z" fill="white"/>
</svg>
