<svg width="51" height="51" viewBox="0 0 51 51" fill="none" xmlns="http://www.w3.org/2000/svg">
<path d="M23.25 1.87639C24.6423 1.07254 26.3577 1.07254 27.75 1.87639L44.8336 11.7396C46.226 12.5435 47.0836 14.0291 47.0836 15.6368V35.3633C47.0836 36.9709 46.226 38.4565 44.8336 39.2604L27.75 49.1236C26.3577 49.9275 24.6423 49.9275 23.25 49.1236L6.16635 39.2604C4.77405 38.4565 3.91635 36.9709 3.91635 35.3633V15.6368C3.91635 14.0291 4.77405 12.5435 6.16635 11.7396L23.25 1.87639Z" stroke="#CF0101"/>
<path d="M28 26H30C30 24.6739 29.4732 23.4021 28.5355 22.4645C27.5979 21.5268 26.3261 21 25 21V23C25.7956 23 26.5587 23.3161 27.1213 23.8787C27.6839 24.4413 28 25.2044 28 26ZM32 26H34C34 21 29.97 17 25 17V19C28.86 19 32 22.13 32 26ZM33 29.5C31.75 29.5 30.55 29.3 29.43 28.93C29.08 28.82 28.69 28.9 28.41 29.18L26.21 31.38C23.38 29.94 21.06 27.62 19.62 24.79L21.82 22.59C22.1 22.31 22.18 21.92 22.07 21.57C21.7 20.45 21.5 19.25 21.5 18C21.5 17.7348 21.3946 17.4804 21.2071 17.2929C21.0196 17.1054 20.7652 17 20.5 17H17C16.7348 17 16.4804 17.1054 16.2929 17.2929C16.1054 17.4804 16 17.7348 16 18C16 22.5087 17.7911 26.8327 20.9792 30.0208C24.1673 33.2089 28.4913 35 33 35C33.2652 35 33.5196 34.8946 33.7071 34.7071C33.8946 34.5196 34 34.2652 34 34V30.5C34 30.2348 33.8946 29.9804 33.7071 29.7929C33.5196 29.6054 33.2652 29.5 33 29.5Z" fill="#CF0101"/>
</svg>
