<svg width="24" height="31" viewBox="0 0 24 31" fill="none" xmlns="http://www.w3.org/2000/svg">
<path d="M22.3425 6.12917C20.2591 3.65596 17.99 1.75343 15.5977 0.473987C14.4164 -0.157996 13.0055 -0.157996 11.8242 0.473987C9.43191 1.75343 7.16284 3.65596 5.07938 6.12917C4.55453 6.75165 4.26562 7.53 4.26562 8.32091V10.6809C1.20912 12.6438 0 14.2102 0 16.1434C0 16.8129 0.238022 17.3818 0.70785 17.8334C1.42313 18.522 2.6517 18.8927 4.19451 18.8927C4.21785 18.8927 4.24216 18.8916 4.26562 18.8914V28.3309C4.26562 29.5068 5.22253 30.4637 6.39844 30.4637H21.0234C22.1993 30.4637 23.1562 29.5068 23.1562 28.3309V8.32091C23.1562 7.53 22.8673 6.75165 22.3425 6.12917ZM22.5469 28.3309C22.5469 29.1712 21.8634 29.8543 21.0234 29.8543H6.39844C5.55848 29.8543 4.875 29.1712 4.875 28.3309V12.4871C4.875 12.3187 4.73874 12.1825 4.57031 12.1825C4.40188 12.1825 4.26562 12.3187 4.26562 12.4871V18.2791C2.86766 18.2906 1.73251 17.974 1.13009 17.3943C0.784631 17.0622 0.609375 16.6409 0.609375 16.1434C0.609375 14.6241 1.39785 13.1316 5.24544 10.7864C7.37149 9.49054 10.0849 8.25107 11.8848 7.4782C12.2573 8.10263 12.9326 8.52621 13.7109 8.52621C14.8868 8.52621 15.8437 7.56931 15.8437 6.39339C15.8437 5.21748 14.8868 4.26058 13.7109 4.26058C12.535 4.26058 11.5781 5.21748 11.5781 6.39339C11.5781 6.57462 11.6077 6.74775 11.6505 6.91593C9.83184 7.69679 7.08514 8.95155 4.9282 10.2663C4.90973 10.2775 4.89328 10.2883 4.87494 10.2996V8.32097C4.87494 7.67412 5.11296 7.03494 5.54531 6.52203C7.57874 4.10836 9.78772 2.25403 12.1116 1.01091C13.1131 0.475328 14.3087 0.476486 15.3102 1.01091C17.634 2.25403 19.843 4.10836 21.8764 6.52203C22.3088 7.03501 22.5468 7.67412 22.5468 8.32097L22.5469 28.3309ZM13.9948 6.28328C13.9338 6.12618 13.7568 6.04824 13.6005 6.10949C13.5841 6.11576 13.0481 6.32527 12.216 6.67529C12.1988 6.5837 12.1875 6.48986 12.1875 6.39333C12.1875 5.55307 12.871 4.8699 13.7109 4.8699C14.5509 4.8699 15.2344 5.55307 15.2344 6.39333C15.2344 7.2336 14.5509 7.91677 13.7109 7.91677C13.184 7.91677 12.7191 7.64755 12.4454 7.23969C13.2719 6.89199 13.8051 6.68346 13.8214 6.67718C13.9781 6.61649 14.0558 6.43983 13.9948 6.28328ZM14.8562 18.5398C13.8264 17.8567 13.2718 17.4175 13.2098 17.2467C13.1747 17.0039 13.2435 16.742 13.3857 16.579C13.4783 16.4731 13.5896 16.4225 13.755 16.4105C14.1454 16.3832 14.373 16.6539 14.4081 16.6986C14.9023 17.3848 15.8744 17.577 16.6209 17.1324C17.3562 16.6968 17.5695 15.8149 17.1279 15.0365C16.7684 14.4013 15.6735 13.4816 14.1221 13.3752C14.0964 13.2563 14.0723 13.1504 14.0663 13.097C13.9994 12.6867 13.3722 12.694 13.3078 13.097L13.2479 13.403C12.3079 13.5298 11.4718 13.9632 10.8744 14.6466C10.1537 15.4703 9.83263 16.5694 9.99332 17.6626C10.218 19.1955 11.6852 20.1685 12.9798 21.0272C13.5056 21.3765 14.3006 21.9044 14.472 22.1853C14.7127 22.5793 14.749 22.9619 14.5741 23.263C14.4062 23.5528 14.0724 23.7355 13.6543 23.7647C13.1702 23.8093 12.6088 23.182 12.4603 22.9554C12.0097 22.2436 11.0201 21.9996 10.2527 22.4138C9.54306 22.797 9.29821 23.6212 9.64275 24.4645C10.0749 25.5198 11.5849 26.6311 13.2434 26.7824L13.3078 27.1114C13.3722 27.5144 13.9993 27.5217 14.0662 27.1114C14.0732 27.0491 14.1047 26.9154 14.1346 26.773C15.5483 26.6063 16.7688 25.8552 17.4272 24.7197C18.1496 23.4742 18.1 21.9984 17.291 20.6719C16.7631 19.8054 15.7938 19.1623 14.8562 18.5398ZM16.9 24.414C16.3061 25.4387 15.1674 26.1046 13.8541 26.1951C12.0664 26.3165 10.5522 25.0763 10.207 24.2336C10.0285 23.7974 10.0229 23.2303 10.5424 22.9501C10.7069 22.8614 10.8869 22.8192 11.0642 22.8192C11.4162 22.8192 11.7581 22.9852 11.948 23.2857C12.161 23.6106 12.8861 24.4372 13.7002 24.3723C14.3197 24.3295 14.8303 24.0367 15.101 23.5689C15.3932 23.0661 15.3545 22.4615 14.9921 21.8676C14.7681 21.5004 14.129 21.0589 13.3167 20.5191C12.1283 19.7312 10.7815 18.8379 10.5962 17.5746C10.4617 16.6575 10.7301 15.7369 11.3332 15.0478C11.8795 14.4223 12.6683 14.0433 13.5547 13.9802C15.0695 13.8683 16.2412 14.7068 16.5977 15.337C16.873 15.822 16.7545 16.3451 16.31 16.6087C15.8402 16.8872 15.2093 16.7676 14.8957 16.3338C14.6791 16.0547 14.2495 15.7696 13.7145 15.8023C13.3839 15.8262 13.1262 15.9493 12.9265 16.1784C12.6686 16.4736 12.5463 16.9163 12.607 17.3353C12.6683 17.7489 13.3265 18.2565 14.5193 19.0479C15.4013 19.6329 16.3132 20.2381 16.7709 20.9891C17.46 22.1192 17.507 23.3678 16.9 24.414Z" fill="#CF0101"/>
</svg>
