<svg width="847" height="868" viewBox="0 0 847 868" fill="none" xmlns="http://www.w3.org/2000/svg">
<path d="M818.273 269.438C792.191 307.139 755.455 336.349 715.793 358.687C675.597 381.066 631.601 397.004 586.024 403.761V403.688C631.585 396.931 675.573 381.001 715.753 358.63C755.414 336.292 792.135 307.091 818.208 269.406C817.341 268.79 816.985 267.883 818.346 265.76C819.707 263.637 822.47 261.036 823.394 261.603C824.318 262.171 823.029 265.736 821.595 267.923C820.161 270.111 819.148 269.998 818.273 269.438Z" fill="#D1AE6F"/>
<path d="M244.142 705.198H244.085C244.067 700.576 244.496 695.963 245.365 691.424C244.591 695.975 244.181 700.581 244.142 705.198Z" fill="#D1AE6F"/>
<path d="M256.157 663.015C251.37 669.736 247.779 677.233 245.542 685.175C247.382 677.591 250.607 669.586 256.157 663.015Z" fill="#D1AE6F"/>
<path d="M261.717 657.62C265.18 654.883 269.089 652.765 273.271 651.356C277.601 649.82 282.198 649.184 286.782 649.488C291.366 649.792 295.839 651.028 299.928 653.123C303.703 655.065 307.04 657.759 309.735 661.039C312.43 664.319 314.425 668.116 315.598 672.196C319.755 686.375 311.272 701.956 296.695 706.923C293.892 707.919 290.915 708.33 287.947 708.132C284.979 707.934 282.083 707.131 279.437 705.772C276.989 704.516 274.824 702.771 273.075 700.646C271.326 698.521 270.031 696.061 269.269 693.416C266.571 684.212 272.072 674.1 281.536 670.867C283.363 670.223 285.303 669.958 287.236 670.088C289.17 670.217 291.057 670.739 292.782 671.621C294.381 672.447 295.794 673.593 296.934 674.986C298.074 676.38 298.916 677.992 299.41 679.723C301.176 685.743 297.579 692.363 291.396 694.461C290.196 694.888 288.921 695.065 287.651 694.98C286.38 694.895 285.14 694.55 284.007 693.967C282.953 693.428 282.02 692.678 281.267 691.764C280.515 690.85 279.958 689.79 279.632 688.652C279.116 686.662 279.376 684.551 280.358 682.746C281.34 680.941 282.972 679.576 284.923 678.929C285.722 678.642 286.572 678.523 287.419 678.579C288.267 678.634 289.094 678.864 289.849 679.253C291.004 679.849 291.921 680.821 292.45 682.008C292.56 682.196 292.644 682.397 292.701 682.608C292.729 682.676 292.753 682.747 292.774 682.818C292.867 683.311 292.828 683.82 292.661 684.292C292.493 684.765 292.204 685.185 291.821 685.509C291.439 685.833 290.977 686.05 290.483 686.138C289.989 686.226 289.481 686.181 289.01 686.008C288.54 685.835 288.123 685.541 287.803 685.155C287.483 684.768 287.272 684.304 287.19 683.809C287.108 683.315 287.159 682.807 287.337 682.338C287.515 681.869 287.814 681.456 288.204 681.141C288.545 680.874 288.941 680.686 289.363 680.59C289.32 680.569 289.279 680.545 289.241 680.517C288.654 680.214 288.011 680.035 287.351 679.992C286.692 679.949 286.03 680.042 285.409 680.266C283.798 680.791 282.448 681.911 281.634 683.397C280.819 684.882 280.602 686.623 281.025 688.263C281.3 689.217 281.766 690.106 282.396 690.873C283.025 691.641 283.805 692.272 284.688 692.727C285.653 693.219 286.709 693.508 287.79 693.577C288.871 693.647 289.955 693.496 290.975 693.133C296.444 691.277 299.637 685.443 298.081 680.169C297.636 678.628 296.882 677.194 295.863 675.956C294.845 674.717 293.584 673.7 292.158 672.966C290.603 672.171 288.902 671.702 287.159 671.586C285.417 671.47 283.669 671.711 282.022 672.293C273.271 675.283 268.175 684.617 270.678 693.092C271.388 695.553 272.593 697.842 274.219 699.821C275.845 701.799 277.858 703.425 280.134 704.598C282.613 705.864 285.324 706.612 288.102 706.796C290.88 706.98 293.666 706.596 296.29 705.667C310.154 700.935 318.232 686.14 314.286 672.674C313.162 668.78 311.255 665.157 308.682 662.027C306.108 658.896 302.923 656.324 299.321 654.468C295.398 652.464 291.108 651.282 286.713 650.992C282.317 650.702 277.909 651.311 273.757 652.782C266.118 655.362 259.512 660.334 254.919 666.962C256.277 664.744 257.762 662.607 259.367 660.561C260.105 659.483 260.899 658.535 261.717 657.62Z" fill="#D1AE6F"/>
<path d="M29.905 575.177C18.2132 557.149 32.5464 556.955 32.5464 556.955C32.5464 556.955 27.0124 558.867 34.8475 565.179C42.6826 571.491 67.9623 544.923 111.237 570.04C149.627 592.265 150.834 622.026 150.834 622.026C154.456 621.126 157.827 588.19 157.827 588.19C160.935 593.527 162.992 599.41 163.887 605.521C167.192 597.236 171.587 589.43 176.957 582.307C182.103 575.636 186.872 568.681 191.241 561.476C195.754 544.355 196.24 523.192 180.959 506.258C172.808 497.24 161.918 492.078 150.291 491.738C144.925 491.562 139.58 492.484 134.584 494.449C129.587 496.414 125.045 499.379 121.236 503.163C107.988 516.207 107.794 538.538 120.798 552.944C123.234 555.713 126.209 557.956 129.541 559.534C132.874 561.113 136.494 561.994 140.179 562.124C143.568 562.234 146.943 561.65 150.099 560.411C153.254 559.171 156.124 557.3 158.532 554.913C166.885 546.697 166.999 532.607 158.799 523.516C157.271 521.78 155.405 520.374 153.315 519.384C151.226 518.393 148.956 517.839 146.645 517.755C144.522 517.685 142.406 518.05 140.429 518.827C138.452 519.605 136.655 520.779 135.148 522.276C129.922 527.405 129.865 536.221 134.986 541.892C135.934 542.97 137.092 543.845 138.389 544.462C139.686 545.079 141.094 545.426 142.529 545.482C143.843 545.519 145.151 545.29 146.373 544.809C147.596 544.327 148.708 543.602 149.643 542.678C152.884 539.518 152.884 534.09 149.724 530.589C149.15 529.931 148.447 529.398 147.658 529.023C146.869 528.648 146.011 528.439 145.138 528.41C145.073 528.41 145.017 528.41 144.944 528.41C145.494 528.903 145.886 529.547 146.072 530.261C146.258 530.976 146.23 531.729 145.99 532.428C145.751 533.126 145.311 533.739 144.726 534.189C144.141 534.639 143.436 534.907 142.699 534.959C141.962 535.011 141.227 534.845 140.584 534.482C139.941 534.118 139.42 533.574 139.084 532.916C138.749 532.258 138.615 531.516 138.699 530.782C138.783 530.049 139.081 529.356 139.556 528.791C139.628 528.718 139.701 528.669 139.782 528.596C139.983 528.39 140.209 528.21 140.455 528.061C141.833 527.035 143.517 526.501 145.235 526.546C146.361 526.583 147.467 526.851 148.484 527.333C149.502 527.816 150.409 528.502 151.15 529.35C154.983 533.595 154.918 540.183 150.988 544.047C149.877 545.153 148.55 546.018 147.091 546.591C145.632 547.164 144.071 547.431 142.505 547.378C140.811 547.325 139.146 546.925 137.613 546.203C136.08 545.481 134.712 544.452 133.592 543.181C127.791 536.771 127.92 526.789 133.827 520.956C135.513 519.279 137.525 517.966 139.737 517.097C141.95 516.227 144.318 515.82 146.694 515.9C149.26 515.988 151.782 516.6 154.104 517.696C156.427 518.792 158.501 520.351 160.201 522.276C169.065 532.113 168.919 547.353 159.86 556.307C157.274 558.876 154.19 560.889 150.797 562.222C147.404 563.556 143.774 564.181 140.131 564.061C136.192 563.927 132.322 562.989 128.759 561.305C125.196 559.62 122.016 557.224 119.413 554.265C105.736 539.113 105.963 515.616 119.923 501.882C123.914 497.918 128.672 494.811 133.907 492.753C139.142 490.695 144.742 489.729 150.364 489.915C162.518 490.271 173.861 495.643 182.353 505.05C196.775 521.02 197.496 540.426 193.907 556.971C216.027 517.682 207.738 496.794 207.738 496.794C227.184 530.087 196.556 571.904 196.556 571.904C196.556 571.904 256.45 523.135 234.322 466.078C203.727 387.095 137.206 419.894 137.206 419.894C163.701 394.727 200.405 413.533 200.405 413.533C125.255 365.648 79.2084 451.396 79.2084 451.396C109.058 376.464 172.022 392.831 172.022 392.831C156.83 382.906 137.992 381.099 137.992 381.099C200.907 368.038 253.363 445.108 245.301 500.31C237.239 555.512 195.762 582.891 195.762 582.891C198.069 582.431 200.309 581.686 202.431 580.671C218.563 564.895 237.271 547.143 258.532 528.572C263.35 524.407 268.328 520.207 273.465 515.972C285.494 500.962 296.671 485.289 306.944 469.027C329.599 434.024 357.73 376.756 338.487 320.128C334.771 308.189 329.479 296.8 322.752 286.26C299.531 279.883 283.812 288.415 283.674 288.901C278.812 291.089 268.628 297.7 261.846 310.672C254.505 322.737 252.447 342.159 265.662 352.068C277.297 362.366 296.719 358.315 301.823 348.957C307.204 339.42 302.172 330.888 303.898 330.621C303.954 329.883 312.154 337.54 306.628 351.598C300.43 365.024 276.649 371.238 260.606 358.218C243.089 345.667 245.763 319.642 254.23 306.54C261.87 291.81 273.886 283.853 279.866 281.163C279.987 280.564 294.815 273.126 315.946 276.391C291.979 244.443 256.587 223.133 225.563 222.412C180.003 223.036 163.887 257.828 163.863 257.188C159.812 263.435 152.925 281.123 162.915 299.402C171.204 318.038 203.362 324.374 219.754 307.715C227.605 299.799 231.097 287.191 225.863 278.23C221.058 269.188 210.598 265.218 202.974 267.308C187.417 272.469 185.099 285.79 184.168 285.036C184.516 284.745 186.258 271.57 202.528 265.542C210.841 263.022 222.533 267.162 227.921 277.104C233.901 287.102 230.06 301.03 221.65 309.603C203.824 327.712 169.721 321.108 160.371 300.763C149.692 281.317 157.13 262.26 161.335 255.77C161.456 256.362 178.083 220.371 225.498 219.763C258.313 220.695 294.936 243.333 319.122 276.958C325.62 278.273 331.919 280.425 337.863 283.359C353.712 289.914 368.653 306.856 373.968 327.266C379.51 347.612 377.703 370.939 370.176 391.389C355.518 432.452 330.271 465.859 308.403 489.21C316.562 483.441 325.037 477.802 333.828 472.406C366.481 442.524 404.636 401.752 433.821 352.975C443.903 334.455 451.877 314.862 457.593 294.565C458.031 292.815 458.46 291.064 458.882 289.314C459.643 275.791 456.029 264.513 450.957 256.686C449.886 254.972 448.663 253.359 447.303 251.865C445.82 250.244 443.835 248.535 441.575 248.292C438.455 247.967 435.093 248.664 434.769 252.343C437.021 249.442 439.63 253.153 438.739 255.673C438.378 256.61 437.728 257.408 436.883 257.952C436.038 258.495 435.042 258.755 434.039 258.695C431.317 258.355 429.664 255.316 429.988 252.772C430.596 248.405 435.409 246.825 439.184 246.606C441.098 246.583 442.989 247.025 444.694 247.895C444.354 246.728 442.782 246.055 441.826 245.399C439.67 243.954 437.216 243.013 434.647 242.644C432.492 242.28 430.345 242.571 428.165 242.466C425.2 242.263 422.736 242.061 419.82 242.693C416.903 243.325 414.148 245.172 411.717 246.987C411.993 245.723 411.652 244.232 411.774 242.936C412.171 238.658 414.869 233.002 418.953 231.163C420.808 230.353 423.101 230.458 425.062 230.102C424.73 230.15 423.766 229.599 423.368 229.51C422.664 229.376 421.945 229.336 421.229 229.389C419.869 229.516 418.554 229.945 417.381 230.644C414.569 232.265 412.803 235.109 411.053 237.734C408.873 241.072 403.534 242.782 399.831 241.332C400.892 241.753 403.817 235.563 403.396 234.436C403.809 235.506 399.523 238.771 398.534 239.338C396.023 240.829 391.85 240.959 390.902 244.313C389.759 241.445 390.035 234.882 393.333 230.701C395.123 228.432 396.436 226.52 398.94 225.029C398.129 225.54 397.116 225.653 396.25 226.334C395.626 226.828 395.034 227.355 394.402 227.833C389.362 231.609 386.559 239.914 385.619 247.344C384.898 252.967 387.053 261.928 390.019 266.717C393.09 271.683 400.082 276.099 406.07 275.889C407.074 275.848 407.763 275.127 408.914 275.289C407.79 275.232 406.71 274.835 405.818 274.151C404.925 273.466 404.261 272.527 403.914 271.457C402.294 266.409 406.418 260.713 411.936 262.041C415.987 262.998 417.956 267.778 416.295 271.473C415.716 272.671 414.903 273.742 413.904 274.621C412.905 275.501 411.74 276.171 410.477 276.593C406.956 277.779 403.118 277.596 399.725 276.083C380.498 267.47 379.68 239.314 393.697 226.52C399.62 221.116 407.415 217.17 415.477 217.016C425.2 216.822 434.112 221.626 440.781 228.416C443.284 230.956 445.547 233.722 447.538 236.681C457.658 251.516 461.126 266.125 461.223 279.065C461.661 276.996 462.087 274.93 462.503 272.866C467.729 242.539 465.671 213.548 452.391 191.89C425.524 152.099 386.632 153.039 386.664 152.926C378.505 152.739 359.359 152.683 341.493 165.25C323.611 176.018 311.368 207.164 327.541 226.828C335.4 235.741 348.34 240.238 358.589 237.207C368.904 233.861 376.536 225.232 378.286 217.089C379.793 208.768 374.673 201.694 370.241 200.341C365.655 199.118 363.167 201.783 362.948 201.297C363.167 201.208 365.379 198.316 370.613 199.247C375.823 200.625 381.633 207.974 380.239 217.421C378.432 226.593 370.589 235.717 359.383 239.573C347.829 243.082 334.144 238.301 325.418 228.692C310.582 210.575 317.413 184.663 331.09 169.941C329.804 171.067 328.651 172.336 327.654 173.725C321.172 183.188 316.084 196.744 299.409 198.21C299.409 198.21 302.204 193.219 301.637 191.728C301.637 191.728 291.104 198.453 274.202 190.537C255.161 181.625 258.257 166.53 254.205 165.331C250.154 164.131 250.81 166.514 250.81 166.514C250.81 166.514 247.44 161.522 256.482 161.231C256.482 161.231 256.547 138.285 279.979 132.572C279.979 132.572 280.789 134.541 277.727 136.04C277.727 136.04 306.207 135.465 306.758 155.421C306.758 155.421 303.266 148.899 297.416 149.847C291.566 150.795 291.015 152.966 282.321 152.277C282.321 152.277 291.452 153.517 288.495 162.697C288.495 162.697 280.393 156.701 275.612 166.125C270.832 175.548 276.819 183.561 283.974 186.235C283.974 186.235 282.272 185.02 283.828 182.362C283.828 182.362 293.907 190.732 304.254 185.384C304.254 185.384 287.652 187.928 285.74 175.58C285.74 175.58 287.506 177.249 291.412 177.735C291.412 177.735 290.901 177.346 291.12 174.883C291.12 174.883 301.127 177.914 305.956 172.558C310.785 167.202 322.679 160.469 332.41 159.375C330.776 158.479 329.385 157.197 328.359 155.64C332.651 156.311 336.981 156.717 341.323 156.855C344.126 156.855 359.084 153.112 358.881 153.177C358.426 153.338 357.98 153.522 357.544 153.728C369.998 149.555 381.09 149.677 386.891 149.758C386.891 149.944 427.104 148.947 454.846 190.229C463.589 204.692 467.559 221.983 467.883 240.602C470.593 219.444 471.946 198.135 471.935 176.804C471.935 175.353 471.935 173.911 471.935 172.461C471.189 116.805 461.401 60.2822 436.187 10.2171C435.012 10.7924 433.829 10.6465 432.346 7.9322C430.863 5.21788 429.696 0.737217 430.839 0.0809176C431.981 -0.575381 435.068 2.89247 436.575 5.71213C438.083 8.53178 437.386 9.5851 436.268 10.1766C461.32 60.266 471.165 116.797 471.886 172.469C471.886 173.919 471.886 175.361 471.886 176.812C471.898 198.347 470.52 219.86 467.762 241.218C467.823 253.465 466.61 265.684 464.14 277.679C477.558 235.644 497.287 195.65 521.627 158.881C552.586 112.608 591.632 70.5642 640.044 42.2866C639.404 41.1685 639.429 39.8559 642.208 38.3812C644.987 36.9066 649.5 35.6102 650.091 36.7607C650.683 37.9113 647.288 41.0307 644.549 42.5297C641.811 44.0287 640.757 43.4696 640.085 42.3514C591.689 70.6047 552.651 112.648 521.708 158.913C497.214 195.909 477.396 236.17 463.978 278.489C462.43 286.081 460.453 293.722 458.104 301.33C457.447 303.648 456.726 305.827 455.981 307.861C455.77 308.477 455.568 309.092 455.349 309.7C455.106 310.762 454.847 311.815 454.612 312.868H454.522C454.701 312.058 454.887 311.304 455.073 310.518C453.923 313.797 452.713 317.06 451.443 320.306C454.332 315.684 457.509 311.248 460.956 307.026C480.094 283.529 514.124 255.794 563.995 249.693V249.564L565.704 249.491C569.018 249.126 572.397 248.843 575.849 248.681C599.346 245.958 635.718 235.952 646.656 200.649C650.975 186.624 649.605 172.137 642.815 159.861C639.687 154.177 635.429 149.193 630.302 145.217C625.176 141.24 619.29 138.354 613.007 136.737C591.3 131.017 568.005 144.588 561.045 166.975C559.678 171.214 559.189 175.687 559.607 180.121C560.025 184.555 561.341 188.857 563.476 192.765C565.46 196.346 568.151 199.486 571.387 201.993C574.623 204.501 578.335 206.323 582.298 207.35C595.975 210.955 610.657 202.391 615.04 188.269C615.903 185.607 616.215 182.797 615.956 180.011C615.697 177.225 614.872 174.521 613.533 172.064C612.297 169.819 610.616 167.849 608.593 166.275C606.571 164.701 604.248 163.555 601.768 162.908C593.196 160.664 584.024 166.027 581.293 174.859C580.739 176.506 580.53 178.25 580.681 179.982C580.831 181.714 581.338 183.396 582.169 184.922C582.928 186.318 583.968 187.543 585.223 188.519C586.478 189.495 587.921 190.201 589.461 190.594C594.735 191.988 600.407 188.682 602.052 183.237C602.39 182.237 602.515 181.178 602.418 180.127C602.322 179.076 602.007 178.057 601.493 177.136C601.458 177.065 601.417 176.997 601.371 176.933C601.252 177.61 600.975 178.248 600.561 178.797C600.077 179.443 599.43 179.948 598.686 180.261C597.942 180.575 597.128 180.685 596.328 180.58C595.528 180.475 594.77 180.16 594.131 179.666C593.493 179.172 592.998 178.517 592.696 177.769C592.393 177.021 592.296 176.205 592.412 175.407C592.529 174.608 592.856 173.855 593.359 173.224C593.863 172.593 594.525 172.108 595.278 171.817C596.031 171.526 596.847 171.441 597.644 171.569V171.529C597.754 171.558 597.862 171.593 597.968 171.634C598.309 171.714 598.638 171.837 598.949 171.999C600.862 172.793 602.453 174.205 603.47 176.01C604.124 177.205 604.528 178.521 604.658 179.878C604.788 181.235 604.64 182.604 604.223 183.901C602.19 190.497 595.311 194.483 588.829 192.814C586.995 192.346 585.277 191.505 583.783 190.344C582.288 189.183 581.049 187.726 580.143 186.065C579.161 184.279 578.555 182.311 578.362 180.282C578.168 178.254 578.391 176.207 579.017 174.268C582.096 164.277 592.507 158.225 602.238 160.793C605.02 161.513 607.626 162.794 609.894 164.558C612.163 166.322 614.046 168.532 615.429 171.051C616.925 173.768 617.848 176.764 618.141 179.852C618.433 182.94 618.09 186.056 617.131 189.006C612.407 204.271 596.486 213.508 581.618 209.61C577.366 208.49 573.389 206.513 569.93 203.8C566.47 201.087 563.601 197.696 561.499 193.835C559.22 189.66 557.813 185.065 557.363 180.329C556.913 175.594 557.43 170.816 558.882 166.287C566.174 142.79 590.717 128.497 613.606 134.517C620.181 136.217 626.338 139.244 631.7 143.412C637.062 147.579 641.515 152.799 644.784 158.751C651.898 171.561 653.324 186.681 648.836 201.314C639.583 231.187 612.917 243.527 590.336 248.559C591.535 248.559 592.767 248.648 593.974 248.721C601.181 249.063 608.341 250.067 615.364 251.719C634.105 256.224 651.72 266.555 661.573 283.545C669.772 297.692 671.117 315.258 667.982 331.204C660.544 368.913 610.981 397.036 575.905 372.794C569.729 368.503 565.391 362.048 563.752 354.709C563.157 352.078 563.096 349.354 563.572 346.699C564.048 344.044 565.052 341.511 566.523 339.25C571.133 332.541 581.48 330.937 587.387 336.892C595.489 345.059 589.906 358.161 579.527 360.673C574.828 361.815 570.46 359.862 567.633 356.046C569.115 357.885 568.613 359.822 569.594 361.588C575.525 372.121 590.482 379.665 602.295 379.762C613.72 379.859 631.464 374.155 640.441 367.025C652.336 357.618 663.728 344.063 664.984 331.374C665.138 329.754 665.446 328.182 665.648 326.586C665.907 324.398 665.081 322.591 665.097 320.574C665.097 326.464 663.136 330.758 661.095 336.252C657.327 346.404 646.308 353.737 640.142 354.798C645.003 349.621 640.766 342.272 640.717 336.382C640.717 334.056 641.803 323.231 644.128 322.81C641.697 323.256 634.081 334.818 635.92 336.244C629.519 331.334 626.886 320.282 630.338 312.99C633.092 307.245 636.196 301.168 636.009 294.646C635.976 291.866 635.323 289.128 634.097 286.632C633.463 285.338 632.644 284.142 631.666 283.084C631.115 282.484 629.163 281.423 628.904 280.758C630.313 284.526 632.914 288.383 633.441 292.442C634.583 301.452 627.591 312.058 620.607 317.227C618.459 318.848 615.551 319.828 613.63 321.603C614.189 315.453 614.586 308.938 612.528 302.967C610.584 297.295 607.618 293.244 604.183 288.269C601.687 284.664 599.962 280.62 597.061 277.29C593.712 273.222 589.499 269.951 584.729 267.713C582.622 266.806 579.819 264.748 577.437 265.38C580.2 266.83 583.992 270.784 585.466 273.571C589.015 280.337 591.341 290.319 584.437 295.942C580.386 299.183 573.394 299.564 569.95 295.132C567.463 291.98 567.787 286.875 570.266 283.788C573.701 279.535 582.825 280.256 580.151 287.183C586.131 282.759 583.83 276.245 579.989 271.197C577.194 267.551 572.113 265.939 567.835 265.039C563.829 264.26 559.762 263.831 555.682 263.759C523.588 262.844 478.643 279.616 446.169 332.906C446.169 332.987 446.096 333.068 446.063 333.157C445.48 334.777 444.886 336.419 444.281 338.083H444.2C444.67 336.795 445.132 335.498 445.594 334.21C442.547 340.919 439.265 347.498 435.798 353.859C407.593 400.545 371.318 439.745 339.459 468.978C359.039 457.251 379.681 447.398 401.111 439.55C414.393 434.533 428.068 430.628 441.996 427.874C493.325 413.412 546.445 405.309 599.662 403.065C608.488 402.73 617.331 402.562 626.189 402.562C696.446 402.562 767.31 413.476 831.846 441.908C832.599 440.239 834.082 439.185 838.141 441.098C842.201 443.01 847.37 447.15 846.527 448.811C845.685 450.472 839.308 449.135 835.306 447.239C831.303 445.343 831.076 443.666 831.813 441.957C767.285 413.533 696.438 402.619 626.189 402.619C617.341 402.619 608.502 402.787 599.67 403.121C546.818 405.382 494.071 413.355 443.114 427.623C489.501 418.581 539.226 421.733 583.092 438.716C601.092 445.6 617.925 455.211 633.003 467.212C649.8 476.262 665.413 475.566 675.849 471.352C677.467 470.728 679.026 469.96 680.508 469.059C682.129 468.063 683.879 466.677 684.454 464.805C685.264 462.229 685.191 459.304 682.161 458.413C684.243 460.779 680.711 462.415 678.709 461.224C677.976 460.768 677.408 460.09 677.087 459.288C676.766 458.487 676.71 457.604 676.927 456.768C677.656 454.523 680.484 453.624 682.599 454.337C686.18 455.561 686.723 459.879 686.301 463.096C686.007 464.714 685.326 466.237 684.316 467.536C685.353 467.439 686.172 466.215 686.885 465.518C688.456 463.937 689.65 462.02 690.377 459.912C691.033 458.153 691.139 456.298 691.584 454.475C692.324 452.189 692.714 449.804 692.743 447.401C692.678 444.728 691.584 442.208 690.45 439.842C691.471 440.271 692.783 440.231 693.869 440.547C697.418 441.576 701.745 444.768 702.636 448.511C703.017 450.213 702.547 452.125 702.539 453.843C702.539 453.551 703.163 452.83 703.349 452.506C703.574 451.934 703.724 451.334 703.795 450.723C703.916 449.555 703.769 448.375 703.365 447.272C702.482 444.647 700.343 442.686 698.415 440.79C695.984 438.408 695.376 433.627 697.207 430.743C696.672 431.553 701.421 435.045 702.441 434.867C701.469 435.045 699.411 430.897 699.103 430.005C698.252 427.648 698.844 424.107 696.146 422.713C698.747 422.227 704.248 423.523 707.222 427.008C708.842 428.879 710.252 430.297 711.119 432.679C710.961 431.834 710.739 431.003 710.455 430.192C710.139 429.584 709.79 429.001 709.491 428.393C707.125 423.532 700.578 419.812 694.469 417.811C689.834 416.288 681.934 416.653 677.453 418.37C672.762 420.153 667.901 425.338 667.107 430.419C666.977 431.229 667.479 431.974 667.147 432.914C667.378 431.975 667.889 431.127 668.613 430.485C669.336 429.842 670.238 429.435 671.198 429.317C675.711 428.798 679.86 433.182 677.842 437.614C676.376 440.855 672.025 441.762 669.173 439.761C668.257 439.078 667.486 438.218 666.908 437.233C666.329 436.248 665.953 435.157 665.802 434.024C665.376 430.862 666.154 427.654 667.982 425.039C678.369 410.211 702.247 414.108 710.755 428.012C714.352 433.887 716.426 441.098 715.235 447.92C713.817 456.152 708.324 462.861 701.502 467.414C698.94 469.111 696.228 470.568 693.399 471.766C669.424 482.129 649.119 476.53 635.783 469.497C643.907 476.288 651.318 483.89 657.902 492.184C677.397 516.434 687.995 546.77 690.142 576.449C693.861 605.829 685.653 637.323 665.389 657.012C646.048 677.495 618.395 686.254 594.087 684.261C568.662 681.603 551.379 659.726 550.059 639.77C548.77 629.82 552.198 619.684 558.971 613.964C561.983 611.282 565.557 609.307 569.43 608.186C573.304 607.064 577.38 606.824 581.358 607.482C584.541 608.335 587.358 610.205 589.379 612.807C591.401 615.409 592.516 618.601 592.556 621.896C592.807 627.981 586.811 631.408 583.068 630.331C582.011 630.09 581.08 629.467 580.455 628.582C579.83 627.696 579.554 626.61 579.681 625.534C579.414 627.965 582.331 631.554 586.487 629.942C591.827 628.88 594.031 621.029 590.206 615.114C586.965 608.576 577.915 606.201 569.723 609.126C561.386 611.436 553.85 619.141 551.898 629.059C550.509 639.852 553.002 650.787 558.931 659.913C565.406 669.979 575.426 677.246 587.006 680.274C598.892 683.15 612.221 681.611 624.682 678.022C649.8 670.478 671.976 650.165 680.905 624.189C689.834 598.212 685.613 569.011 678.418 543.707C662.82 491.195 617.73 459.523 582.865 446.632C581.245 445.975 579.584 445.343 577.89 444.719C580.141 446.438 582.219 448.37 584.097 450.488C584.097 450.488 573.232 452.109 571.554 454.588C571.554 454.588 593.674 462.691 599.913 497.037C606.962 535.775 579.997 548.528 582.598 555.966C585.199 563.404 588.164 559.677 588.164 559.677C588.164 559.677 584.113 570.486 573.718 557.295C573.718 557.295 537.799 583.62 503.032 555.107C503.032 555.107 505.26 551.607 510.948 554.475C510.948 554.475 478.668 512.521 509.23 488.732C509.23 488.732 502.902 501.453 510.851 509.134C518.799 516.815 522.761 515.114 531.301 528.904C531.301 528.904 523.199 513.785 540.757 507.659C540.757 507.659 540.376 526.724 560.292 523.005C580.208 519.286 586.171 501.129 582.501 487.355C582.501 487.355 582.452 491.309 576.602 492.046C576.602 492.046 578.563 467.309 558.777 458.016C558.777 458.016 581.083 479.941 563.906 497.005C563.906 497.005 564.578 492.451 561.07 486.083C561.07 486.083 561.013 487.306 556.921 489.793C558.963 488.546 542.855 467.73 540.271 465.656C524.633 453.033 507.577 444.266 488.609 437.897C482.387 435.823 477.371 433.271 471.262 432.169C460.63 433.181 450.075 434.88 439.663 437.257C419.549 441.987 399.976 448.775 381.252 457.513C400.325 452.652 423.101 452.733 441.964 469.594C447.234 474.214 451.516 479.852 454.551 486.17C457.587 492.487 459.313 499.353 459.627 506.355C459.919 512.842 458.904 519.321 456.642 525.408C454.38 531.495 450.918 537.065 446.46 541.787C431.066 558.17 404.328 558.851 386.964 543.294C383.548 540.291 380.776 536.627 378.815 532.523C376.854 528.419 375.745 523.96 375.556 519.416C375.362 515.212 376.017 511.012 377.48 507.065C378.943 503.119 381.184 499.508 384.072 496.446C394.07 485.815 411.409 485.361 422.68 495.457C424.91 497.403 426.722 499.782 428.006 502.449C429.29 505.116 430.02 508.016 430.15 510.973C430.27 513.718 429.839 516.458 428.881 519.033C427.924 521.607 426.46 523.964 424.576 525.963C418.037 532.923 406.75 533.255 399.337 526.619C397.873 525.336 396.685 523.77 395.842 522.016C395 520.261 394.521 518.354 394.435 516.41C394.353 514.601 394.636 512.794 395.265 511.097C395.894 509.399 396.857 507.844 398.097 506.525C402.424 501.931 409.91 501.736 414.796 506.096C415.765 506.953 416.552 507.996 417.109 509.164C417.666 510.332 417.981 511.601 418.037 512.894C418.117 514.873 417.548 516.825 416.417 518.452C416.254 518.745 416.055 519.018 415.825 519.262C415.736 519.359 415.687 519.448 415.606 519.538V519.489C415.03 520.007 414.322 520.356 413.56 520.499C412.799 520.642 412.013 520.573 411.288 520.299C410.214 519.869 409.355 519.029 408.899 517.966C408.443 516.903 408.428 515.702 408.857 514.627C409.051 514.096 409.35 513.609 409.734 513.194C410.119 512.78 410.582 512.446 411.098 512.212C411.613 511.978 412.169 511.849 412.735 511.833C413.3 511.816 413.863 511.912 414.391 512.116C414.995 512.362 415.535 512.741 415.971 513.226C415.975 513.15 415.975 513.074 415.971 512.999C415.924 511.994 415.673 511.009 415.235 510.104C414.796 509.199 414.178 508.392 413.419 507.732C409.367 504.143 403.242 504.273 399.693 508.048C398.651 509.15 397.841 510.45 397.312 511.871C396.783 513.293 396.546 514.806 396.614 516.321C396.692 517.973 397.103 519.592 397.821 521.082C398.54 522.571 399.551 523.901 400.795 524.991C407.277 530.824 417.324 530.581 423.085 524.464C424.769 522.682 426.077 520.579 426.93 518.281C427.784 515.983 428.165 513.536 428.052 511.087C427.936 508.424 427.28 505.813 426.124 503.412C424.968 501.01 423.336 498.869 421.327 497.118C410.883 487.776 394.896 488.149 385.676 497.928C382.989 500.776 380.902 504.135 379.541 507.806C378.179 511.476 377.571 515.384 377.752 519.294C377.944 523.535 378.992 527.693 380.833 531.518C382.674 535.343 385.269 538.756 388.463 541.552C405.016 556.355 430.385 555.747 445.018 540.183C449.275 535.676 452.58 530.358 454.738 524.546C456.896 518.734 457.861 512.548 457.577 506.355C457.271 499.646 455.612 493.068 452.699 487.017C449.786 480.966 445.68 475.566 440.627 471.142C416.976 449.994 386.77 456.265 366.254 464.765C338.179 479.212 311.668 497.175 288.074 516.07C265.824 533.782 245.487 551.874 227.305 568.655C226.373 569.708 225.45 570.705 224.55 571.661C239.558 563.717 255.837 558.455 272.655 556.112C310.736 551.251 348.064 559.353 382.848 586.375C402.322 602.299 416.125 624.094 422.197 648.506C428.269 672.919 426.284 698.64 416.538 721.832C406.224 747.063 385.895 768.575 361.239 777.447C336.867 786.886 310.558 784.739 290.747 775.826C270.629 767.197 256.806 752.329 250.454 738.863C245.821 729.514 243.172 719.307 242.676 708.884C242.393 700.874 243.366 692.869 245.56 685.16C247.797 677.217 251.388 669.721 256.174 663C259.217 658.713 262.807 654.842 266.853 651.486C278.504 641.802 293.433 636.969 308.549 637.987C316.117 638.48 323.515 640.448 330.328 643.781C323.895 640.661 313.912 637.542 299.717 638.441C285.074 639.777 271.489 646.634 261.716 657.62C260.906 658.535 260.096 659.483 259.286 660.48C257.68 662.526 256.195 664.663 254.837 666.881C250.215 674.422 246.993 682.736 245.325 691.423C244.456 695.963 244.027 700.575 244.045 705.197C244.079 710.48 244.707 715.741 245.917 720.884C248.116 730.681 252.299 739.924 258.208 748.043C266.61 759.516 281.567 771.378 301.548 777.277C323.682 783.751 347.45 781.57 368.037 771.176C390.197 760.407 407.083 738.766 415.46 714.58C422.766 693.602 423.723 670.936 418.21 649.417C412.697 627.898 400.961 608.483 384.469 593.602C400.398 610.083 414.796 637.355 418.831 656.445C424.624 683.953 418.961 712.101 399.725 733.135C386.381 747.719 374.349 759.654 354.352 762.879C329.064 766.93 300.746 748.481 296.492 729.059C302.925 745.078 316.87 753.771 330.571 757.353C363.345 765.95 384.987 742.963 389.525 737.567C372.088 746.844 366.935 750.028 348.793 746.35C357.965 746.949 371.083 745.458 376.715 738.976C375.24 740.694 366.1 741.464 363.815 741.18C347.886 739.244 338.9 728.557 338.779 724.165C347.935 735.16 361.466 739.301 376.22 734.99C393.754 729.918 402.788 718.315 409.748 704.419C417.802 688.368 417.04 668.963 413.119 651.859C415.128 660.48 413.678 670.332 411.498 678.799C408.978 688.356 404.441 697.263 398.194 704.922C392.036 712.457 380.879 721.248 370.751 721.321C372.453 721.321 398.299 716.014 409.173 670.381C417.008 637.696 392.83 608.43 375.953 586.731C343.802 563.461 309.675 555.942 273.74 559.993C254.672 562.422 236.289 568.669 219.689 578.361C216.399 580.29 213.158 582.38 209.966 584.633L204.967 589.316C222.047 578.216 242.238 569.254 260.225 570.859C281.008 572.746 311.392 583.482 316.546 606.688C307.528 597.37 294.669 588.157 282.75 583.101C285.991 587.485 290.124 590.045 288.86 595.936C289.71 591.884 271.407 583.182 268.36 582.161C242.838 573.354 218.263 585.038 197.869 599.987C213.337 590.069 238.13 589.972 250.802 604.208C242.36 594.728 218.627 596.495 208.483 600.667C216.513 597.613 230.733 601.186 238.73 603.86C248.506 607.174 257.46 612.542 264.99 619.603C251.904 607.393 220.993 601.453 204.035 606.25C191.743 609.734 179.792 616.613 171.909 626.506C170.11 628.767 168.214 631.044 166.237 633.345C159.143 645.661 153.582 658.798 149.676 672.463L149.424 673.557C149.424 673.428 149.424 673.314 149.465 673.193C147.514 680.07 145.967 687.055 144.83 694.113C154.829 671.993 173.813 647.929 198.558 648.099C184.986 656.275 170.499 669.044 161.205 681.862C167.323 679.213 171.495 674.999 178.164 678.111C173.57 675.988 158.191 695.401 156.101 698.732C150.231 708.142 146.744 718.84 145.94 729.902C146.913 741.926 148.25 753.763 149.522 763.47C151.765 771.684 154.609 779.721 158.029 787.518C150.461 766.387 157.146 736.845 177.564 725.656C163.96 733.11 159.561 761.85 161.748 775.081C160.306 764.685 168.465 748.732 173.837 739.941C180.462 729.214 189.302 720.026 199.765 712.992C181.648 725.227 166.091 760.399 167.161 781.863C167.971 797.46 172.832 813.576 182.458 825.673C192.497 838.272 202.439 853.448 214.058 865.01C214.868 865.594 215.241 865.877 215.143 865.893C215.233 865.893 214.876 865.618 214.114 865.083C215.119 866.08 216.132 867.06 217.161 868C208.418 864.484 203.095 857.24 196.799 850.604C195.446 849.308 194.028 847.922 192.562 846.439C181 835.906 167.874 819.701 160.282 805.465C153.038 791.764 145.519 774.173 141.111 756.178C139.191 751.786 137.498 748.238 136.444 746.779C130.3 738.493 123.643 730.599 116.512 723.144C120.923 723.019 125.299 723.973 129.257 725.923C118.198 705.424 115.224 673.022 119.097 656.331C122.97 639.64 103.492 624.205 103.492 624.205C108.013 620.429 109.471 620.883 109.471 620.883C103.257 613.98 97.5848 612.781 97.5848 612.781C124.323 599.744 141.873 635.646 141.873 635.646C138.275 608.162 108.24 599.825 108.24 599.825C111.416 593.286 116.139 594.907 116.139 594.907C101.19 584.56 77.4583 583.855 65.4991 605.869C53.5399 627.884 76.2996 635.702 76.2996 635.702C62.3796 653.933 47.5359 637.785 47.5359 637.785C60.662 653.86 57.1698 657.838 63.2709 670.592C69.3721 683.345 86.8328 681.279 86.8328 681.279C47.1308 707.312 9.55164 650.887 9.55164 650.887C10.7994 658.916 5.83252 660.002 5.83252 660.002C-14.8369 606.453 29.905 575.177 29.905 575.177ZM458.776 290.044C458.799 289.974 458.818 289.904 458.833 289.833C458.817 289.89 458.801 289.963 458.776 290.044ZM461.207 279.421V279.567C461.385 278.684 461.563 277.809 461.725 276.934C461.555 277.768 461.385 278.595 461.207 279.421ZM364.374 389.615C379.85 350.107 365.533 301.371 334.509 290.595C331.702 289.29 328.817 288.159 325.872 287.208C332.015 297.309 336.892 308.129 340.391 319.423C359.675 377.048 330.822 434.737 307.925 469.553C297.948 485.096 287.094 500.059 275.418 514.368C281.519 509.385 287.839 504.386 294.377 499.452C317.218 475.606 348.421 437.338 364.374 389.598V389.615Z" fill="#D1AE6F"/>
<path d="M506.23 382.662C506.282 382.65 506.336 382.65 506.387 382.662C506.387 382.662 506.348 382.717 506.23 382.662Z" fill="#D1AE6F"/>
<path d="M502.254 378.094C504.896 381.723 505.86 382.493 506.225 382.663C505.844 382.663 504.515 382.866 500.699 384.883C495.578 387.752 492.669 387.428 492.637 387.46C493.536 387.606 494.436 387.752 495.311 387.954C495.311 387.954 491.081 389.842 486.973 391.333C484.555 392.232 481.935 392.439 479.405 391.933L480.507 393.269C480.507 393.342 479.932 394.023 474.836 394.533C469.934 395.052 468.613 394.801 468.597 394.76L469.82 396.381C469.82 396.332 465.534 396.178 462.82 395.838C460.251 395.562 457.27 394.922 457.286 394.971L458.525 396.721C458.525 396.721 456.573 396.527 453.397 396.624C451.662 396.749 449.92 396.673 448.203 396.397C448.9 396.94 449.588 397.475 450.237 398.017C450.237 398.131 447.668 397.888 441.065 397.207C435.166 396.559 429.138 394.833 425.224 391.536C426.845 391.228 428.846 389.98 431.277 388.837C431.407 389.072 430.864 388.108 442.531 383.611C448.438 381.505 459.085 379.268 468.402 378.888C474.094 378.607 479.798 378.669 485.482 379.074C492.151 379.633 492.264 379.155 485.612 377.972C480.25 377.098 474.837 376.575 469.407 376.408C460.235 375.979 448.965 377.291 441.356 379.771C437.22 381.075 433.229 382.802 429.446 384.924C428.125 385.637 428.579 385.329 428.571 385.321C426.675 386.204 424.803 388.343 423.823 389.712C421.149 385.232 422.542 377.737 429.365 371.417C437.013 364.498 441.348 363.315 441.243 363.177C440.619 364.092 440.011 365 439.412 365.916C439.412 365.956 441.373 364.295 446.599 362.675C451.193 361.24 453.939 360.544 453.939 360.519L452.74 362.626C455.175 361.676 457.674 360.902 460.219 360.309C463.386 359.697 466.596 359.334 469.82 359.223L468.2 360.843C468.2 360.908 470.063 360.349 476.359 361.321C482.8 362.334 483.214 363.493 483.222 363.428L481.601 364.522C484.687 364.487 487.719 365.33 490.344 366.953C493.153 368.731 495.79 370.768 498.219 373.038C497.263 372.843 496.299 372.673 495.327 372.519C495.837 372.649 498.941 373.71 502.254 378.094Z" fill="#D1AE6F"/>
<path d="M350.972 540.194C350.972 540.194 350.972 540.194 350.882 540.134C350.916 540.147 350.947 540.168 350.972 540.194Z" fill="#D1AE6F"/>
<path d="M349.806 536.124C350.341 539.154 350.706 539.916 350.876 540.134C350.657 540.005 349.766 539.737 346.825 539.843C342.774 540.069 341.104 539.032 341.072 539.032C341.582 539.389 342.093 539.745 342.571 540.142C342.571 540.142 339.403 540.037 336.413 539.713C334.646 539.549 332.96 538.889 331.552 537.809L331.827 538.968C331.827 539.016 331.244 539.259 327.97 538.052C324.697 536.845 324.049 536.342 324.057 536.318L324.316 537.695C324.316 537.695 321.731 536.286 320.16 535.265C318.588 534.244 317.008 533.028 317.008 533.069L317.243 534.519C316.228 533.923 315.181 533.382 314.107 532.899C312.999 532.452 311.947 531.879 310.971 531.189C311.239 531.732 311.506 532.275 311.782 532.81C311.782 532.891 310.234 531.959 306.369 529.569C302.926 527.389 299.725 524.521 298.267 521.328C299.344 521.62 300.965 521.458 302.812 521.482C302.812 521.669 302.772 520.907 311.32 521.636C317.303 522.48 323.147 524.115 328.7 526.498C332.295 528.019 335.793 529.759 339.176 531.708C343.114 534.057 343.333 533.798 339.581 531.068C336.528 528.914 333.337 526.962 330.028 525.226C324.502 522.204 317.154 519.619 311.717 518.865C308.768 518.424 305.781 518.291 302.804 518.468C301.775 518.509 302.148 518.468 302.148 518.468C300.651 518.568 299.197 519.006 297.894 519.748C297.594 516.183 300.706 511.978 306.807 510.131C313.605 508.162 316.643 508.721 316.619 508.616C315.946 508.997 315.306 509.377 314.658 509.758C316.458 509.511 318.286 509.56 320.07 509.904C323.311 510.406 325.24 510.795 325.248 510.779L323.879 511.719C325.664 511.864 327.438 512.135 329.186 512.529C331.325 513.108 333.416 513.85 335.441 514.749L333.942 515.268C333.942 515.268 335.238 515.519 338.803 518.015C342.368 520.51 342.377 521.41 342.401 521.377L341.088 521.572C343.004 522.471 344.623 523.899 345.755 525.688C346.953 527.631 347.968 529.682 348.786 531.813C348.245 531.408 347.705 531.011 347.165 530.622C347.489 530.833 349.077 532.429 349.806 536.124Z" fill="#D1AE6F"/>
<path d="M394.476 306.233C394.719 306.419 395.594 306.784 399.005 307.254C403.17 307.902 405.017 309.612 405.285 309.903C404.831 309.296 404.361 308.712 403.883 308.145C406.305 308.957 408.644 309.999 410.867 311.256C412.912 312.446 414.578 314.19 415.672 316.288L415.834 314.822C415.794 314.822 416.733 314.708 419.756 318.694C422.778 322.681 422.997 324.066 423.037 324.042L423.548 322.341C424.646 324.563 425.567 326.869 426.302 329.236C426.829 331.171 427.214 333.143 427.453 335.134L428.441 333.554C428.441 333.554 428.952 335.677 429.649 339.307C430.117 341.286 430.254 343.328 430.054 345.352C430.459 344.614 430.864 343.877 431.245 343.115C431.123 343.115 431.893 346.462 429.989 354.143C428.19 361.054 423.629 364.725 419.626 364.538C420.403 363.053 420.829 361.409 420.874 359.733C420.874 359.733 420.817 360.155 420.817 358.996C420.896 355.668 420.624 352.342 420.007 349.071C418.921 343.026 415.721 334.924 412.099 328.879C410.003 325.26 407.675 321.779 405.131 318.46C401.89 314.408 401.63 314.643 404.434 318.946C406.775 322.642 408.891 326.476 410.77 330.427C413.68 336.53 415.767 342.993 416.976 349.646C418.168 359.166 417.317 359.15 417.519 359.158C417.633 361.216 417.519 363.031 417.9 364.23C414.27 362.764 410.916 359.32 408.331 355.561C405.463 351.355 404.353 349.694 404.442 349.662C405.05 349.905 405.657 350.173 406.273 350.472C405.459 349.415 404.774 348.264 404.231 347.045C403.649 345.867 403.005 344.72 402.303 343.61L403.923 343.812C403.923 343.812 402.449 342.021 401.323 340.385C400.196 338.748 398.446 335.831 398.414 335.847L399.969 336.074C399.969 336.074 399.289 335.264 397.855 331.772C396.421 328.28 396.623 327.526 396.623 327.478L397.928 327.737C396.663 326.21 395.849 324.361 395.578 322.397C395.092 319.075 394.857 315.51 394.841 315.535C395.294 316.053 395.724 316.604 396.145 317.155C396.145 317.155 394.881 315.267 394.954 310.762C394.962 307.456 394.63 306.46 394.476 306.233Z" fill="#D1AE6F"/>
<path d="M394.476 306.225C394.401 306.164 394.401 306.134 394.401 306.134C394.401 306.134 394.431 306.142 394.476 306.225Z" fill="#D1AE6F"/>
<path d="M581.179 623.459C581.457 623.387 581.743 623.355 582.03 623.362C581.433 623.413 580.867 623.648 580.409 624.035C580.069 624.328 579.831 624.723 579.729 625.161C579.782 624.768 579.947 624.399 580.204 624.097C580.461 623.795 580.8 623.574 581.179 623.459Z" fill="#D1AE6F"/>
<path d="M583.586 624.78C583.505 624.364 583.295 623.984 582.987 623.694C583.562 624.172 583.716 624.95 583.586 624.78Z" fill="#D1AE6F"/>
<path d="M582.979 623.67C582.708 623.473 582.382 623.366 582.047 623.362C582.385 623.35 582.715 623.46 582.979 623.67Z" fill="#D1AE6F"/>
<path d="M601.225 638.968C600.933 639.955 600.355 640.833 599.565 641.492C598.775 642.151 597.807 642.561 596.784 642.671C595.76 642.781 594.728 642.585 593.816 642.108C592.903 641.631 592.153 640.895 591.659 639.993C591.165 639.09 590.949 638.061 591.039 637.036C591.128 636.011 591.52 635.035 592.163 634.232C592.807 633.429 593.674 632.835 594.655 632.524C595.636 632.213 596.687 632.2 597.676 632.486C599.006 632.875 600.127 633.776 600.792 634.992C601.458 636.207 601.613 637.638 601.225 638.968Z" fill="#D1AE6F"/>
<path d="M578.116 638.215C577.079 637.923 576.496 636.157 577.995 634.885C579.453 633.783 580.75 634.447 581.236 635.484C581.404 635.931 581.446 636.416 581.359 636.886C581.272 637.355 581.059 637.793 580.741 638.15C580.33 638.334 579.886 638.435 579.435 638.446C578.985 638.457 578.536 638.378 578.116 638.215Z" fill="#D1AE6F"/>
<path d="M571.57 619.749C571.502 619.591 571.465 619.421 571.463 619.249C571.461 619.077 571.493 618.907 571.557 618.747C571.621 618.587 571.716 618.442 571.836 618.319C571.956 618.196 572.1 618.099 572.258 618.031C572.416 617.964 572.585 617.928 572.756 617.927C572.927 617.925 573.097 617.958 573.255 618.023C573.414 618.088 573.558 618.184 573.679 618.305C573.8 618.426 573.895 618.57 573.96 618.728C574.029 618.884 574.066 619.052 574.069 619.222C574.072 619.392 574.041 619.561 573.978 619.719C573.914 619.877 573.82 620.02 573.7 620.141C573.58 620.262 573.437 620.357 573.279 620.422C573.123 620.49 572.955 620.527 572.784 620.53C572.613 620.534 572.444 620.503 572.285 620.441C572.126 620.378 571.981 620.285 571.858 620.166C571.736 620.048 571.637 619.906 571.57 619.749Z" fill="#D1AE6F"/>
<path d="M333.155 645.32C332.345 644.834 331.364 644.316 330.311 643.797C332.398 644.809 334.413 645.965 336.339 647.257C335.464 646.706 334.411 646.058 333.155 645.32Z" fill="#D1AE6F"/>
<path d="M336.341 647.256C338.042 648.334 339.031 649.031 339.355 649.25C338.311 648.646 337.305 647.98 336.341 647.256Z" fill="#D1AE6F"/>
<path d="M339.358 649.25H339.429C339.523 649.36 339.491 649.344 339.358 649.25Z" fill="#D1AE6F"/>
</svg>
