<svg width="53" height="54" viewBox="0 0 53 54" fill="none" xmlns="http://www.w3.org/2000/svg">
<path d="M20.8517 50.8765C21.8312 49.8423 22.4372 48.5106 22.5734 47.0927L45.4614 47.0927C45.4614 47.0927 45.5014 47.0927 45.5214 47.0927C45.5414 47.0927 45.5615 47.0927 45.5865 47.0927C45.6115 47.0927 45.6415 47.0927 45.6666 47.0927L45.7116 47.0927L45.8017 47.0477L45.8317 47.0477C45.9071 46.9975 45.9717 46.9328 46.0219 46.8575L46.0219 46.8225C46.0399 46.7958 46.055 46.7672 46.067 46.7374L46.067 46.7123L46.102 46.6022L46.102 46.5072L46.102 23.5391C47.5232 23.4043 48.8586 22.7983 49.8958 21.8174C50.9486 20.7806 51.6573 19.4453 51.9258 17.9923C52.1944 16.5394 52.0099 15.0389 51.3973 13.6943C51.0439 12.9428 50.5533 12.2639 49.9509 11.6923C50.2234 10.634 50.3679 9.54679 50.3813 8.45404C50.339 6.12104 50.0402 3.7998 49.4904 1.53213C49.4776 1.44071 49.4463 1.35285 49.3982 1.27403C49.3502 1.1952 49.2865 1.12708 49.2111 1.07381C49.1357 1.02055 49.0502 0.98327 48.9599 0.964329C48.8695 0.945388 48.7763 0.945159 48.6858 0.963657C48.5954 0.982155 48.5097 1.01899 48.4341 1.07189C48.3584 1.12478 48.2944 1.19263 48.246 1.27122C48.1976 1.3498 48.1658 1.43747 48.1525 1.52883C48.1393 1.62018 48.1449 1.71329 48.1691 1.80239C48.6929 3.9757 48.9815 6.19902 49.0299 8.43403C49.0182 9.22107 48.9328 10.0053 48.7747 10.7764C47.957 10.2692 47.0469 9.92898 46.097 9.77537L46.097 3.35393C46.097 3.17473 46.0258 3.00287 45.8991 2.87616C45.7724 2.74944 45.6005 2.67826 45.4213 2.67826C45.2421 2.67826 45.0703 2.74944 44.9436 2.87616C44.8168 3.00287 44.7457 3.17473 44.7457 3.35393L44.7456 9.68027C44.5404 9.68027 44.3402 9.70528 44.14 9.73031C40.8067 10.1657 37.9238 13.1688 37.2782 16.8725C37.175 17.4708 37.1248 18.0771 37.128 18.6843C37.2055 21.5085 38.0875 24.252 39.6706 26.5922C40.1961 27.413 40.7867 28.2038 41.3523 28.9646C41.9178 29.7254 42.5334 30.5462 43.054 31.367C44.2351 33.2439 44.7857 34.9206 44.7356 36.4721L44.7356 36.5622L44.7356 41.7974C44.3171 41.0937 43.8127 40.4448 43.2341 39.8655C41.5052 38.1507 39.1959 37.147 36.7627 37.0527C36.6699 37.0496 36.5776 37.0658 36.4914 37.1003C36.4053 37.1347 36.3272 37.1867 36.2622 37.2529C36.1984 37.3145 36.1477 37.3884 36.1133 37.4701C36.0789 37.5518 36.0614 37.6397 36.062 37.7283L36.062 37.7534C36.1151 39.3826 36.5805 40.9717 37.4146 42.3722C38.2488 43.7727 39.4245 44.9388 40.8317 45.7614L35.6565 45.7614C35.6082 45.7588 35.5597 45.7588 35.5114 45.7614C33.9498 45.8115 32.2782 45.2609 30.4063 44.0747C29.5805 43.5742 28.7797 42.9586 27.9989 42.378C27.2181 41.7974 26.4523 41.2219 25.6265 40.6913C22.3983 38.6243 18.9498 37.7734 15.9068 38.3039C12.2031 38.9446 9.20006 41.8325 8.76963 45.1608C8.74074 45.3632 8.72402 45.567 8.71958 45.7714L2.38824 45.7714C2.21844 45.786 2.06029 45.8638 1.94505 45.9894C1.82981 46.1149 1.76587 46.2792 1.76587 46.4496C1.76587 46.62 1.82981 46.7843 1.94505 46.9098C2.06029 47.0354 2.21844 47.1132 2.38824 47.1278L8.81968 47.1278C8.97583 48.0754 9.31589 48.9834 9.82068 49.8004C9.04775 49.9568 8.26188 50.0406 7.47333 50.0507C5.23819 50.004 3.01467 49.7154 0.841696 49.1898C0.666509 49.1544 0.484403 49.1897 0.335253 49.2882C0.186102 49.3867 0.0820635 49.5403 0.0459001 49.7153L0.0459001 49.8555C0.0462129 50.011 0.100153 50.1616 0.198625 50.282C0.297098 50.4023 0.434068 50.4851 0.586435 50.5162C2.85495 51.0614 5.17571 51.3601 7.50836 51.407C8.60079 51.3893 9.68747 51.2449 10.7466 50.9766C11.3206 51.5749 11.9991 52.0634 12.7486 52.4181C14.0944 53.0226 15.5935 53.199 17.0429 52.9232C18.4923 52.6475 19.8219 51.933 20.8517 50.8765ZM16.7426 45.7364C16.9414 45.1063 17.0443 44.45 17.0479 43.7894C17.0479 43.5692 17.0479 43.354 17.0179 43.1338C17.6131 42.9515 18.2508 42.962 18.8397 43.1638C19.2856 43.3034 19.699 43.5307 20.0557 43.8324C20.4124 44.1341 20.7052 44.504 20.9168 44.9205C21.0367 45.1817 21.1273 45.4553 21.1871 45.7364L16.7426 45.7364ZM44.8057 17.7083L44.8057 22.1378C44.5254 22.0811 44.2531 21.9903 43.9949 21.8675C43.5775 21.6583 43.2068 21.3669 42.9049 21.0109C42.603 20.6548 42.3762 20.2414 42.2381 19.7954C42.0336 19.207 42.023 18.5684 42.2081 17.9736C43.0727 18.0476 43.9435 17.9506 44.7707 17.6883L44.8057 17.7083ZM50.2361 14.2849C50.7201 15.3738 50.8625 16.5838 50.6444 17.7553C50.4264 18.9268 49.8582 20.0046 49.0149 20.8465C48.2333 21.5938 47.2307 22.0679 46.1571 22.1978L46.1571 17.0977C46.9704 16.6343 47.6874 16.0193 48.2692 15.2859C48.7779 14.634 49.1971 13.9169 49.5154 13.1537C49.7948 13.4931 50.0303 13.8665 50.2161 14.2648L50.2361 14.2849ZM48.4494 12.1878C48.1621 13.0093 47.7429 13.7785 47.2081 14.4651C46.9009 14.8413 46.5478 15.1776 46.1571 15.4661L46.1571 11.1517C46.976 11.3314 47.7494 11.6772 48.4293 12.1678L48.4494 12.1878ZM44.2552 30.6663C43.7096 29.8004 43.094 28.9746 42.4984 28.1638C41.9028 27.353 41.3723 26.6623 40.8668 25.8665C38.9799 22.9235 38.2041 19.8154 38.6696 17.1077C39.2151 13.9746 41.6125 11.437 44.3703 11.1017C44.5138 11.1017 44.6589 11.0917 44.8057 11.0717L44.8057 16.2719C43.8929 16.6442 42.8928 16.7484 41.9228 16.5722C41.7829 16.5471 41.6387 16.5664 41.5103 16.6274C41.382 16.6885 41.2759 16.7882 41.2071 16.9125C40.9383 17.4154 40.7763 17.9685 40.7316 18.5369C40.6868 19.1054 40.7601 19.677 40.9468 20.2158C41.1432 20.8382 41.4628 21.4146 41.8868 21.9108C42.3107 22.407 42.8302 22.8127 43.4143 23.1037C43.8558 23.3081 44.3244 23.448 44.8057 23.5191L44.8057 31.6122C44.6155 31.2769 44.4353 30.9616 44.2351 30.6463L44.2552 30.6663ZM39.8908 43.314C38.5794 42.0073 37.7411 40.3007 37.5084 38.4641C39.3459 38.6953 41.0541 39.5316 42.3636 40.8411C43.6732 42.1506 44.5095 43.8589 44.7406 45.6963C42.8944 45.4625 41.1798 44.6166 39.8708 43.2939L39.8908 43.314ZM10.141 45.316C10.4964 42.5582 13.0339 40.1608 16.172 39.6152C18.8747 39.1448 21.9829 39.9256 24.9258 41.8124C25.7116 42.3129 26.4774 42.8885 27.2231 43.4391C27.9689 43.9896 28.8447 44.6503 29.7256 45.2009C30.0459 45.4011 30.3612 45.5812 30.6766 45.7514L22.5685 45.7514C22.4494 44.8586 22.0747 44.0193 21.4894 43.3346C20.9042 42.65 20.1335 42.1491 19.2701 41.8925C18.7311 41.7036 18.1587 41.6288 17.5892 41.6728C17.0197 41.7167 16.4655 41.8785 15.9618 42.1478C15.8375 42.2176 15.7382 42.3248 15.678 42.4541C15.6179 42.5834 15.5998 42.7284 15.6265 42.8685C15.7993 43.8394 15.6917 44.8395 15.3162 45.7514L10.086 45.7514C10.0896 45.6007 10.1013 45.4503 10.121 45.3009L10.141 45.316ZM10.2261 47.1078L14.5304 47.1078C14.2419 47.4956 13.9056 47.8453 13.5294 48.1488C12.8425 48.6843 12.0735 49.1052 11.2521 49.395C10.7461 48.7093 10.3897 47.9249 10.2061 47.0927L10.2261 47.1078ZM13.3292 51.1768C12.9305 50.9853 12.5573 50.7449 12.2181 50.4611C12.9823 50.1428 13.6997 49.7219 14.3502 49.2098C15.0789 48.63 15.6905 47.9166 16.152 47.1078L21.2221 47.1078C21.0877 48.1786 20.6142 49.1783 19.8707 49.9606C19.0262 50.8 17.9474 51.364 16.7762 51.5784C15.605 51.7928 14.3963 51.6476 13.3092 51.1618L13.3292 51.1768Z" fill="#D1AE6F"/>
<path d="M35.291 35.5512C35.2301 33.8688 34.5346 32.2719 33.3442 31.0815C32.1538 29.8912 30.5569 29.1956 28.8746 29.1347C28.7837 29.1321 28.6932 29.1475 28.6084 29.1801C28.5235 29.2128 28.446 29.262 28.3803 29.3249C28.3146 29.3877 28.2621 29.463 28.2258 29.5464C28.1895 29.6298 28.1702 29.7195 28.1689 29.8104C28.225 31.4935 28.9184 33.0923 30.1087 34.2836C31.2989 35.4748 32.8973 36.1694 34.5803 36.2268C34.6727 36.2312 34.7651 36.216 34.8513 36.1824C34.9375 36.1488 35.0157 36.0974 35.0808 36.0316C35.2104 35.9047 35.2858 35.7325 35.291 35.5512ZM31.0718 33.3539C30.3174 32.5953 29.8082 31.6276 29.6103 30.5762C30.6629 30.771 31.6315 31.2804 32.3884 32.0373C33.1453 32.7942 33.6548 33.7629 33.8496 34.8154C32.7973 34.6138 31.8297 34.1013 31.0718 33.344L31.0718 33.3539Z" fill="#D1AE6F"/>
</svg>
