<svg width="143" height="81" viewBox="0 0 143 81" fill="none" xmlns="http://www.w3.org/2000/svg">
<path d="M44.8103 22.2083C44.7853 22.2127 44.7596 22.2127 44.7346 22.2083C44.6942 22.1944 44.6586 22.1693 44.6318 22.1361C44.605 22.1028 44.5881 22.0626 44.583 22.0202C44.5648 21.8502 44.5466 21.6925 44.5133 21.5316C43.8011 17.4837 40.0914 14.6556 39.361 14.1307C39.3343 14.112 39.312 14.0876 39.2957 14.0593C39.2795 14.0309 39.2697 13.9994 39.2671 13.9668C39.2307 13.5632 39.2125 13.193 39.2125 12.838C39.2125 6.36559 44.7285 1.05839 44.783 1.00377C44.825 0.967062 44.8788 0.946828 44.9346 0.946828C44.9903 0.946828 45.0441 0.967062 45.0861 1.00377C45.1437 1.05839 50.6596 6.36559 50.6596 12.838C50.6596 13.1991 50.6415 13.5663 50.6051 13.9607C50.6023 13.9941 50.5925 14.0265 50.5763 14.0558C50.5601 14.0851 50.5379 14.1106 50.5111 14.1307C49.7746 14.6556 46.059 17.4685 45.3437 21.5286C45.3134 21.6803 45.2952 21.832 45.2801 21.9777V22.0141C45.2748 22.0569 45.2574 22.0973 45.23 22.1306C45.2027 22.1639 45.1664 22.1888 45.1255 22.2022C45.0951 22.2122 45.063 22.2158 45.0312 22.2126C44.9993 22.2095 44.9685 22.1998 44.9406 22.184C44.9003 22.2043 44.8552 22.2127 44.8103 22.2083ZM39.7156 13.809C40.6249 14.4796 44.1557 17.2804 44.9437 21.2707C45.7256 17.2683 49.2625 14.4736 50.1777 13.809C50.205 13.454 50.2202 13.1384 50.2202 12.8259C50.2202 7.16061 45.8377 2.3905 44.9467 1.48018C44.0557 2.3905 39.6732 7.16061 39.6732 12.8259C39.6611 13.1384 39.6762 13.4601 39.7156 13.809Z" fill="white" stroke="white" stroke-width="0.3"/>
<path d="M36.7517 23.6831C36.7082 23.6829 36.6657 23.6702 36.6291 23.6465C36.5926 23.6229 36.5636 23.5892 36.5456 23.5495C36.479 23.4008 36.3971 23.2461 36.3123 23.1095C34.2695 19.5593 29.8143 18.1665 28.9415 17.9237C28.9106 17.9164 28.8819 17.9022 28.8572 17.8822C28.8326 17.8623 28.8127 17.837 28.7991 17.8084C28.6306 17.4676 28.4829 17.117 28.3566 16.7585C26.1441 10.6896 29.5173 3.80454 29.5507 3.73475C29.5768 3.68047 29.6234 3.63881 29.6803 3.6189C29.7371 3.59899 29.7995 3.60246 29.8537 3.62854C29.9234 3.65889 36.9214 6.7631 39.1339 12.841C39.2618 13.1941 39.3711 13.5537 39.4612 13.9183C39.4689 13.9492 39.4699 13.9815 39.4641 14.0129C39.4584 14.0443 39.446 14.0741 39.4279 14.1003C38.9157 14.8498 36.3971 18.7794 37.1093 22.8243C37.1088 22.8304 37.1088 22.8365 37.1093 22.8425C37.1397 23.0033 37.1699 23.1642 37.2093 23.3159C37.1038 23.484 36.9463 23.6129 36.7608 23.6831H36.7517ZM29.1749 17.5141C30.2599 17.8175 34.5453 19.2589 36.6426 22.7454C36.0122 18.7187 38.3732 14.8559 39.0005 13.9304C38.9204 13.6142 38.8243 13.3023 38.7126 12.9958C36.7759 7.67039 31.0267 4.69059 29.878 4.13832C29.3537 5.30051 26.8473 11.2844 28.7991 16.6068C28.9026 16.9156 29.023 17.2185 29.1597 17.5141H29.1749Z" fill="white" stroke="white" stroke-width="0.3"/>
<path d="M29.681 27.8068C29.6237 27.8065 29.5686 27.7849 29.5264 27.7461C29.4052 27.6308 29.2839 27.5216 29.1567 27.4124C26.038 24.7967 21.3525 25.003 20.4433 25.0698C20.4109 25.0718 20.3785 25.067 20.3482 25.0555C20.3178 25.0439 20.2903 25.0261 20.2675 25.003C19.9947 24.7299 19.7371 24.4507 19.5068 24.1776C15.3547 19.2224 16.173 11.6 16.173 11.5241C16.1798 11.4664 16.2084 11.4136 16.2529 11.3764C16.2974 11.3391 16.3545 11.3203 16.4124 11.3238C16.4912 11.3238 24.1256 11.8518 28.2747 16.807C28.5111 17.0862 28.7354 17.3805 28.9596 17.7174C28.9867 17.7555 29.0015 17.801 29.0021 17.8478C29.0052 17.869 29.0052 17.8905 29.0021 17.9116C28.7748 18.7885 27.7504 23.3432 29.7961 26.8904C29.881 27.0361 29.9689 27.1757 30.0568 27.3092C30.079 27.3452 30.0908 27.3867 30.0908 27.429C30.0908 27.4714 30.079 27.5129 30.0568 27.5489C30.0391 27.5782 30.0153 27.6034 29.9871 27.6228C29.9589 27.6422 29.9268 27.6553 29.8931 27.6612C29.8827 27.6933 29.8653 27.7227 29.8423 27.7473C29.8192 27.772 29.7911 27.7912 29.7598 27.8038C29.734 27.81 29.7072 27.8111 29.681 27.8068ZM21.498 24.5782C23.3982 24.5782 26.7654 24.9059 29.3082 26.9572C27.3473 23.4008 28.2565 18.9766 28.5262 17.8843C28.3292 17.6021 28.1292 17.3441 27.9201 17.0984C24.2832 12.7591 17.8671 11.9216 16.6003 11.7972C16.5033 13.0686 16.2063 19.5471 19.8432 23.8833C20.0463 24.1261 20.2675 24.3688 20.5039 24.6086C20.7645 24.5903 21.104 24.5661 21.5071 24.5661L21.498 24.5782Z" fill="white" stroke="white" stroke-width="0.3"/>
<path d="M14.8213 34.7101C14.7897 34.7107 14.7585 34.7034 14.7304 34.6889C14.3879 34.5341 14.0485 34.3612 13.7212 34.1761C8.12946 30.9414 6.29285 23.504 6.27466 23.4282C6.26223 23.3716 6.27154 23.3123 6.30075 23.2623C6.32995 23.2122 6.37691 23.175 6.43227 23.1581C6.505 23.1368 13.8576 21.0067 19.4644 24.2383C19.7879 24.4242 20.1015 24.6268 20.404 24.8452C20.4308 24.864 20.4534 24.8884 20.4701 24.9167C20.4869 24.9449 20.4973 24.9764 20.5009 25.0091C20.5888 25.9194 21.1828 30.553 24.3227 33.202C24.4681 33.3234 24.5894 33.4175 24.7076 33.5055C24.7567 33.5629 24.7871 33.6339 24.7947 33.7091C24.8023 33.7843 24.7868 33.86 24.7501 33.926C24.7135 33.9921 24.6576 34.0454 24.5898 34.0787C24.5221 34.112 24.4458 34.1237 24.3712 34.1124C24.2015 34.0395 24.0681 33.9819 23.9044 33.9273C20.0796 32.5254 15.7548 34.3248 14.9244 34.698C14.8917 34.7113 14.8561 34.7155 14.8213 34.7101ZM6.77474 23.5374C7.11721 24.7512 9.05383 30.9505 13.9485 33.7816C14.2334 33.9424 14.5273 34.085 14.8244 34.2307C16.1215 33.6572 20.1463 32.143 23.8954 33.4326C20.8374 30.7593 20.1706 26.2866 20.0493 25.1578C19.7463 24.9545 19.4887 24.7815 19.228 24.6359C14.3273 21.8047 8.00825 23.2188 6.77474 23.5374Z" fill="white" stroke="white" stroke-width="0.3"/>
<path d="M12.8483 45.6917H12.8301C12.4541 45.6634 12.0798 45.6158 11.7087 45.5491C5.34416 44.4264 1.07689 38.0632 1.03446 37.9994C1.00455 37.951 0.993572 37.8933 1.00364 37.8372C1.01371 37.7812 1.04414 37.7309 1.08903 37.696C1.15268 37.6505 7.33234 33.1444 13.6969 34.258C14.0272 34.3157 14.3758 34.3945 14.794 34.5038C14.8262 34.5118 14.8562 34.5268 14.8819 34.5478C14.9076 34.5688 14.9283 34.5952 14.9425 34.6252C15.3304 35.4445 17.452 39.5925 21.3071 40.9975C21.4616 41.0551 21.6101 41.1037 21.7708 41.1492C21.8116 41.161 21.8483 41.184 21.8767 41.2157C21.905 41.2473 21.924 41.2863 21.9314 41.3282C21.9379 41.3609 21.9367 41.3948 21.9277 41.4269C21.9188 41.4591 21.9024 41.4887 21.8799 41.5133C21.8963 41.5446 21.9049 41.5795 21.9049 41.615C21.9049 41.6504 21.8963 41.6853 21.8799 41.7166C21.8595 41.7555 21.8284 41.7876 21.7902 41.8091C21.752 41.8306 21.7084 41.8407 21.6647 41.838C21.498 41.838 21.3344 41.8167 21.1707 41.8167C17.0762 41.8167 13.6454 44.9877 12.9877 45.6219C12.9511 45.6611 12.9016 45.6859 12.8483 45.6917ZM1.52847 37.9175C2.271 38.9553 6.20492 44.1047 11.7754 45.0909C12.0984 45.1488 12.4241 45.1903 12.7513 45.2153C13.5666 44.4324 16.9398 41.4374 20.9949 41.3555C17.1943 39.8808 15.0637 35.9209 14.5667 34.8983C14.203 34.8072 13.8969 34.7405 13.6059 34.6858C8.04455 33.7209 2.59226 37.2105 1.52847 37.9175Z" fill="white" stroke="white" stroke-width="0.3"/>
<path d="M77.0149 45.6917C76.9547 45.6917 76.8969 45.6677 76.8543 45.625C76.2088 44.9908 72.7749 41.8198 68.6895 41.8198C68.5228 41.8198 68.3531 41.8198 68.1894 41.841C68.1454 41.8432 68.1016 41.833 68.063 41.8115C68.0245 41.7901 67.9926 41.7583 67.9712 41.7197C67.9555 41.6881 67.9473 41.6533 67.9473 41.618C67.9473 41.5827 67.9555 41.5479 67.9712 41.5163C67.95 41.491 67.9347 41.4612 67.9263 41.4292C67.9179 41.3972 67.9167 41.3638 67.9227 41.3313C67.9301 41.2894 67.9491 41.2504 67.9775 41.2187C68.0059 41.1871 68.0425 41.164 68.0833 41.1522C68.2409 41.1067 68.3864 41.0551 68.5531 41.0005C72.4113 39.5956 74.5388 35.4445 74.9177 34.6282C74.9319 34.5985 74.9522 34.572 74.9773 34.5506C75.0023 34.5292 75.0316 34.5132 75.0631 34.5038C75.4329 34.4006 75.8057 34.3157 76.1694 34.2519C82.5339 33.1353 88.7166 37.6444 88.7772 37.6899C88.8221 37.7249 88.8525 37.7752 88.8626 37.8312C88.8726 37.8872 88.8617 37.945 88.8318 37.9934C88.7894 38.0571 84.519 44.4203 78.1575 45.543C77.7845 45.6107 77.4082 45.6583 77.0301 45.6856L77.0149 45.6917ZM68.8623 41.3677C72.9113 41.4496 76.2845 44.4446 77.0998 45.2275C77.421 45.2032 77.7453 45.1607 78.0787 45.103C83.6462 44.1169 87.5831 38.9674 88.3256 37.9297C87.274 37.2105 81.8126 33.724 76.2482 34.698C75.9451 34.7557 75.6087 34.8285 75.2844 34.9165C74.7904 35.933 72.6567 39.899 68.8623 41.3677Z" fill="white" stroke="white" stroke-width="0.3"/>
<path d="M75.039 34.7101C75.0064 34.7104 74.9743 34.7031 74.945 34.6889C74.1176 34.3157 69.7927 32.5163 65.968 33.9151L65.9164 33.9364C65.78 33.9849 65.6406 34.0395 65.5164 34.0972C65.4769 34.1164 65.4327 34.1238 65.3892 34.1184C65.3456 34.113 65.3045 34.0951 65.2709 34.0668C65.2446 34.044 65.2239 34.0154 65.2103 33.9834C65.1966 33.9513 65.1904 33.9166 65.1921 33.8817C65.1635 33.8669 65.1386 33.8459 65.1192 33.8202C65.0997 33.7944 65.0863 33.7647 65.0799 33.7331C65.07 33.6893 65.0731 33.6436 65.0887 33.6016C65.1043 33.5596 65.1318 33.523 65.1678 33.4964C65.2891 33.4114 65.4103 33.3173 65.5527 33.1929C68.6956 30.5469 69.2836 25.9103 69.3715 25C69.3747 24.9679 69.3844 24.9368 69.4 24.9087C69.4157 24.8805 69.4369 24.8558 69.4624 24.8361C69.7687 24.6172 70.0864 24.4146 70.4141 24.2293C76.0058 20.9976 83.3614 23.1278 83.4462 23.149C83.5018 23.1653 83.549 23.2025 83.5778 23.2529C83.6066 23.3032 83.6149 23.3628 83.6008 23.419C83.5826 23.4949 81.7429 30.9323 76.1482 34.167C75.8239 34.3521 75.4845 34.525 75.142 34.6798C75.111 34.699 75.0754 34.7095 75.039 34.7101ZM69.1593 32.9259C71.186 32.9679 73.1844 33.4113 75.039 34.2307C75.342 34.0941 75.6451 33.9273 75.9148 33.7816C80.8064 30.9505 82.7491 24.7663 83.0916 23.5374C81.8581 23.2188 75.536 21.8047 70.6414 24.6328C70.3565 24.7953 70.0804 24.9725 69.814 25.1638C69.6928 26.2866 69.0351 30.7472 65.9771 33.4296C67.0028 33.0871 68.0781 32.9169 69.1593 32.9259Z" fill="white" stroke="white" stroke-width="0.3"/>
<path d="M60.1854 27.8068C60.1584 27.8126 60.1305 27.8126 60.1035 27.8068C60.0716 27.7953 60.0429 27.7763 60.0198 27.7515C59.9966 27.7267 59.9796 27.6968 59.9701 27.6642C59.9362 27.6591 59.9038 27.6463 59.8754 27.6269C59.8471 27.6074 59.8235 27.5818 59.8065 27.5519C59.7849 27.5157 59.7734 27.4743 59.7734 27.4321C59.7734 27.3899 59.7849 27.3484 59.8065 27.3122C59.8974 27.1787 59.9853 27.0391 60.0672 26.8935C62.1099 23.3523 61.0885 18.7885 60.8612 17.9085C60.8536 17.8771 60.8527 17.8444 60.8584 17.8125C60.8642 17.7806 60.8765 17.7503 60.8945 17.7234C61.1048 17.4075 61.3324 17.1036 61.5765 16.8131C65.7316 11.8579 73.366 11.3329 73.4418 11.3299C73.4999 11.3256 73.5573 11.3442 73.602 11.3815C73.6467 11.4189 73.6751 11.4722 73.6812 11.5302C73.6812 11.606 74.5025 19.2285 70.3474 24.1837C70.0595 24.5175 69.814 24.7906 69.5806 25.0091C69.5573 25.0313 69.5296 25.0484 69.4994 25.0593C69.4691 25.0703 69.4369 25.0749 69.4048 25.0728C68.4956 25.006 63.8192 24.7997 60.7006 27.4184C60.5733 27.5246 60.4521 27.6339 60.3308 27.7492C60.2904 27.7846 60.239 27.8049 60.1854 27.8068ZM61.334 17.8812C61.6037 18.9797 62.5039 23.4069 60.5521 26.9572C63.6374 24.469 67.9319 24.5297 69.3412 24.6085C69.5443 24.4052 69.7564 24.1746 70.0079 23.8833C73.6448 19.5441 73.3418 13.0686 73.2509 11.7972C71.984 11.9216 65.5588 12.7622 61.925 17.0984C61.7159 17.3532 61.5158 17.6172 61.334 17.8903V17.8812Z" fill="white" stroke="white" stroke-width="0.3"/>
<path d="M53.1145 23.677C53.0803 23.6758 53.0468 23.6671 53.0164 23.6513C52.986 23.6356 52.9595 23.6132 52.9388 23.5859C52.9048 23.5925 52.8699 23.5916 52.8364 23.5832C52.8029 23.5748 52.7716 23.5592 52.7448 23.5374C52.712 23.5105 52.6874 23.4749 52.674 23.4346C52.6606 23.3943 52.6589 23.351 52.669 23.3098C52.7084 23.149 52.7387 22.9882 52.7721 22.8213C53.4812 18.7885 50.9536 14.8498 50.4475 14.1003C50.4281 14.0741 50.415 14.0438 50.4092 14.0117C50.4035 13.9796 50.4052 13.9466 50.4142 13.9152C50.5063 13.5506 50.6176 13.191 50.7475 12.838C52.96 6.76917 59.9549 3.65889 60.0277 3.62854C60.0819 3.60246 60.1443 3.59899 60.2011 3.6189C60.2579 3.63881 60.3046 3.68047 60.3307 3.73475C60.3641 3.80454 63.7282 10.6805 61.5248 16.7615C61.398 17.1189 61.2502 17.4684 61.0823 17.8084C61.068 17.8366 61.048 17.8614 61.0234 17.8813C60.9989 17.9011 60.9704 17.9156 60.9399 17.9237C60.064 18.1665 55.6028 19.5593 53.5601 23.1095C53.4772 23.2552 53.4015 23.4008 53.3328 23.5465C53.3135 23.5875 53.2824 23.6219 53.2436 23.6451C53.2047 23.6684 53.1597 23.6795 53.1145 23.677ZM50.8778 13.9456C51.5082 14.8862 53.8631 18.7339 53.2449 22.7454C55.3421 19.271 59.6094 17.8418 60.7065 17.5292C60.8494 17.2334 60.9748 16.9294 61.0823 16.6189C63.0129 11.2965 60.5277 5.31265 60.0004 4.15046C58.8517 4.70273 53.1055 7.6886 51.1688 13.0079C51.0545 13.3148 50.9573 13.6279 50.8778 13.9456Z" fill="white" stroke="white" stroke-width="0.3"/>
<path d="M42.2798 30.7411C42.2343 30.7416 42.1898 30.7278 42.1525 30.7017C42.1525 30.7017 42.0888 30.6622 41.9797 30.5773C41.9518 30.5572 41.929 30.5308 41.9132 30.5002C41.8974 30.4696 41.889 30.4357 41.8888 30.4013C41.8822 29.6567 41.7521 28.9184 41.5039 28.2165C40.8432 26.411 39.3824 25.1335 38.255 24.3779C37.8191 24.0759 37.3612 23.8071 36.8851 23.5738C36.8538 23.5602 36.8263 23.5393 36.8047 23.5129C36.7831 23.4866 36.768 23.4554 36.7608 23.4221C36.7214 23.2643 36.6881 23.0974 36.6578 22.9305C35.9092 18.6823 38.5156 14.6162 39.0429 13.8455C39.1127 13.7453 39.1551 13.6937 39.1551 13.6937C39.1882 13.6465 39.2383 13.6141 39.2949 13.6033C39.3515 13.5925 39.4101 13.6043 39.4582 13.6361C39.4582 13.6361 39.5157 13.6725 39.6248 13.7514C40.3825 14.2915 44.2194 17.2197 44.965 21.4376C44.9983 21.6045 45.0165 21.7744 45.0378 21.9383C45.0446 22.0104 45.0228 22.0823 44.9771 22.1385C44.6108 22.5181 44.2726 22.9238 43.9649 23.3523C43.1678 24.4508 42.2222 26.1652 42.2222 28.086C42.2289 28.8325 42.359 29.5728 42.6071 30.2769C42.6193 30.3104 42.6231 30.3464 42.6184 30.3818C42.6136 30.4172 42.6004 30.451 42.5798 30.4802L42.4646 30.644C42.444 30.674 42.4164 30.6985 42.3842 30.7154C42.352 30.7323 42.3161 30.7411 42.2798 30.7411ZM37.179 23.2127C37.6407 23.4436 38.0854 23.7073 38.5095 24.0017C39.6036 24.739 41.022 25.9619 41.7767 27.6794C41.8979 25.8071 42.8132 24.1686 43.5951 23.0913C43.8953 22.674 44.2223 22.2766 44.574 21.9018C44.574 21.7714 44.5407 21.647 44.5164 21.5195C43.8133 17.5353 40.2037 14.7315 39.3915 14.1428C38.8278 14.9773 36.4032 18.8492 37.1033 22.8273C37.1275 22.9639 37.1518 23.0913 37.179 23.2127Z" fill="white" stroke="white" stroke-width="0.3"/>
<path d="M37.2911 32.5557C37.27 32.5586 37.2486 32.5586 37.2275 32.5557L37.0396 32.5041C37.004 32.4953 36.9711 32.478 36.9437 32.4537C36.9162 32.4294 36.8951 32.3988 36.882 32.3645C36.6261 31.6676 36.2542 31.0192 35.7818 30.4468C34.5514 28.9842 32.7268 28.2802 31.4145 27.9464C30.902 27.8088 30.3804 27.7074 29.8537 27.643C29.8191 27.643 29.7851 27.6337 29.7552 27.6161C29.7254 27.5985 29.7008 27.5732 29.684 27.5428C29.59 27.4002 29.4961 27.2394 29.4082 27.0968C27.2867 23.4251 28.3201 18.7491 28.5626 17.7993C28.564 17.7933 28.564 17.7871 28.5626 17.7811C28.577 17.7134 28.5953 17.6465 28.6172 17.5808C28.6351 17.529 28.6708 17.4852 28.7181 17.4574C28.7653 17.4296 28.8208 17.4196 28.8748 17.4291C28.8748 17.4291 28.9475 17.4291 29.0718 17.4807C29.981 17.7325 34.5816 19.1708 36.7123 22.8759C36.8001 23.0306 36.8881 23.1793 36.9638 23.3553C36.978 23.3846 36.9854 23.4168 36.9854 23.4494C36.9854 23.482 36.978 23.5141 36.9638 23.5435C36.7512 24.0255 36.5739 24.5225 36.4334 25.0303C36.0637 26.3321 35.7576 28.265 36.4092 30.0705C36.669 30.7656 37.0441 31.4119 37.5184 31.9822C37.5402 32.0096 37.5553 32.0416 37.5627 32.0758C37.57 32.11 37.5694 32.1455 37.5609 32.1794C37.5275 32.319 37.5063 32.3888 37.5063 32.3888C37.4928 32.4359 37.4647 32.4775 37.426 32.5075C37.3873 32.5375 37.3401 32.5544 37.2911 32.5557ZM30.0174 27.209C30.5284 27.2707 31.0347 27.367 31.5327 27.4973C32.8178 27.822 34.5635 28.4926 35.8637 29.8399C35.3424 28.0405 35.6424 26.1986 36.0061 24.912C36.1424 24.416 36.3135 23.9303 36.5183 23.4585C36.4607 23.3401 36.394 23.2279 36.3273 23.1095C34.321 19.6199 29.984 18.215 29.0051 17.951C28.7596 18.916 27.7928 23.3917 29.8083 26.8904C29.8598 26.9936 29.9265 27.1028 29.9962 27.209H30.0174Z" fill="white" stroke="white" stroke-width="0.3"/>
<path d="M33.0116 35.9937C32.9789 35.9934 32.9467 35.9862 32.9169 35.9726C32.8871 35.9591 32.8606 35.9394 32.8389 35.9148C32.3603 35.3478 31.7896 34.8656 31.1508 34.4886C29.496 33.5358 27.5381 33.4964 26.1864 33.6269C25.66 33.6795 25.1382 33.7718 24.6256 33.903C24.5933 33.9119 24.5594 33.9135 24.5264 33.9077C24.4934 33.9019 24.462 33.8889 24.4346 33.8696C24.3043 33.7755 24.174 33.6724 24.0225 33.5419C20.7462 30.7927 20.128 25.9892 20.037 25.0455C20.037 24.9363 20.037 24.8817 20.037 24.8786C20.031 24.8188 20.0486 24.759 20.086 24.712C20.1233 24.665 20.1775 24.6344 20.2371 24.6268L20.4129 24.6086C21.7404 24.5084 26.2895 24.3931 29.4596 27.0573C29.596 27.1726 29.7233 27.2849 29.8506 27.4063C29.8751 27.4294 29.8941 27.4578 29.9062 27.4894C29.9183 27.5209 29.9231 27.5547 29.9203 27.5884C29.8825 28.1177 29.8825 28.6491 29.9203 29.1784C30.0234 30.5318 30.3992 32.4556 31.6205 33.9212C32.1043 34.4841 32.6778 34.9629 33.3178 35.3383C33.3483 35.3564 33.3741 35.3815 33.3931 35.4116C33.4121 35.4417 33.4236 35.4758 33.4269 35.5112L33.4451 35.7176C33.448 35.7473 33.4449 35.7774 33.4361 35.8059C33.4272 35.8345 33.4128 35.861 33.3936 35.8839C33.3744 35.9067 33.3509 35.9256 33.3243 35.9392C33.2977 35.9529 33.2687 35.9611 33.2389 35.9634L33.0389 35.9816L33.0116 35.9937ZM27.2896 33.1171C28.5737 33.093 29.8464 33.3617 31.0114 33.903C29.9082 32.3858 29.5536 30.5469 29.4566 29.2209C29.4152 28.706 29.4102 28.1889 29.4414 27.6733C29.3475 27.5853 29.2505 27.4973 29.1384 27.4124C26.0743 24.8422 21.4979 24.9848 20.4765 25.0668C20.5796 26.0651 21.2069 30.5985 24.2952 33.196L24.5983 33.4357C25.0972 33.3155 25.6034 33.2283 26.1137 33.1747C26.4895 33.1414 26.8805 33.1171 27.2896 33.1171Z" fill="white" stroke="white" stroke-width="0.3"/>
<path d="M21.7223 41.5983H21.6587C21.498 41.5497 21.3283 41.4982 21.1646 41.4344C17.1307 39.9627 14.9304 35.669 14.5334 34.8254L14.4546 34.6707C14.4425 34.6424 14.4363 34.612 14.4363 34.5812C14.4363 34.5504 14.4425 34.52 14.4546 34.4917C14.4648 34.4628 14.4809 34.4363 14.5017 34.4139C14.5226 34.3914 14.5478 34.3735 14.5758 34.3612L14.7304 34.2883C15.9427 33.7391 20.1857 32.0732 24.059 33.4994C24.2166 33.554 24.3621 33.6177 24.5197 33.6815C24.5553 33.6955 24.5878 33.7168 24.6149 33.7439C24.642 33.7711 24.6632 33.8035 24.6773 33.8393C24.8265 34.3471 25.0107 34.8439 25.2288 35.3261C25.7835 36.5672 26.7927 38.2452 28.4445 39.198C29.0888 39.5628 29.7894 39.8172 30.5175 39.9506C30.5529 39.9573 30.5862 39.9724 30.6147 39.9945C30.6431 40.0167 30.6659 40.0453 30.6811 40.078C30.7387 40.1964 30.769 40.2601 30.7721 40.2631C30.7948 40.3185 30.7948 40.3807 30.7721 40.4361C30.752 40.4936 30.7108 40.5414 30.6569 40.5696L30.466 40.6576C30.4344 40.6734 30.3997 40.6816 30.3644 40.6816C30.3292 40.6816 30.2945 40.6734 30.2629 40.6576C29.6157 40.2903 28.9121 40.0329 28.1808 39.896C26.3047 39.5683 24.453 40.1994 23.2316 40.7881C22.7521 41.0184 22.2893 41.282 21.8466 41.577C21.8082 41.5966 21.7649 41.604 21.7223 41.5983ZM14.9637 34.6677C15.4123 35.5962 17.5277 39.6138 21.3283 41.0005C21.4495 41.046 21.5708 41.0855 21.692 41.1219C22.1261 40.8397 22.5775 40.5853 23.0437 40.3602C24.256 39.7837 26.0199 39.1647 27.8929 39.374C26.3351 38.3393 25.3713 36.7189 24.8258 35.5052C24.6136 35.0361 24.4324 34.5536 24.2832 34.0608C24.1529 34.0061 24.0378 33.9606 23.9165 33.9182C20.1402 32.5436 15.9033 34.2489 14.9637 34.6677Z" fill="white" stroke="white" stroke-width="0.3"/>
<path d="M21.1798 49.8155C16.4609 49.8155 12.7089 45.9163 12.5513 45.7524C12.5096 45.7099 12.4863 45.6527 12.4863 45.5931C12.4863 45.5335 12.5096 45.4763 12.5513 45.4338L12.6816 45.3033C13.3514 44.6448 16.9034 41.3586 21.1677 41.3586C21.3435 41.3586 21.5193 41.3585 21.695 41.3798C21.7279 41.3826 21.7598 41.3924 21.7886 41.4087C21.8174 41.4249 21.8423 41.4471 21.8617 41.4739C22.1736 41.9025 22.516 42.3082 22.8861 42.6876C23.8256 43.6617 25.344 44.8906 27.2322 45.2244C27.9611 45.3518 28.7066 45.3518 29.4355 45.2244C29.4715 45.2189 29.5083 45.2218 29.543 45.2328C29.5777 45.2439 29.6094 45.2628 29.6355 45.2881L29.7841 45.4398C29.8257 45.4824 29.849 45.5396 29.849 45.5992C29.849 45.6587 29.8257 45.7159 29.7841 45.7585C29.6446 45.9163 25.8926 49.8155 21.1798 49.8155ZM13.0453 45.5946C13.803 46.3259 17.1883 49.3603 21.1859 49.3603C24.9864 49.3603 28.2293 46.6294 29.19 45.719C28.5187 45.8045 27.8384 45.7892 27.1716 45.6735C25.1622 45.3185 23.565 44.0289 22.58 43.0093C22.2187 42.6398 21.8825 42.2465 21.5738 41.8319C21.4465 41.8319 21.3162 41.8319 21.1859 41.8319C17.1489 41.8198 13.7606 44.8967 13.0453 45.5946Z" fill="white" stroke="white" stroke-width="0.3"/>
<path d="M68.6897 49.8155C63.9769 49.8155 60.2188 45.9163 60.0612 45.7524C60.0195 45.7099 59.9962 45.6527 59.9962 45.5931C59.9962 45.5335 60.0195 45.4763 60.0612 45.4338L60.2127 45.2821C60.2382 45.2566 60.2693 45.2375 60.3035 45.2265C60.3378 45.2154 60.3742 45.2126 60.4097 45.2183C61.1397 45.3457 61.8862 45.3457 62.6161 45.2183C64.4952 44.8876 66.0196 43.6556 66.9652 42.6816C67.3364 42.3048 67.6769 41.8989 67.9835 41.4678C68.003 41.4411 68.0279 41.4188 68.0566 41.4026C68.0854 41.3864 68.1173 41.3765 68.1502 41.3737C68.329 41.3737 68.5078 41.3525 68.6866 41.3525C72.9509 41.3525 76.5029 44.6327 77.1727 45.2972L77.3061 45.4308C77.3477 45.4733 77.371 45.5305 77.371 45.5901C77.371 45.6496 77.3477 45.7068 77.3061 45.7494C77.1515 45.9163 73.4025 49.8155 68.6897 49.8155ZM60.6795 45.719C61.6432 46.6294 64.8952 49.3603 68.6897 49.3603C72.6812 49.3603 76.0665 46.3259 76.8242 45.5946C76.1059 44.8967 72.7145 41.8198 68.6897 41.8198C68.5594 41.8198 68.426 41.8198 68.2927 41.8198C67.9887 42.2355 67.6555 42.629 67.2955 42.9971C66.3015 44.0197 64.6952 45.3094 62.6979 45.6614C62.0317 45.7811 61.3514 45.8005 60.6795 45.719Z" fill="white" stroke="white" stroke-width="0.3"/>
<path d="M68.1379 41.5983C68.0925 41.5983 68.048 41.5846 68.0106 41.5588C67.5691 41.2653 67.1084 41.0017 66.6316 40.7699C65.4193 40.1812 63.5584 39.5561 61.6763 39.8778C60.9459 40.0142 60.2432 40.2716 59.5973 40.6394C59.566 40.6559 59.5311 40.6645 59.4957 40.6645C59.4604 40.6645 59.4255 40.6559 59.3942 40.6394L59.2003 40.5514C59.1471 40.5241 59.1068 40.477 59.0881 40.4202C59.0694 40.3634 59.0737 40.3015 59.1002 40.248C59.1002 40.248 59.1336 40.1842 59.1881 40.0629C59.2041 40.0307 59.2271 40.0025 59.2555 39.9805C59.2838 39.9584 59.3167 39.943 59.3518 39.9354C60.0808 39.8018 60.7824 39.5475 61.4278 39.1829C63.0705 38.2361 64.0858 36.5581 64.6495 35.317C64.8677 34.8331 65.051 34.3342 65.1981 33.8241C65.207 33.7931 65.2224 33.7643 65.2433 33.7397C65.2642 33.7151 65.2901 33.6953 65.3193 33.6815C65.4648 33.6117 65.6224 33.5571 65.7588 33.5024L65.8103 33.4842C69.7017 32.0581 73.9296 33.7239 75.1328 34.2671C75.1849 34.2963 75.2385 34.3226 75.2935 34.346C75.3493 34.3706 75.3931 34.4164 75.4152 34.4733C75.4374 34.5301 75.4361 34.5935 75.4117 34.6494L75.3268 34.8224C74.9298 35.666 72.7295 39.9597 68.7016 41.4253C68.5319 41.486 68.3682 41.5406 68.2015 41.5861L68.1379 41.5983ZM62.7492 39.3316C64.17 39.3697 65.5649 39.7209 66.8347 40.3602C67.2977 40.5876 67.747 40.8419 68.1803 41.1219C68.3046 41.0855 68.4228 41.043 68.5501 41.0005C72.3476 39.6168 74.4661 35.5749 74.9146 34.6676C74.0054 34.2641 69.7624 32.5436 65.983 33.9151L65.9315 33.9364C65.8285 33.9728 65.7224 34.0122 65.6284 34.0577C65.4781 34.5531 65.2969 35.0386 65.0859 35.5112C64.5343 36.725 63.5705 38.3454 62.0128 39.374C62.2573 39.3471 62.5032 39.3329 62.7492 39.3316Z" fill="white" stroke="white" stroke-width="0.3"/>
<path d="M56.8575 35.9937H56.8363L56.6272 35.9755C56.5674 35.9701 56.5121 35.9412 56.4735 35.8952C56.4349 35.8491 56.416 35.7896 56.4211 35.7297L56.4423 35.5234C56.445 35.4878 56.4564 35.4535 56.4754 35.4233C56.4944 35.3932 56.5205 35.3681 56.5514 35.3504C57.1911 34.9759 57.7637 34.4969 58.2456 33.9333C59.4579 32.4677 59.8519 30.5439 59.9519 29.1905C59.9898 28.6612 59.9898 28.1298 59.9519 27.6005C59.9495 27.5666 59.9548 27.5326 59.9674 27.5011C59.98 27.4696 59.9996 27.4413 60.0246 27.4184C60.1519 27.2971 60.2792 27.1848 60.4126 27.0695C63.5858 24.4052 68.1288 24.5205 69.4442 24.6177L69.629 24.6389C69.6889 24.6457 69.7436 24.6761 69.7812 24.7234C69.8187 24.7706 69.8359 24.8308 69.8291 24.8908C69.8291 24.8908 69.8291 24.9484 69.8291 25.0546C69.7412 25.9953 69.129 30.7866 65.8527 33.551C65.7012 33.6815 65.5679 33.7846 65.4375 33.8787C65.4102 33.8982 65.3789 33.9113 65.3459 33.9171C65.3128 33.9229 65.2789 33.9212 65.2466 33.9121C64.7318 33.7815 64.2081 33.6892 63.6797 33.636C62.328 33.5024 60.3732 33.5449 58.7244 34.4977C58.085 34.8739 57.5142 35.3561 57.0363 35.9239C57.0131 35.9474 56.9851 35.9658 56.9543 35.9778C56.9235 35.9898 56.8906 35.9952 56.8575 35.9937ZM60.4187 27.6733C60.4517 28.1886 60.4517 28.7056 60.4187 29.2209C60.3186 30.5469 59.964 32.3979 58.8548 33.906C60.5277 33.0776 62.4098 33.0442 63.7312 33.1747C64.2478 33.2261 64.7603 33.3133 65.2648 33.4357C65.3587 33.3659 65.4557 33.287 65.5679 33.196C68.6592 30.5955 69.2805 26.0742 69.3805 25.0668C68.3895 24.997 63.8009 24.8331 60.7278 27.4154L60.4187 27.6733Z" fill="white" stroke="white" stroke-width="0.3"/>
<path d="M52.5811 32.5557C52.5318 32.5562 52.4837 32.5404 52.4443 32.5108C52.4049 32.4812 52.3763 32.4394 52.3629 32.3918C52.3629 32.3918 52.3417 32.3251 52.3054 32.1855C52.2975 32.1513 52.2975 32.1158 52.3053 32.0816C52.3132 32.0474 52.3287 32.0155 52.3508 31.9883C52.8243 31.4179 53.1983 30.7715 53.457 30.0766C54.1147 28.2741 53.8116 26.3412 53.4389 25.0364C53.2988 24.5254 53.1216 24.0254 52.9085 23.5404C52.8942 23.5106 52.8868 23.4779 52.8868 23.4448C52.8868 23.4118 52.8942 23.3791 52.9085 23.3493C52.9812 23.1945 53.063 23.0458 53.1509 22.885C55.2724 19.18 59.8973 17.7265 60.8035 17.4867C60.9217 17.4503 60.9945 17.4352 60.9945 17.4352C61.0489 17.4249 61.1052 17.4345 61.153 17.4624C61.2009 17.4903 61.2371 17.5345 61.2551 17.5869C61.2766 17.6524 61.2939 17.7193 61.3066 17.7872C61.54 18.6975 62.5947 23.413 60.4641 27.1028C60.3792 27.2606 60.2823 27.4063 60.1883 27.5489C60.1679 27.5802 60.14 27.606 60.1073 27.624C60.0745 27.642 60.0378 27.6517 60.0004 27.6521C59.4811 27.7106 58.9666 27.8059 58.4608 27.9373C57.1454 28.2711 55.321 28.9751 54.0905 30.4377C53.6202 31.011 53.2494 31.6592 52.9934 32.3554C52.9798 32.3894 52.9585 32.4198 52.9311 32.444C52.9038 32.4682 52.8711 32.4857 52.8358 32.495L52.6357 32.5466C52.6181 32.5523 52.5997 32.5553 52.5811 32.5557ZM53.3661 23.4524C53.5693 23.9269 53.7404 24.4145 53.8783 24.912C54.242 26.1895 54.5421 28.0465 54.0117 29.849C55.3028 28.4956 57.0636 27.825 58.3517 27.4973C58.8495 27.3662 59.3559 27.2699 59.867 27.209C59.9337 27.1028 60.0034 26.9936 60.0671 26.8783C62.0795 23.3948 61.1188 18.919 60.8733 17.9389C59.8883 18.218 55.5482 19.623 53.5419 23.0974C53.4843 23.2248 53.4237 23.3523 53.354 23.4524H53.3661Z" fill="white" stroke="white" stroke-width="0.3"/>
<path d="M47.5957 30.7411C47.5612 30.7412 47.527 30.7334 47.496 30.7181C47.465 30.7028 47.4379 30.6806 47.4169 30.6531C47.4169 30.6531 47.3654 30.5894 47.2866 30.468C47.2686 30.4383 47.2572 30.405 47.253 30.3705C47.2488 30.336 47.252 30.3009 47.2623 30.2677C47.5123 29.5693 47.6434 28.8339 47.6503 28.0921C47.6503 26.1591 46.7017 24.4508 45.9076 23.3675C45.5974 22.9324 45.2582 22.5187 44.8923 22.1294C44.8694 22.1054 44.8521 22.0767 44.8416 22.0452C44.8311 22.0137 44.8277 21.9803 44.8317 21.9474V21.9109C44.8499 21.7532 44.868 21.5893 44.9014 21.4315C45.6348 17.2652 49.3778 14.3734 50.2143 13.7726L50.2506 13.7423C50.3507 13.6694 50.4052 13.6361 50.4052 13.6361C50.4535 13.605 50.5118 13.5937 50.5682 13.6044C50.6246 13.6152 50.6747 13.6471 50.7083 13.6937L50.8144 13.8394C51.3478 14.6192 53.9572 18.6945 53.2147 22.9062C53.1814 23.0762 53.148 23.24 53.1116 23.4069C53.1045 23.4422 53.0892 23.4754 53.0672 23.5038C53.0451 23.5322 53.0168 23.5551 52.9844 23.5708C52.5095 23.8034 52.0526 24.0712 51.6175 24.3719C50.4961 25.1305 49.0232 26.408 48.3655 28.2104C48.1176 28.9134 47.9875 29.6527 47.9806 30.3982C47.9799 30.4326 47.9713 30.4663 47.9556 30.4968C47.9398 30.5273 47.9173 30.5538 47.8897 30.5742C47.7775 30.6592 47.7169 30.6986 47.7169 30.6986C47.6815 30.7243 47.6394 30.7391 47.5957 30.7411ZM45.2954 21.8958C45.6478 22.2794 45.9757 22.6848 46.2773 23.1095C47.0562 24.1777 47.9746 25.8163 48.0958 27.7006C48.8474 25.9771 50.2718 24.7512 51.369 24.0077C51.7928 23.7154 52.2363 23.4528 52.6964 23.2218C52.7267 23.0944 52.751 22.9669 52.7783 22.8334C53.4723 18.8887 51.0599 15.0076 50.484 14.155C49.6627 14.7467 46.0591 17.5323 45.356 21.5256C45.3227 21.6439 45.3045 21.7714 45.2893 21.8958H45.2954Z" fill="white" stroke="white" stroke-width="0.3"/>
<path d="M44.9347 34.5523C44.8765 34.5519 44.8205 34.5304 44.7771 34.4917C43.6298 33.3404 42.743 31.9558 42.1767 30.4316C41.9091 29.6805 41.7697 28.8895 41.7645 28.0921C41.7645 26.0499 42.7586 24.2444 43.583 23.0913C43.9042 22.6441 44.2566 22.2203 44.6377 21.8229L44.765 21.6955C44.8069 21.6588 44.8608 21.6386 44.9165 21.6386C44.9722 21.6386 45.0261 21.6588 45.068 21.6955C45.068 21.6955 45.1195 21.741 45.2044 21.832C45.5827 22.2353 45.934 22.6631 46.2561 23.1126C47.0895 24.2535 48.0745 26.0499 48.0745 28.1042C48.0672 28.8965 47.9279 29.6821 47.6623 30.4286C47.1024 31.9597 46.2161 33.3503 45.065 34.5038C45.0276 34.533 44.9821 34.55 44.9347 34.5523ZM44.9347 22.181C44.5837 22.5493 44.2577 22.9406 43.9588 23.3523C43.1617 24.4508 42.2161 26.1652 42.2161 28.086C42.2228 28.8325 42.3529 29.5728 42.601 30.2768C43.1222 31.6593 43.9147 32.9232 44.9316 33.994C45.9498 32.9212 46.7396 31.6524 47.2532 30.2647C47.5027 29.5651 47.6338 28.8288 47.6411 28.086C47.6411 26.1531 46.6925 24.4447 45.8985 23.3614C45.6024 22.948 45.2805 22.5537 44.9347 22.181Z" fill="white" stroke="white" stroke-width="0.3"/>
<path d="M41.0825 35.2321C41.0513 35.2319 41.0205 35.2257 40.9916 35.2139C39.5162 34.523 38.2082 33.5198 37.1577 32.2735C36.6516 31.6644 36.2519 30.9739 35.9757 30.2313C35.2817 28.3105 35.5999 26.2866 35.9757 24.912C36.122 24.3811 36.3074 23.8618 36.5304 23.3584L36.6001 23.1975C36.627 23.1412 36.6749 23.0977 36.7334 23.0762C36.7617 23.0642 36.7921 23.0581 36.8228 23.0581C36.8535 23.0581 36.8839 23.0642 36.9122 23.0762L37.0668 23.152C37.5636 23.3937 38.0408 23.6737 38.4943 23.9895C39.6672 24.7815 41.2219 26.1288 41.916 28.0465C42.1821 28.796 42.3214 29.5846 42.3282 30.38C42.3197 32.0099 41.9589 33.6186 41.2704 35.0955C41.2543 35.1331 41.2283 35.1656 41.1952 35.1896C41.1622 35.2136 41.1232 35.2283 41.0825 35.2321ZM36.9365 23.6011C36.7317 24.0663 36.5615 24.5461 36.4273 25.0364C36.0576 26.3382 35.7514 28.2711 36.4031 30.0766C36.6629 30.7717 37.0379 31.418 37.5123 31.9883C38.4694 33.1179 39.6459 34.0409 40.9704 34.701C41.5605 33.3429 41.8698 31.8792 41.8796 30.3982C41.8727 29.6547 41.7427 28.9174 41.4947 28.2165C40.834 26.411 39.3732 25.1335 38.2458 24.3779C37.829 24.0871 37.3914 23.8275 36.9365 23.6011Z" fill="white" stroke="white" stroke-width="0.3"/>
<path d="M37.7003 37.1832C36.0773 37.042 34.5044 36.5492 33.0906 35.7388C32.4034 35.3392 31.7887 34.8262 31.2721 34.2216C29.9719 32.6649 29.5749 30.644 29.4688 29.2209C29.4264 28.6694 29.4264 28.1155 29.4688 27.5641C29.4688 27.4488 29.4688 27.385 29.4688 27.385C29.4764 27.3254 29.507 27.2711 29.5539 27.2337C29.6009 27.1963 29.6607 27.1787 29.7204 27.1848H29.878C30.4314 27.2445 30.9795 27.3459 31.5176 27.4882C32.8966 27.8372 34.812 28.5806 36.1213 30.1342C36.6253 30.7472 37.0228 31.4406 37.2972 32.1855C37.8493 33.7175 38.0643 35.3509 37.9276 36.9738C37.9224 37.0307 37.8962 37.0836 37.8542 37.1223C37.8122 37.161 37.7574 37.1827 37.7003 37.1832ZM29.9053 27.6551C29.8689 28.1652 29.8689 28.6773 29.9053 29.1875C30.0083 30.5408 30.3841 32.4647 31.6055 33.9303C32.0892 34.4932 32.6627 34.972 33.3027 35.3474C34.5901 36.0784 36.0116 36.5418 37.4821 36.7098C37.5759 35.2323 37.3697 33.751 36.876 32.3554C36.6201 31.6585 36.2481 31.0101 35.7758 30.4377C34.5453 28.9751 32.7208 28.2711 31.4085 27.9373C30.9145 27.8085 30.4123 27.7142 29.9053 27.6551Z" fill="white" stroke="white" stroke-width="0.3"/>
<path d="M32.2813 40.5605C31.6581 40.563 31.036 40.5061 30.4235 40.3906C29.6455 40.2462 28.8968 39.9734 28.2081 39.5834C26.4533 38.5699 25.3895 36.8069 24.8045 35.5051C24.5761 35.003 24.3846 34.4847 24.2317 33.9546C24.1954 33.8362 24.1832 33.7725 24.1832 33.7725C24.1712 33.7175 24.1796 33.66 24.2069 33.6108C24.2343 33.5616 24.2787 33.5242 24.3317 33.5055C24.3952 33.4855 24.46 33.4703 24.5257 33.4599C25.0563 33.3244 25.5962 33.2291 26.1411 33.1747C27.5595 33.0351 29.6173 33.0806 31.3782 34.085C32.0648 34.4855 32.6794 34.9983 33.1966 35.6023C34.2382 36.8522 34.9952 38.3143 35.4152 39.8869C35.4293 39.9435 35.4212 40.0035 35.3924 40.0544C35.3636 40.1052 35.3164 40.143 35.2606 40.16C34.2894 40.4238 33.2877 40.5585 32.2813 40.5605ZM24.6863 33.8848C24.8319 34.3726 25.0101 34.8501 25.2198 35.314C25.7744 36.5551 26.7836 38.2331 28.4354 39.1859C29.0796 39.5507 29.7803 39.805 30.5084 39.9384C31.9682 40.1876 33.4633 40.137 34.9029 39.7897C34.4844 38.3705 33.7823 37.0511 32.839 35.9118C32.3604 35.3447 31.7897 34.8625 31.1509 34.4856C29.4961 33.5328 27.5382 33.4933 26.1865 33.6238C25.681 33.6772 25.1798 33.7654 24.6863 33.8878V33.8848Z" fill="white" stroke="white" stroke-width="0.3"/>
<path d="M28.3082 45.7736C27.9251 45.7741 27.5427 45.7406 27.1656 45.6735C25.1562 45.3185 23.559 44.0289 22.574 43.0093C22.1874 42.6149 21.8299 42.193 21.5042 41.747C21.4314 41.6499 21.392 41.5892 21.392 41.5892C21.3628 41.5401 21.3528 41.4818 21.364 41.4258C21.3752 41.3697 21.4068 41.3198 21.4526 41.2857L21.5921 41.1886C22.0538 40.8796 22.5369 40.6038 23.0377 40.3633C24.3197 39.7564 26.2654 39.0797 28.2627 39.4347C29.0442 39.5785 29.7961 39.8524 30.4873 40.2449C31.8926 41.0654 33.1042 42.1802 34.0393 43.513C34.0699 43.5612 34.0813 43.6192 34.0712 43.6754C34.0611 43.7316 34.0302 43.7819 33.9847 43.8164C32.6484 44.7498 31.125 45.3805 29.5205 45.6644C29.1202 45.7351 28.7146 45.7717 28.3082 45.7736ZM21.9042 41.5254C22.2083 41.9373 22.5405 42.3277 22.8983 42.6937C23.8378 43.6677 25.3562 44.8967 27.2444 45.2305C27.9733 45.3579 28.7188 45.3579 29.4477 45.2305C30.9055 44.9674 32.2945 44.4099 33.5301 43.5919C32.651 42.4017 31.5407 41.4016 30.266 40.6515C29.6188 40.2842 28.9152 40.0268 28.1839 39.8899C26.3079 39.5622 24.4561 40.1933 23.2347 40.782C22.7766 41.0015 22.3322 41.2487 21.9042 41.5224V41.5254Z" fill="white" stroke="white" stroke-width="0.3"/>
<path d="M61.5551 45.7736C61.1488 45.7721 60.7433 45.7365 60.3428 45.6674C58.7426 45.3818 57.2234 44.7513 55.8907 43.8195C55.8452 43.785 55.8144 43.7346 55.8043 43.6784C55.7942 43.6222 55.8055 43.5642 55.8361 43.516C56.7681 42.1827 57.9779 41.0677 59.3821 40.2479C60.0728 39.8568 60.8235 39.583 61.6036 39.4378C63.6069 39.0827 65.5436 39.7412 66.8377 40.3663C67.3342 40.6065 67.8132 40.8812 68.2712 41.1886L68.4137 41.2888C68.4601 41.3224 68.4922 41.3723 68.5034 41.4286C68.5147 41.4849 68.5043 41.5433 68.4743 41.5922C68.4381 41.6491 68.3987 41.7038 68.3561 41.7561C68.0374 42.2014 67.6848 42.6214 67.3014 43.0123C66.3073 44.0349 64.701 45.3245 62.7038 45.6765C62.3245 45.743 61.9401 45.7755 61.5551 45.7736ZM56.3392 43.5797C57.5712 44.3962 58.9559 44.9537 60.4095 45.2183C61.1405 45.3457 61.8879 45.3457 62.6189 45.2183C64.498 44.8876 66.0224 43.6556 66.968 42.6816C67.326 42.3173 67.6562 41.9268 67.9561 41.5133C67.5312 41.2342 67.0888 40.9828 66.6316 40.7608C65.4193 40.1721 63.5584 39.547 61.6763 39.8686C60.9459 40.0051 60.2432 40.2625 59.5973 40.6303C58.3231 41.3826 57.2147 42.386 56.3392 43.5797Z" fill="white" stroke="white" stroke-width="0.3"/>
<path d="M57.597 40.5605C56.5954 40.5624 55.5979 40.4328 54.6299 40.1751C54.5739 40.1582 54.5265 40.1205 54.4972 40.0698C54.468 40.0191 54.459 39.9591 54.4723 39.902C54.8976 38.3297 55.6575 36.8681 56.6999 35.6174C57.217 35.0134 57.8317 34.5005 58.5184 34.1002C60.2732 33.0867 62.3341 33.0412 63.7494 33.1899C64.3028 33.2497 64.8509 33.3512 65.389 33.4933C65.4486 33.5031 65.5074 33.5173 65.5648 33.5358C65.6181 33.5545 65.6627 33.5918 65.6906 33.6409C65.7185 33.69 65.7276 33.7475 65.7164 33.8029C65.7164 33.8029 65.7164 33.8666 65.6679 33.9879C65.5122 34.5182 65.3208 35.0372 65.0951 35.5416C64.4889 36.8433 63.4312 38.6064 61.6825 39.6138C60.9939 40.0042 60.2452 40.277 59.467 40.4209C58.8496 40.5275 58.2234 40.5742 57.597 40.5605ZM54.9754 39.7928C56.4141 40.14 57.9082 40.1906 59.367 39.9415C60.0959 39.8079 60.7976 39.5536 61.443 39.189C63.0857 38.2422 64.101 36.5642 64.6647 35.3231C64.8731 34.8567 65.0513 34.3772 65.1981 33.8878C64.6996 33.7657 64.1933 33.6785 63.6827 33.6269C62.331 33.4933 60.3762 33.5358 58.7275 34.4886C58.0881 34.8648 57.5173 35.347 57.0394 35.9148C56.0931 37.0545 55.386 38.3734 54.9603 39.7928H54.9754Z" fill="white" stroke="white" stroke-width="0.3"/>
<path d="M52.166 37.1832C52.1107 37.1828 52.0574 37.1623 52.0161 37.1254C51.9748 37.0886 51.9484 37.0379 51.9417 36.9829C51.8031 35.3602 52.0172 33.7266 52.5691 32.1946C52.8447 31.4503 53.2421 30.757 53.745 30.1433C55.0543 28.5897 56.9728 27.8463 58.3518 27.4973C58.8832 27.357 59.4241 27.2556 59.9702 27.1939H60.0035H60.149C60.2084 27.1879 60.2677 27.2055 60.3142 27.243C60.3607 27.2805 60.3906 27.3348 60.3975 27.3941C60.3975 27.3941 60.3975 27.4579 60.3975 27.5762C60.4354 28.1268 60.4354 28.6794 60.3975 29.23C60.2914 30.6501 59.8914 32.674 58.5791 34.2307C58.062 34.8348 57.4473 35.3477 56.7606 35.7479C55.3489 36.5581 53.778 37.0509 52.1569 37.1923L52.166 37.1832ZM59.9641 27.6551C59.4532 27.7145 58.9469 27.8088 58.4488 27.9373C57.1334 28.2711 55.3089 28.9751 54.0784 30.4377C53.6082 31.011 53.2373 31.6592 52.9813 32.3554C52.4896 33.7515 52.2835 35.2323 52.3751 36.7098C53.8447 36.5421 55.2653 36.0787 56.5515 35.3474C57.1912 34.9728 57.7638 34.4938 58.2457 33.9303C59.458 32.4646 59.852 30.5439 59.952 29.1875C59.9876 28.6774 59.9917 28.1656 59.9641 27.6551Z" fill="white" stroke="white" stroke-width="0.3"/>
<path d="M48.7809 35.2321C48.7388 35.2325 48.6974 35.2211 48.6615 35.1991C48.6256 35.1771 48.5966 35.1454 48.5778 35.1076C47.8928 33.6298 47.5341 32.0214 47.5261 30.3922C47.5362 29.5971 47.6754 28.809 47.9383 28.0587C48.6384 26.1409 50.1871 24.7936 51.36 23.9986C51.8016 23.693 52.2656 23.4212 52.7481 23.1854C52.7623 23.1725 52.7788 23.1622 52.7966 23.155L52.942 23.0883C52.9693 23.0764 52.9987 23.0702 53.0284 23.0702C53.0582 23.0702 53.0875 23.0764 53.1148 23.0883C53.172 23.1071 53.2198 23.1473 53.2482 23.2006L53.3239 23.3675C53.5451 23.8727 53.7304 24.3928 53.8785 24.9241C54.2665 26.2926 54.5847 28.3257 53.8785 30.2435C53.6035 30.9859 53.2049 31.6764 52.6996 32.2856C51.6491 33.5319 50.3411 34.5351 48.8657 35.226C48.838 35.233 48.8093 35.2351 48.7809 35.2321ZM52.936 23.5981C52.4782 23.8246 52.0376 24.0842 51.6176 24.3749C50.4962 25.1335 49.0233 26.411 48.3656 28.2134C48.1177 28.9165 47.9876 29.6557 47.9807 30.4013C47.9935 31.881 48.3026 33.3431 48.89 34.701C50.2147 34.0399 51.392 33.1171 52.351 31.9883C52.8245 31.4179 53.1985 30.7716 53.4573 30.0766C54.1149 28.2741 53.8119 26.3412 53.4391 25.0364C53.3045 24.546 53.1363 24.0654 52.936 23.5981Z" fill="white" stroke="white" stroke-width="0.3"/>
<path d="M45.5438 46.4989H43.5253V47.5518H46.4409V48.2042H43.5253V49.6425H42.7464V48.2042H41.7372V47.5518H42.7464V46.4989H41.7372V45.7554H42.7464V41.7834H45.5498C46.1744 41.7834 46.7734 42.0318 47.215 42.474C47.6566 42.9161 47.9047 43.5158 47.9047 44.1411C47.9047 44.7664 47.6566 45.3661 47.215 45.8083C46.7734 46.2505 46.1744 46.4989 45.5498 46.4989H45.5438ZM43.5253 42.5238V45.7554H45.5438C45.7517 45.7584 45.9579 45.7175 46.149 45.6354C46.3401 45.5533 46.5119 45.4319 46.653 45.279C46.9488 44.9724 47.114 44.5628 47.114 44.1366C47.114 43.7103 46.9488 43.3007 46.653 42.9941C46.5107 42.8431 46.3387 42.7233 46.1477 42.6423C45.9568 42.5614 45.7511 42.521 45.5438 42.5238H43.5253Z" fill="white" stroke="white" stroke-width="0.3"/>
<path d="M45.0953 52.3765C43.7826 52.3765 42.4993 51.9868 41.4078 51.2566C40.3163 50.5264 39.4656 49.4885 38.9633 48.2742C38.4609 47.0599 38.3294 45.7238 38.5855 44.4347C38.8416 43.1456 39.4738 41.9615 40.4021 41.0322C41.3303 40.1028 42.5129 39.4699 43.8005 39.2135C45.088 38.957 46.4225 39.0886 47.6353 39.5916C48.8481 40.0946 49.8847 40.9463 50.6141 42.0392C51.3434 43.132 51.7326 44.4168 51.7326 45.7312C51.731 47.4931 51.0312 49.1825 49.7868 50.4284C48.5424 51.6743 46.8552 52.3749 45.0953 52.3765ZM45.0953 39.3892C43.8425 39.3892 42.6179 39.7612 41.5762 40.458C40.5345 41.1549 39.7227 42.1454 39.2433 43.3042C38.7638 44.463 38.6384 45.7382 38.8828 46.9684C39.1272 48.1986 39.7305 49.3286 40.6163 50.2156C41.5022 51.1025 42.6309 51.7065 43.8596 51.9512C45.0883 52.1959 46.3619 52.0704 47.5193 51.5903C48.6768 51.1103 49.666 50.2975 50.362 49.2545C51.0581 48.2116 51.4296 46.9855 51.4296 45.7312C51.4272 44.0499 50.759 42.4382 49.5717 41.2494C48.3843 40.0606 46.7745 39.3916 45.0953 39.3892Z" fill="white" stroke="white" stroke-width="0.3"/>
<path d="M45.0953 54C43.4619 54 41.8651 53.515 40.507 52.6064C39.1488 51.6978 38.0903 50.4064 37.4652 48.8955C36.8401 47.3846 36.6766 45.722 36.9952 44.118C37.3139 42.514 38.1005 41.0406 39.2555 39.8842C40.4105 38.7278 41.8821 37.9403 43.4841 37.6212C45.0862 37.3022 46.7467 37.4659 48.2558 38.0918C49.7649 38.7176 51.0547 39.7775 51.9622 41.1373C52.8697 42.4971 53.3541 44.0957 53.3541 45.7312C53.3517 47.9234 52.4808 50.0252 50.9325 51.5754C49.3842 53.1256 47.2849 53.9975 45.0953 54ZM45.0953 38.0692C43.5818 38.0692 42.1022 38.5186 40.8437 39.3605C39.5853 40.2024 38.6044 41.399 38.0252 42.7991C37.446 44.1991 37.2945 45.7397 37.5898 47.2259C37.885 48.7122 38.6138 50.0774 39.6841 51.1489C40.7543 52.2205 42.1179 52.9502 43.6024 53.2459C45.0868 53.5415 46.6255 53.3898 48.0238 52.8098C49.4222 52.2299 50.6173 51.2479 51.4582 49.9879C52.2991 48.7279 52.7479 47.2465 52.7479 45.7312C52.7455 43.6998 51.9385 41.7524 50.5039 40.316C49.0693 38.8796 47.1242 38.0716 45.0953 38.0692Z" fill="white" stroke="white" stroke-width="0.3"/>
<path d="M53.0326 80.0596C52.9952 80.0599 52.9581 80.0527 52.9235 80.0383C50.802 79.216 50.9778 75.6293 51.1688 71.8454C51.2173 70.8623 51.2688 69.8488 51.2779 68.8838C51.3173 64.8116 49.7474 59.4983 42.0341 57.3166C34.3209 55.1348 33.245 47.9099 33.2268 47.8249C33.2213 47.7853 33.2236 47.7449 33.2337 47.7061C33.2439 47.6674 33.2615 47.631 33.2858 47.5991C33.31 47.5672 33.3403 47.5405 33.3749 47.5204C33.4095 47.5003 33.4478 47.4873 33.4874 47.482C33.567 47.4717 33.6474 47.4933 33.711 47.5423C33.7747 47.5912 33.8163 47.6634 33.8269 47.743C33.8269 47.8097 34.8876 54.6645 42.1978 56.7309C50.2807 59.0189 51.9264 64.6053 51.8961 68.8899C51.8961 69.867 51.8355 70.8865 51.784 71.8757C51.6052 75.4473 51.4355 78.8246 53.1539 79.4891C53.2193 79.515 53.2737 79.5629 53.3077 79.6245C53.3418 79.6861 53.3534 79.7577 53.3405 79.827C53.3276 79.8962 53.291 79.9588 53.237 80.004C53.1831 80.0492 53.1151 80.0742 53.0448 80.0748L53.0326 80.0596Z" fill="white" stroke="white" stroke-width="0.3"/>
<path d="M47.8987 60.3723C47.8233 60.3726 47.7505 60.3449 47.6944 60.2944C47.6384 60.2439 47.6031 60.1743 47.5956 60.0992C47.2683 56.9858 48.8382 55.8328 50.6566 54.4976C52.4751 53.1625 54.4541 51.709 55.7301 48.0252C55.7432 47.9875 55.7636 47.9528 55.7902 47.9231C55.8167 47.8933 55.8488 47.8691 55.8847 47.8518C55.9206 47.8344 55.9595 47.8243 55.9993 47.8221C56.0391 47.8198 56.0789 47.8254 56.1165 47.8386C56.1541 47.8517 56.1888 47.8722 56.2185 47.8987C56.2482 47.9253 56.2724 47.9575 56.2897 47.9934C56.307 48.0293 56.3171 48.0683 56.3194 48.1081C56.3216 48.1479 56.316 48.1878 56.3029 48.2255C54.9663 52.0852 52.7751 53.6874 51.0143 54.9862C49.2534 56.2849 47.9078 57.2711 48.1957 60.0385C48.2033 60.1181 48.1793 60.1975 48.1288 60.2594C48.0782 60.3213 48.0054 60.3608 47.9259 60.3692L47.8987 60.3723Z" fill="white" stroke="white" stroke-width="0.3"/>
<path d="M51.8387 54.3034C51.7583 54.3034 51.6812 54.2714 51.6244 54.2145C51.5676 54.1576 51.5356 54.0804 51.5356 54C51.5356 53.9195 51.5676 53.8423 51.6244 53.7854C51.6812 53.7285 51.7583 53.6965 51.8387 53.6965C51.9054 53.6965 58.5488 53.651 59.0034 50.0067C59.0084 49.9668 59.0211 49.9283 59.0409 49.8934C59.0608 49.8585 59.0873 49.8279 59.1189 49.8032C59.1506 49.7785 59.1868 49.7604 59.2255 49.7497C59.2641 49.7391 59.3045 49.7362 59.3443 49.7412C59.3841 49.7461 59.4226 49.7589 59.4574 49.7787C59.4923 49.7986 59.5229 49.8251 59.5476 49.8568C59.5722 49.8885 59.5903 49.9248 59.6009 49.9635C59.6116 50.0022 59.6145 50.0427 59.6095 50.0825C59.0822 54.2549 52.1418 54.3034 51.8387 54.3034Z" fill="white" stroke="white" stroke-width="0.3"/>
<path d="M39.8218 57.7566C38.5812 57.735 37.3627 57.4233 36.2638 56.8462C33.1421 55.2805 30.3296 51.7666 29.4204 48.3043C29.4003 48.2263 29.412 48.1434 29.4529 48.074C29.4938 48.0046 29.5606 47.9543 29.6386 47.9341C29.7165 47.914 29.7993 47.9257 29.8687 47.9667C29.938 48.0077 29.9882 48.0746 30.0083 48.1526C30.8721 51.4571 33.5573 54.8102 36.5335 56.3031C38.4338 57.2559 40.325 57.4015 41.9888 56.7218C42.0261 56.7039 42.0667 56.6939 42.108 56.6923C42.1494 56.6907 42.1906 56.6976 42.2292 56.7126C42.2677 56.7275 42.3028 56.7503 42.3323 56.7793C42.3618 56.8084 42.385 56.8431 42.4006 56.8815C42.4161 56.9199 42.4236 56.9611 42.4227 57.0025C42.4217 57.0439 42.4123 57.0847 42.395 57.1223C42.3778 57.1599 42.353 57.1936 42.3222 57.2213C42.2914 57.2489 42.2553 57.27 42.2161 57.2832C41.456 57.5942 40.643 57.7549 39.8218 57.7566Z" fill="white" stroke="white" stroke-width="0.3"/>
<path d="M50.0202 62.7998C49.9657 62.7999 49.9121 62.7853 49.8652 62.7576C49.8182 62.7298 49.7796 62.6899 49.7535 62.642C47.8956 59.2313 48.7715 57.532 51.0355 55.59C51.0657 55.5641 51.1008 55.5444 51.1386 55.5321C51.1765 55.5197 51.2164 55.515 51.256 55.5181C51.2957 55.5212 51.3344 55.5321 51.3699 55.5501C51.4054 55.5682 51.4369 55.5931 51.4628 55.6234C51.4887 55.6536 51.5084 55.6887 51.5207 55.7266C51.533 55.7645 51.5378 55.8045 51.5347 55.8442C51.5316 55.8839 51.5207 55.9227 51.5026 55.9582C51.4846 55.9937 51.4597 56.0253 51.4295 56.0512C49.308 57.8719 48.6079 59.2677 50.2869 62.3507C50.3061 62.3857 50.3182 62.4242 50.3225 62.464C50.3268 62.5037 50.3232 62.5439 50.3119 62.5823C50.3007 62.6206 50.2819 62.6563 50.2568 62.6874C50.2317 62.7185 50.2007 62.7443 50.1657 62.7634C50.121 62.7875 50.071 62.8 50.0202 62.7998Z" fill="white" stroke="white" stroke-width="0.3"/>
<path d="M46.9591 80.0596C46.9193 80.0622 46.8794 80.0569 46.8416 80.044C46.8039 80.0312 46.769 80.011 46.739 79.9847C46.7091 79.9583 46.6846 79.9263 46.667 79.8905C46.6494 79.8547 46.6389 79.8157 46.6363 79.7759C46.6338 79.736 46.639 79.6961 46.6519 79.6582C46.6647 79.6204 46.6849 79.5855 46.7112 79.5555C46.7375 79.5255 46.7694 79.501 46.8052 79.4834C46.841 79.4657 46.8799 79.4553 46.9197 79.4527C49.414 79.1493 49.414 72.2247 49.414 67.6518C49.414 64.2715 47.5744 60.0172 42.3948 59.1554C41.1492 58.9491 38.7852 59.3496 38.0609 60.3328C37.9429 60.49 37.8749 60.6792 37.8657 60.8756C37.8566 61.072 37.9066 61.2667 38.0094 61.4343C38.0273 61.47 38.038 61.5088 38.0409 61.5486C38.0438 61.5884 38.0389 61.6284 38.0263 61.6663C38.0138 61.7042 37.994 61.7393 37.9679 61.7695C37.9419 61.7997 37.9101 61.8245 37.8745 61.8424C37.8389 61.8603 37.8001 61.8711 37.7603 61.874C37.7205 61.8769 37.6806 61.872 37.6427 61.8594C37.6049 61.8469 37.5699 61.827 37.5397 61.8009C37.5095 61.7748 37.4848 61.7431 37.4668 61.7074C37.3131 61.4394 37.2413 61.1321 37.2602 60.8236C37.279 60.5151 37.3878 60.219 37.573 59.9717C38.4822 58.7579 41.0856 58.321 42.4918 58.5546C48.0502 59.4832 50.0202 64.0378 50.0202 67.6579C50.0202 73.0137 50.0202 79.6803 46.9894 80.0596H46.9591Z" fill="white" stroke="white" stroke-width="0.3"/>
<path d="M41.9919 80.0596C41.9115 80.0644 41.8325 80.0371 41.7722 79.9836C41.712 79.9301 41.6754 79.8548 41.6706 79.7743C41.6658 79.6939 41.6931 79.6148 41.7465 79.5544C41.7999 79.4941 41.8751 79.4575 41.9555 79.4527C44.8529 79.1098 46.7532 76.2574 47.4533 71.1991C47.7472 69.333 47.8356 67.4404 47.7169 65.555C47.6173 64.5088 47.6807 63.4533 47.9048 62.4266C47.9225 62.3461 47.9714 62.2759 48.0408 62.2315C48.1101 62.1871 48.1942 62.1722 48.2746 62.1899C48.355 62.2076 48.425 62.2565 48.4694 62.3259C48.5137 62.3954 48.5287 62.4796 48.511 62.5601C48.2963 63.5317 48.2369 64.5314 48.3352 65.5217C48.456 67.4475 48.3656 69.3809 48.0655 71.2871C47.129 78.0599 44.271 79.7834 42.0373 80.0596H41.9919Z" fill="white" stroke="white" stroke-width="0.3"/>
<path d="M33.9575 55.2137H33.8938C33.8514 55.2137 29.6872 54.3034 27.7717 54.6827C27.6914 54.6976 27.6084 54.6799 27.541 54.6335C27.4737 54.5871 27.4275 54.5159 27.4126 54.4354C27.3977 54.3549 27.4154 54.2718 27.4617 54.2044C27.5081 54.137 27.5792 54.0907 27.6596 54.0758C29.6932 53.6904 33.8453 54.5735 34.0241 54.6099C34.1045 54.6183 34.1783 54.6584 34.2291 54.7213C34.28 54.7842 34.3038 54.8647 34.2954 54.9452C34.287 55.0257 34.2469 55.0995 34.1841 55.1504C34.1213 55.2014 34.0409 55.2252 33.9605 55.2168L33.9575 55.2137Z" fill="white" stroke="white" stroke-width="0.3"/>
<path d="M54.8693 54C54.7889 54.0108 54.7075 53.9893 54.643 53.94C54.5785 53.8908 54.5362 53.818 54.5253 53.7375C54.5145 53.657 54.536 53.5755 54.5852 53.5109C54.6343 53.4463 54.7071 53.4039 54.7875 53.3931C56.9605 52.7862 59.2821 53.3658 59.3791 53.3931C59.4177 53.403 59.4539 53.4205 59.4858 53.4445C59.5177 53.4685 59.5445 53.4985 59.5647 53.5329C59.585 53.5673 59.5983 53.6053 59.6039 53.6449C59.6095 53.6844 59.6072 53.7246 59.5973 53.7633C59.5873 53.8019 59.5699 53.8382 59.5459 53.8701C59.5219 53.902 59.4919 53.9289 59.4576 53.9492C59.4233 53.9695 59.3853 53.9828 59.3458 53.9884C59.3063 53.994 59.2661 53.9917 59.2275 53.9818C59.2033 53.9818 56.9666 53.4022 54.9512 53.9818C54.9251 53.9923 54.8974 53.9985 54.8693 54Z" fill="white" stroke="white" stroke-width="0.3"/>
<path d="M66.8529 69.2206H63.7889V68.814C64.0595 68.8359 64.3314 68.79 64.5799 68.6805C64.7314 68.5895 64.8042 68.3771 64.8042 68.0372V61.0034L59.2306 67.4546V68.0615C59.2306 68.4317 59.3034 68.6532 59.4549 68.726C59.7231 68.8202 60.0078 68.8584 60.2914 68.8383V69.2146H57.1061V68.8383C57.407 68.8645 57.7098 68.8166 57.988 68.6987C58.1396 68.6016 58.2123 68.3953 58.2123 68.0615V59.732C58.2123 59.4286 58.1335 59.2222 57.9759 59.1554C57.6933 59.0752 57.3994 59.0424 57.1061 59.0583V58.6699H60.3065V59.0583C60.0036 59.029 59.6981 59.0727 59.4155 59.1858C59.2912 59.2708 59.2306 59.4528 59.2306 59.732V66.8113L64.8042 60.3723V59.7441C64.8042 59.4407 64.7526 59.2707 64.6466 59.1888C64.39 59.082 64.1107 59.0413 63.8343 59.0705V58.6669H66.7923V59.0705C66.5141 59.042 66.2333 59.0859 65.977 59.1979C65.9101 59.2707 65.8602 59.3574 65.8308 59.4519C65.8014 59.5464 65.7934 59.6462 65.8073 59.7441V68.0342C65.8073 68.3922 65.8831 68.6137 66.0376 68.6926C66.298 68.7892 66.5759 68.8295 66.8529 68.811V69.2206Z" fill="white" stroke="white" stroke-width="0.3"/>
<path d="M78.0181 69.2206H74.9086V68.7564C75.2102 68.783 75.5141 68.7447 75.7997 68.6441C75.9118 68.5682 75.9694 68.3922 75.9694 68.1131V63.3672H70.4261V68.0068C70.4133 68.1172 70.4254 68.2291 70.4616 68.3342C70.4978 68.4392 70.5572 68.5348 70.6353 68.6137C70.915 68.7587 71.2316 68.8169 71.5445 68.7806V69.2146H68.3137V68.7806C68.5993 68.8 68.8856 68.7533 69.1502 68.6441C69.3199 68.5561 69.4048 68.3406 69.4048 68.0008V59.8078C69.4356 59.5939 69.3824 59.3764 69.2563 59.201C69.0108 59.0815 68.7363 59.0352 68.4653 59.0674V58.6487H71.3778V59.0674C71.1258 59.0451 70.8726 59.0946 70.6474 59.2101C70.5674 59.2838 70.5066 59.376 70.4702 59.4785C70.4337 59.5811 70.4228 59.691 70.4383 59.7987V62.8969H75.9815V59.8351C75.9956 59.732 75.9883 59.627 75.9602 59.5268C75.932 59.4266 75.8836 59.3332 75.8178 59.2525C75.5669 59.1334 75.2875 59.0872 75.0116 59.119V58.6699H77.9545V59.119C77.7025 59.0967 77.4493 59.1462 77.2241 59.2617C77.1449 59.3328 77.0845 59.4223 77.048 59.5223C77.0116 59.6223 77.0002 59.7297 77.015 59.8351V68.1131C77.0058 68.2596 77.0232 68.4067 77.0665 68.547C77.0926 68.5928 77.1294 68.6316 77.1737 68.6601C77.2181 68.6887 77.2686 68.7061 77.3211 68.7108C77.5555 68.7487 77.793 68.764 78.0303 68.7564L78.0181 69.2206Z" fill="white" stroke="white" stroke-width="0.3"/>
<path d="M84.6099 63.7435C85.5554 63.8446 86.2626 64.1066 86.7314 64.5294C87.2001 64.9522 87.4345 65.5955 87.4345 66.4593C87.4508 66.8502 87.3715 67.2391 87.2035 67.5924C87.0356 67.9456 86.784 68.2525 86.4707 68.4863C85.8282 68.9738 84.8887 69.2186 83.6521 69.2206H79.4515V68.814C79.7246 68.8346 79.9984 68.7834 80.2456 68.6653C80.3363 68.5869 80.4058 68.4869 80.4477 68.3744C80.4896 68.262 80.5024 68.1408 80.485 68.022V59.8291C80.485 59.4923 80.4274 59.2799 80.3183 59.1949C80.0449 59.0792 79.7466 59.0353 79.4515 59.0674V58.679H83.2945C84.4482 58.679 85.3352 58.8904 85.9555 59.3132C86.2488 59.511 86.4865 59.7809 86.6457 60.097C86.8049 60.4132 86.8803 60.765 86.8647 61.1187C86.8915 61.6952 86.69 62.2589 86.304 62.6875C85.8206 63.156 85.2431 63.5159 84.6099 63.7435ZM81.47 63.5341H83.0703C84.0259 63.5341 84.726 63.3369 85.1705 62.9424C85.615 62.5479 85.8363 61.941 85.8343 61.1217C85.8343 59.7846 84.9331 59.116 83.1309 59.116H82.1125C82.022 59.1051 81.9303 59.1127 81.8428 59.1382C81.7553 59.1638 81.6738 59.2068 81.6034 59.2647C81.4963 59.4333 81.4493 59.6333 81.47 59.8321V63.5341ZM81.47 63.9377V68.022C81.4566 68.2292 81.5144 68.4348 81.6337 68.6046C81.6887 68.674 81.7595 68.7293 81.8401 68.7657C81.9208 68.8021 82.009 68.8187 82.0974 68.814H83.6612C84.3812 68.8576 85.0911 68.6279 85.6494 68.1707C85.8912 67.9472 86.0809 67.673 86.2051 67.3678C86.3292 67.0626 86.3847 66.7338 86.3677 66.4047C86.3677 64.76 85.2716 63.9377 83.0793 63.9377H81.47Z" fill="white" stroke="white" stroke-width="0.3"/>
<path d="M98.0301 66.8265L97.0299 69.2206H88.9742V68.8019C89.2831 68.8307 89.5944 68.787 89.8835 68.6744C90.0077 68.5895 90.0714 68.371 90.0714 68.0675V59.8351C90.0798 59.6536 90.0572 59.472 90.0047 59.2981C89.9776 59.2403 89.938 59.1894 89.8887 59.1489C89.8394 59.1085 89.7817 59.0796 89.7198 59.0644C89.4822 59.0113 89.2387 58.9889 88.9954 58.9976V58.6699H97.0208L97.4239 60.703L97.0966 60.7789C96.9773 60.281 96.7531 59.8144 96.4389 59.4103C96.3109 59.2969 96.1617 59.2101 95.9999 59.1549C95.8381 59.0997 95.6669 59.0772 95.4964 59.0887H91.7534C91.6636 59.0758 91.572 59.0833 91.4855 59.1106C91.3989 59.1379 91.3196 59.1844 91.2534 59.2465C91.1484 59.4304 91.1039 59.6427 91.1261 59.8534V63.0577H94.6387C94.7473 63.0737 94.8583 63.0599 94.9598 63.0177C95.0612 62.9755 95.1492 62.9064 95.2145 62.818C95.3376 62.4836 95.3862 62.1263 95.357 61.7711H95.7843V64.7782H95.3661C95.3964 64.425 95.3478 64.0695 95.2236 63.7374C95.1558 63.6523 95.0671 63.5863 94.9662 63.5459C94.8652 63.5055 94.7555 63.492 94.6478 63.5068H91.1352V68.0584C91.1143 68.2617 91.1729 68.4651 91.2988 68.6259C91.4497 68.7505 91.6435 68.8104 91.8383 68.7928H95.3661C95.6258 68.8 95.8838 68.7481 96.1207 68.6411C96.3804 68.4918 96.6064 68.2904 96.7845 68.0493C97.1238 67.6091 97.4336 67.1469 97.7118 66.6656L98.0301 66.8265Z" fill="white" stroke="white" stroke-width="0.3"/>
<path d="M108.089 66.3015L107.971 68.5622C107.512 68.8556 107.007 69.07 106.477 69.1964C105.907 69.3545 105.319 69.4382 104.728 69.4452C104.02 69.4644 103.316 69.3313 102.663 69.0549C102.011 68.7785 101.425 68.3652 100.946 67.843C99.9446 66.764 99.4079 65.3339 99.4516 63.8618C99.4566 62.9155 99.7063 61.9866 100.176 61.1655C100.646 60.3445 101.321 59.6593 102.134 59.1767C102.95 58.693 103.882 58.4402 104.831 58.4454C105.405 58.4311 105.978 58.4738 106.544 58.5728C106.987 58.6746 107.42 58.8167 107.838 58.9976L107.986 61.0034H107.628C107.469 60.3854 107.091 59.8464 106.565 59.4862C105.985 59.119 105.308 58.936 104.622 58.9612C104.066 58.9477 103.515 59.0686 103.015 59.3137C102.515 59.5588 102.082 59.9208 101.752 60.3692C101.008 61.3585 100.623 62.5723 100.661 63.8103C100.661 65.3578 101.03 66.6029 101.767 67.5456C102.1 67.9946 102.536 68.3572 103.038 68.6032C103.54 68.8492 104.094 68.9714 104.652 68.9597C105.368 68.974 106.064 68.7258 106.61 68.2617C107.192 67.7446 107.595 67.0562 107.762 66.2955L108.089 66.3015Z" fill="white" stroke="white" stroke-width="0.3"/>
<path d="M118.539 60.7333L118.148 60.8851C117.912 60.4586 117.64 60.0526 117.336 59.6713C117.153 59.4495 116.908 59.2878 116.633 59.207C116.26 59.1199 115.878 59.0821 115.496 59.0948C115.189 59.0636 114.878 59.102 114.587 59.207C114.475 59.2799 114.42 59.4619 114.42 59.7532V68.0281C114.42 68.5166 114.745 68.7624 115.393 68.7624V69.2115H112.478V68.7624C112.731 68.7881 112.986 68.7385 113.211 68.6198C113.284 68.5381 113.337 68.4413 113.368 68.3364C113.399 68.2315 113.406 68.121 113.39 68.0129V59.7472C113.404 59.6517 113.395 59.5543 113.364 59.463C113.333 59.3717 113.28 59.2892 113.211 59.2222C112.881 59.1121 112.533 59.0718 112.187 59.1039C111.731 59.0733 111.276 59.1789 110.88 59.4073C110.577 59.6167 110.141 60.1325 109.592 60.9488L109.25 60.8305L110.041 58.6608H117.754L118.539 60.7333Z" fill="white" stroke="white" stroke-width="0.3"/>
<path d="M121.003 68.5318C120.849 68.5307 120.699 68.4843 120.572 68.3984C120.444 68.3125 120.345 68.1909 120.286 68.0488C120.227 67.9067 120.212 67.7503 120.241 67.5993C120.27 67.4483 120.343 67.3093 120.451 67.1997C120.599 67.0557 120.798 66.9751 121.004 66.9751C121.211 66.9751 121.409 67.0557 121.558 67.1997C121.667 67.3089 121.741 67.4483 121.772 67.6001C121.802 67.7519 121.786 67.9092 121.727 68.052C121.667 68.1949 121.566 68.3168 121.438 68.4022C121.309 68.4876 121.157 68.5327 121.003 68.5318Z" fill="white" stroke="white" stroke-width="0.3"/>
<path d="M123.725 58.6699H127.968C129.14 58.6699 130.049 58.9461 130.695 59.4983C131.024 59.7927 131.283 60.1576 131.451 60.5658C131.62 60.9741 131.694 61.4151 131.668 61.8561C131.694 62.3012 131.612 62.7459 131.432 63.1533C131.251 63.5607 130.976 63.919 130.629 64.1987C129.936 64.7408 128.906 65.0129 127.54 65.0149H125.689V68.0979C125.689 68.3862 125.761 68.5743 125.904 68.6593C126.147 68.7627 126.411 68.8064 126.674 68.7867V69.2206H123.716V68.7867C123.992 68.816 124.271 68.7688 124.522 68.6502C124.592 68.578 124.645 68.4907 124.676 68.3949C124.707 68.2992 124.715 68.1975 124.701 68.0979V59.7654C124.701 59.4619 124.646 59.2768 124.537 59.1949C124.277 59.0886 123.995 59.048 123.716 59.0765L123.725 58.6699ZM125.698 64.5962H127.55C128.53 64.5962 129.272 64.3615 129.777 63.8922C130.282 63.4228 130.537 62.7148 130.541 61.7681C130.541 60.8173 130.249 60.1315 129.665 59.7107C129.081 59.29 128.148 59.0776 126.865 59.0735C126.536 59.0457 126.205 59.0839 125.892 59.1858C125.761 59.2617 125.698 59.4528 125.698 59.7623V64.5962Z" fill="white" stroke="white" stroke-width="0.3"/>
<path d="M141.991 59.1039C141.691 59.0823 141.391 59.1333 141.115 59.2525C140.868 59.4501 140.683 59.716 140.585 60.0172L137.306 67.5274C137.098 68.0866 136.763 68.5895 136.327 68.9961C135.945 69.3005 135.468 69.4596 134.981 69.4452C134.701 69.4372 134.425 69.3688 134.174 69.2447C133.922 69.1206 133.7 68.9437 133.523 68.726C133.105 68.2975 132.869 67.723 132.866 67.1238C132.853 66.8567 132.932 66.5933 133.09 66.3774C133.154 66.2883 133.238 66.2158 133.335 66.1662C133.433 66.1165 133.541 66.0911 133.65 66.0921C133.753 66.0889 133.854 66.1063 133.95 66.1433C134.045 66.1803 134.132 66.2362 134.205 66.3076C134.272 66.3713 134.326 66.4479 134.363 66.5329C134.4 66.6179 134.42 66.7095 134.42 66.8022C134.407 67.017 134.317 67.2198 134.166 67.3727C134.005 67.5449 133.914 67.7711 133.911 68.0068C133.92 68.1369 133.958 68.2633 134.021 68.3771C134.084 68.4909 134.172 68.5893 134.278 68.6653C134.508 68.8647 134.804 68.9727 135.108 68.9688C135.448 68.9573 135.774 68.8335 136.036 68.6168C136.339 68.3831 136.678 67.84 137.036 66.9934L133.972 59.7654C133.903 59.5388 133.768 59.338 133.584 59.1888C133.311 59.0905 133.021 59.0522 132.732 59.0765V58.6578H135.675V59.0765C135.169 59.0765 134.914 59.1919 134.914 59.4194C134.924 59.5392 134.955 59.6563 135.005 59.7654L137.59 65.7796L140.161 59.8685C140.217 59.7446 140.247 59.6102 140.248 59.4741C140.248 59.3496 140.167 59.2525 139.997 59.1888C139.729 59.1101 139.451 59.0773 139.172 59.0917V58.6578H142L141.991 59.1039Z" fill="white" stroke="white" stroke-width="0.3"/>
<path d="M59.9549 74.9739V75.332H58.5426V77.7595H58.1759V74.9769L59.9549 74.9739Z" fill="white" stroke="white" stroke-width="0.3"/>
<path d="M62.6675 74.9071C62.8568 74.9046 63.0445 74.9409 63.2192 75.014C63.3938 75.0871 63.5516 75.1953 63.6828 75.332C63.9513 75.6093 64.1014 75.9804 64.1014 76.3667C64.1014 76.753 63.9513 77.124 63.6828 77.4014C63.5515 77.5377 63.3936 77.6454 63.2189 77.718C63.0443 77.7905 62.8566 77.8264 62.6675 77.8232C62.4429 77.8328 62.2198 77.7814 62.0219 77.6746C61.824 77.5678 61.6586 77.4095 61.5431 77.2163V78.8822H61.1764V74.9739H61.537V75.5201C61.652 75.3247 61.818 75.1643 62.0172 75.0563C62.2164 74.9483 62.4412 74.8967 62.6675 74.9071ZM61.8613 77.1496C62.0692 77.3538 62.3489 77.4682 62.6402 77.4682C62.9315 77.4682 63.2112 77.3538 63.4191 77.1496C63.6213 76.9392 63.7344 76.6587 63.7344 76.3667C63.7344 76.0747 63.6213 75.7941 63.4191 75.5838C63.2655 75.4287 63.0691 75.323 62.8552 75.2802C62.6413 75.2374 62.4195 75.2594 62.2181 75.3435C62.0167 75.4275 61.8449 75.5697 61.7247 75.752C61.6045 75.9343 61.5412 76.1483 61.5431 76.3667C61.5405 76.512 61.5674 76.6562 61.622 76.7908C61.6767 76.9253 61.7581 77.0474 61.8613 77.1496Z" fill="white" stroke="white" stroke-width="0.3"/>
<path d="M67.8834 74.9739H68.2501V77.7565H67.8834V77.2133C67.7679 77.4064 67.6025 77.5648 67.4046 77.6716C67.2067 77.7784 66.9836 77.8297 66.759 77.8202C66.5699 77.8233 66.3822 77.7875 66.2075 77.7149C66.0329 77.6424 65.875 77.5346 65.7437 77.3984C65.4752 77.121 65.3251 76.7499 65.3251 76.3637C65.3251 75.9774 65.4752 75.6063 65.7437 75.3289C65.8748 75.1923 66.0326 75.084 66.2073 75.011C66.3819 74.9379 66.5697 74.9015 66.759 74.9041C66.9837 74.8942 67.2068 74.9454 67.4048 75.0523C67.6027 75.1591 67.7681 75.3176 67.8834 75.511V74.9739ZM66.0074 77.1496C66.2153 77.3538 66.495 77.4682 66.7862 77.4682C67.0775 77.4682 67.3572 77.3538 67.5652 77.1496C67.7695 76.9403 67.884 76.6593 67.884 76.3667C67.884 76.0741 67.7695 75.793 67.5652 75.5838C67.3572 75.3796 67.0775 75.2652 66.7862 75.2652C66.495 75.2652 66.2153 75.3796 66.0074 75.5838C65.8051 75.7941 65.6922 76.0747 65.6922 76.3667C65.6922 76.6587 65.8051 76.9392 66.0074 77.1496Z" fill="white" stroke="white" stroke-width="0.3"/>
<path d="M71.7749 74.9739H72.1447V77.7565H71.778V76.5427H70.1747V77.7565H69.808V74.9739H70.1747V76.1877H71.778L71.7749 74.9739Z" fill="white" stroke="white" stroke-width="0.3"/>
<path d="M75.6997 74.9739V75.332H74.7147V77.7595H74.348V75.332H73.3569V74.9739H75.6997Z" fill="white" stroke="white" stroke-width="0.3"/>
<path d="M78.0516 76.0329C78.2939 76.0259 78.5295 76.1128 78.7093 76.2757C78.7953 76.3514 78.8639 76.4448 78.9105 76.5496C78.957 76.6543 78.9804 76.7679 78.979 76.8825C78.9796 76.9971 78.9559 77.1104 78.9094 77.2151C78.8629 77.3197 78.7947 77.4132 78.7093 77.4894C78.5284 77.6501 78.2933 77.7358 78.0516 77.7292H76.9211V74.9466H77.297V76.0056L78.0516 76.0329ZM78.0516 77.4014C78.1966 77.4055 78.338 77.3558 78.4486 77.2618C78.5 77.2155 78.541 77.1588 78.5691 77.0956C78.5971 77.0323 78.6117 76.9639 78.6117 76.8947C78.6117 76.8255 78.5971 76.757 78.5691 76.6938C78.541 76.6305 78.5 76.5739 78.4486 76.5275C78.338 76.4336 78.1966 76.3838 78.0516 76.388H77.297V77.4014H78.0516ZM79.3669 74.9739H79.7215V77.7565H79.3548L79.3669 74.9739Z" fill="white" stroke="white" stroke-width="0.3"/>
<path d="M81.7581 77.7231C81.7307 77.7526 81.6974 77.776 81.6603 77.7917C81.6232 77.8074 81.5832 77.815 81.543 77.8141C81.5023 77.8143 81.4621 77.8064 81.4246 77.7908C81.3871 77.7751 81.3532 77.7521 81.3247 77.7231C81.2958 77.6954 81.273 77.6619 81.2579 77.6247C81.2427 77.5876 81.2355 77.5477 81.2368 77.5076C81.2362 77.4672 81.2437 77.427 81.2587 77.3895C81.2738 77.352 81.2963 77.3179 81.3247 77.2892C81.3534 77.2607 81.3875 77.2382 81.425 77.2231C81.4624 77.208 81.5026 77.2005 81.543 77.2012C81.6233 77.2012 81.7004 77.2331 81.7573 77.29C81.8141 77.3469 81.846 77.4241 81.846 77.5046C81.8478 77.5452 81.8408 77.5857 81.8256 77.6233C81.8105 77.661 81.7875 77.695 81.7581 77.7231Z" fill="white" stroke="white" stroke-width="0.3"/>
<path d="M86.8134 77.8232C86.6166 77.8322 86.42 77.8012 86.2355 77.7319C86.051 77.6627 85.8824 77.5568 85.7399 77.4205C85.5975 77.2842 85.4841 77.1204 85.4066 76.9391C85.3291 76.7577 85.2892 76.5625 85.2892 76.3652C85.2892 76.1679 85.3291 75.9727 85.4066 75.7913C85.4841 75.6099 85.5975 75.4461 85.7399 75.3099C85.8824 75.1736 86.051 75.0676 86.2355 74.9984C86.42 74.9292 86.6166 74.8981 86.8134 74.9071C87.0733 74.9043 87.3289 74.9725 87.5529 75.1044C87.7623 75.2282 87.9285 75.4136 88.0288 75.6354L87.7257 75.8084C87.6511 75.6416 87.526 75.5025 87.368 75.4108C87.1988 75.3126 87.006 75.2622 86.8104 75.2652C86.6657 75.264 86.5223 75.2917 86.3884 75.3466C86.2546 75.4016 86.133 75.4827 86.0308 75.5853C85.9287 75.6879 85.848 75.8098 85.7934 75.944C85.7389 76.0781 85.7117 76.2219 85.7133 76.3667C85.7087 76.5109 85.7332 76.6545 85.7852 76.789C85.8373 76.9235 85.9159 77.0461 86.0163 77.1496C86.1174 77.2533 86.2387 77.3352 86.3727 77.39C86.5067 77.4448 86.6505 77.4714 86.7952 77.4682C86.9904 77.4716 87.1825 77.4201 87.3499 77.3195C87.5113 77.2237 87.6442 77.0865 87.7347 76.922L88.0378 77.101C87.925 77.3223 87.7502 77.5057 87.5347 77.629C87.3155 77.756 87.0667 77.823 86.8134 77.8232Z" fill="white" stroke="white" stroke-width="0.3"/>
<path d="M91.2535 74.9739H91.6444L90.4534 78.0083C90.3607 78.2605 90.2028 78.4836 89.9957 78.6546C89.81 78.808 89.572 78.8831 89.332 78.864V78.5211C89.6654 78.5575 89.9169 78.3633 90.0927 77.9416L90.1654 77.7686L88.9198 74.9678H89.3077L90.3533 77.3013L91.2535 74.9739Z" fill="white" stroke="white" stroke-width="0.3"/>
<path d="M93.9902 77.8232C93.8052 77.8289 93.621 77.7965 93.449 77.7282C93.277 77.6598 93.1208 77.5569 92.99 77.4257C92.8563 77.2904 92.7518 77.1289 92.683 76.9515C92.6142 76.774 92.5825 76.5842 92.59 76.394C92.5691 76.0182 92.6409 75.6431 92.7991 75.3016C93.0094 74.9895 93.3081 74.7475 93.6568 74.6067C93.7386 74.5673 93.8447 74.5187 93.9811 74.4611C94.1175 74.4034 94.2175 74.3609 94.2842 74.3276C94.3619 74.2895 94.4369 74.2459 94.5084 74.1971C94.5826 74.152 94.6458 74.0908 94.6933 74.018C94.7353 73.9442 94.7621 73.8627 94.7721 73.7783L95.06 73.9452C95.0449 74.0325 95.0152 74.1167 94.9721 74.194C94.934 74.2627 94.8883 74.3269 94.8357 74.3852C94.7695 74.4463 94.6963 74.4993 94.6175 74.543C94.5206 74.6007 94.4418 74.6401 94.3902 74.6644L94.1114 74.7858L93.8477 74.898C93.6368 74.9764 93.4425 75.0938 93.2749 75.244C93.148 75.3749 93.0581 75.5372 93.0143 75.7143C93.137 75.5481 93.304 75.4198 93.4961 75.3441C93.6756 75.2681 93.8681 75.2279 94.0629 75.2258C94.2339 75.2202 94.4043 75.25 94.5633 75.3133C94.7223 75.3765 94.8666 75.4719 94.9872 75.5935C95.1077 75.7151 95.202 75.8602 95.2641 76.0199C95.3262 76.1795 95.3547 76.3503 95.348 76.5214C95.3532 76.6951 95.3216 76.868 95.2553 77.0286C95.1889 77.1892 95.0893 77.3338 94.963 77.453C94.8335 77.5762 94.6807 77.6723 94.5137 77.7359C94.3467 77.7994 94.1687 77.8291 93.9902 77.8232ZM93.9902 77.4561C94.2539 77.4654 94.5108 77.3706 94.7054 77.1921C94.7964 77.1062 94.8683 77.0021 94.9164 76.8866C94.9644 76.771 94.9875 76.6466 94.9842 76.5214C94.989 76.3966 94.9681 76.2721 94.9228 76.1556C94.8774 76.0392 94.8086 75.9334 94.7206 75.8448C94.6275 75.7552 94.5171 75.6856 94.3962 75.6402C94.2753 75.5948 94.1464 75.5746 94.0175 75.5808C93.7567 75.5792 93.5032 75.667 93.2992 75.8296C93.1962 75.905 93.1132 76.0043 93.0572 76.119C93.0012 76.2338 92.974 76.3604 92.9779 76.4881C92.9756 76.6189 93.0014 76.7487 93.0537 76.8686C93.106 76.9885 93.1835 77.0958 93.281 77.183C93.4733 77.3622 93.7274 77.46 93.9902 77.4561Z" fill="white" stroke="white" stroke-width="0.3"/>
<path d="M97.9817 77.8232C97.7598 77.8196 97.5416 77.7652 97.3438 77.6644C97.1461 77.5635 96.974 77.4187 96.8405 77.2411C96.7071 77.0635 96.616 76.8578 96.5741 76.6396C96.5322 76.4214 96.5406 76.1964 96.5986 75.9819C96.6567 75.7675 96.7629 75.5691 96.9092 75.402C97.0555 75.2348 97.2379 75.1033 97.4427 75.0175C97.6474 74.9317 97.869 74.8938 98.0906 74.9068C98.3122 74.9197 98.5278 74.9832 98.7212 75.0922C98.9314 75.2159 99.0987 75.4013 99.2001 75.6233L98.897 75.7962C98.8212 75.6292 98.6951 75.4902 98.5363 75.3987C98.3671 75.3004 98.1743 75.2501 97.9787 75.2531C97.834 75.2518 97.6905 75.2795 97.5567 75.3345C97.4228 75.3895 97.3012 75.4706 97.1991 75.5731C97.0969 75.6757 97.0162 75.7977 96.9617 75.9318C96.9072 76.066 96.8799 76.2097 96.8815 76.3546C96.877 76.4987 96.9014 76.6424 96.9535 76.7769C97.0056 76.9114 97.0842 77.034 97.1846 77.1374C97.2857 77.2412 97.407 77.3231 97.541 77.3779C97.675 77.4327 97.8188 77.4593 97.9635 77.4561C98.1586 77.4594 98.3508 77.4079 98.5181 77.3074C98.6796 77.2116 98.8125 77.0744 98.9031 76.9099L99.2061 77.0889C99.0912 77.3096 98.9155 77.4928 98.7 77.6169C98.483 77.748 98.2351 77.8192 97.9817 77.8232Z" fill="white" stroke="white" stroke-width="0.3"/>
<path d="M102.555 74.9739H102.858V77.7565H102.491V75.6142L100.837 77.7565H100.534V74.9739H100.9V77.1162L102.555 74.9739Z" fill="white" stroke="white" stroke-width="0.3"/>
<path d="M106.759 77.4014H107.15V78.5029H106.783V77.7565H104.513V78.5029H104.146V77.4014H104.486C104.693 77.091 104.793 76.7212 104.771 76.3485V74.9739H106.759V77.4014ZM104.94 77.4014H106.392V75.332H105.137V76.3485C105.15 76.7107 105.08 77.0709 104.931 77.4014H104.94Z" fill="white" stroke="white" stroke-width="0.3"/>
<path d="M110.508 74.9739H110.811V77.7565H110.444V75.6142L108.789 77.7565H108.486V74.9739H108.853V77.1162L110.508 74.9739Z" fill="white" stroke="white" stroke-width="0.3"/>
<path d="M114.399 74.9739H114.702V77.7565H114.335V75.6142L112.681 77.7565H112.378V74.9739H112.756V77.1162L114.399 74.9739Z" fill="white" stroke="white" stroke-width="0.3"/>
<path d="M116.733 77.7231C116.705 77.7526 116.672 77.776 116.635 77.7917C116.598 77.8074 116.558 77.815 116.518 77.8141C116.437 77.8141 116.36 77.7822 116.303 77.7253C116.247 77.6683 116.215 77.5911 116.215 77.5107C116.214 77.4702 116.221 77.4301 116.237 77.3925C116.252 77.355 116.274 77.3209 116.303 77.2922C116.331 77.2637 116.365 77.2413 116.403 77.2261C116.44 77.211 116.48 77.2036 116.521 77.2042C116.601 77.2042 116.678 77.2362 116.735 77.2931C116.792 77.35 116.824 77.4272 116.824 77.5076C116.825 77.5479 116.817 77.588 116.801 77.6251C116.786 77.6623 116.762 77.6956 116.733 77.7231Z" fill="white" stroke="white" stroke-width="0.3"/>
<path d="M122.758 74.9739V77.7564H122.391V75.3289H121.136V76.57C121.174 76.9107 121.08 77.2529 120.873 77.5258C120.776 77.6158 120.661 77.683 120.535 77.7223C120.409 77.7617 120.276 77.7724 120.145 77.7534V77.4105C120.23 77.4275 120.318 77.4224 120.4 77.3959C120.482 77.3693 120.556 77.3221 120.615 77.2588C120.74 77.0522 120.795 76.8103 120.77 76.57V74.9708L122.758 74.9739Z" fill="white" stroke="white" stroke-width="0.3"/>
<path d="M125.455 76.0329C125.699 76.0257 125.935 76.1126 126.116 76.2757C126.202 76.3514 126.271 76.4448 126.317 76.5496C126.364 76.6543 126.387 76.7679 126.386 76.8825C126.386 76.9971 126.363 77.1104 126.316 77.2151C126.27 77.3197 126.201 77.4132 126.116 77.4894C125.934 77.6503 125.698 77.736 125.455 77.7292H124.328V74.9466H124.695V76.0056L125.455 76.0329ZM125.455 77.4014C125.6 77.4061 125.742 77.3563 125.852 77.2618C125.904 77.216 125.946 77.1595 125.975 77.0962C126.004 77.0329 126.018 76.9642 126.018 76.8947C126.018 76.8252 126.004 76.7565 125.975 76.6932C125.946 76.6299 125.904 76.5734 125.852 76.5275C125.742 76.433 125.6 76.3833 125.455 76.388H124.695V77.4014H125.455Z" fill="white" stroke="white" stroke-width="0.3"/>
<path d="M129.498 74.9739V75.332H128.086V77.7595H127.719V74.9769L129.498 74.9739Z" fill="white" stroke="white" stroke-width="0.3"/>
<path d="M132.941 77.4045C132.663 77.673 132.291 77.823 131.905 77.823C131.518 77.823 131.147 77.673 130.868 77.4045C130.596 77.1276 130.444 76.7549 130.444 76.3667C130.444 75.9785 130.596 75.6058 130.868 75.3289C131.146 75.0583 131.517 74.9069 131.905 74.9069C132.292 74.9069 132.664 75.0583 132.941 75.3289C133.215 75.6047 133.369 75.9778 133.369 76.3667C133.369 76.7556 133.215 77.1287 132.941 77.4045ZM131.123 77.1496C131.331 77.3538 131.61 77.4682 131.902 77.4682C132.193 77.4682 132.473 77.3538 132.681 77.1496C132.885 76.9404 132.999 76.6593 132.999 76.3667C132.999 76.0741 132.885 75.793 132.681 75.5838C132.473 75.3796 132.193 75.2652 131.902 75.2652C131.61 75.2652 131.331 75.3796 131.123 75.5838C130.921 75.7941 130.808 76.0748 130.808 76.3667C130.808 76.6587 130.921 76.9392 131.123 77.1496Z" fill="white" stroke="white" stroke-width="0.3"/>
<path d="M136.648 74.9739V75.332H135.663V77.7595H135.296V75.332H134.311V74.9739H136.648Z" fill="white" stroke="white" stroke-width="0.3"/>
<path d="M139 76.0329C139.242 76.0259 139.478 76.1128 139.657 76.2757C139.744 76.351 139.813 76.4443 139.859 76.5492C139.906 76.654 139.929 76.7678 139.927 76.8825C139.928 76.9972 139.905 77.1108 139.859 77.2155C139.812 77.3203 139.743 77.4137 139.657 77.4894C139.476 77.6501 139.241 77.7358 139 77.7292H137.872V74.9466H138.239V76.0056L139 76.0329ZM139 77.4014C139.145 77.4055 139.286 77.3558 139.397 77.2618C139.448 77.2155 139.489 77.1588 139.517 77.0956C139.545 77.0323 139.56 76.9639 139.56 76.8947C139.56 76.8255 139.545 76.757 139.517 76.6938C139.489 76.6305 139.448 76.5739 139.397 76.5275C139.286 76.4336 139.145 76.3838 139 76.388H138.239V77.4014H139ZM140.318 74.9739H140.685V77.7565H140.318V74.9739Z" fill="white" stroke="white" stroke-width="0.3"/>
</svg>
