<svg width="39" height="41" viewBox="0 0 39 41" fill="none" xmlns="http://www.w3.org/2000/svg">
<path d="M10.3511 19.7981H5.52304C5.33692 19.7981 5.15843 19.872 5.02683 20.0036C4.89522 20.1352 4.82129 20.3137 4.82129 20.4998V25.3279C4.82129 25.514 4.89522 25.6925 5.02683 25.8241C5.15843 25.9557 5.33692 26.0296 5.52304 26.0296H10.3511C10.5372 26.0296 10.7157 25.9557 10.8473 25.8241C10.9789 25.6925 11.0528 25.514 11.0528 25.3279V20.4998C11.0528 20.3137 10.9789 20.1352 10.8473 20.0036C10.7157 19.872 10.5372 19.7981 10.3511 19.7981ZM9.64932 24.6261H6.22479V21.2016H9.64932V24.6261Z" fill="#76BB20"/>
<path d="M33.8945 33.7138C35.5506 31.005 37.3541 27.4612 37.3541 25.4402C37.353 23.5818 36.6152 21.7996 35.3024 20.4842C33.9897 19.1688 32.209 18.4275 30.3506 18.4227V12.2262C30.3506 12.2192 30.3436 12.2122 30.3436 12.1982C30.3443 12.116 30.3275 12.0347 30.2945 11.9596V11.9525L27.6349 5.46838C27.5176 5.21336 27.3281 4.99833 27.0899 4.8499C26.8517 4.70147 26.5751 4.62616 26.2945 4.6333H26.2173V1.20175C26.2173 1.01563 26.1434 0.837141 26.0118 0.705537C25.8802 0.573934 25.7017 0.5 25.5156 0.5H15.8665C15.6804 0.5 15.5019 0.573934 15.3703 0.705537C15.2387 0.837141 15.1648 1.01563 15.1648 1.20175V4.6333H5.43154C5.15112 4.62707 4.87496 4.70274 4.6369 4.85107C4.39883 4.99939 4.20919 5.21392 4.0912 5.46838L1.43157 11.9525V11.9596C1.40184 12.0357 1.38523 12.1164 1.38244 12.1982C1.38244 12.2122 1.37543 12.2192 1.37543 12.2262V33.5804C1.00976 33.5854 0.660678 33.7338 0.403403 33.9937C0.146128 34.2536 0.0012546 34.6042 0 34.9699V38.4225C0.000926353 38.7907 0.147613 39.1436 0.407987 39.404C0.668362 39.6644 1.02124 39.811 1.38946 39.812H25.5928C27.1306 40.278 28.7298 40.5098 30.3366 40.4997C34.1611 40.4997 38.2172 39.2506 38.2172 36.9278C38.2172 35.4822 36.5892 34.2892 33.8945 33.7138ZM30.3366 19.8262C31.8249 19.8282 33.2517 20.4203 34.304 21.4727C35.3564 22.5251 35.9485 23.9519 35.9506 25.4402C35.9506 27.2507 33.9296 31.1173 32.1682 33.8541C32.1663 33.8541 32.1645 33.8549 32.1632 33.8562C32.1619 33.8575 32.1611 33.8593 32.1611 33.8611C31.6208 34.6962 31.1085 35.4331 30.6875 35.9664C30.6453 36.0189 30.5919 36.0613 30.5312 36.0905C30.4705 36.1196 30.404 36.1347 30.3366 36.1347C30.2692 36.1347 30.2027 36.1196 30.142 36.0905C30.0813 36.0613 30.0279 36.0189 29.9857 35.9664C29.5647 35.4331 29.0524 34.6962 28.5121 33.8611V33.8541C26.7507 31.1173 24.7226 27.2507 24.7226 25.4402C24.7247 23.9519 25.3168 22.5251 26.3692 21.4727C27.4215 20.4203 28.8483 19.8282 30.3366 19.8262ZM23.3682 24.6261H22.077V21.2016H24.7577C23.9943 22.197 23.5142 23.3802 23.3682 24.6261ZM28.9471 15.0122C28.9453 15.5507 28.7301 16.0665 28.3486 16.4466C27.9672 16.8268 27.4506 17.0402 26.9121 17.0402H26.87C26.3314 17.0402 25.8149 16.8268 25.4334 16.4466C25.052 16.0665 24.8367 15.5507 24.8349 15.0122V12.928H28.9471V15.0122ZM26.2945 6.0368C26.3226 6.0368 26.3437 6.04382 26.3437 6.02978L28.6033 11.5245H24.6595L23.0103 6.0368H26.2945ZM19.3191 12.928H23.4314V15.0122C23.4295 15.5495 23.2153 16.0642 22.8353 16.4442C22.4554 16.8241 21.9406 17.0384 21.4033 17.0402H21.3542C20.8157 17.0402 20.2991 16.8268 19.9177 16.4466C19.5362 16.0665 19.321 15.5507 19.3191 15.0122V12.928ZM19.256 11.5245L18.7086 6.0368H21.5437L23.1928 11.5245H19.256ZM16.5683 1.9035H24.8138V4.6333H16.5683V1.9035ZM14.428 6.0368H17.2981L17.8455 11.5245H13.8806L14.428 6.0368ZM13.8104 12.928H17.9156V15.0122C17.9155 15.55 17.7017 16.0657 17.3214 16.446C16.9411 16.8263 16.4254 17.04 15.8876 17.0402H15.8385C15.3012 17.0384 14.7864 16.8241 14.4065 16.4442C14.0265 16.0642 13.8123 15.5495 13.8104 15.0122V12.928ZM13.0174 6.0368L12.4701 11.5245H8.53327L10.1824 6.0368H13.0174ZM12.4069 12.928V15.0122C12.4051 15.5507 12.1898 16.0665 11.8084 16.4466C11.4269 16.8268 10.9104 17.0402 10.3718 17.0402H10.3227C9.78542 17.0384 9.27065 16.8241 8.89072 16.4442C8.51078 16.0642 8.29652 15.5495 8.29467 15.0122V12.928H12.4069ZM5.35434 6.05785C5.37707 6.04256 5.40419 6.03516 5.43154 6.0368H8.71572L7.07363 11.5245H3.12278L5.35434 6.05785ZM2.77892 12.928H6.89117V15.0122C6.88932 15.5495 6.67506 16.0642 6.29513 16.4442C5.91519 16.8241 5.40042 17.0384 4.86312 17.0402H4.814C4.27548 17.0402 3.75891 16.8268 3.37746 16.4466C2.99601 16.0665 2.78078 15.5507 2.77892 15.0122V12.928ZM2.77892 17.763C3.36691 18.202 4.08026 18.4406 4.814 18.4437H4.86312C5.39361 18.4418 5.91639 18.3165 6.39015 18.0778C6.8639 17.8391 7.27567 17.4935 7.59292 17.0683C7.91017 17.4935 8.32194 17.8391 8.7957 18.0778C9.26946 18.3165 9.79223 18.4418 10.3227 18.4437H10.3718C10.9033 18.4415 11.427 18.3162 11.9019 18.0776C12.3767 17.8389 12.7898 17.4935 13.1087 17.0683C13.4259 17.4935 13.8377 17.8391 14.3114 18.0778C14.7852 18.3165 15.308 18.4418 15.8385 18.4437H15.8876C16.4182 18.4425 16.9413 18.3176 17.4151 18.0788C17.889 17.84 18.3007 17.494 18.6174 17.0683C18.9363 17.4935 19.3493 17.8389 19.8242 18.0776C20.2991 18.3162 20.8228 18.4415 21.3542 18.4437H21.4033C21.9338 18.4418 22.4566 18.3165 22.9304 18.0778C23.4041 17.8391 23.8159 17.4935 24.1331 17.0683C24.452 17.4935 24.8651 17.8389 25.3399 18.0776C25.8148 18.3162 26.3385 18.4415 26.87 18.4437H26.9121C27.646 18.4417 28.3597 18.203 28.9471 17.763V18.556C27.9444 18.7652 26.9988 19.1889 26.1752 19.7981H21.3753C21.1892 19.7981 21.0107 19.872 20.8791 20.0036C20.7475 20.1352 20.6735 20.3137 20.6735 20.4998V25.3279C20.6735 25.514 20.7475 25.6925 20.8791 25.8241C21.0107 25.9557 21.1892 26.0296 21.3753 26.0296H23.3612C23.6419 28.0647 25.2138 31.1384 26.6945 33.5804H19.3191V27.37C19.3191 26.4533 18.955 25.5743 18.3069 24.9261C17.6587 24.278 16.7796 23.9138 15.863 23.9138C14.9464 23.9138 14.0673 24.278 13.4192 24.9261C12.771 25.5743 12.4069 26.4533 12.4069 27.37V33.5804H2.77892V17.763ZM17.9156 27.37V33.5804H13.8104V27.37C13.8104 26.8256 14.0267 26.3035 14.4116 25.9185C14.7966 25.5336 15.3186 25.3173 15.863 25.3173C16.4074 25.3173 16.9295 25.5336 17.3144 25.9185C17.6994 26.3035 17.9156 26.8256 17.9156 27.37ZM22.456 36.9278C22.47 37.4866 22.7016 38.0179 23.1016 38.4085L1.4035 38.4225L1.38946 34.9839H23.6209C23.2849 35.1906 23.0036 35.4751 22.8008 35.8135C22.5981 36.1518 22.4798 36.534 22.456 36.9278ZM30.3366 39.0962C26.3858 39.0962 23.8595 37.812 23.8595 36.9278C23.8595 36.3664 25.0314 35.4401 27.5857 34.991C28.091 35.7629 28.5542 36.4085 28.891 36.8366C29.0632 37.0552 29.2828 37.232 29.5332 37.3535C29.7836 37.4751 30.0583 37.5382 30.3366 37.5382C30.6149 37.5382 30.8896 37.4751 31.14 37.3535C31.3904 37.232 31.61 37.0552 31.7822 36.8366C32.119 36.4085 32.5822 35.7629 33.0875 34.991C35.6418 35.4401 36.8137 36.3664 36.8137 36.9278C36.8137 37.812 34.2945 39.0962 30.3366 39.0962Z" fill="#76BB20"/>
<path d="M30.3366 21.8682C29.6301 21.8682 28.9395 22.0777 28.3521 22.4701C27.7647 22.8626 27.3069 23.4205 27.0365 24.0732C26.7662 24.7258 26.6955 25.444 26.8333 26.1369C26.9711 26.8298 27.3113 27.4662 27.8108 27.9658C28.3104 28.4653 28.9468 28.8055 29.6397 28.9433C30.3326 29.0812 31.0508 29.0104 31.7035 28.7401C32.3561 28.4697 32.914 28.0119 33.3065 27.4245C33.699 26.8371 33.9085 26.1465 33.9085 25.4401C33.9083 24.4928 33.5319 23.5844 32.8621 22.9146C32.1922 22.2447 31.2838 21.8684 30.3366 21.8682ZM30.3366 27.6085C29.9077 27.6085 29.4884 27.4813 29.1319 27.243C28.7753 27.0048 28.4973 26.6661 28.3332 26.2699C28.1691 25.8737 28.1261 25.4377 28.2098 25.017C28.2935 24.5964 28.5 24.21 28.8033 23.9068C29.1065 23.6035 29.4929 23.397 29.9135 23.3133C30.3341 23.2297 30.7701 23.2726 31.1664 23.4367C31.5626 23.6008 31.9012 23.8788 32.1395 24.2354C32.3778 24.592 32.505 25.0112 32.505 25.4401C32.5031 26.0146 32.2741 26.5651 31.8678 26.9713C31.4615 27.3776 30.9111 27.6066 30.3366 27.6085Z" fill="#76BB20"/>
</svg>
