<svg width="40" height="35" viewBox="0 0 40 35" fill="none" xmlns="http://www.w3.org/2000/svg">
<path d="M29.2133 10.8474H12.2641L9.27885 6.68207C9.14959 6.5005 8.97898 6.35231 8.78112 6.24971C8.58325 6.14712 8.36382 6.09307 8.14095 6.09204H2.31093C2.05882 6.09235 1.8114 6.16033 1.59452 6.28889C1.37765 6.41745 1.19926 6.60187 1.07797 6.8229C0.956695 7.04393 0.896973 7.29347 0.905044 7.54546C0.913115 7.79745 0.988683 8.04265 1.12386 8.25547L3.22407 11.5217L0.280965 15.4411C0.12443 15.6498 0.0291067 15.898 0.00567711 16.1579C-0.0177525 16.4177 0.0316371 16.6789 0.148312 16.9123C0.264986 17.1456 0.444336 17.3419 0.666264 17.479C0.888193 17.6162 1.14393 17.6889 1.40482 17.6889H2.37415L2.3601 33.2683C2.3601 33.6409 2.50811 33.9982 2.77157 34.2617C3.03502 34.5251 3.39234 34.6732 3.76492 34.6732H29.2133C29.5866 34.6735 29.9449 34.5259 30.2095 34.2625C30.4742 33.9992 30.6236 33.6417 30.6251 33.2683V12.2522C30.6236 11.8788 30.4742 11.5213 30.2095 11.258C29.9449 10.9947 29.5866 10.847 29.2133 10.8474ZM2.31093 7.49686H8.14095L10.5362 10.8474H4.46031L2.31093 7.49686ZM1.40482 16.284L4.43222 12.2522H22.3929L19.3655 16.284H1.40482ZM23.0953 33.2683H3.76492L3.77897 17.6889H19.3655C19.5836 17.6889 19.7987 17.6381 19.9937 17.5405C20.1888 17.443 20.3585 17.3014 20.4893 17.1269L23.0953 13.657V33.2683ZM29.2133 33.2683H24.5001V12.2522H29.2203L29.2133 33.2683Z" fill="#76BB20"/>
<path d="M39.9594 10.8473C39.7119 8.07912 38.5042 5.48464 36.5454 3.51304C34.5866 1.54144 32.0001 0.316826 29.2336 0.0512286C27.5424 -0.106998 25.8369 0.102338 24.2341 0.664889C22.6313 1.22744 21.1691 2.1299 19.9477 3.31042L18.5991 2.56586C18.4926 2.50657 18.3724 2.47605 18.2505 2.47728C18.1286 2.47851 18.0091 2.51146 17.9037 2.57288C17.7992 2.63429 17.7121 2.72136 17.6507 2.82584C17.5892 2.93032 17.5554 3.04875 17.5525 3.16993L17.5314 4.2376C17.5174 4.89084 17.4963 5.54408 17.5033 6.19733C17.5033 6.60473 17.5104 7.01915 17.5174 7.43357L17.5244 8.05169C17.5279 8.09845 17.5279 8.14541 17.5244 8.19217C17.5171 8.37528 17.5265 8.55866 17.5525 8.74006C17.5729 8.83397 17.6121 8.9228 17.6676 9.00124C17.7231 9.07969 17.7939 9.14614 17.8756 9.19662C17.9571 9.24861 18.0489 9.28242 18.1447 9.29575C18.2404 9.30908 18.3379 9.30163 18.4305 9.27389L24.2886 7.6162C24.4093 7.58087 24.5182 7.51383 24.6041 7.42206C24.6899 7.3303 24.7496 7.21717 24.7769 7.09448C24.8042 6.97179 24.798 6.84403 24.7591 6.72453C24.7201 6.60503 24.6499 6.49816 24.5556 6.41508L23.5441 5.52301C25.0644 4.39389 26.9471 3.86383 28.8332 4.0339C30.6803 4.19808 32.4083 5.01519 33.7072 6.33856C35.0061 7.66193 35.7909 9.40492 35.9206 11.2547C36.0084 12.483 35.7997 13.7145 35.3119 14.8453C34.8242 15.976 34.0717 16.973 33.118 17.752C32.9265 17.9098 32.7683 18.1041 32.6525 18.3235C32.5368 18.543 32.4658 18.7833 32.4436 19.0304C32.4013 19.5505 32.5624 20.0667 32.8932 20.4703L33.0477 20.6459C33.2302 20.8657 33.4589 21.0426 33.7175 21.164C33.976 21.2854 34.2582 21.3483 34.5438 21.3483C34.9881 21.3469 35.4179 21.1904 35.759 20.9058C37.2125 19.6874 38.3526 18.138 39.0835 16.3878C39.8144 14.6376 40.1147 12.7376 39.9594 10.8473ZM34.8529 19.8311C34.7434 19.9145 34.6056 19.9516 34.469 19.9345C34.3325 19.9175 34.208 19.8476 34.1224 19.7398L33.9749 19.5642C33.9276 19.5096 33.892 19.4459 33.8703 19.3771C33.8486 19.3082 33.8411 19.2357 33.8485 19.1638C33.8525 19.1002 33.8695 19.0381 33.8985 18.9813C33.9275 18.9245 33.9678 18.8743 34.017 18.8337C35.1421 17.9137 36.0294 16.7365 36.604 15.4015C37.1786 14.0665 37.4236 12.6129 37.3184 11.1634C37.1666 8.97841 36.241 6.91909 34.7078 5.35499C33.1746 3.7909 31.1341 2.82444 28.9527 2.62908C28.6857 2.60801 28.4188 2.60098 28.1519 2.60098C25.8687 2.59162 23.6661 3.44455 21.9847 4.98918C21.911 5.0552 21.8527 5.1366 21.8138 5.22762C21.775 5.31864 21.7566 5.41708 21.76 5.51599C21.7599 5.61472 21.7813 5.71229 21.8225 5.80201C21.8637 5.89173 21.9239 5.97147 21.9988 6.03577L22.6661 6.6258L18.9222 7.67941V7.40548C18.9152 7.0051 18.9082 6.5977 18.9082 6.1903C18.9011 5.5792 18.9152 4.96811 18.9363 4.35701L19.73 4.79953C19.8664 4.87465 20.0239 4.90231 20.1778 4.87815C20.3316 4.85399 20.4731 4.77939 20.5799 4.66607C21.5559 3.63253 22.7328 2.80939 24.0385 2.24719C25.3441 1.68499 26.7509 1.39559 28.1724 1.39677C29.5939 1.39795 31.0002 1.68968 32.3049 2.25405C33.6096 2.81842 34.7852 3.64351 35.7595 4.67867C36.7337 5.71383 37.4861 6.9372 37.9705 8.27368C38.4548 9.61016 38.6608 11.0315 38.5759 12.4505C38.491 13.8695 38.117 15.2562 37.4768 16.5254C36.8365 17.7946 35.9436 18.9195 34.8529 19.8311Z" fill="#76BB20"/>
</svg>
