<svg width="40" height="36" viewBox="0 0 40 36" fill="none" xmlns="http://www.w3.org/2000/svg">
<path d="M39.8442 25.251C39.6477 24.7035 39.5775 24.5 39.5424 24.4158C39.3452 23.8874 38.9839 23.4361 38.5115 23.1279C38.0392 22.8198 37.4806 22.6709 36.9175 22.7033C36.8122 22.7033 36.7069 22.7103 36.5947 22.7173C35.7244 22.7875 34.8681 22.9349 34.0399 23.0682C33.331 23.1875 32.5941 23.3069 31.8782 23.3841C30.2405 23.5708 28.592 23.6458 26.9442 23.6087C25.5559 23.567 24.1711 23.4475 22.7962 23.2507C22.8567 22.7634 22.7764 22.269 22.5646 21.8259C22.39 21.4686 22.1404 21.1532 21.8327 20.9013C21.525 20.6493 21.1666 20.4668 20.7819 20.3661L14.1283 18.5553C13.0777 18.2748 11.9747 18.2532 10.9138 18.4921L8.05026 19.1308V16.7445C8.05026 16.3722 7.90237 16.0152 7.63913 15.752C7.37588 15.4887 7.01884 15.3408 6.64655 15.3408H1.40371C1.03142 15.3408 0.674383 15.4887 0.411136 15.752C0.14789 16.0152 0 16.3722 0 16.7445V34.2909C0.00111084 34.6628 0.149358 35.0192 0.412364 35.2822C0.675369 35.5452 1.03176 35.6935 1.40371 35.6946H6.64655C7.0185 35.6935 7.37489 35.5452 7.6379 35.2822C7.9009 35.0192 8.04915 34.6628 8.05026 34.2909V32.452L19.6519 34.5576C20.1846 34.6533 20.7249 34.7003 21.2662 34.6979C22.3952 34.6985 23.5142 34.4866 24.5649 34.0733L38.2651 28.648C38.9219 28.4029 39.4559 27.9091 39.7514 27.2734C40.047 26.6377 40.0803 25.9111 39.8442 25.251ZM6.64655 34.2909H1.40371V16.7445H6.64655V34.2909ZM37.7457 27.3425L24.0525 32.7678C22.7349 33.2877 21.2981 33.4287 19.9046 33.1749L8.05026 31.0272V20.5696L11.2226 19.8608C12.0613 19.6734 12.9326 19.6902 13.7634 19.9099L20.4099 21.7207C20.6016 21.768 20.7807 21.8566 20.9346 21.9802C21.0886 22.1038 21.2137 22.2596 21.3013 22.4366C21.3774 22.5936 21.4187 22.7652 21.4223 22.9396C21.426 23.114 21.3918 23.2872 21.3223 23.4472C21.1999 23.7139 20.9978 23.936 20.7439 24.0831C20.49 24.2301 20.1968 24.2949 19.9046 24.2684L14.1353 23.0752C13.9539 23.0378 13.765 23.0736 13.6099 23.1748C13.4548 23.2761 13.3459 23.4345 13.3071 23.6157C13.2695 23.798 13.3051 23.9877 13.4063 24.144C13.5074 24.3003 13.6659 24.4105 13.8476 24.4509L19.6589 25.6511C19.6818 25.6569 19.7055 25.6592 19.7291 25.6581C19.8222 25.6696 19.916 25.6743 20.0098 25.6721C20.4414 25.6724 20.8674 25.5754 21.2563 25.3882C21.6451 25.2011 21.9868 24.9287 22.2558 24.5913C23.7945 24.8261 25.3462 24.9667 26.9021 25.0124C28.6132 25.0509 30.3249 24.9735 32.0256 24.7808C32.7836 24.6965 33.5416 24.5772 34.2715 24.4509C35.0716 24.3175 35.8998 24.1842 36.714 24.114C37.0165 24.0547 37.3302 24.0994 37.6041 24.2408C37.878 24.3822 38.0961 24.6121 38.2229 24.893V24.9001L38.5247 25.7283C38.6339 26.0457 38.6133 26.3934 38.4674 26.6957C38.3215 26.998 38.0621 27.2305 37.7457 27.3425Z" fill="#76BB20"/>
<path d="M36.4396 9.97167L34.9377 8.05561L35.2816 5.64825C35.3018 5.49264 35.2701 5.3347 35.1914 5.19893C35.1128 5.06316 34.9915 4.95712 34.8464 4.89727L32.5935 3.9989L31.6881 1.73893C31.6289 1.59336 31.523 1.4716 31.3871 1.39282C31.2511 1.31404 31.0928 1.28272 30.9371 1.30378L28.5298 1.64769L26.6207 0.152738C26.4972 0.0538694 26.3438 0 26.1856 0C26.0274 0 25.8739 0.0538694 25.7504 0.152738L23.8414 1.64769L21.434 1.30378C21.2783 1.28272 21.12 1.31404 20.984 1.39282C20.8481 1.4716 20.7422 1.59336 20.683 1.73893L19.7776 3.9989L17.5247 4.89727C17.3796 4.95712 17.2584 5.06316 17.1797 5.19893C17.101 5.3347 17.0693 5.49264 17.0895 5.64825L17.4335 8.05561L15.9315 9.97167C15.836 10.0953 15.7842 10.2471 15.7842 10.4033C15.7842 10.5595 15.836 10.7113 15.9315 10.835L17.4335 12.751L17.0895 15.1514C17.0661 15.3073 17.0964 15.4667 17.1754 15.6031C17.2545 15.7396 17.3777 15.8451 17.5247 15.9023L19.7776 16.8077L20.683 19.0607C20.7413 19.2069 20.847 19.3293 20.9832 19.4083C21.1194 19.4872 21.2782 19.518 21.434 19.4958L23.8414 19.1519L25.7504 20.6539C25.8751 20.75 26.0282 20.8019 26.1856 20.8013C26.3428 20.8007 26.4955 20.749 26.6207 20.6539L28.5298 19.1519L30.9371 19.4958C31.0921 19.5185 31.2503 19.4887 31.3863 19.4111C31.5224 19.3335 31.6287 19.2126 31.6881 19.0677L32.5935 16.8077L34.8464 15.9023C34.9927 15.8441 35.1151 15.7384 35.194 15.6022C35.2729 15.466 35.3038 15.3072 35.2816 15.1514L34.9377 12.751L36.4396 10.835C36.5351 10.7113 36.587 10.5595 36.587 10.4033C36.587 10.2471 36.5351 10.0953 36.4396 9.97167ZM33.6463 12.1193C33.5875 12.1938 33.5447 12.2797 33.5205 12.3714C33.4964 12.4632 33.4914 12.559 33.5059 12.6528L33.8147 14.8074L31.7864 15.6146C31.6984 15.6499 31.6186 15.703 31.5522 15.7707C31.4858 15.8383 31.434 15.919 31.4003 16.0076L30.5862 18.029L28.4315 17.7201C28.3372 17.7073 28.2413 17.7137 28.1497 17.739C28.058 17.7644 27.9724 17.8081 27.8981 17.8675L26.1856 19.2081L24.473 17.8675C24.349 17.7694 24.196 17.7151 24.0379 17.7131C24.0028 17.7131 23.9677 17.7201 23.9396 17.7201L21.7779 18.029L20.9708 16.0076C20.9355 15.9188 20.8824 15.8381 20.8148 15.7705C20.7473 15.7029 20.6666 15.6499 20.5778 15.6146L18.5564 14.8074L18.8652 12.6528C18.878 12.559 18.8722 12.4636 18.8481 12.3721C18.8241 12.2805 18.7822 12.1947 18.7249 12.1193L17.3773 10.3998L18.7249 8.68728C18.7822 8.61195 18.8241 8.52607 18.8481 8.43455C18.8722 8.34302 18.878 8.24764 18.8652 8.15387L18.5564 5.99918L20.5778 5.18503C20.6664 5.15132 20.7471 5.09962 20.8147 5.03318C20.8823 4.96674 20.9355 4.88701 20.9708 4.79901L21.7779 2.77767L23.9396 3.07947C24.0334 3.09355 24.1291 3.08837 24.2208 3.06424C24.3125 3.0401 24.3983 2.99752 24.473 2.9391L26.1856 1.59154L27.8981 2.9391C27.9728 2.99752 28.0586 3.0401 28.1503 3.06424C28.242 3.08837 28.3377 3.09355 28.4315 3.07947L30.5862 2.77767L31.4003 4.79901C31.4353 4.88608 31.4875 4.96517 31.5538 5.03152C31.6202 5.09786 31.6993 5.15008 31.7864 5.18503L33.8147 5.99918L33.5059 8.15387C33.4914 8.24765 33.4964 8.34342 33.5205 8.4352C33.5447 8.52697 33.5875 8.61278 33.6463 8.68728L34.9938 10.3998L33.6463 12.1193Z" fill="#76BB20"/>
<path d="M22.6769 5.83789C22.2604 5.83789 21.8533 5.96138 21.5071 6.19274C21.1608 6.4241 20.8909 6.75295 20.7316 7.13769C20.5722 7.52243 20.5305 7.94579 20.6117 8.35423C20.693 8.76267 20.8935 9.13784 21.188 9.43231C21.4825 9.72678 21.8576 9.92731 22.2661 10.0086C22.6745 10.0898 23.0979 10.0481 23.4826 9.88874C23.8674 9.72937 24.1962 9.4595 24.4276 9.11324C24.6589 8.76698 24.7824 8.35989 24.7824 7.94345C24.7824 7.38502 24.5606 6.84946 24.1657 6.45459C23.7708 6.05973 23.2353 5.83789 22.6769 5.83789ZM22.6769 8.6453C22.538 8.6453 22.4023 8.60414 22.2869 8.52702C22.1715 8.4499 22.0815 8.34029 22.0284 8.21204C21.9753 8.08379 21.9614 7.94267 21.9885 7.80653C22.0156 7.67038 22.0824 7.54532 22.1806 7.44717C22.2787 7.34901 22.4038 7.28216 22.5399 7.25508C22.6761 7.228 22.8172 7.2419 22.9454 7.29502C23.0737 7.34814 23.1833 7.4381 23.2604 7.55352C23.3375 7.66894 23.3787 7.80464 23.3787 7.94345C23.3787 8.12959 23.3048 8.30811 23.1731 8.43974C23.0415 8.57136 22.863 8.6453 22.6769 8.6453Z" fill="#76BB20"/>
<path d="M29.6954 10.7507C29.279 10.7507 28.8719 10.8742 28.5256 11.1056C28.1794 11.3369 27.9095 11.6658 27.7501 12.0505C27.5908 12.4353 27.5491 12.8586 27.6303 13.2671C27.7115 13.6755 27.9121 14.0507 28.2065 14.3452C28.501 14.6396 28.8762 14.8402 29.2846 14.9214C29.6931 15.0026 30.1164 14.9609 30.5012 14.8016C30.8859 14.6422 31.2148 14.3723 31.4461 14.0261C31.6775 13.6798 31.801 13.2727 31.801 12.8563C31.801 12.2979 31.5791 11.7623 31.1843 11.3674C30.7894 10.9726 30.2538 10.7507 29.6954 10.7507ZM29.6954 13.5581C29.5566 13.5581 29.4209 13.517 29.3055 13.4399C29.1901 13.3627 29.1001 13.2531 29.047 13.1249C28.9939 12.9966 28.98 12.8555 29.007 12.7194C29.0341 12.5832 29.101 12.4582 29.1991 12.36C29.2973 12.2619 29.4223 12.195 29.5585 12.1679C29.6946 12.1408 29.8357 12.1547 29.964 12.2079C30.0922 12.261 30.2019 12.3509 30.279 12.4664C30.3561 12.5818 30.3973 12.7175 30.3973 12.8563C30.3973 13.0424 30.3233 13.221 30.1917 13.3526C30.0601 13.4842 29.8815 13.5581 29.6954 13.5581Z" fill="#76BB20"/>
<path d="M22.1545 14.0298C22.2161 14.0985 22.2907 14.1543 22.3739 14.194C22.4571 14.2338 22.5473 14.2568 22.6394 14.2617C22.7315 14.2666 22.8237 14.2533 22.9107 14.2225C22.9976 14.1918 23.0776 14.1442 23.1462 14.0825L30.1647 7.7658C30.3031 7.64127 30.3864 7.46686 30.3962 7.28094C30.406 7.09503 30.3416 6.91283 30.217 6.77443C30.0925 6.63603 29.9181 6.55277 29.7322 6.54297C29.5462 6.53316 29.3641 6.59761 29.2257 6.72214L22.2071 13.0388C22.0687 13.1633 21.9855 13.3376 21.9756 13.5234C21.9657 13.7093 22.0301 13.8914 22.1545 14.0298Z" fill="#76BB20"/>
</svg>
