<svg width="40" height="40" viewBox="0 0 40 40" fill="none" xmlns="http://www.w3.org/2000/svg">
<path d="M9.82444 3.91577C9.82029 4.19243 9.73446 4.46168 9.57774 4.6897C9.42102 4.91772 9.2004 5.09433 8.9436 5.19734C8.68681 5.30035 8.40529 5.32515 8.13444 5.26865C7.86359 5.21214 7.61548 5.07683 7.4213 4.87973C7.22711 4.68264 7.09552 4.43254 7.04305 4.16088C6.99058 3.88922 7.01957 3.6081 7.12639 3.35287C7.23321 3.09764 7.41309 2.87967 7.64341 2.72636C7.87374 2.57305 8.14425 2.49124 8.42093 2.49121C8.79561 2.4951 9.15352 2.6471 9.4165 2.91402C9.67947 3.18094 9.82613 3.54108 9.82444 3.91577Z" fill="#76BB20"/>
<path d="M5.6135 3.91577C5.60935 4.19243 5.52352 4.46168 5.3668 4.6897C5.21008 4.91772 4.98946 5.09433 4.73266 5.19734C4.47587 5.30035 4.19436 5.32515 3.9235 5.26865C3.65265 5.21214 3.40454 5.07683 3.21036 4.87973C3.01618 4.68264 2.88458 4.43254 2.83211 4.16088C2.77964 3.88922 2.80864 3.6081 2.91545 3.35287C3.02227 3.09764 3.20215 2.87967 3.43248 2.72636C3.6628 2.57305 3.93331 2.49124 4.20999 2.49121C4.58467 2.4951 4.94259 2.6471 5.20556 2.91402C5.46853 3.18094 5.61519 3.54108 5.6135 3.91577Z" fill="#76BB20"/>
<path d="M14.0354 3.91577C14.0312 4.19243 13.9454 4.46168 13.7887 4.6897C13.632 4.91772 13.4113 5.09433 13.1545 5.19734C12.8977 5.30035 12.6162 5.32515 12.3454 5.26865C12.0745 5.21214 11.8264 5.07683 11.6322 4.87973C11.4381 4.68264 11.3065 4.43254 11.254 4.16088C11.2015 3.88922 11.2305 3.6081 11.3373 3.35287C11.4441 3.09764 11.624 2.87967 11.8544 2.72636C12.0847 2.57305 12.3552 2.49124 12.6319 2.49121C13.0065 2.4951 13.3645 2.6471 13.6274 2.91402C13.8904 3.18094 14.0371 3.54108 14.0354 3.91577Z" fill="#76BB20"/>
<path d="M38.5965 0H1.40351C1.03162 0.00111069 0.675274 0.149337 0.412305 0.412305C0.149337 0.675274 0.00111069 1.03162 0 1.40351V38.5965C0.00111069 38.9684 0.149337 39.3247 0.412305 39.5877C0.675274 39.8507 1.03162 39.9989 1.40351 40H38.5965C38.9684 39.9989 39.3247 39.8507 39.5877 39.5877C39.8507 39.3247 39.9989 38.9684 40 38.5965V1.40351C39.9989 1.03162 39.8507 0.675274 39.5877 0.412305C39.3247 0.149337 38.9684 0.00111069 38.5965 0ZM38.5965 38.5965H1.40351V7.8386H38.5965V38.5965ZM38.5965 6.43509H1.40351V1.40351H38.5965V6.43509Z" fill="#76BB20"/>
<path d="M36.99 4.49828C37.1198 4.63068 37.1919 4.80907 37.1906 4.99446C37.1893 5.17986 37.1147 5.3572 36.983 5.48775C36.9192 5.55323 36.8428 5.60503 36.7583 5.64002C36.6739 5.67501 36.5832 5.69244 36.4918 5.69126C36.3988 5.69183 36.3067 5.67346 36.221 5.63727C36.1354 5.60107 36.058 5.54781 35.9936 5.48073L35.4392 4.91933L34.8848 5.48073C34.8204 5.54781 34.743 5.60107 34.6573 5.63727C34.5717 5.67346 34.4795 5.69183 34.3865 5.69126C34.2951 5.69244 34.2044 5.67501 34.12 5.64002C34.0355 5.60503 33.9591 5.55323 33.8953 5.48775C33.7637 5.3572 33.689 5.17986 33.6877 4.99446C33.6864 4.80907 33.7585 4.63068 33.8883 4.49828L34.4567 3.91582L33.8883 3.34038C33.7577 3.20696 33.6852 3.02735 33.6865 2.84069C33.6879 2.65403 33.7629 2.47546 33.8953 2.34389C34.0277 2.21412 34.2061 2.14201 34.3915 2.14333C34.5769 2.14464 34.7542 2.21927 34.8848 2.35091L35.4392 2.91933L35.9936 2.35091C36.1241 2.21927 36.3014 2.14464 36.4868 2.14333C36.6722 2.14201 36.8506 2.21412 36.983 2.34389C37.1154 2.47546 37.1905 2.65403 37.1918 2.84069C37.1931 3.02735 37.1206 3.20696 36.99 3.34038L36.4216 3.91582L36.99 4.49828Z" fill="#76BB20"/>
<path d="M32.2808 3.91587C32.2808 4.10198 32.2069 4.28048 32.0753 4.41208C31.9437 4.54369 31.7652 4.61762 31.5791 4.61762H28.7721C28.586 4.61762 28.4075 4.54369 28.2759 4.41208C28.1442 4.28048 28.0703 4.10198 28.0703 3.91587C28.0703 3.72975 28.1442 3.55126 28.2759 3.41965C28.4075 3.28805 28.586 3.21411 28.7721 3.21411H31.5791C31.7652 3.21411 31.9437 3.28805 32.0753 3.41965C32.2069 3.55126 32.2808 3.72975 32.2808 3.91587Z" fill="#76BB20"/>
<path d="M11.6849 27.6422L14.2323 26.1755H26.6323C27.002 26.1736 27.3642 26.0706 27.6796 25.8776C27.995 25.6846 28.2517 25.4091 28.4217 25.0808L32.4007 17.565C32.5858 17.2107 32.6693 16.8122 32.6421 16.4134C32.6148 16.0146 32.4779 15.6312 32.2463 15.3054L31.741 14.5896C31.5543 14.3274 31.3082 14.1132 31.0228 13.9644C30.7374 13.8155 30.4208 13.7364 30.0989 13.7334H30.0919L13.5516 13.7755L13.4463 12.6948C13.3988 12.1613 13.155 11.6643 12.7623 11.3001C12.3695 10.9358 11.8556 10.7302 11.32 10.7229H7.35507C7.16896 10.7229 6.99046 10.7968 6.85886 10.9284C6.72726 11.06 6.65332 11.2385 6.65332 11.4247C6.65332 11.6108 6.72726 11.7893 6.85886 11.9209C6.99046 12.0525 7.16896 12.1264 7.35507 12.1264H11.32C11.5085 12.1347 11.6873 12.2124 11.822 12.3445C11.9567 12.4766 12.0379 12.6539 12.0498 12.8422L13.2989 25.0948L10.934 26.4633C10.6418 26.669 10.4036 26.9424 10.2399 27.2601C10.0761 27.5778 9.99166 27.9304 9.99367 28.2878V28.4843C9.98841 29.0329 10.1898 29.5634 10.5577 29.9704C10.9257 30.3773 11.4333 30.6309 11.9796 30.6808C11.6212 31.2191 11.4307 31.8517 11.4323 32.4983C11.4169 32.9139 11.4855 33.3283 11.634 33.7167C11.7824 34.1051 12.0076 34.4596 12.2962 34.759C12.5848 35.0584 12.9307 35.2966 13.3134 35.4593C13.6961 35.6219 14.1077 35.7058 14.5235 35.7058C14.9393 35.7058 15.3509 35.6219 15.7336 35.4593C16.1163 35.2966 16.4622 35.0584 16.7508 34.759C17.0394 34.4596 17.2646 34.1051 17.413 33.7167C17.5615 33.3283 17.6301 32.9139 17.6147 32.4983C17.6143 31.8573 17.4265 31.2305 17.0744 30.6948H23.4393C23.084 31.229 22.8958 31.8568 22.8989 32.4983C22.8836 32.9139 22.9522 33.3283 23.1006 33.7167C23.2491 34.1051 23.4743 34.4596 23.7629 34.759C24.0514 35.0584 24.3974 35.2966 24.7801 35.4593C25.1628 35.6219 25.5743 35.7058 25.9902 35.7058C26.406 35.7058 26.8176 35.6219 27.2002 35.4593C27.5829 35.2966 27.9289 35.0584 28.2175 34.759C28.506 34.4596 28.7313 34.1051 28.8797 33.7167C29.0281 33.3283 29.0967 32.9139 29.0814 32.4983C29.081 31.8573 28.8932 31.2305 28.541 30.6948H29.8112C29.9973 30.6948 30.1758 30.6209 30.3074 30.4893C30.439 30.3577 30.513 30.1792 30.513 29.9931C30.513 29.807 30.439 29.6285 30.3074 29.4969C30.1758 29.3653 29.9973 29.2913 29.8112 29.2913H12.134C11.9297 29.281 11.7377 29.1904 11.5997 29.0393C11.4617 28.8882 11.389 28.6887 11.3972 28.4843V28.2878C11.396 28.1659 11.4211 28.0451 11.4707 27.9337C11.5204 27.8223 11.5934 27.7229 11.6849 27.6422ZM27.1867 24.4211C27.1343 24.5241 27.0552 24.611 26.9577 24.6727C26.8601 24.7345 26.7477 24.7688 26.6323 24.772H14.6744L13.9516 17.6562L30.7656 17.6492L27.1867 24.4211ZM30.0919 15.1369H30.0989C30.1973 15.1379 30.294 15.1627 30.3808 15.2092C30.4675 15.2556 30.5418 15.3223 30.5972 15.4036L31.1095 16.1194C31.1305 16.1545 31.1516 16.1966 31.1726 16.2387L13.8042 16.2527L13.6989 15.179L30.0919 15.1369ZM25.9867 30.6948C26.3495 30.6693 26.7117 30.7537 27.026 30.9369C27.3402 31.1201 27.592 31.3938 27.7486 31.7221C27.9051 32.0505 27.9592 32.4184 27.9037 32.7779C27.8482 33.1374 27.6857 33.4719 27.4374 33.7378C27.1891 34.0037 26.8666 34.1886 26.5117 34.2686C26.1568 34.3485 25.786 34.3197 25.4477 34.186C25.1094 34.0522 24.8192 33.8197 24.615 33.5187C24.4107 33.2177 24.3018 32.8621 24.3024 32.4983C24.288 32.0362 24.4571 31.5872 24.7726 31.2493C25.0882 30.9114 25.5246 30.712 25.9867 30.6948ZM14.52 30.6948C14.8829 30.6693 15.245 30.7537 15.5593 30.9369C15.8736 31.1201 16.1254 31.3938 16.2819 31.7221C16.4385 32.0505 16.4925 32.4184 16.437 32.7779C16.3815 33.1374 16.2191 33.4719 15.9708 33.7378C15.7225 34.0037 15.3999 34.1886 15.045 34.2686C14.6901 34.3485 14.3194 34.3197 13.9811 34.186C13.6428 34.0522 13.3526 33.8197 13.1483 33.5187C12.944 33.2177 12.8351 32.8621 12.8358 32.4983C12.8214 32.0362 12.9904 31.5872 13.306 31.2493C13.6215 30.9114 14.058 30.712 14.52 30.6948Z" fill="#76BB20"/>
</svg>
