<svg width="40" height="36" viewBox="0 0 40 36" fill="none" xmlns="http://www.w3.org/2000/svg">
<path d="M39.8442 25.351L39.5424 24.5158C39.32 23.9378 38.9059 23.4537 38.3693 23.1445C37.8327 22.8354 37.2062 22.7198 36.5947 22.8173C36.5596 22.8243 36.5315 22.8243 36.4964 22.8313V4.91298C36.4964 4.90596 36.4894 4.89894 36.4894 4.88491C36.489 4.81267 36.4747 4.74117 36.4473 4.67435C36.4435 4.65772 36.4388 4.64132 36.4332 4.62522C36.4262 4.6182 36.4262 4.60417 36.4192 4.59715L34.3136 0.386027C34.2561 0.269664 34.167 0.171792 34.0566 0.103549C33.9462 0.0353051 33.8188 -0.000569713 33.689 6.84158e-06H14.7389C14.6233 0.000604904 14.5097 0.029748 14.408 0.0848467C14.3064 0.139945 14.22 0.219293 14.1564 0.315841L11.349 4.52696C11.3308 4.55025 11.3166 4.57632 11.3069 4.60417C11.2998 4.62522 11.2858 4.63926 11.2788 4.66032C11.2524 4.73746 11.2359 4.81764 11.2297 4.89894V18.543C11.1244 18.557 11.0191 18.5711 10.9138 18.5921L8.05026 19.2378V16.8445C8.04915 16.4725 7.9009 16.1162 7.6379 15.8531C7.37489 15.5901 7.0185 15.4419 6.64655 15.4408H1.40371C1.03176 15.4419 0.675369 15.5901 0.412364 15.8531C0.149358 16.1162 0.00111084 16.4725 0 16.8445V34.3908C0.00111084 34.7628 0.149358 35.1192 0.412364 35.3822C0.675369 35.6452 1.03176 35.7934 1.40371 35.7945H6.64655C7.0185 35.7934 7.37489 35.6452 7.6379 35.3822C7.9009 35.1192 8.04915 34.7628 8.05026 34.3908V32.559L19.6519 34.6575C21.3025 34.9613 23.0053 34.7935 24.5649 34.1733L38.2651 28.7479C38.9219 28.5029 39.4559 28.0091 39.7514 27.3734C40.047 26.7376 40.0803 26.0111 39.8442 25.351ZM6.64655 34.3908H1.40371V16.8445H6.64655V34.3908ZM27.3723 1.40371H33.2538L34.6575 4.21113H27.3723V1.40371ZM21.7575 1.40371H25.9686V4.21113H21.7575V1.40371ZM21.7575 5.61484H25.9686V14.0371L24.2841 12.7737C24.1626 12.6826 24.0149 12.6334 23.863 12.6334C23.7112 12.6334 23.5634 12.6826 23.4419 12.7737L21.7575 14.0371V5.61484ZM15.1179 1.40371H20.3538V4.21113H13.244L15.1179 1.40371ZM12.6334 5.61484H20.3538V15.4408C20.3523 15.5708 20.3878 15.6985 20.4561 15.8091C20.5245 15.9197 20.6228 16.0086 20.7398 16.0654C20.8563 16.1246 20.987 16.15 21.1172 16.1388C21.2474 16.1276 21.3719 16.0804 21.4767 16.0023L23.863 14.2125L26.2493 16.0023C26.3715 16.0921 26.5188 16.1412 26.6704 16.1426C26.7806 16.1446 26.8894 16.118 26.9863 16.0654C27.1032 16.0086 27.2016 15.9197 27.2699 15.8091C27.3383 15.6985 27.3738 15.5708 27.3723 15.4408V5.61484H35.0927V23.0068C34.7418 23.0559 34.3838 23.112 34.0399 23.1752C33.331 23.2875 32.5941 23.4138 31.8782 23.484C30.2404 23.6693 28.5921 23.7467 26.9442 23.7156C25.5558 23.671 24.171 23.5492 22.7962 23.3507C22.8567 22.8634 22.7764 22.3689 22.5646 21.9259C22.3876 21.5703 22.1372 21.2563 21.8299 21.0047C21.5226 20.753 21.1654 20.5694 20.7819 20.4661L14.1283 18.6623C13.6401 18.5312 13.1386 18.4559 12.6334 18.4377V5.61484ZM37.7457 27.4425L24.0525 32.8678C22.7357 33.3911 21.298 33.5322 19.9046 33.2749L8.05026 31.1342V20.6766L11.2226 19.9607C12.0615 19.7721 12.9337 19.7914 13.7634 20.0169L20.4099 21.8206C20.6005 21.8704 20.7785 21.9599 20.9321 22.0833C21.0857 22.2067 21.2115 22.3611 21.3013 22.5365C21.3774 22.6935 21.4187 22.8651 21.4223 23.0396C21.426 23.214 21.3918 23.3872 21.3223 23.5472C21.1987 23.8129 20.9964 24.0343 20.7428 24.1811C20.4892 24.328 20.1966 24.3934 19.9046 24.3684L14.1353 23.1752C13.9529 23.1371 13.7628 23.1729 13.6068 23.2749C13.4509 23.3769 13.3418 23.5367 13.3036 23.7192C13.2655 23.9016 13.3013 24.0917 13.4034 24.2477C13.5054 24.4036 13.6652 24.5127 13.8476 24.5508L19.6589 25.751C19.6815 25.759 19.7052 25.7638 19.7291 25.7651C19.8274 25.7721 19.9186 25.7791 20.0098 25.7791C20.4421 25.7796 20.8689 25.682 21.258 25.4935C21.647 25.3051 21.9882 25.0307 22.2558 24.6912C23.7948 24.9249 25.3462 25.0679 26.9021 25.1194C28.6133 25.1516 30.3248 25.0719 32.0256 24.8807C32.7836 24.8035 33.5416 24.6772 34.2715 24.5579C35.0716 24.4245 35.8998 24.2841 36.714 24.214C37.0171 24.1579 37.3303 24.2048 37.6038 24.3472C37.8772 24.4897 38.0952 24.7195 38.2229 25L38.5247 25.8282C38.6339 26.1457 38.6133 26.4934 38.4674 26.7957C38.3215 27.098 38.0621 27.3305 37.7457 27.4425Z" fill="#76BB20"/>
<path d="M32.2857 17.5464H28.0746C27.7027 17.5475 27.3463 17.6957 27.0833 17.9588C26.8203 18.2218 26.672 18.5781 26.6709 18.9501V20.3538C26.672 20.7257 26.8203 21.0821 27.0833 21.3451C27.3463 21.6082 27.7027 21.7564 28.0746 21.7575H32.2857C32.6577 21.7564 33.0141 21.6082 33.2771 21.3451C33.5401 21.0821 33.6883 20.7257 33.6894 20.3538V18.9501C33.6883 18.5781 33.5401 18.2218 33.2771 17.9588C33.0141 17.6957 32.6577 17.5475 32.2857 17.5464ZM32.2857 20.3538H28.0746V18.9501H32.2857V20.3538Z" fill="#76BB20"/>
</svg>
