<svg width="40" height="41" viewBox="0 0 40 41" fill="none" xmlns="http://www.w3.org/2000/svg">
<path d="M27.731 0H12.2716C11.1359 0 10.0466 0.451178 9.24354 1.25428C8.44043 2.05738 7.98926 3.14662 7.98926 4.28237V17.9574C7.98926 19.0932 8.44043 20.1824 9.24354 20.9855C10.0466 21.7886 11.1359 22.2398 12.2716 22.2398H13.8632L19.4589 28.8275C19.5532 28.9377 19.6789 29.0165 19.8191 29.0535C19.9594 29.0905 20.1076 29.0839 20.244 29.0345C20.3824 28.9853 20.5021 28.8944 20.5865 28.7742C20.6709 28.6539 20.7158 28.5105 20.715 28.3636V22.2398H27.731C28.8668 22.2398 29.956 21.7886 30.7591 20.9855C31.5622 20.1824 32.0134 19.0932 32.0134 17.9574V4.28237C32.0134 3.14662 31.5622 2.05738 30.7591 1.25428C29.956 0.451178 28.8668 0 27.731 0ZM30.5859 17.9574C30.5859 18.7146 30.2851 19.4408 29.7497 19.9762C29.2143 20.5116 28.4882 20.8123 27.731 20.8123H20.0013C19.812 20.8123 19.6305 20.8875 19.4966 21.0214C19.3628 21.1552 19.2876 21.3368 19.2876 21.5261V26.4223L14.734 21.0621C14.6667 20.9842 14.5834 20.9216 14.4898 20.8785C14.3963 20.8354 14.2946 20.8128 14.1916 20.8123H12.2716C11.5145 20.8123 10.7883 20.5116 10.2529 19.9762C9.7175 19.4408 9.41672 18.7146 9.41672 17.9574V4.28237C9.41672 3.5252 9.7175 2.79904 10.2529 2.26364C10.7883 1.72824 11.5145 1.42746 12.2716 1.42746H27.731C28.4882 1.42746 29.2143 1.72824 29.7497 2.26364C30.2851 2.79904 30.5859 3.5252 30.5859 4.28237V17.9574Z" fill="#76BB20"/>
<path d="M29.0365 5.17442C29.0365 5.36372 28.9613 5.54525 28.8274 5.6791C28.6936 5.81296 28.512 5.88815 28.3227 5.88815H11.6786C11.4893 5.88815 11.3077 5.81296 11.1739 5.6791C11.04 5.54525 10.9648 5.36372 10.9648 5.17442C10.9648 4.98513 11.04 4.80359 11.1739 4.66974C11.3077 4.53589 11.4893 4.46069 11.6786 4.46069H28.3227C28.512 4.46069 28.6936 4.53589 28.8274 4.66974C28.9613 4.80359 29.0365 4.98513 29.0365 5.17442Z" fill="#76BB20"/>
<path d="M29.0365 8.15078C29.0365 8.34007 28.9613 8.52161 28.8274 8.65546C28.6936 8.78931 28.512 8.86451 28.3227 8.86451H11.6786C11.4893 8.86451 11.3077 8.78931 11.1739 8.65546C11.04 8.52161 10.9648 8.34007 10.9648 8.15078C10.9648 7.96148 11.04 7.77994 11.1739 7.64609C11.3077 7.51224 11.4893 7.43705 11.6786 7.43705H28.3227C28.4167 7.43609 28.51 7.4539 28.597 7.48943C28.684 7.52496 28.7631 7.5775 28.8295 7.64397C28.896 7.71043 28.9485 7.78949 28.9841 7.87652C29.0196 7.96354 29.0374 8.05678 29.0365 8.15078Z" fill="#76BB20"/>
<path d="M29.0365 11.12C29.0365 11.3093 28.9613 11.4908 28.8274 11.6247C28.6936 11.7585 28.512 11.8337 28.3227 11.8337H11.6786C11.4893 11.8337 11.3077 11.7585 11.1739 11.6247C11.04 11.4908 10.9648 11.3093 10.9648 11.12C10.9648 10.9307 11.04 10.7491 11.1739 10.6153C11.3077 10.4814 11.4893 10.4062 11.6786 10.4062H28.3227C28.512 10.4062 28.6936 10.4814 28.8274 10.6153C28.9613 10.7491 29.0365 10.9307 29.0365 11.12Z" fill="#76BB20"/>
<path d="M29.0364 14.0961C29.0364 14.2854 28.9612 14.4669 28.8274 14.6008C28.6935 14.7346 28.512 14.8098 28.3227 14.8098H17.6239C17.4346 14.8098 17.2531 14.7346 17.1192 14.6008C16.9854 14.4669 16.9102 14.2854 16.9102 14.0961C16.9102 13.9068 16.9854 13.7253 17.1192 13.5914C17.2531 13.4576 17.4346 13.3824 17.6239 13.3824H28.3227C28.4167 13.3814 28.5099 13.3992 28.5969 13.4347C28.684 13.4703 28.763 13.5228 28.8295 13.5893C28.896 13.6557 28.9485 13.7348 28.984 13.8218C29.0196 13.9089 29.0374 14.0021 29.0364 14.0961Z" fill="#76BB20"/>
<path d="M29.0364 17.0653C29.0364 17.2546 28.9612 17.4361 28.8274 17.57C28.6935 17.7038 28.512 17.779 28.3227 17.779H17.6239C17.4346 17.779 17.2531 17.7038 17.1192 17.57C16.9854 17.4361 16.9102 17.2546 16.9102 17.0653C16.9102 16.876 16.9854 16.6945 17.1192 16.5606C17.2531 16.4268 17.4346 16.3516 17.6239 16.3516H28.3227C28.512 16.3516 28.6935 16.4268 28.8274 16.5606C28.9612 16.6945 29.0364 16.876 29.0364 17.0653Z" fill="#76BB20"/>
<path d="M10.473 30.726C10.4255 30.5835 10.3345 30.4593 10.2129 30.371C10.0914 30.2827 9.94519 30.2346 9.79492 30.2336H6.84722L5.93364 27.4286C5.88671 27.2858 5.79589 27.1615 5.67414 27.0733C5.55238 26.9852 5.40591 26.9377 5.2556 26.9377C5.10529 26.9377 4.95882 26.9852 4.83706 27.0733C4.71531 27.1615 4.62449 27.2858 4.57756 27.4286L3.66398 30.2336H0.716283C0.565239 30.233 0.417916 30.2804 0.295517 30.3689C0.173118 30.4574 0.0819532 30.5825 0.0351415 30.7261C-0.0116702 30.8697 -0.0117149 31.0245 0.0350139 31.1681C0.0817426 31.3117 0.172835 31.4368 0.295183 31.5254L2.67904 33.2598L1.7726 36.0576C1.73768 36.1647 1.72861 36.2785 1.74612 36.3898C1.76364 36.5011 1.80725 36.6067 1.87338 36.6979C1.93951 36.7891 2.0263 36.8633 2.12663 36.9145C2.22696 36.9658 2.33799 36.9925 2.45064 36.9926C2.60176 36.9926 2.74906 36.9452 2.87174 36.857L5.2556 35.1226L7.63945 36.857C7.761 36.9449 7.90714 36.9922 8.05712 36.9923C8.20711 36.9924 8.35332 36.9453 8.475 36.8576C8.59667 36.7699 8.68763 36.6461 8.73495 36.5038C8.78226 36.3614 8.78354 36.2078 8.7386 36.0647L7.82502 33.2598L10.216 31.5254C10.3368 31.4356 10.4265 31.3102 10.4726 31.1669C10.5186 31.0236 10.5188 30.8694 10.473 30.726ZM6.31192 33.2027L6.70447 34.416L5.6767 33.6666C5.55491 33.5762 5.40727 33.5274 5.2556 33.5274C5.10393 33.5274 4.95629 33.5762 4.8345 33.6666L3.80673 34.416L4.19928 33.2027C4.24566 33.0604 4.24578 32.9071 4.19962 32.7648C4.15346 32.6225 4.06339 32.4984 3.94234 32.4104L2.91457 31.661H4.18501C4.33528 31.6599 4.48145 31.6119 4.60304 31.5236C4.72463 31.4353 4.81554 31.3111 4.86305 31.1686L5.2556 29.9552L5.64815 31.1686C5.69481 31.3116 5.78551 31.4363 5.90729 31.5248C6.02906 31.6132 6.17568 31.6609 6.32619 31.661H7.59663L6.56886 32.4104C6.4465 32.4973 6.35541 32.6213 6.30912 32.764C6.26283 32.9067 6.26381 33.0606 6.31192 33.2027Z" fill="#76BB20"/>
<path d="M25.2191 34.4089C25.1724 34.2658 25.0817 34.1411 24.9599 34.0527C24.8381 33.9642 24.6915 33.9165 24.541 33.9164H21.5933L20.6797 31.1115C20.6328 30.9687 20.542 30.8443 20.4202 30.7562C20.2985 30.6681 20.152 30.6206 20.0017 30.6206C19.8514 30.6206 19.7049 30.6681 19.5832 30.7562C19.4614 30.8443 19.3706 30.9687 19.3237 31.1115L18.4101 33.9164H15.4624C15.3113 33.9159 15.164 33.9633 15.0416 34.0518C14.9192 34.1403 14.828 34.2653 14.7812 34.409C14.7344 34.5526 14.7344 34.7073 14.7811 34.851C14.8278 34.9946 14.9189 35.1197 15.0413 35.2083L17.4323 36.9426L16.5187 39.7476C16.4729 39.891 16.473 40.0451 16.5191 40.1885C16.5651 40.3318 16.6548 40.4571 16.7756 40.547C16.8988 40.634 17.0459 40.6808 17.1967 40.6808C17.3476 40.6808 17.4947 40.634 17.6178 40.547L20.0017 38.8126L22.3855 40.547C22.5083 40.6352 22.6555 40.6826 22.8066 40.6826C22.9578 40.6826 23.105 40.6352 23.2277 40.547C23.3485 40.4571 23.4382 40.3318 23.4843 40.1885C23.5304 40.0451 23.5305 39.891 23.4847 39.7476L22.5711 36.9426L24.9621 35.2083C25.0839 35.1193 25.1744 34.994 25.2206 34.8504C25.2667 34.7068 25.2662 34.5522 25.2191 34.4089ZM21.058 36.8927L21.4506 38.0989L20.4228 37.3495C20.3001 37.2613 20.1528 37.2138 20.0017 37.2138C19.8506 37.2138 19.7033 37.2613 19.5806 37.3495L18.5528 38.0989L18.9454 36.8927C18.9934 36.7495 18.9944 36.5946 18.9482 36.4508C18.902 36.307 18.8109 36.1817 18.6884 36.0933L17.6607 35.3439H18.9311C19.0816 35.3438 19.2282 35.2961 19.35 35.2076C19.4718 35.1192 19.5625 34.9945 19.6091 34.8514L20.0017 33.6452L20.3942 34.8514C20.4409 34.9945 20.5316 35.1192 20.6534 35.2076C20.7752 35.2961 20.9218 35.3438 21.0723 35.3439H22.3427L21.315 36.0933C21.1924 36.1817 21.1014 36.307 21.0552 36.4508C21.009 36.5946 21.01 36.7495 21.058 36.8927Z" fill="#76BB20"/>
<path d="M39.9642 30.726C39.9184 30.5824 39.8279 30.4572 39.7059 30.3686C39.584 30.28 39.4369 30.2327 39.2861 30.2336H36.3384L35.4249 27.4286C35.3779 27.2858 35.2871 27.1615 35.1653 27.0733C35.0436 26.9852 34.8971 26.9377 34.7468 26.9377C34.5965 26.9377 34.45 26.9852 34.3283 27.0733C34.2065 27.1615 34.1157 27.2858 34.0688 27.4286L33.1552 30.2336H30.2075C30.0564 30.233 29.9091 30.2804 29.7867 30.3689C29.6643 30.4574 29.5732 30.5825 29.5264 30.7261C29.4795 30.8697 29.4795 31.0245 29.5262 31.1681C29.573 31.3117 29.664 31.4368 29.7864 31.5254L32.1774 33.2598L31.2638 36.0647C31.2189 36.2078 31.2201 36.3614 31.2675 36.5038C31.3148 36.6461 31.4057 36.7699 31.5274 36.8576C31.6491 36.9453 31.7953 36.9924 31.9453 36.9923C32.0953 36.9922 32.2414 36.9449 32.363 36.857L34.7468 35.1226L37.1307 36.857C37.2534 36.9452 37.4007 36.9926 37.5518 36.9926C37.7032 36.9948 37.8512 36.9472 37.9729 36.857C38.0958 36.769 38.1872 36.6437 38.2334 36.4997C38.2797 36.3558 38.2784 36.2008 38.2298 36.0576L37.3234 33.2598L39.7072 31.5254C39.829 31.4364 39.9195 31.3111 39.9657 31.1675C40.0118 31.0239 40.0113 30.8693 39.9642 30.726ZM35.8031 33.2027L36.1957 34.416L35.1679 33.6666C35.0457 33.5774 34.8981 33.5299 34.7468 33.531C34.5957 33.5309 34.4484 33.5784 34.3257 33.6666L33.2979 34.416L33.6905 33.2027C33.7386 33.0606 33.7396 32.9067 33.6933 32.764C33.647 32.6213 33.5559 32.4973 33.4336 32.4104L32.4058 31.661H33.6762C33.8267 31.6609 33.9733 31.6132 34.0951 31.5248C34.2169 31.4363 34.3076 31.3116 34.3543 31.1686L34.7468 29.9552L35.1394 31.1686C35.1869 31.3111 35.2778 31.4353 35.3994 31.5236C35.521 31.6119 35.6671 31.6599 35.8174 31.661H37.0878L36.0601 32.4104C35.939 32.4984 35.849 32.6225 35.8028 32.7648C35.7566 32.9071 35.7567 33.0604 35.8031 33.2027Z" fill="#76BB20"/>
</svg>
