<svg width="18" height="10" viewBox="0 0 18 10" fill="none" xmlns="http://www.w3.org/2000/svg">
<path d="M0.59779 1.82112L8.60533 9.82812C8.71973 9.94265 8.85135 10 9.00024 10C9.14914 10 9.281 9.94265 9.39546 9.82812L17.4023 1.82113C17.517 1.70642 17.5742 1.5748 17.5742 1.42585C17.5742 1.27695 17.5169 1.14515 17.4023 1.03069L16.5434 0.171821C16.4289 0.0572928 16.2971 5.90162e-05 16.1482 5.90031e-05C15.9993 5.89901e-05 15.8675 0.0572928 15.753 0.17182L9.00024 6.92443L2.24728 0.171398C2.13281 0.0568701 2.00095 -1.36146e-06 1.8523 -1.37445e-06C1.70316 -1.38749e-06 1.57136 0.0572315 1.4569 0.171398L0.597852 1.03062C0.483384 1.14509 0.426511 1.27695 0.426511 1.42578C0.42645 1.5748 0.483323 1.7066 0.59779 1.82112Z" fill="#76BB20"/>
</svg>
