<svg width="13" height="15" viewBox="0 0 13 15" fill="none" xmlns="http://www.w3.org/2000/svg">
<path d="M4.59375 8.32812H3.5C3.30859 8.32812 3.17188 8.19141 3.17188 8V6.90625C3.17188 6.74219 3.30859 6.57812 3.5 6.57812H4.59375C4.75781 6.57812 4.92188 6.74219 4.92188 6.90625V8C4.92188 8.19141 4.75781 8.32812 4.59375 8.32812ZM7.54688 8C7.54688 8.19141 7.38281 8.32812 7.21875 8.32812H6.125C5.93359 8.32812 5.79688 8.19141 5.79688 8V6.90625C5.79688 6.74219 5.93359 6.57812 6.125 6.57812H7.21875C7.38281 6.57812 7.54688 6.74219 7.54688 6.90625V8ZM10.1719 8C10.1719 8.19141 10.0078 8.32812 9.84375 8.32812H8.75C8.55859 8.32812 8.42188 8.19141 8.42188 8V6.90625C8.42188 6.74219 8.55859 6.57812 8.75 6.57812H9.84375C10.0078 6.57812 10.1719 6.74219 10.1719 6.90625V8ZM7.54688 10.625C7.54688 10.8164 7.38281 10.9531 7.21875 10.9531H6.125C5.93359 10.9531 5.79688 10.8164 5.79688 10.625V9.53125C5.79688 9.36719 5.93359 9.20312 6.125 9.20312H7.21875C7.38281 9.20312 7.54688 9.36719 7.54688 9.53125V10.625ZM4.92188 10.625C4.92188 10.8164 4.75781 10.9531 4.59375 10.9531H3.5C3.30859 10.9531 3.17188 10.8164 3.17188 10.625V9.53125C3.17188 9.36719 3.30859 9.20312 3.5 9.20312H4.59375C4.75781 9.20312 4.92188 9.36719 4.92188 9.53125V10.625ZM10.1719 10.625C10.1719 10.8164 10.0078 10.9531 9.84375 10.9531H8.75C8.55859 10.9531 8.42188 10.8164 8.42188 10.625V9.53125C8.42188 9.36719 8.55859 9.20312 8.75 9.20312H9.84375C10.0078 9.20312 10.1719 9.36719 10.1719 9.53125V10.625ZM12.7969 3.51562V13.1406C12.7969 13.8789 12.1953 14.4531 11.4844 14.4531H1.85938C1.12109 14.4531 0.546875 13.8789 0.546875 13.1406V3.51562C0.546875 2.80469 1.12109 2.20312 1.85938 2.20312H3.17188V0.78125C3.17188 0.617188 3.30859 0.453125 3.5 0.453125H4.59375C4.75781 0.453125 4.92188 0.617188 4.92188 0.78125V2.20312H8.42188V0.78125C8.42188 0.617188 8.55859 0.453125 8.75 0.453125H9.84375C10.0078 0.453125 10.1719 0.617188 10.1719 0.78125V2.20312H11.4844C12.1953 2.20312 12.7969 2.80469 12.7969 3.51562ZM11.4844 12.9766V4.82812H1.85938V12.9766C1.85938 13.0859 1.91406 13.1406 2.02344 13.1406H11.3203C11.4023 13.1406 11.4844 13.0859 11.4844 12.9766Z" fill="#76BB20"/>
</svg>
