<svg width="17" height="20" viewBox="0 0 17 20" fill="none" xmlns="http://www.w3.org/2000/svg">
<path d="M15 9.99999H13.75C13.0594 9.99999 12.5 10.5594 12.5 11.25V18.75C12.5 19.4406 13.0594 20 13.75 20H15C15.6906 20 16.25 19.4406 16.25 18.75V11.25C16.25 10.5594 15.6906 9.99999 15 9.99999ZM15 18.125C15 18.47 14.72 18.75 14.375 18.75C14.03 18.75 13.75 18.47 13.75 18.125V11.875C13.75 11.53 14.03 11.25 14.375 11.25C14.72 11.25 15 11.53 15 11.875V18.125ZM8.74999 0H7.49998C6.80938 0 6.25001 0.559377 6.25001 1.25V18.75C6.25001 19.4406 6.80939 20 7.50001 20H8.75001C9.44066 20 10 19.4406 10 18.75V1.25C9.99999 0.559377 9.44064 0 8.74999 0ZM8.74999 18.125C8.74999 18.47 8.46999 18.75 8.125 18.75C7.78 18.75 7.49998 18.47 7.49998 18.125V1.87499C7.49998 1.53 7.77998 1.24998 8.125 1.24998C8.47002 1.24998 8.74999 1.52997 8.74999 1.87499V18.125ZM2.5 5.62499H1.25C0.559377 5.62499 0 6.18498 0 6.875V18.75C0 19.4406 0.559377 20 1.25 20H2.5C3.19063 20 3.75 19.4406 3.75 18.75V6.875C3.75 6.18437 3.19063 5.62499 2.5 5.62499ZM2.5 18.125C2.5 18.47 2.22001 18.75 1.87499 18.75C1.52997 18.75 1.25 18.47 1.25 18.125V7.49998C1.25 7.15499 1.53 6.87497 1.87499 6.87497C2.21998 6.87497 2.5 7.15496 2.5 7.49998V18.125Z" fill="#4FB866"/>
</svg>
