<svg width="31" height="30" viewBox="0 0 31 30" fill="none" xmlns="http://www.w3.org/2000/svg">
<path d="M29.3607 21.7199L25.6223 17.9506C25.0043 17.3326 24.1701 16.9619 23.3977 16.9619C22.5636 16.9619 21.8221 17.3018 21.1732 17.9506L19.0105 20.1133C18.9178 20.0515 18.7942 19.9897 18.7016 19.9588C18.7016 19.9588 18.6707 19.9588 18.6707 19.9279L18.6398 19.897C18.3617 19.7116 18.0527 19.5263 17.682 19.3718C15.7973 18.1977 14.0363 16.5602 12.2443 14.3666C11.4101 13.3162 10.8231 12.3893 10.3596 11.3697C10.854 10.9681 11.2247 10.5664 11.5028 10.2575L12.4606 9.29969C13.2021 8.61998 13.5728 7.84758 13.5728 7.04428C13.5728 6.21009 13.2021 5.43769 12.4915 4.69619L9.55635 1.76107C9.27829 1.48301 9.00022 1.20494 8.69126 0.92688C8.07334 0.339856 7.30094 0 6.49765 0C5.60166 0 4.86016 0.30896 4.18045 0.988671L1.92504 3.24408C1.02906 4.07827 0.503826 5.12873 0.380243 6.42636V6.45726C0.318451 8.06385 0.565617 9.54686 1.24533 11.4006C2.32669 14.3048 3.96418 17.0237 6.40496 20.0206C9.58725 23.6045 13.1712 26.3852 17.1568 28.3007L17.2495 28.3316C18.4235 28.8568 20.648 29.8455 23.1197 30H23.4595C25.097 30 26.3329 29.4748 27.3524 28.3625C27.7232 27.93 28.1248 27.5283 28.4647 27.1576C28.7428 26.9413 28.9281 26.725 29.1135 26.5088L29.3607 26.2616L29.4225 26.1998C30.7201 24.7786 30.7201 23.0484 29.3607 21.7199ZM28.2793 25.1493L27.9704 25.4583L27.9395 25.5201C27.785 25.7055 27.6614 25.8599 27.5069 25.9835L27.4142 26.0762C27.0435 26.447 26.6109 26.8795 26.1784 27.3738C25.4678 28.1462 24.6645 28.4861 23.4595 28.4861H23.2124C21.0497 28.3316 19.0723 27.4665 17.8983 26.9413L17.8365 26.9104C14.0363 25.0875 10.6068 22.4305 7.6099 19.0319C5.26181 16.1895 3.71701 13.5942 2.69744 10.8754C2.07952 9.17611 1.86325 7.94027 1.92504 6.54995C2.01773 5.65396 2.35759 4.94336 2.97551 4.38723L5.26181 2.10093C5.63256 1.73017 6.00331 1.5757 6.46675 1.5757C6.8684 1.5757 7.23915 1.76107 7.57901 2.07003L7.6099 2.10093C7.88797 2.34809 8.16603 2.62616 8.44409 2.90422L11.3792 5.83934C11.9353 6.39547 12.028 6.82801 12.028 7.07518C12.028 7.32235 11.9662 7.6931 11.3792 8.21833L10.3905 9.207C10.0507 9.57775 9.64904 9.9794 9.12381 10.4119L9.06201 10.4737L9.00022 10.5664C8.72216 10.9372 8.69126 11.277 8.84574 11.7714L8.87664 11.895L8.90753 12.0185C9.43277 13.1617 10.0816 14.2122 11.0085 15.3862C12.924 17.7343 14.8396 19.4954 16.8787 20.7621L16.9714 20.8239C17.2186 20.9475 17.4657 21.0711 17.682 21.1946C17.7747 21.2873 17.8983 21.3491 17.991 21.38C18.1145 21.4418 18.2072 21.4727 18.269 21.5345L18.4853 21.689H18.5471L18.6398 21.7199C18.8251 21.7817 18.9487 21.7817 19.0414 21.7817C19.3504 21.7817 19.6284 21.6581 19.9065 21.38L22.2237 19.0628C22.5945 18.6921 22.9343 18.5376 23.3669 18.5376C23.8303 18.5376 24.2628 18.8157 24.51 19.0628L28.2793 22.8321C29.0208 23.5736 29.0517 24.346 28.2793 25.1493Z" fill="#76BB20"/>
</svg>
