<svg width="16" height="30" viewBox="0 0 16 30" fill="none" xmlns="http://www.w3.org/2000/svg">
<path d="M8.39054 25.138V23.9426C12.4136 24.0614 15.5833 25.3517 15.5833 26.9275C15.5833 28.5826 12.0955 30 7.79165 30C3.48776 30 0 28.5826 0 26.9275C0 25.3517 3.16971 24.0602 7.19155 23.9426V25.138C3.83221 25.2208 1.19899 25.9902 1.19899 26.9275C1.19899 27.9201 4.15026 28.8754 7.79165 28.8754C11.4318 28.8754 14.3831 27.9201 14.3831 26.9275C14.3819 25.9902 11.7499 25.222 8.39054 25.138ZM1.20859 6.59265C1.20859 2.95247 4.23428 0 7.87686 0C11.5182 0 14.4695 2.95247 14.4695 6.59265C14.4695 9.72155 12.2876 12.3368 9.3615 13.0113L7.79045 28.8766L6.21459 12.9669C3.37974 12.2288 1.20859 9.65914 1.20859 6.59265ZM7.79045 4.82717C7.79045 3.83341 6.98512 3.02928 5.99256 3.02928C4.9988 3.02928 4.19347 3.83341 4.19347 4.82717C4.19347 5.81973 4.9988 6.62506 5.99256 6.62506C6.98632 6.62506 7.79045 5.82093 7.79045 4.82717Z" fill="#76BB20"/>
</svg>
