<svg width="30" height="30" viewBox="0 0 30 30" fill="none" xmlns="http://www.w3.org/2000/svg">
<path d="M15 0C6.71632 0 0 6.71632 0 15C0 23.2836 6.71632 30 15 30C23.2837 30 29.9999 23.2835 29.9999 15C29.9999 6.71632 23.2837 0 15 0ZM15.9376 28.0774V26.2499H14.0625V28.0774C7.57512 27.6163 2.38411 22.4251 1.92269 15.9377H3.74997V14.0626H1.92269C2.38411 7.57506 7.57512 2.38405 14.0625 1.92262V3.74991H15.9376V1.92269C22.425 2.38405 27.6159 7.57512 28.0773 14.0627H26.2501V15.9378H28.0773C27.6158 22.4251 22.4249 27.6163 15.9376 28.0774ZM21.9013 11.0156C22.0294 11.2391 21.9526 11.5267 21.7292 11.6566L16.7773 14.5148C16.82 14.6741 16.8751 14.828 16.8751 15C16.8751 16.0364 16.0354 16.8749 15.0001 16.8749C13.9644 16.8749 13.125 16.0364 13.125 15L8.03655 12.063C7.58786 11.8031 7.43415 11.2299 7.69315 10.7813C7.95123 10.3309 8.5253 10.1772 8.97393 10.4372L14.0918 13.3925C14.3645 13.2387 14.663 13.1252 15.0001 13.1252C15.5238 13.1252 15.995 13.3412 16.3358 13.6892L21.2603 10.8436C21.4802 10.7135 21.7676 10.7904 21.9013 11.0156Z" fill="#76BB20"/>
</svg>
