<svg width="50" height="50" viewBox="0 0 50 50" fill="none" xmlns="http://www.w3.org/2000/svg">
<path d="M30.4043 20.2047L49.3645 0.568359V24.1195L41.9782 31.7729L30.4043 20.2047Z" fill="white"/>
<path d="M31.25 0.568359V14.2047L25 8.5229L18.75 14.2047V0.568359H31.25Z" fill="#76BB20"/>
<path d="M48.2956 44.3178H33.3184V43.1815H48.2956C48.4463 43.1815 48.5908 43.1216 48.6974 43.015C48.804 42.9085 48.8638 42.764 48.8638 42.6133V23.8008H50.0002V42.6133C50.0002 43.0654 49.8206 43.4989 49.5009 43.8186C49.1813 44.1382 48.7477 44.3178 48.2956 44.3178Z" fill="#76BB20"/>
<path d="M14.7154 47.6651C14.0319 47.6691 13.3609 47.4822 12.7779 47.1254C11.9569 46.6053 11.3639 45.793 11.1188 44.8526C11.0215 44.4618 11.0658 44.0491 11.2438 43.6879C11.2893 43.6026 11.3347 43.5401 11.3745 43.4719L11.454 43.3583C12.7154 41.5515 17.0563 35.364 19.8063 31.5742L20.7268 32.239C17.9824 36.0117 13.6358 42.1935 12.3858 43.9947L12.312 44.1026L12.2495 44.2049C12.1918 44.3273 12.1797 44.4664 12.2154 44.5969C12.3818 45.2463 12.7878 45.8086 13.3518 46.1708C13.6589 46.3516 13.9987 46.4698 14.3517 46.5186C14.7048 46.5673 15.064 46.5457 15.4086 46.4549C15.5483 46.4213 15.6701 46.3361 15.7495 46.2163L21.1927 38.2163L22.1586 38.8526L16.7154 46.8413C16.4773 47.2006 16.1118 47.4564 15.6927 47.5572C15.3723 47.6316 15.0443 47.6679 14.7154 47.6651Z" fill="#76BB20"/>
<path d="M19.4382 49.0803C18.8061 49.0832 18.1867 48.9037 17.6541 48.5632C17.203 48.2599 16.8309 47.853 16.569 47.3766C16.307 46.9002 16.1629 46.368 16.1484 45.8246H17.2848C17.2992 46.1784 17.3961 46.524 17.5677 46.8338C17.7394 47.1435 17.981 47.4089 18.2734 47.6087C18.5972 47.811 18.968 47.9257 19.3495 47.9416C19.731 47.9576 20.11 47.8742 20.4496 47.6996C20.5257 47.6567 20.5886 47.5939 20.6314 47.5178L25.0007 40.6484L25.9609 41.2564L21.5916 48.1371C21.4363 48.3797 21.2184 48.576 20.9609 48.7053C20.4898 48.9481 19.9682 49.0765 19.4382 49.0803Z" fill="#76BB20"/>
<path d="M24.2269 49.7843C23.6637 49.7908 23.1088 49.6476 22.619 49.3695C22.224 49.1317 21.8814 48.8162 21.6119 48.4421C21.3423 48.0681 21.1514 47.6433 21.0508 47.1934L22.1871 46.9434C22.2421 47.2288 22.3552 47.4999 22.5194 47.7398C22.6835 47.9797 22.8953 48.1832 23.1415 48.3377C23.3877 48.4923 23.6631 48.5945 23.9505 48.6381C24.2379 48.6817 24.5312 48.6657 24.8121 48.5911C24.948 48.5554 25.0644 48.4676 25.136 48.3468L28.4712 42.8809L29.4428 43.449L26.0792 48.932C25.8458 49.3087 25.4749 49.5798 25.0451 49.6877C24.7768 49.7501 24.5024 49.7825 24.2269 49.7843Z" fill="#76BB20"/>
<path d="M28.9769 49.8757C28.2206 49.8749 27.4938 49.5817 26.9485 49.0576C26.4032 48.5335 26.0816 47.8189 26.0508 47.0632C26.0508 46.9125 26.1106 46.768 26.2172 46.6614C26.3238 46.5549 26.4683 46.495 26.619 46.495C26.7697 46.495 26.9142 46.5549 27.0207 46.6614C27.1273 46.768 27.1871 46.9125 27.1871 47.0632C27.2002 47.3544 27.2837 47.638 27.4305 47.8898C27.5773 48.1416 27.783 48.354 28.03 48.5088C28.277 48.6636 28.5579 48.7561 28.8485 48.7785C29.1391 48.8008 29.4308 48.7523 29.6985 48.6371C29.8142 48.5878 29.9087 48.4992 29.9656 48.3871L37.8349 33.0461C37.8692 32.9797 37.9163 32.9207 37.9734 32.8725C38.0305 32.8243 38.0966 32.7878 38.1678 32.7651C38.239 32.7424 38.314 32.734 38.3885 32.7403C38.463 32.7466 38.5355 32.7675 38.6019 32.8018C38.6683 32.8362 38.7273 32.8832 38.7755 32.9403C38.8238 32.9975 38.8602 33.0635 38.8829 33.1348C38.9056 33.206 38.9141 33.281 38.9078 33.3555C38.9015 33.43 38.8806 33.5025 38.8462 33.5689L30.9599 48.8586C30.7764 49.2084 30.4771 49.4835 30.1133 49.6371C29.7537 49.7901 29.3677 49.8712 28.9769 49.8757Z" fill="#76BB20"/>
<path d="M11.625 44.3182H1.70455C1.25247 44.3182 0.818914 44.1386 0.49925 43.8189C0.179586 43.4993 0 43.0657 0 42.6136V1.70454C0 1.25247 0.179586 0.818914 0.49925 0.49925C0.818914 0.179586 1.25247 0 1.70455 0H49.4318C49.5825 0 49.727 0.0598617 49.8336 0.166416C49.9401 0.272971 50 0.417491 50 0.568182C50 0.718873 49.9401 0.863392 49.8336 0.969947C49.727 1.0765 49.5825 1.13636 49.4318 1.13636H1.70455C1.55385 1.13636 1.40933 1.19623 1.30278 1.30278C1.19623 1.40933 1.13636 1.55385 1.13636 1.70454V42.6136C1.13636 42.7643 1.19623 42.9088 1.30278 43.0154C1.40933 43.1219 1.55385 43.1818 1.70455 43.1818H11.625C11.7757 43.1818 11.9202 43.2417 12.0268 43.3482C12.1333 43.4548 12.1932 43.5993 12.1932 43.75C12.1932 43.9007 12.1333 44.0452 12.0268 44.1518C11.9202 44.2583 11.7757 44.3182 11.625 44.3182Z" fill="#76BB20"/>
<path d="M14.6413 35.1648C14.5125 35.1648 14.3837 35.1648 14.2549 35.1648C13.5633 35.0777 12.8978 34.8461 12.3016 34.4848C11.7054 34.1236 11.192 33.6409 10.7947 33.0682C10.7096 32.9439 10.6773 32.7908 10.705 32.6427C10.7327 32.4946 10.8181 32.3636 10.9424 32.2784L19.9538 26.1307C21.4601 25.1007 23.2426 24.5501 25.0674 24.5511L29.7549 24.1989C29.8295 24.1933 29.9045 24.2024 29.9756 24.2258C30.0467 24.2492 30.1124 24.2863 30.1692 24.3351C30.2259 24.3839 30.2724 24.4434 30.3061 24.5102C30.3399 24.577 30.3601 24.6498 30.3657 24.7244C30.3713 24.799 30.3621 24.874 30.3388 24.9451C30.3154 25.0162 30.2782 25.082 30.2294 25.1387C30.1806 25.1954 30.1211 25.2419 30.0543 25.2757C29.9875 25.3094 29.9148 25.3296 29.8401 25.3352L25.1129 25.6875C23.4918 25.6757 21.9059 26.1594 20.5674 27.0739L12.0788 32.892C12.6684 33.5461 13.4766 33.9623 14.3515 34.0625C14.9556 34.1107 15.5617 33.9969 16.1072 33.733L19.9708 31.4261C20.099 31.3682 20.2441 31.3599 20.3781 31.4028C20.512 31.4457 20.6253 31.5367 20.696 31.6583C20.7667 31.7799 20.7898 31.9234 20.7608 32.0611C20.7318 32.1987 20.6528 32.3207 20.539 32.4034L16.647 34.7102C16.0212 35.0109 15.3355 35.1663 14.6413 35.1648Z" fill="#76BB20"/>
<path d="M39.4496 35.2099L37.9382 33.7042L27.7109 23.4769L30.6939 20.4883L31.1314 20.8576L31.5291 21.261L29.3189 23.4769L39.4382 33.5906L48.9553 23.7269C49.0619 23.631 49.2008 23.579 49.3442 23.5813C49.4876 23.5835 49.6248 23.6399 49.7283 23.7392C49.8318 23.8384 49.894 23.9731 49.9024 24.1162C49.9108 24.2594 49.8647 24.4004 49.7734 24.511L48.978 25.3406L39.4496 35.2099Z" fill="#76BB20"/>
<path d="M41.5504 32.153L29.6016 20.2155L48.9538 0.175781L49.772 0.965554L31.1982 20.1985L31.5107 20.5053L42.3572 31.3519L41.5504 32.153Z" fill="#76BB20"/>
</svg>
