<svg width="60" height="40" viewBox="0 0 60 40" fill="none" xmlns="http://www.w3.org/2000/svg">
<path d="M12.7857 17.6676H9.60352V14.4855C9.60352 13.9791 9.80467 13.4934 10.1627 13.1354C10.5208 12.7773 11.0064 12.5762 11.5128 12.5762H27.4235C27.7611 12.5762 28.0849 12.7103 28.3236 12.949C28.5623 13.1877 28.6964 13.5114 28.6964 13.849V16.3947C28.6964 16.7323 28.5623 17.0561 28.3236 17.2948C28.0849 17.5335 27.7611 17.6676 27.4235 17.6676" fill="white"/>
<path d="M27.3842 18.3037V17.0309C27.553 17.0309 27.7148 16.9638 27.8342 16.8445C27.9535 16.7251 28.0206 16.5632 28.0206 16.3945V13.8487C28.0206 13.6799 27.9535 13.5181 27.8342 13.3987C27.7148 13.2794 27.553 13.2123 27.3842 13.2123H11.4734C11.1359 13.2123 10.8121 13.3464 10.5734 13.5851C10.3347 13.8238 10.2006 14.1476 10.2006 14.4852V17.0309H12.7463V18.3037H9.56416C9.39537 18.3037 9.23349 18.2367 9.11414 18.1173C8.99479 17.998 8.92773 17.8361 8.92773 17.6673V14.4852C8.92773 13.81 9.19594 13.1625 9.67336 12.6851C10.1508 12.2077 10.7983 11.9395 11.4734 11.9395H27.3842C27.8905 11.9395 28.3762 12.1406 28.7342 12.4987C29.0923 12.8567 29.2935 13.3424 29.2935 13.8487V16.3945C29.2935 16.9008 29.0923 17.3865 28.7342 17.7445C28.3762 18.1026 27.8905 18.3037 27.3842 18.3037Z" fill="#76BB20"/>
<path d="M20.7025 1.21484V7.57913L17.8385 4.92522L14.9746 7.57913V1.21484H20.7025Z" fill="#76BB20"/>
<path d="M47.1152 10.6606C45.0531 10.6606 42.6602 8.99314 42.6602 6.84201C42.6602 4.69088 45.0531 3.02344 47.1152 3.02344C47.2839 3.02344 47.4458 3.09049 47.5652 3.20984C47.6845 3.3292 47.7516 3.49107 47.7516 3.65987V10.0242C47.7516 10.1929 47.6845 10.3548 47.5652 10.4742C47.4458 10.5935 47.2839 10.6606 47.1152 10.6606ZM46.4787 4.3663C45.2059 4.63997 43.933 5.63916 43.933 6.84201C43.933 8.04486 45.2059 9.04405 46.4787 9.31772V4.3663Z" fill="#76BB20"/>
<path d="M26.1116 13.0468H24.8387V1.27286H10.8373V13.0468H9.56445V0.636429C9.56445 0.467637 9.63151 0.305759 9.75086 0.186405C9.87021 0.0670516 10.0321 0 10.2009 0H25.4752C25.644 0 25.8058 0.0670516 25.9252 0.186405C26.0445 0.305759 26.1116 0.467637 26.1116 0.636429V13.0468Z" fill="#76BB20"/>
<path d="M27.3842 18.3037V17.0309C27.553 17.0309 27.7148 16.9638 27.8342 16.8445C27.9535 16.7251 28.0206 16.5632 28.0206 16.3945V13.8487C28.0206 13.6799 27.9535 13.5181 27.8342 13.3987C27.7148 13.2794 27.553 13.2123 27.3842 13.2123H11.4734C11.1359 13.2123 10.8121 13.3464 10.5734 13.5851C10.3347 13.8238 10.2006 14.1476 10.2006 14.4852V17.0309H12.7463V18.3037H9.56416C9.39537 18.3037 9.23349 18.2367 9.11414 18.1173C8.99479 17.998 8.92773 17.8361 8.92773 17.6673V14.4852C8.92773 13.81 9.19594 13.1625 9.67336 12.6851C10.1508 12.2077 10.7983 11.9395 11.4734 11.9395H27.3842C27.8905 11.9395 28.3762 12.1406 28.7342 12.4987C29.0923 12.8567 29.2935 13.3424 29.2935 13.8487V16.3945C29.2935 16.9008 29.0923 17.3865 28.7342 17.7445C28.3762 18.1026 27.8905 18.3037 27.3842 18.3037Z" fill="#76BB20"/>
<path d="M42.9034 8.4454L41.7891 9.06055L48.8141 21.7863L49.9284 21.1712L42.9034 8.4454Z" fill="#76BB20"/>
<path d="M44.5679 32.9414H17.8379V34.2143H44.5679V32.9414Z" fill="#76BB20"/>
<path d="M17.8459 29.7598H17.5723V31.0326H17.8459V29.7598Z" fill="#76BB20"/>
<path d="M4.10454 31.0322H0.655098C0.556963 31.035 0.459493 31.0152 0.370312 30.9741C0.28113 30.9331 0.202655 30.8719 0.141024 30.7955C0.0793939 30.7191 0.0362792 30.6295 0.0150529 30.5336C-0.0061734 30.4377 -0.0049358 30.3383 0.0186688 30.243L1.04968 26.1826C1.7051 23.568 3.21528 21.2474 5.34037 19.5893C7.46547 17.9312 10.0836 17.0307 12.7791 17.0307H27.4169C27.5104 17.0294 27.6031 17.0486 27.6883 17.0871C27.7735 17.1257 27.8492 17.1825 27.91 17.2536C27.9708 17.3247 28.0151 17.4083 28.0399 17.4985C28.0647 17.5887 28.0693 17.6832 28.0534 17.7753L26.5959 26.2589C26.5492 26.535 26.5638 26.8179 26.6386 27.0876C26.7135 27.3574 26.8467 27.6074 27.0288 27.8199C27.211 28.0324 27.4377 28.2023 27.6928 28.3175C27.948 28.4327 28.2253 28.4904 28.5052 28.4864H35.3914C35.7967 28.4866 36.1915 28.3578 36.5187 28.1187C36.846 27.8796 37.0886 27.5425 37.2116 27.1563L40.0819 18.1954L37.0079 7.75796L34.704 4.30215H31.2037V3.0293H35.0222C35.1271 3.02984 35.2301 3.05627 35.3223 3.10623C35.4144 3.15619 35.4928 3.22814 35.5505 3.31569L38.0962 7.13426C38.1323 7.18706 38.1601 7.24499 38.1789 7.3061L41.3611 18.0236C41.3988 18.1459 41.3988 18.2767 41.3611 18.399L38.4271 27.5445C38.221 28.1859 37.8166 28.7453 37.2722 29.1422C36.7278 29.5391 36.0715 29.7529 35.3977 29.7529H28.4861C28.0237 29.7537 27.5666 29.6536 27.1468 29.4596C26.727 29.2657 26.3544 28.9826 26.0552 28.63C25.7559 28.2774 25.5371 27.8639 25.414 27.4181C25.2908 26.9724 25.2663 26.5051 25.3422 26.0489L26.615 18.2972H12.7791C10.3662 18.2977 8.02273 19.1047 6.12117 20.5899C4.21962 22.0752 2.86912 24.1535 2.28435 26.4944L1.47609 29.7593H4.10454V31.0322Z" fill="#76BB20"/>
<path d="M51.5686 36.1235C50.8133 36.1235 50.0751 35.8995 49.4471 35.4799C48.8191 35.0603 48.3297 34.464 48.0407 33.7662C47.7517 33.0685 47.676 32.3007 47.8234 31.5599C47.9707 30.8192 48.3344 30.1388 48.8684 29.6048C49.4025 29.0707 50.0829 28.707 50.8236 28.5597C51.5643 28.4124 52.3321 28.488 53.0299 28.777C53.7276 29.066 54.324 29.5555 54.7436 30.1834C55.1632 30.8114 55.3871 31.5497 55.3871 32.3049C55.3871 33.3176 54.9848 34.2889 54.2687 35.005C53.5526 35.7212 52.5813 36.1235 51.5686 36.1235ZM51.5686 29.7592C51.0651 29.7592 50.5729 29.9085 50.1543 30.1882C49.7356 30.4679 49.4093 30.8655 49.2166 31.3307C49.024 31.7959 48.9735 32.3077 49.0718 32.8015C49.17 33.2954 49.4125 33.749 49.7685 34.105C50.1245 34.461 50.5781 34.7035 51.0719 34.8017C51.5658 34.8999 52.0776 34.8495 52.5428 34.6568C53.0079 34.4642 53.4055 34.1379 53.6853 33.7192C53.965 33.3006 54.1143 32.8084 54.1143 32.3049C54.1143 31.6297 53.8461 30.9822 53.3687 30.5048C52.8913 30.0274 52.2437 29.7592 51.5686 29.7592Z" fill="#76BB20"/>
<path d="M44.2507 9.39417H37.9437C37.7688 9.39626 37.5997 9.3316 37.4708 9.21336C37.3419 9.09511 37.2629 8.93217 37.25 8.75774V4.93916C37.25 4.77037 37.3171 4.60849 37.4364 4.48914C37.5558 4.36979 37.7176 4.30273 37.8864 4.30273H44.2507V5.57559H38.5229V8.12131H44.2507V9.39417Z" fill="#76BB20"/>
<path d="M39.936 33.1387C39.7328 30.3249 40.5751 27.535 42.3014 25.3037C44.0278 23.0723 46.5168 21.5565 49.2915 21.0466C49.6938 20.9746 50.0995 20.9236 50.5071 20.8938C52.2408 20.7587 53.9825 21.0222 55.5986 21.6642C57.2148 22.3063 58.6625 23.3098 59.8308 24.5979C59.9399 24.7155 60.0006 24.8701 60.0006 25.0306C60.0006 25.1911 59.9399 25.3457 59.8308 25.4634L57.4696 28.0091L56.5404 27.1436L58.4879 25.0497C57.4542 24.0382 56.2169 23.2585 54.8584 22.7625C53.4998 22.2665 52.0512 22.0655 50.6089 22.1731C50.2462 22.2014 49.885 22.2481 49.527 22.3131C47.0624 22.7642 44.8506 24.1081 43.3148 26.0878C41.7789 28.0675 41.0269 30.5439 41.2025 33.0433L39.936 33.1387Z" fill="#76BB20"/>
<path d="M51.5688 39.9419C49.7813 39.9411 48.0507 39.3132 46.6784 38.1677C45.3062 37.0223 44.3792 35.4317 44.0589 33.6731C43.9745 33.2219 43.9318 32.7639 43.9316 32.3048C43.9305 30.7628 44.3962 29.2566 45.2674 27.9843C46.1386 26.7121 47.3745 25.7333 48.8126 25.1768C50.2506 24.6203 51.8235 24.5122 53.3242 24.8666C54.8249 25.221 56.1831 26.0214 57.2203 27.1625C58.2172 28.2571 58.8744 29.6179 59.112 31.0793C59.3496 32.5406 59.1573 34.0396 58.5585 35.3936C57.9597 36.7477 56.9802 37.8985 55.7392 38.706C54.4983 39.5135 53.0493 39.9429 51.5688 39.9419ZM51.5688 25.9405C49.8809 25.9405 48.2621 26.611 47.0686 27.8046C45.875 28.9981 45.2045 30.6169 45.2045 32.3048C45.1951 32.684 45.2207 33.0632 45.2809 33.4377C45.4567 34.4073 45.8554 35.3229 46.4454 36.1123C47.0355 36.9017 47.8008 37.5432 48.681 37.9864C49.5612 38.4296 50.5324 38.6623 51.5179 38.6662C52.5034 38.6701 53.4763 38.445 54.36 38.0088C55.2438 37.5726 56.0141 36.9371 56.6103 36.1524C57.2066 35.3678 57.6125 34.4553 57.796 33.4871C57.9795 32.5188 57.9356 31.5211 57.6679 30.5727C57.4001 29.6243 56.9157 28.751 56.2529 28.0216C55.6591 27.369 54.936 26.8469 54.1296 26.4887C53.3232 26.1304 52.4512 25.9437 51.5688 25.9405Z" fill="#76BB20"/>
<path d="M10.8383 39.9416C9.65735 39.9413 8.49252 39.6671 7.43539 39.1406C6.37827 38.6141 5.45765 37.8496 4.7459 36.9071C4.03416 35.9647 3.55067 34.8701 3.33343 33.7092C3.1162 32.5484 3.17115 31.353 3.49395 30.217C3.53245 30.0793 3.61617 29.9586 3.73162 29.8743C3.84707 29.7901 3.98754 29.7471 4.13038 29.7524H8.33081V31.0252H4.6077C4.42372 31.8555 4.408 32.7142 4.56148 33.5507C4.71495 34.3871 5.03451 35.1844 5.50127 35.8952C5.96803 36.6061 6.57253 37.2162 7.27905 37.6895C7.98557 38.1629 8.77979 38.4898 9.61478 38.651C10.4498 38.8122 11.3086 38.8045 12.1406 38.6282C12.9725 38.4519 13.7607 38.1106 14.4585 37.6246C15.1564 37.1386 15.7497 36.5177 16.2036 35.7985C16.6574 35.0793 16.9625 34.2764 17.1008 33.4373C17.17 33.0616 17.2041 32.6802 17.2026 32.2981C17.2019 31.8704 17.1571 31.4438 17.069 31.0252H13.3713V29.7524H17.5718C17.7146 29.7471 17.8551 29.7901 17.9705 29.8743C18.086 29.9586 18.1697 30.0793 18.2082 30.217C18.4034 30.8936 18.504 31.5939 18.5073 32.2981C18.5072 32.7572 18.4646 33.2152 18.38 33.6664C18.0601 35.4316 17.1291 37.0278 15.7501 38.1752C14.3711 39.3226 12.6322 39.9479 10.8383 39.9416Z" fill="#76BB20"/>
<path d="M10.8381 36.1241C9.82535 36.1241 8.85409 35.7217 8.13797 35.0056C7.42184 34.2895 7.01953 33.3182 7.01953 32.3055C7.01946 31.4772 7.29235 30.6719 7.79597 30.0143C7.85526 29.9353 7.93213 29.8711 8.0205 29.827C8.10887 29.7828 8.20631 29.7598 8.30512 29.7598H13.3965C13.4937 29.76 13.5896 29.7825 13.6767 29.8255C13.7639 29.8685 13.84 29.931 13.8993 30.008C14.411 30.6645 14.6887 31.4731 14.6885 32.3055C14.6885 32.8096 14.5887 33.3088 14.3948 33.7742C14.2009 34.2395 13.9168 34.6619 13.5588 35.0169C13.2009 35.3719 12.7762 35.6525 12.3092 35.8426C11.8422 36.0326 11.3422 36.1283 10.8381 36.1241ZM8.64242 31.0326C8.41328 31.4177 8.29235 31.8574 8.29239 32.3055C8.29239 32.9806 8.5606 33.6282 9.03801 34.1056C9.51543 34.583 10.1629 34.8512 10.8381 34.8512C11.5133 34.8512 12.1608 34.583 12.6382 34.1056C13.1156 33.6282 13.3838 32.9806 13.3838 32.3055C13.3835 31.8566 13.2603 31.4164 13.0274 31.0326H8.64879H8.64242Z" fill="#76BB20"/>
</svg>
