<svg width="22" height="20" viewBox="0 0 22 20" fill="none" xmlns="http://www.w3.org/2000/svg">
<path d="M15.9417 0C13.7278 0 12.0526 1.29926 10.6278 2.65695C9.2701 1.21622 7.52781 0 5.31389 0C2.19596 0 0 2.68084 0 5.60418C0 7.17244 0.642321 8.30232 1.34573 9.36308L9.60418 19.2642C10.5315 20.2453 10.7062 20.2453 11.6334 19.2642L19.9105 9.36308C20.7374 8.30232 21.2556 7.17244 21.2556 5.60418C21.2556 2.68088 19.0596 0 15.9417 0ZM18.5986 9.08811L10.6278 18.5986L2.65695 9.0489C1.70378 7.72376 1.32847 6.82971 1.32847 5.60418C1.32847 3.32052 2.95918 1.26471 5.31389 1.24543C7.25082 1.22949 9.44612 3.20758 10.6278 4.6988C11.7783 3.2594 14.0047 1.24543 15.9417 1.24543C18.2339 1.24543 19.9271 3.32052 19.9271 5.60418C19.9271 6.82971 19.6302 7.79017 18.5986 9.08811Z" fill="#4FB866"/>
</svg>
