<svg width="20" height="20" viewBox="0 0 20 20" fill="none" xmlns="http://www.w3.org/2000/svg">
<path d="M7.13513 16.6647L4.45206 16.6647C4.21383 16.6647 4.01855 16.86 4.01855 17.0982C4.01855 17.3365 4.21383 17.5317 4.45206 17.5317L7.13513 17.5317C7.34603 18.926 8.54892 20 9.99785 20C11.4468 20 12.6497 18.926 12.8606 17.5356L15.5436 17.5356C15.7819 17.5356 15.9771 17.3404 15.9771 17.1021C15.9771 16.8639 15.7819 16.6686 15.5436 16.6686L12.8606 16.6686C12.6497 15.2744 11.4468 14.2043 9.99785 14.2043C8.54892 14.2043 7.34603 15.2744 7.13513 16.6647ZM12.0287 17.0982C12.0287 18.2191 11.1187 19.1291 9.99785 19.1291C8.87698 19.1291 7.967 18.2191 7.967 17.0982C7.967 15.9774 8.87698 15.0635 9.99785 15.0635C11.1187 15.0635 12.0287 15.9774 12.0287 17.0982Z" fill="#76BB20"/>
<path d="M1.95665 3.24577L0.433509 3.24577C0.195274 3.24577 -1.37083e-07 3.44105 -1.2667e-07 3.67928C-1.16256e-07 3.91751 0.195274 4.11279 0.433509 4.11279L1.95665 4.11279C2.16754 5.50705 3.37043 6.57715 4.81937 6.57715C6.2683 6.57715 7.47119 5.50314 7.68209 4.11279L15.5438 4.11279C15.7821 4.11279 15.9773 3.91751 15.9773 3.67928C15.9773 3.44104 15.7821 3.24577 15.5438 3.24577L7.68209 3.24577C7.47119 1.85151 6.2683 0.78141 4.81937 0.78141C3.37043 0.78141 2.16364 1.85151 1.95665 3.24577ZM6.85022 3.67928C6.85022 4.80015 5.94024 5.71013 4.81937 5.71013C3.69849 5.71013 2.78852 4.80015 2.78852 3.67928C2.78852 2.55841 3.69849 1.64452 4.81937 1.64452C5.94024 1.64452 6.85022 2.55841 6.85022 3.67928Z" fill="#76BB20"/>
<path d="M18.1719 3.6788C18.1719 3.91703 18.3671 4.1123 18.6054 4.1123L19.5661 4.1123C19.8044 4.1123 19.9996 3.91703 19.9996 3.6788C19.9996 3.44056 19.8044 3.24529 19.5661 3.24529L18.6054 3.24529C18.3632 3.24529 18.1719 3.44056 18.1719 3.6788Z" fill="#76BB20"/>
<path d="M12.3138 9.95475L4.45206 9.95475C4.21383 9.95475 4.01855 10.15 4.01855 10.3883C4.01855 10.6265 4.21383 10.8218 4.45206 10.8218L12.3177 10.8218C12.5286 12.216 13.7315 13.2861 15.1804 13.2861C16.6294 13.2861 17.8323 12.2121 18.0431 10.8218L19.5663 10.8218C19.8045 10.8218 19.9998 10.6265 19.9998 10.3883C19.9998 10.15 19.8045 9.95475 19.5663 9.95475L18.0431 9.95475C17.8323 8.5605 16.6294 7.49039 15.1804 7.49039C13.7315 7.49039 12.5247 8.5605 12.3138 9.95475ZM17.2113 10.3883C17.2113 11.5091 16.3013 12.4191 15.1804 12.4191C14.0596 12.4191 13.1496 11.5091 13.1496 10.3883C13.1496 9.26739 14.0596 8.35741 15.1804 8.35741C16.2974 8.35741 17.2113 9.26739 17.2113 10.3883Z" fill="#76BB20"/>
<path d="M1.82386 10.3888C1.82386 10.1505 1.62859 9.95525 1.39035 9.95525L0.433509 9.95525C0.195274 9.95525 -2.93628e-08 10.1505 -1.89493e-08 10.3888C-8.53572e-09 10.627 0.195274 10.8223 0.433509 10.8223L1.39426 10.8223C1.63249 10.8223 1.82386 10.627 1.82386 10.3888Z" fill="#76BB20"/>
<path d="M1.80824 17.0987C1.80824 16.8605 1.61297 16.6652 1.37473 16.6652L0.449134 16.6652C0.210899 16.6652 0.015625 16.8605 0.015625 17.0987C0.015625 17.337 0.210899 17.5322 0.449134 17.5322L1.37473 17.5322C1.61687 17.5322 1.80824 17.3409 1.80824 17.0987Z" fill="#76BB20"/>
<path d="M18.1885 17.0987C18.1885 17.337 18.3837 17.5322 18.622 17.5322L19.5476 17.5322C19.7858 17.5322 19.9811 17.337 19.9811 17.0987C19.9811 16.8605 19.7858 16.6652 19.5476 16.6652L18.622 16.6652C18.3798 16.6652 18.1885 16.8605 18.1885 17.0987Z" fill="#76BB20"/>
</svg>
