<svg width="70" height="57" viewBox="0 0 70 57" fill="none" xmlns="http://www.w3.org/2000/svg">
<path d="M55 0C48.7507 0 44.0219 3.66755 40 7.5C36.1675 3.43314 31.2494 0 25 0C16.1987 0 10 7.56745 10 15.8194C10 20.2463 11.8131 23.4357 13.7987 26.43L37.1106 54.3787C39.7281 57.1481 40.2213 57.1481 42.8387 54.3787L66.203 26.43C68.5375 23.4357 70 20.2463 70 15.8194C70 7.56755 63.8012 0 55 0ZM62.5 25.6538L40 52.5L17.5 25.5431C14.8094 21.8025 13.75 19.2788 13.75 15.8194C13.75 9.37314 18.3531 3.57 25 3.51559C30.4676 3.47059 36.6644 9.05432 40 13.2637C43.2476 9.20059 49.5325 3.51559 55 3.51559C61.4706 3.51559 66.25 9.37314 66.25 15.8194C66.25 19.2788 65.4119 21.99 62.5 25.6538Z" fill="#D9D9D9"/>
<path d="M45 0C38.7507 0 34.0219 3.66755 30 7.5C26.1675 3.43314 21.2494 0 15 0C6.19872 0 0 7.56745 0 15.8194C0 20.2463 1.81314 23.4357 3.79873 26.43L27.1106 54.3787C29.7281 57.1481 30.2213 57.1481 32.8387 54.3787L56.203 26.43C58.5375 23.4357 60 20.2463 60 15.8194C60 7.56755 53.8012 0 45 0Z" fill="#76BB20"/>
</svg>
