<svg width="38" height="60" viewBox="0 0 38 60" fill="none" xmlns="http://www.w3.org/2000/svg">
<path d="M31.6852 29.4745C30.1458 29.4745 28.8986 28.2274 28.8986 26.6893V13.5545C28.8986 9.15177 24.4085 5.57181 18.8894 5.57181H18.5284C13.0066 5.57181 8.5165 9.15177 8.5165 13.5545V26.6893C8.5165 28.2274 7.26935 29.4745 5.72993 29.4745C4.19051 29.4745 2.94336 28.2274 2.94336 26.6893V13.5545C2.94336 6.08027 9.93447 0 18.5277 0H18.8887C27.4787 0 34.4698 6.07961 34.4698 13.5545V26.6893C34.4704 28.2274 33.2226 29.4745 31.6852 29.4745Z" fill="#D9D9D9"/>
<path d="M18.9461 20.1016H18.469C8.28631 20.1016 0 27.1914 0 35.9081V44.1931C0 52.9098 8.28631 60.0004 18.469 60.0004H18.9461C29.1302 60.0004 37.4178 52.9091 37.4178 44.1931V35.9075C37.4178 27.1914 29.1302 20.1016 18.9461 20.1016ZM21.4952 46.0668C21.4952 47.6063 20.248 48.8534 18.7086 48.8534C17.1692 48.8534 15.9234 47.6063 15.9234 46.0668V35.2349C15.9234 33.6968 17.1692 32.4496 18.7086 32.4496C20.248 32.4496 21.4952 33.6968 21.4952 35.2349V46.0668Z" fill="#76BB20"/>
</svg>
