<svg width="17" height="13" viewBox="0 0 17 13" fill="none" xmlns="http://www.w3.org/2000/svg">
<path d="M15.7373 4.35938C15.8623 4.26562 16.0498 4.35938 16.0498 4.51562V10.8906C16.0498 11.7344 15.3623 12.3906 14.5498 12.3906H1.5498C0.706055 12.3906 0.0498047 11.7344 0.0498047 10.8906V4.51562C0.0498047 4.35938 0.206055 4.26562 0.331055 4.35938C1.0498 4.92188 1.95605 5.60938 5.14355 7.92188C5.7998 8.39062 6.9248 9.42188 8.0498 9.42188C9.14355 9.42188 10.2998 8.39062 10.9248 7.92188C14.1123 5.60938 15.0186 4.92188 15.7373 4.35938ZM8.0498 8.39062C7.2998 8.42188 6.26855 7.48438 5.7373 7.10938C1.58105 4.10938 1.26855 3.82812 0.331055 3.07812C0.143555 2.95312 0.0498047 2.73438 0.0498047 2.48438V1.89062C0.0498047 1.07812 0.706055 0.390625 1.5498 0.390625H14.5498C15.3623 0.390625 16.0498 1.07812 16.0498 1.89062V2.48438C16.0498 2.73438 15.9248 2.95312 15.7373 3.07812C14.7998 3.82812 14.4873 4.10938 10.3311 7.10938C9.7998 7.48438 8.76855 8.42188 8.0498 8.39062Z" fill="#76BB20"/>
</svg>
