<svg width="11" height="15" viewBox="0 0 11 15" fill="none" xmlns="http://www.w3.org/2000/svg">
<path d="M4.92969 13.9766C0.9375 8.23438 0.226562 7.63281 0.226562 5.5C0.226562 2.60156 2.55078 0.25 5.47656 0.25C8.375 0.25 10.7266 2.60156 10.7266 5.5C10.7266 7.63281 9.98828 8.23438 5.99609 13.9766C5.75 14.3594 5.17578 14.3594 4.92969 13.9766ZM5.47656 7.6875C6.67969 7.6875 7.66406 6.73047 7.66406 5.5C7.66406 4.29688 6.67969 3.3125 5.47656 3.3125C4.24609 3.3125 3.28906 4.29688 3.28906 5.5C3.28906 6.73047 4.24609 7.6875 5.47656 7.6875Z" fill="#76BB20"/>
</svg>
