<svg width="17" height="17" viewBox="0 0 17 17" fill="none" xmlns="http://www.w3.org/2000/svg">
<path d="M15.5811 12.0781C15.8311 12.2031 16.0186 12.4844 16.0186 12.7969C16.0186 12.8281 16.0186 12.8906 16.0186 12.9531L15.2686 16.2031C15.1748 16.5469 14.8936 16.7656 14.5498 16.7656C6.51855 16.7656 0.0498047 10.2969 0.0498047 2.26562C0.0498047 1.92188 0.268555 1.64062 0.612305 1.54688L3.8623 0.796875C3.9248 0.796875 3.9873 0.765625 4.01855 0.765625C4.33105 0.765625 4.6123 0.953125 4.7373 1.23438L6.2373 4.73438C6.26855 4.82812 6.2998 4.92188 6.2998 5.01562C6.2998 5.26562 6.1748 5.48438 6.01855 5.60938L4.1123 7.17188C5.26855 9.60938 7.20605 11.5469 9.64355 12.7031L11.2061 10.7969C11.3311 10.6406 11.5498 10.5156 11.7686 10.5156C11.8936 10.5156 11.9873 10.5469 12.0811 10.5781L15.5811 12.0781Z" fill="#76BB20"/>
</svg>
