<svg width="13" height="20" viewBox="0 0 13 20" fill="none" xmlns="http://www.w3.org/2000/svg">
<path d="M10.7812 0H2.3846C1.57526 0 0.91626 0.659 0.91626 1.46834V18.5314C0.91626 19.341 1.57526 20 2.3846 20H10.781C11.5906 20 12.2496 19.341 12.2496 18.5317V1.46834C12.2496 0.659 11.5906 0 10.7812 0ZM1.58293 2.66666H11.583V15.3334H1.58293V2.66666ZM2.3846 0.666667H10.781C11.2232 0.666667 11.583 1.02634 11.583 1.46834V2H1.58293V1.46834C1.58293 1.02634 1.9426 0.666667 2.3846 0.666667ZM10.7812 19.3334H2.3846C1.9426 19.3334 1.58293 18.9736 1.58293 18.5317V16H11.583V18.5317C11.583 18.9736 11.2232 19.3334 10.7812 19.3334Z" fill="#76BB20"/>
<path d="M6.58287 16.3335C5.84751 16.3335 5.24951 16.9315 5.24951 17.6669C5.24951 18.4021 5.84751 19.0001 6.58287 19.0001C7.31815 19.0001 7.91615 18.4021 7.91615 17.6669C7.91615 16.9315 7.31815 16.3335 6.58287 16.3335ZM6.58287 18.3335C6.21515 18.3335 5.91615 18.0345 5.91615 17.6669C5.91615 17.2991 6.21515 17.0001 6.58287 17.0001C6.95051 17.0001 7.24951 17.2991 7.24951 17.6669C7.24951 18.0345 6.95051 18.3335 6.58287 18.3335Z" fill="#76BB20"/>
</svg>
