<svg width="18" height="20" viewBox="0 0 18 20" fill="none" xmlns="http://www.w3.org/2000/svg">
<path d="M13.0524 5.38806C13.0524 6.82342 12.701 8.08886 12.0373 8.98572C11.3827 9.87036 10.4093 10.4192 9.09126 10.4192C7.77318 10.4192 6.79983 9.87036 6.14518 8.98572C5.48153 8.08886 5.13013 6.82342 5.13013 5.38806C5.13013 3.93313 5.39593 2.67068 6.01148 1.78121C6.60997 0.91638 7.56961 0.359691 9.07997 0.356934C10.6794 0.460739 11.643 1.02519 12.223 1.86177C12.8188 2.7211 13.0524 3.92654 13.0524 5.38806Z" stroke="#76BB20"/>
<path d="M11.5998 11.2344C12.5283 11.7699 15.1549 12.9504 16.0634 13.4124C16.9719 13.8745 17.0625 16.9471 16.5629 17.5541C16.0634 18.1611 11.1204 19.2857 8.99365 19.4464" stroke="#76BB20"/>
<path d="M6.48507 11.2344C5.55656 11.7699 2.93001 12.9504 2.02147 13.4124C1.11293 13.8745 1.02238 16.9471 1.52193 17.5541C2.02147 18.1611 6.9645 19.2857 9.09121 19.4464" stroke="#76BB20"/>
</svg>
