<svg width="10" height="10" viewBox="0 0 10 10" fill="none" xmlns="http://www.w3.org/2000/svg">
<path d="M6.99961 10H2.94961C2.12461 10 1.47461 9.325 1.47461 8.525V4C1.47461 3.85 1.57461 3.75 1.72461 3.75C1.87461 3.75 1.97461 3.85 1.97461 4V8.525C1.97461 9.075 2.42461 9.5 2.94961 9.5H6.99961C7.54961 9.5 7.97461 9.05 7.97461 8.525V4C7.97461 3.85 8.07461 3.75 8.22461 3.75C8.37461 3.75 8.47461 3.85 8.47461 4V8.525C8.47461 9.325 7.79961 10 6.99961 10Z" fill="#A3A3A3"/>
<path d="M8.32461 1.225H6.42461C6.29961 0.525 5.69961 0 4.97461 0C4.24961 0 3.64961 0.525 3.52461 1.225H1.62461C1.04961 1.225 0.599609 1.675 0.599609 2.25C0.599609 2.825 1.04961 3.25 1.62461 3.25H8.34961C8.92461 3.25 9.37461 2.8 9.37461 2.225C9.37461 1.65 8.89961 1.225 8.32461 1.225ZM4.97461 0.5C5.42461 0.5 5.79961 0.8 5.89961 1.225H4.02461C4.14961 0.8 4.52461 0.5 4.97461 0.5ZM8.32461 2.75H1.62461C1.34961 2.75 1.09961 2.525 1.09961 2.225C1.09961 1.95 1.32461 1.7 1.62461 1.7H8.34961C8.62461 1.7 8.87461 1.925 8.87461 2.225C8.84961 2.525 8.62461 2.75 8.32461 2.75Z" fill="#A3A3A3"/>
<path d="M3.22461 8.77461C3.07461 8.77461 2.97461 8.67461 2.97461 8.52461V4.34961C2.97461 4.19961 3.07461 4.09961 3.22461 4.09961C3.37461 4.09961 3.47461 4.19961 3.47461 4.34961V8.52461C3.47461 8.64961 3.34961 8.77461 3.22461 8.77461Z" fill="#A3A3A3"/>
<path d="M6.72461 8.77461C6.57461 8.77461 6.47461 8.67461 6.47461 8.52461V4.34961C6.47461 4.19961 6.57461 4.09961 6.72461 4.09961C6.87461 4.09961 6.97461 4.19961 6.97461 4.34961V8.52461C6.97461 8.64961 6.84961 8.77461 6.72461 8.77461Z" fill="#A3A3A3"/>
<path d="M4.97461 8.77461C4.82461 8.77461 4.72461 8.67461 4.72461 8.52461V4.34961C4.72461 4.19961 4.82461 4.09961 4.97461 4.09961C5.12461 4.09961 5.22461 4.19961 5.22461 4.34961V8.52461C5.22461 8.64961 5.09961 8.77461 4.97461 8.77461Z" fill="#A3A3A3"/>
</svg>
