<svg width="60" height="52" viewBox="0 0 60 52" fill="none" xmlns="http://www.w3.org/2000/svg">
<path d="M56.5263 15.0634V5.67394C56.5247 4.78791 56.316 3.91452 55.9169 3.1235C55.5177 2.33247 54.9392 1.6457 54.2274 1.11802C53.5156 0.590334 52.6904 0.236346 51.8175 0.0843093C50.9446 -0.0677276 50.0483 -0.0136032 49.2 0.242363L4.22105 14.8108H4.21053C3.00418 15.1363 1.9384 15.8495 1.1775 16.8406C0.416598 17.8317 0.00283294 19.0455 0 20.295V45.7371C0.00250504 47.2439 0.60218 48.6882 1.66763 49.7537C2.73309 50.8191 4.17743 51.4188 5.68421 51.4213H54.3158C55.8226 51.4188 57.2669 50.8191 58.3324 49.7537C59.3978 48.6882 59.9975 47.2439 60 45.7371V20.295C59.999 19.1782 59.669 18.0864 59.0512 17.156C58.4334 16.2255 57.5552 15.4977 56.5263 15.0634ZM49.8211 2.25289C50.3544 2.09412 50.9175 2.06192 51.4655 2.15885C52.0135 2.25579 52.5313 2.47918 52.9779 2.81128C53.4245 3.14339 53.7874 3.57505 54.0379 4.07199C54.2885 4.56892 54.4196 5.11743 54.4211 5.67394V14.6213C54.3895 14.6213 54.3474 14.6108 54.3158 14.6108H11.6526L49.8211 2.25289ZM2.10526 22.5055H41.5789C43.3396 22.5053 45.0721 22.9476 46.6171 23.7919C48.1622 24.6362 49.4702 25.8552 50.4211 27.3371H34.2105C32.8147 27.3371 31.4759 27.8916 30.4889 28.8786C29.5019 29.8657 28.9474 31.2044 28.9474 32.6003V33.4318C28.9474 34.123 29.0835 34.8074 29.348 35.446C29.6125 36.0845 30.0002 36.6647 30.4889 37.1535C30.9776 37.6422 31.5578 38.0299 32.1964 38.2944C32.835 38.5589 33.5194 38.695 34.2105 38.695H50.4211C50.0233 39.3295 49.5535 39.9158 49.0211 40.4424C48.0462 41.4231 46.8864 42.2006 45.609 42.7301C44.3315 43.2595 42.9618 43.5302 41.5789 43.5266H2.10526V22.5055ZM57.8947 45.7371C57.892 46.6854 57.514 47.5941 56.8434 48.2647C56.1728 48.9353 55.2641 49.3133 54.3158 49.316H5.68421C4.73587 49.3133 3.82716 48.9353 3.15658 48.2647C2.486 47.5941 2.10804 46.6854 2.10526 45.7371V45.6318H41.5789C43.2371 45.6358 44.8796 45.3113 46.4116 44.6772C47.9437 44.043 49.335 43.1118 50.5053 41.9371C51.4543 40.9898 52.2435 39.8949 52.8421 38.695H57.8947V45.7371ZM57.8947 36.5897H34.2105C33.3738 36.5872 32.572 36.2537 31.9803 35.662C31.3886 35.0704 31.0551 34.2686 31.0526 33.4318V32.6003C31.0526 31.7627 31.3853 30.9595 31.9776 30.3673C32.5698 29.7751 33.373 29.4424 34.2105 29.4424H57.8947V36.5897ZM57.8947 27.3371H52.8421C51.7926 25.2501 50.1834 23.4962 48.1944 22.2711C46.2054 21.0461 43.9149 20.3984 41.5789 20.4003H2.10526V20.295C2.10526 19.3458 2.48233 18.4355 3.15351 17.7643C3.8247 17.0931 4.73501 16.716 5.68421 16.716H54.3158C55.265 16.716 56.1753 17.0931 56.8465 17.7643C57.5177 18.4355 57.8947 19.3458 57.8947 20.295V27.3371Z" fill="#76BB20"/>
<path d="M37.5151 33.0107C37.5172 33.3526 37.4177 33.6874 37.2293 33.9727C37.0409 34.2579 36.772 34.4808 36.4567 34.6131C36.1415 34.7454 35.7941 34.7811 35.4585 34.7157C35.1229 34.6502 34.8143 34.4867 34.5719 34.2457C34.3294 34.0046 34.1639 33.6971 34.0964 33.3619C34.029 33.0268 34.0626 32.6791 34.1929 32.3631C34.3232 32.047 34.5445 31.7768 34.8286 31.5866C35.1127 31.3964 35.4469 31.2949 35.7888 31.2949C36.2447 31.2952 36.6821 31.4757 37.0055 31.7971C37.3289 32.1185 37.512 32.5548 37.5151 33.0107Z" fill="#76BB20"/>
</svg>
