<svg width="52" height="52" viewBox="0 0 52 52" fill="none" xmlns="http://www.w3.org/2000/svg">
<path d="M26 0C20.8577 0 15.8309 1.52487 11.5552 4.38179C7.27951 7.2387 3.94702 11.2993 1.97914 16.0502C0.0112663 20.8011 -0.503621 26.0288 0.499594 31.0723C1.50281 36.1158 3.97907 40.7486 7.61523 44.3848C11.2514 48.0209 15.8842 50.4972 20.9277 51.5004C25.9712 52.5036 31.1989 51.9887 35.9498 50.0209C40.7006 48.053 44.7613 44.7205 47.6182 40.4448C50.4751 36.1691 52 31.1423 52 26C52 19.1044 49.2607 12.4912 44.3848 7.61522C39.5088 2.73928 32.8956 0 26 0ZM43.4951 43.4951C38.8551 48.1351 32.5619 50.7418 26 50.7418C19.4381 50.7418 13.1449 48.1351 8.5049 43.4951C3.86491 38.8551 1.25819 32.5619 1.25819 26C1.25819 19.4381 3.86491 13.1449 8.5049 8.50489L8.84001 8.18133C8.7634 8.45053 8.6486 8.70737 8.49912 8.944C8.13512 9.52178 7.52268 9.71244 7.13556 10.2267C6.77379 10.7425 6.50944 11.3201 6.35557 11.9311C6.21112 12.5089 6.29779 13.1964 6.09556 13.7627C5.84134 14.4849 5.37912 14.9182 5.46579 15.7502C6.47112 16.0449 6.04357 14.2596 6.88134 14.1671C7.1529 14.8373 6.97379 16.0738 6.88134 16.8018C6.77734 17.8013 6.5809 18.0498 7.17601 18.9107C7.64979 19.5867 7.80579 20.0662 8.72445 20.1529C9.64312 20.2395 9.9089 20.6267 10.2556 21.4355C10.9027 21.5742 11.2956 21.684 11.3822 22.4004C11.7405 22.6697 12.1213 22.9074 12.5205 23.1111C12.948 23.2267 13.676 22.6142 14.0689 23.1111C14.7449 23.8969 13.2138 25.948 12.9133 26.6587C12.5089 27.6929 12.4511 29.2182 13.4333 29.9635C13.936 30.3449 14.4733 30.5413 14.6409 31.2231C14.8085 31.9049 14.6756 32.3787 14.9587 33.0084C15.4036 33.956 16.4147 34.268 17.1369 34.9902C18.0902 35.9378 18.0209 37.1742 18.0209 38.5147C18.0209 39.8551 18.5582 40.9933 18.7431 42.2818C18.928 43.5702 19.3209 44.8413 19.604 46.1298C19.8178 47.0947 20.6498 48.5564 21.8573 48.36C21.9382 47.9035 21.4645 47.5395 21.4067 47.0889C21.3489 46.6382 21.4702 46.2511 21.4067 45.8062C21.2918 45.4418 21.2708 45.0543 21.3456 44.6796C21.4203 44.3049 21.5884 43.9551 21.8342 43.6627C22.0364 43.3969 22.3196 43.1715 22.5333 42.9058C22.9378 42.38 22.6258 42.536 22.6084 41.964C22.6084 41.2533 22.8049 41.6 23.2324 41.3862C23.4755 41.2038 23.6914 40.9879 23.8738 40.7449C24.3286 40.3461 24.7446 39.905 25.116 39.4275C25.4453 38.9018 25.4049 38.1795 25.74 37.6422C26.0751 37.1049 26.6644 37.024 27.2018 36.6195C27.8951 36.0995 27.612 35.5507 27.7391 34.8342C27.9592 33.5763 28.474 32.3883 29.2413 31.3675C30.1889 30.1658 30.5991 29.1489 29.4436 27.9991C28.8658 27.4213 28.5769 27.5831 27.82 27.3809C27.2422 27.2307 26.7222 26.8031 26.1387 26.7395C25.7862 26.6933 25.5609 26.8204 25.2547 26.7395C24.9484 26.6587 24.9947 26.4738 24.6769 26.4795C24.2089 26.4795 23.5213 27.4675 23.1516 26.8378C22.932 26.4911 23.6022 25.5262 23.5733 25.0582C23.5329 24.4804 23.3191 23.5444 22.7587 23.2267C22.5449 23.1111 22.0711 23.0938 21.8111 22.9898C21.5041 22.8669 21.2099 22.714 20.9329 22.5333C20.5747 22.3022 19.8813 21.8978 19.7196 21.4876C19.2804 21.4876 18.98 21.2276 18.564 21.2333C18.1984 21.3092 17.8275 21.3575 17.4547 21.3778C17.0791 21.3316 16.6631 21.0311 16.2529 21.0889C15.9257 21.2211 15.6185 21.398 15.34 21.6147C14.7227 21.9689 14.0512 22.2188 13.3525 22.3542C12.2778 22.5564 12.0871 22.1462 12.1507 21.1524L11.96 20.8C12.3587 19.6907 11.6422 19.6098 10.8507 19.344C10.7409 18.5524 11.7116 17.992 11.3071 17.1253C10.4867 17.0849 9.57379 19.396 8.89779 18.3964C8.44134 17.732 9.13467 15.8889 9.53912 15.3284C10.2387 14.5533 11.1352 13.9823 12.1333 13.676C12.3798 13.6306 12.6344 13.6691 12.8564 13.7853C13.0785 13.9016 13.2552 14.0889 13.3582 14.3173C13.5836 14.8373 13.2889 15.3227 13.3582 15.912C14.0458 15.7502 13.8667 14.872 13.8378 14.3982C13.7858 13.6124 14.2018 13.6702 14.6005 13.104C14.9991 12.5378 15.028 11.9947 15.4845 11.492C15.8369 11.1049 16.2587 10.6947 16.64 10.3364C17.0213 9.97822 17.5876 9.96666 18.044 9.66622C18.7373 9.204 17.8187 8.34889 18.8471 8.41822C19.2111 8.41822 19.0262 8.66667 19.5116 8.55689C19.783 8.46347 20.0491 8.35546 20.3089 8.23333C21.2853 7.83466 20.592 7.73067 20.1413 7.21644C19.5636 6.55778 20.3782 6.67333 20.9676 6.57511C21.4009 6.5 21.3084 6.36133 21.684 6.61555C22.0596 6.86978 21.8227 7.13555 22.308 7.11822C23.2325 7.08933 22.5911 6.15911 22.3889 5.85289C22.0364 5.32711 21.944 4.95733 21.1987 4.94C21.2891 4.68786 21.2891 4.41214 21.1987 4.16C20.5747 4.24667 20.4649 3.79022 19.9911 3.61111C19.188 3.30489 19.3209 3.95778 18.9916 4.40844C18.6622 4.85911 18.0093 4.78978 17.7667 5.35022C17.524 5.91066 17.7667 6.37867 16.8133 6.22267C16.905 5.84453 16.9246 5.4525 16.8711 5.06711C16.6079 5.02943 16.3487 4.96754 16.0969 4.88222C16.0969 3.94044 17.1369 3.85955 17.8302 3.77289C18.5236 3.68622 18.8818 2.86578 19.5636 2.73289C20.2453 2.6 20.7191 3.67466 21.5107 3.05067C21.9729 2.69822 21.7591 2.47289 21.5916 2.14933C21.5453 2.06267 21.3084 1.85467 21.2507 1.768C21.1929 1.68133 21.2507 1.768 21.2507 1.768C21.8804 1.64089 22.5218 1.54844 23.1631 1.47333C23.3093 1.81183 23.4852 2.13666 23.6889 2.444C23.7929 2.62311 23.9951 2.73867 24.076 2.93511C24.1569 3.13156 23.9489 3.43778 24.2262 3.588C24.6653 3.81911 25.9596 2.30533 26.2369 2.06267C26.5142 1.82 26.8609 1.57733 26.7684 1.27689C28.7816 1.3328 30.7802 1.6355 32.7196 2.17822C32.8756 2.36889 33.0316 2.56533 33.1876 2.756C33.5227 3.224 33.7653 3.64578 34.3431 3.85378C34.6898 3.97511 35.8164 3.952 35.3484 4.76089C34.8804 5.56978 34.4413 4.52978 34.1929 4.29289C33.9444 4.056 32.9969 3.61111 33.0373 4.35644C33.0778 5.46 35.5738 5.28089 35.0364 6.5C35.3369 6.67333 35.9262 6.968 35.828 7.40133C35.7124 7.93867 35.0076 7.59778 35.0249 8.28533C35.039 8.52706 35.1082 8.76237 35.2271 8.97328C35.3461 9.18419 35.5117 9.36512 35.7112 9.50225C35.9108 9.63939 36.1391 9.7291 36.3786 9.76452C36.6181 9.79995 36.8626 9.78016 37.0933 9.70666C38.1449 9.33111 37.3533 7.87511 38.5551 7.72489C38.7666 7.70299 38.9803 7.72902 39.1804 7.80104C39.3804 7.87306 39.5617 7.98921 39.7107 8.14089C40.0573 8.41244 40.2884 9.03644 40.7622 8.99022C40.8084 8.69555 40.5831 8.48178 40.5484 8.21022C41.0582 8.38038 41.5144 8.68119 41.8716 9.08266C42.1951 9.57378 42.1604 10.2729 42.9462 9.66044C42.8249 9.568 42.7671 9.34844 42.7036 9.27333C43.1486 9.24562 43.5915 9.35405 43.9734 9.58421C44.3552 9.81437 44.658 10.1553 44.8413 10.5618C45.8004 12.5089 43.4373 10.9604 43.3218 11.9773C42.744 11.7924 42.4782 11.3244 41.9756 11.0413C41.7329 10.9084 41.2938 10.9836 41.1089 10.8449C40.924 10.7062 40.9182 10.3249 40.6929 10.14C39.8204 9.42355 37.804 10.5849 37.024 11.0471C36.8044 11.1684 36.5733 11.1858 36.4462 11.4169C36.192 11.8213 36.5502 11.9253 36.4462 12.3067C36.3364 12.844 35.6316 13.0924 35.4178 13.52C34.9093 14.56 35.9436 16.0391 35.8049 17.1947C35.7298 17.8302 35.0422 18.5236 35.3022 19.0551C35.4178 19.2862 35.8164 19.4827 35.9667 19.7542C36.0921 20.0429 36.2368 20.3228 36.4 20.592C37.0595 21.4672 37.7634 22.308 38.5089 23.1111C38.6955 23.3178 38.9358 23.4688 39.203 23.5473C39.4701 23.6258 39.7539 23.6288 40.0227 23.556C40.6002 23.4526 41.1656 23.29 41.7098 23.0707C42.2876 22.7818 42.3916 22.3715 43.0271 22.6489C43.5356 22.8684 43.9804 23.5155 44.5698 22.9782C45.0551 23.4578 44.5178 24.284 44.408 24.8155C44.3648 25.1472 44.3941 25.4842 44.4938 25.8034C44.5936 26.1227 44.7614 26.4164 44.9858 26.6644C45.4827 27.3578 45.604 27.4791 45.5 28.3978C45.4191 29.12 45.2342 29.7787 45.084 30.4951C44.9338 31.2115 44.5062 31.6969 44.5062 32.4191C44.5062 33.1413 44.8124 33.6267 44.7258 34.3431C44.6781 35.0172 44.5834 35.6871 44.4427 36.348C44.2751 36.9835 43.8302 37.544 43.6396 38.1911C43.5355 38.5133 43.5089 38.8554 43.5622 39.1898C43.6154 39.5241 43.7468 39.8412 43.9458 40.1151C44.3907 40.6409 44.8356 40.3404 45.3671 39.9418C46.4071 39.1502 46.8809 37.8098 47.5684 36.7467C48.2905 35.738 48.9208 34.6668 49.452 33.5458C49.5535 33.3023 49.6693 33.065 49.7987 32.8351C48.6408 36.8678 46.4709 40.5374 43.4951 43.4951Z" fill="#374F6D"/>
</svg>
