<svg width="73" height="56" viewBox="0 0 73 56" fill="none" xmlns="http://www.w3.org/2000/svg">
<path d="M57.4153 12.7785C57.408 13.5206 57.2376 14.252 56.916 14.9209C56.5944 15.5897 56.1295 16.1796 55.5544 16.6487C54.0633 17.9147 52.3428 18.8824 50.4866 19.4993C49.3946 20.0119 48.2447 20.3908 47.0619 20.6277C42.6374 21.6175 38.0743 21.6175 33.2045 21.6175C28.0179 21.6175 22.663 21.6175 17.1893 22.9043C13.2844 23.6951 9.55092 25.1731 6.16278 27.2694C5.02497 28.233 4.1241 29.4454 3.52987 30.8129C2.20352 34.2574 4.9255 37.0784 7.63759 38.7314C7.75636 38.8106 7.89494 38.87 8.01372 38.9393C7.88749 38.1107 7.96914 37.2638 8.2513 36.4746C8.91447 34.2278 12.9331 32.0502 19.0007 30.6248C23.5835 29.5558 28.2554 29.5558 33.2045 29.5558C38.1535 29.5558 43.4886 29.5558 48.7841 28.3582C52.2683 27.5663 57.0787 26.0222 58.6822 21.766C59.9789 18.6085 58.8901 15.4015 57.4153 12.7785Z" fill="#374F6D"/>
<path d="M63.9185 51.7574C64.3617 51.4913 64.7292 51.1158 64.9857 50.6669C65.2422 50.218 65.3791 49.7108 65.3834 49.1938V42.6709C64.7796 42.275 64.156 41.9088 63.5225 41.5623V49.1938C63.5218 49.3934 63.4694 49.5894 63.3706 49.7629C63.2717 49.9363 63.1297 50.0812 62.9583 50.1836L61.048 51.3219C61.5707 51.7044 62.0728 52.114 62.5525 52.5492L63.9185 51.7574Z" fill="white"/>
<path d="M46.953 28.7244V25.8935C47.7945 25.3859 48.5252 24.7143 49.1016 23.9184C49.6781 23.1226 50.0885 22.2189 50.3085 21.2612C50.3147 21.2152 50.3147 21.1686 50.3085 21.1226C50.3162 21.0238 50.3162 20.9245 50.3085 20.8257C50.3017 20.4182 50.1818 20.0207 49.9621 19.6775C49.0003 20.0635 48.0067 20.3649 46.9926 20.5782C42.5682 21.568 38.0051 21.568 33.1352 21.568C27.9486 21.568 22.5937 21.568 17.1201 22.8548C16.1303 23.0824 15.1404 23.3398 14.2694 23.607C14.9096 24.4995 15.704 25.2705 16.6153 25.8836V31.2286C17.3477 31.0108 18.1198 30.8129 18.9314 30.6149C23.5143 29.5459 28.1862 29.5459 33.1352 29.5459C37.7564 29.6821 42.3805 29.4072 46.953 28.7244Z" fill="white"/>
<path d="M46.1512 44.5118V25.4381C48.8534 23.7258 49.4176 21.7659 49.5265 21.0731C49.5265 21.0731 49.5265 21.0731 49.5265 20.9939C49.5265 20.9147 49.5265 20.8058 49.5265 20.8058C49.5265 18.2323 41.608 16.1438 31.8089 16.1438C22.0097 16.1438 14.0813 18.2323 14.0813 20.8058C14.0767 20.8684 14.0767 20.9313 14.0813 20.9939C14.0765 21.0201 14.0765 21.0469 14.0813 21.0731C14.1902 21.7659 14.7544 23.7258 17.4566 25.4381V44.5118C15.3186 45.5808 14.0516 46.8874 14.0516 48.3028C14.0516 51.8661 21.9701 54.7465 31.7792 54.7465C41.5882 54.7465 49.4968 51.8661 49.4968 48.3028C49.5562 46.8874 48.2892 45.5808 46.1512 44.5118Z" fill="#374F6D"/>
<path d="M49.5562 20.8257C49.4696 21.2843 49.2705 21.7143 48.9768 22.077C48.6832 22.4398 48.3041 22.724 47.8735 22.9043C46.8102 23.4922 45.6759 23.9413 44.4983 24.2405C41.9281 24.9361 39.2957 25.377 36.6391 25.557C31.0889 26.0706 25.4922 25.6963 20.0598 24.4484C18.7169 24.1482 17.4144 23.6897 16.1797 23.0824C15.2691 22.6073 14.2001 21.9243 14.111 20.796C14.223 21.2349 14.4401 21.64 14.7436 21.9763C15.0471 22.3125 15.4279 22.5699 15.8531 22.7261C16.9573 23.2635 18.1198 23.672 19.3174 23.9436C21.8796 24.5436 24.4896 24.9179 27.1171 25.0621C32.6309 25.5173 38.1812 25.2008 43.6074 24.1217C44.9128 23.8565 46.1867 23.4551 47.4083 22.9241C48.3288 22.538 49.4176 21.9243 49.5562 20.8257Z" fill="white"/>
<path d="M31.8385 21.3404C33.7081 21.3404 35.2237 20.9415 35.2237 20.4495C35.2237 19.9576 33.7081 19.5587 31.8385 19.5587C29.9689 19.5587 28.4533 19.9576 28.4533 20.4495C28.4533 20.9415 29.9689 21.3404 31.8385 21.3404Z" fill="white"/>
<path d="M18.1099 48.3029C19.5651 49.0899 21.1577 49.5906 22.8016 49.7777C24.6864 50.0744 26.5866 50.2628 28.493 50.3419C32.3987 50.5635 36.3168 50.4077 40.1926 49.8767C42.0713 49.7163 43.8988 49.1812 45.5673 48.3029C44.1667 49.225 42.583 49.8328 40.925 50.0845C39.0382 50.4665 37.1261 50.7113 35.2039 50.817C31.2633 51.0916 27.3038 50.8789 23.4152 50.1835C21.5279 49.9634 19.7145 49.3205 18.1099 48.3029Z" fill="white"/>
<path d="M29.9678 28.2294C27.6617 28.3192 25.3531 28.1398 23.0886 27.695C21.1202 27.3088 19.2343 26.5819 17.516 25.5471V26.428C19.252 27.2581 21.1044 27.8188 23.0094 28.0909C25.3151 28.4141 27.6511 28.4606 29.9678 28.2294Z" fill="white"/>
<path d="M21.792 29.9022C24.3767 30.4046 27.0209 30.5279 29.6412 30.2685C27.3956 30.337 25.1498 30.141 22.95 29.6845C21.03 29.2972 19.1916 28.5806 17.516 27.5663V28.467L17.6446 28.5264C18.968 29.1468 20.3601 29.6086 21.792 29.9022Z" fill="white"/>
<path d="M21.7227 31.9115C24.2221 32.3995 26.7779 32.5328 29.3145 32.3074C27.1533 32.3425 24.995 32.1333 22.8808 31.6838C20.9847 31.3049 19.1692 30.5981 17.516 29.5953V30.4961H17.6347C18.9375 31.1257 20.3095 31.6007 21.7227 31.9115Z" fill="white"/>
<path d="M21.5643 33.8812C24.005 34.3816 26.5038 34.5382 28.9879 34.3464C26.8609 34.3515 24.7399 34.1225 22.663 33.6635C20.8448 33.2731 19.105 32.5805 17.516 31.6146V32.5153H17.5654C18.8434 33.118 20.1847 33.5761 21.5643 33.8812Z" fill="white"/>
<path d="M21.5642 35.9005C23.8977 36.3777 26.2845 36.5408 28.6612 36.3855C26.6635 36.3513 24.6742 36.1192 22.7223 35.6926C20.8919 35.3068 19.141 34.6104 17.5456 33.6338V34.5444H17.5951C18.8634 35.143 20.1948 35.5979 21.5642 35.9005Z" fill="white"/>
<path d="M28.3346 38.4245C26.3335 38.3665 24.3436 38.1045 22.3957 37.6425C20.6767 37.2483 19.0324 36.5799 17.5259 35.6629V36.5636C18.7399 37.1377 20.015 37.5727 21.3268 37.8603C23.6281 38.3535 25.984 38.5432 28.3346 38.4245Z" fill="white"/>
<path d="M28.008 40.4635C26.0652 40.3757 24.1356 40.0972 22.2473 39.6321C20.5751 39.2276 18.978 38.5593 17.516 37.6525V38.5532C18.6038 39.0698 19.7413 39.4744 20.911 39.7608C23.2363 40.3011 25.6219 40.5373 28.008 40.4635Z" fill="white"/>
<path d="M27.6813 42.5026C25.825 42.3794 23.9833 42.0912 22.178 41.6415C20.5278 41.236 18.9537 40.5676 17.516 39.6619V40.5626C18.5524 41.0477 19.6329 41.4322 20.7428 41.7108C23.0121 42.2711 25.3441 42.5373 27.6813 42.5026Z" fill="white"/>
<path d="M27.3547 44.5416C25.5359 44.3908 23.734 44.0795 21.9701 43.6112C20.396 43.2218 18.8929 42.5871 17.516 41.7305V42.6313C18.5008 43.0986 19.5283 43.4698 20.5844 43.7398C22.7998 44.2834 25.0736 44.5527 27.3547 44.5416Z" fill="white"/>
<path d="M27.0281 46.5805C25.2983 46.3897 23.5869 46.0587 21.9108 45.5907C20.3583 45.1922 18.8762 44.5579 17.516 43.7101V44.4722L17.3675 44.5514C18.7485 45.2225 20.2133 45.7052 21.7227 45.9867C23.4714 46.3328 25.2461 46.5314 27.0281 46.5805Z" fill="white"/>
<path d="M45.1218 37.3159C37.9754 37.3159 30.73 38.6522 24.3358 39.83L23.8804 39.9092C21.7789 40.2981 19.6517 40.533 17.516 40.612V44.4822C15.378 45.5512 14.111 46.8577 14.111 48.2731C14.1235 49.0096 14.4092 49.7152 14.9127 50.2528H16.2589C19.3974 50.2315 22.5277 49.93 25.6126 49.352L26.058 49.2729C32.3533 48.1148 38.8662 46.9171 45.0723 46.9171C46.4673 46.914 47.8616 46.9834 49.2494 47.125C48.5101 45.9559 47.4282 45.0433 46.1512 44.5119V37.3654L45.1218 37.3159Z" fill="white"/>
<path d="M24.4743 40.6418L24.0289 40.7209C17.1794 41.978 10.7555 41.6118 8.67691 39.8895C6.0737 38.6621 3.43088 36.7221 2.62914 34.0298C2.23342 32.7207 2.33204 31.3118 2.90628 30.0706C1.87344 31.2674 1.10149 32.6664 0.639632 34.1783C-0.963865 39.6124 0.748487 43.0272 2.47076 44.9375C7.91473 50.9952 20.3666 49.4709 25.4641 48.5306L25.9194 48.4514C38.8761 46.0659 53.555 43.3637 63.1661 51.9553L68.4814 46.0164C55.9603 34.8514 38.5 38.0583 24.4743 40.6418Z" fill="#374F6D"/>
<path d="M35.8275 13.2635C43.4491 11.6006 46.8045 11.2839 49.3484 14.9066C50.1305 15.9309 50.7575 17.0649 51.2092 18.2719C52.6751 17.7617 54.0366 16.9904 55.2278 15.9954C55.8626 15.5139 56.3424 14.857 56.608 14.1059C56.8736 13.3548 56.9134 12.5423 56.7224 11.7689C56.6818 11.6273 56.6322 11.4884 56.574 11.3531C56.3364 10.9869 56.0989 10.6405 55.8712 10.3138C50.0214 2.00932 41.2121 3.92955 34.0953 5.47366C31.3935 6.16873 28.6272 6.58335 25.8403 6.71093C20.9466 6.7755 16.1157 5.60437 11.7949 3.30597L7.8356 10.2347C13.355 13.2237 19.544 14.7599 25.8205 14.6987C29.1986 14.5878 32.5544 14.1065 35.8275 13.2635Z" fill="#374F6D"/>
<path d="M3.90603 35.465L0.95639 37.5535L4.0842 35.7323L3.90603 35.465Z" fill="white"/>
<path d="M5.89557 37.9594L2.79745 40.325L6.08363 38.2167L5.89557 37.9594Z" fill="white"/>
<path d="M5.82626 43.4726L8.2612 39.7707L7.98406 39.6123L5.82626 43.4726Z" fill="white"/>
<path d="M9.72614 45.0167L10.8941 40.8991L10.5873 40.8199L9.72614 45.0167Z" fill="white"/>
<path d="M13.5765 45.6006L14.0516 41.3939H13.7448L13.5765 45.6006Z" fill="white"/>
<path d="M17.3476 45.6799V41.4534H17.0507L17.3476 45.6799Z" fill="white"/>
<path d="M20.2874 41.2751L20.8912 45.5709L20.5943 41.2355L20.2874 41.2751Z" fill="white"/>
<path d="M4.76712 36.9398L2.7677 38.4047L4.94529 37.207L4.76712 36.9398Z" fill="white"/>
<path d="M7.06348 38.8303L5.06406 40.9683L7.28124 39.0579L7.06348 38.8303Z" fill="white"/>
<path d="M8.29089 43.0074L9.45887 40.3844L9.18172 40.2359L8.29089 43.0074Z" fill="white"/>
<path d="M11.8641 43.8982L12.4085 41.2059H12.1214L11.8641 43.8982Z" fill="white"/>
<path d="M15.477 44.1853L15.6848 41.4633H15.3879L15.477 44.1853Z" fill="white"/>
<path d="M18.7433 41.3841L19.0798 44.0961V41.3643L18.7433 41.3841Z" fill="white"/>
<path d="M21.6138 41.097L22.1285 43.7794L21.9008 41.0574L21.6138 41.097Z" fill="white"/>
<path d="M22.6927 40.9485L23.4648 45.1354L22.96 40.899L22.6927 40.9485Z" fill="white"/>
<path d="M26.1075 40.3448L27.0281 44.5119L26.4045 40.2854L26.1075 40.3448Z" fill="white"/>
<path d="M29.6115 39.7212L30.4826 43.8982L29.8887 39.6717L29.6115 39.7212Z" fill="white"/>
<path d="M33.155 39.157L33.9271 43.3439L33.452 39.1075L33.155 39.157Z" fill="white"/>
<path d="M36.7281 38.672L37.3715 42.8886L37.0251 38.6423L36.7281 38.672Z" fill="white"/>
<path d="M40.3311 38.3057L40.7963 42.5223L40.638 38.3057H40.3311Z" fill="white"/>
<path d="M44.2013 42.4036L44.2904 38.1474H43.9835L44.2013 42.4036Z" fill="white"/>
<path d="M47.5865 42.463L47.9725 38.2266H47.6657L47.5865 42.463Z" fill="white"/>
<path d="M50.9122 42.7895L51.6744 38.5729H51.3676L50.9122 42.7895Z" fill="white"/>
<path d="M54.1588 43.4231L55.3664 39.2659L55.0595 39.1966L54.1588 43.4231Z" fill="white"/>
<path d="M57.2767 44.403L58.999 40.3744L58.702 40.2656L57.2767 44.403Z" fill="white"/>
<path d="M62.2456 41.7701L60.2165 45.7591L62.5326 41.9186L62.2456 41.7701Z" fill="white"/>
<path d="M24.4743 40.6417H24.3456L24.989 43.334L24.6426 40.5922L24.4743 40.6417Z" fill="white"/>
<path d="M27.8397 40.0281L28.4732 42.7204L28.1366 39.9786L27.8397 40.0281Z" fill="white"/>
<path d="M31.3634 39.4341L31.9474 42.1264L31.6604 39.3846L31.3634 39.4341Z" fill="white"/>
<path d="M34.9169 38.8996L35.4316 41.6117L35.2138 38.86L34.9169 38.8996Z" fill="white"/>
<path d="M38.5099 38.4839L38.9158 41.2058L38.797 38.4542L38.5099 38.4839Z" fill="white"/>
<path d="M42.4098 40.9584V38.2067H42.1029L42.4098 40.9584Z" fill="white"/>
<path d="M45.9038 40.8991L46.1018 38.1573H45.8048L45.9038 40.8991Z" fill="white"/>
<path d="M49.3781 41.097L49.7938 38.3552H49.4968L49.3781 41.097Z" fill="white"/>
<path d="M52.8127 41.582L53.4957 38.8699H53.1987L52.8127 41.582Z" fill="white"/>
<path d="M56.1682 42.4234L57.158 39.7608L56.861 39.6717L56.1682 42.4234Z" fill="white"/>
<path d="M60.7015 41.0475L60.464 40.9485L59.385 43.6606L60.7609 41.0772L60.7015 41.0475Z" fill="white"/>
<path d="M63.9085 42.6907L62.3941 45.3236L64.1856 42.849L63.9085 42.6907Z" fill="white"/>
<path d="M17.021 5.46375L16.0312 9.67045L17.2883 5.55283L17.021 5.46375Z" fill="white"/>
<path d="M20.2676 6.216L19.7628 10.4425L20.5745 6.26549L20.2676 6.216Z" fill="white"/>
<path d="M23.4845 10.8583L23.9497 6.63177H23.6428L23.4845 10.8583Z" fill="white"/>
<path d="M26.9192 6.63177L27.3151 10.8484L27.1964 6.63177H26.9192Z" fill="white"/>
<path d="M30.1756 6.26549L31.0368 10.4425L30.4726 6.216L30.1756 6.26549Z" fill="white"/>
<path d="M33.5509 5.64197L34.61 9.77939L33.8479 5.52319L33.5509 5.64197Z" fill="white"/>
<path d="M37.045 4.85004L38.0348 9.00725L37.3518 4.79065L37.045 4.85004Z" fill="white"/>
<path d="M40.7172 4.27603L41.3408 8.46294L41.024 4.24634L40.7172 4.27603Z" fill="white"/>
<path d="M44.4686 8.36387L44.9239 4.15717H44.6171L44.4686 8.36387Z" fill="white"/>
<path d="M47.2301 8.97754L49.0217 5.01829L48.7247 4.91931L47.2301 8.97754Z" fill="white"/>
<path d="M52.882 7.10683L52.6246 6.91876L49.7343 10.2247L52.882 7.10683Z" fill="white"/>
<path d="M14.7048 7.70078L15.6946 5.04808L15.3977 4.9491L14.7048 7.70078Z" fill="white"/>
<path d="M18.6146 5.87952L18.1989 8.6114L18.9116 5.91911L18.6146 5.87952Z" fill="white"/>
<path d="M21.7622 9.19529L22.2076 6.4931H21.9107L21.7622 9.19529Z" fill="white"/>
<path d="M25.3553 9.42297L25.5532 6.70099H25.2563L25.3553 9.42297Z" fill="white"/>
<path d="M28.5029 6.52287L28.9879 9.22506L28.7998 6.48328L28.5029 6.52287Z" fill="white"/>
<path d="M31.8682 5.94873L32.5512 8.63113L32.1553 5.88934L31.8682 5.94873Z" fill="white"/>
<path d="M35.2633 5.21625L35.9958 7.88875L35.5603 5.15686L35.2633 5.21625Z" fill="white"/>
<path d="M38.7969 4.53338L39.4007 7.21577L39.0939 4.48389L38.7969 4.53338Z" fill="white"/>
<path d="M42.8651 6.83965L42.9146 4.12756H42.6176L42.8651 6.83965Z" fill="white"/>
<path d="M46.2106 7.08704L46.9332 4.41454L46.6362 4.36505L46.2106 7.08704Z" fill="white"/>
<path d="M50.8528 5.77057L49.4968 8.15602L51.1102 5.91904L50.8528 5.77057Z" fill="white"/>
<path d="M54.0302 8.14615L53.8124 7.93829L51.7635 9.71996L54.0302 8.14615Z" fill="white"/>
<path d="M55.0595 9.29439L54.8615 9.04694L51.4368 11.6699L55.0595 9.29439Z" fill="white"/>
<path d="M53.0502 14.2632L57.1777 12.3727L57.0194 12.1054L53.0502 14.2632Z" fill="white"/>
<path d="M56.1285 10.7196L55.9503 10.4623L53.5748 12.1054L56.1285 10.7196Z" fill="white"/>
<path d="M72.5495 49.7281L68.2834 45.7689C68.2296 45.7151 68.1566 45.6849 68.0805 45.6849C68.0044 45.6849 67.9314 45.7151 67.8776 45.7689C67.7045 45.9507 67.4895 46.0873 67.2513 46.1667C67.0132 46.2461 66.7592 46.2659 66.5116 46.2242C66.0234 46.138 65.5213 46.1754 65.0512 46.3331C64.5811 46.4907 64.158 46.7636 63.8204 47.1267C63.4828 47.4899 63.2416 47.9318 63.1186 48.4121C62.9957 48.8925 62.995 49.3959 63.1166 49.8766C63.1773 50.1229 63.1756 50.3804 63.1116 50.6258C63.0477 50.8712 62.9235 51.0968 62.7504 51.2821C62.6966 51.336 62.6663 51.409 62.6663 51.4851C62.6663 51.5612 62.6966 51.6341 62.7504 51.688L67.0065 55.6472C67.1159 55.7554 67.2635 55.8161 67.4173 55.8161C67.5711 55.8161 67.7187 55.7554 67.8281 55.6472L72.5693 50.5497C72.6749 50.4378 72.7321 50.2887 72.7284 50.1348C72.7246 49.981 72.6604 49.8348 72.5495 49.7281Z" fill="#374F6D"/>
<path d="M63.6313 51.4406C63.7866 51.1814 63.8885 50.8937 63.931 50.5945C63.9735 50.2954 63.9558 49.9907 63.8788 49.6985C63.7911 49.3526 63.7913 48.9903 63.8795 48.6445C63.9676 48.2987 64.141 47.9805 64.3836 47.7189C64.5829 47.4998 64.826 47.3249 65.097 47.2056C65.3681 47.0862 65.6612 47.025 65.9574 47.026C66.089 47.0109 66.2218 47.0109 66.3533 47.026C66.4917 47.0357 66.6307 47.0357 66.7691 47.026C67.2368 47.0237 67.6926 46.8787 68.0756 46.6103L71.8468 50.1835L67.4025 54.9643L63.6313 51.4406Z" fill="white"/>
<path d="M63.1068 49.9063C62.9785 49.4227 62.9745 48.9146 63.0952 48.429C63.2158 47.9435 63.4572 47.4963 63.7968 47.129C64.1365 46.7617 64.5635 46.4862 65.0381 46.328C65.5127 46.1698 66.0196 46.1341 66.5117 46.2242C66.7616 46.2663 67.0181 46.2459 67.2582 46.1647C67.4983 46.0835 67.7145 45.9441 67.8876 45.759C67.2046 46.3034 66.5612 45.9668 65.7891 45.9668C65.3784 45.9655 64.9718 46.0494 64.5951 46.2133C64.2185 46.3772 63.8799 46.6174 63.6008 46.9188C63.3217 47.2202 63.1082 47.5762 62.9737 47.9644C62.8393 48.3525 62.7868 48.7644 62.8197 49.1738C62.8692 49.9459 63.2552 50.5497 62.7603 51.2821C62.9253 51.0981 63.043 50.8767 63.1034 50.637C63.1637 50.3973 63.1649 50.1465 63.1068 49.9063Z" fill="white"/>
<path d="M65.8782 50.52C65.511 50.5227 65.1568 50.3846 64.8884 50.134C64.7491 50.0087 64.6369 49.8563 64.5586 49.6861C64.4803 49.5159 64.4376 49.3315 64.4331 49.1442C64.4246 48.7778 64.5596 48.4227 64.8092 48.1544C64.9372 48.0159 65.0912 47.9039 65.2625 47.825C65.4337 47.746 65.6189 47.7016 65.8073 47.6943C65.9958 47.6869 66.1838 47.7168 66.3607 47.7821C66.5376 47.8475 66.6999 47.9471 66.8383 48.0752C67.1157 48.335 67.2795 48.6937 67.2944 49.0735C67.3092 49.4533 67.1738 49.8236 66.9175 50.1043C66.6612 50.3831 66.3058 50.5501 65.9277 50.5695L65.8782 50.52ZM65.8782 48.1742C65.7516 48.1737 65.6264 48.1996 65.5104 48.2502C65.3944 48.3009 65.2902 48.3751 65.2046 48.4683C65.1189 48.5614 65.0536 48.6714 65.0127 48.7911C64.9719 48.9109 64.9566 49.0379 64.9676 49.164C64.9714 49.2832 64.9988 49.4004 65.0483 49.5089C65.0977 49.6174 65.1683 49.7149 65.2557 49.796C65.3432 49.877 65.4459 49.9399 65.5578 49.9809C65.6698 50.0219 65.7888 50.0403 65.9079 50.035C66.0258 50.0313 66.1417 50.004 66.2488 49.9547C66.3559 49.9054 66.452 49.8351 66.5315 49.748C66.6494 49.6188 66.7276 49.4583 66.7568 49.2859C66.7859 49.1134 66.7648 48.9362 66.6959 48.7754C66.627 48.6146 66.5132 48.4771 66.3682 48.3792C66.2232 48.2814 66.0531 48.2274 65.8782 48.2237V48.1742Z" fill="#374F6D"/>
<path d="M6.99424 0.267238L11.9433 3.29606C11.976 3.31542 12.0045 3.34105 12.0271 3.37149C12.0498 3.40192 12.0662 3.43655 12.0754 3.47337C12.0846 3.51019 12.0864 3.54847 12.0807 3.586C12.0751 3.62353 12.062 3.65955 12.0423 3.69199C11.9087 3.90679 11.8314 4.15181 11.8175 4.40441C11.8037 4.657 11.8538 4.90901 11.9631 5.13712C12.1802 5.58391 12.2817 6.07801 12.2584 6.57419C12.2351 7.07038 12.0876 7.55278 11.8296 7.97724C11.5716 8.4017 11.2112 8.75465 10.7815 9.00377C10.3517 9.2529 9.86635 9.39023 9.36979 9.40321C9.11541 9.40904 8.86669 9.47929 8.64685 9.60739C8.42701 9.73549 8.24324 9.91725 8.11273 10.1357C8.09355 10.1686 8.06779 10.1972 8.03707 10.2196C8.00634 10.2421 7.97133 10.2581 7.93418 10.2664C7.89703 10.2748 7.85855 10.2754 7.82115 10.2682C7.78375 10.2611 7.74824 10.2463 7.71681 10.2248L2.76775 7.19593C2.70245 7.15722 2.64549 7.10595 2.60013 7.04508C2.55478 6.98421 2.52194 6.91495 2.50353 6.84131C2.48512 6.76767 2.4815 6.69111 2.49287 6.61606C2.50424 6.54101 2.53037 6.46896 2.56978 6.40408L6.2024 0.465201C6.24111 0.399903 6.29238 0.342928 6.35325 0.297575C6.41412 0.252221 6.48336 0.21939 6.557 0.200979C6.63064 0.182569 6.7072 0.178945 6.78225 0.190318C6.8573 0.201691 6.92936 0.227836 6.99424 0.267238Z" fill="#374F6D"/>
<path d="M3.37155 6.63173L6.76663 1.05908L11.1614 3.74147C11.061 4.02586 11.0189 4.32754 11.0376 4.62853C11.0564 4.92952 11.1355 5.22367 11.2703 5.49344C11.4354 5.8197 11.5145 6.18272 11.5001 6.54811C11.4857 6.9135 11.3783 7.26917 11.188 7.58142C10.9976 7.89366 10.7308 8.15215 10.4126 8.33239C10.0944 8.51262 9.73548 8.60864 9.36981 8.61135C9.0683 8.61593 8.77083 8.68143 8.49527 8.8039C8.21971 8.92637 7.97177 9.10329 7.76632 9.32402L3.37155 6.63173Z" fill="white"/>
<path d="M12.4184 5.77062C12.2204 5.01837 11.7156 4.50366 12.062 3.69202C11.9284 3.90682 11.8511 4.15184 11.8372 4.40443C11.8234 4.65702 11.8735 4.90903 11.9828 5.13714C12.1999 5.58393 12.3014 6.07804 12.2781 6.57422C12.2548 7.0704 12.1074 7.55281 11.8493 7.97727C11.5913 8.40173 11.231 8.75467 10.8012 9.0038C10.3715 9.25292 9.88609 9.39026 9.38953 9.40324C9.13515 9.40907 8.8864 9.47932 8.66656 9.60742C8.44672 9.73552 8.26295 9.91727 8.13245 10.1357C8.69664 9.45273 9.37961 9.67049 10.1121 9.50222C10.5151 9.42229 10.8971 9.25959 11.234 9.02443C11.5709 8.78927 11.8553 8.48676 12.0693 8.13603C12.2833 7.7853 12.4221 7.39398 12.4771 6.98683C12.5321 6.57967 12.502 6.16554 12.3887 5.77062H12.4184Z" fill="white"/>
<path d="M9.39944 7.83936C9.13402 7.84302 8.87309 7.77091 8.6472 7.6315C8.48559 7.53311 8.34501 7.40374 8.23358 7.25083C8.12215 7.09792 8.04203 6.92449 7.99788 6.7405C7.95372 6.55652 7.94639 6.36563 7.97628 6.1788C8.00618 5.99197 8.07272 5.81289 8.17208 5.65187C8.3724 5.3262 8.69209 5.09176 9.06291 4.99859C9.43289 4.91194 9.82213 4.97449 10.1463 5.17272C10.4705 5.37094 10.7036 5.68888 10.7951 6.05769C10.885 6.42861 10.8245 6.82002 10.6268 7.14649C10.4999 7.35846 10.3199 7.53378 10.1048 7.65525C9.88959 7.77671 9.64653 7.84016 9.39944 7.83936ZM9.39944 5.5034H9.19159C9.07473 5.5287 8.96432 5.57779 8.86726 5.6476C8.77019 5.71742 8.68854 5.80648 8.62739 5.90922C8.49613 6.11399 8.45159 6.3625 8.50357 6.6001C8.55554 6.8377 8.69977 7.04493 8.90453 7.17618C9.10929 7.30744 9.35782 7.35198 9.59542 7.30001C9.83302 7.24803 10.0402 7.1038 10.1715 6.89904C10.2353 6.79866 10.2779 6.68628 10.2966 6.56882C10.3154 6.45136 10.3098 6.33131 10.2804 6.21607C10.2178 5.98513 10.0736 5.7847 9.87456 5.65187C9.73142 5.56272 9.56787 5.51161 9.39944 5.5034Z" fill="#374F6D"/>
</svg>
