<svg width="30" height="100" viewBox="0 0 30 100" fill="none" xmlns="http://www.w3.org/2000/svg">
<path d="M29.4358 98.3718C29.393 98.1991 29.2843 98.0499 29.1328 97.9565C28.9814 97.863 28.7994 97.8326 28.6258 97.8718C28.1872 97.9607 27.7426 98.0175 27.2958 98.0418C26.4207 98.1055 25.5425 97.9723 24.7258 97.6518C23.8599 97.2832 23.1517 96.621 22.7258 95.7818C22.6658 95.6718 22.6258 95.5718 22.5758 95.4618C22.5258 95.3518 22.5758 95.3718 22.5058 95.3118L22.4258 95.1018C22.3258 94.8318 22.2258 94.5718 22.1358 94.3018C21.9285 93.7381 21.6881 93.1871 21.4158 92.6518C21.2758 92.4018 21.1358 92.1418 20.9858 91.8918C20.8358 91.6418 20.6758 91.4118 20.5058 91.1818C20.3358 90.9518 20.1658 90.7418 19.9858 90.5418C19.8059 90.3452 19.6156 90.1582 19.4158 89.9818C19.2319 89.8138 19.0383 89.6569 18.8358 89.5118L18.5458 89.3118L18.2458 89.1418C17.9018 88.9559 17.54 88.8051 17.1658 88.6918L16.6658 88.5818V63.9718C16.6645 63.6266 16.5712 63.288 16.3954 62.991C16.2196 62.6939 15.9677 62.4491 15.6658 62.2818V52.5618H22.1458C22.5999 52.5528 23.0375 52.3895 23.3865 52.0987C23.7354 51.8079 23.975 51.4069 24.0658 50.9618C24.7258 47.3218 25.9858 38.4818 23.4258 35.1818L23.1258 34.7818C22.1677 33.4107 21.5899 31.8103 21.4511 30.1433C21.3124 28.4764 21.6176 26.8025 22.3358 25.2918C24.1358 21.4118 27.6658 13.1518 24.4258 12.0918C22.1452 11.3291 19.9989 10.2121 18.0658 8.78182C17.7418 8.53896 17.5235 8.181 17.4558 7.78182L17.1958 6.01182C17.1696 5.84487 17.0847 5.69273 16.9564 5.58275C16.8281 5.47277 16.6648 5.41216 16.4958 5.41182H16.4358C16.4358 5.41182 16.9658 4.86182 16.2058 4.34183C16.0397 4.24435 15.9001 4.10772 15.799 3.94388C15.6979 3.78003 15.6384 3.59393 15.6258 3.40182C15.8969 3.24073 16.1221 3.01264 16.2797 2.73946C16.4373 2.46629 16.522 2.15718 16.5258 1.84182C16.5296 1.52096 16.4486 1.20479 16.2908 0.925348C16.1331 0.645909 15.9043 0.413141 15.6276 0.250638C15.3509 0.0881357 15.0362 0.00167687 14.7153 2.41475e-05C14.3944 -0.00162857 14.0788 0.0815837 13.8004 0.241227C13.5221 0.400871 13.2909 0.631271 13.1303 0.90907C12.9697 1.18687 12.8854 1.50219 12.8859 1.82308C12.8864 2.14396 12.9718 2.45899 13.1334 2.73625C13.2949 3.0135 13.5269 3.24312 13.8058 3.40182C13.7931 3.59393 13.7336 3.78003 13.6325 3.94388C13.5314 4.10772 13.3918 4.24435 13.2258 4.34183C12.4658 4.86182 12.9858 5.41182 12.9858 5.41182H12.9258C12.7573 5.41415 12.595 5.47546 12.4671 5.58509C12.3392 5.69472 12.2538 5.84572 12.2258 6.01182L11.9758 7.78182C11.9086 8.18369 11.6858 8.54294 11.3558 8.78182C9.42532 10.2164 7.27833 11.3338 4.99577 12.0918C1.75577 13.1518 5.28577 21.4118 7.09577 25.2918C7.81454 26.8028 8.11921 28.4776 7.97865 30.145C7.8381 31.8123 7.25735 33.4125 6.29577 34.7818L6.00577 35.1818C3.43577 38.4818 4.70577 47.3218 5.36577 50.9618C5.45614 51.4053 5.69425 51.805 6.04118 52.0956C6.3881 52.3862 6.82334 52.5506 7.27577 52.5618H13.7658V62.2818C13.4678 62.4537 13.2192 62.6996 13.0441 62.9956C12.8689 63.2917 12.773 63.6279 12.7658 63.9718V88.6118L12.2658 88.7218C11.8922 88.8369 11.5305 88.9876 11.1858 89.1718L10.8958 89.3418L10.6058 89.5418C10.4 89.6867 10.203 89.8437 10.0158 90.0118C9.81924 90.1884 9.63231 90.3753 9.45577 90.5718C9.26577 90.7718 9.10577 90.9918 8.92577 91.2118C8.74577 91.4318 8.61577 91.6818 8.44577 91.9218C8.27577 92.1618 8.16577 92.4318 8.01577 92.6818C7.74674 93.2173 7.50966 93.7683 7.30577 94.3318L7.00577 95.1318L6.93577 95.3418L6.85577 95.4918C6.81405 95.6022 6.76391 95.7092 6.70577 95.8118C6.28482 96.6548 5.57505 97.3184 4.70577 97.6818C3.88884 98.0016 3.01079 98.1348 2.13577 98.0718C1.6889 98.0475 1.24439 97.9907 0.805771 97.9018C0.640457 97.8675 0.468267 97.8968 0.323646 97.9839C0.179026 98.0711 0.0726414 98.2096 0.025772 98.3718C0.0013921 98.4578 -0.00578729 98.5478 0.00464621 98.6366C0.0150797 98.7254 0.0429234 98.8113 0.0865783 98.8893C0.130233 98.9673 0.188841 99.036 0.259056 99.0913C0.329271 99.1467 0.409713 99.1876 0.495773 99.2118C0.995334 99.3426 1.50315 99.4395 2.01577 99.5018C3.11454 99.6453 4.23145 99.5428 5.28577 99.2018C5.90699 98.9923 6.486 98.674 6.99577 98.2618C7.51911 97.8301 7.96544 97.3128 8.31577 96.7318C8.41045 96.5866 8.49724 96.4364 8.57577 96.2818L8.69577 96.0518L8.77577 95.8518L9.13577 95.0618C9.33684 94.5862 9.57073 94.125 9.83577 93.6818C9.97577 93.4818 10.0958 93.2718 10.2258 93.0818C10.3558 92.8918 10.4958 92.7118 10.6358 92.5418C10.7758 92.3718 10.9158 92.2218 11.0658 92.0918C11.1982 91.9602 11.3385 91.8366 11.4858 91.7218C11.6153 91.6184 11.7523 91.5248 11.8958 91.4418L12.0858 91.3218L12.2658 91.2318C12.4337 91.1572 12.6077 91.097 12.7858 91.0518V91.1318L12.6858 91.3118C12.6105 91.4426 12.5469 91.5798 12.4958 91.7218C12.4305 91.8776 12.377 92.0381 12.3358 92.2018C12.3358 92.3618 12.2458 92.5418 12.2058 92.7318L12.1158 93.2918C12.1158 93.4918 12.1158 93.6918 12.1158 93.9018C12.1158 94.3018 12.1158 94.7318 12.1158 95.1618V95.7718V95.9218C12.1158 95.9218 12.1158 96.0018 12.1158 96.0518C12.1206 96.1317 12.1206 96.2119 12.1158 96.2918C12.0738 96.882 11.8301 97.4399 11.4258 97.8718C11.1075 98.2013 10.6955 98.4248 10.2458 98.5118C10.0219 98.5574 9.79418 98.5808 9.56577 98.5818C9.27577 98.5818 9.18577 98.8518 9.20577 99.1018C9.20424 99.1631 9.2155 99.2239 9.23885 99.2806C9.26219 99.3372 9.2971 99.3883 9.34134 99.4307C9.38558 99.473 9.43818 99.5057 9.49577 99.5266C9.55335 99.5474 9.61467 99.556 9.67577 99.5518C9.94208 99.5715 10.2095 99.5715 10.4758 99.5518C11.0486 99.4958 11.5884 99.2574 12.0158 98.8718C12.2891 98.6154 12.5069 98.3057 12.6558 97.9618C12.8311 97.5617 12.9424 97.1365 12.9858 96.7018C12.9858 96.5918 12.9858 96.4618 12.9858 96.3418V96.0118C12.9858 95.8118 12.9858 95.6018 12.9858 95.4018C12.9858 95.0218 12.9858 94.6618 13.0458 94.3318C13.0458 94.1618 13.0458 94.0018 13.1158 93.8418C13.1858 93.6818 13.1758 93.5418 13.2058 93.4118C13.2358 93.2818 13.2758 93.1418 13.3158 93.0318C13.3558 92.9218 13.3958 92.7918 13.4458 92.7118C13.486 92.6218 13.5328 92.5349 13.5858 92.4518L13.6558 92.3418L13.7358 92.2518C13.7957 92.1753 13.8664 92.1079 13.9458 92.0518H15.9458C16.032 92.0518 16.1173 92.0347 16.1968 92.0014C16.2764 91.9681 16.3485 91.9193 16.409 91.8579C16.4694 91.7965 16.5171 91.7237 16.5492 91.6436C16.5813 91.5636 16.5971 91.478 16.5958 91.3918V91.0318C16.7739 91.077 16.9478 91.1372 17.1158 91.2118L17.3058 91.3018L17.4958 91.4218C17.6258 91.4918 17.7558 91.6018 17.9058 91.7018C18.0558 91.8018 18.1758 91.9418 18.3258 92.0718C18.4758 92.2018 18.5958 92.3718 18.7458 92.5218C18.8958 92.6718 19.0158 92.8718 19.1558 93.0618C19.2958 93.2518 19.4158 93.4618 19.5558 93.6618C19.813 94.1093 20.0466 94.5699 20.2558 95.0418C20.3758 95.3018 20.4858 95.5718 20.6058 95.8318L20.6958 96.0318L20.8158 96.2618C20.891 96.4162 20.9744 96.5664 21.0658 96.7118C21.4194 97.2904 21.8653 97.8072 22.3858 98.2418C22.8982 98.6501 23.4765 98.968 24.0958 99.1818C25.1502 99.5221 26.267 99.6246 27.3658 99.4818C27.8817 99.4194 28.3928 99.3225 28.8958 99.1918C28.9866 99.1766 29.0734 99.1428 29.1506 99.0925C29.2278 99.0422 29.2938 98.9765 29.3445 98.8996C29.3952 98.8226 29.4295 98.736 29.4452 98.6452C29.4609 98.5544 29.4577 98.4613 29.4358 98.3718Z" fill="#374F6D"/>
<path d="M13.4458 92.0718C13.3587 92.0732 13.2723 92.057 13.1916 92.0243C13.1109 91.9916 13.0376 91.9431 12.9761 91.8815C12.9145 91.82 12.8659 91.7467 12.8333 91.666C12.8006 91.5853 12.7844 91.4988 12.7858 91.4118V91.0418V91.1318L12.6958 91.2818C12.6666 91.4176 12.6724 91.5586 12.7126 91.6915C12.7529 91.8244 12.8262 91.945 12.9258 92.0418C13.071 92.1399 13.238 92.2012 13.4122 92.2204C13.5864 92.2395 13.7627 92.216 13.9258 92.1518L14.0258 92.0718H13.4458Z" fill="white"/>
<path d="M5.11572 12.8718C6.76574 12.2336 8.37538 11.4956 9.93572 10.6618C10.7957 10.272 11.5474 9.67813 12.1257 8.93181C12.452 8.22957 12.6937 7.49106 12.8457 6.73181C12.9434 7.5389 12.8225 8.3574 12.4957 9.10181C11.929 9.93958 11.1295 10.5931 10.1957 10.9818C8.5847 11.8141 6.879 12.4487 5.11572 12.8718Z" fill="white"/>
<path d="M24.4357 15.0918C24.2341 17.1914 23.7254 19.25 22.9257 21.2018C22.0857 23.4518 20.8257 25.6218 20.5357 28.0318C20.2304 30.5145 20.8111 33.0254 22.1757 35.1218C22.6166 35.7056 22.9859 36.3401 23.2757 37.0118C23.6303 38.1182 23.8223 39.2702 23.8457 40.4318C23.9162 42.9362 23.715 45.4408 23.2457 47.9018C23.4239 45.907 23.5007 43.9044 23.4757 41.9018C23.4157 39.9018 23.2957 37.6318 22.0957 36.0118C20.9254 34.4965 20.1736 32.7005 19.9156 30.8033C19.6576 28.9062 19.9025 26.9745 20.6257 25.2018C21.1257 24.0018 21.7457 22.8418 22.2657 21.6518C23.2892 19.5761 24.0195 17.3684 24.4357 15.0918Z" fill="white"/>
<path d="M13.0058 5.37184H14.8258L12.8258 5.07184C12.8632 5.18376 12.9247 5.28614 13.0058 5.37184Z" fill="white"/>
<path d="M13.7858 52.8618L15.0958 52.5518H13.7858V52.8618Z" fill="white"/>
<path d="M16.9158 89.2618C17.1553 89.2694 17.3918 89.3167 17.6158 89.4018C17.8705 89.4931 18.1151 89.6104 18.3458 89.7518C18.819 90.0683 19.2493 90.4448 19.6258 90.8718C19.7727 91.0333 19.9096 91.2037 20.0358 91.3818C20.3222 91.7493 20.5765 92.1408 20.7958 92.5518L21.1458 93.2118L21.4458 93.9018C21.6458 94.3718 21.8158 94.9018 21.9958 95.3418C22.1498 95.8113 22.365 96.2585 22.6358 96.6718C22.7675 96.8722 22.9218 97.0568 23.0958 97.2218C23.2652 97.3822 23.4493 97.5261 23.6458 97.6518C24.3653 98.1246 25.1823 98.4288 26.0358 98.5418C26.3669 98.5927 26.7009 98.6228 27.0358 98.6318C27.3458 98.6318 27.6158 98.6318 27.8458 98.6318C28.2858 98.6318 28.5458 98.6318 28.5458 98.6318H28.3658C28.1942 98.6713 28.0206 98.7013 27.8458 98.7218C27.5775 98.7634 27.307 98.7901 27.0358 98.8018C26.6829 98.8262 26.3287 98.8262 25.9758 98.8018C25.0819 98.7284 24.2183 98.4439 23.4558 97.9718C23.2419 97.8331 23.038 97.6794 22.8458 97.5118C22.6549 97.3342 22.4839 97.1364 22.3358 96.9218C22.0492 96.4837 21.8144 96.0139 21.6358 95.5218C21.4558 95.0318 21.3058 94.5218 21.1158 94.0918L20.8258 93.4018C20.7158 93.1918 20.6058 92.9718 20.5058 92.7618C20.2954 92.3585 20.0617 91.9679 19.8058 91.5918C19.6896 91.4142 19.5627 91.2439 19.4258 91.0818C19.3062 90.9263 19.1759 90.7792 19.0358 90.6418C18.7991 90.3898 18.5378 90.162 18.2558 89.9618C18.0397 89.8059 17.8085 89.6719 17.5658 89.5618C17.4079 89.493 17.2438 89.4394 17.0758 89.4018L16.9158 89.2618Z" fill="white"/>
<path d="M12.5458 89.2618H12.3658C12.1985 89.3023 12.0347 89.3558 11.8758 89.4218C11.633 89.5318 11.4019 89.6658 11.1858 89.8218C10.9091 90.0248 10.6514 90.2524 10.4158 90.5018C10.2757 90.6392 10.1454 90.7862 10.0258 90.9418C9.88881 91.1039 9.7619 91.2742 9.64576 91.4518C9.38982 91.8278 9.1561 92.2185 8.94576 92.6218L8.61576 93.2618C8.52576 93.4918 8.42576 93.7218 8.32576 93.9518C8.13576 94.4118 7.98577 94.8918 7.81577 95.3818C7.63369 95.8742 7.39545 96.344 7.10577 96.7818C6.9636 97.0009 6.792 97.1994 6.59576 97.3718C6.40697 97.5392 6.20646 97.6929 5.99577 97.8318C5.22899 98.3026 4.36242 98.5869 3.46576 98.6618C3.11285 98.6862 2.75867 98.6862 2.40576 98.6618C2.13457 98.649 1.86421 98.6223 1.59576 98.5818C1.42432 98.5606 1.25409 98.5306 1.08576 98.4918H0.905762C0.905762 98.4918 1.15577 98.4918 1.60577 98.4918C1.82577 98.4918 2.09576 98.4918 2.40576 98.4918C2.74061 98.482 3.07456 98.452 3.40576 98.4018C4.25655 98.2904 5.07062 97.9859 5.78577 97.5118C5.98365 97.3837 6.17092 97.2399 6.34576 97.0818C6.51934 96.9191 6.67065 96.7341 6.79576 96.5318C7.06579 96.1166 7.28408 95.6699 7.44576 95.2018C7.62576 94.7218 7.78576 94.2018 7.98576 93.7618C8.09576 93.5318 8.19576 93.3018 8.29576 93.0718C8.39576 92.8418 8.52576 92.6318 8.63577 92.4118C8.86226 92.005 9.11617 91.6141 9.39576 91.2418C9.52528 91.0634 9.66554 90.8931 9.81577 90.7318C9.94554 90.5788 10.0859 90.4351 10.2358 90.3018C10.49 90.0537 10.7719 89.8357 11.0758 89.6518C11.3098 89.5101 11.5578 89.3928 11.8158 89.3018C12.0548 89.2454 12.302 89.2319 12.5458 89.2618Z" fill="white"/>
<path d="M13.3157 92.4518C13.2527 92.5433 13.2054 92.6447 13.1757 92.7518C13.0775 93.0308 13.0072 93.3189 12.9657 93.6118C12.8273 94.5027 12.7405 95.4008 12.7057 96.3018C12.701 96.5461 12.681 96.7899 12.6457 97.0318C12.6049 97.2707 12.5413 97.5051 12.4557 97.7318C12.3732 97.9406 12.2658 98.1388 12.1357 98.3218C11.8365 98.7346 11.4066 99.0342 10.9157 99.1718L10.5857 99.2418L10.9057 99.1418C11.0254 99.0953 11.1422 99.0418 11.2557 98.9818C11.3999 98.8999 11.537 98.8063 11.6657 98.7018C11.973 98.4311 12.2069 98.0871 12.3457 97.7018C12.4234 97.4809 12.4803 97.2532 12.5157 97.0218C12.5157 96.7918 12.5157 96.5418 12.5857 96.3018C12.6195 95.3985 12.7231 94.4991 12.8957 93.6118C12.9532 93.3204 13.0404 93.0355 13.1557 92.7618C13.1905 92.6499 13.2446 92.5449 13.3157 92.4518Z" fill="white"/>
<path d="M15.6857 63.7318V64.8918C15.6857 65.6318 15.7457 66.6918 15.7657 67.9618C15.7857 69.2318 15.8257 70.7118 15.8357 72.2918C15.8457 73.8718 15.8357 75.5718 15.8357 77.2918C15.8357 79.0118 15.8357 80.6718 15.8357 82.2918C15.8357 83.9118 15.8357 85.3518 15.7657 86.6218C15.6957 87.8918 15.7057 88.9518 15.6857 89.6918C15.6657 90.4318 15.6857 90.8518 15.6857 90.8518C15.6857 90.8518 15.6857 90.4318 15.6857 89.6918C15.6857 88.9518 15.6157 87.8918 15.6057 86.6218C15.5957 85.3518 15.5457 83.8718 15.5357 82.2918C15.5257 80.7118 15.5357 79.0118 15.5357 77.2918C15.5357 75.5718 15.5357 73.9118 15.5357 72.2918C15.5357 70.6718 15.5357 69.2318 15.6057 67.9618C15.6757 66.6918 15.6257 65.6318 15.6257 64.8718C15.6257 64.1118 15.6857 63.7318 15.6857 63.7318Z" fill="white"/>
<path d="M14.1857 53.2618C14.1857 53.2618 14.1857 53.8018 14.2457 54.6018C14.2457 55.0118 14.2457 55.4718 14.2457 55.9818V57.5518C14.2457 58.0918 14.2457 58.6318 14.2457 59.1318C14.2457 59.6318 14.2457 60.1318 14.2457 60.5018C14.2457 61.3118 14.1857 61.8418 14.1857 61.8418C14.1857 61.8418 14.1857 61.3118 14.1257 60.5018C14.1257 60.1018 14.1257 59.6318 14.1257 59.1318C14.1257 58.6318 14.1257 58.1318 14.1257 57.5518V55.9818C14.1257 55.4718 14.1257 54.9818 14.1257 54.6018C14.1557 53.8018 14.1857 53.2618 14.1857 53.2618Z" fill="white"/>
</svg>
