<svg width="72" height="48" viewBox="0 0 72 48" fill="none" xmlns="http://www.w3.org/2000/svg">
<path d="M70.8382 43.4701H70.3755V40.1775C70.3755 39.3614 70.0513 38.5786 69.4742 38.0015C68.8971 37.4244 68.1143 37.1002 67.2982 37.1002H54.0527L53.6223 36.5299C53.6223 36.4654 48.9525 30.074 51.1153 24.5972C52.0033 22.3692 52.4068 19.9777 52.2989 17.5817C52.293 17.5101 52.293 17.4381 52.2989 17.3665H53.59V18.8837C53.5908 19.2502 53.7224 19.6044 53.961 19.8825C54.1997 20.1606 54.5299 20.3444 54.892 20.4008V23.93C54.9279 24.4035 55.1412 24.8459 55.4894 25.1687C55.8376 25.4915 56.2948 25.6708 56.7696 25.6708C57.2444 25.6708 57.7016 25.4915 58.0498 25.1687C58.398 24.8459 58.6113 24.4035 58.6472 23.93V16.6241H58.8732C59.0786 16.6241 59.2757 16.7057 59.421 16.851C59.5662 16.9963 59.6479 17.1933 59.6479 17.3988V25.7915C59.6465 26.0948 59.705 26.3954 59.8201 26.676C59.9351 26.9566 60.1045 27.2117 60.3185 27.4267C60.5324 27.6416 60.7868 27.8122 61.0668 27.9286C61.3469 28.045 61.6472 28.1049 61.9505 28.1049H62.1442V28.3416C62.1442 28.4444 62.185 28.5429 62.2576 28.6155C62.3303 28.6882 62.4288 28.729 62.5315 28.729C62.6003 28.7276 62.6674 28.7079 62.726 28.672C62.7846 28.636 62.8326 28.5852 62.8651 28.5245H63.1449C63.3145 28.5234 63.4784 28.4624 63.6075 28.3524C63.6932 28.2741 63.7976 28.2191 63.9107 28.1928C64.0237 28.1664 64.1416 28.1695 64.2531 28.2017C64.2531 28.2017 67.4811 28.7397 67.9438 28.8043C68.1608 28.8361 68.3822 28.8208 68.5928 28.7594C68.8034 28.698 68.9983 28.592 69.1643 28.4486C69.3303 28.3052 69.4634 28.1277 69.5547 27.9282C69.646 27.7287 69.6932 27.5119 69.6932 27.2925C69.6932 27.0732 69.646 26.8564 69.5547 26.6569C69.4634 26.4574 69.3303 26.2799 69.1643 26.1365C68.9983 25.993 68.8034 25.887 68.5928 25.8256C68.3822 25.7643 68.1608 25.749 67.9438 25.7808L64.2531 26.3941C64.1405 26.422 64.0228 26.4218 63.9102 26.3937C63.7977 26.3655 63.6938 26.3103 63.6075 26.2327C63.4784 26.1226 63.3145 26.0617 63.1449 26.0605H62.8651C62.8226 25.9883 62.7578 25.9318 62.6804 25.8995C62.603 25.8673 62.5173 25.861 62.436 25.8816C62.3548 25.9022 62.2824 25.9486 62.2298 26.0139C62.1772 26.0791 62.1471 26.1597 62.1442 26.2434V26.5232H61.9828C61.8815 26.5232 61.7813 26.5031 61.6879 26.464C61.5945 26.425 61.5098 26.3677 61.4387 26.2957C61.3677 26.2236 61.3116 26.1381 61.2739 26.0441C61.2361 25.9502 61.2174 25.8497 61.2188 25.7485V17.3557C61.2188 16.7422 60.9751 16.1538 60.5412 15.7199C60.1074 15.2861 59.519 15.0424 58.9054 15.0424H58.6795V7.73638C58.6991 7.47786 58.6651 7.21807 58.5796 6.97331C58.4941 6.72854 58.359 6.50407 58.1827 6.31395C58.0065 6.12382 57.7928 5.97215 57.5552 5.86842C57.3176 5.7647 57.0611 5.71115 56.8019 5.71115C56.5426 5.71115 56.2861 5.7647 56.0485 5.86842C55.8109 5.97215 55.5973 6.12382 55.421 6.31395C55.2448 6.50407 55.1097 6.72854 55.0242 6.97331C54.9387 7.21807 54.9047 7.47786 54.9243 7.73638V11.2656C54.563 11.3197 54.2331 11.5013 53.9942 11.7776C53.7554 12.054 53.6234 12.4068 53.6223 12.772V14.3537H51.4703C50.8729 13.1037 49.9665 12.0267 48.8368 11.2247C47.7071 10.4226 46.3915 9.92191 45.0144 9.77001C44.4181 9.69957 43.8177 9.67081 43.2175 9.68393V8.50033H44.3903C44.5729 8.50033 44.7481 8.42777 44.8773 8.29863C45.0064 8.16949 45.0789 7.99433 45.0789 7.8117C45.0789 7.65617 45.0271 7.50507 44.9316 7.38231C44.8361 7.25954 44.7025 7.1721 44.5517 7.13381V3.77673C44.727 3.74838 44.8845 3.65343 44.9914 3.51172C45.0984 3.37 45.1465 3.19247 45.1256 3.01616C45.1048 2.83985 45.0167 2.67838 44.8797 2.56548C44.7427 2.45258 44.5673 2.39695 44.3903 2.41021H43.2175V1.6893H42.8301V0H42.4535V1.6893H42.0662V2.41021H40.8933C40.7163 2.39695 40.541 2.45258 40.404 2.56548C40.267 2.67838 40.1788 2.83985 40.158 3.01616C40.1372 3.19247 40.1853 3.37 40.2922 3.51172C40.3991 3.65343 40.5567 3.74838 40.7319 3.77673V7.13381C40.5567 7.16216 40.3991 7.25711 40.2922 7.39882C40.1853 7.54054 40.1372 7.71808 40.158 7.89439C40.1788 8.0707 40.267 8.23216 40.404 8.34506C40.541 8.45796 40.7163 8.51359 40.8933 8.50033H42.0662V9.73773C41.1754 9.80645 40.2908 9.9395 39.4192 10.1358C39.3009 10.1358 28.0568 13.0087 20.9014 11.7606C16.2101 11.0074 14.7575 8.72629 14.3486 7.77942C14.1788 7.40717 13.9065 7.09104 13.5635 6.86807C13.2204 6.6451 12.8209 6.52454 12.4118 6.52051H11.6802V3.71217C11.6914 3.62997 11.6849 3.54632 11.6612 3.46683C11.6374 3.38734 11.5969 3.31386 11.5424 3.25134C11.4878 3.18882 11.4205 3.1387 11.345 3.10436C11.2695 3.07002 11.1875 3.05225 11.1045 3.05225C11.0215 3.05225 10.9395 3.07002 10.864 3.10436C10.7885 3.1387 10.7212 3.18882 10.6666 3.25134C10.6121 3.31386 10.5716 3.38734 10.5478 3.46683C10.5241 3.54632 10.5176 3.62997 10.5288 3.71217V6.52051H9.45285C9.16748 6.52051 8.89381 6.63387 8.69202 6.83566C8.49023 7.03745 8.37686 7.31113 8.37686 7.5965V14.5151H5.63309C5.67608 14.4054 5.69799 14.2886 5.69765 14.1708C5.69765 13.9878 5.64337 13.8089 5.54169 13.6567C5.44001 13.5045 5.29549 13.3859 5.1264 13.3159C4.95732 13.2459 4.77126 13.2275 4.59176 13.2632C4.41226 13.2989 4.24739 13.3871 4.11797 13.5165C3.98856 13.6459 3.90043 13.8108 3.86472 13.9903C3.82902 14.1698 3.84734 14.3558 3.91737 14.5249C3.98741 14.694 4.10601 14.8385 4.25819 14.9402C4.41036 15.0419 4.58928 15.0962 4.77229 15.0962H8.37686V27.1688C8.37686 27.4542 8.49023 27.7278 8.69202 27.9296C8.89381 28.1314 9.16748 28.2448 9.45285 28.2448H11.1206V31.236C11.1206 31.3369 11.1599 31.4339 11.2303 31.5062C11.3006 31.5785 11.3964 31.6206 11.4972 31.6234H11.5941L11.7555 35.6046L11.9169 31.6234H12.0137C12.0646 31.6234 12.115 31.6134 12.162 31.5939C12.209 31.5744 12.2517 31.5459 12.2876 31.51C12.3236 31.474 12.3521 31.4313 12.3716 31.3843C12.3911 31.3373 12.4011 31.2869 12.4011 31.236V30.4613H12.8638C12.8662 30.489 12.8783 30.515 12.898 30.5347C12.9177 30.5544 12.9436 30.5665 12.9713 30.5689H13.2296C13.2452 30.6584 13.2815 30.743 13.3357 30.8158C13.3899 30.8887 13.4604 30.9479 13.5416 30.9886C13.8214 31.1284 14.1334 30.9886 14.1334 30.698C14.1288 30.5651 14.0752 30.4386 13.9828 30.343C13.9733 30.3339 13.9658 30.3231 13.9607 30.3111C13.9556 30.299 13.9529 30.2861 13.9529 30.273C13.9529 30.26 13.9556 30.247 13.9607 30.235C13.9658 30.223 13.9733 30.2121 13.9828 30.2031C14.0735 30.1063 14.1269 29.9805 14.1334 29.848C14.1334 29.5252 13.8214 29.4176 13.5416 29.5467C13.4602 29.5898 13.3897 29.651 13.3356 29.7257C13.2815 29.8003 13.2452 29.8863 13.2296 29.9771H12.9713C12.9452 29.9791 12.9205 29.9897 12.901 30.0072C12.8816 30.0247 12.8684 30.0482 12.8638 30.074H12.4872V28.2448H13.7999C14.3706 28.2448 14.918 28.0181 15.3215 27.6145C15.7251 27.2109 15.9518 26.6635 15.9518 26.0928V24.0377C15.9037 23.2007 16.1011 22.3679 16.5197 21.6415C16.9383 20.9152 17.56 20.3269 18.3083 19.9489C19.1078 19.5142 19.9788 19.2263 20.8799 19.0989C30.241 18.5393 35.3843 19.9274 38.0958 21.1863C39.0128 21.6238 39.7657 22.3436 40.2439 23.2401C40.7222 24.1366 40.9008 25.1627 40.7535 26.1681C40.0863 30.7088 36.2558 36.4331 36.2128 36.4869L35.8577 37.0249H5.01977C4.60923 37.0248 4.20282 37.1068 3.82446 37.2661C3.44611 37.4255 3.10345 37.6589 2.81669 37.9527C2.52993 38.2464 2.30485 38.5946 2.1547 38.9767C2.00456 39.3588 1.93238 39.7671 1.94243 40.1775V43.5023H1.47976C1.27144 43.5023 1.07165 43.5851 0.924345 43.7324C0.77704 43.8797 0.694275 44.0795 0.694275 44.2878V47.2145C0.694275 47.4228 0.77704 47.6226 0.924345 47.7699C1.07165 47.9172 1.27144 48 1.47976 48H70.8382C70.9414 48 71.0435 47.9797 71.1388 47.9402C71.2341 47.9007 71.3207 47.8429 71.3936 47.7699C71.4665 47.697 71.5244 47.6104 71.5639 47.5151C71.6033 47.4198 71.6237 47.3177 71.6237 47.2145V44.2878C71.628 44.182 71.6109 44.0764 71.5734 43.9773C71.5359 43.8783 71.4787 43.7878 71.4053 43.7114C71.3319 43.635 71.2439 43.5743 71.1464 43.5328C71.049 43.4913 70.9441 43.47 70.8382 43.4701ZM10.927 3.65837C10.927 3.60129 10.9496 3.54656 10.99 3.5062C11.0304 3.46584 11.0851 3.44317 11.1422 3.44317C11.1992 3.44317 11.254 3.46584 11.2943 3.5062C11.3347 3.54656 11.3574 3.60129 11.3574 3.65837V4.45461C11.3574 4.51168 11.3347 4.56641 11.2943 4.60677C11.254 4.64713 11.1992 4.6698 11.1422 4.6698C11.0851 4.6698 11.0304 4.64713 10.99 4.60677C10.9496 4.56641 10.927 4.51168 10.927 4.45461V3.65837ZM4.85837 14.6012C4.75197 14.6012 4.64795 14.5697 4.55948 14.5105C4.47101 14.4514 4.40205 14.3674 4.36133 14.2691C4.32061 14.1708 4.30995 14.0626 4.33071 13.9583C4.35146 13.8539 4.40271 13.758 4.47795 13.6828C4.55319 13.6076 4.64905 13.5563 4.75341 13.5356C4.85777 13.5148 4.96595 13.5255 5.06426 13.5662C5.16257 13.6069 5.24658 13.6758 5.30569 13.7643C5.36481 13.8528 5.39637 13.9568 5.39637 14.0632C5.3978 14.1348 5.38494 14.2059 5.35854 14.2724C5.33215 14.3389 5.29275 14.3995 5.24265 14.4506C5.19254 14.5017 5.13276 14.5423 5.06677 14.57C5.00079 14.5977 4.92994 14.612 4.85837 14.612V14.6012Z" fill="#374F6D"/>
<path d="M40.9902 3.97044L40.8395 4.09956C40.7427 4.17488 40.6028 4.304 40.3984 4.45464C39.8194 4.89932 39.1997 5.2884 38.5477 5.61671C37.528 6.12637 36.4412 6.48865 35.3197 6.6927C33.8771 6.93793 32.4092 6.99939 30.9512 6.87562C29.2328 6.72702 27.528 6.45007 25.8509 6.0471C24.0648 5.63822 22.2033 5.11099 20.2773 4.58375C18.3108 4.00349 16.3089 3.55064 14.284 3.22801C13.2439 3.07725 12.1911 3.03397 11.1421 3.09888C10.0896 3.16529 9.06461 3.46288 8.14013 3.97044C7.68464 4.23713 7.25585 4.54701 6.8597 4.8958C6.46408 5.23539 6.1036 5.61387 5.7837 6.02558C5.1275 6.84045 4.66402 7.79315 4.42794 8.81241C4.2133 9.82431 4.18051 10.8663 4.33111 11.8897C4.47225 12.8906 4.71377 13.8747 5.05202 14.8272C5.71159 16.6261 6.51024 18.3709 7.44072 20.0457C8.31228 21.6597 9.18383 23.1554 9.95854 24.5434C10.7333 25.9314 11.4327 27.2334 11.9814 28.417C12.4717 29.4282 12.8644 30.4839 13.1542 31.5696C13.3376 32.2715 13.4137 32.997 13.3802 33.7216C13.3802 33.9799 13.3802 34.1628 13.3156 34.2919V34.4856V34.2919C13.33 34.1021 13.33 33.9114 13.3156 33.7216C13.3134 32.9947 13.2157 32.2712 13.0251 31.5696C12.7309 30.4902 12.342 29.4388 11.8631 28.4277C11.3143 27.2549 10.6149 25.9637 9.84018 24.5757C9.06547 23.1877 8.18316 21.692 7.31161 20.078C6.37112 18.3993 5.56866 16.6468 4.91215 14.838C4.56518 13.8793 4.31642 12.8879 4.16972 11.879C4.01928 10.8376 4.05205 9.77793 4.26655 8.74783C4.50696 7.7044 4.98161 6.72934 5.65457 5.89646C5.97492 5.4786 6.3353 5.09301 6.73057 4.74516C7.12984 4.38437 7.56627 4.06697 8.03252 3.79828C8.97912 3.28479 10.0248 2.98025 11.0991 2.90521C12.1767 2.83635 13.2585 2.87962 14.3271 3.03432C16.3592 3.35578 18.3683 3.80866 20.3419 4.39008C22.2679 4.90656 24.1294 5.46606 25.9155 5.84266C27.581 6.24659 29.2754 6.52002 30.9834 6.66042C32.42 6.78243 33.8663 6.72095 35.2874 6.47749C36.3832 6.26704 37.4443 5.90489 38.44 5.4015C39.0813 5.08035 39.6902 4.69842 40.2585 4.26095C40.4522 4.12107 40.592 3.98119 40.6996 3.90587L40.8503 3.77676L40.9902 3.97044Z" fill="white"/>
<path d="M54.5692 20.2717C54.6755 20.3167 54.7879 20.3457 54.9027 20.3578V17.1298L54.5692 20.2717Z" fill="white"/>
<path d="M52.1375 15.3114C52.0613 14.9687 51.9643 14.6309 51.8469 14.3H51.4919C51.9515 15.2477 52.2289 16.2733 52.3096 17.3235C52.3205 17.1659 52.3205 17.0077 52.3096 16.8501C52.3027 16.3328 52.2451 15.8174 52.1375 15.3114Z" fill="white"/>
<path d="M36.0944 36.5299L35.7393 37.0679H44.1859L36.2558 36.2825L36.0944 36.5299Z" fill="white"/>
<path d="M49.6304 14.0418C50.6141 15.5813 51.0359 17.4133 50.8247 19.228C50.7428 20.2025 50.5735 21.1676 50.319 22.1117C50.0931 22.994 49.7272 23.8333 49.469 24.7048C48.4683 28.1588 49.469 31.8064 51.1475 34.8837C50.3625 33.1757 49.8262 31.3639 49.5551 29.5038C49.3148 27.621 49.5364 25.7081 50.2007 23.9301C50.9273 22.0911 51.2926 20.1293 51.2767 18.1521C51.2731 16.3588 50.6062 14.6303 49.4044 13.2993C48.2621 12.1227 46.7342 11.3969 45.1005 11.2549C46.9202 11.5466 48.5496 12.549 49.6304 14.0418Z" fill="white"/>
<path d="M15.1448 10.7384C17.0534 12.1599 19.3334 12.9972 21.7084 13.1486C23.7505 13.3244 25.8051 13.2956 27.8415 13.0626C26.7656 13.0626 25.7756 13.0625 24.7534 13.0087C20.6001 12.8366 15.2524 11.9328 13.0897 7.91931C13.5102 9.02592 14.22 9.99945 15.1448 10.7384Z" fill="white"/>
<path d="M9.78643 23.2092C9.93707 18.1412 9.9263 13.0518 9.64655 7.99463C9.58199 9.14594 9.53894 10.308 9.50666 11.4701C9.35602 16.538 9.36679 21.6275 9.64655 26.6954C9.71111 25.5333 9.75415 24.3712 9.78643 23.2092Z" fill="white"/>
<path d="M57.9478 20.8635C58.0877 16.3013 58.0769 11.7176 57.7972 7.16614C57.7326 8.24213 57.6788 9.31812 57.6465 10.3941C57.5066 14.9456 57.5066 19.5185 57.7972 24.0592C57.8617 22.9617 57.9155 21.8857 57.9478 20.8635Z" fill="white"/>
<path d="M58.389 43.4055C53.3677 43.3625 48.3248 43.3374 43.2605 43.3302C37.8806 43.3302 32.5006 43.3302 27.1206 43.3302C22.0993 43.3302 17.0458 43.3589 11.9599 43.4163L3.75009 43.5024H3.87921C7.2363 43.5024 10.5826 43.5884 13.929 43.61C18.9503 43.61 23.9931 43.6315 29.0574 43.6745H45.1973C50.2186 43.6745 55.2722 43.6458 60.358 43.5884L68.5678 43.5024H68.4387C65.0816 43.4378 61.7317 43.4055 58.389 43.4055Z" fill="white"/>
<path d="M45.7138 14.3538C46.8759 14.7627 48.3069 15.5804 48.4898 16.9254C48.6728 18.2704 47.4784 19.2388 46.4132 19.766C45.2616 20.2953 44.0203 20.6019 42.7548 20.6698C44.3516 20.7668 45.9417 20.3927 47.3278 19.5939C47.942 19.2907 48.4237 18.7727 48.6815 18.1381C48.9393 17.5035 48.9554 16.7963 48.7265 16.1507C48.3658 15.5286 47.8754 14.9914 47.2888 14.5756C46.7021 14.1597 46.0329 13.8749 45.3264 13.7405C42.7656 13.0518 39.3116 13.4069 37.4717 15.4943C38.5453 14.581 39.8765 14.0244 41.2807 13.9019C42.7734 13.7059 44.2913 13.8606 45.7138 14.3538Z" fill="white"/>
<path d="M60.6593 17.2589C60.7239 18.4748 60.6593 19.7122 60.6593 20.9173C60.6593 22.1224 60.6593 23.3813 60.6593 24.6187C60.5843 25.1825 60.6357 25.7559 60.8099 26.2973C60.9156 26.5081 61.0788 26.6846 61.2806 26.8065C61.4825 26.9284 61.7147 26.9906 61.9505 26.9859C61.7266 26.9809 61.5082 26.9151 61.3187 26.7958C61.1292 26.6764 60.9757 26.5078 60.8745 26.308C60.7198 25.803 60.683 25.2693 60.7669 24.7478C60.7669 23.5212 60.7669 22.2946 60.7669 21.0679C60.7669 19.8413 60.7669 18.6039 60.7669 17.3881C60.7655 17.1384 60.7148 16.8916 60.6176 16.6616C60.5205 16.4317 60.3788 16.2233 60.2008 16.0483C60.0228 15.8733 59.812 15.7352 59.5804 15.642C59.3489 15.5488 59.1012 15.5022 58.8516 15.5051C59.3187 15.5153 59.7646 15.7018 60.0998 16.0271C60.4351 16.3524 60.635 16.7924 60.6593 17.2589Z" fill="white"/>
<path d="M68.5571 26.0928C68.2788 26.0174 67.9854 26.0174 67.7071 26.0928C66.5772 26.27 65.4595 26.518 64.3607 26.8353C65.6519 26.8353 66.9108 26.4909 68.1912 26.4049C68.4418 26.4161 68.682 26.5082 68.8759 26.6672C69.0698 26.8262 69.2071 27.0437 69.2672 27.2872C69.3091 27.0363 69.2608 26.7786 69.1308 26.56C69.0008 26.3414 68.7975 26.1758 68.5571 26.0928Z" fill="white"/>
</svg>
