<svg width="497" height="613" viewBox="0 0 497 613" fill="none" xmlns="http://www.w3.org/2000/svg">
<path d="M191.806 421.653L343.785 397.113L292.347 169.75C292.347 169.75 177.2 142.852 138.032 192.642C98.8642 242.432 191.806 421.653 191.806 421.653Z" fill="#FBF8D5"/>
<path d="M150.898 123.577C151.493 125.866 162 189.025 162 189.025C162 189.025 157.422 248.064 200.001 242.226C242.58 236.389 226.304 189.025 226.304 189.025L209.341 134.085L150.898 123.577Z" fill="#FBF8D5"/>
<path d="M163.168 150.384C163.168 150.384 169.028 166.179 182.466 172.017C195.903 177.854 209.936 178.449 214.514 171.444C219.093 164.439 215.11 146.263 219.093 144.546C223.076 142.829 213.187 143.035 202.725 152.146C192.263 161.257 191.05 165.012 178.78 159.151C166.51 153.291 163.168 150.384 163.168 150.384Z" fill="#1D1D1B"/>
<path d="M204.099 383.08C204.099 383.08 269.547 369.048 299.352 347.438C329.157 325.828 325.655 304.767 325.655 304.767L270.714 269.17C269.003 268.059 267.084 267.308 265.074 266.961C263.064 266.614 261.004 266.679 259.02 267.152C257.035 267.625 255.168 268.496 253.53 269.713C251.893 270.929 250.519 272.466 249.493 274.229C244.925 281.884 241.092 289.956 238.047 298.334C238.047 298.334 230.447 283.134 210.577 288.972C197.281 293.097 184.374 298.382 172.004 304.767L204.099 383.08Z" fill="#64A1CE"/>
<path d="M397.307 626.216C397.055 605.934 395.521 492.435 392.728 471.123C391.652 463.088 385.311 451.917 377.459 440.677C375.17 437.334 372.652 434.015 370.157 430.764C364.869 423.897 359.443 417.395 354.796 411.993C347.494 403.569 342.068 397.869 342.068 397.869L333.346 398.624L236.536 407.025L171.409 412.703C171.409 412.703 184.64 450.108 166.83 452.42C163.681 452.811 160.676 453.974 158.086 455.808C148.357 462.676 147.326 477.395 147.326 477.395C147.326 477.395 27.9678 510.131 9.99759 522.584C-6.02678 533.687 1.57334 609.825 3.4047 626.216H98.8871V592.725L132.401 588.032L262.542 578.692L264.03 626.216H397.307Z" fill="#64A1CE"/>
<path d="M266.708 626.216H264.419C264.083 621.637 263.808 617.097 263.595 612.595C262.748 594.099 262.908 575.579 263.137 557.082L263.48 532.84C263.32 532.849 263.16 532.82 263.013 532.757C262.866 532.693 262.736 532.596 262.633 532.473C256.257 525.054 250.728 516.946 246.151 508.299C245.464 506.972 247.433 505.804 248.12 507.132C252.418 515.294 257.583 522.969 263.526 530.024C263.648 520.119 263.778 510.199 263.915 500.264C263.915 499.961 264.036 499.67 264.25 499.455C264.465 499.24 264.756 499.12 265.06 499.12C265.363 499.12 265.655 499.24 265.869 499.455C266.084 499.67 266.204 499.961 266.204 500.264C266.067 510.947 265.922 521.577 265.769 532.153C265.357 563.469 264.304 594.991 266.708 626.216Z" fill="#641A0D"/>
<path d="M156.506 178.129C156.506 178.129 75.4686 210.864 77.0253 219.334C78.9841 234.621 83.7328 249.418 91.0351 262.989C101.955 283.249 119.879 315.961 119.879 315.961C119.879 315.961 113.698 333.977 116.811 344.965C119.925 355.953 137.071 432.252 137.071 432.252L197.071 464.988L204.099 500.837L234.476 504.728L214.812 220.616C214.812 220.616 184.274 224.233 177.269 216.427C170.264 208.621 156.506 178.129 156.506 178.129Z" fill="#DC443C"/>
<g style="mix-blend-mode:multiply" opacity="0.26">
<path d="M377.414 440.677C376.223 443.721 374.987 446.674 373.774 449.719C359.833 433.099 346.303 415.999 333.301 398.624C299.856 354.328 268.654 308.155 237.155 262.6C233.789 257.747 226.762 250.078 224.976 244.286C223.534 239.708 225.113 235.771 224.976 230.803C225.008 225.071 225.452 219.348 226.304 213.68C227.086 212.886 227.729 211.965 228.204 210.956C225.319 209.903 223.168 208.895 223.168 208.895L207.967 167.988L216.529 164.874C216.987 165.515 218.818 168.331 221.588 172.337C222.961 171.559 224.312 170.712 225.617 169.796C234.224 178.403 242.191 188.316 243.747 199.716C245.167 210.177 240.726 218.029 243.747 228.033C248.326 243.256 259.428 254.885 269.73 266.949C297.887 300.097 322.381 335.076 346.509 371.566C358.825 390.246 369.813 409.704 376.269 431.245L370.019 430.604C372.606 434.015 375.079 437.334 377.414 440.677Z" fill="#641A0D"/>
</g>
<path d="M399.894 433.923L376.269 431.405L370.019 430.764L367.066 430.444L354.659 411.993L310.363 346.27C310.363 346.27 232.05 242.821 231.477 240.967C230.905 239.113 236.72 204.157 236.72 202.394C236.72 200.631 227.38 200.105 227.38 200.105L216.552 164.989L215.132 160.41L225.983 158.121L247.639 153.68C252.864 152.224 258.243 151.394 263.663 151.208H264.098C269.797 151.675 275.426 152.781 280.878 154.504L291.157 157.366C293.103 157.892 295.941 157.984 296.88 159.884C297.667 162.281 298.166 164.763 298.368 167.278L301.115 180.807C301.115 180.807 311.05 209.445 336.185 247.4C361.321 285.355 385.266 283.661 385.266 283.661L399.894 433.923Z" fill="#DC443C"/>
<path d="M248.326 199.075C245.977 202.537 244.328 206.425 243.473 210.521C242.902 214.194 243.562 217.952 245.35 221.211C247.414 224.717 249.772 228.041 252.401 231.146L260.756 242.02L294.133 285.515L361.206 372.962C373.736 389.261 386.25 405.568 398.749 421.882C399.642 423.027 401.633 421.882 400.74 420.715L334.674 334.641L268.997 249.025C262.908 241.104 256.75 233.23 250.684 225.24C248.051 221.738 245.464 217.892 245.487 213.314C245.845 208.595 247.492 204.065 250.249 200.219C251.027 198.96 249.058 197.816 248.28 199.075H248.326Z" fill="#641A0D"/>
<path d="M255.079 203.035C249.104 214.618 257.368 227.232 264.373 236.206C273.53 247.949 283.122 259.51 292.622 271.047C311.683 294.229 331.08 317.121 350.813 339.723C361.877 352.42 373.041 365.057 384.304 377.632C385.311 378.731 386.914 377.106 385.929 376.007C366.38 354.214 347.112 332.161 328.127 309.849C309.142 287.537 290.477 264.973 272.133 242.158C267.169 236.524 262.754 230.43 258.948 223.958C255.72 217.846 253.705 210.59 257.048 204.088C257.711 202.783 255.743 201.639 255.079 202.944V203.035Z" fill="#641A0D"/>
<path d="M375.079 424.446L389.432 404.507L364.251 376.259L357.955 389.33L367.891 424.904C368.852 427.582 373.224 426.575 375.079 424.446Z" fill="#FBF8D5"/>
<path d="M154.698 156.999C155.013 156.495 155.481 156.103 156.033 155.881C156.585 155.659 157.193 155.617 157.771 155.762C158.348 155.907 158.864 156.231 159.246 156.688C159.627 157.145 159.854 157.71 159.894 158.304C160.672 168.239 160.833 187.148 168.25 200.334C180.657 222.402 189.242 218.075 187.731 222.539L154.331 253.81C153.985 254.128 153.564 254.354 153.108 254.468C152.651 254.582 152.173 254.579 151.718 254.461C151.263 254.343 150.844 254.112 150.501 253.79C150.158 253.469 149.901 253.066 149.753 252.619L131.325 195.756C131.206 195.375 131.17 194.973 131.222 194.578C131.273 194.183 131.41 193.803 131.623 193.466L154.698 156.999Z" fill="#641A0D"/>
<path d="M282.801 213.978C282.801 213.978 282.023 221.395 279.688 215.9C277.353 210.406 270.714 210.841 262.931 207.362C255.148 203.882 230.195 207.751 227.471 200.151C224.747 192.551 209.936 150.842 209.936 150.842C209.936 150.842 206.823 143.447 210.714 142.257H211.172C216.781 141.685 249.287 149.125 249.287 149.125L249.47 149.468L282.801 213.978Z" fill="#641A0D"/>
<path d="M220.214 143.173C231.66 145.05 249.219 148.987 249.219 148.987L249.402 149.331C236.147 157.686 211.355 156.999 211.355 156.999C211.355 156.999 209.822 156.633 209.478 153.451L211.355 151.643L220.214 143.173Z" fill="#1D1D1B"/>
<path d="M86.617 227.621C86.617 227.621 62.0539 229.91 59.1466 246.324C56.2394 262.737 46.8536 406.568 46.8536 406.568C42.6109 410.376 39.5352 415.31 37.9833 420.796C36.4314 426.283 36.467 432.096 38.086 437.563C43.3512 457.319 61.4816 555.571 61.4816 555.571C61.4816 555.571 81.3518 562.439 84.8543 562.439C88.3568 562.439 114.087 554.266 126.93 557.861C139.772 561.455 136.865 556.693 138.032 554.358C139.2 552.023 138.628 486.552 138.628 486.552C138.628 486.552 136.865 480.715 127.525 477.784L136.865 414.671C136.865 414.671 156.163 285.446 142.13 260.265C128.097 235.084 86.617 227.621 86.617 227.621Z" fill="#DC443C"/>
<path d="M139.246 577.136C139.246 582.813 80.7337 581.164 80.7337 581.164L75.8806 556.83C76.9804 554.961 78.4721 553.352 80.253 552.115C80.8653 551.671 81.4994 551.258 82.153 550.878C85.0441 549.343 88.122 548.189 91.3098 547.445L93.599 547.01C97.241 546.307 100.928 545.863 104.633 545.682H106.922C110.997 545.522 115.003 545.682 118.62 545.682C119.421 545.682 120.177 545.682 120.909 545.819C124.045 546.002 126.815 546.254 128.944 546.46L131.233 546.758L133.523 547.055C133.523 547.055 139.246 571.435 139.246 577.136Z" fill="#641A0D"/>
<path d="M82.1531 550.993C82.3137 551.145 82.4186 551.347 82.4507 551.565C83.7216 559.187 85.746 566.663 88.4941 573.885C89.0207 575.258 86.823 575.877 86.2049 574.48C83.4395 567.233 81.4147 559.724 80.1615 552.069L82.1531 550.993Z" fill="#DC443C"/>
<path d="M93.5533 547.01C95.0412 555.251 96.5063 563.583 97.9943 571.847C98.2461 573.313 96.0485 573.908 95.7051 572.466C94.2171 564.179 92.7292 555.846 91.2641 547.559C91.2641 547.559 91.2641 547.559 91.2641 547.445L93.5533 547.01Z" fill="#DC443C"/>
<path d="M106.853 545.613C107.264 553.82 108.135 561.998 109.463 570.108C109.715 571.55 107.494 572.168 107.174 570.68C105.787 562.408 104.892 554.06 104.496 545.682L106.853 545.613Z" fill="#DC443C"/>
<path d="M122.168 569.513C122.168 570.978 119.879 570.978 119.879 569.513C119.33 561.569 118.849 553.626 118.528 545.682C119.33 545.682 120.085 545.682 120.818 545.819C121.161 553.694 121.642 561.638 122.168 569.513Z" fill="#DC443C"/>
<path d="M131.325 546.758C131.851 554.747 132.126 562.782 132.172 570.726C132.172 571.029 132.051 571.32 131.837 571.535C131.622 571.75 131.331 571.87 131.027 571.87C130.724 571.87 130.433 571.75 130.218 571.535C130.003 571.32 129.883 571.029 129.883 570.726C129.883 562.645 129.562 554.564 129.013 546.46L131.325 546.758Z" fill="#DC443C"/>
<path d="M44.3356 430.833C58.8978 435.009 71.736 443.747 80.9627 455.762C81.8555 456.93 83.8471 455.762 82.9543 454.618C73.4219 442.11 60.1252 432.995 45.0223 428.613C44.7188 428.531 44.3951 428.573 44.1225 428.729C43.8499 428.886 43.6507 429.145 43.5687 429.448C43.4867 429.752 43.5287 430.075 43.6854 430.348C43.8421 430.621 44.1007 430.82 44.4043 430.902L44.3356 430.833Z" fill="#641A0D"/>
<path d="M85.9531 461.714L96.3689 474.603C96.4734 474.709 96.598 474.794 96.7356 474.852C96.8732 474.909 97.0209 474.939 97.1701 474.939C97.3194 474.939 97.4671 474.909 97.6047 474.852C97.7422 474.794 97.8669 474.709 97.9713 474.603C98.1825 474.385 98.3006 474.093 98.3006 473.79C98.3006 473.487 98.1825 473.195 97.9713 472.977L87.5784 460.089C87.3606 459.878 87.0691 459.76 86.7657 459.76C86.4624 459.76 86.1709 459.878 85.9531 460.089C85.7471 460.31 85.6325 460.6 85.6325 460.902C85.6325 461.203 85.7471 461.494 85.9531 461.714Z" fill="#641A0D"/>
<path d="M144.671 623.904C139.497 621.615 134.324 602.477 129.883 599.478C126.609 597.326 129.745 615.502 130.158 626.216H86.1134C83.9844 613.74 83.2519 577.319 83.2519 577.319C86.205 569.146 117.269 566.972 133.614 572.145C149.959 577.319 149.158 609.139 150.646 612.824C152.134 616.51 149.845 626.147 144.671 623.904Z" fill="#FBF8D5"/>
<path d="M194.369 221.349C194.751 252.802 195.102 284.263 195.422 315.732C195.743 347.201 196.086 378.845 196.453 410.665C196.636 428.292 196.834 445.911 197.048 463.523C197.048 463.826 197.168 464.117 197.383 464.332C197.598 464.547 197.889 464.667 198.192 464.667C198.496 464.667 198.787 464.547 199.002 464.332C199.216 464.117 199.337 463.826 199.337 463.523C198.971 432.069 198.62 400.616 198.284 369.162C197.948 337.709 197.612 306.064 197.277 274.229L196.659 221.349C196.659 221.045 196.538 220.754 196.323 220.539C196.109 220.325 195.818 220.204 195.514 220.204C195.21 220.204 194.919 220.325 194.705 220.539C194.49 220.754 194.369 221.045 194.369 221.349Z" fill="#641A0D"/>
<path d="M203.435 220.433C202.794 256.831 202.641 293.229 202.977 329.628C203.313 366.026 204.137 402.317 205.449 438.502C206.166 458.921 207.044 479.333 208.082 499.738C208.082 501.226 210.371 501.226 210.371 499.738C208.54 463.385 207.181 427.018 206.296 390.635C205.411 354.252 205.014 317.945 205.106 281.715C205.106 261.295 205.312 240.868 205.724 220.433C205.724 220.13 205.603 219.838 205.389 219.624C205.174 219.409 204.883 219.288 204.579 219.288C204.276 219.288 203.985 219.409 203.77 219.624C203.555 219.838 203.435 220.13 203.435 220.433Z" fill="#641A0D"/>
<path d="M77.4831 230.94C87.2961 253.039 98.1088 274.641 109.921 295.748C113.309 301.852 116.766 307.835 120.291 313.695L120.154 312.825C114.522 327.064 115.827 342.699 118.826 357.396C120.406 365.156 122.466 372.825 124.412 380.494L130.798 405.354L137.872 432.962C137.951 433.266 138.147 433.525 138.418 433.684C138.688 433.843 139.011 433.888 139.314 433.809C139.618 433.73 139.878 433.534 140.036 433.263C140.195 432.993 140.24 432.67 140.161 432.367L129.036 389.284C125.556 375.732 121.55 362.18 119.536 348.33C118.503 341.706 118.257 334.982 118.803 328.3C119.11 325.056 119.708 321.846 120.589 318.708C121.002 317.154 121.506 315.625 122.1 314.13C122.236 313.889 122.321 313.621 122.349 313.346C122.376 313.07 122.346 312.791 122.26 312.527C121.783 311.543 121.224 310.602 120.589 309.712C113.446 297.503 106.632 285.179 100.146 272.741C92.8207 258.64 85.9531 244.317 79.5434 229.773C78.9482 228.422 76.9795 229.59 77.5747 230.918L77.4831 230.94Z" fill="#641A0D"/>
<path d="M367.25 355.518L352.805 375.641C352.805 375.641 387.921 414.007 391.996 409.978C396.07 405.949 410.012 385.37 410.012 385.37C410.012 385.37 385.426 349.818 367.25 355.518Z" fill="#641A0D"/>
<path d="M364.823 367.972C362.666 373.057 360.181 377.997 357.383 382.76C357.266 383.018 357.25 383.31 357.336 383.58C357.422 383.85 357.606 384.078 357.851 384.221C358.096 384.363 358.385 384.41 358.662 384.351C358.939 384.293 359.185 384.134 359.352 383.905C362.149 379.149 364.634 374.217 366.792 369.139C366.943 368.874 366.985 368.561 366.908 368.265C366.831 367.97 366.641 367.717 366.38 367.56C366.118 367.409 365.808 367.369 365.517 367.446C365.225 367.523 364.976 367.712 364.823 367.972Z" fill="#DC443C"/>
<path d="M372.103 373.878C369.149 378.408 366.627 383.206 364.571 388.208C364.494 388.5 364.535 388.81 364.685 389.071C364.835 389.333 365.082 389.524 365.372 389.605C365.667 389.677 365.977 389.634 366.241 389.485C366.504 389.336 366.701 389.092 366.792 388.803C368.784 384.004 371.23 379.405 374.094 375.068C374.895 373.832 372.904 372.779 372.103 373.924V373.878Z" fill="#DC443C"/>
<path d="M381.488 379.624L372.08 393.038C371.233 394.252 373.201 395.328 374.048 394.183C377.185 389.719 380.321 385.209 383.457 380.723C384.304 379.532 382.312 378.433 381.488 379.578V379.624Z" fill="#DC443C"/>
<path d="M390.004 385.507C386.291 389.942 383.003 394.717 380.184 399.769C379.474 401.074 381.465 402.218 382.175 400.936C384.882 396.072 388.039 391.474 391.607 387.201C392.545 386.079 390.943 384.454 390.004 385.599V385.507Z" fill="#DC443C"/>
<path d="M395.91 392.443C392.858 397.449 390.065 402.584 387.532 407.85C386.891 409.177 388.882 410.345 389.523 409.017C392.064 403.752 394.857 398.601 397.879 393.611C398.027 393.35 398.068 393.041 397.991 392.751C397.914 392.461 397.726 392.213 397.468 392.06C397.21 391.907 396.902 391.861 396.611 391.933C396.319 392.005 396.068 392.188 395.91 392.443Z" fill="#DC443C"/>
<path d="M265.151 162.814C265.151 162.814 294.407 152.238 312.171 159.54C320.481 162.928 324.213 163.134 325.907 162.402C328.262 161.191 330.996 160.945 333.53 161.715L451.24 202.486C453.5 203.333 455.544 204.672 457.222 206.406C458.901 208.14 460.173 210.226 460.946 212.512C461.491 213.804 462.387 214.918 463.532 215.727C464.676 216.536 466.025 217.009 467.425 217.091C471.385 217.755 475.048 218.304 477.978 218.739C479.989 219.026 481.844 219.986 483.241 221.461C484.638 222.937 485.494 224.842 485.67 226.866C496.779 249.318 499.089 275.112 492.148 299.181C492.313 300.8 492.149 302.435 491.667 303.989C491.181 305.554 490.404 307.014 489.378 308.292L414.567 402.562L356.078 361.951C356.078 361.951 364.205 304.286 384.51 288.033C384.51 288.033 337.376 276.587 311.393 246.599C285.411 216.61 265.151 162.814 265.151 162.814Z" fill="#DC443C"/>
<path d="M423.449 261.387C408.186 268.512 394.798 279.102 384.35 292.314C373.912 305.383 366.465 320.581 362.534 336.839C360.305 346.043 359.335 355.508 359.649 364.973C359.649 366.438 361.939 366.438 361.939 364.973C361.436 348.514 364.775 332.164 371.691 317.22C378.562 302.234 388.653 288.947 401.244 278.304C408.323 272.318 416.187 267.327 424.617 263.47C425.944 262.852 424.777 260.883 423.449 261.478V261.387Z" fill="#641A0D"/>
<path d="M294.842 159.952C308.165 157.457 321.695 161.99 332.522 169.682C343.968 177.877 352.141 189.804 358.276 202.325C361.728 209.579 364.785 217.015 367.433 224.599C367.913 225.973 370.134 225.401 369.722 224.004C364.686 210.063 358.94 196.122 350.081 184.126C341.949 172.567 330.371 163.873 317.002 159.289C309.667 156.908 301.858 156.382 294.27 157.755C292.828 158.03 293.423 160.227 294.865 160.044L294.842 159.952Z" fill="#641A0D"/>
<path d="M294.98 159.884C298.79 181.232 306.255 201.762 317.048 220.57C327.797 239.409 341.624 256.316 357.955 270.589C367.109 278.557 377.014 285.618 387.532 291.673C387.793 291.821 388.101 291.862 388.391 291.785C388.682 291.708 388.93 291.52 389.083 291.262C389.236 291.004 389.282 290.696 389.21 290.405C389.138 290.113 388.955 289.862 388.699 289.704C370.12 278.994 353.525 265.164 339.642 248.819C325.706 232.473 314.617 213.9 306.838 193.878C302.476 182.655 299.225 171.032 297.131 159.174C296.88 157.732 294.659 158.327 294.842 159.769L294.98 159.884Z" fill="#641A0D"/>
<path d="M408.776 272.215C411.338 262.974 416.995 254.893 424.8 249.323C425.99 248.476 424.8 246.507 423.655 247.354C415.32 253.256 409.286 261.863 406.578 271.711C406.499 272.015 406.544 272.337 406.703 272.607C406.862 272.878 407.121 273.074 407.425 273.153C407.728 273.232 408.051 273.187 408.321 273.028C408.592 272.869 408.788 272.61 408.867 272.306L408.776 272.215Z" fill="#641A0D"/>
<path d="M200.573 2.5931C200.573 2.5931 192.401 58.1061 200.573 61.6314C208.746 65.1568 226.304 76.8088 216.941 109.544C207.578 142.28 212.363 156.313 212.363 156.313C212.363 156.313 254.438 158.602 257.94 137.61C260.72 127.995 260.311 117.739 256.773 108.377C253.021 97.5092 250.09 86.3753 248.005 75.069C245.518 61.105 243.015 47.1409 240.497 33.1768C239.228 24.6822 235.015 16.9037 228.593 11.2005C224.743 7.95202 220.277 5.51505 215.462 4.03593C210.647 2.55682 205.583 2.06606 200.573 2.5931Z" fill="#1D1D1B"/>
<path d="M140.482 79.7391C139.314 82.0283 143.984 130.101 149.249 138.777C157.147 151.94 178.78 165.584 194.301 161.326C201.394 158.962 207.902 155.115 213.393 150.04C225.457 139.991 228.524 130.078 231.134 115.153C232.553 107.187 234.636 99.3117 235.3 91.2537C237.292 66.7135 219.276 39.6094 194.827 34.1612C160.924 26.561 142.176 70.9714 142.176 70.9714L140.482 79.7391Z" fill="#FBF8D5"/>
<path d="M197.208 81.7078C201.58 83.2415 205.701 80.6547 209.478 78.7318C213.255 76.8089 216.941 76.0077 219.688 79.4873C220.627 80.6776 222.343 84.0657 224.266 82.509C226.189 80.9524 224.564 77.4041 223.236 75.8703C221.616 74.0519 219.441 72.8193 217.048 72.364C214.656 71.9087 212.18 72.2561 210.005 73.3522C205.655 75.2294 202.015 78.9379 197.254 79.8535C196.247 80.0367 196.43 81.4331 197.254 81.7078H197.208Z" fill="#1D1D1B"/>
<path d="M161.909 72.551C165.141 72.8827 168.263 73.9054 171.065 75.5498C172.432 76.3221 173.688 77.2771 174.797 78.3884C175.342 78.9143 175.847 79.4806 176.308 80.0824C176.747 80.8634 177.339 81.5484 178.048 82.0969C178.234 82.2047 178.446 82.2618 178.661 82.2626C178.877 82.2634 179.089 82.2078 179.276 82.1013C179.464 81.9949 179.62 81.8413 179.73 81.6558C179.839 81.4703 179.899 81.2594 179.902 81.0439C179.738 80.0303 179.248 79.0979 178.505 78.3884C177.944 77.7165 177.34 77.0819 176.697 76.4884C175.319 75.235 173.779 74.1724 172.119 73.3293C168.915 71.6715 165.259 71.1011 161.703 71.704C161.176 71.704 161.359 72.5052 161.703 72.551H161.909Z" fill="#1D1D1B"/>
<path d="M193.133 124.149C189.516 121.998 186.495 126.187 186.266 126.645L186.105 126.782L183.816 125.042C179.764 121.86 169.715 131.91 169.715 131.91C169.715 131.91 173.149 139.785 180.016 141.57C186.884 143.356 186.746 139.533 187.639 140.288C188.906 140.922 190.28 141.31 191.691 141.433C199.177 141.433 204.007 129.758 204.007 129.758C204.007 129.758 196.956 126.439 193.133 124.149Z" fill="#DC443C"/>
<path d="M186.746 133.375C189.389 133.375 191.531 133.006 191.531 132.551C191.531 132.096 189.389 131.727 186.746 131.727C184.104 131.727 181.962 132.096 181.962 132.551C181.962 133.006 184.104 133.375 186.746 133.375Z" fill="#1D1D1B"/>
<path d="M196.498 5.50041L194.209 2.59312C189.631 -1.50454 155.041 2.59313 136.338 8.43058C117.636 14.268 113.446 49.9337 113.446 49.9337C110.864 59.5216 107.691 68.9405 103.946 78.1366C99.7338 88.507 94.8079 98.5731 89.2038 108.262C88.9291 109.064 84.8772 121.608 92.7978 130.925C95.7595 134.326 99.7022 136.725 104.084 137.793C103.151 139.897 102.497 142.113 102.138 144.386L102 145.302C101.847 146.44 101.762 147.587 101.749 148.735C101.638 155.594 104.255 162.217 109.023 167.149C113.792 172.08 120.323 174.918 127.182 175.038C131.076 175.03 134.913 174.096 138.376 172.314C147.83 174.306 156.849 173.482 161.13 165.904C163.419 162.036 163.923 151.917 160.787 148.14C160.787 147.98 128.738 109.521 164.289 85.5994C199.841 61.6773 196.498 5.50041 196.498 5.50041Z" fill="#1D1D1B"/>
<path d="M235.506 85.2789L235.689 85.0729C240.886 78.9836 245.327 83.4705 246.746 89.6513C247.856 93.7116 248.448 97.8958 248.509 102.105C248.372 108.24 240.108 124.996 231.569 119.686C227.883 117.396 227.906 110.185 227.906 106.431C227.908 98.7121 230.595 91.2342 235.506 85.2789Z" fill="#FBF8D5"/>
<path d="M238.917 115.061C238.922 115.638 238.754 116.203 238.437 116.685C238.119 117.167 237.665 117.543 237.133 117.766C236.601 117.989 236.014 118.048 235.448 117.937C234.882 117.825 234.362 117.548 233.954 117.14C233.546 116.732 233.269 116.212 233.157 115.646C233.046 115.08 233.106 114.493 233.328 113.961C233.551 113.429 233.927 112.975 234.409 112.657C234.891 112.34 235.456 112.172 236.033 112.177C236.798 112.177 237.531 112.481 238.072 113.022C238.613 113.563 238.917 114.296 238.917 115.061Z" fill="#DC443C"/>
<path d="M244.526 163.753C244.139 163.956 243.741 164.14 243.335 164.302C242.992 162.631 242.511 160.937 242.237 159.449C241.527 155.511 240.932 155.717 240.222 151.78C240.382 155.374 240.703 160.021 240.977 165.034C239.787 165.269 238.571 165.346 237.361 165.263C236.627 165.214 235.899 165.099 235.186 164.92C234.934 160.342 234.934 155.946 234.934 151.46C234.407 155.763 233.812 160.067 233.377 164.371C232.578 164.038 231.812 163.632 231.088 163.157L232.256 122.822C232.342 122.068 232.686 121.366 233.229 120.836C233.773 120.306 234.482 119.98 235.239 119.913C235.995 119.845 236.751 120.041 237.379 120.467C238.008 120.893 238.47 121.522 238.688 122.249L244.526 163.753Z" fill="#DC443C"/>
<path d="M309.882 336.907C309.882 336.907 302.282 355.038 322.152 362.615C342.023 370.192 343.19 368.475 343.19 368.475L353.125 369.048L309.882 336.907Z" fill="#FBF8D5"/>
<path d="M353.125 369.048C353.125 369.048 327.418 346.842 308.715 364.469C290.012 382.096 285.319 390.749 285.319 390.749L292.347 399.517L305.212 408.284L312.217 417.624C312.217 417.624 331.515 397.754 340.26 401.28C349.005 404.805 359.558 421.722 364.228 425.225C368.898 428.727 376.498 429.322 375.33 418.815C374.163 408.307 353.125 369.048 353.125 369.048Z" fill="#FBF8D5"/>
</svg>
