<svg width="43" height="56" viewBox="0 0 43 56" fill="none" xmlns="http://www.w3.org/2000/svg">
<path d="M12.753 46.7799H20.831C21.7642 46.861 22.633 47.2891 23.266 47.9795C23.899 48.6699 24.2502 49.5725 24.2502 50.5092C24.2502 51.4459 23.899 52.3486 23.266 53.0391C22.633 53.7295 21.7642 54.1575 20.831 54.2387H8.72805C7.79488 54.1575 6.92598 53.7295 6.29298 53.0391C5.65998 52.3486 5.30887 51.4459 5.30887 50.5092C5.30887 49.5725 5.65998 48.6699 6.29298 47.9795C6.92598 47.2891 7.79488 46.861 8.72805 46.7799M21.7317 38.336C22.829 38.336 23.8814 38.7718 24.6573 39.5478C25.4332 40.3237 25.8692 41.3761 25.8692 42.4735C25.8692 43.5708 25.4332 44.6232 24.6573 45.3991C23.8814 46.175 22.829 46.611 21.7317 46.611H12.7248M8.50283 46.611H6.92664C5.8293 46.611 4.77687 46.175 4.00093 45.3991C3.22499 44.6232 2.78911 43.5708 2.78911 42.4735C2.78911 41.3761 3.22499 40.3237 4.00093 39.5478C4.77687 38.7718 5.8293 38.336 6.92664 38.336H13.0907M11.0079 30.0609H5.37862C4.28128 30.0609 3.22885 30.4968 2.45291 31.2727C1.67697 32.0487 1.24109 33.1011 1.24109 34.1984C1.24109 35.2958 1.67697 36.3481 2.45291 37.1241C3.22885 37.9 4.28128 38.336 5.37862 38.336H13.1189M17.3409 38.336H22.9701C24.0675 38.336 25.1198 37.9 25.8958 37.1241C26.6717 36.3481 27.1077 35.2958 27.1077 34.1984C27.1077 33.1011 26.6717 32.0487 25.8958 31.2727C25.1198 30.4968 24.0675 30.0609 22.9701 30.0609H15.2017M11.036 30.0609H6.87038C5.83559 29.9753 4.87078 29.5038 4.16748 28.74C3.46419 27.9761 3.07377 26.9758 3.07377 25.9375C3.07377 24.8991 3.46419 23.8988 4.16748 23.1349C4.87078 22.3711 5.83559 21.8995 6.87038 21.8139H21.6753C22.7101 21.8995 23.6749 22.3711 24.3782 23.1349C25.0815 23.8988 25.4719 24.8991 25.4719 25.9375C25.4719 26.9758 25.0815 27.9761 24.3782 28.74C23.6749 29.5038 22.7101 29.9753 21.6753 30.0609H14.5543M23.8427 11.7094C23.0972 9.49193 22.4677 7.23718 21.9568 4.95424C21.6191 2.28033 18.5793 -0.477982 16.018 1.91447C13.4566 4.30691 14.7795 12.4693 15.0047 15.5936C15.2252 17.6297 16.1396 19.5279 17.5942 20.9696M42.926 52.184L33.1873 51.8744M35.5234 47.3709C34.6509 49.7352 32.8495 53.8165 29.1905 54.6609C25.5314 55.5052 27.3328 55.2519 27.3328 55.2519M26.1788 15.8469C29.0831 17.6443 31.6385 19.9519 33.722 22.6584C35.2982 25.6419 34.4257 27.8655 37.3811 29.3291C38.8828 30.1815 40.6391 30.4709 42.3349 30.1453" stroke="#4A4A49" stroke-miterlimit="10"/>
</svg>
