<svg width="56" height="54" viewBox="0 0 56 54" fill="none" xmlns="http://www.w3.org/2000/svg">
<path d="M10.5188 41.7153H20.1025M13.6577 45.5255V30.5803H20.8706C21.3478 30.6047 21.8151 30.724 22.2442 30.9308C22.6733 31.1377 23.0554 31.4279 23.3674 31.784C23.6795 32.14 23.915 32.5544 24.0598 33.0024C24.2046 33.4504 24.2556 33.9226 24.2099 34.3905C24.2099 38.2007 20.0691 38.4306 20.0691 38.4306H10.0512M23.208 18.0328C22.4066 18.0328 21.5384 16.916 21.5384 16.916V7.35764M54.9314 7.75179V39.9744M54.9314 39.9744C54.9314 43.2591 47.4847 46.0182 38.2349 46.0182H36.031M54.898 31.7299C54.898 35.0146 47.4514 37.8065 38.2016 37.8065M54.898 23.5839C54.898 26.8686 47.4514 29.6606 38.2016 29.6606H35.9976M54.8646 15.3394C54.8646 18.624 47.418 21.3832 38.1681 21.3832C35.0787 21.404 31.9972 21.0734 28.9851 20.3978M38.1681 13.4672C47.3512 13.4672 54.8646 10.7408 54.8646 7.4233C54.8646 4.10578 47.3846 1.37952 38.1681 1.37952C28.9517 1.37952 21.4716 4.10578 21.4716 7.4233C21.4716 10.7408 28.8849 13.3358 38.068 13.3358L38.1681 13.4672ZM17.2641 52.8832C20.3984 52.8703 23.4584 51.9441 26.0581 50.2219C28.6577 48.4996 30.6804 46.0584 31.8707 43.2063C33.061 40.3543 33.3656 37.2192 32.7461 34.1971C32.1265 31.1749 30.6105 28.401 28.3896 26.2256C26.1687 24.0501 23.3423 22.5707 20.2673 21.974C17.1923 21.3773 14.0065 21.69 11.1121 22.8728C8.21761 24.0556 5.7443 26.0555 4.00434 28.6198C2.26437 31.1841 1.33572 34.198 1.33569 37.2811C1.37952 41.3966 3.06784 45.3298 6.03586 48.2308C9.00388 51.1318 13.0132 52.7677 17.1974 52.7847L17.2641 52.8832Z" stroke="#4A4A49" stroke-miterlimit="10"/>
</svg>
