<svg width="63" height="54" viewBox="0 0 63 54" fill="none" xmlns="http://www.w3.org/2000/svg">
<path d="M51.1649 46.9961C51.1649 46.9961 54.0836 46.9961 56.0529 46.9961C57.0105 46.9584 57.9629 47.1574 58.8308 47.5766L59.4285 45.8348L61.9253 46.7782L62.4177 44.3468L59.9913 43.5485L60.5538 41.5887L56.1582 40.1735M7.66601 39.8469C7.66601 39.8469 13.7144 47.1049 28.5891 47.3952C32.5778 47.7209 36.5886 47.1998 40.3746 45.8641C44.1606 44.5284 47.6414 42.4066 50.6021 39.6292M11.1825 27.6896C11.1825 27.6896 16.2111 22.3549 29.6792 23.1533C43.1474 23.9517 47.2616 27.2904 47.2616 27.2904M7.66601 31.863C7.66601 31.863 13.7144 39.121 28.5891 39.4113C32.5778 39.737 36.5886 39.216 40.3746 37.8803C44.1606 36.5446 47.6414 34.4226 50.6021 31.6452M11.9208 12.1573C11.9208 12.1573 3.55164 14.9154 2.74285 19.9597C1.93406 25.0041 2.98903 25.984 2.98903 25.984C2.40579 27.563 2.00441 29.2074 1.79333 30.8832C1.71082 32.2804 2.003 33.6741 2.63746 34.9113C2.63746 34.9113 -1.16052 50.1896 28.167 52.4033C57.4944 54.617 58.2329 34.0404 57.4241 32.2984L56.6506 30.5202C57.3862 28.9789 57.5848 27.2232 57.2131 25.5485L56.4748 23.1895C56.9881 21.154 57.1781 19.0461 57.0374 16.9477C56.9744 15.8933 56.6603 14.8711 56.123 13.9719M50.8483 14.8065C45.0353 9.75963 37.5343 7.27059 29.9604 7.87512C22.9105 8.12513 15.9074 9.15925 9.07247 10.9597C7.00357 10.7188 5.01109 10.0128 3.23521 8.89124V7.22181V6.42342L1.54736 4.31863L2.49667 2.39524L4.53629 4.6089L5.76697 3.33883C5.76697 3.33883 7.52531 6.09685 13.1165 4.42749C20.5421 1.55548 28.5593 0.705625 36.3956 1.95978C46.2066 3.91946 56.0879 9.21781 56.334 15.5323C56.5802 21.8468 45.7847 31.1735 31.4023 32.117C17.0199 33.0606 6.29449 26.3831 7.34943 21.6654C8.40438 16.9477 23.8418 12.992 34.1802 14.8428C39.8033 15.6386 45.1519 17.844 49.7582 21.2661" stroke="#4A4A49" stroke-miterlimit="10"/>
</svg>
