<svg width="45" height="54" viewBox="0 0 45 54" fill="none" xmlns="http://www.w3.org/2000/svg">
<path d="M28.3404 19.0717C31.2185 20.3918 33.5573 22.6519 34.9689 25.4774C36.3805 28.3028 36.7802 31.5239 36.1017 34.6066C35.4232 37.6893 33.7073 40.4485 31.2385 42.4268C28.7696 44.4051 25.696 45.4837 22.5273 45.4837C19.3586 45.4837 16.2851 44.4051 13.8162 42.4268C11.3473 40.4485 9.63149 37.6893 8.95301 34.6066C8.27453 31.5239 8.67419 28.3028 10.0858 25.4774C11.4974 22.6519 13.8361 20.3918 16.7142 19.0717M37.0668 14.6307L39.9392 11.3068M41.307 12.5055L38.5714 10.108M8.89056 14.6034L6.155 11.2795M4.78722 12.4783L7.52278 10.0807M22.5137 15.2573V27.436M16.386 1.03534H28.6413V6.13018H25.3039V10.4077C30.7175 11.1002 35.6632 13.8197 39.1358 18.0136C42.6083 22.2075 44.3471 27.561 43.9987 32.9859C43.6504 38.4109 41.241 43.5002 37.2603 47.2193C33.2797 50.9385 28.0264 53.0083 22.5684 53.0083C17.1103 53.0083 11.8571 50.9385 7.87642 47.2193C3.89574 43.5002 1.48638 38.4109 1.13802 32.9859C0.789667 27.561 2.52843 22.2075 6.00098 18.0136C9.47352 13.8197 14.4192 11.1002 19.8328 10.4077V6.13018H16.4134L16.386 1.03534ZM22.5137 35.773C23.3415 35.773 24.1506 35.5284 24.8389 35.0704C25.5272 34.6124 26.0637 33.9613 26.3804 33.1996C26.6972 32.4379 26.7801 31.5998 26.6186 30.7912C26.4571 29.9826 26.0585 29.2398 25.4732 28.6569C24.8878 28.0739 24.1421 27.6769 23.3302 27.516C22.5183 27.3552 21.6768 27.4377 20.912 27.7532C20.1472 28.0687 19.4935 28.603 19.0336 29.2885C18.5737 29.974 18.3283 30.78 18.3283 31.6045C18.3282 32.1565 18.4383 32.703 18.652 33.2123C18.8658 33.7217 19.179 34.1836 19.5734 34.5714C19.9679 34.9592 20.4358 35.2652 20.9499 35.4714C21.464 35.6777 22.0142 35.7802 22.5684 35.773H22.5137Z" stroke="#4A4A49" stroke-miterlimit="10"/>
</svg>
