<svg width="40" height="35" viewBox="0 0 40 35" fill="none" xmlns="http://www.w3.org/2000/svg">
<path d="M39.5276 14.2528C39.6774 14.3991 39.7964 14.574 39.8775 14.7671C39.9587 14.9601 40.0003 15.1675 40 15.3769C39.9997 15.5864 39.9574 15.7936 39.8757 15.9864C39.7939 16.1792 39.6744 16.3537 39.5241 16.4996L21.2018 34.3567C20.88 34.6704 20.4485 34.8459 19.9991 34.8459C19.5498 34.8459 19.1183 34.6704 18.7965 34.3567L0.474132 16.4996C0.324081 16.3535 0.204822 16.1788 0.123386 15.9859C0.0419534 15.7929 -6.8127e-07 15.5856 -6.72115e-07 15.3762C-6.62961e-07 15.1668 0.0419534 14.9595 0.123386 14.7665C0.204822 14.5736 0.324081 14.3989 0.474132 14.2528C0.781852 13.9522 1.19494 13.784 1.6251 13.784C2.05525 13.784 2.46834 13.9522 2.77606 14.2528L19.9991 31.0451L37.2291 14.2528C37.5367 13.9533 37.949 13.7857 38.3783 13.7857C38.8077 13.7857 39.22 13.9533 39.5276 14.2528ZM39.5276 0.468836C39.6774 0.615163 39.7964 0.790023 39.8775 0.983093C39.9587 1.17616 40.0003 1.38353 40 1.59296C39.9997 1.80238 39.9574 2.00962 39.8757 2.20244C39.7939 2.39526 39.6744 2.56976 39.5241 2.71562L21.2018 20.5728C20.88 20.8864 20.4485 21.0619 19.9991 21.0619C19.5498 21.0619 19.1183 20.8864 18.7965 20.5728L0.474132 2.71562C0.324081 2.56953 0.204822 2.39485 0.123386 2.2019C0.041954 2.00896 -7.87529e-08 1.80165 -6.95986e-08 1.59223C-6.04443e-08 1.3828 0.041954 1.1755 0.123386 0.982553C0.204823 0.789608 0.324081 0.614931 0.474133 0.468835C0.781853 0.168267 1.19494 -1.69622e-06 1.6251 -1.67742e-06C2.05525 -1.65862e-06 2.46834 0.168267 2.77606 0.468835L19.9991 17.2612L37.2291 0.468836C37.5367 0.1693 37.949 0.00168006 38.3783 0.00168008C38.8077 0.0016801 39.22 0.1693 39.5276 0.468836Z" fill="#F39200"/>
</svg>
