<svg width="38" height="47" viewBox="0 0 38 47" fill="none" xmlns="http://www.w3.org/2000/svg">
<path d="M19 1C14.2278 1.00541 9.65274 2.82831 6.27831 6.06884C2.90388 9.30937 1.00565 13.7029 1.00002 18.2857C0.994304 22.0308 2.26817 25.6742 4.6262 28.6571C4.6262 28.6571 5.11711 29.2779 5.19729 29.3674L19 45L32.8093 29.3596C32.8813 29.2763 33.3738 28.6571 33.3738 28.6571L33.3754 28.6524C35.7323 25.6708 37.0056 22.0291 37 18.2857C36.9944 13.7029 35.0961 9.30937 31.7217 6.06884C28.3473 2.82831 23.7722 1.00541 19 1V1ZM19 24.5714C17.7054 24.5714 16.4399 24.2028 15.3635 23.5121C14.2872 22.8214 13.4482 21.8397 12.9528 20.6912C12.4574 19.5426 12.3278 18.2787 12.5803 17.0594C12.8329 15.8401 13.4563 14.7201 14.3717 13.841C15.2871 12.962 16.4534 12.3633 17.723 12.1208C18.9927 11.8782 20.3088 12.0027 21.5048 12.4785C22.7009 12.9542 23.7231 13.7599 24.4423 14.7936C25.1616 15.8272 25.5454 17.0425 25.5454 18.2857C25.5433 19.9522 24.853 21.5497 23.6259 22.7281C22.3989 23.9064 20.7353 24.5693 19 24.5714V24.5714Z" stroke="#F39200" stroke-width="2"/>
</svg>
