<svg width="11" height="9" viewBox="0 0 11 9" fill="none" xmlns="http://www.w3.org/2000/svg">
<path d="M10.1937 1.0686C10.1493 0.77204 10.0002 0.501193 9.77329 0.305152C9.54639 0.109111 9.25677 0.000851897 8.95692 0H1.25581C0.955956 0.000851897 0.666332 0.109111 0.439438 0.305152C0.212545 0.501193 0.0634013 0.77204 0.019043 1.0686L5.10636 4.36051L10.1937 1.0686Z" fill="white"/>
<path d="M5.29123 5.05191C5.23616 5.08753 5.17197 5.10647 5.10638 5.10647C5.0408 5.10647 4.97661 5.08753 4.92153 5.05191L0 1.86757V6.91438C0.00036044 7.24734 0.132786 7.56655 0.368222 7.80199C0.603658 8.03743 0.922874 8.16985 1.25583 8.17021H8.95694C9.28989 8.16985 9.60911 8.03743 9.84454 7.80199C10.08 7.56655 10.2124 7.24734 10.2128 6.91438V1.86723L5.29123 5.05191Z" fill="white"/>
</svg>
