<svg width="69" height="72" viewBox="0 0 69 72" fill="none" xmlns="http://www.w3.org/2000/svg">
<path d="M32.2917 15.1161H14.5093M63.1476 59.1959H67.7491V15.1161H59.9222M40.0326 59.1959H52.3964M5.73634 51.068C5.73634 51.068 5.7364 47.9287 8.08016 47.8212C10.4239 47.7137 14.5309 47.8212 14.5309 47.8212V7.76237H8.53169C7.41101 7.75143 6.30848 8.04589 5.34249 8.61412C4.3765 9.18235 3.58348 10.0029 3.04855 10.9877C0.61879 14.6216 1.04885 16.4708 1.04885 16.4708V50.5735C0.903537 51.85 1.08367 53.1424 1.57243 54.3305C2.0612 55.5185 2.84273 56.5636 3.84419 57.3683C7.19856 59.5185 8.51016 59.1959 8.51016 59.1959H29.4104M46.3113 40.8975V50.036M62.524 45.4775H46.1608M61.879 66.1842H59.9867M49.0421 26.7704L59.9652 66.3562L58.9761 71.5813M30.593 45.4989H46.9563M31.2381 66.2057H33.0443M44.032 26.7704L33.0443 66.3347L34.0334 71.5597M46.3113 0V7.18184M46.3113 27.0284C48.2951 27.1273 50.2629 26.6293 51.9608 25.5986C53.6587 24.5679 55.0086 23.0519 55.8363 21.2463C56.664 19.4407 56.9314 17.4285 56.604 15.4694C56.2767 13.5104 55.3696 11.6944 53.9998 10.256C52.6301 8.81761 50.8606 7.82284 48.9199 7.40015C46.9791 6.97746 44.9562 7.14628 43.1124 7.88476C41.2685 8.62323 39.6884 9.89744 38.576 11.5429C37.4635 13.1884 36.8699 15.1297 36.8717 17.1159C36.8139 19.6771 37.7719 22.1572 39.5365 24.0145C41.3011 25.8717 43.7289 26.9552 46.2898 27.0284H46.3113Z" stroke="#4A4A49" stroke-width="1.5" stroke-miterlimit="10"/>
</svg>
