<svg width="69" height="73" viewBox="0 0 69 73" fill="none" xmlns="http://www.w3.org/2000/svg">
<path d="M14.8041 56.5921H6.32762V66.0823M52.916 15.6978H61.3925V6.18597M65.0377 22.7076C66.91 27.1819 67.8706 31.9849 67.8632 36.8351C67.8632 56.247 52.8945 71.949 34.4316 71.949C29.5914 71.9284 24.8164 70.8321 20.452 68.7394C16.0875 66.6468 12.2428 63.61 9.19617 59.849C8.87264 59.4608 7.34126 57.5195 7.0393 57.1097M4.01975 51.4372C2.01779 46.8299 0.989694 41.8585 1.00008 36.8351C1.00008 17.4233 15.9688 1.69971 34.4316 1.69971C39.063 1.71788 43.6374 2.72164 47.8509 4.64428C52.0643 6.56692 55.8203 9.36436 58.869 12.8507L60.8965 15.288M34.0434 61.3372H30.4199V56.0745L25.3081 53.6372L21.361 57.1745L15.4512 51.4803L19.1179 47.7058L16.81 41.494H11.4394V37.4822M34.0434 13.6487H30.4199V18.9331L25.3513 21.4135L21.4041 17.8763L15.4512 23.441L19.1179 27.2155L16.81 33.4057H11.4394V37.4606M31.3689 61.1862H39.3062V55.9235L44.3964 53.4431L48.3435 56.9803L54.2533 51.394L50.5866 47.6195L52.8944 41.4077H58.265V37.3959M31.1533 13.5625H39.3062V18.8468L44.3964 21.3272L48.3435 17.79L54.2533 23.3763L50.5866 27.1508L52.8944 33.341H58.265V37.3959M34.8414 47.8999C36.9132 48.0034 38.9683 47.4835 40.7416 46.4073C42.5149 45.3311 43.925 43.748 44.7896 41.8625C45.6542 39.9769 45.9336 37.8755 45.592 35.8295C45.2503 33.7835 44.3032 31.8869 42.8728 30.3846C41.4425 28.8823 39.5947 27.8432 37.5679 27.4016C35.5412 26.9599 33.4285 27.136 31.5028 27.907C29.5771 28.6781 27.9268 30.0087 26.7649 31.727C25.603 33.4454 24.9828 35.4726 24.9845 37.5469C24.9322 40.2231 25.9382 42.8118 27.7839 44.7504C29.6296 46.689 32.1659 47.8208 34.8414 47.8999V47.8999Z" stroke="#4A4A49" stroke-width="1.5" stroke-miterlimit="10"/>
</svg>
