<svg width="119" height="77" viewBox="0 0 119 77" fill="none" xmlns="http://www.w3.org/2000/svg">
<path d="M85.458 38.2782H100.257V34.6906L95.5801 28.2842M108.137 62.7721H114.052C114.864 62.2777 115.569 61.6265 116.126 60.8566C116.684 60.0866 117.082 59.2132 117.298 58.2876C117.853 55.2979 117.298 40.7767 117.298 40.7767C117.15 39.8351 116.761 38.9474 116.17 38.1994C115.579 37.4514 114.806 36.8681 113.924 36.5058C110.934 35.3953 110.55 35.5662 110.55 35.5662L100.065 19.3792H78.9235M78.9235 1.29175V62.2169M43.3464 62.2169H88.1914M79.0089 1.29175H1V61.3414H12.318M97.4167 75.948C99.5732 75.9395 101.679 75.2924 103.468 74.0882C105.256 72.884 106.648 71.1768 107.468 69.1822C108.287 67.1875 108.497 64.9947 108.071 62.8808C107.645 60.7668 106.603 58.8264 105.075 57.3046C103.547 55.7827 101.603 54.7477 99.4872 54.3301C97.3716 53.9125 95.1797 54.131 93.1882 54.9582C91.1967 55.7854 89.495 57.1841 88.2978 58.9777C87.1007 60.7712 86.4617 62.8793 86.4617 65.0357C86.4561 66.4789 86.7351 67.9091 87.2829 69.2443C87.8306 70.5796 88.6364 71.7937 89.6539 72.8172C90.6715 73.8407 91.8809 74.6535 93.2129 75.209C94.545 75.7646 95.9735 76.0519 97.4167 76.0547V75.948ZM32.6478 75.948C34.8042 75.9395 36.9097 75.2924 38.6986 74.0882C40.4875 72.884 41.8795 71.1768 42.6988 69.1822C43.5182 67.1875 43.7282 64.9947 43.3024 62.8808C42.8765 60.7668 41.8339 58.8264 40.3061 57.3046C38.7783 55.7827 36.8339 54.7477 34.7183 54.3301C32.6027 53.9125 30.4108 54.131 28.4193 54.9582C26.4278 55.7854 24.7261 57.1841 23.5289 58.9777C22.3317 60.7712 21.6928 62.8793 21.6928 65.0357C21.6871 66.4789 21.9662 67.9091 22.514 69.2443C23.0617 70.5796 23.8674 71.7937 24.885 72.8172C25.9025 73.8407 27.1119 74.6535 28.4439 75.209C29.776 75.7646 31.2045 76.0519 32.6478 76.0547V75.948Z" stroke="#4A4A49" stroke-width="1.5" stroke-miterlimit="10"/>
</svg>
