<svg width="80" height="62" viewBox="0 0 80 62" fill="none" xmlns="http://www.w3.org/2000/svg">
<path d="M22.159 34.5457H29.0194L32.2387 23.1783M42.8733 8.50294V15.0525M36.0131 8.50294V15.0525M29.3525 8.50294V15.0525M14.7214 21.935L8.97108 48.5772H3.13212M79.0845 12.2551H68.9827M56.8605 19.2264H64.942L68.9827 15.5853V9.19119L65.0974 4.75083H57.1713M21.3598 0.7989H53.4414C54.3739 0.792962 55.2708 1.15618 55.9363 1.80926C56.6019 2.46233 56.982 3.35223 56.9937 4.28461V19.6705C56.982 20.6028 56.6019 21.4927 55.9363 22.1458C55.2708 22.7989 54.3739 23.1621 53.4414 23.1562H24.579L18.3626 52.8844C18.3626 52.8844 23.1804 55.3488 22.4033 58.1907C22.2595 58.9387 21.8498 59.6094 21.2499 60.0788C20.6499 60.5482 19.9002 60.7844 19.1396 60.7439H7.21719C4.39271 54.0457 2.38742 47.0309 1.24488 39.8519C-0.331446 28.9508 6.21808 14.6528 6.21808 14.6528C6.21808 14.6528 2.44387 7.32625 1.33378 5.03946C0.223687 2.75267 5.77415 0.7989 5.77415 0.7989H21.3598Z" stroke="#4A4A49" stroke-width="1.5" stroke-miterlimit="10"/>
</svg>
