<svg width="59" height="75" viewBox="0 0 59 75" fill="none" xmlns="http://www.w3.org/2000/svg">
<path d="M32.5733 21.043C33.2984 21.6964 33.8373 22.5305 34.1349 23.4602M23.5677 21.5777C23.5677 21.5777 21.8564 19.7809 22.819 18.0268C23.7816 16.2727 25.5143 14.4117 27.7817 15.7808M38.8196 18.6043C38.9483 18.2228 38.9483 17.8095 38.8196 17.4279C37.3614 15.3883 35.6985 13.5032 33.8568 11.802C33.8568 11.802 31.7177 9.87682 29.7925 10.8394C27.8673 11.802 26.5196 14.3261 27.9742 16.016C29.4288 17.7059 32.8728 22.7115 35.3756 21.8344M20.0809 28.4871C20.0809 28.4871 17.7707 25.7276 19.0969 23.6954C19.3454 23.1733 19.7082 22.7139 20.1585 22.3512C20.6088 21.9885 21.135 21.7318 21.698 21.6003C22.2611 21.4688 22.8465 21.4658 23.4109 21.5915C23.9753 21.7172 24.5041 21.9684 24.9581 22.3265M24.9581 22.3265L33.5145 31.2679C33.7981 31.9369 33.8843 32.673 33.763 33.3894C33.6417 34.1058 33.318 34.7725 32.83 35.3108C31.2471 37.6211 27.6106 34.9686 27.6106 34.9686M16.4872 44.3379L21.835 39.2254M43.2261 56.9159C43.2261 56.9159 41.087 51.9531 36.8088 51.3756C32.5306 50.798 25.0864 41.6212 25.0864 41.6212M51.205 19.8878C52.0868 20.3853 52.8292 21.0968 53.3637 21.9566C53.8983 22.8164 54.2079 23.7969 54.264 24.8078C54.05 27.8668 53.7933 37.1077 54.649 38.4981C55.6765 39.7949 56.8541 40.9653 58.1571 41.9849M41.0442 38.4126C40.2071 36.5421 39.925 34.4706 40.2313 32.4444C40.8731 29.6636 41.5576 27.0539 41.5576 27.0539M51.205 19.8878L46.1353 16.6792C45.1618 16.3307 44.1186 16.2227 43.0943 16.3642C42.0701 16.5058 41.0952 16.8927 40.2527 17.492C37.9425 19.6311 33.0867 25.2142 33.0867 25.2142C33.0867 25.2142 29.7711 27.995 32.7872 29.4924C35.8034 30.9898 40.5522 27.717 41.6218 26.7544C42.1831 26.303 42.6057 25.7024 42.841 25.0217M1 20.829H10.5191C12.1436 20.8404 13.6974 21.4951 14.8401 22.6498C15.9828 23.8046 16.6213 25.3652 16.6156 26.9897V59.7395C16.6156 61.3603 15.9747 62.9155 14.8326 64.0656C13.6905 65.2157 12.1399 65.8675 10.5191 65.8787H1.10699M1 3.35253V74.9486M18.2627 28.9149C18.2627 28.9149 16.1235 30.776 16.8508 32.8295C18.7743 36.1228 21.2995 39.0253 24.295 41.3859C25.6854 42.0919 29.0866 40.7442 29.0866 38.6051C29.1277 37.9177 29.0167 37.2296 28.7616 36.59C28.5065 35.9503 28.1135 35.3749 27.6106 34.9044C27.0116 34.2413 21.8778 29.3213 21.8778 29.3213C21.395 28.8121 20.7466 28.4915 20.0488 28.417C19.351 28.3425 18.6495 28.519 18.0701 28.9149H18.2627ZM41.8785 15.2032C43.2866 15.2201 44.668 14.8181 45.8471 14.0481C47.0262 13.2781 47.9497 12.175 48.5004 10.8789C49.0511 9.58281 49.204 8.15227 48.9397 6.76905C48.6754 5.38584 48.0058 4.11239 47.0161 3.1106C46.0264 2.10881 44.7612 1.42388 43.3813 1.14285C42.0014 0.861818 40.5691 0.997399 39.2664 1.53232C37.9637 2.06723 36.8495 2.97732 36.0652 4.147C35.281 5.31667 34.8623 6.69306 34.8622 8.1013C34.8318 9.93271 35.5124 11.7046 36.7609 13.0449C38.0094 14.3851 39.7287 15.1894 41.5576 15.2888L41.8785 15.2032Z" stroke="#4A4A49" stroke-width="1.5" stroke-miterlimit="10"/>
</svg>
