<svg width="59" height="77" viewBox="0 0 59 77" fill="none" xmlns="http://www.w3.org/2000/svg">
<path d="M48.0568 49.3061V32.3691M12.3696 22.9194H17.6172C17.6172 22.9194 23.2486 29.5747 26.1497 30.876C29.0507 32.1772 32.9543 32.2198 34.3622 33.521C35.77 34.8222 42.0414 39.0245 45.0278 38.8325C46.1236 38.5908 47.0853 37.9391 47.716 37.011C48.3466 36.0829 48.5984 34.9487 48.4195 33.841C48.3487 33.2511 48.1496 32.6839 47.8364 32.1791C47.5232 31.6743 47.1033 31.2441 46.6063 30.9186C43.0226 28.3802 38.5431 26.9937 37.6046 24.8819C36.666 22.7701 37.0073 19.5064 38.1165 18.7171C39.2257 17.9278 42.3827 18.8664 43.7053 19.9543C45.0278 21.0422 48.9742 25.0952 48.9742 25.0952C48.9742 25.0952 46.9903 36.1661 50.1474 38.3632C53.3044 40.5603 55.7361 38.7472 55.5441 34.6729C55.3521 30.5986 58.1679 23.7513 57.6772 21.3409C57.1866 18.9304 50.9579 11.9977 48.8035 10.2486C46.649 8.49941 29.2426 4.31847 27.2802 3.84919C25.3177 3.3799 12.0709 3.84919 12.0709 3.84919M45.4117 43.6534C43.9104 44.2983 42.6259 45.3609 41.7108 46.7146C40.7957 48.0683 40.2885 49.6564 40.2496 51.29C40.2313 52.8663 40.7012 54.4095 41.5949 55.708C42.4886 57.0065 43.7624 57.9967 45.2412 58.5426V61.0811L46.7983 63.0222L44.9852 64.7073V67.9924L46.7343 69.4856L45.2624 71.4267V76.0982H47.5876L51.5126 72.5359V58.9906C52.6551 58.4246 53.6426 57.5889 54.3897 56.5557C55.1367 55.5225 55.6207 54.3228 55.8001 53.0605C56.128 51.5129 55.9935 49.903 55.4131 48.4314C54.8328 46.9597 53.8324 45.6912 52.5365 44.7839C51.9028 44.3052 51.1763 43.9637 50.4033 43.7814M37.8605 45.9145C36.6783 45.8984 35.5074 46.1467 34.4334 46.6412C33.3594 47.1358 32.4095 47.8641 31.6532 48.7729C29.1361 51.8659 30.7572 56.6868 30.7572 56.6868L25.3604 61.209V64.3234L22.374 64.686L18.7476 68.2057L21.1155 70.6588H25.8724L35.5781 60.8464C35.9696 61.1599 36.4224 61.3882 36.9072 61.5168C37.3921 61.6453 37.8984 61.6713 38.3938 61.593C40.079 61.2943 41.2095 61.0384 41.2095 61.0384M1 25.9697H12.007V0.798828H1V25.9697Z" stroke="#4A4A49" stroke-width="1.5" stroke-miterlimit="10"/>
</svg>
