<svg width="88" height="62" viewBox="0 0 88 62" fill="none" xmlns="http://www.w3.org/2000/svg">
<path d="M34.3899 0.798828H52.8165C53.3233 0.798534 53.8104 0.995174 54.1749 1.34727C54.5394 1.69937 54.7528 2.17939 54.7701 2.6859V10.9667H32.4362V2.79688C32.4303 2.53661 32.4764 2.2778 32.572 2.03563C32.6675 1.79345 32.8105 1.57278 32.9925 1.38664C33.1745 1.20049 33.3919 1.05262 33.6319 0.951675C33.8718 0.850729 34.1295 0.798761 34.3899 0.798828V0.798828ZM84.3859 28.8382V58.7426C84.3801 59.0138 84.3209 59.2811 84.2118 59.5294C84.1027 59.7777 83.9457 60.0021 83.7498 60.1897C83.554 60.3773 83.3231 60.5245 83.0703 60.6229C82.8176 60.7212 82.5479 60.7687 82.2768 60.7628H5.88418C5.61227 60.7717 5.3413 60.7262 5.08722 60.629C4.83315 60.5317 4.6011 60.3846 4.40463 60.1964C4.20816 60.0083 4.05128 59.7827 3.94318 59.533C3.83508 59.2834 3.7779 59.0147 3.77509 58.7426V28.8382H19.7152V36.0979H27.3967V28.8605H60.6977V36.0979H68.357V28.8605L84.3859 28.8382ZM2.2433 10.9667H85.7401C86.088 10.9663 86.4228 11.0998 86.6749 11.3395C86.927 11.5793 87.0772 11.9069 87.0943 12.2544V27.5507C87.0827 27.9001 86.9342 28.2308 86.6809 28.4717C86.4275 28.7126 86.0896 28.8443 85.7401 28.8382H68.2681V24.2871H60.6977V28.8382H27.3967V24.2871H19.7596V28.8382H2.3765C2.20155 28.8442 2.0271 28.8156 1.86322 28.7541C1.69933 28.6926 1.54918 28.5993 1.42134 28.4797C1.29351 28.3601 1.19052 28.2165 1.11823 28.0571C1.04593 27.8976 1.00573 27.7257 1 27.5507V12.2544C1.01688 11.9107 1.16397 11.5863 1.41138 11.3471C1.6588 11.108 1.98798 10.9719 2.33206 10.9667H2.2433ZM60.6977 36.0979H68.357V24.3093H60.6977V36.0979Z" stroke="#4A4A49" stroke-width="1.5" stroke-miterlimit="10"/>
</svg>
