<svg width="195" height="57" viewBox="0 0 195 57" fill="none" xmlns="http://www.w3.org/2000/svg">
<path d="M80.5457 29.9393L88.1134 23.6579V34.5478H97.6144V4.93201H88.4843V8.9881L80.5615 16.6978L72.615 8.9881V4.93201H63.477V34.5478H72.9859V23.6579L80.5457 29.9393Z" fill="#F39200"/>
<path d="M0 0.315643H27.493V29.6552H17.8973V9.54048H9.59573V29.6552H0V0.315643Z" fill="white"/>
<path d="M50.7484 9.45368H33.585V0.315643H59.8786V21.0774L51.7585 30.0261H33.1273V22.0954H48.0733L50.7484 20.2489V19.0494H39.4877V12.7759H50.7484V9.45368Z" fill="white"/>
<path d="M185.894 9.06701V29.5842H176.827V9.06701H167.728V0H176.827H185.894H195V9.06701H185.894Z" fill="white"/>
<path d="M152.451 19.6097H144.007V29.5842H134.932V0H144.007V10.5348H152.451V0H161.518V29.5842H152.451V19.6097Z" fill="white"/>
<path d="M119.749 20.5251H110.951V9.18537H119.749V20.5251ZM101.97 29.6237H128.722V0.0789185H101.97V29.6237Z" fill="white"/>
<path d="M8.28578 45.1772V54.1101H7.01531V50.125H1.89389V54.1101H0.623413V45.1772H1.89389V49.0203H7.03108V45.1772H8.28578ZM17.1318 51.8769H12.3971L11.4423 54.1101H10.1008L14.149 45.1772H15.3879L19.4519 54.1101H18.1104L17.1318 51.8769ZM16.6899 50.8589L14.7566 46.4793L12.8311 50.8589H16.6899ZM29.8051 52.9975V56.0671H28.6215V54.1101H21.2669V56.0671H20.1226V52.9975H20.5566C21.1169 52.9975 21.5115 52.524 21.7403 51.6638C22.0109 50.4778 22.1538 49.2661 22.1664 48.0496L22.2533 45.1772H28.5662V52.9975H29.8051ZM23.2791 48.1601C23.2605 49.2184 23.1603 50.2737 22.9792 51.3166C22.9008 51.9533 22.6248 52.5494 22.1901 53.0211H27.2247V46.3136H23.2791L23.216 48.1838L23.2791 48.1601ZM38.3277 52.9975V54.1101H31.8411V45.1772H38.1541V46.2899H33.1274V49.0282H37.6096V50.1172H33.1274V52.9975H38.3277ZM33.8218 44.2303C33.6922 44.2297 33.5657 44.1907 33.4583 44.1182C33.3509 44.0457 33.2674 43.943 33.2184 43.823C33.1694 43.703 33.1571 43.5712 33.183 43.4443C33.209 43.3173 33.272 43.2009 33.3641 43.1098C33.4242 43.0496 33.4955 43.0019 33.5741 42.9694C33.6526 42.9368 33.7368 42.9201 33.8218 42.9201C33.9068 42.9201 33.991 42.9368 34.0695 42.9694C34.148 43.0019 34.2194 43.0496 34.2795 43.1098C34.3716 43.2009 34.4346 43.3173 34.4605 43.4443C34.4865 43.5712 34.4741 43.703 34.4251 43.823C34.3761 43.943 34.2927 44.0457 34.1853 44.1182C34.0779 44.1907 33.9514 44.2297 33.8218 44.2303ZM36.1891 44.2303C36.0186 44.2325 35.8541 44.1673 35.7315 44.0488C35.6404 43.9566 35.5784 43.8398 35.5531 43.7127C35.5277 43.5857 35.5402 43.454 35.5889 43.3339C35.6376 43.2139 35.7204 43.1107 35.8271 43.0372C35.9337 42.9637 36.0596 42.9231 36.1891 42.9203C36.2743 42.9194 36.3587 42.9357 36.4374 42.9683C36.516 43.0008 36.5873 43.049 36.6468 43.1098C36.7679 43.2361 36.8355 43.4043 36.8355 43.5793C36.8355 43.7543 36.7679 43.9225 36.6468 44.0488C36.5237 44.1665 36.3595 44.2316 36.1891 44.2303ZM47.9786 50.1803H46.282V54.1259H45.0273V50.1803H43.3228L40.8213 54.1259H39.3299L42.2733 49.478L39.5429 45.193H40.9081L43.2755 49.0755H45.0036V45.193H46.2583V49.0755H47.9707L50.3381 45.193H51.7033L48.9729 49.5095L51.9164 54.1259H50.4249L47.9786 50.1803ZM61.2517 45.1772V54.1101H59.9733V50.125H54.844V54.1101H53.5735V45.1772H54.844V49.0203H59.9733V45.1772H61.2517ZM68.3143 54.2127C67.4643 54.2268 66.6249 54.023 65.8759 53.6208C65.1677 53.2408 64.5779 52.6729 64.1714 51.9795C63.763 51.2688 63.548 50.4634 63.548 49.6437C63.548 48.824 63.763 48.0186 64.1714 47.3079C64.5822 46.6123 65.1777 46.0442 65.8917 45.6665C66.6429 45.2777 67.4764 45.0747 68.3222 45.0747C69.168 45.0747 70.0015 45.2777 70.7527 45.6665C71.4582 46.0439 72.0455 46.6093 72.4493 47.3C72.8561 48.0141 73.0701 48.8218 73.0701 49.6437C73.0701 50.4656 72.8561 51.2733 72.4493 51.9874C72.0455 52.6781 71.4582 53.2435 70.7527 53.6208C70.0084 54.0204 69.1748 54.2241 68.3301 54.2127H68.3143ZM68.3143 53.0764C68.9329 53.0851 69.5428 52.9299 70.0819 52.6266C70.5992 52.3366 71.0276 51.911 71.3209 51.3955C71.6158 50.8587 71.7705 50.2562 71.7705 49.6437C71.7705 49.0312 71.6158 48.4286 71.3209 47.8918C71.0276 47.3764 70.5992 46.9508 70.0819 46.6608C69.5428 46.3574 68.9329 46.2022 68.3143 46.211C67.6908 46.2024 67.0758 46.3575 66.5309 46.6608C66.0074 46.9453 65.5752 47.372 65.2841 47.8918C64.9841 48.427 64.8266 49.0302 64.8266 49.6437C64.8266 50.2572 64.9841 50.8604 65.2841 51.3955C65.5752 51.9153 66.0074 52.3421 66.5309 52.6266C67.0758 52.9298 67.6908 53.0849 68.3143 53.0764ZM79.362 54.2127C78.5198 54.2248 77.6885 54.0211 76.9473 53.6208C76.244 53.2433 75.6593 52.6778 75.2586 51.9874C74.8518 51.2733 74.6378 50.4656 74.6378 49.6437C74.6378 48.8218 74.8518 48.0141 75.2586 47.3C75.6558 46.6096 76.238 46.0439 76.9394 45.6665C77.6834 45.2663 78.5173 45.0626 79.362 45.0747C80.0174 45.0687 80.6679 45.1865 81.2796 45.4219C81.8446 45.6518 82.3494 46.0082 82.7552 46.4635L81.9267 47.2526C81.6053 46.9089 81.2149 46.637 80.7811 46.4548C80.3473 46.2725 79.8798 46.1841 79.4094 46.1952C78.7808 46.1865 78.1607 46.3415 77.6102 46.645C77.0838 46.9283 76.6487 47.3552 76.3555 47.876C76.0605 48.4128 75.9059 49.0154 75.9059 49.6279C75.9059 50.2404 76.0605 50.8429 76.3555 51.3797C76.6487 51.9006 77.0838 52.3275 77.6102 52.6108C78.1607 52.9143 78.7808 53.0693 79.4094 53.0606C79.8812 53.0712 80.3498 52.981 80.784 52.7959C81.2181 52.6108 81.6077 52.3352 81.9267 51.9874L82.7552 52.7765C82.3491 53.237 81.8411 53.5964 81.2717 53.826C80.6591 54.0685 80.005 54.1891 79.3462 54.1811L79.362 54.2127ZM90.828 46.3215H87.7662V54.1417H86.5115V46.3215H83.4655V45.2088H90.828V46.3215ZM96.557 48.3258C97.4305 48.2677 98.2967 48.5192 99.0033 49.036C99.2844 49.3002 99.5038 49.6232 99.6457 49.982C99.7875 50.3408 99.8484 50.7264 99.824 51.1114C99.8519 51.5281 99.7848 51.9457 99.6275 52.3326C99.4703 52.7195 99.2272 53.0656 98.9165 53.3447C98.1674 53.91 97.2413 54.1898 96.3045 54.1338H92.6114V45.1772H93.8819V48.2943L96.557 48.3258ZM96.2729 53.1316C96.8834 53.174 97.4886 52.9947 97.9774 52.6266C98.1813 52.4444 98.3412 52.2184 98.4451 51.9656C98.549 51.7127 98.5941 51.4395 98.5772 51.1667C98.5772 49.9435 97.788 49.328 96.2729 49.328H93.9055V53.1316H96.2729ZM105.482 47.3789H106.705V52.303L110.848 47.3789H111.961V54.1417H110.738V49.2176L106.603 54.1417H105.482V47.3789ZM121.596 50.2119H119.734V54.1575H118.487V45.1772H119.734V49.0597H121.627L124.429 45.1772H125.794L122.637 49.5016L125.983 54.1101H124.523L121.596 50.2119ZM133.204 51.9085H128.469L127.443 54.1101H126.133L130.182 45.1772H131.444L135.5 54.1101H134.159L133.204 51.9085ZM132.754 50.8905L130.829 46.5109L128.903 50.8905H132.754ZM143.32 45.2088V54.1101H142.058V50.5748C141.228 50.9166 140.343 51.1038 139.446 51.1272C138.533 51.1855 137.631 50.9045 136.913 50.3381C136.606 50.0515 136.366 49.7005 136.21 49.3104C136.055 48.9202 135.987 48.5005 136.013 48.0812V45.1851H137.26V47.9392C137.243 48.2233 137.288 48.5077 137.393 48.7722C137.498 49.0368 137.66 49.2751 137.868 49.4701C138.351 49.8566 138.962 50.048 139.58 50.0067C140.437 50.0032 141.283 49.812 142.058 49.4464V45.1851L143.32 45.2088ZM152.845 53.029V54.1417H146.382V45.1772H152.695V46.2899H147.668V49.0282H152.151V50.1172H147.668V52.9975L152.845 53.029ZM159.063 54.2443C158.219 54.2574 157.384 54.0536 156.641 53.6524C155.937 53.2749 155.353 52.7093 154.952 52.0189C154.545 51.3048 154.331 50.4971 154.331 49.6752C154.331 48.8534 154.545 48.0457 154.952 47.3315C155.347 46.6284 155.932 46.0512 156.641 45.6665C157.385 45.2663 158.219 45.0626 159.063 45.0747C159.719 45.0681 160.369 45.186 160.981 45.4219C161.547 45.6503 162.052 46.0069 162.457 46.4635L161.628 47.2526C161.308 46.9095 160.919 46.6379 160.486 46.4557C160.054 46.2735 159.588 46.1847 159.119 46.1952C158.49 46.1857 157.87 46.3408 157.319 46.645C156.792 46.9295 156.355 47.3559 156.057 47.876C155.762 48.4128 155.607 49.0154 155.607 49.6279C155.607 50.2404 155.762 50.8429 156.057 51.3797C156.355 51.8998 156.792 52.3263 157.319 52.6108C157.87 52.915 158.49 53.07 159.119 53.0606C159.589 53.0701 160.056 52.9793 160.489 52.7943C160.922 52.6092 161.31 52.3342 161.628 51.9874L162.457 52.7765C162.05 53.237 161.542 53.5964 160.973 53.826C160.363 54.0677 159.712 54.1883 159.055 54.1811L159.063 54.2443ZM170.521 46.353H167.452V54.1732H166.197V46.353H163.151V45.2404H170.514L170.521 46.353ZM177.9 49.5095C178.431 49.6164 178.913 49.8934 179.273 50.2986C179.593 50.7014 179.758 51.2052 179.738 51.7191C179.755 52.0659 179.686 52.4114 179.537 52.7252C179.389 53.039 179.165 53.3114 178.886 53.5183C178.153 53.991 177.287 54.2151 176.416 54.1575H172.336V45.1772H176.172C176.98 45.1307 177.783 45.3376 178.468 45.7691C178.73 45.9657 178.94 46.2244 179.077 46.5218C179.215 46.8193 179.277 47.1464 179.257 47.4736C179.271 47.9147 179.144 48.3489 178.894 48.7125C178.638 49.0714 178.281 49.346 177.868 49.5016L177.9 49.5095ZM173.599 49.1386H176.085C176.586 49.1686 177.083 49.0388 177.505 48.7677C177.671 48.6423 177.802 48.478 177.889 48.2895C177.976 48.1009 178.015 47.8938 178.002 47.6867C178.015 47.4772 177.976 47.268 177.889 47.0769C177.802 46.8858 177.671 46.7186 177.505 46.5898C177.083 46.3188 176.586 46.1889 176.085 46.2189H173.599V49.1386ZM176.393 53.1316C177.766 53.1316 178.444 52.6266 178.444 51.6007C178.461 51.3846 178.422 51.1679 178.333 50.9706C178.243 50.7733 178.105 50.6019 177.931 50.4723C177.456 50.1906 176.904 50.0638 176.353 50.1093H173.56V53.1316H176.393ZM186.146 54.2443C185.296 54.2584 184.457 54.0546 183.708 53.6524C182.999 53.2724 182.41 52.7045 182.003 52.0111C181.595 51.3004 181.38 50.495 181.38 49.6752C181.38 48.8555 181.595 48.0501 182.003 47.3394C182.41 46.646 182.999 46.0781 183.708 45.6981C184.459 45.3092 185.292 45.1063 186.138 45.1063C186.984 45.1063 187.818 45.3092 188.569 45.6981C189.274 46.0754 189.861 46.6408 190.265 47.3315C190.672 48.0457 190.886 48.8534 190.886 49.6752C190.886 50.4971 190.672 51.3048 190.265 52.0189C189.861 52.7096 189.274 53.275 188.569 53.6524C187.824 54.052 186.991 54.2557 186.146 54.2443ZM186.146 53.1079C186.765 53.1167 187.375 52.9615 187.914 52.6581C188.431 52.3681 188.859 51.9425 189.153 51.4271C189.448 50.8903 189.602 50.2877 189.602 49.6752C189.602 49.0627 189.448 48.4602 189.153 47.9234C188.859 47.408 188.431 46.9823 187.914 46.6924C187.375 46.389 186.765 46.2338 186.146 46.2426C185.522 46.234 184.908 46.3891 184.363 46.6924C183.839 46.9768 183.407 47.4036 183.116 47.9234C182.816 48.4585 182.658 49.0617 182.658 49.6752C182.658 50.2887 182.816 50.8919 183.116 51.4271C183.407 51.9469 183.839 52.3737 184.363 52.6581C184.908 52.9614 185.522 53.1165 186.146 53.1079ZM193.532 54.2206C193.422 54.2228 193.312 54.203 193.209 54.1623C193.106 54.1217 193.012 54.061 192.932 53.9839C192.854 53.9087 192.791 53.818 192.749 53.7175C192.707 53.617 192.686 53.5088 192.688 53.3999C192.687 53.2923 192.709 53.1856 192.751 53.0866C192.793 52.9875 192.855 52.8981 192.932 52.8238C193.012 52.7467 193.106 52.686 193.209 52.6454C193.312 52.6047 193.422 52.5849 193.532 52.5871C193.749 52.5871 193.957 52.6732 194.11 52.8263C194.263 52.9795 194.349 53.1872 194.349 53.4038C194.349 53.6205 194.263 53.8282 194.11 53.9814C193.957 54.1345 193.749 54.2206 193.532 54.2206ZM192.806 45.2088H194.25L194.006 51.3245H193.035L192.806 45.2088Z" fill="white"/>
</svg>
