<svg width="8" height="11" viewBox="0 0 8 11" fill="none" xmlns="http://www.w3.org/2000/svg">
<path d="M2.69719 6.95819C2.71626 6.98236 2.73498 7.00926 2.76017 7.04636C2.90791 7.24483 3.0526 7.43955 3.19455 7.64279L3.46689 8.02747C3.49835 8.07187 3.53998 8.10808 3.58832 8.13308C3.63665 8.15807 3.69027 8.17111 3.74468 8.17111C3.79909 8.17111 3.85271 8.15807 3.90105 8.13308C3.94938 8.10808 3.99102 8.07187 4.02247 8.02747L4.42008 7.46679C4.51949 7.32755 4.62264 7.18832 4.73804 7.03989C4.75574 7.01402 4.77413 6.99019 4.80136 6.95547C5.1966 6.43972 5.62383 5.94815 6.14332 5.36806C6.56779 4.89376 6.8422 4.30431 6.93187 3.67415C7.02155 3.044 6.92248 2.4014 6.64718 1.82751C6.37187 1.25362 5.93268 0.774184 5.38506 0.449749C4.83744 0.125314 4.20597 -0.0295688 3.57038 0.00466146C2.74121 0.0568571 1.96351 0.424651 1.3971 1.03247C0.830695 1.64028 0.518595 2.44195 0.524936 3.27275C0.535642 4.09256 0.861345 4.87683 1.43455 5.46304C1.88705 5.93385 2.3088 6.43326 2.69719 6.95819ZM3.74468 1.87292C4.02391 1.87258 4.29696 1.95509 4.52927 2.11001C4.76157 2.26493 4.9427 2.4853 5.04971 2.7432C5.15672 3.00111 5.18481 3.28497 5.13042 3.55885C5.07602 3.83272 4.9416 4.08431 4.74415 4.28175C4.54671 4.4792 4.29513 4.61362 4.02125 4.66801C3.74737 4.7224 3.46351 4.69432 3.20561 4.58731C2.9477 4.4803 2.72734 4.29917 2.57242 4.06686C2.4175 3.83455 2.33498 3.5615 2.33532 3.28228C2.33577 2.90863 2.4844 2.55042 2.74861 2.28621C3.01282 2.022 3.37103 1.87337 3.74468 1.87292Z" fill="white"/>
<path d="M3.74469 4.01453C3.88911 4.01487 4.03039 3.97237 4.15065 3.89241C4.27092 3.81246 4.36478 3.69863 4.42036 3.56533C4.47594 3.43203 4.49074 3.28525 4.4629 3.14353C4.43505 3.00182 4.36581 2.87155 4.26393 2.76919C4.16204 2.66683 4.03209 2.59698 3.89051 2.56847C3.74893 2.53997 3.60208 2.55409 3.46852 2.60904C3.33496 2.664 3.2207 2.75733 3.14018 2.87722C3.05967 2.99712 3.01651 3.13819 3.01617 3.28262C3.01599 3.4762 3.09258 3.66195 3.22914 3.79916C3.36571 3.93636 3.5511 4.01381 3.74469 4.01453Z" fill="white"/>
<path d="M5.82604 6.76858C5.65583 6.97079 5.49481 7.16926 5.34128 7.36943C5.32051 7.39632 5.27557 7.45692 5.27557 7.45692C5.1663 7.59785 5.0686 7.72926 4.97396 7.86202L4.5777 8.42066C4.48333 8.55379 4.35844 8.66237 4.21347 8.73731C4.06851 8.81224 3.9077 8.85135 3.74451 8.85135C3.58132 8.85135 3.42051 8.81224 3.27555 8.73731C3.13058 8.66237 3.00569 8.55379 2.91132 8.42066L2.63898 8.03598C2.50281 7.84057 2.36664 7.65709 2.2274 7.47053C2.2274 7.47053 2.17192 7.39087 2.15932 7.37657C1.99489 7.15768 1.83523 6.95683 1.67694 6.76381C0.64 7.093 0 7.66628 0 8.341C0 9.40857 1.60987 10.2133 3.74468 10.2133C5.87949 10.2133 7.48936 9.40857 7.48936 8.341C7.48936 7.66934 6.85549 7.09845 5.82604 6.76858Z" fill="white"/>
</svg>
