<svg width="11" height="11" viewBox="0 0 11 11" fill="none" xmlns="http://www.w3.org/2000/svg">
<path d="M9.88426 7.35319C9.85634 7.33106 7.82979 5.8703 7.27353 5.97515C7.008 6.02213 6.85617 6.20323 6.55149 6.56579C6.50247 6.62434 6.38468 6.7646 6.29311 6.86434C6.10056 6.80154 5.91274 6.72509 5.73106 6.63557C4.79337 6.17907 4.03574 5.42144 3.57923 4.48374C3.48966 4.3021 3.41321 4.11427 3.35047 3.9217C3.45055 3.82979 3.59081 3.712 3.65072 3.66162C4.01157 3.35864 4.19302 3.20681 4.24 2.9406C4.33634 2.38911 2.8766 0.348596 2.86128 0.330213C2.79505 0.235599 2.70861 0.156889 2.60823 0.0997798C2.50785 0.0426702 2.39602 0.00858831 2.28085 0C1.68919 0 0 2.19132 0 2.56034C0 2.58179 0.0309788 4.76187 2.71932 7.49651C5.45123 10.1818 7.63098 10.2128 7.65243 10.2128C8.02179 10.2128 10.2128 8.52357 10.2128 7.93192C10.2043 7.81715 10.1704 7.7057 10.1136 7.60561C10.0568 7.50553 9.97845 7.41932 9.88426 7.35319Z" fill="white"/>
</svg>
