<svg width="53" height="42" viewBox="0 0 53 42" fill="none" xmlns="http://www.w3.org/2000/svg">
<path d="M15.0907 23.5169H19.6594L21.8033 15.9322M28.8853 6.1404V10.5105M24.3168 6.1404V10.5105M19.8812 6.1404V10.5105M10.1377 15.1027L6.3083 32.8791H2.41988M53 8.64392H46.2728M38.2 13.2954H43.5818L46.2728 10.866V6.59962L43.6853 3.63688H38.407M14.5585 1.00005H35.9231C36.5441 0.996086 37.1413 1.23844 37.5846 1.67419C38.0278 2.10994 38.2809 2.7037 38.2887 3.32581V13.5917C38.2809 14.2138 38.0278 14.8076 37.5846 15.2433C37.1413 15.6791 36.5441 15.9214 35.9231 15.9174H16.7023L12.5625 35.753C12.5625 35.753 15.7709 37.3973 15.2534 39.2935C15.1577 39.7926 14.8848 40.2401 14.4853 40.5533C14.0857 40.8664 13.5865 41.0241 13.08 40.997H5.1403C3.25936 36.5278 1.92395 31.8474 1.16308 27.0573C0.11333 19.7838 4.47495 10.2438 4.47495 10.2438C4.47495 10.2438 1.96154 5.35528 1.22228 3.82947C0.483018 2.30366 4.17932 1.00005 4.17932 1.00005H14.5585Z" stroke="white" stroke-miterlimit="10"/>
</svg>
