<svg width="18" height="34" viewBox="0 0 18 34" fill="none" xmlns="http://www.w3.org/2000/svg">
<path d="M0.40068 0.401552C0.525734 0.2742 0.675172 0.173055 0.840174 0.104088C1.00518 0.0351205 1.1824 -0.000271664 1.36138 1.32964e-06C1.54036 0.000274323 1.71747 0.0362068 1.88226 0.105677C2.04705 0.175147 2.19617 0.276748 2.32083 0.404482L17.5819 15.9785C17.85 16.252 18 16.6188 18 17.0007C18 17.3827 17.85 17.7495 17.5819 18.023L2.32084 33.597C2.19598 33.7245 2.0467 33.8259 1.88181 33.8951C1.71691 33.9643 1.53974 34 1.36076 34C1.18178 34 1.00461 33.9643 0.83972 33.8951C0.674824 33.8259 0.525543 33.7245 0.400686 33.597C0.143814 33.3354 5.76716e-06 32.9843 5.70323e-06 32.6187C5.6393e-06 32.253 0.143814 31.9019 0.400685 31.6404L14.7518 17.0007L0.40068 2.35526C0.14469 2.09383 0.00143639 1.74333 0.00143633 1.37841C0.00143626 1.01348 0.144689 0.66298 0.40068 0.401552Z" fill="white"/>
</svg>
