<svg width="1294" height="379" viewBox="0 0 1294 379" fill="none" xmlns="http://www.w3.org/2000/svg">
<g filter="url(#filter0_d_0_987)">
<path d="M1178.77 110.697H1218.31C1220.11 109.793 1221.82 108.772 1223.4 107.646H1173.66C1175.25 108.772 1176.96 109.793 1178.77 110.697Z" fill="url(#paint0_linear_0_987)"/>
<path d="M1167.49 101.897H1229.49C1230.29 100.923 1231.01 99.909 1231.64 98.8605H1165.36C1165.99 99.9059 1166.7 100.92 1167.49 101.897Z" fill="url(#paint1_linear_0_987)"/>
<path d="M1164.52 97.4963H1232.33C1232.83 96.4973 1233.27 95.479 1233.63 94.4454H1163.29C1163.62 95.4797 1164.03 96.4984 1164.52 97.4963Z" fill="url(#paint2_linear_0_987)"/>
<path d="M1215.19 62.4554C1211.93 61.1889 1208.43 60.3039 1204.82 59.8299C1206.6 58.8949 1207.99 57.5833 1208.81 56.0556C1209.63 54.5279 1209.85 52.8504 1209.45 51.2284C1209.04 49.6065 1208.02 48.1106 1206.52 46.9237C1205.01 45.7369 1203.09 44.9106 1200.98 44.5461L1198.5 0.689697L1196.1 44.5755C1193.98 44.9342 1192.05 45.7576 1190.54 46.9442C1189.03 48.1309 1188.01 49.6289 1187.6 51.2536C1187.19 52.8784 1187.42 54.5588 1188.24 56.088C1189.07 57.6171 1190.47 58.928 1192.26 59.8592C1188.65 60.3332 1185.15 61.2182 1181.88 62.4847L1215.19 62.4554Z" fill="url(#paint3_linear_0_987)"/>
<path d="M1234.9 85.7623H1162.1C1162.1 86.261 1162 86.7597 1162 87.229C1162 87.6984 1162 88.2558 1162.1 88.6958H1234.9C1234.9 88.1971 1235 87.6837 1235 87.229C1235 86.7743 1234.92 86.2023 1234.9 85.7623Z" fill="url(#paint4_linear_0_987)"/>
<path d="M1171.89 106.297H1225.09C1226.26 105.342 1227.35 104.328 1228.35 103.261H1168.65C1169.63 104.331 1170.72 105.346 1171.89 106.297Z" fill="url(#paint5_linear_0_987)"/>
<path d="M1162.83 93.0961H1234.15C1234.45 92.09 1234.67 91.0712 1234.81 90.0452H1162.19C1162.33 91.07 1162.54 92.0884 1162.83 93.0961Z" fill="url(#paint6_linear_0_987)"/>
<path d="M1218.31 63.7607H1178.77C1176.95 64.6599 1175.24 65.6809 1173.66 66.8116H1223.32C1221.77 65.6843 1220.09 64.6634 1218.31 63.7607Z" fill="url(#paint7_linear_0_987)"/>
<path d="M1225.09 68.1611H1171.89C1170.72 69.1125 1169.63 70.1272 1168.65 71.1974H1228.35C1227.35 70.1304 1226.26 69.1161 1225.09 68.1611Z" fill="url(#paint8_linear_0_987)"/>
<path d="M1234.15 81.3621H1162.83C1162.55 82.3651 1162.33 83.3785 1162.19 84.3983H1234.81C1234.67 83.3773 1234.45 82.3635 1234.15 81.3621Z" fill="url(#paint9_linear_0_987)"/>
<path d="M1181.81 111.988C1184.54 113.05 1187.44 113.849 1190.43 114.364C1183.62 192.719 1181.38 271.866 1183.73 351.805H1213.91C1215.03 272.257 1211.88 193.213 1204.45 114.672C1208.19 114.209 1211.82 113.303 1215.19 111.988H1181.81Z" fill="url(#paint10_linear_0_987)"/>
<path d="M1232.41 76.9617H1164.52C1164 77.9584 1163.57 78.9771 1163.21 80.0126H1233.67C1233.32 78.9796 1232.9 77.9613 1232.41 76.9617Z" fill="url(#paint11_linear_0_987)"/>
<path d="M1229.49 72.5613H1167.49C1166.7 73.5381 1165.99 74.5522 1165.36 75.5976H1231.64C1231.01 74.5491 1230.29 73.5346 1229.49 72.5613Z" fill="url(#paint12_linear_0_987)"/>
<path d="M1022.08 187.248C1022.17 179.864 1019.42 172.621 1014.17 166.42H1007.25C1007.29 159.244 1005.33 152.143 1001.49 145.592H988.215V119.469H984.2V119.381C984.704 119.286 985.153 119.065 985.474 118.752C985.795 118.44 985.969 118.054 985.969 117.657C985.969 117.26 985.795 116.875 985.474 116.562C985.153 116.25 984.704 116.029 984.2 115.934V85.4545H983.009V115.934C982.504 116.029 982.055 116.25 981.734 116.562C981.413 116.875 981.239 117.26 981.239 117.657C981.239 118.054 981.413 118.44 981.734 118.752C982.055 119.065 982.504 119.286 983.009 119.381V119.469H978.994V145.592H965.7C961.911 152.155 959.948 159.248 959.937 166.42H953.002C948.217 172.778 945.509 179.922 945.107 187.248H937V351.527H1030.32V187.248H1022.08ZM954.078 168.327H1012.98V169.368H954.078V168.327ZM951.888 170.527H1015.17V171.569H951.888V170.527ZM950.313 172.786H1016.74V173.827H950.313V172.786ZM949.371 175.059H1017.7V176.101H949.371V175.059ZM948.257 177.318H1018.8V178.36H948.257V177.318ZM947.47 179.577H1019.58V180.619H947.47V179.577ZM946.836 181.836H1020.22V182.877H946.836V181.836ZM946.048 184.109H1020.97V185.195H946.048V184.109ZM949.525 348.124H941.015V341.626H949.525V348.124ZM949.525 337.328H941.015V330.83H949.525V337.328ZM949.525 326.533H941.015V320.138H949.525V326.533ZM949.525 315.737H941.015V309.254H949.525V315.737ZM949.525 304.942H941.015V298.459H949.525V304.942ZM949.525 294.146H941.015V287.722H949.525V294.146ZM949.525 283.366H941.015V276.868H949.525V283.366ZM949.525 272.57H941.015V266.073H949.525V272.57ZM949.525 261.775H941.015V255.277H949.525V261.775ZM949.525 250.979H941.015V244.482H949.525V250.979ZM949.525 240.184H941.015V233.745H949.525V240.184ZM949.525 229.389H941.015V222.891H949.525V229.389ZM949.525 218.593H941.015V212.11H949.525V218.593ZM949.525 207.798H941.015V201.329H949.525V207.798ZM949.525 197.002H941.015V190.519H949.525V197.002ZM962.281 348.08H953.771V341.582H962.281V348.08ZM962.281 337.284H953.771V330.786H962.281V337.284ZM962.281 326.489H953.771V320.138H962.281V326.489ZM962.281 315.693H953.771V309.21H962.281V315.693ZM962.281 304.898H953.771V298.415H962.281V304.898ZM962.281 294.102H953.771V287.722H962.281V294.102ZM962.281 283.322H953.771V276.824H962.281V283.322ZM962.281 272.526H953.771V266.028H962.281V272.526ZM962.281 261.731H953.771V255.233H962.281V261.731ZM962.281 250.935H953.771V244.438H962.281V250.935ZM962.281 240.14H953.771V233.745H962.281V240.14ZM962.281 229.345H953.771V222.847H962.281V229.345ZM962.281 218.549H953.771V212.066H962.281V218.549ZM962.281 207.754H953.771V201.329H962.281V207.754ZM962.281 196.958H953.771V190.475H962.281V196.958ZM975.017 348.036H966.565V341.538H975.055L975.017 348.036ZM975.017 337.24H966.565V330.742H975.055L975.017 337.24ZM975.017 326.445H966.565V320.138H975.055L975.017 326.445ZM975.017 315.649H966.565V309.166H975.055L975.017 315.649ZM975.017 304.854H966.565V298.371H975.055L975.017 304.854ZM975.017 294.058H966.565V287.722H975.055L975.017 294.058ZM975.017 283.278H966.565V276.78H975.055L975.017 283.278ZM975.017 272.482H966.565V265.984H975.055L975.017 272.482ZM975.017 261.687H966.565V255.189H975.055L975.017 261.687ZM975.017 250.891H966.565V244.394H975.055L975.017 250.891ZM975.017 240.096H966.565V233.745H975.055L975.017 240.096ZM975.017 229.301H966.565V222.803H975.055L975.017 229.301ZM975.017 218.505H966.565V212.022H975.055L975.017 218.505ZM975.017 207.71H966.565V201.329H975.055L975.017 207.71ZM975.017 196.914H966.565V190.431H975.055L975.017 196.914ZM987.773 347.992H979.282V341.494H987.696L987.773 347.992ZM987.773 337.196H979.282V330.698H987.696L987.773 337.196ZM987.773 326.401H979.282V320.138H987.696L987.773 326.401ZM987.773 315.605H979.282V309.122H987.696L987.773 315.605ZM987.773 304.81H979.282V298.327H987.696L987.773 304.81ZM987.773 294.014H979.282V287.722H987.696L987.773 294.014ZM987.773 283.234H979.282V276.736H987.696L987.773 283.234ZM987.773 272.438H979.282V265.94H987.696L987.773 272.438ZM987.773 261.643H979.282V255.145H987.696L987.773 261.643ZM987.773 250.847H979.282V244.35H987.696L987.773 250.847ZM987.773 240.052H979.282V233.745H987.696L987.773 240.052ZM987.773 229.257H979.282V222.759H987.696L987.773 229.257ZM987.773 218.461H979.282V211.978H987.696L987.773 218.461ZM987.773 207.666H979.282V201.329H987.696L987.773 207.666ZM987.773 196.87H979.282V190.387H987.696L987.773 196.87ZM1000.53 347.948H992.037V341.45H1000.53V347.948ZM1000.53 337.152H992.037V330.654H1000.53V337.152ZM1000.53 326.357H992.037V320.138H1000.53V326.357ZM1000.53 315.561H992.037V309.078H1000.53V315.561ZM1000.53 304.766H992.037V298.283H1000.53V304.766ZM1000.53 293.97H992.037V287.722H1000.53V293.97ZM1000.53 283.19H992.037V276.692H1000.53V283.19ZM1000.53 272.394H992.037V265.896H1000.53V272.394ZM1000.53 261.599H992.037V255.101H1000.53V261.599ZM1000.53 250.803H992.037V244.306H1000.53V250.803ZM1000.53 240.008H992.037V233.745H1000.53V240.008ZM1000.53 229.213H992.037V222.715H1000.53V229.213ZM1000.53 218.417H992.037V211.934H1000.53V218.417ZM1000.53 207.622H992.037V201.329H1000.53V207.622ZM1000.53 196.826H992.037V190.343H1000.53V196.826ZM1013.28 347.904H1004.77V341.406H1013.28V347.904ZM1013.28 337.108H1004.77V330.61H1013.28V337.108ZM1013.28 326.313H1004.77V320.138H1013.28V326.313ZM1013.28 315.517H1004.77V309.034H1013.28V315.517ZM1013.28 304.722H1004.77V298.239H1013.28V304.722ZM1013.28 293.926H1004.77V287.722H1013.28V293.926ZM1013.28 283.146H1004.77V276.648H1013.28V283.146ZM1013.28 272.35H1004.77V265.852H1013.28V272.35ZM1013.28 261.555H1004.77V255.057H1013.28V261.555ZM1013.28 250.759H1004.77V244.262H1013.28V250.759ZM1013.28 239.964H1004.77V233.745H1013.28V239.964ZM1013.28 229.169H1004.77V222.671H1013.28V229.169ZM1013.28 218.373H1004.77V211.89H1013.28V218.373ZM1013.28 207.578H1004.77V201.329H1013.28V207.578ZM1013.28 196.782H1004.77V190.299H1013.28V196.782ZM1026.04 347.86H1017.53V341.362H1026.12L1026.04 347.86ZM1026.04 337.064H1017.53V330.566H1026.12L1026.04 337.064ZM1026.04 326.269H1017.53V320.138H1026.12L1026.04 326.269ZM1026.04 315.473H1017.53V308.99H1026.12L1026.04 315.473ZM1026.04 304.678H1017.53V298.195H1026.12L1026.04 304.678ZM1026.04 293.882H1017.53V287.722H1026.12L1026.04 293.882ZM1026.04 283.102H1017.53V276.604H1026.12L1026.04 283.102ZM1026.04 272.306H1017.53V265.808H1026.12L1026.04 272.306ZM1026.04 261.511H1017.53V255.013H1026.12L1026.04 261.511ZM1026.04 250.715H1017.53V244.218H1026.12L1026.04 250.715ZM1026.04 239.92H1017.53V233.745H1026.12L1026.04 239.92ZM1026.04 229.125H1017.53V222.627H1026.12L1026.04 229.125ZM1026.04 218.329H1017.53V211.846H1026.12L1026.04 218.329ZM1026.04 207.534H1017.53V201.329H1026.12L1026.04 207.534ZM1026.04 196.738H1017.53V190.255H1026.12L1026.04 196.738Z" fill="url(#paint13_linear_0_987)"/>
<path d="M792.423 145.314L761.437 117.445L760.053 84.4572L758.67 117.43L727.684 145.299H720V370.888H800.107V145.314H792.423ZM733.159 360.415H727.031V339.778H733.159V360.415ZM733.159 333.456H727.031V312.819H733.159V333.456ZM733.159 306.482H727.031V285.845H733.159V306.482ZM733.159 279.523H727.031V258.871H733.159V279.523ZM733.159 252.549H727.031V231.912H733.159V252.549ZM733.159 225.59H727.031V204.938H733.159V225.59ZM733.159 198.616H727.031V177.978H733.159V198.616ZM733.159 171.642H727.031V151.005H733.159V171.642ZM745.165 360.415H738.922V339.778H745.031L745.165 360.415ZM745.165 333.456H738.922V312.819H745.031L745.165 333.456ZM745.165 306.482H738.922V285.845H745.031L745.165 306.482ZM745.165 279.523H738.922V258.871H745.031L745.165 279.523ZM745.165 252.549H738.922V231.912H745.031L745.165 252.549ZM745.165 225.59H738.922V204.938H745.031L745.165 225.59ZM745.165 198.616H738.922V177.978H745.031L745.165 198.616ZM745.165 171.642H738.922V151.005H745.031L745.165 171.642ZM757.191 360.415H751.063V339.778H757.191V360.415ZM757.191 333.456H751.063V312.819H757.191V333.456ZM757.191 306.482H751.063V285.845H757.191V306.482ZM757.191 279.523H751.063V258.871H757.191V279.523ZM757.191 252.549H751.063V231.912H757.191V252.549ZM757.191 225.59H751.063V204.938H757.191V225.59ZM757.191 198.616H751.063V177.978H757.191V198.616ZM757.191 171.642H751.063V151.005H757.191V171.642ZM769.197 360.415H763.069V339.778H769.197V360.415ZM769.197 333.456H763.069V312.819H769.197V333.456ZM769.197 306.482H763.069V285.845H769.197V306.482ZM769.197 279.523H763.069V258.871H769.197V279.523ZM769.197 252.549H763.069V231.912H769.197V252.549ZM769.197 225.59H763.069V204.938H769.197V225.59ZM769.197 198.616H763.069V177.978H769.197V198.616ZM769.197 171.642H763.069V151.005H769.197V171.642ZM781.185 360.415H775.076V339.778H781.185V360.415ZM781.185 333.456H775.076V312.819H781.185V333.456ZM781.185 306.482H775.076V285.845H781.185V306.482ZM781.185 279.523H775.076V258.871H781.185V279.523ZM781.185 252.549H775.076V231.912H781.185V252.549ZM781.185 225.59H775.076V204.938H781.185V225.59ZM781.185 198.616H775.076V177.978H781.185V198.616ZM781.185 171.642H775.076V151.005H781.185V171.642ZM793.21 360.415H786.948V339.778H793.076L793.21 360.415ZM793.21 333.456H786.948V312.819H793.076L793.21 333.456ZM793.21 306.482H786.948V285.845H793.076L793.21 306.482ZM793.21 279.523H786.948V258.871H793.076L793.21 279.523ZM793.21 252.549H786.948V231.912H793.076L793.21 252.549ZM793.21 225.59H786.948V204.938H793.076L793.21 225.59ZM793.21 198.616H786.948V177.978H793.076L793.21 198.616ZM793.21 171.642H786.948V151.005H793.076L793.21 171.642Z" fill="url(#paint14_linear_0_987)"/>
<path d="M549.74 62.206V70.4786H532.047V78.7658H515.872V87.0384H500.504V352.802H579.67V62.206H549.74ZM520.771 344.779H508.034V335.055H520.771V344.779ZM520.771 329.628H508.034V319.976H520.771V329.628ZM520.771 314.461H508.034V304.736H520.771V314.461ZM520.771 299.295H508.034V289.57H520.771V299.295ZM520.771 284.143H508.034V274.418H520.771V284.143ZM520.771 268.977H508.034V259.252H520.771V268.977ZM520.771 253.81H508.034V244.085H520.771V253.81ZM520.771 238.658H508.034V228.934H520.771V238.658ZM520.771 223.492H508.034V213.767H520.771V223.492ZM520.771 208.326H508.034V198.601H520.771V208.326ZM520.771 193.174H508.034V183.449H520.771V193.174ZM520.771 178.007H508.034V168.283H520.771V178.007ZM520.771 162.856H508.034V153.131H520.771V162.856ZM520.771 147.689H508.034V137.965H520.771V147.689ZM520.771 132.523H508.034V122.798H520.771V132.523ZM520.771 117.371H508.034V107.647H520.771V117.371ZM520.771 102.205H508.034V92.4801H520.771V102.205ZM537.887 344.779H525.132V335.055H537.887V344.779ZM537.887 329.628H525.132V319.976H537.887V329.628ZM537.887 314.461H525.132V304.736H537.887V314.461ZM537.887 299.295H525.132V289.57H537.887V299.295ZM537.887 284.143H525.132V274.418H537.887V284.143ZM537.887 268.977H525.132V259.252H537.887V268.977ZM537.887 253.81H525.132V244.085H537.887V253.81ZM537.887 238.658H525.132V228.934H537.887V238.658ZM537.887 223.492H525.132V213.767H537.887V223.492ZM537.887 208.326H525.132V198.601H537.887V208.326ZM537.887 193.174H525.132V183.449H537.887V193.174ZM537.887 178.007H525.132V168.283H537.887V178.007ZM537.887 162.856H525.132V153.131H537.887V162.856ZM537.887 147.689H525.132V137.965H537.887V147.689ZM537.887 132.523H525.132V122.798H537.887V132.523ZM537.887 117.371H525.132V107.647H537.887V117.371ZM537.887 102.205H525.132V92.4801H537.887V102.205ZM554.984 344.779H542.248V335.055H554.984V344.779ZM554.984 329.628H542.248V319.976H554.984V329.628ZM554.984 314.461H542.248V304.736H554.984V314.461ZM554.984 299.295H542.248V289.57H554.984V299.295ZM554.984 284.143H542.248V274.418H554.984V284.143ZM554.984 268.977H542.248V259.252H554.984V268.977ZM554.984 253.81H542.248V244.085H554.984V253.81ZM554.984 238.658H542.248V228.934H554.984V238.658ZM554.984 223.492H542.248V213.767H554.984V223.492ZM554.984 208.326H542.248V198.601H554.984V208.326ZM554.984 193.174H542.248V183.449H554.984V193.174ZM554.984 178.007H542.248V168.283H554.984V178.007ZM554.984 162.856H542.248V153.131H554.984V162.856ZM554.984 147.689H542.248V137.965H554.984V147.689ZM554.984 132.523H542.248V122.798H554.984V132.523ZM554.984 117.371H542.248V107.647H554.984V117.371ZM554.984 102.205H542.248V92.4801H554.984V102.205ZM572.178 344.779H559.441V335.055H572.178V344.779ZM572.178 329.628H559.441V319.976H572.178V329.628ZM572.178 314.461H559.441V304.736H572.178V314.461ZM572.178 299.295H559.441V289.57H572.178V299.295ZM572.178 284.143H559.441V274.418H572.178V284.143ZM572.178 268.977H559.441V259.252H572.178V268.977ZM572.178 253.81H559.441V244.085H572.178V253.81ZM572.178 238.658H559.441V228.934H572.178V238.658ZM572.178 223.492H559.441V213.767H572.178V223.492ZM572.178 208.326H559.441V198.601H572.178V208.326ZM572.178 193.174H559.441V183.449H572.178V193.174ZM572.178 178.007H559.441V168.283H572.178V178.007ZM572.178 162.856H559.441V153.131H572.178V162.856ZM572.178 147.689H559.441V137.965H572.178V147.689ZM572.178 132.523H559.441V122.798H572.178V132.523ZM572.178 117.371H559.441V107.647H572.178V117.371ZM572.178 102.205H559.441V92.4801H572.178V102.205Z" fill="url(#paint15_linear_0_987)"/>
<path d="M319.423 165.641H314.563V156.606H306.687V127.637H303.229V156.606H295.353V165.641H290.512V168.017H319.423V165.641Z" fill="url(#paint16_linear_0_987)"/>
<path d="M319.423 216.553H290.512V218.929H319.423V216.553Z" fill="url(#paint17_linear_0_987)"/>
<path d="M319.423 223.828H290.512V226.204H319.423V223.828Z" fill="url(#paint18_linear_0_987)"/>
<path d="M319.423 209.278H290.512V211.654H319.423V209.278Z" fill="url(#paint19_linear_0_987)"/>
<path d="M319.423 212.915H290.512V215.291H319.423V212.915Z" fill="url(#paint20_linear_0_987)"/>
<path d="M319.423 220.19H290.512V222.566H319.423V220.19Z" fill="url(#paint21_linear_0_987)"/>
<path d="M319.423 231.103H290.512V233.479H319.423V231.103Z" fill="url(#paint22_linear_0_987)"/>
<path d="M319.423 205.64H290.512V208.016H319.423V205.64Z" fill="url(#paint23_linear_0_987)"/>
<path d="M319.423 234.741H290.512V237.117H319.423V234.741Z" fill="url(#paint24_linear_0_987)"/>
<path d="M319.423 227.466H290.512V229.842H319.423V227.466Z" fill="url(#paint25_linear_0_987)"/>
<path d="M319.423 180.177H290.512V182.553H319.423V180.177Z" fill="url(#paint26_linear_0_987)"/>
<path d="M319.423 172.916H290.512V175.293H319.423V172.916Z" fill="url(#paint27_linear_0_987)"/>
<path d="M319.423 176.539H290.512V178.915H319.423V176.539Z" fill="url(#paint28_linear_0_987)"/>
<path d="M319.423 169.279H290.512V171.655H319.423V169.279Z" fill="url(#paint29_linear_0_987)"/>
<path d="M319.423 183.814H290.512V186.191H319.423V183.814Z" fill="url(#paint30_linear_0_987)"/>
<path d="M319.423 194.727H290.512V197.103H319.423V194.727Z" fill="url(#paint31_linear_0_987)"/>
<path d="M319.423 187.452H290.512V189.828H319.423V187.452Z" fill="url(#paint32_linear_0_987)"/>
<path d="M319.423 198.365H290.512V200.741H319.423V198.365Z" fill="url(#paint33_linear_0_987)"/>
<path d="M319.423 202.002H290.512V204.378H319.423V202.002Z" fill="url(#paint34_linear_0_987)"/>
<path d="M319.423 191.089H290.512V193.466H319.423V191.089Z" fill="url(#paint35_linear_0_987)"/>
<path d="M342.207 240.637V205.64H335.675V181.38H331.372V205.64H324.841V240.637H319.424V238.378H290.512V240.637H286.286V360.78H347.067V240.637H342.207ZM313.392 353.725H291.108V347.154H313.392V353.725ZM313.392 341.038H291.108V334.452H313.392V341.038ZM313.392 328.335H291.108V321.749H313.392V328.335ZM313.392 315.633H291.108V309.047H313.392V315.633ZM313.392 302.931H291.108V296.345H313.392V302.931ZM313.392 290.243H291.108V283.657H313.392V290.243ZM313.392 277.541H291.108V270.955H313.392V277.541ZM313.392 264.839H291.108V258.253H313.392V264.839ZM313.392 252.137H291.108V245.551H313.392V252.137ZM342.207 353.725H319.904V347.154H342.207V353.725ZM342.207 341.038H319.904V334.452H342.207V341.038ZM342.207 328.335H319.904V321.749H342.207V328.335ZM342.207 315.633H319.904V309.047H342.207V315.633ZM342.207 302.931H319.904V296.345H342.207V302.931ZM342.207 290.243H319.904V283.657H342.207V290.243ZM342.207 277.541H319.904V270.955H342.207V277.541ZM342.207 264.839H319.904V258.253H342.207V264.839ZM342.207 252.137H319.904V245.551H342.207V252.137Z" fill="url(#paint36_linear_0_987)"/>
<path d="M151.595 226.689V218.901H53.1418V226.689H45.3232V231.089H53.1418V355.765H151.595V231.089H159.394V226.689H151.595ZM142.796 233.334V238.981H139.992V233.334H142.796ZM130.79 233.334V238.981H127.985V233.334H130.79ZM118.783 233.334V238.981H115.979V233.334H118.783ZM106.777 233.334V238.981H103.972V233.334H106.777ZM94.7514 233.334V238.981H91.9659V233.334H94.7514ZM82.7449 233.334V238.981H79.9594V233.334H82.7449ZM70.7385 233.334V238.981H67.953V233.334H70.7385ZM58.732 233.334V238.981H55.9465V233.334H58.732ZM64.7449 347.008H55.9465V335.274H64.7449V347.008ZM64.7449 331.578H55.9465V319.844H64.7449V331.578ZM64.7449 316.147H55.9465V304.413H64.7449V316.147ZM64.7449 300.717H55.9465V288.983H64.7449V300.717ZM64.7449 285.287H55.9465V273.552H64.7449V285.287ZM64.7449 269.856H55.9465V258.122H64.7449V269.856ZM64.7449 254.426H55.9465V242.692H64.7449V254.426ZM64.7449 238.981H61.9402V233.334H64.7449V238.981ZM76.7513 347.008H67.953V335.274H76.7513V347.008ZM76.7513 331.578H67.953V319.844H76.7513V331.578ZM76.7513 316.147H67.953V304.413H76.7513V316.147ZM76.7513 300.717H67.953V288.983H76.7513V300.717ZM76.7513 285.287H67.953V273.552H76.7513V285.287ZM76.7513 269.856H67.953V258.122H76.7513V269.856ZM76.7513 254.426H67.953V242.692H76.7513V254.426ZM76.7513 238.981H73.9466V233.334H76.7513V238.981ZM88.7577 347.008H79.9594V335.274H88.7577V347.008ZM88.7577 331.578H79.9594V319.844H88.7577V331.578ZM88.7577 316.147H79.9594V304.413H88.7577V316.147ZM88.7577 300.717H79.9594V288.983H88.7577V300.717ZM88.7577 285.287H79.9594V273.552H88.7577V285.287ZM88.7577 269.856H79.9594V258.122H88.7577V269.856ZM88.7577 254.426H79.9594V242.692H88.7577V254.426ZM88.7577 238.981H85.953V233.334H88.7577V238.981ZM100.841 347.008H91.9659V335.274H100.841V347.008ZM100.841 331.578H91.9659V319.844H100.841V331.578ZM100.841 316.147H91.9659V304.413H100.841V316.147ZM100.841 300.717H91.9659V288.983H100.841V300.717ZM100.841 285.287H91.9659V273.552H100.841V285.287ZM100.841 269.856H91.9659V258.122H100.841V269.856ZM100.841 254.426H91.9659V242.692H100.841V254.426ZM100.841 238.981H97.9595V233.334H100.841V238.981ZM112.847 347.008H103.972V335.274H112.771L112.847 347.008ZM112.847 331.578H103.972V319.844H112.771L112.847 331.578ZM112.847 316.147H103.972V304.413H112.771L112.847 316.147ZM112.847 300.717H103.972V288.983H112.771L112.847 300.717ZM112.847 285.287H103.972V273.552H112.771L112.847 285.287ZM112.847 269.856H103.972V258.122H112.771L112.847 269.856ZM112.847 254.426H103.972V242.692H112.771L112.847 254.426ZM112.847 238.981H109.966V233.334H112.771L112.847 238.981ZM124.854 347.008H115.979V335.274H124.777L124.854 347.008ZM124.854 331.578H115.979V319.844H124.777L124.854 331.578ZM124.854 316.147H115.979V304.413H124.777L124.854 316.147ZM124.854 300.717H115.979V288.983H124.777L124.854 300.717ZM124.854 285.287H115.979V273.552H124.777L124.854 285.287ZM124.854 269.856H115.979V258.122H124.777L124.854 269.856ZM124.854 254.426H115.979V242.692H124.777L124.854 254.426ZM124.854 238.981H121.972V233.334H124.777L124.854 238.981ZM136.86 347.008H127.985V335.274H136.784L136.86 347.008ZM136.86 331.578H127.985V319.844H136.784L136.86 331.578ZM136.86 316.147H127.985V304.413H136.784L136.86 316.147ZM136.86 300.717H127.985V288.983H136.784L136.86 300.717ZM136.86 285.287H127.985V273.552H136.784L136.86 285.287ZM136.86 269.856H127.985V258.122H136.784L136.86 269.856ZM136.86 254.426H127.985V242.692H136.784L136.86 254.426ZM136.86 238.981H133.979V233.334H136.784L136.86 238.981ZM148.867 347.008H139.992V335.274H148.867V347.008ZM148.867 331.578H139.992V319.844H148.867V331.578ZM148.867 316.147H139.992V304.413H148.867V316.147ZM148.867 300.717H139.992V288.983H148.867V300.717ZM148.867 285.287H139.992V273.552H148.867V285.287ZM148.867 269.856H139.992V258.122H148.867V269.856ZM148.867 254.426H139.992V242.692H148.867V254.426ZM148.867 238.981H145.985V233.334H148.867V238.981Z" fill="#CF0101"/>
<path d="M3.99988 332.717V350.025H46.6275V329.417L3.99988 332.717ZM16.1792 342.617H7.66905V336.516H16.1792V342.617ZM28.9733 342.617H20.5015V336.516H28.9733V342.617ZM41.825 342.617H33.3532V336.516H41.8826L41.825 342.617Z" fill="url(#paint37_linear_0_987)"/>
<path d="M228.039 314.708V359.533H267.881V312.23L228.039 314.708ZM237.029 346.889H234.013V341.477H237.029V346.889ZM237.029 341.272H234.013V335.815H237.029V341.272ZM237.029 332.794H234.013V327.396H237.029V332.794ZM237.029 327.191H234.013V321.793H237.029V327.191ZM240.372 346.889H237.356V341.477H240.372V346.889ZM240.372 341.272H237.356V335.815H240.372V341.272ZM240.372 332.794H237.356V327.396H240.372V332.794ZM240.372 327.191H237.356V321.793H240.372V327.191ZM247.787 346.889H244.771V341.477H247.787V346.889ZM247.787 341.272H244.771V335.815H247.787V341.272ZM247.787 332.794H244.771V327.396H247.787V332.794ZM247.787 327.191H244.771V321.793H247.787V327.191ZM251.13 346.889H248.114V341.477H251.13V346.889ZM251.13 341.272H248.114V335.815H251.13V341.272ZM251.13 332.794H248.114V327.396H251.13V332.794ZM251.13 327.191H248.114V321.793H251.13V327.191ZM258.545 346.889H255.529V341.477H258.545V346.889ZM258.545 341.272H255.529V335.815H258.545V341.272ZM258.545 332.794H255.529V327.396H258.545V332.794ZM258.545 327.191H255.529V321.793H258.545V327.191ZM261.887 346.889H258.871V341.477H261.887V346.889ZM261.887 341.272H258.871V335.815H261.887V341.272ZM261.887 332.794H258.871V327.396H261.887V332.794ZM261.887 327.191H258.871V321.793H261.887V327.191Z" fill="url(#paint38_linear_0_987)"/>
<path d="M818.917 315.162V317.832H822.279V367.35L861.967 365.502V317.832H865.329V315.162H818.917ZM830.597 361.41H827.427V355.733H830.597V361.41ZM830.597 355.543H827.427V349.881H830.597V355.543ZM830.597 347.798H827.427V342.136H830.597V347.798ZM830.597 341.931H827.427V336.225H830.597V341.931ZM830.597 334.186H827.427V328.525H830.597V334.186ZM830.597 328.319H827.427V322.658H830.597V328.319ZM834.112 361.468H830.942V355.733H834.112V361.468ZM834.112 355.601H830.942V349.94H834.112V355.601ZM834.112 347.857H830.942V342.195H834.112V347.857ZM834.112 341.99H830.942V336.225H834.112V341.99ZM834.112 334.245H830.942V328.583H834.112V334.245ZM834.112 328.378H830.942V322.716H834.112V328.378ZM841.892 361.527H838.723V355.733H841.892V361.527ZM841.892 355.66H838.723V349.998H841.892V355.66ZM841.892 347.915H838.723V342.254H841.892V347.915ZM841.892 342.048H838.723V336.225H841.892V342.048ZM841.892 334.304H838.723V328.642H841.892V334.304ZM841.892 328.437H838.723V322.775H841.892V328.437ZM845.408 361.586H842.238V355.733H845.408V361.586ZM845.408 355.719H842.238V350.057H845.408V355.719ZM845.408 347.974H842.238V342.312H845.408V347.974ZM845.408 342.107H842.238V336.225H845.408V342.107ZM845.408 334.362H842.238V328.701H845.408V334.362ZM845.408 328.495H842.238V322.834H845.408V328.495ZM853.188 361.644H850.018V355.733H853.188V361.644ZM853.188 355.777H850.018V350.116H853.188V355.777ZM853.188 348.033H850.018V342.371H853.188V348.033ZM853.188 342.166H850.018V336.225H853.188V342.166ZM853.188 334.421H850.018V328.759H853.188V334.421ZM853.188 328.554H850.018V322.892H853.188V328.554ZM856.703 361.703H853.649V355.733H856.819L856.703 361.703ZM856.703 355.836H853.649V350.174H856.819L856.703 355.836ZM856.703 348.091H853.649V342.43H856.819L856.703 348.091ZM856.703 342.224H853.649V336.225H856.819L856.703 342.224ZM856.703 334.48H853.649V328.818H856.819L856.703 334.48ZM856.703 328.613H853.649V322.951H856.819L856.703 328.613Z" fill="url(#paint39_linear_0_987)"/>
<path d="M922.768 330.899V326.778H883.56V330.899H879.583V333.1H883.56V361.247H922.768V333.1H926.764V330.899H922.768ZM892.915 349.058H887.728V345.083H892.915V349.058ZM892.915 343.528H887.728V339.553H892.915V343.528ZM892.915 337.984H887.728V334.024H892.915V337.984ZM901.483 349.058H896.2V345.083H901.406L901.483 349.058ZM901.483 343.528H896.2V339.553H901.406L901.483 343.528ZM901.483 337.984H896.2V334.024H901.406L901.483 337.984ZM910.051 349.058H904.845V345.083H910.051V349.058ZM910.051 343.528H904.845V339.553H910.051V343.528ZM910.051 337.984H904.845V334.024H910.051V337.984ZM918.618 349.058H913.489V345.083H918.695L918.618 349.058ZM918.618 343.528H913.489V339.553H918.695L918.618 343.528ZM918.618 337.984H913.489V334.024H918.695L918.618 337.984Z" fill="url(#paint40_linear_0_987)"/>
<path d="M587.035 311.159V355.895H605.899V315.809L587.035 311.159ZM595.699 342.709H592.279V338.587H595.699V342.709ZM595.699 337.605H592.279V335.977H595.699V337.605ZM595.699 334.187H592.279V330.066H595.699V334.187ZM595.699 329.083H592.279V327.455H595.699V329.083ZM595.699 325.651H592.279V321.529H595.699V325.651ZM595.699 320.561H592.279V318.918H595.699V320.561ZM600.655 342.709H597.255V338.587H600.655V342.709ZM600.655 337.605H597.255V335.977H600.655V337.605ZM600.655 334.187H597.255V330.066H600.655V334.187ZM600.655 329.083H597.255V327.455H600.655V329.083ZM600.655 325.651H597.255V321.529H600.655V325.651ZM600.655 320.561H597.255V318.918H600.655V320.561Z" fill="url(#paint41_linear_0_987)"/>
<path d="M439.698 316.864V363.067H490.643V316.864H439.698ZM448.803 350.922H444.654V349.763H448.803V350.922ZM448.803 348.15H444.654V346.991H448.803V348.15ZM448.803 345.378H444.654V344.204H448.803V345.378ZM448.803 339.437H444.654V338.279H448.803V339.437ZM448.803 336.665H444.654V335.492H448.803V336.665ZM448.803 333.893H444.654V332.72H448.803V333.893ZM448.803 327.953H444.654V326.779H448.803V327.953ZM448.803 325.18H444.654V324.007H448.803V325.18ZM448.803 322.408H444.654V321.264H448.803V322.408ZM454.566 350.922H450.398V349.763H454.566V350.922ZM454.566 348.15H450.398V346.991H454.566V348.15ZM454.566 345.378H450.398V344.204H454.566V345.378ZM454.566 339.437H450.398V338.279H454.566V339.437ZM454.566 336.665H450.398V335.492H454.566V336.665ZM454.566 333.893H450.398V332.72H454.566V333.893ZM454.566 327.953H450.398V326.779H454.566V327.953ZM454.566 325.18H450.398V324.007H454.566V325.18ZM454.566 322.408H450.398V321.264H454.566V322.408ZM464.402 350.922H460.233V349.763H464.402V350.922ZM464.402 348.15H460.233V346.991H464.402V348.15ZM464.402 345.378H460.233V344.204H464.402V345.378ZM464.402 339.437H460.233V338.279H464.402V339.437ZM464.402 336.665H460.233V335.492H464.402V336.665ZM464.402 333.893H460.233V332.72H464.402V333.893ZM464.402 327.953H460.233V326.779H464.402V327.953ZM464.402 325.18H460.233V324.007H464.402V325.18ZM464.402 322.408H460.233V321.264H464.402V322.408ZM470.165 350.922H465.996V349.763H470.165V350.922ZM470.165 348.15H465.996V346.991H470.165V348.15ZM470.165 345.378H465.996V344.204H470.165V345.378ZM470.165 339.437H465.996V338.279H470.165V339.437ZM470.165 336.665H465.996V335.492H470.165V336.665ZM470.165 333.893H465.996V332.72H470.165V333.893ZM470.165 327.953H465.996V326.779H470.165V327.953ZM470.165 325.18H465.996V324.007H470.165V325.18ZM470.165 322.408H465.996V321.264H470.165V322.408ZM480.001 350.922H475.832V349.763H480.001V350.922ZM480.001 348.15H475.832V346.991H480.001V348.15ZM480.001 345.378H475.832V344.204H480.001V345.378ZM480.001 339.437H475.832V338.279H480.001V339.437ZM480.001 336.665H475.832V335.492H480.001V336.665ZM480.001 333.893H475.832V332.72H480.001V333.893ZM480.001 327.953H475.832V326.779H480.001V327.953ZM480.001 325.18H475.832V324.007H480.001V325.18ZM480.001 322.408H475.832V321.264H480.001V322.408ZM485.764 350.922H481.614V349.763H485.764V350.922ZM485.764 348.15H481.614V346.991H485.764V348.15ZM485.764 345.378H481.614V344.204H485.764V345.378ZM485.764 339.437H481.614V338.279H485.764V339.437ZM485.764 336.665H481.614V335.492H485.764V336.665ZM485.764 333.893H481.614V332.72H485.764V333.893ZM485.764 327.953H481.614V326.779H485.764V327.953ZM485.764 325.18H481.614V324.007H485.764V325.18ZM485.764 322.408H481.614V321.264H485.764V322.408Z" fill="url(#paint42_linear_0_987)"/>
<path d="M179.56 306.334V352.112H206.838V311.541L179.56 306.334ZM204.802 347.315H181.596V346.156H204.802V347.315ZM204.802 345.115H181.596V343.956H204.802V345.115ZM204.802 342.93H181.596V341.771H204.802V342.93ZM204.802 340.729H181.596V339.571H204.802V340.729ZM204.802 338.544H181.596V337.385H204.802V338.544ZM204.802 336.344H181.596V335.185H204.802V336.344ZM204.802 334.158H181.596V333H204.802V334.158ZM204.802 331.958H181.596V330.799H204.802V331.958ZM204.802 329.773H181.596V328.614H204.802V329.773ZM204.802 327.572H181.596V326.487H204.802V327.572ZM204.802 325.387H181.596V324.228H204.802V325.387ZM204.802 323.187H181.596V322.087H204.802V323.187ZM204.802 321.001H181.596V319.843H204.802V321.001ZM204.802 318.801H181.596V317.686H204.802V318.801ZM204.802 316.616H181.596V315.457H204.802V316.616ZM204.802 314.43H181.596V313.286H204.802V314.43Z" fill="url(#paint43_linear_0_987)"/>
<path d="M1106.74 317.333V361.894H1119.23V317.333H1106.74ZM1115.02 354.736H1110.93V350.013H1115.02V354.736ZM1115.02 347.226H1110.93V342.503H1115.02V347.226ZM1115.02 339.702H1110.93V334.935H1115.02V339.702ZM1115.02 332.177H1110.93V327.469H1115.02V332.177ZM1115.02 324.667H1110.93V319.944H1115.02V324.667Z" fill="url(#paint44_linear_0_987)"/>
<path d="M1124.69 317.333V365.179H1137.94V317.333H1124.69ZM1133.35 358.652H1129.28V353.519H1133.35V358.652ZM1133.35 350.482H1129.28V345.349H1133.35V350.482ZM1133.35 342.298H1129.28V337.164H1133.35V342.298ZM1133.35 334.128H1129.28V329.068H1133.35V334.128ZM1133.35 325.958H1129.28V320.824H1133.35V325.958Z" fill="url(#paint45_linear_0_987)"/>
<path d="M1044.77 319.357V357.493H1093.76V326.31L1044.77 319.357ZM1088.73 347.636H1074.09V346.052H1088.73V347.636ZM1088.73 344.556H1067.21V342.576H1088.73V344.556ZM1088.73 340.948H1074.09V339.334H1088.73V340.948ZM1088.73 337.868H1067.21V335.888H1088.73V337.868ZM1088.73 334.259H1074.09V332.675H1088.73V334.259ZM1088.73 331.179H1067.21V329.199H1088.73V331.179Z" fill="url(#paint46_linear_0_987)"/>
<path d="M1281.73 325.812V323.377H1239.24V325.812H1231.67V328.511H1234.8V360.047H1286.21V328.511H1289.32V325.812H1281.73ZM1243.64 350.982H1240.74V348.767H1243.64V350.982ZM1243.64 345.232H1240.74V343.017H1243.64V345.232ZM1243.64 339.483H1240.74V337.268H1243.64V339.483ZM1243.64 333.747H1240.74V331.533H1243.64V333.747ZM1250.96 350.982H1248.06V348.767H1250.96V350.982ZM1250.96 345.232H1248.06V343.017H1250.96V345.232ZM1250.96 339.483H1248.06V337.268H1250.96V339.483ZM1250.96 333.747H1248.06V331.533H1250.96V333.747ZM1258.28 350.982H1255.38V348.767H1258.28V350.982ZM1258.28 345.232H1255.38V343.017H1258.28V345.232ZM1258.28 339.483H1255.38V337.268H1258.28V339.483ZM1258.28 333.747H1255.38V331.533H1258.28V333.747ZM1265.54 350.982H1262.64V348.767H1265.54V350.982ZM1265.54 345.232H1262.64V343.017H1265.54V345.232ZM1265.54 339.483H1262.64V337.268H1265.54V339.483ZM1265.54 333.747H1262.64V331.533H1265.54V333.747ZM1272.88 350.982H1269.98V348.767H1272.88V350.982ZM1272.88 345.232H1269.98V343.017H1272.88V345.232ZM1272.88 339.483H1269.98V337.268H1272.88V339.483ZM1272.88 333.747H1269.98V331.533H1272.88V333.747ZM1280.2 350.982H1277.3V348.767H1280.2V350.982ZM1280.2 345.232H1277.3V343.017H1280.2V345.232ZM1280.2 339.483H1277.3V337.268H1280.2V339.483ZM1280.2 333.747H1277.3V331.533H1280.2V333.747Z" fill="url(#paint47_linear_0_987)"/>
<path d="M393.803 319.869L356.746 322.201V363.535H430.878V322.201L393.803 319.869ZM367.312 345.875H363.796V343.191H367.312V345.875ZM367.312 340.947H363.796V332.322H367.312V340.947ZM367.312 330.21H363.796V327.526H367.312V330.21ZM378.607 345.875H375.092V343.191H378.607V345.875ZM378.607 340.947H375.092V332.322H378.607V340.947ZM378.607 330.21H375.092V327.526H378.607V330.21ZM389.922 345.875H386.407V343.191H389.922V345.875ZM389.922 340.947H386.407V332.322H389.922V340.947ZM389.922 330.21H386.407V327.526H389.922V330.21ZM401.218 345.875H397.702V343.191H401.218V345.875ZM401.218 340.947H397.702V332.322H401.218V340.947ZM401.218 330.21H397.702V327.526H401.218V330.21ZM412.513 345.875H408.998V343.191H412.513V345.875ZM412.513 340.947H408.998V332.322H412.513V340.947ZM412.513 330.21H408.998V327.526H412.513V330.21ZM423.828 345.875H420.313V343.191H423.828V345.875ZM423.828 340.947H420.313V332.322H423.828V340.947ZM423.828 330.21H420.313V327.526H423.828V330.21Z" fill="url(#paint48_linear_0_987)"/>
<path d="M1198.34 327.511L1184.35 337.955V366.557H1212.32V337.955L1198.34 327.511ZM1197.96 352.564H1193.38V347.034H1197.96V352.564ZM1197.96 346.491H1193.38V340.962H1197.96V346.491ZM1203.3 352.564H1198.72V347.034H1203.3V352.564ZM1203.3 346.491H1198.72V340.962H1203.3V346.491Z" fill="url(#paint49_linear_0_987)"/>
<path d="M663.855 301.847L622.591 315.532V352.7H705.099V315.532L663.855 301.847ZM648.909 341.743H632.964V338.81H648.909V341.743ZM648.909 335.48H632.964V332.547H648.909V335.48ZM648.909 329.217H632.964V326.283H648.909V329.217ZM648.909 322.969H632.964V320.035H648.909V322.969ZM661.415 341.743H653.443V338.81H661.415V341.743ZM661.415 335.48H653.443V332.547H661.415V335.48ZM661.415 329.217H653.443V326.283H661.415V329.217ZM661.415 322.969H653.443V320.035H661.415V322.969ZM674.247 341.743H666.294V338.81H674.247V341.743ZM674.247 335.48H666.294V332.547H674.247V335.48ZM674.247 329.217H666.294V326.283H674.247V329.217ZM674.247 322.969H666.294V320.035H674.247V322.969ZM694.726 341.743H678.8V338.81H694.726V341.743ZM694.726 335.48H678.8V332.547H694.726V335.48ZM694.726 329.217H678.8V326.283H694.726V329.217ZM694.726 322.969H678.8V320.035H694.726V322.969Z" fill="url(#paint50_linear_0_987)"/>
</g>
<defs>
<filter id="filter0_d_0_987" x="-0.00012207" y="0.689697" width="1293.32" height="378.198" filterUnits="userSpaceOnUse" color-interpolation-filters="sRGB">
<feFlood flood-opacity="0" result="BackgroundImageFix"/>
<feColorMatrix in="SourceAlpha" type="matrix" values="0 0 0 0 0 0 0 0 0 0 0 0 0 0 0 0 0 0 127 0" result="hardAlpha"/>
<feOffset dy="4"/>
<feGaussianBlur stdDeviation="2"/>
<feComposite in2="hardAlpha" operator="out"/>
<feColorMatrix type="matrix" values="0 0 0 0 0 0 0 0 0 0 0 0 0 0 0 0 0 0 0.25 0"/>
<feBlend mode="normal" in2="BackgroundImageFix" result="effect1_dropShadow_0_987"/>
<feBlend mode="normal" in="SourceGraphic" in2="effect1_dropShadow_0_987" result="shape"/>
</filter>
<linearGradient id="paint0_linear_0_987" x1="1198.5" y1="107.602" x2="1198.5" y2="110.653" gradientUnits="userSpaceOnUse">
<stop stop-color="#FAF8F8"/>
<stop offset="1" stop-color="#F2F2F2"/>
</linearGradient>
<linearGradient id="paint1_linear_0_987" x1="1198.5" y1="98.8459" x2="1198.5" y2="101.882" gradientUnits="userSpaceOnUse">
<stop stop-color="#FAF8F8"/>
<stop offset="1" stop-color="#F2F2F2"/>
</linearGradient>
<linearGradient id="paint2_linear_0_987" x1="1198.5" y1="94.4601" x2="1198.5" y2="97.511" gradientUnits="userSpaceOnUse">
<stop stop-color="#FAF8F8"/>
<stop offset="1" stop-color="#F2F2F2"/>
</linearGradient>
<linearGradient id="paint3_linear_0_987" x1="1198.5" y1="0.660362" x2="1198.5" y2="62.4554" gradientUnits="userSpaceOnUse">
<stop stop-color="#FAF8F8"/>
<stop offset="1" stop-color="#F2F2F2"/>
</linearGradient>
<linearGradient id="paint4_linear_0_987" x1="1198.5" y1="85.7036" x2="1198.5" y2="88.7398" gradientUnits="userSpaceOnUse">
<stop stop-color="#FAF8F8"/>
<stop offset="1" stop-color="#F2F2F2"/>
</linearGradient>
<linearGradient id="paint5_linear_0_987" x1="1198.5" y1="103.231" x2="1198.5" y2="106.268" gradientUnits="userSpaceOnUse">
<stop stop-color="#FAF8F8"/>
<stop offset="1" stop-color="#F2F2F2"/>
</linearGradient>
<linearGradient id="paint6_linear_0_987" x1="1198.5" y1="90.0746" x2="1198.5" y2="93.1254" gradientUnits="userSpaceOnUse">
<stop stop-color="#FAF8F8"/>
<stop offset="1" stop-color="#F2F2F2"/>
</linearGradient>
<linearGradient id="paint7_linear_0_987" x1="1198.5" y1="63.7901" x2="1198.5" y2="66.841" gradientUnits="userSpaceOnUse">
<stop stop-color="#FAF8F8"/>
<stop offset="1" stop-color="#F2F2F2"/>
</linearGradient>
<linearGradient id="paint8_linear_0_987" x1="1198.5" y1="68.1758" x2="1198.5" y2="71.212" gradientUnits="userSpaceOnUse">
<stop stop-color="#FAF8F8"/>
<stop offset="1" stop-color="#F2F2F2"/>
</linearGradient>
<linearGradient id="paint9_linear_0_987" x1="1198.5" y1="81.3181" x2="1198.5" y2="84.3543" gradientUnits="userSpaceOnUse">
<stop stop-color="#FAF8F8"/>
<stop offset="1" stop-color="#F2F2F2"/>
</linearGradient>
<linearGradient id="paint10_linear_0_987" x1="1198.5" y1="111.988" x2="1198.5" y2="351.805" gradientUnits="userSpaceOnUse">
<stop stop-color="#FAF8F8"/>
<stop offset="1" stop-color="#F2F2F2"/>
</linearGradient>
<linearGradient id="paint11_linear_0_987" x1="1198.5" y1="76.9324" x2="1198.5" y2="79.9833" gradientUnits="userSpaceOnUse">
<stop stop-color="#FAF8F8"/>
<stop offset="1" stop-color="#F2F2F2"/>
</linearGradient>
<linearGradient id="paint12_linear_0_987" x1="1198.5" y1="72.5613" x2="1198.5" y2="75.5976" gradientUnits="userSpaceOnUse">
<stop stop-color="#FAF8F8"/>
<stop offset="1" stop-color="#F2F2F2"/>
</linearGradient>
<linearGradient id="paint13_linear_0_987" x1="983.527" y1="85.4545" x2="983.527" y2="351.497" gradientUnits="userSpaceOnUse">
<stop stop-color="#FAF8F8"/>
<stop offset="1" stop-color="#F2F2F2"/>
</linearGradient>
<linearGradient id="paint14_linear_0_987" x1="760.053" y1="84.4572" x2="760.053" y2="370.903" gradientUnits="userSpaceOnUse">
<stop stop-color="#FAF8F8"/>
<stop offset="1" stop-color="#F2F2F2"/>
</linearGradient>
<linearGradient id="paint15_linear_0_987" x1="540.058" y1="62.206" x2="540.058" y2="352.802" gradientUnits="userSpaceOnUse">
<stop stop-color="#FAF8F8"/>
<stop offset="1" stop-color="#F2F2F2"/>
</linearGradient>
<linearGradient id="paint16_linear_0_987" x1="304.958" y1="127.637" x2="304.958" y2="168.017" gradientUnits="userSpaceOnUse">
<stop stop-color="#FAF8F8"/>
<stop offset="1" stop-color="#F2F2F2"/>
</linearGradient>
<linearGradient id="paint17_linear_0_987" x1="304.958" y1="216.553" x2="304.958" y2="218.944" gradientUnits="userSpaceOnUse">
<stop stop-color="#FAF8F8"/>
<stop offset="1" stop-color="#F2F2F2"/>
</linearGradient>
<linearGradient id="paint18_linear_0_987" x1="304.958" y1="223.828" x2="304.958" y2="226.219" gradientUnits="userSpaceOnUse">
<stop stop-color="#FAF8F8"/>
<stop offset="1" stop-color="#F2F2F2"/>
</linearGradient>
<linearGradient id="paint19_linear_0_987" x1="304.958" y1="209.278" x2="304.958" y2="211.668" gradientUnits="userSpaceOnUse">
<stop stop-color="#FAF8F8"/>
<stop offset="1" stop-color="#F2F2F2"/>
</linearGradient>
<linearGradient id="paint20_linear_0_987" x1="304.958" y1="212.915" x2="304.958" y2="215.306" gradientUnits="userSpaceOnUse">
<stop stop-color="#FAF8F8"/>
<stop offset="1" stop-color="#F2F2F2"/>
</linearGradient>
<linearGradient id="paint21_linear_0_987" x1="304.958" y1="220.19" x2="304.958" y2="222.581" gradientUnits="userSpaceOnUse">
<stop stop-color="#FAF8F8"/>
<stop offset="1" stop-color="#F2F2F2"/>
</linearGradient>
<linearGradient id="paint22_linear_0_987" x1="304.958" y1="231.103" x2="304.958" y2="233.479" gradientUnits="userSpaceOnUse">
<stop stop-color="#FAF8F8"/>
<stop offset="1" stop-color="#F2F2F2"/>
</linearGradient>
<linearGradient id="paint23_linear_0_987" x1="304.958" y1="205.64" x2="304.958" y2="208.031" gradientUnits="userSpaceOnUse">
<stop stop-color="#FAF8F8"/>
<stop offset="1" stop-color="#F2F2F2"/>
</linearGradient>
<linearGradient id="paint24_linear_0_987" x1="304.958" y1="234.741" x2="304.958" y2="237.117" gradientUnits="userSpaceOnUse">
<stop stop-color="#FAF8F8"/>
<stop offset="1" stop-color="#F2F2F2"/>
</linearGradient>
<linearGradient id="paint25_linear_0_987" x1="304.958" y1="227.466" x2="304.958" y2="229.856" gradientUnits="userSpaceOnUse">
<stop stop-color="#FAF8F8"/>
<stop offset="1" stop-color="#F2F2F2"/>
</linearGradient>
<linearGradient id="paint26_linear_0_987" x1="304.958" y1="180.177" x2="304.958" y2="182.568" gradientUnits="userSpaceOnUse">
<stop stop-color="#FAF8F8"/>
<stop offset="1" stop-color="#F2F2F2"/>
</linearGradient>
<linearGradient id="paint27_linear_0_987" x1="304.958" y1="172.916" x2="304.958" y2="175.293" gradientUnits="userSpaceOnUse">
<stop stop-color="#FAF8F8"/>
<stop offset="1" stop-color="#F2F2F2"/>
</linearGradient>
<linearGradient id="paint28_linear_0_987" x1="304.958" y1="176.539" x2="304.958" y2="178.93" gradientUnits="userSpaceOnUse">
<stop stop-color="#FAF8F8"/>
<stop offset="1" stop-color="#F2F2F2"/>
</linearGradient>
<linearGradient id="paint29_linear_0_987" x1="304.958" y1="169.279" x2="304.958" y2="171.655" gradientUnits="userSpaceOnUse">
<stop stop-color="#FAF8F8"/>
<stop offset="1" stop-color="#F2F2F2"/>
</linearGradient>
<linearGradient id="paint30_linear_0_987" x1="304.958" y1="183.814" x2="304.958" y2="186.205" gradientUnits="userSpaceOnUse">
<stop stop-color="#FAF8F8"/>
<stop offset="1" stop-color="#F2F2F2"/>
</linearGradient>
<linearGradient id="paint31_linear_0_987" x1="304.958" y1="194.727" x2="304.958" y2="197.118" gradientUnits="userSpaceOnUse">
<stop stop-color="#FAF8F8"/>
<stop offset="1" stop-color="#F2F2F2"/>
</linearGradient>
<linearGradient id="paint32_linear_0_987" x1="304.958" y1="187.452" x2="304.958" y2="189.843" gradientUnits="userSpaceOnUse">
<stop stop-color="#FAF8F8"/>
<stop offset="1" stop-color="#F2F2F2"/>
</linearGradient>
<linearGradient id="paint33_linear_0_987" x1="304.958" y1="198.365" x2="304.958" y2="200.755" gradientUnits="userSpaceOnUse">
<stop stop-color="#FAF8F8"/>
<stop offset="1" stop-color="#F2F2F2"/>
</linearGradient>
<linearGradient id="paint34_linear_0_987" x1="304.958" y1="202.002" x2="304.958" y2="204.393" gradientUnits="userSpaceOnUse">
<stop stop-color="#FAF8F8"/>
<stop offset="1" stop-color="#F2F2F2"/>
</linearGradient>
<linearGradient id="paint35_linear_0_987" x1="304.958" y1="191.089" x2="304.958" y2="193.48" gradientUnits="userSpaceOnUse">
<stop stop-color="#FAF8F8"/>
<stop offset="1" stop-color="#F2F2F2"/>
</linearGradient>
<linearGradient id="paint36_linear_0_987" x1="316.619" y1="181.38" x2="316.619" y2="360.78" gradientUnits="userSpaceOnUse">
<stop stop-color="#FAF8F8"/>
<stop offset="1" stop-color="#F2F2F2"/>
</linearGradient>
<linearGradient id="paint37_linear_0_987" x1="25.3233" y1="329.402" x2="25.3233" y2="350.025" gradientUnits="userSpaceOnUse">
<stop stop-color="#FAF8F8"/>
<stop offset="1" stop-color="#F2F2F2"/>
</linearGradient>
<linearGradient id="paint38_linear_0_987" x1="247.96" y1="312.23" x2="247.96" y2="359.533" gradientUnits="userSpaceOnUse">
<stop stop-color="#FAF8F8"/>
<stop offset="1" stop-color="#F2F2F2"/>
</linearGradient>
<linearGradient id="paint39_linear_0_987" x1="842.123" y1="315.162" x2="842.123" y2="367.35" gradientUnits="userSpaceOnUse">
<stop stop-color="#FAF8F8"/>
<stop offset="1" stop-color="#F2F2F2"/>
</linearGradient>
<linearGradient id="paint40_linear_0_987" x1="903.173" y1="326.778" x2="903.173" y2="361.247" gradientUnits="userSpaceOnUse">
<stop stop-color="#FAF8F8"/>
<stop offset="1" stop-color="#F2F2F2"/>
</linearGradient>
<linearGradient id="paint41_linear_0_987" x1="596.467" y1="311.159" x2="596.467" y2="355.895" gradientUnits="userSpaceOnUse">
<stop stop-color="#FAF8F8"/>
<stop offset="1" stop-color="#F2F2F2"/>
</linearGradient>
<linearGradient id="paint42_linear_0_987" x1="465.17" y1="316.864" x2="465.17" y2="363.067" gradientUnits="userSpaceOnUse">
<stop stop-color="#FAF8F8"/>
<stop offset="1" stop-color="#F2F2F2"/>
</linearGradient>
<linearGradient id="paint43_linear_0_987" x1="193.199" y1="306.334" x2="193.199" y2="352.112" gradientUnits="userSpaceOnUse">
<stop stop-color="#FAF8F8"/>
<stop offset="1" stop-color="#F2F2F2"/>
</linearGradient>
<linearGradient id="paint44_linear_0_987" x1="1112.99" y1="317.333" x2="1112.99" y2="361.894" gradientUnits="userSpaceOnUse">
<stop stop-color="#FAF8F8"/>
<stop offset="1" stop-color="#F2F2F2"/>
</linearGradient>
<linearGradient id="paint45_linear_0_987" x1="1131.31" y1="317.333" x2="1131.31" y2="365.194" gradientUnits="userSpaceOnUse">
<stop stop-color="#FAF8F8"/>
<stop offset="1" stop-color="#F2F2F2"/>
</linearGradient>
<linearGradient id="paint46_linear_0_987" x1="1069.28" y1="319.357" x2="1069.28" y2="357.493" gradientUnits="userSpaceOnUse">
<stop stop-color="#FAF8F8"/>
<stop offset="1" stop-color="#F2F2F2"/>
</linearGradient>
<linearGradient id="paint47_linear_0_987" x1="1260.49" y1="323.377" x2="1260.49" y2="360.047" gradientUnits="userSpaceOnUse">
<stop stop-color="#FAF8F8"/>
<stop offset="1" stop-color="#F2F2F2"/>
</linearGradient>
<linearGradient id="paint48_linear_0_987" x1="393.803" y1="319.869" x2="393.803" y2="363.535" gradientUnits="userSpaceOnUse">
<stop stop-color="#FAF8F8"/>
<stop offset="1" stop-color="#F2F2F2"/>
</linearGradient>
<linearGradient id="paint49_linear_0_987" x1="1198.34" y1="327.511" x2="1198.34" y2="366.572" gradientUnits="userSpaceOnUse">
<stop stop-color="#FAF8F8"/>
<stop offset="1" stop-color="#F2F2F2"/>
</linearGradient>
<linearGradient id="paint50_linear_0_987" x1="663.855" y1="301.847" x2="663.855" y2="352.7" gradientUnits="userSpaceOnUse">
<stop stop-color="#FAF8F8"/>
<stop offset="1" stop-color="#F2F2F2"/>
</linearGradient>
</defs>
</svg>
