<svg width="1208" height="134" viewBox="0 0 1208 134" fill="none" xmlns="http://www.w3.org/2000/svg">
<g filter="url(#filter0_d_201_2587)">
<path d="M292.87 27.7078C293.243 27.2119 293.453 26.6125 293.47 25.9926C293.47 25.1806 293.146 24.4019 292.571 23.8278C291.995 23.2536 291.214 22.9311 290.4 22.9311C290.217 22.9523 290.036 22.9889 289.86 23.0408C290.062 22.4297 290.1 21.7764 289.97 21.146C289.742 20.1724 289.135 19.3287 288.285 18.7998C287.434 18.2708 286.407 18.0997 285.43 18.3239C284.995 18.4371 284.583 18.6225 284.21 18.8724C284.194 18.2162 283.962 17.5836 283.55 17.0718C283.138 16.56 282.569 16.1975 281.93 16.0402C281.935 15.9871 281.935 15.9337 281.93 15.8807C281.885 15.1002 281.543 14.3664 280.973 13.8296C280.403 13.2929 279.649 12.9938 278.865 12.9938C278.081 12.9938 277.327 13.2929 276.757 13.8296C276.187 14.3664 275.845 15.1002 275.8 15.8807C275.8 15.9405 275.8 15.9804 275.8 16.0402C275.55 15.9575 275.292 15.904 275.03 15.8807C274.609 15.8961 274.194 15.9803 273.8 16.13C273.881 15.8843 273.931 15.6298 273.95 15.3721C273.951 14.9705 273.873 14.5726 273.72 14.2012C273.567 13.8299 273.342 13.4923 273.057 13.2079C272.773 12.9234 272.435 12.6978 272.063 12.5438C271.691 12.3898 271.293 12.3106 270.89 12.3106C270.375 12.3148 269.871 12.4509 269.424 12.7059C268.977 12.9609 268.604 13.3261 268.34 13.7665C267.834 13.2652 267.17 12.9549 266.46 12.889C266.46 12.889 266.46 12.889 266.46 12.8291C266.461 12.4276 266.383 12.0297 266.23 11.6583C266.077 11.2869 265.852 10.9493 265.567 10.6649C265.283 10.3805 264.945 10.1548 264.573 10.0009C264.201 9.84688 263.803 9.76762 263.4 9.76762C262.723 9.76805 262.066 9.9969 261.536 10.4169C261.006 10.837 260.633 11.4235 260.48 12.0812C260.104 11.5483 259.558 11.1591 258.931 10.9778C258.303 10.7965 257.633 10.834 257.03 11.084C257.067 10.9567 257.094 10.8266 257.11 10.6951C257.119 10.293 257.049 9.89302 256.903 9.51803C256.758 9.14304 256.539 8.80036 256.261 8.50957C255.982 8.21878 255.649 7.98558 255.28 7.82329C254.911 7.661 254.513 7.5728 254.11 7.56374C253.978 7.57974 253.848 7.60642 253.72 7.64352C253.775 7.44406 253.815 7.24071 253.84 7.03521C253.84 6.03455 253.442 5.07472 252.733 4.36621C252.025 3.6577 251.063 3.25834 250.06 3.2557C249.128 3.26555 248.233 3.62105 247.55 4.25293C246.862 3.62203 245.965 3.26688 245.03 3.2557C244.762 3.28288 244.497 3.33632 244.24 3.41526C244.17 2.80247 243.912 2.22619 243.501 1.76531C243.09 1.30443 242.546 0.981472 241.944 0.84064C241.342 0.699809 240.711 0.747989 240.137 0.978586C239.564 1.20918 239.076 1.61093 238.74 2.12882C238.176 1.78788 237.515 1.64175 236.86 1.71303C236.204 1.78431 235.59 2.06904 235.113 2.52316C234.636 2.97729 234.322 3.5755 234.221 4.22527C234.119 4.87505 234.235 5.54017 234.55 6.11775C234.162 5.82061 233.689 5.65623 233.2 5.64906C232.664 5.6575 232.148 5.85139 231.74 6.19753C231.636 5.48052 231.274 4.82553 230.723 4.35419C230.171 3.88284 229.466 3.62717 228.74 3.63465C228.192 3.65101 227.66 3.81655 227.2 4.11332C226.867 3.54373 226.391 3.06986 225.82 2.73782C225.249 2.40579 224.601 2.2269 223.94 2.21858C223.191 2.23208 222.462 2.46149 221.841 2.87911C221.22 3.29673 220.733 3.8847 220.44 4.57204C219.824 4.11105 219.08 3.85308 218.31 3.83409C217.313 3.834 216.357 4.22535 215.648 4.9234C214.938 5.62145 214.533 6.57002 214.52 7.56374C214.54 7.90474 214.61 8.24088 214.73 8.56097H214.29C213.941 8.35501 213.545 8.2417 213.14 8.23189C212.721 8.24114 212.313 8.36536 211.96 8.59089H211.91C211.944 8.4735 211.967 8.35337 211.98 8.23189C211.98 7.60414 211.731 7.00196 211.286 6.55715C210.842 6.11233 210.239 5.86111 209.61 5.85848C209.137 5.87027 208.68 6.02696 208.3 6.30723C208.259 5.34148 207.846 4.42864 207.148 3.75826C206.45 3.08788 205.519 2.71148 204.55 2.70722C203.908 2.71964 203.28 2.89801 202.728 3.22488C202.176 3.55176 201.718 4.01595 201.4 4.57204C200.799 3.99265 199.996 3.6675 199.16 3.66456C198.652 3.67092 198.153 3.79822 197.704 4.03586C197.255 4.2735 196.87 4.6146 196.58 5.03077C196.189 4.71244 195.7 4.53857 195.195 4.53857C194.69 4.53857 194.201 4.71244 193.81 5.03077C193.693 4.32469 193.326 3.68388 192.775 3.22463C192.225 2.76538 191.528 2.51812 190.81 2.52772C190.007 2.53818 189.241 2.86293 188.676 3.43192C188.111 4.00091 187.793 4.76855 187.79 5.56928C187.79 5.56928 187.79 5.63908 187.79 5.67897C187.602 5.61671 187.407 5.57981 187.21 5.56928C186.717 5.58206 186.241 5.74958 185.85 6.04795C185.636 5.26247 185.171 4.56831 184.524 4.07137C183.878 3.57442 183.086 3.30198 182.27 3.29559C181.719 3.29987 181.176 3.42755 180.681 3.6692C180.186 3.91084 179.751 4.26028 179.41 4.69171C179.347 3.72592 178.914 2.82123 178.201 2.16504C177.487 1.50885 176.548 1.15143 175.578 1.16682C174.607 1.1822 173.68 1.5692 172.988 2.24767C172.296 2.92613 171.892 3.84408 171.86 4.81138C171.887 5.07859 171.941 5.34247 172.02 5.59919C171.967 5.59358 171.913 5.59358 171.86 5.59919C171.514 5.60293 171.174 5.68263 170.863 5.83259C170.552 5.98255 170.278 6.19909 170.06 6.46679C169.742 5.90356 169.283 5.43261 168.727 5.10037C168.171 4.76812 167.538 4.58603 166.89 4.57204C166.268 4.56875 165.654 4.71914 165.104 5.00981C164.554 5.30048 164.085 5.72237 163.739 6.23785C163.392 6.75333 163.179 7.34635 163.118 7.964C163.057 8.58165 163.151 9.20472 163.39 9.7776C162.908 9.44171 162.338 9.25445 161.75 9.23909C160.95 9.25468 160.187 9.58137 159.625 10.1495C159.063 10.7177 158.745 11.4824 158.74 12.2807C158.744 12.7456 158.857 13.2031 159.07 13.6169C158.707 13.456 158.307 13.396 157.913 13.4434C157.518 13.4908 157.144 13.6438 156.83 13.8862C156.618 13.604 156.343 13.3744 156.028 13.2153C155.712 13.0562 155.364 12.9718 155.01 12.9687C154.441 12.9741 153.893 13.1853 153.468 13.5631C153.043 13.9409 152.77 14.4597 152.7 15.023C152.263 15.1497 151.874 15.4019 151.581 15.7482C151.287 16.0946 151.103 16.5195 151.05 16.9699C150.998 17.4203 151.08 17.8761 151.286 18.2801C151.493 18.6842 151.814 19.0185 152.21 19.2413C151.755 19.3686 151.348 19.627 151.04 19.9839C150.732 20.3409 150.536 20.7807 150.477 21.2481C150.418 21.7156 150.499 22.1899 150.71 22.6117C150.92 23.0334 151.251 23.3839 151.66 23.6192C150.914 23.7757 150.244 24.1811 149.761 24.7685C149.277 25.3559 149.009 26.0902 149 26.8502C149.018 27.1432 149.079 27.4321 149.18 27.7078H292.87ZM282.56 21.6247C282.56 21.6746 282.56 21.7344 282.56 21.7843L282.41 21.7244C282.47 21.6945 282.51 21.6546 282.56 21.6247Z" fill="url(#paint0_linear_201_2587)"/>
</g>
<g filter="url(#filter1_d_201_2587)">
<path d="M737.65 88.6722C737.95 88.2639 738.114 87.7722 738.12 87.2661C738.12 86.6039 737.857 85.9688 737.388 85.4997C736.92 85.0305 736.284 84.7657 735.62 84.763C735.468 84.7824 735.318 84.8123 735.17 84.8528C735.34 84.3553 735.371 83.8209 735.26 83.3071C735.164 82.8142 734.945 82.3533 734.623 81.967C734.301 81.5807 733.887 81.2814 733.419 81.0966C732.951 80.9118 732.444 80.8476 731.944 80.9097C731.444 80.9719 730.968 81.1584 730.56 81.4522C730.536 80.9283 730.345 80.4258 730.014 80.0184C729.682 79.611 729.229 79.3201 728.72 79.1885C728.72 79.1386 728.72 79.0987 728.72 79.0588C728.751 78.7127 728.71 78.3639 728.598 78.0347C728.487 77.7054 728.307 77.4029 728.072 77.1465C727.837 76.89 727.551 76.6852 727.232 76.5451C726.913 76.4049 726.568 76.3326 726.22 76.3326C725.871 76.3326 725.527 76.4049 725.208 76.5451C724.889 76.6852 724.603 76.89 724.368 77.1465C724.133 77.4029 723.953 77.7054 723.842 78.0347C723.73 78.3639 723.689 78.7127 723.72 79.0588C723.72 79.0588 723.72 79.1386 723.72 79.1885C723.516 79.1205 723.304 79.077 723.09 79.0588C722.748 79.0695 722.41 79.1369 722.09 79.2583C722.164 79.0598 722.208 78.8514 722.22 78.64C722.22 77.9762 721.956 77.3395 721.485 76.8701C721.014 76.4007 720.376 76.137 719.71 76.137C719.289 76.1416 718.877 76.2542 718.513 76.4637C718.149 76.6733 717.845 76.9729 717.63 77.3336C717.221 76.9222 716.679 76.668 716.1 76.6156C716.1 76.6156 716.1 76.6156 716.1 76.5558C716.097 75.8937 715.832 75.2596 715.361 74.7923C714.891 74.325 714.254 74.0627 713.59 74.0627C713.039 74.0656 712.505 74.253 712.073 74.5947C711.642 74.9365 711.338 75.4129 711.21 75.9475C710.978 75.6367 710.676 75.3845 710.329 75.2113C709.982 75.0381 709.598 74.9487 709.21 74.9502C708.918 74.9589 708.63 75.0197 708.36 75.1298C708.36 75.0201 708.42 74.9203 708.42 74.8106C708.421 74.4824 708.358 74.1571 708.233 73.8535C708.107 73.5499 707.924 73.2739 707.691 73.0413C707.459 72.8088 707.183 72.6242 706.879 72.4983C706.575 72.3724 706.249 72.3076 705.92 72.3076C705.812 72.3217 705.705 72.3417 705.6 72.3674C705.649 72.2046 705.682 72.0377 705.7 71.8688C705.697 71.0524 705.371 70.2701 704.792 69.6928C704.213 69.1155 703.429 68.79 702.61 68.7874C701.844 68.7876 701.107 69.0802 700.55 69.6051C700.008 69.0941 699.295 68.8026 698.55 68.7874C698.329 68.8055 698.111 68.849 697.9 68.917C697.853 68.4137 697.65 67.9377 697.318 67.5554C696.987 67.1731 696.544 66.9038 696.051 66.7851C695.558 66.6664 695.041 66.7042 694.571 66.8934C694.101 67.0826 693.702 67.4135 693.43 67.84C693.059 67.623 692.64 67.5029 692.21 67.491C691.547 67.491 690.911 67.7536 690.442 68.2212C689.973 68.6887 689.71 69.3228 689.71 69.984C689.718 70.3769 689.818 70.7625 690 71.1109C689.685 70.8657 689.299 70.7292 688.9 70.722C688.463 70.7274 688.041 70.8863 687.71 71.1707C687.659 70.7686 687.506 70.3859 687.266 70.0587C687.026 69.7315 686.707 69.4704 686.338 69.3C685.969 69.1295 685.563 69.0553 685.158 69.0842C684.752 69.1132 684.361 69.2444 684.02 69.4655C683.749 68.9998 683.362 68.6124 682.895 68.3414C682.429 68.0703 681.9 67.925 681.36 67.9198C680.743 67.9215 680.14 68.1026 679.625 68.4409C679.11 68.7792 678.705 69.2601 678.46 69.8245C677.957 69.4481 677.349 69.2388 676.72 69.2261C675.921 69.2309 675.155 69.5441 674.582 70.1C674.01 70.656 673.676 71.4115 673.65 72.2079C673.667 72.4862 673.721 72.7611 673.81 73.0256H673.45C673.17 72.8529 672.849 72.7566 672.52 72.7464C672.165 72.7515 671.819 72.8551 671.52 73.0455C671.551 72.9482 671.571 72.8479 671.58 72.7464C671.58 72.2333 671.376 71.7412 671.012 71.3784C670.648 71.0156 670.155 70.8117 669.64 70.8117C669.254 70.8228 668.88 70.9516 668.57 71.1807C668.547 70.3826 668.214 69.6246 667.641 69.0665C667.068 68.5084 666.301 68.1938 665.5 68.189C664.98 68.1977 664.471 68.3388 664.021 68.5988C663.572 68.8589 663.196 69.2293 662.93 69.6749C662.44 69.1985 661.784 68.9304 661.1 68.927C660.686 68.9322 660.279 69.0363 659.914 69.2306C659.548 69.425 659.235 69.7038 659 70.0439C658.68 69.7822 658.279 69.6391 657.865 69.6391C657.451 69.6391 657.05 69.7822 656.73 70.0439C656.621 69.4849 656.322 68.9807 655.882 68.617C655.443 68.2534 654.891 68.0528 654.32 68.0494C653.654 68.0494 653.016 68.3131 652.545 68.7825C652.074 69.2519 651.81 69.8886 651.81 70.5525C651.81 70.5525 651.81 70.6123 651.81 70.6422C651.658 70.5913 651.5 70.5611 651.34 70.5525C650.935 70.561 650.543 70.6971 650.22 70.9414C650.081 70.4016 649.793 69.9115 649.389 69.5262C648.985 69.1409 648.481 68.8758 647.934 68.7607C647.387 68.6456 646.819 68.6851 646.294 68.8749C645.768 69.0646 645.306 69.3969 644.96 69.8344C644.947 69.0198 644.61 68.2439 644.023 67.6772C643.436 67.1105 642.647 66.7996 641.83 66.8128C641.013 66.8261 640.235 67.1623 639.667 67.7477C639.099 68.3331 638.787 69.1196 638.8 69.9342C638.817 70.1514 638.861 70.3657 638.93 70.5724H638.8C638.518 70.5755 638.24 70.6405 637.986 70.7629C637.732 70.8852 637.508 71.062 637.33 71.2804C637.066 70.8217 636.686 70.4397 636.228 70.1721C635.77 69.9045 635.251 69.7606 634.72 69.7547C633.9 69.7547 633.115 70.0793 632.535 70.6572C631.956 71.2351 631.63 72.0189 631.63 72.8361C631.628 73.2365 631.706 73.6332 631.86 74.0029C631.466 73.7293 631 73.5768 630.52 73.5641C630.095 73.5611 629.676 73.6673 629.304 73.8723C628.931 74.0773 628.618 74.3743 628.394 74.7348C628.17 75.0953 628.043 75.5072 628.025 75.9309C628.007 76.3545 628.098 76.7758 628.29 77.1541C628.056 77.0541 627.804 77.0031 627.55 77.0045C627.157 77.0109 626.776 77.1399 626.46 77.3735C626.231 77.0748 625.918 76.851 625.561 76.731C625.204 76.6109 624.819 76.6 624.456 76.6997C624.093 76.7994 623.768 77.0051 623.522 77.2904C623.277 77.5758 623.123 77.9277 623.08 78.3009C622.726 78.4086 622.412 78.6168 622.175 78.9C621.938 79.1833 621.79 79.5293 621.747 79.8956C621.705 80.2619 621.77 80.6326 621.936 80.9622C622.102 81.2918 622.36 81.5661 622.68 81.7514C622.319 81.8689 622 82.0861 621.759 82.3779C621.517 82.6696 621.364 83.0238 621.317 83.3991C621.27 83.7744 621.33 84.1553 621.492 84.4975C621.654 84.8396 621.91 85.1289 622.23 85.3314C621.631 85.4707 621.097 85.8073 620.714 86.287C620.331 86.7666 620.122 87.361 620.12 87.9741C620.134 88.213 620.185 88.4484 620.27 88.6722H737.65ZM729.23 83.686C729.235 83.7291 729.235 83.7726 729.23 83.8156H729.11L729.23 83.686Z" fill="url(#paint1_linear_201_2587)"/>
</g>
<g filter="url(#filter2_d_201_2587)">
<path d="M82.33 83.9631C82.2212 83.1088 81.8056 82.3229 81.1602 81.7508C80.5149 81.1787 79.6834 80.8593 78.82 80.8517C78.5062 80.8733 78.1967 80.9371 77.9 81.0412C78.4757 80.2776 78.7974 79.3535 78.82 78.3985C78.8291 77.4705 78.5629 76.5606 78.0549 75.783C77.5469 75.0055 76.8197 74.395 75.9648 74.0284C75.1098 73.6618 74.1653 73.5554 73.2499 73.7226C72.3346 73.8898 71.4892 74.3231 70.82 74.968C70.6018 74.8017 70.3589 74.6705 70.1 74.5791C70.6578 73.9513 70.9702 73.1441 70.98 72.3054C70.9774 71.3497 70.5948 70.4341 69.9162 69.7592C69.2376 69.0844 68.3184 68.7054 67.36 68.7054C67.0192 68.7265 66.6828 68.7936 66.36 68.9048C66.4196 68.5957 66.453 68.2822 66.46 67.9675C66.4574 66.4563 65.8535 65.008 64.7811 63.9404C63.7087 62.8729 62.2553 62.2733 60.74 62.2733C59.9049 62.2772 59.0813 62.4681 58.33 62.8317C57.7246 62.3481 56.9756 62.078 56.2 62.0638C56.1439 60.601 55.523 59.2165 54.4671 58.1995C53.4112 57.1825 52.0021 56.6118 50.5342 56.6067C49.0663 56.6015 47.6531 57.1623 46.5901 58.1719C45.5271 59.1814 44.8965 60.5616 44.83 62.0239C44.2545 62.0347 43.7002 62.2425 43.26 62.6123C42.8937 62.0208 42.3591 61.5515 41.7243 61.2641C41.0895 60.9768 40.3833 60.8845 39.6956 60.9989C39.008 61.1134 38.3701 61.4295 37.8633 61.9068C37.3565 62.3842 37.0038 63.0013 36.85 63.6794C36.4185 63.1657 35.8802 62.7517 35.2725 62.4658C34.6647 62.18 34.0019 62.0292 33.33 62.0239C32.1503 62.0305 31.0163 62.4792 30.153 63.281C29.2897 64.0828 28.7603 65.179 28.67 66.3519C27.8988 65.4971 26.8854 64.8961 25.764 64.6285C24.6426 64.361 23.4662 64.4395 22.3905 64.8536C21.3149 65.2678 20.3908 65.998 19.7407 66.9477C19.0905 67.8973 18.7451 69.0215 18.75 70.1713C18.7581 70.6635 18.8287 71.1528 18.96 71.6273C17.8553 71.7849 16.8441 72.3325 16.11 73.1707C15.376 74.0088 14.9679 75.0818 14.96 76.1946C14.9814 77.1654 15.3105 78.1044 15.9 78.8772C14.9903 79.0815 14.1991 79.6374 13.7 80.4229C12.9347 79.6516 11.9634 79.1158 10.9016 78.8791C9.83978 78.6424 8.73214 78.7148 7.7104 79.0877C6.68865 79.4606 5.79581 80.1183 5.13804 80.9826C4.48028 81.8469 4.08527 82.8814 4 83.9631H82.33Z" fill="url(#paint2_linear_201_2587)"/>
</g>
<g filter="url(#filter3_d_201_2587)">
<path d="M1203.95 19.2142C1203.87 18.6369 1203.59 18.1064 1203.15 17.7212C1202.72 17.3361 1202.15 17.1225 1201.57 17.12C1201.36 17.1339 1201.15 17.1741 1200.95 17.2397C1201.34 16.7232 1201.55 16.0994 1201.57 15.4547C1201.57 14.8313 1201.39 14.221 1201.05 13.6997C1200.7 13.1785 1200.22 12.7692 1199.64 12.5227C1199.07 12.2762 1198.43 12.2034 1197.82 12.3134C1197.2 12.4233 1196.63 12.7111 1196.18 13.1411C1196.04 13.0277 1195.87 12.94 1195.7 12.8818C1196.01 12.5321 1196.21 12.1008 1196.27 11.6401C1196.34 11.1795 1196.27 10.7095 1196.08 10.287C1195.88 9.8646 1195.57 9.50799 1195.17 9.2605C1194.78 9.01302 1194.32 8.88531 1193.85 8.89288C1193.62 8.90373 1193.39 8.95084 1193.17 9.03249C1193.21 8.82146 1193.23 8.60816 1193.23 8.39426C1193.23 7.37336 1192.82 6.39427 1192.1 5.67238C1191.38 4.9505 1190.39 4.54495 1189.37 4.54495C1188.8 4.54719 1188.25 4.67673 1187.74 4.92389C1187.33 4.59693 1186.82 4.41456 1186.3 4.40533C1186.25 3.42222 1185.82 2.49592 1185.11 1.81782C1184.39 1.13971 1183.44 0.761597 1182.45 0.761597C1181.47 0.761597 1180.52 1.13971 1179.8 1.81782C1179.09 2.49592 1178.66 3.42222 1178.61 4.40533C1178.22 4.41432 1177.85 4.55501 1177.55 4.80422C1177.3 4.40525 1176.94 4.08886 1176.51 3.89511C1176.08 3.70137 1175.6 3.63899 1175.14 3.71587C1174.67 3.79276 1174.24 4.00545 1173.9 4.32701C1173.56 4.64858 1173.32 5.06454 1173.21 5.52223C1172.92 5.18841 1172.56 4.92064 1172.15 4.73668C1171.74 4.55271 1171.31 4.45676 1170.86 4.4552C1170.06 4.45812 1169.29 4.76176 1168.71 5.30537C1168.12 5.84897 1167.77 6.59245 1167.71 7.38706C1167.19 6.80954 1166.5 6.40363 1165.74 6.22301C1164.99 6.04238 1164.19 6.09555 1163.46 6.3755C1162.74 6.65544 1162.11 7.14897 1161.67 7.79079C1161.23 8.43261 1161 9.19248 1161 9.96989C1161 10.3069 1161.05 10.6419 1161.14 10.9671C1160.6 11.0342 1160.09 11.2416 1159.66 11.5683C1159.23 11.895 1158.9 12.3293 1158.69 12.8274C1158.48 13.3254 1158.41 13.8694 1158.48 14.4044C1158.55 14.9393 1158.76 15.4461 1159.09 15.8735C1158.48 15.9973 1157.95 16.3556 1157.6 16.8707C1157.09 16.3378 1156.43 15.9638 1155.71 15.7939C1154.99 15.624 1154.24 15.6653 1153.54 15.9129C1152.84 16.1605 1152.23 16.6039 1151.78 17.1896C1151.33 17.7753 1151.06 18.4784 1151 19.2142H1203.95Z" fill="url(#paint3_linear_201_2587)"/>
</g>
<g filter="url(#filter4_d_201_2587)">
<path d="M600.73 125.242C600.701 124.78 600.565 124.33 600.332 123.929C600.099 123.528 599.776 123.187 599.388 122.931C599 122.676 598.558 122.514 598.097 122.458C597.636 122.403 597.168 122.454 596.73 122.61C597.248 121.917 597.538 121.081 597.56 120.216C597.561 119.384 597.318 118.57 596.859 117.874C596.4 117.179 595.747 116.634 594.98 116.305C594.213 115.977 593.366 115.881 592.545 116.028C591.724 116.176 590.964 116.561 590.36 117.135C590.169 116.979 589.953 116.858 589.72 116.776C590.208 116.223 590.487 115.518 590.51 114.781C590.518 114.345 590.438 113.912 590.275 113.507C590.111 113.103 589.868 112.735 589.559 112.426C589.25 112.117 588.882 111.873 588.477 111.709C588.072 111.545 587.637 111.464 587.2 111.471C586.892 111.487 586.588 111.551 586.3 111.66C586.347 111.38 586.374 111.097 586.38 110.812C586.37 109.464 585.828 108.174 584.872 107.221C583.916 106.267 582.622 105.727 581.27 105.717C580.515 105.72 579.771 105.89 579.09 106.215C578.54 105.781 577.862 105.539 577.16 105.527C577.11 104.207 576.551 102.958 575.6 102.039C574.648 101.12 573.378 100.603 572.054 100.596C570.729 100.588 569.453 101.09 568.491 101.998C567.529 102.905 566.956 104.148 566.89 105.467C566.37 105.478 565.87 105.665 565.47 105.996C565.139 105.46 564.654 105.036 564.079 104.777C563.503 104.519 562.864 104.438 562.242 104.545C561.62 104.652 561.045 104.943 560.59 105.379C560.135 105.815 559.822 106.378 559.69 106.993C559.141 106.371 558.42 105.925 557.618 105.711C556.815 105.497 555.967 105.525 555.181 105.79C554.394 106.056 553.703 106.547 553.196 107.203C552.689 107.859 552.388 108.65 552.33 109.476C551.563 108.608 550.523 108.026 549.381 107.825C548.239 107.623 547.062 107.815 546.043 108.367C545.024 108.92 544.224 109.801 543.772 110.867C543.321 111.933 543.246 113.119 543.56 114.233C542.858 114.327 542.193 114.601 541.628 115.028C541.064 115.455 540.621 116.02 540.341 116.669C540.061 117.318 539.954 118.028 540.031 118.73C540.108 119.432 540.366 120.102 540.78 120.675C540.371 120.763 539.984 120.93 539.641 121.168C539.297 121.406 539.005 121.71 538.78 122.061C538.299 121.579 537.727 121.196 537.097 120.934C536.468 120.672 535.792 120.537 535.11 120.535C533.824 120.536 532.585 121.018 531.639 121.886C530.693 122.754 530.108 123.945 530 125.222L600.73 125.242Z" fill="url(#paint4_linear_201_2587)"/>
</g>
<g filter="url(#filter5_d_201_2587)">
<path d="M441.093 59.5755C440.749 59.9319 440.555 60.4069 440.553 60.9018C440.553 61.3102 440.691 61.7068 440.943 62.0287H518.473C518.414 61.7182 518.277 61.4278 518.075 61.185C517.872 60.9421 517.611 60.7549 517.315 60.641C517.02 60.5272 516.7 60.4905 516.386 60.5343C516.073 60.5782 515.775 60.7013 515.523 60.8918C515.564 60.7689 515.591 60.6418 515.603 60.5129C515.603 59.9839 515.392 59.4766 515.017 59.1026C514.642 58.7285 514.133 58.5184 513.603 58.5184C513.37 58.5234 513.139 58.5707 512.923 58.658C511.173 58.6937 509.457 58.1733 508.023 57.1721C507.565 57.1776 507.125 57.3475 506.783 57.6508C506.463 56.9664 505.955 56.3866 505.318 55.9788C504.68 55.5711 503.94 55.352 503.183 55.3472C502.506 55.3474 501.841 55.5226 501.253 55.8558C501.157 55.3767 500.918 54.9376 500.568 54.5957C500.218 54.2538 499.773 54.0249 499.29 53.9388C498.808 53.8527 498.311 53.9135 497.864 54.1131C497.416 54.3127 497.04 54.642 496.783 55.058C496.417 54.5912 495.95 54.2131 495.416 53.9523C494.883 53.6915 494.297 53.5547 493.703 53.5522C493.301 53.5601 492.903 53.6308 492.523 53.7616C492.499 53.3882 492.367 53.0298 492.141 52.7308C491.916 52.4317 491.608 52.205 491.254 52.0788C490.901 51.9526 490.519 51.9323 490.154 52.0204C489.79 52.1086 489.459 52.3014 489.203 52.5749C488.521 51.8204 487.624 51.2915 486.633 51.0591C486.829 50.8003 486.923 50.4783 486.895 50.155C486.868 49.8317 486.722 49.5298 486.485 49.3072C486.248 49.0847 485.938 48.9572 485.612 48.9492C485.287 48.9413 484.97 49.0534 484.723 49.2641C484.632 48.8812 484.425 48.5357 484.13 48.275C483.834 48.0143 483.465 47.8512 483.073 47.8081C483.31 47.4383 483.442 47.0106 483.453 46.5716C483.453 46.2407 483.387 45.9131 483.26 45.6076C483.133 45.302 482.946 45.0245 482.711 44.7911C482.476 44.5576 482.197 44.3727 481.89 44.247C481.583 44.1213 481.255 44.0572 480.923 44.0585C480.622 44.0638 480.324 44.1212 480.043 44.2281C479.775 43.6062 479.35 43.0645 478.808 42.6562C478.267 42.248 477.629 41.9873 476.956 41.8998C476.283 41.8122 475.598 41.9009 474.97 42.157C474.342 42.4131 473.792 42.8279 473.373 43.3605C473.11 42.6252 472.633 41.985 472.003 41.5224C471.373 41.0598 470.618 40.7959 469.836 40.7648C469.054 40.7337 468.28 40.9368 467.615 41.3478C466.95 41.7589 466.423 42.3591 466.103 43.0713C465.298 42.5352 464.351 42.2505 463.383 42.2536C462.283 42.2545 461.215 42.6221 460.349 43.2979C459.483 43.9737 458.868 44.9189 458.603 45.9832C458.366 45.8821 458.111 45.8311 457.853 45.8336C457.338 45.8336 456.845 46.0374 456.481 46.4003C456.117 46.7631 455.913 47.2552 455.913 47.7682C455.913 47.7682 455.913 47.7682 455.913 47.848C455.462 47.4281 454.87 47.1931 454.253 47.1899C453.626 47.1953 453.023 47.4349 452.564 47.8612C452.105 48.2876 451.823 48.8699 451.773 49.4935C451.079 48.9175 450.206 48.6002 449.303 48.596C448.26 48.5986 447.26 49.0137 446.523 49.7503C445.787 50.4868 445.373 51.4847 445.373 52.525C445.368 52.5881 445.368 52.6514 445.373 52.7145C445.078 52.5905 444.762 52.5261 444.443 52.525C443.774 52.525 443.134 52.7898 442.661 53.2611C442.188 53.7324 441.923 54.3716 441.923 55.0381C441.93 55.3421 441.991 55.6425 442.103 55.9256C442.043 55.9256 441.993 55.9256 441.923 55.9256C441.484 55.9295 441.06 56.0813 440.719 56.3564C440.379 56.6315 440.141 57.0137 440.046 57.4405C439.951 57.8673 440.004 58.3137 440.196 58.7068C440.388 59.1 440.707 59.4167 441.103 59.6054L441.093 59.5755ZM484.323 50.9095L484.423 51.0591L484.143 51.1489C484.203 51.0591 484.263 50.9793 484.323 50.9095Z" fill="url(#paint5_linear_201_2587)"/>
</g>
<g filter="url(#filter6_d_201_2587)">
<path d="M866.283 73.5367C865.938 73.8931 865.745 74.3681 865.743 74.863C865.742 75.2733 865.883 75.6712 866.143 75.9898H943.673C943.619 75.6708 943.482 75.3714 943.276 75.1214C943.07 74.8713 942.803 74.6793 942.499 74.5644C942.196 74.4494 941.868 74.4156 941.548 74.4662C941.227 74.5169 940.925 74.6502 940.673 74.853C940.714 74.7301 940.74 74.603 940.753 74.4741C940.754 74.2192 940.705 73.9665 940.608 73.7306C940.511 73.4948 940.368 73.2803 940.188 73.0996C940.008 72.9189 939.793 72.7755 939.557 72.6777C939.321 72.5798 939.068 72.5294 938.813 72.5294C938.576 72.5349 938.343 72.5822 938.123 72.6691C936.337 72.7139 934.585 72.1861 933.123 71.1632C932.665 71.1686 932.225 71.3386 931.883 71.6419C931.563 70.9575 931.055 70.3777 930.417 69.9699C929.78 69.5622 929.04 69.3431 928.283 69.3383C927.609 69.3397 926.948 69.5149 926.363 69.8469C926.264 69.3683 926.024 68.9303 925.673 68.5894C925.322 68.2485 924.876 68.0203 924.394 67.9345C923.911 67.8486 923.414 67.9089 922.967 68.1076C922.519 68.3063 922.142 68.6342 921.883 69.0491C921.403 68.4098 920.731 67.9396 919.965 67.7065C919.199 67.4734 918.379 67.4896 917.623 67.7527C917.592 67.2676 917.378 66.8123 917.023 66.4789C916.669 66.1456 916.2 65.9593 915.713 65.9577C915.449 65.9614 915.189 66.017 914.947 66.1214C914.705 66.2258 914.486 66.3769 914.303 66.566C913.622 65.7895 912.712 65.2483 911.703 65.0203C911.865 64.8001 911.956 64.5356 911.963 64.2624C911.963 63.9053 911.82 63.5629 911.567 63.3104C911.314 63.058 910.971 62.9161 910.613 62.9161C910.312 62.923 910.023 63.0321 909.793 63.2253C909.702 62.8424 909.495 62.4968 909.199 62.2361C908.904 61.9754 908.535 61.8124 908.143 61.7693C908.378 61.3934 908.506 60.9612 908.514 60.5184C908.523 60.0756 908.411 59.6388 908.19 59.2544C907.97 58.87 907.649 58.5522 907.262 58.3348C906.875 58.1174 906.437 58.0086 905.993 58.0197C905.692 58.025 905.394 58.0824 905.113 58.1893C904.844 57.5674 904.417 57.026 903.875 56.618C903.333 56.2101 902.693 55.9496 902.02 55.8621C901.347 55.7746 900.662 55.8632 900.033 56.119C899.404 56.3749 898.853 56.7893 898.433 57.3216C898.17 56.5863 897.693 55.9461 897.063 55.4835C896.433 55.0209 895.678 54.7571 894.896 54.726C894.114 54.6949 893.34 54.8979 892.675 55.309C892.01 55.7201 891.483 56.3203 891.163 57.0325C890.361 56.4977 889.417 56.2131 888.453 56.2147C887.352 56.2152 886.282 56.5824 885.415 57.2581C884.547 57.9338 883.93 58.8793 883.663 59.9444C883.429 59.8443 883.177 59.7934 882.923 59.7948C882.663 59.7868 882.404 59.8309 882.162 59.9245C881.92 60.0181 881.699 60.1594 881.512 60.3398C881.325 60.5203 881.177 60.7363 881.076 60.975C880.975 61.2137 880.923 61.4703 880.923 61.7294C880.923 61.7294 880.923 61.7793 880.923 61.8092C880.58 61.4939 880.155 61.2817 879.697 61.197C879.239 61.1124 878.766 61.1588 878.333 61.3309C877.9 61.503 877.524 61.7937 877.25 62.1695C876.976 62.5453 876.814 62.9909 876.783 63.4546C876.212 62.9813 875.518 62.6798 874.782 62.5854C874.046 62.4909 873.298 62.6073 872.625 62.9211C871.953 63.2349 871.384 63.733 870.985 64.3573C870.586 64.9815 870.374 65.7061 870.373 66.4463C870.373 66.5062 870.373 66.566 870.373 66.6258C870.08 66.5098 869.768 66.449 869.453 66.4463C868.784 66.4463 868.143 66.7111 867.671 67.1824C867.198 67.6537 866.933 68.2929 866.933 68.9594C866.936 69.2639 866.997 69.5652 867.113 69.8469C867.043 69.8469 866.993 69.8469 866.933 69.8469C866.493 69.8485 866.068 69.9988 865.725 70.2731C865.383 70.5474 865.144 70.9296 865.047 71.357C864.951 71.7844 865.003 72.2317 865.195 72.6259C865.386 73.02 865.706 73.3376 866.103 73.5267L866.283 73.5367ZM909.513 64.8707L909.623 65.0203C909.528 65.0442 909.434 65.0742 909.343 65.11C909.406 65.0349 909.462 64.9548 909.513 64.8707Z" fill="url(#paint6_linear_201_2587)"/>
</g>
<g filter="url(#filter7_d_201_2587)">
<path d="M280 83.3034C280.003 83.6838 280.081 84.06 280.23 84.4103H388.4C388.4 84.3106 388.46 84.2208 388.46 84.1211C388.46 83.2976 388.133 82.5077 387.55 81.9245C386.967 81.3413 386.176 81.0124 385.35 81.0097C385.091 81.0272 384.835 81.0809 384.59 81.1693C384.77 80.7064 384.831 80.2062 384.769 79.7138C384.706 79.2214 384.522 78.7523 384.232 78.3486C383.942 77.945 383.557 77.6196 383.109 77.4017C382.662 77.1839 382.168 77.0804 381.67 77.1006C381.042 77.1133 380.433 77.3226 379.93 77.6989C379.93 77.5792 379.93 77.4695 379.93 77.3499C379.936 76.4224 379.624 75.5208 379.048 74.7929C378.472 74.0651 377.664 73.5543 376.758 73.3444C375.852 73.1345 374.902 73.238 374.063 73.6378C373.224 74.0377 372.546 74.7102 372.14 75.5449C372.008 75.0255 371.741 74.5501 371.365 74.1669C370.99 73.7837 370.52 73.5061 370.002 73.3624C369.484 73.2187 368.938 73.2139 368.418 73.3485C367.898 73.483 367.423 73.7522 367.04 74.1288C366.867 73.3773 366.482 72.6906 365.932 72.1486C365.382 71.6067 364.688 71.2318 363.933 71.0677C363.177 70.9036 362.39 70.9571 361.664 71.2219C360.938 71.4866 360.302 71.9518 359.83 72.5632C359.726 71.9952 359.459 71.4695 359.062 71.0495C358.665 70.6295 358.154 70.333 357.592 70.196C357.029 70.0589 356.439 70.0871 355.892 70.2771C355.345 70.4671 354.866 70.8108 354.51 71.2668C354.242 70.5195 353.76 69.8671 353.124 69.3904C352.487 68.9136 351.725 68.6333 350.93 68.5842C351.212 67.4338 351.061 66.2206 350.506 65.1736C349.952 64.1265 349.032 63.3181 347.921 62.9009C346.81 62.4837 345.584 62.4865 344.475 62.9089C343.366 63.3313 342.45 64.144 341.9 65.1936C341.547 65.0742 341.174 65.0263 340.802 65.0527C340.43 65.0791 340.067 65.1793 339.735 65.3474C339.402 65.5155 339.107 65.7482 338.865 66.0317C338.624 66.3153 338.442 66.644 338.33 66.9986C337.973 66.3946 337.464 65.8934 336.854 65.5438C336.244 65.1943 335.554 65.0083 334.85 65.0041C334.07 65.0076 333.306 65.2326 332.649 65.6529C331.992 66.0732 331.469 66.6714 331.14 67.3776C330.857 67.2062 330.532 67.1133 330.2 67.1083C329.67 67.1083 329.161 67.3184 328.786 67.6925C328.411 68.0665 328.2 68.5738 328.2 69.1028C328.207 69.3245 328.251 69.5436 328.33 69.751C328.117 69.6087 327.867 69.5292 327.61 69.5216C327.292 69.5256 326.985 69.6382 326.74 69.8407H326.61C326.464 69.456 326.202 69.1258 325.86 68.8955C325.518 68.6652 325.113 68.546 324.7 68.5543C324.53 68.5672 324.362 68.6007 324.2 68.654C324.122 67.8867 323.756 67.1772 323.176 66.6673C322.596 66.1573 321.844 65.8846 321.071 65.9034C320.298 65.9223 319.56 66.2315 319.006 66.7692C318.451 67.3069 318.121 68.0334 318.08 68.8036C317.773 68.5323 317.413 68.3269 317.023 68.1999C316.632 68.073 316.22 68.0272 315.811 68.0656C315.403 68.1039 315.006 68.2254 314.647 68.4227C314.287 68.62 313.972 68.8888 313.72 69.2125C313.742 69.1304 313.759 69.0471 313.77 68.9631C313.761 68.2404 313.498 67.5438 313.026 66.9952C312.554 66.4466 311.904 66.0809 311.189 65.9621C310.474 65.8432 309.74 65.9788 309.115 66.3451C308.49 66.7114 308.014 67.2851 307.77 67.9659C307.549 67.5793 307.243 67.247 306.876 66.9932C306.509 66.7393 306.09 66.5704 305.649 66.4987C305.208 66.4271 304.757 66.4545 304.328 66.5789C303.899 66.7033 303.504 66.9217 303.17 67.218C302.989 66.2506 302.463 65.381 301.691 64.7689C300.918 64.1567 299.95 63.843 298.964 63.8855C297.978 63.9279 297.04 64.3236 296.323 64.9999C295.606 65.6761 295.158 66.5876 295.06 67.567C294.747 67.5502 294.435 67.6109 294.151 67.7437C293.868 67.8765 293.621 68.0772 293.434 68.3279C293.247 68.5787 293.125 68.8717 293.079 69.1809C293.033 69.4901 293.064 69.8058 293.17 70.1C293.134 70.0955 293.097 70.0955 293.06 70.1C292.547 70.0994 292.053 70.2957 291.68 70.6485C291.308 71.0012 291.086 71.4832 291.06 71.9947C290.531 71.5481 289.863 71.2979 289.17 71.2867C288.447 71.2959 287.75 71.5587 287.201 72.0292C286.653 72.4996 286.288 73.1476 286.17 73.8596C285.551 73.489 284.843 73.2926 284.12 73.2911C283.257 73.2848 282.413 73.5511 281.711 74.0521C281.008 74.553 280.483 75.2629 280.21 76.0799C279.937 76.8969 279.93 77.7792 280.191 78.6003C280.451 79.4213 280.966 80.1391 281.66 80.6507C281.172 80.905 280.76 81.285 280.468 81.7515C280.176 82.2179 280.015 82.7537 280 83.3034Z" fill="url(#paint7_linear_201_2587)"/>
</g>
<g filter="url(#filter8_d_201_2587)">
<path d="M1003 94.7373C1003 95.1243 1003.08 95.5069 1003.23 95.8642H1112.8C1112.8 95.7545 1112.86 95.6648 1112.86 95.5551C1112.86 95.1425 1112.78 94.7341 1112.62 94.3529C1112.46 93.9718 1112.23 93.6255 1111.94 93.3338C1111.64 93.0421 1111.3 92.8108 1110.92 92.6529C1110.53 92.495 1110.12 92.4138 1109.71 92.4138C1109.45 92.4312 1109.19 92.4849 1108.94 92.5733C1109.13 92.1055 1109.2 91.5968 1109.14 91.0948C1109.08 90.5928 1108.9 90.1139 1108.6 89.7026C1108.31 89.2913 1107.92 88.9612 1107.46 88.743C1107 88.5248 1106.5 88.4256 1105.99 88.4548C1105.35 88.4721 1104.73 88.6844 1104.22 89.0631C1104.23 88.9436 1104.23 88.8235 1104.22 88.7041C1104.23 87.7636 1103.91 86.8488 1103.33 86.1102C1102.75 85.3717 1101.93 84.8535 1101.01 84.641C1100.09 84.4285 1099.13 84.5344 1098.27 84.9412C1097.42 85.3481 1096.74 86.0316 1096.33 86.8791C1096.16 86.2139 1095.77 85.6238 1095.23 85.2015C1094.69 84.7792 1094.02 84.5485 1093.33 84.5456C1092.51 84.552 1091.73 84.8737 1091.15 85.4431C1090.97 84.682 1090.59 83.9864 1090.03 83.4374C1089.47 82.8883 1088.77 82.5086 1088 82.3424C1087.24 82.1761 1086.44 82.2303 1085.71 82.4986C1084.97 82.7669 1084.33 83.2382 1083.85 83.8575C1083.74 83.2894 1083.46 82.7656 1083.06 82.3473C1082.66 81.929 1082.14 81.6336 1081.58 81.4955C1081.01 81.3574 1080.42 81.3824 1079.87 81.5676C1079.32 81.7528 1078.84 82.0905 1078.47 82.5412C1078.2 81.7905 1077.72 81.1342 1077.08 80.6512C1076.44 80.1682 1075.68 79.8791 1074.88 79.8187C1075.02 79.3697 1075.09 78.9028 1075.1 78.4326C1075.09 77.3144 1074.7 76.2324 1073.99 75.3657C1073.28 74.499 1072.3 73.8997 1071.2 73.667C1070.11 73.4343 1068.96 73.5822 1067.96 74.0861C1066.96 74.5901 1066.16 75.4199 1065.7 76.4381C1065.47 76.362 1065.23 76.3151 1064.99 76.2985C1064.36 76.3003 1063.75 76.4916 1063.23 76.8475C1062.71 77.2033 1062.31 77.7071 1062.08 78.293C1061.69 77.6583 1061.13 77.1417 1060.46 76.7978C1059.8 76.454 1059.05 76.2956 1058.31 76.3395C1057.56 76.3835 1056.84 76.6281 1056.22 77.0475C1055.6 77.4668 1055.11 78.0454 1054.79 78.7218C1054.5 78.5518 1054.17 78.459 1053.84 78.4525C1053.31 78.4525 1052.8 78.6627 1052.43 79.0367C1052.05 79.4107 1051.84 79.918 1051.84 80.447C1051.85 80.6731 1051.89 80.8961 1051.98 81.1052C1051.76 80.9552 1051.5 80.8721 1051.24 80.8658C1050.92 80.875 1050.61 80.9909 1050.37 81.1949H1050.23C1050.16 80.9522 1050.04 80.7259 1049.89 80.53C1049.73 80.3341 1049.53 80.1728 1049.31 80.056C1049.08 79.9392 1048.84 79.8694 1048.58 79.8509C1048.33 79.8324 1048.08 79.8655 1047.84 79.9484C1047.78 79.1556 1047.42 78.4162 1046.83 77.8827C1046.23 77.3493 1045.46 77.0625 1044.66 77.0817C1043.87 77.1009 1043.11 77.4246 1042.54 77.9859C1041.98 78.5472 1041.65 79.3033 1041.63 80.098C1041.08 79.6138 1040.37 79.3417 1039.63 79.3301C1039.17 79.3349 1038.71 79.4441 1038.29 79.6496C1037.88 79.8551 1037.51 80.1515 1037.23 80.5168C1037.23 80.427 1037.23 80.3473 1037.23 80.2575C1037.23 79.5151 1036.97 78.7961 1036.49 78.2293C1036.01 77.6626 1035.34 77.2853 1034.61 77.1652C1033.87 77.0451 1033.12 77.19 1032.48 77.574C1031.84 77.958 1031.36 78.5558 1031.13 79.2603C1030.91 78.8629 1030.6 78.5206 1030.23 78.259C1029.86 77.9975 1029.43 77.8236 1028.98 77.7506C1028.54 77.6776 1028.08 77.7073 1027.64 77.8376C1027.2 77.9678 1026.8 78.1952 1026.47 78.5024C1026.29 77.5224 1025.76 76.6411 1024.97 76.0204C1024.19 75.3997 1023.21 75.0814 1022.21 75.1238C1021.21 75.1663 1020.26 75.5667 1019.54 76.2515C1018.81 76.9363 1018.36 77.8595 1018.26 78.8514C1017.73 78.8514 1017.22 79.0616 1016.85 79.4356C1016.47 79.8096 1016.26 80.3169 1016.26 80.8459C1016.27 81.0297 1016.31 81.2111 1016.37 81.3844H1016.26C1015.74 81.384 1015.25 81.5831 1014.87 81.9401C1014.5 82.297 1014.28 82.7841 1014.26 83.2991C1013.85 82.928 1013.35 82.677 1012.8 82.5738C1012.26 82.4706 1011.7 82.5191 1011.18 82.7142C1010.66 82.9092 1010.21 83.2431 1009.87 83.6789C1009.53 84.1148 1009.32 84.6356 1009.26 85.1838C1008.63 84.8101 1007.91 84.6104 1007.18 84.6055C1006.3 84.5998 1005.45 84.8708 1004.74 85.3797C1004.02 85.8885 1003.49 86.6092 1003.21 87.4383C1002.94 88.2675 1002.93 89.1626 1003.2 89.9954C1003.46 90.8283 1003.98 91.5562 1004.69 92.0747C1004.19 92.3266 1003.78 92.7067 1003.48 93.1752C1003.18 93.6436 1003.02 94.1832 1003 94.7373Z" fill="url(#paint8_linear_201_2587)"/>
</g>
<defs>
<filter id="filter0_d_201_2587" x="145" y="0.761597" width="152.47" height="34.9462" filterUnits="userSpaceOnUse" color-interpolation-filters="sRGB">
<feFlood flood-opacity="0" result="BackgroundImageFix"/>
<feColorMatrix in="SourceAlpha" type="matrix" values="0 0 0 0 0 0 0 0 0 0 0 0 0 0 0 0 0 0 127 0" result="hardAlpha"/>
<feOffset dy="4"/>
<feGaussianBlur stdDeviation="2"/>
<feComposite in2="hardAlpha" operator="out"/>
<feColorMatrix type="matrix" values="0 0 0 0 0 0 0 0 0 0 0 0 0 0 0 0 0 0 0.05 0"/>
<feBlend mode="normal" in2="BackgroundImageFix" result="effect1_dropShadow_201_2587"/>
<feBlend mode="normal" in="SourceGraphic" in2="effect1_dropShadow_201_2587" result="shape"/>
</filter>
<filter id="filter1_d_201_2587" x="616.12" y="66.7173" width="126" height="29.9549" filterUnits="userSpaceOnUse" color-interpolation-filters="sRGB">
<feFlood flood-opacity="0" result="BackgroundImageFix"/>
<feColorMatrix in="SourceAlpha" type="matrix" values="0 0 0 0 0 0 0 0 0 0 0 0 0 0 0 0 0 0 127 0" result="hardAlpha"/>
<feOffset dy="4"/>
<feGaussianBlur stdDeviation="2"/>
<feComposite in2="hardAlpha" operator="out"/>
<feColorMatrix type="matrix" values="0 0 0 0 0 0 0 0 0 0 0 0 0 0 0 0 0 0 0.05 0"/>
<feBlend mode="normal" in2="BackgroundImageFix" result="effect1_dropShadow_201_2587"/>
<feBlend mode="normal" in="SourceGraphic" in2="effect1_dropShadow_201_2587" result="shape"/>
</filter>
<filter id="filter2_d_201_2587" x="0" y="56.6066" width="86.33" height="35.3564" filterUnits="userSpaceOnUse" color-interpolation-filters="sRGB">
<feFlood flood-opacity="0" result="BackgroundImageFix"/>
<feColorMatrix in="SourceAlpha" type="matrix" values="0 0 0 0 0 0 0 0 0 0 0 0 0 0 0 0 0 0 127 0" result="hardAlpha"/>
<feOffset dy="4"/>
<feGaussianBlur stdDeviation="2"/>
<feComposite in2="hardAlpha" operator="out"/>
<feColorMatrix type="matrix" values="0 0 0 0 0 0 0 0 0 0 0 0 0 0 0 0 0 0 0.05 0"/>
<feBlend mode="normal" in2="BackgroundImageFix" result="effect1_dropShadow_201_2587"/>
<feBlend mode="normal" in="SourceGraphic" in2="effect1_dropShadow_201_2587" result="shape"/>
</filter>
<filter id="filter3_d_201_2587" x="1147" y="0.761597" width="60.9501" height="26.4526" filterUnits="userSpaceOnUse" color-interpolation-filters="sRGB">
<feFlood flood-opacity="0" result="BackgroundImageFix"/>
<feColorMatrix in="SourceAlpha" type="matrix" values="0 0 0 0 0 0 0 0 0 0 0 0 0 0 0 0 0 0 127 0" result="hardAlpha"/>
<feOffset dy="4"/>
<feGaussianBlur stdDeviation="2"/>
<feComposite in2="hardAlpha" operator="out"/>
<feColorMatrix type="matrix" values="0 0 0 0 0 0 0 0 0 0 0 0 0 0 0 0 0 0 0.05 0"/>
<feBlend mode="normal" in2="BackgroundImageFix" result="effect1_dropShadow_201_2587"/>
<feBlend mode="normal" in="SourceGraphic" in2="effect1_dropShadow_201_2587" result="shape"/>
</filter>
<filter id="filter4_d_201_2587" x="526" y="100.595" width="78.73" height="32.6469" filterUnits="userSpaceOnUse" color-interpolation-filters="sRGB">
<feFlood flood-opacity="0" result="BackgroundImageFix"/>
<feColorMatrix in="SourceAlpha" type="matrix" values="0 0 0 0 0 0 0 0 0 0 0 0 0 0 0 0 0 0 127 0" result="hardAlpha"/>
<feOffset dy="4"/>
<feGaussianBlur stdDeviation="2"/>
<feComposite in2="hardAlpha" operator="out"/>
<feColorMatrix type="matrix" values="0 0 0 0 0 0 0 0 0 0 0 0 0 0 0 0 0 0 0.05 0"/>
<feBlend mode="normal" in2="BackgroundImageFix" result="effect1_dropShadow_201_2587"/>
<feBlend mode="normal" in="SourceGraphic" in2="effect1_dropShadow_201_2587" result="shape"/>
</filter>
<filter id="filter5_d_201_2587" x="436" y="40.7617" width="86.4728" height="29.267" filterUnits="userSpaceOnUse" color-interpolation-filters="sRGB">
<feFlood flood-opacity="0" result="BackgroundImageFix"/>
<feColorMatrix in="SourceAlpha" type="matrix" values="0 0 0 0 0 0 0 0 0 0 0 0 0 0 0 0 0 0 127 0" result="hardAlpha"/>
<feOffset dy="4"/>
<feGaussianBlur stdDeviation="2"/>
<feComposite in2="hardAlpha" operator="out"/>
<feColorMatrix type="matrix" values="0 0 0 0 0 0 0 0 0 0 0 0 0 0 0 0 0 0 0.05 0"/>
<feBlend mode="normal" in2="BackgroundImageFix" result="effect1_dropShadow_201_2587"/>
<feBlend mode="normal" in="SourceGraphic" in2="effect1_dropShadow_201_2587" result="shape"/>
</filter>
<filter id="filter6_d_201_2587" x="861" y="54.7229" width="86.6727" height="29.267" filterUnits="userSpaceOnUse" color-interpolation-filters="sRGB">
<feFlood flood-opacity="0" result="BackgroundImageFix"/>
<feColorMatrix in="SourceAlpha" type="matrix" values="0 0 0 0 0 0 0 0 0 0 0 0 0 0 0 0 0 0 127 0" result="hardAlpha"/>
<feOffset dy="4"/>
<feGaussianBlur stdDeviation="2"/>
<feComposite in2="hardAlpha" operator="out"/>
<feColorMatrix type="matrix" values="0 0 0 0 0 0 0 0 0 0 0 0 0 0 0 0 0 0 0.05 0"/>
<feBlend mode="normal" in2="BackgroundImageFix" result="effect1_dropShadow_201_2587"/>
<feBlend mode="normal" in="SourceGraphic" in2="effect1_dropShadow_201_2587" result="shape"/>
</filter>
<filter id="filter7_d_201_2587" x="276" y="62.59" width="116.46" height="29.8203" filterUnits="userSpaceOnUse" color-interpolation-filters="sRGB">
<feFlood flood-opacity="0" result="BackgroundImageFix"/>
<feColorMatrix in="SourceAlpha" type="matrix" values="0 0 0 0 0 0 0 0 0 0 0 0 0 0 0 0 0 0 127 0" result="hardAlpha"/>
<feOffset dy="4"/>
<feGaussianBlur stdDeviation="2"/>
<feComposite in2="hardAlpha" operator="out"/>
<feColorMatrix type="matrix" values="0 0 0 0 0 0 0 0 0 0 0 0 0 0 0 0 0 0 0.05 0"/>
<feBlend mode="normal" in2="BackgroundImageFix" result="effect1_dropShadow_201_2587"/>
<feBlend mode="normal" in="SourceGraphic" in2="effect1_dropShadow_201_2587" result="shape"/>
</filter>
<filter id="filter8_d_201_2587" x="999" y="73.5596" width="117.86" height="30.3046" filterUnits="userSpaceOnUse" color-interpolation-filters="sRGB">
<feFlood flood-opacity="0" result="BackgroundImageFix"/>
<feColorMatrix in="SourceAlpha" type="matrix" values="0 0 0 0 0 0 0 0 0 0 0 0 0 0 0 0 0 0 127 0" result="hardAlpha"/>
<feOffset dy="4"/>
<feGaussianBlur stdDeviation="2"/>
<feComposite in2="hardAlpha" operator="out"/>
<feColorMatrix type="matrix" values="0 0 0 0 0 0 0 0 0 0 0 0 0 0 0 0 0 0 0.05 0"/>
<feBlend mode="normal" in2="BackgroundImageFix" result="effect1_dropShadow_201_2587"/>
<feBlend mode="normal" in="SourceGraphic" in2="effect1_dropShadow_201_2587" result="shape"/>
</filter>
<linearGradient id="paint0_linear_201_2587" x1="221.21" y1="0.762617" x2="221.21" y2="27.7078" gradientUnits="userSpaceOnUse">
<stop stop-color="white"/>
<stop offset="1" stop-color="#F2F2F2"/>
</linearGradient>
<linearGradient id="paint1_linear_201_2587" x1="679.11" y1="66.6533" x2="679.11" y2="88.6722" gradientUnits="userSpaceOnUse">
<stop stop-color="#FAF8F8"/>
<stop offset="1" stop-color="#F2F2F2"/>
</linearGradient>
<linearGradient id="paint2_linear_201_2587" x1="43.17" y1="56.5591" x2="43.17" y2="83.9431" gradientUnits="userSpaceOnUse">
<stop stop-color="white"/>
<stop offset="1" stop-color="#F2F2F2"/>
</linearGradient>
<linearGradient id="paint3_linear_201_2587" x1="1177.47" y1="0.675685" x2="1177.47" y2="19.1843" gradientUnits="userSpaceOnUse">
<stop stop-color="#FAF8F8"/>
<stop offset="1" stop-color="#F2F2F2"/>
</linearGradient>
<linearGradient id="paint4_linear_201_2587" x1="565.37" y1="100.531" x2="565.37" y2="125.242" gradientUnits="userSpaceOnUse">
<stop stop-color="#FAF8F8"/>
<stop offset="1" stop-color="#F2F2F2"/>
</linearGradient>
<linearGradient id="paint5_linear_201_2587" x1="479.223" y1="40.7577" x2="479.223" y2="62.0287" gradientUnits="userSpaceOnUse">
<stop stop-color="#FAF8F8"/>
<stop offset="1" stop-color="#F2F2F2"/>
</linearGradient>
<linearGradient id="paint6_linear_201_2587" x1="904.423" y1="54.7189" x2="904.423" y2="75.9898" gradientUnits="userSpaceOnUse">
<stop stop-color="#FAF8F8"/>
<stop offset="1" stop-color="#F2F2F2"/>
</linearGradient>
<linearGradient id="paint7_linear_201_2587" x1="334.23" y1="62.3515" x2="334.23" y2="84.4103" gradientUnits="userSpaceOnUse">
<stop stop-color="white"/>
<stop offset="1" stop-color="#F2F2F2"/>
</linearGradient>
<linearGradient id="paint8_linear_201_2587" x1="1057.93" y1="73.5162" x2="1057.93" y2="95.8642" gradientUnits="userSpaceOnUse">
<stop stop-color="#FAF8F8"/>
<stop offset="1" stop-color="#F2F2F2"/>
</linearGradient>
</defs>
</svg>
