<svg width="50" height="50" viewBox="0 0 50 50" fill="none" xmlns="http://www.w3.org/2000/svg">
<circle cx="25" cy="25" r="24.5" fill="#CF0101" stroke="white"/>
<path d="M23.15 17.5449C17.6825 17.5449 13.25 20.9549 13.25 25.1599C13.25 27.2224 14.3175 29.0974 16.0525 30.4674C15.9525 31.8649 15.615 33.5749 14.64 34.4974C16.58 34.4974 18.5625 33.2824 19.8175 32.3324C20.86 32.6199 21.98 32.7749 23.1525 32.7749C28.62 32.7749 33.0525 29.3674 33.0525 25.1599C33.05 20.9549 28.6175 17.5449 23.15 17.5449Z" fill="white"/>
<path d="M36.3075 25.9025C37.1425 24.79 37.6175 23.495 37.6175 22.115C37.6175 17.9075 33.185 14.5 27.7175 14.5C25.31 14.5 23.105 15.16 21.39 16.2575C22.1975 16.105 23.0425 16.0225 23.91 16.0225C29.7975 16.0225 34.57 19.775 34.57 24.4C34.57 26.2225 33.8325 27.9125 32.5725 29.285C33.8225 30.235 35.81 31.4525 37.75 31.4525C36.3725 30.1425 36.2725 27.24 36.3075 25.9025Z" fill="white"/>
</svg>
