<svg width="230" height="75" viewBox="0 0 230 75" fill="none" xmlns="http://www.w3.org/2000/svg">
<path d="M122.455 6.21189C121.645 6.21189 120.912 6.3542 120.258 6.63882C119.604 6.90921 119.05 7.3148 118.595 7.85558C118.14 8.38213 117.791 9.02965 117.55 9.79813C117.308 10.5524 117.187 11.4062 117.187 12.3597C117.187 13.6121 117.379 14.7008 117.763 15.6258C118.161 16.5508 118.744 17.2624 119.512 17.7604C120.294 18.2585 121.268 18.5076 122.434 18.5076C123.102 18.5076 123.735 18.4507 124.332 18.3368C124.929 18.223 125.512 18.0806 126.081 17.9099V19.5749C125.512 19.7884 124.922 19.9449 124.311 20.0445C123.713 20.1442 122.995 20.194 122.157 20.194C120.607 20.194 119.313 19.8738 118.275 19.2334C117.237 18.593 116.455 17.6822 115.929 16.501C115.417 15.3198 115.161 13.9323 115.161 12.3384C115.161 11.1857 115.317 10.1326 115.63 9.17908C115.957 8.22559 116.426 7.40019 117.038 6.70286C117.663 6.00554 118.431 5.47187 119.341 5.10186C120.251 4.71762 121.296 4.5255 122.476 4.5255C123.258 4.5255 124.012 4.60377 124.737 4.76031C125.462 4.91685 126.109 5.13744 126.678 5.42206L125.91 7.04441C125.441 6.83094 124.915 6.63882 124.332 6.46805C123.763 6.29727 123.138 6.21189 122.455 6.21189Z" fill="#1D2C38"/>
<path d="M134.225 19.9805H132.305V6.42535H127.549V4.73897H138.96V6.42535H134.225V19.9805Z" fill="#1D2C38"/>
<path d="M145.287 4.73897C147.278 4.73897 148.728 5.13032 149.638 5.91303C150.548 6.69574 151.003 7.79866 151.003 9.22177C151.003 9.84794 150.896 10.4528 150.683 11.0362C150.484 11.6055 150.15 12.1178 149.681 12.5732C149.211 13.0286 148.586 13.3915 147.804 13.6619C147.022 13.918 146.062 14.0461 144.924 14.0461H143.175V19.9805H141.256V4.73897H145.287ZM145.116 6.38266H143.175V12.4024H144.711C145.678 12.4024 146.481 12.3028 147.121 12.1036C147.761 11.8901 148.237 11.5557 148.55 11.1003C148.863 10.6449 149.019 10.0472 149.019 9.30716C149.019 8.32521 148.707 7.59231 148.081 7.10845C147.455 6.62459 146.467 6.38266 145.116 6.38266Z" fill="#1D2C38"/>
<path d="M167.457 12.3384C167.457 13.5196 167.308 14.594 167.009 15.5617C166.71 16.5152 166.262 17.3406 165.665 18.038C165.082 18.7353 164.35 19.2689 163.468 19.639C162.601 20.009 161.592 20.194 160.44 20.194C159.246 20.194 158.208 20.009 157.326 19.639C156.444 19.2547 155.712 18.721 155.129 18.038C154.546 17.3406 154.113 16.5081 153.828 15.5404C153.544 14.5727 153.402 13.4982 153.402 12.317C153.402 10.7516 153.658 9.38543 154.169 8.21848C154.681 7.05152 155.456 6.14073 156.494 5.4861C157.546 4.83147 158.869 4.50415 160.461 4.50415C161.983 4.50415 163.262 4.83147 164.3 5.4861C165.338 6.1265 166.12 7.03729 166.646 8.21848C167.187 9.38543 167.457 10.7587 167.457 12.3384ZM155.428 12.3384C155.428 13.6192 155.605 14.7221 155.961 15.6471C156.316 16.5721 156.864 17.2837 157.603 17.7818C158.357 18.2799 159.302 18.5289 160.44 18.5289C161.592 18.5289 162.53 18.2799 163.255 17.7818C163.995 17.2837 164.542 16.5721 164.897 15.6471C165.253 14.7221 165.431 13.6192 165.431 12.3384C165.431 10.4172 165.033 8.9158 164.236 7.83424C163.44 6.73844 162.182 6.19054 160.461 6.19054C159.309 6.19054 158.357 6.43959 157.603 6.93767C156.864 7.42153 156.316 8.12597 155.961 9.051C155.605 9.96179 155.428 11.0576 155.428 12.3384Z" fill="#1D2C38"/>
<path d="M181.219 0C181.162 0.711556 180.984 1.30926 180.686 1.79312C180.401 2.27698 179.975 2.63987 179.406 2.8818C178.837 3.12373 178.098 3.2447 177.188 3.2447C176.264 3.2447 175.517 3.12373 174.948 2.8818C174.394 2.63987 173.989 2.2841 173.733 1.81447C173.477 1.33061 173.32 0.725787 173.263 0H175.012C175.083 0.768481 175.283 1.28792 175.61 1.55831C175.951 1.81447 176.491 1.94255 177.23 1.94255C177.885 1.94255 178.396 1.80735 178.766 1.53696C179.15 1.25234 179.378 0.740018 179.449 0H181.219ZM170.853 4.73897H172.645V13.1069C172.645 13.4626 172.638 13.854 172.624 14.2809C172.624 14.6936 172.617 15.1063 172.602 15.519C172.588 15.9317 172.567 16.3018 172.538 16.6291C172.524 16.9422 172.51 17.1841 172.496 17.3549H172.581L180.963 4.73897H183.096V19.9805H181.304V11.698C181.304 11.3137 181.311 10.901 181.326 10.4599C181.34 10.0045 181.354 9.57043 181.368 9.15773C181.397 8.7308 181.418 8.35367 181.432 8.02636C181.446 7.69904 181.461 7.45711 181.475 7.30057H181.389L172.986 19.9805H170.853V4.73897Z" fill="#1D2C38"/>
<path d="M127.041 39.855H124.737L117.848 32.1275V39.855H115.929V24.6135H117.848V31.9994L124.567 24.6135H126.742L120.13 32.0208L127.041 39.855Z" fill="#1D2C38"/>
<path d="M141.984 32.2129C141.984 33.3941 141.835 34.4685 141.536 35.4362C141.237 36.3897 140.789 37.2151 140.192 37.9125C139.609 38.6098 138.877 39.1434 137.996 39.5135C137.128 39.8835 136.119 40.0685 134.967 40.0685C133.773 40.0685 132.735 39.8835 131.853 39.5135C130.971 39.1292 130.239 38.5956 129.656 37.9125C129.073 37.2151 128.64 36.3826 128.355 35.4149C128.071 34.4472 127.929 33.3727 127.929 32.1915C127.929 30.6261 128.185 29.2599 128.696 28.093C129.208 26.926 129.983 26.0152 131.021 25.3606C132.073 24.706 133.396 24.3787 134.988 24.3787C136.51 24.3787 137.789 24.706 138.827 25.3606C139.865 26.001 140.647 26.9118 141.173 28.093C141.714 29.2599 141.984 30.6332 141.984 32.2129ZM129.955 32.2129C129.955 33.4937 130.133 34.5966 130.488 35.5216C130.843 36.4467 131.391 37.1582 132.13 37.6563C132.884 38.1544 133.829 38.4034 134.967 38.4034C136.119 38.4034 137.057 38.1544 137.782 37.6563C138.522 37.1582 139.069 36.4467 139.424 35.5216C139.78 34.5966 139.958 33.4937 139.958 32.2129C139.958 30.2917 139.56 28.7903 138.763 27.7087C137.967 26.6129 136.709 26.065 134.988 26.065C133.837 26.065 132.884 26.3141 132.13 26.8122C131.391 27.296 130.843 28.0005 130.488 28.9255C130.133 29.8363 129.955 30.9321 129.955 32.2129Z" fill="#1D2C38"/>
<path d="M152.077 39.855L147.065 26.492H146.98C147.008 26.7766 147.03 27.1395 147.044 27.5807C147.072 28.0218 147.094 28.5057 147.108 29.0322C147.122 29.5446 147.129 30.0711 147.129 30.6119V39.855H145.359V24.6135H148.196L152.888 37.1013H152.973L157.751 24.6135H160.566V39.855H158.668V30.4838C158.668 29.9857 158.675 29.4947 158.689 29.0109C158.703 28.5128 158.725 28.0503 158.753 27.6234C158.782 27.1822 158.803 26.8122 158.817 26.5133H158.732L153.656 39.855H152.077Z" fill="#1D2C38"/>
<path d="M164.709 39.855V24.6135H176.14V39.855H174.242V26.2999H166.628V39.855H164.709Z" fill="#1D2C38"/>
<path d="M191.272 39.855H189.352V26.2999H184.532C184.432 27.0826 184.326 27.908 184.212 28.7761C184.098 29.6299 183.977 30.4767 183.849 31.3163C183.736 32.156 183.622 32.9458 183.508 33.6858C183.394 34.4258 183.281 35.0733 183.167 35.6284C182.982 36.5818 182.755 37.393 182.484 38.0619C182.214 38.7307 181.852 39.236 181.397 39.5775C180.956 39.919 180.373 40.0898 179.648 40.0898C179.406 40.0898 179.157 40.0614 178.901 40.0044C178.66 39.9617 178.446 39.9048 178.261 39.8337V38.2327C178.418 38.3038 178.596 38.3679 178.795 38.4248C178.994 38.4675 179.207 38.4888 179.434 38.4888C179.861 38.4888 180.195 38.318 180.437 37.9765C180.693 37.6207 180.892 37.1867 181.034 36.6744C181.176 36.1478 181.297 35.6284 181.397 35.116C181.482 34.7033 181.581 34.1554 181.695 33.4723C181.809 32.775 181.93 31.9638 182.058 31.0388C182.2 30.1138 182.342 29.1105 182.484 28.0289C182.641 26.9331 182.79 25.7947 182.932 24.6135H191.272V39.855Z" fill="#1D2C38"/>
<path d="M203.919 39.855H195.409V24.6135H203.919V26.2999H197.329V31.0602H203.535V32.7252H197.329V38.1686H203.919V39.855Z" fill="#1D2C38"/>
<path d="M218.373 39.855H216.069L209.18 32.1275V39.855H207.261V24.6135H209.18V31.9994L215.899 24.6135H218.074L211.462 32.0208L218.373 39.855Z" fill="#1D2C38"/>
<path d="M225.265 39.855H223.346V26.2999H218.589V24.6135H230V26.2999H225.265V39.855Z" fill="#1D2C38"/>
<path d="M115.929 59.7295V44.488H127.361V59.7295H125.462V46.1744H117.848V59.7295H115.929Z" fill="#1D2C38"/>
<path d="M144.817 52.0874C144.817 53.2686 144.667 54.343 144.369 55.3107C144.07 56.2642 143.622 57.0896 143.025 57.787C142.442 58.4843 141.71 59.018 140.828 59.388C139.961 59.758 138.951 59.943 137.8 59.943C136.605 59.943 135.567 59.758 134.686 59.388C133.804 59.0037 133.072 58.4701 132.489 57.787C131.906 57.0896 131.472 56.2571 131.188 55.2894C130.903 54.3217 130.761 53.2472 130.761 52.066C130.761 50.5006 131.017 49.1344 131.529 47.9675C132.041 46.8005 132.816 45.8897 133.854 45.2351C134.906 44.5805 136.228 44.2532 137.821 44.2532C139.342 44.2532 140.622 44.5805 141.66 45.2351C142.698 45.8755 143.48 46.7863 144.006 47.9675C144.546 49.1344 144.817 50.5077 144.817 52.0874ZM132.787 52.0874C132.787 53.3682 132.965 54.4711 133.321 55.3961C133.676 56.3212 134.224 57.0327 134.963 57.5308C135.717 58.0289 136.662 58.2779 137.8 58.2779C138.951 58.2779 139.89 58.0289 140.615 57.5308C141.354 57.0327 141.902 56.3212 142.257 55.3961C142.613 54.4711 142.79 53.3682 142.79 52.0874C142.79 50.1662 142.392 48.6648 141.596 47.5832C140.8 46.4874 139.541 45.9395 137.821 45.9395C136.669 45.9395 135.717 46.1886 134.963 46.6867C134.224 47.1705 133.676 47.875 133.321 48.8C132.965 49.7108 132.787 50.8066 132.787 52.0874Z" fill="#1D2C38"/>
<path d="M154.718 45.9609C153.908 45.9609 153.175 46.1032 152.521 46.3878C151.867 46.6582 151.313 47.0638 150.858 47.6046C150.403 48.1311 150.054 48.7787 149.813 49.5471C149.571 50.3014 149.45 51.1553 149.45 52.1087C149.45 53.3611 149.642 54.4498 150.026 55.3748C150.424 56.2998 151.007 57.0114 151.775 57.5095C152.557 58.0075 153.531 58.2566 154.697 58.2566C155.365 58.2566 155.998 58.1997 156.595 58.0858C157.192 57.972 157.775 57.8297 158.344 57.6589V59.3239C157.775 59.5374 157.185 59.6939 156.574 59.7936C155.976 59.8932 155.258 59.943 154.42 59.943C152.87 59.943 151.576 59.6228 150.538 58.9824C149.5 58.342 148.718 57.4312 148.192 56.25C147.68 55.0688 147.424 53.6813 147.424 52.0874C147.424 50.9347 147.58 49.8816 147.893 48.9281C148.22 47.9746 148.689 47.1492 149.301 46.4519C149.926 45.7545 150.694 45.2209 151.604 44.8509C152.514 44.4666 153.559 44.2745 154.739 44.2745C155.521 44.2745 156.275 44.3528 157 44.5093C157.725 44.6659 158.372 44.8864 158.941 45.1711L158.173 46.7934C157.704 46.5799 157.178 46.3878 156.595 46.2171C156.026 46.0463 155.401 45.9609 154.718 45.9609Z" fill="#1D2C38"/>
<path d="M166.488 59.7295H164.568V46.1744H159.812V44.488H171.223V46.1744H166.488V59.7295Z" fill="#1D2C38"/>
<path d="M181.574 59.7295L179.74 55.0119H173.704L171.891 59.7295H169.95L175.901 44.4239H177.629L183.558 59.7295H181.574ZM177.458 48.6933C177.415 48.5794 177.344 48.3731 177.245 48.0742C177.145 47.7754 177.046 47.4694 176.946 47.1563C176.861 46.829 176.79 46.5799 176.733 46.4092C176.662 46.6938 176.583 46.9855 176.498 47.2844C176.427 47.569 176.349 47.8323 176.264 48.0742C176.192 48.3161 176.128 48.5225 176.072 48.6933L174.344 53.3042H179.164L177.458 48.6933Z" fill="#1D2C38"/>
<path d="M189.992 44.488C191.257 44.488 192.317 44.6089 193.17 44.8509C194.037 45.0928 194.684 45.4913 195.111 46.0463C195.551 46.6013 195.772 47.3413 195.772 48.2663C195.772 48.864 195.658 49.3977 195.431 49.8673C195.217 50.3227 194.89 50.707 194.449 51.0201C194.023 51.3189 193.497 51.5253 192.871 51.6391V51.7458C193.511 51.8455 194.087 52.0305 194.599 52.3009C195.125 52.5713 195.537 52.9555 195.836 53.4536C196.134 53.9517 196.284 54.5992 196.284 55.3961C196.284 56.3212 196.07 57.111 195.644 57.7656C195.217 58.406 194.606 58.897 193.81 59.2385C193.028 59.5659 192.089 59.7295 190.994 59.7295H185.641V44.488H189.992ZM190.376 50.9774C191.684 50.9774 192.58 50.771 193.063 50.3583C193.547 49.9314 193.788 49.3052 193.788 48.4798C193.788 47.6402 193.49 47.0425 192.893 46.6867C192.31 46.3167 191.371 46.1317 190.077 46.1317H187.56V50.9774H190.376ZM187.56 52.5784V58.1072H190.632C191.983 58.1072 192.921 57.8439 193.447 57.3173C193.973 56.7908 194.236 56.1006 194.236 55.2467C194.236 54.7059 194.115 54.2363 193.874 53.8378C193.646 53.4394 193.255 53.1334 192.701 52.9199C192.16 52.6922 191.421 52.5784 190.482 52.5784H187.56Z" fill="#1D2C38"/>
<path d="M210.625 59.7295H208.321L201.432 52.002V59.7295H199.513V44.488H201.432V51.8739L208.15 44.488H210.326L203.714 51.8953L210.625 59.7295Z" fill="#1D2C38"/>
<path d="M222.252 59.7295L220.418 55.0119H214.382L212.569 59.7295H210.628L216.579 44.4239H218.306L224.235 59.7295H222.252ZM218.136 48.6933C218.093 48.5794 218.022 48.3731 217.922 48.0742C217.823 47.7754 217.723 47.4694 217.624 47.1563C217.538 46.829 217.467 46.5799 217.41 46.4092C217.339 46.6938 217.261 46.9855 217.176 47.2844C217.105 47.569 217.027 47.8323 216.941 48.0742C216.87 48.3161 216.806 48.5225 216.749 48.6933L215.022 53.3042H219.842L218.136 48.6933Z" fill="#1D2C38"/>
<path d="M118.053 65.8482V66.3782H115.981V70.5784H115.385V65.8482H118.053Z" fill="#A3A3A3"/>
<path d="M120.135 66.9612C120.572 66.9612 120.923 67.1136 121.188 67.4183C121.457 67.7231 121.591 68.1824 121.591 68.7963C121.591 69.1982 121.53 69.5383 121.406 69.8165C121.287 70.0903 121.117 70.2979 120.896 70.4392C120.68 70.5761 120.424 70.6446 120.129 70.6446C119.948 70.6446 119.787 70.6203 119.645 70.5717C119.504 70.5232 119.383 70.4613 119.281 70.3862C119.184 70.3067 119.101 70.2206 119.03 70.1279H118.99C118.999 70.203 119.008 70.2979 119.017 70.4127C119.026 70.5276 119.03 70.6269 119.03 70.7109V72.1683H118.447V67.0275H118.924L119.003 67.5111H119.03C119.101 67.4095 119.184 67.3167 119.281 67.2328C119.383 67.1489 119.502 67.0827 119.639 67.0341C119.78 66.9855 119.946 66.9612 120.135 66.9612ZM120.029 67.4514C119.791 67.4514 119.599 67.4978 119.454 67.5906C119.308 67.6789 119.202 67.8136 119.136 67.9947C119.07 68.1758 119.034 68.4054 119.03 68.6837V68.7963C119.03 69.0878 119.061 69.3351 119.123 69.5383C119.184 69.7414 119.288 69.896 119.434 70.002C119.584 70.108 119.787 70.161 120.043 70.161C120.259 70.161 120.435 70.1014 120.572 69.9821C120.713 69.8629 120.817 69.7017 120.883 69.4985C120.954 69.2909 120.989 69.0546 120.989 68.7897C120.989 68.3833 120.91 68.0587 120.751 67.8158C120.596 67.5729 120.356 67.4514 120.029 67.4514Z" fill="#A3A3A3"/>
<path d="M121.899 67.0275H122.521L123.289 69.048C123.333 69.1673 123.373 69.2821 123.408 69.3925C123.448 69.5029 123.483 69.6111 123.514 69.7171C123.545 69.8187 123.569 69.9181 123.587 70.0153H123.613C123.64 69.9048 123.682 69.7613 123.739 69.5846C123.797 69.4036 123.856 69.2225 123.918 69.0414L124.639 67.0275H125.268L123.739 71.0686C123.655 71.2894 123.556 71.4815 123.441 71.645C123.331 71.8128 123.194 71.9409 123.031 72.0292C122.872 72.1219 122.678 72.1683 122.448 72.1683C122.343 72.1683 122.25 72.1617 122.17 72.1485C122.091 72.1396 122.023 72.1286 121.965 72.1153V71.6516C122.014 71.6604 122.071 71.6693 122.137 71.6781C122.208 71.6869 122.281 71.6913 122.356 71.6913C122.493 71.6913 122.61 71.6648 122.707 71.6118C122.808 71.5633 122.894 71.4904 122.965 71.3932C123.035 71.3005 123.095 71.1901 123.143 71.062L123.329 70.5916L121.899 67.0275Z" fill="#A3A3A3"/>
<path d="M128.828 67.0275V70.5784H128.245V67.5243H126.412V70.5784H125.829V67.0275H128.828Z" fill="#A3A3A3"/>
<path d="M132.958 67.0275V70.5784H132.376V67.5243H130.542V70.5784H129.96V67.0275H132.958Z" fill="#A3A3A3"/>
<path d="M135.434 66.9678C135.866 66.9678 136.186 67.0628 136.394 67.2527C136.601 67.4426 136.705 67.7451 136.705 68.1603V70.5784H136.281L136.169 70.0749H136.142C136.041 70.203 135.935 70.3112 135.824 70.3995C135.718 70.4834 135.595 70.5452 135.454 70.585C135.317 70.6247 135.149 70.6446 134.951 70.6446C134.739 70.6446 134.547 70.6071 134.375 70.532C134.207 70.4569 134.075 70.3421 133.978 70.1875C133.881 70.0285 133.832 69.8298 133.832 69.5913C133.832 69.2379 133.971 68.9663 134.249 68.7764C134.527 68.5821 134.955 68.4761 135.533 68.4584L136.135 68.4385V68.2265C136.135 67.9306 136.072 67.7253 135.944 67.6104C135.816 67.4956 135.635 67.4382 135.401 67.4382C135.215 67.4382 135.039 67.4669 134.871 67.5243C134.704 67.5773 134.547 67.6391 134.401 67.7098L134.223 67.2726C134.377 67.1887 134.56 67.118 134.772 67.0606C134.984 66.9987 135.204 66.9678 135.434 66.9678ZM135.606 68.8625C135.165 68.8802 134.858 68.9509 134.686 69.0745C134.518 69.1982 134.434 69.3726 134.434 69.5979C134.434 69.7966 134.494 69.9424 134.613 70.0351C134.737 70.1279 134.893 70.1742 135.083 70.1742C135.383 70.1742 135.632 70.0925 135.831 69.9291C136.03 69.7613 136.129 69.5051 136.129 69.1606V68.8427L135.606 68.8625Z" fill="#A3A3A3"/>
<path d="M141.398 67.0275H142.034L140.518 68.7367L142.16 70.5784H141.484L139.883 68.7764V70.5784H139.3V67.0275H139.883V68.7499L141.398 67.0275Z" fill="#A3A3A3"/>
<path d="M145.759 68.7963C145.759 69.0922 145.719 69.355 145.64 69.5846C145.565 69.8099 145.454 70.002 145.309 70.161C145.168 70.32 144.993 70.4415 144.786 70.5254C144.583 70.6049 144.356 70.6446 144.104 70.6446C143.87 70.6446 143.654 70.6049 143.455 70.5254C143.257 70.4415 143.085 70.32 142.939 70.161C142.793 70.002 142.679 69.8099 142.595 69.5846C142.515 69.355 142.476 69.0922 142.476 68.7963C142.476 68.4032 142.542 68.072 142.674 67.8026C142.807 67.5287 142.996 67.3212 143.244 67.1798C143.491 67.0341 143.784 66.9612 144.124 66.9612C144.446 66.9612 144.728 67.0341 144.971 67.1798C145.218 67.3212 145.41 67.5287 145.547 67.8026C145.688 68.072 145.759 68.4032 145.759 68.7963ZM143.078 68.7963C143.078 69.0745 143.113 69.3174 143.184 69.525C143.259 69.7282 143.374 69.885 143.528 69.9954C143.683 70.1058 143.879 70.161 144.117 70.161C144.356 70.161 144.552 70.1058 144.706 69.9954C144.861 69.885 144.973 69.7282 145.044 69.525C145.119 69.3174 145.156 69.0745 145.156 68.7963C145.156 68.5136 145.119 68.2729 145.044 68.0742C144.969 67.8754 144.854 67.7231 144.7 67.6171C144.55 67.5066 144.353 67.4514 144.111 67.4514C143.749 67.4514 143.486 67.5707 143.323 67.8092C143.16 68.0477 143.078 68.3767 143.078 68.7963Z" fill="#A3A3A3"/>
<path d="M150.488 67.0275V70.5784H149.965V68.3127C149.965 68.2199 149.967 68.1228 149.972 68.0212C149.98 67.9196 149.989 67.8202 149.998 67.7231H149.978L148.82 70.5784H148.33L147.205 67.7231H147.185C147.194 67.8202 147.198 67.9196 147.198 68.0212C147.203 68.1228 147.205 68.2265 147.205 68.3325V70.5784H146.682V67.0275H147.456L148.575 69.8828L149.714 67.0275H150.488Z" fill="#A3A3A3"/>
<path d="M154.619 67.0275V70.5784H154.036V67.5243H152.203V70.5784H151.62V67.0275H154.619Z" fill="#A3A3A3"/>
<path d="M157.095 66.9678C157.527 66.9678 157.847 67.0628 158.054 67.2527C158.262 67.4426 158.365 67.7451 158.365 68.1603V70.5784H157.942L157.829 70.0749H157.803C157.701 70.203 157.595 70.3112 157.485 70.3995C157.379 70.4834 157.256 70.5452 157.114 70.585C156.978 70.6247 156.81 70.6446 156.611 70.6446C156.4 70.6446 156.208 70.6071 156.036 70.532C155.868 70.4569 155.735 70.3421 155.638 70.1875C155.541 70.0285 155.493 69.8298 155.493 69.5913C155.493 69.2379 155.632 68.9663 155.91 68.7764C156.188 68.5821 156.616 68.4761 157.194 68.4584L157.796 68.4385V68.2265C157.796 67.9306 157.732 67.7253 157.604 67.6104C157.476 67.4956 157.295 67.4382 157.061 67.4382C156.876 67.4382 156.7 67.4669 156.532 67.5243C156.364 67.5773 156.208 67.6391 156.062 67.7098L155.883 67.2726C156.038 67.1887 156.221 67.118 156.433 67.0606C156.644 66.9987 156.865 66.9678 157.095 66.9678ZM157.267 68.8625C156.825 68.8802 156.519 68.9509 156.347 69.0745C156.179 69.1982 156.095 69.3726 156.095 69.5979C156.095 69.7966 156.155 69.9424 156.274 70.0351C156.397 70.1279 156.554 70.1742 156.744 70.1742C157.044 70.1742 157.293 70.0925 157.492 69.9291C157.69 69.7613 157.79 69.5051 157.79 69.1606V68.8427L157.267 68.8625Z" fill="#A3A3A3"/>
<path d="M160.044 67.0275V68.5048H161.97V67.0275H162.552V70.5784H161.97V68.995H160.044V70.5784H159.461V67.0275H160.044Z" fill="#A3A3A3"/>
<path d="M164.225 69.1938C164.225 69.2335 164.223 69.2909 164.218 69.366C164.218 69.4367 164.216 69.514 164.212 69.5979C164.207 69.6774 164.203 69.7547 164.199 69.8298C164.194 69.9004 164.19 69.9578 164.185 70.002L166.085 67.0275H166.8V70.5784H166.257V68.4849C166.257 68.4142 166.257 68.3215 166.257 68.2067C166.262 68.0918 166.266 67.9792 166.27 67.8688C166.275 67.754 166.279 67.6679 166.284 67.6104L164.397 70.5784H163.676V67.0275H164.225V69.1938Z" fill="#A3A3A3"/>
<path d="M170.802 65.5567C170.784 65.7776 170.729 65.9631 170.636 66.1132C170.548 66.2634 170.416 66.376 170.239 66.4511C170.063 66.5262 169.833 66.5637 169.551 66.5637C169.264 66.5637 169.032 66.5262 168.856 66.4511C168.684 66.376 168.558 66.2656 168.478 66.1199C168.399 65.9697 168.35 65.782 168.333 65.5567H168.875C168.898 65.7952 168.959 65.9564 169.061 66.0404C169.167 66.1199 169.334 66.1596 169.564 66.1596C169.767 66.1596 169.926 66.1176 170.04 66.0337C170.16 65.9454 170.23 65.7864 170.252 65.5567H170.802ZM168.478 69.1938C168.478 69.2335 168.476 69.2909 168.472 69.366C168.472 69.4367 168.47 69.514 168.465 69.5979C168.461 69.6774 168.456 69.7547 168.452 69.8298C168.447 69.9004 168.443 69.9578 168.439 70.002L170.338 67.0275H171.053V70.5784H170.51V68.4849C170.51 68.4142 170.51 68.3215 170.51 68.2067C170.515 68.0918 170.519 67.9792 170.524 67.8688C170.528 67.754 170.532 67.6679 170.537 67.6104L168.65 70.5784H167.929V67.0275H168.478V69.1938Z" fill="#A3A3A3"/>
<path d="M173.953 68.0808H173.549L173.516 66.2722H173.986L173.953 68.0808ZM175.145 68.0808H174.741L174.708 66.2722H175.178L175.145 68.0808Z" fill="#A3A3A3"/>
<path d="M178.528 65.782V66.365C179.04 66.3738 179.443 66.4577 179.739 66.6167C180.035 66.7757 180.244 66.9877 180.368 67.2527C180.491 67.5133 180.553 67.8048 180.553 68.1272C180.553 68.3392 180.52 68.5512 180.454 68.7632C180.392 68.9707 180.284 69.1606 180.129 69.3329C179.975 69.5007 179.768 69.6376 179.507 69.7436C179.247 69.8496 178.92 69.907 178.528 69.9159V70.6446H177.939V69.9159C177.537 69.907 177.204 69.8496 176.939 69.7436C176.679 69.6332 176.474 69.4919 176.324 69.3196C176.173 69.143 176.068 68.9509 176.006 68.7433C175.944 68.5357 175.913 68.3303 175.913 68.1272C175.913 67.8931 175.946 67.6723 176.012 67.4647C176.083 67.2527 176.196 67.0672 176.35 66.9082C176.509 66.7448 176.718 66.6145 176.979 66.5173C177.239 66.4202 177.559 66.3694 177.939 66.365V65.782H178.528ZM177.939 66.8685C177.586 66.8773 177.303 66.9347 177.091 67.0407C176.884 67.1467 176.736 67.2924 176.648 67.4779C176.56 67.659 176.515 67.8732 176.515 68.1206C176.515 68.3811 176.564 68.6086 176.661 68.8029C176.763 68.9928 176.917 69.1408 177.124 69.2468C177.336 69.3528 177.608 69.4124 177.939 69.4256V66.8685ZM178.528 69.4256C178.867 69.4124 179.141 69.3506 179.348 69.2401C179.56 69.1297 179.712 68.9796 179.805 68.7897C179.902 68.5953 179.951 68.3723 179.951 68.1206C179.951 67.8688 179.907 67.6524 179.818 67.4713C179.73 67.2858 179.582 67.1423 179.375 67.0407C179.168 66.9347 178.885 66.8773 178.528 66.8685V69.4256Z" fill="#A3A3A3"/>
<path d="M183.563 66.3053C183.311 66.3053 183.084 66.3495 182.881 66.4378C182.678 66.5218 182.506 66.6476 182.365 66.8155C182.224 66.9789 182.116 67.1798 182.04 67.4183C181.965 67.6524 181.928 67.9174 181.928 68.2133C181.928 68.602 181.988 68.9398 182.107 69.2269C182.23 69.514 182.411 69.7348 182.649 69.8894C182.892 70.044 183.194 70.1212 183.556 70.1212C183.764 70.1212 183.96 70.1036 184.145 70.0683C184.331 70.0329 184.512 69.9888 184.688 69.9358V70.4525C184.512 70.5187 184.328 70.5673 184.139 70.5982C183.953 70.6292 183.731 70.6446 183.47 70.6446C182.989 70.6446 182.588 70.5452 182.266 70.3465C181.943 70.1477 181.701 69.8651 181.537 69.4985C181.379 69.1319 181.299 68.7013 181.299 68.2067C181.299 67.8489 181.348 67.5221 181.445 67.2262C181.546 66.9303 181.692 66.6741 181.882 66.4577C182.076 66.2413 182.314 66.0757 182.596 65.9609C182.879 65.8416 183.203 65.782 183.57 65.782C183.812 65.782 184.046 65.8063 184.271 65.8549C184.496 65.9034 184.697 65.9719 184.873 66.0602L184.635 66.5637C184.49 66.4975 184.326 66.4378 184.145 66.3848C183.969 66.3318 183.775 66.3053 183.563 66.3053Z" fill="#A3A3A3"/>
<path d="M189.168 70.5784H188.453L186.315 68.1802V70.5784H185.72V65.8482H186.315V68.1404L188.4 65.8482H189.075L187.024 68.147L189.168 70.5784Z" fill="#A3A3A3"/>
<path d="M191.503 68.0808H191.099L191.066 66.2722H191.536L191.503 68.0808ZM192.694 68.0808H192.291L192.257 66.2722H192.727L192.694 68.0808Z" fill="#A3A3A3"/>
<path d="M193.767 70.5784V65.8482H197.315V70.5784H196.726V66.3716H194.363V70.5784H193.767Z" fill="#A3A3A3"/>
<path d="M201.574 70.5784L201.005 69.1143H199.132L198.569 70.5784H197.967L199.813 65.8284H200.35L202.19 70.5784H201.574ZM200.297 67.1533C200.283 67.118 200.261 67.0539 200.23 66.9612C200.2 66.8685 200.169 66.7735 200.138 66.6763C200.111 66.5748 200.089 66.4975 200.072 66.4445C200.049 66.5328 200.025 66.6233 199.999 66.7161C199.977 66.8044 199.952 66.8861 199.926 66.9612C199.904 67.0363 199.884 67.1003 199.866 67.1533L199.33 68.5843H200.826L200.297 67.1533Z" fill="#A3A3A3"/>
<path d="M204.087 65.8482C204.705 65.8482 205.155 65.9697 205.437 66.2126C205.72 66.4555 205.861 66.7978 205.861 67.2394C205.861 67.4338 205.828 67.6215 205.762 67.8026C205.7 67.9792 205.596 68.1382 205.451 68.2795C205.305 68.4209 205.111 68.5335 204.868 68.6174C204.625 68.6969 204.328 68.7367 203.975 68.7367H203.432V70.5784H202.836V65.8482H204.087ZM204.034 66.3583H203.432V68.2265H203.908C204.208 68.2265 204.458 68.1956 204.656 68.1338C204.855 68.0676 205.003 67.9638 205.1 67.8224C205.197 67.6811 205.245 67.4956 205.245 67.2659C205.245 66.9612 205.148 66.7337 204.954 66.5836C204.76 66.4334 204.453 66.3583 204.034 66.3583Z" fill="#A3A3A3"/>
<path d="M208.34 70.5784H207.744V66.3716H206.268V65.8482H209.809V66.3716H208.34V70.5784Z" fill="#A3A3A3"/>
<path d="M214.136 70.5784H213.54V68.3723H211.118V70.5784H210.522V65.8482H211.118V67.8489H213.54V65.8482H214.136V70.5784Z" fill="#A3A3A3"/>
<path d="M218.069 70.5784H215.428V65.8482H218.069V66.3716H216.024V67.8489H217.95V68.3657H216.024V70.055H218.069V70.5784Z" fill="#A3A3A3"/>
<path d="M220.357 65.8482C220.975 65.8482 221.425 65.9697 221.707 66.2126C221.99 66.4555 222.131 66.7978 222.131 67.2394C222.131 67.4338 222.098 67.6215 222.032 67.8026C221.97 67.9792 221.866 68.1382 221.72 68.2795C221.575 68.4209 221.381 68.5335 221.138 68.6174C220.895 68.6969 220.597 68.7367 220.244 68.7367H219.702V70.5784H219.106V65.8482H220.357ZM220.304 66.3583H219.702V68.2265H220.178C220.478 68.2265 220.728 68.1956 220.926 68.1338C221.125 68.0676 221.273 67.9638 221.37 67.8224C221.467 67.6811 221.515 67.4956 221.515 67.2659C221.515 66.9612 221.418 66.7337 221.224 66.5836C221.03 66.4334 220.723 66.3583 220.304 66.3583Z" fill="#A3A3A3"/>
<path d="M223.306 68.0808H222.902L222.869 66.2722H223.339L223.306 68.0808ZM224.497 68.0808H224.093L224.06 66.2722H224.53L224.497 68.0808Z" fill="#A3A3A3"/>
<path d="M32.7825 2.69663H0V74.9581H32.7825V2.69663Z" fill="#FFD600"/>
<path d="M82.7574 43.0518H36.1193V44.5227H82.7574V43.0518Z" fill="#1D2C38"/>
<path d="M82.5484 49.1445H36.1054V50.6154H82.5484V49.1445Z" fill="#1D2C38"/>
<path d="M82.7574 55.2442H36.1054V56.715H82.7574V55.2442Z" fill="#1D2C38"/>
<path d="M82.7574 61.3437H36.1054V62.8146H82.7574V61.3437Z" fill="#1D2C38"/>
<path d="M82.9733 67.4364H36.1054V68.9073H82.9733V67.4364Z" fill="#1D2C38"/>
<path d="M83.1126 73.5291H36.1054V74.9999H83.1126V73.5291Z" fill="#1D2C38"/>
<path d="M108.323 74.9999H106.86V4.16751H37.5822L37.5752 43.4282H36.1054L36.1123 2.69663L108.323 2.7036V74.9999Z" fill="#1D2C38"/>
<path d="M102.235 74.993H100.765V10.2602H43.6705V43.5328H42.2007V8.78929L102.235 8.79626V74.993Z" fill="#1D2C38"/>
<path d="M96.1392 74.993H94.6764V16.3529H49.7589V43.3934H48.296V14.889H96.1462L96.1392 74.993Z" fill="#1D2C38"/>
<path d="M90.0508 74.993H88.581L88.588 22.4525H55.8473V43.3307H54.3844V20.9816H90.0508V74.993Z" fill="#1D2C38"/>
<path d="M83.9625 75H82.4927V28.5452H61.9426V43.4631H60.4728V27.0743L83.9625 27.0813V75Z" fill="#1D2C38"/>
<path d="M172.351 74.6799H115.274V74.9746H172.351V74.6799Z" fill="#FFD600"/>
<path d="M228.309 74.6799H174.177V74.9746H228.309V74.6799Z" fill="#1D2C38"/>
</svg>
