<svg width="110" height="144" viewBox="0 0 110 144" fill="none" xmlns="http://www.w3.org/2000/svg">
<path d="M7.93257 90.2698C7.16337 90.2698 6.4684 90.4047 5.84765 90.6746C5.2269 90.9309 4.70061 91.3154 4.26879 91.8281C3.83696 92.3273 3.50634 92.9412 3.27693 93.6697C3.04753 94.3848 2.93282 95.1943 2.93282 96.0982C2.93282 97.2854 3.115 98.3176 3.47935 99.1945C3.8572 100.071 4.41048 100.746 5.13919 101.218C5.88139 101.69 6.80577 101.927 7.91232 101.927C8.54657 101.927 9.14708 101.873 9.71385 101.765C10.2806 101.657 10.8339 101.522 11.3737 101.36V102.938C10.8339 103.141 10.2739 103.289 9.69361 103.384C9.12684 103.478 8.44536 103.525 7.64918 103.525C6.17827 103.525 4.95026 103.222 3.96516 102.615C2.98005 102.007 2.23785 101.144 1.73855 100.024C1.25275 98.9044 1.00984 97.589 1.00984 96.0779C1.00984 94.9851 1.15829 93.9868 1.45517 93.0828C1.76554 92.1789 2.21086 91.3964 2.79113 90.7353C3.38489 90.0742 4.1136 89.5683 4.97725 89.2175C5.84091 88.8532 6.83276 88.6711 7.95281 88.6711C8.69501 88.6711 9.41022 88.7453 10.0984 88.8937C10.7867 89.0421 11.4007 89.2512 11.9405 89.521L11.2117 91.0591C10.7664 90.8567 10.2671 90.6746 9.71385 90.5127C9.17407 90.3508 8.58031 90.2698 7.93257 90.2698Z" fill="#1D2C38"/>
<path d="M19.1028 103.323H17.281V90.4722H12.7671V88.8735H23.5965V90.4722H19.1028V103.323Z" fill="#1D2C38"/>
<path d="M29.6015 88.8735C31.4907 88.8735 32.8672 89.2445 33.7308 89.9865C34.5945 90.7285 35.0263 91.7741 35.0263 93.1233C35.0263 93.7169 34.9251 94.2903 34.7227 94.8435C34.5338 95.3831 34.2166 95.8688 33.7713 96.3006C33.326 96.7323 32.7322 97.0763 31.99 97.3327C31.2478 97.5755 30.3369 97.6969 29.2574 97.6969H27.5975V103.323H25.7758V88.8735H29.6015ZM29.4396 90.4317H27.5975V96.1387H29.055C29.9726 96.1387 30.735 96.0442 31.3423 95.8553C31.9495 95.653 32.4016 95.3359 32.6985 94.9042C32.9954 94.4725 33.1438 93.9058 33.1438 93.2042C33.1438 92.2733 32.8469 91.5785 32.2532 91.1198C31.6594 90.6611 30.7215 90.4317 29.4396 90.4317Z" fill="#1D2C38"/>
<path d="M50.6423 96.0779C50.6423 97.1978 50.5006 98.2164 50.2172 99.1338C49.9338 100.038 49.5087 100.82 48.942 101.481C48.3887 102.142 47.6937 102.648 46.8571 102.999C46.0339 103.35 45.0758 103.525 43.9827 103.525C42.8492 103.525 41.8641 103.35 41.0274 102.999C40.1907 102.635 39.4958 102.129 38.9425 101.481C38.3892 100.82 37.9776 100.031 37.7077 99.1136C37.4378 98.1961 37.3029 97.1775 37.3029 96.0577C37.3029 94.5736 37.5458 93.2785 38.0316 92.1721C38.5174 91.0658 39.2529 90.2024 40.238 89.5818C41.2366 88.9611 42.4916 88.6508 44.003 88.6508C45.4469 88.6508 46.6614 88.9611 47.6465 89.5818C48.6316 90.1889 49.3738 91.0523 49.8731 92.1721C50.3859 93.2785 50.6423 94.5804 50.6423 96.0779ZM39.2259 96.0779C39.2259 97.2922 39.3946 98.3378 39.7319 99.2147C40.0693 100.092 40.5888 100.766 41.2905 101.238C42.0058 101.711 42.9031 101.947 43.9827 101.947C45.0758 101.947 45.9664 101.711 46.6546 101.238C47.3564 100.766 47.8759 100.092 48.2133 99.2147C48.5506 98.3378 48.7193 97.2922 48.7193 96.0779C48.7193 94.2566 48.3415 92.8332 47.5858 91.8079C46.8301 90.769 45.6358 90.2496 44.003 90.2496C42.9099 90.2496 42.0058 90.4857 41.2905 90.9579C40.5888 91.4166 40.0693 92.0844 39.7319 92.9614C39.3946 93.8249 39.2259 94.8637 39.2259 96.0779Z" fill="#1D2C38"/>
<path d="M63.7034 84.3808C63.6494 85.0553 63.4807 85.622 63.1973 86.0807C62.9274 86.5394 62.5226 86.8834 61.9828 87.1128C61.443 87.3422 60.7413 87.4568 59.8776 87.4568C59.0005 87.4568 58.292 87.3422 57.7522 87.1128C57.226 86.8834 56.8414 86.5462 56.5985 86.1009C56.3556 85.6422 56.2071 85.0688 56.1531 84.3808H57.813C57.8804 85.1093 58.0694 85.6017 58.3797 85.8581C58.7036 86.1009 59.2164 86.2224 59.9181 86.2224C60.5389 86.2224 61.0247 86.0942 61.3755 85.8378C61.7399 85.568 61.9558 85.0823 62.0233 84.3808H63.7034ZM53.8658 88.8735H55.5661V96.8065C55.5661 97.1438 55.5594 97.5148 55.5459 97.9195C55.5459 98.3108 55.5391 98.7021 55.5256 99.0933C55.5121 99.4846 55.4919 99.8354 55.4649 100.146C55.4514 100.442 55.4379 100.672 55.4244 100.834H55.5054L63.4605 88.8735H65.4846V103.323H63.7843V95.4708C63.7843 95.1066 63.7911 94.7153 63.8046 94.2971C63.8181 93.8653 63.8316 93.4538 63.8451 93.0626C63.872 92.6578 63.8923 92.3003 63.9058 91.99C63.9193 91.6797 63.9328 91.4503 63.9463 91.3019H63.8653L55.89 103.323H53.8658V88.8735Z" fill="#1D2C38"/>
<path d="M12.2846 123.56H10.0984L3.56032 116.234V123.56H1.73855V109.111H3.56032V116.113L9.93651 109.111H12.0012L5.7262 116.133L12.2846 123.56Z" fill="#1D2C38"/>
<path d="M26.4667 116.315C26.4667 117.435 26.325 118.454 26.0416 119.371C25.7582 120.275 25.3331 121.058 24.7664 121.719C24.2131 122.38 23.5181 122.886 22.6815 123.236C21.8583 123.587 20.9002 123.763 19.8071 123.763C18.6736 123.763 17.6885 123.587 16.8518 123.236C16.0151 122.872 15.3202 122.366 14.7669 121.719C14.2136 121.058 13.802 120.268 13.5321 119.351C13.2622 118.433 13.1273 117.415 13.1273 116.295C13.1273 114.811 13.3702 113.516 13.856 112.409C14.3418 111.303 15.0773 110.44 16.0624 109.819C17.061 109.198 18.316 108.888 19.8274 108.888C21.2713 108.888 22.4858 109.198 23.4709 109.819C24.456 110.426 25.1982 111.29 25.6975 112.409C26.2103 113.516 26.4667 114.818 26.4667 116.315ZM15.0503 116.315C15.0503 117.53 15.219 118.575 15.5563 119.452C15.8937 120.329 16.4132 121.004 17.1149 121.476C17.8302 121.948 18.7275 122.184 19.8071 122.184C20.9002 122.184 21.7908 121.948 22.479 121.476C23.1808 121.004 23.7003 120.329 24.0377 119.452C24.375 118.575 24.5437 117.53 24.5437 116.315C24.5437 114.494 24.1659 113.071 23.4102 112.045C22.6545 111.006 21.4602 110.487 19.8274 110.487C18.7343 110.487 17.8302 110.723 17.1149 111.195C16.4132 111.654 15.8937 112.322 15.5563 113.199C15.219 114.062 15.0503 115.101 15.0503 116.315Z" fill="#1D2C38"/>
<path d="M36.0462 123.56L31.2893 110.892H31.2083C31.2353 111.162 31.2556 111.506 31.2691 111.924C31.2961 112.342 31.3163 112.801 31.3298 113.3C31.3433 113.786 31.35 114.285 31.35 114.798V123.56H29.67V109.111H32.3621L36.8153 120.95H36.8963L41.4305 109.111H44.1024V123.56H42.3009V114.676C42.3009 114.204 42.3076 113.738 42.3211 113.28C42.3346 112.807 42.3549 112.369 42.3819 111.964C42.4089 111.546 42.4291 111.195 42.4426 110.912H42.3616L37.5441 123.56H36.0462Z" fill="#1D2C38"/>
<path d="M48.0339 123.56V109.111H58.8836V123.56H57.0821V110.71H49.8557V123.56H48.0339Z" fill="#1D2C38"/>
<path d="M73.2441 123.56H71.4223V110.71H66.8476C66.7532 111.452 66.652 112.234 66.544 113.057C66.4361 113.867 66.3214 114.669 66.1999 115.465C66.0919 116.261 65.984 117.01 65.876 117.712C65.7681 118.413 65.6601 119.027 65.5522 119.553C65.3767 120.457 65.1608 121.226 64.9044 121.86C64.648 122.494 64.3039 122.973 63.8721 123.297C63.4538 123.621 62.9005 123.783 62.2123 123.783C61.9828 123.783 61.7467 123.756 61.5038 123.702C61.2744 123.661 61.072 123.607 60.8965 123.54V122.022C61.045 122.09 61.2137 122.15 61.4026 122.204C61.5915 122.245 61.7939 122.265 62.0098 122.265C62.4147 122.265 62.7318 122.103 62.9612 121.779C63.2041 121.442 63.393 121.031 63.528 120.545C63.6629 120.046 63.7776 119.553 63.8721 119.068C63.9531 118.676 64.0475 118.157 64.1555 117.509C64.2634 116.848 64.3781 116.079 64.4996 115.202C64.6345 114.325 64.7695 113.374 64.9044 112.349C65.0529 111.31 65.1946 110.231 65.3295 109.111H73.2441V123.56Z" fill="#1D2C38"/>
<path d="M85.2477 123.56H77.1712V109.111H85.2477V110.71H78.9929V115.222H84.8833V116.801H78.9929V121.962H85.2477V123.56Z" fill="#1D2C38"/>
<path d="M98.9649 123.56H96.7787L90.2406 116.234V123.56H88.4188V109.111H90.2406V116.113L96.6168 109.111H98.6815L92.4065 116.133L98.9649 123.56Z" fill="#1D2C38"/>
<path d="M105.506 123.56H103.685V110.71H99.1706V109.111H110V110.71H105.506V123.56Z" fill="#1D2C38"/>
<path d="M1.73855 143.798V129.348H12.5882V143.798H10.7867V130.947H3.56032V143.798H1.73855Z" fill="#1D2C38"/>
<path d="M29.1551 136.553C29.1551 137.672 29.0134 138.691 28.73 139.608C28.4466 140.512 28.0215 141.295 27.4547 141.956C26.9015 142.617 26.2065 143.123 25.3698 143.474C24.5467 143.825 23.5885 144 22.4955 144C21.3619 144 20.3768 143.825 19.5402 143.474C18.7035 143.11 18.0085 142.604 17.4553 141.956C16.902 141.295 16.4904 140.506 16.2205 139.588C15.9506 138.671 15.8157 137.652 15.8157 136.532C15.8157 135.048 16.0586 133.753 16.5444 132.647C17.0302 131.541 17.7656 130.677 18.7507 130.056C19.7493 129.436 21.0043 129.126 22.5157 129.126C23.9596 129.126 25.1742 129.436 26.1593 130.056C27.1444 130.664 27.8866 131.527 28.3859 132.647C28.8987 133.753 29.1551 135.055 29.1551 136.553ZM17.7386 136.553C17.7386 137.767 17.9073 138.812 18.2447 139.689C18.5821 140.566 19.1016 141.241 19.8033 141.713C20.5185 142.185 21.4159 142.421 22.4955 142.421C23.5885 142.421 24.4792 142.185 25.1674 141.713C25.8691 141.241 26.3887 140.566 26.726 139.689C27.0634 138.812 27.2321 137.767 27.2321 136.553C27.2321 134.731 26.8542 133.308 26.0985 132.283C25.3428 131.244 24.1486 130.724 22.5157 130.724C21.4227 130.724 20.5185 130.96 19.8033 131.433C19.1016 131.891 18.5821 132.559 18.2447 133.436C17.9073 134.3 17.7386 135.338 17.7386 136.553Z" fill="#1D2C38"/>
<path d="M38.5524 130.745C37.7832 130.745 37.0882 130.879 36.4674 131.149C35.8467 131.406 35.3204 131.79 34.8886 132.303C34.4567 132.802 34.1261 133.416 33.8967 134.144C33.6673 134.859 33.5526 135.669 33.5526 136.573C33.5526 137.76 33.7348 138.792 34.0991 139.669C34.477 140.546 35.0303 141.221 35.759 141.693C36.5012 142.165 37.4256 142.401 38.5321 142.401C39.1664 142.401 39.7669 142.347 40.3336 142.239C40.9004 142.131 41.4537 141.997 41.9935 141.835V143.413C41.4537 143.615 40.8937 143.764 40.3134 143.858C39.7466 143.953 39.0651 144 38.269 144C36.7981 144 35.57 143.696 34.5849 143.089C33.5998 142.482 32.8576 141.619 32.3583 140.499C31.8725 139.379 31.6296 138.064 31.6296 136.553C31.6296 135.46 31.7781 134.461 32.075 133.558C32.3853 132.654 32.8307 131.871 33.4109 131.21C34.0047 130.549 34.7334 130.043 35.597 129.692C36.4607 129.328 37.4525 129.146 38.5726 129.146C39.3148 129.146 40.03 129.22 40.7182 129.368C41.4065 129.517 42.0205 129.726 42.5602 129.996L41.8315 131.534C41.3862 131.331 40.8869 131.149 40.3336 130.987C39.7939 130.825 39.2001 130.745 38.5524 130.745Z" fill="#1D2C38"/>
<path d="M49.7225 143.798H47.9008V130.947H43.3868V129.348H54.2162V130.947H49.7225V143.798Z" fill="#1D2C38"/>
<path d="M64.0407 143.798L62.2999 139.325H56.5714L54.8509 143.798H53.0088L58.6563 129.287H60.2959L65.9232 143.798H64.0407ZM60.134 133.335C60.0935 133.227 60.026 133.031 59.9316 132.748C59.8371 132.465 59.7426 132.175 59.6482 131.878C59.5672 131.568 59.4997 131.331 59.4458 131.17C59.3783 131.439 59.3041 131.716 59.2231 131.999C59.1556 132.269 59.0814 132.519 59.0004 132.748C58.933 132.977 58.8722 133.173 58.8183 133.335L57.1787 137.706H61.7533L60.134 133.335Z" fill="#1D2C38"/>
<path d="M72.0296 129.348C73.2306 129.348 74.2359 129.463 75.0456 129.692C75.8688 129.922 76.4828 130.299 76.8876 130.825C77.3059 131.352 77.5151 132.053 77.5151 132.93C77.5151 133.497 77.4072 134.003 77.1912 134.448C76.9888 134.88 76.6784 135.244 76.2601 135.541C75.8553 135.824 75.356 136.02 74.7622 136.128V136.229C75.3695 136.323 75.916 136.499 76.4018 136.755C76.9011 137.011 77.2924 137.376 77.5758 137.848C77.8592 138.32 78.0009 138.934 78.0009 139.689C78.0009 140.566 77.7985 141.315 77.3937 141.936C76.9888 142.543 76.4086 143.008 75.6529 143.332C74.9107 143.642 74.02 143.798 72.9809 143.798H67.9002V129.348H72.0296ZM72.3939 135.5C73.6354 135.5 74.4856 135.305 74.9444 134.913C75.4032 134.509 75.6326 133.915 75.6326 133.133C75.6326 132.337 75.3492 131.77 74.7825 131.433C74.2292 131.082 73.3385 130.906 72.1105 130.906H69.722V135.5H72.3939ZM69.722 137.018V142.26H72.6368C73.9188 142.26 74.8095 142.01 75.3088 141.511C75.8081 141.012 76.0577 140.357 76.0577 139.548C76.0577 139.035 75.943 138.59 75.7136 138.212C75.4977 137.834 75.1266 137.544 74.6003 137.342C74.0875 137.126 73.3858 137.018 72.4951 137.018H69.722Z" fill="#1D2C38"/>
<path d="M91.6114 143.798H89.4252L82.8871 136.472V143.798H81.0654V129.348H82.8871V136.35L89.2633 129.348H91.328L85.053 136.371L91.6114 143.798Z" fill="#1D2C38"/>
<path d="M102.647 143.798L100.906 139.325H95.1773L93.4567 143.798H91.6147L97.2622 129.287H98.9018L104.529 143.798H102.647ZM98.7398 133.335C98.6993 133.227 98.6319 133.031 98.5374 132.748C98.4429 132.465 98.3485 132.175 98.254 131.878C98.173 131.568 98.1056 131.331 98.0516 131.17C97.9841 131.439 97.9099 131.716 97.8289 131.999C97.7615 132.269 97.6872 132.519 97.6063 132.748C97.5388 132.977 97.4781 133.173 97.4241 133.335L95.7845 137.706H100.359L98.7398 133.335Z" fill="#1D2C38"/>
<path d="M31.2933 0H0V68.9036H31.2933V0Z" fill="#FFC81A"/>
<path d="M78.998 38.4799H34.4785V39.8825H78.998V38.4799Z" fill="#1D2C38"/>
<path d="M78.7985 44.2895H34.4652V45.692H78.7985V44.2895Z" fill="#1D2C38"/>
<path d="M78.998 50.1057H34.4652V51.5082H78.998V50.1057Z" fill="#1D2C38"/>
<path d="M78.998 55.9219H34.4652V57.3244H78.998V55.9219Z" fill="#1D2C38"/>
<path d="M79.2041 61.7314H34.4652V63.134H79.2041V61.7314Z" fill="#1D2C38"/>
<path d="M79.3371 67.541H34.4652V68.9435H79.3371V67.541Z" fill="#1D2C38"/>
<path d="M103.402 68.9435H102.006V1.40253H35.8749L35.8683 38.8389H34.4652L34.4718 0L103.402 0.00664708V68.9435Z" fill="#1D2C38"/>
<path d="M97.5904 68.9369H96.1873V7.21208H41.6867V38.9386H40.2836V5.80955L97.5904 5.8162V68.9369Z" fill="#1D2C38"/>
<path d="M91.772 68.9369H90.3756V13.0216H47.4985V38.8057H46.1021V11.6257H91.7786L91.772 68.9369Z" fill="#1D2C38"/>
<path d="M85.9602 68.9369H84.5571L84.5637 18.8378H53.3103V38.7458H51.9139V17.4353H85.9602V68.9369Z" fill="#1D2C38"/>
<path d="M80.1484 68.9435H78.7453V24.6474H59.1288V38.8721H57.7257V23.2448L80.1484 23.2515V68.9435Z" fill="#1D2C38"/>
<path d="M52.2353 82.1299H0V82.411H52.2353V82.1299Z" fill="#FFC81A"/>
<path d="M103.402 82.1299H53.9221V82.411H103.402V82.1299Z" fill="#1D2C38"/>
<path d="M3.03628 74.0849V74.5706H1.13557V78.4197H0.589038V74.0849H3.03628Z" fill="#A3A3A3"/>
<path d="M4.94677 75.1049C5.34756 75.1049 5.6694 75.2445 5.9123 75.5238C6.15925 75.803 6.28273 76.224 6.28273 76.7866C6.28273 77.1549 6.22605 77.4666 6.1127 77.7215C6.00339 77.9725 5.84753 78.1627 5.64511 78.2922C5.44674 78.4177 5.21193 78.4804 4.94069 78.4804C4.77471 78.4804 4.62694 78.4582 4.4974 78.4137C4.36785 78.3691 4.25652 78.3125 4.16341 78.2437C4.07434 78.1708 3.99742 78.0919 3.93265 78.0069H3.89621C3.90431 78.0757 3.91241 78.1627 3.9205 78.268C3.9286 78.3732 3.93265 78.4643 3.93265 78.5412V79.8768H3.39826V75.1656H3.83549L3.90836 75.6088H3.93265C3.99742 75.5157 4.07434 75.4307 4.16341 75.3538C4.25652 75.2769 4.36582 75.2162 4.49132 75.1716C4.62087 75.1271 4.77269 75.1049 4.94677 75.1049ZM4.84961 75.5541C4.63099 75.5541 4.45489 75.5966 4.32129 75.6816C4.1877 75.7626 4.09053 75.886 4.02981 76.052C3.96908 76.2179 3.9367 76.4284 3.93265 76.6834V76.7866C3.93265 77.0537 3.96099 77.2804 4.01766 77.4666C4.07434 77.6527 4.16948 77.7944 4.30307 77.8915C4.44072 77.9887 4.62694 78.0373 4.86175 78.0373C5.06012 78.0373 5.22206 77.9826 5.34756 77.8733C5.4771 77.764 5.57224 77.6163 5.63297 77.4301C5.69774 77.2399 5.73013 77.0234 5.73013 76.7805C5.73013 76.4081 5.65726 76.1107 5.51151 75.888C5.36982 75.6654 5.14918 75.5541 4.84961 75.5541Z" fill="#A3A3A3"/>
<path d="M6.56491 75.1656H7.13574L7.84015 77.0173C7.88064 77.1266 7.91707 77.2318 7.94946 77.333C7.98589 77.4342 8.01828 77.5333 8.04662 77.6305C8.07496 77.7236 8.09722 77.8146 8.11342 77.9037H8.13771C8.162 77.8025 8.20046 77.671 8.25309 77.5091C8.30572 77.3431 8.36037 77.1772 8.41705 77.0112L9.07896 75.1656H9.65585L8.25309 78.869C8.17617 79.0714 8.08508 79.2475 7.97982 79.3972C7.87861 79.551 7.75311 79.6684 7.60332 79.7493C7.45758 79.8343 7.27945 79.8768 7.06894 79.8768C6.97178 79.8768 6.88676 79.8708 6.81389 79.8586C6.74102 79.8505 6.67827 79.8404 6.62564 79.8283V79.4033C6.67017 79.4114 6.7228 79.4195 6.78353 79.4276C6.8483 79.4357 6.9151 79.4397 6.98392 79.4397C7.10942 79.4397 7.2167 79.4154 7.30577 79.3668C7.39888 79.3223 7.47782 79.2555 7.5426 79.1665C7.60737 79.0815 7.66202 78.9803 7.70656 78.8629L7.87659 78.4319L6.56491 75.1656Z" fill="#A3A3A3"/>
<path d="M12.9215 75.1656V78.4197H12.3871V75.6209H10.705V78.4197H10.1706V75.1656H12.9215Z" fill="#A3A3A3"/>
<path d="M16.7109 75.1656V78.4197H16.1765V75.6209H14.4944V78.4197H13.96V75.1656H16.7109Z" fill="#A3A3A3"/>
<path d="M18.9822 75.1109C19.3789 75.1109 19.6724 75.1979 19.8627 75.372C20.053 75.546 20.1481 75.8233 20.1481 76.2037V78.4197H19.7595L19.6562 77.9583H19.6319C19.5388 78.0757 19.4417 78.1749 19.3404 78.2558C19.2433 78.3327 19.1299 78.3894 19.0004 78.4258C18.8749 78.4622 18.721 78.4804 18.5389 78.4804C18.3445 78.4804 18.1684 78.446 18.0106 78.3772C17.8567 78.3084 17.7353 78.2032 17.6462 78.0615C17.5571 77.9158 17.5126 77.7337 17.5126 77.5151C17.5126 77.1913 17.6401 76.9424 17.8952 76.7684C18.1502 76.5903 18.5429 76.4931 19.0733 76.477L19.6259 76.4587V76.2645C19.6259 75.9933 19.5672 75.8051 19.4498 75.6998C19.3323 75.5946 19.1664 75.542 18.9518 75.542C18.7818 75.542 18.6198 75.5683 18.466 75.6209C18.3122 75.6695 18.1684 75.7261 18.0348 75.7909L17.8709 75.3902C18.0126 75.3133 18.1806 75.2485 18.3749 75.1959C18.5692 75.1393 18.7717 75.1109 18.9822 75.1109ZM19.1401 76.8473C18.7352 76.8635 18.4539 76.9282 18.296 77.0416C18.1421 77.1549 18.0652 77.3148 18.0652 77.5212C18.0652 77.7033 18.1199 77.8369 18.2292 77.9219C18.3425 78.0069 18.4862 78.0494 18.6603 78.0494C18.9356 78.0494 19.1643 77.9745 19.3465 77.8248C19.5287 77.671 19.6198 77.4362 19.6198 77.1205V76.8291L19.1401 76.8473Z" fill="#A3A3A3"/>
<path d="M24.4542 75.1656H25.0372L23.6466 76.7319L25.1526 78.4197H24.5332L23.0636 76.7684V78.4197H22.5292V75.1656H23.0636V76.7441L24.4542 75.1656Z" fill="#A3A3A3"/>
<path d="M28.4546 76.7866C28.4546 77.0578 28.4182 77.2986 28.3453 77.5091C28.2765 77.7155 28.1753 77.8915 28.0417 78.0373C27.9121 78.183 27.7522 78.2943 27.5619 78.3712C27.3757 78.444 27.1672 78.4804 26.9365 78.4804C26.7219 78.4804 26.5235 78.444 26.3414 78.3712C26.1592 78.2943 26.0013 78.183 25.8677 78.0373C25.7341 77.8915 25.6288 77.7155 25.5519 77.5091C25.479 77.2986 25.4426 77.0578 25.4426 76.7866C25.4426 76.4264 25.5033 76.1228 25.6248 75.8759C25.7462 75.625 25.9203 75.4347 26.147 75.3052C26.3737 75.1716 26.643 75.1049 26.9547 75.1049C27.2502 75.1049 27.5093 75.1716 27.732 75.3052C27.9587 75.4347 28.1348 75.625 28.2603 75.8759C28.3898 76.1228 28.4546 76.4264 28.4546 76.7866ZM25.9952 76.7866C25.9952 77.0416 26.0276 77.2642 26.0924 77.4544C26.1612 77.6406 26.2665 77.7843 26.4081 77.8855C26.5498 77.9867 26.73 78.0373 26.9486 78.0373C27.1672 78.0373 27.3474 77.9867 27.4891 77.8855C27.6308 77.7843 27.734 77.6406 27.7988 77.4544C27.8676 77.2642 27.902 77.0416 27.902 76.7866C27.902 76.5275 27.8676 76.307 27.7988 76.1248C27.7299 75.9427 27.6247 75.803 27.483 75.7059C27.3453 75.6047 27.1652 75.5541 26.9425 75.5541C26.6106 75.5541 26.3697 75.6634 26.2199 75.882C26.0701 76.1005 25.9952 76.4021 25.9952 76.7866Z" fill="#A3A3A3"/>
<path d="M32.7933 75.1656V78.4197H32.3135V76.3434C32.3135 76.2584 32.3156 76.1693 32.3196 76.0763C32.3277 75.9832 32.3358 75.8921 32.3439 75.803H32.3257L31.263 78.4197H30.8136L29.7813 75.803H29.7631C29.7711 75.8921 29.7752 75.9832 29.7752 76.0763C29.7792 76.1693 29.7813 76.2645 29.7813 76.3616V78.4197H29.3015V75.1656H30.012L31.0383 77.7823L32.0828 75.1656H32.7933Z" fill="#A3A3A3"/>
<path d="M36.5831 75.1656V78.4197H36.0487V75.6209H34.3666V78.4197H33.8322V75.1656H36.5831Z" fill="#A3A3A3"/>
<path d="M38.8544 75.1109C39.2511 75.1109 39.5446 75.1979 39.7349 75.372C39.9252 75.546 40.0203 75.8233 40.0203 76.2037V78.4197H39.6317L39.5284 77.9583H39.5042C39.411 78.0757 39.3139 78.1749 39.2127 78.2558C39.1155 78.3327 39.0022 78.3894 38.8726 78.4258C38.7471 78.4622 38.5933 78.4804 38.4111 78.4804C38.2168 78.4804 38.0407 78.446 37.8828 78.3772C37.7289 78.3084 37.6075 78.2032 37.5184 78.0615C37.4294 77.9158 37.3848 77.7337 37.3848 77.5151C37.3848 77.1913 37.5123 76.9424 37.7674 76.7684C38.0224 76.5903 38.4151 76.4931 38.9455 76.477L39.4981 76.4587V76.2645C39.4981 75.9933 39.4394 75.8051 39.322 75.6998C39.2046 75.5946 39.0386 75.542 38.824 75.542C38.654 75.542 38.4921 75.5683 38.3382 75.6209C38.1844 75.6695 38.0407 75.7261 37.9071 75.7909L37.7431 75.3902C37.8848 75.3133 38.0528 75.2485 38.2471 75.1959C38.4415 75.1393 38.6439 75.1109 38.8544 75.1109ZM39.0123 76.8473C38.6074 76.8635 38.3261 76.9282 38.1682 77.0416C38.0144 77.1549 37.9374 77.3148 37.9374 77.5212C37.9374 77.7033 37.9921 77.8369 38.1014 77.9219C38.2147 78.0069 38.3585 78.0494 38.5325 78.0494C38.8078 78.0494 39.0366 77.9745 39.2187 77.8248C39.4009 77.671 39.492 77.4362 39.492 77.1205V76.8291L39.0123 76.8473Z" fill="#A3A3A3"/>
<path d="M41.56 75.1656V76.5195H43.3271V75.1656H43.8615V78.4197H43.3271V76.9687H41.56V78.4197H41.0256V75.1656H41.56Z" fill="#A3A3A3"/>
<path d="M45.3961 77.1509C45.3961 77.1873 45.3941 77.2399 45.3901 77.3087C45.3901 77.3735 45.3881 77.4443 45.384 77.5212C45.38 77.5941 45.3759 77.6649 45.3719 77.7337C45.3678 77.7985 45.3638 77.8511 45.3597 77.8915L47.1025 75.1656H47.7584V78.4197H47.2604V76.5012C47.2604 76.4365 47.2604 76.3515 47.2604 76.2462C47.2645 76.141 47.2685 76.0378 47.2726 75.9366C47.2766 75.8314 47.2807 75.7524 47.2847 75.6998L45.554 78.4197H44.8921V75.1656H45.3961V77.1509Z" fill="#A3A3A3"/>
<path d="M51.4297 73.8178C51.4135 74.0201 51.3629 74.1901 51.2779 74.3277C51.1969 74.4654 51.0755 74.5686 50.9135 74.6374C50.7516 74.7062 50.5411 74.7406 50.282 74.7406C50.0189 74.7406 49.8063 74.7062 49.6444 74.6374C49.4865 74.5686 49.3711 74.4674 49.2982 74.3338C49.2254 74.1962 49.1808 74.0242 49.1646 73.8178H49.6626C49.6828 74.0363 49.7395 74.1841 49.8326 74.261C49.9298 74.3338 50.0836 74.3702 50.2941 74.3702C50.4804 74.3702 50.6261 74.3318 50.7314 74.2549C50.8407 74.1739 50.9054 74.0282 50.9257 73.8178H51.4297ZM49.2982 77.1509C49.2982 77.1873 49.2962 77.2399 49.2922 77.3087C49.2922 77.3735 49.2901 77.4443 49.2861 77.5212C49.2821 77.5941 49.278 77.6649 49.274 77.7337C49.2699 77.7985 49.2659 77.8511 49.2618 77.8915L51.0046 75.1656H51.6605V78.4197H51.1625V76.5012C51.1625 76.4365 51.1625 76.3515 51.1625 76.2462C51.1666 76.141 51.1706 76.0378 51.1747 75.9366C51.1787 75.8314 51.1828 75.7524 51.1868 75.6998L49.4561 78.4197H48.7942V75.1656H49.2982V77.1509Z" fill="#A3A3A3"/>
<path d="M54.3211 76.1309H53.9507L53.9203 74.4735H54.3515L54.3211 76.1309ZM55.4142 76.1309H55.0437L55.0134 74.4735H55.4445L55.4142 76.1309Z" fill="#A3A3A3"/>
<path d="M58.5178 74.0242V74.5584C58.9874 74.5665 59.3579 74.6434 59.6291 74.7892C59.9003 74.9349 60.0926 75.1291 60.206 75.372C60.3193 75.6108 60.376 75.8779 60.376 76.1734C60.376 76.3677 60.3457 76.5619 60.2849 76.7562C60.2283 76.9465 60.1291 77.1205 59.9874 77.2784C59.8457 77.4322 59.6554 77.5576 59.4166 77.6548C59.1777 77.7519 58.8781 77.8045 58.5178 77.8126V78.4804H57.9774V77.8126C57.609 77.8045 57.3033 77.7519 57.0604 77.6548C56.8215 77.5536 56.6333 77.4241 56.4957 77.2662C56.358 77.1043 56.2608 76.9282 56.2042 76.738C56.1475 76.5478 56.1192 76.3596 56.1192 76.1734C56.1192 75.9589 56.1495 75.7565 56.2102 75.5663C56.275 75.372 56.3783 75.202 56.5199 75.0563C56.6657 74.9065 56.858 74.7871 57.0968 74.6981C57.3357 74.609 57.6292 74.5625 57.9774 74.5584V74.0242H58.5178ZM57.9774 75.0199C57.6535 75.028 57.3944 75.0806 57.2001 75.1777C57.0098 75.2749 56.8742 75.4084 56.7932 75.5784C56.7122 75.7444 56.6718 75.9407 56.6718 76.1673C56.6718 76.4061 56.7163 76.6146 56.8054 76.7927C56.8985 76.9667 57.0402 77.1023 57.2304 77.1994C57.4248 77.2966 57.6737 77.3512 57.9774 77.3633V75.0199ZM58.5178 77.3633C58.8295 77.3512 59.0805 77.2945 59.2708 77.1934C59.4651 77.0922 59.6048 76.9546 59.6898 76.7805C59.7789 76.6024 59.8234 76.398 59.8234 76.1673C59.8234 75.9366 59.7829 75.7383 59.702 75.5723C59.621 75.4024 59.4854 75.2708 59.2951 75.1777C59.1048 75.0806 58.8457 75.028 58.5178 75.0199V77.3633Z" fill="#A3A3A3"/>
<path d="M63.1373 74.5038C62.9065 74.5038 62.698 74.5443 62.5118 74.6252C62.3256 74.7021 62.1677 74.8175 62.0381 74.9713C61.9086 75.121 61.8094 75.3052 61.7406 75.5238C61.6718 75.7383 61.6374 75.9811 61.6374 76.2523C61.6374 76.6085 61.692 76.9181 61.8013 77.1812C61.9147 77.4443 62.0807 77.6467 62.2993 77.7883C62.5219 77.93 62.7992 78.0008 63.1312 78.0008C63.3215 78.0008 63.5016 77.9846 63.6717 77.9523C63.8417 77.9199 64.0077 77.8794 64.1696 77.8308V78.3044C64.0077 78.3651 63.8397 78.4096 63.6656 78.438C63.4956 78.4663 63.2911 78.4804 63.0523 78.4804C62.611 78.4804 62.2426 78.3894 61.9471 78.2072C61.6515 78.0251 61.4289 77.7661 61.2791 77.4301C61.1333 77.0942 61.0605 76.6996 61.0605 76.2462C61.0605 75.9184 61.105 75.6189 61.1941 75.3477C61.2872 75.0765 61.4208 74.8418 61.5949 74.6434C61.773 74.4451 61.9916 74.2933 62.2507 74.1881C62.5098 74.0788 62.8073 74.0242 63.1434 74.0242C63.366 74.0242 63.5806 74.0464 63.787 74.091C63.9935 74.1355 64.1777 74.1982 64.3396 74.2792L64.121 74.7406C63.9874 74.6799 63.8377 74.6252 63.6717 74.5767C63.5097 74.5281 63.3316 74.5038 63.1373 74.5038Z" fill="#A3A3A3"/>
<path d="M68.2797 78.4197H67.6239L65.6625 76.222V78.4197H65.1159V74.0849H65.6625V76.1855L67.5753 74.0849H68.1947L66.3122 76.1916L68.2797 78.4197Z" fill="#A3A3A3"/>
<path d="M70.4217 76.1309H70.0513L70.0209 74.4735H70.4521L70.4217 76.1309ZM71.5148 76.1309H71.1443L71.114 74.4735H71.5451L71.5148 76.1309Z" fill="#A3A3A3"/>
<path d="M72.4991 78.4197V74.0849H75.754V78.4197H75.2135V74.5645H73.0456V78.4197H72.4991Z" fill="#A3A3A3"/>
<path d="M79.6613 78.4197L79.1391 77.078H77.4206L76.9044 78.4197H76.3518L78.046 74.0667H78.5379L80.2261 78.4197H79.6613ZM78.4893 75.2809C78.4772 75.2485 78.4569 75.1899 78.4286 75.1049C78.4003 75.0199 78.3719 74.9328 78.3436 74.8438C78.3193 74.7507 78.2991 74.6799 78.2829 74.6313C78.2626 74.7123 78.2404 74.7952 78.2161 74.8802C78.1958 74.9612 78.1736 75.036 78.1493 75.1049C78.129 75.1737 78.1108 75.2324 78.0946 75.2809L77.6027 76.5923H78.9751L78.4893 75.2809Z" fill="#A3A3A3"/>
<path d="M81.9669 74.0849C82.5337 74.0849 82.9466 74.1962 83.2057 74.4188C83.4648 74.6414 83.5944 74.9551 83.5944 75.3598C83.5944 75.5379 83.564 75.71 83.5033 75.8759C83.4466 76.0378 83.3515 76.1835 83.2179 76.313C83.0843 76.4426 82.9061 76.5458 82.6835 76.6227C82.4608 76.6955 82.1876 76.7319 81.8637 76.7319H81.3657V78.4197H80.8192V74.0849H81.9669ZM81.9183 74.5524H81.3657V76.2645H81.803C82.0783 76.2645 82.307 76.2361 82.4892 76.1795C82.6713 76.1187 82.807 76.0236 82.896 75.8941C82.9851 75.7646 83.0296 75.5946 83.0296 75.3841C83.0296 75.1049 82.9406 74.8964 82.7624 74.7588C82.5843 74.6212 82.3029 74.5524 81.9183 74.5524Z" fill="#A3A3A3"/>
<path d="M85.8684 78.4197H85.3218V74.5645H83.9676V74.0849H87.2165V74.5645H85.8684V78.4197Z" fill="#A3A3A3"/>
<path d="M91.1859 78.4197H90.6393V76.398H88.4168V78.4197H87.8703V74.0849H88.4168V75.9184H90.6393V74.0849H91.1859V78.4197Z" fill="#A3A3A3"/>
<path d="M94.7943 78.4197H92.3713V74.0849H94.7943V74.5645H92.9178V75.9184H94.685V76.392H92.9178V77.9401H94.7943V78.4197Z" fill="#A3A3A3"/>
<path d="M96.8933 74.0849C97.4601 74.0849 97.873 74.1962 98.1321 74.4188C98.3912 74.6414 98.5208 74.9551 98.5208 75.3598C98.5208 75.5379 98.4904 75.71 98.4297 75.8759C98.373 76.0378 98.2779 76.1835 98.1443 76.313C98.0107 76.4426 97.8326 76.5458 97.6099 76.6227C97.3872 76.6955 97.114 76.7319 96.7901 76.7319H96.2921V78.4197H95.7456V74.0849H96.8933ZM96.8447 74.5524H96.2921V76.2645H96.7294C97.0047 76.2645 97.2334 76.2361 97.4156 76.1795C97.5977 76.1187 97.7334 76.0236 97.8224 75.8941C97.9115 75.7646 97.956 75.5946 97.956 75.3841C97.956 75.1049 97.867 74.8964 97.6888 74.7588C97.5107 74.6212 97.2293 74.5524 96.8447 74.5524Z" fill="#A3A3A3"/>
<path d="M99.5985 76.1309H99.228L99.1977 74.4735H99.6288L99.5985 76.1309ZM100.692 76.1309H100.321L100.291 74.4735H100.722L100.692 76.1309Z" fill="#A3A3A3"/>
</svg>
