<svg width="45" height="55" viewBox="0 0 45 55" fill="none" xmlns="http://www.w3.org/2000/svg">
<path d="M22.0935 2C16.7663 2.00614 11.6591 4.07763 7.89219 7.76005C4.1253 11.4425 2.00631 16.4351 2.00002 21.6429C1.99364 25.8986 3.41566 30.0389 6.04794 33.4286C6.04794 33.4286 6.59594 34.1339 6.68545 34.2357L22.0935 52L37.5088 34.2268C37.5892 34.1321 38.139 33.4286 38.139 33.4286L38.1408 33.4232C40.7718 30.035 42.1931 25.8967 42.1869 21.6429C42.1806 16.4351 40.0616 11.4425 36.2947 7.76005C32.5278 4.07763 27.4206 2.00614 22.0935 2V2ZM22.0935 28.7857C20.6483 28.7857 19.2357 28.3668 18.0341 27.5819C16.8325 26.7971 15.896 25.6815 15.3429 24.3763C14.7899 23.0711 14.6452 21.6349 14.9272 20.2494C15.2091 18.8638 15.905 17.591 16.9268 16.5921C17.9487 15.5931 19.2506 14.9129 20.668 14.6372C22.0854 14.3616 23.5545 14.5031 24.8896 15.0437C26.2247 15.5843 27.3659 16.4999 28.1688 17.6745C28.9716 18.8491 29.4002 20.2301 29.4002 21.6429C29.3977 23.5365 28.6272 25.352 27.2574 26.691C25.8877 28.03 24.0306 28.7834 22.0935 28.7857V28.7857Z" stroke="#60B1DE" stroke-width="3.73832"/>
</svg>
