<svg width="58" height="43" viewBox="0 0 58 43" fill="none" xmlns="http://www.w3.org/2000/svg">
<path fill-rule="evenodd" clip-rule="evenodd" d="M4.22917 0C3.10752 0 2.03182 0.453035 1.23869 1.25944C0.445572 2.06585 0 3.15957 0 4.3L0 38.7C0 41.0736 1.89467 43 4.22917 43H53.7708C54.8925 43 55.9682 42.547 56.7613 41.7406C57.5544 40.9342 58 39.8404 58 38.7V4.3C58 3.15957 57.5544 2.06585 56.7613 1.25944C55.9682 0.453035 54.8925 0 53.7708 0H4.22917ZM3.625 4.3C3.625 4.13708 3.68865 3.98083 3.80196 3.86563C3.91526 3.75043 4.06893 3.68571 4.22917 3.68571H53.7708C53.9311 3.68571 54.0847 3.75043 54.198 3.86563C54.3113 3.98083 54.375 4.13708 54.375 4.3V6.39349L29.3383 23.5935C29.2384 23.6621 29.1206 23.6988 29 23.6988C28.8794 23.6988 28.7616 23.6621 28.6617 23.5935L3.625 6.39349V4.3V4.3ZM3.625 10.8409V38.7C3.625 39.0391 3.89567 39.3143 4.22917 39.3143H53.7708C53.9311 39.3143 54.0847 39.2496 54.198 39.1344C54.3113 39.0192 54.375 38.8629 54.375 38.7V10.8409L31.3683 26.6477C29.9377 27.6306 28.0623 27.6306 26.6317 26.6477L3.625 10.8409Z" fill="#60B1DE"/>
</svg>
