<svg width="51" height="52" viewBox="0 0 51 52" fill="none" xmlns="http://www.w3.org/2000/svg">
<path d="M36.6028 51C16.9711 51 1 34.7247 1 14.719C1.00354 11.361 2.20657 8.11907 4.38437 5.59887C6.56217 3.07867 9.56578 1.45256 12.8342 1.02426C13.5862 0.934548 14.3466 1.09507 15.0018 1.48186C15.657 1.86866 16.1719 2.46099 16.4697 3.17046L21.5092 15.1534C21.7378 15.6956 21.8322 16.2867 21.7841 16.8748C21.736 17.4628 21.5469 18.0299 21.2334 18.526L17.0463 25.0157C17.0049 25.0889 16.9811 25.171 16.9768 25.2553C16.9724 25.3397 16.9876 25.4239 17.0213 25.5011C18.9472 29.5251 22.1435 32.7732 26.0975 34.7247C26.1742 34.7598 26.2587 34.7736 26.3424 34.7646C26.4261 34.7556 26.5059 34.7242 26.5738 34.6736L32.867 30.4067C33.3491 30.0767 33.9049 29.8756 34.4833 29.822C35.0617 29.7684 35.644 29.8641 36.1766 30.1001L47.9355 35.2357C48.6317 35.5391 49.213 36.0638 49.5926 36.7315C49.9721 37.3992 50.1296 38.174 50.0416 38.9404C49.6213 42.2711 48.0256 45.3319 45.5525 47.5512C43.0794 49.7704 39.8981 50.9964 36.6028 51ZM13.2604 4.06471H13.2103C10.6709 4.40487 8.33873 5.67216 6.6466 7.63145C4.95446 9.59075 4.01719 12.109 4.00869 14.719C4.01533 23.5261 7.45147 31.9706 13.5626 38.1981C19.6738 44.4256 27.9603 47.9272 36.6028 47.934C39.164 47.9253 41.6352 46.9702 43.5579 45.2459C45.4806 43.5215 46.7242 41.1449 47.058 38.5572C47.0666 38.4506 47.0422 38.344 46.9882 38.2523C46.9342 38.1607 46.8534 38.0886 46.7571 38.0462L34.9982 32.9106C34.9205 32.8801 34.8368 32.8689 34.754 32.8778C34.6711 32.8867 34.5916 32.9154 34.5218 32.9617L28.2537 37.2286C27.7462 37.5683 27.1619 37.7701 26.5563 37.8148C25.9507 37.8595 25.3439 37.7457 24.7937 37.4841C20.2331 35.2216 16.5446 31.4718 14.3134 26.8297C14.0529 26.2757 13.9368 25.6625 13.9763 25.0494C14.0158 24.4363 14.2096 23.844 14.5391 23.3294L18.7011 16.8397C18.7508 16.7705 18.7816 16.6891 18.7904 16.6039C18.7992 16.5186 18.7857 16.4325 18.7513 16.3542L13.7117 4.37131C13.6732 4.28149 13.6103 4.20482 13.5302 4.15046C13.4502 4.0961 13.3566 4.06633 13.2604 4.06471Z" fill="#60B1DE" stroke="#60B1DE" stroke-width="0.46729"/>
</svg>
