<svg width="50" height="50" viewBox="0 0 50 50" fill="none" xmlns="http://www.w3.org/2000/svg">
<path d="M25 0C11.1942 0 0 11.1942 0 25C0 38.8058 11.1942 50 25 50C38.8058 50 50 38.8058 50 25C50 11.1942 38.8058 0 25 0ZM25 45.7589C13.5379 45.7589 4.24107 36.4621 4.24107 25C4.24107 13.5379 13.5379 4.24107 25 4.24107C36.4621 4.24107 45.7589 13.5379 45.7589 25C45.7589 36.4621 36.4621 45.7589 25 45.7589Z" fill="#60B1DE"/>
<path d="M34.7487 32.0649L26.7911 26.3115V12.5001C26.7911 12.2546 26.5902 12.0537 26.3447 12.0537H23.6605C23.415 12.0537 23.2141 12.2546 23.2141 12.5001V27.8684C23.2141 28.0135 23.2811 28.1475 23.3983 28.2312L32.6282 34.9611C32.8291 35.1062 33.1081 35.0615 33.2532 34.8662L34.8492 32.6899C34.9942 32.4834 34.9496 32.2044 34.7487 32.0649Z" fill="#60B1DE"/>
</svg>
