<svg width="145" height="134" viewBox="0 0 145 134" fill="none" xmlns="http://www.w3.org/2000/svg">
<path d="M141.639 28.9844L90.1 0.638196C89.339 0.21953 88.4845 0 87.6159 0C86.7473 0 85.8928 0.21953 85.1317 0.638196L33.5931 28.9844C32.7851 29.4293 32.1112 30.0829 31.6419 30.8771C31.1726 31.6712 30.925 32.5767 30.925 33.4992C30.925 34.4216 31.1726 35.3272 31.6419 36.1213C32.1112 36.9154 32.7851 37.5691 33.5931 38.014L82.462 64.8913V120.136L66.8149 111.529L61.8466 120.553L85.1317 133.36C85.8925 133.78 86.7471 134 87.6159 134C88.4847 134 89.3393 133.78 90.1 133.36L141.639 105.014C142.447 104.569 143.121 103.916 143.591 103.122C144.06 102.328 144.308 101.422 144.308 100.499V33.4992C144.308 32.5766 144.06 31.6709 143.591 30.8768C143.121 30.0826 142.447 29.4291 141.639 28.9844ZM87.6159 11.0387L128.46 33.4992L87.6159 55.9597L46.7716 33.4992L87.6159 11.0387ZM134.001 97.4534L92.7697 120.13V64.8862L134.001 42.2092V97.4534Z" fill="#60B1DE"/>
<path d="M41.2309 66.9991H0V56.6914H41.2309V66.9991ZM51.5386 108.23H10.3077V97.9223H51.5386V108.23ZM61.8463 87.6146H20.6154V77.3068H61.8463V87.6146Z" fill="#60B1DE"/>
</svg>
