<svg width="159" height="125" viewBox="0 0 159 125" fill="none" xmlns="http://www.w3.org/2000/svg">
<path d="M11.3067 56.5337H79.1472V67.8404H11.3067V56.5337ZM0 28.2668H56.5337V39.5736H0V28.2668Z" fill="#60B1DE"/>
<path d="M157.836 59.9596L140.876 20.386C140.441 19.3689 139.716 18.502 138.793 17.8929C137.869 17.2839 136.787 16.9595 135.681 16.9601H118.721V5.65337C118.721 4.154 118.125 2.71605 117.065 1.65583C116.005 0.595622 114.567 0 113.067 0H22.6133V11.3067H107.414V82.2904C104.838 83.7863 102.583 85.7773 100.78 88.1487C98.9777 90.5201 97.6622 93.225 96.9099 96.1073H61.3841C60.0081 90.7781 56.7357 86.1337 52.1804 83.0446C47.625 79.9555 42.0994 78.6339 36.6393 79.3274C31.1792 80.0209 26.1595 82.682 22.521 86.8118C18.8826 90.9416 16.8752 96.2567 16.8752 101.761C16.8752 107.265 18.8826 112.58 22.521 116.709C26.1595 120.839 31.1792 123.5 36.6393 124.194C42.0994 124.887 47.625 123.566 52.1804 120.477C56.7357 117.388 60.0081 112.743 61.3841 107.414H96.9099C98.1397 112.266 100.952 116.569 104.902 119.643C108.853 122.717 113.715 124.386 118.721 124.386C123.726 124.386 128.588 122.717 132.539 119.643C136.489 116.569 139.301 112.266 140.531 107.414H152.641C154.14 107.414 155.578 106.818 156.638 105.758C157.699 104.698 158.294 103.26 158.294 101.761V62.1871C158.294 61.4212 158.139 60.6633 157.836 59.9596ZM39.5734 113.067C37.3371 113.067 35.1511 112.404 33.2917 111.162C31.4323 109.919 29.9831 108.154 29.1273 106.088C28.2715 104.021 28.0476 101.748 28.4839 99.5548C28.9202 97.3615 29.997 95.3468 31.5783 93.7656C33.1596 92.1843 35.1743 91.1074 37.3676 90.6712C39.5608 90.2349 41.8343 90.4588 43.9003 91.3146C45.9663 92.1703 47.7322 93.6196 48.9746 95.4789C50.217 97.3383 50.8801 99.5244 50.8801 101.761C50.8771 104.758 49.6849 107.633 47.5652 109.752C45.4454 111.872 42.5712 113.064 39.5734 113.067ZM118.721 28.2668H131.949L144.07 56.5337H118.721V28.2668ZM118.721 113.067C116.484 113.067 114.298 112.404 112.439 111.162C110.579 109.919 109.13 108.154 108.274 106.088C107.419 104.021 107.195 101.748 107.631 99.5548C108.067 97.3615 109.144 95.3468 110.725 93.7656C112.307 92.1843 114.321 91.1074 116.515 90.6712C118.708 90.2349 120.981 90.4588 123.047 91.3146C125.113 92.1703 126.879 93.6196 128.122 95.4789C129.364 97.3383 130.027 99.5244 130.027 101.761C130.024 104.758 128.832 107.633 126.712 109.752C124.593 111.872 121.718 113.064 118.721 113.067ZM146.987 96.1073H140.531C139.286 91.2648 136.469 86.9724 132.522 83.9031C128.575 80.8338 123.721 79.1611 118.721 79.1472V67.8404H146.987V96.1073Z" fill="#60B1DE"/>
</svg>
