<svg width="20" height="19" viewBox="0 0 20 19" fill="none" xmlns="http://www.w3.org/2000/svg">
<path d="M17.8125 13.0625V10.6875H15.4607L14.2732 9.5L9.51129 14.25L10.6875 15.4375C10.6875 16.6879 10.6875 17.7656 10.6875 19C11.2813 19 12.4688 19 13.0625 19C13.0625 17.8125 13.0625 16.8233 13.0625 15.4375H15.4375V19C16.0313 19 17.2188 19 17.8125 19C17.8125 17.8125 17.8125 16.8233 17.8125 15.4375L19 14.25L17.8125 13.0625Z" fill="#3D71AF"/>
<path d="M7.1381 0H7.13691H7.13632C3.37728 0.0106875 0.55341 2.82388 0.0974096 6.07822C0.0368471 6.5075 3.45594e-05 6.90234 3.45594e-05 7.29006C-0.00412169 8.47697 0.366378 9.51484 1.23563 11.0485C2.10785 12.5946 3.50553 14.7191 5.6941 18.2442L5.70775 18.2661L5.72378 18.2875C6.07291 18.7542 6.60728 19 7.13157 19H7.1375H7.14344C7.66772 19 8.2021 18.7542 8.55063 18.2875L8.56607 18.2667L8.57972 18.2448C9.05828 17.4741 9.49885 16.7699 9.90497 16.1239L8.89975 15.4921C8.50016 16.128 8.06553 16.8221 7.59469 17.5798C7.47594 17.7335 7.31266 17.8066 7.13691 17.8113C6.96116 17.8066 6.79788 17.7335 6.67913 17.5798C4.49947 14.0707 3.10178 11.9409 2.27053 10.4654C1.43275 8.97156 1.19169 8.21869 1.18753 7.29006C1.18753 6.97894 1.21722 6.63931 1.27303 6.24328C1.65244 3.55122 4.00132 1.18988 7.13691 1.1875C10.2725 1.18988 12.6214 3.55122 13.0002 6.24328C13.056 6.63931 13.0857 6.97894 13.0857 7.29006C13.0851 7.70925 13.034 8.07975 12.9082 8.50309L14.0458 8.84391C14.2043 8.31784 14.2738 7.81138 14.2732 7.29066C14.2732 6.90294 14.2364 6.50809 14.1758 6.07881C13.7198 2.82387 10.8959 0.0106875 7.1381 0Z" fill="#9A9A9A"/>
<path d="M4.77319 7.125C4.77438 8.436 5.83719 9.49881 7.14819 9.5C8.45919 9.49881 9.52201 8.436 9.52319 7.125C9.52201 5.814 8.45919 4.75119 7.14819 4.75C5.83719 4.75119 4.77438 5.814 4.77319 7.125ZM8.33569 7.125C8.33451 7.77813 7.80132 8.31131 7.14819 8.3125C6.49507 8.31131 5.96188 7.77813 5.96069 7.125C5.96188 6.47187 6.49507 5.93869 7.14819 5.9375C7.80191 5.93869 8.3351 6.47187 8.33569 7.125Z" fill="#9A9A9A"/>
</svg>
