<svg width="60" height="60" viewBox="0 0 60 60" fill="none" xmlns="http://www.w3.org/2000/svg">
<g clip-path="url(#clip0_1_3686)">
<path d="M32.7375 59.942H27.2624C26.8712 59.9404 26.4924 59.8053 26.1882 59.5594C25.8841 59.3133 25.673 58.9708 25.5899 58.5886L24.8081 54.9296C21.6829 54.2871 18.7086 53.0559 16.0436 51.3015L12.9048 53.3351C12.576 53.5465 12.1848 53.6395 11.7959 53.5987C11.4071 53.5577 11.0438 53.3853 10.7661 53.1101L6.89164 49.2356C6.61635 48.9581 6.44387 48.5949 6.40266 48.206C6.36146 47.8172 6.45397 47.426 6.66495 47.0969L8.69843 43.9564C6.9442 41.2918 5.71295 38.3177 5.07032 35.1928L1.41142 34.4118C1.02904 34.3283 0.686557 34.1169 0.440507 33.8124C0.194456 33.5081 0.0595453 33.129 0.0580444 32.7376V27.2625C0.0596264 26.8711 0.194691 26.4919 0.440919 26.1876C0.687149 25.8835 1.02981 25.6723 1.41227 25.5891L5.07032 24.8081C5.71285 21.683 6.9441 18.7086 8.69843 16.0437L6.6658 12.9049C6.45501 12.5757 6.36255 12.1846 6.40359 11.7959C6.44463 11.4072 6.61676 11.0441 6.89164 10.7662L10.7644 6.89427C11.0422 6.61924 11.4054 6.44703 11.7941 6.40599C12.1829 6.36493 12.574 6.45749 12.9031 6.66843L16.0436 8.69848C18.7082 6.94427 21.6823 5.71301 24.8072 5.07038L25.5891 1.41148C25.6722 1.0291 25.8834 0.686545 26.1877 0.440459C26.492 0.194374 26.871 0.0594886 27.2624 0.0581055H32.7375C33.1287 0.059683 33.5076 0.194656 33.8117 0.440726C34.1158 0.686797 34.3269 1.02924 34.4101 1.41148L35.1919 5.07038C38.317 5.71291 41.2914 6.94417 43.9563 8.69848L47.0952 6.66501C47.4241 6.4538 47.8152 6.36101 48.2039 6.4019C48.5927 6.44281 48.956 6.61496 49.2339 6.89L53.1066 10.7636C53.382 11.0412 53.5543 11.4044 53.5955 11.7932C53.6368 12.182 53.5443 12.5732 53.3334 12.9023L51.3015 16.0437C53.0557 18.7083 54.2869 21.6824 54.9296 24.8073L58.5886 25.5883C58.9709 25.6718 59.3134 25.8832 59.5595 26.1875C59.8054 26.4919 59.9405 26.8711 59.942 27.2625V32.7376C59.9403 33.129 59.8053 33.5081 59.559 33.8124C59.3129 34.1166 58.9702 34.3278 58.5877 34.4109L54.9296 35.1919C54.2871 38.3171 53.0558 41.2914 51.3015 43.9564L53.3358 47.0952C53.5467 47.4243 53.6393 47.8154 53.5983 48.2042C53.5573 48.5929 53.3851 48.9561 53.1101 49.2339L49.2372 53.1066C48.9595 53.3817 48.5963 53.5539 48.2076 53.5949C47.8188 53.6361 47.4276 53.5435 47.0985 53.3324L43.9563 51.3015C41.2917 53.0557 38.3177 54.287 35.1927 54.9296L34.4109 58.5886C34.3277 58.9709 34.1165 59.3136 33.8122 59.5595C33.5079 59.8057 33.1289 59.9405 32.7375 59.942ZM16.0556 49.4195C16.2291 49.4192 16.3985 49.4718 16.5415 49.5701C19.2846 51.4657 22.3996 52.7557 25.6798 53.3547C25.8466 53.3848 26.0008 53.4638 26.1226 53.5819C26.2444 53.6997 26.3286 53.8511 26.3641 54.0169L27.2624 58.2309H32.7375L33.6375 54.0194C33.673 53.8538 33.7572 53.7022 33.879 53.5843C34.001 53.4665 34.155 53.3875 34.322 53.3572C37.6033 52.7584 40.7196 51.4676 43.4636 49.5709C43.6029 49.4747 43.7677 49.422 43.9372 49.4197C44.1064 49.4172 44.2727 49.4652 44.4148 49.5572L48.0259 51.9004L51.9003 48.026L49.5588 44.4133C49.4667 44.2711 49.4188 44.1048 49.4213 43.9356C49.4238 43.7662 49.4763 43.6014 49.5725 43.4619C51.4681 40.7179 52.7575 37.6015 53.3547 34.3202C53.3848 34.1534 53.4638 33.9992 53.5818 33.8774C53.6996 33.7556 53.851 33.6714 54.0168 33.6359L58.2309 32.7376V27.2625L54.0193 26.3633C53.8537 26.3278 53.7021 26.2437 53.5843 26.1219C53.4664 26 53.3874 25.8458 53.3572 25.679C52.7586 22.3974 51.4679 19.281 49.5709 16.5372C49.4747 16.3979 49.422 16.2331 49.4196 16.0637C49.4172 15.8944 49.4651 15.7281 49.5572 15.586L51.9003 11.9741L48.0259 8.09966L44.4132 10.4411C44.271 10.5333 44.1048 10.5811 43.9355 10.5787C43.7661 10.5763 43.6013 10.5236 43.4618 10.4274C40.7175 8.53228 37.6013 7.24301 34.3201 6.64533C34.1534 6.61521 33.9991 6.53618 33.8773 6.41828C33.7555 6.3004 33.6714 6.14895 33.6358 5.98318L32.7375 1.76908H27.2624L26.3616 5.98061C26.3259 6.14638 26.242 6.29782 26.1201 6.41572C25.9981 6.53361 25.8441 6.61263 25.6772 6.64276C22.3958 7.24174 19.2795 8.53247 16.5355 10.4291C16.3961 10.5253 16.2313 10.578 16.0619 10.5804C15.8926 10.5828 15.7263 10.535 15.5842 10.4428L11.9741 8.09966L8.09959 11.9741L10.441 15.5868C10.5332 15.729 10.5811 15.8952 10.5786 16.0646C10.5762 16.2339 10.5236 16.3987 10.4274 16.5382C8.53181 19.2822 7.2425 22.3986 6.64528 25.6799C6.61514 25.8466 6.53612 26.0009 6.41822 26.1227C6.30033 26.2445 6.1489 26.3286 5.98313 26.3642L1.76901 27.2625V32.7376L5.98057 33.6367C6.14632 33.6723 6.29777 33.7564 6.41566 33.8782C6.53356 34 6.61258 34.1543 6.6427 34.321C7.24123 37.6027 8.532 40.719 10.4291 43.4628C10.5253 43.6022 10.5779 43.767 10.5803 43.9364C10.5828 44.1057 10.5349 44.2719 10.4428 44.4141L8.09959 48.026L11.9741 51.9004L15.5868 49.5589C15.7262 49.4678 15.8891 49.4194 16.0556 49.4195Z" fill="white"/>
<path d="M37.3751 47.238C37.1792 47.2381 36.9891 47.171 36.8365 47.0479C36.6842 46.9247 36.5787 46.753 36.5377 46.5613C36.4967 46.3697 36.5228 46.1697 36.6116 45.995C36.7004 45.8203 36.8463 45.6813 37.0253 45.6014C37.7827 45.2675 38.5114 44.8722 39.2042 44.4191C39.3332 44.3328 39.4833 44.2832 39.6384 44.2756C39.7934 44.2682 39.9476 44.3029 40.0843 44.3763C40.2212 44.4497 40.3354 44.559 40.4147 44.6923C40.4942 44.8257 40.5359 44.9783 40.5352 45.1335C40.5356 45.2902 40.4929 45.4441 40.4118 45.5781C40.3306 45.7123 40.2141 45.8216 40.0751 45.894C39.326 46.3788 38.5395 46.8032 37.7233 47.1636C37.6137 47.2125 37.4951 47.2378 37.3751 47.238Z" fill="white"/>
<path d="M30 48.8207C26.1608 48.8166 22.415 47.6374 19.2659 45.4415C16.1169 43.2457 13.7155 40.1384 12.3846 36.5374C11.0537 32.9362 10.8572 29.0141 11.8213 25.2981C12.7854 21.582 14.8641 18.2501 17.7778 15.7504C20.6916 13.2507 24.3008 11.7028 28.1201 11.315C31.9396 10.9271 35.7863 11.7178 39.1431 13.5807C42.4998 15.4437 45.2059 18.2896 46.8973 21.7361C48.5889 25.1824 49.1848 29.064 48.6051 32.8591C48.5673 33.0799 48.4443 33.2771 48.2625 33.4081C48.0808 33.5394 47.855 33.5939 47.6335 33.5604C47.412 33.5267 47.2125 33.4075 47.078 33.2285C46.9433 33.0493 46.8844 32.8245 46.9137 32.6024C47.4454 29.148 46.9063 25.6134 45.3689 22.4746C43.8316 19.3356 41.3699 16.7429 38.3149 15.0449C35.2598 13.347 31.758 12.6254 28.2806 12.9773C24.8031 13.3292 21.517 14.7376 18.8639 17.0131C16.211 19.2886 14.3186 22.322 13.4413 25.7053C12.5639 29.0886 12.7438 32.6594 13.9567 35.9374C15.1696 39.2154 17.3572 42.0432 20.2254 44.0405C23.0937 46.0381 26.5048 47.1091 30 47.1096C30.3507 47.1096 30.7006 47.1029 31.0514 47.0703C31.2773 47.0496 31.5023 47.1197 31.6767 47.2648C31.8511 47.4101 31.9606 47.6186 31.9813 47.8445C32.002 48.0706 31.9319 48.2954 31.7868 48.4698C31.6416 48.6443 31.433 48.7538 31.2071 48.7744C30.8041 48.8113 30.403 48.8207 30 48.8207Z" fill="white"/>
<path d="M44.1232 41.9597C43.963 41.9593 43.8061 41.914 43.6703 41.8291C43.5346 41.7439 43.4255 41.6225 43.3554 41.4783C43.2853 41.3342 43.2571 41.1734 43.2739 41.014C43.2908 40.8547 43.3521 40.7035 43.4508 40.5772C43.9509 39.9395 44.4052 39.2671 44.8101 38.5651C44.8663 38.4676 44.9412 38.3821 45.0303 38.3137C45.1195 38.2451 45.2213 38.1949 45.3299 38.1656C45.4385 38.1363 45.5519 38.1289 45.6635 38.1435C45.7751 38.1582 45.8825 38.1945 45.98 38.2507C46.0775 38.3069 46.163 38.3816 46.2314 38.4709C46.3 38.56 46.3503 38.6618 46.3795 38.7706C46.4088 38.8792 46.4162 38.9925 46.4017 39.1039C46.387 39.2155 46.3506 39.3231 46.2944 39.4206C45.8491 40.1929 45.3498 40.9327 44.7999 41.6345C44.7192 41.7367 44.6164 41.819 44.499 41.8754C44.3818 41.9316 44.2533 41.9605 44.1232 41.9597Z" fill="white"/>
<path d="M36.795 38.8396H23.205C22.978 38.8396 22.7603 38.7495 22.6 38.589C22.4395 38.4287 22.3494 38.211 22.3494 37.9843V29.0872C22.3494 28.8603 22.4395 28.6426 22.6 28.4823C22.7603 28.3218 22.978 28.2317 23.205 28.2317H36.795C37.022 28.2317 37.2397 28.3218 37.4 28.4823C37.5605 28.6426 37.6506 28.8603 37.6506 29.0872V37.9843C37.6506 38.211 37.5605 38.4287 37.4 38.589C37.2397 38.7495 37.022 38.8396 36.795 38.8396ZM24.0603 37.1287H35.9397V29.9426H24.0603V37.1287Z" fill="white"/>
<path d="M39.223 29.9417H20.7771C20.6061 29.9417 20.439 29.8905 20.2974 29.7948C20.1559 29.6989 20.0461 29.5629 19.9827 29.4042C19.9192 29.2453 19.9047 29.0713 19.941 28.9042C19.9774 28.7371 20.063 28.5848 20.1868 28.4668L29.4106 19.6845C29.5696 19.5333 29.7807 19.449 30 19.449C30.2194 19.449 30.4304 19.5333 30.5894 19.6845L39.8133 28.4668C39.9371 28.5848 40.0227 28.7371 40.059 28.9042C40.0954 29.0713 40.0809 29.2453 40.0174 29.4042C39.9539 29.5629 39.8442 29.6989 39.7027 29.7948C39.561 29.8905 39.3939 29.9417 39.223 29.9417ZM22.9157 28.2308H37.0843L30 21.4852L22.9157 28.2308Z" fill="white"/>
</g>
<defs>
<clipPath id="clip0_1_3686">
<rect width="60" height="60" fill="white"/>
</clipPath>
</defs>
</svg>
