<svg width="50" height="50" viewBox="0 0 50 50" fill="none" xmlns="http://www.w3.org/2000/svg">
<circle cx="25.0005" cy="25" r="24.5" fill="#0086C3" stroke="white"/>
<g clip-path="url(#clip0_301_4)">
<path d="M23.1505 17.5449C17.683 17.5449 13.2505 20.9549 13.2505 25.1599C13.2505 27.2224 14.318 29.0974 16.053 30.4674C15.953 31.8649 15.6155 33.5749 14.6405 34.4974C16.5805 34.4974 18.563 33.2824 19.818 32.3324C20.8605 32.6199 21.9805 32.7749 23.153 32.7749C28.6205 32.7749 33.053 29.3674 33.053 25.1599C33.0505 20.9549 28.618 17.5449 23.1505 17.5449Z" fill="white"/>
<path d="M36.308 25.9025C37.143 24.79 37.618 23.495 37.618 22.115C37.618 17.9075 33.1855 14.5 27.718 14.5C25.3105 14.5 23.1055 15.16 21.3905 16.2575C22.198 16.105 23.043 16.0225 23.9105 16.0225C29.798 16.0225 34.5705 19.775 34.5705 24.4C34.5705 26.2225 33.833 27.9125 32.573 29.285C33.823 30.235 35.8105 31.4525 37.7505 31.4525C36.373 30.1425 36.273 27.24 36.308 25.9025Z" fill="white"/>
</g>
<defs>
<clipPath id="clip0_301_4">
<rect width="25" height="25" fill="white" transform="translate(13.0005 12)"/>
</clipPath>
</defs>
</svg>
