<svg width="193" height="38" viewBox="0 0 193 38" fill="none" xmlns="http://www.w3.org/2000/svg">
<g clip-path="url(#clip0_9_3964)">
<path d="M70.4603 37.2578C80.6219 37.2578 88.8588 29.0835 88.8588 19C88.8588 8.91647 80.6219 0.742188 70.4603 0.742188C60.2988 0.742188 52.0614 8.91647 52.0614 19C52.0614 29.0835 60.2988 37.2578 70.4603 37.2578Z" fill="#9CD087"/>
<path d="M70.4604 33.3984C78.4737 33.3984 84.9698 26.952 84.9698 19C84.9698 11.048 78.4737 4.60156 70.4604 4.60156C62.4469 4.60156 55.9507 11.048 55.9507 19C55.9507 26.952 62.4469 33.3984 70.4604 33.3984Z" fill="#66CC3D"/>
<path d="M70.4603 25.2344C73.9301 25.2344 76.7427 22.4432 76.7427 19C76.7427 15.5568 73.9301 12.7656 70.4603 12.7656C66.9905 12.7656 64.1777 15.5568 64.1777 19C64.1777 22.4432 66.9905 25.2344 70.4603 25.2344Z" fill="#40971D"/>
<path d="M83.9994 5.56499C80.383 1.9763 75.5746 0 70.4603 0C65.346 0 60.5378 1.9763 56.9215 5.56499C53.3051 9.15359 51.3135 13.9249 51.3135 19C51.3135 23.5946 52.9881 28.0293 56.0288 31.487C59.0401 34.9112 63.1818 37.1542 67.6911 37.8026C68.0996 37.8614 68.4793 37.5803 68.5386 37.1746C68.5979 36.769 68.3144 36.3924 67.9057 36.3336C59.2993 35.096 52.8093 27.6441 52.8093 19C52.8093 15.481 53.8614 12.2018 55.6685 9.45387L55.6776 9.46367C56.6471 10.5075 57.8602 11.3414 59.1856 11.8753C59.2777 11.9124 59.3729 11.93 59.4667 11.93C59.7621 11.93 60.042 11.7551 60.1599 11.4668C60.3152 11.087 60.131 10.6541 59.7483 10.4999C58.6258 10.0478 57.5985 9.34162 56.7775 8.45766L56.5573 8.22054C59.7908 4.1227 64.8208 1.48437 70.4603 1.48437C75.1594 1.48437 79.4356 3.31639 82.6017 6.29805L82.5596 6.41428C82.0434 7.85088 81.0186 9.04765 79.6722 9.78401C79.3107 9.98199 79.179 10.4334 79.3789 10.7924C79.5152 11.0376 79.771 11.1763 80.0345 11.1763C80.1563 11.1763 80.2803 11.1465 80.3952 11.0839C81.8818 10.2703 83.0513 9.0019 83.7398 7.47443C86.4602 10.5568 88.1114 14.5904 88.1114 19C88.1114 26.4521 83.2925 33.0133 76.4512 35.4771C76.8178 33.8275 76.5191 32.0944 75.606 30.6531C75.386 30.3061 74.9243 30.2017 74.5746 30.4198C74.225 30.638 74.1196 31.0962 74.3395 31.4433C75.1109 32.6607 75.313 34.1485 74.8942 35.5253L74.7519 35.9924C74.1773 36.1354 73.5916 36.2513 72.9953 36.3364C72.5864 36.3947 72.3026 36.7709 72.3614 37.1766C72.4149 37.5465 72.7348 37.8133 73.1007 37.8133C73.1361 37.8133 73.172 37.8108 73.2081 37.8057C77.7223 37.1617 81.8695 34.9204 84.8848 31.4946C87.9299 28.0357 89.6071 23.5983 89.6071 19C89.6071 13.9249 87.6159 9.15359 83.9994 5.56499Z" fill="#295219"/>
<path d="M70.4717 36.5156H70.4517H70.4503C70.0378 36.5156 69.7032 36.847 69.7024 37.2565C69.7016 37.6663 70.0359 37.9992 70.449 38H70.469H70.4704C70.8828 38 71.2175 37.6686 71.2183 37.2592C71.2191 36.8493 70.8848 36.5164 70.4717 36.5156Z" fill="#295219"/>
<path d="M80.1915 29.706C80.3378 29.851 80.5285 29.9234 80.72 29.9234C80.9114 29.9234 81.1029 29.851 81.2492 29.706C85.512 25.4756 86.8661 19.1338 84.6987 13.5494C84.5509 13.1669 84.1174 12.9762 83.7321 13.1237C83.3469 13.271 83.1547 13.7004 83.3032 14.083C85.2578 19.1202 84.037 24.8406 80.1915 28.6565C79.8997 28.9463 79.8997 29.4163 80.1915 29.706Z" fill="#295219"/>
<path d="M57.3454 12.7863C56.9641 12.6291 56.5263 12.8086 56.3679 13.1871C55.2235 15.9221 54.9131 18.9109 55.4703 21.8303C56.0412 24.8217 57.4941 27.5451 59.6716 29.706C59.8177 29.8509 60.0091 29.9233 60.2005 29.9233C60.3919 29.9233 60.5834 29.8509 60.7293 29.706C61.0214 29.4162 61.0214 28.9462 60.7293 28.6563C56.7739 24.7314 55.6043 18.8828 57.7493 13.7565C57.9077 13.3778 57.727 12.9435 57.3454 12.7863Z" fill="#295219"/>
<path d="M75.3943 6.24782C75.7801 6.39463 76.2125 6.20322 76.3604 5.82047C76.5083 5.43772 76.3153 5.00852 75.9297 4.86179C70.3087 2.72384 63.9269 4.07114 59.6715 8.29396C59.3794 8.58382 59.3794 9.05373 59.6715 9.34367C59.8175 9.48852 60.0089 9.56103 60.2003 9.56103C60.3917 9.56103 60.5832 9.48852 60.7291 9.34367C64.5676 5.53458 70.3241 4.31954 75.3943 6.24782Z" fill="#295219"/>
<path d="M64.9256 19C64.9256 15.9716 67.4084 13.5078 70.4603 13.5078C73.5121 13.5078 75.995 15.9716 75.995 19C75.995 22.0284 73.5121 24.4922 70.4603 24.4922C70.0472 24.4922 69.7123 24.8245 69.7123 25.2344C69.7123 25.6443 70.0472 25.9766 70.4603 25.9766C74.3369 25.9766 77.491 22.8469 77.491 19C77.491 15.1531 74.3369 12.0234 70.4603 12.0234C66.5837 12.0234 63.4298 15.1531 63.4298 19C63.4298 19.4099 63.7646 19.7422 64.1778 19.7422C64.5908 19.7422 64.9256 19.4099 64.9256 19Z" fill="#295219"/>
<path d="M70.4603 16.7734C70.8734 16.7734 71.2083 16.4412 71.2083 16.0313C71.2083 15.6213 70.8734 15.2891 70.4603 15.2891C68.3983 15.2891 66.7207 16.9538 66.7207 19C66.7207 21.0462 68.3983 22.7109 70.4603 22.7109C72.5223 22.7109 74.1999 21.0462 74.1999 19C74.1999 18.5901 73.8651 18.2578 73.452 18.2578C73.0389 18.2578 72.7041 18.5901 72.7041 19C72.7041 20.2277 71.6975 21.2266 70.4603 21.2266C69.2231 21.2266 68.2165 20.2277 68.2165 19C68.2165 17.7723 69.2231 16.7734 70.4603 16.7734Z" fill="#295219"/>
<path d="M63.4794 11.023C63.1874 10.7332 62.7137 10.7332 62.4216 11.023C58.7511 14.6654 58.0292 20.3031 60.6662 24.7328C60.8057 24.9672 61.0549 25.0976 61.3108 25.0976C61.4402 25.0976 61.5711 25.0643 61.6905 24.9943C62.0462 24.7858 62.1642 24.3307 61.9541 23.9778C59.6645 20.1315 60.2917 15.2359 63.4794 12.0727C63.7715 11.7827 63.7715 11.3128 63.4794 11.023Z" fill="#295219"/>
<path d="M64.6834 28.7191C66.48 29.7722 68.4732 30.2854 70.4537 30.2854C73.3941 30.2854 76.3058 29.1536 78.499 26.9771C82.9318 22.5785 82.9318 15.4215 78.499 11.023C78.2072 10.7332 77.7331 10.7332 77.4413 11.023C77.1495 11.3128 77.1495 11.7827 77.4413 12.0727C81.2906 15.8924 81.2906 22.1077 77.4413 25.9275C74.2536 29.0908 69.3202 29.7132 65.4442 27.4411C65.0885 27.2325 64.6298 27.3497 64.4198 27.7027C64.2098 28.0555 64.3278 28.5106 64.6834 28.7191Z" fill="#295219"/>
<path d="M62.4218 26.9771C62.5679 27.122 62.7593 27.1945 62.9507 27.1945C63.1421 27.1945 63.3335 27.122 63.4796 26.9771C63.7716 26.6872 63.7716 26.2173 63.4796 25.9274L63.4719 25.9199C63.1799 25.63 62.7063 25.63 62.4142 25.9199C62.122 26.2097 62.1221 26.6796 62.4142 26.9695L62.4218 26.9771Z" fill="#295219"/>
<path fill-rule="evenodd" clip-rule="evenodd" d="M96.6417 20.2236C96.6417 23.0609 96.3644 25.8007 95.8107 28.443C97.6871 29.3474 99.6255 29.7996 101.628 29.7996C104.558 29.7996 106.845 28.7977 108.49 26.7938C110.152 24.7722 110.983 22.2895 110.983 19.3458C110.983 16.4021 110.25 14.212 108.785 12.7756C107.337 11.3215 105.219 10.5944 102.432 10.5944C100.555 10.5944 98.4017 10.9313 95.9715 11.6052C96.4181 14.5135 96.6417 17.3863 96.6417 20.2236ZM99.7243 19.5852C99.7243 17.5459 99.8047 15.4445 99.9656 13.281C100.698 13.0682 101.538 12.9618 102.485 12.9618C104.218 12.9618 105.496 13.6711 106.319 15.0898C107.069 16.3489 107.444 17.9449 107.444 19.8778C107.444 21.8817 107.096 23.5752 106.399 24.9584C106.041 25.6855 105.523 26.2618 104.844 26.6874C104.182 27.0953 103.397 27.2992 102.485 27.2992C101.574 27.2992 100.751 27.1751 100.019 26.9268C99.8224 24.054 99.7243 21.6068 99.7243 19.5852ZM125.812 27.5918C125.812 26.9889 125.705 26.448 125.491 25.9692C123.704 26.7495 121.631 27.1396 119.272 27.1396C118.789 27.1396 118.119 27.1041 117.261 27.0332C117.136 25.7209 117.074 23.6639 117.074 20.862C117.663 20.862 118.53 20.9773 119.674 21.2078C120.818 21.4206 121.676 21.527 122.247 21.527C122.837 21.527 123.338 21.3142 123.748 20.8886C124.177 20.4453 124.392 19.9576 124.392 19.4256C124.392 18.8759 124.284 18.4059 124.07 18.0158C123.141 18.3882 122.024 18.5744 120.719 18.5744C119.433 18.5744 118.226 18.5212 117.1 18.4148C117.119 16.8365 117.199 15.1519 117.342 13.3608C117.985 13.3608 118.977 13.4495 120.317 13.6268C121.676 13.8041 122.658 13.8928 123.266 13.8928C123.891 13.8928 124.41 13.6889 124.82 13.281C125.249 12.8554 125.464 12.3766 125.464 11.8446C125.464 11.2949 125.357 10.8249 125.142 10.4348C123.105 10.754 120.97 10.9136 118.736 10.9136C116.502 10.9136 114.724 10.8604 113.401 10.754C113.777 13.2721 113.964 15.5065 113.964 17.4572C113.964 19.3901 113.884 21.4738 113.723 23.7082C113.581 25.9426 113.509 27.5297 113.509 28.4696C113.509 28.7533 113.634 28.9927 113.884 29.1878C114.134 29.3651 114.42 29.4627 114.742 29.4804C118.781 29.6932 121.747 29.7996 123.641 29.7996C124.249 29.7996 124.758 29.5868 125.169 29.1612C125.598 28.7179 125.812 28.1947 125.812 27.5918ZM139.771 25.0116C138.538 23.7525 137.519 22.2807 136.715 20.596C137.948 20.1704 138.985 19.4167 139.825 18.335C140.682 17.2355 141.111 16.0651 141.111 14.8238C141.111 12.0042 139.119 10.5944 135.134 10.5944C132.953 10.5944 130.657 10.9225 128.245 11.5786C128.691 13.9903 128.915 16.7479 128.915 19.8512C128.915 20.862 128.825 22.2097 128.647 23.8944C128.468 25.5613 128.379 26.7317 128.379 27.4056C128.379 28.0795 128.611 28.6203 129.076 29.0282C129.558 29.4361 130.121 29.64 130.764 29.64C131.408 29.64 132.015 29.5336 132.587 29.3208C132.212 27.2105 132.024 23.7969 132.024 19.0798C132.024 17.6079 132.087 15.675 132.212 13.281C133.141 13.0682 133.927 12.9618 134.571 12.9618C136.572 12.9618 137.573 13.7598 137.573 15.3558C137.573 16.6149 137.153 17.5902 136.313 18.2818C135.491 18.9557 134.437 19.2926 133.15 19.2926C133.311 20.5517 133.838 22.0147 134.732 23.6816C135.643 25.3308 136.706 26.7672 137.921 27.9908C139.137 29.1967 140.218 29.7996 141.165 29.7996C141.898 29.7996 142.461 29.5957 142.854 29.1878C143.247 28.7799 143.443 28.2036 143.443 27.4588C142.228 27.0864 141.004 26.2707 139.771 25.0116ZM157.722 27.5918C157.722 26.9889 157.615 26.448 157.401 25.9692C155.614 26.7495 153.541 27.1396 151.182 27.1396C150.699 27.1396 150.029 27.1041 149.171 27.0332C149.047 25.7209 148.984 23.6639 148.984 20.862C149.573 20.862 150.44 20.9773 151.584 21.2078C152.728 21.4206 153.586 21.527 154.157 21.527C154.747 21.527 155.248 21.3142 155.658 20.8886C156.087 20.4453 156.302 19.9576 156.302 19.4256C156.302 18.8759 156.194 18.4059 155.98 18.0158C155.051 18.3882 153.934 18.5744 152.629 18.5744C151.343 18.5744 150.136 18.5212 149.011 18.4148C149.029 16.8365 149.109 15.1519 149.252 13.3608C149.895 13.3608 150.887 13.4495 152.227 13.6268C153.586 13.8041 154.568 13.8928 155.176 13.8928C155.802 13.8928 156.32 13.6889 156.731 13.281C157.159 12.8554 157.374 12.3766 157.374 11.8446C157.374 11.2949 157.267 10.8249 157.052 10.4348C155.015 10.754 152.88 10.9136 150.646 10.9136C148.412 10.9136 146.634 10.8604 145.311 10.754C145.687 13.2721 145.874 15.5065 145.874 17.4572C145.874 19.3901 145.794 21.4738 145.633 23.7082C145.491 25.9426 145.419 27.5297 145.419 28.4696C145.419 28.7533 145.544 28.9927 145.794 29.1878C146.044 29.3651 146.33 29.4627 146.652 29.4804C150.691 29.6932 153.657 29.7996 155.551 29.7996C156.159 29.7996 156.669 29.5868 157.079 29.1612C157.508 28.7179 157.722 28.1947 157.722 27.5918ZM167.097 29.7996C167.705 29.7996 168.384 29.6755 169.135 29.4272C169.528 27.7957 170.6 24.8077 172.351 20.463C174.12 16.1006 175.005 13.4761 175.005 12.5894C175.005 11.951 174.773 11.4633 174.308 11.1264C173.862 10.7717 173.28 10.5944 172.566 10.5944C172.28 10.5944 172.003 10.621 171.735 10.6742C171.752 10.7806 171.762 10.9491 171.762 11.1796C171.762 13.7864 170.26 18.9734 167.258 26.7406C167.115 26.0667 166.892 24.9939 166.588 23.522C166.302 22.0324 166.088 20.9861 165.945 20.3832C165.82 19.7625 165.641 18.9557 165.409 17.9626C165.194 16.9695 164.989 16.1361 164.792 15.4622C164.595 14.7883 164.363 14.0879 164.095 13.3608C163.845 12.6337 163.505 12.0219 163.077 11.5254C162.648 11.0111 162.102 10.754 161.441 10.754C160.781 10.754 160.199 10.9136 159.699 11.2328C159.217 11.552 158.868 11.9776 158.654 12.5096C159.655 13.2721 160.414 14.3982 160.932 15.8878C161.451 17.3597 162.129 19.7448 162.969 23.0432C163.398 24.7279 163.649 25.7032 163.72 25.9692C164.042 27.1928 164.453 28.1415 164.953 28.8154C165.471 29.4715 166.186 29.7996 167.097 29.7996ZM188.036 14.8504C188.912 16.1449 189.349 17.8473 189.349 19.9576C189.349 22.6708 188.715 24.7633 187.446 26.2352C186.731 27.0509 185.864 27.4588 184.846 27.4588C182.988 27.4588 181.629 26.8293 180.771 25.5702C179.914 24.3111 179.485 22.6353 179.485 20.5428C179.485 19.4079 179.619 18.2109 179.887 16.9518C180.173 15.6927 180.557 14.6908 181.039 13.946C181.897 13.2367 182.881 12.882 183.988 12.882C185.829 12.882 187.178 13.5381 188.036 14.8504ZM177.984 27.4056C179.342 29.108 181.326 29.9592 183.934 29.9592C186.544 29.9592 188.688 28.9661 190.368 26.98C192.048 24.9939 192.887 22.6087 192.887 19.8246C192.887 17.0405 192.2 14.7795 190.823 13.0416C189.465 11.3037 187.482 10.4348 184.873 10.4348C182.282 10.4348 180.146 11.4456 178.466 13.4672C176.786 15.4888 175.946 17.8917 175.946 20.6758C175.946 23.4422 176.626 25.6855 177.984 27.4056ZM12.4873 28.3518C12.4873 27.7489 12.38 27.208 12.1656 26.7292C10.3786 27.5095 8.30559 27.8996 5.94671 27.8996C5.46421 27.8996 4.79407 27.8641 3.93629 27.7932C3.8112 26.4809 3.74866 24.4239 3.74866 21.622C4.33838 21.622 5.20509 21.7373 6.34879 21.9678C7.4925 22.1806 8.35024 22.287 8.92212 22.287C9.51184 22.287 10.0122 22.0742 10.4232 21.6486C10.8521 21.2053 11.0666 20.7176 11.0666 20.1856C11.0666 19.6359 10.9593 19.1659 10.7449 18.7758C9.81566 19.1482 8.69871 19.3344 7.39421 19.3344C6.10754 19.3344 4.90129 19.2812 3.77546 19.1748C3.79333 17.5965 3.87375 15.9119 4.01671 14.1208C4.66004 14.1208 5.65185 14.2095 6.99213 14.3868C8.35024 14.5641 9.33316 14.6528 9.94073 14.6528C10.5662 14.6528 11.0844 14.4489 11.4955 14.041C11.9243 13.6154 12.1388 13.1366 12.1388 12.6046C12.1388 12.0549 12.0316 11.5849 11.8171 11.1948C9.7799 11.514 7.6444 11.6736 5.4106 11.6736C3.1768 11.6736 1.3987 11.6204 0.0762939 11.514C0.451571 14.0321 0.63921 16.2665 0.63921 18.2172C0.63921 20.1501 0.558794 22.2338 0.39796 24.4682C0.254998 26.7026 0.183516 28.2897 0.183516 29.2296C0.183516 29.5133 0.308609 29.7527 0.558794 29.9478C0.808982 30.1251 1.09491 30.2227 1.41657 30.2404C5.45527 30.4532 8.42177 30.5596 10.316 30.5596C10.9236 30.5596 11.4329 30.3468 11.8439 29.9212C12.2728 29.4779 12.4873 28.9547 12.4873 28.3518ZM27.116 12.5514C25.9544 11.647 24.5962 11.1948 23.0415 11.1948C20.2537 11.1948 18.0378 12.2056 16.3937 14.2272C14.7676 16.2311 13.9544 18.6517 13.9544 21.489C13.9544 24.3263 14.6067 26.5785 15.9112 28.2454C17.2158 29.8946 19.1279 30.7192 21.6476 30.7192C23.5776 30.7192 25.311 30.1517 26.8479 29.0168C28.3848 27.8641 29.1532 26.4189 29.1532 24.681C29.1532 23.9362 28.8494 23.4042 28.2418 23.085C27.6342 22.7481 26.8747 22.5796 25.9633 22.5796C25.9633 24.1933 25.7221 25.4879 25.2396 26.4632C24.7213 27.5804 23.7206 28.139 22.2374 28.139C20.629 28.139 19.4406 27.4829 18.6722 26.1706C17.9217 24.8406 17.5464 23.2003 17.5464 21.2496C17.5464 20.0792 17.6894 18.8911 17.9753 17.6852C18.2612 16.4793 18.6633 15.504 19.1815 14.7592C20.0571 14.1031 21.0043 13.775 22.0229 13.775C23.0594 13.775 23.8457 14.1297 24.3818 14.839C24.9179 15.5306 25.1949 16.435 25.2128 17.5522C25.2128 17.8714 25.186 18.1729 25.1324 18.4566C25.5076 18.6162 26.008 18.696 26.6335 18.696C27.259 18.696 27.7861 18.4477 28.215 17.9512C28.6439 17.4547 28.8583 16.8251 28.8583 16.0626C28.8583 14.6262 28.2776 13.4558 27.116 12.5514ZM42.591 15.6104C43.4666 16.9049 43.9044 18.6073 43.9044 20.7176C43.9044 23.4308 43.27 25.5233 42.0012 26.9952C41.2864 27.8109 40.4197 28.2188 39.4011 28.2188C37.5426 28.2188 36.1844 27.5893 35.3267 26.3302C34.4689 25.0711 34.04 23.3953 34.04 21.3028C34.04 20.1679 34.174 18.9709 34.4421 17.7118C34.728 16.4527 35.1122 15.4508 35.5947 14.706C36.4525 13.9967 37.4353 13.642 38.5433 13.642C40.384 13.642 41.7332 14.2981 42.591 15.6104ZM32.5389 28.1656C33.897 29.868 35.8806 30.7192 38.4897 30.7192C41.0987 30.7192 43.2432 29.7261 44.9231 27.74C46.6028 25.7539 47.4428 23.3687 47.4428 20.5846C47.4428 17.8005 46.7547 15.5395 45.3787 13.8016C44.0205 12.0637 42.0369 11.1948 39.4279 11.1948C36.8367 11.1948 34.7012 12.2056 33.0214 14.2272C31.3415 16.2488 30.5017 18.6517 30.5017 21.4358C30.5017 24.2022 31.1807 26.4455 32.5389 28.1656Z" fill="#2F4228"/>
</g>
<defs>
<clipPath id="clip0_9_3964">
<rect width="193" height="38" fill="white"/>
</clipPath>
</defs>
</svg>
