<svg width="23" height="22" viewBox="0 0 23 22" fill="none" xmlns="http://www.w3.org/2000/svg">
<path fill-rule="evenodd" clip-rule="evenodd" d="M6.78193 2.24169C6.59794 2.08347 6.3627 1.99754 6.12005 1.99993L6.1102 2.00002V1.99997H2.98339C2.86549 2.01518 2.75114 2.05131 2.64576 2.10674C2.52927 2.16802 2.42603 2.2517 2.34195 2.35296C2.25787 2.45423 2.19461 2.5711 2.1558 2.69687C2.11758 2.8207 2.1038 2.95077 2.11521 3.07982C2.4375 6.02141 3.44892 8.84559 5.06739 11.3231L5.07416 11.3334L5.0741 11.3335C6.53126 13.6255 8.47472 15.5689 10.7667 17.0261L10.7743 17.0309L10.7743 17.031C13.2251 18.6203 16.0125 19.6162 18.9151 19.94H19.0502C19.3154 19.94 19.5698 19.8346 19.7573 19.6471C19.9448 19.4595 20.0502 19.2052 20.0502 18.94V16.2324C20.0151 16.1256 19.9976 16.0119 20.0005 15.8952C20.0066 15.65 19.9223 15.4111 19.7638 15.2239C19.6059 15.0376 19.3853 14.9155 19.1436 14.8806C18.1115 14.7427 17.098 14.49 16.1219 14.1274L16.1183 14.126C15.9394 14.0588 15.7449 14.0442 15.5579 14.0841C15.3717 14.1238 15.2007 14.2159 15.065 14.3494L13.7973 15.6171C13.479 15.9354 12.9872 16.0018 12.5959 15.7793C9.93589 14.2667 7.73344 12.0643 6.22091 9.40427C5.9984 9.01295 6.06479 8.52118 6.3831 8.20287L7.65074 6.93523C7.78431 6.79954 7.87638 6.62852 7.91611 6.44228C7.95598 6.25529 7.94142 6.0608 7.87415 5.88184L7.87281 5.87827L7.87282 5.87827C7.51017 4.90224 7.25753 3.88881 7.11959 2.85677C7.08503 2.61772 6.96511 2.39923 6.78193 2.24169ZM6.10578 -2.50398e-05C6.83182 -0.00586194 7.53542 0.251818 8.08601 0.725322C8.63796 1.2 8.99848 1.85919 9.10036 2.58002L9.10147 2.58783L9.10144 2.58783C9.21948 3.47334 9.43604 4.34289 9.74709 5.18032C9.94819 5.7166 9.99159 6.29926 9.87212 6.85943C9.75248 7.42038 9.47455 7.93528 9.07126 8.34311L9.06732 8.34709L9.06731 8.34708L8.35022 9.06417C9.52607 10.9088 11.0914 12.4741 12.936 13.65L13.6531 12.9329L13.6571 12.9289C14.0649 12.5256 14.5798 12.2477 15.1407 12.1281C15.701 12.0086 16.2837 12.052 16.8201 12.2532C17.6574 12.5642 18.5269 12.7807 19.4123 12.8987L19.4199 12.8998L19.4199 12.8998C20.1485 13.0026 20.814 13.3696 21.2897 13.931C21.689 14.4023 21.9312 14.983 21.9879 15.5925C22.0284 15.7017 22.0502 15.819 22.0502 15.94V18.94C22.0502 19.7356 21.7341 20.4987 21.1715 21.0613C20.6089 21.6239 19.8459 21.94 19.0502 21.94H18.8602C18.8241 21.94 18.7881 21.938 18.7522 21.9341C15.521 21.583 12.4172 20.4793 9.68989 18.7114C7.15376 17.0983 5.00299 14.9477 3.38963 12.4117C1.59945 9.66962 0.481319 6.5439 0.126105 3.28844L0.124643 3.27408C0.0874822 2.88097 0.128294 2.48439 0.244735 2.10708C0.361177 1.72978 0.550959 1.37917 0.803197 1.07537C1.05543 0.771572 1.36517 0.520556 1.71463 0.33672C2.06409 0.152883 2.4464 0.0398438 2.83964 0.0040841C2.86975 0.00134605 2.89997 -2.50398e-05 2.9302 -2.50398e-05H6.10578ZM12.0557 0.895186C12.1136 0.345942 12.6058 -0.0523928 13.155 0.0054804C15.4197 0.244113 17.5352 1.24859 19.1515 2.85279C20.7678 4.45699 21.7882 6.56483 22.0439 8.8277C22.1059 9.3765 21.7113 9.87165 21.1625 9.93365C20.6137 9.99566 20.1185 9.60104 20.0565 9.05225C19.852 7.24195 19.0357 5.55568 17.7426 4.27232C16.4496 2.98896 14.7572 2.18538 12.9454 1.99447C12.3962 1.9366 11.9978 1.44443 12.0557 0.895186ZM12.0691 4.80651C12.1759 4.26466 12.7018 3.91202 13.2437 4.01887C14.4239 4.25159 15.5069 4.8337 16.3521 5.68964C17.1974 6.54558 17.7658 7.63582 17.9837 8.81887C18.0837 9.36202 17.7245 9.88342 17.1813 9.98344C16.6382 10.0835 16.1168 9.72423 16.0167 9.18108C15.8715 8.39239 15.4925 7.66556 14.929 7.09493C14.3656 6.5243 13.6435 6.13623 12.8567 5.98108C12.3149 5.87424 11.9623 5.34836 12.0691 4.80651Z" fill="white"/>
</svg>
