<svg width="18" height="18" viewBox="0 0 18 18" fill="none" xmlns="http://www.w3.org/2000/svg">
<path d="M17.8926 10.6911L16.2244 9.29877H17.7009C17.8662 9.29877 17.9994 9.16494 17.9994 9.00033C17.9994 8.83571 17.8655 8.70189 17.7009 8.70189H16.2244L17.8926 7.30959C18.0195 7.20403 18.0364 7.01554 17.9303 6.88863C17.8247 6.76171 17.6362 6.74475 17.5093 6.85093L15.7507 8.31925L14.9735 7.67023C14.8466 7.56467 14.6587 7.58164 14.5526 7.70793C14.447 7.83484 14.464 8.0227 14.5903 8.12888L15.277 8.70189H13.5033V7.66457C13.5033 7.49933 13.3695 7.36613 13.2049 7.36613C13.0396 7.36613 12.9064 7.49996 12.9064 7.66457V8.70189H12.7211L11.8427 7.82353V6.5814L13.6503 4.77379L13.5699 5.66408C13.5548 5.82807 13.6761 5.97384 13.8407 5.98829C13.8501 5.98891 13.8589 5.98954 13.8677 5.98954C14.0204 5.98954 14.1511 5.87268 14.1649 5.71749L14.3094 4.11409L14.7813 3.64224L14.5865 5.80608C14.5714 5.97006 14.6927 6.11583 14.8573 6.13028C14.8667 6.13091 14.8755 6.13154 14.8843 6.13154C15.037 6.13154 15.1677 6.01467 15.1815 5.85948L15.4504 2.87635V2.87446C15.4504 2.87258 15.4504 2.87069 15.4504 2.86881C15.451 2.86064 15.451 2.85247 15.451 2.8443C15.451 2.84053 15.4504 2.83677 15.4504 2.833C15.4498 2.82608 15.4498 2.8198 15.4491 2.81289C15.4485 2.80912 15.4479 2.80535 15.4472 2.80158C15.446 2.7953 15.4454 2.78839 15.4435 2.7821C15.4428 2.77833 15.4416 2.77519 15.441 2.77142C15.4391 2.76451 15.4372 2.75823 15.4347 2.75132C15.4334 2.74818 15.4328 2.74503 15.4315 2.74189C15.429 2.73498 15.4259 2.72807 15.4227 2.72179C15.4215 2.71927 15.4202 2.71613 15.419 2.71362C15.4152 2.70671 15.4114 2.6998 15.4077 2.69289C15.4064 2.69037 15.4051 2.68849 15.4033 2.68598C15.3989 2.67907 15.3938 2.67215 15.3888 2.66587C15.3876 2.66399 15.3863 2.6621 15.3844 2.66021C15.3775 2.65205 15.3706 2.64388 15.3631 2.63634C15.3555 2.6288 15.3473 2.62189 15.3392 2.61498C15.3373 2.61309 15.3348 2.61184 15.3329 2.61058C15.3266 2.60555 15.3197 2.60115 15.3134 2.59676C15.3109 2.59487 15.3084 2.59361 15.3059 2.59236C15.2996 2.58859 15.2927 2.58482 15.2864 2.58105C15.2833 2.57979 15.2807 2.57854 15.2776 2.57665C15.2713 2.57351 15.2644 2.571 15.2581 2.56848C15.255 2.56723 15.2512 2.56597 15.2481 2.56471C15.2418 2.56283 15.2355 2.56095 15.2292 2.55906C15.2255 2.5578 15.2217 2.55717 15.2179 2.55654C15.2116 2.55529 15.2053 2.55403 15.1997 2.55277C15.1953 2.55215 15.1915 2.55152 15.1871 2.55089C15.1808 2.55026 15.1746 2.54963 15.1683 2.54963C15.1645 2.54963 15.1601 2.54901 15.1563 2.54901C15.1482 2.54901 15.1406 2.54901 15.1325 2.54963C15.1306 2.54963 15.1287 2.54963 15.1262 2.54963H15.1243L12.1412 2.81855C11.9765 2.83362 11.8559 2.97876 11.8704 3.14274C11.8854 3.30736 12.0306 3.42862 12.1946 3.41354L14.3584 3.21877L13.8866 3.69062L12.2832 3.83512C12.1185 3.8502 11.9979 3.99534 12.0124 4.15932C12.0274 4.32393 12.1726 4.4452 12.3366 4.43012L13.2269 4.3497L11.4193 6.1573H10.1765L9.29813 5.27894V5.09359H10.3361C10.5013 5.09359 10.6345 4.95977 10.6345 4.79515C10.6345 4.62991 10.5007 4.49672 10.3361 4.49672H9.29939V2.72304L9.87239 3.40977C9.97795 3.53668 10.1664 3.55365 10.2934 3.44747C10.4203 3.34191 10.4372 3.15343 10.331 3.02651L9.68202 2.24931L11.1503 0.49072C11.2559 0.363804 11.2389 0.175944 11.1126 0.0697622C10.9857 -0.0357911 10.7979 -0.0188287 10.6917 0.107458L9.29939 1.77558V0.299087C9.29939 0.133846 9.16556 0.000647638 9.00095 0.000647638C8.83571 0.000647638 8.70251 0.134474 8.70251 0.299087V1.77558L7.31022 0.107458C7.20466 -0.019457 7.01617 -0.0364194 6.88926 0.0697622C6.76234 0.175315 6.74538 0.363804 6.85156 0.49072L8.31988 2.24931L7.67086 3.02651C7.5653 3.15343 7.58226 3.34129 7.70855 3.44747C7.76447 3.49396 7.83232 3.51658 7.89955 3.51658C7.985 3.51658 8.06982 3.48014 8.12888 3.40914L8.70188 2.72241V4.49609H7.66457C7.49933 4.49609 7.36613 4.62992 7.36613 4.79453C7.36613 4.95977 7.49996 5.09297 7.66457 5.09297H8.70188V5.27831L7.8229 6.15792H6.58076L4.77317 4.35033L5.66346 4.43074C5.82807 4.44582 5.9732 4.32456 5.98765 4.15995C6.00273 3.99597 5.88147 3.8502 5.71686 3.83575L4.11346 3.69125L3.64161 3.2194L5.80545 3.41417C5.96944 3.42925 6.1152 3.30799 6.12965 3.14337C6.14473 2.97939 6.02347 2.83363 5.85886 2.81917L2.87572 2.55026H2.87383C2.87132 2.55026 2.86944 2.55026 2.86692 2.55026C2.85938 2.54963 2.85184 2.54963 2.84431 2.54963C2.83928 2.54963 2.83425 2.55026 2.82923 2.55026C2.8242 2.55026 2.81917 2.55089 2.81415 2.55152C2.80912 2.55215 2.80347 2.55278 2.79844 2.55403C2.79341 2.55466 2.78901 2.55592 2.78399 2.55654C2.77896 2.5578 2.77394 2.55906 2.76891 2.56032C2.76388 2.56157 2.75886 2.56346 2.75383 2.56471C2.74943 2.56597 2.74503 2.56785 2.74064 2.56911C2.73498 2.571 2.72933 2.57351 2.7243 2.57603C2.72053 2.57791 2.71676 2.57916 2.71299 2.58105C2.70671 2.58419 2.70105 2.58733 2.6954 2.5911C2.69226 2.59299 2.68912 2.59487 2.68597 2.59676C2.67969 2.60053 2.67341 2.60555 2.66775 2.60995C2.66524 2.61184 2.66273 2.61309 2.66084 2.61498C2.65267 2.62189 2.64451 2.6288 2.63697 2.63634C2.62943 2.64388 2.62189 2.65205 2.61561 2.66021C2.61435 2.6621 2.61309 2.66399 2.61121 2.66587C2.60618 2.67215 2.60116 2.67907 2.59676 2.68598C2.5955 2.68849 2.59424 2.69037 2.59236 2.69289C2.58859 2.6998 2.58419 2.70608 2.58105 2.71299C2.57979 2.71551 2.57854 2.71865 2.57728 2.72116C2.57414 2.72807 2.571 2.73435 2.56848 2.74126C2.56723 2.7444 2.56597 2.74755 2.56534 2.75069C2.56283 2.75697 2.56094 2.76388 2.55906 2.77079C2.5578 2.77456 2.55717 2.7777 2.55655 2.78147C2.55529 2.78776 2.55403 2.79404 2.55278 2.80095C2.55215 2.80472 2.55152 2.80849 2.55089 2.81226C2.55026 2.81917 2.54964 2.82546 2.54964 2.83237C2.54964 2.83614 2.54901 2.83991 2.54901 2.84368C2.54901 2.85184 2.54901 2.86001 2.54964 2.86818C2.54964 2.87006 2.54964 2.87195 2.54964 2.87384V2.87572C2.54964 2.87572 2.54964 2.87572 2.54964 2.87635L2.81854 5.85886C2.83237 6.01405 2.96305 6.13091 3.11573 6.13091C3.12452 6.13091 3.13395 6.13028 3.14274 6.12965C3.30673 6.11457 3.42799 5.96944 3.41354 5.80545L3.21877 3.64161L3.69061 4.11346L3.83513 5.71686C3.84895 5.87205 3.97963 5.98891 4.13231 5.98891C4.1411 5.98891 4.15053 5.98829 4.15932 5.98766C4.32394 5.97258 4.44457 5.82744 4.43012 5.66346L4.34969 4.77317L6.15729 6.58077V7.8229L5.27894 8.70126H5.09359V7.66394C5.09359 7.4987 4.95977 7.3655 4.79516 7.3655C4.63054 7.3655 4.49672 7.49933 4.49672 7.66394V8.70126H2.72304L3.40977 8.12825C3.53668 8.0227 3.55365 7.83421 3.44747 7.7073C3.34191 7.58038 3.15342 7.56342 3.02651 7.6696L2.24931 8.31863L0.490717 6.8503C0.363802 6.74475 0.175943 6.76171 0.0697614 6.888C-0.0357919 7.01491 -0.0188276 7.20278 0.107459 7.30896L1.77558 8.70126H0.299088C0.133847 8.70126 0.000648764 8.83508 0.000648764 8.9997C0.000648764 9.16431 0.134475 9.29814 0.299088 9.29814H1.77558L0.107459 10.6904C-0.0194559 10.796 -0.0364202 10.9845 0.0697614 11.1114C0.128821 11.1824 0.21364 11.2188 0.299088 11.2188C0.366316 11.2188 0.434172 11.1962 0.49009 11.1497L2.24868 9.68139L3.02588 10.3304C3.0818 10.3769 3.14966 10.3995 3.21688 10.3995C3.30233 10.3995 3.38715 10.3631 3.44621 10.2921C3.55176 10.1652 3.5348 9.97732 3.40851 9.87114L2.72179 9.29814H4.49546V10.3354C4.49546 10.5007 4.62928 10.6339 4.7939 10.6339C4.95851 10.6339 5.09234 10.5001 5.09234 10.3354V9.29814H5.27768L6.15604 10.1765V11.4193L4.34844 13.2269L4.42886 12.3366C4.44394 12.1726 4.32268 12.0268 4.15806 12.0124C3.99345 11.9973 3.84832 12.1185 3.83387 12.2832L3.68936 13.8866L3.21751 14.3584L3.41228 12.1946C3.42736 12.0306 3.3061 11.8848 3.14149 11.8704C2.97687 11.8553 2.83174 11.9766 2.81729 12.1412L2.54838 15.1237C2.54838 15.1237 2.54838 15.1237 2.54838 15.1243V15.1262C2.54838 15.1281 2.54838 15.13 2.54838 15.1318C2.54775 15.14 2.54712 15.1482 2.54775 15.157C2.54775 15.1607 2.54838 15.1645 2.54838 15.1683C2.54901 15.1752 2.54901 15.1815 2.54964 15.1884C2.55026 15.1922 2.55089 15.1959 2.55152 15.1997C2.55278 15.206 2.55341 15.2129 2.55529 15.2192C2.55592 15.2229 2.55718 15.2267 2.5578 15.2299C2.55969 15.2368 2.56157 15.243 2.56409 15.25C2.56534 15.2531 2.56597 15.2562 2.56723 15.2594C2.56974 15.2663 2.57288 15.2732 2.57602 15.2795C2.57728 15.282 2.57854 15.2851 2.57979 15.2877C2.58356 15.2946 2.58733 15.3015 2.5911 15.3078C2.59236 15.3103 2.59361 15.3122 2.5955 15.3147C2.5999 15.3216 2.60492 15.3285 2.60995 15.3348C2.61121 15.3367 2.61246 15.3385 2.61435 15.3404C2.62126 15.3486 2.62817 15.3568 2.63571 15.3643C2.64262 15.3712 2.65016 15.3781 2.6577 15.3844C2.66336 15.3894 2.66964 15.3932 2.67592 15.3976C2.67781 15.3989 2.67969 15.4001 2.68158 15.4014C2.68912 15.4064 2.69666 15.4108 2.70482 15.4152C2.70545 15.4158 2.70608 15.4158 2.70671 15.4165C2.71488 15.4209 2.72304 15.4246 2.73121 15.4284C2.73184 15.4284 2.73247 15.429 2.7331 15.429C2.74126 15.4322 2.74943 15.4353 2.7576 15.4378C2.75886 15.4384 2.76011 15.4384 2.76074 15.4391C2.76828 15.4416 2.77582 15.4428 2.78336 15.4447C2.78525 15.4454 2.78713 15.446 2.78902 15.446C2.79655 15.4472 2.80346 15.4485 2.811 15.4491C2.81352 15.4491 2.8154 15.4498 2.81792 15.4504C2.82734 15.451 2.83676 15.4516 2.84619 15.4516H2.84682C2.84682 15.4516 2.84682 15.4516 2.84745 15.4516C2.85624 15.4516 2.86504 15.451 2.87383 15.4504H2.87509H2.87572L5.85823 15.1815C6.02284 15.1664 6.14347 15.0213 6.12902 14.8573C6.11394 14.6927 5.96881 14.5714 5.80482 14.5865L3.64098 14.7813L4.11283 14.3094L5.71623 14.1649C5.88084 14.1498 6.00148 14.0047 5.98703 13.8407C5.97195 13.6761 5.82681 13.5548 5.66283 13.5699L4.77254 13.6503L6.58013 11.8427H7.8229L8.70125 12.7211V12.9064H7.66394C7.4987 12.9064 7.3655 13.0402 7.3655 13.2049C7.3655 13.3695 7.49933 13.5033 7.66394 13.5033H8.70125V15.277L8.12825 14.5903C8.0227 14.4633 7.83421 14.4464 7.70729 14.5526C7.58038 14.6581 7.56342 14.8466 7.6696 14.9735L8.31863 15.7507L6.8503 17.5093C6.74475 17.6362 6.76171 17.8241 6.888 17.9303C7.01492 18.0358 7.20278 18.0189 7.30896 17.8926L8.70125 16.2244V17.7009C8.70125 17.8662 8.83508 17.9994 8.99969 17.9994C9.16494 17.9994 9.29813 17.8655 9.29813 17.7009V16.2244L10.6904 17.8926C10.7495 17.9636 10.8343 18 10.9198 18C10.987 18 11.0548 17.9774 11.1108 17.9309C11.2377 17.8253 11.2546 17.6368 11.1485 17.5099L9.68014 15.7513L10.3292 14.9741C10.4347 14.8472 10.4178 14.6594 10.2915 14.5532C10.1645 14.4476 9.97669 14.4646 9.87051 14.5909L9.2975 15.2776V13.5039H10.3361C10.5013 13.5039 10.6345 13.3701 10.6345 13.2055C10.6345 13.0409 10.5007 12.907 10.3361 12.907H9.29939V12.7217L10.1777 11.8434H11.4205L13.2281 13.651L12.3378 13.5705C12.1732 13.5555 12.0281 13.6767 12.0136 13.8413C11.9985 14.0053 12.1198 14.1511 12.2844 14.1655L13.8878 14.31L14.3597 14.7819L12.1958 14.5871C12.0318 14.572 11.8861 14.6933 11.8716 14.8579C11.8565 15.0219 11.9778 15.1677 12.1424 15.1821L15.1249 15.451H15.1256H15.1268C15.1356 15.4516 15.1444 15.4523 15.1532 15.4523C15.1532 15.4523 15.1532 15.4523 15.1538 15.4523H15.1545C15.1639 15.4523 15.1733 15.4516 15.1827 15.451C15.1852 15.451 15.1871 15.4504 15.1896 15.4498C15.1972 15.4491 15.2041 15.4479 15.2116 15.4466C15.2135 15.446 15.2154 15.4454 15.2173 15.4454C15.2248 15.4435 15.2324 15.4416 15.2399 15.4397C15.2412 15.4391 15.2418 15.4391 15.243 15.4384C15.2512 15.4359 15.2594 15.4328 15.2675 15.4296C15.2682 15.4296 15.2688 15.429 15.2694 15.429C15.2776 15.4253 15.2858 15.4215 15.2939 15.4171C15.2946 15.4165 15.2952 15.4165 15.2958 15.4158C15.3034 15.4114 15.3115 15.407 15.3191 15.402C15.321 15.4008 15.3228 15.3989 15.3247 15.3976C15.331 15.3932 15.3367 15.3894 15.3423 15.3844C15.3499 15.3781 15.3574 15.3712 15.3643 15.3643C15.3718 15.3568 15.3788 15.3486 15.3857 15.3404C15.3869 15.3385 15.3882 15.3367 15.3901 15.3348C15.3951 15.3285 15.4001 15.3216 15.4045 15.3147C15.4058 15.3122 15.407 15.3103 15.4089 15.3078C15.4127 15.3009 15.4171 15.2946 15.4202 15.287C15.4215 15.2845 15.4227 15.2814 15.424 15.2789C15.4271 15.2719 15.4303 15.2657 15.4328 15.2588C15.434 15.2556 15.4353 15.2525 15.4359 15.2493C15.4384 15.243 15.4403 15.2361 15.4422 15.2292C15.4435 15.2255 15.4441 15.2223 15.4447 15.2185C15.446 15.2123 15.4472 15.2053 15.4485 15.1991C15.4491 15.1953 15.4498 15.1915 15.4504 15.1878C15.451 15.1815 15.4516 15.1746 15.4516 15.1676C15.4516 15.1639 15.4523 15.1601 15.4523 15.1563C15.4523 15.1482 15.4523 15.14 15.4516 15.1318C15.4516 15.13 15.4516 15.1281 15.4516 15.1262V15.1243L15.1827 12.1412C15.1677 11.9766 15.0231 11.8553 14.8585 11.8704C14.6939 11.8854 14.5733 12.0306 14.5877 12.1946L14.7825 14.3584L14.3107 13.8866L14.1662 12.2832C14.1511 12.1185 14.0059 11.9973 13.842 12.0124C13.6773 12.0274 13.5567 12.1726 13.5712 12.3366L13.6516 13.2269L11.844 11.4193V10.1765L12.7223 9.29814H12.9077V10.3354C12.9077 10.5007 13.0415 10.6339 13.2061 10.6339C13.3714 10.6339 13.5046 10.5001 13.5046 10.3354V9.29814H15.2782L14.5915 9.87114C14.4646 9.97669 14.4476 10.1652 14.5538 10.2921C14.6129 10.3631 14.6977 10.3995 14.7831 10.3995C14.8504 10.3995 14.9182 10.3769 14.9741 10.3304L15.7513 9.68139L17.5099 11.1497C17.5658 11.1962 17.6337 11.2188 17.7009 11.2188C17.7864 11.2188 17.8712 11.1824 17.9303 11.1114C18.0364 10.9851 18.0195 10.7966 17.8926 10.6911ZM11.876 9.29877L11.2452 9.92957V10.8224V11.2446H10.823H9.9302L9.29939 11.8754L9.00095 12.1738L8.07108 11.244H7.17827H6.75606V10.8217V9.92894L6.12525 9.29814L5.82681 8.9997L6.12525 8.70126L6.75606 8.07045V7.17765V6.75543H7.17827H8.07108L9.00095 5.82556L9.29939 6.124L9.9302 6.7548H10.823H11.2452V7.17702V8.06982L11.876 8.70063L12.1745 8.99907L11.876 9.29877Z" fill="#395EA6"/>
<path d="M10.6816 7.3184H9.69647L8.99969 6.62225L8.30291 7.3184H7.31775V8.30357L6.62097 8.99972L7.31775 9.69649V10.6817H8.30291L8.99969 11.3778L9.69647 10.6817H10.6816V9.69649L11.3784 8.99972L10.6816 8.30357V7.3184ZM10.0841 9.44894V10.0842H9.44892L8.99969 10.5334L8.55046 10.0842H7.91525V9.44894L7.46603 8.99972L7.91525 8.55049V7.91528H8.55046L8.99969 7.46605L9.44892 7.91528H10.0841V8.55049L10.5334 8.99972L10.0841 9.44894Z" fill="#395EA6"/>
</svg>
