<svg width="22" height="19" viewBox="0 0 22 19" fill="none" xmlns="http://www.w3.org/2000/svg">
<path d="M1.88426 8.10802C7.65561 5.59354 11.5041 3.93583 13.4297 3.13491C18.9276 0.848123 20.0701 0.450884 20.8147 0.437627C20.9784 0.434882 21.3446 0.475469 21.5818 0.667938C21.7821 0.830456 21.8372 1.04999 21.8636 1.20408C21.89 1.35816 21.9228 1.70917 21.8967 1.98344C21.5988 5.11388 20.3096 12.7106 19.6537 16.2168C19.3762 17.7004 18.8298 18.1978 18.3008 18.2465C17.1511 18.3523 16.2781 17.4867 15.1646 16.7568C13.4221 15.6146 12.4378 14.9036 10.7464 13.789C8.79182 12.5009 10.0589 11.793 11.1729 10.636C11.4644 10.3332 16.5299 5.72577 16.6279 5.30781C16.6402 5.25553 16.6515 5.06068 16.5358 4.95779C16.42 4.8549 16.2492 4.89009 16.1259 4.91807C15.9511 4.95773 13.1676 6.79756 7.77523 10.4375C6.98513 10.9801 6.26947 11.2444 5.62828 11.2306C4.92141 11.2153 3.56167 10.8309 2.55085 10.5023C1.31103 10.0993 0.325654 9.88624 0.411459 9.2018C0.456151 8.8453 0.947086 8.48071 1.88426 8.10802Z" fill="white"/>
</svg>
