<svg width="23" height="23" viewBox="0 0 23 23" fill="none" xmlns="http://www.w3.org/2000/svg">
<path fill-rule="evenodd" clip-rule="evenodd" d="M19.025 3.84063C17.0094 1.825 14.3219 0.75 11.5 0.75C5.5875 0.75 0.75 5.5875 0.75 11.5C0.75 13.3812 1.28751 15.2625 2.22813 16.875L0.75 22.25L6.39377 20.7719C8.00627 21.5781 9.75313 22.1156 11.5 22.1156C17.4125 22.1156 22.25 17.2781 22.25 11.3656C22.25 8.54375 21.0406 5.85625 19.025 3.84063ZM11.5 20.3688C9.8875 20.3688 8.27501 19.9656 6.93126 19.1594L6.66249 19.025L3.30312 19.9656L4.24376 16.7406L3.97499 16.3375C3.03437 14.8594 2.63124 13.2469 2.63124 11.6344C2.63124 6.79688 6.6625 2.76562 11.5 2.76562C13.9187 2.76562 16.0688 3.70625 17.8156 5.31875C19.5625 7.06562 20.3688 9.21563 20.3688 11.6344C20.3688 16.3375 16.4719 20.3688 11.5 20.3688ZM16.3375 13.65C16.0688 13.5156 14.725 12.8438 14.4563 12.8438C14.1875 12.7094 14.0531 12.7094 13.9187 12.9781C13.7844 13.2469 13.2469 13.7844 13.1125 14.0531C12.9781 14.1875 12.8437 14.1875 12.575 14.1875C12.3062 14.0531 11.5 13.7844 10.425 12.8438C9.61877 12.1719 9.08126 11.2313 8.94688 10.9625C8.81251 10.6938 8.94689 10.5594 9.08127 10.425C9.21564 10.2906 9.35 10.1562 9.48438 10.0219C9.61875 9.8875 9.61877 9.75313 9.75314 9.61875C9.88752 9.48438 9.75314 9.35 9.75314 9.21563C9.75314 9.08125 9.21563 7.7375 8.94688 7.2C8.81251 6.79688 8.54377 6.79688 8.40939 6.79688C8.27502 6.79688 8.14061 6.79688 7.87186 6.79688C7.73748 6.79688 7.46873 6.79687 7.19998 7.06562C6.93123 7.33437 6.25938 8.00625 6.25938 9.35C6.25938 10.6937 7.19999 11.9031 7.33437 12.1719C7.46874 12.3063 9.21561 15.1281 11.9031 16.2031C14.1875 17.1437 14.5906 16.875 15.1281 16.875C15.6656 16.875 16.7406 16.2031 16.875 15.6656C17.1438 14.9938 17.1438 14.4563 17.0094 14.4563C16.875 13.7844 16.6063 13.7844 16.3375 13.65Z" fill="white"/>
</svg>
