<svg width="227" height="31" viewBox="0 0 227 31" fill="none" xmlns="http://www.w3.org/2000/svg">
<path d="M11.62 3.55H7.13V16H4.8V3.55H0.3V1.6H11.62V3.55ZM14.1047 13.44C14.4047 13.8267 14.7314 14.1 15.0847 14.26C15.4447 14.4133 15.8414 14.49 16.2747 14.49C17.1147 14.49 17.768 14.1833 18.2347 13.57C18.708 12.9567 18.9447 12.0433 18.9447 10.83C18.9447 10.2033 18.8914 9.67 18.7847 9.23C18.678 8.78333 18.5247 8.42 18.3247 8.14C18.1247 7.86 17.8814 7.65667 17.5947 7.53C17.308 7.40333 16.9847 7.34 16.6247 7.34C16.078 7.34 15.6047 7.46 15.2047 7.7C14.8114 7.93333 14.4447 8.27 14.1047 8.71V13.44ZM13.9947 7.28C14.4214 6.78 14.9047 6.37667 15.4447 6.07C15.9914 5.76333 16.6247 5.61 17.3447 5.61C17.918 5.61 18.438 5.72667 18.9047 5.96C19.3714 6.18667 19.7714 6.52 20.1047 6.96C20.438 7.4 20.6947 7.94667 20.8747 8.6C21.0614 9.24667 21.1547 9.99 21.1547 10.83C21.1547 11.5833 21.0514 12.2867 20.8447 12.94C20.6447 13.5867 20.3547 14.15 19.9747 14.63C19.5947 15.1033 19.1347 15.4767 18.5947 15.75C18.0547 16.0167 17.4447 16.15 16.7647 16.15C16.1647 16.15 15.6547 16.0533 15.2347 15.86C14.8214 15.6667 14.4447 15.4 14.1047 15.06V19.39H11.9547V5.8H13.2547C13.548 5.8 13.7347 5.93667 13.8147 6.21L13.9947 7.28ZM29.5338 11.54C28.7671 11.5667 28.1204 11.63 27.5938 11.73C27.0671 11.8233 26.6404 11.9467 26.3138 12.1C25.9871 12.2467 25.7504 12.4233 25.6038 12.63C25.4638 12.8367 25.3938 13.0633 25.3938 13.31C25.3938 13.55 25.4304 13.7567 25.5038 13.93C25.5838 14.0967 25.6904 14.2367 25.8238 14.35C25.9638 14.4567 26.1238 14.5367 26.3038 14.59C26.4904 14.6367 26.6938 14.66 26.9138 14.66C27.4738 14.66 27.9538 14.5567 28.3538 14.35C28.7604 14.1367 29.1538 13.83 29.5338 13.43V11.54ZM23.8338 7.22C24.9871 6.14667 26.3604 5.61 27.9538 5.61C28.5404 5.61 29.0604 5.70667 29.5138 5.9C29.9738 6.08667 30.3571 6.35333 30.6638 6.7C30.9771 7.04667 31.2138 7.46 31.3738 7.94C31.5404 8.41333 31.6238 8.94 31.6238 9.52V16H30.6638C30.4571 16 30.3004 15.97 30.1938 15.91C30.0871 15.8433 29.9971 15.7133 29.9238 15.52L29.7138 14.69C29.4538 14.9233 29.1971 15.1333 28.9438 15.32C28.6904 15.5 28.4271 15.6533 28.1538 15.78C27.8871 15.9067 27.5971 16 27.2838 16.06C26.9771 16.1267 26.6371 16.16 26.2638 16.16C25.8504 16.16 25.4638 16.1033 25.1038 15.99C24.7504 15.8767 24.4438 15.7067 24.1838 15.48C23.9238 15.2467 23.7171 14.96 23.5638 14.62C23.4171 14.28 23.3438 13.88 23.3438 13.42C23.3438 13.0267 23.4471 12.6433 23.6538 12.27C23.8671 11.8967 24.2138 11.5633 24.6938 11.27C25.1804 10.97 25.8171 10.7233 26.6038 10.53C27.3971 10.3367 28.3738 10.2267 29.5338 10.2V9.52C29.5338 8.78667 29.3771 8.24 29.0638 7.88C28.7504 7.52 28.2904 7.34 27.6838 7.34C27.2704 7.34 26.9238 7.39333 26.6438 7.5C26.3638 7.6 26.1204 7.71 25.9138 7.83C25.7071 7.95 25.5238 8.06333 25.3638 8.17C25.2038 8.27 25.0338 8.32 24.8538 8.32C24.7071 8.32 24.5804 8.28333 24.4738 8.21C24.3738 8.13 24.2904 8.03333 24.2238 7.92L23.8338 7.22ZM43.6823 5.8V16H41.5423V11.37H37.1323V16H34.9823V5.8H37.1323V9.75H41.5423V5.8H43.6823ZM54.3605 7.8C54.2938 7.88667 54.2305 7.95333 54.1705 8C54.1105 8.04667 54.0238 8.07 53.9105 8.07C53.7971 8.07 53.6771 8.03 53.5505 7.95C53.4305 7.87 53.2838 7.78333 53.1105 7.69C52.9438 7.59 52.7405 7.5 52.5005 7.42C52.2605 7.34 51.9605 7.3 51.6005 7.3C51.1338 7.3 50.7238 7.38333 50.3705 7.55C50.0238 7.71667 49.7305 7.95667 49.4905 8.27C49.2571 8.57667 49.0805 8.95333 48.9605 9.4C48.8471 9.84 48.7905 10.3367 48.7905 10.89C48.7905 11.4633 48.8538 11.9733 48.9805 12.42C49.1071 12.8667 49.2871 13.2433 49.5205 13.55C49.7605 13.8567 50.0471 14.09 50.3805 14.25C50.7205 14.41 51.1005 14.49 51.5205 14.49C51.9338 14.49 52.2705 14.44 52.5305 14.34C52.7905 14.24 53.0071 14.13 53.1805 14.01C53.3538 13.89 53.5005 13.78 53.6205 13.68C53.7471 13.58 53.8805 13.53 54.0205 13.53C54.1938 13.53 54.3271 13.5967 54.4205 13.73L55.0305 14.52C54.7838 14.82 54.5105 15.0733 54.2105 15.28C53.9105 15.4867 53.5938 15.6567 53.2605 15.79C52.9271 15.9167 52.5805 16.0067 52.2205 16.06C51.8605 16.12 51.4971 16.15 51.1305 16.15C50.4971 16.15 49.9038 16.0333 49.3505 15.8C48.8038 15.56 48.3238 15.2167 47.9105 14.77C47.5038 14.3167 47.1805 13.7667 46.9405 13.12C46.7071 12.4667 46.5905 11.7233 46.5905 10.89C46.5905 10.1367 46.6971 9.44 46.9105 8.8C47.1238 8.15333 47.4338 7.59667 47.8405 7.13C48.2538 6.66333 48.7638 6.3 49.3705 6.04C49.9771 5.77333 50.6771 5.64 51.4705 5.64C52.2105 5.64 52.8605 5.76 53.4205 6C53.9871 6.24 54.4905 6.58 54.9305 7.02L54.3605 7.8Z" fill="#222222"/>
<path d="M67.9998 12.79C68.1265 12.79 68.2365 12.84 68.3298 12.94L69.2598 13.95C68.6732 14.6567 67.9532 15.2033 67.0998 15.59C66.2465 15.97 65.2265 16.16 64.0398 16.16C62.9865 16.16 62.0332 15.98 61.1798 15.62C60.3332 15.2533 59.6098 14.7467 59.0098 14.1C58.4098 13.4467 57.9465 12.67 57.6198 11.77C57.2998 10.87 57.1398 9.88 57.1398 8.8C57.1398 7.72 57.3098 6.73 57.6498 5.83C57.9965 4.92333 58.4798 4.14667 59.0998 3.5C59.7265 2.84667 60.4732 2.34 61.3398 1.98C62.2132 1.62 63.1732 1.44 64.2198 1.44C65.2598 1.44 66.1765 1.61 66.9698 1.95C67.7698 2.28333 68.4632 2.73 69.0498 3.29L68.2798 4.38C68.2265 4.45333 68.1632 4.51667 68.0898 4.57C68.0165 4.62333 67.9165 4.65 67.7898 4.65C67.6565 4.65 67.5032 4.59 67.3298 4.47C67.1632 4.34333 66.9465 4.20667 66.6798 4.06C66.4198 3.90667 66.0898 3.77 65.6898 3.65C65.2965 3.52333 64.8032 3.46 64.2098 3.46C63.5232 3.46 62.8932 3.58 62.3198 3.82C61.7465 4.06 61.2532 4.41 60.8398 4.87C60.4265 5.33 60.1032 5.89 59.8698 6.55C59.6432 7.21 59.5298 7.96 59.5298 8.8C59.5298 9.64667 59.6498 10.4033 59.8898 11.07C60.1298 11.73 60.4598 12.29 60.8798 12.75C61.2998 13.2033 61.7932 13.55 62.3598 13.79C62.9265 14.03 63.5365 14.15 64.1898 14.15C64.5898 14.15 64.9465 14.13 65.2598 14.09C65.5798 14.0433 65.8732 13.9733 66.1398 13.88C66.4065 13.78 66.6565 13.6567 66.8898 13.51C67.1298 13.3633 67.3665 13.1833 67.5998 12.97C67.7332 12.85 67.8665 12.79 67.9998 12.79ZM79.8919 7.42H76.1319V16H73.9819V7.42H70.2119V5.8H79.8919V7.42ZM84.4572 13.44C84.7572 13.8267 85.0839 14.1 85.4372 14.26C85.7972 14.4133 86.1939 14.49 86.6272 14.49C87.4672 14.49 88.1205 14.1833 88.5872 13.57C89.0605 12.9567 89.2972 12.0433 89.2972 10.83C89.2972 10.2033 89.2439 9.67 89.1372 9.23C89.0305 8.78333 88.8772 8.42 88.6772 8.14C88.4772 7.86 88.2339 7.65667 87.9472 7.53C87.6605 7.40333 87.3372 7.34 86.9772 7.34C86.4305 7.34 85.9572 7.46 85.5572 7.7C85.1639 7.93333 84.7972 8.27 84.4572 8.71V13.44ZM84.3472 7.28C84.7739 6.78 85.2572 6.37667 85.7972 6.07C86.3439 5.76333 86.9772 5.61 87.6972 5.61C88.2705 5.61 88.7905 5.72667 89.2572 5.96C89.7239 6.18667 90.1239 6.52 90.4572 6.96C90.7905 7.4 91.0472 7.94667 91.2272 8.6C91.4139 9.24667 91.5072 9.99 91.5072 10.83C91.5072 11.5833 91.4039 12.2867 91.1972 12.94C90.9972 13.5867 90.7072 14.15 90.3272 14.63C89.9472 15.1033 89.4872 15.4767 88.9472 15.75C88.4072 16.0167 87.7972 16.15 87.1172 16.15C86.5172 16.15 86.0072 16.0533 85.5872 15.86C85.1739 15.6667 84.7972 15.4 84.4572 15.06V19.39H82.3072V5.8H83.6072C83.9005 5.8 84.0872 5.93667 84.1672 6.21L84.3472 7.28ZM98.8463 5.64C99.5996 5.64 100.28 5.76333 100.886 6.01C101.5 6.25667 102.02 6.60667 102.446 7.06C102.88 7.51333 103.213 8.06333 103.446 8.71C103.68 9.35667 103.796 10.0833 103.796 10.89C103.796 11.6967 103.68 12.4233 103.446 13.07C103.213 13.7167 102.88 14.27 102.446 14.73C102.02 15.1833 101.5 15.5333 100.886 15.78C100.28 16.0267 99.5996 16.15 98.8463 16.15C98.0863 16.15 97.3996 16.0267 96.7863 15.78C96.1796 15.5333 95.6596 15.1833 95.2263 14.73C94.7929 14.27 94.4596 13.7167 94.2263 13.07C93.9929 12.4233 93.8763 11.6967 93.8763 10.89C93.8763 10.0833 93.9929 9.35667 94.2263 8.71C94.4596 8.06333 94.7929 7.51333 95.2263 7.06C95.6596 6.60667 96.1796 6.25667 96.7863 6.01C97.3996 5.76333 98.0863 5.64 98.8463 5.64ZM98.8463 14.47C99.7663 14.47 100.45 14.1633 100.896 13.55C101.35 12.93 101.576 12.0467 101.576 10.9C101.576 9.75333 101.35 8.87 100.896 8.25C100.45 7.62333 99.7663 7.31 98.8463 7.31C97.9129 7.31 97.2196 7.62333 96.7663 8.25C96.3129 8.87 96.0863 9.75333 96.0863 10.9C96.0863 12.0467 96.3129 12.93 96.7663 13.55C97.2196 14.1633 97.9129 14.47 98.8463 14.47ZM115.672 5.8V16H113.522V9.61C113.522 9.47 113.529 9.31667 113.542 9.15C113.555 8.98333 113.575 8.81333 113.602 8.64C113.535 8.78667 113.469 8.92333 113.402 9.05C113.342 9.17 113.275 9.28 113.202 9.38L108.772 15.47C108.692 15.5967 108.585 15.72 108.452 15.84C108.319 15.9533 108.169 16.01 108.002 16.01H106.702V5.8H108.852V12.19C108.852 12.33 108.842 12.4867 108.822 12.66C108.809 12.8333 108.789 13.0067 108.762 13.18C108.895 12.8733 109.032 12.62 109.172 12.42L113.602 6.34C113.682 6.20667 113.789 6.08333 113.922 5.97C114.055 5.85667 114.205 5.8 114.372 5.8H115.672ZM111.312 3.26C111.572 3.26 111.789 3.23333 111.962 3.18C112.142 3.12 112.285 3.02667 112.392 2.9C112.499 2.76667 112.575 2.59667 112.622 2.39C112.669 2.17667 112.692 1.91333 112.692 1.6H113.952C114.105 1.6 114.219 1.66667 114.292 1.8C114.365 1.92667 114.402 2.06667 114.402 2.22C114.402 2.56 114.329 2.86667 114.182 3.14C114.042 3.40667 113.839 3.63667 113.572 3.83C113.305 4.01667 112.979 4.16333 112.592 4.27C112.212 4.37 111.785 4.42 111.312 4.42C110.839 4.42 110.409 4.37 110.022 4.27C109.642 4.16333 109.319 4.01667 109.052 3.83C108.785 3.63667 108.579 3.40667 108.432 3.14C108.292 2.86667 108.222 2.56 108.222 2.22C108.222 2.06667 108.259 1.92667 108.332 1.8C108.405 1.66667 108.519 1.6 108.672 1.6H109.932C109.932 1.91333 109.955 2.17667 110.002 2.39C110.049 2.59667 110.125 2.76667 110.232 2.9C110.339 3.02667 110.479 3.12 110.652 3.18C110.832 3.23333 111.052 3.26 111.312 3.26Z" fill="#3D71AF"/>
<path d="M131.444 1.6V16H129.104V6.44C129.104 6.12 129.111 5.78667 129.124 5.44C129.144 5.09333 129.181 4.72 129.234 4.32C129.107 4.66667 128.971 4.99 128.824 5.29C128.684 5.58333 128.544 5.84333 128.404 6.07L122.304 15.27C122.251 15.3567 122.187 15.4433 122.114 15.53C122.047 15.6167 121.967 15.6967 121.874 15.77C121.787 15.8367 121.694 15.8933 121.594 15.94C121.494 15.98 121.387 16 121.274 16H119.524V1.6H121.874V11.15C121.874 11.47 121.864 11.8067 121.844 12.16C121.831 12.5067 121.797 12.8733 121.744 13.26C121.871 12.92 122.004 12.6033 122.144 12.31C122.291 12.01 122.431 11.75 122.564 11.53L128.664 2.33C128.717 2.24333 128.777 2.15667 128.844 2.07C128.917 1.98333 128.997 1.90667 129.084 1.84C129.177 1.76667 129.274 1.71 129.374 1.67C129.474 1.62333 129.581 1.6 129.694 1.6H131.444ZM134.442 6.88C134.828 6.51333 135.302 6.21667 135.862 5.99C136.422 5.75667 137.092 5.64 137.872 5.64C138.498 5.64 139.052 5.71667 139.532 5.87C140.012 6.01667 140.415 6.21667 140.742 6.47C141.068 6.71667 141.315 7.00333 141.482 7.33C141.655 7.65667 141.742 7.99667 141.742 8.35C141.742 8.55 141.712 8.75667 141.652 8.97C141.592 9.17667 141.492 9.38 141.352 9.58C141.218 9.78 141.038 9.96667 140.812 10.14C140.592 10.3133 140.318 10.4567 139.992 10.57C140.598 10.77 141.078 11.08 141.432 11.5C141.785 11.9133 141.962 12.43 141.962 13.05C141.962 13.5367 141.848 13.9733 141.622 14.36C141.402 14.74 141.105 15.0633 140.732 15.33C140.365 15.5967 139.938 15.8 139.452 15.94C138.972 16.08 138.472 16.15 137.952 16.15C137.638 16.15 137.312 16.12 136.972 16.06C136.638 16.0067 136.305 15.9167 135.972 15.79C135.645 15.6567 135.328 15.4867 135.022 15.28C134.715 15.0733 134.438 14.82 134.192 14.52L134.812 13.73C134.892 13.5967 135.025 13.53 135.212 13.53C135.345 13.53 135.482 13.58 135.622 13.68C135.762 13.78 135.925 13.89 136.112 14.01C136.305 14.13 136.535 14.24 136.802 14.34C137.075 14.44 137.412 14.49 137.812 14.49C138.145 14.49 138.442 14.45 138.702 14.37C138.962 14.29 139.182 14.1767 139.362 14.03C139.542 13.8833 139.678 13.7133 139.772 13.52C139.865 13.32 139.912 13.1033 139.912 12.87C139.912 12.4167 139.725 12.06 139.352 11.8C138.985 11.5333 138.405 11.4 137.612 11.4H136.462V9.98H137.612C138.305 9.98 138.842 9.85333 139.222 9.6C139.602 9.34667 139.792 9.01667 139.792 8.61C139.792 8.24333 139.625 7.93333 139.292 7.68C138.965 7.42667 138.472 7.3 137.812 7.3C137.438 7.3 137.118 7.34 136.852 7.42C136.592 7.49333 136.372 7.57667 136.192 7.67C136.012 7.75667 135.858 7.83667 135.732 7.91C135.612 7.98333 135.505 8.02 135.412 8.02C135.312 8.02 135.225 8 135.152 7.96C135.085 7.92 135.012 7.83667 134.932 7.71L134.442 6.88ZM148.936 14.44C149.249 14.44 149.523 14.4 149.756 14.32C149.996 14.2333 150.193 14.12 150.346 13.98C150.506 13.8333 150.623 13.66 150.696 13.46C150.776 13.26 150.816 13.04 150.816 12.8C150.816 12.5867 150.779 12.3867 150.706 12.2C150.639 12.0067 150.529 11.84 150.376 11.7C150.229 11.5533 150.036 11.44 149.796 11.36C149.556 11.2733 149.263 11.23 148.916 11.23H146.926V14.44H148.936ZM148.906 9.68C149.613 9.68 150.209 9.76667 150.696 9.94C151.183 10.1067 151.576 10.3333 151.876 10.62C152.176 10.9067 152.393 11.24 152.526 11.62C152.659 11.9933 152.726 12.3833 152.726 12.79C152.726 13.2633 152.643 13.6967 152.476 14.09C152.309 14.4767 152.063 14.8133 151.736 15.1C151.416 15.3867 151.019 15.61 150.546 15.77C150.079 15.9233 149.543 16 148.936 16H144.886V5.8H146.926V9.68H148.906ZM156.906 5.8V16H154.756V5.8H156.906ZM167.585 7.8C167.518 7.88667 167.455 7.95333 167.395 8C167.335 8.04667 167.248 8.07 167.135 8.07C167.021 8.07 166.901 8.03 166.775 7.95C166.655 7.87 166.508 7.78333 166.335 7.69C166.168 7.59 165.965 7.5 165.725 7.42C165.485 7.34 165.185 7.3 164.825 7.3C164.358 7.3 163.948 7.38333 163.595 7.55C163.248 7.71667 162.955 7.95667 162.715 8.27C162.481 8.57667 162.305 8.95333 162.185 9.4C162.071 9.84 162.015 10.3367 162.015 10.89C162.015 11.4633 162.078 11.9733 162.205 12.42C162.331 12.8667 162.511 13.2433 162.745 13.55C162.985 13.8567 163.271 14.09 163.605 14.25C163.945 14.41 164.325 14.49 164.745 14.49C165.158 14.49 165.495 14.44 165.755 14.34C166.015 14.24 166.231 14.13 166.405 14.01C166.578 13.89 166.725 13.78 166.845 13.68C166.971 13.58 167.105 13.53 167.245 13.53C167.418 13.53 167.551 13.5967 167.645 13.73L168.255 14.52C168.008 14.82 167.735 15.0733 167.435 15.28C167.135 15.4867 166.818 15.6567 166.485 15.79C166.151 15.9167 165.805 16.0067 165.445 16.06C165.085 16.12 164.721 16.15 164.355 16.15C163.721 16.15 163.128 16.0333 162.575 15.8C162.028 15.56 161.548 15.2167 161.135 14.77C160.728 14.3167 160.405 13.7667 160.165 13.12C159.931 12.4667 159.815 11.7233 159.815 10.89C159.815 10.1367 159.921 9.44 160.135 8.8C160.348 8.15333 160.658 7.59667 161.065 7.13C161.478 6.66333 161.988 6.3 162.595 6.04C163.201 5.77333 163.901 5.64 164.695 5.64C165.435 5.64 166.085 5.76 166.645 6C167.211 6.24 167.715 6.58 168.155 7.02L167.585 7.8ZM176.964 6.38C177.071 6.20667 177.214 6.06667 177.394 5.96C177.581 5.85333 177.774 5.8 177.974 5.8H179.654L177.144 9.63C176.984 9.89 176.817 10.1 176.644 10.26C176.471 10.42 176.257 10.5433 176.004 10.63C176.331 10.7233 176.601 10.8667 176.814 11.06C177.034 11.2467 177.231 11.49 177.404 11.79L179.934 16H178.454C178.074 16 177.777 15.9367 177.564 15.81C177.357 15.6833 177.181 15.4967 177.034 15.25L175.304 12.27C175.164 12.0167 174.981 11.83 174.754 11.71C174.527 11.59 174.271 11.53 173.984 11.53H172.974V16.01H170.824V5.8H172.974V10.09H173.844C174.124 10.09 174.357 10.0367 174.544 9.93C174.731 9.82333 174.891 9.66 175.024 9.44L176.964 6.38ZM187.739 11.54C186.972 11.5667 186.326 11.63 185.799 11.73C185.272 11.8233 184.846 11.9467 184.519 12.1C184.192 12.2467 183.956 12.4233 183.809 12.63C183.669 12.8367 183.599 13.0633 183.599 13.31C183.599 13.55 183.636 13.7567 183.709 13.93C183.789 14.0967 183.896 14.2367 184.029 14.35C184.169 14.4567 184.329 14.5367 184.509 14.59C184.696 14.6367 184.899 14.66 185.119 14.66C185.679 14.66 186.159 14.5567 186.559 14.35C186.966 14.1367 187.359 13.83 187.739 13.43V11.54ZM182.039 7.22C183.192 6.14667 184.566 5.61 186.159 5.61C186.746 5.61 187.266 5.70667 187.719 5.9C188.179 6.08667 188.562 6.35333 188.869 6.7C189.182 7.04667 189.419 7.46 189.579 7.94C189.746 8.41333 189.829 8.94 189.829 9.52V16H188.869C188.662 16 188.506 15.97 188.399 15.91C188.292 15.8433 188.202 15.7133 188.129 15.52L187.919 14.69C187.659 14.9233 187.402 15.1333 187.149 15.32C186.896 15.5 186.632 15.6533 186.359 15.78C186.092 15.9067 185.802 16 185.489 16.06C185.182 16.1267 184.842 16.16 184.469 16.16C184.056 16.16 183.669 16.1033 183.309 15.99C182.956 15.8767 182.649 15.7067 182.389 15.48C182.129 15.2467 181.922 14.96 181.769 14.62C181.622 14.28 181.549 13.88 181.549 13.42C181.549 13.0267 181.652 12.6433 181.859 12.27C182.072 11.8967 182.419 11.5633 182.899 11.27C183.386 10.97 184.022 10.7233 184.809 10.53C185.602 10.3367 186.579 10.2267 187.739 10.2V9.52C187.739 8.78667 187.582 8.24 187.269 7.88C186.956 7.52 186.496 7.34 185.889 7.34C185.476 7.34 185.129 7.39333 184.849 7.5C184.569 7.6 184.326 7.71 184.119 7.83C183.912 7.95 183.729 8.06333 183.569 8.17C183.409 8.27 183.239 8.32 183.059 8.32C182.912 8.32 182.786 8.28333 182.679 8.21C182.579 8.13 182.496 8.03333 182.429 7.92L182.039 7.22ZM201.888 5.8V16H199.748V11.37H195.338V16H193.188V5.8H195.338V9.75H199.748V5.8H201.888ZM214.326 5.8V16H212.176V9.61C212.176 9.47 212.182 9.31667 212.196 9.15C212.209 8.98333 212.229 8.81333 212.256 8.64C212.189 8.78667 212.122 8.92333 212.056 9.05C211.996 9.17 211.929 9.28 211.856 9.38L207.426 15.47C207.346 15.5967 207.239 15.72 207.106 15.84C206.972 15.9533 206.822 16.01 206.656 16.01H205.356V5.8H207.506V12.19C207.506 12.33 207.496 12.4867 207.476 12.66C207.462 12.8333 207.442 13.0067 207.416 13.18C207.549 12.8733 207.686 12.62 207.826 12.42L212.256 6.34C212.336 6.20667 212.442 6.08333 212.576 5.97C212.709 5.85667 212.859 5.8 213.026 5.8H214.326ZM223.118 10.46V7.22H221.608C221.261 7.22 220.971 7.27 220.738 7.37C220.504 7.47 220.318 7.6 220.178 7.76C220.038 7.91333 219.938 8.08667 219.878 8.28C219.818 8.47333 219.788 8.66333 219.788 8.85C219.788 9.35 219.964 9.74333 220.318 10.03C220.678 10.3167 221.161 10.46 221.768 10.46H223.118ZM225.168 5.8V16H223.118V11.82H222.528C222.334 11.82 222.174 11.8367 222.048 11.87C221.921 11.9033 221.811 11.95 221.718 12.01C221.631 12.07 221.551 12.1433 221.478 12.23C221.411 12.3167 221.344 12.4133 221.278 12.52L219.368 15.25C219.228 15.5033 219.061 15.6933 218.868 15.82C218.681 15.94 218.398 16 218.018 16H216.538L219.288 12.29C219.541 11.85 219.894 11.55 220.348 11.39C219.854 11.3167 219.434 11.19 219.088 11.01C218.741 10.83 218.461 10.62 218.248 10.38C218.034 10.14 217.878 9.88 217.778 9.6C217.684 9.31333 217.638 9.03 217.638 8.75C217.638 8.38333 217.708 8.02333 217.848 7.67C217.994 7.31667 218.224 7.00333 218.538 6.73C218.851 6.45 219.254 6.22667 219.748 6.06C220.248 5.88667 220.848 5.8 221.548 5.8H225.168Z" fill="#9A9A9A"/>
<path d="M6.72 21.835V29H5.75V23.91C5.75 23.7667 5.75333 23.6183 5.76 23.465C5.76667 23.3083 5.78167 23.1433 5.805 22.97C5.74833 23.12 5.68833 23.26 5.625 23.39C5.56167 23.52 5.49667 23.6333 5.43 23.73L2.07 28.695C2.02333 28.7717 1.96333 28.8417 1.89 28.905C1.81667 28.9683 1.73167 29 1.635 29H0.915V21.835H1.885V26.93C1.885 27.0733 1.88167 27.2233 1.875 27.38C1.86833 27.5333 1.85333 27.6983 1.83 27.875C1.88667 27.7217 1.94667 27.58 2.01 27.45C2.07667 27.32 2.14167 27.205 2.205 27.105L5.565 22.14C5.61167 22.0633 5.67167 21.9933 5.745 21.93C5.81833 21.8667 5.90333 21.835 6 21.835H6.72ZM12.4836 23.935V29H11.5886V26.63H9.15859V29H8.26359V23.935H9.15859V25.955H11.5886V23.935H12.4836ZM20.9484 29H20.3284C20.1684 29 20.045 28.975 19.9584 28.925C19.875 28.875 19.81 28.7967 19.7634 28.69L18.7784 27.115C18.615 26.855 18.38 26.725 18.0734 26.725H17.5634V29.005H16.6984V26.725H16.1934C16.0434 26.725 15.9067 26.7583 15.7834 26.825C15.6634 26.8917 15.565 26.9883 15.4884 27.115L14.5034 28.69C14.4534 28.7967 14.385 28.875 14.2984 28.925C14.215 28.975 14.0934 29 13.9334 29H13.3184L14.6484 26.905C14.735 26.7583 14.8334 26.64 14.9434 26.55C15.0534 26.46 15.1884 26.3917 15.3484 26.345C15.2217 26.305 15.1134 26.2467 15.0234 26.17C14.9367 26.09 14.855 25.9883 14.7784 25.865L13.4584 23.935H14.1584C14.245 23.935 14.3234 23.9583 14.3934 24.005C14.4634 24.0483 14.5184 24.1083 14.5584 24.185L15.6334 25.785C15.7067 25.895 15.795 25.98 15.8984 26.04C16.0017 26.0967 16.1234 26.125 16.2634 26.125H16.6984V23.935H17.5634V26.125H17.9884C18.2717 26.125 18.485 26.0117 18.6284 25.785L19.7034 24.185C19.7434 24.1083 19.7984 24.0483 19.8684 24.005C19.9417 23.9583 20.0217 23.935 20.1084 23.935H20.8084L19.4884 25.865C19.4117 25.9883 19.3284 26.09 19.2384 26.17C19.1517 26.2467 19.045 26.305 18.9184 26.345C19.0784 26.3917 19.2134 26.46 19.3234 26.55C19.4334 26.64 19.5317 26.7583 19.6184 26.905L20.9484 29ZM24.9739 25.915C24.9739 25.7083 24.9439 25.52 24.8839 25.35C24.8272 25.1767 24.7422 25.0283 24.6289 24.905C24.5189 24.7783 24.3839 24.6817 24.2239 24.615C24.0639 24.545 23.8822 24.51 23.6789 24.51C23.2522 24.51 22.9139 24.635 22.6639 24.885C22.4172 25.1317 22.2639 25.475 22.2039 25.915H24.9739ZM25.6939 28.29C25.5839 28.4233 25.4522 28.54 25.2989 28.64C25.1456 28.7367 24.9806 28.8167 24.8039 28.88C24.6306 28.9433 24.4506 28.99 24.2639 29.02C24.0772 29.0533 23.8922 29.07 23.7089 29.07C23.3589 29.07 23.0356 29.0117 22.7389 28.895C22.4456 28.775 22.1906 28.6017 21.9739 28.375C21.7606 28.145 21.5939 27.8617 21.4739 27.525C21.3539 27.1883 21.2939 26.8017 21.2939 26.365C21.2939 26.0117 21.3472 25.6817 21.4539 25.375C21.5639 25.0683 21.7206 24.8033 21.9239 24.58C22.1272 24.3533 22.3756 24.1767 22.6689 24.05C22.9622 23.92 23.2922 23.855 23.6589 23.855C23.9622 23.855 24.2422 23.9067 24.4989 24.01C24.7589 24.11 24.9822 24.2567 25.1689 24.45C25.3589 24.64 25.5072 24.8767 25.6139 25.16C25.7206 25.44 25.7739 25.76 25.7739 26.12C25.7739 26.26 25.7589 26.3533 25.7289 26.4C25.6989 26.4467 25.6422 26.47 25.5589 26.47H22.1739C22.1839 26.79 22.2272 27.0683 22.3039 27.305C22.3839 27.5417 22.4939 27.74 22.6339 27.9C22.7739 28.0567 22.9406 28.175 23.1339 28.255C23.3272 28.3317 23.5439 28.37 23.7839 28.37C24.0072 28.37 24.1989 28.345 24.3589 28.295C24.5222 28.2417 24.6622 28.185 24.7789 28.125C24.8956 28.065 24.9922 28.01 25.0689 27.96C25.1489 27.9067 25.2172 27.88 25.2739 27.88C25.3472 27.88 25.4039 27.9083 25.4439 27.965L25.6939 28.29ZM31.0871 23.935V29H30.1921V26.63H27.7621V29H26.8671V23.935H27.7621V25.955H30.1921V23.935H31.0871ZM35.8919 25.915C35.8919 25.7083 35.8619 25.52 35.8019 25.35C35.7452 25.1767 35.6602 25.0283 35.5469 24.905C35.4369 24.7783 35.3019 24.6817 35.1419 24.615C34.9819 24.545 34.8002 24.51 34.5969 24.51C34.1702 24.51 33.8319 24.635 33.5819 24.885C33.3352 25.1317 33.1819 25.475 33.1219 25.915H35.8919ZM36.6119 28.29C36.5019 28.4233 36.3702 28.54 36.2169 28.64C36.0635 28.7367 35.8985 28.8167 35.7219 28.88C35.5485 28.9433 35.3685 28.99 35.1819 29.02C34.9952 29.0533 34.8102 29.07 34.6269 29.07C34.2769 29.07 33.9535 29.0117 33.6569 28.895C33.3635 28.775 33.1085 28.6017 32.8919 28.375C32.6785 28.145 32.5119 27.8617 32.3919 27.525C32.2719 27.1883 32.2119 26.8017 32.2119 26.365C32.2119 26.0117 32.2652 25.6817 32.3719 25.375C32.4819 25.0683 32.6385 24.8033 32.8419 24.58C33.0452 24.3533 33.2935 24.1767 33.5869 24.05C33.8802 23.92 34.2102 23.855 34.5769 23.855C34.8802 23.855 35.1602 23.9067 35.4169 24.01C35.6769 24.11 35.9002 24.2567 36.0869 24.45C36.2769 24.64 36.4252 24.8767 36.5319 25.16C36.6385 25.44 36.6919 25.76 36.6919 26.12C36.6919 26.26 36.6769 26.3533 36.6469 26.4C36.6169 26.4467 36.5602 26.47 36.4769 26.47H33.0919C33.1019 26.79 33.1452 27.0683 33.2219 27.305C33.3019 27.5417 33.4119 27.74 33.5519 27.9C33.6919 28.0567 33.8585 28.175 34.0519 28.255C34.2452 28.3317 34.4619 28.37 34.7019 28.37C34.9252 28.37 35.1169 28.345 35.2769 28.295C35.4402 28.2417 35.5802 28.185 35.6969 28.125C35.8135 28.065 35.9102 28.01 35.9869 27.96C36.0669 27.9067 36.1352 27.88 36.1919 27.88C36.2652 27.88 36.3219 27.9083 36.3619 27.965L36.6119 28.29ZM38.6801 27.78C38.8434 28 39.0217 28.155 39.2151 28.245C39.4084 28.335 39.6251 28.38 39.8651 28.38C40.3384 28.38 40.7017 28.2117 40.9551 27.875C41.2084 27.5383 41.3351 27.0583 41.3351 26.435C41.3351 26.105 41.3051 25.8217 41.2451 25.585C41.1884 25.3483 41.1051 25.155 40.9951 25.005C40.8851 24.8517 40.7501 24.74 40.5901 24.67C40.4301 24.6 40.2484 24.565 40.0451 24.565C39.7551 24.565 39.5001 24.6317 39.2801 24.765C39.0634 24.8983 38.8634 25.0867 38.6801 25.33V27.78ZM38.6351 24.72C38.8484 24.4567 39.0951 24.245 39.3751 24.085C39.6551 23.925 39.9751 23.845 40.3351 23.845C40.6284 23.845 40.8934 23.9017 41.1301 24.015C41.3667 24.125 41.5684 24.29 41.7351 24.51C41.9017 24.7267 42.0301 24.9967 42.1201 25.32C42.2101 25.6433 42.2551 26.015 42.2551 26.435C42.2551 26.8083 42.2051 27.1567 42.1051 27.48C42.0051 27.8 41.8601 28.0783 41.6701 28.315C41.4834 28.5483 41.2534 28.7333 40.9801 28.87C40.7101 29.0033 40.4051 29.07 40.0651 29.07C39.7551 29.07 39.4884 29.0183 39.2651 28.915C39.0451 28.8083 38.8501 28.6617 38.6801 28.475V30.715H37.7851V23.935H38.3201C38.4467 23.935 38.5251 23.9967 38.5551 24.12L38.6351 24.72ZM47.6008 23.935V29H46.7058V26.63H44.2758V29H43.3808V23.935H44.2758V25.955H46.7058V23.935H47.6008ZM50.9605 28.35C51.1405 28.35 51.2955 28.3283 51.4255 28.285C51.5589 28.2383 51.6689 28.175 51.7555 28.095C51.8422 28.0117 51.9072 27.915 51.9505 27.805C51.9939 27.695 52.0155 27.575 52.0155 27.445C52.0155 27.325 51.9972 27.2133 51.9605 27.11C51.9239 27.0033 51.8622 26.91 51.7755 26.83C51.6922 26.75 51.5822 26.6867 51.4455 26.64C51.3089 26.5933 51.1422 26.57 50.9455 26.57H49.8655V28.35H50.9605ZM50.9455 25.92C51.2955 25.92 51.5889 25.9617 51.8255 26.045C52.0655 26.1283 52.2572 26.24 52.4005 26.38C52.5472 26.52 52.6522 26.6817 52.7155 26.865C52.7789 27.0483 52.8105 27.2383 52.8105 27.435C52.8105 27.6617 52.7705 27.8717 52.6905 28.065C52.6105 28.255 52.4922 28.42 52.3355 28.56C52.1789 28.6967 51.9855 28.805 51.7555 28.885C51.5255 28.9617 51.2605 29 50.9605 29H49.0155V23.935H49.8655V25.92H50.9455ZM54.8155 23.935V29H53.9255V23.935H54.8155ZM59.6223 25.915C59.6223 25.7083 59.5923 25.52 59.5323 25.35C59.4757 25.1767 59.3907 25.0283 59.2773 24.905C59.1673 24.7783 59.0323 24.6817 58.8723 24.615C58.7123 24.545 58.5307 24.51 58.3273 24.51C57.9007 24.51 57.5623 24.635 57.3123 24.885C57.0657 25.1317 56.9123 25.475 56.8523 25.915H59.6223ZM60.3423 28.29C60.2323 28.4233 60.1007 28.54 59.9473 28.64C59.794 28.7367 59.629 28.8167 59.4523 28.88C59.279 28.9433 59.099 28.99 58.9123 29.02C58.7257 29.0533 58.5407 29.07 58.3573 29.07C58.0073 29.07 57.684 29.0117 57.3873 28.895C57.094 28.775 56.839 28.6017 56.6223 28.375C56.409 28.145 56.2423 27.8617 56.1223 27.525C56.0023 27.1883 55.9423 26.8017 55.9423 26.365C55.9423 26.0117 55.9957 25.6817 56.1023 25.375C56.2123 25.0683 56.369 24.8033 56.5723 24.58C56.7757 24.3533 57.024 24.1767 57.3173 24.05C57.6107 23.92 57.9407 23.855 58.3073 23.855C58.6107 23.855 58.8907 23.9067 59.1473 24.01C59.4073 24.11 59.6307 24.2567 59.8173 24.45C60.0073 24.64 60.1557 24.8767 60.2623 25.16C60.369 25.44 60.4223 25.76 60.4223 26.12C60.4223 26.26 60.4073 26.3533 60.3773 26.4C60.3473 26.4467 60.2907 26.47 60.2073 26.47H56.8223C56.8323 26.79 56.8757 27.0683 56.9523 27.305C57.0323 27.5417 57.1423 27.74 57.2823 27.9C57.4223 28.0567 57.589 28.175 57.7823 28.255C57.9757 28.3317 58.1923 28.37 58.4323 28.37C58.6557 28.37 58.8473 28.345 59.0073 28.295C59.1707 28.2417 59.3107 28.185 59.4273 28.125C59.544 28.065 59.6407 28.01 59.7173 27.96C59.7973 27.9067 59.8657 27.88 59.9223 27.88C59.9957 27.88 60.0523 27.9083 60.0923 27.965L60.3423 28.29ZM68.4191 23.935V29H67.5291V25.56C67.5291 25.4933 67.5325 25.4217 67.5391 25.345C67.5458 25.2683 67.5541 25.1917 67.5641 25.115C67.5341 25.1817 67.5041 25.2433 67.4741 25.3C67.4441 25.3567 67.4125 25.4083 67.3791 25.455L64.9341 28.78C64.8975 28.8333 64.8508 28.885 64.7941 28.935C64.7408 28.9817 64.6808 29.005 64.6141 29.005H64.0741V23.94H64.9691V27.38C64.9691 27.4433 64.9658 27.5133 64.9591 27.59C64.9525 27.6633 64.9441 27.7383 64.9341 27.815C64.9641 27.7517 64.9941 27.6933 65.0241 27.64C65.0541 27.5833 65.0841 27.5317 65.1141 27.485L67.5591 24.16C67.5958 24.1067 67.6425 24.0567 67.6991 24.01C67.7558 23.96 67.8175 23.935 67.8841 23.935H68.4191ZM69.5061 24.455C69.6961 24.275 69.9261 24.13 70.1961 24.02C70.4694 23.91 70.7978 23.855 71.1811 23.855C71.4878 23.855 71.7578 23.8933 71.9911 23.97C72.2244 24.0433 72.4194 24.1417 72.5761 24.265C72.7361 24.3883 72.8561 24.53 72.9361 24.69C73.0194 24.8467 73.0611 25.01 73.0611 25.18C73.0611 25.28 73.0444 25.385 73.0111 25.495C72.9811 25.605 72.9294 25.71 72.8561 25.81C72.7828 25.91 72.6878 26.0033 72.5711 26.09C72.4544 26.1767 72.3094 26.2467 72.1361 26.3C72.4594 26.3967 72.7128 26.5517 72.8961 26.765C73.0828 26.9783 73.1761 27.24 73.1761 27.55C73.1761 27.7833 73.1228 27.995 73.0161 28.185C72.9094 28.3717 72.7661 28.5317 72.5861 28.665C72.4061 28.795 72.1961 28.895 71.9561 28.965C71.7194 29.035 71.4711 29.07 71.2111 29.07C71.0478 29.07 70.8811 29.055 70.7111 29.025C70.5444 28.995 70.3811 28.9483 70.2211 28.885C70.0611 28.8183 69.9094 28.7367 69.7661 28.64C69.6261 28.5433 69.5011 28.4267 69.3911 28.29L69.6411 27.965C69.6811 27.9083 69.7378 27.88 69.8111 27.88C69.8711 27.88 69.9344 27.9067 70.0011 27.96C70.0711 28.01 70.1561 28.0667 70.2561 28.13C70.3561 28.1933 70.4778 28.2517 70.6211 28.305C70.7678 28.355 70.9461 28.38 71.1561 28.38C71.3394 28.38 71.5028 28.3583 71.6461 28.315C71.7928 28.2683 71.9161 28.205 72.0161 28.125C72.1161 28.045 72.1928 27.95 72.2461 27.84C72.2994 27.73 72.3261 27.61 72.3261 27.48C72.3261 27.23 72.2211 27.0283 72.0111 26.875C71.8044 26.7217 71.4894 26.645 71.0661 26.645H70.4911V26.055H71.0661C71.2494 26.055 71.4144 26.0367 71.5611 26C71.7078 25.96 71.8328 25.9067 71.9361 25.84C72.0394 25.7733 72.1178 25.6933 72.1711 25.6C72.2244 25.5033 72.2511 25.4 72.2511 25.29C72.2511 25.19 72.2278 25.095 72.1811 25.005C72.1378 24.915 72.0694 24.8367 71.9761 24.77C71.8861 24.7033 71.7728 24.65 71.6361 24.61C71.4994 24.57 71.3394 24.55 71.1561 24.55C70.9561 24.55 70.7861 24.57 70.6461 24.61C70.5094 24.65 70.3928 24.6933 70.2961 24.74C70.2028 24.7867 70.1261 24.83 70.0661 24.87C70.0061 24.91 69.9544 24.93 69.9111 24.93C69.8678 24.93 69.8311 24.9217 69.8011 24.905C69.7744 24.8883 69.7444 24.8533 69.7111 24.8L69.5061 24.455ZM76.2633 28.35C76.4433 28.35 76.5983 28.3283 76.7283 28.285C76.8616 28.2383 76.9716 28.175 77.0583 28.095C77.1449 28.0117 77.2099 27.915 77.2533 27.805C77.2966 27.695 77.3183 27.575 77.3183 27.445C77.3183 27.325 77.2999 27.2133 77.2633 27.11C77.2266 27.0033 77.1649 26.91 77.0783 26.83C76.9949 26.75 76.8849 26.6867 76.7483 26.64C76.6116 26.5933 76.4449 26.57 76.2483 26.57H75.1683V28.35H76.2633ZM76.2483 25.92C76.5983 25.92 76.8916 25.9617 77.1283 26.045C77.3683 26.1283 77.5599 26.24 77.7033 26.38C77.8499 26.52 77.9549 26.6817 78.0183 26.865C78.0816 27.0483 78.1133 27.2383 78.1133 27.435C78.1133 27.6617 78.0733 27.8717 77.9933 28.065C77.9133 28.255 77.7949 28.42 77.6383 28.56C77.4816 28.6967 77.2883 28.805 77.0583 28.885C76.8283 28.9617 76.5633 29 76.2633 29H74.3183V23.935H75.1683V25.92H76.2483ZM80.1183 23.935V29H79.2283V23.935H80.1183ZM85.0601 24.835C85.0334 24.8717 85.0067 24.9 84.9801 24.92C84.9534 24.94 84.9167 24.95 84.8701 24.95C84.8201 24.95 84.7651 24.93 84.7051 24.89C84.6451 24.8467 84.5701 24.8 84.4801 24.75C84.3934 24.7 84.2851 24.655 84.1551 24.615C84.0284 24.5717 83.8717 24.55 83.6851 24.55C83.4351 24.55 83.2151 24.595 83.0251 24.685C82.8351 24.7717 82.6751 24.8983 82.5451 25.065C82.4184 25.2317 82.3217 25.4333 82.2551 25.67C82.1917 25.9067 82.1601 26.1717 82.1601 26.465C82.1601 26.7717 82.1951 27.045 82.2651 27.285C82.3351 27.5217 82.4334 27.7217 82.5601 27.885C82.6901 28.045 82.8451 28.1683 83.0251 28.255C83.2084 28.3383 83.4134 28.38 83.6401 28.38C83.8567 28.38 84.0351 28.355 84.1751 28.305C84.3151 28.2517 84.4301 28.1933 84.5201 28.13C84.6134 28.0667 84.6901 28.01 84.7501 27.96C84.8134 27.9067 84.8751 27.88 84.9351 27.88C85.0084 27.88 85.0651 27.9083 85.1051 27.965L85.3551 28.29C85.2451 28.4267 85.1201 28.5433 84.9801 28.64C84.8401 28.7367 84.6884 28.8183 84.5251 28.885C84.3651 28.9483 84.1967 28.995 84.0201 29.025C83.8434 29.055 83.6634 29.07 83.4801 29.07C83.1634 29.07 82.8684 29.0117 82.5951 28.895C82.3251 28.7783 82.0901 28.61 81.8901 28.39C81.6901 28.1667 81.5334 27.8933 81.4201 27.57C81.3067 27.2467 81.2501 26.8783 81.2501 26.465C81.2501 26.0883 81.3017 25.74 81.4051 25.42C81.5117 25.1 81.6651 24.825 81.8651 24.595C82.0684 24.3617 82.3167 24.18 82.6101 24.05C82.9067 23.92 83.2467 23.855 83.6301 23.855C83.9867 23.855 84.3001 23.9133 84.5701 24.03C84.8434 24.1433 85.0851 24.305 85.2951 24.515L85.0601 24.835ZM89.3855 24.185C89.4321 24.1117 89.4938 24.0517 89.5705 24.005C89.6471 23.9583 89.7288 23.935 89.8155 23.935H90.5105L89.1955 25.865C89.1155 25.9883 89.0321 26.09 88.9455 26.17C88.8588 26.2467 88.7521 26.3067 88.6255 26.35C88.7855 26.3933 88.9205 26.4617 89.0305 26.555C89.1405 26.645 89.2388 26.7617 89.3255 26.905L90.6555 29H90.0355C89.8755 29 89.7521 28.9733 89.6655 28.92C89.5788 28.8667 89.5038 28.79 89.4405 28.69L88.4555 27.115C88.2988 26.855 88.0638 26.725 87.7505 26.725H87.2055V29.005H86.3105V23.935H87.2055V26.125H87.6855C87.9521 26.125 88.1605 26.0117 88.3105 25.785L89.3855 24.185ZM94.2313 26.72C93.8213 26.7333 93.4713 26.7667 93.1813 26.82C92.8946 26.87 92.6596 26.9367 92.4763 27.02C92.2963 27.1033 92.1646 27.2017 92.0813 27.315C92.0013 27.4283 91.9613 27.555 91.9613 27.695C91.9613 27.8283 91.9829 27.9433 92.0263 28.04C92.0696 28.1367 92.1279 28.2167 92.2013 28.28C92.2779 28.34 92.3663 28.385 92.4663 28.415C92.5696 28.4417 92.6796 28.455 92.7963 28.455C92.9529 28.455 93.0963 28.44 93.2263 28.41C93.3563 28.3767 93.4779 28.33 93.5913 28.27C93.7079 28.21 93.8179 28.1383 93.9213 28.055C94.0279 27.9717 94.1313 27.8767 94.2313 27.77V26.72ZM91.3563 24.65C91.6363 24.38 91.9379 24.1783 92.2613 24.045C92.5846 23.9117 92.9429 23.845 93.3363 23.845C93.6196 23.845 93.8713 23.8917 94.0913 23.985C94.3113 24.0783 94.4963 24.2083 94.6463 24.375C94.7963 24.5417 94.9096 24.7433 94.9863 24.98C95.0629 25.2167 95.1013 25.4767 95.1013 25.76V29H94.7063C94.6196 29 94.5529 28.9867 94.5063 28.96C94.4596 28.93 94.4229 28.8733 94.3963 28.79L94.2963 28.31C94.1629 28.4333 94.0329 28.5433 93.9062 28.64C93.7796 28.7333 93.6463 28.8133 93.5063 28.88C93.3663 28.9433 93.2163 28.9917 93.0563 29.025C92.8996 29.0617 92.7246 29.08 92.5313 29.08C92.3346 29.08 92.1496 29.0533 91.9763 29C91.8029 28.9433 91.6513 28.86 91.5213 28.75C91.3946 28.64 91.2929 28.5017 91.2163 28.335C91.1429 28.165 91.1063 27.965 91.1063 27.735C91.1063 27.535 91.1613 27.3433 91.2713 27.16C91.3813 26.9733 91.5596 26.8083 91.8063 26.665C92.0529 26.5217 92.3746 26.405 92.7713 26.315C93.1679 26.2217 93.6546 26.1683 94.2313 26.155V25.76C94.2313 25.3667 94.1463 25.07 93.9763 24.87C93.8063 24.6667 93.5579 24.565 93.2313 24.565C93.0113 24.565 92.8263 24.5933 92.6763 24.65C92.5296 24.7033 92.4013 24.765 92.2913 24.835C92.1846 24.9017 92.0913 24.9633 92.0113 25.02C91.9346 25.0733 91.8579 25.1 91.7813 25.1C91.7213 25.1 91.6696 25.085 91.6263 25.055C91.5829 25.0217 91.5463 24.9817 91.5162 24.935L91.3563 24.65ZM99.122 26.3V24.535H98.272C98.082 24.535 97.922 24.5633 97.792 24.62C97.662 24.6733 97.557 24.7433 97.477 24.83C97.4003 24.9133 97.3453 25.0083 97.312 25.115C97.2786 25.2183 97.262 25.3217 97.262 25.425C97.262 25.6983 97.362 25.9133 97.562 26.07C97.762 26.2233 98.0353 26.3 98.382 26.3H99.122ZM99.972 23.935V29H99.122V26.865H98.732C98.6386 26.865 98.5603 26.8733 98.497 26.89C98.437 26.9033 98.3836 26.9233 98.337 26.95C98.2936 26.9767 98.2553 27.0117 98.222 27.055C98.1886 27.095 98.1536 27.1417 98.117 27.195L97.007 28.69C96.9503 28.7967 96.8803 28.875 96.797 28.925C96.717 28.975 96.5986 29 96.442 29H95.822L97.292 27.09C97.412 26.89 97.5703 26.7567 97.767 26.69C97.5103 26.6567 97.2936 26.5967 97.117 26.51C96.9403 26.4233 96.7953 26.3217 96.682 26.205C96.572 26.085 96.492 25.9533 96.442 25.81C96.392 25.6667 96.367 25.5217 96.367 25.375C96.367 25.2017 96.4003 25.0283 96.467 24.855C96.537 24.6817 96.647 24.5283 96.797 24.395C96.947 24.2583 97.1403 24.1483 97.377 24.065C97.617 23.9783 97.907 23.935 98.247 23.935H99.972ZM108.292 23.935V29H107.402V25.56C107.402 25.4933 107.406 25.4217 107.412 25.345C107.419 25.2683 107.427 25.1917 107.437 25.115C107.407 25.1817 107.377 25.2433 107.347 25.3C107.317 25.3567 107.286 25.4083 107.252 25.455L104.807 28.78C104.771 28.8333 104.724 28.885 104.667 28.935C104.614 28.9817 104.554 29.005 104.487 29.005H103.947V23.94H104.842V27.38C104.842 27.4433 104.839 27.5133 104.832 27.59C104.826 27.6633 104.817 27.7383 104.807 27.815C104.837 27.7517 104.867 27.6933 104.897 27.64C104.927 27.5833 104.957 27.5317 104.987 27.485L107.432 24.16C107.469 24.1067 107.516 24.0567 107.572 24.01C107.629 23.96 107.691 23.935 107.757 23.935H108.292ZM116.478 29H115.583V24.615H113.153V29H112.258V23.935H116.478V29ZM118.788 27.78C118.951 28 119.129 28.155 119.323 28.245C119.516 28.335 119.733 28.38 119.973 28.38C120.446 28.38 120.809 28.2117 121.063 27.875C121.316 27.5383 121.443 27.0583 121.443 26.435C121.443 26.105 121.413 25.8217 121.353 25.585C121.296 25.3483 121.213 25.155 121.103 25.005C120.993 24.8517 120.858 24.74 120.698 24.67C120.538 24.6 120.356 24.565 120.153 24.565C119.863 24.565 119.608 24.6317 119.388 24.765C119.171 24.8983 118.971 25.0867 118.788 25.33V27.78ZM118.743 24.72C118.956 24.4567 119.203 24.245 119.483 24.085C119.763 23.925 120.083 23.845 120.443 23.845C120.736 23.845 121.001 23.9017 121.238 24.015C121.474 24.125 121.676 24.29 121.843 24.51C122.009 24.7267 122.138 24.9967 122.228 25.32C122.318 25.6433 122.363 26.015 122.363 26.435C122.363 26.8083 122.313 27.1567 122.212 27.48C122.113 27.8 121.968 28.0783 121.778 28.315C121.591 28.5483 121.361 28.7333 121.088 28.87C120.818 29.0033 120.513 29.07 120.173 29.07C119.863 29.07 119.596 29.0183 119.373 28.915C119.153 28.8083 118.958 28.6617 118.788 28.475V30.715H117.893V23.935H118.428C118.554 23.935 118.633 23.9967 118.663 24.12L118.743 24.72ZM125.623 23.855C125.993 23.855 126.327 23.9167 126.623 24.04C126.92 24.1633 127.173 24.3383 127.383 24.565C127.593 24.7917 127.753 25.0667 127.863 25.39C127.977 25.71 128.033 26.0683 128.033 26.465C128.033 26.865 127.977 27.225 127.863 27.545C127.753 27.865 127.593 28.1383 127.383 28.365C127.173 28.5917 126.92 28.7667 126.623 28.89C126.327 29.01 125.993 29.07 125.623 29.07C125.25 29.07 124.913 29.01 124.613 28.89C124.317 28.7667 124.063 28.5917 123.853 28.365C123.643 28.1383 123.482 27.865 123.368 27.545C123.258 27.225 123.203 26.865 123.203 26.465C123.203 26.0683 123.258 25.71 123.368 25.39C123.482 25.0667 123.643 24.7917 123.853 24.565C124.063 24.3383 124.317 24.1633 124.613 24.04C124.913 23.9167 125.25 23.855 125.623 23.855ZM125.623 28.375C126.123 28.375 126.497 28.2083 126.743 27.875C126.99 27.5383 127.113 27.07 127.113 26.47C127.113 25.8667 126.99 25.3967 126.743 25.06C126.497 24.7233 126.123 24.555 125.623 24.555C125.37 24.555 125.148 24.5983 124.958 24.685C124.772 24.7717 124.615 24.8967 124.488 25.06C124.365 25.2233 124.272 25.425 124.208 25.665C124.148 25.9017 124.118 26.17 124.118 26.47C124.118 27.07 124.242 27.5383 124.488 27.875C124.738 28.2083 125.117 28.375 125.623 28.375ZM132.552 25.915C132.552 25.7083 132.522 25.52 132.462 25.35C132.405 25.1767 132.32 25.0283 132.207 24.905C132.097 24.7783 131.962 24.6817 131.802 24.615C131.642 24.545 131.46 24.51 131.257 24.51C130.83 24.51 130.492 24.635 130.242 24.885C129.995 25.1317 129.842 25.475 129.782 25.915H132.552ZM133.272 28.29C133.162 28.4233 133.03 28.54 132.877 28.64C132.724 28.7367 132.559 28.8167 132.382 28.88C132.209 28.9433 132.029 28.99 131.842 29.02C131.655 29.0533 131.47 29.07 131.287 29.07C130.937 29.07 130.614 29.0117 130.317 28.895C130.024 28.775 129.769 28.6017 129.552 28.375C129.339 28.145 129.172 27.8617 129.052 27.525C128.932 27.1883 128.872 26.8017 128.872 26.365C128.872 26.0117 128.925 25.6817 129.032 25.375C129.142 25.0683 129.299 24.8033 129.502 24.58C129.705 24.3533 129.954 24.1767 130.247 24.05C130.54 23.92 130.87 23.855 131.237 23.855C131.54 23.855 131.82 23.9067 132.077 24.01C132.337 24.11 132.56 24.2567 132.747 24.45C132.937 24.64 133.085 24.8767 133.192 25.16C133.299 25.44 133.352 25.76 133.352 26.12C133.352 26.26 133.337 26.3533 133.307 26.4C133.277 26.4467 133.22 26.47 133.137 26.47H129.752C129.762 26.79 129.805 27.0683 129.882 27.305C129.962 27.5417 130.072 27.74 130.212 27.9C130.352 28.0567 130.519 28.175 130.712 28.255C130.905 28.3317 131.122 28.37 131.362 28.37C131.585 28.37 131.777 28.345 131.937 28.295C132.1 28.2417 132.24 28.185 132.357 28.125C132.474 28.065 132.57 28.01 132.647 27.96C132.727 27.9067 132.795 27.88 132.852 27.88C132.925 27.88 132.982 27.9083 133.022 27.965L133.272 28.29ZM137.52 24.185C137.567 24.1117 137.629 24.0517 137.705 24.005C137.782 23.9583 137.864 23.935 137.95 23.935H138.645L137.33 25.865C137.25 25.9883 137.167 26.09 137.08 26.17C136.994 26.2467 136.887 26.3067 136.76 26.35C136.92 26.3933 137.055 26.4617 137.165 26.555C137.275 26.645 137.374 26.7617 137.46 26.905L138.79 29H138.17C138.01 29 137.887 28.9733 137.8 28.92C137.714 28.8667 137.639 28.79 137.575 28.69L136.59 27.115C136.434 26.855 136.199 26.725 135.885 26.725H135.34V29.005H134.445V23.935H135.34V26.125H135.82C136.087 26.125 136.295 26.0117 136.445 25.785L137.52 24.185ZM143.831 24.615H141.886V29H140.996V24.615H139.051V23.935H143.831V24.615ZM148.9 23.935V29H148.005V26.63H145.575V29H144.68V23.935H145.575V25.955H148.005V23.935H148.9ZM153.059 26.72C152.649 26.7333 152.299 26.7667 152.009 26.82C151.723 26.87 151.488 26.9367 151.304 27.02C151.124 27.1033 150.993 27.2017 150.909 27.315C150.829 27.4283 150.789 27.555 150.789 27.695C150.789 27.8283 150.811 27.9433 150.854 28.04C150.898 28.1367 150.956 28.2167 151.029 28.28C151.106 28.34 151.194 28.385 151.294 28.415C151.398 28.4417 151.508 28.455 151.624 28.455C151.781 28.455 151.924 28.44 152.054 28.41C152.184 28.3767 152.306 28.33 152.419 28.27C152.536 28.21 152.646 28.1383 152.749 28.055C152.856 27.9717 152.959 27.8767 153.059 27.77V26.72ZM150.184 24.65C150.464 24.38 150.766 24.1783 151.089 24.045C151.413 23.9117 151.771 23.845 152.164 23.845C152.448 23.845 152.699 23.8917 152.919 23.985C153.139 24.0783 153.324 24.2083 153.474 24.375C153.624 24.5417 153.738 24.7433 153.814 24.98C153.891 25.2167 153.929 25.4767 153.929 25.76V29H153.534C153.448 29 153.381 28.9867 153.334 28.96C153.288 28.93 153.251 28.8733 153.224 28.79L153.124 28.31C152.991 28.4333 152.861 28.5433 152.734 28.64C152.608 28.7333 152.474 28.8133 152.334 28.88C152.194 28.9433 152.044 28.9917 151.884 29.025C151.728 29.0617 151.553 29.08 151.359 29.08C151.163 29.08 150.978 29.0533 150.804 29C150.631 28.9433 150.479 28.86 150.349 28.75C150.223 28.64 150.121 28.5017 150.044 28.335C149.971 28.165 149.934 27.965 149.934 27.735C149.934 27.535 149.989 27.3433 150.099 27.16C150.209 26.9733 150.388 26.8083 150.634 26.665C150.881 26.5217 151.203 26.405 151.599 26.315C151.996 26.2217 152.483 26.1683 153.059 26.155V25.76C153.059 25.3667 152.974 25.07 152.804 24.87C152.634 24.6667 152.386 24.565 152.059 24.565C151.839 24.565 151.654 24.5933 151.504 24.65C151.358 24.7033 151.229 24.765 151.119 24.835C151.013 24.9017 150.919 24.9633 150.839 25.02C150.763 25.0733 150.686 25.1 150.609 25.1C150.549 25.1 150.498 25.085 150.454 25.055C150.411 25.0217 150.374 24.9817 150.344 24.935L150.184 24.65ZM157.95 26.3V24.535H157.1C156.91 24.535 156.75 24.5633 156.62 24.62C156.49 24.6733 156.385 24.7433 156.305 24.83C156.228 24.9133 156.173 25.0083 156.14 25.115C156.107 25.2183 156.09 25.3217 156.09 25.425C156.09 25.6983 156.19 25.9133 156.39 26.07C156.59 26.2233 156.863 26.3 157.21 26.3H157.95ZM158.8 23.935V29H157.95V26.865H157.56C157.467 26.865 157.388 26.8733 157.325 26.89C157.265 26.9033 157.212 26.9233 157.165 26.95C157.122 26.9767 157.083 27.0117 157.05 27.055C157.017 27.095 156.982 27.1417 156.945 27.195L155.835 28.69C155.778 28.7967 155.708 28.875 155.625 28.925C155.545 28.975 155.427 29 155.27 29H154.65L156.12 27.09C156.24 26.89 156.398 26.7567 156.595 26.69C156.338 26.6567 156.122 26.5967 155.945 26.51C155.768 26.4233 155.623 26.3217 155.51 26.205C155.4 26.085 155.32 25.9533 155.27 25.81C155.22 25.6667 155.195 25.5217 155.195 25.375C155.195 25.2017 155.228 25.0283 155.295 24.855C155.365 24.6817 155.475 24.5283 155.625 24.395C155.775 24.2583 155.968 24.1483 156.205 24.065C156.445 23.9783 156.735 23.935 157.075 23.935H158.8ZM166.265 28.35V24.635H164.66C164.627 25.155 164.58 25.615 164.52 26.015C164.46 26.415 164.39 26.7667 164.31 27.07C164.234 27.37 164.147 27.625 164.05 27.835C163.957 28.045 163.859 28.2167 163.755 28.35H166.265ZM168.055 28.325V30.47C168.055 30.5567 168.03 30.6233 167.98 30.67C167.934 30.72 167.872 30.745 167.795 30.745H167.25V29H162.99V30.49C162.99 30.5533 162.97 30.6117 162.93 30.665C162.894 30.7183 162.832 30.745 162.745 30.745H162.185V28.35H162.35C162.467 28.35 162.582 28.33 162.695 28.29C162.812 28.25 162.924 28.175 163.03 28.065C163.137 27.9517 163.237 27.7933 163.33 27.59C163.427 27.3867 163.514 27.1217 163.59 26.795C163.667 26.4683 163.734 26.0717 163.79 25.605C163.847 25.135 163.892 24.5783 163.925 23.935H167.13V28.325H168.055ZM172.259 25.915C172.259 25.7083 172.229 25.52 172.169 25.35C172.112 25.1767 172.027 25.0283 171.914 24.905C171.804 24.7783 171.669 24.6817 171.509 24.615C171.349 24.545 171.167 24.51 170.964 24.51C170.537 24.51 170.199 24.635 169.949 24.885C169.702 25.1317 169.549 25.475 169.489 25.915H172.259ZM172.979 28.29C172.869 28.4233 172.737 28.54 172.584 28.64C172.431 28.7367 172.266 28.8167 172.089 28.88C171.916 28.9433 171.736 28.99 171.549 29.02C171.362 29.0533 171.177 29.07 170.994 29.07C170.644 29.07 170.321 29.0117 170.024 28.895C169.731 28.775 169.476 28.6017 169.259 28.375C169.046 28.145 168.879 27.8617 168.759 27.525C168.639 27.1883 168.579 26.8017 168.579 26.365C168.579 26.0117 168.632 25.6817 168.739 25.375C168.849 25.0683 169.006 24.8033 169.209 24.58C169.412 24.3533 169.661 24.1767 169.954 24.05C170.247 23.92 170.577 23.855 170.944 23.855C171.247 23.855 171.527 23.9067 171.784 24.01C172.044 24.11 172.267 24.2567 172.454 24.45C172.644 24.64 172.792 24.8767 172.899 25.16C173.006 25.44 173.059 25.76 173.059 26.12C173.059 26.26 173.044 26.3533 173.014 26.4C172.984 26.4467 172.927 26.47 172.844 26.47H169.459C169.469 26.79 169.512 27.0683 169.589 27.305C169.669 27.5417 169.779 27.74 169.919 27.9C170.059 28.0567 170.226 28.175 170.419 28.255C170.612 28.3317 170.829 28.37 171.069 28.37C171.292 28.37 171.484 28.345 171.644 28.295C171.807 28.2417 171.947 28.185 172.064 28.125C172.181 28.065 172.277 28.01 172.354 27.96C172.434 27.9067 172.502 27.88 172.559 27.88C172.632 27.88 172.689 27.9083 172.729 27.965L172.979 28.29ZM176.817 26.3V24.535H175.967C175.777 24.535 175.617 24.5633 175.487 24.62C175.357 24.6733 175.252 24.7433 175.172 24.83C175.096 24.9133 175.041 25.0083 175.007 25.115C174.974 25.2183 174.957 25.3217 174.957 25.425C174.957 25.6983 175.057 25.9133 175.257 26.07C175.457 26.2233 175.731 26.3 176.077 26.3H176.817ZM177.667 23.935V29H176.817V26.865H176.427C176.334 26.865 176.256 26.8733 176.192 26.89C176.132 26.9033 176.079 26.9233 176.032 26.95C175.989 26.9767 175.951 27.0117 175.917 27.055C175.884 27.095 175.849 27.1417 175.812 27.195L174.702 28.69C174.646 28.7967 174.576 28.875 174.492 28.925C174.412 28.975 174.294 29 174.137 29H173.517L174.987 27.09C175.107 26.89 175.266 26.7567 175.462 26.69C175.206 26.6567 174.989 26.5967 174.812 26.51C174.636 26.4233 174.491 26.3217 174.377 26.205C174.267 26.085 174.187 25.9533 174.137 25.81C174.087 25.6667 174.062 25.5217 174.062 25.375C174.062 25.2017 174.096 25.0283 174.162 24.855C174.232 24.6817 174.342 24.5283 174.492 24.395C174.642 24.2583 174.836 24.1483 175.072 24.065C175.312 23.9783 175.602 23.935 175.942 23.935H177.667ZM183.294 24.615H181.349V29H180.459V24.615H178.514V23.935H183.294V24.615ZM187.327 25.915C187.327 25.7083 187.297 25.52 187.237 25.35C187.181 25.1767 187.096 25.0283 186.982 24.905C186.872 24.7783 186.737 24.6817 186.577 24.615C186.417 24.545 186.236 24.51 186.032 24.51C185.606 24.51 185.267 24.635 185.017 24.885C184.771 25.1317 184.617 25.475 184.557 25.915H187.327ZM188.047 28.29C187.937 28.4233 187.806 28.54 187.652 28.64C187.499 28.7367 187.334 28.8167 187.157 28.88C186.984 28.9433 186.804 28.99 186.617 29.02C186.431 29.0533 186.246 29.07 186.062 29.07C185.712 29.07 185.389 29.0117 185.092 28.895C184.799 28.775 184.544 28.6017 184.327 28.375C184.114 28.145 183.947 27.8617 183.827 27.525C183.707 27.1883 183.647 26.8017 183.647 26.365C183.647 26.0117 183.701 25.6817 183.807 25.375C183.917 25.0683 184.074 24.8033 184.277 24.58C184.481 24.3533 184.729 24.1767 185.022 24.05C185.316 23.92 185.646 23.855 186.012 23.855C186.316 23.855 186.596 23.9067 186.852 24.01C187.112 24.11 187.336 24.2567 187.522 24.45C187.712 24.64 187.861 24.8767 187.967 25.16C188.074 25.44 188.127 25.76 188.127 26.12C188.127 26.26 188.112 26.3533 188.082 26.4C188.052 26.4467 187.996 26.47 187.912 26.47H184.527C184.537 26.79 184.581 27.0683 184.657 27.305C184.737 27.5417 184.847 27.74 184.987 27.9C185.127 28.0567 185.294 28.175 185.487 28.255C185.681 28.3317 185.897 28.37 186.137 28.37C186.361 28.37 186.552 28.345 186.712 28.295C186.876 28.2417 187.016 28.185 187.132 28.125C187.249 28.065 187.346 28.01 187.422 27.96C187.502 27.9067 187.571 27.88 187.627 27.88C187.701 27.88 187.757 27.9083 187.797 27.965L188.047 28.29ZM193.661 29H192.771V24.635H191.171C191.131 25.2783 191.071 25.835 190.991 26.305C190.911 26.7717 190.814 27.17 190.701 27.5C190.591 27.8267 190.466 28.0933 190.326 28.3C190.189 28.5033 190.044 28.6617 189.891 28.775C189.741 28.8883 189.584 28.965 189.421 29.005C189.261 29.045 189.101 29.065 188.941 29.065C188.657 29.065 188.516 29.02 188.516 28.93V28.365H188.776C188.889 28.365 189.004 28.345 189.121 28.305C189.237 28.265 189.351 28.1883 189.461 28.075C189.574 27.9617 189.682 27.8033 189.786 27.6C189.889 27.3933 189.982 27.1267 190.066 26.8C190.152 26.47 190.226 26.0717 190.286 25.605C190.349 25.135 190.397 24.5783 190.431 23.935H193.661V29ZM197.015 28.35C197.195 28.35 197.35 28.3283 197.48 28.285C197.614 28.2383 197.724 28.175 197.81 28.095C197.897 28.0117 197.962 27.915 198.005 27.805C198.049 27.695 198.07 27.575 198.07 27.445C198.07 27.325 198.052 27.2133 198.015 27.11C197.979 27.0033 197.917 26.91 197.83 26.83C197.747 26.75 197.637 26.6867 197.5 26.64C197.364 26.5933 197.197 26.57 197 26.57H195.925V28.35H197.015ZM197 25.92C197.35 25.92 197.644 25.9617 197.88 26.045C198.12 26.1283 198.312 26.24 198.455 26.38C198.602 26.52 198.707 26.6817 198.77 26.865C198.834 27.0483 198.865 27.2383 198.865 27.435C198.865 27.6617 198.825 27.8717 198.745 28.065C198.665 28.255 198.547 28.42 198.39 28.56C198.234 28.6967 198.04 28.805 197.81 28.885C197.58 28.9617 197.315 29 197.015 29H195.07V23.935H195.925V25.92H197ZM204.075 23.935V29H203.18V26.63H200.75V29H199.855V23.935H200.75V25.955H203.18V23.935H204.075ZM207.625 23.855C207.995 23.855 208.328 23.9167 208.625 24.04C208.922 24.1633 209.175 24.3383 209.385 24.565C209.595 24.7917 209.755 25.0667 209.865 25.39C209.978 25.71 210.035 26.0683 210.035 26.465C210.035 26.865 209.978 27.225 209.865 27.545C209.755 27.865 209.595 28.1383 209.385 28.365C209.175 28.5917 208.922 28.7667 208.625 28.89C208.328 29.01 207.995 29.07 207.625 29.07C207.252 29.07 206.915 29.01 206.615 28.89C206.318 28.7667 206.065 28.5917 205.855 28.365C205.645 28.1383 205.483 27.865 205.37 27.545C205.26 27.225 205.205 26.865 205.205 26.465C205.205 26.0683 205.26 25.71 205.37 25.39C205.483 25.0667 205.645 24.7917 205.855 24.565C206.065 24.3383 206.318 24.1633 206.615 24.04C206.915 23.9167 207.252 23.855 207.625 23.855ZM207.625 28.375C208.125 28.375 208.498 28.2083 208.745 27.875C208.992 27.5383 209.115 27.07 209.115 26.47C209.115 25.8667 208.992 25.3967 208.745 25.06C208.498 24.7233 208.125 24.555 207.625 24.555C207.372 24.555 207.15 24.5983 206.96 24.685C206.773 24.7717 206.617 24.8967 206.49 25.06C206.367 25.2233 206.273 25.425 206.21 25.665C206.15 25.9017 206.12 26.17 206.12 26.47C206.12 27.07 206.243 27.5383 206.49 27.875C206.74 28.2083 207.118 28.375 207.625 28.375ZM214.689 24.835C214.662 24.8717 214.636 24.9 214.609 24.92C214.582 24.94 214.546 24.95 214.499 24.95C214.449 24.95 214.394 24.93 214.334 24.89C214.274 24.8467 214.199 24.8 214.109 24.75C214.022 24.7 213.914 24.655 213.784 24.615C213.657 24.5717 213.501 24.55 213.314 24.55C213.064 24.55 212.844 24.595 212.654 24.685C212.464 24.7717 212.304 24.8983 212.174 25.065C212.047 25.2317 211.951 25.4333 211.884 25.67C211.821 25.9067 211.789 26.1717 211.789 26.465C211.789 26.7717 211.824 27.045 211.894 27.285C211.964 27.5217 212.062 27.7217 212.189 27.885C212.319 28.045 212.474 28.1683 212.654 28.255C212.837 28.3383 213.042 28.38 213.269 28.38C213.486 28.38 213.664 28.355 213.804 28.305C213.944 28.2517 214.059 28.1933 214.149 28.13C214.242 28.0667 214.319 28.01 214.379 27.96C214.442 27.9067 214.504 27.88 214.564 27.88C214.637 27.88 214.694 27.9083 214.734 27.965L214.984 28.29C214.874 28.4267 214.749 28.5433 214.609 28.64C214.469 28.7367 214.317 28.8183 214.154 28.885C213.994 28.9483 213.826 28.995 213.649 29.025C213.472 29.055 213.292 29.07 213.109 29.07C212.792 29.07 212.497 29.0117 212.224 28.895C211.954 28.7783 211.719 28.61 211.519 28.39C211.319 28.1667 211.162 27.8933 211.049 27.57C210.936 27.2467 210.879 26.8783 210.879 26.465C210.879 26.0883 210.931 25.74 211.034 25.42C211.141 25.1 211.294 24.825 211.494 24.595C211.697 24.3617 211.946 24.18 212.239 24.05C212.536 23.92 212.876 23.855 213.259 23.855C213.616 23.855 213.929 23.9133 214.199 24.03C214.472 24.1433 214.714 24.305 214.924 24.515L214.689 24.835ZM220.149 24.615H218.204V29H217.314V24.615H215.369V23.935H220.149V24.615ZM222.943 28.35C223.123 28.35 223.278 28.3283 223.408 28.285C223.541 28.2383 223.651 28.175 223.738 28.095C223.825 28.0117 223.89 27.915 223.933 27.805C223.976 27.695 223.998 27.575 223.998 27.445C223.998 27.325 223.98 27.2133 223.943 27.11C223.906 27.0033 223.845 26.91 223.758 26.83C223.675 26.75 223.565 26.6867 223.428 26.64C223.291 26.5933 223.125 26.57 222.928 26.57H221.853V28.35H222.943ZM222.928 25.92C223.278 25.92 223.571 25.9617 223.808 26.045C224.048 26.1283 224.24 26.24 224.383 26.38C224.53 26.52 224.635 26.6817 224.698 26.865C224.761 27.0483 224.793 27.2383 224.793 27.435C224.793 27.6617 224.753 27.8717 224.673 28.065C224.593 28.255 224.475 28.42 224.318 28.56C224.161 28.6967 223.968 28.805 223.738 28.885C223.508 28.9617 223.243 29 222.943 29H220.998V23.935H221.853V25.92H222.928Z" fill="#9A9A9A"/>
</svg>
