<svg width="23" height="36" viewBox="0 0 23 36" fill="none" xmlns="http://www.w3.org/2000/svg">
<path d="M13.9122 9.30785C13.0803 9.30785 12.3975 8.62505 12.3975 7.79306V4.77089C12.3975 3.9389 13.0803 3.2561 13.9122 3.2561C14.7442 3.2561 15.427 3.9389 15.427 4.77089V7.79306C15.427 8.62505 14.7442 9.30785 13.9122 9.30785Z" stroke="black"/>
<path d="M19.4566 14.8446C19.4566 17.9067 16.9743 20.389 13.9123 20.389C10.8502 20.389 8.36792 17.9067 8.36792 14.8446C8.36792 11.7826 10.8502 9.30029 13.9123 9.30029C16.9743 9.30029 19.4566 11.7826 19.4566 14.8446Z" stroke="black"/>
<path d="M12.3975 8.29297H15.4271V11.3225H12.3975V8.29297ZM17.9418 35.4999H9.8827C9.05071 35.4999 8.36792 34.8172 8.36792 33.9852V15.3447H19.4566V33.9852C19.4566 34.8172 18.7738 35.4999 17.9418 35.4999Z" fill="white" stroke="black"/>
<path d="M6.2118 23.3395L6.21213 23.3396L6.43376 23.4021L6.43424 23.4022C6.47103 23.4126 6.61756 23.504 6.74426 23.857C6.86037 24.1805 6.91702 24.6203 6.86887 25.0878C6.86887 25.0878 6.86887 25.0878 6.86886 25.0879L5.80089 35.3766C5.79795 35.3778 5.79469 35.379 5.79107 35.3803C5.72204 35.4051 5.58121 35.4201 5.39006 35.3664L0.865089 34.0941C0.674768 34.0405 0.562544 33.9543 0.516616 33.8971C0.514419 33.8944 0.51246 33.8918 0.510716 33.8895L4.96256 24.5515C5.16489 24.1274 5.44246 23.7815 5.71022 23.5659C6.00243 23.3307 6.1751 23.3292 6.2118 23.3395Z" stroke="black"/>
<mask id="path-5-inside-1_3_863" fill="white">
<path fill-rule="evenodd" clip-rule="evenodd" d="M15.7743 3.0948L21.9935 1.99847C22.2562 1.9513 22.4894 1.80216 22.6425 1.58361C22.7956 1.36506 22.856 1.09484 22.8105 0.831914C22.7636 0.569173 22.6145 0.335714 22.3959 0.182607C22.1773 0.0294995 21.9069 -0.0307928 21.644 0.0149191L11.7232 1.76375C11.6197 1.78234 11.5208 1.81675 11.4296 1.865C11.2081 1.98121 11.0371 2.17581 10.9505 2.41165C10.8599 2.66283 10.8724 2.93968 10.9853 3.18168C11.0982 3.42367 11.3023 3.61115 11.5529 3.70313L21.0194 7.14841C21.2706 7.23903 21.5474 7.22653 21.7894 7.11365C22.0314 7.00077 22.2189 6.79668 22.3109 6.54599C22.5003 6.02517 22.2293 5.4439 21.7085 5.25451L15.7743 3.0948Z"/>
</mask>
<path fill-rule="evenodd" clip-rule="evenodd" d="M15.7743 3.0948L21.9935 1.99847C22.2562 1.9513 22.4894 1.80216 22.6425 1.58361C22.7956 1.36506 22.856 1.09484 22.8105 0.831914C22.7636 0.569173 22.6145 0.335714 22.3959 0.182607C22.1773 0.0294995 21.9069 -0.0307928 21.644 0.0149191L11.7232 1.76375C11.6197 1.78234 11.5208 1.81675 11.4296 1.865C11.2081 1.98121 11.0371 2.17581 10.9505 2.41165C10.8599 2.66283 10.8724 2.93968 10.9853 3.18168C11.0982 3.42367 11.3023 3.61115 11.5529 3.70313L21.0194 7.14841C21.2706 7.23903 21.5474 7.22653 21.7894 7.11365C22.0314 7.00077 22.2189 6.79668 22.3109 6.54599C22.5003 6.02517 22.2293 5.4439 21.7085 5.25451L15.7743 3.0948Z" fill="white"/>
<path d="M21.9935 1.99847L22.1671 2.98329L22.1704 2.98272L21.9935 1.99847ZM15.7743 3.0948L15.6007 2.10998L11.9248 2.75796L15.4323 4.0345L15.7743 3.0948ZM22.6425 1.58361L21.8234 1.00996V1.00996L22.6425 1.58361ZM22.8105 0.831914L23.7959 0.66162L23.795 0.656072L22.8105 0.831914ZM22.3959 0.182607L21.8222 1.00171L21.8223 1.00171L22.3959 0.182607ZM21.644 0.0149191L21.4727 -0.970308L21.4704 -0.969897L21.644 0.0149191ZM11.7232 1.76375L11.5496 0.778931L11.5464 0.779509L11.7232 1.76375ZM11.4296 1.865L11.8942 2.75048L11.897 2.74903L11.4296 1.865ZM10.9505 2.41165L10.0117 2.0672L10.0099 2.07229L10.9505 2.41165ZM10.9853 3.18168L10.079 3.60441L10.079 3.60441L10.9853 3.18168ZM11.5529 3.70313L11.2085 4.64194L11.2109 4.64283L11.5529 3.70313ZM21.0194 7.14841L20.6774 8.08811L20.6801 8.08906L21.0194 7.14841ZM21.7894 7.11365L22.2122 8.0199L22.2122 8.0199L21.7894 7.11365ZM22.3109 6.54599L23.2497 6.89043L23.2507 6.88773L22.3109 6.54599ZM21.7085 5.25451L21.3665 6.19421L21.3667 6.1943L21.7085 5.25451ZM21.8199 1.01366L15.6007 2.10998L15.9479 4.07961L22.1671 2.98329L21.8199 1.01366ZM21.8234 1.00996C21.8218 1.01221 21.8194 1.01374 21.8167 1.01423L22.1704 2.98272C22.6929 2.88885 23.1571 2.59211 23.4616 2.15726L21.8234 1.00996ZM21.8251 1.00221C21.8256 1.00492 21.825 1.0077 21.8234 1.00996L23.4616 2.15726C23.7661 1.72241 23.8863 1.18476 23.7959 0.661623L21.8251 1.00221ZM21.8223 1.00171C21.8243 1.00314 21.8257 1.00531 21.8261 1.00776L23.795 0.656072C23.7015 0.133035 23.4047 -0.331706 22.9696 -0.636493L21.8223 1.00171ZM21.8152 1.00014C21.8177 0.999717 21.8202 1.00028 21.8222 1.00171L22.9696 -0.636491C22.5344 -0.94128 21.9962 -1.0613 21.4727 -0.970305L21.8152 1.00014ZM11.8968 2.74857L21.8176 0.999735L21.4704 -0.969897L11.5496 0.778936L11.8968 2.74857ZM11.897 2.74903C11.8979 2.74853 11.8989 2.74819 11.9 2.748L11.5464 0.779509C11.3405 0.816484 11.1437 0.884967 10.9621 0.980968L11.897 2.74903ZM11.8893 2.7561C11.8902 2.75368 11.892 2.75166 11.8942 2.75048L10.9649 0.979517C10.5242 1.21076 10.1839 1.59794 10.0117 2.0672L11.8893 2.7561ZM11.8915 2.75895C11.8904 2.75645 11.8902 2.7536 11.8912 2.75101L10.0099 2.07229C9.82956 2.57207 9.85443 3.1229 10.079 3.60441L11.8915 2.75895ZM11.8974 2.76432C11.8948 2.76337 11.8927 2.76144 11.8915 2.75895L10.079 3.60441C10.3036 4.08591 10.7097 4.45893 11.2085 4.64193L11.8974 2.76432ZM21.3614 6.20871L11.8949 2.76343L11.2109 4.64283L20.6774 8.08811L21.3614 6.20871ZM21.3667 6.20739C21.3642 6.20856 21.3614 6.20868 21.3588 6.20775L20.6801 8.08906C21.1798 8.26937 21.7307 8.2445 22.2122 8.0199L21.3667 6.20739ZM21.3721 6.20154C21.3711 6.20413 21.3692 6.20623 21.3667 6.20739L22.2122 8.0199C22.6937 7.7953 23.0667 7.38923 23.2497 6.89043L21.3721 6.20154ZM21.3667 6.1943C21.3676 6.19461 21.3676 6.1947 21.3672 6.19447C21.3669 6.19428 21.3667 6.19413 21.3668 6.19418C21.3671 6.19443 21.3684 6.19586 21.3697 6.19863C21.371 6.20141 21.3713 6.20342 21.3713 6.2039C21.3713 6.20404 21.3713 6.20388 21.3713 6.20358C21.3714 6.20322 21.3714 6.20336 21.3711 6.20424L23.2507 6.88773C23.6287 5.84829 23.0905 4.693 22.0502 4.31472L21.3667 6.1943ZM15.4323 4.0345L21.3665 6.19421L22.0505 4.31481L16.1163 2.1551L15.4323 4.0345Z" fill="black" mask="url(#path-5-inside-1_3_863)"/>
<path d="M5.77815 15.2838L5.77823 15.2841L5.78182 15.2968C6.03164 16.1815 6.30882 17.163 6.42627 18.4604C6.54429 19.7642 6.50004 21.3694 6.12823 23.5219L5.63553 23.4368L6.12833 23.5214C6.12201 23.5582 6.12381 23.596 6.1336 23.632C6.14339 23.6681 6.16094 23.7015 6.18502 23.7301C6.20909 23.7587 6.23912 23.7816 6.27299 23.7974C6.30659 23.813 6.34318 23.8212 6.38023 23.8213C6.44077 23.8209 6.49929 23.7994 6.54564 23.7605C6.59196 23.7215 6.62322 23.6676 6.63402 23.6081C7.40347 19.1463 6.78032 16.9454 6.27448 15.1588L6.27063 15.1452L6.27061 15.1451L6.26465 15.124C5.8864 13.7872 5.58372 12.7174 5.9522 11.0489C6.40323 9.00549 7.55081 7.74158 8.75768 6.99735C9.94814 6.26325 11.1953 6.03379 11.8975 6.03379C11.9653 6.03379 12.0303 6.00687 12.0782 5.95895C12.1261 5.91102 12.153 5.84603 12.153 5.77825C12.153 5.71047 12.1261 5.64547 12.0782 5.59755C12.0303 5.54963 11.9653 5.52271 11.8975 5.52271C9.79572 5.52271 6.33045 6.96467 5.45286 10.9381L5.77815 15.2838ZM5.77815 15.2838C5.39224 13.9201 5.05839 12.7255 5.45284 10.9381L5.77815 15.2838Z" stroke="black"/>
<path d="M14.4197 6.7856C14.4197 8.17856 13.2904 9.30778 11.8975 9.30778C10.5045 9.30778 9.37531 8.17856 9.37531 6.7856C9.37531 5.39264 10.5045 4.26343 11.8975 4.26343C13.2904 4.26343 14.4197 5.39264 14.4197 6.7856Z" fill="white" stroke="black"/>
<path d="M13.4123 6.78554C13.4123 7.62213 12.7341 8.30032 11.8975 8.30032C11.0609 8.30032 10.3827 7.62213 10.3827 6.78554C10.3827 5.94894 11.0609 5.27075 11.8975 5.27075C12.7341 5.27075 13.4123 5.94894 13.4123 6.78554Z" fill="white" stroke="black"/>
<path d="M16.4307 17.367H11.3938C10.8388 17.367 10.3827 16.9109 10.3827 16.356V14.3412C10.3827 13.7862 10.8388 13.3301 11.3938 13.3301H16.4307C16.9857 13.3301 17.4418 13.7862 17.4418 14.3412V16.356C17.4418 16.9109 16.9857 17.367 16.4307 17.367Z" fill="white" stroke="black"/>
</svg>
