<svg width="36" height="36" viewBox="0 0 36 36" fill="none" xmlns="http://www.w3.org/2000/svg">
<path d="M23.5048 21.4568L21.9739 11.6592L22.9416 0.628664C22.9558 0.467156 22.9015 0.307125 22.792 0.187594C22.6824 0.0679922 22.5278 0 22.3656 0H13.8576C13.6968 0 13.5433 0.0670078 13.4338 0.184852C13.3244 0.302695 13.269 0.460828 13.2811 0.621141L14.0869 11.4294C14.0631 11.4791 14.0458 11.5327 14.037 11.5895L12.4952 21.4568C12.4768 21.5755 12.4956 21.6971 12.5494 21.8047L17.4829 31.6718C17.5808 31.8677 17.7811 31.9914 18 31.9914C18.219 31.9914 18.4192 31.8677 18.5171 31.6718L23.4507 21.8046C23.5045 21.6971 23.5233 21.5755 23.5048 21.4568ZM21.7345 1.15629L20.8622 11.1006H15.222L14.4805 1.15629H21.7345ZM18 20.3512C17.1286 20.3512 16.4197 19.6423 16.4197 18.7709C16.4197 17.8995 17.1286 17.1906 18 17.1906C18.8714 17.1906 19.5803 17.8995 19.5803 18.7709C19.5803 19.6423 18.8714 20.3512 18 20.3512ZM18.5782 28.9641V21.4455C19.8103 21.1793 20.7366 20.0815 20.7366 18.7708C20.7366 17.2619 19.509 16.0342 18 16.0342C16.491 16.0342 15.2634 17.2619 15.2634 18.7709C15.2634 20.0815 16.1897 21.1794 17.4218 21.4455V28.9642L13.6661 21.4528L15.1029 12.2569H20.897L22.3339 21.4528L18.5782 28.9641Z" fill="black"/>
<path d="M29.409 31.7603H26.3255C26.0061 31.7603 25.7473 32.0191 25.7473 32.3384V33.302H10.2527V32.3384C10.2527 32.0191 9.99394 31.7603 9.67451 31.7603H6.59103C6.27167 31.7603 6.01285 32.0191 6.01285 32.3384V35.4219C6.01285 35.7412 6.2716 36.0001 6.59103 36.0001H9.67451C9.99387 36.0001 10.2527 35.7412 10.2527 35.4219V34.4584H25.7473V35.4219C25.7473 35.7412 26.0061 36.0001 26.3255 36.0001H29.409C29.7283 36.0001 29.9872 35.7412 29.9872 35.4219V32.3384C29.9872 32.0191 29.7283 31.7603 29.409 31.7603ZM9.09633 34.8438H7.16914V32.9166H9.09633V34.8438ZM28.8309 34.8438H26.9037V32.9166H28.8309V34.8438Z" fill="black"/>
<path d="M32.1841 17.8843C31.8648 17.8843 31.606 18.1432 31.606 18.4625C31.606 25.9648 25.5023 32.0685 17.9999 32.0685C10.4976 32.0685 4.39397 25.9648 4.39397 18.4625C4.39397 18.1432 4.13522 17.8843 3.81579 17.8843C3.49643 17.8843 3.23761 18.1432 3.23761 18.4625C3.23761 26.6024 9.85992 33.2248 17.9999 33.2248C26.1399 33.2248 32.7623 26.6024 32.7623 18.4625C32.7623 18.1432 32.5035 17.8843 32.1841 17.8843Z" fill="black"/>
</svg>
