<svg width="36" height="36" viewBox="0 0 36 36" fill="none" xmlns="http://www.w3.org/2000/svg">
<mask id="path-1-inside-1_3_877" fill="white">
<path d="M7.17597 1C6.05559 0.999462 4.8767 1.16527 3.63628 1.53436C3.63261 1.53561 3.62896 1.53689 3.62531 1.53821C3.6127 1.5423 3.60019 1.54675 3.58782 1.55154C3.57791 1.55523 3.56808 1.55914 3.55833 1.56326C3.54634 1.56853 3.53449 1.57414 3.5228 1.58007C3.51302 1.5848 3.50334 1.58976 3.49377 1.59494C3.48191 1.60162 3.47024 1.60864 3.45877 1.61599C3.45003 1.62145 3.44141 1.62711 3.43292 1.63295C3.42173 1.64085 3.41076 1.64908 3.40003 1.65761C3.39173 1.66401 3.38356 1.67059 3.37554 1.67735C3.36528 1.68623 3.35527 1.69541 3.34552 1.70487C3.33788 1.71215 3.33039 1.7196 3.32307 1.72722C3.31345 1.73735 3.30413 1.74776 3.2951 1.75844C3.28873 1.76584 3.2825 1.77337 3.27643 1.78103C3.26746 1.79266 3.25883 1.80456 3.25057 1.81672C3.24499 1.8247 3.23958 1.8328 3.23432 1.841C3.22687 1.85292 3.21976 1.86505 3.213 1.87738C3.20795 1.88637 3.20308 1.89547 3.19841 1.90467C3.19218 1.91727 3.1863 1.93004 3.18079 1.94298C3.17667 1.95233 3.17274 1.96176 3.169 1.97127C3.16415 1.9843 3.15966 1.99746 3.15554 2.01074C3.15226 2.02059 3.14919 2.03051 3.14632 2.0405C3.14139 2.058 3.1371 2.0757 3.13347 2.09353L1.44066 10.7241C1.40826 10.8896 1.43288 11.0614 1.51036 11.2105C1.58784 11.3595 1.71343 11.4768 1.8659 11.5423L8.06675 14.2078L10.4572 26.7058L1.64735 28.657C1.48846 28.6919 1.34588 28.7807 1.24289 28.9089C1.1399 29.0371 1.0826 29.1971 1.08036 29.3628L1.00007 35.2575C0.998491 35.3735 1.02397 35.4883 1.07439 35.5923C1.12482 35.6963 1.19876 35.7866 1.29012 35.8557C1.38148 35.9249 1.48765 35.9709 1.59987 35.99C1.71209 36.0091 1.82716 36.0008 1.9356 35.9656L13.0084 32.3571L14.8321 31.9965C14.8455 31.9968 14.8588 31.9977 14.8722 31.9977C15.6248 31.9977 16.3336 31.6321 16.8287 31.0363C17.3233 30.4409 17.5821 29.6649 17.5813 28.8656V28.8636C17.5818 28.3568 17.4776 27.8586 17.2755 27.4101L15.3649 17.3451L24.8733 21.4322C24.8772 21.4337 24.8811 21.4352 24.885 21.4366C24.8986 21.4421 24.9123 21.4472 24.9262 21.4518C24.935 21.4548 24.9438 21.4577 24.9527 21.4603C24.9662 21.4643 24.9799 21.4678 24.9937 21.4709C25.0041 21.4734 25.0146 21.4756 25.0252 21.4776C25.0373 21.4798 25.0495 21.4816 25.0617 21.4832C25.0738 21.4848 25.0859 21.4861 25.0981 21.4871C25.1089 21.4878 25.1198 21.4883 25.1306 21.4886C25.1442 21.4891 25.1578 21.4892 25.1714 21.4889C25.1806 21.4888 25.1897 21.4886 25.1989 21.4881L31.5043 21.0811C31.6323 21.0725 31.7557 21.0291 31.8616 20.9553C31.9676 20.8816 32.0522 20.7803 32.1068 20.6619L35.9262 12.4174L35.9268 12.4163C35.9268 12.4163 35.9268 12.4162 35.9268 12.4161C35.9273 12.4149 35.9278 12.4137 35.9283 12.4125C35.9727 12.319 35.997 12.217 35.9997 12.1132C36.0025 12.0094 35.9835 11.9061 35.9441 11.8104C35.9047 11.7146 35.8458 11.6285 35.7713 11.5577C35.6967 11.4869 35.6083 11.4331 35.5118 11.3999C34.9427 11.0811 34.3333 10.8438 33.7007 10.6947L10.4258 1.48456C10.4059 1.47676 10.3857 1.46986 10.3652 1.4639C9.35843 1.16766 8.29642 1.00062 7.17597 1ZM5.18416 2.05784C5.27977 2.05724 5.37453 2.07611 5.4629 2.11334L27.4433 11.0961C27.6003 11.1602 27.7302 11.2787 27.81 11.4309C27.8898 11.583 27.9144 11.759 27.8795 11.9278C27.8585 11.9637 27.8407 12.0014 27.826 12.0404L27.7628 12.1999C27.6695 12.3343 27.5346 12.4327 27.3798 12.4794C27.225 12.526 27.0592 12.5182 26.9093 12.4571L4.92902 3.47197C4.77374 3.40994 4.64447 3.29474 4.56339 3.14615C4.48232 2.99755 4.45448 2.82481 4.48466 2.65758C4.51485 2.49034 4.60117 2.33902 4.72881 2.22959C4.85646 2.12016 5.0174 2.05944 5.18416 2.05784ZM32.1962 11.953C32.5289 11.9559 32.8577 11.9922 33.1842 12.0612L34.2985 12.5022L32.5091 16.3652C32.578 16.0524 32.6132 15.7422 32.61 15.4514C32.6024 14.7783 32.3877 14.2219 32.0169 13.9434C31.6461 13.6648 31.1333 13.6751 30.6278 13.9626C30.503 14.0335 30.3779 14.1217 30.2569 14.2228C30.3033 14.1594 30.3469 14.0902 30.3844 14.0157C30.4916 13.8031 30.5544 13.5569 30.5523 13.3389C30.5498 13.1203 30.4808 12.9347 30.3585 12.8401C30.299 12.7933 30.2257 12.7687 30.1506 12.7703C30.0743 12.7715 29.9917 12.7959 29.912 12.8425C29.7527 12.9359 29.6036 13.1138 29.4962 13.3268C29.3891 13.5398 29.3261 13.7853 29.3286 14.0037C29.3309 14.2221 29.4001 14.4078 29.5223 14.5025C29.6445 14.5969 29.8094 14.5909 29.9688 14.4975C29.7105 14.7721 29.4739 15.1065 29.2814 15.478C28.9331 16.1499 28.7352 16.9271 28.7428 17.6002C28.7504 18.2733 28.9696 18.832 29.3405 19.1106C29.7112 19.3892 30.2192 19.3765 30.7247 19.089C31.0406 18.9093 31.3514 18.6251 31.6251 18.2733L30.9893 19.6454L26.2455 19.9538L29.0618 12.8319C30.1681 12.2348 31.1991 11.9444 32.1963 11.9531L32.1962 11.953ZM9.66188 14.8934L10.8725 15.4139L13.1202 26.1715C12.8914 26.0998 12.6534 26.0632 12.414 26.0628C12.2081 26.0628 12.0057 26.091 11.8101 26.1428L9.66188 14.8934ZM12.4857 16.1074L13.7722 16.6604L15.511 25.8204C15.303 25.7617 15.0882 25.7317 14.8724 25.7313C14.7482 25.7313 14.6255 25.7421 14.5046 25.7613L12.4858 16.1072L12.4857 16.1074ZM14.8723 27.2011C15.1643 27.2011 15.4966 27.3535 15.7396 27.646C15.9826 27.9385 16.1503 28.4084 16.1496 28.8636C16.1496 28.8642 16.1496 28.8649 16.1496 28.8656C16.1504 29.3208 15.9826 29.7906 15.7397 30.0831C15.6307 30.2147 15.4974 30.3232 15.3474 30.4024L14.883 30.4941C15.0423 30.0877 15.1237 29.646 15.1233 29.197V29.1951C15.1237 28.9066 15.0896 28.6191 15.0218 28.3389C15.0237 28.2808 15.0188 28.2226 15.0072 28.1656L14.8065 27.2053C14.8284 27.2036 14.8506 27.2011 14.8723 27.2011ZM12.414 27.5325C12.7061 27.5325 13.0384 27.685 13.2815 27.9775C13.5245 28.2701 13.692 28.7399 13.6914 29.1951C13.6914 29.1957 13.6914 29.1964 13.6914 29.197C13.692 29.6522 13.5243 30.1221 13.2814 30.4146C13.0384 30.7071 12.7061 30.8597 12.4139 30.8597C12.1219 30.8597 11.7915 30.7071 11.5485 30.4146C11.3056 30.1221 11.1359 29.6522 11.1365 29.197C11.1365 29.1964 11.1365 29.1957 11.1365 29.1951C11.1359 28.7399 11.3056 28.2701 11.5485 27.9775C11.7915 27.685 12.1219 27.5325 12.4139 27.5325H12.414ZM9.80612 28.3489C9.73986 28.6259 9.70656 28.91 9.70694 29.1951V29.197C9.70618 29.9964 9.96473 30.7724 10.4594 31.3677C10.5227 31.4441 10.5896 31.5165 10.6596 31.5849L2.45066 34.2601L2.50978 29.965L9.80612 28.3488V28.3489Z"/>
</mask>
<path d="M7.17597 1C6.05559 0.999462 4.8767 1.16527 3.63628 1.53436C3.63261 1.53561 3.62896 1.53689 3.62531 1.53821C3.6127 1.5423 3.60019 1.54675 3.58782 1.55154C3.57791 1.55523 3.56808 1.55914 3.55833 1.56326C3.54634 1.56853 3.53449 1.57414 3.5228 1.58007C3.51302 1.5848 3.50334 1.58976 3.49377 1.59494C3.48191 1.60162 3.47024 1.60864 3.45877 1.61599C3.45003 1.62145 3.44141 1.62711 3.43292 1.63295C3.42173 1.64085 3.41076 1.64908 3.40003 1.65761C3.39173 1.66401 3.38356 1.67059 3.37554 1.67735C3.36528 1.68623 3.35527 1.69541 3.34552 1.70487C3.33788 1.71215 3.33039 1.7196 3.32307 1.72722C3.31345 1.73735 3.30413 1.74776 3.2951 1.75844C3.28873 1.76584 3.2825 1.77337 3.27643 1.78103C3.26746 1.79266 3.25883 1.80456 3.25057 1.81672C3.24499 1.8247 3.23958 1.8328 3.23432 1.841C3.22687 1.85292 3.21976 1.86505 3.213 1.87738C3.20795 1.88637 3.20308 1.89547 3.19841 1.90467C3.19218 1.91727 3.1863 1.93004 3.18079 1.94298C3.17667 1.95233 3.17274 1.96176 3.169 1.97127C3.16415 1.9843 3.15966 1.99746 3.15554 2.01074C3.15226 2.02059 3.14919 2.03051 3.14632 2.0405C3.14139 2.058 3.1371 2.0757 3.13347 2.09353L1.44066 10.7241C1.40826 10.8896 1.43288 11.0614 1.51036 11.2105C1.58784 11.3595 1.71343 11.4768 1.8659 11.5423L8.06675 14.2078L10.4572 26.7058L1.64735 28.657C1.48846 28.6919 1.34588 28.7807 1.24289 28.9089C1.1399 29.0371 1.0826 29.1971 1.08036 29.3628L1.00007 35.2575C0.998491 35.3735 1.02397 35.4883 1.07439 35.5923C1.12482 35.6963 1.19876 35.7866 1.29012 35.8557C1.38148 35.9249 1.48765 35.9709 1.59987 35.99C1.71209 36.0091 1.82716 36.0008 1.9356 35.9656L13.0084 32.3571L14.8321 31.9965C14.8455 31.9968 14.8588 31.9977 14.8722 31.9977C15.6248 31.9977 16.3336 31.6321 16.8287 31.0363C17.3233 30.4409 17.5821 29.6649 17.5813 28.8656V28.8636C17.5818 28.3568 17.4776 27.8586 17.2755 27.4101L15.3649 17.3451L24.8733 21.4322C24.8772 21.4337 24.8811 21.4352 24.885 21.4366C24.8986 21.4421 24.9123 21.4472 24.9262 21.4518C24.935 21.4548 24.9438 21.4577 24.9527 21.4603C24.9662 21.4643 24.9799 21.4678 24.9937 21.4709C25.0041 21.4734 25.0146 21.4756 25.0252 21.4776C25.0373 21.4798 25.0495 21.4816 25.0617 21.4832C25.0738 21.4848 25.0859 21.4861 25.0981 21.4871C25.1089 21.4878 25.1198 21.4883 25.1306 21.4886C25.1442 21.4891 25.1578 21.4892 25.1714 21.4889C25.1806 21.4888 25.1897 21.4886 25.1989 21.4881L31.5043 21.0811C31.6323 21.0725 31.7557 21.0291 31.8616 20.9553C31.9676 20.8816 32.0522 20.7803 32.1068 20.6619L35.9262 12.4174L35.9268 12.4163C35.9268 12.4163 35.9268 12.4162 35.9268 12.4161C35.9273 12.4149 35.9278 12.4137 35.9283 12.4125C35.9727 12.319 35.997 12.217 35.9997 12.1132C36.0025 12.0094 35.9835 11.9061 35.9441 11.8104C35.9047 11.7146 35.8458 11.6285 35.7713 11.5577C35.6967 11.4869 35.6083 11.4331 35.5118 11.3999C34.9427 11.0811 34.3333 10.8438 33.7007 10.6947L10.4258 1.48456C10.4059 1.47676 10.3857 1.46986 10.3652 1.4639C9.35843 1.16766 8.29642 1.00062 7.17597 1ZM5.18416 2.05784C5.27977 2.05724 5.37453 2.07611 5.4629 2.11334L27.4433 11.0961C27.6003 11.1602 27.7302 11.2787 27.81 11.4309C27.8898 11.583 27.9144 11.759 27.8795 11.9278C27.8585 11.9637 27.8407 12.0014 27.826 12.0404L27.7628 12.1999C27.6695 12.3343 27.5346 12.4327 27.3798 12.4794C27.225 12.526 27.0592 12.5182 26.9093 12.4571L4.92902 3.47197C4.77374 3.40994 4.64447 3.29474 4.56339 3.14615C4.48232 2.99755 4.45448 2.82481 4.48466 2.65758C4.51485 2.49034 4.60117 2.33902 4.72881 2.22959C4.85646 2.12016 5.0174 2.05944 5.18416 2.05784ZM32.1962 11.953C32.5289 11.9559 32.8577 11.9922 33.1842 12.0612L34.2985 12.5022L32.5091 16.3652C32.578 16.0524 32.6132 15.7422 32.61 15.4514C32.6024 14.7783 32.3877 14.2219 32.0169 13.9434C31.6461 13.6648 31.1333 13.6751 30.6278 13.9626C30.503 14.0335 30.3779 14.1217 30.2569 14.2228C30.3033 14.1594 30.3469 14.0902 30.3844 14.0157C30.4916 13.8031 30.5544 13.5569 30.5523 13.3389C30.5498 13.1203 30.4808 12.9347 30.3585 12.8401C30.299 12.7933 30.2257 12.7687 30.1506 12.7703C30.0743 12.7715 29.9917 12.7959 29.912 12.8425C29.7527 12.9359 29.6036 13.1138 29.4962 13.3268C29.3891 13.5398 29.3261 13.7853 29.3286 14.0037C29.3309 14.2221 29.4001 14.4078 29.5223 14.5025C29.6445 14.5969 29.8094 14.5909 29.9688 14.4975C29.7105 14.7721 29.4739 15.1065 29.2814 15.478C28.9331 16.1499 28.7352 16.9271 28.7428 17.6002C28.7504 18.2733 28.9696 18.832 29.3405 19.1106C29.7112 19.3892 30.2192 19.3765 30.7247 19.089C31.0406 18.9093 31.3514 18.6251 31.6251 18.2733L30.9893 19.6454L26.2455 19.9538L29.0618 12.8319C30.1681 12.2348 31.1991 11.9444 32.1963 11.9531L32.1962 11.953ZM9.66188 14.8934L10.8725 15.4139L13.1202 26.1715C12.8914 26.0998 12.6534 26.0632 12.414 26.0628C12.2081 26.0628 12.0057 26.091 11.8101 26.1428L9.66188 14.8934ZM12.4857 16.1074L13.7722 16.6604L15.511 25.8204C15.303 25.7617 15.0882 25.7317 14.8724 25.7313C14.7482 25.7313 14.6255 25.7421 14.5046 25.7613L12.4858 16.1072L12.4857 16.1074ZM14.8723 27.2011C15.1643 27.2011 15.4966 27.3535 15.7396 27.646C15.9826 27.9385 16.1503 28.4084 16.1496 28.8636C16.1496 28.8642 16.1496 28.8649 16.1496 28.8656C16.1504 29.3208 15.9826 29.7906 15.7397 30.0831C15.6307 30.2147 15.4974 30.3232 15.3474 30.4024L14.883 30.4941C15.0423 30.0877 15.1237 29.646 15.1233 29.197V29.1951C15.1237 28.9066 15.0896 28.6191 15.0218 28.3389C15.0237 28.2808 15.0188 28.2226 15.0072 28.1656L14.8065 27.2053C14.8284 27.2036 14.8506 27.2011 14.8723 27.2011ZM12.414 27.5325C12.7061 27.5325 13.0384 27.685 13.2815 27.9775C13.5245 28.2701 13.692 28.7399 13.6914 29.1951C13.6914 29.1957 13.6914 29.1964 13.6914 29.197C13.692 29.6522 13.5243 30.1221 13.2814 30.4146C13.0384 30.7071 12.7061 30.8597 12.4139 30.8597C12.1219 30.8597 11.7915 30.7071 11.5485 30.4146C11.3056 30.1221 11.1359 29.6522 11.1365 29.197C11.1365 29.1964 11.1365 29.1957 11.1365 29.1951C11.1359 28.7399 11.3056 28.2701 11.5485 27.9775C11.7915 27.685 12.1219 27.5325 12.4139 27.5325H12.414ZM9.80612 28.3489C9.73986 28.6259 9.70656 28.91 9.70694 29.1951V29.197C9.70618 29.9964 9.96473 30.7724 10.4594 31.3677C10.5227 31.4441 10.5896 31.5165 10.6596 31.5849L2.45066 34.2601L2.50978 29.965L9.80612 28.3488V28.3489Z" stroke="black" stroke-width="2" stroke-linejoin="round" mask="url(#path-1-inside-1_3_877)"/>
</svg>
