<svg width="36" height="36" viewBox="0 0 36 36" fill="none" xmlns="http://www.w3.org/2000/svg">
<g clip-path="url(#clip0_3_744)">
<path d="M35.7938 5.62876C35.5196 5.35454 35.0738 5.35454 34.7996 5.62876C34.5247 5.90368 34.5247 6.34876 34.7996 6.62298C35.0738 6.8979 35.5196 6.8979 35.7938 6.62298C36.0687 6.34876 36.0687 5.90368 35.7938 5.62876Z" fill="black"/>
<path d="M33.8053 1.65122C33.5304 1.377 33.0853 1.377 32.8104 1.65122C32.5362 1.92614 32.5362 2.37122 32.8104 2.64544C33.0853 2.92036 33.5304 2.92036 33.8053 2.64544C34.0796 2.37122 34.0796 1.92614 33.8053 1.65122Z" fill="black"/>
<path d="M28.8335 0.65708C28.5586 0.382861 28.1135 0.382861 27.8386 0.65708C27.5644 0.932003 27.5644 1.37708 27.8386 1.6513C28.1135 1.92622 28.5586 1.92622 28.8335 1.6513C29.1078 1.37708 29.1078 0.932003 28.8335 0.65708Z" fill="black"/>
<path d="M4.21719 31.3316C3.94227 31.0574 3.49719 31.0574 3.22227 31.3316C2.94805 31.6065 2.94805 32.0516 3.22227 32.3265C3.49719 32.6007 3.94227 32.6007 4.21719 32.3265C4.49134 32.0516 4.49134 31.6065 4.21719 31.3316Z" fill="black"/>
<path d="M9.93384 25.5099C9.65589 25.2388 9.21074 25.2442 8.93955 25.5221L5.20524 29.3492C4.93405 29.6271 4.93953 30.0723 5.21741 30.3435C5.35417 30.4769 5.53135 30.5434 5.7084 30.5434C5.89128 30.5434 6.07396 30.4726 6.2117 30.3313L9.946 26.5042C10.2172 26.2263 10.2116 25.7812 9.93384 25.5099Z" fill="black"/>
<path d="M32.8106 16.5672L30.3305 14.0872C30.3268 14.0834 30.3231 14.0797 30.3193 14.0759L27.3467 11.1034C27.3433 11.0999 27.3398 11.0964 27.3363 11.093L24.364 8.12067C24.3606 8.11723 24.3572 8.11378 24.3537 8.11041L21.3806 5.13724C21.3773 5.13386 21.3739 5.13049 21.3704 5.12711L18.8895 2.64613C18.7576 2.51429 18.5787 2.44019 18.3923 2.44019C18.2058 2.44019 18.0269 2.51429 17.8951 2.64613L9.9407 10.6003L8.94542 11.595C7.57517 12.9661 7.57524 15.1964 8.94556 16.5668L10.9348 18.5559C11.0675 18.6887 11.1407 18.8651 11.1407 19.0529C11.1407 19.2406 11.0675 19.4172 10.9348 19.5499L9.95384 20.5308L1.43617 28.1591C1.43582 28.1594 1.43554 28.1598 1.43519 28.1601C1.36305 28.2238 1.29695 28.2856 1.23367 28.3488C-0.411223 29.9937 -0.411223 32.6702 1.23367 34.3151C2.02926 35.1106 3.08866 35.5488 4.21675 35.5488C5.34478 35.5488 6.40425 35.1107 7.1997 34.3152C7.26403 34.251 7.32738 34.1832 7.39341 34.1083C7.39355 34.1082 7.39369 34.1079 7.39383 34.1077C7.39418 34.1074 7.39453 34.107 7.39481 34.1067L14.9289 25.4997L15.9067 24.5219C16.1807 24.2478 16.6267 24.2479 16.9008 24.5219L18.8897 26.5101C19.5537 27.1746 20.4365 27.5405 21.3755 27.5405C22.3145 27.5405 23.1973 27.1746 23.861 26.5105L24.8561 25.5161L32.8105 17.5616C33.0851 17.287 33.0851 16.8418 32.8106 16.5672ZM6.33682 33.1804C6.29119 33.2321 6.2483 33.278 6.20555 33.3207C5.67553 33.8507 4.96931 34.1425 4.21682 34.1425C3.46434 34.1425 2.75812 33.8507 2.22817 33.3207C1.13158 32.2241 1.13158 30.4398 2.22803 29.3434C2.2717 29.2998 2.31817 29.2564 2.37013 29.2105C2.37084 29.2099 2.37147 29.2092 2.37217 29.2086C2.37295 29.2079 2.37372 29.2074 2.37449 29.2067L10.4112 22.0091L13.453 25.0509L6.33682 33.1804ZM22.8667 25.5162C22.4684 25.9148 21.9388 26.1343 21.3756 26.1343C20.8124 26.1343 20.2828 25.9148 19.8842 25.5159L17.8952 23.5275C17.0729 22.7052 15.7347 22.7053 14.9124 23.5275L14.4153 24.0245L11.4322 21.0414L11.9291 20.5444C12.3275 20.146 12.5469 19.6163 12.5469 19.053C12.5469 18.4896 12.3275 17.9599 11.9291 17.5615L9.93999 15.5724C9.11776 14.7502 9.11783 13.4118 9.93978 12.5894L10.4375 12.092L23.3644 25.0188L22.8667 25.5162ZM24.359 24.0246L11.4321 11.0977L18.3921 4.13767L19.884 5.6295L16.4037 9.1092C16.1291 9.3837 16.1291 9.82892 16.4036 10.1036C16.5409 10.2409 16.7209 10.3096 16.9009 10.3096C17.0808 10.3096 17.2607 10.2409 17.398 10.1036L20.8784 6.62386L22.8674 8.61286L19.3871 12.0926C19.1124 12.3671 19.1124 12.8123 19.387 13.0869C19.5243 13.2242 19.7042 13.2929 19.8842 13.2929C20.0642 13.2929 20.2441 13.2242 20.3813 13.087L23.8618 9.60722L25.8501 11.5955L22.3698 15.0752C22.0951 15.3497 22.0951 15.7949 22.3697 16.0696C22.507 16.2069 22.687 16.2756 22.867 16.2756C23.0469 16.2756 23.2268 16.2069 23.3641 16.0697L26.8444 12.5899L28.8334 14.5789L25.3532 18.0586C25.0785 18.3331 25.0785 18.7783 25.3531 19.053C25.4904 19.1903 25.6703 19.259 25.8503 19.259C26.0303 19.259 26.2102 19.1903 26.3474 19.053L29.8279 15.5732L31.3191 17.0645L24.359 24.0246Z" fill="black"/>
<path d="M26.8446 2.64606C26.57 2.37156 26.1248 2.37156 25.8501 2.64606L23.8617 4.6345C23.5871 4.90907 23.5871 5.35429 23.8617 5.62893C23.9991 5.76618 24.179 5.83488 24.3589 5.83488C24.5389 5.83488 24.7189 5.76618 24.8561 5.62893L26.8446 3.64049C27.1191 3.36592 27.1191 2.9207 26.8446 2.64606Z" fill="black"/>
<path d="M22.8669 0.657021C22.5923 0.382591 22.1471 0.38252 21.8725 0.657021L20.8783 1.65124C20.6037 1.92581 20.6037 2.37103 20.8783 2.64567C21.0156 2.78299 21.1956 2.85162 21.3755 2.85162C21.5554 2.85162 21.7354 2.78292 21.8727 2.64567L22.8669 1.65145C23.1415 1.37688 23.1415 0.931662 22.8669 0.657021Z" fill="black"/>
<path d="M31.8163 3.64045C31.5417 3.36595 31.0965 3.36595 30.8219 3.64045L26.8443 7.61803C26.5698 7.8926 26.5698 8.33789 26.8444 8.61246C26.9817 8.74971 27.1616 8.81841 27.3415 8.81841C27.5215 8.81841 27.7015 8.74971 27.8387 8.61246L31.8163 4.63488C32.0909 4.36031 32.0909 3.91509 31.8163 3.64045Z" fill="black"/>
<path d="M33.8055 7.61813C33.531 7.34342 33.0858 7.34349 32.8112 7.61799L29.8278 10.6007C29.5532 10.8752 29.5532 11.3204 29.8277 11.5951C29.9651 11.7324 30.145 11.8011 30.325 11.8011C30.5049 11.8011 30.6849 11.7324 30.8221 11.5952L33.8055 8.61257C34.08 8.33799 34.08 7.89285 33.8055 7.61813Z" fill="black"/>
<path d="M34.7997 12.5897C34.5252 12.3152 34.0799 12.3152 33.8054 12.5897L32.8112 13.5839C32.5366 13.8585 32.5366 14.3037 32.8112 14.5783C32.9485 14.7156 33.1284 14.7843 33.3083 14.7843C33.4883 14.7843 33.6683 14.7156 33.8055 14.5783L34.7997 13.5841C35.0743 13.3095 35.0743 12.8643 34.7997 12.5897Z" fill="black"/>
</g>
<defs>
<clipPath id="clip0_3_744">
<rect width="36" height="36" fill="white"/>
</clipPath>
</defs>
</svg>
