<svg width="36" height="36" viewBox="0 0 36 36" fill="none" xmlns="http://www.w3.org/2000/svg">
<path d="M35.1223 23.0429H34.769V21.4918C36.1667 20.0774 36.0077 17.5537 35.9812 17.2336V14.5912C35.9812 13.7404 35.289 13.0483 34.4383 13.0483H34.3791C34.1101 13.0483 33.8568 13.1175 33.6364 13.239C33.3534 12.8838 32.9173 12.6556 32.4289 12.6556H32.3696C32.1091 12.6556 31.8615 12.7196 31.6437 12.835C31.3605 12.4989 30.9364 12.2849 30.4634 12.2849H30.4042C30.1884 12.2849 29.981 12.3294 29.7919 12.411C29.5156 11.9927 29.0411 11.7161 28.5033 11.7161H28.4441C27.5933 11.7161 26.9012 12.4083 26.9012 13.2591V14.746C26.2814 14.6795 25.7972 14.7978 25.431 15.1044C24.6369 15.769 24.7168 17.0879 24.7941 18.3634C24.8997 20.1044 26.4517 21.565 27.0498 22.0662V23.0429H26.7518C26.4381 23.0429 26.1839 23.297 26.1839 23.6108V26.5322V35.2913C26.1839 35.605 26.4381 35.8592 26.7518 35.8592H35.1225C35.4362 35.8592 35.6904 35.605 35.6904 35.2913V26.5323V23.6109C35.6903 23.2973 35.4361 23.0429 35.1223 23.0429ZM25.9278 18.2947C25.8731 17.3937 25.8052 16.2723 26.1599 15.9755C26.2917 15.8651 26.55 15.8369 26.9011 15.8919V16.6633C26.9011 16.977 27.1553 17.2312 27.469 17.2312C27.7828 17.2312 28.0369 16.977 28.0369 16.6633V13.2592C28.0369 13.0347 28.2195 12.852 28.444 12.852H28.5033C28.7278 12.852 28.9104 13.0347 28.9104 13.2592V13.5227V15.4518C28.9104 15.7655 29.1646 16.0197 29.4784 16.0197C29.7921 16.0197 30.0463 15.7655 30.0463 15.4518V13.6352C30.1162 13.505 30.2523 13.421 30.4041 13.421H30.4634C30.6879 13.421 30.8705 13.6037 30.8705 13.8282V13.9084V15.4519C30.8705 15.7656 31.1247 16.0198 31.4385 16.0198C31.7522 16.0198 32.0064 15.7656 32.0064 15.4519V14.0143C32.0746 13.879 32.2132 13.7918 32.3695 13.7918H32.4287C32.6532 13.7918 32.8358 13.9745 32.8358 14.1989V14.5917V15.7307C32.8358 16.0444 33.09 16.2986 33.4037 16.2986C33.7174 16.2986 33.9716 16.0444 33.9716 15.7307V14.5917C33.9716 14.3673 34.1544 14.1846 34.3789 14.1846H34.4382C34.6626 14.1846 34.8452 14.3673 34.8452 14.5917V17.259C34.8452 17.2771 34.8462 17.2953 34.8478 17.3134C34.9134 17.9923 34.8588 19.944 33.8341 20.8115C33.7065 20.9194 33.6331 21.0779 33.6331 21.245V23.0435H28.1854V21.794C28.1854 21.6144 28.1002 21.4452 27.9566 21.3381C27.9372 21.3236 26.0238 19.8783 25.9278 18.2947ZM34.5544 34.7235H27.3196V27.1003H34.5544V34.7235ZM34.5544 25.9644H27.3196V24.1788H27.6175H34.2011H34.5544V25.9644Z" fill="black"/>
<path d="M24.1269 9.37793L26.7251 10.4752C26.9124 10.5543 27.1098 10.5939 27.3072 10.5939C27.4978 10.5939 27.6885 10.5571 27.8702 10.4832C28.2406 10.3328 28.5303 10.0471 28.6857 9.67901L29.0017 8.93074C29.1572 8.56258 29.1601 8.15582 29.0097 7.78549C28.8593 7.41515 28.5736 7.1256 28.2046 6.96986L25.1205 5.67358L25.263 5.15797C25.2649 5.15122 25.2667 5.14447 25.2682 5.13772C25.3635 4.73666 25.2968 4.32266 25.0806 3.97187C24.8644 3.62094 24.5245 3.37534 24.124 3.2802L24.0658 3.26635C23.8038 3.20413 23.5417 3.21299 23.2991 3.28042C23.1059 2.8693 22.7343 2.54656 22.2589 2.43357L22.2015 2.41993C21.9484 2.35981 21.6928 2.3648 21.4546 2.42668C21.4347 2.3873 21.413 2.3487 21.3897 2.31073C21.1734 1.9598 20.8335 1.7142 20.433 1.61907L20.3748 1.60522C20.1653 1.55537 19.9535 1.55051 19.7511 1.58637C19.7154 1.48906 19.6697 1.3947 19.6141 1.30442C19.3979 0.953489 19.058 0.707817 18.6562 0.612402L18.5994 0.598973C18.1982 0.503699 17.7842 0.570355 17.4334 0.786567C17.0851 1.00116 16.8406 1.33754 16.7439 1.73466L16.6428 2.11027L12.6436 0.42973C12.6416 0.428816 12.6395 0.428324 12.6374 0.42748C12.6267 0.423191 12.6159 0.419464 12.605 0.415738C12.5978 0.413347 12.5905 0.410746 12.5833 0.408636C12.574 0.405894 12.5646 0.403714 12.5551 0.401394C12.5456 0.399214 12.5362 0.396894 12.5266 0.395207C12.519 0.3938 12.5114 0.392816 12.5037 0.391621C12.4921 0.389863 12.4804 0.388527 12.4689 0.387613C12.4659 0.387402 12.4631 0.386769 12.4601 0.386558L8.65731 0.141659C8.41804 0.125698 8.19859 0.260417 8.10198 0.477402C8.00537 0.694457 8.05396 0.948708 8.22397 1.11472L10.8972 3.72563C10.8981 3.72655 10.8989 3.72732 10.8998 3.72824L10.9011 3.7295C10.9027 3.73112 10.9044 3.73231 10.906 3.73379C10.917 3.74441 10.9286 3.75467 10.9406 3.76445C10.9465 3.76923 10.9525 3.77338 10.9585 3.77795C10.965 3.78273 10.9711 3.78779 10.9778 3.79236C10.9795 3.79356 10.9814 3.7944 10.983 3.7956C10.9927 3.80214 11.0027 3.80797 11.0128 3.81374C11.0852 3.86014 11.1609 3.90184 11.2399 3.9351L13.672 4.96222C13.4926 5.48886 13.3832 6.11451 13.2851 6.67799C12.9747 8.45845 14.2451 10.305 14.6721 10.8652L14.674 13.4473H14.2013C13.8875 13.4473 13.6333 13.7015 13.6333 14.0153V16.9368V35.2916C13.6333 35.6053 13.8875 35.8595 14.2013 35.8595H22.572C22.8857 35.8595 23.1399 35.6053 23.1399 35.2916V21.0797C23.1399 20.766 22.8857 20.5118 22.572 20.5118C22.2582 20.5118 22.0041 20.766 22.0041 21.0797V34.7236H14.7692V17.5047H22.0041V18.4514V19.0824C22.0041 19.3961 22.2582 19.6503 22.572 19.6503C22.8857 19.6503 23.1399 19.3961 23.1399 19.0824V18.4514V16.9368V14.0153C23.1399 13.7015 22.8857 13.4473 22.572 13.4473H22.3338L22.339 11.9801C23.2982 11.3448 23.8366 10.2412 24.1269 9.37793ZM27.1407 7.75497L27.7637 8.01674C27.8524 8.05408 27.9211 8.12383 27.9574 8.21292C27.9936 8.30214 27.9929 8.40009 27.9555 8.48875L27.6394 9.23716C27.602 9.32582 27.5322 9.39459 27.443 9.4308C27.3539 9.46708 27.2558 9.46638 27.1672 9.4289L26.503 9.14843L27.1407 7.75497ZM24.429 8.17396L24.8153 6.77755L26.0931 7.31453L25.4562 8.7063L24.4137 8.26614C24.4205 8.22775 24.4255 8.1966 24.429 8.17396ZM11.1259 2.36143L10.1147 1.37375L11.5511 1.46628L11.1259 2.36143ZM12.0576 3.0474L12.7037 1.68713L16.3448 3.21734L15.9483 4.69046L12.0576 3.0474ZM22.004 16.3689H14.7692V14.5832H22.0041V16.3689H22.004ZM21.5151 11.1478C21.325 11.2443 21.2048 11.4391 21.2041 11.6524L21.198 13.3889H15.8097L15.8076 10.6673C15.8075 10.5343 15.7602 10.4048 15.6748 10.3027C15.6595 10.284 14.1316 8.43581 14.404 6.87311C14.49 6.38029 14.5852 5.83508 14.7216 5.40547L15.7486 5.8393C15.8104 6.00545 15.9486 6.14045 16.1329 6.19009C16.4352 6.27144 16.7474 6.09215 16.8288 5.78931L17.8425 2.02294C17.8441 2.01746 17.8454 2.01198 17.8467 2.00649C17.8719 1.90081 17.9365 1.81102 18.0292 1.75393C18.1217 1.6969 18.2309 1.6794 18.3376 1.70471L18.3945 1.71814C18.5002 1.74331 18.59 1.80807 18.647 1.90074C18.7041 1.99334 18.7216 2.10254 18.6964 2.20857L18.6388 2.4515L17.9697 4.76957C17.8827 5.071 18.0565 5.38579 18.3579 5.47276C18.4105 5.48788 18.4635 5.49519 18.5157 5.49519C18.7623 5.49519 18.9893 5.33326 19.061 5.08464L19.7075 2.84476C19.8053 2.72825 19.9609 2.67467 20.1117 2.71067L20.1699 2.72452C20.2758 2.7497 20.3654 2.81445 20.4225 2.90713C20.4785 2.99804 20.496 3.10506 20.4727 3.20933L19.8777 5.21886C19.7887 5.51966 19.9603 5.83565 20.2611 5.92459C20.3149 5.94048 20.3692 5.94815 20.4226 5.94815C20.6676 5.94815 20.8938 5.78833 20.9669 5.54125L21.5176 3.68092C21.6137 3.54978 21.7775 3.48699 21.9389 3.52553L21.9964 3.53917C22.2148 3.59113 22.3503 3.81092 22.2984 4.02946L22.2124 4.39206L21.7281 5.93528C21.6343 6.23453 21.8008 6.55326 22.1 6.6472C22.1566 6.66491 22.2139 6.67342 22.2702 6.67342C22.5118 6.67342 22.7357 6.51803 22.8119 6.27531L23.3022 4.71275C23.3043 4.70586 23.3057 4.69897 23.3075 4.69208C23.3093 4.68604 23.3114 4.6802 23.3128 4.67401C23.3647 4.45562 23.5845 4.31999 23.8026 4.37195L23.8608 4.3858C24.0765 4.43706 24.2113 4.65222 24.1646 4.86793L23.3247 7.90502C23.3181 7.92871 23.313 7.95374 23.3096 7.978C23.3062 8.00205 22.9501 10.4202 21.5151 11.1478Z" fill="black"/>
<path d="M11.2338 20.3658V17.7236C11.2338 16.8728 10.5416 16.1806 9.69083 16.1806H9.63156C9.36254 16.1806 9.10935 16.2498 8.88892 16.3714C8.60598 16.0161 8.16976 15.7879 7.68137 15.7879H7.62209C7.36165 15.7879 7.11408 15.852 6.89633 15.9675C6.61304 15.6312 6.18898 15.4172 5.71592 15.4172H5.65664C5.44099 15.4172 5.23357 15.4617 5.0445 15.5433C4.76824 15.125 4.29377 14.8484 3.75595 14.8484H3.69668C2.84583 14.8484 2.15367 15.5406 2.15367 16.3914V17.8784C1.53379 17.8115 1.04997 17.9302 0.683641 18.2367C-0.11047 18.9012 -0.0305948 20.2202 0.0467491 21.4958C0.152288 23.2368 1.70416 24.6974 2.30224 25.1986V26.1753H2.00432C1.69059 26.1753 1.43641 26.4294 1.43641 26.7432V29.6647V35.2916C1.43641 35.6053 1.69059 35.8595 2.00432 35.8595H10.3751C10.6888 35.8595 10.943 35.6053 10.943 35.2916V29.6647V26.7432C10.943 26.4294 10.6888 26.1753 10.3751 26.1753H10.0218V24.6241C11.4193 23.2097 11.2603 20.6859 11.2338 20.3658ZM9.80706 34.7235H2.5721V30.2325H9.80706V34.7235ZM9.80706 29.0968H2.5721V27.3111H2.86994H9.45367H9.80706V29.0968ZM9.08677 23.9433C8.95923 24.0513 8.88582 24.2097 8.88582 24.3769V26.1753H3.43786V26.1753V24.9257C3.43786 24.7459 3.35271 24.5768 3.20843 24.4698C2.67145 24.0712 1.26042 22.7479 1.1804 21.427C1.1257 20.526 1.05777 19.4045 1.4125 19.1077C1.54413 18.9975 1.80274 18.9693 2.15353 19.024V19.7954C2.15353 20.1092 2.40771 20.3634 2.72144 20.3634C3.03518 20.3634 3.28936 20.1092 3.28936 19.7954V16.3912C3.28936 16.1667 3.47203 15.984 3.69654 15.984H3.75588C3.98039 15.984 4.16306 16.1667 4.16306 16.3912V16.6547V18.5837C4.16306 18.8975 4.41724 19.1517 4.73098 19.1517C5.04471 19.1517 5.29889 18.8975 5.29889 18.5837V16.7672C5.36892 16.6369 5.50484 16.5529 5.65657 16.5529H5.71585C5.94035 16.5529 6.12303 16.7356 6.12303 16.9601V17.0405V18.5839C6.12303 18.8976 6.37721 19.1518 6.69094 19.1518C7.00468 19.1518 7.25886 18.8976 7.25886 18.5839V17.1463C7.3272 17.0109 7.46572 16.9237 7.62195 16.9237H7.68123C7.90573 16.9237 8.08841 17.1064 8.08841 17.3308V17.7237V18.8627C8.08841 19.1764 8.34259 19.4306 8.65632 19.4306C8.97006 19.4306 9.22424 19.1763 9.22424 18.8627V17.7236C9.22424 17.4991 9.40691 17.3164 9.63142 17.3164H9.69069C9.9152 17.3164 10.0979 17.4991 10.0979 17.7236V20.3907C10.0979 20.4089 10.0988 20.4271 10.1005 20.4452C10.1661 21.1241 10.1115 23.0759 9.08677 23.9433Z" fill="black"/>
</svg>
