<svg width="36" height="36" viewBox="0 0 36 36" fill="none" xmlns="http://www.w3.org/2000/svg">
<path d="M33.9481 27.1844C33.2004 26.6583 32.3375 26.3756 31.4659 26.3295C28.1809 24.1783 26.029 22.5637 24.7727 21.3073L20.9134 17.4481L23.2553 14.8266C23.6992 15.0771 24.1759 15.2422 24.6527 15.3103C25.0125 15.3703 25.2524 15.3703 25.4923 15.3703C25.9721 15.3703 26.092 15.3703 26.5718 15.79C26.3319 15.9699 26.2119 16.2698 26.2119 16.5696C26.2119 16.8694 26.3319 17.2293 26.5718 17.4692L28.6707 19.5681C28.9706 19.9279 29.4503 20.1079 29.9301 20.1079C30.4099 20.1079 30.8896 19.9279 31.1895 19.5082L35.4473 15.2503C35.8072 14.9504 35.9871 14.4707 35.9871 13.9909C35.9871 13.5111 35.8072 13.0914 35.4473 12.7316L33.3484 10.6326C33.1085 10.3927 32.8086 10.2728 32.5088 10.2728C32.2089 10.2728 31.9091 10.4527 31.6692 10.6326C31.1894 10.2128 31.1894 10.0929 31.1894 9.61308C31.1894 9.37322 31.1894 9.07335 31.0694 8.71353C30.9495 7.87393 30.5297 7.03439 29.87 6.3747L27.7111 4.21579C26.4517 2.95642 25.852 2.35674 24.2329 1.6371C20.7546 0.0179165 17.2164 0.31779 12.0589 2.65662C11.7591 2.77658 11.6392 3.01643 11.6991 3.31631C11.7591 3.61618 11.999 3.79609 12.2988 3.79609H13.0784C15.7171 3.79609 17.0963 3.79609 19.4952 6.19486C20.5456 7.24523 20.5758 8.85577 19.6348 10.0407C19.5079 10.0598 19.4113 10.1168 19.3153 10.2128L16.6514 13.1861L14.6376 11.1724C12.4243 8.95908 10.8675 6.86503 9.66938 4.5333C9.60648 3.35341 9.13302 2.2495 8.28084 1.39732C7.2614 0.377876 5.82212 -0.101906 4.38284 0.0180572C4.20294 0.0780036 4.02303 0.197967 3.96308 0.31793C3.84312 0.49784 3.84312 0.737696 3.96308 0.917606L5.64221 3.91612C5.28239 4.69571 4.44279 5.17549 3.60326 5.11554L1.86411 2.23692C1.80416 2.05701 1.56424 1.93705 1.38433 1.93705C1.20442 1.8771 1.02451 1.99699 0.904544 2.1769C-0.534733 4.33582 0.00499568 7.21437 2.16391 8.7136C2.90773 9.24489 3.74571 9.54034 4.59438 9.60092C4.60387 9.60492 4.61279 9.60984 4.62263 9.61315C6.96146 10.8126 9.06043 12.3717 11.2793 14.5907L13.4726 16.7341L0.724705 30.9625C0.244922 31.4423 0.00506592 32.1019 0.00506592 32.7616C0.00506592 33.4213 0.244922 34.021 0.724705 34.5008L1.56431 35.3404C2.04409 35.7601 2.64376 36.0001 3.24344 36.0001C3.84312 36.0001 4.50281 35.7602 4.98259 35.2804L17.7159 21.0273L21.4143 24.7257C22.6725 25.9839 24.2899 28.1999 26.4457 31.4332C26.5231 32.5874 26.9954 33.665 27.8311 34.5008C28.7307 35.4003 29.9301 35.8801 31.1895 35.8801C31.3694 35.8801 31.5493 35.8801 31.6692 35.8801C31.8492 35.8801 32.0291 35.7601 32.149 35.5802C32.269 35.4003 32.269 35.1605 32.149 34.9806L30.4099 32.042C30.8296 31.2625 31.6093 30.7827 32.5088 30.8426L34.188 33.7212C34.2479 33.9011 34.4879 34.0211 34.6678 34.0211C34.9076 33.9611 35.0875 33.9011 35.2075 33.7212C36.6467 31.5622 36.047 28.6836 33.9481 27.1844ZM20.2749 5.23544C18.3559 3.37639 16.9166 2.77665 15.2974 2.59674C18.7157 1.51728 21.2344 1.57723 23.7531 2.7167C25.1924 3.31638 25.6722 3.79616 26.9316 5.05553L29.0905 7.21444C29.5703 7.69423 29.8701 8.2939 29.9301 8.89358C29.99 9.19345 29.99 9.43331 29.99 9.61322C29.99 10.2729 30.05 10.7526 30.7696 11.4723C31.0095 11.7121 31.3693 11.8321 31.6692 11.8321C32.029 11.8321 32.3289 11.7121 32.5088 11.4723L34.6077 13.5712C34.7277 13.6912 34.7877 13.8111 34.7877 13.991C34.7877 14.1709 34.7277 14.2909 34.6077 14.4108L30.3499 18.6686C30.11 18.9085 29.7502 18.9085 29.5103 18.6686L27.4113 16.5697C27.6511 16.3898 27.7711 16.0899 27.7112 15.7301C27.7112 15.4302 27.5912 15.0704 27.3513 14.8305C26.6317 14.1109 26.1519 14.0509 25.4923 14.0509C25.3124 14.0509 25.0725 14.0509 24.7727 13.991C24.113 13.931 23.5732 13.6312 23.0935 13.1514L20.5148 10.5727C21.8341 8.95359 21.7142 6.67472 20.2749 5.23544ZM1.44434 3.79616L2.70371 5.95508C2.82367 6.13499 3.00358 6.25495 3.18349 6.25495H3.48337C4.8627 6.3149 6.12207 5.59526 6.72174 4.39591L6.8417 4.09603C6.96167 3.91612 6.96167 3.73621 6.8417 3.5563L5.52232 1.27742C6.24196 1.39739 6.90165 1.75721 7.44138 2.29694C8.05968 2.96675 8.45555 3.81387 8.47895 4.72382C8.46736 4.76999 8.46082 4.81968 8.46082 4.87569C8.46082 5.15342 8.4273 5.42434 8.36524 5.68549C8.13902 6.55384 7.59655 7.31094 6.84163 7.81426C5.64221 8.59385 4.02303 8.59385 2.82367 7.75431C1.56431 6.85462 1.02458 5.23544 1.44434 3.79616ZM12.119 13.7511C10.3199 11.8921 8.52077 10.4528 6.60171 9.31334C6.90158 9.19338 7.2614 9.01347 7.5612 8.83356C8.46075 8.23389 9.06043 7.45423 9.42025 6.49474C10.5597 8.4138 11.9989 10.2129 13.798 12.012L15.8579 14.0718L14.2425 15.8748L12.119 13.7511ZM4.14299 34.3808C3.66321 34.8606 2.88362 34.9205 2.40384 34.4408L1.56424 33.6612C1.32438 33.4213 1.20442 33.1214 1.20442 32.8216C1.20442 32.4617 1.32438 32.1619 1.62418 31.8621L1.96383 31.4821L2.8236 32.3419C2.94357 32.4618 3.06346 32.5218 3.24337 32.5218C3.42328 32.5218 3.54324 32.4618 3.66314 32.3419C3.90299 32.102 3.90299 31.7422 3.66314 31.5023L2.75628 30.5954L3.54879 29.7087L4.50274 30.6626C4.6227 30.7826 4.74259 30.8426 4.9225 30.8426C5.10241 30.8426 5.22238 30.7826 5.34227 30.6626C5.58213 30.4228 5.58213 30.063 5.34227 29.823L4.34138 28.8221L19.7668 11.5639L22.2855 14.0826L19.8107 16.8515C19.74 16.8814 19.6775 16.9272 19.6152 16.9895L17.2164 19.6882C17.1479 19.7567 17.0997 19.8351 17.0703 19.9175L4.14299 34.3808ZM18.5365 20.1087L20.1777 18.2717L24.0529 22.1469C25.1324 23.2864 26.9914 24.7256 29.6901 26.5247C29.3303 26.6447 28.9705 26.8246 28.6106 27.0645C27.8666 27.5295 27.3397 28.1751 26.9725 28.8889C26.9671 28.899 26.9621 28.9094 26.9567 28.9197C26.9349 28.9626 26.9137 29.0058 26.8931 29.0492C26.8635 29.1107 26.8354 29.1729 26.8084 29.2357C26.79 29.2783 26.7717 29.3208 26.7543 29.3636C26.7519 29.3698 26.7495 29.3759 26.747 29.3821C26.7281 29.4291 26.7094 29.476 26.6916 29.5232C26.351 29.0236 26.0233 28.5522 25.7081 28.108L26.5117 27.3044C26.7516 27.0645 26.7516 26.7047 26.5117 26.4648C26.2719 26.2249 25.9121 26.2249 25.6721 26.4648L25.0036 27.1333C24.7544 26.7952 24.5137 26.4762 24.2815 26.1763L24.8326 25.6252C25.0725 25.3853 25.0725 25.0255 24.8326 24.7856C24.5927 24.5457 24.2329 24.5457 23.993 24.7856L23.5352 25.2434C23.0944 24.7121 22.6879 24.26 22.3139 23.886L18.5365 20.1087ZM34.6077 32.1019L33.3483 29.943C33.2283 29.7631 33.0484 29.6431 32.8685 29.6431H32.5686C31.1893 29.5232 29.93 30.3028 29.3303 31.5022L29.2103 31.8021C29.0903 31.982 29.0903 32.1619 29.2103 32.3418L30.5296 34.6207C29.81 34.5007 29.1503 34.1409 28.6106 33.6012C28.004 32.944 27.6119 32.1162 27.575 31.226C27.5853 31.1821 27.5911 31.1351 27.5911 31.0824C27.5911 30.3227 27.8322 29.6114 28.2526 29.009C28.5108 28.6496 28.8338 28.3349 29.2102 28.084C29.8099 27.6642 30.4696 27.4843 31.1892 27.4843C31.9089 27.4843 32.6285 27.7241 33.2282 28.144C34.4878 29.0435 35.0275 30.6627 34.6077 32.1019Z" fill="black"/>
</svg>
