<svg width="14" height="13" viewBox="0 0 14 13" fill="none" xmlns="http://www.w3.org/2000/svg">
<path d="M13.993 9.81671C13.869 10.6958 13.4054 11.5032 12.6885 12.0887C11.9715 12.6742 11.05 12.998 10.0952 13C4.52881 13 0 8.79468 0 3.62591C0.00210481 2.73931 0.350859 1.88359 0.981421 1.21784C1.61198 0.552096 2.48145 0.121625 3.42815 0.00646407C3.66949 -0.0183832 3.91307 0.0287984 4.12358 0.141167C4.33409 0.253535 4.50059 0.425248 4.59891 0.631404L6.00803 3.68449C6.08113 3.84297 6.11043 4.01589 6.09329 4.18755C6.07615 4.35921 6.01311 4.52418 5.90988 4.66747L4.74614 6.32096C5.27311 7.31402 6.14141 8.11572 7.21384 8.59938L8.97349 7.51225C9.12765 7.41576 9.30575 7.35735 9.49097 7.34254C9.6762 7.32773 9.86243 7.35702 10.0321 7.42762L13.32 8.72958C13.542 8.82088 13.727 8.97548 13.848 9.17096C13.969 9.36643 14.0198 9.59262 13.993 9.81671ZM8.79122 1.52324C9.6449 1.73982 10.423 2.15934 11.0488 2.74041C11.6746 3.32148 12.1264 4.04402 12.3596 4.83673C12.3905 4.94802 12.4603 5.04668 12.5579 5.11733C12.6555 5.18798 12.7756 5.22665 12.8994 5.22731C12.9492 5.22723 12.9988 5.22065 13.0466 5.20778C13.1179 5.19046 13.1848 5.1601 13.2433 5.11848C13.3018 5.07687 13.3507 5.02483 13.3873 4.96541C13.4238 4.906 13.4473 4.8404 13.4562 4.77248C13.4651 4.70455 13.4593 4.63565 13.4392 4.56983C13.1588 3.59901 12.6083 2.71379 11.8429 2.00306C11.0775 1.29233 10.1241 0.781111 9.07865 0.520737C9.00549 0.495989 8.92759 0.485657 8.84989 0.490398C8.7722 0.495139 8.69642 0.51485 8.62738 0.548276C8.55834 0.581702 8.49755 0.628111 8.44888 0.684547C8.40022 0.740984 8.36474 0.806211 8.34471 0.876077C8.32468 0.945943 8.32053 1.01892 8.33253 1.09035C8.34454 1.16179 8.37243 1.23012 8.41443 1.291C8.45643 1.35187 8.51163 1.40396 8.5765 1.44395C8.64137 1.48393 8.71449 1.51094 8.79122 1.52324ZM8.20934 3.53477C8.68387 3.65539 9.11638 3.88871 9.46427 4.21174C9.81216 4.53478 10.0634 4.9364 10.1933 5.37704C10.2232 5.48889 10.2926 5.58819 10.3905 5.65902C10.4884 5.72984 10.609 5.76809 10.7331 5.76763C10.7807 5.76806 10.828 5.76147 10.8733 5.7481C10.9453 5.73149 11.0129 5.70164 11.0722 5.66033C11.1314 5.61902 11.1812 5.56708 11.2184 5.50759C11.2557 5.4481 11.2797 5.38226 11.2891 5.31399C11.2985 5.24572 11.293 5.1764 11.2729 5.11014C11.0959 4.49139 10.7459 3.92708 10.2584 3.47438C9.77083 3.02168 9.16312 2.69666 8.49677 2.53226C8.42362 2.50751 8.34571 2.49718 8.26802 2.50192C8.19032 2.50666 8.11454 2.52637 8.0455 2.5598C7.97646 2.59323 7.91568 2.63964 7.86701 2.69607C7.81834 2.75251 7.78286 2.81774 7.76283 2.8876C7.7428 2.95747 7.73865 3.03044 7.75066 3.10188C7.76266 3.17331 7.79055 3.24164 7.83256 3.30252C7.87456 3.3634 7.92975 3.41549 7.99462 3.45547C8.05949 3.49546 8.13262 3.52246 8.20934 3.53477Z" fill="white"/>
</svg>
