<svg width="48" height="48" viewBox="0 0 48 48" fill="none" xmlns="http://www.w3.org/2000/svg">
<path d="M39.3246 23.5627C39.8071 23.5627 40.1981 23.1717 40.1981 22.6893C40.1981 22.2069 39.8071 21.8158 39.3246 21.8158C38.8422 21.8158 38.4512 22.2069 38.4512 22.6893C38.4512 23.1717 38.8422 23.5627 39.3246 23.5627Z" fill="white"/>
<path d="M7.87958 23.5627C8.36198 23.5627 8.75305 23.1717 8.75305 22.6893C8.75305 22.2069 8.36198 21.8158 7.87958 21.8158C7.39717 21.8158 7.0061 22.2069 7.0061 22.6893C7.0061 23.1717 7.39717 23.5627 7.87958 23.5627Z" fill="white"/>
<path d="M10.4999 26.1832C10.9823 26.1832 11.3734 25.7922 11.3734 25.3098C11.3734 24.8273 10.9823 24.4363 10.4999 24.4363C10.0175 24.4363 9.62646 24.8273 9.62646 25.3098C9.62646 25.7922 10.0175 26.1832 10.4999 26.1832Z" fill="white"/>
<path d="M15.7409 26.1832C16.2233 26.1832 16.6144 25.7922 16.6144 25.3098C16.6144 24.8273 16.2233 24.4363 15.7409 24.4363C15.2585 24.4363 14.8674 24.8273 14.8674 25.3098C14.8674 25.7922 15.2585 26.1832 15.7409 26.1832Z" fill="white"/>
<path d="M13.1205 28.8036C13.603 28.8036 13.994 28.4125 13.994 27.9301C13.994 27.4477 13.603 27.0566 13.1205 27.0566C12.6381 27.0566 12.2471 27.4477 12.2471 27.9301C12.2471 28.4125 12.6381 28.8036 13.1205 28.8036Z" fill="white"/>
<path d="M18.3613 28.8036C18.8437 28.8036 19.2347 28.4125 19.2347 27.9301C19.2347 27.4477 18.8437 27.0566 18.3613 27.0566C17.8789 27.0566 17.4878 27.4477 17.4878 27.9301C17.4878 28.4125 17.8789 28.8036 18.3613 28.8036Z" fill="white"/>
<path d="M20.9816 31.4241C21.464 31.4241 21.8551 31.033 21.8551 30.5506C21.8551 30.0682 21.464 29.6771 20.9816 29.6771C20.4992 29.6771 20.1082 30.0682 20.1082 30.5506C20.1082 31.033 20.4992 31.4241 20.9816 31.4241Z" fill="white"/>
<path d="M26.2226 31.4241C26.705 31.4241 27.0961 31.033 27.0961 30.5506C27.0961 30.0682 26.705 29.6771 26.2226 29.6771C25.7402 29.6771 25.3491 30.0682 25.3491 30.5506C25.3491 31.033 25.7402 31.4241 26.2226 31.4241Z" fill="white"/>
<path d="M28.843 28.8036C29.3254 28.8036 29.7164 28.4125 29.7164 27.9301C29.7164 27.4477 29.3254 27.0566 28.843 27.0566C28.3605 27.0566 27.9695 27.4477 27.9695 27.9301C27.9695 28.4125 28.3605 28.8036 28.843 28.8036Z" fill="white"/>
<path d="M23.6022 34.0444C24.0846 34.0444 24.4757 33.6534 24.4757 33.171C24.4757 32.6886 24.0846 32.2975 23.6022 32.2975C23.1198 32.2975 22.7288 32.6886 22.7288 33.171C22.7288 33.6534 23.1198 34.0444 23.6022 34.0444Z" fill="white"/>
<path d="M31.4633 26.1832C31.9457 26.1832 32.3368 25.7922 32.3368 25.3098C32.3368 24.8273 31.9457 24.4363 31.4633 24.4363C30.9809 24.4363 30.5898 24.8273 30.5898 25.3098C30.5898 25.7922 30.9809 26.1832 31.4633 26.1832Z" fill="white"/>
<path d="M36.7043 26.1832C37.1867 26.1832 37.5778 25.7922 37.5778 25.3098C37.5778 24.8273 37.1867 24.4363 36.7043 24.4363C36.2219 24.4363 35.8308 24.8273 35.8308 25.3098C35.8308 25.7922 36.2219 26.1832 36.7043 26.1832Z" fill="white"/>
<path d="M34.0839 28.8036C34.5663 28.8036 34.9574 28.4125 34.9574 27.9301C34.9574 27.4477 34.5663 27.0566 34.0839 27.0566C33.6015 27.0566 33.2104 27.4477 33.2104 27.9301C33.2104 28.4125 33.6015 28.8036 34.0839 28.8036Z" fill="white"/>
<path d="M39.7946 28.6464L48 23.9585L39.5657 19.1692L48 14.3502L24.0004 0.721436L0 14.3502L8.43426 19.1692L0 23.9585L8.43426 28.7774L0 33.5667L24.0004 47.2785L48.0009 33.5667L39.5666 28.7774L39.6286 28.7416C39.6898 28.7189 39.7404 28.6822 39.7946 28.6464ZM24.0004 2.72955L44.4712 14.3546L37.8004 18.1665L24.0013 26.0504L3.52971 14.3546L24.0004 2.72955ZM9.72089 20.4471C9.86239 20.738 10.155 20.9424 10.5 20.9424C10.7359 20.9424 10.9472 20.8471 11.1045 20.6952L13.0803 21.8237C12.6173 21.8455 12.247 22.2211 12.247 22.6893C12.247 23.1715 12.6383 23.5628 13.1204 23.5628C13.6026 23.5628 13.9939 23.1715 13.9939 22.6893C13.9939 22.5382 13.9459 22.4037 13.8786 22.2796L22.9016 27.4349C22.8003 27.5773 22.7287 27.7423 22.7287 27.9301C22.7287 28.4123 23.12 28.8036 23.6021 28.8036C24.0843 28.8036 24.4756 28.4123 24.4756 27.9301C24.4756 27.8856 24.4573 27.848 24.4503 27.8052L33.2304 22.7889C33.282 23.2221 33.6366 23.5619 34.0838 23.5619C34.566 23.5619 34.9573 23.1706 34.9573 22.6884C34.9573 22.4045 34.8132 22.1635 34.6027 22.0045L36.5261 20.9057C36.5854 20.9188 36.6413 20.9415 36.7042 20.9415C37.0921 20.9415 37.4091 20.6847 37.5236 20.3353L37.8031 20.1754L44.4712 23.962L42.7391 24.9516C42.6019 24.6485 42.2997 24.4354 41.946 24.4354C41.4638 24.4354 41.0725 24.8267 41.0725 25.3088C41.0725 25.4975 41.145 25.6626 41.2463 25.805L37.8004 27.7738L32.2207 30.962C32.2888 30.8379 32.3377 30.7017 32.3377 30.5497C32.3377 30.0675 31.9464 29.6762 31.4643 29.6762C30.9821 29.6762 30.5908 30.0675 30.5908 30.5497C30.5908 31.0187 30.9629 31.3943 31.4267 31.4153L29.45 32.5447C29.2928 32.3927 29.0806 32.2966 28.8438 32.2966C28.3617 32.2966 27.9704 32.688 27.9704 33.1701C27.9704 33.24 27.9948 33.302 28.0106 33.3675L24.0013 35.6578L19.1824 32.9046C19.0688 32.5543 18.7509 32.2966 18.3622 32.2966C18.2984 32.2966 18.2416 32.3202 18.1822 32.3333L16.2597 31.2354C16.4702 31.0755 16.6152 30.8353 16.6152 30.5506C16.6152 30.0684 16.2239 29.6771 15.7417 29.6771C15.2945 29.6771 14.939 30.0186 14.8884 30.4519L6.10645 25.4355C6.11257 25.3927 6.13179 25.3543 6.13179 25.3097C6.13179 24.8276 5.74047 24.4362 5.25831 24.4362C5.04955 24.4362 4.86612 24.5192 4.71588 24.6415L3.52883 23.9637L9.72089 20.4471ZM44.4703 33.571L23.9996 45.2668L3.52971 33.571L10.1969 29.7845L24.0004 37.6702L37.8031 29.7845L44.4703 33.571Z" fill="white"/>
</svg>
