<svg width="48" height="48" viewBox="0 0 48 48" fill="none" xmlns="http://www.w3.org/2000/svg">
<path d="M47.7254 39.0219L44.2081 35.5046C44.2076 35.504 44.2071 35.5033 44.2064 35.5028C44.2059 35.5022 44.2052 35.5018 44.2047 35.5012L32.5026 23.7988L43.8534 12.4481C43.8541 12.4473 43.8548 12.4464 43.8555 12.4456C43.9043 12.3966 43.9476 12.342 43.9847 12.2828C43.9867 12.2797 43.9884 12.2766 43.9903 12.2735C44.0067 12.2468 44.0216 12.2192 44.0352 12.1907C44.0369 12.1873 44.0386 12.1839 44.0402 12.1804C44.057 12.1444 44.0719 12.1075 44.0841 12.0689L47.6216 1.56613C47.7353 1.22863 47.6478 0.855785 47.3961 0.603973C47.1442 0.35216 46.7716 0.264785 46.4338 0.37841L35.9157 3.92113C35.9153 3.92122 35.9151 3.92141 35.9148 3.9215C35.8812 3.93275 35.8486 3.94597 35.8171 3.96079C35.8137 3.96238 35.8107 3.96425 35.8073 3.96594C35.7801 3.97907 35.7537 3.99332 35.7282 4.00888C35.7205 4.01357 35.7131 4.01872 35.7055 4.0236C35.6847 4.0371 35.6646 4.05116 35.6451 4.06607C35.6365 4.07272 35.628 4.07957 35.6196 4.08641C35.6017 4.10122 35.5844 4.11669 35.5677 4.13272C35.5625 4.1376 35.5569 4.14172 35.5519 4.14669L24.2012 15.4973L8.97847 0.274535C8.61228 -0.0915586 8.01875 -0.0914648 7.65256 0.274535L0.274716 7.65238C0.0989346 7.82816 0.00012207 8.06666 0.00012207 8.31528C0.00012207 8.56391 0.0989346 8.80241 0.274716 8.97819L15.4975 24.201L15.4972 24.2013L1.79131 37.907C0.15931 39.5394 -0.136565 41.5232 1.07159 42.7314L5.2685 46.9284C5.75403 47.4139 6.38318 47.6706 7.08809 47.6706C7.08818 47.6706 7.08818 47.6706 7.08828 47.6706C8.08306 47.6706 9.15022 47.1513 10.093 46.2086L13.3898 42.9118L13.3899 42.9117C13.3899 42.9116 13.39 42.9116 13.39 42.9115L16.8768 39.4245C16.8771 39.4243 16.8774 39.4242 16.8776 39.4239C16.8777 39.4236 23.7987 32.5027 23.7988 32.5025L39.0219 47.7254C39.2049 47.9085 39.4449 48 39.6847 48C39.9247 48 40.1646 47.9085 40.3476 47.7254L47.7254 40.3477C47.9012 40.1719 48 39.9334 48 39.6848C48 39.4362 47.9012 39.1977 47.7254 39.0219ZM45.2414 2.75863L43.0539 9.25335C42.7663 8.99169 42.4261 8.75619 42.0369 8.5551C41.4394 8.24628 40.7136 8.02363 40.0175 7.98285C39.9767 7.28666 39.7541 6.56085 39.4452 5.96319C39.244 5.57394 39.0086 5.23372 38.7468 4.9461L45.2414 2.75863ZM2.26343 8.31528L8.31556 2.26325L10.1922 4.13994L8.03075 6.30135C7.84765 6.48444 7.75615 6.72435 7.75615 6.96425C7.75615 7.20416 7.84765 7.44416 8.03075 7.62716C8.21375 7.81025 8.45375 7.90175 8.69365 7.90175C8.93356 7.90175 9.17347 7.81025 9.35656 7.62716L11.518 5.46575L13.3947 7.34254L12.0807 8.65682C11.8977 8.83991 11.8062 9.07982 11.8062 9.31972C11.8062 9.55972 11.8978 9.79963 12.0808 9.98263C12.2639 10.1656 12.5038 10.2571 12.7437 10.2571C12.9837 10.2571 13.2237 10.1655 13.4067 9.98254L14.7206 8.66844L16.5973 10.5453L15.2833 11.8592C15.1003 12.0422 15.0087 12.2822 15.0087 12.5221C15.0087 12.762 15.1002 13.002 15.2833 13.185C15.4663 13.3681 15.7063 13.4596 15.9462 13.4596C16.1862 13.4596 16.4261 13.3681 16.6091 13.185L17.9232 11.8711L19.7997 13.7477L17.6385 15.9089C17.4554 16.092 17.3639 16.3319 17.3639 16.5718C17.3639 16.8118 17.4553 17.0518 17.6385 17.2348C17.8215 17.4178 18.0615 17.5093 18.3014 17.5093C18.5413 17.5093 18.7812 17.4178 18.9643 17.2348L21.1256 15.0736L22.8751 16.8232L16.8232 22.8751L2.26343 8.31528ZM8.76725 44.8827C8.19556 45.4543 7.568 45.7955 7.08837 45.7955C6.88315 45.7955 6.72612 45.7342 6.5944 45.6025L2.3974 41.4056C1.97656 40.9847 2.27928 40.0708 3.11722 39.2328L5.75112 36.5989L11.4011 42.2488L8.76725 44.8827ZM12.727 40.9229L7.07703 35.273L9.23909 33.111L14.889 38.761L12.727 40.9229ZM16.2147 37.4351L10.5648 31.7852C10.565 31.7851 24.8638 17.4864 24.864 17.4862C24.8642 17.486 24.8643 17.4858 24.8645 17.4856L36.6046 5.7456C37.1087 5.8296 37.4802 6.3156 37.6707 6.62994C38.2056 7.51194 38.2039 8.40885 38.0904 8.58416L16.4632 30.211C16.0971 30.5771 16.0971 31.1707 16.4632 31.5368C16.6463 31.7199 16.8862 31.8114 17.1261 31.8114C17.366 31.8114 17.6059 31.7198 17.7889 31.5368L39.4111 9.91504C39.5928 9.79644 40.4888 9.79485 41.3705 10.3296C41.6847 10.5202 42.1701 10.8913 42.2544 11.3953L16.2147 37.4351ZM39.6849 45.7367L25.1248 31.1766L25.9948 30.3066L28.6475 32.9591C28.8306 33.1422 29.0705 33.2337 29.3104 33.2337C29.5503 33.2337 29.7902 33.1421 29.9733 32.9591C30.3394 32.593 30.3393 31.9993 29.9732 31.6333L27.3206 28.9808L31.1767 25.1247L32.6101 26.5581L31.296 27.8719C31.1129 28.055 31.0213 28.2949 31.0213 28.5348C31.0212 28.7747 31.1128 29.0147 31.2958 29.1977C31.4789 29.3808 31.7188 29.4724 31.9588 29.4724C32.1987 29.4724 32.4387 29.3809 32.6217 29.1979L33.9358 27.884L35.8125 29.7606L34.4984 31.0746C34.3154 31.2577 34.2238 31.4976 34.2238 31.7375C34.2238 31.9774 34.3153 32.2173 34.4984 32.4004C34.6815 32.5835 34.9214 32.675 35.1613 32.675C35.4012 32.675 35.6412 32.5834 35.8242 32.4004L37.1382 31.0863L39.015 32.9631L36.8537 35.1242C36.6707 35.3073 36.5791 35.5472 36.5791 35.7871C36.5791 36.0271 36.6706 36.267 36.8537 36.45C37.0367 36.6331 37.2767 36.7246 37.5166 36.7246C37.7565 36.7246 37.9964 36.633 38.1794 36.45L40.3407 34.2888L42.2175 36.1655L40.9034 37.4795C40.7204 37.6626 40.6288 37.9025 40.6288 38.1424C40.6288 38.3824 40.7203 38.6223 40.9034 38.8053C41.0864 38.9884 41.3264 39.0799 41.5663 39.0799C41.8062 39.0799 42.0462 38.9883 42.2292 38.8053L43.5432 37.4913L45.7364 39.6845L39.6849 45.7367Z" fill="white"/>
</svg>
