<svg width="48" height="48" viewBox="0 0 48 48" fill="none" xmlns="http://www.w3.org/2000/svg">
<path d="M16.8167 23.1816C14.9999 21.1296 12.5775 20 9.99432 20C7.41112 20 4.98872 21.1296 3.17272 23.1816C-0.516882 27.3504 -0.516882 34.132 3.17272 38.3008L9.99432 46.0072L16.8159 38.3008C20.5063 34.132 20.5063 27.3504 16.8167 23.1816ZM15.6183 37.24L9.99512 43.5928L4.37112 37.24C1.19832 33.6568 1.19832 27.8256 4.37112 24.2424C5.87912 22.5384 7.87672 21.6 9.99432 21.6C12.1119 21.6 14.1103 22.5384 15.6175 24.2424C18.7903 27.8256 18.7903 33.656 15.6183 37.24Z" fill="white"/>
<path d="M38.9976 19.6056L44.1688 13.7768C46.9512 10.6408 46.9512 5.54 44.1688 2.404C42.7928 0.8536 40.956 0 38.9968 0C37.0384 0 35.2016 0.8536 33.8256 2.404C31.0432 5.54 31.0432 10.6408 33.8256 13.7768L38.9976 19.6056ZM35.0224 3.4664C36.0904 2.2624 37.5016 1.6 38.9968 1.6C40.4928 1.6 41.904 2.2624 42.972 3.4664C45.2344 6.016 45.2344 10.1648 42.972 12.7144L38.9976 17.1952L35.0224 12.7144C32.76 10.1648 32.76 6.016 35.0224 3.4664Z" fill="white"/>
<path d="M42.0832 43.6136C41.652 43.5168 41.224 43.7872 41.1272 44.2184C41.0352 44.6264 40.8568 45.0016 40.5968 45.332C40.324 45.6792 40.3832 46.1824 40.7312 46.4552C40.8784 46.5704 41.052 46.6264 41.2248 46.6264C41.4624 46.6264 41.6968 46.5216 41.8544 46.3208C42.2576 45.8088 42.5456 45.204 42.688 44.5704C42.7848 44.1384 42.5144 43.7104 42.0832 43.6136Z" fill="white"/>
<path d="M25.5958 24.8C25.2494 24.7992 24.9126 24.7376 24.5942 24.616C24.1846 24.46 23.7198 24.6656 23.5614 25.0784C23.4046 25.4912 23.6118 25.9536 24.0238 26.1112C24.5246 26.3016 25.0518 26.3992 25.5942 26.4H25.8798C26.3222 26.4 26.6798 26.0424 26.6798 25.6C26.6798 25.1576 26.3222 24.8 25.8798 24.8H25.5958Z" fill="white"/>
<path d="M23.6966 19.7409C23.8414 19.7409 23.987 19.7017 24.119 19.6201C24.4734 19.3993 24.8654 19.264 25.2822 19.2176C25.7214 19.1688 26.0382 18.7736 25.9902 18.3344C25.9422 17.8952 25.5494 17.5817 25.107 17.6265C24.4494 17.6993 23.8318 17.912 23.2718 18.2617C22.8966 18.4952 22.783 18.9889 23.0166 19.3641C23.1686 19.6073 23.4294 19.7409 23.6966 19.7409Z" fill="white"/>
<path d="M14.451 46.4H12.851C12.4086 46.4 12.051 46.7576 12.051 47.2C12.051 47.6424 12.4086 48 12.851 48H14.451C14.8934 48 15.251 47.6424 15.251 47.2C15.251 46.7576 14.8926 46.4 14.451 46.4Z" fill="white"/>
<path d="M28.7944 32C28.7256 32 28.6576 32.0016 28.5896 32.0048C28.148 32.0224 27.8056 32.3952 27.8232 32.8368C27.84 33.2672 28.1952 33.604 28.6216 33.604C28.6328 33.604 28.644 33.604 28.6552 33.6032L30.2224 33.6C30.6648 33.6 31.0224 33.2424 31.0224 32.8C31.0224 32.3576 30.6648 32 30.2224 32H28.7944Z" fill="white"/>
<path d="M28.3942 19.2H29.9942C30.4366 19.2 30.7942 18.8424 30.7942 18.4C30.7942 17.9576 30.4366 17.6 29.9942 17.6H28.3942C27.9518 17.6 27.5942 17.9576 27.5942 18.4C27.5942 18.8424 27.9518 19.2 28.3942 19.2Z" fill="white"/>
<path d="M38.2224 32C37.78 32 37.4224 32.3576 37.4224 32.8C37.4224 33.2424 37.78 33.6 38.2224 33.6H39.8224C40.2648 33.6 40.6224 33.2424 40.6224 32.8C40.6224 32.3576 40.2648 32 39.8224 32H38.2224Z" fill="white"/>
<path d="M41.0806 25.6C41.0806 25.1576 40.723 24.8 40.2806 24.8H38.6806C38.2382 24.8 37.8806 25.1576 37.8806 25.6C37.8806 26.0424 38.2382 26.4 38.6806 26.4H40.2806C40.7222 26.4 41.0806 26.0424 41.0806 25.6Z" fill="white"/>
<path d="M33.4223 33.6H35.0223C35.4647 33.6 35.8223 33.2424 35.8223 32.8C35.8223 32.3576 35.4647 32 35.0223 32H33.4223C32.9799 32 32.6223 32.3576 32.6223 32.8C32.6223 33.2424 32.9807 33.6 33.4223 33.6Z" fill="white"/>
<path d="M34.7943 19.2C35.2367 19.2 35.5943 18.8424 35.5943 18.4C35.5943 17.9576 35.2367 17.6 34.7943 17.6H33.1943C32.7519 17.6 32.3943 17.9576 32.3943 18.4C32.3943 18.8424 32.7519 19.2 33.1943 19.2H34.7943Z" fill="white"/>
<path d="M29.0808 24.8C28.6384 24.8 28.2808 25.1576 28.2808 25.6C28.2808 26.0424 28.6384 26.4 29.0808 26.4H30.6808C31.1232 26.4 31.4808 26.0424 31.4808 25.6C31.4808 25.1576 31.1232 24.8 30.6808 24.8H29.0808Z" fill="white"/>
<path d="M36.2808 25.6C36.2808 25.1576 35.9232 24.8 35.4808 24.8H33.8808C33.4384 24.8 33.0808 25.1576 33.0808 25.6C33.0808 26.0424 33.4384 26.4 33.8808 26.4H35.4808C35.9224 26.4 36.2808 26.0424 36.2808 25.6Z" fill="white"/>
<path d="M47.5408 28.5056C47.4704 28.0688 47.0584 27.7704 46.624 27.8424C46.1872 27.912 45.8904 28.3232 45.9608 28.7592C45.9832 28.9016 45.996 29.0464 45.9944 29.2008C45.9944 29.4696 45.956 29.7352 45.8808 29.9912C45.7568 30.4152 45.9992 30.86 46.424 30.984C46.4992 31.0056 46.5744 31.016 46.6488 31.016C46.9952 31.016 47.3144 30.7904 47.4168 30.4408C47.5344 30.0384 47.5944 29.6216 47.5944 29.2064C47.596 28.976 47.5784 28.74 47.5408 28.5056Z" fill="white"/>
<path d="M33.6512 46.4H32.0512C31.6088 46.4 31.2512 46.7576 31.2512 47.2C31.2512 47.6424 31.6088 48 32.0512 48H33.6512C34.0936 48 34.4512 47.6424 34.4512 47.2C34.4512 46.7576 34.0928 46.4 33.6512 46.4Z" fill="white"/>
<path d="M28.8512 46.4H27.2512C26.8088 46.4 26.4512 46.7576 26.4512 47.2C26.4512 47.6424 26.8088 48 27.2512 48H28.8512C29.2936 48 29.6512 47.6424 29.6512 47.2C29.6512 46.7576 29.2928 46.4 28.8512 46.4Z" fill="white"/>
<path d="M37.6519 40C37.6519 39.5576 37.2943 39.2 36.8519 39.2H35.2519C34.8095 39.2 34.4519 39.5576 34.4519 40C34.4519 40.4424 34.8095 40.8 35.2519 40.8H36.8519C37.2935 40.8 37.6519 40.4424 37.6519 40Z" fill="white"/>
<path d="M32.8519 40C32.8519 39.5576 32.4943 39.2 32.0519 39.2H30.4519C30.0095 39.2 29.6519 39.5576 29.6519 40C29.6519 40.4424 30.0095 40.8 30.4519 40.8H32.0519C32.4935 40.8 32.8519 40.4424 32.8519 40Z" fill="white"/>
<path d="M38.3943 46.4H36.8503C36.4079 46.4 36.0503 46.7576 36.0503 47.2C36.0503 47.6424 36.4079 48 36.8503 48L38.4271 47.9992L38.4503 47.1992V47.9992C38.8927 47.9992 39.2223 47.6416 39.2223 47.1992C39.2223 46.7576 38.8367 46.4 38.3943 46.4Z" fill="white"/>
<path d="M41.2247 42.1752C41.3975 42.1752 41.5727 42.1192 41.7183 42.004C42.0663 41.7304 42.1255 41.2272 41.8527 40.8808C41.4503 40.3696 40.9311 39.9472 40.3495 39.6584C39.9519 39.4608 39.4735 39.6232 39.2767 40.0184C39.0799 40.4144 39.2415 40.8944 39.6367 41.0912C40.0071 41.2744 40.3383 41.544 40.5943 41.8704C40.7527 42.0704 40.9871 42.1752 41.2247 42.1752Z" fill="white"/>
<path d="M44.276 31.7832C43.9328 31.9272 43.5696 32 43.1944 32H43.0224C42.58 32 42.2224 32.3576 42.2224 32.8C42.2224 33.2424 42.58 33.6 43.0224 33.6H43.1944C43.7832 33.6 44.3552 33.4848 44.8944 33.2584C45.3024 33.0872 45.4936 32.6184 45.3224 32.2112C45.152 31.804 44.68 31.612 44.276 31.7832Z" fill="white"/>
<path d="M22.4231 23.884C22.8423 23.7456 23.0711 23.2936 22.9335 22.8736C22.8415 22.5928 22.7943 22.2992 22.7943 22.0032C22.7951 21.8824 22.8023 21.7616 22.8167 21.644C22.8719 21.2056 22.5615 20.8048 22.1231 20.7504C21.6711 20.7 21.2839 21.0072 21.2295 21.444C21.2071 21.6248 21.1951 21.8088 21.1943 21.9992C21.1943 22.4696 21.2679 22.932 21.4127 23.3736C21.5239 23.7104 21.8367 23.924 22.1727 23.924C22.2559 23.924 22.3407 23.912 22.4231 23.884Z" fill="white"/>
<path d="M19.2511 46.4H17.6511C17.2087 46.4 16.8511 46.7576 16.8511 47.2C16.8511 47.6424 17.2087 48 17.6511 48H19.2511C19.6935 48 20.0511 47.6424 20.0511 47.2C20.0511 46.7576 19.6927 46.4 19.2511 46.4Z" fill="white"/>
<path d="M27.2976 40.4752C27.6016 40.4752 27.8912 40.3016 28.0256 40.008C28.2088 39.6056 28.0328 39.1312 27.6312 38.948C27.256 38.776 26.916 38.5176 26.6488 38.1992C26.364 37.8608 25.86 37.8168 25.5216 38.1016C25.1832 38.3856 25.1392 38.8904 25.424 39.2288C25.8432 39.7272 26.376 40.1336 26.9656 40.4024C27.0736 40.4512 27.1864 40.4752 27.2976 40.4752Z" fill="white"/>
<path d="M45.3967 25.3904C44.8255 25.0592 44.2015 24.8648 43.5431 24.8128C43.1039 24.7808 42.7175 25.1064 42.6831 25.548C42.6487 25.9888 42.9775 26.3736 43.4183 26.408C43.8359 26.4408 44.2319 26.564 44.5943 26.7744C44.7207 26.848 44.8591 26.8824 44.9951 26.8824C45.2711 26.8824 45.5399 26.7392 45.6879 26.484C45.9095 26.1024 45.7791 25.6128 45.3967 25.3904Z" fill="white"/>
<path d="M24.0511 46.4H22.4511C22.0087 46.4 21.6511 46.7576 21.6511 47.2C21.6511 47.6424 22.0087 48 22.4511 48H24.0511C24.4935 48 24.8511 47.6424 24.8511 47.2C24.8511 46.7576 24.4927 46.4 24.0511 46.4Z" fill="white"/>
<path d="M26.044 35.8712C26.1232 35.46 26.2896 35.08 26.5392 34.7408C26.8008 34.3856 26.7248 33.8848 26.3688 33.6224C26.0128 33.3616 25.5128 33.4368 25.2504 33.7928C24.8592 34.3256 24.5968 34.9232 24.472 35.5704C24.3888 36.004 24.6728 36.4232 25.1072 36.5072C25.1576 36.5168 25.2088 36.5216 25.2584 36.5216C25.6344 36.52 25.9696 36.2536 26.044 35.8712Z" fill="white"/>
<path d="M39.1944 12C41.62 12 43.5944 10.0256 43.5944 7.59995C43.5944 5.17435 41.62 3.19995 39.1944 3.19995C36.7688 3.19995 34.7944 5.17435 34.7944 7.59995C34.7944 10.0256 36.7688 12 39.1944 12ZM39.1944 4.79995C40.7384 4.79995 41.9944 6.05595 41.9944 7.59995C41.9944 9.14395 40.7384 10.4 39.1944 10.4C37.6504 10.4 36.3944 9.14395 36.3944 7.59995C36.3944 6.05595 37.6512 4.79995 39.1944 4.79995Z" fill="white"/>
<path d="M9.99434 24.8C7.34714 24.8 5.19434 26.9528 5.19434 29.6C5.19434 32.2472 7.34714 34.4 9.99434 34.4C12.6415 34.4 14.7943 32.2472 14.7943 29.6C14.7943 26.9528 12.6415 24.8 9.99434 24.8ZM9.99434 32.8C8.22954 32.8 6.79434 31.3648 6.79434 29.6C6.79434 27.8352 8.22954 26.4 9.99434 26.4C11.7591 26.4 13.1943 27.8352 13.1943 29.6C13.1943 31.3648 11.7591 32.8 9.99434 32.8Z" fill="white"/>
</svg>
