<svg width="40" height="39" viewBox="0 0 40 39" fill="none" xmlns="http://www.w3.org/2000/svg">
<symbol id="test">
<path fill-rule="evenodd" clip-rule="evenodd" d="M1.19055 0.116047C0.167002 0.422822 -0.300975 1.55514 0.205444 2.49942C0.613301 3.25993 1.04233 3.38949 3.15371 3.38949C5.00848 3.38949 5.01352 3.39025 5.38067 3.73609C5.69853 4.03543 6.13727 5.25447 8.59664 12.6699C11.8208 22.3915 11.7152 21.9103 11.1174 24.1547C10.8764 25.0595 10.8029 25.5988 10.8386 26.2023C10.9292 27.7334 11.8784 29.1582 13.2735 29.8574L13.9023 30.1725L24.9112 30.2066L35.9202 30.2409L36.4121 29.7488C36.8563 29.3047 36.9041 29.1939 36.9041 28.61C36.9041 28.0492 36.8467 27.9004 36.4727 27.4923L36.0413 27.0215L25.385 26.9585L14.7285 26.8955L14.4571 26.6241C14.132 26.2988 14.1212 26.0199 14.3923 24.9419C14.529 24.3986 14.7063 24.0271 14.9191 23.8391L15.2398 23.5555H24.572C34.7142 23.5555 34.4743 23.5715 34.9377 22.8642C35.1232 22.581 39.803 8.66139 39.803 8.39267C39.803 8.09825 39.258 7.157 39.0031 7.01093C38.7942 6.89132 35.4867 6.84103 24.6571 6.7925L10.5826 6.72948L10.262 6.42826C10.026 6.20655 9.7059 5.42059 9.04987 3.45251C8.10661 0.622465 7.94465 0.337746 7.14885 0.109492C6.62667 -0.0402401 1.69395 -0.0348203 1.19055 0.116047ZM12.0748 32.2553C11.3717 32.5814 10.7486 33.1667 10.4011 33.8275C10.0364 34.5214 10.0205 36.0129 10.3704 36.7222C10.6857 37.3615 11.3777 38.0532 12.0159 38.367C12.738 38.7221 14.2235 38.7081 14.9192 38.3396C15.5973 37.9805 16.2721 37.2172 16.5463 36.4992C16.8173 35.7897 16.7668 34.5505 16.4392 33.8717C16.1559 33.2843 15.4562 32.5839 14.8665 32.2972C14.1556 31.9516 12.7743 31.9309 12.0748 32.2553ZM32.2408 32.2553C31.5377 32.5814 30.9146 33.1667 30.5671 33.8275C30.2024 34.5214 30.1865 36.0129 30.5364 36.7222C30.8517 37.3615 31.5436 38.0532 32.1819 38.367C32.904 38.7221 34.3895 38.7081 35.0852 38.3396C35.7633 37.9805 36.4381 37.2172 36.7123 36.4992C36.9833 35.7897 36.9328 34.5505 36.6052 33.8717C36.3219 33.2843 35.6222 32.5839 35.0325 32.2972C34.3216 31.9516 32.9403 31.9309 32.2408 32.2553Z" fill='white'/>
</sybol>
</svg>