<svg width="27" height="27" viewBox="0 0 27 27" fill="none" xmlns="http://www.w3.org/2000/svg">
<path fill-rule="evenodd" clip-rule="evenodd" d="M13.5 27C20.9558 27 27 20.9558 27 13.5C27 6.04416 20.9558 0 13.5 0C6.04416 0 0 6.04416 0 13.5C0 20.9558 6.04416 27 13.5 27ZM17.7218 8.7085H19.1351C19.3309 8.7085 19.4455 8.93149 19.3279 9.0912L12.9817 17.8903C12.893 18.0141 12.7761 18.115 12.6406 18.1846C12.5052 18.2542 12.3551 18.2905 12.2028 18.2905C12.0505 18.2905 11.9004 18.2542 11.7649 18.1846C11.6294 18.115 11.5125 18.0141 11.4238 17.8903L7.66912 12.6832C7.55461 12.5235 7.66912 12.3005 7.86499 12.3005H9.27827C9.58865 12.3005 9.87793 12.4511 10.0587 12.7012L12.2043 15.6785L16.9413 9.10928C17.1221 8.85615 17.4144 8.7085 17.7218 8.7085Z" fill="url(#paint0_linear_246_3062)"/>
<defs>
<linearGradient id="paint0_linear_246_3062" x1="32.9874" y1="27" x2="-12.0706" y2="16.0338" gradientUnits="userSpaceOnUse">
<stop stop-color="#C091FF"/>
<stop offset="1" stop-color="#6688FF"/>
</linearGradient>
</defs>
</svg>
