<svg width="27" height="27" viewBox="0 0 27 27" fill="none" xmlns="http://www.w3.org/2000/svg">
<path d="M19.1351 8.70868H17.7218C17.4144 8.70868 17.1221 8.85634 16.9413 9.10946L12.2043 15.6787L10.0587 12.7014C9.87793 12.4513 9.58865 12.3006 9.27827 12.3006H7.86499C7.66912 12.3006 7.55461 12.5236 7.66912 12.6833L11.4238 17.8905C11.5125 18.0143 11.6294 18.1152 11.7649 18.1848C11.9004 18.2543 12.0505 18.2906 12.2028 18.2906C12.3551 18.2906 12.5052 18.2543 12.6406 18.1848C12.7761 18.1152 12.893 18.0143 12.9817 17.8905L19.3279 9.09138C19.4455 8.93167 19.3309 8.70868 19.1351 8.70868Z" fill="url(#paint0_linear_1_95)"/>
<path d="M13.5 0C6.04487 0 0 6.04487 0 13.5C0 20.9551 6.04487 27 13.5 27C20.9551 27 27 20.9551 27 13.5C27 6.04487 20.9551 0 13.5 0ZM13.5 24.7098C7.31049 24.7098 2.29018 19.6895 2.29018 13.5C2.29018 7.31049 7.31049 2.29018 13.5 2.29018C19.6895 2.29018 24.7098 7.31049 24.7098 13.5C24.7098 19.6895 19.6895 24.7098 13.5 24.7098Z" fill="url(#paint1_linear_1_95)"/>
<defs>
<linearGradient id="paint0_linear_1_95" x1="21.9814" y1="18.2906" x2="2.90755" y2="12.5972" gradientUnits="userSpaceOnUse">
<stop stop-color="#C091FF"/>
<stop offset="1" stop-color="#6688FF"/>
</linearGradient>
<linearGradient id="paint1_linear_1_95" x1="32.9874" y1="27" x2="-12.0706" y2="16.0338" gradientUnits="userSpaceOnUse">
<stop stop-color="#C091FF"/>
<stop offset="1" stop-color="#6688FF"/>
</linearGradient>
</defs>
</svg>
