<svg width="47" height="66" viewBox="0 0 47 66" fill="none" xmlns="http://www.w3.org/2000/svg">
<path fill-rule="evenodd" clip-rule="evenodd" d="M8.85868 0.220604C8.14371 0.58858 7.84236 1.31027 7.8389 2.66298L7.83584 3.83455H15.4996H23.1633L23.0826 2.40727C23.0182 1.26707 22.91 0.887892 22.5449 0.522565C22.093 0.0704398 22.0137 0.0645296 15.7259 0.0127767C10.8793 -0.0271587 9.24356 0.0223539 8.85868 0.220604ZM9.36398 7.64797C8.76576 7.79263 8.36621 8.19912 4.15771 12.9425C0.745892 16.7879 0.310881 17.3584 0.197595 18.1381C0.127504 18.62 0.0981639 26.6749 0.132598 36.0381L0.195151 53.0624L0.881591 54.4147L1.56823 55.767L1.1371 56.3151C0.183334 57.5276 -0.00900662 59.9965 0.718795 61.6878C0.966557 62.2642 1.57801 63.099 2.1312 63.6163C3.88102 65.2531 2.86185 65.182 23.646 65.1182L41.9643 65.062L42.7793 64.6155C44.8198 63.4975 45.938 61.6654 45.9264 59.4588C45.9191 58.0319 45.5778 56.8145 45.0091 56.1861C44.668 55.8094 44.6823 55.7354 45.3461 54.4277L46.0393 53.0626L46.1029 39.8077C46.1377 32.5175 46.111 26.1749 46.0434 25.7132C45.9309 24.9461 45.2455 24.1541 38.1074 16.5444C33.8103 11.9632 29.9861 8.05486 29.6094 7.85905C28.9834 7.53346 28.0955 7.50473 19.3478 7.52612C14.0808 7.53896 9.58811 7.59377 9.36398 7.64797ZM27.7027 15.7359C28.3243 16.1434 37.369 25.6949 37.8454 26.4471C38.0455 26.7631 38.2637 27.4818 38.3303 28.0439C38.5728 30.091 37.0655 31.9052 34.9536 32.1082C33.0976 32.2864 32.8863 32.1277 27.7452 26.6918C25.1293 23.9259 22.8252 21.4128 22.6252 21.1072C21.3935 19.2258 22.158 16.5866 24.2142 15.6218C25.189 15.1646 26.9168 15.221 27.7027 15.7359ZM24.1602 38.7364C24.7071 39.1529 26.7185 42.3742 27.7025 44.4093C28.7426 46.5609 28.9938 47.9103 28.6336 49.4122C28.125 51.5322 25.9995 53.3725 23.7085 53.6763C21.6162 53.9538 19.2761 52.7007 18.1461 50.6975C17.5947 49.7199 17.514 49.3814 17.514 48.0458C17.514 46.6355 17.5907 46.3565 18.4847 44.5071C19.5082 42.3901 21.517 39.1608 22.0742 38.7364C22.2558 38.5983 22.725 38.4854 23.1172 38.4854C23.5094 38.4854 23.9787 38.5983 24.1602 38.7364ZM22.1439 45.7086C21.0828 47.848 21.0337 48.6172 21.9104 49.3549C22.2635 49.652 22.7906 49.8824 23.1172 49.8824C24.0147 49.8824 24.951 48.9827 24.951 48.1202C24.951 47.469 23.4086 43.9736 23.1213 43.9736C23.0569 43.9736 22.617 44.7544 22.1439 45.7086Z" fill="#98999B"/>
</svg>
