<svg width="77" height="65" viewBox="0 0 77 65" fill="none" xmlns="http://www.w3.org/2000/svg">
<path fill-rule="evenodd" clip-rule="evenodd" d="M11.9528 0.585086C10.856 1.68191 10.8698 3.18011 11.986 4.21458L12.6046 4.78796L19.4189 4.85127L26.2333 4.91458L24.5371 6.17578C23.6041 6.86933 21.991 8.23636 20.9525 9.21326L19.0642 10.9898L10.1942 11.0579L1.32427 11.1262L0.662254 11.7887C0.132117 12.3188 0 12.6686 0 13.5404C0 14.4688 0.115155 14.7325 0.780276 15.3267L1.56055 16.0238H8.55267H15.5448L14.4501 18.2531C13.2252 20.747 12.2973 23.5076 11.6656 26.5358C11.072 29.3814 11.0681 35.6819 11.6582 38.4812C12.5324 42.6294 14.2093 46.8583 16.2054 49.9488L17.054 51.2628L13.0248 51.3822C9.20991 51.4952 8.96432 51.5316 8.40049 52.0619C7.64196 52.7753 7.43482 53.6084 7.76595 54.612C8.25977 56.1078 8.51159 56.1604 15.1941 56.1604H21.2069L23.0508 57.6536C24.065 58.4749 25.2065 59.3826 25.5873 59.6709L26.2799 60.1953L14.1665 60.2085C5.99301 60.2175 1.86802 60.3062 1.4841 60.4811C0.817545 60.7847 0.119454 61.8689 0.119454 62.5999C0.119454 63.3107 0.749218 64.4589 1.30086 64.7539C1.6069 64.9178 9.38145 65 24.566 65C46.6213 65 47.4522 64.9838 49.8207 64.509C63.0488 61.8572 72.9024 52.0548 75.7564 38.7074C76.3512 35.9251 76.3646 29.4065 75.7815 26.4923C73.4531 14.8589 65.1257 5.29875 54.1127 1.61574C49.6375 0.119215 50.3958 0.168908 30.6376 0.0807504L12.5381 0L11.9528 0.585086ZM48.108 12.8356C54.0143 14.0652 59.2067 18.1886 61.855 23.752C63.4586 27.1206 63.766 28.5018 63.778 32.389C63.7897 36.153 63.4492 37.8693 62.1099 40.7967C59.4502 46.6103 54.4725 50.682 48.1446 52.2208C45.8302 52.7834 41.4826 52.7908 39.3004 52.2356C32.4046 50.4811 27.2449 45.9511 24.8278 39.5295C21.8527 31.6257 24.1407 22.7486 30.5803 17.2098C35.4275 13.0403 41.6427 11.4893 48.108 12.8356ZM39.0436 18.0218C36.6839 18.8549 35.0624 19.8141 33.4104 21.3546C32.1561 22.5238 30.2219 24.9951 30.2219 25.4282C30.2219 25.4972 31.6324 25.9997 33.3566 26.5449L36.4911 27.5361L37.5972 26.4541C38.2055 25.859 39.2677 25.0909 39.9574 24.7468L41.2117 24.1216V20.7893C41.2117 18.2803 41.1378 17.4585 40.913 17.4623C40.7489 17.4651 39.9075 17.717 39.0436 18.0218ZM46.2287 20.7893V24.1216L47.483 24.7468C48.1727 25.0909 49.2349 25.859 49.8432 26.4541L50.9493 27.5361L54.0838 26.5449C55.808 25.9997 57.2185 25.4972 57.2185 25.4282C57.2185 25.3592 56.8363 24.7268 56.369 24.0229C54.5521 21.2858 51.1328 18.7837 47.9173 17.8386C47.2037 17.6288 46.5319 17.4573 46.4242 17.4573C46.3167 17.4573 46.2287 18.9567 46.2287 20.7893ZM42.1721 29.2235C40.8062 29.9216 40.2128 30.7676 40.09 32.1922C39.9197 34.1687 41.2439 35.8525 43.2672 36.2319C44.2718 36.4204 46.093 35.5727 46.8136 34.5815C47.5 33.6368 47.4993 31.378 46.8119 30.4355C46.2684 29.6901 44.494 28.686 43.7202 28.686C43.4474 28.686 42.7507 28.9277 42.1721 29.2235ZM28.6133 33.1655C28.7512 36.1609 29.1898 37.8349 30.3765 39.8955C31.1252 41.1957 32.5627 43.0204 32.8382 43.0204C33.0682 43.0204 36.6724 38.1023 36.6724 37.7886C36.6724 37.6708 36.4096 37.1115 36.088 36.5458C35.7667 35.9801 35.3739 34.7898 35.2151 33.9008L34.9262 32.2846L32.0362 31.3214C30.4467 30.7917 28.997 30.3583 28.815 30.3583C28.5443 30.3583 28.5075 30.8701 28.6133 33.1655ZM55.2628 31.3476L52.4709 32.2992L52.3051 33.6261C52.2141 34.356 51.8323 35.5589 51.4568 36.299C51.0812 37.0394 50.7728 37.7255 50.7711 37.824C50.7661 38.1185 54.3899 43.0204 54.6125 43.0204C54.9902 43.0204 56.8045 40.5301 57.4844 39.0785C58.4816 36.9493 58.8909 35.0579 58.8909 32.5778C58.8909 30.6161 58.8424 30.3605 58.4728 30.3772C58.243 30.3875 56.7983 30.8242 55.2628 31.3476ZM38.8931 43.3516C36.6464 46.4089 36.6277 46.2741 39.4199 47.1509C40.7183 47.5587 41.6797 47.6761 43.7202 47.6761C45.7607 47.6761 46.7221 47.5587 48.0206 47.1509C50.8158 46.2732 50.7974 46.407 48.544 43.3633C46.7539 40.9451 46.5362 40.7343 45.9898 40.8908C45.1288 41.1371 42.4067 41.1445 41.5641 40.9028C40.8581 40.7004 40.807 40.7472 38.8931 43.3516Z" fill="#98999B"/>
</svg>
