<svg width="65" height="65" viewBox="0 0 65 65" fill="none" xmlns="http://www.w3.org/2000/svg">
<path fill-rule="evenodd" clip-rule="evenodd" d="M29.4921 0.129534C22.1478 0.981027 16.3221 3.49216 10.9139 8.13772C6.63021 11.8174 2.7409 17.9177 1.22575 23.3333C0.215316 26.9447 0 28.5652 0 32.5597C0 37.7489 0.754011 41.4325 2.7061 45.7805C7.10745 55.5845 15.727 62.4159 26.3875 64.5498C28.2965 64.932 29.3224 65.0069 32.5448 64.9995C35.9318 64.992 36.731 64.9236 38.9861 64.4486C42.012 63.8114 43.8045 63.2013 46.5871 61.8614C55.8733 57.39 62.3751 48.9203 64.4318 38.6152C65.0867 35.3334 65.0867 29.7861 64.4318 26.5043C61.9237 13.9378 52.6605 4.08804 40.4818 1.03801C36.9347 0.149682 32.489 -0.217861 29.4921 0.129534ZM36.615 4.15459C39.1901 4.55205 41.2103 5.09481 41.3363 5.42328C41.5105 5.87732 40.4107 9.13066 39.497 10.8646C38.4713 12.8108 36.6297 14.7826 35.0887 15.5844C33.5788 16.37 31.3917 16.4154 30.0009 15.6898C28.0317 14.6627 26.324 12.7906 25.0617 10.2752C24.4005 8.95808 23.4114 5.7837 23.5498 5.42328C23.6709 5.10743 25.6478 4.55999 28.0675 4.17209C30.273 3.8188 34.3839 3.81025 36.615 4.15459ZM56.4063 16.7367C58.2304 19.5989 59.3113 21.9664 60.1276 24.8888C60.6508 26.7619 61.1382 29.9705 61.1382 31.5408V32.7633L60.0698 32.7905C54.8985 32.9226 51.6356 32.0027 49.4216 29.7889C48.0561 28.4234 47.6041 27.1736 47.7683 25.2168C48.0243 22.1629 50.2646 19.1035 54.2499 16.3653C54.9604 15.8773 55.5538 15.4749 55.5687 15.4713C55.5833 15.4678 55.9604 16.0372 56.4063 16.7367ZM10.7967 16.4662C13.6465 18.3719 15.9299 21.0636 16.8095 23.5535C17.1253 24.448 17.2016 25.0609 17.1324 26.1491C17.025 27.8379 16.6554 28.6277 15.3778 29.899C13.2608 32.0056 9.91794 32.9208 4.81631 32.7905L3.74787 32.7633V31.5408C3.74787 28.8575 4.58227 24.8979 5.78666 21.8662C6.79872 19.3187 8.94109 15.6683 9.42422 15.6683C9.52272 15.6683 10.1404 16.0275 10.7967 16.4662ZM29.3395 25.1428C30.009 25.9035 29.9533 26.9404 29.2025 27.6911C28.444 28.4494 27.6084 28.4728 26.7604 27.7591C25.6657 26.838 25.9905 25.088 27.3552 24.5554C27.9202 24.335 28.8781 24.6185 29.3395 25.1428ZM38.2842 25.0685C38.6294 25.3927 38.7519 25.7336 38.7519 26.3699C38.7519 27.083 38.6434 27.3234 38.1257 27.7591C37.2777 28.4728 36.442 28.4494 35.6836 27.6911C34.3589 26.3665 35.3956 24.2274 37.2158 24.5294C37.5461 24.5841 38.027 24.8267 38.2842 25.0685ZM26.3985 33.5289C27.7425 34.7389 26.8619 36.8335 25.0094 36.8335C24.2448 36.8335 23.285 35.8153 23.285 35.0041C23.285 34.1697 23.5734 33.6569 24.2568 33.2757C24.9078 32.9128 25.8362 33.0225 26.3985 33.5289ZM40.5876 33.2741C41.7745 33.8879 41.9702 35.2746 41.0062 36.2386C39.3026 37.9422 36.7327 35.5208 38.318 33.7059C38.9666 32.9635 39.7125 32.8217 40.5876 33.2741ZM33.8167 38.9816C34.5191 39.7795 34.4452 40.9275 33.6484 41.5979C33.2958 41.8946 32.7693 42.1248 32.443 42.1248C32.1168 42.1248 31.5903 41.8946 31.2376 41.5979C30.7468 41.185 30.6114 40.9088 30.6114 40.3205C30.6114 38.4724 32.6276 37.6302 33.8167 38.9816ZM21.8148 45.1811C25.5523 46.8339 26.5642 51.8954 24.4178 58.2022C24.1322 59.0417 23.8978 59.7516 23.897 59.7795C23.8919 59.9596 23.0837 59.7461 21.7204 59.2045C18.6604 57.989 15.5721 56.0306 12.9647 53.6523C11.5481 52.3602 9.24269 49.6844 9.24269 49.3324C9.24269 48.9194 12.2374 46.8235 14.0623 45.9594C17.062 44.5389 19.7518 44.269 21.8148 45.1811ZM47.7203 44.8751C48.526 45.0446 49.9286 45.5352 50.837 45.9657C52.5704 46.7864 55.6434 48.9144 55.6434 49.2937C55.6434 49.7154 53.9349 51.7273 52.1497 53.4077C50.2399 55.2055 48.2284 56.6779 46.0783 57.852C44.6647 58.6237 41.7649 59.8303 41.3237 59.8303C41.0349 59.8303 39.9365 56.7831 39.5778 54.987C39.2814 53.5029 39.3118 50.7785 39.6384 49.553C40.3297 46.9588 41.8846 45.3321 44.1926 44.7884C45.3447 44.5169 46.1068 44.5358 47.7203 44.8751Z" fill="#98999B"/>
</svg>
