<svg width="52" height="65" viewBox="0 0 52 65" fill="none" xmlns="http://www.w3.org/2000/svg">
<path fill-rule="evenodd" clip-rule="evenodd" d="M23.3069 2.53906V5.07812H25.9475H28.5881V2.53906V0H25.9475H23.3069V2.53906ZM4.00657 9.19141C3.8977 9.44267 2.97449 12.6634 1.95501 16.3483C0.935523 20.0332 0.0570094 23.1638 0.00277503 23.3053C-0.0758343 23.5101 1.49229 23.5625 7.69634 23.5625H15.4886L22.7493 16.2998C26.7428 12.3053 30.01 8.96898 30.01 8.8857C30.01 8.80242 28.2971 8.73438 26.2035 8.73438H22.3967L18.6332 12.494L14.8697 16.2535L13.5033 14.8765L12.1366 13.4993L14.3702 11.2726C15.5987 10.048 16.6038 8.97589 16.6038 8.89017C16.6038 8.80445 13.8139 8.73438 10.4042 8.73438H4.20441L4.00657 9.19141ZM28.385 16.1484L20.973 23.5625H22.5462H24.1194V26.6616V29.7607L21.2584 33.4155C14.6727 41.8285 13.6028 43.2006 13.0615 43.9258L12.4931 44.6875H15.3609C16.9383 44.6875 18.2288 44.7358 18.2288 44.7952C18.2288 44.8543 15.854 47.9391 12.9518 51.6506L7.6746 58.3984L14.6784 58.4519L21.6819 58.5053V61.7526V65H25.9475H30.2131V61.7526V58.5053L37.2141 58.4519L44.2152 58.3984L42.5552 56.2656C41.6424 55.0926 39.2689 52.0607 37.2809 49.5282C35.2929 46.9954 33.6663 44.8728 33.6663 44.811C33.6663 44.7493 34.9531 44.6733 36.5259 44.6422L39.3857 44.5859L33.5842 37.1719L27.783 29.7578L27.7793 26.6602L27.7756 23.5625H28.3322C28.7827 23.5625 29.5867 22.8654 32.5511 19.9042L36.2133 16.2461L37.525 17.5697L38.8368 18.8933L36.5088 21.2278L34.1808 23.5625H43.0858C50.1878 23.5625 51.9711 23.5105 51.8923 23.3053C51.838 23.1638 50.9595 20.0332 49.94 16.3483C48.9206 12.6634 47.9973 9.44267 47.8885 9.19141L47.6906 8.73438H41.7437H35.797L28.385 16.1484Z" fill="#98999B"/>
</svg>
