<svg width="70" height="65" viewBox="0 0 70 65" fill="none" xmlns="http://www.w3.org/2000/svg">
<path fill-rule="evenodd" clip-rule="evenodd" d="M6.36685 0.113428C4.45282 0.618447 3.26198 1.76148 1.61675 4.67317C0.206871 7.16893 -0.138428 8.31305 0.0454134 9.88134C0.245552 11.5872 0.788601 12.4593 3.6979 15.7467C5.14537 17.3823 6.50289 18.9161 6.71454 19.1551C7.08679 19.5756 7.0644 19.6512 6.02677 21.4857C5.437 22.5284 4.95566 23.4573 4.95697 23.5501C4.95849 23.6427 5.71645 24.151 6.64109 24.6793C7.56595 25.2077 9.44717 26.2923 10.8216 27.0896C12.1961 27.8869 16.0098 30.0887 19.2966 31.9829C31.2239 38.8561 36.2056 41.7321 39.6884 43.755L43.2392 45.8173L47.7287 43.81C50.1982 42.7059 52.7074 41.5807 53.305 41.3093C53.9026 41.0381 56.2984 39.9702 58.629 38.9365C61.0993 37.8408 63.0703 36.831 63.3554 36.5146C63.9713 35.8312 63.993 34.7229 63.4054 33.9758C62.8506 33.2705 62.9397 33.2874 51.0963 31.6254L41.4994 30.2788L41.2641 29.3891C39.0897 21.1678 38.6423 19.9993 37.2739 18.9663C36.625 18.4767 31.035 15.1578 29.6749 14.4548L29.0793 14.1469L30.1095 12.3784L31.1398 10.61L31.9127 10.9861C32.338 11.193 33.1203 11.6602 33.6512 12.0242C35.2195 13.0994 36.8317 13.8311 37.6324 13.8311C38.5397 13.8311 39.5061 12.8289 39.5061 11.888C39.5061 10.9166 38.8142 10.284 35.979 8.66291C34.5126 7.82454 31.5038 6.09131 29.2927 4.81115C23.0944 1.22234 23.5006 1.38706 22.3365 1.98922C21.9132 2.20804 21.6211 2.59202 21.4542 3.14898C21.0407 4.52887 21.4592 5.01281 24.656 6.8534C26.1904 7.73675 27.4777 8.4858 27.5168 8.5184C27.556 8.55078 27.1363 9.36046 26.5842 10.3177L25.5804 12.0581L23.9969 11.1519C23.1262 10.6534 21.2167 9.56104 19.7538 8.72441C17.2493 7.29192 16.9653 7.05745 14.8859 4.70424C12.1459 1.6035 11.6074 1.08718 10.555 0.550213C9.63123 0.0788755 7.38537 -0.15538 6.36685 0.113428ZM9.72076 5.08952C10.2664 5.65974 11.2786 6.77452 11.9699 7.5666L13.2268 9.00691L11.5353 11.9312C10.605 13.5395 9.69707 15.0691 9.51779 15.3303C9.19835 15.796 9.15337 15.7617 7.23608 13.5825C3.47146 9.30375 3.53405 9.51801 5.20513 6.62262C6.45812 4.4513 6.88839 4.05232 7.97622 4.05232C8.59055 4.05232 8.91021 4.24225 9.72076 5.08952ZM1.96575 28.5536C1.20409 29.998 0.998083 30.8155 1.00982 32.3452C1.0209 33.757 1.87122 35.527 2.99665 36.4796C3.45908 36.8712 6.11782 38.5034 8.90499 40.1071C11.6922 41.7106 16.4173 44.4393 19.4052 46.1711C22.3932 47.9026 25.665 49.7538 26.6761 50.2845C28.4636 51.2232 28.559 51.2471 30.153 51.1595C31.6213 51.0785 32.1302 50.9144 35.0513 49.5799C36.8441 48.7609 38.3802 48.0334 38.4649 47.9632C38.5497 47.8932 35.7139 46.1595 32.1631 44.1106C28.6123 42.0618 23.898 39.3389 21.6869 38.0597C7.67808 29.9546 3.03424 27.3041 2.84214 27.3041C2.72241 27.3041 2.328 27.8665 1.96575 28.5536ZM60.176 41.1311C59.8981 41.3258 59.2514 42.3771 58.739 43.4671C58.2268 44.5573 57.1515 46.8182 56.3495 48.4915C53.2894 54.8768 53.32 54.7914 53.3178 56.9664C53.3161 58.6492 53.4006 59.1073 53.9235 60.2488C54.6929 61.9282 56.371 63.5999 58.0857 64.3952C59.207 64.9153 59.6634 65 61.3453 65C63.0273 65 63.4836 64.9153 64.6049 64.3952C67.2241 63.1805 69.1223 60.5739 69.4131 57.7933C69.5826 56.1719 69.2722 54.7082 68.3302 52.6857C64.7538 45.0069 63.094 41.6826 62.6283 41.266C61.9784 40.6845 60.8983 40.6252 60.176 41.1311Z" fill="#98999B"/>
</svg>
