<svg width="15" height="15" viewBox="0 0 15 15" fill="none" xmlns="http://www.w3.org/2000/svg">
<path d="M10.0147 7.89513C10.0147 8.33675 9.88375 8.76845 9.6384 9.13564C9.39305 9.50283 9.04433 9.78902 8.63633 9.95802C8.22833 10.127 7.77938 10.1712 7.34625 10.0851C6.91312 9.99892 6.51526 9.78627 6.20299 9.474C5.89072 9.16173 5.67806 8.76387 5.59191 8.33074C5.50575 7.89761 5.54997 7.44866 5.71897 7.04066C5.88797 6.63266 6.17416 6.28394 6.54135 6.03859C6.90854 5.79324 7.34024 5.66228 7.78185 5.66228C8.37348 5.66412 8.94034 5.89996 9.35868 6.3183C9.77702 6.73665 10.0129 7.30351 10.0147 7.89513ZM14.7595 4.82497V10.9653C14.7595 12.0016 14.3478 12.9955 13.615 13.7283C12.8822 14.4611 11.8883 14.8728 10.852 14.8728H4.71168C3.67536 14.8728 2.68147 14.4611 1.94868 13.7283C1.21588 12.9955 0.804199 12.0016 0.804199 10.9653V4.82497C0.804199 3.78864 1.21588 2.79475 1.94868 2.06196C2.68147 1.32916 3.67536 0.91748 4.71168 0.91748H10.852C11.8883 0.91748 12.8822 1.32916 13.615 2.06196C14.3478 2.79475 14.7595 3.78864 14.7595 4.82497ZM11.1311 7.89513C11.1311 7.23271 10.9347 6.58516 10.5667 6.03438C10.1986 5.48359 9.67556 5.05431 9.06356 4.80081C8.45156 4.54731 7.77814 4.48098 7.12844 4.61022C6.47875 4.73945 5.88196 5.05843 5.41356 5.52684C4.94515 5.99524 4.62617 6.59203 4.49693 7.24172C4.3677 7.89142 4.43403 8.56485 4.68753 9.17685C4.94103 9.78885 5.37031 10.3119 5.9211 10.68C6.47188 11.048 7.11943 11.2444 7.78185 11.2444C8.67014 11.2444 9.52204 10.8915 10.1501 10.2634C10.7783 9.63532 11.1311 8.78342 11.1311 7.89513ZM12.2476 4.26675C12.2476 4.10115 12.1984 3.93926 12.1064 3.80156C12.0144 3.66387 11.8837 3.55655 11.7307 3.49317C11.5777 3.4298 11.4093 3.41322 11.2469 3.44552C11.0845 3.47783 10.9353 3.55758 10.8182 3.67468C10.7011 3.79178 10.6213 3.94098 10.589 4.1034C10.5567 4.26582 10.5733 4.43418 10.6367 4.58718C10.7 4.74018 10.8073 4.87095 10.945 4.96296C11.0827 5.05496 11.2446 5.10407 11.4102 5.10407C11.6323 5.10407 11.8453 5.01586 12.0023 4.85883C12.1593 4.7018 12.2476 4.48882 12.2476 4.26675Z" fill="white"/>
</svg>
