<svg width="29" height="30" viewBox="0 0 29 30" fill="none" xmlns="http://www.w3.org/2000/svg">
<path d="M25.4291 2.5234C25.9026 2.5234 26.3566 2.71147 26.6914 3.04625C27.0262 3.38102 27.2143 3.83507 27.2143 4.30852V25.7299C27.2143 26.2034 27.0262 26.6574 26.6914 26.9922C26.3566 27.327 25.9026 27.515 25.4291 27.515H4.00773C3.53429 27.515 3.08024 27.327 2.74547 26.9922C2.41069 26.6574 2.22262 26.2034 2.22262 25.7299V4.30852C2.22262 3.83507 2.41069 3.38102 2.74547 3.04625C3.08024 2.71147 3.53429 2.5234 4.00773 2.5234H25.4291ZM4.00773 0.738281C3.06085 0.738281 2.15275 1.11443 1.4832 1.78398C0.813649 2.45353 0.4375 3.36163 0.4375 4.30852L0.4375 25.7299C0.4375 26.6768 0.813649 27.5849 1.4832 28.2545C2.15275 28.924 3.06085 29.3002 4.00773 29.3002H25.4291C26.376 29.3002 27.2841 28.924 27.9537 28.2545C28.6232 27.5849 28.9994 26.6768 28.9994 25.7299V4.30852C28.9994 3.36163 28.6232 2.45353 27.9537 1.78398C27.2841 1.11443 26.376 0.738281 25.4291 0.738281L4.00773 0.738281Z" fill="url(#paint0_linear_1_1346)"/>
<path d="M8.73293 9.032C8.81584 8.94888 8.91433 8.88293 9.02277 8.83793C9.13121 8.79294 9.24745 8.76978 9.36486 8.76978C9.48226 8.76978 9.59851 8.79294 9.70695 8.83793C9.81538 8.88293 9.91388 8.94888 9.99679 9.032L14.7202 13.7572L19.4436 9.032C19.5266 8.94901 19.6251 8.88318 19.7336 8.83827C19.842 8.79336 19.9582 8.77024 20.0756 8.77024C20.1929 8.77024 20.3091 8.79336 20.4176 8.83827C20.526 8.88318 20.6245 8.94901 20.7075 9.032C20.7905 9.11498 20.8563 9.2135 20.9012 9.32193C20.9461 9.43036 20.9692 9.54657 20.9692 9.66393C20.9692 9.78129 20.9461 9.8975 20.9012 10.0059C20.8563 10.1144 20.7905 10.2129 20.7075 10.2959L15.9823 15.0193L20.7075 19.7427C20.7905 19.8257 20.8563 19.9242 20.9012 20.0326C20.9461 20.1411 20.9692 20.2573 20.9692 20.3746C20.9692 20.492 20.9461 20.6082 20.9012 20.7166C20.8563 20.8251 20.7905 20.9236 20.7075 21.0066C20.6245 21.0896 20.526 21.1554 20.4176 21.2003C20.3091 21.2452 20.1929 21.2683 20.0756 21.2683C19.9582 21.2683 19.842 21.2452 19.7336 21.2003C19.6251 21.1554 19.5266 21.0896 19.4436 21.0066L14.7202 16.2814L9.99679 21.0066C9.9138 21.0896 9.81528 21.1554 9.70686 21.2003C9.59843 21.2452 9.48222 21.2683 9.36486 21.2683C9.2475 21.2683 9.13128 21.2452 9.02286 21.2003C8.91443 21.1554 8.81591 21.0896 8.73293 21.0066C8.64994 20.9236 8.58411 20.8251 8.5392 20.7166C8.49429 20.6082 8.47117 20.492 8.47117 20.3746C8.47117 20.2573 8.49429 20.1411 8.5392 20.0326C8.58411 19.9242 8.64994 19.8257 8.73293 19.7427L13.4581 15.0193L8.73293 10.2959C8.6498 10.2129 8.58386 10.1145 8.53886 10.006C8.49386 9.89758 8.4707 9.78133 8.4707 9.66393C8.4707 9.54653 8.49386 9.43028 8.53886 9.32184C8.58386 9.2134 8.6498 9.11491 8.73293 9.032Z" fill="url(#paint1_linear_1_1346)"/>
<defs>
<linearGradient id="paint0_linear_1_1346" x1="35.3332" y1="29.3002" x2="-12.3314" y2="17.6996" gradientUnits="userSpaceOnUse">
<stop stop-color="#C091FF"/>
<stop offset="1" stop-color="#6688FF"/>
</linearGradient>
<linearGradient id="paint1_linear_1_1346" x1="23.7409" y1="21.2683" x2="2.88311" y2="16.192" gradientUnits="userSpaceOnUse">
<stop stop-color="#C091FF"/>
<stop offset="1" stop-color="#6688FF"/>
</linearGradient>
</defs>
</svg>
