<svg width="18" height="19" viewBox="0 0 18 19" fill="none" xmlns="http://www.w3.org/2000/svg">
<path d="M16.823 16.4782C16.823 16.7904 16.699 17.0898 16.4782 17.3105C16.2575 17.5313 15.9581 17.6553 15.646 17.6553L6.22983 17.6553C5.91766 17.6553 5.61828 17.5313 5.39755 17.3105C5.17682 17.0898 5.05281 16.7904 5.05281 16.4782L5.05281 5.19535C5.05268 4.57107 4.80458 3.97242 4.36308 3.53105L2.00904 1.17702L15.646 1.17702C15.9581 1.17702 16.2575 1.30102 16.4782 1.52176C16.699 1.74249 16.823 2.04187 16.823 2.35403L16.823 16.4782ZM18 2.35403C18 1.7297 17.752 1.13095 17.3105 0.689479C16.8691 0.248012 16.2703 -1.83174e-06 15.646 -1.80445e-06L0.588383 -1.14626e-06C0.471935 2.35937e-05 0.358111 0.0345945 0.261319 0.099336C0.164526 0.164077 0.0891154 0.256079 0.0446318 0.363696C0.000148239 0.471314 -0.0114094 0.589709 0.0114229 0.703897C0.0342553 0.818086 0.0904509 0.922934 0.172897 1.00517L3.53093 4.3632C3.75168 4.58388 3.87573 4.88321 3.87579 5.19535L3.87579 16.4782C3.87579 17.1026 4.12381 17.7013 4.56527 18.1428C5.00674 18.5843 5.6055 18.8323 6.22983 18.8323L15.646 18.8323C16.2703 18.8323 16.8691 18.5843 17.3105 18.1428C17.752 17.7013 18 17.1026 18 16.4782L18 2.35403Z" fill="white"/>
<path d="M10.9379 5.88504C10.6257 5.88504 10.3263 5.76103 10.1056 5.5403C9.88484 5.31957 9.76083 5.02019 9.76083 4.70802C9.76083 4.39586 9.88484 4.09648 10.1056 3.87575C10.3263 3.65501 10.6257 3.53101 10.9379 3.53101C11.25 3.53101 11.5494 3.65501 11.7701 3.87575C11.9909 4.09648 12.1149 4.39586 12.1149 4.70802C12.1149 5.02019 11.9909 5.31957 11.7701 5.5403C11.5494 5.76103 11.25 5.88504 10.9379 5.88504V5.88504ZM10.9379 10.5931C10.6257 10.5931 10.3263 10.4691 10.1056 10.2484C9.88484 10.0276 9.76083 9.72826 9.76083 9.41609C9.76083 9.10393 9.88484 8.80455 10.1056 8.58382C10.3263 8.36308 10.6257 8.23907 10.9379 8.23907C11.25 8.23907 11.5494 8.36308 11.7701 8.58382C11.9909 8.80455 12.1149 9.10393 12.1149 9.41609C12.1149 9.72826 11.9909 10.0276 11.7701 10.2484C11.5494 10.4691 11.25 10.5931 10.9379 10.5931ZM10.9379 15.3012C10.6257 15.3012 10.3263 15.1772 10.1056 14.9564C9.88484 14.7357 9.76083 14.4363 9.76083 14.1242C9.76083 13.812 9.88484 13.5126 10.1056 13.2919C10.3263 13.0712 10.6257 12.9471 10.9379 12.9471C11.25 12.9471 11.5494 13.0712 11.7701 13.2919C11.9909 13.5126 12.1149 13.812 12.1149 14.1242C12.1149 14.4363 11.9909 14.7357 11.7701 14.9564C11.5494 15.1772 11.25 15.3012 10.9379 15.3012Z" fill="white"/>
</svg>
