<svg width="22" height="22" viewBox="0 0 22 22" fill="none" xmlns="http://www.w3.org/2000/svg">
<path d="M5.78947 13.6834C4.12632 13.6834 2.73368 14.8088 2.27684 16.3376H0V18.4609H2.27684C2.73368 19.9897 4.12632 21.115 5.78947 21.115C7.45263 21.115 8.84526 19.9897 9.30211 18.4609H21.0526V16.3376H9.30211C8.84526 14.8088 7.45263 13.6834 5.78947 13.6834ZM5.78947 18.9917C4.91895 18.9917 4.21053 18.2772 4.21053 17.3992C4.21053 16.5212 4.91895 15.8067 5.78947 15.8067C6.66 15.8067 7.36842 16.5212 7.36842 17.3992C7.36842 18.2772 6.66 18.9917 5.78947 18.9917ZM15.2632 7.31348C13.6 7.31348 12.2074 8.43883 11.7505 9.96762H0V12.0909H11.7505C12.2074 13.6197 13.6 14.7451 15.2632 14.7451C16.9263 14.7451 18.3189 13.6197 18.7758 12.0909H21.0526V9.96762H18.7758C18.3189 8.43883 16.9263 7.31348 15.2632 7.31348ZM15.2632 12.6218C14.3926 12.6218 13.6842 11.9073 13.6842 11.0293C13.6842 10.1513 14.3926 9.43679 15.2632 9.43679C16.1337 9.43679 16.8421 10.1513 16.8421 11.0293C16.8421 11.9073 16.1337 12.6218 15.2632 12.6218Z" fill="url(#paint0_linear_221_1811)"/>
<path d="M11.4074 3.5975C10.9505 2.06872 9.55789 0.943359 7.89474 0.943359C6.23158 0.943359 4.83895 2.06872 4.3821 3.5975H0V5.72081H4.3821C4.83895 7.2496 6.23158 8.37496 7.89474 8.37496C9.55789 8.37496 10.9505 7.2496 11.4074 5.72081H21.1842V3.5975H11.4074ZM7.89474 6.25164C7.02421 6.25164 6.31579 5.53715 6.31579 4.65916C6.31579 3.78117 7.02421 3.06667 7.89474 3.06667C8.76526 3.06667 9.47368 3.78117 9.47368 4.65916C9.47368 5.53715 8.76526 6.25164 7.89474 6.25164Z" fill="url(#paint1_linear_221_1811)"/>
<defs>
<linearGradient id="paint0_linear_221_1811" x1="25.7212" y1="21.115" x2="-6.98511" y2="8.97291" gradientUnits="userSpaceOnUse">
<stop stop-color="#C091FF"/>
<stop offset="1" stop-color="#6688FF"/>
</linearGradient>
<linearGradient id="paint1_linear_221_1811" x1="25.882" y1="8.37496" x2="0.602608" y2="-9.16302" gradientUnits="userSpaceOnUse">
<stop stop-color="#C091FF"/>
<stop offset="1" stop-color="#6688FF"/>
</linearGradient>
</defs>
</svg>
