<svg width="15" height="18" viewBox="0 0 15 18" fill="none" xmlns="http://www.w3.org/2000/svg">
<path d="M1.55647 7.72109C1.50037 7.7794 1.43343 7.82573 1.35958 7.85735C1.28572 7.88897 1.20642 7.90526 1.12632 7.90526C1.04622 7.90526 0.966927 7.88897 0.89307 7.85735C0.819213 7.82573 0.752278 7.7794 0.696177 7.72109C0.581989 7.6026 0.518003 7.4431 0.518003 7.27695C0.518003 7.1108 0.581989 6.9513 0.696177 6.83281L6.01765 1.35015C7.21765 0.399774 8.42471 -0.056514 9.62647 0.00558439C11.1406 0.0847824 12.3194 0.673367 13.32 1.63904C14.34 2.62362 15 4.02848 15 5.73124C15 7.03801 14.6276 8.18818 13.8415 9.20875L6.33882 17.0926C5.58 17.727 4.73647 18.0339 3.83294 17.997C2.68588 17.9484 1.83265 17.5704 1.19824 16.9306C0.455294 16.1827 0 15.2638 0 14.0281C0 13.0454 0.332647 12.1382 1.01912 11.2868L7.62265 4.41007C8.15206 3.83409 8.67 3.4921 9.19941 3.4093C9.55277 3.35253 9.91437 3.38477 10.2527 3.5032C10.5911 3.62163 10.8959 3.82267 11.1406 4.08878C11.61 4.59547 11.8112 5.22725 11.7406 5.94633C11.6921 6.43682 11.4953 6.88861 11.1335 7.3215L5.06294 13.6645C5.00721 13.7231 4.94061 13.7697 4.86702 13.8017C4.79344 13.8337 4.71434 13.8504 4.63434 13.851C4.55435 13.8515 4.47506 13.8357 4.40109 13.8046C4.32713 13.7736 4.25997 13.7278 4.20353 13.6699C4.08863 13.5522 4.02369 13.3931 4.0227 13.2269C4.02171 13.0608 4.08475 12.9009 4.19824 12.7817L10.2397 6.47102C10.4162 6.25953 10.5088 6.04623 10.5309 5.81944C10.5662 5.45945 10.4815 5.19395 10.2618 4.95726C10.1508 4.83604 10.0122 4.74467 9.85825 4.69128C9.70431 4.6379 9.53982 4.62415 9.37941 4.65127C9.165 4.68457 8.865 4.88346 8.49529 5.28485L1.91912 12.131C1.44529 12.7205 1.21588 13.3459 1.21588 14.029C1.21588 14.8876 1.52029 15.5023 2.04706 16.0324C2.46618 16.4554 3.03529 16.7074 3.88235 16.7434C4.48235 16.7677 5.03824 16.5652 5.52176 16.1656L12.9309 8.38077C13.5 7.63649 13.7841 6.76081 13.7841 5.73214C13.7841 4.39837 13.275 3.3166 12.4888 2.55702C11.6859 1.78124 10.7682 1.32405 9.56559 1.26105C8.67618 1.21425 7.74353 1.56704 6.81529 2.29243L1.55647 7.72109Z" fill="#202020"/>
</svg>
