<svg width="19" height="26" viewBox="0 0 19 26" fill="none" xmlns="http://www.w3.org/2000/svg">
<path d="M9.26027 26L8.69041 25.3589C8.33425 25.0027 0 15.1726 0 9.26027C0 4.13151 4.13151 0 9.26027 0C14.389 0 18.5205 4.13151 18.5205 9.26027C18.5205 15.1726 10.1863 25.0027 9.83014 25.4301L9.26027 26ZM9.26027 1.42466C4.91507 1.42466 1.42466 4.91507 1.42466 9.26027C1.42466 13.8192 7.40822 21.5123 9.26027 23.7918C11.1123 21.5123 17.0959 13.8192 17.0959 9.26027C17.0959 4.91507 13.6055 1.42466 9.26027 1.42466Z" fill="#202020"/>
<path d="M9.25989 12.822C7.26537 12.822 5.69824 11.2548 5.69824 9.26031C5.69824 7.26579 7.26537 5.69867 9.25989 5.69867C11.2544 5.69867 12.8215 7.26579 12.8215 9.26031C12.8215 11.2548 11.2544 12.822 9.25989 12.822ZM9.25989 7.12333C8.04893 7.12333 7.1229 8.04935 7.1229 9.26031C7.1229 10.4713 8.04893 11.3973 9.25989 11.3973C10.4708 11.3973 11.3969 10.4713 11.3969 9.26031C11.3969 8.04935 10.4708 7.12333 9.25989 7.12333Z" fill="#202020"/>
</svg>
