<svg width="19" height="10" viewBox="0 0 19 10" fill="none" xmlns="http://www.w3.org/2000/svg">
<path d="M18.5476 8.33333C18.5476 7.41417 17.736 6.66667 16.7381 6.66667C15.7401 6.66667 14.9286 7.41417 14.9286 8.33333C14.9286 9.2525 15.7401 10 16.7381 10C17.736 10 18.5476 9.2525 18.5476 8.33333ZM15.8333 8.33333C15.8333 7.87417 16.2396 7.5 16.7381 7.5C17.2366 7.5 17.6429 7.87417 17.6429 8.33333C17.6429 8.7925 17.2366 9.16667 16.7381 9.16667C16.2396 9.16667 15.8333 8.7925 15.8333 8.33333ZM8.59524 1.66667C8.59524 0.7475 7.78367 -4.90282e-07 6.78571 -5.33903e-07C5.78776 -5.77525e-07 4.97619 0.747499 4.97619 1.66667C4.97619 2.58583 5.78776 3.33333 6.78571 3.33333C7.78367 3.33333 8.59524 2.58583 8.59524 1.66667ZM5.88095 1.66667C5.88095 1.2075 6.28719 0.833333 6.78571 0.833333C7.28424 0.833333 7.69048 1.2075 7.69048 1.66667C7.69048 2.12583 7.28424 2.5 6.78571 2.5C6.28719 2.5 5.88095 2.12583 5.88095 1.66667ZM9.95238 1.66667C9.95238 1.77717 10 1.88315 10.0849 1.96129C10.1697 2.03943 10.2848 2.08333 10.4048 2.08333L18.5476 2.08333C18.6676 2.08333 18.7827 2.03944 18.8675 1.9613C18.9523 1.88315 19 1.77717 19 1.66667C19 1.55616 18.9523 1.45018 18.8675 1.37204C18.7827 1.2939 18.6676 1.25 18.5476 1.25L10.4048 1.25C10.2848 1.25 10.1697 1.2939 10.0849 1.37204C10 1.45018 9.95238 1.55616 9.95238 1.66667ZM3.61905 1.66667C3.61905 1.55616 3.57139 1.45018 3.48655 1.37204C3.40171 1.2939 3.28665 1.25 3.16667 1.25L0.452381 1.25C0.332401 1.25 0.217337 1.2939 0.1325 1.37204C0.0476608 1.45018 -6.80219e-08 1.55616 -7.28523e-08 1.66667C-7.76827e-08 1.77717 0.0476607 1.88315 0.1325 1.96129C0.217337 2.03943 0.332401 2.08333 0.452381 2.08333L3.16667 2.08333C3.28665 2.08333 3.40171 2.03943 3.48655 1.96129C3.57139 1.88315 3.61905 1.77717 3.61905 1.66667ZM13.5714 8.33333C13.5714 8.22283 13.5238 8.11685 13.4389 8.03871C13.3541 7.96057 13.239 7.91667 13.119 7.91667L0.452381 7.91667C0.332401 7.91667 0.217336 7.96057 0.132499 8.03871C0.0476605 8.11685 -3.59431e-07 8.22283 -3.64262e-07 8.33333C-3.69092e-07 8.44384 0.0476605 8.54982 0.132499 8.62796C0.217336 8.7061 0.332401 8.75 0.452381 8.75L13.119 8.75C13.239 8.75 13.3541 8.7061 13.4389 8.62796C13.5238 8.54982 13.5714 8.44384 13.5714 8.33333Z" fill="#202020"/>
</svg>
