<svg width="22" height="22" viewBox="0 0 22 22" fill="none" xmlns="http://www.w3.org/2000/svg">
<path d="M16.9921 6.32859C17.0909 6.53052 17.3401 6.61645 17.5421 6.51334C17.744 6.41452 17.8299 6.16533 17.7268 5.9634C16.498 3.47581 13.8558 1.86467 10.9901 1.86467C7.02026 1.86467 3.76362 4.86783 3.5488 8.64004C3.10627 8.67871 2.68093 8.78612 2.29426 8.96227C2.35441 7.90106 2.60789 6.87853 3.04612 5.91185C3.14064 5.70562 3.04612 5.46073 2.8399 5.36621C2.63367 5.27169 2.38878 5.36621 2.29426 5.57243C1.74003 6.80119 1.45647 8.11588 1.45647 9.47353C0.571417 10.1824 0 11.2737 0 12.4939C0 14.6292 1.73573 16.3649 3.87103 16.3649H4.62289C4.8506 16.3649 5.03534 16.1802 5.03534 15.9525V14.5776C5.03534 14.3499 4.8506 14.1652 4.62289 14.1652C4.39518 14.1652 4.21044 14.3499 4.21044 14.5776V15.54H3.86673C2.18685 15.54 0.820606 14.1738 0.820606 12.4939C0.820606 10.814 2.18685 9.44776 3.86673 9.44776H4.21044V12.9364C4.21044 13.1641 4.39518 13.3489 4.62289 13.3489C4.8506 13.3489 5.03534 13.1641 5.03534 12.9364V9.0353C5.03534 8.8076 4.8506 8.62285 4.62289 8.62285H4.3737C4.59711 5.31035 7.47568 2.68528 10.9901 2.68528C13.5464 2.68957 15.9008 4.11597 16.9921 6.32859Z" fill="white"/>
<path d="M20.4292 9.40476C20.3863 4.21045 16.15 1.21158e-05 10.9471 1.21158e-05C8.27481 -0.00428425 5.70988 1.13425 3.914 3.11488C3.76362 3.28244 3.77651 3.54451 3.94407 3.69489C4.11163 3.84956 4.37371 3.83667 4.52408 3.66481C6.16529 1.85175 8.50681 0.816322 10.9471 0.816322C15.5357 0.816322 19.2993 4.40379 19.5914 8.91927C19.2305 8.76889 18.8439 8.67437 18.4357 8.64C18.4142 8.2834 18.367 7.92681 18.2939 7.5788C18.2467 7.35539 18.0276 7.21791 17.8041 7.26517C17.5807 7.31243 17.439 7.53154 17.4905 7.75495C17.5507 8.04281 17.5893 8.33496 17.6108 8.63141H17.3616C17.1339 8.63141 16.9492 8.81615 16.9492 9.04386V15.961C16.9492 16.1887 17.1339 16.3735 17.3616 16.3735H18.1135C18.5904 16.3735 19.0544 16.2832 19.4883 16.12V17.1382C19.4883 17.7999 19.2305 18.4185 18.7622 18.8868C18.2939 19.3551 17.6753 19.6129 17.0136 19.6129H15.5657C15.5486 19.6129 15.5357 19.6172 15.5185 19.6172V18.947C15.5185 18.7193 15.3337 18.5345 15.106 18.5345H13.0653C12.4595 18.5345 11.9697 19.0243 11.9697 19.6301V20.2703C11.9697 20.8761 12.4595 21.3658 13.0653 21.3658H15.106C15.3337 21.3658 15.5185 21.1811 15.5185 20.9534V20.4292C15.5357 20.4292 15.5486 20.4335 15.5657 20.4335H17.0136C17.8944 20.4335 18.7193 20.0898 19.3422 19.4668C19.9652 18.8439 20.3089 18.019 20.3089 17.1382V15.686C20.4808 15.57 20.644 15.4411 20.7944 15.2951C20.9577 15.1361 20.962 14.8783 20.8073 14.7151C20.6483 14.5518 20.3906 14.5475 20.2273 14.7022C20.0597 14.8654 19.8707 15.0029 19.6774 15.1189C19.6774 15.1189 19.6731 15.1189 19.6731 15.1232C19.2048 15.4025 18.672 15.5529 18.1178 15.5529H17.7741V9.44772H18.1178C19.7977 9.44772 21.1639 10.814 21.1639 12.4938C21.1639 12.8848 21.0909 13.2629 20.9491 13.6195C20.8632 13.83 20.9663 14.0706 21.1768 14.1522C21.3873 14.2339 21.6279 14.1351 21.7095 13.9245C21.89 13.4691 21.9845 12.9879 21.9845 12.4938C21.9845 11.2307 21.3701 10.1094 20.4292 9.40476ZM14.7022 20.5323H13.0696C12.9192 20.5323 12.7946 20.4077 12.7946 20.2574V19.6172C12.7946 19.4668 12.9192 19.3422 13.0696 19.3422H14.7022V20.5323Z" fill="white"/>
</svg>
