<svg width="35" height="34" viewBox="0 0 35 34" fill="none" xmlns="http://www.w3.org/2000/svg">
<path d="M27.04 10.0708C27.1973 10.3922 27.5938 10.5289 27.9151 10.3648C28.2365 10.2076 28.3732 9.81104 28.2091 9.4897C26.2538 5.53113 22.0491 2.96729 17.4888 2.96729C11.1715 2.96729 5.98914 7.74629 5.64729 13.7491C4.94309 13.8106 4.26624 13.9816 3.65091 14.2619C3.74663 12.5732 4.15001 10.946 4.84737 9.40766C4.99779 9.07949 4.84737 8.68978 4.5192 8.53937C4.19103 8.38896 3.80133 8.53937 3.65091 8.86754C2.76895 10.8229 2.31771 12.915 2.31771 15.0755C0.90931 16.2036 0 17.9401 0 19.8818C0 23.2798 2.76211 26.0419 6.16006 26.0419H7.35652C7.71888 26.0419 8.01287 25.7479 8.01287 25.3855V23.1977C8.01287 22.8354 7.71888 22.5414 7.35652 22.5414C6.99416 22.5414 6.70018 22.8354 6.70018 23.1977V24.7292H6.15322C3.47999 24.7292 1.30585 22.555 1.30585 19.8818C1.30585 17.2086 3.47999 15.0344 6.15322 15.0344H6.70018V20.586C6.70018 20.9484 6.99416 21.2424 7.35652 21.2424C7.71888 21.2424 8.01287 20.9484 8.01287 20.586V14.3781C8.01287 14.0157 7.71888 13.7218 7.35652 13.7218H6.95998C7.3155 8.45049 11.8962 4.27314 17.4888 4.27314C21.5568 4.27997 25.3034 6.54983 27.04 10.0708Z" fill="#202020"/>
<path d="M32.5095 14.966C32.4412 6.7002 25.7 1.92802e-05 17.4205 1.92802e-05C13.1679 -0.00681764 9.08626 1.80497 6.22843 4.95678C5.98914 5.22342 6.00965 5.64047 6.27629 5.87977C6.54293 6.1259 6.95998 6.10539 7.19927 5.83191C9.81097 2.94673 13.5371 1.29903 17.4205 1.29903C24.7223 1.29903 30.7114 7.00786 31.1763 14.1935C30.602 13.9542 29.9867 13.8038 29.3372 13.7491C29.303 13.1816 29.2278 12.6141 29.1116 12.0603C29.0364 11.7048 28.6877 11.486 28.3322 11.5612C27.9767 11.6364 27.751 11.9851 27.8331 12.3407C27.9288 12.7987 27.9903 13.2636 28.0245 13.7354H27.628C27.2656 13.7354 26.9716 14.0294 26.9716 14.3917V25.3992C26.9716 25.7615 27.2656 26.0555 27.628 26.0555H28.8244C29.5833 26.0555 30.3217 25.9119 31.0122 25.6521V27.2725C31.0122 28.3254 30.602 29.3099 29.8568 30.0551C29.1116 30.8003 28.1271 31.2105 27.0742 31.2105H24.7701C24.7428 31.2105 24.7223 31.2174 24.6949 31.2174V30.1508C24.6949 29.7885 24.4009 29.4945 24.0386 29.4945H20.7911C19.8271 29.4945 19.0476 30.2739 19.0476 31.2379V32.2566C19.0476 33.2206 19.8271 34 20.7911 34H24.0386C24.4009 34 24.6949 33.706 24.6949 33.3437V32.5096C24.7223 32.5096 24.7428 32.5164 24.7701 32.5164H27.0742C28.4758 32.5164 29.7884 31.9694 30.7798 30.9781C31.7711 29.9867 32.3181 28.674 32.3181 27.2725V24.9616C32.5916 24.777 32.8514 24.5719 33.0907 24.3394C33.3505 24.0865 33.3573 23.6763 33.1112 23.4165C32.8582 23.1567 32.448 23.1498 32.1882 23.3959C31.9216 23.6557 31.6207 23.8745 31.3131 24.0591C31.3131 24.0591 31.3062 24.0591 31.3062 24.066C30.561 24.5104 29.7132 24.7497 28.8313 24.7497H28.2843V15.0344H28.8313C31.5045 15.0344 33.6786 17.2085 33.6786 19.8818C33.6786 20.5039 33.5624 21.1056 33.3368 21.673C33.2001 22.0081 33.3641 22.3909 33.6992 22.5208C34.0342 22.6507 34.417 22.4935 34.5469 22.1585C34.8341 21.4338 34.9845 20.668 34.9845 19.8818C34.9845 17.8717 34.0068 16.0873 32.5095 14.966ZM23.3959 32.6736H20.7979C20.5586 32.6736 20.3603 32.4754 20.3603 32.2361V31.2174C20.3603 30.9781 20.5586 30.7798 20.7979 30.7798H23.3959V32.6736Z" fill="#202020"/>
</svg>
