<svg width="15" height="15" viewBox="0 0 15 15" fill="none" xmlns="http://www.w3.org/2000/svg">
<path d="M7.12394 14.9977C6.65488 14.9977 6.1907 14.9537 5.7314 14.8658C5.27211 14.7778 4.82747 14.6434 4.3975 14.4627C3.96752 14.2819 3.55953 14.062 3.17353 13.803C2.78752 13.5441 2.42351 13.2485 2.08148 12.9162C1.74923 12.5742 1.45362 12.2102 1.19465 11.8242C0.93569 11.4382 0.718258 11.0302 0.542358 10.6002C0.366458 10.1702 0.23209 9.72801 0.139254 9.27361C0.046418 8.8192 0 8.35257 0 7.87374C0 7.3949 0.046418 6.92583 0.139254 6.46654C0.23209 6.00724 0.366458 5.56505 0.542358 5.13996C0.718258 4.71487 0.93569 4.30688 1.19465 3.91599C1.45362 3.5251 1.74923 3.16353 2.08148 2.83127C2.42351 2.48925 2.78752 2.18875 3.17353 1.92979C3.55953 1.67082 3.96752 1.45339 4.3975 1.27749C4.82747 1.10159 5.27211 0.967224 5.7314 0.874388C6.1907 0.781551 6.65488 0.735134 7.12394 0.735134C7.60278 0.735134 8.07185 0.781551 8.53114 0.874388C8.99044 0.967224 9.43263 1.10159 9.85772 1.27749C10.2828 1.45339 10.6908 1.67082 11.0817 1.92979C11.4726 2.18875 11.8342 2.48925 12.1664 2.83127C12.5084 3.16353 12.8089 3.5251 13.0679 3.91599C13.3269 4.30688 13.5443 4.71487 13.7202 5.13996C13.8961 5.56505 14.0305 6.00724 14.1233 6.46654C14.2161 6.92583 14.2625 7.3949 14.2625 7.87374C14.2625 8.35257 14.2161 8.8192 14.1233 9.27361C14.0305 9.72801 13.8961 10.1702 13.7202 10.6002C13.5443 11.0302 13.3269 11.4382 13.0679 11.8242C12.8089 12.2102 12.5084 12.5742 12.1664 12.9162C11.8342 13.2485 11.4726 13.5441 11.0817 13.803C10.6908 14.062 10.2828 14.2819 9.85772 14.4627C9.43263 14.6434 8.99044 14.7778 8.53114 14.8658C8.07185 14.9537 7.60278 14.9977 7.12394 14.9977ZM7.12394 1.49737C6.24444 1.49737 5.41869 1.66349 4.64669 1.99575C3.87468 2.328 3.2004 2.78241 2.62384 3.35897C2.04728 3.93553 1.59043 4.61226 1.25329 5.38915C0.916145 6.16604 0.747574 6.99424 0.747574 7.87374C0.747574 8.75324 0.916145 9.57899 1.25329 10.351C1.59043 11.123 2.04728 11.7973 2.62384 12.3738C3.2004 12.9504 3.87468 13.4073 4.64669 13.7444C5.41869 14.0815 6.24444 14.2501 7.12394 14.2501C8.00344 14.2501 8.83164 14.0815 9.60853 13.7444C10.3854 13.4073 11.0621 12.9504 11.6387 12.3738C12.2153 11.7973 12.6721 11.123 13.0093 10.351C13.3464 9.57899 13.515 8.75324 13.515 7.87374C13.515 6.99424 13.3464 6.16604 13.0093 5.38915C12.6721 4.61226 12.2153 3.93553 11.6387 3.35897C11.0621 2.78241 10.3854 2.328 9.60853 1.99575C8.83164 1.66349 8.00344 1.49737 7.12394 1.49737ZM5.6288 10.8787C5.57993 10.8787 5.53352 10.8689 5.48954 10.8494C5.44557 10.8298 5.40403 10.8005 5.36495 10.7614L3.10756 8.5187C3.03916 8.44052 3.00496 8.35013 3.00496 8.24752C3.00496 8.14492 3.03916 8.05452 3.10756 7.97634C3.18574 7.90794 3.27613 7.87374 3.37874 7.87374C3.48135 7.87374 3.57174 7.90794 3.64992 7.97634L5.6288 9.96988L10.6126 4.97139C10.6908 4.90298 10.7812 4.86878 10.8838 4.86878C10.9864 4.86878 11.0768 4.90298 11.155 4.97139C11.2234 5.04957 11.2576 5.13996 11.2576 5.24257C11.2576 5.34518 11.2234 5.43557 11.155 5.51375L5.89265 10.7614C5.85356 10.8005 5.81202 10.8298 5.76805 10.8494C5.72407 10.8689 5.67766 10.8787 5.6288 10.8787Z" fill="#059B13"/>
</svg>
