<svg width="17" height="20" viewBox="0 0 17 20" fill="none" xmlns="http://www.w3.org/2000/svg">
<path d="M1 3.75V16.244" stroke="#202020" stroke-linecap="round"/>
<path d="M16 7.5V16.25" stroke="#202020" stroke-linecap="round" stroke-linejoin="round"/>
<path d="M3.5 1.25H9.74999" stroke="#202020" stroke-linecap="round" stroke-linejoin="round"/>
<path d="M3.5 18.75H13.5" stroke="#202020" stroke-linecap="round"/>
<path d="M16 16.25C16.0068 17.4986 14.75 18.75 13.5 18.75" stroke="#202020" stroke-linecap="round" stroke-linejoin="round"/>
<path d="M1 16.25C1 17.5 2.25 18.75 3.5 18.75" stroke="#202020" stroke-linecap="round" stroke-linejoin="round"/>
<path d="M1.00001 3.74817C1.00001 2.49999 2.25 1.27783 3.5 1.24999" stroke="#202020" stroke-linecap="round" stroke-linejoin="round"/>
<path d="M15.9932 7.5056L9.75 1.25" stroke="#202020" stroke-linecap="round" stroke-linejoin="round"/>
<path d="M9.75 5C9.75385 6.2432 11.005 7.5 12.25 7.5" stroke="#202020" stroke-linecap="round" stroke-linejoin="round"/>
<path d="M9.75 4.99999V1.25" stroke="#202020" stroke-linecap="round" stroke-linejoin="round"/>
<path d="M12.25 7.5H16" stroke="#202020" stroke-linecap="round" stroke-linejoin="round"/>
<path d="M3.5 16.25H7.24999" stroke="#202020" stroke-linecap="round" stroke-linejoin="round"/>
<path d="M3.5 13.75H9.74999" stroke="#202020" stroke-linecap="round" stroke-linejoin="round"/>
<path d="M3.5 11.25H7.24999" stroke="#202020" stroke-linecap="round" stroke-linejoin="round"/>
</svg>
