<svg width="18" height="18" viewBox="0 0 18 18" fill="none" xmlns="http://www.w3.org/2000/svg">
<path d="M16.9866 17.4564L11.6409 11.6183C12.2388 10.997 12.6989 10.2849 13.0213 9.48184C13.3437 8.67881 13.5049 7.83769 13.5049 6.95846C13.5049 6.05579 13.3349 5.19416 12.9949 4.37355C12.655 3.55294 12.1685 2.82611 11.5354 2.19307C10.8906 1.54831 10.158 1.05594 9.33735 0.715977C8.51674 0.376011 7.65511 0.206028 6.75244 0.206028C5.84977 0.206028 4.98813 0.376011 4.16752 0.715977C3.34691 1.05594 2.61422 1.54831 1.96946 2.19307C1.33642 2.82611 0.849916 3.55294 0.50995 4.37355C0.169983 5.19416 0 6.05579 0 6.95846C0 7.86113 0.169983 8.72277 0.50995 9.54338C0.849916 10.364 1.33642 11.0967 1.96946 11.7414C2.61422 12.3745 3.34691 12.861 4.16752 13.201C4.98813 13.5409 5.84977 13.7109 6.75244 13.7109C7.52615 13.7109 8.27349 13.5849 8.99446 13.3328C9.71542 13.0808 10.3748 12.7144 10.9727 12.2338L16.3184 18.0718C16.3653 18.1187 16.418 18.1539 16.4766 18.1774C16.5353 18.2008 16.5939 18.2125 16.6525 18.2125C16.7111 18.2125 16.7668 18.2037 16.8195 18.1861C16.8723 18.1686 16.9163 18.1363 16.9514 18.0894C17.0452 18.0074 17.095 17.9048 17.1009 17.7817C17.1068 17.6586 17.0687 17.5502 16.9866 17.4564ZM0.896808 6.95846C0.896808 6.14958 1.05214 5.39052 1.3628 4.68128C1.67346 3.97204 2.09255 3.35365 2.62009 2.82611C3.14762 2.29858 3.76601 1.87948 4.47525 1.56882C5.18449 1.25817 5.94355 1.10284 6.75244 1.10284C7.56132 1.10284 8.32038 1.25817 9.02962 1.56882C9.73886 1.87948 10.3573 2.29858 10.8848 2.82611C11.4123 3.35365 11.8314 3.97204 12.1421 4.68128C12.4527 5.39052 12.6081 6.14958 12.6081 6.95846C12.6081 7.76735 12.4527 8.52641 12.1421 9.23565C11.8314 9.94489 11.4123 10.5662 10.8848 11.0996C10.3573 11.633 9.73886 12.0521 9.02962 12.3569C8.32038 12.6617 7.56132 12.8141 6.75244 12.8141C5.94355 12.8141 5.18449 12.6617 4.47525 12.3569C3.76601 12.0521 3.14762 11.633 2.62009 11.0996C2.09255 10.5662 1.67346 9.94489 1.3628 9.23565C1.05214 8.52641 0.896808 7.76735 0.896808 6.95846Z" fill="#202020"/>
</svg>
