<svg width="18" height="13" viewBox="0 0 18 13" fill="none" xmlns="http://www.w3.org/2000/svg">
<path d="M1.0003 12.5C0.868227 12.5033 0.736886 12.4794 0.614413 12.4299C0.49194 12.3803 0.380943 12.3062 0.288299 12.212C0.194113 12.1194 0.119953 12.0084 0.0704132 11.8859C0.0208734 11.7634 -0.00299069 11.6321 0.000299289 11.5C0.000299289 11.217 0.0962994 10.98 0.288299 10.788C0.380943 10.6938 0.49194 10.6197 0.614413 10.5701C0.736886 10.5206 0.868227 10.4967 1.0003 10.5H17.0003C17.2833 10.5 17.5203 10.596 17.7123 10.788C17.8065 10.8806 17.8806 10.9916 17.9302 11.1141C17.9797 11.2366 18.0036 11.3679 18.0003 11.5C18.0003 11.783 17.9043 12.02 17.7123 12.212C17.6197 12.3062 17.5087 12.3803 17.3862 12.4299C17.2637 12.4794 17.1324 12.5033 17.0003 12.5H1.0003ZM1.0003 7.5C0.868227 7.50329 0.736886 7.47942 0.614413 7.42988C0.49194 7.38034 0.380943 7.30618 0.288299 7.212C0.194113 7.11935 0.119953 7.00836 0.0704132 6.88588C0.0208734 6.76341 -0.00299069 6.63207 0.000299289 6.5C0.000299289 6.217 0.0962994 5.979 0.288299 5.787C0.3811 5.69309 0.492147 5.61918 0.6146 5.56982C0.737052 5.52046 0.868315 5.4967 1.0003 5.5H17.0003C17.1323 5.49687 17.2635 5.52072 17.3859 5.57006C17.5083 5.61941 17.6194 5.69323 17.7123 5.787C17.9043 5.979 18.0003 6.217 18.0003 6.5C18.0003 6.783 17.9043 7.02 17.7123 7.212C17.6197 7.30618 17.5087 7.38034 17.3862 7.42988C17.2637 7.47942 17.1324 7.50329 17.0003 7.5H1.0003ZM1.0003 2.5C0.868315 2.5033 0.737052 2.47954 0.6146 2.43018C0.492147 2.38082 0.3811 2.30691 0.288299 2.213C0.194133 2.12013 0.119996 2.00895 0.0704623 1.88632C0.0209289 1.76369 -0.00295001 1.63221 0.000299289 1.5C0.000299289 1.217 0.0962994 0.978997 0.288299 0.786997C0.3811 0.693088 0.492147 0.619176 0.6146 0.569817C0.737052 0.520457 0.868315 0.496696 1.0003 0.499997H17.0003C17.1323 0.496873 17.2635 0.520716 17.3859 0.570065C17.5083 0.619414 17.6194 0.693231 17.7123 0.786997C17.9043 0.978997 18.0003 1.217 18.0003 1.5C18.0035 1.63221 17.9797 1.76369 17.9301 1.88632C17.8806 2.00895 17.8065 2.12013 17.7123 2.213C17.6195 2.30691 17.5085 2.38082 17.386 2.43018C17.2635 2.47954 17.1323 2.5033 17.0003 2.5H1.0003Z" fill="#00AD3B"/>
</svg>
