<svg width="20" height="20" viewBox="0 0 20 20" fill="none" xmlns="http://www.w3.org/2000/svg">
<path d="M13.125 15H10.625V17.5H13.125V15Z" fill="#015FC9"/>
<path d="M17.5 15H15V17.5H17.5V15Z" fill="#015FC9"/>
<path d="M13.125 10.625H10.625V13.125H13.125V10.625Z" fill="#015FC9"/>
<path d="M17.5 10.625H15V13.125H17.5V10.625Z" fill="#015FC9"/>
<path d="M17.5 6.875H13.75V4.375C13.75 3.3125 12.9375 2.5 11.875 2.5H8.125C7.0625 2.5 6.25 3.3125 6.25 4.375V6.875H2.5C2.125 6.875 1.875 7.125 1.875 7.5C1.875 7.5625 1.875 7.5625 1.875 7.625L3.0625 15.1875C3.125 15.8125 3.6875 16.25 4.3125 16.25H9.375V15H4.3125L3.25 8.125H17.5V6.875ZM7.5 4.375C7.5 4 7.75 3.75 8.125 3.75H11.875C12.25 3.75 12.5 4 12.5 4.375V6.875H7.5V4.375Z" fill="#015FC9"/>
</svg>
