<svg width="20" height="20" viewBox="0 0 20 20" fill="none" xmlns="http://www.w3.org/2000/svg">
<path d="M10.95 0.0292969V0.0492969V2.0493C15.34 2.5893 18.45 6.5793 17.91 10.9693C17.45 14.6093 14.59 17.4993 10.95 17.9293V19.9293C16.45 19.3793 20.45 14.4993 19.9 8.9993C19.45 4.2493 15.68 0.499297 10.95 0.0292969ZM8.95 0.0592968C7 0.249297 5.14 0.999297 3.62 2.2593L5.05 3.7393C6.17 2.8393 7.52 2.2593 8.95 2.0593V0.0592968ZM2.21 3.6693C0.95 5.1893 0.2 7.0393 0 8.9993H2C2.19 7.5793 2.75 6.2293 3.64 5.0993L2.21 3.6693ZM13.45 6.4993L8.57 11.3793L6.45 9.2593L5.39 10.3193L8.57 13.4993L14.51 7.5593L13.45 6.4993ZM0.00999999 10.9993C0.21 12.9593 0.98 14.8093 2.22 16.3293L3.64 14.8993C2.76 13.7693 2.19 12.4193 2.01 10.9993H0.00999999ZM5.05 16.3693L3.62 17.7393C5.13 18.9993 6.99 19.7893 8.95 19.9993V17.9993C7.53 17.8193 6.18 17.2493 5.05 16.3693Z" fill="#00AD3B"/>
</svg>
