<svg width="25" height="25" viewBox="0 0 25 25" fill="none" xmlns="http://www.w3.org/2000/svg">
<g clip-path="url(#clip0_296_10681)">
<path d="M0.628592 14.1779L10.8753 24.3826C11.7037 25.2079 13.0442 25.2079 13.8727 24.3826L23.9497 14.4358C25.0088 13.3792 25.0088 11.0636 25.0088 10.565V2.12332C25.0088 0.95733 24.1608 0 22.9907 0L14.0595 0.0125039C12.6463 0.0125039 11.5873 0.364176 10.5275 1.41998L0.628592 11.1918C-0.199114 12.0163 -0.199114 13.3526 0.628592 14.1779Z" fill="#00AD3B"/>
<path d="M19.9266 7.0354C18.8488 7.0354 17.9727 6.15935 17.9727 5.08167C17.9727 4.00398 18.8488 3.12793 19.9266 3.12793C21.0045 3.12793 21.8806 4.00477 21.8806 5.08167C21.8806 6.15935 21.0045 7.0354 19.9266 7.0354Z" fill="#666666"/>
<path d="M19.9263 3.90918C20.5727 3.90918 21.0987 4.43356 21.0987 5.08142C21.0987 5.72772 20.5727 6.25366 19.9263 6.25366C19.2791 6.25366 18.7539 5.7285 18.7539 5.08142C18.7539 4.43434 19.2791 3.90918 19.9263 3.90918Z" fill="white"/>
<path d="M13.0571 17.9807L14.1286 17.1992L11.937 7.8291L10.853 8.61997L13.0571 17.9807ZM7.56325 14.7008C7.86885 14.8336 8.18461 14.8657 8.51132 14.7969C8.83802 14.7281 9.15144 14.564 9.45157 14.3038C9.89396 13.9224 10.1284 13.4918 10.1566 13.0143C10.1839 12.5368 10.0088 12.082 9.62821 11.6506C9.24992 11.2208 8.82083 10.9887 8.33937 10.9504C7.85791 10.9137 7.39677 11.0864 6.95517 11.4693C6.65504 11.7288 6.4487 12.014 6.33537 12.3258C6.22204 12.6376 6.21266 12.9526 6.3041 13.2706C6.39555 13.5879 6.55109 13.8724 6.7715 14.1225C6.99425 14.3757 7.25843 14.5679 7.56325 14.7008ZM7.35144 12.4673C7.33581 12.3235 7.38895 12.2016 7.50854 12.0968C7.6289 11.9929 7.75708 11.9585 7.89543 11.9952C8.11427 12.0515 8.35735 12.232 8.62309 12.5329C8.89039 12.8369 9.03655 13.0995 9.06234 13.3207C9.08188 13.4629 9.03186 13.5864 8.91228 13.6903C8.79191 13.7942 8.6606 13.8279 8.51835 13.7911C8.30185 13.7372 8.05878 13.5575 7.79147 13.2535C7.52339 12.9495 7.37645 12.6869 7.35144 12.4673ZM16.1654 14.7063C16.4679 14.8407 16.7821 14.8727 17.1088 14.8039C17.4355 14.7352 17.7466 14.5703 18.0428 14.3116C18.4852 13.9248 18.7189 13.491 18.7447 13.0088C18.7705 12.5267 18.597 12.0703 18.221 11.6381C17.8459 11.2067 17.4168 10.9707 16.9369 10.9332C16.4578 10.8941 15.9966 11.0676 15.555 11.4552C15.2588 11.7131 15.054 12.0015 14.943 12.3164C14.8297 12.6322 14.8211 12.9502 14.9126 13.2675C15.0024 13.5848 15.1595 13.8701 15.3815 14.1256C15.6035 14.378 15.8645 14.5726 16.1654 14.7063ZM15.9575 12.4595C15.938 12.3157 15.988 12.1922 16.1068 12.0867C16.2256 11.9827 16.3554 11.9476 16.4945 11.982C16.7126 12.039 16.9541 12.2211 17.2214 12.5259C17.4871 12.833 17.6333 13.0964 17.6583 13.3183C17.6739 13.4621 17.6216 13.5856 17.5028 13.6895C17.384 13.795 17.2558 13.8286 17.1182 13.7919C16.9017 13.7372 16.6618 13.5567 16.3945 13.2519C16.1287 12.9448 15.9818 12.6814 15.9575 12.4595Z" fill="white"/>
</g>
<defs>
<clipPath id="clip0_296_10681">
<rect width="25" height="25" fill="white"/>
</clipPath>
</defs>
</svg>
