<svg width="22" height="27" viewBox="0 0 22 27" fill="none" xmlns="http://www.w3.org/2000/svg">
<path d="M21.9173 7.32072C21.9173 7.19764 21.8865 7.05697 21.8249 6.89873C21.7634 6.74048 21.6799 6.6174 21.5744 6.52948C20.5721 5.52725 19.5743 4.53381 18.5809 3.54916C17.5874 2.56451 16.5984 1.57107 15.6137 0.568832C15.5258 0.498501 15.4511 0.419376 15.3896 0.331463C15.328 0.243547 15.2709 0.155632 15.2181 0.0677166C14.2686 0.0677166 13.3279 0.0677166 12.396 0.0677166C11.4641 0.0677166 10.5278 0.0677166 9.58715 0.0677166C8.64646 0.0677166 7.71016 0.0677166 6.77826 0.0677166C5.84636 0.0677166 4.91446 0.0677166 3.98256 0.0677166C3.36715 0.208382 2.84406 0.454544 2.41327 0.806204C1.98249 1.15787 1.68797 1.65898 1.52972 2.30955C1.49456 2.4678 1.47258 2.63044 1.46379 2.79748C1.455 2.96452 1.4506 3.12716 1.4506 3.28541C1.4506 4.07665 1.4506 4.86789 1.4506 5.65912C1.4506 6.46794 1.4506 7.26797 1.4506 8.05921C1.4506 8.85044 1.4506 9.65047 1.4506 10.4593C1.4506 11.2505 1.4506 12.0418 1.4506 12.833C1.4506 12.9385 1.4506 13.0484 1.4506 13.1627C1.4506 13.277 1.4506 13.3869 1.4506 13.4924C0.800028 13.6682 0.395618 13.8528 0.237371 14.0462C0.0791237 14.2396 0 14.688 0 15.3913C0 16.376 0 17.3562 0 18.3321C0 19.308 0 20.297 0 21.2992C0 21.8619 0.0967067 22.2531 0.29012 22.4729C0.483533 22.6927 0.87036 22.8377 1.4506 22.9081C1.3451 23.9103 1.45939 24.7895 1.79347 25.5455C2.12755 26.3016 2.85724 26.8115 3.98256 27.0753C5.26612 27.0753 6.54968 27.0753 7.83324 27.0753C9.1168 27.0753 10.4048 27.0753 11.6971 27.0753C12.9895 27.0753 14.2774 27.0753 15.561 27.0753C16.8445 27.0753 18.1281 27.0753 19.4117 27.0753C20.0271 26.917 20.5502 26.6621 20.981 26.3104C21.4117 25.9587 21.6975 25.4576 21.8381 24.807C21.8909 24.684 21.926 24.5565 21.9436 24.4246C21.9612 24.2927 21.97 24.1653 21.97 24.0422C21.97 22.6531 21.9612 21.2641 21.9436 19.875C21.9436 18.4684 21.9436 17.0705 21.9436 15.6815C21.9436 14.2924 21.9436 12.9033 21.9436 11.5143C21.9436 10.1252 21.9348 8.72736 21.9173 7.32072ZM2.37371 21.3784C2.23305 21.3784 2.10557 21.3784 1.99128 21.3784C1.87699 21.3784 1.74072 21.3784 1.58247 21.3784C1.58247 20.3937 1.58247 19.4047 1.58247 18.4112C1.58247 17.4178 1.58247 16.4111 1.58247 15.3913C2.09238 15.3913 2.5891 15.3825 3.07264 15.365C3.55617 15.3474 4.0441 15.365 4.53642 15.4177C5.02875 15.4705 5.41557 15.6815 5.6969 16.0507C5.97823 16.4199 6.08373 16.8507 6.0134 17.343C5.94307 17.8705 5.76724 18.2618 5.48591 18.5167C5.20458 18.7717 4.77379 18.9255 4.19355 18.9783C3.91223 18.9959 3.6221 19.0046 3.32319 19.0046C3.02428 19.0046 2.70779 19.0046 2.37371 19.0046C2.37371 19.4266 2.37371 19.831 2.37371 20.2179C2.37371 20.6047 2.37371 20.9915 2.37371 21.3784ZM18.6732 25.3609C17.5127 25.3609 16.361 25.3609 15.2181 25.3609C14.0752 25.3609 12.9323 25.3609 11.7894 25.3609C10.6465 25.3609 9.50363 25.3609 8.36073 25.3609C7.21784 25.3609 6.06615 25.3609 4.90567 25.3609C4.20234 25.3609 3.73639 25.2466 3.50782 25.018C3.27924 24.7895 3.16495 24.3147 3.16495 23.5938C3.16495 23.4883 3.16495 23.3784 3.16495 23.2641C3.16495 23.1498 3.16495 23.0136 3.16495 22.8553C3.28803 22.8553 3.41111 22.8553 3.53419 22.8553C3.65727 22.8553 3.77156 22.8553 3.87706 22.8553C4.93204 22.8553 5.98702 22.8553 7.04201 22.8553C8.09699 22.8553 9.15636 22.8553 10.2201 22.8553C11.2839 22.8553 12.3433 22.8553 13.3983 22.8553C14.4533 22.8553 15.5082 22.8553 16.5632 22.8553C17.161 22.8553 17.5655 22.7498 17.7764 22.5388C17.9874 22.3278 18.0929 21.9146 18.0929 21.2992C18.0929 20.2618 18.0929 19.2244 18.0929 18.187C18.0929 17.1496 18.0929 16.1122 18.0929 15.0748C18.0929 14.5298 17.9787 14.1429 17.7501 13.9144C17.5215 13.6858 17.1259 13.5715 16.5632 13.5715C15.4907 13.5715 14.4269 13.5715 13.3719 13.5715C12.3169 13.5715 11.2575 13.5715 10.1938 13.5715C9.12999 13.5715 8.06182 13.5715 6.98926 13.5715C5.93427 13.5715 4.8705 13.5715 3.79794 13.5715C3.71002 13.5715 3.60892 13.5715 3.49463 13.5715C3.38034 13.5715 3.26165 13.5715 3.13857 13.5715C3.13857 12.7802 3.13857 11.9978 3.13857 11.2242C3.13857 10.4329 3.13857 9.65047 3.13857 8.87682C3.13857 8.10316 3.13857 7.32951 3.13857 6.55586C3.13857 5.7822 3.13857 5.01734 3.13857 4.26127C3.13857 4.06786 3.13857 3.87444 3.13857 3.68103C3.13857 3.48762 3.13857 3.303 3.13857 3.12716C3.15615 2.70517 3.27044 2.37549 3.48144 2.13812C3.69244 1.90075 4.00893 1.78206 4.43092 1.78206C5.25733 1.78206 6.08373 1.78206 6.91013 1.78206C7.73654 1.78206 8.56733 1.78206 9.40253 1.78206C10.2377 1.78206 11.0773 1.78206 11.9213 1.78206C12.7653 1.78206 13.6181 1.78206 14.4796 1.78206C14.4796 1.88756 14.4796 2.00185 14.4796 2.12493C14.4796 2.24801 14.4796 2.3623 14.4796 2.4678C14.4972 3.04804 14.5016 3.62828 14.4928 4.20852C14.484 4.78876 14.5148 5.369 14.5851 5.94924C14.6555 6.45915 14.8709 6.85037 15.2313 7.12291C15.5918 7.39545 16.0357 7.54051 16.5632 7.55809C17.1435 7.55809 17.7325 7.55809 18.3303 7.55809C18.9281 7.55809 19.5347 7.55809 20.1502 7.55809C20.1502 7.68117 20.1546 7.79546 20.1633 7.90096C20.1721 8.00646 20.1765 8.11195 20.1765 8.21745C20.1765 9.5186 20.1853 10.8197 20.2029 12.1209C20.2029 13.4044 20.2073 14.6924 20.2161 15.9848C20.2249 17.2771 20.2293 18.5739 20.2293 19.875C20.2293 21.1586 20.2293 22.4509 20.2293 23.7521C20.2293 24.3499 20.115 24.7675 19.8864 25.0049C19.6578 25.2422 19.2534 25.3609 18.6732 25.3609ZM7.01563 21.4047C7.01563 20.3849 7.01563 19.3783 7.01563 18.3848C7.01563 17.3914 7.01563 16.3936 7.01563 15.3913C7.50796 15.3913 7.99588 15.3781 8.47942 15.3518C8.96295 15.3254 9.44209 15.3474 9.91683 15.4177C10.4619 15.5056 10.8927 15.7298 11.2092 16.0903C11.5257 16.4507 11.7455 16.9123 11.8685 17.4749C11.9565 18.0903 11.9609 18.6794 11.8817 19.242C11.8026 19.8047 11.5345 20.297 11.0773 20.719C10.8839 20.8948 10.6553 21.0355 10.3916 21.141C10.1278 21.2465 9.87287 21.3168 9.62671 21.352C9.20472 21.4223 8.77833 21.4487 8.34755 21.4311C7.91676 21.4135 7.47279 21.4047 7.01563 21.4047ZM16.2203 17.8969C16.2379 18.0376 16.2511 18.1607 16.2599 18.2662C16.2687 18.3717 16.2731 18.4859 16.2731 18.609C15.8335 18.609 15.3939 18.609 14.9544 18.609C14.5148 18.609 14.0752 18.609 13.6356 18.609C13.6356 19.0838 13.6356 19.5453 13.6356 19.9937C13.6356 20.4421 13.6356 20.8948 13.6356 21.352C13.495 21.352 13.3587 21.352 13.2268 21.352C13.095 21.352 12.9587 21.352 12.818 21.352C12.818 20.3849 12.818 19.4003 12.818 18.398C12.818 17.3958 12.818 16.4024 12.818 15.4177C13.4686 15.4177 14.1192 15.4177 14.7697 15.4177C15.4203 15.4177 16.0797 15.4177 16.7478 15.4177C16.7478 15.5232 16.7478 15.6287 16.7478 15.7342C16.7478 15.8397 16.7478 15.954 16.7478 16.0771C16.2379 16.0771 15.728 16.0771 15.2181 16.0771C14.7082 16.0771 14.1895 16.0771 13.662 16.0771C13.662 16.4111 13.662 16.7232 13.662 17.0134C13.662 17.3035 13.662 17.598 13.662 17.8969C14.1016 17.8969 14.528 17.8969 14.9412 17.8969C15.3544 17.8969 15.7808 17.8969 16.2203 17.8969ZM7.85962 20.6926C7.85962 19.919 7.85962 19.1541 7.85962 18.398C7.85962 17.642 7.85962 16.8771 7.85962 16.1034C8.35194 16.1562 8.84866 16.1474 9.34978 16.0771C9.85089 16.0067 10.2773 16.2177 10.6289 16.7101C10.9806 17.22 11.1564 17.7519 11.1564 18.3057C11.1564 18.8596 11.0158 19.4003 10.7344 19.9278C10.4004 20.508 9.96958 20.7629 9.44209 20.6926C8.9146 20.6223 8.38711 20.6223 7.85962 20.6926ZM4.16718 18.2662C3.88585 18.2837 3.60452 18.2881 3.32319 18.2793C3.04186 18.2706 2.75174 18.2662 2.45283 18.2662C2.45283 17.8969 2.45283 17.5365 2.45283 17.1848C2.45283 16.8331 2.45283 16.4639 2.45283 16.0771C2.75174 16.0771 3.03747 16.0771 3.31001 16.0771C3.58254 16.0771 3.85068 16.0771 4.11443 16.0771C4.46609 16.0771 4.72984 16.165 4.90567 16.3408C5.0815 16.5166 5.1782 16.7628 5.19579 17.0793C5.19579 17.4134 5.09908 17.6903 4.90567 17.9101C4.71225 18.1299 4.46609 18.2486 4.16718 18.2662Z" fill="#00AD3B"/>
</svg>
