<svg width="24" height="28" viewBox="0 0 24 28" fill="none" xmlns="http://www.w3.org/2000/svg">
<path d="M22.1313 7.74073C22.2719 7.88141 22.4126 8.06606 22.5533 8.29467H15.4312V1.17258C15.6598 1.31326 15.8445 1.45394 15.9851 1.59463L22.1313 7.74073ZM14.9564 10.2203H23.16V26.1263C23.16 26.5308 23.0193 26.8737 22.7379 27.155C22.4742 27.4188 22.1313 27.5595 21.7092 27.5771H1.4508C1.04633 27.5771 0.703417 27.4364 0.42205 27.155C0.158269 26.8561 0.0175854 26.5132 0 26.1263V2.01668C0 1.61221 0.140683 1.2693 0.42205 0.98793C0.721002 0.724148 1.06392 0.583466 1.4508 0.56588H13.5056V8.76948C13.5056 9.17394 13.6463 9.50807 13.9277 9.77185C14.2266 10.0532 14.5695 10.2027 14.9564 10.2203ZM17.3568 21.2991V20.3495C17.3568 20.1912 17.3128 20.0681 17.2249 19.9802C17.137 19.8923 17.0227 19.8483 16.882 19.8483H6.278C6.11973 19.8483 5.99663 19.8923 5.9087 19.9802C5.82077 20.0681 5.77681 20.1912 5.77681 20.3495V21.2991C5.77681 21.4574 5.82077 21.5805 5.9087 21.6684C5.99663 21.7563 6.11973 21.8003 6.278 21.8003H16.882C17.0227 21.8003 17.137 21.7563 17.2249 21.6684C17.3128 21.5805 17.3568 21.4574 17.3568 21.2991ZM17.3568 17.4479V16.4719C17.3568 16.3312 17.3128 16.2169 17.2249 16.129C17.137 16.0411 17.0227 15.9971 16.882 15.9971H6.278C6.11973 15.9971 5.99663 16.0411 5.9087 16.129C5.82077 16.2169 5.77681 16.3312 5.77681 16.4719V17.4479C5.77681 17.5886 5.82077 17.7029 5.9087 17.7908C5.99663 17.8787 6.11973 17.9227 6.278 17.9227H16.882C17.0227 17.9227 17.137 17.8787 17.2249 17.7908C17.3128 17.7029 17.3568 17.5886 17.3568 17.4479ZM17.3568 13.5967V12.6207C17.3568 12.4976 17.3128 12.3833 17.2249 12.2778C17.137 12.1898 17.0227 12.1459 16.882 12.1459H6.278C6.11973 12.1459 5.99663 12.1898 5.9087 12.2778C5.82077 12.3833 5.77681 12.4976 5.77681 12.6207V13.5967C5.77681 13.7374 5.82077 13.8517 5.9087 13.9396C5.99663 14.0275 6.11973 14.0715 6.278 14.0715H16.882C17.0227 14.0715 17.137 14.0275 17.2249 13.9396C17.3128 13.8517 17.3568 13.7374 17.3568 13.5967Z" fill="#00AD3B"/>
</svg>
