<svg width="50" height="49" viewBox="0 0 50 49" fill="none" xmlns="http://www.w3.org/2000/svg">
<g id="calc" clip-path="url(#clip0_165_4458)">
<g id="Group">
<path id="Vector" fill-rule="evenodd" clip-rule="evenodd" d="M41.5567 37.8792C38.4368 37.8792 35.3169 37.8792 32.197 37.8792C31.527 37.8792 30.9145 37.9367 30.9337 38.8746C30.9528 39.755 31.5653 39.7742 32.1778 39.7933C33.7474 39.8124 35.2977 39.7933 36.8673 39.7933C38.4368 39.7933 39.9872 39.7742 41.5567 39.7933C42.2458 39.7933 42.7817 39.6019 42.7817 38.8363C42.7817 38.0898 42.2458 37.8792 41.5567 37.8792ZM32.0056 34.6445C33.6325 34.6062 35.2403 34.6253 36.8673 34.6253C38.456 34.6253 40.0446 34.6062 41.6333 34.6253C42.2841 34.6253 42.8009 34.5296 42.7626 33.7257C42.7435 32.9984 42.2458 32.9027 41.6524 32.9027C38.4368 32.9218 35.2212 32.9218 32.0247 32.8835C31.3165 32.8835 30.838 33.1898 30.8188 33.7832C30.7997 34.4531 31.3548 34.6636 32.0056 34.6445Z" fill="#40971D"/>
<path id="Vector_2" fill-rule="evenodd" clip-rule="evenodd" d="M31.9672 13.5133C35.202 13.5324 38.4559 13.5133 41.6906 13.5133C42.2648 13.5133 42.7242 13.2836 42.7051 12.652C42.6859 12.0395 42.2266 11.8289 41.6332 11.848C40.0445 11.8672 38.4559 11.848 36.8672 11.848C35.2402 11.848 33.6324 11.848 32.0055 11.848C31.4313 11.848 30.9719 12.0203 30.9336 12.652C30.9145 13.3027 31.4121 13.5133 31.9672 13.5133ZM17.9371 11.8289C16.8461 11.8289 15.7742 11.8098 14.6832 11.848C14.1281 11.8672 13.975 11.6758 13.9941 11.1398C14.0324 10.0488 13.9941 8.97695 14.0133 7.88594C14.0133 7.31172 13.8793 6.81406 13.2477 6.79492C12.5586 6.77578 12.3672 7.27344 12.3672 7.90508C12.3863 8.99609 12.348 10.068 12.3863 11.159C12.4055 11.6949 12.2332 11.8863 11.6973 11.8672C10.5488 11.8289 9.40039 11.848 8.25195 11.8672C7.67773 11.8672 7.31406 12.1734 7.3332 12.7285C7.35234 13.2453 7.71602 13.4941 8.23281 13.4941C8.84531 13.4941 9.43867 13.4941 10.0512 13.4941C10.568 13.4941 11.0656 13.5324 11.5824 13.4941C12.1949 13.4367 12.4246 13.6281 12.3863 14.2789C12.3289 15.3508 12.3672 16.4418 12.3672 17.5328C12.3672 18.107 12.5586 18.5855 13.2094 18.5664C13.8602 18.5473 14.0133 18.0688 14.0133 17.4945C13.9941 16.3844 14.0324 15.2551 13.9941 14.1449C13.975 13.6473 14.1473 13.475 14.6449 13.4941C15.7359 13.5324 16.8078 13.4941 17.8988 13.5133C18.4922 13.5133 19.0473 13.4176 19.0664 12.7094C19.0664 11.9629 18.5305 11.8289 17.9371 11.8289ZM49.4809 0H0.519141C0.519141 16.0398 0.519141 32.0797 0.5 48.1195C0.5 48.8277 0.672266 49 1.38047 49C17.1332 48.9809 32.8668 48.9809 48.6195 49C49.3469 49 49.5 48.8277 49.5 48.1195C49.4809 32.0797 49.4809 16.0398 49.4809 0ZM23.4688 47.2965C16.6164 47.2773 9.76406 47.2773 2.91172 47.2965C2.3375 47.2965 2.22266 47.0859 2.22266 46.5691C2.2418 39.7168 2.2418 32.8645 2.22266 26.0121C2.22266 25.457 2.37578 25.323 2.93086 25.323C9.7832 25.3422 16.6355 25.3422 23.4879 25.323C24.0812 25.323 24.1387 25.5145 24.1387 26.0312C24.1195 29.4766 24.1195 32.9219 24.1195 36.3672C24.1195 39.7742 24.1004 43.1813 24.1387 46.6074C24.1578 47.1434 24.0238 47.2965 23.4688 47.2965ZM24.1387 22.9688C24.1387 23.5238 24.0238 23.6578 23.4688 23.6578C20.0617 23.6195 16.6547 23.6387 13.2477 23.6387C9.87891 23.6387 6.49102 23.6195 3.12227 23.6578C2.49063 23.6578 2.2418 23.5813 2.2418 22.8539C2.26094 16.059 2.2418 9.26406 2.22266 2.48828C2.22266 1.85664 2.39492 1.68438 3.02656 1.68438C9.82148 1.70352 16.5973 1.70352 23.3922 1.68438C23.9473 1.68438 24.1578 1.78008 24.1387 2.41172C24.1195 9.26406 24.1195 16.1164 24.1387 22.9688ZM26.627 1.66523C33.3836 1.68437 40.1402 1.68437 46.8969 1.66523C47.5285 1.66523 47.7773 1.78008 47.7773 2.48828C47.7582 9.2832 47.7582 16.0781 47.7773 22.8539C47.7773 23.5047 47.6051 23.6387 46.9734 23.6387C40.1785 23.6195 33.4027 23.6004 26.6078 23.6387C25.9187 23.6387 25.8422 23.4281 25.8422 22.8348C25.8805 19.4469 25.8613 16.0781 25.8613 12.6902C25.8613 9.2832 25.8805 5.87617 25.8422 2.45C25.8422 1.85664 25.9762 1.66523 26.627 1.66523ZM47.7773 46.3969C47.7773 47.1051 47.6051 47.3156 46.8777 47.3156C40.1594 47.2965 33.4219 47.2773 26.7035 47.3156C25.957 47.3156 25.823 47.0859 25.8422 46.3969C25.8805 43.009 25.8613 39.6402 25.8613 36.2523C25.8613 32.8645 25.8805 29.4957 25.8422 26.1078C25.8422 25.4762 25.957 25.3039 26.627 25.3039C33.3836 25.3422 40.1402 25.3422 46.8969 25.3039C47.6242 25.3039 47.7965 25.4953 47.7965 26.2035C47.7391 32.941 47.7582 39.6594 47.7773 46.3969ZM17.4777 39.4297C16.6164 38.5492 15.7359 37.6496 14.8363 36.8074C14.4344 36.4438 14.4344 36.2141 14.8363 35.8312C15.8316 34.8934 16.7695 33.898 17.7457 32.941C18.1668 32.5199 18.4922 32.0605 17.9945 31.5438C17.4586 30.9695 16.9609 31.3141 16.5207 31.7734C15.6211 32.673 14.7023 33.5535 13.841 34.4914C13.3625 35.0082 13.0562 35.123 12.5203 34.5297C11.659 33.5535 10.6828 32.673 9.7832 31.7352C9.36211 31.3141 8.90273 31.027 8.38594 31.5246C7.88828 32.0223 8.15625 32.5008 8.59648 32.9219C9.57266 33.8789 10.5297 34.8551 11.5059 35.8312C11.659 35.9844 11.793 36.1375 11.9652 36.3098C11.793 36.5012 11.659 36.6734 11.5059 36.8266C10.5488 37.8027 9.57266 38.7598 8.61563 39.7359C8.19453 40.157 7.90742 40.6355 8.42422 41.1332C8.94102 41.6309 9.40039 41.3438 9.82148 40.9227C10.7977 39.9273 11.8121 38.9512 12.7691 37.9367C13.1137 37.573 13.3242 37.6113 13.6496 37.9559C14.5109 38.8555 15.3914 39.7359 16.2719 40.5973C16.7504 41.0758 17.248 41.8605 17.9945 41.0949C18.6453 40.3867 17.9371 39.8891 17.4777 39.4297Z" fill="black"/>
</g>
</g>
<defs>
<clipPath id="clip0_165_4458">
<rect width="50" height="49" fill="white"/>
</clipPath>
</defs>
</svg>
