<svg width="79" height="42" viewBox="0 0 79 42" fill="none" xmlns="http://www.w3.org/2000/svg">
<g id="truck" clip-path="url(#clip0_165_4495)">
<g id="Group">
<path id="Vector" fill-rule="evenodd" clip-rule="evenodd" d="M32.0504 23.575C31.4985 23.667 31.1 23.4831 30.7015 23.0845C28.7701 21.1225 26.808 19.1911 24.8766 17.229C24.1409 16.4933 23.6197 15.6349 24.5394 14.7765C25.3672 14.0407 26.1336 14.4086 26.8694 15.2057C28.2489 16.7079 29.7818 18.0568 31.1613 19.559C31.8051 20.2641 32.173 20.2334 32.8475 19.559C35.8518 16.4933 38.8869 13.4889 41.9219 10.4539C42.1978 10.178 42.4431 9.81007 42.811 9.59547C43.4548 9.22759 44.1905 8.76774 44.8343 9.59547C45.4474 10.3619 45.3248 11.0363 44.6197 11.7108C40.8489 15.4509 37.1088 19.1911 33.3686 22.9619C32.9701 23.3911 32.6329 23.7283 32.0504 23.575Z" fill="#40971D"/>
<path id="Vector_2" fill-rule="evenodd" clip-rule="evenodd" d="M78.0051 21.6744C75.5219 19.835 75.0927 16.8919 74.1117 14.2861C73.7438 13.3357 73.4066 12.3854 73.1 11.4043C72.8854 10.6686 72.1803 9.77953 73.6212 9.47296C74.0504 9.38099 74.0197 8.92113 73.8971 8.55325C73.7438 8.0934 73.3759 7.78683 72.8854 7.75617C72.211 7.72551 71.5672 7.72551 70.8927 7.72551C68.1949 7.72551 65.4971 7.69486 62.7993 7.75617C61.9409 7.78683 61.6343 7.54157 61.6956 6.65252C61.757 5.70216 61.665 4.72113 61.7263 3.74011C61.8183 2.17661 61.3278 1.01165 59.8869 0.306536C40.5117 0.306536 21.1059 0.306536 1.73068 0.275879C0.688345 0.275879 0.351118 0.398507 0.381775 1.56347C0.443089 11.2817 0.412432 20.9693 0.412432 30.6569C1.20951 31.5153 2.00659 32.343 3.32484 32.1284C3.93798 32.0365 4.15258 32.3124 4.09126 32.8949C4.06061 33.2934 4.09126 33.7226 4.09126 34.1211C4.12192 36.1445 4.98032 37.0642 6.97302 37.0029C8.32192 36.9416 9.24163 37.0949 9.79345 38.6584C10.4066 40.4978 12.2154 41.2642 13.9015 41.9693H16.0475C17.3351 41.4481 18.6533 41.0496 19.573 39.8846C19.7876 39.6394 20.0022 39.3941 20.2781 39.762C21.0752 40.835 22.3628 41.2335 23.4051 41.9693H25.8577C28.2796 41.1722 30.2416 39.8846 30.7628 37.1868C30.8854 36.6043 31.2533 36.7883 31.5599 36.7883C40.5424 36.7883 49.4942 36.7883 58.4767 36.7883C58.9672 36.7883 59.427 36.7883 59.5803 37.3401C60.1935 39.7927 62.0329 41.0496 64.1789 42H66.3248C69.1759 41.1722 71.138 39.5168 71.4752 36.4204C71.5672 35.6846 71.9964 35.8073 72.4256 35.8073C73.7132 35.8073 74.9701 35.8073 76.2577 35.8073C77.1467 35.8073 77.9745 35.5927 78.4037 34.673C78.4037 30.6569 78.4037 26.6408 78.4037 22.6248C78.281 22.2876 78.2504 21.8584 78.0051 21.6744ZM9.27229 34.1518C8.6898 35.2248 7.61681 34.7343 6.85039 34.6116C5.93068 34.4584 6.42119 33.4467 6.39053 32.8335C6.29856 31.7605 7.15696 32.1591 7.67813 32.1284C8.47521 32.0671 9.27229 32.1284 10.1613 32.1284C9.82411 32.8949 9.60951 33.5387 9.27229 34.1518ZM15.0358 39.6087C12.9205 39.6087 11.2956 37.9226 11.3263 35.8379C11.357 33.8146 13.0124 32.1897 15.0358 32.1897C17.1511 32.1897 18.8066 33.8146 18.8066 35.9299C18.8066 38.0452 17.2124 39.6087 15.0358 39.6087ZM25.1832 39.854C22.8533 39.8846 20.9832 37.9839 20.9832 35.5927C20.9832 33.4773 22.6081 31.8832 24.754 31.8832C27.1453 31.8832 28.9234 33.6 28.9234 35.9605C28.9234 38.2292 27.3905 39.8233 25.1832 39.854ZM60.4387 32.4963C59.8869 34.7343 58.4153 35.0408 56.2694 35.0102C48.4518 34.8569 40.6343 34.9489 32.8168 34.9795C31.6212 34.9795 30.4869 35.1328 30.3949 33.4467C30.3643 33.0788 30.0577 32.7416 29.7818 32.2511C30.3949 32.2204 30.8854 32.1897 31.3453 32.1897C37.8445 32.1897 44.3132 32.1897 50.8124 32.1897C51.211 32.1897 51.6402 32.2204 52.0387 32.1591C52.6518 32.0671 53.081 31.6379 53.0504 30.9941C53.0197 30.197 52.3759 30.4116 51.8854 30.4116C46.4285 30.4116 40.9409 30.4116 35.484 30.4116C24.846 30.4116 14.2387 30.381 3.60075 30.4423C2.46645 30.4423 2.19053 30.1664 2.19053 29.0321C2.25185 20.6014 2.25185 12.1708 2.19053 3.74011C2.19053 2.51384 2.55842 2.17661 3.75404 2.17661C21.9949 2.14595 40.1745 2.14595 58.354 2.11529C59.5803 2.11529 59.9175 2.48318 59.9175 3.6788C59.8562 12.1708 59.8869 20.6321 59.9175 29.1241C59.9175 30.1664 59.611 30.473 58.6299 30.3503C58.0781 30.289 57.4956 30.289 56.9438 30.3503C56.5146 30.381 55.8095 30.0438 55.7789 30.9022C55.7482 31.6379 56.1774 32.0671 56.8825 32.0978C58.0475 32.1591 59.2124 32.0978 60.4387 32.0978C60.4387 32.3737 60.4387 32.435 60.4387 32.4963ZM72.7935 15.9722C73.284 17.4744 73.5905 19.0686 74.5409 20.5401C72.027 20.5401 69.6358 20.5095 67.2445 20.5708C66.5088 20.5708 66.2635 20.3868 66.2942 19.6511C66.3555 18.0876 65.7424 16.0029 66.5394 15.0525C67.3365 14.0715 69.5132 14.8686 71.046 14.7153C72.0883 14.5927 72.4869 15.0832 72.7935 15.9722ZM65.4358 39.6087C63.2898 39.6087 61.6956 38.0146 61.7263 35.8379C61.757 33.7533 63.4431 32.1284 65.5278 32.1591C67.5511 32.1897 69.1453 33.8146 69.1759 35.8686C69.2066 37.9839 67.5818 39.6087 65.4358 39.6087ZM74.2037 27.4379C74.265 28.1124 74.7862 28.4803 75.3686 28.4189C76.5643 28.2963 76.6256 28.9095 76.6256 29.8598C76.5949 33.4773 76.6256 33.4467 73.1307 33.4773C71.8737 33.508 70.9234 33.3547 70.0956 32.1284C68.7161 30.0744 66.4475 29.7372 64.1175 29.7678C61.7263 29.7985 61.7263 29.7678 61.7263 27.4073V19.6204C61.7263 16.616 61.757 13.6116 61.6956 10.5766C61.6956 9.71821 61.8796 9.4423 62.7686 9.47296C65.0066 9.53427 67.2445 9.53427 69.5132 9.47296C70.4635 9.4423 70.8314 9.56493 71.0154 10.6686C71.3832 12.8759 71.5059 12.8759 69.2373 12.8759C68.1643 12.8759 67.0913 12.9372 66.0183 12.8759C64.9453 12.8146 64.7307 13.3051 64.7613 14.2554C64.8226 16.3095 64.8226 18.3328 64.7613 20.3868C64.7307 21.6438 65.2518 22.1343 66.4781 22.1036C69.2986 22.073 72.0883 22.1649 74.9088 22.073C76.1351 22.0423 76.6256 22.6248 76.5949 23.6365C76.5643 24.7095 77.3307 26.3343 75.0927 26.2423C74.4489 26.2116 74.1424 26.7941 74.2037 27.4379ZM25.1832 34.7956C24.5701 34.7956 24.1102 35.1941 24.0489 35.8073C23.9876 36.5124 24.4168 36.9722 25.0913 37.0335C25.7964 37.0949 26.1949 36.635 26.2869 35.9605C26.2869 35.2248 25.8883 34.7956 25.1832 34.7956ZM15.0664 34.7649C14.392 34.8569 13.9321 35.2248 13.9628 35.9299C13.9935 36.635 14.4533 37.0642 15.1584 37.0335C15.8022 37.0029 16.2008 36.5737 16.2008 35.9605C16.2314 35.2248 15.8022 34.8569 15.0664 34.7649ZM65.4051 34.7956C64.792 34.8262 64.3628 35.1941 64.3628 35.8686C64.3628 36.6043 64.792 37.0335 65.4664 37.0335C66.1409 37.0335 66.5394 36.5737 66.6007 35.8686C66.5088 35.1635 66.0796 34.7649 65.4051 34.7956Z" fill="black"/>
</g>
</g>
<defs>
<clipPath id="clip0_165_4495">
<rect width="79" height="42" fill="white"/>
</clipPath>
</defs>
</svg>
