<svg width="10" height="12" viewBox="0 0 10 12" fill="none" xmlns="http://www.w3.org/2000/svg">
<path d="M0.666868 11.3335C0.578724 11.3357 0.491071 11.3198 0.409318 11.2868C0.327565 11.2537 0.253446 11.2043 0.191535 11.1415C0.128929 11.0797 0.079654 11.0056 0.0467478 10.924C0.0138417 10.8424 -0.0019991 10.7549 0.000201544 10.6669V0.666864C-0.00197241 0.578778 0.0138779 0.491177 0.04678 0.409438C0.079682 0.327698 0.128942 0.253546 0.191535 0.19153C0.25355 0.128937 0.327703 0.0796775 0.409442 0.0467754C0.491181 0.0138734 0.578782 -0.00197709 0.666868 0.000196867H5.4502C5.60229 -0.000820031 5.74976 0.0523564 5.8662 0.150197C5.98887 0.250197 6.0662 0.378197 6.09953 0.53353L6.2662 1.33353H9.33354C9.42162 1.33136 9.50922 1.34721 9.59096 1.38011C9.6727 1.41301 9.74685 1.46227 9.80887 1.52486C9.93687 1.65286 10.0009 1.81153 10.0009 2.0002V7.33353C10.0009 7.5222 9.93687 7.6802 9.80887 7.8082C9.74703 7.87107 9.67292 7.92056 9.59115 7.95359C9.50938 7.98662 9.42169 8.00248 9.33354 8.0002H5.88353C5.73122 8.00137 5.58348 7.94819 5.46687 7.8502C5.3467 7.7536 5.26415 7.61797 5.23354 7.46686L5.06687 6.66686H1.33353V10.6669C1.33562 10.7548 1.31972 10.8423 1.28682 10.9239C1.25392 11.0055 1.20471 11.0796 1.1422 11.1415C1.08029 11.2043 1.00617 11.2537 0.924418 11.2868C0.842665 11.3198 0.755012 11.3357 0.666868 11.3335Z" fill="#015FC9"/>
</svg>
