<svg width="21" height="18" viewBox="0 0 21 18" fill="none" xmlns="http://www.w3.org/2000/svg">
<path d="M9.06016 17.1501L7.33516 15.5751C5.66063 14.0511 4.06298 12.4448 2.54816 10.7621C1.12316 9.17106 0.410156 7.41806 0.410156 5.50006C0.410156 3.93406 0.935156 2.62506 1.98516 1.57506C3.03516 0.525064 4.34316 6.4207e-05 5.91016 6.4207e-05C6.77523 -0.00372179 7.62993 0.188415 8.41016 0.562064C9.19316 0.938064 9.86016 1.45006 10.4102 2.10006C10.9595 1.45059 11.6414 0.926187 12.4102 0.562064C13.1903 0.188118 14.045 -0.00403416 14.9102 6.4207e-05C16.4772 6.4207e-05 17.7852 0.525064 18.8352 1.57506C19.8852 2.62506 20.4102 3.93406 20.4102 5.50006C20.4102 7.41706 19.7022 9.17506 18.2852 10.7751C16.7699 12.4738 15.1589 14.0848 13.4602 15.6001L11.7602 17.1501C11.3772 17.5001 10.9272 17.6751 10.4102 17.6751C9.89316 17.6751 9.44316 17.5001 9.06016 17.1501Z" fill="#015FC9"/>
</svg>
