<svg width="20" height="32" viewBox="0 0 20 32" fill="none" xmlns="http://www.w3.org/2000/svg">
<path d="M10 0C4.477 0 0 4.477 0 10C0 17 10 32 10 32C10 32 20 17 20 10C20 4.477 15.521 0 10 0ZM10.93 17.941C10.624 17.967 10.325 18 10 18C9.675 18 9.375 17.967 9.07 17.941C5.09 17.48 2 14.104 2 10C2 5.581 5.581 2 10 2C14.415 2 18 5.581 18 10C18 14.104 14.906 17.48 10.93 17.941Z" fill="#00AD3B"/>
<path d="M10 14C12.2091 14 14 12.2091 14 10C14 7.79086 12.2091 6 10 6C7.79086 6 6 7.79086 6 10C6 12.2091 7.79086 14 10 14Z" fill="#00AD3B"/>
</svg>
