<svg width="60" height="36" viewBox="0 0 60 36" fill="none" xmlns="http://www.w3.org/2000/svg">
<g id="38 credit card">
<path id="Vector" d="M54.7368 0H5.26316C3.86797 0.00222697 2.53055 0.557452 1.544 1.544C0.557452 2.53056 0.00222697 3.86796 0 5.26316V30.0842C0.00222697 31.4794 0.557452 32.8168 1.544 33.8034C2.53055 34.7899 3.86797 35.3451 5.26316 35.3474H54.7368C56.132 35.3451 57.4694 34.7899 58.456 33.8034C59.4425 32.8168 59.9978 31.4794 60 30.0842V5.26316C59.9978 3.86796 59.4425 2.53056 58.456 1.544C57.4694 0.557452 56.132 0.00222697 54.7368 0ZM57.8947 30.0842C57.8922 30.921 57.5587 31.7227 56.9671 32.3144C56.3754 32.9061 55.5736 33.2396 54.7368 33.2421H5.26316C4.4264 33.2396 3.62463 32.9061 3.03295 32.3144C2.44127 31.7227 2.10776 30.921 2.10526 30.0842V12.8316H57.8947V30.0842ZM57.8947 10.7263H2.10526V8.53684H57.8947V10.7263ZM57.8947 6.43158H2.10526V5.26316C2.10776 4.4264 2.44127 3.62463 3.03295 3.03295C3.62463 2.44127 4.4264 2.10776 5.26316 2.10526H54.7368C55.5736 2.10776 56.3754 2.44127 56.9671 3.03295C57.5587 3.62463 57.8922 4.4264 57.8947 5.26316V6.43158Z" fill="#00AD3B"/>
<path id="Vector_2" d="M47.1582 16.0841C45.8045 16.0819 44.485 16.5095 43.3898 17.3052C42.3063 16.5101 40.9969 16.0822 39.6529 16.0841C38.6374 16.0771 37.6347 16.3111 36.7271 16.7668C35.8196 17.2225 35.0331 17.887 34.4322 18.7057C33.8313 19.5244 33.4331 20.474 33.2704 21.4764C33.1077 22.4788 33.1851 23.5056 33.4963 24.4723C33.8074 25.439 34.3434 26.3181 35.0603 27.0375C35.7771 27.7568 36.6544 28.2959 37.62 28.6104C38.5856 28.9249 39.6121 29.0059 40.6151 28.8467C41.6181 28.6875 42.569 28.2927 43.3898 27.6947C44.2092 28.2886 45.1575 28.6803 46.1572 28.8377C47.157 28.995 48.1797 28.9137 49.142 28.6003C50.1043 28.2868 50.9788 27.7502 51.694 27.0342C52.4093 26.3182 52.945 25.4432 53.2574 24.4806C53.5699 23.518 53.6501 22.4951 53.4917 21.4956C53.3333 20.496 52.9406 19.5481 52.3458 18.7293C51.7511 17.9105 50.971 17.244 50.0694 16.7843C49.1678 16.3245 48.1702 16.0846 47.1582 16.0841ZM39.6529 26.8105C38.7989 26.8125 37.9635 26.5612 37.2524 26.0882C36.5412 25.6153 35.9864 24.942 35.6582 24.1536C35.3299 23.3651 35.2429 22.497 35.4083 21.6592C35.5736 20.8213 35.9838 20.0513 36.587 19.4467C37.1901 18.8421 37.9591 18.43 38.7966 18.2626C39.634 18.0952 40.5023 18.1801 41.2916 18.5064C42.0808 18.8327 42.7554 19.3859 43.2301 20.0958C43.7048 20.8058 43.9582 21.6406 43.9582 22.4947C43.9565 23.637 43.5028 24.7321 42.696 25.5408C41.8893 26.3495 40.7952 26.806 39.6529 26.8105ZM47.1582 26.8105C46.3622 26.8099 45.5822 26.5875 44.9056 26.1683C45.6591 25.0935 46.0634 23.8126 46.0634 22.4999C46.0634 21.1872 45.6591 19.9064 44.9056 18.8315C45.4729 18.4835 46.1131 18.2717 46.776 18.2127C47.4389 18.1537 48.1065 18.2491 48.7263 18.4914C49.3462 18.7338 49.9014 19.1164 50.3485 19.6094C50.7956 20.1024 51.1224 20.6923 51.3032 21.3328C51.484 21.9733 51.514 22.6469 51.3907 23.301C51.2674 23.955 50.9943 24.5715 50.5927 25.1022C50.1911 25.6329 49.672 26.0634 49.0761 26.3598C48.4802 26.6561 47.8237 26.8104 47.1582 26.8105Z" fill="#00AD3B"/>
<path id="Vector_3" d="M7.48427 22.4783H16.0611C16.3403 22.4783 16.608 22.3674 16.8054 22.17C17.0028 21.9726 17.1137 21.7049 17.1137 21.4257C17.1137 21.1465 17.0028 20.8788 16.8054 20.6814C16.608 20.4839 16.3403 20.373 16.0611 20.373H7.48427C7.2051 20.373 6.93736 20.4839 6.73995 20.6814C6.54254 20.8788 6.43164 21.1465 6.43164 21.4257C6.43164 21.7049 6.54254 21.9726 6.73995 22.17C6.93736 22.3674 7.2051 22.4783 7.48427 22.4783Z" fill="#00AD3B"/>
<path id="Vector_4" d="M18.2095 24.6621H7.48427C7.2051 24.6621 6.93736 24.773 6.73995 24.9704C6.54254 25.1678 6.43164 25.4356 6.43164 25.7147C6.43164 25.9939 6.54254 26.2617 6.73995 26.4591C6.93736 26.6565 7.2051 26.7674 7.48427 26.7674H18.2095C18.4887 26.7674 18.7565 26.6565 18.9539 26.4591C19.1513 26.2617 19.2622 25.9939 19.2622 25.7147C19.2622 25.4356 19.1513 25.1678 18.9539 24.9704C18.7565 24.773 18.4887 24.6621 18.2095 24.6621Z" fill="#00AD3B"/>
</g>
</svg>
