<svg width="60" height="53" viewBox="0 0 60 53" fill="none" xmlns="http://www.w3.org/2000/svg">
<path d="M17.5098 28.2972C25.255 28.2972 31.5602 21.9499 31.5602 14.1486C31.5602 6.34737 25.255 0 17.5098 0C9.7674 0 3.4668 6.34737 3.4668 14.1486C3.4668 21.9499 9.76806 28.2972 17.5098 28.2972Z" fill="#00AD3B"/>
<path d="M32.4584 28.0014C30.873 26.6058 28.5414 27.1863 26.7807 28.3531C24.1174 30.1182 20.9315 31.1469 17.51 31.1469C14.1444 31.1469 11.0076 30.1497 8.37171 28.4348C6.59163 27.2767 4.23636 26.7152 2.67174 28.1512C0.885378 29.7906 0 31.8728 0 34.4482V44.5474C0 46.3645 0.932159 48.1259 2.52612 48.9983C5.22906 50.4776 9.84357 52.3478 17.7412 52.3478C25.8196 52.3478 30.553 50.469 33.1242 49.0183C34.5302 48.225 35.2733 46.654 35.2733 45.0396V34.4462C35.2733 31.7889 34.3404 29.6583 32.4584 28.0014Z" fill="#00AD3B"/>
<path d="M57.7669 8.80109H37.8976C36.6642 8.80109 35.666 7.80289 35.666 6.56949C35.666 5.33743 36.6642 4.33789 37.8976 4.33789H57.7669C58.9976 4.33789 59.9985 5.33743 59.9985 6.56949C59.9985 7.80289 58.9976 8.80109 57.7669 8.80109Z" fill="#D9D9D9"/>
<path d="M57.7669 21.43H37.8976C36.6642 21.43 35.666 20.4305 35.666 19.1984C35.666 17.965 36.6642 16.9668 37.8976 16.9668H57.7669C58.9976 16.9668 59.9985 17.965 59.9985 19.1984C59.9985 20.4298 58.9976 21.43 57.7669 21.43Z" fill="#D9D9D9"/>
<path d="M57.7692 34.0589H41.216C39.9826 34.0589 38.9844 33.0607 38.9844 31.8273C38.9844 30.5952 39.9826 29.5957 41.216 29.5957H57.7692C59.0013 29.5957 60.0008 30.5952 60.0008 31.8273C60.0008 33.0607 59.0013 34.0589 57.7692 34.0589Z" fill="#D9D9D9"/>
<path d="M57.7692 46.6878H41.216C39.9826 46.6878 38.9844 45.6883 38.9844 44.4562C38.9844 43.2228 39.9826 42.2246 41.216 42.2246H57.7692C59.0013 42.2246 60.0008 43.2228 60.0008 44.4562C60.0008 45.6883 59.0013 46.6878 57.7692 46.6878Z" fill="#D9D9D9"/>
</svg>
