<svg width="70" height="57" viewBox="0 0 70 57" fill="none" xmlns="http://www.w3.org/2000/svg">
<path d="M55 0C50.6111 0 46.9722 1.80889 43.8014 4.21343C41.5925 5.88856 38.4908 5.80033 36.2891 4.11562C33.1268 1.69582 29.3922 0 25 0C16.1987 0 10 7.56745 10 15.8194C10 20.2463 11.8131 23.4357 13.7987 26.43L37.1106 54.3787C39.7281 57.1481 40.2213 57.1481 42.8387 54.3787L66.203 26.43C68.5375 23.4357 70 20.2463 70 15.8194C70 7.56755 63.8012 0 55 0ZM62.5 25.6538L43.84 47.9183C41.839 50.3058 38.1655 50.3021 36.1693 47.9105L17.5 25.5431C14.8094 21.8025 13.75 19.2788 13.75 15.8194C13.75 9.37314 18.3531 3.57 25 3.51559C28.5843 3.48609 32.482 5.87558 35.6816 8.71108C38.0874 10.8431 41.9266 10.8552 44.3406 8.73247C47.5303 5.92769 51.4386 3.51559 55 3.51559C61.4706 3.51559 66.25 9.37314 66.25 15.8194C66.25 19.2788 65.4119 21.99 62.5 25.6538Z" fill="#D9D9D9"/>
<path d="M45 0C40.6111 0 36.9722 1.80889 33.8014 4.21343C31.5925 5.88856 28.4908 5.80032 26.2891 4.11562C23.1268 1.69582 19.3922 0 15 0C6.19872 0 0 7.56745 0 15.8194C0 20.2463 1.81314 23.4357 3.79873 26.43L27.1106 54.3787C29.7281 57.1481 30.2213 57.1481 32.8387 54.3787L56.203 26.43C58.5375 23.4357 60 20.2463 60 15.8194C60 7.56755 53.8012 0 45 0Z" fill="#00AD3B"/>
</svg>
