<svg width="44" height="55" viewBox="0 0 44 55" fill="none" xmlns="http://www.w3.org/2000/svg">
<path d="M33.0876 8.2206C33.0864 8.2057 33.0815 8.19258 33.0815 8.17768C33.0815 8.16337 33.0864 8.14965 33.0876 8.13475C33.0876 6.03566 31.3859 4.33401 29.2868 4.33401H27.6819C27.0347 4.33401 26.44 3.97272 26.1545 3.39977C25.3064 1.70598 23.6035 0.654297 21.7155 0.654297C19.8227 0.654297 18.1216 1.70598 17.2717 3.39918C16.9856 3.97212 16.3915 4.33401 15.7467 4.33401H14.1615C12.0508 4.33401 10.3398 6.045 10.3398 8.15562C10.3398 8.16337 10.3423 8.16993 10.3423 8.17768C10.3423 8.18543 10.3398 8.19198 10.3398 8.19914C10.3398 10.3104 12.0514 12.0219 14.1626 12.0219H29.2862C31.3856 12.0219 33.0876 10.32 33.0876 8.2206Z" fill="#00AD3B"/>
<path d="M40.0562 9.85645C38.0882 9.85645 36.4929 11.4518 36.4929 13.4198V13.7007C36.4929 14.6272 35.7307 15.379 34.7906 15.379H8.63777C7.69469 15.379 6.93429 14.6272 6.93429 13.7007V13.3236C6.93429 11.4087 5.382 9.85645 3.46715 9.85645C1.55229 9.85645 0 11.4087 0 13.3236V49.3815C0 52.1429 2.23858 54.3815 5 54.3815H40.0245C42.008 54.3815 43.6196 52.792 43.6196 50.8406V13.4198C43.6196 11.4518 42.0242 9.85645 40.0562 9.85645Z" fill="#EEEFF0"/>
<path d="M12.2907 45.3542H6.68664C5.74598 45.3542 4.98438 44.603 4.98438 43.6772C4.98438 42.7489 5.74658 41.9983 6.68664 41.9983H12.2907C13.2326 41.9983 13.993 42.7495 13.993 43.6772C13.9936 44.603 13.2326 45.3542 12.2907 45.3542ZM21.9593 45.3542H17.798C16.8585 45.3542 16.0957 44.603 16.0957 43.6772C16.0957 42.7489 16.8591 41.9983 17.798 41.9983H21.9593C22.8987 41.9983 23.6615 42.7495 23.6615 43.6772C23.6615 44.603 22.8981 45.3542 21.9593 45.3542ZM32.9399 45.3542H27.628C26.6862 45.3542 25.9234 44.603 25.9234 43.6772C25.9234 42.7489 26.6868 41.9983 27.628 41.9983H32.9399C33.8782 41.9983 34.6422 42.7495 34.6422 43.6772C34.6422 44.603 33.8782 45.3542 32.9399 45.3542ZM36.9343 35.2476H6.68664C5.74598 35.2476 4.98438 34.4964 4.98438 33.5699C4.98438 32.6416 5.74658 31.891 6.68664 31.891H36.9343C37.8761 31.891 38.6365 32.6422 38.6365 33.5699C38.6371 34.4969 37.8761 35.2476 36.9343 35.2476ZM36.9343 25.1462H6.68664C5.74598 25.1462 4.98438 24.395 4.98438 23.4679C4.98438 22.5403 5.74658 21.7891 6.68664 21.7891H36.9343C37.8761 21.7891 38.6365 22.5409 38.6365 23.4679C38.6371 24.395 37.8761 25.1462 36.9343 25.1462Z" fill="#00AD3B"/>
</svg>
