<svg width="17" height="17" viewBox="0 0 17 17" fill="none" xmlns="http://www.w3.org/2000/svg">
<path d="M5.81 7.895C6.53 9.31 7.69 10.47 9.105 11.19L10.205 10.09C10.345 9.95 10.54 9.91 10.715 9.965C11.275 10.15 11.875 10.25 12.5 10.25C12.6326 10.25 12.7598 10.3027 12.8536 10.3964C12.9473 10.4902 13 10.6174 13 10.75V12.5C13 12.6326 12.9473 12.7598 12.8536 12.8536C12.7598 12.9473 12.6326 13 12.5 13C10.2457 13 8.08365 12.1045 6.48959 10.5104C4.89553 8.91635 4 6.75434 4 4.5C4 4.36739 4.05268 4.24021 4.14645 4.14645C4.24021 4.05268 4.36739 4 4.5 4H6.25C6.38261 4 6.50979 4.05268 6.60355 4.14645C6.69732 4.24021 6.75 4.36739 6.75 4.5C6.75 5.125 6.85 5.725 7.035 6.285C7.09 6.46 7.05 6.655 6.91 6.795L5.81 7.895Z" fill="#015FC9"/>
<circle cx="8.5" cy="8.5" r="8" stroke="#015FC9"/>
</svg>
