<svg width="16" height="16" viewBox="0 0 16 16" fill="none" xmlns="http://www.w3.org/2000/svg">
<path d="M8.00019 8C6.90019 8 5.95819 7.608 5.17519 6.825C4.39219 6.042 4.00019 5.1 4.00019 4C4.00019 2.9 4.39219 1.958 5.17519 1.175C5.95819 0.392 6.90019 0 8.00019 0C9.10019 0 10.0422 0.392 10.8252 1.175C11.6082 1.958 12.0002 2.9 12.0002 4C12.0002 5.1 11.6082 6.042 10.8252 6.825C10.0422 7.608 9.10019 8 8.00019 8ZM2.00019 16C1.45019 16 0.980189 15.804 0.588189 15.413C0.39887 15.2301 0.249025 15.0104 0.147896 14.7674C0.0467663 14.5244 -0.00350249 14.2632 0.000189587 14V13.2C0.000189587 12.633 0.14619 12.112 0.43819 11.637C0.717183 11.1739 1.11952 10.7975 1.60019 10.55C2.6029 10.0446 3.65964 9.65446 4.75019 9.387C5.8143 9.12931 6.90533 8.99939 8.00019 9C9.10019 9 10.1832 9.129 11.2502 9.387C12.3172 9.646 13.3672 10.033 14.4002 10.55C14.8832 10.8 15.2702 11.162 15.5622 11.637C15.8542 12.112 16.0002 12.633 16.0002 13.2V14C16.0038 14.2631 15.9536 14.5242 15.8527 14.7672C15.7518 15.0101 15.6022 15.2299 15.4132 15.413C15.2302 15.6021 15.0104 15.7517 14.7674 15.8527C14.5244 15.9536 14.2633 16.0038 14.0002 16H2.00019Z" fill="#015FC9"/>
</svg>
