<svg width="30" height="30" viewBox="0 0 30 30" fill="none" xmlns="http://www.w3.org/2000/svg">
<path d="M26.5 29.1867L17.1667 19.8533C15.3609 21.2702 13.1286 22.0339 10.8333 22.02C7.805 22.02 5.24333 20.9717 3.14667 18.875C1.04667 16.7783 0 14.2167 0 11.1867C0 8.16 1.04833 5.59667 3.14667 3.49833C5.24333 1.40167 7.805 0.353333 10.8333 0.353333C13.86 0.353333 16.4233 1.40333 18.5217 3.49833C20.6183 5.59833 21.665 8.16 21.665 11.1867C21.6789 13.4819 20.9152 15.7142 19.4983 17.52L28.875 26.895C29.0239 27.0414 29.1412 27.2168 29.2197 27.4103C29.2982 27.6037 29.3363 27.8112 29.3317 28.02C29.3317 28.465 29.165 28.8533 28.8317 29.1867C28.6788 29.3386 28.4964 29.4577 28.2957 29.5365C28.0951 29.6153 27.8804 29.6522 27.665 29.645C27.4496 29.6522 27.2349 29.6153 27.0343 29.5365C26.8336 29.4577 26.6529 29.3386 26.5 29.1867ZM10.8333 18.6867C12.9167 18.6867 14.6867 17.9583 16.1467 16.5C17.6033 15.0417 18.3317 13.27 18.3317 11.1867C18.3317 9.10333 17.6033 7.33333 16.145 5.87333C14.6867 4.41667 12.915 3.68667 10.8333 3.68667C8.75 3.68667 6.97833 4.41667 5.52 5.87333C4.06167 7.33333 3.33333 9.10333 3.33333 11.1867C3.33333 13.27 4.06167 15.0417 5.52 16.5C6.97833 17.9583 8.75 18.6867 10.8333 18.6867Z" fill="white"/>
</svg>
