<svg width="27" height="27" viewBox="0 0 27 27" fill="none" xmlns="http://www.w3.org/2000/svg">
<path fill-rule="evenodd" clip-rule="evenodd" d="M0.034668 25.619C0.034668 25.4365 0.034668 25.2505 0.034668 25.068C0.124209 24.8476 0.165535 24.6099 0.275739 24.393C0.912857 23.1291 1.54653 21.8617 2.18365 20.5978C3.20648 18.559 4.23275 16.5203 5.25559 14.4815C6.09245 12.8181 6.92587 11.1513 7.75928 9.48442C8.74768 7.51108 9.73951 5.54118 10.7314 3.56784C11.1343 2.76886 11.5234 1.963 11.947 1.17779C12.2467 0.619883 12.6771 0.192842 13.3418 0.0826381C13.3728 0.0757504 13.4107 0.0723065 13.4279 0.0344238C13.4727 0.0344238 13.5209 0.0344238 13.5657 0.0344238C13.607 0.0929697 13.6759 0.0895259 13.7344 0.0998575C13.8928 0.130852 14.0444 0.182511 14.1856 0.265164C14.6195 0.513123 14.9157 0.891949 15.1361 1.32588C15.9695 2.97205 16.7926 4.62511 17.6226 6.27473C18.4697 7.95879 19.3135 9.64629 20.1607 11.3303C21.1904 13.3794 22.2167 15.4286 23.2464 17.4777C24.0867 19.1514 24.9408 20.8217 25.7639 22.5057C26.1875 23.3736 26.7351 24.1863 26.9623 25.1403C26.9623 25.3022 26.9623 25.4606 26.9623 25.6224C26.9245 25.7464 26.9004 25.8773 26.8487 25.9944C26.6076 26.5454 26.1461 26.8071 25.5814 26.9311C25.3885 26.9724 25.1853 26.9518 24.9993 27.0344C17.3333 27.0344 9.66375 27.0344 1.99768 27.0344C1.89092 26.969 1.77038 26.9828 1.65329 26.969C1.18148 26.9104 0.754438 26.7589 0.416938 26.4111C0.203418 26.1838 0.103546 25.9083 0.034668 25.619ZM13.4899 25.0025C17.1817 25.0025 20.8701 25.0025 24.562 25.0025C24.7927 25.0025 24.7961 24.9956 24.6894 24.789C24.128 23.6766 23.5701 22.5643 23.0122 21.4519C22.1203 19.6749 21.2283 17.8944 20.3363 16.1173C19.1757 13.8065 18.0152 11.4956 16.8546 9.18481C15.7594 7.00828 14.6677 4.8283 13.576 2.65177C13.5588 2.61733 13.5484 2.56567 13.5071 2.55879C13.4486 2.55534 13.4451 2.61389 13.4245 2.65521C13.1042 3.28889 12.7839 3.92601 12.4636 4.55968C11.5854 6.31261 10.7038 8.06555 9.82561 9.81848C8.75457 11.9571 7.68008 14.0923 6.60559 16.231C5.48977 18.4488 4.3774 20.6701 3.26158 22.888C2.93441 23.5389 2.60724 24.1898 2.28008 24.8407C2.21464 24.9715 2.24219 25.0198 2.38684 25.006C2.42816 25.0025 2.46605 25.006 2.50737 25.006C6.16821 25.0025 9.82906 25.0025 13.4899 25.0025Z" fill="#E0E4E8"/>
<path fill-rule="evenodd" clip-rule="evenodd" d="M11.8232 16.9438C11.8128 15.2288 11.8128 13.5137 11.8232 11.7987C11.8301 10.948 12.5395 10.2352 13.3798 10.1869C14.289 10.1387 15.0363 10.7449 15.1603 11.6265C15.1741 11.7229 15.181 11.8193 15.181 11.9158C15.181 12.7354 15.181 13.5551 15.181 14.3781C15.181 15.2012 15.181 16.0174 15.181 16.8405C15.1775 17.9116 14.3269 18.6727 13.2696 18.559C12.4913 18.4764 11.8266 17.7497 11.8232 16.9438ZM13.5003 20.2706C12.5671 20.2741 11.8163 21.0248 11.8163 21.9547C11.8197 22.8742 12.5705 23.6215 13.4969 23.6215C14.4233 23.6215 15.1775 22.8742 15.181 21.9547C15.1844 21.0248 14.4268 20.2672 13.5003 20.2706Z" fill="#00AD3B"/>
</svg>
