<svg width="32" height="32" viewBox="0 0 32 32" fill="none" xmlns="http://www.w3.org/2000/svg">
<path d="M3.99993 16H2.99993M15.9999 3V4M28.9999 16H27.9999M15.9999 18V7M13.9999 16H23.9999M15.9999 28V29M15.9999 1C13.0332 1 10.4667 2.35178 7.99993 4C5.5332 5.64822 3.13525 7.25909 1.99993 10C0.864614 12.7409 0.421151 16.0903 0.999927 19C1.57871 21.9097 2.90214 24.9023 4.99993 27C7.09771 29.0978 10.0902 30.4212 12.9999 31C15.9096 31.5787 19.2591 31.1353 21.9999 30C24.7409 28.8647 26.3517 26.4667 27.9999 24C29.6481 21.5333 30.9999 18.9667 30.9999 16C30.9999 12.0217 29.813 7.81304 26.9999 5C24.1869 2.18696 19.9782 1 15.9999 1Z" stroke="white" stroke-width="1.41176" stroke-linejoin="round"/>
</svg>
