<svg width="21" height="21" viewBox="0 0 21 21" fill="none" xmlns="http://www.w3.org/2000/svg">
<path d="M20.9055 16.7381L20.801 16.4231C20.5534 15.6873 19.742 14.9199 18.9966 14.7177L16.2376 13.964C15.4894 13.7605 14.4222 14.0342 13.8748 14.5815L12.8762 15.5801C9.24743 14.5995 6.40187 11.7538 5.42263 8.12573L6.42119 7.12717C6.96859 6.57976 7.24225 5.51391 7.0387 4.76573L6.28638 2.00541C6.08283 1.2586 5.31401 0.44717 4.5796 0.202338L4.26466 0.0964479C3.52884 -0.148384 2.47945 0.0992205 1.93209 0.646582L0.438451 2.14158C0.171613 2.40701 0.00107175 3.1662 0.00107175 3.16897C-0.051169 7.91113 1.80829 12.48 5.1627 15.8344C8.50888 19.1806 13.0606 21.0373 17.789 20.9975C17.8137 20.9975 18.5949 20.8297 18.8618 20.5642L20.3554 19.0705C20.9028 18.5232 21.1503 17.4739 20.9055 16.7381Z" fill="white"/>
</svg>
