<svg width="17" height="19" viewBox="0 0 17 19" fill="none" xmlns="http://www.w3.org/2000/svg">
<path d="M8.48634 9.90479C4.30948 9.91266 0.854191 13.2196 0.64552 17.3987C0.639966 17.5173 0.658602 17.6358 0.700296 17.7469C0.741989 17.8581 0.805867 17.9596 0.888042 18.0453C0.970217 18.131 1.06897 18.1991 1.17829 18.2454C1.28761 18.2917 1.40521 18.3153 1.52394 18.3147H15.4829C15.6011 18.3144 15.7179 18.2901 15.8264 18.2434C15.935 18.1966 16.0329 18.1284 16.1143 18.0428C16.1958 17.9572 16.259 17.856 16.3003 17.7453C16.3416 17.6346 16.36 17.5167 16.3545 17.3987C16.1456 13.2143 12.6822 9.90525 8.50001 9.90479H8.48634Z" fill="white"/>
<path d="M8.50032 0.685303C6.2862 0.685303 4.48112 2.49888 4.48111 4.71545C4.4811 6.93203 6.28619 8.75185 8.50032 8.75185C10.7144 8.75185 12.5258 6.93203 12.5258 4.71545C12.5258 2.49888 10.7144 0.685303 8.50032 0.685303Z" fill="white"/>
</svg>
