<svg width="32" height="30" viewBox="0 0 32 30" fill="none" xmlns="http://www.w3.org/2000/svg">
<path d="M10.149 19.5003H10.1504C10.1516 19.5003 10.1528 19.5 10.154 19.5H26.8858C27.2977 19.5 27.6599 19.2113 27.7731 18.7929L31.4645 5.14287C31.544 4.8486 31.4883 4.53223 31.314 4.28797C31.1396 4.04371 30.8668 3.9 30.5772 3.9H8.02065L7.36096 0.763496C7.26699 0.317383 6.89256 0 6.45997 0H0.922853C0.413121 0 0 0.436465 0 0.975C0 1.51354 0.413121 1.95 0.922853 1.95H5.71977C5.83657 2.5058 8.87669 16.9597 9.05165 17.7912C8.07088 18.2416 7.38282 19.2748 7.38282 20.475C7.38282 22.0878 8.62483 23.4 10.1514 23.4H26.8858C27.3955 23.4 27.8086 22.9635 27.8086 22.425C27.8086 21.8865 27.3955 21.45 26.8858 21.45H10.1514C9.64261 21.45 9.22853 21.0125 9.22853 20.475C9.22853 19.9383 9.64117 19.5015 10.149 19.5003ZM29.3537 5.85L26.1896 17.55H10.8916L8.43065 5.85H29.3537Z" fill="#1C1C1C"/>
<path d="M9.22853 26.325C9.22853 27.9378 10.4705 29.25 11.9971 29.25C13.5236 29.25 14.7656 27.9378 14.7656 26.325C14.7656 24.7122 13.5236 23.4 11.9971 23.4C10.4705 23.4 9.22853 24.7122 9.22853 26.325ZM11.9971 25.35C12.5059 25.35 12.9199 25.7875 12.9199 26.325C12.9199 26.8625 12.5059 27.3 11.9971 27.3C11.4883 27.3 11.0742 26.8625 11.0742 26.325C11.0742 25.7875 11.4883 25.35 11.9971 25.35Z" fill="#1C1C1C"/>
<path d="M22.2715 26.325C22.2715 27.9378 23.5135 29.25 25.0401 29.25C26.5666 29.25 27.8086 27.9378 27.8086 26.325C27.8086 24.7122 26.5666 23.4 25.0401 23.4C23.5135 23.4 22.2715 24.7122 22.2715 26.325ZM25.0401 25.35C25.5488 25.35 25.9629 25.7875 25.9629 26.325C25.9629 26.8625 25.5488 27.3 25.0401 27.3C24.5313 27.3 24.1172 26.8625 24.1172 26.325C24.1172 25.7875 24.5313 25.35 25.0401 25.35Z" fill="#1C1C1C"/>
</svg>
