<svg width="10" height="15" viewBox="0 0 10 15" fill="none" xmlns="http://www.w3.org/2000/svg">
<path d="M1.41324 1.82456C1.41324 1.82456 1.64728 1.59052 2.11535 1.12245C3 0.5 3.48459 0.420349 4.81886 0.420349C6.15313 0.420349 7.29371 0.88842 8.24061 1.82456C9.18751 2.7607 9.66096 3.89591 9.66096 5.23017C9.66096 5.89731 9.49418 6.66667 9.16061 7.53824C8.82704 8.40982 8.42354 9.21684 7.95009 9.9593C7.47664 10.7018 7.00319 11.4012 6.52974 12.0575C6.05628 12.7139 5.65816 13.2358 5.33535 13.6232L4.81886 14.1719C4.68973 14.0428 4.51757 13.8491 4.30237 13.5909C4.08716 13.3326 3.70517 12.8323 3.1564 12.0898C2.60763 11.3474 2.11804 10.6264 1.68763 9.92702C1.25722 9.2276 0.869852 8.43672 0.525524 7.55438C0.181197 6.67204 0.0090332 5.89731 0.0090332 5.23017C0.0090332 3.89591 0.477103 2.7607 1.41324 1.82456ZM3.60833 6.4407C3.60833 6.4407 3.69172 6.52409 3.85851 6.69088C4.02529 6.85766 4.34541 6.94105 4.81886 6.94105C5.29231 6.94105 5.7012 6.77427 6.04552 6.4407C6.38985 6.10713 6.56202 5.70362 6.56202 5.23017C6.56202 4.75672 6.38985 4.35322 6.04552 4.01965C5.7012 3.68608 5.29231 3.5193 4.81886 3.5193C4.34541 3.5193 3.9419 3.68608 3.60833 4.01965C3.27476 4.35322 3.10798 4.75672 3.10798 5.23017C3.10798 5.70362 3.27476 6.10713 3.60833 6.4407Z" fill="#0559AE"/>
</svg>
