<svg width="36" height="36" viewBox="0 0 36 36" fill="none" xmlns="http://www.w3.org/2000/svg">
<g clip-path="url(#clip0_161_6039)">
<path d="M23.625 27H19.125V31.5H23.625V27Z" fill="#212121"/>
<path d="M31.5 27H27V31.5H31.5V27Z" fill="#212121"/>
<path d="M23.625 19.125H19.125V23.625H23.625V19.125Z" fill="#212121"/>
<path d="M31.5 19.125H27V23.625H31.5V19.125Z" fill="#212121"/>
<path d="M31.5 13.5H24.75V9C24.75 7.0875 23.2875 5.625 21.375 5.625H14.625C12.7125 5.625 11.25 7.0875 11.25 9V13.5H4.5C3.825 13.5 3.375 13.95 3.375 14.625C3.375 14.7375 3.375 14.7375 3.375 14.85L5.5125 28.4625C5.625 29.5875 6.6375 30.375 7.7625 30.375H16.875V28.125H7.7625L5.85 15.75H31.5V13.5ZM13.5 9C13.5 8.325 13.95 7.875 14.625 7.875H21.375C22.05 7.875 22.5 8.325 22.5 9V13.5H13.5V9Z" fill="#212121"/>
</g>
<defs>
<clipPath id="clip0_161_6039">
<rect width="36" height="36" fill="white"/>
</clipPath>
</defs>
</svg>
