<svg width="21" height="29" viewBox="0 0 21 29" fill="none" xmlns="http://www.w3.org/2000/svg">
<path fill-rule="evenodd" clip-rule="evenodd" d="M1.56707 8.57477C1.56707 8.57477 2.67115 11.5752 5.45345 17.2716C5.45345 17.2716 5.45345 17.2716 5.45345 17.3151C8.27991 23.0115 10.0906 25.577 10.0906 25.577C11.9455 27.5338 15.0369 28.4035 18.3492 26.838C20.1599 25.9684 19.8507 23.9246 18.1725 20.5329C16.671 17.489 14.9928 17.402 13.8887 18.3587C13.6679 18.5326 12.9612 19.1849 12.9171 19.4023C12.9171 19.4023 12.2546 20.4894 9.7373 15.3148C7.21999 10.1837 8.23575 10.4446 8.23575 10.4446C8.4124 10.4881 9.384 10.6185 9.64898 10.5315C11.0622 10.2272 12.2105 8.7487 10.5764 5.44392C8.8982 2.05216 7.48497 0.530224 5.67427 1.3999C2.93613 2.66094 1.1696 5.92224 1.56707 8.57477Z" stroke="#212121" stroke-width="2"/>
</svg>
