<svg width="18" height="12" viewBox="0 0 18 12" fill="none" xmlns="http://www.w3.org/2000/svg">
<path d="M9.83339 11.7287C3.90539 11.7287 0.525385 7.67272 0.386719 0.91272H3.36805C3.46339 5.87005 5.64739 7.96739 7.38072 8.40072V0.91272H10.1801V5.18539C11.8874 5.00339 13.6901 3.05339 14.2967 0.904053H17.0874C16.8598 2.01665 16.4053 3.07037 15.7522 3.99938C15.099 4.92839 14.2613 5.71272 13.2914 6.30339C14.3738 6.84213 15.3297 7.60421 16.0961 8.53938C16.8624 9.47455 17.4218 10.5616 17.7374 11.7287H14.6607C14.0021 9.67472 12.3554 8.08005 10.1801 7.86339V11.7287H9.84205H9.83339Z" fill="#E0E4E8"/>
</svg>
