<svg width="16" height="16" viewBox="0 0 16 16" fill="none" xmlns="http://www.w3.org/2000/svg">
<path fill-rule="evenodd" clip-rule="evenodd" d="M15.68 8.18184C15.68 7.61456 15.6291 7.06911 15.5346 6.54547H8V9.64002H12.3055C12.12 10.64 11.5564 11.4873 10.7091 12.0546V14.0619H13.2946C14.8073 12.6691 15.68 10.6182 15.68 8.18184Z" fill="#E0E4E8"/>
<path fill-rule="evenodd" clip-rule="evenodd" d="M7.99872 16C10.1587 16 11.9696 15.2836 13.2933 14.0618L10.7078 12.0545C9.99145 12.5345 9.07508 12.8181 7.99872 12.8181C5.91507 12.8181 4.15143 11.4109 3.52234 9.51996H0.849609V11.5927C2.16598 14.2072 4.87144 16 7.99872 16Z" fill="#E0E4E8"/>
<path fill-rule="evenodd" clip-rule="evenodd" d="M3.52364 9.51996C3.36364 9.03996 3.27273 8.52724 3.27273 7.99996C3.27273 7.47269 3.36364 6.95996 3.52364 6.47996V4.40723H0.850911C0.309092 5.48723 0 6.70905 0 7.99996C0 9.29087 0.309092 10.5127 0.850911 11.5927L3.52364 9.51996Z" fill="#E0E4E8"/>
<path fill-rule="evenodd" clip-rule="evenodd" d="M7.99872 3.18183C9.17326 3.18183 10.2278 3.58546 11.0569 4.37819L13.3515 2.08364C11.966 0.792729 10.1551 0 7.99872 0C4.87144 0 2.16598 1.79273 0.849609 4.40728L3.52234 6.48001C4.15143 4.5891 5.91507 3.18183 7.99872 3.18183Z" fill="#E0E4E8"/>
</svg>
