<svg width="14" height="10" viewBox="0 0 14 10" fill="none" xmlns="http://www.w3.org/2000/svg">
<path fill-rule="evenodd" clip-rule="evenodd" d="M0.333496 0.99998C0.333496 0.63179 0.631973 0.333313 1.00016 0.333313H13.0002C13.3684 0.333313 13.6668 0.63179 13.6668 0.99998C13.6668 1.36817 13.3684 1.66665 13.0002 1.66665H1.00016C0.631973 1.66665 0.333496 1.36817 0.333496 0.99998Z" fill="#1C1C1C"/>
<path fill-rule="evenodd" clip-rule="evenodd" d="M0.333496 8.99998C0.333496 8.63179 0.631973 8.33331 1.00016 8.33331H9.00016C9.36835 8.33331 9.66683 8.63179 9.66683 8.99998C9.66683 9.36817 9.36835 9.66665 9.00016 9.66665H1.00016C0.631973 9.66665 0.333496 9.36817 0.333496 8.99998Z" fill="#1C1C1C"/>
<path fill-rule="evenodd" clip-rule="evenodd" d="M0.333496 4.99998C0.333496 4.63179 0.631973 4.33331 1.00016 4.33331H10.3335C10.7017 4.33331 11.0002 4.63179 11.0002 4.99998C11.0002 5.36817 10.7017 5.66665 10.3335 5.66665H1.00016C0.631973 5.66665 0.333496 5.36817 0.333496 4.99998Z" fill="#1C1C1C"/>
</svg>
