<svg width="19" height="19" viewBox="0 0 19 19" fill="none" xmlns="http://www.w3.org/2000/svg">
<g clip-path="url(#clip0_101_1924)">
<path fill-rule="evenodd" clip-rule="evenodd" d="M17.9758 1.02356C18.285 1.33273 18.285 1.83398 17.9758 2.14315L9.26748 10.8515C8.95831 11.1606 8.45705 11.1606 8.14789 10.8515C7.83872 10.5423 7.83872 10.0411 8.14789 9.73189L16.8562 1.02356C17.1654 0.714396 17.6666 0.714396 17.9758 1.02356Z" fill="white"/>
<path fill-rule="evenodd" clip-rule="evenodd" d="M17.9758 1.02352C18.1909 1.23857 18.2637 1.55779 18.1632 1.84484L12.6216 17.6782C12.5143 17.9846 12.231 18.1944 11.9066 18.2077C11.5823 18.2209 11.2828 18.0348 11.1509 17.7382L8.10792 10.8914L1.26116 7.84842C0.964538 7.71658 0.778446 7.41704 0.791678 7.09271C0.804909 6.76838 1.01478 6.48499 1.32116 6.37776L17.1545 0.836094C17.4415 0.735627 17.7608 0.808475 17.9758 1.02352ZM3.72895 7.21254L9.02921 9.56821C9.20831 9.64781 9.35152 9.79102 9.43112 9.97012L11.7868 15.2704L16.1256 2.87371L3.72895 7.21254Z" fill="white"/>
</g>
<defs>
<clipPath id="clip0_101_1924">
<rect width="19" height="19" fill="white"/>
</clipPath>
</defs>
</svg>
