<svg width="21" height="23" viewBox="0 0 21 23" fill="none" xmlns="http://www.w3.org/2000/svg">
<path fill-rule="evenodd" clip-rule="evenodd" d="M0.0830078 5.22251C0.0830078 4.64974 0.549378 4.18542 1.12467 4.18542H19.8747C20.45 4.18542 20.9163 4.64974 20.9163 5.22251C20.9163 5.79527 20.45 6.25959 19.8747 6.25959H1.12467C0.549378 6.25959 0.0830078 5.79527 0.0830078 5.22251Z" fill="#7D7D79"/>
<path fill-rule="evenodd" clip-rule="evenodd" d="M8.41699 2.11125C8.14073 2.11125 7.87577 2.22051 7.68042 2.415C7.48507 2.60949 7.37533 2.87328 7.37533 3.14833V4.18542H13.6253V3.14833C13.6253 2.87328 13.5156 2.60949 13.3202 2.415C13.1249 2.22051 12.8599 2.11125 12.5837 2.11125H8.41699ZM15.7087 4.18542V3.14833C15.7087 2.32318 15.3794 1.53182 14.7934 0.948344C14.2073 0.364871 13.4125 0.0370789 12.5837 0.0370789H8.41699C7.58819 0.0370789 6.79334 0.364871 6.20728 0.948344C5.62123 1.53182 5.29199 2.32318 5.29199 3.14833V4.18542H3.20866C2.63336 4.18542 2.16699 4.64973 2.16699 5.2225V19.7417C2.16699 20.5668 2.49623 21.3582 3.08228 21.9417C3.66833 22.5251 4.46319 22.8529 5.29199 22.8529H15.7087C16.5375 22.8529 17.3323 22.5251 17.9184 21.9417C18.5044 21.3582 18.8337 20.5668 18.8337 19.7417V5.2225C18.8337 4.64973 18.3673 4.18542 17.792 4.18542H15.7087ZM4.25033 6.25958V19.7417C4.25033 20.0167 4.36007 20.2805 4.55542 20.475C4.75077 20.6695 5.01573 20.7788 5.29199 20.7788H15.7087C15.9849 20.7788 16.2499 20.6695 16.4452 20.475C16.6406 20.2805 16.7503 20.0167 16.7503 19.7417V6.25958H4.25033Z" fill="#7D7D79"/>
<path fill-rule="evenodd" clip-rule="evenodd" d="M8.41667 9.37085C8.99196 9.37085 9.45833 9.83517 9.45833 10.4079V16.6304C9.45833 17.2032 8.99196 17.6675 8.41667 17.6675C7.84137 17.6675 7.375 17.2032 7.375 16.6304V10.4079C7.375 9.83517 7.84137 9.37085 8.41667 9.37085Z" fill="#7D7D79"/>
<path fill-rule="evenodd" clip-rule="evenodd" d="M12.5837 9.37085C13.159 9.37085 13.6253 9.83517 13.6253 10.4079V16.6304C13.6253 17.2032 13.159 17.6675 12.5837 17.6675C12.0084 17.6675 11.542 17.2032 11.542 16.6304V10.4079C11.542 9.83517 12.0084 9.37085 12.5837 9.37085Z" fill="#7D7D79"/>
</svg>
