<svg width="30" height="24" viewBox="0 0 30 24" fill="none" xmlns="http://www.w3.org/2000/svg">
<path d="M29.4141 8.2041C28.0664 9.25879 26.3672 10.5479 20.3906 14.8838C19.2188 15.7627 17.0508 17.6963 15 17.6963C12.8906 17.6963 10.7812 15.7627 9.55078 14.8838C3.57422 10.5479 1.875 9.25879 0.527344 8.2041C0.292969 8.02832 0 8.2041 0 8.49707V20.4502C0 22.0322 1.23047 23.2627 2.8125 23.2627H27.1875C28.7109 23.2627 30 22.0322 30 20.4502V8.49707C30 8.2041 29.6484 8.02832 29.4141 8.2041ZM15 15.7627C16.3477 15.8213 18.2812 14.0635 19.2773 13.3604C27.0703 7.73535 27.6562 7.20801 29.4141 5.80176C29.7656 5.56738 30 5.15723 30 4.68848V3.5752C30 2.05176 28.7109 0.762695 27.1875 0.762695H2.8125C1.23047 0.762695 0 2.05176 0 3.5752V4.68848C0 5.15723 0.175781 5.56738 0.527344 5.80176C2.28516 7.20801 2.87109 7.73535 10.6641 13.3604C11.6602 14.0635 13.5938 15.8213 15 15.7627Z" fill="white"/>
</svg>
