<svg width="24" height="31" viewBox="0 0 24 31" fill="none" xmlns="http://www.w3.org/2000/svg">
<path d="M10.8281 29.4268C11.3555 30.2471 12.5859 30.2471 13.1133 29.4268C21.668 17.1221 23.25 15.833 23.25 11.2627C23.25 5.05176 18.2109 0.0126953 12 0.0126953C5.73047 0.0126953 0.75 5.05176 0.75 11.2627C0.75 15.833 2.27344 17.1221 10.8281 29.4268ZM12 15.9502C9.36328 15.9502 7.3125 13.8994 7.3125 11.2627C7.3125 8.68457 9.36328 6.5752 12 6.5752C14.5781 6.5752 16.6875 8.68457 16.6875 11.2627C16.6875 13.8994 14.5781 15.9502 12 15.9502Z" fill="white"/>
</svg>
