<svg width="30" height="30" viewBox="0 0 30 30" fill="none" xmlns="http://www.w3.org/2000/svg">
<path d="M29.1211 21.2109L22.5586 18.3984C22.3828 18.3398 22.207 18.2812 21.9727 18.2812C21.5625 18.2812 21.1523 18.5156 20.918 18.8086L17.9883 22.3828C13.418 20.2148 9.78516 16.582 7.61719 12.0117L11.1914 9.08204C11.4844 8.84766 11.7188 8.4375 11.7188 7.96875C11.7188 7.79296 11.6602 7.61718 11.6016 7.4414L8.78906 0.878907C8.55469 0.351563 8.02734 0 7.44141 0C7.38281 0 7.26562 0.0585938 7.14844 0.0585938L1.05469 1.46484C0.410156 1.64062 0 2.16796 0 2.8125C0 17.8711 12.1289 30 27.1875 30C27.832 30 28.3594 29.5898 28.5352 28.9453L29.9414 22.8516C29.9414 22.7344 29.9414 22.6172 29.9414 22.5586C29.9414 21.9727 29.5898 21.4453 29.1211 21.2109Z" fill="white"/>
</svg>
