<svg width="36" height="36" viewBox="0 0 36 36" fill="none" xmlns="http://www.w3.org/2000/svg">
<rect x="0.5" y="0.5" width="35" height="34.9079" rx="17.454" stroke="white"/>
<path fill-rule="evenodd" clip-rule="evenodd" d="M11.7353 8.41904L24.1904 8.41553C24.9919 8.4153 25.6593 9.03051 25.7242 9.82942L27.0994 26.7524C27.1682 27.5993 26.5374 28.3417 25.6905 28.4105L25.5659 28.4155H10.434C9.58431 28.4155 8.89551 27.7267 8.89551 26.877L8.90004 26.759L10.2018 9.83951C10.2635 9.03814 10.9316 8.41927 11.7353 8.41904Z" stroke="white" stroke-linecap="round" stroke-linejoin="round"/>
<path d="M22.6157 13.4155V14.4083C22.6157 16.1076 19.6996 16.4925 18.0002 16.4925C16.3009 16.4925 13.3848 15.8841 13.3848 14.1848V13.4155" stroke="white" stroke-linecap="round" stroke-linejoin="round"/>
</svg>
