<svg width="18" height="16" viewBox="0 0 18 16" fill="none" xmlns="http://www.w3.org/2000/svg">
<path d="M14.8245 1.22309V2.16242L17.8197 2.16581V1.22647L14.8245 1.22309ZM0.179688 2.16581H9.49469V1.53959H0.179688V2.16581ZM14.8245 8.10647L17.8197 8.10986V7.17222L14.8245 7.16883V8.10647ZM0.179688 8.11155H9.49469V7.48533H0.179688V8.11155ZM14.8245 14.3653L17.8197 14.3687V13.4294L14.8245 13.426V14.3653ZM0.179688 14.3704H9.49469V13.7442H0.179688V14.3704ZM12.1623 0.283752C11.2425 0.283752 10.4973 0.984446 10.4973 1.84762C10.4973 2.71249 11.2425 3.41149 12.1623 3.41149C13.0821 3.41149 13.8273 2.71079 13.8273 1.84762C13.8255 0.984446 13.0803 0.283752 12.1623 0.283752ZM12.1623 6.22949C11.2425 6.22949 10.4973 6.93019 10.4973 7.79336C10.4973 8.65823 11.2425 9.35892 12.1623 9.35892C13.0821 9.35892 13.8273 8.65823 13.8273 7.79336C13.8255 6.93019 13.0803 6.22949 12.1623 6.22949ZM12.1623 12.4883C11.2425 12.4883 10.4973 13.189 10.4973 14.0522C10.4973 14.9154 11.2425 15.6161 12.1623 15.6161C13.0821 15.6161 13.8273 14.9154 13.8273 14.0522C13.8273 13.189 13.0803 12.4883 12.1623 12.4883Z" fill="#70BE42"/>
</svg>
