<svg width="16" height="13" viewBox="0 0 16 13" fill="none" xmlns="http://www.w3.org/2000/svg">
<path d="M15.6875 4.46875C15.8125 4.375 16 4.46875 16 4.625V11C16 11.8438 15.3125 12.5 14.5 12.5H1.5C0.65625 12.5 0 11.8438 0 11V4.625C0 4.46875 0.15625 4.375 0.28125 4.46875C1 5.03125 1.90625 5.71875 5.09375 8.03125C5.75 8.5 6.875 9.53125 8 9.53125C9.09375 9.53125 10.25 8.5 10.875 8.03125C14.0625 5.71875 14.9688 5.03125 15.6875 4.46875ZM8 8.5C7.25 8.53125 6.21875 7.59375 5.6875 7.21875C1.53125 4.21875 1.21875 3.9375 0.28125 3.1875C0.09375 3.0625 0 2.84375 0 2.59375V2C0 1.1875 0.65625 0.5 1.5 0.5H14.5C15.3125 0.5 16 1.1875 16 2V2.59375C16 2.84375 15.875 3.0625 15.6875 3.1875C14.75 3.9375 14.4375 4.21875 10.2812 7.21875C9.75 7.59375 8.71875 8.53125 8 8.5Z" fill="#70BE42"/>
</svg>
