<svg width="16" height="20" viewBox="0 0 16 20" fill="none" xmlns="http://www.w3.org/2000/svg">
<path d="M15 7.75C15 13.375 8 19 8 19C8 19 1 13.375 1 7.75C1 6.86358 1.18106 5.98583 1.53284 5.16689C1.88463 4.34794 2.40024 3.60382 3.05025 2.97703C3.70026 2.35023 4.47194 1.85303 5.32122 1.51381C6.17049 1.17459 7.08075 1 8 1C8.91925 1 9.8295 1.17459 10.6788 1.51381C11.5281 1.85303 12.2997 2.35023 12.9497 2.97703C13.5998 3.60382 14.1154 4.34794 14.4672 5.16689C14.8189 5.98583 15 6.86358 15 7.75Z" stroke="#70BE42" stroke-linecap="round" stroke-linejoin="round"/>
<path d="M8 11C9.10457 11 10 9.88071 10 8.5C10 7.11929 9.10457 6 8 6C6.89543 6 6 7.11929 6 8.5C6 9.88071 6.89543 11 8 11Z" stroke="#70BE42" stroke-linecap="round" stroke-linejoin="round"/>
</svg>
