<svg width="13" height="18" viewBox="0 0 13 18" fill="none" xmlns="http://www.w3.org/2000/svg">
<path fill-rule="evenodd" clip-rule="evenodd" d="M6.5 16.5408L7.13112 15.8289C7.84697 15.0098 8.49123 14.2306 9.06392 13.4912L9.53725 12.8672C11.5124 10.2057 12.5 8.09447 12.5 6.53345C12.5 3.20127 9.81371 0.5 6.5 0.5C3.18629 0.5 0.5 3.20127 0.5 6.53345C0.5 8.09447 1.48758 10.2057 3.46275 12.8672L3.93608 13.4912C4.67239 14.4418 5.52703 15.4583 6.5 16.5408Z" stroke="white" stroke-linecap="round" stroke-linejoin="round"/>
<path d="M6.5 9C7.88071 9 9 7.88071 9 6.5C9 5.11929 7.88071 4 6.5 4C5.11929 4 4 5.11929 4 6.5C4 7.88071 5.11929 9 6.5 9Z" stroke="white" stroke-linecap="round" stroke-linejoin="round"/>
</svg>
