<svg width="16" height="17" viewBox="0 0 16 17" fill="none" xmlns="http://www.w3.org/2000/svg">
<g clip-path="url(#clip0_306_4237)">
<path d="M15.5312 11.8125C15.7812 11.9375 15.9688 12.2188 15.9688 12.5312C15.9688 12.5625 15.9688 12.625 15.9688 12.6875L15.2188 15.9375C15.125 16.2812 14.8438 16.5 14.5 16.5C6.46875 16.5 0 10.0312 0 2C0 1.65625 0.21875 1.375 0.5625 1.28125L3.8125 0.53125C3.875 0.53125 3.9375 0.5 3.96875 0.5C4.28125 0.5 4.5625 0.6875 4.6875 0.96875L6.1875 4.46875C6.21875 4.5625 6.25 4.65625 6.25 4.75C6.25 5 6.125 5.21875 5.96875 5.34375L4.0625 6.90625C5.21875 9.34375 7.15625 11.2812 9.59375 12.4375L11.1562 10.5312C11.2812 10.375 11.5 10.25 11.7188 10.25C11.8438 10.25 11.9375 10.2812 12.0312 10.3125L15.5312 11.8125Z" fill="#70BE42"/>
</g>
<defs>
<clipPath id="clip0_306_4237">
<rect width="16" height="17" fill="white"/>
</clipPath>
</defs>
</svg>
