<svg width="16" height="18" viewBox="0 0 16 18" fill="none" xmlns="http://www.w3.org/2000/svg">
<path d="M11.2135 17.5209H4.11754C2.67206 17.5209 1.5332 16.3383 1.5332 14.9366V7.00837C1.5332 6.74555 1.70841 6.57034 1.97123 6.57034C2.23404 6.57034 2.40925 6.74555 2.40925 7.00837V14.9366C2.40925 15.9002 3.19769 16.6449 4.11754 16.6449H11.2135C12.1772 16.6449 12.9218 15.8564 12.9218 14.9366V7.00837C12.9218 6.74555 13.097 6.57034 13.3598 6.57034C13.6226 6.57034 13.7978 6.74555 13.7978 7.00837V14.9366C13.7978 16.3383 12.6152 17.5209 11.2135 17.5209Z" fill="#A3A3A3"/>
<path d="M13.5349 2.14631H10.2059C9.98693 0.919849 8.93567 0 7.6654 0C6.39514 0 5.34388 0.919849 5.12487 2.14631H1.79589C0.788441 2.14631 0 2.93475 0 3.94221C0 4.94966 0.788441 5.6943 1.79589 5.6943H13.5787C14.5862 5.6943 15.3746 4.90586 15.3746 3.89841C15.3746 2.89095 14.5424 2.14631 13.5349 2.14631ZM7.6654 0.876046C8.45385 0.876046 9.11088 1.40167 9.28609 2.14631H6.00092C6.21993 1.40167 6.87696 0.876046 7.6654 0.876046ZM13.5349 4.81825H1.79589C1.31407 4.81825 0.876046 4.42403 0.876046 3.89841C0.876046 3.41658 1.27027 2.97856 1.79589 2.97856H13.5787C14.0605 2.97856 14.4986 3.37278 14.4986 3.89841C14.4548 4.42403 14.0605 4.81825 13.5349 4.81825Z" fill="#A3A3A3"/>
<path d="M4.59818 15.3739C4.33537 15.3739 4.16016 15.1987 4.16016 14.9359V7.62091C4.16016 7.3581 4.33537 7.18289 4.59818 7.18289C4.86099 7.18289 5.0362 7.3581 5.0362 7.62091V14.9359C5.0362 15.1549 4.81719 15.3739 4.59818 15.3739Z" fill="#A3A3A3"/>
<path d="M10.7329 15.3739C10.4701 15.3739 10.2949 15.1987 10.2949 14.9359V7.62091C10.2949 7.3581 10.4701 7.18289 10.7329 7.18289C10.9958 7.18289 11.171 7.3581 11.171 7.62091V14.9359C11.171 15.1549 10.952 15.3739 10.7329 15.3739Z" fill="#A3A3A3"/>
<path d="M7.66654 15.3739C7.40372 15.3739 7.22852 15.1987 7.22852 14.9359V7.62091C7.22852 7.3581 7.40372 7.18289 7.66654 7.18289C7.92935 7.18289 8.10456 7.3581 8.10456 7.62091V14.9359C8.10456 15.1549 7.88555 15.3739 7.66654 15.3739Z" fill="#A3A3A3"/>
</svg>
