<svg width="16" height="16" viewBox="0 0 16 16" fill="none" xmlns="http://www.w3.org/2000/svg">
<path d="M7.84 0.160156C3.5104 0.160156 0 3.67056 0 8.00016C0 12.3298 3.5104 15.8402 7.84 15.8402C12.1696 15.8402 15.68 12.3298 15.68 8.00016C15.68 3.67056 12.1696 0.160156 7.84 0.160156ZM7.84 15.1282C6.1632 15.1282 4.624 14.5458 3.4064 13.5762C3.8912 12.941 4.8592 12.2498 5.712 11.9714C6.2272 11.8034 6.5248 11.5506 6.5968 11.2194C6.6896 10.8018 6.3712 10.4914 6.3344 10.4578C6.2416 10.373 6.1072 10.3426 5.9872 10.3794C5.96 10.3874 5.3776 10.549 4.4208 10.117C4.7088 9.61776 4.9568 8.59536 4.9568 6.55376C4.9568 3.28336 6.4112 3.01296 8.0304 3.01296C9.1584 3.01296 10.6592 3.39856 10.6592 6.73296C10.6592 8.62896 10.9568 9.57456 11.2528 10.0466C10.8496 10.2002 10.2064 10.3794 9.5088 10.3202C9.3536 10.3042 9.2144 10.3922 9.152 10.5314C9.0176 10.8354 9.008 11.5218 9.9344 11.9346C10.6544 12.2562 11.536 12.741 12.232 13.605C11.0208 14.557 9.4976 15.1282 7.84 15.1282ZM12.7712 13.1378C11.9888 12.1714 11.0176 11.637 10.224 11.2834C10.048 11.205 9.936 11.1202 9.8704 11.0418C11.0608 11.0194 11.9936 10.4946 12.0368 10.4706C12.16 10.4002 12.2288 10.2642 12.2144 10.1234C12.2 9.99536 12.1184 9.88336 12 9.83376C11.9488 9.79696 11.3712 9.32816 11.3712 6.73136C11.3712 3.79056 10.248 2.29936 8.0304 2.29936C6.1584 2.29936 4.2448 2.80496 4.2448 6.55376C4.2448 9.27536 3.7904 9.80016 3.72 9.86416C3.6 9.89936 3.5056 9.99696 3.4752 10.1234C3.4384 10.277 3.5072 10.4354 3.6416 10.5154C4.6448 11.0978 5.432 11.149 5.856 11.117C5.8048 11.1602 5.7008 11.2258 5.4928 11.2946C4.5104 11.6162 3.4608 12.3634 2.8752 13.109C1.544 11.8146 0.7152 10.0066 0.7152 8.00336C0.712 4.06416 3.904 0.872156 7.84 0.872156C11.776 0.872156 14.968 4.06416 14.968 8.00016C14.968 10.021 14.1216 11.8418 12.7712 13.1378Z" fill="#C4C4C4"/>
</svg>
