<svg width="15" height="15" viewBox="0 0 15 15" fill="none" xmlns="http://www.w3.org/2000/svg">
<path d="M7.50338 0.24707L0.00244141 5.84718V14.753H15.0024V5.84718L7.50338 0.24707ZM5.42829 4.24319C5.64838 3.84091 5.95163 3.53803 6.33637 3.33699C6.72015 3.13425 7.15807 3.03222 7.65332 3.03222C8.07086 3.03222 8.44371 3.11426 8.76998 3.27589C9.09606 3.43996 9.34425 3.6708 9.51813 3.97123C9.68787 4.27204 9.77594 4.6 9.77594 4.95513C9.77594 5.3789 9.64506 5.76212 9.38329 6.10498C9.05513 6.53724 8.63627 6.75299 8.12348 6.75299C7.98543 6.75299 7.88227 6.72998 7.81155 6.68133C7.74271 6.63191 7.69443 6.56213 7.67142 6.4684C7.47868 6.65926 7.25067 6.75507 6.99456 6.75507C6.71827 6.75507 6.48931 6.65945 6.30751 6.47048C6.12533 6.27962 6.03462 6.02521 6.03462 5.71026C6.03462 5.31723 6.14362 4.96229 6.36333 4.64055C6.63038 4.24752 6.97023 4.05025 7.38627 4.05025C7.68255 4.05025 7.90132 4.1636 8.04163 4.39067L8.10406 4.11381H8.76413L8.38732 5.90149C8.36375 6.01578 8.35206 6.08744 8.35206 6.12083C8.35206 6.16383 8.36186 6.19249 8.38016 6.21456C8.39883 6.23549 8.42221 6.24567 8.44748 6.24567C8.52971 6.24567 8.63212 6.1989 8.75791 6.10065C8.92783 5.97561 9.06475 5.8038 9.16923 5.59239C9.27371 5.37946 9.32746 5.15881 9.32746 4.9308C9.32746 4.52249 9.17998 4.18076 8.88389 3.9039C8.58723 3.63044 8.17289 3.49183 7.64332 3.49183C7.19202 3.49183 6.8103 3.58367 6.49724 3.76868C6.18417 3.95086 5.94786 4.21056 5.78718 4.54456C5.62895 4.87648 5.54993 5.22482 5.54993 5.5856C5.54993 5.93563 5.64027 6.25548 5.81603 6.54252C5.99426 6.83164 6.24226 7.0406 6.56211 7.17337C6.88197 7.30482 7.24916 7.37064 7.66124 7.37064C8.05672 7.37064 8.39845 7.31538 8.68568 7.20449C8.97272 7.09378 9.20224 6.9297 9.37706 6.70641H9.90645C9.74048 7.04437 9.48645 7.3084 9.14283 7.50133C8.74829 7.72067 8.26775 7.82948 7.70122 7.82948C7.1509 7.82948 6.67791 7.73764 6.27884 7.55263C5.87884 7.36668 5.58312 7.09359 5.3868 6.73225C5.19292 6.37052 5.0973 5.97636 5.0973 5.55014C5.09768 5.08299 5.20669 4.64696 5.42829 4.24319ZM0.531259 6.02389L6.06536 9.73541L0.531259 14.0188V6.02389ZM0.951634 14.3037L7.50338 9.23338L14.0531 14.3037H0.951634ZM14.4731 14.0188L8.94009 9.73541L14.4732 6.02389V14.0188H14.4731ZM7.77345 4.65092C7.86134 4.75107 7.90528 4.89515 7.90528 5.08318C7.90528 5.25122 7.87246 5.43321 7.80853 5.62614C7.74554 5.82153 7.6684 5.97052 7.58052 6.07141C7.52055 6.14214 7.45642 6.19438 7.39343 6.22719C7.31064 6.27415 7.22257 6.29697 7.12752 6.29697C7.0004 6.2981 6.89555 6.24718 6.8086 6.14723C6.72374 6.04709 6.68168 5.89338 6.68168 5.68234C6.68168 5.52411 6.71148 5.34193 6.77353 5.1375C6.83557 4.93231 6.92629 4.77615 7.04755 4.66432C7.16957 4.55342 7.3014 4.49816 7.4436 4.49816C7.57675 4.49911 7.68745 4.54984 7.77345 4.65092Z" fill="#D1AE6F"/>
</svg>
