<svg width="10" height="19" viewBox="0 0 10 19" fill="none" xmlns="http://www.w3.org/2000/svg">
<path d="M0.735898 0.259411C0.395988 0.376451 0.118209 0.665062 0.0306186 0.997562C0.00496862 1.08534 -0.00225165 4.12591 0.00135835 9.58575L0.0123784 18.0425L0.0963583 18.196C0.224228 18.4371 0.385158 18.598 0.608028 18.7076L0.816269 18.8101H4.56212H8.30797L8.51621 18.7076C8.73908 18.598 8.90001 18.4373 9.02788 18.196L9.11186 18.0425V9.50918V0.975712L9.00223 0.778301C8.86695 0.537191 8.66593 0.358023 8.41019 0.263023C8.21677 0.190062 8.1326 0.190062 4.56953 0.190062C1.16701 0.193672 0.914878 0.197281 0.735898 0.259411ZM8.61881 9.50918V16.3433H4.56231H0.505808V9.50918V2.67507H4.56231H8.61881V9.50918ZM4.89101 16.9353C5.10666 17.085 5.16518 17.1985 5.16518 17.4726C5.16518 17.6847 5.15055 17.7394 5.06657 17.849C4.92768 18.0318 4.7449 18.1086 4.50379 18.0901C3.90453 18.039 3.72175 17.2788 4.22962 16.9389C4.40138 16.8219 4.72286 16.8219 4.89101 16.9353Z" fill="#C4C4C4"/>
</svg>
