<svg width="38" height="10" viewBox="0 0 38 10" fill="none" xmlns="http://www.w3.org/2000/svg">
<path d="M37.0475 3.16659C35.7762 1.58995 33.249 1.56323 31.4242 1.79228C30.2884 1.93634 29.1695 2.19208 28.0839 2.55579C27.8648 2.31043 27.6145 2.09481 27.3395 1.91444C25.0948 0.463772 22.6286 2.384 21.281 4.15915C20.049 3.08807 19.2083 1.63762 18.8913 0.0362134C18.8934 0.0274305 18.8934 0.0182708 18.8913 0.00948786C18.8913 0.00948786 18.8913 0.00948693 18.8913 0.0323922C18.8913 0.0552974 18.8913 0.0323931 18.8913 0.00948786C18.8913 -0.0134174 18.8913 0.00948693 18.8913 0.0323922C18.5719 1.6342 17.7333 3.08602 16.5053 4.16298C16.0859 3.59912 15.6015 3.08659 15.0623 2.63596C13.8483 1.62813 12.1647 0.971514 10.6721 1.78083C10.3161 1.98232 9.99506 2.24017 9.72152 2.54434C8.78105 2.22106 7.8122 1.98715 6.82782 1.84572C4.97631 1.58995 2.44528 1.46397 0.994618 2.88028C0.595374 3.26341 0.301131 3.74259 0.140046 4.27196C-0.0210392 4.80134 -0.0435767 5.3632 0.0745891 5.90377C0.234922 6.447 0.532285 6.93985 0.938097 7.33497C1.34391 7.73008 1.84453 8.01417 2.39184 8.15994C4.74726 8.92345 7.32028 8.80511 9.70243 8.25538C9.88949 8.21339 10.0842 8.15994 10.2598 8.10649C11.0369 8.6708 11.9717 8.97662 12.9321 8.98071C14.7487 8.96271 16.5449 8.59595 18.2232 7.90035C18.4751 8.58751 18.6889 9.29375 18.876 10C18.731 9.27773 18.5462 8.56403 18.3224 7.86217L18.8607 7.6522C19.0478 7.72855 19.2425 7.79727 19.4333 7.8698C19.2139 8.57003 19.0304 9.28103 18.8836 10C19.063 9.32048 19.2654 8.61041 19.5402 7.90798C20.2898 8.18116 21.0546 8.4106 21.8308 8.59514C23.7166 9.03034 25.9957 9.2823 27.5571 8.10268C29.9796 8.82544 32.5518 8.88476 35.0051 8.27446C36.1084 7.99197 37.1353 7.39643 37.5896 6.29316C37.7828 5.77048 37.8345 5.20601 37.7393 4.65693C37.6441 4.10786 37.4054 3.5937 37.0475 3.16659ZM27.6716 7.00705C27.5264 7.17853 27.3639 7.3346 27.1868 7.47279C25.7903 7.05746 24.4591 6.44835 23.2318 5.66327C24.5756 5.01047 25.9232 4.36149 27.3127 3.80795C27.5571 3.71633 27.8052 3.62852 28.0763 3.54071C28.361 4.09303 28.475 4.71761 28.4036 5.33491C28.3322 5.95221 28.0787 6.5343 27.6754 7.00705H27.6716ZM22.0598 5.22807C21.4986 5.51057 20.9336 5.79307 20.3648 6.06412C20.6361 5.53699 20.9515 5.03382 21.3078 4.56C21.5521 4.79287 21.804 5.03338 22.0636 5.22807H22.0598ZM24.0755 2.25038C24.6299 1.96531 25.2599 1.8617 25.8765 1.95418C26.493 2.04666 27.0649 2.33056 27.5113 2.76575C26.3243 3.20237 25.1609 3.7006 24.0258 4.25841C23.4761 4.52182 22.934 4.79669 22.3843 5.07155C22.0751 4.8425 21.7735 4.60199 21.4872 4.35003C22.1706 3.45718 23.0547 2.73787 24.0678 2.25038H24.0755ZM18.8951 0.0705699C19.1398 1.72265 19.9284 3.24598 21.136 4.39966C20.7297 4.96765 20.3794 5.57364 20.09 6.20917C19.7082 6.38732 19.3265 6.55912 18.9447 6.72454C18.521 6.54512 18.101 6.36188 17.6849 6.16718C17.3973 5.54626 17.0549 4.95219 16.6618 4.39203C17.873 3.24518 18.6602 1.72197 18.8951 0.0705699ZM17.3871 6.03357C16.8272 5.77907 16.2699 5.50929 15.7151 5.22425C15.967 5.02574 16.2113 4.81196 16.4442 4.59054C16.7959 5.04068 17.1112 5.5181 17.3871 6.0183V6.03357ZM10.7866 2.36109C12.7336 1.05931 14.9859 2.83447 16.2228 4.3004C16.2495 4.33094 16.2686 4.36149 16.2915 4.39203C16.0166 4.63254 15.7303 4.8654 15.4326 5.083L14.0468 4.40348C12.8283 3.79174 11.5782 3.24506 10.3018 2.76575C10.4484 2.6138 10.6109 2.47813 10.7866 2.36109ZM10.3247 7.21701C9.8542 6.74437 9.54483 6.13533 9.44064 5.47662C9.33646 4.81791 9.44276 4.14312 9.74442 3.54835C11.3905 4.16688 13.0003 4.87809 14.566 5.67854C14.2988 5.84651 14.0277 6.01066 13.7528 6.16336C12.7617 6.71767 11.7117 7.15944 10.6225 7.48042C10.5178 7.39888 10.4184 7.31091 10.3247 7.21701ZM4.59838 7.92326C3.45312 7.74765 1.98336 7.5415 1.25039 6.51458C0.932316 6.04394 0.798191 5.47287 0.873496 4.90984C0.948802 4.34681 1.22829 3.83105 1.65887 3.46055C2.32789 2.94739 3.1445 2.66359 3.98757 2.65123C5.20175 2.55862 6.42296 2.64869 7.61042 2.91845C8.14487 3.04443 8.67551 3.19714 9.1947 3.36893C8.92497 3.86384 8.77832 4.41639 8.76713 4.97992C8.75765 5.94579 9.10264 6.88162 9.73679 7.61022L9.83223 7.70565C8.10497 8.11461 6.31529 8.18848 4.5602 7.92326H4.59838ZM11.2027 7.82782C12.528 7.34117 13.7793 6.6731 14.921 5.84269C15.8639 6.30461 16.8069 6.76272 17.7651 7.18265C17.5169 7.27046 17.2688 7.35825 17.0016 7.43842C15.2875 7.99578 12.8901 8.68676 11.1645 7.82782H11.2027ZM21.1283 7.52623C20.7797 7.4117 20.4361 7.28445 20.0976 7.14447L20.235 7.08339C21.136 6.68255 22.0255 6.25499 22.9073 5.82361C23.5168 6.25513 24.1545 6.64539 24.8161 6.99178C25.4176 7.30547 26.04 7.57716 26.679 7.80491C25.007 8.64095 22.7279 8.0645 21.0825 7.52623H21.1283ZM36.1313 7.01086C35.154 7.74001 33.6804 7.90799 32.5046 8.01869C31.2295 8.13185 29.945 8.06889 28.6871 7.83163C28.4771 7.78963 28.2633 7.74001 28.0534 7.69038C28.2432 7.4878 28.412 7.26653 28.5573 7.02995C28.8874 6.47759 29.0715 5.85028 29.0922 5.20711C29.1129 4.56395 28.9695 3.92611 28.6756 3.35366C30.5844 2.74667 32.5924 2.36873 34.5852 2.72758C34.9868 2.77685 35.3742 2.90715 35.7239 3.11058C36.0737 3.314 36.3785 3.58631 36.6199 3.91102C36.9538 4.395 37.0849 4.99051 36.985 5.56995C36.8851 6.14939 36.5622 6.66664 36.0855 7.01086H36.1313Z" fill="#D1AE6F"/>
</svg>
