<svg width="17" height="22" viewBox="0 0 17 22" fill="none" xmlns="http://www.w3.org/2000/svg">
<path d="M1.47794 5.86607C2.5545 3.022 5.30049 1 8.52039 1C12.677 1 16.0465 4.37056 16.0465 8.52679C16.0465 11.8636 11.1949 18.2478 9.28213 20.6348C9.19053 20.7488 9.07453 20.8408 8.94267 20.904C8.8108 20.9672 8.66644 21 8.52022 21C8.37399 21 8.22963 20.9672 8.09777 20.904C7.96591 20.8408 7.8499 20.7488 7.7583 20.6348C5.88428 18.2964 1.18976 12.1215 1 8.73374" stroke="#D1AE6F" stroke-miterlimit="10" stroke-linecap="round"/>
<path d="M5.06934 8.52412C5.07538 7.61499 5.44096 6.74519 6.08623 6.10474" stroke="#D1AE6F" stroke-miterlimit="10" stroke-linecap="round"/>
<path d="M7.25733 5.33782C7.88375 5.09165 8.56846 5.03397 9.22723 5.17187C9.88601 5.30976 10.4901 5.63722 10.9652 6.11396C11.4403 6.5907 11.7657 7.19592 11.9013 7.85517C12.0369 8.51441 11.9768 9.19892 11.7285 9.82448C11.4802 10.45 11.0544 10.9894 10.5035 11.3761C9.95269 11.7628 9.30081 11.9801 8.62809 12.0012C7.95537 12.0223 7.29116 11.8462 6.71718 11.4948C6.1432 11.1433 5.68448 10.6317 5.39746 10.0229" stroke="#D1AE6F" stroke-miterlimit="10" stroke-linecap="round"/>
</svg>
