<svg width="12" height="5" viewBox="0 0 12 5" fill="none" xmlns="http://www.w3.org/2000/svg">
<path d="M0.660692 0.356487C1.25125 -0.205706 2.42206 -0.105127 2.78052 0.67369C2.62862 0.449646 2.40893 0.280177 2.15366 0.190137C1.89839 0.100097 1.62099 0.0942261 1.36214 0.173389C0.689059 0.356489 0.371859 1.04763 0.446646 1.70782C0.606535 2.73936 1.56072 3.32734 2.55616 3.34539C3.78112 3.3686 4.82556 2.64394 5.79006 1.98118C6.75455 1.31841 7.85315 0.655638 9.09616 0.794897C10.1277 0.908367 11.1283 1.70266 11.0226 2.83478C10.9555 4.25316 9.60678 5.09902 8.27608 4.99071C9.49331 4.96234 10.7415 4.16031 10.7234 2.82962C10.7724 1.55824 9.38241 1.08889 8.34313 1.26425C7.19296 1.46025 6.28004 2.29579 5.3207 2.90441C4.36136 3.51302 3.14414 4.00816 1.96818 3.70901C1.00368 3.46402 0.242914 2.74194 0.147496 1.73103C0.127803 1.47814 0.163777 1.22401 0.252889 0.986533C0.341999 0.749053 0.48208 0.533991 0.663269 0.356487C0.836053 0.18886 0.503381 0.511219 0.660692 0.356487Z" fill="#D1AE6F"/>
<path d="M0.661039 4.03624C2.28572 5.35662 4.24566 4.05429 5.65888 3.10526C6.43254 2.58949 7.27067 2.08661 8.23774 2.03245C9.04493 1.98604 9.95269 2.25166 10.373 2.99953C9.7928 2.31355 8.82573 2.22587 7.99275 2.42187C6.99473 2.67975 6.18755 3.3812 5.34426 3.93566C4.50097 4.49011 3.53905 4.94915 2.50751 4.92594C2.07728 4.92774 1.65394 4.81797 1.2788 4.60735C0.903651 4.39672 0.589516 4.09244 0.367049 3.72419C0.459367 3.83757 0.562112 3.94204 0.673934 4.03624C0.782247 4.12392 0.565621 3.94598 0.661039 4.03624Z" fill="#D1AE6F"/>
</svg>
