<svg width="50" height="50" viewBox="0 0 50 50" fill="none" xmlns="http://www.w3.org/2000/svg">
<circle cx="25.0005" cy="25" r="24.5" fill="#D1AE6F" stroke="white"/>
<g clip-path="url(#clip0_502_1585)">
<path d="M23.1505 17.5449C17.683 17.5449 13.2505 20.9549 13.2505 25.1599C13.2505 27.2224 14.318 29.0974 16.053 30.4674C15.953 31.8649 15.6155 33.5749 14.6405 34.4974C16.5805 34.4974 18.563 33.2824 19.818 32.3324C20.8605 32.6199 21.9805 32.7749 23.153 32.7749C28.6205 32.7749 33.053 29.3674 33.053 25.1599C33.0505 20.9549 28.618 17.5449 23.1505 17.5449Z" fill="white"/>
<path d="M36.3081 25.9025C37.1431 24.79 37.6181 23.495 37.6181 22.115C37.6181 17.9075 33.1856 14.5 27.7181 14.5C25.3106 14.5 23.1056 15.16 21.3906 16.2575C22.1981 16.105 23.0431 16.0225 23.9106 16.0225C29.7981 16.0225 34.5706 19.775 34.5706 24.4C34.5706 26.2225 33.8331 27.9125 32.5731 29.285C33.8231 30.235 35.8106 31.4525 37.7506 31.4525C36.3731 30.1425 36.2731 27.24 36.3081 25.9025Z" fill="white"/>
</g>
<defs>
<clipPath id="clip0_502_1585">
<rect width="25" height="25" fill="white" transform="translate(13.0005 12)"/>
</clipPath>
</defs>
</svg>
