<svg width="30" height="30" viewBox="0 0 30 30" fill="none" xmlns="http://www.w3.org/2000/svg">
<path d="M10.2178 13.9244C11.4978 16.44 13.56 18.5022 16.0756 19.7822L18.0311 17.8267C18.28 17.5778 18.6267 17.5067 18.9378 17.6044C19.9333 17.9333 21 18.1111 22.1111 18.1111C22.3469 18.1111 22.573 18.2048 22.7397 18.3715C22.9064 18.5382 23 18.7643 23 19V22.1111C23 22.3469 22.9064 22.573 22.7397 22.7397C22.573 22.9064 22.3469 23 22.1111 23C18.1034 23 14.2598 21.4079 11.4259 18.5741C8.59206 15.7402 7 11.8966 7 7.88889C7 7.65314 7.09365 7.42705 7.26035 7.26035C7.42705 7.09365 7.65314 7 7.88889 7H11C11.2357 7 11.4618 7.09365 11.6285 7.26035C11.7952 7.42705 11.8889 7.65314 11.8889 7.88889C11.8889 9 12.0667 10.0667 12.3956 11.0622C12.4933 11.3733 12.4222 11.72 12.1733 11.9689L10.2178 13.9244Z" fill="#D1AE6F"/>
<circle cx="15" cy="15" r="14.5" stroke="#D1AE6F"/>
</svg>
