<svg width="84" height="30" viewBox="0 0 84 30" fill="none" xmlns="http://www.w3.org/2000/svg">
<path fill-rule="evenodd" clip-rule="evenodd" d="M41.8549 25.2545C37.6297 28.8352 31.1934 29.5961 26.4848 26.5614C24.2583 25.157 22.6097 23.0002 21.8388 20.4832C21.085 17.9049 21.3743 15.1337 22.6445 12.7668C23.6169 11.0267 25.1485 9.66611 26.9911 8.90567C28.8337 8.14523 30.8792 8.02954 32.7958 8.57736C33.8641 8.90442 34.8392 9.48086 35.6408 10.2591C36.4424 11.0373 37.0474 11.9951 37.4059 13.0532C37.8057 14.1688 37.9015 15.3707 37.6834 16.5355C37.5785 17.0654 37.3848 17.5739 37.1105 18.0394C36.9673 18.2721 36.4212 19.1136 36.0453 18.9345C35.6693 18.7555 35.902 17.9319 35.902 17.6634C35.9105 16.9695 35.814 16.2784 35.6156 15.6134C35.2648 14.3719 34.4636 13.3058 33.3687 12.6236C32.6056 12.239 31.7583 12.0523 30.9043 12.0804C30.0503 12.1086 29.2171 12.3507 28.481 12.7847C27.6565 13.3066 26.9915 14.0455 26.5588 14.9202C26.1262 15.7949 25.9426 16.7718 26.0282 17.744C26.1556 19.0328 26.6525 20.2574 27.4592 21.2706C28.2659 22.2838 29.3482 23.0424 30.5757 23.4552C31.879 23.8808 33.2586 24.0212 34.6209 23.8667C35.9831 23.7123 37.2963 23.2666 38.4712 22.56C40.8523 21.2083 42.6695 19.0688 44.5047 17.0905C46.3713 15.017 48.4743 13.1693 50.7709 11.5851C53.0691 10.0485 55.5819 8.85998 58.2277 8.05815C63.3221 6.54629 68.8038 7.0627 73.5262 9.49939C75.808 10.7342 77.7331 12.536 79.116 14.7311C80.4989 16.9262 81.293 19.4406 81.4217 22.0318C81.4491 23.0059 81.3589 23.9797 81.1531 24.9322C81.5063 22.3403 81.1147 19.7015 80.0241 17.3238C78.9336 14.9462 77.1891 12.9278 74.9943 11.5046C70.5185 8.52365 64.8251 8.29985 59.848 9.87536C56.0715 11.1851 52.6705 13.3941 49.9384 16.3117C48.5432 17.758 47.2312 19.2822 46.0086 20.8771C44.7799 22.4737 43.3911 23.9405 41.8639 25.2545H41.8549Z" fill="#D1AE6F"/>
<path fill-rule="evenodd" clip-rule="evenodd" d="M60.376 14.8348C57.2339 16.2581 54.2262 19.0242 54.2172 22.7302C54.2007 23.572 54.3656 24.4075 54.7008 25.1798C55.036 25.9522 55.5336 26.6432 56.1597 27.2061C56.7875 27.7412 57.506 28.1596 58.2813 28.4414C58.5946 28.5578 59.7583 28.71 59.8479 29.1307C59.9374 29.5515 58.9527 29.8379 58.6662 29.9095C58.0334 30.0303 57.3834 30.0303 56.7505 29.9095C55.4014 29.6946 54.1512 29.0695 53.1698 28.1192C52.26 27.1838 51.5789 26.0506 51.1798 24.8082C50.7807 23.5659 50.6744 22.248 50.8692 20.9578C51.2719 18.384 52.6029 16.0467 54.6111 14.3872C56.655 12.7308 59.107 11.6547 61.7098 11.272C66.4198 10.3814 71.2906 11.3955 75.2538 14.0918C76.7049 15.1217 77.9271 16.4407 78.8438 17.9659C79.7604 19.491 80.3516 21.1893 80.5801 22.954C80.6759 24.0447 80.6278 25.1433 80.4369 26.2214C80.7079 24.022 80.292 21.7926 79.2463 19.8388C78.1788 17.8852 76.5888 16.2673 74.6541 15.166C72.4939 13.9938 70.0757 13.3785 67.618 13.3756C66.4163 13.3743 65.2172 13.4882 64.0373 13.7158C62.8002 13.9273 61.5964 14.3005 60.4566 14.8258C59.1675 15.3808 60.5282 14.7542 60.376 14.8348Z" fill="#D1AE6F"/>
<path fill-rule="evenodd" clip-rule="evenodd" d="M66.0961 6.05293C63.852 5.9873 61.6067 6.13718 59.3912 6.50052C57.2733 6.7979 55.1896 7.30158 53.1698 8.00441C51.2688 8.65877 49.4628 9.56178 47.7987 10.6899C47.1404 11.158 46.507 11.6599 45.9009 12.1938C45.7308 12.346 44.7462 13.4292 44.4597 13.2412C44.1732 13.0532 45.2295 11.2897 45.3549 11.1017C46.1018 10.0875 46.9878 9.1835 47.9867 8.41619C50.1239 6.8135 52.5581 5.65116 55.1481 4.99662C60.3849 3.56433 66.3288 3.20627 71.4403 5.29202C75.3942 6.8726 78.6781 9.77464 80.733 13.5041C82.7879 17.2336 83.4867 21.56 82.7105 25.7468C83.0536 23.374 82.9014 20.9559 82.2636 18.6449C81.6258 16.3339 80.5161 14.18 79.0045 12.3192C77.4171 10.4295 75.4498 8.89494 73.2305 7.81536C71.0112 6.73578 68.5895 6.1353 66.1229 6.05293H66.0961Z" fill="#D1AE6F"/>
<path fill-rule="evenodd" clip-rule="evenodd" d="M20.0488 4.35231C21.5 2.35596 23.6043 0.930761 25.9966 0.324099C28.3889 -0.282563 30.9182 -0.0323793 33.1453 1.03121C33.8207 1.35615 34.4523 1.76521 35.0251 2.24865C35.24 2.42769 36.3679 3.45713 36.0546 3.80625C35.7413 4.15537 34.8192 3.49294 34.5686 3.38551C34.0889 3.16591 33.5955 2.97754 33.0915 2.82156C31.8165 2.42483 30.4882 2.22558 29.1528 2.23074C27.7909 2.25339 26.4472 2.54773 25.2006 3.0965C23.9539 3.64527 22.8294 4.43742 21.8929 5.42651C18.2585 9.28472 17.9004 15.0317 20.1921 19.6419C20.982 21.2271 22.0217 22.6748 23.2715 23.9298C20.5958 21.5753 18.7188 18.4469 17.9004 14.978C17.4936 13.1553 17.4746 11.2673 17.8448 9.43673C18.2149 7.60615 18.9658 5.87385 20.0488 4.35231C20.7292 3.42132 19.3417 5.3191 20.0488 4.35231Z" fill="#D1AE6F"/>
<path fill-rule="evenodd" clip-rule="evenodd" d="M6.40599 17.1262C4.05167 18.4063 2.6552 21.3604 4.12329 23.8311C4.42548 24.3411 4.84266 24.7734 5.34156 25.0936C5.84046 25.4137 6.40728 25.6129 6.9968 25.6751C7.47045 25.7601 7.95544 25.7601 8.42908 25.6751C8.7603 25.6125 9.09151 25.5319 9.41377 25.4424C9.73604 25.3529 10.0404 25.2096 10.2552 25.3976C10.4701 25.5856 10.1299 26.3465 9.94193 26.5882C9.55925 27.0592 9.07597 27.4385 8.52755 27.6982C7.44553 28.2092 6.22819 28.3598 5.05427 28.1279C3.85194 27.8431 2.75482 27.2236 1.88986 26.3412C1.0249 25.4588 0.427446 24.3496 0.166616 23.1418C-0.109515 21.8504 -0.0415101 20.5091 0.363822 19.2523C0.769154 17.9954 1.49758 16.8671 2.47617 15.9804C3.47411 15.0917 4.65958 14.4395 5.94439 14.0722C7.2292 13.7048 8.58029 13.6319 9.89717 13.8588C13.3615 14.387 16.1634 16.7502 17.9985 19.6238C19.8336 22.4973 21.2032 26.1854 24.3722 28.0384C20.881 26.3286 19.2249 22.5868 16.6916 19.8475C14.1582 17.1083 9.97773 15.2822 6.40599 17.162V17.1262Z" fill="#D1AE6F"/>
<path fill-rule="evenodd" clip-rule="evenodd" d="M9.44067 10.7797C8.00766 10.3385 6.64066 9.70619 5.37657 8.89981C4.67834 8.38956 3.97115 7.46753 4.95584 6.83196C5.86358 6.3612 6.91614 6.25243 7.90097 6.5276C11.9024 7.36012 14.0329 11.5674 15.3041 15.0586C14.5943 13.9954 13.6817 13.0828 12.6185 12.3731C11.6254 11.7192 10.5588 11.1844 9.44067 10.7797Z" fill="#D1AE6F"/>
<path fill-rule="evenodd" clip-rule="evenodd" d="M13.6842 6.51868C13.3745 6.02445 13.2043 5.45562 13.1917 4.87249C13.1791 4.28937 13.3245 3.71369 13.6126 3.20654C13.7397 3.0169 13.91 2.86015 14.1095 2.74922C14.309 2.63829 14.532 2.57635 14.7602 2.56848C14.9883 2.56062 15.2151 2.60706 15.4218 2.70398C15.6284 2.80091 15.8091 2.94554 15.949 3.12597C16.9158 4.11962 16.8442 5.48028 16.6293 6.70667C16.3316 8.01608 16.1489 9.34899 16.0833 10.6902C15.3403 8.81929 14.6957 8.23742 13.6842 6.48288V6.51868Z" fill="#D1AE6F"/>
</svg>
