<svg width="240" height="552" viewBox="0 0 240 552" fill="none" xmlns="http://www.w3.org/2000/svg">
<path fill-rule="evenodd" clip-rule="evenodd" d="M0.0198791 219.59L0.0699359 313.97L0.0699367 333.55L0.0699438 495.81C0.459944 496.4 0.849954 496.53 1.32995 495.87C3.68995 492.87 6.8 504.33 2.69 502.34C-0.31 500.85 1.44994 507.56 2.81994 508.68C5.05343 510.406 7.84423 511.25 10.66 511.05C12.66 510.92 12.77 512.54 11.15 513.54C-0.410042 517.64 -3.03001 537.32 7.29999 552C3.81999 541.67 5.42994 521.75 16.0099 519.51C24.3599 517.77 24.11 512.04 17.38 509.43C5.19 504.33 -1.16005 486.17 2.19995 473.22C1.38995 474.22 0.639943 476.57 0.0699431 479.42L0.0699367 333.55C0.809937 336.35 1.60995 338.86 1.32995 347.03C1.06995 352.03 1.56997 356.24 6.91997 359.1C16.92 364.58 3.31995 383.86 14.0199 383.1C18.7399 390.46 12.77 406.1 9.53997 407.1C17 407.1 26.1 399.01 25.23 391.67C20.13 388.44 17 379.67 19.12 374.12C18.5841 379.12 20.0526 384.129 23.2037 388.049C26.3547 391.969 30.9312 394.479 35.93 395.03C42.0252 398.882 46.5244 404.805 48.6 411.71C37.03 421.54 25.71 431.49 17.23 442.44C15.6209 440.736 14.3816 438.717 13.59 436.511C12.7983 434.305 12.4715 431.959 12.63 429.62C12.6122 427.742 13.0163 425.883 13.8124 424.182C14.6086 422.481 15.7765 420.98 17.23 419.79C17.5577 420.986 18.2286 422.06 19.1598 422.879C20.091 423.699 21.2418 424.227 22.47 424.4C25.33 424.9 29.81 423.9 29.81 420.17C29.81 417.55 27.32 414.81 23.1 414.81C15.1 414.94 9.76995 421.66 9.76995 429.25C9.64606 434.984 11.6398 440.563 15.37 444.92C7.59999 455.71 1.94995 467.5 2.19995 481.19C2.31995 489.4 5.19997 497.11 10.04 502.19C17.75 510.41 28.71 512.19 36.17 503.44C41.03 497.71 41.03 487.02 33.81 482.79C33.07 482.29 28.46 480.67 24.98 483.16C22.74 484.77 20.75 489.01 24.36 491.49C31.08 488.26 36.3 496.97 32.36 502.69C30.36 505.55 24.77 506.3 21.66 502.94C19.03 500.2 22.16 497.09 16.42 495.73C13.56 500.33 5.83996 493.73 6.58996 487.88C11.32 488.38 15.92 481.88 13.19 479.3C4.35 475.94 13.31 456.66 19.19 448.43C22.4016 450.76 26.1425 452.255 30.0757 452.778C34.0088 453.302 38.0105 452.839 41.72 451.43C56.9 445.7 62.13 427.43 55.78 411.49C73.78 395.82 91.59 380 99.78 360.18C106.39 361.58 113.26 362.99 118.78 365.09C133.98 371.09 150.49 387.93 150.09 405.37C149.78 425.86 143.36 448.3 112.26 450.54C92.5799 451.86 79.12 441.26 79.94 424.03C80.55 414.65 86.56 409.55 91.36 408.33C98.8 406.7 104.61 413.42 104.61 418.42C104.709 420.515 104.004 422.568 102.64 424.161C101.276 425.754 99.355 426.766 97.27 426.99C94.01 427.29 91.66 426.78 90.27 425.15C90.0631 424.975 89.8051 424.872 89.5345 424.856C89.2639 424.84 88.9955 424.913 88.7698 425.063C88.5441 425.213 88.3734 425.432 88.2832 425.688C88.193 425.944 88.1884 426.222 88.27 426.48C91.33 434.23 97.14 437.29 103.27 437.29C107.397 437.218 111.341 435.574 114.297 432.693C117.253 429.813 119 425.914 119.18 421.79C119.38 413.94 115 406.9 107.76 404.35C103.89 403.02 99.3999 403.02 94.7599 403.35C98.7452 402.248 102.925 402.039 107 402.74C117.6 404.58 121.27 415.08 124.94 424.46C126.68 429.05 135.34 433.74 139.12 430.57C142.12 427.72 140.74 422.11 139.12 418.85C133.71 407.74 118.93 397.95 104.85 398.36C98.43 398.36 92.11 400.7 86.6 404.17C89.1986 401.54 92.3282 399.495 95.78 398.17C103.84 395.62 112.6 396.85 121.17 395.31C128 394.31 131.88 391.13 133.17 384.2C133.78 380.2 131.85 375.03 126.95 373.5C124.81 372.88 123.18 372.99 123.79 375.23C125.12 379.71 118.08 384.61 113.18 385.63C97.89 388.28 74.9499 395.63 74.9499 420.5C74.7499 447.32 97.8899 454.5 112.57 454.05C141.02 453.23 158.57 430.59 159.68 408.05C160.68 387.56 142.45 364.72 114.68 359.62C112.249 359.311 109.8 359.17 107.35 359.2C104.834 359.162 102.322 359.427 99.87 359.99C104.41 348.84 105.87 336.42 102.6 322.04C101.05 315.049 98.2704 308.388 94.3899 302.37C98.2585 297.488 103.312 293.677 109.07 291.3C108.07 294.49 108.73 297.68 110.96 299.46C107.083 306.51 105.021 314.414 104.96 322.46C104.45 342.24 124.44 369.46 150.44 371.41C169.44 372.73 194.79 362.94 191.73 332.15C189.9 313.69 172.26 302.27 144.01 301.97C138.81 301.97 136.67 297.07 139.01 294.22C139.82 293.3 139.41 292.38 137.17 292.79C132.48 293.61 129.83 298.3 129.93 302.68C130.03 307.06 136.87 312.78 142.37 312.37C152.57 311.65 161.03 310.22 169.37 312.57C162.37 311.25 154.89 311.57 151.12 312.57C141.12 315.22 132.67 321.24 128.38 328.99C125.73 334.19 126.95 341.43 131.38 343.57C134.54 344.89 142.29 342.24 143.1 337.25C144.63 327.76 149.43 320.25 161.1 317.25C165.28 316.25 172.1 316.74 175.38 318.58C171.205 317.35 166.79 317.174 162.53 318.07C154.98 319.8 149.37 324.8 147.64 331.83C145.81 340.09 152.13 351.61 162.53 351.83C168.95 352.03 176.29 347.75 176.29 339.69C176.29 337.86 174.97 337.86 173.85 339.59C170.28 344.28 161.1 341.94 160.59 335.41C160.08 328.68 164.47 324.5 170.99 323.99C182.21 323.18 188.22 332.56 188.12 342.14C187.71 356.01 172.52 368.65 154.12 367.94C129.74 366.94 114.66 341.22 114.66 323.38C114.643 311.858 118.897 300.739 126.6 292.17C128.614 293.352 130.163 295.186 130.99 297.37C131.051 294.637 130.44 291.931 129.21 289.49C132.289 286.48 135.852 284.009 139.75 282.18C144.141 280.252 148.674 278.667 153.31 277.44L153.31 281.57C153.31 283.4 156.68 283.57 156.68 281.57L156.68 276.57C157.33 276.4 157.98 276.24 158.63 276.07C158.781 278.644 159.846 281.08 161.633 282.939C163.42 284.798 165.812 285.959 168.378 286.212C170.944 286.465 173.517 285.794 175.632 284.32C177.748 282.846 179.269 280.665 179.92 278.17L179.92 281.91C179.937 282.244 180.043 282.567 180.227 282.845C180.412 283.123 180.668 283.347 180.969 283.492C181.269 283.637 181.604 283.699 181.937 283.67C182.269 283.642 182.588 283.524 182.86 283.33C177.52 288.24 180.15 298.14 185.26 302.69C195.46 311.9 214.26 301.32 213.64 284.03C215.413 285.651 217.685 286.62 220.082 286.778C222.48 286.937 224.859 286.274 226.83 284.9C230.31 282.29 234.66 274.9 239.39 274.9C234.66 274.9 230.31 267.44 226.83 264.83C224.861 263.451 222.48 262.785 220.082 262.943C217.683 263.101 215.41 264.074 213.64 265.7C214.26 248.4 195.46 237.81 185.26 247.02C179.53 252.13 176.92 263.95 185.13 268.02C191.23 271.02 199.13 263.79 193.34 258.31C192.59 256.31 194.59 254.96 197.21 254.83C207.04 254.33 213.51 271.25 203.44 274.83C213.51 278.44 207.04 295.24 197.21 294.74C194.59 294.62 192.59 293.25 193.34 291.26C199.08 285.78 191.23 278.69 185.13 281.68C184.454 282.003 183.82 282.406 183.24 282.88C183.543 282.524 183.704 282.068 183.69 281.6L183.49 268.14C183.49 265.28 179.92 265.28 179.92 268.14L179.92 273.02C179.353 270.583 177.955 268.419 175.967 266.899C173.979 265.38 171.524 264.599 169.023 264.692C166.523 264.784 164.132 265.743 162.261 267.405C160.391 269.067 159.156 271.328 158.77 273.8C158.07 273.65 157.38 273.49 156.68 273.34L156.68 268.14C156.68 266.2 153.31 266.2 153.31 268.14L153.31 272.56C150.129 271.823 146.996 270.892 143.93 269.77C138.941 267.728 134.291 264.939 130.14 261.5C130.523 260.21 130.788 258.888 130.93 257.55C132.009 259.396 133.739 260.773 135.78 261.41C137.92 262.02 139.55 261.92 138.94 259.68C137.61 255.19 144.65 250.29 149.54 249.27C164.83 246.62 187.78 239.27 187.78 214.4C187.98 187.59 164.78 180.45 150.15 180.86C143.038 181.017 136.045 182.724 129.66 185.86C148.66 176.8 160.37 158.79 159.55 142.29C158.43 119.76 140.89 97.1199 112.44 96.2899C97.76 95.8799 74.6199 103.02 74.8199 129.83C74.8199 154.71 97.76 162.05 113.05 164.7C117.95 165.7 124.99 170.62 123.66 175.1C123.05 177.35 124.66 177.45 126.82 176.84C131.72 175.31 133.65 170.11 133.04 166.13C131.72 159.2 127.84 156.04 121.04 155.02C112.47 153.49 103.71 154.71 95.6499 152.16C92.1998 150.832 89.0709 148.787 86.47 146.16C91.98 149.62 98.3 151.97 104.72 151.97C118.8 152.38 133.58 142.59 138.99 131.47C140.61 128.21 141.99 122.61 138.99 119.75C135.21 116.59 126.55 121.28 124.81 125.86C121.14 135.25 117.47 145.75 106.87 147.58C102.795 148.286 98.6145 148.077 94.63 146.97C99.22 147.28 103.71 147.28 107.63 145.97C114.87 143.42 119.25 136.39 119.05 128.54C118.875 124.415 117.13 120.512 114.172 117.631C111.215 114.75 107.268 113.108 103.14 113.04C97.0199 113.04 91.2099 116.1 88.1399 123.85C88.0618 124.108 88.069 124.384 88.1605 124.637C88.252 124.891 88.4228 125.108 88.6476 125.256C88.8724 125.404 89.1392 125.476 89.4081 125.461C89.677 125.445 89.9337 125.343 90.1399 125.17C91.5699 123.54 93.9199 123.03 97.1399 123.34C99.2241 123.562 101.145 124.572 102.509 126.163C103.873 127.754 104.578 129.806 104.48 131.9C104.48 136.9 98.67 143.63 91.23 142C86.43 140.77 80.42 135.67 79.81 126.29C78.99 109.06 92.45 98.4599 112.13 99.7799C143.23 102.03 149.65 124.46 149.96 144.96C150.36 162.39 133.85 179.21 118.65 185.23C113.04 187.37 106.01 188.8 99.28 190.23C101.891 190.905 104.584 191.215 107.28 191.15C109.73 191.175 112.178 191.038 114.61 190.74C119.801 189.788 124.844 188.157 129.61 185.89C123.365 189.062 117.88 193.549 113.534 199.041C109.187 204.534 106.081 210.903 104.43 217.71C105.73 184.8 80.8899 162.64 55.8399 140.8C62.3099 124.88 56.9499 106.57 41.8999 100.8C38.1683 99.3934 34.1467 98.9312 30.1933 99.4546C26.2398 99.978 22.4771 101.471 19.24 103.8C13.52 95.5899 4.43993 76.2999 13.3899 72.9399C16.0099 70.3299 11.39 63.8599 6.79997 64.3599C6.04997 58.5099 13.64 51.9099 16.63 56.5199C22.37 55.1499 19.24 52.0399 21.87 49.2999C24.87 45.9399 30.4599 46.6899 32.4499 49.5499C36.4499 55.2699 31.1999 63.9799 24.4499 60.7499C20.8499 63.2299 22.9599 67.4699 25.1999 69.0799C28.5599 71.5699 33.1999 69.9499 33.9099 69.4599C41.1299 65.2299 41.1299 54.5299 36.3999 48.7999C28.8099 40.0799 17.97 41.7999 10.25 50.0499C5.10837 55.8381 2.26277 63.3079 2.24998 71.05C2.12998 84.74 7.72998 96.5599 15.44 107.26C11.7167 111.629 9.72425 117.211 9.83994 122.95C9.83994 130.54 15.19 137.26 23.17 137.38C27.4 137.38 30.0099 134.65 30.0099 132.04C30.0099 128.3 25.53 127.3 22.55 127.8C21.336 128.01 20.2038 128.551 19.2789 129.365C18.354 130.179 17.6725 131.233 17.31 132.41C15.8785 131.201 14.7253 129.696 13.9296 127.999C13.1339 126.303 12.7144 124.454 12.6999 122.58C12.5414 120.239 12.8691 117.891 13.6625 115.683C14.4559 113.475 15.6978 111.455 17.31 109.75C25.91 120.75 37.23 130.67 48.67 140.49C46.6697 147.436 42.1477 153.385 35.99 157.17C25.41 158.54 17.93 167.99 19.3 178.07C17.06 172.47 20.3 163.76 25.3 160.53C26.3 153.31 17.2 145.1 9.73997 145.1C12.97 146.22 18.9399 161.77 14.22 169.1C3.38995 168.36 16.95 187.66 7.12999 193.1C1.64999 196.1 1.12995 200.19 1.39995 205.17C1.78995 214.23 0.809879 216.33 0.0198791 219.59L0.0199083 145.905L0.0199375 72.2199C0.589938 75.3699 1.39994 78.0399 2.26994 79.0999C-1.09006 66.1599 5.26993 47.9898 17.5799 42.8898C24.1799 40.2598 24.4299 34.5399 16.0799 32.7999C5.62993 30.5599 4.00997 10.7998 7.36997 0.449829C-2.83003 14.9998 -0.340031 34.6598 11.37 38.7698C12.98 39.8898 12.86 41.3798 10.87 41.3798C8.01034 41.0577 5.13836 41.8691 2.86997 43.6398C1.49997 44.7598 -0.240022 51.4799 2.74998 49.9799C6.97998 48.1199 3.74998 59.4399 1.49998 56.4499C0.929978 55.7599 0.499978 56.0399 -2.16341e-05 57.0699L0.0199375 72.2199L0.0199083 145.905L0.0198791 219.59ZM53.74 419.96C53.86 421.491 53.86 423.029 53.74 424.56C53.62 424.07 53.37 423.69 53.12 423.69C52.9161 423.707 52.719 423.772 52.5452 423.879C52.3713 423.987 52.2256 424.135 52.12 424.31C52.2883 422.823 52.3318 421.324 52.25 419.83C52.5 420.46 52.87 420.95 53.12 420.95C53.37 420.95 53.6 420.58 53.72 419.96L53.74 419.96ZM44.29 436.01C42.29 438.37 40.1799 439.74 36.8199 439.12C34.6999 438.75 34.3299 442.12 36.4499 442.6C33.4499 444.6 29.85 443.72 29.23 441.98C24.63 441.98 26.62 447.58 32.34 447.21C39.43 446.83 45.16 441.98 48.52 435.88C49.7969 433.53 50.7586 431.022 51.38 428.42C51.5 429.04 51.87 429.54 52.12 429.54C52.37 429.54 52.87 429.29 53.24 428.79C51.5 436.5 46.9 443.1 39.56 446.33C36.6709 447.665 33.5058 448.294 30.3257 448.165C27.1457 448.037 24.0418 447.154 21.27 445.59C29.0999 435.39 39.18 426.06 49.64 416.85L49.64 417.1C50.36 424.31 48.25 431.4 44.27 436.01L44.29 436.01ZM53.6 418.21C53.35 417.59 52.98 417.34 52.73 417.34C52.48 417.34 52.23 417.71 52.1 418.34C51.9955 417.212 51.832 416.091 51.61 414.98L52.73 414.11C53.1 415.48 53.35 416.85 53.6 418.21ZM53.97 132.36C53.9028 131.958 53.68 131.599 53.35 131.36C52.98 131.36 52.6 131.86 52.35 132.48C52.5002 130.988 52.4598 129.482 52.23 128C52.6 128.37 52.98 128.75 53.23 128.62C53.48 128.49 53.85 128.25 53.98 127.75C54.1072 129.284 54.1038 130.826 53.97 132.36ZM21.37 106.71C24.1528 105.179 27.253 104.314 30.4267 104.184C33.6004 104.053 36.7611 104.661 39.6599 105.96C47 109.2 51.73 115.81 53.35 123.52C53.2712 123.313 53.1355 123.133 52.9585 123C52.7815 122.867 52.5705 122.788 52.35 122.77C51.98 122.77 51.73 123.27 51.61 123.89C50.9896 121.287 50.0245 118.778 48.74 116.43C45.39 110.32 39.5399 105.43 32.5699 105.09C26.8499 104.84 24.7299 110.32 29.3399 110.32C30.0799 108.57 33.69 107.7 36.68 109.69C34.44 110.19 34.81 113.57 37.05 113.19C40.28 112.57 42.3999 113.94 44.3899 116.3C48.3899 120.91 50.61 128 49.86 135.3L49.86 135.55C39.29 126.27 29.21 116.94 21.37 106.71ZM51.85 137.33C51.98 136.21 52.23 135.09 52.35 134.1C52.35 134.59 52.6 134.97 52.85 134.97C53.1 134.97 53.47 134.72 53.72 134.1C53.47 135.46 53.22 136.83 52.85 138.2L51.85 137.33ZM0.0699325 237.21C3.70993 255.86 18.55 271.01 35.93 275.21C35.8292 275.872 35.7891 276.541 35.81 277.21C18.88 281.33 4.12994 295.87 0.0699359 313.97L0.0699325 237.21ZM50.36 410.21C48.3635 404.041 44.3295 398.734 38.92 395.16C45.64 398.16 49.74 406.48 51.11 409.59L50.36 410.21ZM98.28 348.48C97.9062 350.768 97.3238 353.018 96.54 355.2C96.54 353.83 96.16 352.84 95.29 352.46C94.42 352.08 93.42 352.46 92.29 353.34C93.4279 351.241 94.3429 349.029 95.0199 346.74C95.0199 348.24 95.6399 349.48 96.3899 349.6C96.7787 349.643 97.171 349.561 97.5106 349.367C97.8502 349.173 98.1195 348.877 98.28 348.52L98.28 348.48ZM99.4 336.42C99.4813 338.327 99.4412 340.238 99.28 342.14C99.1916 341.904 99.0389 341.697 98.8392 341.544C98.6395 341.39 98.4007 341.295 98.15 341.27C97.53 341.02 96.79 341.64 96.15 342.51C96.3688 341.61 96.5358 340.699 96.65 339.78C96.8918 338.339 97.0155 336.881 97.0199 335.42C97.2699 336.42 97.8999 337.16 98.5199 337.16C98.8999 337.2 99.15 336.83 99.4 336.46L99.4 336.42ZM97.66 322.85C98.3936 325.667 98.892 328.54 99.15 331.44C99.0562 331.331 98.9415 331.242 98.8126 331.179C98.6838 331.115 98.5434 331.078 98.4 331.07C97.91 331.07 97.53 331.56 97.28 332.31C97.4655 324.354 95.8663 316.457 92.6 309.2C94.9155 313.506 96.6186 318.113 97.66 322.89L97.66 322.85ZM92.06 342.85C88.57 353.17 81.06 359.77 74.88 358.85C77.11 361.22 74.63 364.46 79.6 363.96C83.6 363.58 86.95 361.22 89.6 357.74C88.73 360.35 88.98 362.74 90.22 363.34C91.22 363.83 92.7099 363.09 93.9499 361.47C85.9499 378.89 70.05 393.21 53.75 407.15C51.1092 402.323 47.4598 398.121 43.05 394.83C45.2508 394.634 47.3653 393.88 49.1937 392.639C51.0222 391.399 52.5042 389.712 53.5 387.74C50.02 389.48 49.4 387.61 47.03 388.85C44.66 390.09 44.42 387.74 41.19 387.12C42.55 382.74 40.4399 380.12 36.8299 380.38C32.3499 380.63 27.7499 379.51 25.0099 375.53C29.3699 379.88 33.72 379.88 35.59 379.63C36.6077 378.18 38.145 377.178 39.8824 376.831C41.6199 376.485 43.4239 376.821 44.92 377.77C50.92 381.77 56.74 380.63 60.97 376.77C66.44 371.67 64.2 366.57 67.06 360.72C41.93 379.88 11.5599 366.72 6.69994 345.54C12.9299 361.1 25.76 367.94 42.8 367.94C57.48 367.94 71.54 357.37 75.53 342.06C77.53 334.34 82.12 319.67 90.1 307.7C94.67 317.16 96.66 329.11 92.06 342.93L92.06 342.85ZM87.6 303.47C82.8096 311.264 78.9212 319.577 76.0099 328.25C77.3845 318.498 80.7291 309.128 85.84 300.71C86.499 301.582 87.0875 302.505 87.6 303.47ZM73.6 318.78C73.2428 317.444 72.8122 316.129 72.31 314.84C72.25 312.07 72.51 302.84 77.94 295.63C76.58 294.89 73.71 294.26 71.1 298.74C70.6 296.74 68.74 295.38 65.87 294.74C63 294.1 62.1399 290.51 62.1399 290.51C59.1399 294.74 61.14 300.59 65.25 302.08C64.0607 301.676 62.7752 301.651 61.5713 302.009C60.3675 302.368 59.3047 303.091 58.53 304.08C66.29 306.2 70.53 312.47 71.87 314.78C72.2308 316.129 72.4948 317.503 72.66 318.89C67.48 309.27 57.6599 304.21 49.4499 304.21C37.5099 304.21 29.92 312.67 29.92 321.39C29.92 326.87 33.52 334.95 40.37 335.7C41.999 335.9 43.6517 335.646 45.1449 334.964C46.6381 334.283 47.9136 333.202 48.83 331.84C49.8821 330.232 50.3113 328.295 50.037 326.393C49.7626 324.491 48.8037 322.755 47.34 321.51C43.85 319.15 38.5 325.37 38.13 320.4C37.26 311.4 47.59 309.06 54.13 310.55C63.13 312.67 70.8 321.39 70.93 334.83C71.18 350.38 55 366.06 41.81 362.08C39.57 361.45 38.33 359.84 35.72 359.08C30.37 357.59 29.12 361.32 26.72 359.45C22.86 356.09 25.4699 351.24 28.3299 351.86C33.6799 353.11 42.15 351.49 41.65 343.28C38.29 345.15 35.43 344.15 32.94 343.03C32.0931 342.595 31.1398 342.412 30.1921 342.5C29.2444 342.589 28.3416 342.946 27.59 343.53C28.33 340.42 27.96 338.93 24.48 338.93C22.36 338.93 20.62 340.79 17.99 340.93C13.89 340.93 15.6299 336.45 11.5199 335.7C12.6399 327.99 6.91997 330.6 6.91997 326.87C6.91997 325.12 11.1499 326.99 11.1499 321.87C11.1843 321.176 11.0203 320.486 10.6772 319.882C10.3341 319.278 9.82611 318.784 9.21251 318.457C8.59891 318.131 7.90512 317.986 7.21227 318.04C6.51942 318.094 5.85613 318.343 5.29998 318.76C7.59998 301.36 21 285.93 36.6 281.95C38.22 286.55 41.83 289.78 46.06 289.78C50.29 289.78 53.7699 286.55 55.3899 281.95C63.4997 283.562 71.1483 286.961 77.78 291.9C78.53 292.52 79.28 293.27 80.03 294.01C75.71 301.5 73.8 310.38 73.6 318.78ZM115.03 270.78C119.45 270.84 123.79 270.12 126.84 267.17C133.301 271.226 140.475 274.012 147.98 275.38C139.675 276.876 131.755 280.025 124.69 284.64C121.974 282.963 118.878 282.004 115.69 281.85C104.69 281.23 97.15 290.06 91.18 298.15C90.55 297.28 89.93 296.53 89.18 295.66C93.4 289.94 97.01 286.21 102.12 283.59C104.23 282.47 104.12 279.11 101.5 280.59C99 281.71 97.6399 279.59 95.7699 279.97C89.2999 281.21 84.07 288.3 82.94 289.67C75.2222 283.274 66.026 278.911 56.19 276.98L56.19 275.48C66.1402 273.598 75.4385 269.186 83.19 262.67C84.32 264.16 89.5499 271.26 96.0199 272.5C97.7599 272.87 99.13 270.76 101.62 271.88C104.36 273.37 104.36 270.01 102.36 268.88C97.14 266.27 93.65 262.41 89.3 256.69L91.42 254.2C97.4 262.29 104.38 270.5 115.07 270.71L115.03 270.78ZM94.38 250C98.3726 244.026 101.202 237.353 102.72 230.33C102.82 229.88 102.89 229.45 102.98 229C103.08 237 106.06 245.32 111.33 252.68C108.87 254.4 107.98 257.73 109.06 261.07C103.334 258.642 98.3032 254.828 94.42 249.97L94.38 250ZM85.92 251.62C80.8484 243.204 77.5414 233.844 76.1999 224.11C79.0329 232.808 82.9255 241.123 87.79 248.87C87.21 249.84 86.5999 250.71 85.9599 251.59L85.92 251.62ZM99.36 220.62C99.02 223.644 98.5227 226.648 97.87 229.62C96.8018 234.372 95.0395 238.941 92.6399 243.18C95.9327 236.05 97.5475 228.261 97.36 220.41C97.62 220.91 97.99 221.28 98.36 221.28C98.5781 221.264 98.7884 221.192 98.9706 221.072C99.1528 220.951 99.3007 220.785 99.3999 220.59L99.36 220.62ZM150.43 184.42C170.11 183.1 183.57 193.7 182.75 210.94C182.14 220.31 176.12 225.41 171.33 226.64C163.89 228.27 158.08 221.54 158.08 216.54C157.981 214.446 158.686 212.394 160.051 210.803C161.415 209.212 163.336 208.202 165.42 207.98C168.68 207.67 171.02 208.18 172.42 209.81C172.624 209.992 172.883 210.101 173.155 210.12C173.428 210.14 173.699 210.069 173.927 209.918C174.155 209.768 174.327 209.546 174.416 209.288C174.505 209.03 174.507 208.749 174.42 208.49C171.36 200.74 165.55 197.68 159.42 197.68C155.312 197.77 151.392 199.418 148.455 202.291C145.517 205.163 143.782 209.045 143.6 213.15C143.39 221 147.78 228.03 155.02 230.58C158.89 231.91 163.38 231.91 167.97 231.58C163.986 232.692 159.805 232.9 155.73 232.19C145.13 230.36 141.46 219.86 137.78 210.48C136.05 205.89 127.39 201.2 123.61 204.36C120.66 207.21 121.98 212.82 123.61 216.09C129.02 227.2 143.8 236.99 157.87 236.58C164.3 236.58 170.62 234.23 176.12 230.77C173.521 233.395 170.396 235.44 166.95 236.77C158.89 239.32 150.12 238.1 141.56 239.63C134.73 240.63 130.85 243.81 129.56 250.74C129.314 252.488 129.514 254.27 130.14 255.92C129.471 257.181 128.6 258.323 127.56 259.3C118.9 251.3 112.38 240.56 112.64 229.53C112.95 209.07 119.37 186.64 150.47 184.39L150.43 184.42ZM99.61 216.27C99.36 215.64 98.86 215.15 98.49 215.15C98.12 215.15 97.49 215.64 97.24 216.39C97.12 215.15 96.99 213.9 96.75 212.53C96.7359 211.729 96.608 210.935 96.37 210.17C96.99 210.92 97.62 211.29 98.11 211.04C98.74 211.04 99.11 210.42 99.36 209.67C99.52 211.88 99.6499 214 99.6499 216.24L99.61 216.27ZM98.49 204.2C98.33 203.765 98.0417 203.388 97.6631 203.12C97.2846 202.853 96.8337 202.706 96.37 202.7C95.62 202.83 95.13 203.83 95 205.07C94.3949 203.052 93.6048 201.093 92.6399 199.22C93.6399 199.97 94.5 200.22 95.25 199.84C96.25 199.47 96.62 198.1 96.37 196.48C97.3313 198.969 98.0545 201.544 98.53 204.17L98.49 204.2ZM50.6 142.07L51.22 142.81C49.98 145.93 45.7499 154.14 39.0299 157.12C44.4436 153.52 48.5122 148.227 50.6 142.07ZM67.1499 191.48C64.4099 185.63 66.52 180.53 61.05 175.54C56.94 171.54 51.05 170.44 45 174.42C43.5035 175.37 41.6978 175.706 39.9595 175.358C38.2213 175.01 36.6846 174.004 35.67 172.55C33.8 172.3 29.4499 172.3 25.0899 176.66C27.9599 172.66 32.44 171.56 36.92 171.93C40.52 172.18 42.7599 169.44 41.2699 165.09C44.5099 164.46 44.9999 162.09 47.2699 163.34C49.5399 164.59 50.27 162.72 53.62 164.59C51 159.59 47.02 157.99 43.17 157.37C47.6426 154.117 51.3381 149.913 53.99 145.06C70.41 159.12 86.48 173.55 94.44 191.23C93.08 189.36 91.3299 188.37 90.2099 188.99C89.0899 189.61 88.7199 191.6 89.4599 194.09C86.8499 190.86 83.73 188.62 79.87 188.24C74.77 187.75 77.3799 191.11 75.1399 193.34C81.3599 192.47 88.7199 199.07 92.1999 209.39C96.8099 223.2 94.82 235.15 90.34 244.48C82.23 232.54 77.7499 217.85 75.7599 210.14C71.7599 194.84 57.6 184.26 42.92 184.26C25.92 184.26 13.0399 191.11 6.81993 206.66C11.6499 185.51 42.02 172.3 67.16 191.48L67.1499 191.48ZM11.8999 216.61C15.8999 215.86 14.14 211.38 18.25 211.51C20.88 211.51 22.62 213.38 24.73 213.38C28.34 213.38 28.5899 211.88 27.8399 208.77C28.6012 209.329 29.4948 209.68 30.4328 209.789C31.3709 209.897 32.3211 209.76 33.19 209.39C35.81 208.15 38.67 207.15 41.9 209.02C42.52 200.81 34.0599 199.19 28.7099 200.44C25.8499 201.06 23.12 196.2 27.1 192.97C29.34 190.97 30.58 194.71 35.93 193.22C38.54 192.47 39.93 190.86 42.15 190.22C55.34 186.22 71.3899 201.92 71.2699 217.6C71.0199 230.91 63.43 239.6 54.34 241.73C47.75 243.35 37.4199 240.86 38.3399 231.9C38.7199 226.9 44.07 233.15 47.55 230.78C50.78 228.42 51.16 223.57 49.17 220.46C48.2172 219.104 46.9166 218.03 45.405 217.351C43.8933 216.671 42.2265 216.412 40.5799 216.6C33.7399 217.35 30.13 225.6 30.13 230.91C30.13 239.62 37.72 248.08 49.67 248.08C57.87 248.08 67.46 243.14 72.78 233.76C72.609 235.155 72.3349 236.535 71.9599 237.89C70.6199 240.2 66.37 246.44 58.62 248.45C59.372 249.469 60.4271 250.223 61.6341 250.606C62.8412 250.989 64.1384 250.979 65.34 250.58C61.24 251.95 59.25 257.8 62.23 262.15C62.23 262.15 63.0999 258.54 65.9599 257.92C68.8199 257.3 70.69 255.81 71.19 253.82C73.8 258.3 76.67 257.67 78.03 256.93C72.56 249.65 72.3399 240.43 72.3999 237.76C73.0141 236.205 73.5252 234.612 73.93 232.99C74 241.54 75.7999 250.65 80.2699 258.3C79.5299 259.04 78.66 259.79 77.91 260.41C71.2951 265.403 63.6436 268.848 55.5199 270.49C53.8899 265.76 50.29 262.49 46.18 262.49C42.07 262.49 38.47 265.72 36.85 270.49C21.3 266.38 7.84997 250.95 5.60997 233.49C6.17353 233.918 6.84699 234.178 7.55211 234.238C8.25723 234.299 8.96504 234.158 9.59337 233.832C10.2217 233.507 10.7448 233.009 11.1017 232.398C11.4587 231.787 11.6349 231.087 11.61 230.38C11.61 225.28 7.37999 227.15 7.37999 225.38C7.29999 221.71 12.8999 224.32 11.8999 216.61Z" fill="#D1AE6F"/>
</svg>
