<svg width="15" height="10" viewBox="0 0 15 10" fill="none" xmlns="http://www.w3.org/2000/svg">
<path d="M7.59702 4.5217C7.47816 4.69752 7.39846 4.89682 7.36334 5.10612C7.32821 5.31542 7.33847 5.52982 7.39342 5.73481C7.45785 5.96885 7.57813 6.18376 7.74392 6.36107C7.90971 6.53839 8.11606 6.67281 8.34525 6.7528C8.589 6.83944 8.84933 6.8692 9.10634 6.83979C9.36336 6.81038 9.61024 6.72259 9.82812 6.58314C10.2254 6.3098 10.5014 5.8933 10.5984 5.42093C10.8275 4.37749 10.2082 3.37476 9.32422 2.85729C8.39615 2.31436 7.18813 2.26855 6.17183 2.56546C5.7222 2.69321 5.30238 2.90889 4.93667 3.20001C4.51109 3.55534 4.1743 4.00508 3.9531 4.51346C3.73189 5.02185 3.63238 5.57483 3.66248 6.12843C3.7084 6.83735 3.94589 7.52051 4.34963 8.10504C4.76993 8.69391 5.32796 9.17097 5.97502 9.4946C6.95296 9.95673 8.05799 10.0763 9.11213 9.83393C10.1009 9.60287 11.014 9.12211 11.764 8.43758C11.8556 8.35784 11.9337 8.26792 12.0287 8.18817C11.2373 8.69099 10.3527 9.02914 9.42771 9.18241C8.37918 9.33341 7.23224 9.16884 6.34319 8.56483C5.3252 7.86581 4.60073 6.53733 5.02998 5.29538C5.12868 4.9897 5.28409 4.70536 5.48808 4.45723C5.79176 4.11851 6.18631 3.87413 6.62484 3.75312C7.53085 3.48165 8.71342 3.52068 9.39378 4.26211C9.56489 4.43822 9.68434 4.65794 9.7391 4.8973C9.79385 5.13666 9.7818 5.38646 9.70427 5.61944C9.63298 5.82123 9.50194 5.99652 9.32857 6.122C9.1552 6.24748 8.94774 6.31719 8.73378 6.32185C8.53052 6.33243 8.32811 6.28864 8.1474 6.195C7.96668 6.10137 7.81419 5.96126 7.70561 5.7891C7.58972 5.60103 7.51952 5.38841 7.50067 5.16831C7.48181 4.94821 7.51481 4.72675 7.59702 4.5217Z" fill="#EBBF7C"/>
<path fill-rule="evenodd" clip-rule="evenodd" d="M6.64305 7.22442C7.29966 8.31706 8.60608 8.71917 9.81749 8.58174C9.06862 8.77083 8.28513 8.77607 7.53379 8.59701C7.12607 8.49821 6.74372 8.31465 6.41164 8.05828C6.07956 7.80191 5.80519 7.47848 5.6064 7.10905C5.38779 6.65728 5.32801 6.14497 5.43673 5.65501C5.48797 5.41572 5.58411 5.18831 5.72007 4.98484C5.83544 4.81517 6.02886 4.5963 6.24773 4.57255C6.49884 4.5454 6.35462 4.96448 6.33087 5.08155C6.28313 5.30032 6.25474 5.52288 6.24603 5.74663C6.23554 6.26654 6.37515 6.77844 6.64814 7.22103C6.73128 7.37203 6.46999 6.93938 6.64305 7.22442Z" fill="#EBBF7C"/>
<path fill-rule="evenodd" clip-rule="evenodd" d="M1.48033 7.43149C2.26249 7.18548 3.06501 7.54347 3.65205 8.05756C4.23909 8.57165 4.76675 9.24522 5.51837 9.54213L5.42675 9.52177C4.44439 9.2011 3.7301 8.31545 2.71211 8.0881C2.24044 7.97951 1.65 8.06265 1.42095 8.5462C1.365 8.64374 1.34441 8.75759 1.36265 8.86855C1.38088 8.97951 1.43683 9.08079 1.52105 9.15529C1.60502 9.2238 1.70588 9.26846 1.81305 9.28458C1.92021 9.3007 2.02974 9.28769 2.13015 9.24691C2.25231 9.20619 2.58316 8.97714 2.59334 9.24691C2.58482 9.36104 2.54968 9.47159 2.49076 9.5697C2.43183 9.66781 2.35075 9.75076 2.25401 9.8119C2.05889 9.9423 1.82764 10.0079 1.59312 9.99937C1.35859 9.99084 1.13272 9.90862 0.947585 9.76439C0.746156 9.61202 0.596668 9.40119 0.519538 9.16069C0.442407 8.92019 0.441394 8.66174 0.516635 8.42064C0.585754 8.19036 0.709466 7.98017 0.87725 7.80795C1.04503 7.63574 1.25193 7.50659 1.48033 7.43149C1.62455 7.38568 1.4447 7.44337 1.48033 7.43149Z" fill="#EBBF7C"/>
<path fill-rule="evenodd" clip-rule="evenodd" d="M2.95125 6.65601C3.10405 6.94901 3.30606 7.21358 3.54847 7.43816C3.31433 7.29734 3.08359 7.15313 2.86981 6.99194C2.19624 6.51349 1.53454 5.85688 1.51758 4.97971C1.51758 4.7846 1.54303 4.47072 1.73645 4.36552C1.92986 4.26033 2.13686 4.55385 2.2183 4.70485C2.38358 5.03354 2.51545 5.37799 2.61192 5.73303C2.69392 6.05125 2.8076 6.36045 2.95125 6.65601Z" fill="#EBBF7C"/>
<path fill-rule="evenodd" clip-rule="evenodd" d="M1.22766 6.03175C1.6338 6.32764 2.01512 6.65618 2.36781 7.01411C2.07035 6.88647 1.75143 6.81624 1.42786 6.80712C1.07157 6.78676 0.713571 6.819 0.381027 6.66121C0.297635 6.62882 0.221612 6.57999 0.157486 6.51761C0.0933602 6.45523 0.0424417 6.38059 0.00776312 6.29812C-0.00934904 6.22135 0.0020435 6.14098 0.0398162 6.07199C0.0775888 6.003 0.139163 5.95011 0.213058 5.92316C0.378977 5.85724 0.558522 5.83298 0.735987 5.8525C0.913451 5.87202 1.08343 5.93473 1.23105 6.03514C1.29722 6.07756 1.09532 5.94861 1.22766 6.03175Z" fill="#EBBF7C"/>
<path fill-rule="evenodd" clip-rule="evenodd" d="M14.1038 1.84092C14.0638 2.32387 13.8374 2.77229 13.4727 3.09136C13.0789 3.43534 12.577 3.63045 12.0543 3.64277C11.5407 3.64727 11.0341 3.52426 10.5799 3.28478C9.67216 2.83007 8.81874 2.00719 7.72949 2.11578C8.64908 1.96478 9.47874 2.49244 10.2745 2.85213C10.6917 3.0598 11.1476 3.17826 11.6131 3.19994C12.055 3.21625 12.4882 3.07425 12.8347 2.79953C13.0101 2.66462 13.1448 2.48395 13.2242 2.27741C13.3035 2.07087 13.3243 1.84645 13.2843 1.62884C13.2384 1.43906 13.1389 1.2665 12.9976 1.13172C12.843 1.00988 12.6572 0.934032 12.4615 0.912852C12.2119 0.862702 11.9531 0.886283 11.7166 0.980719C11.6184 1.0342 11.5355 1.1121 11.4761 1.20689C11.4166 1.30169 11.3826 1.41019 11.3773 1.52195C11.3752 1.64228 11.4025 1.76131 11.4569 1.86865C11.5113 1.976 11.5912 2.06841 11.6895 2.13784C11.7866 2.21046 11.8913 2.27246 12.0017 2.32277C12.0475 2.34313 12.134 2.37367 12.1425 2.43136C12.1645 2.57388 11.8371 2.60102 11.7557 2.60102C11.5604 2.5956 11.3703 2.53693 11.2059 2.43136C11.0407 2.32738 10.9033 2.18463 10.8057 2.0155C10.7081 1.84638 10.6533 1.65599 10.646 1.46087C10.6389 1.24787 10.6811 1.03609 10.7694 0.842113C10.8577 0.64814 10.9897 0.477235 11.155 0.342777C11.5453 0.0204126 12.0865 -0.0389705 12.5633 0.0204124C12.9966 0.0641284 13.3985 0.266574 13.6915 0.588791C13.8378 0.759806 13.9488 0.957969 14.0184 1.17195C14.088 1.38593 14.1147 1.61152 14.097 1.83583C14.0902 2.07506 14.114 1.72555 14.1038 1.84092Z" fill="#EBBF7C"/>
<path fill-rule="evenodd" clip-rule="evenodd" d="M10.9531 5.41409C11.0458 5.17004 11.0843 4.90879 11.0662 4.64837C11.048 4.38795 10.9735 4.13458 10.8479 3.90576C11.4095 4.45039 11.9863 5.32077 11.6759 6.13347C11.6062 6.32981 11.4798 6.50106 11.3128 6.6255C11.1669 6.7239 10.9565 6.76123 10.8564 6.58308C10.7805 6.39207 10.7657 6.18224 10.814 5.98247C10.8457 5.78972 10.8922 5.5997 10.9531 5.41409C11.0006 5.28005 10.948 5.43105 10.9531 5.41409Z" fill="#EBBF7C"/>
<path fill-rule="evenodd" clip-rule="evenodd" d="M12.2473 4.57602C12.0974 4.39948 11.9133 4.25518 11.7061 4.15186C12.3847 4.26892 13.3094 4.41314 13.6233 5.13083C13.7049 5.29423 13.7247 5.48159 13.6793 5.65849C13.6651 5.70167 13.6416 5.74116 13.6103 5.77408C13.5789 5.80699 13.5407 5.83251 13.4983 5.84876C13.4558 5.86502 13.4103 5.8716 13.365 5.86804C13.3197 5.86447 13.2758 5.85084 13.2364 5.82815C12.9589 5.68207 12.7389 5.4465 12.6121 5.15967C12.5112 4.95291 12.3889 4.75729 12.2473 4.57602Z" fill="#EBBF7C"/>
</svg>
