<svg width="26" height="34" viewBox="0 0 26 34" fill="none" xmlns="http://www.w3.org/2000/svg">
<g clip-path="url(#clip0_146_2850)">
<path d="M18.3418 0.000246982C19.3006 0.000352501 20.2366 0.292594 21.0251 0.838033C21.8136 1.38347 22.4172 2.15622 22.7554 3.05333C23.0937 3.95044 23.1506 4.92932 22.9185 5.85958C22.6865 6.78984 22.1765 7.6273 21.4565 8.26042L15.8647 13.1965C15.3627 13.6392 14.9607 14.1836 14.6853 14.7937C14.4099 15.4037 14.2675 16.0653 14.2675 16.7346C14.2675 17.4039 14.4099 18.0656 14.6853 18.6756C14.9607 19.2856 15.3627 19.83 15.8647 20.2727L21.4565 25.2088C22.1765 25.8419 22.6865 26.6794 22.9185 27.6097C23.1506 28.5399 23.0937 29.5188 22.7554 30.4159C22.4172 31.313 21.8136 32.0858 21.0251 32.6312C20.2366 33.1767 19.3006 33.4689 18.3418 33.469C17.1907 33.4703 16.0792 33.049 15.2181 32.2851L1.55737 20.2727C1.0567 19.8292 0.655844 19.2845 0.381319 18.6746C0.106793 18.0647 -0.0351562 17.4035 -0.0351562 16.7346C-0.0351562 16.0658 0.106793 15.4045 0.381319 14.7946C0.655844 14.1847 1.0567 13.64 1.55737 13.1965L15.2181 1.18418C16.0792 0.420267 17.1907 -0.00101829 18.3418 0.000246982V0.000246982Z" fill="#1E1E1E"/>
<path d="M22.4216 19.7627C24.1317 19.7627 25.5181 18.3764 25.5181 16.6663C25.5181 14.9561 24.1317 13.5698 22.4216 13.5698C20.7115 13.5698 19.3252 14.9561 19.3252 16.6663C19.3252 18.3764 20.7115 19.7627 22.4216 19.7627Z" fill="#1E1E1E"/>
</g>
<defs>
<clipPath id="clip0_146_2850">
<rect width="25.5182" height="33.4596" fill="white" transform="translate(0 0.000244141)"/>
</clipPath>
</defs>
</svg>
