<svg width="26" height="34" viewBox="0 0 26 34" fill="none" xmlns="http://www.w3.org/2000/svg">
<g clip-path="url(#clip0_146_2854)">
<path d="M7.17673 33.4597C6.21796 33.4596 5.282 33.1674 4.4935 32.6219C3.705 32.0765 3.10139 31.3037 2.76312 30.4066C2.42485 29.5095 2.36797 28.5306 2.60003 27.6004C2.83209 26.6701 3.3421 25.8327 4.0621 25.1995L9.65387 20.2635C10.1558 19.8208 10.5579 19.2763 10.8333 18.6663C11.1086 18.0563 11.251 17.3946 11.251 16.7253C11.251 16.056 11.1086 15.3944 10.8333 14.7844C10.5579 14.1744 10.1558 13.6299 9.65387 13.1872L4.0621 8.25115C3.3421 7.61803 2.83209 6.78055 2.60003 5.85029C2.36797 4.92003 2.42485 3.94115 2.76312 3.04404C3.10139 2.14693 3.705 1.37419 4.4935 0.828747C5.282 0.28331 6.21796 -0.00893402 7.17673 -0.00903702C8.32784 -0.0103035 9.43937 0.41098 10.3005 1.17489L23.9612 13.1872C24.4619 13.6307 24.8627 14.1754 25.1372 14.7853C25.4118 15.3952 25.5537 16.0565 25.5537 16.7253C25.5537 17.3942 25.4118 18.0554 25.1372 18.6653C24.8627 19.2753 24.4619 19.82 23.9612 20.2635L10.3005 32.2758C9.43937 33.0397 8.32784 33.461 7.17673 33.4597Z" fill="#1E1E1E"/>
<path d="M3.09693 13.6973C1.38682 13.6973 0.000501156 15.0836 0.000501156 16.7937C0.000501156 18.5038 1.38682 19.8901 3.09693 19.8901C4.80704 19.8901 6.19336 18.5038 6.19336 16.7937C6.19336 15.0836 4.80704 13.6973 3.09693 13.6973Z" fill="#1E1E1E"/>
</g>
<defs>
<clipPath id="clip0_146_2854">
<rect width="25.5182" height="33.4596" fill="white" transform="translate(25.5186 33.4597) rotate(-180)"/>
</clipPath>
</defs>
</svg>
