<svg width="30" height="30" viewBox="0 0 30 30" fill="none" xmlns="http://www.w3.org/2000/svg">
<path d="M12 30C10.3455 30 9 28.6545 9 27C9 25.3455 10.3455 24 12 24C13.6545 24 15 25.3455 15 27C15 28.6545 13.6545 30 12 30ZM12 25.5C11.1735 25.5 10.5 26.1735 10.5 27C10.5 27.8265 11.1735 28.5 12 28.5C12.8265 28.5 13.5 27.8265 13.5 27C13.5 26.1735 12.8265 25.5 12 25.5Z" fill="white"/>
<path d="M22.5 30C20.8455 30 19.5 28.6545 19.5 27C19.5 25.3455 20.8455 24 22.5 24C24.1545 24 25.5 25.3455 25.5 27C25.5 28.6545 24.1545 30 22.5 30ZM22.5 25.5C21.6735 25.5 21 26.1735 21 27C21 27.8265 21.6735 28.5 22.5 28.5C23.3265 28.5 24 27.8265 24 27C24 26.1735 23.3265 25.5 22.5 25.5Z" fill="white"/>
<path d="M26.3085 6.7005C25.932 6.255 25.3635 6 24.75 6H6.3855L6.237 5.106C6.0405 3.9255 4.9485 3 3.75 3H2.25C1.836 3 1.5 3.336 1.5 3.75C1.5 4.164 1.836 4.5 2.25 4.5H3.75C4.2105 4.5 4.6815 4.899 4.7565 5.3535L7.263 20.394C7.4595 21.5745 8.5515 22.5 9.75 22.5H24.75C25.164 22.5 25.5 22.164 25.5 21.75C25.5 21.336 25.164 21 24.75 21H9.75C9.2895 21 8.8185 20.601 8.7435 20.1465L8.373 17.9265L23.3205 16.626C24.483 16.5255 25.545 15.5445 25.737 14.3925L26.7435 8.352C26.844 7.746 26.6865 7.143 26.31 6.699L26.3085 6.7005ZM25.263 8.106L24.2565 14.1465C24.177 14.6205 23.67 15.09 23.19 15.132L8.1255 16.4415L6.6345 7.4985H24.7485C24.924 7.4985 25.071 7.5585 25.1625 7.668C25.254 7.7775 25.29 7.932 25.2615 8.1045L25.263 8.106Z" fill="white"/>
</svg>
