<svg width="85" height="80" viewBox="0 0 85 80" fill="none" xmlns="http://www.w3.org/2000/svg">
<path d="M79.9 22.2203H60.265C61.25 21.7235 62.153 21.0788 62.9425 20.3085C65.1743 18.0775 66.4281 15.0516 66.4281 11.8964C66.4281 8.7413 65.1743 5.7154 62.9425 3.48438C60.7107 1.25337 57.6837 0 54.5275 0C51.3713 0 48.3443 1.25337 46.1125 3.48438C44.5825 5.01385 43.3925 7.39301 42.5 10.5794C41.6075 7.39301 40.4175 5.01385 38.8875 3.48438C36.6557 1.25337 33.6287 -2.35075e-08 30.4725 0C27.3163 2.35075e-08 24.2893 1.25337 22.0575 3.48438C19.8257 5.7154 18.5719 8.7413 18.5719 11.8964C18.5719 15.0516 19.8257 18.0775 22.0575 20.3085C22.847 21.0788 23.75 21.7235 24.735 22.2203H5.1C3.7474 22.2203 2.45019 22.7574 1.49376 23.7135C0.53732 24.6696 0 25.9664 0 27.3185V40.9137C0 42.2659 0.53732 43.5626 1.49376 44.5187C2.45019 45.4748 3.7474 46.0119 5.1 46.0119H6.8V74.9018C6.8 76.2539 7.33732 77.5507 8.29375 78.5068C9.25019 79.4629 10.5474 80 11.9 80H73.1C74.4526 80 75.7498 79.4629 76.7062 78.5068C77.6627 77.5507 78.2 76.2539 78.2 74.9018V46.0119H79.9C81.2526 46.0119 82.5498 45.4748 83.5062 44.5187C84.4627 43.5626 85 42.2659 85 40.9137V27.3185C85 25.9664 84.4627 24.6696 83.5062 23.7135C82.5498 22.7574 81.2526 22.2203 79.9 22.2203ZM48.4925 5.90603C50.0949 4.30783 52.2639 3.40694 54.5275 3.39941C56.2032 3.41805 57.8363 3.92894 59.2237 4.8685C60.6111 5.80805 61.6914 7.13477 62.3301 8.68349C62.9688 10.2322 63.1378 11.9345 62.8159 13.5785C62.4941 15.2225 61.6956 16.7356 60.52 17.9293C57.46 20.9882 48.9175 21.9654 44.2425 22.1778C44.455 17.5045 45.4325 8.96496 48.4925 5.90603ZM24.48 5.90603C25.2694 5.11601 26.2069 4.48928 27.2388 4.06167C28.2706 3.63407 29.3767 3.41397 30.4938 3.41397C31.6108 3.41397 32.7169 3.63407 33.7487 4.06167C34.7806 4.48928 35.7181 5.11601 36.5075 5.90603C39.5675 8.96496 40.545 17.5045 40.7575 22.1778C36.0825 21.9654 27.54 20.9882 24.48 17.9293C23.6897 17.1402 23.0627 16.203 22.635 15.1715C22.2072 14.14 21.9871 13.0343 21.9871 11.9177C21.9871 10.801 22.2072 9.69534 22.635 8.66382C23.0627 7.6323 23.6897 6.69518 24.48 5.90603ZM3.4 40.9137V27.3185C3.4 26.8678 3.57911 26.4356 3.89792 26.1168C4.21673 25.7982 4.64913 25.6191 5.1 25.6191H40.8V42.6131H5.1C4.64913 42.6131 4.21673 42.4341 3.89792 42.1154C3.57911 41.7967 3.4 41.3644 3.4 40.9137ZM10.2 74.9018V46.0119H40.8V76.6012H11.9C11.4491 76.6012 11.0167 76.4222 10.6979 76.1035C10.3791 75.7848 10.2 75.3525 10.2 74.9018ZM74.8 74.9018C74.8 75.3525 74.6209 75.7848 74.3021 76.1035C73.9833 76.4222 73.5509 76.6012 73.1 76.6012H44.2V46.0119H74.8V74.9018ZM81.6 40.9137C81.6 41.3644 81.4209 41.7967 81.1021 42.1154C80.7833 42.4341 80.3509 42.6131 79.9 42.6131H44.2V25.6191H79.9C80.3509 25.6191 80.7833 25.7982 81.1021 26.1168C81.4209 26.4356 81.6 26.8678 81.6 27.3185V40.9137Z" fill="#FE6D7E"/>
</svg>
