<svg width="229" height="44" viewBox="0 0 229 44" fill="none" xmlns="http://www.w3.org/2000/svg">
<path d="M19.9752 0.635254C23.0795 0.635254 25.4416 1.27274 27.0616 2.54771C28.5459 3.68001 29.3283 5.24712 29.4088 7.24902C29.517 10.3764 28.2778 12.6342 25.6913 14.0224C23.1048 15.4106 20.4872 15.2113 17.8386 13.4246V13.1053H18.4426C18.956 13.064 19.4607 12.9496 19.9407 12.7656C21.4779 12.1813 22.503 10.946 23.0162 9.05957C23.1761 8.38065 23.2446 7.68396 23.2198 6.98745C23.1922 5.49961 22.747 4.34467 21.884 3.52262C21.0188 2.64622 19.844 2.20802 18.3598 2.20802H16.5407V22.0459C16.5325 22.3291 16.5859 22.6107 16.6972 22.872C16.8085 23.1333 16.9752 23.3681 17.1862 23.5609C17.3878 23.7586 17.6284 23.9135 17.8932 24.0163C18.1579 24.1191 18.4412 24.1676 18.7257 24.1588H19.2124V24.5562H8.03556V24.1588H8.5188C9.09191 24.1666 9.64505 23.9518 10.0583 23.5609C10.2561 23.3688 10.412 23.1389 10.5165 22.8854C10.6209 22.6319 10.6717 22.3601 10.6658 22.0867V3.14557C10.6737 2.8626 10.6199 2.58125 10.5079 2.3205C10.396 2.05974 10.2285 1.82563 10.0169 1.63394C9.81621 1.43592 9.5763 1.28065 9.31204 1.1778C9.04779 1.07494 8.76485 1.02672 8.48084 1.03611H7.99414V0.635254H19.9752Z" fill="white"/>
<path d="M47.4371 0.635254C49.9983 0.635254 52.036 1.10064 53.5501 2.03139C55.3911 3.14558 56.3116 4.85875 56.3116 7.1709C56.3399 8.63813 55.8698 10.0727 54.9757 11.2472C53.977 12.5493 52.5468 13.3329 50.6852 13.5978C51.5359 13.9119 52.309 14.4005 52.953 15.0313C53.575 15.6118 54.119 16.2682 54.5718 16.9845C54.6789 17.1951 54.8135 17.4363 54.9757 17.7013C55.1897 18.041 55.421 18.3807 55.6661 18.7373C56.2874 19.7202 56.9087 20.626 57.53 21.4548C58.0859 22.2873 58.7871 23.0164 59.6011 23.6085C60.2307 23.9969 60.964 24.1909 61.7066 24.1656V24.563H58.3067C56.0653 24.563 54.351 24.2969 53.1635 23.7647C51.9761 23.2325 50.8969 22.2237 49.9258 20.7381C49.3492 19.8512 48.8226 18.9338 48.3483 17.99C47.8852 17.1372 47.505 16.2432 47.2127 15.3201C46.5661 13.7529 45.7607 12.9298 44.7965 12.8505V12.5312H45.8079C46.708 12.5704 47.5943 12.3029 48.3173 11.7737C49.1526 11.1373 49.7187 10.0617 50.0155 8.54664C50.0729 8.32328 50.1144 8.09627 50.1398 7.86726C50.164 7.54795 50.1778 7.21845 50.1778 6.87197C50.0995 5.14635 49.5334 3.911 48.4795 3.16595C48.0607 2.86584 47.5941 2.63626 47.0988 2.48657C46.6906 2.37677 46.269 2.32306 45.8458 2.32692C45.4385 2.29975 44.9783 2.28616 44.4651 2.28616H43.5331V22.0289C43.5238 22.3224 43.5809 22.6142 43.7003 22.8833C43.8197 23.1524 43.9984 23.392 44.2235 23.5847C44.6348 23.9477 45.1691 24.1464 45.7216 24.1418H46.1668V24.5392H35.0107V24.1418H35.4974C35.7754 24.148 36.0517 24.0982 36.3093 23.9954C36.567 23.8926 36.8005 23.7389 36.9955 23.5439C37.2041 23.3578 37.3698 23.13 37.4817 22.8758C37.5937 22.6215 37.6491 22.3467 37.6444 22.0697V3.1082C37.6503 2.83524 37.5995 2.56397 37.495 2.31104C37.3905 2.05811 37.2346 1.82886 37.0369 1.63734C36.6374 1.25111 36.0989 1.03617 35.5389 1.03949H35.0107V0.638654L47.4371 0.635254Z" fill="white"/>
<path d="M89.0385 3.46483C91.6803 5.7181 93.0012 8.75945 93.0012 12.5889C93.0012 16.4183 91.6791 19.4586 89.0351 21.7096C86.444 23.9425 82.9761 25.0578 78.6315 25.0555C74.3421 25.0555 70.8903 23.9402 68.2762 21.7096C65.6621 19.4789 64.3539 16.4387 64.3516 12.5889C64.3516 8.76398 65.6598 5.72263 68.2762 3.46483C70.8926 1.20702 74.3444 0.0917178 78.6315 0.118893C82.9761 0.118893 86.4451 1.2342 89.0385 3.46483ZM84.5513 20.5546C86.0355 18.5912 86.7776 15.936 86.7776 12.5889C86.7776 9.24181 86.0355 6.58545 84.5513 4.61978C83.8672 3.71732 82.9784 2.9845 81.9558 2.47968C80.9332 1.97486 79.8049 1.712 78.6608 1.712C77.5168 1.712 76.3885 1.97486 75.3658 2.47968C74.3432 2.9845 73.4545 3.71732 72.7704 4.61978C71.2861 6.58545 70.544 9.24181 70.544 12.5889C70.544 15.936 71.2861 18.5912 72.7704 20.5546C73.4545 21.4571 74.3432 22.1899 75.3658 22.6947C76.3885 23.1995 77.5168 23.4624 78.6608 23.4624C79.8049 23.4624 80.9332 23.1995 81.9558 22.6947C82.9784 22.1899 83.8672 21.4571 84.5513 20.5546Z" fill="white"/>
<path d="M117.373 6.41335H116.928V6.01592C116.928 3.52486 115.687 2.26234 113.204 2.22837H107.374V11.9095H112.03C112.452 11.9161 112.87 11.8381 113.26 11.6805C113.65 11.5228 114.003 11.2887 114.298 10.9924C114.848 10.3795 115.138 9.5814 115.106 8.76402V8.48547H115.551V16.9302H115.092V16.6516C115.123 15.8333 114.834 15.0345 114.284 14.4198C113.995 14.1274 113.648 13.8955 113.266 13.7379C112.883 13.5803 112.472 13.5003 112.058 13.5027H107.374V22.0289C107.379 22.3142 107.443 22.5955 107.562 22.8558C107.68 23.1162 107.851 23.3502 108.064 23.5439C108.265 23.7419 108.505 23.8972 108.769 24.0001C109.033 24.1029 109.316 24.1511 109.6 24.1418H110.087V24.5392H98.834V24.1418H99.3172C99.8883 24.1459 100.439 23.9326 100.854 23.5464C101.269 23.1602 101.516 22.6311 101.544 22.0697V3.10818C101.549 2.83188 101.494 2.55767 101.383 2.30397C101.271 2.05027 101.106 1.82295 100.898 1.63732C100.472 1.23991 99.9038 1.0249 99.3172 1.03946H98.834V0.638629H113.124C113.951 0.631532 114.775 0.565702 115.592 0.441624C116.197 0.363662 116.794 0.229433 117.373 0.0407715V6.41335Z" fill="white"/>
<path d="M123.486 24.5392V24.1418H123.97C124.58 24.1561 125.173 23.9425 125.63 23.5439C125.848 23.3542 126.022 23.1209 126.141 22.8597C126.26 22.5984 126.321 22.3152 126.32 22.0289V3.14557C126.321 2.85976 126.26 2.57708 126.141 2.31639C126.022 2.0557 125.848 1.82303 125.63 1.63394C125.173 1.2354 124.58 1.02183 123.97 1.03611H123.486V0.635254H134.981V1.03611H134.497C133.9 1.02574 133.321 1.23949 132.879 1.63394C132.659 1.8149 132.48 2.03945 132.355 2.2929C132.229 2.54635 132.16 2.82301 132.15 3.1048V22.0289C132.156 22.3178 132.223 22.6023 132.349 22.8635C132.474 23.1247 132.655 23.3566 132.879 23.5439C133.322 23.9372 133.9 24.1508 134.497 24.1418H134.981V24.5392H123.486Z" fill="white"/>
<path d="M163.237 6.29446H162.833V5.93439C162.862 5.4408 162.792 4.94645 162.625 4.47997C162.459 4.01349 162.2 3.58416 161.863 3.21687C161.505 2.87317 161.081 2.60422 160.614 2.42618C160.148 2.24814 159.65 2.16468 159.15 2.18082H154.442V22.0594C154.451 22.3381 154.517 22.6121 154.636 22.8653C154.754 23.1184 154.923 23.3457 155.133 23.5337C155.544 23.9244 156.096 24.1392 156.669 24.1316H157.114V24.529H145.954V24.1316H146.358C146.943 24.1445 147.51 23.9296 147.936 23.5337C148.144 23.3413 148.308 23.1078 148.418 22.8485C148.528 22.5891 148.582 22.3098 148.574 22.0289V2.191H143.928C141.447 2.21818 140.206 3.46371 140.204 5.92759V6.28766H139.8V0C140.395 0.181956 141.005 0.314908 141.622 0.397452C142.422 0.520956 143.229 0.587921 144.039 0.597857H158.978C159.818 0.588571 160.656 0.521615 161.487 0.397452C162.077 0.336366 162.657 0.202834 163.213 0L163.237 6.29446Z" fill="white"/>
<path d="M187.123 24.5392H168.056V24.1418H168.542C168.826 24.1511 169.109 24.1029 169.374 24.0001C169.638 23.8972 169.878 23.7419 170.078 23.5439C170.288 23.3559 170.456 23.1287 170.575 22.8755C170.694 22.6223 170.759 22.3483 170.769 22.0697V3.10818C170.759 2.83005 170.693 2.5566 170.575 2.30397C170.456 2.05134 170.287 1.82465 170.078 1.63732C169.878 1.43929 169.638 1.28402 169.374 1.18117C169.109 1.07832 168.826 1.03008 168.542 1.03946H168.056V0.638629H182.305C183.114 0.631803 183.921 0.565964 184.721 0.441624C185.326 0.363662 185.922 0.229433 186.502 0.0407715V6.37599H186.095V6.01932C186.095 3.52826 184.867 2.26574 182.412 2.23177H176.595V11.9129H181.21C181.629 11.9158 182.043 11.832 182.427 11.6669C182.811 11.5019 183.155 11.2593 183.437 10.955C183.726 10.6599 183.951 10.3097 184.097 9.92586C184.244 9.54206 184.309 9.13281 184.289 8.72326V8.48547H184.693V16.9302H184.289V16.6516C184.319 15.8329 184.029 15.034 183.478 14.4198C183.189 14.127 182.843 13.8947 182.46 13.7371C182.078 13.5795 181.667 13.4997 181.252 13.5027H176.595V22.9461H181.455C184.884 22.9189 187.165 21.0064 188.297 17.2087H188.642L187.123 24.5392Z" fill="white"/>
<path d="M205.093 24.5392H193.923V24.1418H194.327C194.912 24.1547 195.479 23.9399 195.905 23.5439C196.324 23.1453 196.572 22.6026 196.595 22.0289V3.14557C196.589 2.86086 196.525 2.58024 196.406 2.3205C196.288 2.06076 196.117 1.82723 195.905 1.63394C195.48 1.23673 194.913 1.0217 194.327 1.03611H193.882V0.635254H205.093V1.03611H204.648C204.064 1.03135 203.5 1.24503 203.07 1.63394C202.861 1.82066 202.691 2.04721 202.573 2.29997C202.454 2.55273 202.388 2.8265 202.38 3.1048V22.0289C202.396 22.6044 202.644 23.15 203.068 23.5461C203.493 23.9422 204.06 24.1564 204.644 24.1418H205.052L205.093 24.5392ZM216.957 21.8693C218.034 23.3843 219.248 24.1543 220.598 24.1792V24.5392H216.957C216.686 24.5406 216.415 24.527 216.146 24.4985C215.422 24.4511 214.704 24.3444 213.999 24.1792C212.031 23.7262 210.52 22.8204 209.467 21.4616C209.333 21.2759 208.914 20.7098 208.21 19.7632L207.765 19.1653L207.282 18.486C206.874 17.9289 206.526 17.4669 206.229 17.0525C204.475 14.6384 203.599 13.4167 203.599 13.3872L211.883 2.55111C212.021 2.41163 212.111 2.23288 212.14 2.04021C212.169 1.84753 212.136 1.65072 212.045 1.4777C211.944 1.31683 211.799 1.18681 211.627 1.10222C211.455 1.01763 211.263 0.981794 211.072 0.998724H210.709V0.638654H218.99V0.998724H218.828C218.155 0.98099 217.485 1.0987 216.86 1.34461C216.235 1.59053 215.668 1.95947 215.193 2.42883L208.472 10.2417L216.957 21.8693Z" fill="white"/>
<path d="M42.6047 37.7565V43.8709H41.7866V38.9726L39.6085 42.4476H39.4981L37.3235 38.9726V43.8709H36.502V37.7565H37.4477L39.5464 41.1058L41.6451 37.7565H42.6047Z" fill="white"/>
<path d="M54.6548 37.7565H55.4763V43.8709H54.6548V42.6718C54.401 43.1009 54.0335 43.4541 53.5914 43.6934C53.1494 43.9327 52.6496 44.0493 52.1454 44.0306C51.723 44.0374 51.3036 43.9586 50.9135 43.799C50.5233 43.6395 50.1707 43.4026 49.8776 43.1032C49.2754 42.4938 48.9385 41.6773 48.9385 40.8273C48.9385 39.9773 49.2754 39.1608 49.8776 38.5514C50.1707 38.252 50.5233 38.0151 50.9135 37.8556C51.3036 37.696 51.723 37.6172 52.1454 37.624C52.6496 37.6053 53.1494 37.7219 53.5914 37.9612C54.0335 38.2005 54.401 38.5537 54.6548 38.9828V37.7565ZM50.4679 42.5122C50.9311 42.9627 51.5562 43.2154 52.2075 43.2154C52.8589 43.2154 53.4839 42.9627 53.9472 42.5122C54.401 42.0514 54.6548 41.435 54.6548 40.7933C54.6548 40.1517 54.401 39.5352 53.9472 39.0745C53.4839 38.6239 52.8589 38.3713 52.2075 38.3713C51.5562 38.3713 50.9311 38.6239 50.4679 39.0745C50.014 39.5352 49.7603 40.1517 49.7603 40.7933C49.7603 41.435 50.014 42.0514 50.4679 42.5122Z" fill="white"/>
<path d="M66.163 37.7565V38.5378H63.0046V43.8709H62.1865V37.7565H66.163Z" fill="white"/>
<path d="M77.2226 37.7566H78.0406V43.871H77.2226V42.6719C76.9682 43.1012 76.6 43.4545 76.1574 43.6938C75.7148 43.9332 75.2144 44.0496 74.7097 44.0306C74.2875 44.0358 73.8686 43.9563 73.4787 43.7968C73.0888 43.6374 72.736 43.4014 72.4419 43.1033C71.8421 42.4927 71.5068 41.6766 71.5068 40.8273C71.5068 39.9781 71.8421 39.162 72.4419 38.5514C72.736 38.2533 73.0888 38.0173 73.4787 37.8579C73.8686 37.6984 74.2875 37.6189 74.7097 37.6241C75.2144 37.6051 75.7148 37.7215 76.1574 37.9609C76.6 38.2002 76.9682 38.5534 77.2226 38.9828V37.7566ZM73.0321 42.5122C73.4954 42.9628 74.1205 43.2155 74.7718 43.2155C75.4232 43.2155 76.0482 42.9628 76.5115 42.5122C76.9677 42.0527 77.2232 41.4358 77.2232 40.7934C77.2232 40.151 76.9677 39.534 76.5115 39.0746C76.0482 38.624 75.4232 38.3713 74.7718 38.3713C74.1205 38.3713 73.4954 38.624 73.0321 39.0746C72.5783 39.5353 72.3246 40.1517 72.3246 40.7934C72.3246 41.435 72.5783 42.0515 73.0321 42.5122Z" fill="white"/>
<path d="M87.9582 40.7118C88.2792 40.8021 88.5601 40.9958 88.756 41.2618C88.9519 41.5279 89.0514 41.851 89.0386 42.1793C89.0406 42.4246 88.9879 42.6674 88.8841 42.8904C88.7804 43.1135 88.628 43.3114 88.438 43.4701C87.9497 43.8519 87.3343 44.0409 86.7121 44C85.4625 44 84.6422 43.5109 84.251 42.5325L84.9413 42.1283C85.1968 42.8552 85.787 43.2187 86.7052 43.2187C87.1002 43.2437 87.492 43.1359 87.8166 42.913C87.941 42.8226 88.0417 42.7041 88.1101 42.5676C88.1786 42.4311 88.2129 42.2805 88.2101 42.1283C88.2106 41.9985 88.1817 41.8702 88.1256 41.7527C88.0695 41.6352 87.9875 41.5315 87.8857 41.4489C87.6384 41.2586 87.3292 41.1633 87.0158 41.1806H86.108V40.3993H86.788C87.0913 40.4164 87.3902 40.3219 87.6268 40.1343C87.7294 40.0432 87.8099 39.9306 87.8625 39.8048C87.9151 39.679 87.9383 39.5432 87.9305 39.4074C87.934 39.2682 87.9047 39.1301 87.8448 39.004C87.7849 38.8779 87.6961 38.7671 87.5854 38.6805C87.3065 38.4752 86.9631 38.373 86.6154 38.3917C85.8353 38.3917 85.3176 38.6975 85.0621 39.3089L84.3718 38.9182C84.786 38.0441 85.5316 37.6082 86.6085 37.6104C87.1716 37.5779 87.7271 37.7509 88.1687 38.0962C88.353 38.2483 88.5009 38.4387 88.6017 38.6536C88.7026 38.8685 88.7539 39.1027 88.7521 39.3395C88.7682 39.6192 88.7018 39.8975 88.5609 40.141C88.4201 40.3844 88.2108 40.5827 87.9582 40.7118Z" fill="white"/>
<path d="M99.7762 37.7565H100.467V43.8709H99.6485V39.1458L95.9482 43.8709H95.2578V37.7565H96.0793V42.4646L99.7762 37.7565Z" fill="white"/>
<path d="M111.582 37.7565H112.4V43.8709H111.582V41.1873H108.002V43.8709H107.181V37.7565H108.002V40.423H111.582V37.7565Z" fill="white"/>
<path d="M131.66 37.7565V38.5378H129.462V43.8709H128.64V38.5378H126.441V37.7565H131.66Z" fill="white"/>
<path d="M142.644 43.8709H141.553L138.446 40.9224V43.8709H137.625V37.7565H138.446V40.474L141.401 37.7565H142.52L139.316 40.6914L142.644 43.8709Z" fill="white"/>
<path d="M153.458 37.7565H154.276V43.8709H153.458V42.6718C153.203 43.1009 152.835 43.454 152.393 43.6933C151.95 43.9326 151.45 44.0491 150.945 44.0305C150.523 44.0374 150.103 43.9586 149.713 43.799C149.323 43.6395 148.971 43.4026 148.677 43.1032C148.075 42.4938 147.738 41.6773 147.738 40.8273C147.738 39.9772 148.075 39.1607 148.677 38.5514C148.971 38.2519 149.323 38.0151 149.713 37.8555C150.103 37.696 150.523 37.6172 150.945 37.624C151.45 37.6054 151.95 37.722 152.393 37.9613C152.835 38.2006 153.203 38.5536 153.458 38.9828V37.7565ZM149.264 42.5121C149.727 42.9627 150.353 43.2154 151.004 43.2154C151.655 43.2154 152.28 42.9627 152.744 42.5121C153.2 42.0527 153.455 41.4357 153.455 40.7933C153.455 40.1509 153.2 39.534 152.744 39.0745C152.28 38.6239 151.655 38.3712 151.004 38.3712C150.353 38.3712 149.727 38.6239 149.264 39.0745C148.81 39.5352 148.557 40.1517 148.557 40.7933C148.557 41.435 148.81 42.0514 149.264 42.5121Z" fill="white"/>
<path d="M165.384 37.7565H166.205V43.8709H165.384V41.1873H161.808V43.8709H161V37.7565H161.822V40.423H165.384V37.7565Z" fill="white"/>
<path d="M175.788 37.5934C176.208 37.5794 176.627 37.6582 177.013 37.8239C177.399 37.9897 177.742 38.2382 178.018 38.5514C178.578 39.1771 178.881 39.9864 178.867 40.8205C178.865 40.9476 178.857 41.0746 178.843 41.2009H173.389C173.448 41.7771 173.735 42.307 174.19 42.6752C174.664 43.044 175.256 43.2365 175.86 43.2187C176.287 43.2286 176.709 43.1291 177.086 42.93C177.41 42.7557 177.679 42.4957 177.862 42.1793L178.584 42.5937C178.306 43.0219 177.92 43.3727 177.465 43.6127C176.968 43.87 176.412 43.9997 175.85 43.9898C175.41 44.0068 174.972 43.9354 174.561 43.7801C174.15 43.6247 173.776 43.3886 173.461 43.0862C172.875 42.4622 172.549 41.6434 172.549 40.7933C172.549 39.9432 172.875 39.1244 173.461 38.5004C173.764 38.1987 174.127 37.9623 174.528 37.8062C174.928 37.6501 175.357 37.5776 175.788 37.5934ZM175.788 38.3747C175.197 38.3496 174.62 38.5462 174.171 38.9246C173.722 39.303 173.437 39.835 173.372 40.4129H178.007C177.957 39.8356 177.686 39.2987 177.248 38.9114C176.845 38.562 176.325 38.3709 175.788 38.3747Z" fill="white"/>
<path d="M189.668 37.7566H190.358V43.871H189.54V39.1459L185.853 43.871H185.163V37.7566H185.985V42.4646L189.668 37.7566ZM186.136 36.7782V36.0581H189.367V36.7681L186.136 36.7782Z" fill="white"/>
<path d="M229 32.5525H0V32.8922H229V32.5525Z" fill="white"/>
</svg>
