<svg width="92" height="92" viewBox="0 0 92 92" fill="none" xmlns="http://www.w3.org/2000/svg">
<path d="M30.333 33.3287H36.5997M55.3997 58.3953H61.6664M61.6664 30.1953L30.333 61.5287M41.6193 3.81268L34.5442 10.8752C33.3847 12.0368 31.8114 12.6905 30.1701 12.6925H19.028C17.3859 12.6925 15.8111 13.3449 14.6499 14.506C13.4888 15.6671 12.8365 17.2419 12.8365 18.884V30.0261C12.8344 31.6674 12.1808 33.2407 11.0192 34.4003L3.95037 41.4879C2.78971 42.6489 2.1377 44.2234 2.1377 45.8651C2.1377 47.5068 2.78971 49.0813 3.95037 50.2424L11.0317 57.3175C11.606 57.8919 12.0616 58.5739 12.3723 59.3244C12.683 60.0749 12.8429 60.8793 12.8428 61.6916V72.8337C12.8428 76.2553 15.6126 79.0252 19.0342 79.0252H30.1764C31.8182 79.0252 33.3912 79.6769 34.5505 80.8425L41.6318 87.9176C42.7929 89.0783 44.3674 89.7303 46.0091 89.7303C47.6508 89.7303 49.2253 89.0783 50.3864 87.9176L57.4614 80.8363C58.622 79.677 60.1952 79.0256 61.8356 79.0252H72.9777C74.6198 79.0252 76.1946 78.3729 77.3557 77.2118C78.5169 76.0506 79.1692 74.4758 79.1692 72.8337V61.6916C79.1692 60.0497 79.8209 58.4768 80.9865 57.3175L88.0616 50.2361C89.2222 49.0751 89.8742 47.5006 89.8742 45.8589C89.8742 44.2172 89.2222 42.6427 88.0616 41.4816L80.9802 34.4065C79.8209 33.246 79.1696 31.6728 79.1692 30.0324V18.8903C79.1692 17.2482 78.5169 15.6734 77.3557 14.5122C76.1946 13.3511 74.6198 12.6988 72.9777 12.6988H61.8356C60.1943 12.6967 58.621 12.0431 57.4614 10.8815L50.3738 3.81268C49.2128 2.65202 47.6383 2 45.9966 2C44.3549 2 42.7804 2.65202 41.6193 3.81268V3.81268Z" stroke="#FE6D7E" stroke-width="4"/>
</svg>
