<svg width="114" height="70" viewBox="0 0 114 70" fill="none" xmlns="http://www.w3.org/2000/svg">
<path d="M37.095 67.7273C39.7345 67.7273 42.2659 66.6737 44.1324 64.7984C45.9988 62.923 47.0473 60.3795 47.0473 57.7273C47.0473 55.0751 45.9988 52.5316 44.1324 50.6562C42.2659 48.7809 39.7345 47.7273 37.095 47.7273C34.4554 47.7273 31.924 48.7809 30.0576 50.6562C28.1911 52.5316 27.1426 55.0751 27.1426 57.7273C27.1426 60.3795 28.1911 62.923 30.0576 64.7984C31.924 66.6737 34.4554 67.7273 37.095 67.7273V67.7273ZM86.8569 67.7273C89.4964 67.7273 92.0278 66.6737 93.8943 64.7984C95.7607 62.923 96.8092 60.3795 96.8092 57.7273C96.8092 55.0751 95.7607 52.5316 93.8943 50.6562C92.0278 48.7809 89.4964 47.7273 86.8569 47.7273C84.2173 47.7273 81.6859 48.7809 79.8195 50.6562C77.953 52.5316 76.9045 55.0751 76.9045 57.7273C76.9045 60.3795 77.953 62.923 79.8195 64.7984C81.6859 66.6737 84.2173 67.7273 86.8569 67.7273V67.7273Z" stroke="#FE6D7E" stroke-width="4" stroke-miterlimit="1.5" stroke-linecap="round" stroke-linejoin="round"/>
<path d="M47.2962 57.7273H71.9284V5.72729C71.9284 4.93165 71.6138 4.16858 71.0539 3.60597C70.494 3.04337 69.7345 2.72729 68.9427 2.72729H2.26172M25.401 57.7273H15.1998C14.8077 57.7273 14.4195 57.6497 14.0572 57.4989C13.695 57.3482 13.3658 57.1272 13.0886 56.8486C12.8113 56.57 12.5914 56.2393 12.4414 55.8754C12.2913 55.5114 12.2141 55.1213 12.2141 54.7273V30.2273" stroke="#FE6D7E" stroke-width="4" stroke-linecap="round"/>
<path d="M7.23828 17.7273H27.143" stroke="#FE6D7E" stroke-width="4" stroke-linecap="round" stroke-linejoin="round"/>
<path d="M71.9287 17.7273H99.8451C100.422 17.7274 100.987 17.8956 101.471 18.2115C101.955 18.5275 102.337 18.9775 102.572 19.5073L111.479 39.6473C111.649 40.0297 111.737 40.4436 111.738 40.8623V54.7273C111.738 55.1213 111.661 55.5114 111.511 55.8753C111.361 56.2393 111.141 56.57 110.864 56.8486C110.586 57.1272 110.257 57.3482 109.895 57.4989C109.533 57.6497 109.145 57.7273 108.753 57.7273H99.2978M71.9287 57.7273H76.9049" stroke="#FE6D7E" stroke-width="4" stroke-linecap="round"/>
</svg>
