<svg width="1440" height="69" viewBox="0 0 1440 69" fill="none" xmlns="http://www.w3.org/2000/svg">
<path d="M299.039 13.7084V58.5329H338.881V11.2296L299.039 13.7084ZM308.029 45.8894H305.013V40.477H308.029V45.8894ZM308.029 40.2716H305.013V34.8153H308.029V40.2716ZM308.029 31.7937H305.013V26.396H308.029V31.7937ZM308.029 26.1906H305.013V20.7929H308.029V26.1906ZM311.372 45.8894H308.356V40.477H311.372V45.8894ZM311.372 40.2716H308.356V34.8153H311.372V40.2716ZM311.372 31.7937H308.356V26.396H311.372V31.7937ZM311.372 26.1906H308.356V20.7929H311.372V26.1906ZM318.787 45.8894H315.771V40.477H318.787V45.8894ZM318.787 40.2716H315.771V34.8153H318.787V40.2716ZM318.787 31.7937H315.771V26.396H318.787V31.7937ZM318.787 26.1906H315.771V20.7929H318.787V26.1906ZM322.13 45.8894H319.114V40.477H322.13V45.8894ZM322.13 40.2716H319.114V34.8153H322.13V40.2716ZM322.13 31.7937H319.114V26.396H322.13V31.7937ZM322.13 26.1906H319.114V20.7929H322.13V26.1906ZM329.545 45.8894H326.529V40.477H329.545V45.8894ZM329.545 40.2716H326.529V34.8153H329.545V40.2716ZM329.545 31.7937H326.529V26.396H329.545V31.7937ZM329.545 26.1906H326.529V20.7929H329.545V26.1906ZM332.887 45.8894H329.871V40.477H332.887V45.8894ZM332.887 40.2716H329.871V34.8153H332.887V40.2716ZM332.887 31.7937H329.871V26.396H332.887V31.7937ZM332.887 26.1906H329.871V20.7929H332.887V26.1906Z" fill="url(#paint0_linear_227_1955)"/>
<path d="M889.917 14.1624V16.8319H893.279V66.3501L932.967 64.502V16.8319H936.329V14.1624H889.917ZM901.597 60.4097H898.427V54.7333H901.597V60.4097ZM901.597 54.5426H898.427V48.8809H901.597V54.5426ZM901.597 46.798H898.427V41.1363H901.597V46.798ZM901.597 40.931H898.427V35.2253H901.597V40.931ZM901.597 33.1864H898.427V27.5247H901.597V33.1864ZM901.597 27.3193H898.427V21.6576H901.597V27.3193ZM905.112 60.4684H901.942V54.7333H905.112V60.4684ZM905.112 54.6013H901.942V48.9395H905.112V54.6013ZM905.112 46.8567H901.942V41.195H905.112V46.8567ZM905.112 40.9896H901.942V35.2253H905.112V40.9896ZM905.112 33.2451H901.942V27.5834H905.112V33.2451ZM905.112 27.378H901.942V21.7163H905.112V27.378ZM912.892 60.527H909.723V54.7333H912.892V60.527ZM912.892 54.66H909.723V48.9982H912.892V54.66ZM912.892 46.9154H909.723V41.2537H912.892V46.9154ZM912.892 41.0483H909.723V35.2253H912.892V41.0483ZM912.892 33.3038H909.723V27.642H912.892V33.3038ZM912.892 27.4367H909.723V21.775H912.892V27.4367ZM916.408 60.5857H913.238V54.7333H916.408V60.5857ZM916.408 54.7186H913.238V49.0569H916.408V54.7186ZM916.408 46.9741H913.238V41.3123H916.408V46.9741ZM916.408 41.107H913.238V35.2253H916.408V41.107ZM916.408 33.3624H913.238V27.7007H916.408V33.3624ZM916.408 27.4953H913.238V21.8336H916.408V27.4953ZM924.188 60.6444H921.018V54.7333H924.188V60.6444ZM924.188 54.7773H921.018V49.1156H924.188V54.7773ZM924.188 47.0327H921.018V41.371H924.188V47.0327ZM924.188 41.1657H921.018V35.2253H924.188V41.1657ZM924.188 33.4211H921.018V27.7594H924.188V33.4211ZM924.188 27.554H921.018V21.8923H924.188V27.554ZM927.703 60.703H924.649V54.7333H927.819L927.703 60.703ZM927.703 54.836H924.649V49.1742H927.819L927.703 54.836ZM927.703 47.0914H924.649V41.4297H927.819L927.703 47.0914ZM927.703 41.2243H924.649V35.2253H927.819L927.703 41.2243ZM927.703 33.4798H924.649V27.818H927.819L927.703 33.4798ZM927.703 27.6127H924.649V21.951H927.819L927.703 27.6127Z" fill="url(#paint1_linear_227_1955)"/>
<path d="M993.768 29.8995V25.7779H954.56V29.8995H950.583V32.0996H954.56V60.247H993.768V32.0996H997.764V29.8995H993.768ZM963.915 48.0581H958.728V44.0832H963.915V48.0581ZM963.915 42.5284H958.728V38.5534H963.915V42.5284ZM963.915 36.984H958.728V33.0237H963.915V36.984ZM972.483 48.0581H967.2V44.0832H972.406L972.483 48.0581ZM972.483 42.5284H967.2V38.5534H972.406L972.483 42.5284ZM972.483 36.984H967.2V33.0237H972.406L972.483 36.984ZM981.051 48.0581H975.845V44.0832H981.051V48.0581ZM981.051 42.5284H975.845V38.5534H981.051V42.5284ZM981.051 36.984H975.845V33.0237H981.051V36.984ZM989.618 48.0581H984.489V44.0832H989.695L989.618 48.0581ZM989.618 42.5284H984.489V38.5534H989.695L989.618 42.5284ZM989.618 36.984H984.489V33.0237H989.695L989.618 36.984Z" fill="url(#paint2_linear_227_1955)"/>
<path d="M658.035 10.1589V54.8954H676.899V14.8086L658.035 10.1589ZM666.699 41.7091H663.279V37.5875H666.699V41.7091ZM666.699 36.6047H663.279V34.9766H666.699V36.6047ZM666.699 33.1872H663.279V29.0656H666.699V33.1872ZM666.699 28.0828H663.279V26.4547H666.699V28.0828ZM666.699 24.6506H663.279V20.5289H666.699V24.6506ZM666.699 19.5609H663.279V17.9181H666.699V19.5609ZM671.655 41.7091H668.255V37.5875H671.655V41.7091ZM671.655 36.6047H668.255V34.9766H671.655V36.6047ZM671.655 33.1872H668.255V29.0656H671.655V33.1872ZM671.655 28.0828H668.255V26.4547H671.655V28.0828ZM671.655 24.6506H668.255V20.5289H671.655V24.6506ZM671.655 19.5609H668.255V17.9181H671.655V19.5609Z" fill="url(#paint3_linear_227_1955)"/>
<path d="M510.698 15.8637V62.067H561.643V15.8637H510.698ZM519.803 49.9221H515.654V48.7634H519.803V49.9221ZM519.803 47.1499H515.654V45.9912H519.803V47.1499ZM519.803 44.3778H515.654V43.2044H519.803V44.3778ZM519.803 38.4373H515.654V37.2786H519.803V38.4373ZM519.803 35.6651H515.654V34.4917H519.803V35.6651ZM519.803 32.8929H515.654V31.7195H519.803V32.8929ZM519.803 26.9525H515.654V25.7791H519.803V26.9525ZM519.803 24.1803H515.654V23.0069H519.803V24.1803ZM519.803 21.4081H515.654V20.264H519.803V21.4081ZM525.566 49.9221H521.398V48.7634H525.566V49.9221ZM525.566 47.1499H521.398V45.9912H525.566V47.1499ZM525.566 44.3778H521.398V43.2044H525.566V44.3778ZM525.566 38.4373H521.398V37.2786H525.566V38.4373ZM525.566 35.6651H521.398V34.4917H525.566V35.6651ZM525.566 32.8929H521.398V31.7195H525.566V32.8929ZM525.566 26.9525H521.398V25.7791H525.566V26.9525ZM525.566 24.1803H521.398V23.0069H525.566V24.1803ZM525.566 21.4081H521.398V20.264H525.566V21.4081ZM535.402 49.9221H531.233V48.7634H535.402V49.9221ZM535.402 47.1499H531.233V45.9912H535.402V47.1499ZM535.402 44.3778H531.233V43.2044H535.402V44.3778ZM535.402 38.4373H531.233V37.2786H535.402V38.4373ZM535.402 35.6651H531.233V34.4917H535.402V35.6651ZM535.402 32.8929H531.233V31.7195H535.402V32.8929ZM535.402 26.9525H531.233V25.7791H535.402V26.9525ZM535.402 24.1803H531.233V23.0069H535.402V24.1803ZM535.402 21.4081H531.233V20.264H535.402V21.4081ZM541.165 49.9221H536.996V48.7634H541.165V49.9221ZM541.165 47.1499H536.996V45.9912H541.165V47.1499ZM541.165 44.3778H536.996V43.2044H541.165V44.3778ZM541.165 38.4373H536.996V37.2786H541.165V38.4373ZM541.165 35.6651H536.996V34.4917H541.165V35.6651ZM541.165 32.8929H536.996V31.7195H541.165V32.8929ZM541.165 26.9525H536.996V25.7791H541.165V26.9525ZM541.165 24.1803H536.996V23.0069H541.165V24.1803ZM541.165 21.4081H536.996V20.264H541.165V21.4081ZM551.001 49.9221H546.832V48.7634H551.001V49.9221ZM551.001 47.1499H546.832V45.9912H551.001V47.1499ZM551.001 44.3778H546.832V43.2044H551.001V44.3778ZM551.001 38.4373H546.832V37.2786H551.001V38.4373ZM551.001 35.6651H546.832V34.4917H551.001V35.6651ZM551.001 32.8929H546.832V31.7195H551.001V32.8929ZM551.001 26.9525H546.832V25.7791H551.001V26.9525ZM551.001 24.1803H546.832V23.0069H551.001V24.1803ZM551.001 21.4081H546.832V20.264H551.001V21.4081ZM556.764 49.9221H552.614V48.7634H556.764V49.9221ZM556.764 47.1499H552.614V45.9912H556.764V47.1499ZM556.764 44.3778H552.614V43.2044H556.764V44.3778ZM556.764 38.4373H552.614V37.2786H556.764V38.4373ZM556.764 35.6651H552.614V34.4917H556.764V35.6651ZM556.764 32.8929H552.614V31.7195H556.764V32.8929ZM556.764 26.9525H552.614V25.7791H556.764V26.9525ZM556.764 24.1803H552.614V23.0069H556.764V24.1803ZM556.764 21.4081H552.614V20.264H556.764V21.4081Z" fill="url(#paint4_linear_227_1955)"/>
<path d="M74.9999 31.7168V49.0246H117.628V28.4165L74.9999 31.7168ZM87.1792 41.6175H78.669V35.5157H87.1792V41.6175ZM99.9733 41.6175H91.5015V35.5157H99.9733V41.6175ZM112.825 41.6175H104.353V35.5157H112.883L112.825 41.6175Z" fill="url(#paint5_linear_227_1955)"/>
<path d="M250.56 5.33365V51.1115H277.838V10.5407L250.56 5.33365ZM275.802 46.3152H252.596V45.1564H275.802V46.3152ZM275.802 44.115H252.596V42.9563H275.802V44.115ZM275.802 41.9295H252.596V40.7708H275.802V41.9295ZM275.802 39.7294H252.596V38.5707H275.802V39.7294ZM275.802 37.5439H252.596V36.3851H275.802V37.5439ZM275.802 35.3438H252.596V34.185H275.802V35.3438ZM275.802 33.1583H252.596V31.9995H275.802V33.1583ZM275.802 30.9581H252.596V29.7994H275.802V30.9581ZM275.802 28.7726H252.596V27.6139H275.802V28.7726ZM275.802 26.5724H252.596V25.4871H275.802V26.5724ZM275.802 24.387H252.596V23.2282H275.802V24.387ZM275.802 22.1868H252.596V21.0867H275.802V22.1868ZM275.802 20.0013H252.596V18.8426H275.802V20.0013ZM275.802 17.8012H252.596V16.6864H275.802V17.8012ZM275.802 15.6157H252.596V14.457H275.802V15.6157ZM275.802 13.4302H252.596V12.2861H275.802V13.4302Z" fill="url(#paint6_linear_227_1955)"/>
<path d="M1177.74 16.3334V60.8939H1190.23V16.3334H1177.74ZM1186.02 53.736H1181.93V49.013H1186.02V53.736ZM1186.02 46.2262H1181.93V41.5032H1186.02V46.2262ZM1186.02 38.7016H1181.93V33.9346H1186.02V38.7016ZM1186.02 31.1771H1181.93V26.4688H1186.02V31.1771ZM1186.02 23.6672H1181.93V18.9442H1186.02V23.6672Z" fill="url(#paint7_linear_227_1955)"/>
<path d="M1195.69 16.3334V64.1794H1208.94V16.3334H1195.69ZM1204.35 57.6523H1200.28V52.5186H1204.35V57.6523ZM1204.35 49.4824H1200.28V44.3487H1204.35V49.4824ZM1204.35 41.2978H1200.28V36.1641H1204.35V41.2978ZM1204.35 33.1279H1200.28V28.0675H1204.35V33.1279ZM1204.35 24.958H1200.28V19.8243H1204.35V24.958Z" fill="url(#paint8_linear_227_1955)"/>
<path d="M1115.77 18.3571V56.4931H1164.76V25.3095L1115.77 18.3571ZM1159.73 46.6364H1145.09V45.0522H1159.73V46.6364ZM1159.73 43.5562H1138.21V41.576H1159.73V43.5562ZM1159.73 39.9479H1145.09V38.3345H1159.73V39.9479ZM1159.73 36.8677H1138.21V34.8875H1159.73V36.8677ZM1159.73 33.2594H1145.09V31.6753H1159.73V33.2594ZM1159.73 30.1792H1138.21V28.1991H1159.73V30.1792Z" fill="url(#paint9_linear_227_1955)"/>
<path d="M1352.73 24.8123V22.3774H1310.24V24.8123H1302.67V27.5111H1305.8V59.0467H1357.21V27.5111H1360.32V24.8123H1352.73ZM1314.64 49.982H1311.74V47.7672H1314.64V49.982ZM1314.64 44.2323H1311.74V42.0174H1314.64V44.2323ZM1314.64 38.4825H1311.74V36.2677H1314.64V38.4825ZM1314.64 32.7475H1311.74V30.5326H1314.64V32.7475ZM1321.96 49.982H1319.06V47.7672H1321.96V49.982ZM1321.96 44.2323H1319.06V42.0174H1321.96V44.2323ZM1321.96 38.4825H1319.06V36.2677H1321.96V38.4825ZM1321.96 32.7475H1319.06V30.5326H1321.96V32.7475ZM1329.28 49.982H1326.38V47.7672H1329.28V49.982ZM1329.28 44.2323H1326.38V42.0174H1329.28V44.2323ZM1329.28 38.4825H1326.38V36.2677H1329.28V38.4825ZM1329.28 32.7475H1326.38V30.5326H1329.28V32.7475ZM1336.54 49.982H1333.64V47.7672H1336.54V49.982ZM1336.54 44.2323H1333.64V42.0174H1336.54V44.2323ZM1336.54 38.4825H1333.64V36.2677H1336.54V38.4825ZM1336.54 32.7475H1333.64V30.5326H1336.54V32.7475ZM1343.88 49.982H1340.98V47.7672H1343.88V49.982ZM1343.88 44.2323H1340.98V42.0174H1343.88V44.2323ZM1343.88 38.4825H1340.98V36.2677H1343.88V38.4825ZM1343.88 32.7475H1340.98V30.5326H1343.88V32.7475ZM1351.2 49.982H1348.3V47.7672H1351.2V49.982ZM1351.2 44.2323H1348.3V42.0174H1351.2V44.2323ZM1351.2 38.4825H1348.3V36.2677H1351.2V38.4825ZM1351.2 32.7475H1348.3V30.5326H1351.2V32.7475Z" fill="url(#paint10_linear_227_1955)"/>
<path d="M464.803 18.8691L427.746 21.2012V62.5349H501.878V21.2012L464.803 18.8691ZM438.312 44.8749H434.796V42.1907H438.312V44.8749ZM438.312 39.9466H434.796V31.322H438.312V39.9466ZM438.312 29.2098H434.796V26.5256H438.312V29.2098ZM449.607 44.8749H446.092V42.1907H449.607V44.8749ZM449.607 39.9466H446.092V31.322H449.607V39.9466ZM449.607 29.2098H446.092V26.5256H449.607V29.2098ZM460.922 44.8749H457.407V42.1907H460.922V44.8749ZM460.922 39.9466H457.407V31.322H460.922V39.9466ZM460.922 29.2098H457.407V26.5256H460.922V29.2098ZM472.218 44.8749H468.702V42.1907H472.218V44.8749ZM472.218 39.9466H468.702V31.322H472.218V39.9466ZM472.218 29.2098H468.702V26.5256H472.218V29.2098ZM483.513 44.8749H479.998V42.1907H483.513V44.8749ZM483.513 39.9466H479.998V31.322H483.513V39.9466ZM483.513 29.2098H479.998V26.5256H483.513V29.2098ZM494.828 44.8749H491.313V42.1907H494.828V44.8749ZM494.828 39.9466H491.313V31.322H494.828V39.9466ZM494.828 29.2098H491.313V26.5256H494.828V29.2098Z" fill="url(#paint11_linear_227_1955)"/>
<path d="M734.855 0.847076L693.591 14.532V51.7H776.099V14.532L734.855 0.847076ZM719.909 40.7432H703.964V37.8097H719.909V40.7432ZM719.909 34.4801H703.964V31.5466H719.909V34.4801ZM719.909 28.217H703.964V25.2835H719.909V28.217ZM719.909 21.9686H703.964V19.035H719.909V21.9686ZM732.415 40.7432H724.443V37.8097H732.415V40.7432ZM732.415 34.4801H724.443V31.5466H732.415V34.4801ZM732.415 28.217H724.443V25.2835H732.415V28.217ZM732.415 21.9686H724.443V19.035H732.415V21.9686ZM745.247 40.7432H737.294V37.8097H745.247V40.7432ZM745.247 34.4801H737.294V31.5466H745.247V34.4801ZM745.247 28.217H737.294V25.2835H745.247V28.217ZM745.247 21.9686H737.294V19.035H745.247V21.9686ZM765.726 40.7432H749.8V37.8097H765.726V40.7432ZM765.726 34.4801H749.8V31.5466H765.726V34.4801ZM765.726 28.217H749.8V25.2835H765.726V28.217ZM765.726 21.9686H749.8V19.035H765.726V21.9686Z" fill="url(#paint12_linear_227_1955)"/>
<path d="M1440 51.5974C1296.6 59.0634 1202.13 53.5313 1148.41 52.9942C1098.76 52.4964 1054.33 54.4141 1005.22 55.3546C898.368 57.3968 794.592 48.7622 686.496 48.7876C606.777 48.806 537.657 52.849 458.016 53.4299C403.833 53.8287 350.496 51.904 298.905 49.8848C247.315 47.8656 193.44 46.3927 138.24 46.796C84.0575 47.1925 24.9599 49.2301 -0.00012207 51.3623V68.6684H1440V51.5974Z" fill="white"/>
<defs>
<linearGradient id="paint0_linear_227_1955" x1="318.96" y1="11.2296" x2="318.96" y2="58.5329" gradientUnits="userSpaceOnUse">
<stop stop-color="#FAF8F8"/>
<stop offset="1" stop-color="#F2F2F2"/>
</linearGradient>
<linearGradient id="paint1_linear_227_1955" x1="913.123" y1="14.1624" x2="913.123" y2="66.3501" gradientUnits="userSpaceOnUse">
<stop stop-color="#FAF8F8"/>
<stop offset="1" stop-color="#F2F2F2"/>
</linearGradient>
<linearGradient id="paint2_linear_227_1955" x1="974.173" y1="25.7779" x2="974.173" y2="60.247" gradientUnits="userSpaceOnUse">
<stop stop-color="#FAF8F8"/>
<stop offset="1" stop-color="#F2F2F2"/>
</linearGradient>
<linearGradient id="paint3_linear_227_1955" x1="667.467" y1="10.1589" x2="667.467" y2="54.8954" gradientUnits="userSpaceOnUse">
<stop stop-color="#FAF8F8"/>
<stop offset="1" stop-color="#F2F2F2"/>
</linearGradient>
<linearGradient id="paint4_linear_227_1955" x1="536.17" y1="15.8637" x2="536.17" y2="62.067" gradientUnits="userSpaceOnUse">
<stop stop-color="#FAF8F8"/>
<stop offset="1" stop-color="#F2F2F2"/>
</linearGradient>
<linearGradient id="paint5_linear_227_1955" x1="96.3233" y1="28.4019" x2="96.3233" y2="49.0246" gradientUnits="userSpaceOnUse">
<stop stop-color="#FAF8F8"/>
<stop offset="1" stop-color="#F2F2F2"/>
</linearGradient>
<linearGradient id="paint6_linear_227_1955" x1="264.199" y1="5.33365" x2="264.199" y2="51.1115" gradientUnits="userSpaceOnUse">
<stop stop-color="#FAF8F8"/>
<stop offset="1" stop-color="#F2F2F2"/>
</linearGradient>
<linearGradient id="paint7_linear_227_1955" x1="1183.99" y1="16.3334" x2="1183.99" y2="60.8939" gradientUnits="userSpaceOnUse">
<stop stop-color="#FAF8F8"/>
<stop offset="1" stop-color="#F2F2F2"/>
</linearGradient>
<linearGradient id="paint8_linear_227_1955" x1="1202.31" y1="16.3334" x2="1202.31" y2="64.1941" gradientUnits="userSpaceOnUse">
<stop stop-color="#FAF8F8"/>
<stop offset="1" stop-color="#F2F2F2"/>
</linearGradient>
<linearGradient id="paint9_linear_227_1955" x1="1140.28" y1="18.3571" x2="1140.28" y2="56.4931" gradientUnits="userSpaceOnUse">
<stop stop-color="#FAF8F8"/>
<stop offset="1" stop-color="#F2F2F2"/>
</linearGradient>
<linearGradient id="paint10_linear_227_1955" x1="1331.49" y1="22.3774" x2="1331.49" y2="59.0467" gradientUnits="userSpaceOnUse">
<stop stop-color="#FAF8F8"/>
<stop offset="1" stop-color="#F2F2F2"/>
</linearGradient>
<linearGradient id="paint11_linear_227_1955" x1="464.803" y1="18.8691" x2="464.803" y2="62.5349" gradientUnits="userSpaceOnUse">
<stop stop-color="#FAF8F8"/>
<stop offset="1" stop-color="#F2F2F2"/>
</linearGradient>
<linearGradient id="paint12_linear_227_1955" x1="734.855" y1="0.847076" x2="734.855" y2="51.7" gradientUnits="userSpaceOnUse">
<stop stop-color="#FAF8F8"/>
<stop offset="1" stop-color="#F2F2F2"/>
</linearGradient>
</defs>
</svg>
