<svg width="31" height="31" viewBox="0 0 31 31" fill="none" xmlns="http://www.w3.org/2000/svg">
<path fill-rule="evenodd" clip-rule="evenodd" d="M15.3449 3.83637C8.98866 3.83637 3.83589 8.98915 3.83589 15.3454C3.83589 21.7017 8.98866 26.8545 15.3449 26.8545C21.7012 26.8545 26.854 21.7017 26.854 15.3454C26.854 8.98915 21.7012 3.83637 15.3449 3.83637ZM1.27832 15.3454C1.27832 7.57664 7.57616 1.27881 15.3449 1.27881C23.1137 1.27881 29.4115 7.57664 29.4115 15.3454C29.4115 23.1142 23.1137 29.412 15.3449 29.412C7.57616 29.412 1.27832 23.1142 1.27832 15.3454Z" fill="#B4CB98"/>
<path fill-rule="evenodd" clip-rule="evenodd" d="M15.3452 6.3938C16.0514 6.3938 16.624 6.96633 16.624 7.67258V14.5549L21.0322 16.7591C21.6639 17.0749 21.9199 17.843 21.6041 18.4747C21.2883 19.1064 20.5201 19.3625 19.8884 19.0466L14.7733 16.4891C14.3401 16.2724 14.0664 15.8296 14.0664 15.3453V7.67258C14.0664 6.96633 14.6389 6.3938 15.3452 6.3938Z" fill="#B4CB98"/>
</svg>
