<svg width="23" height="31" viewBox="0 0 23 31" fill="none" xmlns="http://www.w3.org/2000/svg">
<path d="M18.8441 25.1016H4.15894V26.2312H18.8441V25.1016Z" fill="#606060"/>
<path d="M12.0663 8.15723H4.15894V9.28686H12.0663V8.15723Z" fill="#606060"/>
<path d="M18.8441 21.7134H4.15894V22.843H18.8441V21.7134Z" fill="#606060"/>
<path d="M12.0663 4.76855H4.15894V5.89818H12.0663V4.76855Z" fill="#606060"/>
<path d="M15.4545 0.25H14.8897H3.02855C1.78592 0.25 0.769287 1.26664 0.769287 2.50926V28.4907C0.769287 29.7333 1.78592 30.75 3.02855 30.75H19.973C21.2156 30.75 22.2322 29.7333 22.2322 28.4907V8.72225V8.15747L15.4545 0.25ZM15.4545 1.94447L20.7638 8.15747H16.5841C16.0193 8.15747 15.4545 7.59268 15.4545 7.02784V1.94447ZM21.1026 28.4907C21.1026 29.0555 20.6508 29.6204 19.973 29.6204H3.02855C2.46376 29.6204 1.89892 29.1685 1.89892 28.4907V2.50926C1.89892 1.94447 2.35077 1.37963 3.02855 1.37963H14.3248V7.02778C14.3248 8.2704 15.3415 9.28704 16.5841 9.28704H21.1026V28.4907Z" fill="#606060"/>
<path d="M18.8441 18.3242H4.15894V19.4538H18.8441V18.3242Z" fill="#606060"/>
<path d="M18.8441 11.5464H4.15894V12.676H18.8441V11.5464Z" fill="#606060"/>
<path d="M18.8441 14.9351H4.15894V16.0647H18.8441V14.9351Z" fill="#606060"/>
</svg>
