<svg width="29" height="29" viewBox="0 0 29 29" fill="none" xmlns="http://www.w3.org/2000/svg">
<path d="M14.5 17.0375C13.1406 17.0375 11.9625 15.95 11.9625 14.5C11.9625 13.1406 13.05 11.9625 14.5 11.9625C15.8594 11.9625 17.0375 13.05 17.0375 14.5C17.0375 15.8594 15.8594 17.0375 14.5 17.0375Z" fill="#B4CB98"/>
<path fill-rule="evenodd" clip-rule="evenodd" d="M17.5812 8.3375H11.4188C10.6938 8.42812 10.3313 8.51875 10.0594 8.60937C9.69688 8.7 9.425 8.88125 9.15313 9.15312C8.93799 9.36825 8.83635 9.58339 8.71349 9.84342C8.68111 9.91195 8.64717 9.98378 8.60938 10.0594C8.59536 10.1014 8.57917 10.1457 8.56182 10.1931C8.46701 10.4521 8.3375 10.8059 8.3375 11.4187V17.5812C8.42813 18.3062 8.51875 18.6687 8.60938 18.9406C8.7 19.3031 8.88125 19.575 9.15313 19.8469C9.36826 20.062 9.58339 20.1636 9.84342 20.2865C9.91201 20.3189 9.98372 20.3528 10.0594 20.3906C10.1014 20.4046 10.1457 20.4208 10.1931 20.4382C10.4521 20.533 10.8059 20.6625 11.4188 20.6625H17.5812C18.3062 20.5719 18.6688 20.4812 18.9406 20.3906C19.3031 20.3 19.575 20.1187 19.8469 19.8469C20.062 19.6317 20.1636 19.4166 20.2865 19.1566C20.3189 19.088 20.3528 19.0163 20.3906 18.9406C20.4046 18.8986 20.4208 18.8543 20.4382 18.8069C20.533 18.5479 20.6625 18.1941 20.6625 17.5812V11.4187C20.5719 10.6937 20.4813 10.3312 20.3906 10.0594C20.3 9.69687 20.1187 9.425 19.8469 9.15312C19.6317 8.93799 19.4166 8.83635 19.1566 8.71349C19.0881 8.68113 19.0162 8.64714 18.9406 8.60937C18.8986 8.59535 18.8543 8.57916 18.8069 8.56181C18.5479 8.46701 18.1941 8.3375 17.5812 8.3375ZM14.5 10.6031C12.325 10.6031 10.6031 12.325 10.6031 14.5C10.6031 16.675 12.325 18.3969 14.5 18.3969C16.675 18.3969 18.3969 16.675 18.3969 14.5C18.3969 12.325 16.675 10.6031 14.5 10.6031ZM19.3937 10.5125C19.3937 11.013 18.988 11.4187 18.4875 11.4187C17.987 11.4187 17.5812 11.013 17.5812 10.5125C17.5812 10.012 17.987 9.60625 18.4875 9.60625C18.988 9.60625 19.3937 10.012 19.3937 10.5125Z" fill="#B4CB98"/>
<path fill-rule="evenodd" clip-rule="evenodd" d="M0 14.5C0 6.49187 6.49187 0 14.5 0C22.5081 0 29 6.49187 29 14.5C29 22.5081 22.5081 29 14.5 29C6.49187 29 0 22.5081 0 14.5ZM11.4188 6.97812H17.5812C18.3969 7.06875 18.9406 7.15937 19.3937 7.34062C19.9375 7.6125 20.3 7.79375 20.7531 8.24687C21.2062 8.7 21.4781 9.15312 21.6594 9.60625C21.8406 10.0594 22.0219 10.6031 22.0219 11.4187V17.5812C21.9312 18.3969 21.8406 18.9406 21.6594 19.3937C21.3875 19.9375 21.2062 20.3 20.7531 20.7531C20.3 21.2062 19.8469 21.4781 19.3937 21.6594C18.9406 21.8406 18.3969 22.0219 17.5812 22.0219H11.4188C10.6031 21.9312 10.0594 21.8406 9.60625 21.6594C9.0625 21.3875 8.7 21.2062 8.24688 20.7531C7.79375 20.3 7.52188 19.8469 7.34063 19.3937C7.15938 18.9406 6.97812 18.3969 6.97812 17.5812V11.4187C7.06875 10.6031 7.15938 10.0594 7.34063 9.60625C7.6125 9.0625 7.79375 8.7 8.24688 8.24687C8.7 7.79375 9.15313 7.52187 9.60625 7.34062C10.0594 7.15937 10.6031 6.97812 11.4188 6.97812Z" fill="#B4CB98"/>
</svg>
