<svg width="30" height="30" viewBox="0 0 30 30" fill="none" xmlns="http://www.w3.org/2000/svg">
<path fill-rule="evenodd" clip-rule="evenodd" d="M15 2.5C12.3478 2.5 9.8043 3.55357 7.92893 5.42893C6.05357 7.3043 5 9.84784 5 12.5C5 16.3726 7.51967 20.1303 10.2824 23.0466C11.6383 24.4777 12.9983 25.6493 14.0208 26.4636C14.4014 26.7666 14.7338 27.019 15 27.2157C15.2662 27.019 15.5986 26.7666 15.9792 26.4636C17.0017 25.6493 18.3617 24.4777 19.7176 23.0466C22.4803 20.1303 25 16.3726 25 12.5C25 9.84784 23.9464 7.3043 22.0711 5.42893C20.1957 3.55357 17.6522 2.5 15 2.5ZM15 28.75C14.3066 29.7901 14.3063 29.7899 14.3059 29.7896L14.3024 29.7872L14.294 29.7816L14.2654 29.7623C14.2411 29.7457 14.2063 29.722 14.1619 29.6912C14.0732 29.6297 13.9456 29.5402 13.7847 29.424C13.4632 29.1918 13.008 28.8528 12.4635 28.4193C11.3767 27.5538 9.92424 26.3035 8.46756 24.7659C5.60533 21.7447 2.5 17.3774 2.5 12.5C2.5 9.18479 3.81696 6.00537 6.16116 3.66116C8.50537 1.31696 11.6848 0 15 0C18.3152 0 21.4946 1.31696 23.8388 3.66116C26.183 6.00537 27.5 9.18479 27.5 12.5C27.5 17.3774 24.3947 21.7447 21.5324 24.7659C20.0758 26.3035 18.6233 27.5538 17.5365 28.4193C16.992 28.8528 16.5368 29.1918 16.2153 29.424C16.0544 29.5402 15.9268 29.6297 15.8381 29.6912C15.7937 29.722 15.7589 29.7457 15.7346 29.7623L15.706 29.7816L15.6976 29.7872L15.695 29.789C15.6946 29.7892 15.6934 29.7901 15 28.75ZM15 28.75L15.6934 29.7901C15.2735 30.07 14.7258 30.0695 14.3059 29.7896L15 28.75Z" fill="#B4CB98"/>
<path fill-rule="evenodd" clip-rule="evenodd" d="M15 10C13.6193 10 12.5 11.1193 12.5 12.5C12.5 13.8807 13.6193 15 15 15C16.3807 15 17.5 13.8807 17.5 12.5C17.5 11.1193 16.3807 10 15 10ZM10 12.5C10 9.73858 12.2386 7.5 15 7.5C17.7614 7.5 20 9.73858 20 12.5C20 15.2614 17.7614 17.5 15 17.5C12.2386 17.5 10 15.2614 10 12.5Z" fill="#B4CB98"/>
</svg>
