<svg width="24" height="24" viewBox="0 0 24 24" fill="none" xmlns="http://www.w3.org/2000/svg">
<path fill-rule="evenodd" clip-rule="evenodd" d="M7.78193 3.24169C7.59794 3.08347 7.3627 2.99754 7.12005 2.99993L7.1102 3.00002V2.99997H3.98339C3.86549 3.01518 3.75114 3.05131 3.64576 3.10674C3.52927 3.16802 3.42603 3.2517 3.34195 3.35296C3.25787 3.45423 3.19461 3.5711 3.1558 3.69687C3.11758 3.8207 3.1038 3.95077 3.11521 4.07982C3.4375 7.02141 4.44892 9.84559 6.06739 12.3231L6.07416 12.3334L6.0741 12.3335C7.53126 14.6255 9.47472 16.5689 11.7667 18.0261L11.7743 18.0309L11.7743 18.031C14.2251 19.6203 17.0125 20.6162 19.9151 20.94H20.0502C20.3154 20.94 20.5698 20.8346 20.7573 20.6471C20.9448 20.4595 21.0502 20.2052 21.0502 19.94V17.2324C21.0151 17.1256 20.9976 17.0119 21.0005 16.8952C21.0066 16.65 20.9223 16.4111 20.7638 16.2239C20.6059 16.0376 20.3853 15.9155 20.1436 15.8806C19.1115 15.7427 18.098 15.49 17.1219 15.1274L17.1183 15.126C16.9394 15.0588 16.7449 15.0442 16.5579 15.0841C16.3717 15.1238 16.2007 15.2159 16.065 15.3494L14.7973 16.6171C14.479 16.9354 13.9872 17.0018 13.5959 16.7793C10.9359 15.2667 8.73344 13.0643 7.22091 10.4043C6.9984 10.0129 7.06479 9.52118 7.3831 9.20287L8.65074 7.93523C8.78431 7.79954 8.87638 7.62852 8.91611 7.44228C8.95598 7.25529 8.94142 7.0608 8.87415 6.88184L8.87281 6.87827L8.87282 6.87827C8.51017 5.90224 8.25753 4.88881 8.11959 3.85677C8.08503 3.61772 7.96511 3.39923 7.78193 3.24169ZM7.10578 0.999975C7.83182 0.994138 8.53542 1.25182 9.08601 1.72532C9.63796 2.2 9.99848 2.85919 10.1004 3.58002L10.1015 3.58783L10.1014 3.58783C10.2195 4.47334 10.436 5.34289 10.7471 6.18032C10.9482 6.7166 10.9916 7.29926 10.8721 7.85943C10.7525 8.42038 10.4746 8.93528 10.0713 9.34311L10.0673 9.34709L10.0673 9.34708L9.35022 10.0642C10.5261 11.9088 12.0914 13.4741 13.936 14.65L14.6531 13.9329L14.6571 13.9289C15.0649 13.5256 15.5798 13.2477 16.1407 13.1281C16.701 13.0086 17.2837 13.052 17.8201 13.2532C18.6574 13.5642 19.5269 13.7807 20.4123 13.8987L20.4199 13.8998L20.4199 13.8998C21.1485 14.0026 21.814 14.3696 22.2897 14.931C22.689 15.4023 22.9312 15.983 22.9879 16.5925C23.0284 16.7017 23.0502 16.819 23.0502 16.94V19.94C23.0502 20.7356 22.7341 21.4987 22.1715 22.0613C21.6089 22.6239 20.8459 22.94 20.0502 22.94H19.8602C19.8241 22.94 19.7881 22.938 19.7522 22.9341C16.521 22.583 13.4172 21.4793 10.6899 19.7114C8.15376 18.0983 6.00299 15.9477 4.38963 13.4117C2.59945 10.6696 1.48132 7.5439 1.1261 4.28844L1.12464 4.27408C1.08748 3.88097 1.12829 3.48439 1.24474 3.10708C1.36118 2.72978 1.55096 2.37917 1.8032 2.07537C2.05543 1.77157 2.36517 1.52056 2.71463 1.33672C3.06409 1.15288 3.4464 1.03984 3.83964 1.00408C3.86975 1.00135 3.89997 0.999975 3.9302 0.999975H7.10578ZM13.0557 1.89519C13.1136 1.34594 13.6058 0.947607 14.155 1.00548C16.4197 1.24411 18.5352 2.24859 20.1515 3.85279C21.7678 5.45699 22.7882 7.56483 23.0439 9.8277C23.1059 10.3765 22.7113 10.8716 22.1625 10.9337C21.6137 10.9957 21.1185 10.601 21.0565 10.0522C20.852 8.24195 20.0357 6.55568 18.7426 5.27232C17.4496 3.98896 15.7572 3.18538 13.9454 2.99447C13.3962 2.9366 12.9978 2.44443 13.0557 1.89519ZM13.0691 5.80651C13.1759 5.26466 13.7018 4.91202 14.2437 5.01887C15.4239 5.25159 16.5069 5.8337 17.3521 6.68964C18.1974 7.54558 18.7658 8.63582 18.9837 9.81887C19.0837 10.362 18.7245 10.8834 18.1813 10.9834C17.6382 11.0835 17.1168 10.7242 17.0167 10.1811C16.8715 9.39239 16.4925 8.66556 15.929 8.09493C15.3656 7.5243 14.6435 7.13623 13.8567 6.98108C13.3149 6.87424 12.9623 6.34836 13.0691 5.80651Z" fill="white"/>
</svg>
