<svg width="29" height="28" viewBox="0 0 29 28" fill="none" xmlns="http://www.w3.org/2000/svg">
<path fill-rule="evenodd" clip-rule="evenodd" d="M8.9976 3.05227C8.76123 2.85448 8.45901 2.74708 8.14727 2.75006L8.13462 2.75018V2.75012H4.11753C3.96607 2.76913 3.81916 2.81429 3.68378 2.88358C3.53412 2.96018 3.40148 3.06477 3.29347 3.19136C3.18545 3.31794 3.10417 3.46402 3.05431 3.62124C3.00521 3.77603 2.98751 3.93861 3.00217 4.09993C3.41623 7.77692 4.71561 11.3071 6.7949 14.404L6.8036 14.4169L6.80351 14.417C8.67557 17.282 11.1724 19.7113 14.117 21.5328L14.1267 21.5388L14.1267 21.5388C17.2753 23.5255 20.8563 24.7704 24.5853 25.1751H24.7589C25.0997 25.1751 25.4264 25.0434 25.6674 24.809C25.9083 24.5746 26.0437 24.2566 26.0437 23.9251V20.5406C25.9985 20.4072 25.9761 20.265 25.9798 20.1191C25.9876 19.8126 25.8794 19.514 25.6757 19.28C25.4728 19.0471 25.1894 18.8945 24.8789 18.8509C23.5529 18.6785 22.2509 18.3627 20.9969 17.9094L20.9923 17.9077C20.7624 17.8236 20.5125 17.8054 20.2723 17.8552C20.033 17.9049 19.8133 18.02 19.639 18.1869L18.0104 19.7715C17.6015 20.1694 16.9697 20.2524 16.467 19.9742C13.0496 18.0836 10.22 15.3305 8.27685 12.0055C7.99098 11.5163 8.07627 10.9016 8.48522 10.5037L10.1138 8.91919C10.2854 8.74958 10.4037 8.5358 10.4547 8.303C10.5059 8.06927 10.4872 7.82615 10.4008 7.60245L10.3991 7.59799L10.3991 7.59799C9.93319 6.37796 9.60862 5.11116 9.43141 3.82111C9.387 3.52231 9.23293 3.24918 8.9976 3.05227ZM8.12894 0.250121C9.0617 0.242825 9.96563 0.564925 10.673 1.15681C11.3821 1.75016 11.8453 2.57414 11.9761 3.47518L11.9776 3.48494L11.9775 3.48494C12.1292 4.59182 12.4074 5.67876 12.807 6.72556C13.0654 7.3959 13.1211 8.12422 12.9676 8.82445C12.8139 9.52563 12.4569 10.1693 11.9388 10.679L11.9337 10.684L11.9337 10.684L11.0124 11.5804C12.5231 13.8862 14.534 15.8428 16.9039 17.3126L17.8251 16.4162L17.8302 16.4113C18.3542 15.9072 19.0157 15.5598 19.7364 15.4102C20.4561 15.2609 21.2048 15.3152 21.8938 15.5666C22.9696 15.9554 24.0867 16.226 25.2242 16.3736L25.2339 16.3748L25.2339 16.3749C26.17 16.5034 27.0249 16.9621 27.6361 17.6639C28.1491 18.2531 28.4603 18.9789 28.5331 19.7408C28.5851 19.8773 28.6131 20.0239 28.6131 20.1751V23.9251C28.6131 24.9197 28.207 25.8735 27.4842 26.5768C26.7614 27.28 25.7811 27.6751 24.7589 27.6751H24.5148C24.4685 27.6751 24.4221 27.6727 24.3761 27.6678C20.2249 27.2289 16.2374 25.8492 12.7335 23.6395C9.4753 21.623 6.71216 18.9348 4.63944 15.7648C2.33956 12.3372 0.90307 8.43002 0.446718 4.36071L0.44484 4.34276C0.397099 3.85137 0.44953 3.35564 0.599126 2.88401C0.748721 2.41238 0.992538 1.97412 1.31659 1.59437C1.64065 1.21462 2.03857 0.900848 2.48753 0.671052C2.93649 0.441256 3.42765 0.299957 3.93286 0.255258C3.97154 0.251835 4.01037 0.250121 4.04921 0.250121H8.12894ZM15.7729 1.36914C15.8473 0.68258 16.4796 0.184662 17.1852 0.257003C20.0948 0.555293 22.8125 1.81089 24.8891 3.81614C26.9656 5.8214 28.2765 8.45619 28.605 11.2848C28.6846 11.9708 28.1777 12.5897 27.4726 12.6672C26.7676 12.7447 26.1314 12.2515 26.0518 11.5655C25.789 9.30259 24.7403 7.19475 23.0791 5.59055C21.4178 3.98635 19.2436 2.98187 16.916 2.74324C16.2103 2.6709 15.6986 2.05569 15.7729 1.36914ZM15.7901 6.25829C15.9274 5.58098 16.603 5.14018 17.2991 5.27374C18.8154 5.56464 20.2068 6.29228 21.2927 7.3622C22.3785 8.43212 23.1088 9.79493 23.3887 11.2737C23.5172 11.9527 23.0557 12.6044 22.3579 12.7295C21.6601 12.8545 20.9903 12.4054 20.8618 11.7265C20.6752 10.7406 20.1883 9.8321 19.4644 9.11881C18.7405 8.40553 17.8129 7.92044 16.8021 7.72651C16.1059 7.59295 15.6529 6.93561 15.7901 6.25829Z" fill="#B4CB98"/>
</svg>
