<svg width="28" height="29" viewBox="0 0 28 29" fill="none" xmlns="http://www.w3.org/2000/svg">
<path fill-rule="evenodd" clip-rule="evenodd" d="M14 29C6.26801 29 0 22.5081 0 14.5C0 6.49187 6.26801 0 14 0C21.732 0 28 6.49187 28 14.5C28 22.5081 21.732 29 14 29ZM14.6054 10.8817C13.3515 11.4218 10.8455 12.5398 7.08743 14.2356C6.47717 14.487 6.15749 14.7329 6.12839 14.9733C6.07921 15.3796 6.5705 15.5396 7.23952 15.7575C7.33052 15.7872 7.42482 15.8179 7.52148 15.8504C8.17969 16.072 9.0651 16.3313 9.52539 16.3416C9.94291 16.3509 10.4089 16.1726 10.9234 15.8067C14.4347 13.3518 16.2472 12.111 16.361 12.0843C16.4413 12.0654 16.5526 12.0417 16.628 12.1111C16.7033 12.1805 16.6959 12.3119 16.6879 12.3471C16.6393 12.562 14.7108 14.419 13.7128 15.3799C13.4016 15.6795 13.1809 15.892 13.1358 15.9406C13.0348 16.0493 12.9318 16.1521 12.8328 16.251C12.2213 16.8615 11.7627 17.3193 12.8581 18.067C13.3846 18.4263 13.8058 18.7234 14.2261 19.0198C14.685 19.3435 15.1428 19.6664 15.7351 20.0685C15.886 20.171 16.0301 20.2774 16.1704 20.381C16.7046 20.7754 17.1844 21.1297 17.7772 21.0732C18.1217 21.0404 18.4775 20.7049 18.6582 19.7043C19.0853 17.3397 19.9248 12.2163 20.1188 10.1051C20.1358 9.92014 20.1144 9.68341 20.0972 9.57949C20.08 9.47558 20.0442 9.32752 19.9137 9.21791C19.7593 9.08811 19.5208 9.06073 19.4142 9.06259C18.9293 9.07153 18.1854 9.33943 14.6054 10.8817Z" fill="#B4CB98"/>
</svg>
