<svg width="68" height="63" viewBox="0 0 68 63" fill="none" xmlns="http://www.w3.org/2000/svg">
<path d="M67.6328 44.7344C66.9766 43.1484 65.7734 42.3281 64.0781 42.3281C63.4766 42.3281 62.7656 42.4375 62 42.6563L50.3516 46.7031C50.3516 46.6484 50.3516 46.6484 50.3516 46.5937C50.3516 46.5391 50.3516 46.4844 50.3516 46.4297C50.3516 46.3203 50.3516 46.2656 50.3516 46.1562C50.3516 46.1016 50.3516 46.0469 50.3516 46.0469V45.9922V45.9375C50.3516 45.8281 50.2969 45.6641 50.2969 45.5547C50.2969 45.5547 50.2969 45.5547 50.2969 45.5C49.8047 43.3672 47.8359 41.7812 45.5391 41.7812H36.2969C32.0312 36.3672 22.1328 36.3125 21.6953 36.3125H14.5859V33.6875H0.09375V57.8047H14.5859V55.5078L32.5234 61.1953C32.6328 61.25 35.3125 62.0156 38.375 62.0156C40.2344 62.0156 41.875 61.7422 43.2969 61.1406C46.9062 59.6641 61.3984 51.8984 65.7734 49.5469C66.9766 48.8359 68.5625 46.9766 67.6328 44.7344ZM12.3984 55.5625H2.28125V35.8203H12.3984V36.2031V54.6875V55.5625ZM64.6797 47.5781C60.3594 49.9297 45.9219 57.5859 42.4219 59.0625C41.3281 59.5 39.9609 59.7734 38.375 59.7734C35.5859 59.7734 33.125 59.0625 33.125 59.0625L14.5312 53.2109V38.3906H21.6406C21.75 38.3906 31.375 38.4453 34.7656 43.4219L35.0938 43.9141H45.4297C46.7969 43.9141 47.9453 44.8984 48.1094 46.2109V46.2656C48.1094 46.375 48.1094 46.4297 48.1094 46.5391C48.1094 46.6484 48.1094 46.7578 48.0547 46.8672C48.0547 46.9219 48.0547 46.9766 48.0547 47.0313C48.0547 47.1406 48 47.25 47.9453 47.3594C47.9453 47.4141 47.9453 47.4687 47.8906 47.4687C47.8359 47.6328 47.7812 47.7422 47.6719 47.8516C47.2344 48.5078 46.4688 48.9453 45.5938 48.9453H31.375V51.1328H45.5938C47.0703 51.1328 48.4375 50.4219 49.3125 49.3281L62.6016 44.7344C63.1484 44.5703 63.6406 44.5156 64.0781 44.5156C64.8984 44.5156 65.2812 44.7891 65.6094 45.5547C66.0469 46.5937 65.0078 47.4141 64.6797 47.5781Z" fill="#40971D"/>
<path d="M53.1956 22.9141C53.6331 23.0781 54.1252 23.1875 54.6174 23.1875C56.3674 23.1875 57.9534 22.0937 58.5549 20.4531C59.3206 18.2656 58.2268 15.9141 56.0393 15.0938C55.6018 14.9297 55.1096 14.8203 54.6174 14.8203C52.8674 14.8203 51.2815 15.9141 50.6799 17.5547C50.2971 18.5938 50.3518 19.7422 50.844 20.7266C51.2815 21.7656 52.1018 22.5312 53.1956 22.9141ZM52.7581 18.3203C53.0315 17.5547 53.7971 17.0078 54.6174 17.0078C54.8362 17.0078 55.0549 17.0625 55.2737 17.1172C56.3127 17.5 56.8596 18.6484 56.4768 19.6328C56.2034 20.3984 55.4377 20.9453 54.6174 20.9453C54.3987 20.9453 54.1799 20.8906 53.9612 20.8359C53.469 20.6719 53.0862 20.2891 52.8674 19.7969C52.6487 19.3047 52.5393 18.8125 52.7581 18.3203Z" fill="#40971D"/>
<path d="M20.6016 12.3594L22.625 11.4297L23.5547 13.4531L28.2578 15.1484L30.2812 14.2188L31.2109 16.2422L35.5313 17.8281C35.8594 22.9688 39.1953 27.6719 44.3359 29.5313C45.8125 30.0781 47.3438 30.3516 48.9297 30.3516C54.5625 30.3516 59.5938 26.7969 61.5078 21.5469C64.0234 14.6016 60.4688 6.89062 53.5234 4.375C52.0469 3.82812 50.5156 3.55469 48.9297 3.55469C45.2109 3.55469 41.7656 5.14062 39.25 7.71094L19.5625 0.546875L13.2188 2.67969L15.7344 10.6094L20.6016 12.3594ZM48.9844 5.74219C50.2969 5.74219 51.5547 5.96094 52.8125 6.39844C58.6094 8.53125 61.6172 14.9844 59.5391 20.7812C57.9531 25.2109 53.6875 28.1641 48.9844 28.1641C47.6719 28.1641 46.4141 27.9453 45.1562 27.5078C39.3594 25.375 36.3516 18.9219 38.4297 13.125C40.0703 8.75 44.3359 5.74219 48.9844 5.74219ZM37.8828 9.51563C37.2812 10.3906 36.7891 11.375 36.4062 12.4141C36.0234 13.4531 35.8047 14.4922 35.6953 15.5859L32.9062 14.5469L31.4297 11.3203L28.2031 12.7969L25.1953 11.7031L23.7188 8.47656L20.4922 9.95312L17.5938 8.96875L16.3906 5.19531L33.5625 11.4297L34.3281 9.35156L17.9766 3.44531L19.6172 2.89844L37.8828 9.51563Z" fill="#40971D"/>
</svg>
