<svg width="68" height="68" viewBox="0 0 68 68" fill="none" xmlns="http://www.w3.org/2000/svg">
<path d="M58.9375 20.2734L63.5859 15.625L52.375 4.41406L47.7266 9.0625C45.8672 8.02344 43.9531 7.25781 41.9297 6.65625V0.09375H26.0703V6.65625C24.0469 7.25781 22.1328 8.02344 20.2734 9.0625L15.625 4.41406L4.41406 15.625L9.0625 20.2734C8.02344 22.1328 7.25781 24.0469 6.65625 26.0703H0.09375V41.9297H6.65625C7.25781 43.9531 8.02344 45.8672 9.0625 47.7266L4.41406 52.375L15.625 63.5859L20.2734 58.9375C22.1328 59.9766 24.0469 60.7422 26.0703 61.3438V67.9062H41.9297V61.3438C43.9531 60.7422 45.8672 59.9766 47.7266 58.9375L52.375 63.5859L63.5859 52.375L58.9375 47.7266C59.9766 45.8672 60.7422 43.9531 61.3438 41.9297H67.9062V26.0703H61.3438C60.7422 24.0469 59.9219 22.1328 58.9375 20.2734ZM65.7188 39.7422H59.6484L59.4297 40.5625C58.8281 42.9141 57.8984 45.2109 56.6406 47.3438L56.2031 48.0547L60.5234 52.375L52.4297 60.4688L48.1094 56.1484L47.3984 56.5859C45.2656 57.8438 42.9688 58.7734 40.6172 59.375L39.7969 59.5938V65.7188H28.3125V59.6484L27.4922 59.4297C25.1406 58.8281 22.8438 57.8984 20.7109 56.6406L20 56.2031L15.6797 60.5234L7.53125 52.375L11.8516 48.0547L11.4141 47.3438C10.1562 45.2109 9.22656 42.9141 8.625 40.5625L8.40625 39.7422H2.28125V28.2578H8.35156L8.57031 27.4375C9.17188 25.0859 10.1016 22.7891 11.3594 20.6562L11.7969 19.9453L7.47656 15.625L15.5703 7.53125L19.8906 11.8516L20.6016 11.4141C22.7344 10.1562 25.0312 9.22656 27.3828 8.625L28.2031 8.40625V2.28125H39.6875V8.35156L40.5078 8.57031C42.8594 9.17188 45.1562 10.1016 47.2891 11.3594L48 11.7969L52.3203 7.47656L60.4141 15.5703L56.0938 19.8906L56.5312 20.6016C57.7891 22.7344 58.7188 25.0312 59.3203 27.3828L59.5391 28.2031H65.7188V39.7422Z" fill="#57A338"/>
<path d="M34 16.5C24.375 16.5 16.5 24.375 16.5 34C16.5 43.625 24.375 51.5 34 51.5C43.625 51.5 51.5 43.625 51.5 34C51.5 24.375 43.625 16.5 34 16.5ZM34 49.3125C25.5781 49.3125 18.6875 42.4219 18.6875 34C18.6875 25.5781 25.5781 18.6875 34 18.6875C42.4219 18.6875 49.3125 25.5781 49.3125 34C49.3125 42.4219 42.4219 49.3125 34 49.3125Z" fill="#57A338"/>
<path d="M33.9453 32.6328C33.0156 32.1953 32.25 31.8125 32.25 30.6641C32.25 29.7344 33.0703 28.9141 34 28.9141C34.5469 28.9141 35.2031 29.1875 35.5313 29.8438L37.5547 28.8594C37.1172 27.8203 36.1328 27.1094 35.0937 26.8359V25.9062H32.9062V26.8359C31.2109 27.3281 30.0078 28.8047 30.0078 30.7734C30.0078 33.125 31.5391 34 33.5625 34.875C34.6016 35.3125 35.8047 35.8594 35.8047 37.2812C35.8047 38.2656 34.9297 39.1953 33.9453 39.1953C32.9609 39.1953 32.3594 38.7031 31.9766 37.9922C31.3203 38.2109 30.6641 38.4297 30.0625 38.5938C30.3906 39.8516 31.4844 40.9453 32.9609 41.2734V42.3672H35.1484V41.2734C36.7891 40.7813 38.0469 39.1953 38.0469 37.3359C37.9922 34.8203 36.7891 33.8906 33.9453 32.6328Z" fill="#57A338"/>
</svg>
