<svg width="47" height="68" viewBox="0 0 47 68" fill="none" xmlns="http://www.w3.org/2000/svg">
<path d="M40.4062 53.6875H20.1719V55.875H40.4062V53.6875Z" fill="#40971D"/>
<path d="M27.2812 58.6094H20.1719V60.7969H27.2812V58.6094Z" fill="#40971D"/>
<path d="M40.4062 37.2812H20.1719V39.4688H40.4062V37.2812Z" fill="#40971D"/>
<path d="M27.2812 42.2031H20.1719V44.3906H27.2812V42.2031Z" fill="#40971D"/>
<path d="M40.4062 20.875H20.1719V23.0625H40.4062V20.875Z" fill="#40971D"/>
<path d="M27.2812 25.7969H20.1719V27.9844H27.2812V25.7969Z" fill="#40971D"/>
<path d="M27.1719 3.92188C27.1719 1.78906 25.4766 0.09375 23.3438 0.09375C21.2109 0.09375 19.5156 1.78906 19.5156 3.92188H14.1562V6.65625H0.484375V67.9062H46.4219V6.65625H32.75V3.92188H27.1719ZM23.3438 2.28125C24.2734 2.28125 24.9844 2.99219 24.9844 3.92188H21.7031C21.7031 2.99219 22.4688 2.28125 23.3438 2.28125ZM16.3438 6.10938H30.5625V9.39062H16.3438V6.10938ZM44.2344 8.84375V65.7188H2.67188V8.84375H14.1562V11.5781H32.75V8.84375H44.2344Z" fill="#40971D"/>
<path d="M5.95312 62.4375H16.3438V52.0469H5.95312V62.4375ZM8.14062 54.2344H14.1562V60.25H8.14062V54.2344Z" fill="#40971D"/>
<path d="M5.95312 46.0312H16.3438V35.6406H5.95312V46.0312ZM8.14062 37.8281H14.1562V43.8438H8.14062V37.8281Z" fill="#40971D"/>
<path d="M5.95312 29.625H16.3438V19.2344H5.95312V29.625ZM8.14062 21.4219H14.1562V27.4375H8.14062V21.4219Z" fill="#40971D"/>
</svg>
