<svg width="68" height="68" viewBox="0 0 68 68" fill="none" xmlns="http://www.w3.org/2000/svg">
<path d="M34 61.0703C48.9297 61.0703 61.0703 48.9297 61.0703 34C61.0703 19.0703 48.9297 6.92969 34 6.92969C19.0703 6.92969 6.92969 19.0703 6.92969 34C6.92969 48.9297 19.0703 61.0703 34 61.0703ZM34 9.11719C47.7266 9.11719 58.8828 20.2734 58.8828 34C58.8828 47.7266 47.7266 58.8828 34 58.8828C20.2734 58.8828 9.11719 47.7266 9.11719 34C9.11719 20.2734 20.2734 9.11719 34 9.11719Z" fill="#40971D"/>
<path d="M58.2812 62.6563V54.5625L56.4219 56.4219C46.6328 66.2109 31.8125 68.5078 19.5078 62.2188L18.5234 64.1875C23.4453 66.7031 28.75 67.9609 34 67.9609C41.9844 67.9609 49.8047 65.1172 56.0938 59.7578V62.7109H58.2812V62.6563Z" fill="#40971D"/>
<path d="M5.3434 56.0938V58.2812H13.4371L11.5778 56.4219C1.8434 46.7422 -0.508164 31.9766 5.67152 19.7266L3.70277 18.7422C-2.47691 31.0469 -0.617538 45.7578 8.29652 56.0938H5.3434Z" fill="#40971D"/>
<path d="M62.2734 48.3828L64.2422 49.3672C70.5313 37.0078 68.6719 22.2422 59.7031 11.8516H65.3906V9.66406H54.5625L56.4219 11.5781C66.1562 21.3125 68.5078 36.1328 62.2734 48.3828Z" fill="#40971D"/>
<path d="M48.3828 5.72656L49.3672 3.75781C37.0078 -2.53125 22.2422 -0.671874 11.9062 8.29688V5.34375H9.71875V13.4375L11.5781 11.5781C21.3125 1.84375 36.1328 -0.507812 48.3828 5.72656Z" fill="#40971D"/>
<path d="M35.0938 12.3438H32.9062V14.0938H35.0938V12.3438Z" fill="#40971D"/>
<path d="M55.6562 32.9062H53.9062V35.0938H55.6562V32.9062Z" fill="#40971D"/>
<path d="M35.0938 53.9062H32.9062V55.6562H35.0938V53.9062Z" fill="#40971D"/>
<path d="M14.0938 32.9062H12.3438V35.0938H14.0938V32.9062Z" fill="#40971D"/>
<path d="M32.9063 38.3203H35.0938V35.0938H45.2656V32.9062H35.0938V17.3203H32.9063V32.9062H29.6797V35.0938H32.9063V38.3203Z" fill="#40971D"/>
</svg>
