<svg width="53" height="68" viewBox="0 0 53 68" fill="none" xmlns="http://www.w3.org/2000/svg">
<path d="M52.1562 11.6875L40.5625 0.09375H0.75V67.9062H52.1562V11.6875ZM41.2188 3.8125L48.4375 11.0312H41.2188V3.8125ZM2.9375 65.7188V2.28125H39.0312V13.2188H49.9688V65.7188H2.9375Z" fill="#40971D"/>
<path d="M35.2031 11.0312H18.7969V13.2188H35.2031V11.0312Z" fill="#40971D"/>
<path d="M43.4062 19.7812H10.5938V21.9688H43.4062V19.7812Z" fill="#40971D"/>
<path d="M43.4062 25.25H10.5938V27.4375H43.4062V25.25Z" fill="#40971D"/>
<path d="M43.4062 30.7188H10.5938V32.9062H43.4062V30.7188Z" fill="#40971D"/>
<path d="M43.4062 36.1875H10.5938V38.375H43.4062V36.1875Z" fill="#40971D"/>
<path d="M37.3906 43.8438C33.7812 43.8438 30.8281 46.7969 30.8281 50.4062C30.8281 52.5938 31.9219 54.5078 33.5625 55.7109V62.4375L37.3906 60.9062L41.2188 62.4375V57.5156H39.0312V59.1562L37.3906 58.5L35.75 59.1562V56.75C36.2969 56.8594 36.8438 56.9688 37.3906 56.9688C41 56.9688 43.9531 54.0156 43.9531 50.4062C43.9531 46.7969 41 43.8438 37.3906 43.8438ZM37.3906 54.7812C34.9844 54.7812 33.0156 52.8125 33.0156 50.4062C33.0156 48 34.9844 46.0312 37.3906 46.0312C39.7969 46.0312 41.7656 48 41.7656 50.4062C41.7656 52.8125 39.7969 54.7812 37.3906 54.7812Z" fill="#40971D"/>
</svg>
