<svg width="52" height="68" viewBox="0 0 52 68" fill="none" xmlns="http://www.w3.org/2000/svg">
<path d="M0.296875 0.09375V67.9062H51.7031V11.6875L40.1094 0.09375H0.296875ZM40.7656 3.8125L47.9844 11.0312H40.7656V3.8125ZM2.48438 65.7188V2.28125H38.5781V13.2188H49.5156V65.7188H2.48438Z" fill="#40971D"/>
<path d="M45.1406 41.1094H6.85938V43.2969H45.1406V41.1094Z" fill="#40971D"/>
<path d="M45.1406 46.5781H6.85938V48.7656H45.1406V46.5781Z" fill="#40971D"/>
<path d="M45.1406 52.0469H31.4688V54.2344H45.1406V52.0469Z" fill="#40971D"/>
<path d="M26 33.7812C30.7578 33.7812 35.5156 32.9609 40.0547 31.375L40.7656 31.1016V27.1094L39.0703 26.6172V25.0312C39.0703 20.1094 36.3359 15.625 32.0156 13.4375V13.3281C32.0156 12.0703 30.9766 11.0313 29.7188 11.0313H27.0938V10.7031H24.9062V11.0313H22.2812C21.0234 11.0313 19.9844 12.0703 19.9844 13.3281V13.4375C15.6641 15.6797 12.9297 20.1641 12.9297 25.0312V26.6172L11.2344 27.1641V31.1562L11.9453 31.4297C16.4844 32.9609 21.2422 33.7812 26 33.7812ZM13.4219 28.8047L15.1172 28.3125V25.0859C15.1172 21.4219 16.9766 17.9766 19.9844 16.0078V19.3438H22.1719V13.3281C22.1719 13.2734 22.2266 13.2188 22.2812 13.2188H24.9062V22.6797H27.0938V13.2188H29.7188C29.7734 13.2188 29.8281 13.2734 29.8281 13.3281V19.3438H32.0156V16.0078C35.0234 18.0313 36.8828 21.4219 36.8828 25.0859V28.3125L38.5781 28.8047V29.5703C30.4297 32.25 21.5703 32.25 13.4219 29.5703V28.8047Z" fill="#40971D"/>
<path d="M34.3672 26.3984H17.5781V28.5859H34.3672V26.3984Z" fill="#40971D"/>
</svg>
