<svg width="68" height="68" viewBox="0 0 68 68" fill="none" xmlns="http://www.w3.org/2000/svg">
<path d="M58.9375 20.2734L63.5859 15.625L54.2344 6.27344V0.09375H13.7656V6.27344L4.41406 15.625L9.0625 20.2734C8.02344 22.1328 7.25781 24.0469 6.65625 26.0703H0.09375V41.9297H6.65625C7.25781 43.9531 8.02344 45.8672 9.0625 47.7266L4.41406 52.375L15.625 63.5859L20.2734 58.9375C22.1328 59.9766 24.0469 60.7422 26.0703 61.3438V67.9062H41.9297V61.3438C43.9531 60.7422 45.8672 59.9766 47.7266 58.9375L52.375 63.5859L63.5859 52.375L58.9375 47.7266C59.9766 45.8672 60.7422 43.9531 61.3438 41.9297H67.9062V26.0703H61.3438C60.7422 24.0469 59.9219 22.1328 58.9375 20.2734ZM15.9531 2.28125H52.0469V52.0469H34C24.0469 52.0469 15.9531 43.9531 15.9531 34V2.28125ZM65.7188 39.7422H59.6484L59.4297 40.5625C58.8281 42.9141 57.8984 45.2109 56.6406 47.3438L56.2031 48.0547L60.5234 52.375L52.4297 60.4688L48.1094 56.1484L47.3984 56.5859C45.2656 57.8438 42.9688 58.7734 40.6172 59.375L39.7969 59.5938V65.7188H28.3125V59.6484L27.4922 59.4297C25.1406 58.8281 22.8438 57.8984 20.7109 56.6406L20 56.2031L15.6797 60.5234L7.53125 52.375L11.8516 48.0547L11.4141 47.3438C10.1562 45.2109 9.22656 42.9141 8.625 40.5625L8.40625 39.7422H2.28125V28.2578H8.35156L8.57031 27.4375C9.17188 25.0859 10.1016 22.7891 11.3594 20.6562L11.7969 19.9453L7.47656 15.625L13.7656 9.39062V34C13.7656 45.1562 22.8438 54.2344 34 54.2344H54.2344V9.39062L60.4688 15.625L56.1484 19.9453L56.5859 20.6562C57.8438 22.7891 58.7734 25.0859 59.375 27.4375L59.5938 28.2578H65.7188V39.7422Z" fill="#40971D"/>
<path d="M47.6719 16.5H20.3281V18.6875H47.6719V16.5Z" fill="#40971D"/>
<path d="M47.6719 21.9688H20.3281V24.1562H47.6719V21.9688Z" fill="#40971D"/>
<path d="M47.6719 27.4375H20.3281V29.625H47.6719V27.4375Z" fill="#40971D"/>
<path d="M47.6719 32.9062H20.3281V35.0938H47.6719V32.9062Z" fill="#40971D"/>
<path d="M47.6719 38.375H42.2031V40.5625H47.6719V38.375Z" fill="#40971D"/>
<path d="M42.2031 5.5625H25.7969V7.75H42.2031V5.5625Z" fill="#40971D"/>
</svg>
