<svg width="64" height="68" viewBox="0 0 64 68" fill="none" xmlns="http://www.w3.org/2000/svg">
<path d="M61.2578 36.2969C62.8984 35.2031 63.9922 33.3438 63.9922 31.2656C63.9922 27.9297 61.3125 25.25 57.9766 25.25H44.8516C43.9219 25.25 43.2109 24.5391 43.2109 23.6094V8.84375C43.2109 4.03125 39.2734 0.09375 34.4609 0.09375C32.9297 0.09375 31.7266 1.29688 31.7266 2.82812V13.0547C29.6484 19.2344 25.8203 24.6484 20.6797 28.6953L18.9844 30.0625V28.5859H0.0078125V67.9062H18.9844V64.625C22.4844 66.7578 26.4766 67.9062 30.5781 67.9062H51.9609C54.9688 67.9062 57.4297 65.4453 57.4297 62.4375C57.4297 61.1797 56.9922 59.9766 56.2812 59.1016C59.3984 58.6094 61.8047 55.875 61.8047 52.5938C61.8047 50.6797 60.9844 48.9844 59.7266 47.7812C62.2422 46.8516 63.9922 44.4453 63.9922 41.6562C63.9922 39.4688 62.8984 37.5 61.2578 36.2969ZM16.7969 65.7188H2.19531V30.7734H16.7969V65.7188ZM57.4297 46.0312C57.4297 46.0312 55.625 46.0312 55.2422 46.0312V48.2188C57.6484 48.2188 59.6172 50.1875 59.6172 52.5938C59.6172 55 57.6484 56.9688 55.2422 56.9688H51.9609V59.1562C53.7656 59.1562 55.2422 60.6328 55.2422 62.4375C55.2422 64.2422 53.7656 65.7188 51.9609 65.7188H30.5781C26.4219 65.7188 22.375 64.4062 18.9844 62V32.8516L22.0469 30.4453C27.5703 26.0703 31.6172 20.2734 33.8594 13.6016L33.9141 13.4375V2.82812C33.9141 2.5 34.1328 2.28125 34.4609 2.28125C38.0703 2.28125 41.0234 5.23438 41.0234 8.84375V23.6094C41.0234 25.7422 42.7188 27.4375 44.8516 27.4375H57.9766C60.1094 27.4375 61.8047 29.1328 61.8047 31.2656C61.8047 33.3984 60.1094 35.0938 57.9766 35.0938H57.4297V37.2812C59.8359 37.2812 61.8047 39.25 61.8047 41.6562C61.8047 44.0625 59.8359 46.0312 57.4297 46.0312Z" fill="#40971D"/>
<path d="M9.52344 63.5859C10.4295 63.5859 11.1641 62.8514 11.1641 61.9453C11.1641 61.0392 10.4295 60.3047 9.52344 60.3047C8.61735 60.3047 7.88281 61.0392 7.88281 61.9453C7.88281 62.8514 8.61735 63.5859 9.52344 63.5859Z" fill="#40971D"/>
</svg>
