<svg width="60" height="47" viewBox="0 0 60 47" fill="none" xmlns="http://www.w3.org/2000/svg">
<path d="M25.1018 19.5922C29.4975 19.5922 33.0609 16.0287 33.0609 11.633C33.0609 7.23728 29.4975 3.67383 25.1018 3.67383C20.706 3.67383 17.1426 7.23728 17.1426 11.633C17.1426 16.0287 20.706 19.5922 25.1018 19.5922Z" fill="white"/>
<path d="M59.387 32.4492V42.2451H53.8768C53.8768 41.2708 53.4898 40.3365 52.8009 39.6476C52.1119 38.9587 51.1776 38.5716 50.2033 38.5716C49.2291 38.5716 48.2947 38.9587 47.6058 39.6476C46.9169 40.3365 46.5299 41.2708 46.5299 42.2451H42.2441V22.041H52.6523L59.387 32.4492ZM55.1013 32.4492L51.4278 26.3267H46.5299V32.4492H55.1013Z" fill="white"/>
<path d="M13.9293 42.8563H7.9599C7.79752 42.8563 7.6418 42.7918 7.52698 42.6769C7.41216 42.5621 7.34766 42.4064 7.34766 42.244V11.6318C7.34766 11.4694 7.41216 11.3137 7.52698 11.1989C7.6418 11.084 7.79752 11.0195 7.9599 11.0195H14.0824V12.244H8.57215V41.6318H13.9293V42.8563Z" fill="#40971D"/>
<path d="M17.7545 46.5304C16.9068 46.5304 16.0782 46.2791 15.3735 45.8081C14.6687 45.3372 14.1194 44.6679 13.795 43.8848C13.4706 43.1017 13.3857 42.2399 13.5511 41.4086C13.7165 40.5773 14.1246 39.8136 14.724 39.2142C15.3234 38.6149 16.087 38.2067 16.9184 38.0413C17.7497 37.876 18.6114 37.9608 19.3945 38.2852C20.1776 38.6096 20.847 39.1589 21.3179 39.8637C21.7888 40.5685 22.0402 41.3971 22.0402 42.2447C22.0402 43.3813 21.5887 44.4714 20.7849 45.2752C19.9812 46.0789 18.8911 46.5304 17.7545 46.5304ZM17.7545 39.1835C17.149 39.1835 16.5572 39.363 16.0537 39.6994C15.5503 40.0358 15.158 40.5139 14.9263 41.0732C14.6946 41.6326 14.6339 42.2481 14.7521 42.8419C14.8702 43.4357 15.1617 43.9812 15.5899 44.4093C16.018 44.8374 16.5634 45.129 17.1573 45.2471C17.7511 45.3652 18.3666 45.3046 18.9259 45.0729C19.4853 44.8412 19.9634 44.4488 20.2998 43.9454C20.6362 43.442 20.8157 42.8502 20.8157 42.2447C20.8157 41.4328 20.4932 40.6542 19.9191 40.0801C19.345 39.506 18.5664 39.1835 17.7545 39.1835Z" fill="#40971D"/>
<path d="M25.1014 23.2653C22.8007 23.2653 20.5516 22.5831 18.6387 21.3049C16.7257 20.0266 15.2347 18.2099 14.3542 16.0843C13.4738 13.9587 13.2434 11.6198 13.6923 9.36324C14.1411 7.10673 15.249 5.03399 16.8759 3.40713C18.5027 1.78028 20.5755 0.672372 22.832 0.223523C25.0885 -0.225325 27.4274 0.00504022 29.553 0.885488C31.6786 1.76594 33.4954 3.25692 34.7736 5.1699C36.0518 7.08288 36.7341 9.33194 36.7341 11.6327C36.7341 14.7178 35.5085 17.6766 33.3269 19.8582C31.1454 22.0397 28.1866 23.2653 25.1014 23.2653ZM25.1014 1.22449C23.0429 1.22449 21.0306 1.83492 19.3189 2.97859C17.6073 4.12225 16.2733 5.74778 15.4855 7.64963C14.6978 9.55147 14.4916 11.6442 14.8932 13.6632C15.2948 15.6822 16.2861 17.5367 17.7417 18.9923C19.1973 20.448 21.0519 21.4392 23.0709 21.8408C25.0899 22.2424 27.1826 22.0363 29.0844 21.2485C30.9863 20.4608 32.6118 19.1267 33.7555 17.4151C34.8991 15.7035 35.5096 13.6912 35.5096 11.6327C35.5096 8.87224 34.413 6.22488 32.4611 4.27298C30.5092 2.32107 27.8618 1.22449 25.1014 1.22449Z" fill="#40971D"/>
<path d="M12.2451 27.5508H2.44922V28.7753H12.2451V27.5508Z" fill="#40971D"/>
<path d="M46.5299 41.6328H42.2441V42.8573H46.5299V41.6328Z" fill="#40971D"/>
<path d="M59.387 42.8563H53.8768V41.6318H58.7748V32.6257L52.3217 22.6522H42.2441V21.4277H52.6523C52.7547 21.4279 52.8555 21.4538 52.9454 21.503C53.0352 21.5522 53.1113 21.6231 53.1666 21.7094L59.9013 32.1175C59.9649 32.2161 59.9989 32.3308 59.9992 32.4481V42.2441C59.9992 42.4064 59.9347 42.5622 59.8199 42.677C59.7051 42.7918 59.5494 42.8563 59.387 42.8563Z" fill="#40971D"/>
<path d="M42.2453 42.8563H21.582V41.6318H41.6331V12.244H36.1228V11.0195H42.2453C42.4077 11.0195 42.5634 11.084 42.6782 11.1989C42.793 11.3137 42.8575 11.4694 42.8575 11.6318V42.244C42.8575 42.4064 42.793 42.5621 42.6782 42.6769C42.5634 42.7918 42.4077 42.8563 42.2453 42.8563Z" fill="#40971D"/>
<path d="M50.2037 46.5304C49.356 46.5304 48.5274 46.2791 47.8227 45.8081C47.1179 45.3372 46.5686 44.6679 46.2442 43.8848C45.9198 43.1017 45.835 42.2399 46.0003 41.4086C46.1657 40.5773 46.5739 39.8136 47.1732 39.2142C47.7726 38.6149 48.5362 38.2067 49.3676 38.0413C50.1989 37.876 51.0606 37.9608 51.8438 38.2852C52.6269 38.6096 53.2962 39.1589 53.7671 39.8637C54.238 40.5685 54.4894 41.3971 54.4894 42.2447C54.4894 43.3813 54.0379 44.4714 53.2341 45.2752C52.4304 46.0789 51.3403 46.5304 50.2037 46.5304ZM50.2037 39.1835C49.5982 39.1835 49.0064 39.363 48.503 39.6994C47.9995 40.0358 47.6072 40.5139 47.3755 41.0732C47.1438 41.6326 47.0832 42.2481 47.2013 42.8419C47.3194 43.4357 47.6109 43.9812 48.0391 44.4093C48.4672 44.8374 49.0127 45.129 49.6065 45.2471C50.2003 45.3652 50.8158 45.3046 51.3752 45.0729C51.9345 44.8412 52.4126 44.4488 52.749 43.9454C53.0854 43.442 53.2649 42.8502 53.2649 42.2447C53.2649 41.4328 52.9424 40.6542 52.3683 40.0801C51.7942 39.506 51.0156 39.1835 50.2037 39.1835Z" fill="#40971D"/>
<path d="M55.1016 33.0618H46.5302C46.3678 33.0618 46.2121 32.9973 46.0973 32.8825C45.9825 32.7676 45.918 32.6119 45.918 32.4495V26.3271C45.918 26.1647 45.9825 26.009 46.0973 25.8942C46.2121 25.7793 46.3678 25.7148 46.5302 25.7148H51.4282C51.5344 25.7149 51.6388 25.7425 51.7312 25.7951C51.8235 25.8477 51.9005 25.9235 51.9547 26.0148L55.6282 32.1373C55.6833 32.2302 55.7128 32.3361 55.7138 32.4442C55.7147 32.5522 55.687 32.6586 55.6335 32.7525C55.5801 32.8464 55.5027 32.9245 55.4093 32.9788C55.3158 33.0331 55.2097 33.0618 55.1016 33.0618ZM47.1425 31.8373H54.018L51.0792 26.9393H47.1425V31.8373Z" fill="#40971D"/>
<path d="M28.7759 12.5639H25.1025C24.9401 12.5639 24.7844 12.4994 24.6696 12.3845C24.5547 12.2697 24.4902 12.114 24.4902 11.9516V6.44141H25.7147V11.3394H28.7759V12.5639Z" fill="#40971D"/>
<path d="M12.2449 21.4277H0V22.6522H12.2449V21.4277Z" fill="#40971D"/>
<path d="M12.2451 15.3066H2.44922V16.5311H12.2451V15.3066Z" fill="#40971D"/>
</svg>
