<svg width="80" height="80" viewBox="0 0 80 80" fill="none" xmlns="http://www.w3.org/2000/svg">
<path d="M43.9085 0V0.0796635V8.04603C61.5121 10.1969 73.9829 26.0898 71.8175 43.576C69.973 58.0748 58.5046 69.5862 43.9085 71.2989V79.2653C65.9631 77.0745 82.0027 57.6366 79.7973 35.7291C77.9928 16.809 62.8754 1.87209 43.9085 0ZM35.8887 0.119495C28.0694 0.8763 20.611 3.86369 14.5159 8.88249L20.2501 14.7776C24.7412 11.1927 30.1545 8.88249 35.8887 8.08586V0.119495ZM8.86191 14.4988C3.80942 20.5532 0.801983 27.9221 0 35.7291H8.01983C8.78171 30.073 11.0273 24.6957 14.5961 20.1947L8.86191 14.4988ZM53.9333 25.7712L34.365 45.2091L25.8639 36.7648L21.6134 40.9869L34.365 53.6534L58.1838 29.9934L53.9333 25.7712ZM0.0400991 43.6955C0.842082 51.5025 3.92971 58.8714 8.90201 64.9258L14.5961 59.2299C11.0674 54.7289 8.78171 49.3516 8.05993 43.6955H0.0400991ZM20.2501 65.0852L14.5159 70.5421C20.5709 75.5609 28.0293 78.7076 35.8887 79.5441V71.5778C30.1946 70.8608 24.7813 68.5904 20.2501 65.0852Z" fill="#40971D"/>
</svg>
