<svg width="50" height="24" viewBox="0 0 50 24" fill="none" xmlns="http://www.w3.org/2000/svg">
<path d="M46.4812 4.49058C46.2751 4.19611 45.9365 4.01943 45.5831 4.01943H38.7368V1.10424C38.7368 0.500589 38.2362 0 37.6326 0H12.824C12.2203 0 11.7197 0.500589 11.7197 1.10424V18.9488C11.7197 19.5524 12.2203 20.053 12.824 20.053H15.9453C16.5195 22.0554 18.3746 23.5424 20.5536 23.5424C22.7327 23.5424 24.5878 22.0701 25.162 20.053H37.397C37.9712 22.0554 39.8263 23.5424 42.0054 23.5424C44.1844 23.5424 46.0395 22.0701 46.6137 20.053H48.8958C49.4995 20.053 50.0001 19.5524 50.0001 18.9488V9.86455C50.0001 9.62898 49.9264 9.40813 49.7939 9.23145L46.4812 4.49058ZM47.8063 10.1885H42.8593V6.24264H45.0236L47.8063 10.1885ZM13.9282 2.2232H36.5283V17.8592H25.2651C24.8381 15.636 22.8946 13.9576 20.5536 13.9576C18.2127 13.9576 16.2545 15.636 15.8422 17.8592H13.9282V2.2232ZM20.5536 21.3339C19.1255 21.3339 17.9624 20.1708 17.9624 18.7426C17.9624 17.3145 19.1255 16.1514 20.5536 16.1514C21.9818 16.1514 23.1449 17.3145 23.1449 18.7426C23.1449 20.1708 21.9818 21.3339 20.5536 21.3339ZM42.0201 21.3339C40.5919 21.3339 39.4288 20.1708 39.4288 18.7426C39.4288 17.3145 40.5919 16.1514 42.0201 16.1514C43.4482 16.1514 44.6114 17.3145 44.6114 18.7426C44.6114 20.1708 43.4482 21.3339 42.0201 21.3339ZM46.7315 17.8592C46.3045 15.636 44.3611 13.9576 42.0201 13.9576C40.7539 13.9576 39.5908 14.4582 38.7368 15.268V6.24264H40.6361V11.2927C40.6361 11.8963 41.1367 12.3969 41.7403 12.3969H47.821V17.8592H46.7315Z" fill="#76BB20"/>
<path d="M1.10424 2.22319H8.98116C9.58481 2.22319 10.0854 1.7226 10.0854 1.11895C10.0854 0.515298 9.58481 0.0147095 8.98116 0.0147095H1.10424C0.500589 0.0147095 0 0.515298 0 1.11895C0 1.7226 0.500589 2.22319 1.10424 2.22319Z" fill="#76BB20"/>
<path d="M8.98111 4.03412H2.91515C2.3115 4.03412 1.81091 4.53471 1.81091 5.13836C1.81091 5.74201 2.3115 6.2426 2.91515 6.2426H8.98111C9.58476 6.2426 10.0854 5.74201 10.0854 5.13836C10.0854 4.53471 9.59949 4.03412 8.98111 4.03412Z" fill="#76BB20"/>
<path d="M8.9811 8.05359H5.15307C4.54942 8.05359 4.04883 8.55418 4.04883 9.15783C4.04883 9.76148 4.54942 10.2621 5.15307 10.2621H8.9811C9.58475 10.2621 10.0853 9.76148 10.0853 9.15783C10.0853 8.55418 9.59948 8.05359 8.9811 8.05359Z" fill="#76BB20"/>
<path d="M8.98121 12.073H7.65612C7.05247 12.073 6.55188 12.5736 6.55188 13.1772C6.55188 13.7809 7.05247 14.2815 7.65612 14.2815H8.98121C9.58486 14.2815 10.0854 13.7809 10.0854 13.1772C10.0854 12.5736 9.59958 12.073 8.98121 12.073Z" fill="#76BB20"/>
</svg>
