<svg width="17" height="22" viewBox="0 0 17 22" fill="none" xmlns="http://www.w3.org/2000/svg">
<path d="M1.47794 5.86607C2.5545 3.022 5.30049 1 8.52039 1C12.677 1 16.0465 4.37056 16.0465 8.52679C16.0465 11.8636 11.1949 18.2478 9.28213 20.6348C9.19053 20.7488 9.07453 20.8408 8.94267 20.904C8.8108 20.9672 8.66644 21 8.52022 21C8.37399 21 8.22963 20.9672 8.09777 20.904C7.96591 20.8408 7.8499 20.7488 7.7583 20.6348C5.88428 18.2964 1.18976 12.1215 1 8.73374" stroke="#40971D" stroke-miterlimit="10" stroke-linecap="round"/>
<path d="M5.06934 8.52413C5.07538 7.615 5.44096 6.7452 6.08623 6.10474" stroke="#40971D" stroke-miterlimit="10" stroke-linecap="round"/>
<path d="M7.25746 5.33792C7.88387 5.09175 8.56859 5.03406 9.22736 5.17196C9.88613 5.30986 10.4902 5.63732 10.9653 6.11406C11.4404 6.5908 11.7658 7.19602 11.9014 7.85526C12.037 8.51451 11.977 9.19902 11.7286 9.82458C11.4803 10.4501 11.0545 10.9895 10.5037 11.3762C9.95282 11.7629 9.30093 11.9802 8.62821 12.0013C7.95549 12.0224 7.29128 11.8463 6.7173 11.4949C6.14332 11.1434 5.6846 10.6318 5.39758 10.023" stroke="#40971D" stroke-miterlimit="10" stroke-linecap="round"/>
</svg>
