<svg width="51" height="50" viewBox="0 0 51 50" fill="none" xmlns="http://www.w3.org/2000/svg">
<path d="M46.4567 19.2492C46.288 18.6305 46.5129 17.6603 46.7238 16.7323C47.0472 15.3403 47.4128 13.7655 46.6676 12.5C45.9224 11.2064 44.3616 10.7283 42.9837 10.3206C42.0838 10.0394 41.1417 9.75816 40.7059 9.32227C40.27 8.88639 39.9747 7.94432 39.7075 7.04443C39.2857 5.66648 38.8217 4.10574 37.5281 3.36052C37.0219 3.06524 36.4314 2.92463 35.7424 2.92463C34.9409 2.92463 34.0973 3.12148 33.2958 3.30427C32.5647 3.473 31.8757 3.62767 31.2852 3.62767C31.0883 3.62767 30.9196 3.61361 30.7649 3.57143C30.1884 3.41676 29.4854 2.75591 28.8105 2.12317C27.7559 1.12486 26.5467 0 25.0141 0C23.4814 0 22.2863 1.12486 21.2177 2.12317C20.5427 2.75591 19.8397 3.41676 19.2632 3.57143C19.1226 3.61361 18.9398 3.62767 18.743 3.62767C18.1665 3.62767 17.4634 3.473 16.7323 3.30427C15.9168 3.12148 15.0872 2.92463 14.2857 2.92463C13.5827 2.92463 13.0062 3.06524 12.5 3.36052C11.2064 4.10574 10.7283 5.66648 10.3206 7.04443C10.0394 7.94432 9.75815 8.88639 9.32227 9.32227C8.88639 9.75816 7.94432 10.0534 7.04443 10.3206C5.66648 10.7424 4.10574 11.2064 3.36052 12.5C2.6153 13.7795 2.98088 15.3543 3.30427 16.7323C3.51519 17.6603 3.74016 18.6305 3.57143 19.2492C3.41676 19.8256 2.75591 20.5287 2.12317 21.2036C1.12486 22.2582 0 23.4674 0 25C0 26.5326 1.12486 27.7278 2.12317 28.7964C2.75591 29.4713 3.41676 30.1744 3.57143 30.7508C3.74016 31.3695 3.51519 32.3397 3.30427 33.2677C2.98088 34.6597 2.6153 36.2345 3.36052 37.5C4.10574 38.7936 5.66648 39.2717 7.04443 39.6794C7.94432 39.9606 8.88639 40.2418 9.32227 40.6777C9.75815 41.1136 10.0534 42.0557 10.3206 42.9556C10.7424 44.3335 11.2064 45.8943 12.5 46.6395C13.0062 46.9348 13.5967 47.0754 14.2857 47.0754C15.0872 47.0754 15.9308 46.8785 16.7323 46.6957C17.4634 46.527 18.1524 46.3723 18.743 46.3723C18.9398 46.3723 19.1085 46.3864 19.2632 46.4286C19.8397 46.5832 20.5427 47.2441 21.2177 47.8768C22.2722 48.8751 23.4814 50 25.0141 50C26.5467 50 27.7418 48.8751 28.8105 47.8768C29.4854 47.2441 30.1884 46.5832 30.7649 46.4286C30.9055 46.3864 31.0883 46.3723 31.2852 46.3723C31.8616 46.3723 32.5647 46.527 33.2958 46.6957C34.1114 46.8785 34.9409 47.0754 35.7424 47.0754C36.4454 47.0754 37.0219 46.9348 37.5281 46.6395C38.8217 45.8943 39.2998 44.3335 39.7075 42.9556C39.9888 42.0557 40.27 41.1136 40.7059 40.6777C41.1417 40.2418 42.0838 39.9466 42.9837 39.6794C44.3616 39.2576 45.9224 38.7936 46.6676 37.5C47.4128 36.2205 47.0472 34.6457 46.7238 33.2677C46.5129 32.3397 46.288 31.3695 46.4567 30.7508C46.6114 30.1744 47.2722 29.4713 47.9049 28.7964C48.9033 27.7418 50.0281 26.5326 50.0281 25C50.0281 23.4674 48.9033 22.2722 47.9049 21.2036C47.2722 20.5287 46.6114 19.8256 46.4567 19.2492ZM46.3583 27.3481C45.5427 28.2199 44.7132 29.1057 44.4179 30.2025C44.1086 31.3414 44.4038 32.5647 44.671 33.7458C44.91 34.8003 45.1631 35.8971 44.8397 36.4595C44.5023 37.036 43.4196 37.3594 42.365 37.6828C41.212 38.0343 40.0169 38.3999 39.2014 39.2154C38.3858 40.0309 38.0202 41.2261 37.6687 42.3791C37.3453 43.4336 37.0219 44.5163 36.4454 44.8538C36.2627 44.9522 36.0236 45.0084 35.7143 45.0084C35.1519 45.0084 34.4629 44.8538 33.7317 44.685C32.9162 44.5023 32.0726 44.3054 31.257 44.3054C30.8633 44.3054 30.5259 44.3476 30.2025 44.4319C29.1057 44.7272 28.2199 45.5568 27.3481 46.3723C26.5326 47.1316 25.689 47.919 25 47.919C24.311 47.919 23.4674 47.1316 22.6519 46.3723C21.7801 45.5568 20.8943 44.7272 19.7975 44.4319C19.4741 44.3476 19.1226 44.3054 18.743 44.3054C17.9274 44.3054 17.0838 44.5023 16.2683 44.685C15.5371 44.8538 14.8622 45.0084 14.2857 45.0084C13.9764 45.0084 13.7373 44.9522 13.5546 44.8538C12.9781 44.5163 12.6547 43.4336 12.3313 42.3791C11.9798 41.2261 11.6142 40.0309 10.7986 39.2154C9.98313 38.3999 8.78796 38.0343 7.63498 37.6828C6.58043 37.3594 5.49775 37.036 5.16029 36.4595C4.8369 35.8971 5.08999 34.8144 5.32902 33.7458C5.59618 32.5647 5.89145 31.3414 5.58212 30.2025C5.28684 29.1057 4.45726 28.2199 3.64173 27.3481C2.88245 26.5326 2.09505 25.689 2.09505 25C2.09505 24.297 2.88245 23.4674 3.64173 22.6519C4.45726 21.7801 5.28684 20.8943 5.58212 19.7975C5.89145 18.6586 5.59618 17.4353 5.32902 16.2542C5.08999 15.1997 4.8369 14.1029 5.16029 13.5405C5.49775 12.964 6.58043 12.6406 7.63498 12.3172C8.78796 11.9657 9.98313 11.6001 10.7986 10.7846C11.6142 9.96907 11.9798 8.7739 12.3313 7.62092C12.6547 6.56637 12.9781 5.48369 13.5546 5.14623C13.7373 5.04781 13.9764 4.99156 14.2857 4.99156C14.8481 4.99156 15.5371 5.14623 16.2683 5.31496C17.0838 5.49775 17.9274 5.6946 18.743 5.6946C19.1367 5.6946 19.4741 5.65242 19.7975 5.56806C20.8943 5.27278 21.7801 4.4432 22.6519 3.62767C23.4674 2.86839 24.311 2.08099 25 2.08099C25.689 2.08099 26.5326 2.86839 27.3481 3.62767C28.2199 4.4432 29.1057 5.27278 30.2025 5.56806C30.5259 5.65242 30.8774 5.6946 31.257 5.6946C32.0726 5.6946 32.9162 5.49775 33.7317 5.31496C34.4629 5.14623 35.1378 4.99156 35.7143 4.99156C36.0236 4.99156 36.2627 5.04781 36.4454 5.14623C37.0219 5.48369 37.3453 6.56637 37.6687 7.62092C38.0202 8.7739 38.3858 9.96907 39.2014 10.7846C40.0169 11.6001 41.212 11.9657 42.365 12.3172C43.4196 12.6406 44.5023 12.964 44.8397 13.5405C45.1631 14.1029 44.91 15.1856 44.671 16.2542C44.4038 17.4353 44.1086 18.6586 44.4179 19.7975C44.7132 20.8943 45.5427 21.7801 46.3583 22.6519C47.1175 23.4674 47.9049 24.311 47.9049 25C47.919 25.703 47.1316 26.5326 46.3583 27.3481Z" fill="#76BB20"/>
<path d="M16.9854 21.991C19.7553 21.991 21.991 19.7413 21.991 16.9854C21.991 14.2154 19.7413 11.9797 16.9854 11.9797C14.2154 11.9797 11.9797 14.2295 11.9797 16.9854C11.9797 19.7413 14.2295 21.991 16.9854 21.991ZM16.9854 14.0748C18.5883 14.0748 19.8819 15.3824 19.8819 16.9713C19.8819 18.5742 18.5742 19.8678 16.9854 19.8678C15.3965 19.8678 14.0888 18.5602 14.0888 16.9713C14.0888 15.3824 15.3965 14.0748 16.9854 14.0748Z" fill="#76BB20"/>
<path d="M33.0427 28.0091C30.2728 28.0091 28.0371 30.2588 28.0371 33.0147C28.0371 35.7847 30.2868 38.0203 33.0427 38.0203C35.8127 38.0203 38.0484 35.7706 38.0484 33.0147C38.0484 30.2588 35.7986 28.0091 33.0427 28.0091ZM33.0427 35.9253C31.4398 35.9253 30.1462 34.6176 30.1462 33.0288C30.1462 31.4399 31.4539 30.1323 33.0427 30.1323C34.6316 30.1323 35.9392 31.4399 35.9392 33.0288C35.9392 34.6176 34.6316 35.9253 33.0427 35.9253Z" fill="#76BB20"/>
<path d="M36.6845 13.3296C36.2767 12.9218 35.6018 12.9218 35.1941 13.3296L13.3437 35.1659C12.9359 35.5737 12.9359 36.2486 13.3437 36.6563C13.5546 36.8672 13.8217 36.9657 14.0889 36.9657C14.356 36.9657 14.6232 36.8672 14.8341 36.6563L36.6845 14.8341C37.0923 14.4122 37.0923 13.7514 36.6845 13.3296Z" fill="#76BB20"/>
</svg>
