<svg width="60" height="54" viewBox="0 0 60 54" fill="none" xmlns="http://www.w3.org/2000/svg">
<path d="M30 50.125L30 46.375C30 44.3031 28.3219 42.6251 26.25 42.6251L3.75009 42.6251C1.67813 42.6251 8.22108e-05 44.3031 8.21202e-05 46.375L8.19563e-05 50.125C8.18658e-05 52.1969 1.67813 53.875 3.75009 53.875L26.25 53.875C28.3218 53.875 30 52.1969 30 50.125ZM5.62505 50.125C4.59007 50.125 3.75009 49.285 3.75009 48.25C3.75009 47.215 4.59007 46.375 5.62505 46.375L24.3751 46.375C25.4101 46.375 26.25 47.215 26.25 48.25C26.25 49.285 25.4101 50.125 24.3751 50.125L5.62505 50.125ZM60 31.375L60 27.625C60 25.5532 58.3219 23.875 56.25 23.875L3.75001 23.875C1.67805 23.875 -8.92943e-07 25.5532 -9.83508e-07 27.625L-1.14743e-06 31.375C-1.23799e-06 33.447 1.67805 35.125 3.75001 35.125L56.25 35.125C58.3219 35.125 60 33.4469 60 31.375ZM5.62505 31.375C4.59007 31.375 3.75009 30.535 3.75009 29.5C3.75009 28.465 4.59007 27.6249 5.62505 27.6249L54.375 27.625C55.41 27.625 56.2501 28.4649 56.2501 29.5C56.2501 30.5351 55.4101 31.375 54.375 31.375L5.62505 31.375ZM43.125 12.625L43.125 8.875C43.125 6.80313 41.4451 5.125 39.375 5.125L3.75009 5.125C1.67813 5.125 8.385e-05 6.80313 8.37594e-05 8.875L8.35955e-05 12.625C8.35049e-05 14.6969 1.67813 16.375 3.75009 16.375L39.375 16.375C41.4469 16.375 43.125 14.6969 43.125 12.625ZM5.62505 12.625C4.59007 12.625 3.75009 11.785 3.75009 10.75C3.75009 9.7149 4.59007 8.875 5.62505 8.875L37.5001 8.875C38.535 8.875 39.3751 9.71499 39.3751 10.75C39.3751 11.7849 38.5351 12.625 37.5001 12.625L5.62505 12.625Z" fill="#D9D9D9"/>
<path d="M30 45.125L30 41.375C30 39.3031 28.3219 37.6251 26.25 37.6251L3.75009 37.6251C1.67813 37.6251 8.22108e-05 39.3031 8.21202e-05 41.375L8.19563e-05 45.125C8.18658e-05 47.1969 1.67813 48.875 3.75009 48.875L26.25 48.875C28.3218 48.875 30 47.1969 30 45.125ZM5.62505 45.125C4.59007 45.125 3.75009 44.285 3.75009 43.25C3.75009 42.215 4.59007 41.375 5.62505 41.375L24.3751 41.375C25.4101 41.375 26.25 42.215 26.25 43.25C26.25 44.285 25.4101 45.125 24.3751 45.125L5.62505 45.125ZM60 26.375L60 22.625C60 20.5532 58.3219 18.875 56.25 18.875L3.75001 18.875C1.67805 18.875 -8.92943e-07 20.5532 -9.83508e-07 22.625L-1.14743e-06 26.375C-1.23799e-06 28.447 1.67805 30.125 3.75001 30.125L56.25 30.125C58.3219 30.125 60 28.4469 60 26.375ZM5.62505 26.375C4.59007 26.375 3.75009 25.535 3.75009 24.5C3.75009 23.465 4.59007 22.6249 5.62505 22.6249L54.375 22.625C55.41 22.625 56.2501 23.4649 56.2501 24.5C56.2501 25.5351 55.4101 26.375 54.375 26.375L5.62505 26.375ZM43.125 7.62501L43.125 3.875C43.125 1.80313 41.4451 0.124999 39.375 0.124999L3.75009 0.124998C1.67813 0.124997 8.385e-05 1.80313 8.37594e-05 3.875L8.35955e-05 7.62501C8.35049e-05 9.69688 1.67813 11.375 3.75009 11.375L39.375 11.375C41.4469 11.375 43.125 9.69688 43.125 7.62501ZM5.62505 7.62501C4.59007 7.62501 3.75009 6.78503 3.75009 5.74997C3.75009 4.7149 4.59007 3.875 5.62505 3.875L37.5001 3.875C38.535 3.875 39.3751 4.71499 39.3751 5.74997C39.3751 6.78495 38.5351 7.62501 37.5001 7.62501L5.62505 7.62501Z" fill="#40971D"/>
</svg>
