<svg width="51" height="36" viewBox="0 0 51 36" fill="none" xmlns="http://www.w3.org/2000/svg">
<path d="M47.1999 0H3.09833C1.43971 0 0.0772705 1.34417 0.0772705 3.01329V8.06499V15.4357V32.777C0.0772705 34.4313 1.4249 35.7902 3.09833 35.7902H47.1851C48.8437 35.7902 50.2061 34.4461 50.2061 32.777V15.421V8.05022V2.99852C50.2061 1.34417 48.8585 0 47.1999 0ZM3.09833 2.21566H47.1851C47.6293 2.21566 47.9848 2.57016 47.9848 3.01329V6.95716H2.31345V3.01329C2.31345 2.57016 2.66887 2.21566 3.09833 2.21566ZM47.9848 14.3131H40.1952L46.104 9.15805H47.9848V14.3131ZM29.3253 14.3131L35.2341 9.15805H42.7423L36.8335 14.3131H29.3253ZM18.4406 14.3131L24.3494 9.15805H31.8576L25.9488 14.3131H18.4406ZM7.57068 14.3131L13.4795 9.15805H20.9877L15.0789 14.3131H7.57068ZM2.31345 14.3131V9.15805H10.103L4.19421 14.3131H2.31345ZM47.1999 33.5598H3.09833C2.65406 33.5598 2.29864 33.2053 2.29864 32.7622V16.5288H47.97V32.7622C47.9848 33.2053 47.6293 33.5598 47.1999 33.5598Z" fill="#76BB20"/>
<path d="M35.1601 24.7415C37.026 24.7415 38.5365 23.2349 38.5365 21.3737C38.5365 19.5126 37.026 18.0059 35.1601 18.0059C33.2941 18.0059 31.7836 19.5126 31.7836 21.3737C31.7836 23.2349 33.2941 24.7415 35.1601 24.7415ZM35.1601 20.2363C35.7968 20.2363 36.3152 20.7533 36.3152 21.3885C36.3152 22.0236 35.7968 22.5406 35.1601 22.5406C34.5233 22.5406 34.0049 22.0236 34.0049 21.3885C34.0049 20.7533 34.5233 20.2363 35.1601 20.2363Z" fill="#76BB20"/>
<path d="M42.6536 25.938C40.7876 25.938 39.2771 27.4446 39.2771 29.3058C39.2771 31.1669 40.7876 32.6736 42.6536 32.6736C44.5195 32.6736 46.0301 31.1669 46.0301 29.3058C46.0301 27.4446 44.5047 25.938 42.6536 25.938ZM42.6536 30.4432C42.0168 30.4432 41.4985 29.9262 41.4985 29.291C41.4985 28.6559 42.0168 28.1389 42.6536 28.1389C43.2904 28.1389 43.8087 28.6559 43.8087 29.291C43.8087 29.9262 43.2904 30.4432 42.6536 30.4432Z" fill="#76BB20"/>
<path d="M44.7416 19.2467C44.3121 18.8183 43.6013 18.8183 43.1718 19.2467L33.0572 29.3353C32.6277 29.7637 32.6277 30.4727 33.0572 30.901C33.2793 31.1226 33.5607 31.226 33.8421 31.226C34.1235 31.226 34.4048 31.1226 34.627 30.901L44.7416 20.8124C45.1711 20.3841 45.1711 19.675 44.7416 19.2467Z" fill="#76BB20"/>
</svg>
