<svg width="79" height="84" viewBox="0 0 79 84" fill="none" xmlns="http://www.w3.org/2000/svg">
<g clip-path="url(#clip0_159_2939)">
<path d="M20.5456 49.0122C9.21712 49.0122 0.0136719 39.8605 0.0136719 28.6288C0.0136719 17.3822 9.23208 8.23047 20.5456 8.23047C31.874 8.23047 41.0924 17.3822 41.0924 28.6288C41.0924 39.8605 31.874 49.0122 20.5456 49.0122ZM20.5456 9.71614C10.0402 9.71614 1.51017 18.1994 1.51017 28.6288C1.51017 39.0582 10.0551 47.5266 20.5456 47.5266C31.051 47.5266 39.596 39.0434 39.596 28.6288C39.596 18.2142 31.051 9.71614 20.5456 9.71614Z" fill="#231F20"/>
<path d="M20.5466 84.0001C9.21809 84.0001 0.0146484 74.8483 0.0146484 63.6018H1.51114C1.51114 74.0312 10.0561 82.5144 20.5466 82.5144C31.052 82.5144 39.597 74.0312 39.597 63.6018H41.0935C41.0935 74.8483 31.875 84.0001 20.5466 84.0001Z" fill="#231F20"/>
<path d="M20.5472 45.7736C11.0145 45.7736 3.2627 38.0778 3.2627 28.6141C3.2627 19.1504 11.0145 11.4546 20.5472 11.4546C24.7823 11.4546 28.8527 12.9848 32.0103 15.763C35.7067 19.0166 37.8317 23.6965 37.8317 28.6141C37.8317 38.0778 30.0799 45.7736 20.5472 45.7736ZM20.5472 12.9402C11.8376 12.9402 4.7592 19.9675 4.7592 28.6141C4.7592 37.2607 11.8376 44.288 20.5472 44.288C29.2568 44.288 36.3352 37.2607 36.3352 28.6141C36.3352 24.1274 34.3898 19.8635 31.0077 16.8773C28.1344 14.3516 24.4231 12.9402 20.5472 12.9402Z" fill="#231F20"/>
<path d="M20.5464 42.297C12.9442 42.297 6.76367 36.1612 6.76367 28.614C6.76367 21.0668 12.9442 14.9309 20.5464 14.9309C28.1486 14.9309 34.3291 21.0668 34.3291 28.614C34.3291 36.1612 28.1486 42.297 20.5464 42.297ZM20.5464 16.4315C13.7822 16.4315 8.26017 21.8987 8.26017 28.6288C8.26017 35.3589 13.7673 40.8262 20.5464 40.8262C27.3105 40.8262 32.8326 35.3589 32.8326 28.6288C32.8326 21.8987 27.3255 16.4315 20.5464 16.4315Z" fill="#231F20"/>
<path d="M20.5468 39.0585C14.7404 39.0585 10.0264 34.3786 10.0264 28.6142C10.0264 22.8498 14.7404 18.1699 20.5468 18.1699C26.3532 18.1699 31.0671 22.8498 31.0671 28.6142C31.0671 34.3786 26.3532 39.0585 20.5468 39.0585ZM20.5468 19.6556C15.5784 19.6556 11.5229 23.6818 11.5229 28.6142C11.5229 33.5466 15.5635 37.5728 20.5468 37.5728C25.5151 37.5728 29.5707 33.5466 29.5707 28.6142C29.5707 23.6818 25.5301 19.6556 20.5468 19.6556Z" fill="#231F20"/>
<path d="M76.5002 82.9169C74.0759 82.9169 63.1963 82.9169 63.1963 82.9169C61.0863 82.9169 63.664 82.9169 63.664 82.9169C63.664 82.9169 58.0883 82.9169 55.664 82.9169C53.2396 82.9169 50.664 82.9169 50.664 82.9169C50.664 82.9169 51.404 82.9169 49.2939 82.9169V53.5C51.7182 53.5 52.9454 54.0348 54.1276 54.5548C55.22 55.0302 56.2526 55.4759 58.3627 55.4759C60.4727 55.4759 61.5053 55.0302 62.5977 54.5548C63.78 54.0348 65.0071 53.5 67.4314 53.5C69.8558 53.5 71.0829 54.0348 72.2651 54.5548C73.3575 55.0302 74.3901 55.4759 76.5002 55.4759V82.9169Z" fill="white"/>
<path d="M20.5464 35.3292C16.8201 35.3292 13.7822 32.3133 13.7822 28.614C13.7822 24.9146 16.8201 21.8987 20.5464 21.8987C24.2726 21.8987 27.3105 24.9146 27.3105 28.614C27.3105 32.3133 24.2876 35.3292 20.5464 35.3292ZM20.5464 23.3992C17.6432 23.3992 15.2787 25.7466 15.2787 28.6288C15.2787 31.511 17.6432 33.8584 20.5464 33.8584C23.4496 33.8584 25.814 31.511 25.814 28.6288C25.814 25.7317 23.4496 23.3992 20.5464 23.3992Z" fill="#231F20"/>
<path d="M20.5473 32.2688C18.527 32.2688 16.8809 30.6346 16.8809 28.6289C16.8809 26.6233 18.527 24.989 20.5473 24.989C22.5675 24.989 24.2137 26.6233 24.2137 28.6289C24.2287 30.6346 22.5825 32.2688 20.5473 32.2688ZM20.5473 26.4598C19.3501 26.4598 18.3774 27.4255 18.3774 28.6141C18.3774 29.8026 19.3501 30.7683 20.5473 30.7683C21.7445 30.7683 22.7172 29.8026 22.7172 28.6141C22.7322 27.4255 21.7594 26.4598 20.5473 26.4598Z" fill="#231F20"/>
<path d="M1.4965 28.2871H0V64.1067H1.4965V28.2871Z" fill="#231F20"/>
<path d="M41.0785 28.2871H39.582V64.1067H41.0785V28.2871Z" fill="#231F20"/>
<path d="M35.3168 42.8022H33.8203V57.7184H35.3168V42.8022Z" fill="#231F20"/>
<path d="M10.7749 46.1152H9.27832V73.6448H10.7749V46.1152Z" fill="#231F20"/>
<path d="M23.2856 67.3457H21.7891V83.0938H23.2856V67.3457Z" fill="#231F20"/>
<path d="M60.4882 75.9031H58.9917V1.48567H20.2026V7.33923H18.7061V0H60.4882V75.9031Z" fill="#231F20"/>
<path d="M68.0155 0H63.5859V1.48567H68.0155V0Z" fill="#231F20"/>
<path d="M68.0155 8.20093H63.5859V9.6866H68.0155V8.20093Z" fill="#231F20"/>
<path d="M68.0155 16.4019H63.5859V17.8875H68.0155V16.4019Z" fill="#231F20"/>
<path d="M68.0155 24.6177H63.5859V26.1033H68.0155V24.6177Z" fill="#231F20"/>
<path d="M68.0155 32.8186H63.5859V34.3043H68.0155V32.8186Z" fill="#231F20"/>
<path d="M68.0155 41.0193H63.5859V42.505H68.0155V41.0193Z" fill="#231F20"/>
<path d="M68.0155 49.2351H63.5859V50.7208H68.0155V49.2351Z" fill="#231F20"/>
<path d="M68.0155 57.4363H63.5859V58.9219H68.0155V57.4363Z" fill="#231F20"/>
<path d="M68.0155 65.6372H63.5859V67.1229H68.0155V65.6372Z" fill="#231F20"/>
<path d="M68.0155 73.8379H63.5859V75.3236H68.0155V73.8379Z" fill="#231F20"/>
<path d="M76.8754 83.0195H48.1426V22.5823H44.9102V21.0967H49.6391V81.5339H75.3789L75.3639 20.9927H79.0004V22.4783H76.8604L76.8754 83.0195Z" fill="#231F20"/>
<path d="M76.3362 56.5447C73.9119 56.5447 72.6848 56.0098 71.5026 55.4898C70.4101 55.0144 69.3775 54.5687 67.2675 54.5687C65.1574 54.5687 64.1248 55.0144 63.0324 55.4898C61.8502 56.0098 60.623 56.5447 58.1987 56.5447C55.7744 56.5447 54.5473 56.0098 53.365 55.4898C52.2726 55.0144 51.24 54.5687 49.1299 54.5687V53.083C51.5543 53.083 52.7814 53.6179 53.9636 54.1379C55.0561 54.6133 56.0886 55.059 58.1987 55.059C60.3088 55.059 61.3413 54.6133 62.4338 54.1379C63.616 53.6179 64.8431 53.083 67.2675 53.083C69.6918 53.083 70.9189 53.6179 72.1012 54.1379C73.1936 54.6133 74.2262 55.059 76.3362 55.059V56.5447Z" fill="#231F20"/>
</g>
<defs>
<clipPath id="clip0_159_2939">
<rect width="79" height="84" fill="white"/>
</clipPath>
</defs>
</svg>
