<svg width="100" height="107" viewBox="0 0 100 107" fill="none" xmlns="http://www.w3.org/2000/svg">
<g clip-path="url(#clip0_148_3548)">
<path d="M21.5995 37.342L73.1595 38.8856H82.899L74.9469 31.1984L81.8084 30.0522L72.2659 24.6575L78.5064 21.7232L67.9641 19.0029L73.1595 14.5098L62.3598 14.6168L66.1314 8.90112L55.8012 11.8507L57.8915 5.325L48.7579 10.8879L49.0457 4.04126L41.7449 11.7895L40.1999 5.09576L35.2166 14.4793L31.9752 8.38151L29.6577 18.7431L24.9319 13.654L25.3863 24.2448L19.479 20.47L22.6598 30.5871L15.9346 28.3711L21.5995 37.342Z" fill="white"/>
<path d="M24.5077 39.0995L16.4799 38.4882L16.6011 36.9599L21.5995 37.342L15.9346 28.3711L22.6598 30.5871L19.479 20.47L25.3863 24.2448L24.9319 13.654L29.6577 18.7431L31.9752 8.38151L35.2166 14.4793L40.1999 5.09576L41.7449 11.7895L49.0457 4.04126L48.7579 10.8879L57.8915 5.325L55.8012 11.8507L66.1314 8.90112L62.3598 14.6168L73.1595 14.5098L67.9641 19.0029L78.5064 21.7232L72.2659 24.6575L81.8084 30.0522L74.9469 31.1984L82.899 38.8856L74.3561 37.9839L74.5076 36.4709L78.6578 36.8988L71.7206 30.1898L77.2946 29.2575L68.9335 24.5352L74.0229 22.1511L64.7833 19.7518L69.0093 16.0839L59.5122 16.1756L62.587 11.4992L53.4837 14.0819L55.2105 8.7483L47.1372 13.654L47.3644 8.0453L40.8967 14.9072L39.6395 9.40545L35.2317 17.7192L32.5659 12.7065L30.5059 21.8913L26.6132 17.7039L27.0373 27.1027L22.1751 24.0003L25.0076 32.9712L19.479 31.1526L24.5077 39.0995Z" fill="black"/>
<path d="M59 37H57.5714C57.5714 37 53.7286 37 49 37C44.2714 37 40.4286 37 40.4286 37H39C39 32.0371 43.4857 28 49 28C54.5143 28 59 32.0371 59 37Z" fill="#9CD087"/>
<path d="M59.2696 38.4271H57.7549C57.7549 33.3685 53.6804 29.2575 48.6668 29.2575C43.6532 29.2575 39.5787 33.3685 39.5787 38.4271H38.064C38.064 32.528 42.8201 27.7292 48.6668 27.7292C54.5135 27.7292 59.2696 32.528 59.2696 38.4271Z" fill="black"/>
<path d="M34.3533 28.7226L33.2324 27.6833C37.1858 23.343 42.8204 20.8521 48.652 20.8521C53.4384 20.8521 58.1188 22.5179 61.8297 25.5438L60.8755 26.7358C57.4371 23.9239 53.09 22.3803 48.652 22.3803C43.2445 22.3803 38.0189 24.7033 34.3533 28.7226Z" fill="black"/>
<path d="M96.0465 36.5625H3.42334V50.9434H96.0465V36.5625Z" fill="white"/>
<path d="M96.7887 51.7077H2.66602V35.7986H96.7887V51.7077ZM4.18071 50.1795H95.2741V37.3268H4.18071V50.1795Z" fill="#231F20"/>
<path d="M2.81738 39.9858C18.2975 39.9858 18.2975 48.5441 33.7928 48.5441C49.2729 48.5441 49.2729 39.9858 64.7682 39.9858C80.2634 39.9858 80.2634 48.5441 95.7435 48.5441" fill="white"/>
<path d="M95.7439 49.3236C87.807 49.3236 83.793 47.1076 79.9003 44.9527C76.0075 42.7979 72.3268 40.7653 64.7686 40.7653C57.2254 40.7653 53.5447 42.7979 49.652 44.9527C45.7592 47.1076 41.7453 49.3236 33.8083 49.3236C25.8714 49.3236 21.8423 47.0923 17.9647 44.9527C14.072 42.7979 10.3913 40.7653 2.84814 40.7653V39.2371C10.7851 39.2371 14.799 41.4683 18.6918 43.6079C22.5845 45.7627 26.2652 47.7953 33.8083 47.7953C41.3515 47.7953 45.0322 45.7627 48.9249 43.6079C52.8177 41.453 56.8316 39.2371 64.7686 39.2371C72.7055 39.2371 76.7346 41.4683 80.6273 43.6079C84.5201 45.7627 88.2008 47.7953 95.7439 47.7953V49.3236Z" fill="#231F20"/>
<path d="M33.2018 42.3852C24.6438 42.3852 19.2364 37.0821 19.1455 37.0057L20.221 35.9207C20.6754 36.3791 31.5811 47.0005 47.2733 35.8442L48.1518 37.0974C42.5626 41.0556 37.4884 42.3852 33.2018 42.3852Z" fill="#231F20"/>
<path d="M50.9239 51.3102L50.0454 50.0571C66.7978 38.1366 78.9153 50.0265 79.0365 50.1335L77.9611 51.2185C77.5218 50.7753 66.6161 40.1539 50.9239 51.3102Z" fill="#231F20"/>
<path d="M90.6089 30.8315H84.7168V32.3598H90.6089V30.8315Z" fill="#231F20"/>
<path d="M97.4278 20.4082L89.9375 25.2707L90.7571 26.5559L98.2474 21.6935L97.4278 20.4082Z" fill="#231F20"/>
<path d="M97.7646 10.8896L92.6738 18.1885L93.9126 19.068L99.0033 11.7691L97.7646 10.8896Z" fill="#231F20"/>
<path d="M94.6544 0.984131L92.8623 9.72441L94.3456 10.034L96.1378 1.29376L94.6544 0.984131Z" fill="#231F20"/>
<path d="M88.958 91.8856H72.766C69.6003 91.8856 67.0254 89.3334 67.0254 86.1852V65.1716C67.0254 62.0234 69.6003 59.4712 72.766 59.4712H88.958C92.1237 59.4712 94.6987 62.0234 94.6987 65.1716V86.1699C94.6836 89.3334 92.1086 91.8856 88.958 91.8856Z" fill="white"/>
<path d="M88.958 91.8855H72.766C69.6003 91.8855 67.0254 89.3333 67.0254 86.1851V65.1716C67.0254 62.0234 69.6003 59.4712 72.766 59.4712H88.958C92.1237 59.4712 94.6987 62.0234 94.6987 65.1716V86.1698C94.6836 89.3333 92.1086 91.8855 88.958 91.8855ZM72.766 60.9994C70.4334 60.9994 68.5401 62.8792 68.5401 65.1716V86.1698C68.5401 88.4775 70.4334 90.342 72.766 90.342H88.958C91.2907 90.342 93.184 88.4622 93.184 86.1698V65.1716C93.184 62.8639 91.2907 60.9994 88.958 60.9994H72.766Z" fill="#231F20"/>
<path d="M75.1739 64.3616H73.6592V87.423H75.1739V64.3616Z" fill="#231F20"/>
<path d="M81.6114 64.3616H80.0967V87.423H81.6114V64.3616Z" fill="#231F20"/>
<path d="M88.0489 64.3616H86.5342V87.423H88.0489V64.3616Z" fill="#231F20"/>
<path d="M88.4575 57.5455H73.25V52.6245H88.4575V57.5455Z" fill="white"/>
<path d="M88.4575 99.1449H73.25V94.2239H88.4575V99.1449Z" fill="white"/>
<path d="M88.4575 57.5455H73.25V52.6245H88.4575V57.5455ZM74.7647 56.0172H86.9428V54.1528H74.7647V56.0172Z" fill="#231F20"/>
<path d="M88.4575 99.1449H73.25V94.2239H88.4575V99.1449ZM74.7647 97.6166H86.9428V95.7521H74.7647V97.6166Z" fill="#231F20"/>
<path d="M27.5219 107C22.4022 107 18.2368 102.797 18.2368 97.6318C18.2368 92.4662 22.4022 88.2788 27.5219 88.2788C32.6415 88.2788 36.7917 92.4815 36.7917 97.6318C36.7917 102.797 32.6264 107 27.5219 107Z" fill="white"/>
<path d="M26.5069 71C21.8163 71 18 67.1837 18 62.4931C18 57.8024 21.8163 54 26.5069 54C31.1976 54 35 57.8163 35 62.4931C35 67.1837 31.1837 71 26.5069 71Z" fill="white"/>
<path d="M8.00571 88C4.14286 88 1 84.8571 1 80.9943C1 77.1314 4.14286 74 8.00571 74C11.8686 74 15 77.1429 15 80.9943C15 84.8571 11.8571 88 8.00571 88Z" fill="white"/>
<path d="M49.5053 84C45.9184 84 43 81.0816 43 77.4947C43 73.9078 45.9184 71 49.5053 71C53.0922 71 56 73.9184 56 77.4947C56 81.0816 53.0816 84 49.5053 84Z" fill="white"/>
<path d="M49.0016 79C47.898 79 47 78.102 47 76.9984C47 75.8947 47.898 75 49.0016 75C50.1053 75 51 75.898 51 76.9984C51 78.102 50.102 79 49.0016 79Z" fill="#9CD087"/>
<path d="M8.00163 83C6.89796 83 6 82.102 6 80.9984C6 79.8947 6.89796 79 8.00163 79C9.10531 79 10 79.898 10 80.9984C10 82.102 9.10204 83 8.00163 83Z" fill="#9CD087"/>
<path d="M26.502 66C25.1224 66 24 64.8776 24 63.498C24 62.1184 25.1224 61 26.502 61C27.8816 61 29 62.1224 29 63.498C29 64.8776 27.8776 66 26.502 66Z" fill="#9CD087"/>
<path d="M27.502 100C26.1224 100 25 98.8776 25 97.498C25 96.1184 26.1224 95 27.502 95C28.8816 95 30 96.1224 30 97.498C30 98.8776 28.8776 100 27.502 100Z" fill="#9CD087"/>
<path d="M27.5219 107C22.4022 107 18.2368 102.797 18.2368 97.6318C18.2368 92.4662 22.4022 88.2788 27.5219 88.2788C32.6415 88.2788 36.7917 92.4815 36.7917 97.6318C36.7917 102.797 32.6264 107 27.5219 107ZM27.5219 89.8071C23.2353 89.8071 19.7515 93.3221 19.7515 97.6318C19.7515 101.941 23.2353 105.472 27.5219 105.472C31.8084 105.472 35.2771 101.957 35.2771 97.6318C35.2771 93.3068 31.7933 89.8071 27.5219 89.8071Z" fill="#231F20"/>
<path d="M34.5195 98.6862H33.0048C33.0048 95.4768 30.4147 92.8635 27.2339 92.8635V91.3352C31.2478 91.3352 34.5195 94.6363 34.5195 98.6862Z" fill="#231F20"/>
<path d="M27.5217 101.009C25.6738 101.009 24.1743 99.4963 24.1743 97.6318C24.1743 95.7673 25.6738 94.2544 27.5217 94.2544C29.3697 94.2544 30.8692 95.7673 30.8692 97.6318C30.8692 99.4963 29.3545 101.009 27.5217 101.009ZM27.5217 95.7826C26.5069 95.7826 25.689 96.6079 25.689 97.6318C25.689 98.6558 26.5069 99.481 27.5217 99.481C28.5366 99.481 29.3545 98.6558 29.3545 97.6318C29.3545 96.6079 28.5214 95.7826 27.5217 95.7826Z" fill="#231F20"/>
<path d="M26.6888 72.6141C21.5692 72.6141 17.4189 68.4114 17.4189 63.2611C17.4189 58.0956 21.5843 53.9082 26.6888 53.9082C31.8085 53.9082 35.9587 58.1109 35.9587 63.2611C35.9739 68.4114 31.8085 72.6141 26.6888 72.6141ZM26.6888 55.4212C22.4023 55.4212 18.9336 58.9362 18.9336 63.2459C18.9336 67.5708 22.4174 71.0705 26.6888 71.0705C30.9754 71.0705 34.444 67.5555 34.444 63.2459C34.4592 58.9362 30.9754 55.4212 26.6888 55.4212Z" fill="#231F20"/>
<path d="M33.7016 64.3004H32.187C32.187 61.091 29.5968 58.4777 26.416 58.4777V56.9495C30.4299 56.9495 33.7016 60.2505 33.7016 64.3004Z" fill="#231F20"/>
<path d="M26.6887 66.6233C24.8408 66.6233 23.3413 65.1103 23.3413 63.2459C23.3413 61.3814 24.8408 59.8684 26.6887 59.8684C28.5367 59.8684 30.0362 61.3814 30.0362 63.2459C30.0362 65.1103 28.5367 66.6233 26.6887 66.6233ZM26.6887 61.3967C25.6739 61.3967 24.856 62.2219 24.856 63.2459C24.856 64.2698 25.6739 65.095 26.6887 65.095C27.7036 65.095 28.5215 64.2698 28.5215 63.2459C28.5215 62.2219 27.7036 61.3967 26.6887 61.3967Z" fill="#231F20"/>
<path d="M7.48256 88.6607C3.34746 88.6607 0 85.268 0 81.1111C0 76.9543 3.34746 73.5615 7.48256 73.5615C11.6025 73.5615 14.9651 76.939 14.9651 81.1111C14.9651 85.268 11.6025 88.6607 7.48256 88.6607ZM7.48256 75.0898C4.19569 75.0898 1.51469 77.7948 1.51469 81.1111C1.51469 84.4275 4.19569 87.1325 7.48256 87.1325C10.7694 87.1325 13.4504 84.4275 13.4504 81.1111C13.4504 77.7948 10.7694 75.0898 7.48256 75.0898Z" fill="#231F20"/>
<path d="M13.1627 81.9365H11.648C11.648 79.4913 9.67887 77.5046 7.25537 77.5046V75.9763C10.512 75.9763 13.1627 78.6508 13.1627 81.9365Z" fill="#231F20"/>
<path d="M7.48283 83.9385C5.93785 83.9385 4.68066 82.67 4.68066 81.1112C4.68066 79.5524 5.93785 78.2839 7.48283 78.2839C9.02781 78.2839 10.285 79.5524 10.285 81.1112C10.285 82.67 9.02781 83.9385 7.48283 83.9385ZM7.48283 79.8122C6.77093 79.8122 6.19535 80.3929 6.19535 81.1112C6.19535 81.8295 6.77093 82.4102 7.48283 82.4102C8.19474 82.4102 8.77032 81.8295 8.77032 81.1112C8.77032 80.3929 8.17959 79.8122 7.48283 79.8122Z" fill="#231F20"/>
<path d="M49.1364 84.4581C45.0164 84.4581 41.6538 81.0807 41.6538 76.9085C41.6538 72.7516 45.0013 69.3589 49.1364 69.3589C53.2563 69.3589 56.6189 72.7364 56.6189 76.9085C56.6189 81.0654 53.2563 84.4581 49.1364 84.4581ZM49.1364 70.8872C45.8495 70.8872 43.1685 73.5922 43.1685 76.9085C43.1685 80.2248 45.8495 82.9298 49.1364 82.9298C52.4233 82.9298 55.1043 80.2248 55.1043 76.9085C55.1043 73.5922 52.4233 70.8872 49.1364 70.8872Z" fill="#231F20"/>
<path d="M54.8165 77.7339H53.3018C53.3018 75.2887 51.3327 73.3019 48.9092 73.3019V71.7737C52.1658 71.7737 54.8165 74.4481 54.8165 77.7339Z" fill="#231F20"/>
<path d="M49.1366 79.7359C47.5916 79.7359 46.3345 78.4674 46.3345 76.9086C46.3345 75.3498 47.5916 74.0813 49.1366 74.0813C50.6816 74.0813 51.9388 75.3498 51.9388 76.9086C51.9388 78.4674 50.6816 79.7359 49.1366 79.7359ZM49.1366 75.6096C48.4247 75.6096 47.8491 76.1903 47.8491 76.9086C47.8491 77.6269 48.4247 78.2076 49.1366 78.2076C49.8485 78.2076 50.4241 77.6269 50.4241 76.9086C50.4241 76.1903 49.8334 75.6096 49.1366 75.6096Z" fill="#231F20"/>
<path d="M72.3266 96.6079H36.7314V98.1362H72.3266V96.6079Z" fill="#231F20"/>
<path d="M27.643 74.8301H26.1284V85.5279H27.643V74.8301Z" fill="#231F20"/>
<path d="M13.8821 85.8474L12.811 86.928L17.2237 91.3802L18.2947 90.2995L13.8821 85.8474Z" fill="#231F20"/>
<path d="M17.059 69.4968L12.3457 74.2516L13.4168 75.3324L18.13 70.5776L17.059 69.4968Z" fill="#231F20"/>
<path d="M40.5179 50.2949L39.0127 50.4662L41.8534 75.8729L43.3586 75.7016L40.5179 50.2949Z" fill="#231F20"/>
<path d="M58.1437 50.3037L55.2979 75.7103L56.803 75.882L59.6488 50.4753L58.1437 50.3037Z" fill="#231F20"/>
<path d="M34.6101 70.856L33.5391 71.9366L39.0335 77.4803L40.1045 76.3996L34.6101 70.856Z" fill="#231F20"/>
</g>
<defs>
<clipPath id="clip0_148_3548">
<rect width="100" height="107" fill="white"/>
</clipPath>
</defs>
</svg>
