<svg width="98" height="82" viewBox="0 0 98 82" fill="none" xmlns="http://www.w3.org/2000/svg">
<g clip-path="url(#clip0_159_3109)">
<path d="M14.4469 12.0903H6.49023V63.9144H14.4469V12.0903Z" fill="white"/>
<path d="M15.1594 64.6299H5.7793V11.375H15.1594V64.6299ZM7.20268 63.1991H13.736V12.8058H7.20268V63.1991Z" fill="#231F20"/>
<path d="M21.1235 72.5567C20.3122 78.1226 15.1595 81.9858 9.62254 81.1702C4.07135 80.3546 0.242446 75.1751 1.06801 69.5949C1.87933 64.029 7.03198 60.1802 12.569 60.9957C18.1059 61.8113 21.9348 66.9908 21.1235 72.5567Z" fill="white"/>
<path d="M11.1019 82C10.5753 82 10.0344 81.9571 9.52199 81.8855C6.64675 81.4563 4.11313 79.9396 2.39083 77.5931C0.66854 75.2609 -0.0573862 72.3849 0.369629 69.4947C1.13825 64.1864 5.75002 60.1658 11.0877 60.1658C11.6144 60.1658 12.1552 60.2087 12.6819 60.2802C15.5571 60.7095 18.0908 62.2261 19.813 64.5584C21.5496 66.8906 22.2613 69.7665 21.8343 72.6568C21.0514 77.9794 16.4396 82 11.1019 82ZM11.0735 61.5966C6.43324 61.5966 2.43353 65.0735 1.76454 69.695C1.39446 72.1989 2.02075 74.7028 3.51531 76.7346C5.02409 78.7664 7.21611 80.097 9.72126 80.4547C10.1767 80.5263 10.6465 80.5549 11.1019 80.5549C15.7422 80.5549 19.7419 77.0637 20.4109 72.4422C20.7809 69.9382 20.1547 67.4343 18.6459 65.4026C17.1371 63.3708 14.9451 62.0544 12.4541 61.6824C11.9987 61.6395 11.5432 61.5966 11.0735 61.5966Z" fill="#231F20"/>
<path d="M15.2589 71.6981C14.9173 74.016 12.7822 75.6042 10.4764 75.2608C8.17052 74.9317 6.59056 72.7855 6.93217 70.4676C7.25955 68.1497 9.40886 66.5472 11.7005 66.8906C14.0063 67.234 15.6005 69.3802 15.2589 71.6981Z" fill="#9CD087"/>
<path d="M11.1028 76.0192C10.8608 76.0192 10.6188 76.0049 10.3769 75.962C9.08155 75.776 7.92861 75.0892 7.14575 74.0304C6.36288 72.9716 6.03551 71.6696 6.23478 70.3675C6.61909 67.7205 9.11002 65.7889 11.8145 66.1752C14.4904 66.5759 16.3551 69.0941 15.9708 71.7983C15.6149 74.2021 13.5225 76.0192 11.1028 76.0192ZM11.1028 67.5631C9.38046 67.5631 7.88591 68.8652 7.64393 70.5821C7.50159 71.5122 7.72933 72.4422 8.28445 73.1862C8.83957 73.9445 9.6509 74.431 10.5761 74.5598C12.5262 74.846 14.2769 73.4724 14.5474 71.598C14.8178 69.6807 13.4941 67.8922 11.5867 67.606C11.4302 67.5774 11.2594 67.5631 11.1028 67.5631Z" fill="#231F20"/>
<path d="M59.4828 7.65479H17.9912V15.653H59.4828V7.65479Z" fill="white"/>
<path d="M60.1811 16.3828H17.2803V6.93945H60.1953V16.3828H60.1811ZM18.7037 14.952H58.772V8.37027H18.7037V14.952Z" fill="#231F20"/>
<path d="M9.38001 22.378C3.84305 21.5624 -8.95262e-05 16.3828 0.81124 10.817C1.62257 5.23679 6.77522 1.3879 12.3264 2.21777C17.8776 3.03333 21.6923 8.21288 20.881 13.7788C20.0696 19.3446 14.9312 23.1935 9.38001 22.378Z" fill="white"/>
<path d="M10.8751 23.2079C10.3484 23.2079 9.80752 23.1649 9.28087 23.0934C6.41987 22.6785 3.88624 21.1475 2.14971 18.8153C0.41318 16.4687 -0.298512 13.5928 0.114269 10.7169C0.882897 5.39422 5.49467 1.38794 10.8324 1.38794C11.359 1.38794 11.8999 1.43086 12.4266 1.5024C15.3018 1.93165 17.8212 3.44831 19.5577 5.78054C21.28 8.11277 22.006 10.9887 21.5789 13.879C20.8103 19.2016 16.2128 23.2079 10.8751 23.2079ZM10.8324 2.81875C6.19212 2.81875 2.19241 6.29563 1.52342 10.9172C1.15334 13.4211 1.77963 15.925 3.28842 17.9568C4.79721 19.9885 6.98922 21.3049 9.48014 21.6769C9.93562 21.7484 10.4054 21.7771 10.8609 21.7771C15.5011 21.7771 19.5008 18.3002 20.1698 13.6786C20.5399 11.1747 19.9136 8.67079 18.4048 6.63903C16.896 4.60727 14.704 3.29092 12.2131 2.91891C11.7718 2.84737 11.3021 2.81875 10.8324 2.81875Z" fill="#231F20"/>
<path d="M10.2479 16.4831C7.94198 16.1397 6.36203 13.9935 6.6894 11.6756C7.01678 9.35764 9.15187 7.76943 11.4577 8.11283C13.7636 8.45622 15.3578 10.6024 15.0162 12.9061C14.6888 15.224 12.5395 16.8122 10.2479 16.4831Z" fill="#9CD087"/>
<path d="M10.8459 17.2414C10.6181 17.2414 10.3761 17.2271 10.1342 17.1842C7.45824 16.7836 5.59361 14.2653 5.97792 11.5754C6.36224 8.92839 8.86739 6.99679 11.5576 7.39741C14.2335 7.79804 16.1124 10.302 15.7281 13.0062C15.3722 15.4243 13.2799 17.2414 10.8459 17.2414ZM10.8459 8.7853C9.1236 8.7853 7.64328 10.073 7.40131 11.79C7.11663 13.7073 8.44038 15.4958 10.3477 15.782C12.255 16.0538 14.0485 14.6946 14.3189 12.8059C14.5894 10.8886 13.2656 9.10008 11.3583 8.81392C11.1875 8.7853 11.0167 8.7853 10.8459 8.7853Z" fill="#231F20"/>
<path d="M50 10L42 25.5H50.5L55.5 21L50 10Z" fill="white"/>
<path d="M51.256 8.27002L38.5879 32.7227L49.3487 51.867H51.6119L43.1712 33.0804L55.6543 20.7754" fill="white"/>
<path d="M52.7077 52.5824H48.9357L37.7764 32.737L50.6296 7.94092L51.8822 8.59909L39.3991 32.7083L49.7613 51.1515H50.5157L42.317 32.923L55.1559 20.2603L56.1523 21.2904L44.0251 33.2377L52.7077 52.5824Z" fill="#231F20"/>
<path d="M37.4922 40.4492H70.344C74.671 40.4492 78.1726 43.969 78.1726 48.333C78.1726 52.6827 74.6568 56.2168 70.344 56.2168H37.4922" fill="white"/>
<path d="M70.3297 56.9179H37.4922V55.487H70.344C74.2725 55.487 77.4609 52.2677 77.4609 48.3187C77.4609 44.3696 74.2583 41.1503 70.344 41.1503H37.4922V39.7195H70.344C75.0554 39.7195 78.8843 43.5684 78.8843 48.3187C78.8843 53.069 75.0554 56.9179 70.3297 56.9179Z" fill="#231F20"/>
<path d="M45.4058 48.3043C45.4058 52.6254 41.9185 56.1309 37.6199 56.1309C33.3213 56.1309 29.834 52.6254 29.834 48.3043C29.834 43.9833 33.3213 40.4778 37.6199 40.4778C41.9185 40.4778 45.4058 43.9833 45.4058 48.3043Z" fill="white"/>
<path d="M37.606 56.8462C32.923 56.8462 29.1084 53.0116 29.1084 48.3042C29.1084 43.5968 32.923 39.7622 37.606 39.7622C42.2889 39.7622 46.1036 43.5968 46.1036 48.3042C46.1178 53.0116 42.3031 56.8462 37.606 56.8462ZM37.606 41.193C33.7059 41.193 30.5318 44.3838 30.5318 48.3042C30.5318 52.2246 33.7059 55.4153 37.606 55.4153C41.506 55.4153 44.6802 52.2246 44.6802 48.3042C44.6802 44.3838 41.5203 41.193 37.606 41.193Z" fill="#231F20"/>
<path d="M42.7445 48.3043C42.7445 51.1516 40.4529 53.4552 37.6203 53.4552C34.7878 53.4552 32.4961 51.1516 32.4961 48.3043C32.4961 45.4569 34.7878 43.1533 37.6203 43.1533C40.4386 43.1533 42.7445 45.4569 42.7445 48.3043Z" fill="white"/>
<path d="M37.6054 54.1707C34.3885 54.1707 31.7695 51.538 31.7695 48.3043C31.7695 45.0707 34.3885 42.438 37.6054 42.438C40.8222 42.438 43.4412 45.0707 43.4412 48.3043C43.4555 51.538 40.8365 54.1707 37.6054 54.1707ZM37.6054 43.8688C35.1714 43.8688 33.1929 45.8576 33.1929 48.3043C33.1929 50.751 35.1714 52.7399 37.6054 52.7399C40.0394 52.7399 42.0179 50.751 42.0179 48.3043C42.0321 45.8576 40.0536 43.8688 37.6054 43.8688Z" fill="#231F20"/>
<path d="M39.9824 48.3043C39.9824 49.6207 38.9149 50.6795 37.6196 50.6795C36.3101 50.6795 35.2568 49.6064 35.2568 48.3043C35.2568 46.988 36.3101 45.9292 37.6196 45.9292C38.9149 45.9292 39.9824 46.988 39.9824 48.3043Z" fill="white"/>
<path d="M37.6058 51.3948C35.912 51.3948 34.5312 50.0069 34.5312 48.3042C34.5312 46.6015 35.912 45.2136 37.6058 45.2136C39.2996 45.2136 40.6803 46.6015 40.6803 48.3042C40.6945 50.0069 39.3138 51.3948 37.6058 51.3948ZM37.6058 46.6445C36.6948 46.6445 35.9547 47.3885 35.9547 48.3042C35.9547 49.2199 36.6948 49.9639 37.6058 49.9639C38.5168 49.9639 39.2569 49.2199 39.2569 48.3042C39.2711 47.3885 38.531 46.6445 37.6058 46.6445Z" fill="#231F20"/>
<path d="M70.984 42.0374H43.2422V43.4682H70.984V42.0374Z" fill="#231F20"/>
<path d="M77.2896 51.7524H44.5518V53.1833H77.2896V51.7524Z" fill="#231F20"/>
<path d="M78.1156 46.802H67.4971V48.2328H78.1156V46.802Z" fill="#231F20"/>
<path d="M44.5381 25.4255H77.3756C81.7027 25.4255 85.2184 28.9596 85.2184 33.3093C85.2184 37.659 81.7027 41.1931 77.3756 41.1931H44.5381" fill="white"/>
<path d="M77.3756 41.8942H44.5381V40.4634H77.3756C81.3041 40.4634 84.5067 37.244 84.5067 33.295C84.5067 29.3459 81.3041 26.1266 77.3756 26.1266H44.5381V24.6958H77.3756C82.087 24.6958 85.9301 28.5447 85.9301 33.295C85.9301 38.0453 82.1012 41.8942 77.3756 41.8942Z" fill="#231F20"/>
<path d="M52.4517 33.2807C52.4517 37.6017 48.9644 41.1072 44.6658 41.1072C40.3672 41.1072 36.8799 37.6017 36.8799 33.2807C36.8799 28.9596 40.3672 25.4541 44.6658 25.4541C48.9644 25.4541 52.4517 28.9596 52.4517 33.2807Z" fill="white"/>
<path d="M44.6656 41.8227C39.9827 41.8227 36.168 37.9881 36.168 33.2807C36.168 28.5734 39.9827 24.7388 44.6656 24.7388C49.3486 24.7388 53.1632 28.5734 53.1632 33.2807C53.1632 37.9881 49.3486 41.8227 44.6656 41.8227ZM44.6656 26.1696C40.7655 26.1696 37.5914 29.3603 37.5914 33.2807C37.5914 37.2012 40.7655 40.3919 44.6656 40.3919C48.5657 40.3919 51.7398 37.2012 51.7398 33.2807C51.7398 29.3603 48.5657 26.1696 44.6656 26.1696Z" fill="#231F20"/>
<path d="M49.7904 33.2806C49.7904 36.1279 47.4987 38.4315 44.6662 38.4315C41.8337 38.4315 39.542 36.1279 39.542 33.2806C39.542 30.4333 41.8479 28.1296 44.6662 28.1296C47.4845 28.1296 49.7904 30.4333 49.7904 33.2806Z" fill="white"/>
<path d="M44.6659 39.147C41.4491 39.147 38.8301 36.5143 38.8301 33.2806C38.8301 30.047 41.4491 27.4143 44.6659 27.4143C47.8828 27.4143 50.5018 30.047 50.5018 33.2806C50.5018 36.5143 47.8828 39.147 44.6659 39.147ZM44.6659 28.8451C42.2319 28.8451 40.2534 30.834 40.2534 33.2806C40.2534 35.7273 42.2319 37.7162 44.6659 37.7162C47.0999 37.7162 49.0784 35.7273 49.0784 33.2806C49.0784 30.834 47.0999 28.8451 44.6659 28.8451Z" fill="#231F20"/>
<path d="M47.0283 33.2807C47.0283 34.597 45.975 35.6558 44.6655 35.6558C43.356 35.6558 42.3027 34.5827 42.3027 33.2807C42.3027 31.9643 43.3702 30.9055 44.6655 30.9055C45.9608 30.9055 47.0283 31.9643 47.0283 33.2807Z" fill="white"/>
<path d="M44.6653 36.3713C42.9715 36.3713 41.5908 34.9834 41.5908 33.2807C41.5908 31.5781 42.9715 30.1902 44.6653 30.1902C46.3591 30.1902 47.7398 31.5781 47.7398 33.2807C47.7398 34.9834 46.3591 36.3713 44.6653 36.3713ZM44.6653 31.621C43.7544 31.621 43.0142 32.365 43.0142 33.2807C43.0142 34.1965 43.7544 34.9405 44.6653 34.9405C45.5763 34.9405 46.3164 34.1965 46.3164 33.2807C46.3164 32.365 45.5763 31.621 44.6653 31.621Z" fill="#231F20"/>
<path d="M78.0299 27.0137H50.2881V28.4445H78.0299V27.0137Z" fill="#231F20"/>
<path d="M84.3355 36.729H51.5977V38.1598H84.3355V36.729Z" fill="#231F20"/>
<path d="M85.1615 31.7783H74.543V33.2091H85.1615V31.7783Z" fill="#231F20"/>
<path d="M55.4697 40.6924H88.3214C92.6484 40.6924 96.15 44.2265 96.15 48.5762C96.15 52.9258 92.6342 56.46 88.3214 56.46H55.4697" fill="white"/>
<path d="M88.3214 57.161H55.4697V55.7302H88.3214C92.2499 55.7302 95.4383 52.5109 95.4383 48.5618C95.4383 44.6128 92.2357 41.3935 88.3214 41.3935H55.4697V39.9626H88.3214C93.0328 39.9626 96.8617 43.8115 96.8617 48.5618C96.8617 53.3121 93.0328 57.161 88.3214 57.161Z" fill="#231F20"/>
<path d="M63.3833 48.5475C63.3833 52.8686 59.8961 56.3741 55.5974 56.3741C51.2988 56.3741 47.8115 52.8686 47.8115 48.5475C47.8115 44.2264 51.2988 40.7209 55.5974 40.7209C59.8961 40.7209 63.3833 44.2264 63.3833 48.5475Z" fill="white"/>
<path d="M55.5972 57.0895C50.9142 57.0895 47.0996 53.255 47.0996 48.5476C47.0996 43.8402 50.9142 40.0056 55.5972 40.0056C60.2801 40.0056 64.0948 43.8402 64.0948 48.5476C64.0948 53.255 60.2801 57.0895 55.5972 57.0895ZM55.5972 41.4364C51.6971 41.4364 48.5229 44.6271 48.5229 48.5476C48.5229 52.468 51.6971 55.6587 55.5972 55.6587C59.4972 55.6587 62.6714 52.468 62.6714 48.5476C62.6714 44.6271 59.4972 41.4364 55.5972 41.4364Z" fill="#231F20"/>
<path d="M60.7219 48.5474C60.7219 51.3947 58.4303 53.6984 55.5978 53.6984C52.7652 53.6984 50.4736 51.3947 50.4736 48.5474C50.4736 45.7001 52.7795 43.3965 55.5978 43.3965C58.4303 43.3965 60.7219 45.7001 60.7219 48.5474Z" fill="white"/>
<path d="M55.5976 54.4138C52.3807 54.4138 49.7617 51.7811 49.7617 48.5475C49.7617 45.3139 52.3807 42.6812 55.5976 42.6812C58.8144 42.6812 61.4334 45.3139 61.4334 48.5475C61.4334 51.7811 58.8144 54.4138 55.5976 54.4138ZM55.5976 44.112C53.1636 44.112 51.1851 46.1008 51.1851 48.5475C51.1851 50.9942 53.1636 52.983 55.5976 52.983C58.0315 52.983 60.01 50.9942 60.01 48.5475C60.01 46.1008 58.0315 44.112 55.5976 44.112Z" fill="#231F20"/>
<path d="M57.9601 48.5475C57.9601 49.8639 56.8925 50.9227 55.5972 50.9227C54.2877 50.9227 53.2344 49.8496 53.2344 48.5475C53.2344 47.2312 54.2877 46.1724 55.5972 46.1724C56.8925 46.1724 57.9601 47.2312 57.9601 48.5475Z" fill="white"/>
<path d="M55.5971 51.6381C53.9032 51.6381 52.5225 50.2503 52.5225 48.5476C52.5225 46.8449 53.9032 45.457 55.5971 45.457C57.2909 45.457 58.6716 46.8449 58.6716 48.5476C58.6716 50.2503 57.2909 51.6381 55.5971 51.6381ZM55.5971 46.8878C54.6861 46.8878 53.9459 47.6319 53.9459 48.5476C53.9459 49.4633 54.6861 50.2073 55.5971 50.2073C56.508 50.2073 57.2482 49.4633 57.2482 48.5476C57.2482 47.6319 56.508 46.8878 55.5971 46.8878Z" fill="#231F20"/>
<path d="M88.9615 42.2805H61.2197V43.7113H88.9615V42.2805Z" fill="#231F20"/>
<path d="M95.2671 51.9958H62.5293V53.4268H95.2671V51.9958Z" fill="#231F20"/>
<path d="M96.0931 47.0452H85.4746V48.476H96.0931V47.0452Z" fill="#231F20"/>
<path d="M72.1941 8.18433L84.8623 32.6369L74.1157 51.7812H71.8383L80.279 32.9947L67.7959 20.6896" fill="white"/>
<path d="M74.5286 52.4966H70.7425L79.425 33.152L67.2979 21.2047L68.2943 20.1745L81.1331 32.8373L72.9487 51.0658H73.6889L84.0654 32.6226L71.5681 8.5134L72.8349 7.85522L85.6738 32.6512L74.5286 52.4966Z" fill="#231F20"/>
<path d="M50.4736 11.8757C50.4736 5.70888 55.4412 0.715332 61.576 0.715332C67.7107 0.715332 72.6784 5.70888 72.6784 11.8757C72.6784 18.0425 67.7107 23.036 61.576 23.036C55.4412 23.036 50.4736 18.0425 50.4736 11.8757Z" fill="white"/>
<path d="M61.5758 23.7515C55.0567 23.7515 49.7617 18.4289 49.7617 11.8758C49.7617 8.69935 50.9858 5.72326 53.2205 3.47688C55.4552 1.2305 58.4158 0 61.5758 0C68.0949 0 73.3899 5.32263 73.3899 11.8758C73.3899 18.4289 68.0806 23.7515 61.5758 23.7515ZM61.5758 1.43081C58.8002 1.43081 56.1954 2.51823 54.2311 4.49276C52.2668 6.46728 51.1851 9.08567 51.1851 11.8758C51.1851 17.6419 55.8395 22.3207 61.5758 22.3207C67.312 22.3207 71.9665 17.6276 71.9665 11.8758C71.9665 6.10958 67.2978 1.43081 61.5758 1.43081Z" fill="#231F20"/>
<path d="M56.9639 11.8758C56.9639 9.31467 59.0278 7.23999 61.5756 7.23999C64.1235 7.23999 66.1874 9.31467 66.1874 11.8758C66.1874 14.437 64.1235 16.5117 61.5756 16.5117C59.0278 16.5117 56.9639 14.437 56.9639 11.8758Z" fill="#9CD087"/>
<path d="M61.5754 17.2271C58.6433 17.2271 56.252 14.8234 56.252 11.8759C56.252 10.4451 56.8071 9.10012 57.8035 8.09855C58.8141 7.08267 60.1378 6.52466 61.5612 6.52466C64.5076 6.52466 66.8989 8.92843 66.8989 11.8759C66.8989 14.8234 64.5076 17.2271 61.5754 17.2271ZM61.5754 7.95547C60.5364 7.95547 59.5542 8.37041 58.8141 9.10012C58.0739 9.84415 57.6754 10.8171 57.6754 11.8616C57.6754 14.0221 59.4261 15.782 61.5754 15.782C63.7248 15.782 65.4755 14.0221 65.4755 11.8616C65.4755 9.71537 63.7248 7.95547 61.5754 7.95547Z" fill="#231F20"/>
<path d="M10.7896 26.9851H9.36621V57.6189H10.7896V26.9851Z" fill="#231F20"/>
<path d="M44.5799 11.2605H24.9941V12.6913H44.5799V11.2605Z" fill="#231F20"/>
<path d="M32.8799 75.4183V63.6284C32.8799 62.0831 34.1325 60.824 35.6698 60.824C37.2213 60.824 38.4739 62.0831 38.4739 63.6284V75.4183" fill="white"/>
<path d="M39.1861 75.4181H37.7628V63.6282C37.7628 62.4693 36.8233 61.5392 35.6704 61.5392C34.5174 61.5392 33.5922 62.4836 33.5922 63.6282V75.4181H32.1689V63.6282C32.1689 61.6823 33.7488 60.1084 35.6704 60.1084C37.6062 60.1084 39.1861 61.6966 39.1861 63.6282V75.4181Z" fill="#231F20"/>
<path d="M35.6702 72.5852C37.2075 72.5852 38.4458 73.83 38.4458 75.3753C38.4458 76.9206 37.2075 78.1654 35.6702 78.1654C34.1329 78.1654 32.8947 76.9063 32.8947 75.3753C32.8805 73.83 34.1329 72.5852 35.6702 72.5852Z" fill="white"/>
<path d="M35.6699 78.8809C33.7484 78.8809 32.1826 77.307 32.1826 75.3754C32.1826 73.4438 33.7484 71.8699 35.6699 71.8699C37.5915 71.8699 39.1572 73.4438 39.1572 75.3754C39.1572 77.307 37.5915 78.8809 35.6699 78.8809ZM35.6699 73.3007C34.5312 73.3007 33.606 74.2307 33.606 75.3754C33.606 76.52 34.5312 77.45 35.6699 77.45C36.8086 77.45 37.7338 76.52 37.7338 75.3754C37.7338 74.2307 36.8086 73.3007 35.6699 73.3007Z" fill="#231F20"/>
<path d="M50.1885 75.4183V63.6284C50.1885 62.0831 51.4411 60.824 52.9783 60.824C54.5298 60.824 55.7824 62.0831 55.7824 63.6284V75.4183" fill="white"/>
<path d="M56.4939 75.4181H55.0705V63.6282C55.0705 62.4693 54.1311 61.5392 52.9781 61.5392C51.8252 61.5392 50.9 62.4836 50.9 63.6282V75.4181H49.4766V63.6282C49.4766 61.6823 51.0566 60.1084 52.9781 60.1084C54.9139 60.1084 56.4939 61.6966 56.4939 63.6282V75.4181Z" fill="#231F20"/>
<path d="M52.9788 72.5852C54.516 72.5852 55.7686 73.83 55.7686 75.3753C55.7686 76.9206 54.516 78.1654 52.9788 78.1654C51.4415 78.1654 50.2032 76.9063 50.2032 75.3753C50.1889 73.83 51.4415 72.5852 52.9788 72.5852Z" fill="white"/>
<path d="M52.9785 78.8809C51.0569 78.8809 49.4912 77.307 49.4912 75.3754C49.4912 73.4438 51.0569 71.8699 52.9785 71.8699C54.9 71.8699 56.48 73.4438 56.48 75.3754C56.4658 77.307 54.9 78.8809 52.9785 78.8809ZM52.9785 73.3007C51.8398 73.3007 50.9146 74.2307 50.9146 75.3754C50.9146 76.52 51.8398 77.45 52.9785 77.45C54.1172 77.45 55.0566 76.52 55.0566 75.3754C55.0424 74.2307 54.1172 73.3007 52.9785 73.3007Z" fill="#231F20"/>
<path d="M67.4971 75.4183V63.6284C67.4971 62.0831 68.7497 60.824 70.287 60.824C71.8242 60.824 73.0768 62.0831 73.0768 63.6284V75.4183" fill="white"/>
<path d="M73.8029 75.4181H72.3795V63.6282C72.3795 62.4693 71.4401 61.5392 70.3014 61.5392C69.1484 61.5392 68.2232 62.4836 68.2232 63.6282V75.4181H66.7998V63.6282C66.7998 61.6823 68.3798 60.1084 70.3014 60.1084C72.2372 60.1084 73.8029 61.6966 73.8029 63.6282V75.4181Z" fill="#231F20"/>
<path d="M70.2865 72.5852C71.8238 72.5852 73.0763 73.83 73.0763 75.3753C73.0763 76.9206 71.8238 78.1654 70.2865 78.1654C68.7493 78.1654 67.5109 76.9063 67.5109 75.3753C67.4967 73.83 68.7493 72.5852 70.2865 72.5852Z" fill="white"/>
<path d="M70.2871 78.8809C68.3656 78.8809 66.7998 77.307 66.7998 75.3754C66.7998 73.4438 68.3656 71.8699 70.2871 71.8699C72.2087 71.8699 73.7887 73.4438 73.7887 75.3754C73.7744 77.307 72.2087 78.8809 70.2871 78.8809ZM70.2871 73.3007C69.1484 73.3007 68.2232 74.2307 68.2232 75.3754C68.2232 76.52 69.1484 77.45 70.2871 77.45C71.4258 77.45 72.3653 76.52 72.3653 75.3754C72.351 74.2307 71.4258 73.3007 70.2871 73.3007Z" fill="#231F20"/>
<path d="M84.8057 75.4183V63.6284C84.8057 62.0831 86.0583 60.824 87.5955 60.824C89.1328 60.824 90.3854 62.0831 90.3854 63.6284V75.4183" fill="white"/>
<path d="M91.1105 75.4181H89.6871V63.6282C89.6871 62.4693 88.7476 61.5392 87.6089 61.5392C86.456 61.5392 85.5308 62.4836 85.5308 63.6282V75.4181H84.1074V63.6282C84.1074 61.6823 85.6873 60.1084 87.6089 60.1084C89.5447 60.1084 91.1105 61.6966 91.1105 63.6282V75.4181Z" fill="#231F20"/>
<path d="M87.5951 72.5852C89.1323 72.5852 90.3707 73.83 90.3707 75.3753C90.3707 76.9206 89.1323 78.1654 87.5951 78.1654C86.0578 78.1654 84.8195 76.9063 84.8195 75.3753C84.8052 73.83 86.0578 72.5852 87.5951 72.5852Z" fill="white"/>
<path d="M87.5947 78.8809C85.6731 78.8809 84.1074 77.307 84.1074 75.3754C84.1074 73.4438 85.6731 71.8699 87.5947 71.8699C89.5163 71.8699 91.082 73.4438 91.082 75.3754C91.082 77.307 89.5163 78.8809 87.5947 78.8809ZM87.5947 73.3007C86.456 73.3007 85.5308 74.2307 85.5308 75.3754C85.5308 76.52 86.456 77.45 87.5947 77.45C88.7334 77.45 89.6586 76.52 89.6586 75.3754C89.6586 74.2307 88.7334 73.3007 87.5947 73.3007Z" fill="#231F20"/>
<path d="M97.2881 62.5696H25.9766V72.7856H97.2881V62.5696Z" fill="white"/>
<path d="M97.9996 73.4867H25.2646V61.8398H97.9996V73.4867ZM26.688 72.0559H96.5762V63.2707H26.688V72.0559Z" fill="#231F20"/>
<path d="M35.9117 65.7744H34.4883V69.5661H35.9117V65.7744Z" fill="#231F20"/>
<path d="M46.4879 65.7744H45.0645V69.5661H46.4879V65.7744Z" fill="#231F20"/>
<path d="M67.6392 65.7744H66.2158V69.5661H67.6392V65.7744Z" fill="#231F20"/>
<path d="M78.2007 65.7744H76.7773V69.5661H78.2007V65.7744Z" fill="#231F20"/>
<path d="M88.777 65.7744H87.3535V69.5661H88.777V65.7744Z" fill="#231F20"/>
<path d="M57.063 65.7744H55.6396V69.5661H57.063V65.7744Z" fill="#231F20"/>
</g>
<defs>
<clipPath id="clip0_159_3109">
<rect width="98" height="82" fill="white"/>
</clipPath>
</defs>
</svg>
