<svg width="93" height="66" viewBox="0 0 93 66" fill="none" xmlns="http://www.w3.org/2000/svg">
<g clip-path="url(#clip0_159_2966)">
<path d="M37.9326 0.878418H33.4326V64.1217H37.9326V0.878418Z" fill="white"/>
<path d="M38.6081 65H32.7568V0H38.6081V65ZM34.1081 63.2432H37.2568V1.75676H34.1081V63.2432Z" fill="#231F20"/>
<path d="M33.378 0.878418H30.0537V64.1217H33.378V0.878418Z" fill="white"/>
<path d="M34.0535 65H29.3779V0H34.0535V65ZM30.7292 63.2432H32.7022V1.75676H30.7292V63.2432Z" fill="#231F20"/>
<path d="M16.7568 0.878418H12.2568V64.1217H16.7568V0.878418Z" fill="white"/>
<path d="M17.4459 65H11.5811V0H17.4324V65H17.4459ZM12.9324 63.2432H16.0811V1.75676H12.9324V63.2432Z" fill="#231F20"/>
<path d="M12.2023 0.878418H8.87793V64.1217H12.2023V0.878418Z" fill="white"/>
<path d="M12.8788 65H8.20312V0H12.8788V65ZM9.55448 63.2432H11.5274V1.75676H9.55448V63.2432Z" fill="#231F20"/>
<path d="M15.9866 49.3333H0.675781V64.3377H15.9866V49.3333Z" fill="white"/>
<path d="M16.6622 65.0032H0V48.6743H16.6622V65.0032ZM1.35135 63.6789H15.3108V49.9986H1.35135V63.6789Z" fill="#231F20"/>
<path d="M16.189 57.8223C11.3917 57.8223 7.48633 53.995 7.48633 49.2937H8.83768C8.83768 53.2667 12.135 56.498 16.189 56.498V57.8223Z" fill="#231F20"/>
<path d="M16.0135 62.4574C8.51354 62.4574 2.41895 56.6304 2.41895 49.4658H3.7703C3.7703 55.902 9.2703 61.1331 16.0135 61.1331V62.4574Z" fill="#231F20"/>
<path d="M10.0537 64.9339C4.54019 64.9339 0.0537109 60.6033 0.0537109 55.2795H1.40506C1.40506 59.8749 5.28344 63.6095 10.0537 63.6095V64.9339Z" fill="#231F20"/>
<path d="M46.4998 49.3198H15.9863V64.3244H46.4998V49.3198Z" fill="white"/>
<path d="M47.1889 64.9867H15.3105V48.6577H47.1754V64.9867H47.1889ZM16.6618 63.6623H45.824V49.9821H16.6618V63.6623Z" fill="#231F20"/>
<path d="M46.2571 56.4448H16.5273V57.7691H46.2571V56.4448Z" fill="#231F20"/>
<path d="M46.595 61.0801H16.4463V62.4044H46.595V61.0801Z" fill="#231F20"/>
<path d="M36.933 49.3333H21.6221V64.3377H36.933V49.3333Z" fill="white"/>
<path d="M37.6085 65.0032H20.9463V48.6743H37.6085V65.0032ZM22.2977 63.6789H36.2571V49.9986H22.2977V63.6789Z" fill="#231F20"/>
<path d="M37.1353 57.8223C32.338 57.8223 28.4326 53.995 28.4326 49.2937H29.784C29.784 53.2667 33.0813 56.498 37.1353 56.498V57.8223Z" fill="#231F20"/>
<path d="M36.9598 62.4574C29.4598 62.4574 23.3652 56.6304 23.3652 49.4658H24.7165C24.7165 55.902 30.2165 61.1331 36.9598 61.1331V62.4574Z" fill="#231F20"/>
<path d="M31 64.9339C25.4865 64.9339 21 60.6033 21 55.2795H22.3514C22.3514 59.8749 26.2297 63.6095 31 63.6095V64.9339Z" fill="#231F20"/>
<path d="M67.4462 49.3198H36.9326V64.3244H67.4462V49.3198Z" fill="white"/>
<path d="M68.1352 64.9867H36.2568V48.6577H68.1216V64.9867H68.1352ZM37.6081 63.6623H66.7703V49.9821H37.6081V63.6623Z" fill="#231F20"/>
<path d="M67.2024 56.4448H37.4727V57.7691H67.2024V56.4448Z" fill="#231F20"/>
<path d="M67.5403 61.0801H37.3916V62.4044H67.5403V61.0801Z" fill="#231F20"/>
<path d="M57.8782 49.3333H42.5674V64.3377H57.8782V49.3333Z" fill="white"/>
<path d="M58.5538 65.0032H41.8916V48.6743H58.5538V65.0032ZM43.243 63.6789H57.2024V49.9986H43.243V63.6789Z" fill="#231F20"/>
<path d="M58.0806 57.8223C53.2833 57.8223 49.3779 53.995 49.3779 49.2937H50.7292C50.7292 53.2667 54.0265 56.498 58.0806 56.498V57.8223Z" fill="#231F20"/>
<path d="M57.9051 62.4574C50.4051 62.4574 44.3105 56.6304 44.3105 49.4658H45.6618C45.6618 55.902 51.1618 61.1331 57.9051 61.1331V62.4574Z" fill="#231F20"/>
<path d="M51.9463 64.9339C46.4328 64.9339 41.9463 60.6033 41.9463 55.2795H43.2977C43.2977 59.8749 47.176 63.6095 51.9463 63.6095V64.9339Z" fill="#231F20"/>
<path d="M88.3914 49.3198H57.8779V64.3244H88.3914V49.3198Z" fill="white"/>
<path d="M89.0815 64.9867H57.2031V48.6577H89.068V64.9867H89.0815ZM58.5544 63.6623H87.7166V49.9821H58.5544V63.6623Z" fill="#231F20"/>
<path d="M88.1487 56.4448H58.4189V57.7691H88.1487V56.4448Z" fill="#231F20"/>
<path d="M88.4866 61.0801H58.3379V62.4044H88.4866V61.0801Z" fill="#231F20"/>
<path d="M26.5676 33.8784H11.2568V48.883H26.5676V33.8784Z" fill="white"/>
<path d="M27.2567 49.5484H10.5811V33.2195H27.2432V49.5484H27.2567ZM11.9324 48.2241H25.8919V34.5438H11.9324V48.2241Z" fill="#231F20"/>
<path d="M26.7701 42.3805C21.9728 42.3805 18.0674 38.5532 18.0674 33.8518H19.4187C19.4187 37.8248 22.716 41.0562 26.7701 41.0562V42.3805Z" fill="#231F20"/>
<path d="M26.6083 47.0156C19.1083 47.0156 13.0137 41.1885 13.0137 34.0239H14.3651C14.3651 40.4602 19.8651 45.6912 26.6083 45.6912V47.0156Z" fill="#231F20"/>
<path d="M20.6348 49.479C15.1213 49.479 10.6348 45.1485 10.6348 39.8247H11.9862C11.9862 44.4201 15.8646 48.1547 20.6348 48.1547V49.479Z" fill="#231F20"/>
<path d="M57.0946 33.8652H26.5811V48.8698H57.0946V33.8652Z" fill="white"/>
<path d="M57.7702 49.5318H25.9053V33.2029H57.7702V49.5318ZM27.2566 48.2075H56.4188V34.5272H27.2566V48.2075Z" fill="#231F20"/>
<path d="M56.8381 40.99H27.1084V42.3143H56.8381V40.99Z" fill="#231F20"/>
<path d="M57.176 45.625H27.0273V46.9493H57.176V45.625Z" fill="#231F20"/>
<path d="M47.2971 33.8784H31.9863V48.883H47.2971V33.8784Z" fill="white"/>
<path d="M47.9727 49.5484H31.3105V33.2195H47.9727V49.5484ZM32.6618 48.2241H46.6213V34.5438H32.6618V48.2241Z" fill="#231F20"/>
<path d="M47.4996 42.3805C42.7023 42.3805 38.7969 38.5532 38.7969 33.8518H40.1483C40.1483 37.8248 43.4456 41.0562 47.4996 41.0562V42.3805Z" fill="#231F20"/>
<path d="M47.3241 47.0156C39.8241 47.0156 33.7295 41.1885 33.7295 34.0239H35.0809C35.0809 40.4602 40.5809 45.6912 47.3241 45.6912V47.0156Z" fill="#231F20"/>
<path d="M41.3516 49.479C35.8381 49.479 31.3516 45.1485 31.3516 39.8247H32.703C32.703 44.4201 36.5813 48.1547 41.3516 48.1547V49.479Z" fill="#231F20"/>
<path d="M77.8104 33.8652H47.2969V48.8698H77.8104V33.8652Z" fill="white"/>
<path d="M78.487 49.5318H46.6221V33.2029H78.487V49.5318ZM47.9735 48.2075H77.1357V34.5272H47.9735V48.2075Z" fill="#231F20"/>
<path d="M77.5677 40.99H47.8379V42.3143H77.5677V40.99Z" fill="#231F20"/>
<path d="M77.8919 45.625H47.7432V46.9493H77.8919V45.625Z" fill="#231F20"/>
<path d="M92.3242 0.878418H87.8242V64.1217H92.3242V0.878418Z" fill="white"/>
<path d="M92.9998 65H87.1484V0H92.9998V65ZM88.4998 63.2432H91.6484V1.75676H88.4998V63.2432Z" fill="#231F20"/>
<path d="M87.7707 0.878418H84.4463V64.1217H87.7707V0.878418Z" fill="white"/>
<path d="M88.4461 65H83.7705V0H88.4461V65ZM85.1218 63.2432H87.0948V1.75676H85.1218V63.2432Z" fill="#231F20"/>
<path d="M71.1484 0.878418H66.6484V64.1217H71.1484V0.878418Z" fill="white"/>
<path d="M71.8377 65H65.9863V0H71.8377V65ZM67.3241 63.2432H70.4728V1.75676H67.3241V63.2432Z" fill="#231F20"/>
<path d="M66.5948 0.878418H63.2705V64.1217H66.5948V0.878418Z" fill="white"/>
<path d="M67.2704 65H62.5947V0H67.2704V65ZM63.9461 63.2432H65.919V1.75676H63.9461V63.2432Z" fill="#231F20"/>
</g>
<defs>
<clipPath id="clip0_159_2966">
<rect width="93" height="66" fill="white"/>
</clipPath>
</defs>
</svg>
