<svg width="18" height="20" viewBox="0 0 18 20" fill="none" xmlns="http://www.w3.org/2000/svg">
<path d="M12.9572 5.38854C12.9572 6.8239 12.6058 8.08934 11.9422 8.9862C11.2875 9.87084 10.3142 10.4197 8.9961 10.4197C7.67803 10.4197 6.70467 9.87084 6.05003 8.9862C5.38638 8.08934 5.03497 6.8239 5.03497 5.38854C5.03497 3.93361 5.30078 2.67116 5.91633 1.78169C6.51482 0.916861 7.47446 0.360172 8.98482 0.357414C10.5842 0.461219 11.5478 1.02567 12.1278 1.86225C12.7237 2.72158 12.9572 3.92703 12.9572 5.38854Z" stroke="#76BB20"/>
<path d="M11.5046 11.2344C12.4331 11.7699 15.0597 12.9504 15.9682 13.4124C16.8767 13.8745 16.9673 16.9471 16.4677 17.5541C15.9682 18.1611 11.0252 19.2857 8.89844 19.4464" stroke="#76BB20"/>
<path d="M6.38986 11.2344C5.46135 11.7699 2.8348 12.9504 1.92626 13.4124C1.01771 13.8745 0.92717 16.9471 1.42671 17.5541C1.92626 18.1611 6.86928 19.2857 8.996 19.4464" stroke="#76BB20"/>
</svg>
