<svg width="20" height="21" viewBox="0 0 20 21" fill="none" xmlns="http://www.w3.org/2000/svg">
<path d="M15.4515 8.72023C15.4545 6.97524 14.8659 5.28071 13.7816 3.91289C12.6974 2.54507 11.1814 1.58465 9.48092 1.18822C7.78043 0.791782 5.99571 0.982715 4.41772 1.72989C2.83974 2.47706 1.56158 3.7364 0.791629 5.30258C0.0216761 6.86877 -0.194654 8.64942 0.177909 10.3542C0.550472 12.059 1.48995 13.5874 2.84318 14.6902C4.19641 15.793 5.88356 16.4052 7.62958 16.4269C9.37559 16.4487 11.0775 15.8787 12.4577 14.8098L18.6383 20.9863L20 19.6256L13.8194 13.4491C14.8735 12.0975 15.4477 10.4338 15.4515 8.72023ZM7.72573 14.5107C6.57973 14.5107 5.45946 14.1711 4.50659 13.5348C3.55372 12.8985 2.81105 11.9942 2.3725 10.9361C1.93394 9.87807 1.81919 8.7138 2.04277 7.59057C2.26634 6.46733 2.8182 5.43557 3.62854 4.62576C4.43889 3.81595 5.47134 3.26447 6.59532 3.04104C7.71931 2.81761 8.88435 2.93228 9.94312 3.37055C11.0019 3.80882 11.9068 4.55099 12.5435 5.50323C13.1802 6.45546 13.52 7.57499 13.52 8.72023C13.52 10.2559 12.9096 11.7288 11.8229 12.8147C10.7363 13.9006 9.26248 14.5107 7.72573 14.5107Z" fill="#76BB20"/>
</svg>
