<svg width="30" height="30" viewBox="0 0 30 30" fill="none" xmlns="http://www.w3.org/2000/svg">
<g clip-path="url(#clip0_9_3994)">
<path d="M15 29.5C23.0081 29.5 29.5 23.0081 29.5 15C29.5 6.99187 23.0081 0.5 15 0.5C6.99187 0.5 0.5 6.99187 0.5 15C0.5 23.0081 6.99187 29.5 15 29.5Z" stroke="#007AFF"/>
<mask id="mask0_9_3994" style="mask-type:luminance" maskUnits="userSpaceOnUse" x="7" y="8" width="16" height="15">
<path d="M23 8H7V23H23V8Z" fill="white"/>
</mask>
<g mask="url(#mask0_9_3994)">
<path d="M7.83276 15.7317L10.8743 16.77L12.0516 20.2329C12.1269 20.4547 12.4234 20.5367 12.6202 20.3895L14.3156 19.1253C14.4933 18.9929 14.7465 18.9863 14.9322 19.1096L17.9901 21.1402C18.2007 21.2802 18.4989 21.1746 18.5517 20.942L20.7918 11.0866C20.8495 10.8324 20.5764 10.6204 20.3118 10.714L7.82919 15.1183C7.52115 15.227 7.52383 15.6259 7.83276 15.7317ZM11.8618 16.2173L17.8061 12.8687C17.913 12.8087 18.0229 12.9409 17.9312 13.0187L13.0254 17.1896C12.8529 17.3364 12.7417 17.5328 12.7102 17.7461L12.5431 18.8788C12.521 19.03 12.2887 19.0451 12.2431 18.8987L11.6003 16.8332C11.5267 16.5976 11.634 16.3459 11.8618 16.2173Z" fill="#007AFF"/>
</g>
</g>
<defs>
<clipPath id="clip0_9_3994">
<rect width="30" height="30" fill="white"/>
</clipPath>
</defs>
</svg>
