<svg width="10" height="10" viewBox="0 0 10 10" fill="none" xmlns="http://www.w3.org/2000/svg">
<path d="M7.0001 10H2.9501C2.1251 10 1.4751 9.325 1.4751 8.525V4C1.4751 3.85 1.5751 3.75 1.7251 3.75C1.8751 3.75 1.9751 3.85 1.9751 4V8.525C1.9751 9.075 2.4251 9.5 2.9501 9.5H7.0001C7.5501 9.5 7.9751 9.05 7.9751 8.525V4C7.9751 3.85 8.0751 3.75 8.2251 3.75C8.3751 3.75 8.4751 3.85 8.4751 4V8.525C8.4751 9.325 7.8001 10 7.0001 10Z" fill="#A3A3A3"/>
<path d="M8.3251 1.225H6.4251C6.3001 0.525 5.7001 0 4.9751 0C4.2501 0 3.6501 0.525 3.5251 1.225H1.6251C1.0501 1.225 0.600098 1.675 0.600098 2.25C0.600098 2.825 1.0501 3.25 1.6251 3.25H8.3501C8.9251 3.25 9.3751 2.8 9.3751 2.225C9.3751 1.65 8.9001 1.225 8.3251 1.225ZM4.9751 0.5C5.4251 0.5 5.8001 0.8 5.9001 1.225H4.0251C4.1501 0.8 4.5251 0.5 4.9751 0.5ZM8.3251 2.75H1.6251C1.3501 2.75 1.1001 2.525 1.1001 2.225C1.1001 1.95 1.3251 1.7 1.6251 1.7H8.3501C8.6251 1.7 8.8751 1.925 8.8751 2.225C8.8501 2.525 8.6251 2.75 8.3251 2.75Z" fill="#A3A3A3"/>
<path d="M3.2251 8.77461C3.0751 8.77461 2.9751 8.67461 2.9751 8.52461V4.34961C2.9751 4.19961 3.0751 4.09961 3.2251 4.09961C3.3751 4.09961 3.4751 4.19961 3.4751 4.34961V8.52461C3.4751 8.64961 3.3501 8.77461 3.2251 8.77461Z" fill="#A3A3A3"/>
<path d="M6.7251 8.77461C6.5751 8.77461 6.4751 8.67461 6.4751 8.52461V4.34961C6.4751 4.19961 6.5751 4.09961 6.7251 4.09961C6.8751 4.09961 6.9751 4.19961 6.9751 4.34961V8.52461C6.9751 8.64961 6.8501 8.77461 6.7251 8.77461Z" fill="#A3A3A3"/>
<path d="M4.9751 8.77461C4.8251 8.77461 4.7251 8.67461 4.7251 8.52461V4.34961C4.7251 4.19961 4.8251 4.09961 4.9751 4.09961C5.1251 4.09961 5.2251 4.19961 5.2251 4.34961V8.52461C5.2251 8.64961 5.1001 8.77461 4.9751 8.77461Z" fill="#A3A3A3"/>
</svg>
