<svg width="109" height="108" viewBox="0 0 109 108" fill="none" xmlns="http://www.w3.org/2000/svg">
<path fill-rule="evenodd" clip-rule="evenodd" d="M94.3163 46.2C94.5372 59.3179 86.7753 70.9646 76.4602 79.0802C66.234 87.126 53.1261 91.89 40.5631 88.4917C28.4862 85.2249 21.1369 74.073 15.9255 62.7057C10.8722 51.6834 7.86185 39.2685 12.9504 28.2624C18.1247 17.071 29.3515 10.2183 41.4053 7.59552C53.2965 5.00808 65.5463 7.50784 75.3753 14.6792C85.7962 22.2824 94.0991 33.3075 94.3163 46.2Z" fill="url(#paint0_linear_103_625)"/>
<path d="M92.3636 37.2742C97.0887 49.2882 93.9646 62.7483 87.1943 73.8832C80.4829 84.9215 69.994 93.8368 57.2488 95.0346C45.0347 96.1824 34.3905 88.4659 25.5392 79.656C16.9726 71.1294 9.93961 60.6937 10.8335 48.8289C11.7443 36.7385 19.7321 26.511 30.0183 19.8869C40.1319 13.374 52.334 11.4489 63.9122 14.6838C76.2562 18.1327 87.7239 25.4776 92.3636 37.2742Z" stroke="white"/>
<path d="M65.0008 50.7965L52.635 38.9267C52.4178 38.7182 52.1265 38.6016 51.8232 38.6016C51.5199 38.6016 51.2286 38.7182 51.0114 38.9267L38.6409 50.7965C38.5396 50.8936 38.4591 51.0097 38.4042 51.1379C38.3492 51.2662 38.3209 51.404 38.3209 51.5432C38.3209 51.6824 38.3492 51.8202 38.4042 51.9485C38.4591 52.0767 38.5396 52.1928 38.6409 52.2899C38.8486 52.4897 39.1275 52.6016 39.4179 52.6016C39.7082 52.6016 39.9871 52.4897 40.1948 52.2899L51.8232 41.128L63.4493 52.2899C63.6569 52.489 63.9352 52.6004 64.225 52.6004C64.5148 52.6004 64.7932 52.489 65.0008 52.2899C65.1021 52.1928 65.1826 52.0767 65.2376 51.9485C65.2925 51.8202 65.3209 51.6824 65.3209 51.5432C65.3209 51.404 65.2925 51.2662 65.2376 51.1379C65.1826 51.0097 65.1021 50.8936 65.0008 50.7965Z" fill="white"/>
<path d="M56.9813 40.566L56.9813 40.566L69.3469 52.4356C69.3469 52.4356 69.347 52.4357 69.3471 52.4358C69.4964 52.579 69.6156 52.7507 69.6972 52.941C69.7787 53.1313 69.8209 53.3361 69.8209 53.5432C69.8209 53.7503 69.7787 53.9551 69.6972 54.1454C69.6156 54.3357 69.4964 54.5075 69.3469 54.6508C69.0454 54.9399 68.6428 55.1004 68.2251 55.1004C67.8073 55.1004 67.4047 54.9399 67.1032 54.6508L67.103 54.6506L55.8232 43.8211L44.5414 54.6503L56.9813 40.566ZM56.9813 40.566C56.6702 40.2674 56.2545 40.1016 55.8232 40.1016C55.3919 40.1016 54.9763 40.2674 54.6652 40.5659C54.6652 40.5659 54.6652 40.566 54.6652 40.566L42.2949 52.4355L56.9813 40.566Z" stroke="white"/>
<defs>
<linearGradient id="paint0_linear_103_625" x1="97.666" y1="6.60156" x2="11.3265" y2="90.6348" gradientUnits="userSpaceOnUse">
<stop offset="0.166667" stop-color="#FD5703"/>
<stop offset="0.880208" stop-color="#FFA114"/>
</linearGradient>
</defs>
</svg>
