<svg width="210" height="428" viewBox="0 0 210 428" fill="none" xmlns="http://www.w3.org/2000/svg">
<path d="M198.255 154.075C196.762 152.619 194.918 151.575 192.902 151.044C190.886 150.513 188.767 150.513 186.75 151.044C187.37 147.943 187.529 144.787 185.921 142.839C182.567 138.776 172.499 141.392 168.164 141.29C151.705 140.9 134.531 133.863 120.975 124.688C118.322 122.892 113.612 125.423 115.419 128.85C116.144 129.838 116.628 130.982 116.831 132.191C110.653 131.425 103.985 125.724 100.457 121.724C97.6156 118.5 95.6671 113.522 91.1925 112.276C85.5625 110.709 78.1505 112.315 72.4128 112.635C65.5026 113.02 58.0906 112.755 51.2832 114.408C51.0385 113.634 49.8855 113.326 49.2564 113.825C44.116 117.915 40.9877 123.372 34.8706 126.515C29.7302 129.148 28.6899 130.221 27.8429 136.095C27.6275 138.016 27.3827 139.933 27.1086 141.845C27.5051 143.768 26.7553 144.447 24.859 143.884C23.2582 144.775 21.1016 144.739 19.3955 145.718C15.4643 147.97 13.2025 152.021 11.7754 156.182C8.52228 165.667 8.81603 177.943 14.7667 186.381C18.7321 192.011 26.2886 195.467 32.2221 192.373C32.0214 195.237 34.0384 198.757 35.2769 200.98C39.2375 208.098 45.8834 213.725 52.6565 218.053C60.6804 223.181 69.8426 226.376 78.9338 229.024C88.211 231.732 96.7466 233.749 103.872 240.688C105.324 242.103 104.631 240.443 106.396 239.589C114.535 235.69 126.622 231.631 133.873 229.178C141.368 226.645 148.804 223.881 155.741 220.041C165.386 214.7 173.97 207.043 178.829 197.163C180.978 197.852 183.289 197.852 185.438 197.163C193.631 194.625 198.054 185.904 200.654 178.394C203.423 170.428 205.043 160.556 198.255 154.075Z" fill="#FFE4D2"/>
<path d="M116.838 255.997C115.316 252.602 113.326 247.302 109.059 246.585C106.917 246.225 105.877 246.918 105.143 247.993L104.981 248.012C104.33 247.234 103.446 246.722 102.335 246.874C100.337 247.148 99.116 248.387 98.1956 250.015C96.8958 250.786 95.8335 251.819 95.2582 253.211C95.0872 253.649 94.953 254.1 94.8568 254.56C93.3685 255.73 92.3771 257.419 92.081 259.289C91.283 263.879 91.7432 271 93.2877 275.389C94.5753 279.043 98.2372 280.708 101.831 279.193C104.119 278.228 104.643 276.97 107.103 277.114C109.691 277.266 112.141 278.013 114.797 277.883C127.175 277.278 119.727 262.447 116.838 255.997Z" fill="#FFE4D2"/>
<path d="M119.234 271.122C116.973 271.237 113.514 272.226 111.582 270.566C109.964 269.181 110.288 264.936 110.045 263.061C109.404 258.134 108.351 253.324 107.233 248.494C107.233 248.429 107.207 248.367 107.161 248.321C107.115 248.275 107.053 248.25 106.988 248.25C106.923 248.25 106.861 248.275 106.815 248.321C106.769 248.367 106.743 248.429 106.743 248.494C106.094 252.695 105.539 256.876 105.248 261.108C105.316 255.994 104.457 251.072 103.074 248.59C102.738 247.992 101.83 248.345 101.742 248.935C100.956 254.044 102.903 273.413 94.367 273.308C92.2447 273.283 91.1162 276.147 93.3389 277.107C96.9494 278.664 100.655 278.223 102.92 274.818C103.093 274.546 103.181 274.227 103.172 273.904C103.162 273.581 103.055 273.268 102.866 273.007C104.006 270.757 104.694 267.898 105.022 264.902C104.897 267.389 104.866 270.077 105.901 272.245C108.469 277.611 116.388 277.787 120.507 274.302C120.811 274.063 121.029 273.733 121.129 273.361C121.229 272.988 121.205 272.593 121.062 272.235C120.918 271.877 120.663 271.575 120.333 271.374C120.004 271.174 119.618 271.085 119.234 271.122Z" fill="#FFA294"/>
<path d="M20.788 167.036C20.4909 166.915 20.1647 166.885 19.8506 166.95C19.5365 167.014 19.2486 167.17 19.0231 167.398C18.1614 166.745 16.962 166.475 16.0441 166.931C9.75808 170.061 17.1848 178.79 21.116 180.465C23.319 181.4 25.8623 179.5 25.522 177.116C25.0668 173.858 24.1439 168.549 20.788 167.036Z" fill="#FFA294"/>
<path d="M195.961 173.745C195.151 172.169 192.916 171.006 191.327 172.429C190.924 172.79 190.575 173.209 190.292 173.672C184.442 173.584 181.34 184.834 188.089 185.892C193.579 186.748 198.311 178.318 195.961 173.745Z" fill="#FFA294"/>
<path d="M181.962 142.79C159.79 143.223 139.407 140.164 121.053 126.681C118.343 124.689 114.672 126.84 114.934 130.142C115.046 131.562 115.12 132.948 115.129 134.328C107.269 131.214 101.263 124.882 96.5089 117.871C94.7807 115.321 93.3414 111.725 90.2473 110.511C86.507 109.042 81.0998 111.23 77.2739 111.796C71.6175 112.655 65.9202 113.218 60.2052 113.485C56.1761 113.656 52.5387 112.672 49.2096 114.895C45.3299 117.49 42.1844 122.322 38.4392 125.389C34.3514 128.73 29.5634 131.263 25.6396 134.747C24.5552 135.706 25.15 137.562 26.7068 137.412C34.9633 136.624 43.2418 130.908 49.1631 125.401C49.7261 124.875 52.6537 121.573 53.3244 121.22C54.7564 120.451 59.3216 120.677 61.1011 120.64C66.826 120.529 72.5386 120.065 78.2065 119.252C80.2455 118.958 85.0212 117.113 86.6613 117.783C88.6195 118.589 89.3539 120.704 90.4676 122.366C92.7109 125.714 95.2559 128.849 98.0706 131.733C103.794 137.554 110.278 141.459 118.223 143.375C120.287 143.865 122.355 141.943 122.63 140.022C122.771 139.018 122.874 138.039 122.945 137.07C140.501 147.921 162.527 154.293 182.794 149.522C187.051 148.525 186.366 142.702 181.962 142.79Z" fill="#FFA294"/>
<path d="M44.3507 112.31C32.9635 114.249 21.6594 116.782 10.0959 117.379C7.95165 117.49 7.26135 119.291 7.70196 120.872C2.48566 130.774 3.75364 143.833 8.35799 153.673C9.23431 155.541 12.0297 155.759 12.8669 153.707C15.2241 147.977 20.531 146.719 26.068 147.304C27.6737 147.473 28.8903 146.193 28.785 144.611C28.2955 137.513 28.5794 132.774 34.4321 127.91C38.4735 124.549 42.4512 121.112 46.566 117.844C48.8669 116.023 47.5182 111.771 44.3507 112.31Z" fill="#9C5043"/>
<path d="M199.973 115.1C199.153 114.789 198.253 114.761 197.415 115.022C197.061 114.761 196.657 114.576 196.228 114.479C178.198 110.317 159.004 111.086 140.597 110.697C131.104 110.496 121.609 110.207 112.114 110.104C105.693 110.038 97.6863 108.88 92.2644 112.897C92.0588 112.802 91.858 112.694 91.65 112.601C91.087 112.344 90.617 113.042 90.9376 113.514C91.0723 113.715 91.2265 113.903 91.366 114.102C91.3304 114.414 91.4133 114.728 91.5983 114.982C91.7832 115.236 92.0568 115.411 92.3647 115.472C98.0632 123.144 105.617 129.344 113.237 135.043C115.337 136.614 118.578 134.94 118.204 132.233C117.966 131.163 117.907 130.061 118.028 128.972C128.005 134.487 138.589 138.58 149.822 140.871C156.682 142.261 163.657 142.999 170.656 143.074C172.315 143.094 180.677 141.88 181.402 142.411C182.173 142.976 181.784 151.34 181.855 152.601C181.989 155.049 185.081 155.404 186.488 153.886C190.145 152.254 193.275 152.817 195.878 155.575C196.473 156.019 197.216 156.217 197.953 156.125C198.69 156.034 199.363 155.662 199.831 155.086C203.564 150.63 205.537 145.752 205.664 139.929C205.698 138.011 205.574 136.093 205.295 134.196C205.654 133.74 205.872 133.188 205.921 132.61C206.423 127.286 205.802 117.347 199.973 115.1Z" fill="#9C5043"/>
<path d="M47.2149 114.092C37.1788 112.834 26.1636 113.96 16.6416 117.519C11.0557 119.612 4.22872 125.08 7.52594 131.638C7.55392 131.708 7.59979 131.769 7.6589 131.815C7.71802 131.862 7.78832 131.892 7.86273 131.902C7.93715 131.913 8.01307 131.904 8.08285 131.876C8.15263 131.848 8.21382 131.802 8.26028 131.743C17.398 119.734 34.0554 120.804 47.4768 116.19C48.5245 115.835 48.2748 114.224 47.2149 114.092Z" fill="#8C4238"/>
<path d="M160.916 113.517C149.277 113.101 137.691 111.852 126.079 111.045C115.675 110.31 102.726 108.543 92.9792 112.954C91.6573 113.551 91.251 115.957 92.9522 116.427C101.25 118.718 110.667 117.923 119.239 118.354C128.933 118.843 138.594 119.793 148.278 120.432C157.293 121.029 166.289 120.995 175.309 121.269C185.345 121.573 196.245 122.248 203.515 129.881C204.622 131.041 206.485 130.71 206.815 129.031C210.357 111.057 170.191 113.847 160.916 113.517Z" fill="#8C4238"/>
<path d="M13.2537 117.972C13.2661 117.858 13.2412 117.742 13.1829 117.644C13.1246 117.545 13.036 117.467 12.9302 117.423C12.8243 117.378 12.7069 117.369 12.5955 117.396C12.484 117.424 12.3843 117.487 12.3113 117.575C4.18701 126.671 4.02791 141.49 7.74125 152.479C8.5319 154.824 12.3921 153.857 11.954 151.399C9.8831 139.525 11.8707 129.66 13.2537 117.972Z" fill="#E27B6D"/>
<path d="M201.332 117.352C201.203 117.258 201.053 117.198 200.895 117.179C200.736 117.159 200.576 117.181 200.428 117.241C200.281 117.302 200.152 117.399 200.053 117.524C199.954 117.649 199.888 117.797 199.863 117.954C199.129 123.34 201.621 128.94 201.349 134.528C201.048 140.753 199.657 147.078 197.134 152.77C196.48 154.238 198.563 155.418 199.555 154.184C204.115 148.508 206.898 142.291 207.023 134.927C207.109 129.246 206.382 120.85 201.332 117.352Z" fill="#E27B6D"/>
<path d="M121.203 175.13C121.061 173.662 119.705 172.883 118.354 172.905C110.031 173.038 100.857 171.557 92.6784 173.326C91.7727 173.522 91.3443 174.678 91.9636 175.285C88.8451 180.425 93.7359 194.813 100.154 196.666C102.363 198.207 105.052 198.902 107.73 198.625C118.892 197.423 122.099 184.464 121.203 175.13Z" fill="#FF5FAF"/>
<path d="M116.258 185.96C114.427 181.891 108.538 180.898 104.582 180.915C102.178 180.915 99.4587 181.289 97.3756 182.587C95.4908 183.762 95.153 184.821 94.683 186.868C94.6771 186.909 94.6795 186.952 94.69 186.992C94.7005 187.033 94.7189 187.071 94.7441 187.104C94.7694 187.138 94.801 187.166 94.8371 187.187C94.8732 187.208 94.9132 187.222 94.9547 187.228C95.0551 187.228 95.1359 187.242 95.2289 187.25C93.9389 190.363 95.8335 193.957 98.9202 195.763C102.886 198.084 108.163 198.177 112.19 195.957C115.673 194.035 118.02 189.879 116.258 185.96Z" fill="#FF7BB1"/>
<path d="M114.337 172.84C111.957 173.998 108.217 173.613 105.64 173.574C102.895 173.528 100.208 173.192 97.476 173.621C97.3784 173.634 97.2859 173.672 97.2075 173.731C97.129 173.791 97.0673 173.87 97.0284 173.96C96.9894 174.051 96.9746 174.15 96.9852 174.248C96.9959 174.346 97.0318 174.439 97.0893 174.519C99.4759 177.429 103.013 177.579 106.54 177.701C110.212 177.831 112.812 177.726 115.668 175.231C116.767 174.269 115.835 172.123 114.337 172.84Z" fill="white"/>
<path d="M148.704 155.012C148.826 154.111 148.703 153.193 148.346 152.356C148.002 151.543 147.448 150.836 146.739 150.309C146.031 149.782 145.195 149.453 144.317 149.357C142.378 149.147 140.454 150.217 139.485 151.874C138.43 153.675 138.655 155.71 139.742 157.445C140.606 158.823 142.136 159.893 143.774 160.067C145.962 160.311 148.388 158.666 148.738 156.437C148.812 155.963 148.801 155.481 148.704 155.012Z" fill="white"/>
<path d="M73.776 155.343C73.776 153.656 72.5937 152.437 70.983 152.099C68.8265 151.644 65.7594 152.055 64.0312 153.507C61.0718 155.996 62.5136 160.654 66.0556 161.611C68.6625 162.316 71.3184 160.826 71.8838 158.278C72.4425 158.015 72.9162 157.6 73.2507 157.081C73.5853 156.562 73.7673 155.96 73.776 155.343Z" fill="white"/>
<path d="M22.744 153.306C22.0097 152.234 20.8347 152.148 19.6549 152.364C18.3208 152.608 17.1434 153.213 16.6392 154.552C16.1349 155.891 17.1777 157.034 18.524 157.034C19.4419 157.034 20.2203 156.559 20.9057 156.236C21.2851 156.057 21.7135 155.969 22.0537 155.717C22.4165 155.415 22.7068 155.035 22.9031 154.606C23.1308 154.202 22.9864 153.661 22.744 153.306Z" fill="white"/>
<path d="M13.8485 157.614C13.5025 157.819 13.1749 158.053 12.8693 158.314C12.5131 158.639 12.2026 159.012 11.9465 159.42C11.5426 159.996 11.5647 160.872 12.1766 161.308C12.7078 161.685 13.6796 161.724 14.0639 161.063C14.389 160.593 14.6446 160.078 14.8227 159.535C14.9367 159.141 15.0186 158.738 15.0675 158.331C15.1507 157.626 14.4188 157.288 13.8485 157.614Z" fill="white"/>
<path d="M54.5998 188.415C54.5648 188.18 54.456 187.962 54.2889 187.793C54.1174 187.624 53.899 187.511 53.6623 187.468C53.3318 187.38 52.9965 187.575 52.7345 187.749C52.5371 187.879 52.366 188.045 52.2303 188.239C52.0761 188.459 51.9268 188.682 51.775 188.902C51.6256 189.098 51.5517 189.341 51.5667 189.588C51.5816 189.834 51.6846 190.066 51.8567 190.243C52.0287 190.419 52.2585 190.528 52.5042 190.549C52.7498 190.571 52.9949 190.503 53.1947 190.359L53.7553 189.896C53.9446 189.761 54.1101 189.596 54.2449 189.406C54.2782 189.341 54.3184 189.279 54.3648 189.223L54.2351 189.35C54.3692 189.237 54.473 189.092 54.5367 188.929C54.6004 188.766 54.6221 188.589 54.5998 188.415Z" fill="#FF6A68"/>
<path d="M58.9227 188.704C58.9429 188.497 58.9101 188.289 58.8275 188.098C58.7448 187.907 58.615 187.741 58.4503 187.614C58.1988 187.435 57.8875 187.361 57.5821 187.406C57.2766 187.452 57.0008 187.614 56.8127 187.859C56.6977 188.02 56.6208 188.205 56.5875 188.4C56.483 188.511 56.4155 188.651 56.3941 188.802C56.3817 188.941 56.3992 189.081 56.4455 189.213C56.5311 189.414 56.6894 189.574 56.8886 189.663C57.0213 189.726 57.1664 189.759 57.3133 189.759C57.4602 189.759 57.6052 189.726 57.738 189.663C57.7747 189.646 57.8016 189.622 57.8359 189.605C58.0975 189.62 58.3554 189.536 58.5572 189.369C58.759 189.202 58.8897 188.964 58.9227 188.704Z" fill="#FF6A68"/>
<path d="M158.456 185.558C158.272 185.408 158.054 185.305 157.822 185.257C157.546 185.181 157.254 185.181 156.977 185.257C156.773 185.307 156.581 185.398 156.413 185.524C156.245 185.651 156.104 185.809 155.998 185.992C155.817 186.303 155.74 186.664 155.778 187.022C155.81 187.149 155.842 187.267 155.876 187.406C155.936 187.551 156.025 187.682 156.138 187.791C156.236 187.986 156.374 188.159 156.544 188.297C156.753 188.462 157.001 188.569 157.264 188.607C157.527 188.644 157.796 188.612 158.042 188.513C158.198 188.455 158.344 188.372 158.473 188.268C158.718 188.084 158.908 187.836 159.021 187.551C159.157 187.202 159.176 186.819 159.074 186.459C158.972 186.1 158.755 185.783 158.456 185.558Z" fill="#FF6A68"/>
<path d="M163.391 186.709C163.282 186.598 163.151 186.511 163.006 186.455C162.862 186.398 162.706 186.373 162.551 186.381C162.396 186.389 162.244 186.431 162.106 186.502C161.968 186.573 161.847 186.673 161.751 186.795C161.52 187.065 161.34 187.376 161.219 187.71C161.115 187.954 160.986 188.186 160.835 188.403C160.744 188.519 160.699 188.663 160.707 188.81C160.715 188.957 160.777 189.096 160.88 189.201C160.983 189.306 161.121 189.369 161.268 189.38C161.415 189.39 161.56 189.346 161.677 189.257C161.895 189.105 162.127 188.976 162.37 188.87C162.7 188.751 163.007 188.576 163.278 188.352C163.401 188.256 163.503 188.136 163.576 187.999C163.649 187.862 163.692 187.711 163.703 187.556C163.714 187.4 163.691 187.245 163.638 187.099C163.584 186.953 163.5 186.82 163.391 186.709Z" fill="#FF6A68"/>
<path d="M90.8374 261.426C90.8937 260.107 89.873 258.567 88.3358 258.893C79.2127 260.822 69.9771 262.442 60.6754 263.037C64.1244 255.37 67.6713 247.748 71.3993 240.211C71.622 240.071 71.8424 239.937 72.048 239.814C75.1836 237.957 71.7787 233.45 68.6749 235.271C58.1982 241.452 48.8476 249.549 41.7489 259.475C36.77 266.442 29.1989 275.961 34.004 284.524C39.1052 293.617 46.27 293.517 55.9364 291.887C67.3898 289.951 81.0462 290.058 90.8791 283.469C91.2166 283.221 91.4817 282.888 91.6465 282.503C91.8114 282.118 91.8701 281.696 91.8166 281.28C90.9141 274.703 90.5865 268.06 90.8374 261.426Z" fill="white"/>
<path d="M173.089 260.489C169.148 254.227 162.985 249.287 157.761 244.149C152.621 239.107 146.239 236.853 139.348 235.352C137.322 234.909 135.721 236.502 136.759 238.404C138.776 242.103 141.566 246.313 143.368 250.122C144.234 251.953 148.998 261.627 148.325 263.34C146.692 267.448 127.229 262.43 122.586 261.93C122.228 261.458 121.851 260.993 121.426 260.53C120.951 260.004 120.003 260.285 120.094 261.064C120.584 265.389 121.335 269.812 120.784 274.16C120.517 276.262 119.181 279.082 119.974 281.227C121.898 286.428 132.999 288.893 137.476 290.408C146.751 293.544 168.367 298.17 174.568 287.187C182.119 282.098 176.962 266.645 173.089 260.489Z" fill="white"/>
<path d="M97.897 236.441C93.9071 235.239 90.4459 232.694 86.4682 231.526C84.1721 230.853 82.4195 233.049 83.6556 235.127C87.1829 241.058 93.6329 243.572 99.6741 246.071C101.708 246.913 104.403 245.581 104.587 243.251C104.932 238.865 101.461 237.516 97.897 236.441Z" fill="white"/>
<path d="M124.265 234.155C123.79 232.566 121.264 232.197 120.363 233.597C120.246 233.778 120.119 233.947 119.986 234.126C116.229 235.94 112.959 236.669 108.545 236.033C106.631 235.758 104.323 237.609 104.827 239.704C105.277 241.57 105.439 243.396 106.611 244.97C106.711 245.098 106.85 245.191 107.007 245.236C107.164 245.28 107.331 245.272 107.483 245.214C107.542 245.195 107.588 245.165 107.642 245.143C107.783 245.239 107.932 245.321 108.087 245.388C112.388 246.935 117.218 244.82 120.571 241.508C123.492 240.089 125.33 237.707 124.265 234.155Z" fill="white"/>
<path d="M89.7505 274.537C89.1386 274.047 88.3749 274.475 88.2158 275.163C87.1705 279.66 79.1246 279.873 75.705 280.732C70.4446 282.054 65.2748 283.875 59.8823 284.604C48.1866 286.191 41.0781 281.501 36.0356 271.467C35.9279 271.254 35.5827 271.132 35.4261 271.379C32.3198 276.35 34.9169 282.573 38.7918 286.443C44.1648 291.811 52.3772 292.726 59.5738 291.943C64.1561 291.453 68.6724 290.102 73.0736 288.785C77.6926 287.402 83.0802 286.714 87.4007 284.543C91.4249 282.519 93.7625 277.67 89.7505 274.537Z" fill="#FFCFE9"/>
<path d="M64.9517 251.387C63.5833 253.404 61.559 254.924 60.083 256.861C58.8982 258.415 57.268 260.072 58.0219 262.094C58.1334 262.369 58.3319 262.6 58.587 262.751C58.8421 262.902 59.1397 262.965 59.4343 262.931C61.5835 262.591 62.2199 260.378 62.9983 258.564C63.9603 256.327 64.2908 253.818 65.3751 251.635C65.5 251.387 65.1083 251.157 64.9517 251.387Z" fill="#FFCFE9"/>
<path d="M120.429 237.093C113.869 239.261 107.945 242.703 100.756 242.106C94.0001 241.543 89.4496 237.276 83.5994 234.517C83.0535 234.273 82.3216 234.907 82.6202 235.477C90.3357 250.083 110.347 249.045 121.827 239.594C122.075 239.372 122.24 239.071 122.295 238.742C122.35 238.413 122.291 238.075 122.129 237.784C121.966 237.493 121.709 237.266 121.4 237.14C121.091 237.015 120.749 236.998 120.429 237.093Z" fill="#FFCFE9"/>
<path d="M176.986 279.009C173.116 281.236 169.914 284.095 165.329 284.884C160.581 285.713 155.362 284.884 150.625 284.164C143.485 283.072 126.813 281.716 123.807 273.979C123.748 273.836 123.652 273.711 123.53 273.616C123.408 273.521 123.263 273.46 123.11 273.439C122.956 273.417 122.8 273.435 122.657 273.492C122.513 273.549 122.386 273.642 122.289 273.763C114.76 283.826 140.626 288.225 145.788 289.297C154.385 291.081 179.299 295.661 179.456 280.458C179.47 279.068 178.203 278.311 176.986 279.009Z" fill="#FFCFE9"/>
<path d="M157.35 263.671C155.56 261.289 152.172 262.202 149.984 263.411C149.899 263.448 149.828 263.51 149.782 263.591C149.736 263.671 149.717 263.764 149.728 263.856C149.739 263.947 149.78 264.033 149.845 264.099C149.909 264.166 149.993 264.21 150.084 264.224C152.079 264.677 153.409 266.672 155.426 266.917C157.164 267.159 158.414 265.098 157.35 263.671Z" fill="#FFCFE9"/>
<path d="M148.114 248.521C146.124 245.058 144.038 240.821 140.682 238.544C140.588 238.47 140.474 238.425 140.355 238.416C140.235 238.406 140.115 238.432 140.011 238.49C139.906 238.549 139.821 238.637 139.766 238.744C139.711 238.85 139.689 238.971 139.703 239.09C140.007 242.916 142.273 246.57 143.833 250.019C145.517 253.733 146.897 257.583 149.759 260.545C150.77 261.598 152.633 261.088 152.488 259.453C152.145 255.392 150.119 252.01 148.114 248.521Z" fill="#FFCFE9"/>
<path d="M207.696 109.61C205.557 85.149 201.021 60.524 183.242 42.273C168.668 27.312 151.313 13.4108 130.651 9.32783C129.048 -0.296996 113.027 1.2794 107.546 1.30632C99.7571 1.34794 85.1314 0.532815 83.1438 9.859C60.7585 13.3447 40.236 26.9815 25.5539 44.0673C17.4761 53.4596 11.0482 64.4601 7.03619 76.1876C5.07613 81.7883 3.73411 87.5866 3.03402 93.479C2.25071 100.48 3.32041 107.821 1.04149 114.582C0.385473 116.54 1.76114 118.625 3.92991 118.386C69.9794 111.118 136.9 109.236 203.089 115.735C204.972 115.921 206.076 114.486 206.198 113.017C207.175 112.359 207.838 111.213 207.696 109.61Z" fill="#FDE41B"/>
<path d="M196.623 112.582C191.054 109.062 184.237 107.975 177.838 106.707C169.954 105.138 161.986 104.014 153.986 103.231C138.132 101.696 122.145 101.63 106.254 102.352C89.7116 103.094 73.2133 104.756 56.764 106.614C48.5099 107.544 40.2632 108.506 32.0263 109.58C24.4626 110.56 15.6039 110.804 8.84058 114.518C8.39263 114.763 8.20659 115.565 8.84058 115.761C15.0017 117.719 22.0735 116.652 28.4084 116.114C36.1999 115.453 43.9619 114.503 51.7288 113.622C68.2247 111.754 84.745 110.011 101.324 109.091C117.636 108.188 134 108.112 150.28 109.461C157.822 110.085 165.339 111.017 172.8 112.322C180.293 113.634 187.962 116.427 195.582 116.359C197.362 116.344 198.126 113.529 196.623 112.582Z" fill="#FFAD12"/>
<path d="M78.1066 11.0948C70.0949 22.5335 66.2739 37.8519 62.7784 51.2244C59.1948 64.9322 53.8243 81.4451 55.6308 95.6841C55.9392 98.1099 59.349 98.5628 60.3061 96.323C62.9057 90.2402 63.7331 83.1635 65.0818 76.6988C66.6068 69.4362 68.0192 62.1686 69.8012 54.9597C73.2673 40.9484 79.1861 26.5651 80.7478 12.2086C80.8996 10.8109 78.9854 9.83176 78.1066 11.0948Z" fill="#FFAD12"/>
<path d="M154.255 74.601C153.386 66.4522 152.61 58.2887 151.624 50.1546C150.013 36.8556 146.594 23.5175 137.61 13.1461C137.008 12.4509 135.652 12.8107 135.833 13.8584C136.991 20.6804 139.848 27.0154 141.387 33.7591C142.905 40.4221 143.409 47.2221 144.092 53.9928C145.522 68.2489 145.541 84.101 149.602 97.8577C150.525 100.981 155.614 100.244 155.851 97.0916C156.412 89.6306 155.048 82.0179 154.255 74.601Z" fill="#FFAD12"/>
<path d="M128.387 4.07472C121.08 2.70884 113.661 2.82634 106.261 3.13231C99.2972 3.41871 91.0529 2.84837 84.7841 6.21901C84.7084 6.25307 84.6442 6.30827 84.5991 6.37796C84.554 6.44766 84.53 6.52889 84.53 6.61189C84.53 6.69489 84.554 6.77611 84.5991 6.84581C84.6442 6.91551 84.7084 6.9707 84.7841 7.00476C84.9358 7.0684 85.095 7.10268 85.2492 7.15898C85.1243 7.23241 85.0044 7.30584 84.882 7.38417C84.5405 7.64771 84.2373 7.95747 83.9812 8.30455C83.3864 9.00952 83.1147 9.64596 83.2053 10.5565C78.738 11.5724 74.2413 12.2578 69.9577 14.0202C64.4819 16.2747 59.574 19.7481 54.7445 23.1114C44.165 30.4769 33.539 38.0431 24.9031 47.6949C16.8644 56.6735 10.8918 67.412 6.89202 78.7479C3.22029 89.1756 -0.752507 102.533 0.72108 113.627C0.951175 115.375 3.82981 116.058 4.37812 114.129C7.50643 103.153 7.75121 91.6748 11.5747 80.6964C15.5451 69.2993 21.4394 58.644 29.5882 49.6996C38.2388 40.2045 49.0019 32.702 59.5054 25.4222C64.7022 21.819 69.9601 18.8767 75.9058 16.6663C79.3989 15.3665 82.1649 14.1328 84.4928 11.2811C84.8599 11.1114 85.1855 10.8636 85.4468 10.5549C85.7081 10.2463 85.8988 9.88426 86.0055 9.49419C86.1567 9.13681 86.2692 8.76425 86.3409 8.38288C86.3593 8.10005 86.3593 7.81632 86.3409 7.53349C91.4642 9.05603 97.2435 8.31924 102.496 8.00103C111.022 7.48698 119.364 6.57884 127.89 7.65833C130.218 7.94228 130.661 4.50064 128.387 4.07472Z" fill="white"/>
<path d="M96.9472 244.823C92.5705 244.502 88.6246 243.109 86.2013 239.273C85.3274 237.89 84.8745 235.724 83.5258 234.649C81.0168 232.647 77.4405 234.334 74.5423 235.763C74.5224 235.737 74.4968 235.716 74.4675 235.702C74.4383 235.687 74.406 235.68 74.3734 235.68C74.3407 235.68 74.3085 235.687 74.2792 235.702C74.2499 235.716 74.2244 235.737 74.2045 235.763C74.1237 235.861 74.0527 235.966 73.9719 236.064C73.3771 236.358 72.8141 236.63 72.3099 236.835C70.9318 237.401 70.7237 238.794 71.201 239.849C67.0397 246.115 64.1366 253.312 61.1894 260.2C60.4551 261.913 62.2322 263.521 63.882 262.939C68.1234 261.42 72.5155 260.361 76.9828 259.779C81.1612 259.265 85.3396 260.151 89.4373 259.779C95.4785 259.221 95.5152 252.303 98.269 248.073C99.0376 246.884 98.5995 244.95 96.9472 244.823Z" fill="#FF761D"/>
<path d="M159.342 294.873C159.26 294.263 158.981 293.695 158.549 293.257C158.116 292.818 157.552 292.533 156.943 292.443C147.01 291.094 136.482 289.082 127.104 285.501C123.144 283.99 121.736 280.651 118.515 278.585C114.302 275.893 112.023 280.265 107.042 274.292C106.337 273.447 104.719 273.141 104.033 274.255C102.775 277.002 100.357 278.38 96.7781 278.39C95.6864 278.372 94.7195 278.779 94.2569 279.836C92.0196 284.95 80.1795 287.018 75.5849 288.45C69.058 290.516 62.3963 292.129 55.6474 293.277C55.0404 292.298 53.2853 292.352 53.1629 293.742C52.6293 299.837 52.1446 305.908 51.5327 311.986C51.1036 312.359 50.8015 312.857 50.6686 313.411C50.4067 314.439 50.3479 315.124 50.507 315.748C51.2536 323.902 67.1081 324.205 72.8678 325.138C86.6099 327.366 100.337 328.496 114.236 327.175C126.759 325.985 140.582 324.548 152.625 320.659C165.258 316.58 160.37 305.57 159.342 294.873Z" fill="#FF761D"/>
<path d="M149.301 261.436C144.531 253.525 143.542 243.976 138.154 236.667C135.736 233.389 129.853 233.081 125.068 233.729C124.023 233.874 122.916 234.789 122.865 235.915C122.522 242.279 115.291 244.035 110.626 246.35C110.469 246.417 110.333 246.523 110.23 246.659C110.127 246.794 110.061 246.954 110.038 247.123C110.016 247.292 110.038 247.464 110.103 247.621C110.167 247.779 110.271 247.917 110.405 248.022C110.278 248.457 110.304 248.923 110.479 249.341C111.541 251.917 114.104 253.601 115.747 255.914C117.303 258.117 118.63 259.877 121.117 261.054C128.502 264.54 139.28 264.192 147.282 264.863C149.23 265.032 150.261 263.027 149.301 261.436Z" fill="#FF761D"/>
<path d="M162.412 340.412C163.146 333.715 162.532 326.991 162.12 320.298C161.978 317.985 158.806 316.558 157.024 318.113C151.015 323.363 138.626 323.681 130.911 324.536C121.942 325.53 112.924 325.813 103.909 325.833C94.7441 325.853 85.577 325.681 76.4173 325.4C71.1423 325.236 59.8505 325.782 54.3551 322.076C54.174 321.753 54.0222 321.424 53.8239 321.096C53.7195 320.948 53.568 320.839 53.3939 320.787C53.2198 320.735 53.0332 320.743 52.8644 320.81C52.5006 320.421 52.1873 319.988 51.9318 319.52C51.009 317.78 48.2601 318.25 48.4657 320.409C48.6398 322.513 49.5549 324.487 51.0481 325.98C49.9735 332.496 51.4079 339.198 53.1165 345.665C54.267 350.013 55.8997 354.056 57.7478 358.149C60.1124 363.373 60.4061 368.082 60.7831 373.703C61.1478 379.127 61.7622 384.534 62.5749 389.912C63.1966 394.073 63.0082 400.927 65.6616 404.354C68.2073 407.651 72.6208 407.688 76.1309 405.97C83.2639 407.394 90.9329 407.079 98.056 407.243C100.533 407.301 102.058 405.759 102.051 403.294C102.031 394.986 102.384 386.691 103.189 378.422C103.799 372.131 103.664 362.421 105.691 356.147C107.581 355.998 110.716 355.997 111.712 356.521C112.709 357.045 112.334 358.724 112.447 358.724C112.364 358.79 112.231 359.114 112.743 360.438C114.062 363.865 113.553 369.463 113.967 373.208C114.946 382.111 115.879 391.246 117.807 400.004C118.946 405.167 120.649 407.074 125.866 408.041C134.13 409.582 142.622 409.42 150.821 407.566C151.472 407.425 152.067 407.097 152.535 406.623C154.608 407.377 157.43 406.486 157.536 403.852C158.089 389.183 155.991 373.893 157.504 359.339C158.157 352.881 161.677 347.009 162.412 340.412Z" fill="#A4A2A6"/>
<path d="M89.2218 243.417C88.8057 242.213 87.6601 241.667 86.7177 240.992C84.8671 239.66 83.3593 238.563 82.2235 236.48C80.8747 234.013 76.8921 233.94 76.4564 237.188C76.4319 237.366 76.4001 237.543 76.3756 237.721C74.4663 240.397 73.3379 243.633 72.4591 246.778C71.9004 248.634 71.4991 250.534 71.2597 252.457C71.0443 254.506 71.4898 256.697 70.3736 258.577C69.4973 260.045 70.6428 261.935 72.4249 261.316C75.2496 260.337 77.81 260.337 80.7719 260.374C82.2014 260.393 84.0593 260.716 85.4228 260.185C87.9881 259.181 87.993 256.455 88.3871 253.975C88.8326 251.067 90.2009 246.257 89.2218 243.417Z" fill="#FFF100"/>
<path d="M134.636 259.436C132.735 252.582 131.356 244.519 126.534 239.031C125.462 237.807 123.075 237.68 122.481 239.521C121.803 241.621 120.481 243.234 118.831 244.558C118.349 244.747 117.899 245.01 117.497 245.337C117.472 245.293 117.448 245.249 117.421 245.207C117.335 245.097 117.22 245.014 117.088 244.969C116.956 244.924 116.814 244.918 116.679 244.953C116.544 244.987 116.422 245.061 116.328 245.164C116.234 245.267 116.173 245.395 116.151 245.532C116.092 246.086 116.087 246.629 116.08 247.173C115.882 247.795 115.892 248.465 116.106 249.082C116.121 249.121 116.138 249.172 116.155 249.214C116.321 250.908 116.586 252.591 116.951 254.254C117.299 255.933 117.489 259.076 118.98 260.205C120.045 261.01 121.673 260.981 123.164 260.988C124.441 261.801 125.881 262.102 127.496 261.529C129.352 261.874 131.153 262.173 133.153 261.926C134.428 261.779 134.945 260.557 134.636 259.436Z" fill="#FFF100"/>
<path d="M159.024 301.756C159.048 299.926 157.288 298.714 155.661 299.769C150.785 302.931 144.699 303.996 138.798 304.77C138.893 304.661 138.98 304.546 139.059 304.425C139.14 304.268 139.211 304.099 139.29 303.935C140.183 303.397 142.261 303.614 142.8 302.525C143.975 300.148 142.457 296.347 141.774 293.789C141.904 291.341 140.616 290.058 138.308 288.893C135.704 287.576 132.955 286.837 130.071 286.421C129.567 286.347 128.306 285.931 127.378 285.975C126.857 285.145 126.285 284.347 125.665 283.586C125.571 283.466 125.443 283.375 125.299 283.326C125.154 283.277 124.998 283.271 124.849 283.309C124.701 283.347 124.567 283.428 124.465 283.541C124.362 283.654 124.294 283.795 124.27 283.946C123.597 288.499 124.502 293.449 125.819 298.073C125.694 299.874 125.844 301.725 126.554 303.137C128.022 306.074 131.623 305.47 134.387 305.232C134.414 305.259 134.428 305.301 134.455 305.328L133.305 305.477C126.507 306.405 119.612 306.872 112.763 307.191C106.153 307.497 96.2373 309.22 89.8436 307.274C85.1438 305.842 85.3421 303.685 85.0141 299.181C84.7546 295.64 84.4968 292.099 84.2406 288.558C84.1255 286.989 82.412 286.208 81.0584 286.673C77.3206 287.956 73.6488 289.317 69.8547 290.401C69.5292 290.12 68.9197 290.142 68.7924 290.612C68.7924 290.643 68.7924 290.678 68.7728 290.712L68.3909 290.82C66.9932 291.184 67.3604 292.849 68.3762 293.407C68.1853 295.938 67.8867 301.952 67.0911 303.862C66.2662 305.839 59.3365 304.089 54.6587 302.481C54.3649 302.367 54.0492 302.32 53.7349 302.343C53.4206 302.367 53.1155 302.461 52.8422 302.618C52.5689 302.775 52.3343 302.992 52.1555 303.251C51.9768 303.511 51.8585 303.807 51.8094 304.119C50.6075 310.263 48.4779 318.806 55.8605 321.54C59.9704 323.055 64.9664 323.072 69.2942 323.601C72.2315 323.961 75.1689 324.301 78.1063 324.597C78.4018 324.967 78.8144 325.226 79.2764 325.331C90.4237 327.608 102.658 326.979 113.979 326.416C125.09 325.863 138.046 325.853 148.513 321.765C149.646 321.319 150.124 320.477 150.141 319.608C153.249 319.023 156.135 318.059 158.982 316.032C159.271 315.819 159.498 315.533 159.64 315.203C159.781 314.873 159.832 314.511 159.788 314.155C159.191 310.05 158.935 305.903 159.024 301.756Z" fill="#FFF100"/>
<path d="M101.706 401.852C101.663 401.109 101.549 400.371 101.363 399.649C101.297 399.392 101.215 399.14 101.118 398.893C101.167 398.663 101.216 398.433 101.258 398.21C103.6 385.535 104.477 372.295 105.762 359.473C105.96 357.515 104.538 354.935 102.288 354.915C97.0622 354.871 91.3784 354.147 87.1118 357.608C86.9749 357.714 86.8636 357.85 86.7864 358.005C86.7092 358.16 86.668 358.33 86.6659 358.504C86.6638 358.677 86.7008 358.848 86.7742 359.005C86.8476 359.162 86.9555 359.3 87.0898 359.41C89.8852 361.96 93.4541 362.536 97.1258 362.761C96.0929 370.22 95.1243 377.687 94.2203 385.161C93.3978 391.907 93.0894 398.555 90.3698 404.807C89.9194 405.842 90.4433 407.294 91.5522 407.673C93.8164 408.452 95.6155 408.011 97.0279 406.902C97.4856 407.306 98.03 407.6 98.619 407.76C99.208 407.921 99.826 407.944 100.425 407.828C101.025 407.712 101.59 407.461 102.076 407.092C102.563 406.724 102.959 406.248 103.233 405.703C103.967 404.303 103.05 402.462 101.706 401.852Z" fill="#908C93"/>
<path d="M128.108 357.799C128.531 357.295 128.353 356.622 127.912 356.211C125.124 353.518 121.34 353.763 117.631 354.056C115.607 354.218 113.683 356.477 114.131 358.538C115.904 366.561 117.165 374.688 117.908 382.87C118.574 390.475 118.172 398.24 120.128 405.634C121.127 409.419 126.438 407.955 127.055 404.785C128.588 396.903 127.415 388.336 126.644 380.405C126.037 373.804 124.866 367.267 123.144 360.866C125.028 360.267 126.759 359.403 128.108 357.799Z" fill="#908C93"/>
<path d="M142.927 336.151C142.381 336.467 141.86 336.609 141.309 337.017C141.236 337.071 141.179 337.133 141.111 337.189C141.478 336.366 141.6 335.451 140.702 334.971C139.187 334.161 137.782 335.216 136.751 336.308C135.804 337.309 135.375 338.511 135.189 339.85C134.876 342.102 138.315 343.147 139.106 340.912C139.241 340.54 139.407 340.178 139.578 339.81C139.65 340.161 139.839 340.476 140.114 340.704C140.849 341.269 141.762 341.061 142.347 340.43C142.813 339.928 143.208 339.364 143.519 338.753C143.801 338.217 143.884 337.637 144.099 337.074C144.405 336.308 143.563 335.781 142.927 336.151Z" fill="#908C93"/>
<path d="M77.0661 336.9C76.1604 335.592 75.0246 334.726 73.7664 333.779C73.0932 333.272 72.0285 333.977 72.4005 334.802C72.6967 335.453 72.9684 336.121 73.2891 336.76C73.6594 337.459 74.1276 338.102 74.6794 338.669C75.2228 339.259 76.0649 339.492 76.7576 338.978C77.0687 338.739 77.2749 338.389 77.3324 338.001C77.39 337.613 77.2944 337.218 77.0661 336.9Z" fill="#908C93"/>
<path d="M83.2637 336.344C83.1511 335.94 83.0605 335.534 82.7056 335.257C82.5004 335.121 82.2823 335.006 82.0545 334.912C81.9326 334.863 81.7981 334.855 81.6711 334.888C81.5441 334.922 81.4313 334.996 81.3495 335.098C81.1672 335.287 81.013 335.5 80.8918 335.732C80.7278 336.126 80.8232 336.55 80.8918 336.956C80.9151 337.13 80.9748 337.296 81.067 337.445C81.1591 337.594 81.2816 337.722 81.4264 337.82C81.5713 337.918 81.7353 337.984 81.9076 338.015C82.08 338.045 82.2568 338.039 82.4266 337.997C82.5851 337.959 82.734 337.888 82.8638 337.79C82.9936 337.691 83.1014 337.566 83.1805 337.424C83.2724 337.261 83.3274 337.08 83.3418 336.893C83.3562 336.707 83.3295 336.519 83.2637 336.344Z" fill="#908C93"/>
<path d="M67.9528 348.897C66.7412 348.831 66.1659 349.854 65.6886 350.825C65.106 352.013 65.2186 353.229 65.4438 354.497C65.4904 354.751 65.6158 354.983 65.8021 355.161C65.9884 355.339 66.2261 355.453 66.4813 355.488C66.7365 355.523 66.9963 355.477 67.2236 355.356C67.4509 355.234 67.6341 355.044 67.7472 354.813C68.276 353.653 68.7876 352.652 68.8806 351.352C68.9369 350.63 69.0886 348.958 67.9528 348.897Z" fill="#908C93"/>
<path d="M70.5086 354.436C69.7742 354.436 69.926 355.56 70.6457 355.56C71.3653 355.56 71.2283 354.436 70.5086 354.436Z" fill="#908C93"/>
<path d="M71.808 377.852C71.701 377.483 71.5061 377.145 71.24 376.868C70.974 376.591 70.6448 376.383 70.2806 376.261C69.8196 376.06 69.299 376.044 68.8266 376.217C68.6476 376.295 68.4776 376.392 68.3199 376.508C68.0983 376.564 67.9015 376.692 67.7603 376.872C67.619 377.052 67.5412 377.273 67.5391 377.502C67.5433 377.711 67.6082 377.916 67.7259 378.089C67.8436 378.263 68.0091 378.399 68.2024 378.481C68.3451 378.687 68.5253 378.865 68.7336 379.005L68.785 379.036C68.8598 379.131 68.9416 379.221 69.0298 379.303C69.162 379.416 69.3162 379.494 69.4459 379.609C69.7093 379.812 70.0314 379.924 70.3638 379.928C70.6962 379.932 71.0209 379.828 71.2891 379.631C71.5492 379.425 71.7389 379.143 71.8318 378.824C71.9248 378.505 71.9165 378.166 71.808 377.852Z" fill="#908C93"/>
<path d="M86.1377 380.615C85.0044 380.804 84.1134 381.871 83.3423 382.652C82.5713 383.433 83.0241 384.855 83.8711 385.345C84.8894 385.939 85.9615 385.45 86.4878 384.478C86.7655 383.98 87.0108 383.464 87.2221 382.934C87.3689 382.625 87.4608 382.294 87.4938 381.954C87.497 381.808 87.4814 381.661 87.4473 381.519C87.8414 380.677 86.828 379.876 86.1377 380.615Z" fill="#908C93"/>
<path d="M139.804 384.131C139.623 384.055 139.444 383.976 139.27 383.886C139.233 383.866 139.189 383.839 139.16 383.82C138.852 383.599 138.573 383.342 138.252 383.139C137.464 382.633 137.084 381.94 136.093 381.817C135.444 381.737 134.624 382.116 134.416 382.779C134.005 384.055 134.786 385.286 135.655 386.206C136.475 387.066 137.701 387.472 138.837 387.731C139.735 387.934 140.67 387.188 140.883 386.358C141.004 385.919 140.961 385.451 140.763 385.041C140.564 384.631 140.223 384.308 139.804 384.131Z" fill="#908C93"/>
<path d="M147.145 380.187C146.727 380.278 146.335 380.461 145.996 380.723C145.674 381.004 145.377 381.313 145.108 381.646C144.735 382.027 144.471 382.501 144.344 383.019C144.291 383.44 144.273 383.865 144.29 384.289C144.29 384.84 144.846 385.349 145.328 385.472C145.594 385.535 145.873 385.523 146.132 385.436C146.392 385.35 146.622 385.192 146.797 384.982C146.932 384.843 147.059 384.737 147.306 384.493C147.646 384.157 147.776 383.731 147.979 383.315C148.066 383.132 148.165 382.956 148.275 382.787C148.46 382.457 148.593 382.101 148.669 381.732C148.98 380.725 148.17 379.901 147.145 380.187Z" fill="#908C93"/>
<path d="M146.462 360.051L145.801 361.706C145.497 362.465 146.67 362.959 146.976 362.195C147.196 361.642 147.419 361.092 147.639 360.541C147.943 359.779 146.768 359.287 146.462 360.051Z" fill="#908C93"/>
<path d="M151.264 358.301L149.384 361.111C148.699 362.132 150.302 363.069 150.836 361.958C151.326 360.94 151.815 359.92 152.305 358.901C152.581 358.298 151.641 357.733 151.264 358.301Z" fill="#908C93"/>
<path d="M86.0862 398.626L85.5331 397.917C85.3881 397.744 85.2035 397.609 84.9949 397.524C84.7864 397.439 84.5603 397.406 84.3361 397.427C84.2539 397.336 84.1832 397.235 84.1256 397.126C84.0858 397.074 84.0346 397.032 83.976 397.003C83.9175 396.974 83.8531 396.959 83.7878 396.959C83.7225 396.959 83.658 396.974 83.5995 397.003C83.5409 397.032 83.4897 397.074 83.45 397.126C83.1001 397.611 82.9273 398.201 82.9604 398.798C83.0216 399.659 83.7364 400.34 84.4487 400.732C84.9382 401.008 85.7387 400.759 86.0593 400.308C86.245 400.068 86.348 399.775 86.3528 399.472C86.3577 399.169 86.2641 398.872 86.0862 398.626Z" fill="#908C93"/>
<path d="M88.6857 395.317C88.661 395.163 88.5776 395.025 88.453 394.931C88.3284 394.837 88.1723 394.796 88.0176 394.815C87.8628 394.834 87.7215 394.912 87.6233 395.033C87.5251 395.154 87.4778 395.309 87.4911 395.464L87.7041 398.127C87.7775 399.035 89.2536 398.861 89.1091 397.953L88.6857 395.317Z" fill="#908C93"/>
<path d="M68.1708 325.787C63.4025 324.318 58.2131 323.471 53.6675 321.459C52.1841 320.803 50.6298 322.12 50.7791 323.662C51.4057 330.195 62.6045 331.412 67.5295 330.472C69.7056 330.048 70.7019 326.58 68.1708 325.787Z" fill="#414042"/>
<path d="M87.0751 327.684C86.8573 327.588 86.3408 327.245 85.8096 326.966C84.8525 326.477 83.9982 326.352 82.9261 326.372C81.3448 326.401 79.7439 326.802 78.6742 328.034C77.9741 328.844 78.1846 330.237 79.0242 330.873C79.6582 331.341 80.324 331.546 81.0633 331.798C81.8906 332.082 82.7033 332.454 83.56 332.648C85.2564 333.027 86.8989 333.01 88.0885 331.551C89.146 330.251 88.534 328.332 87.0751 327.684Z" fill="#414042"/>
<path d="M128.595 327.037C124.891 325.079 118.346 325.738 114.5 326.937C112.846 327.451 112.98 329.926 114.473 330.535C118.51 332.18 125.379 332.398 128.886 329.419C129.731 328.702 129.547 327.539 128.595 327.037Z" fill="#414042"/>
<path d="M157.761 318.076C155.313 319.493 151.857 319.973 149.164 320.84C146.063 321.839 143.084 322.698 140.514 324.788C139.417 325.679 139.745 327.725 141.302 327.853C145.309 328.213 148.944 326.849 152.743 325.748C155.81 324.859 159.156 324.242 161.188 321.586C162.98 319.236 160.062 316.737 157.761 318.076Z" fill="#414042"/>
<path d="M74.0774 238.052C74.0727 238.002 74.0532 237.956 74.0214 237.918C73.9895 237.88 73.9469 237.852 73.8992 237.839C73.8514 237.826 73.8008 237.827 73.7539 237.843C73.707 237.86 73.6662 237.89 73.6367 237.929C71.2354 240.74 70.1168 244.45 68.6848 247.824C67.0497 251.681 65.2774 255.625 64.0633 259.629C63.493 261.509 65.9335 262.528 66.871 260.799C69.0006 256.883 70.5158 252.477 71.8768 248.237C72.9465 244.906 74.2658 241.584 74.0774 238.052Z" fill="#FF4D00"/>
<path d="M55.0821 294.114C54.1446 296.491 53.3687 298.56 53.4299 301.147C53.4568 302.278 54.9671 302.214 55.3881 301.416C56.5508 299.24 56.7589 297.054 56.9841 294.631C57.0942 293.534 55.5105 293.025 55.0821 294.114Z" fill="#FF4D00"/>
<path d="M97.9505 245.973C95.5982 245.711 93.1112 246.404 90.7564 245.988C90.3867 245.924 90.2472 246.397 90.4896 246.617C91.64 247.665 92.4331 248.467 94.0022 248.884C95.4195 249.26 96.9175 249.451 98.3103 248.884C99.7031 248.316 99.4828 246.144 97.9505 245.973Z" fill="#FF4D00"/>
<path d="M114.121 245.99C113.851 246.216 113.539 246.386 113.203 246.49C112.867 246.595 112.513 246.632 112.163 246.599C111.597 246.548 111.287 247.427 111.889 247.615C112.886 247.942 113.971 247.864 114.912 247.4C115.996 246.854 115.012 245.27 114.121 245.99Z" fill="#FF4D00"/>
<path d="M146.555 262.256C145.057 257.15 143.387 251.931 141.454 246.972C140.034 243.334 138.252 239.05 134.671 237.163C134.152 236.889 133.606 237.43 133.65 237.939C134.015 242.323 136.455 246.822 137.757 251.033C139.175 255.615 140.271 260.231 142.633 264.442C143.975 266.831 147.221 264.52 146.555 262.256Z" fill="#FF4D00"/>
<path d="M157.484 296.604C157.239 295.529 156.544 294.352 155.494 293.953C155.294 293.878 155.072 293.881 154.875 293.963C154.677 294.045 154.518 294.199 154.429 294.393C154.013 295.142 154.023 296.17 154.045 297.027C154.064 297.94 154.094 298.716 154.495 299.551C154.924 300.437 156.424 300.973 157.048 299.918C157.359 299.387 157.646 298.939 157.695 298.307C157.711 297.732 157.64 297.158 157.484 296.604Z" fill="#FF4D00"/>
<path d="M98.6829 410.112C98.4827 409.616 98.1557 409.182 97.7346 408.853C97.3135 408.524 96.8132 408.311 96.284 408.237C91.6527 407.441 85.9469 409.167 81.1565 408.917C77.5484 408.729 73.0346 407.311 69.9112 409.551C69.812 409.626 69.74 409.732 69.706 409.851C69.6719 409.971 69.6778 410.098 69.7227 410.214L69.7472 410.249C68.6481 412.17 69.1377 414.77 69.6224 416.802C69.2674 418.376 69.0055 419.967 68.6848 421.235C68.3642 422.503 69.4045 424.211 70.626 424.617C74.5795 425.942 78.7199 426.625 82.8895 426.639C87.2491 426.666 92.2818 427.166 96.5557 426.245C98.9227 425.734 100.423 424.37 100.639 421.908C100.925 418.652 99.7966 413.186 98.6829 410.112Z" fill="white"/>
<path d="M152.427 412.239C153.651 409.943 151.247 407.46 148.968 407.686C141.571 408.42 134.315 409.101 126.864 408.963C126.444 408.963 126.026 409.018 125.621 409.13C125.471 408.929 125.327 408.726 125.163 408.525C124.982 408.296 124.731 408.132 124.449 408.057C124.167 407.982 123.868 408 123.597 408.108C123.326 408.216 123.097 408.409 122.944 408.658C122.791 408.907 122.723 409.199 122.749 409.49C122.938 413.01 121.851 415.609 121.063 418.914C120.652 420.642 120.524 422.485 121.57 424.04C124.174 427.902 130.355 426.103 134.1 426.093C138.976 426.093 146.584 428.052 151.039 425.699C157.202 422.468 150.109 416.596 152.427 412.239Z" fill="white"/>
<path d="M100.57 423.117C96.8102 421.685 92.5535 422.138 88.6051 422.216C83.6189 422.321 78.8139 422.74 74.2634 424.86C74.1567 424.905 74.0676 424.984 74.0097 425.084C73.9517 425.184 73.928 425.301 73.9421 425.416C73.9562 425.531 74.0074 425.638 74.0878 425.721C74.1683 425.805 74.2738 425.86 74.3882 425.878C79.4185 426.642 84.4683 426.47 89.5427 426.527C93.2438 426.566 97.0036 427.06 100.558 425.792C101.73 425.383 101.735 423.562 100.57 423.117Z" fill="#929497"/>
<path d="M147.833 422.647C140.359 420.909 131.608 420.02 124.451 423.555C124.344 423.6 124.255 423.679 124.198 423.78C124.14 423.88 124.116 423.997 124.131 424.112C124.145 424.227 124.196 424.334 124.277 424.418C124.358 424.501 124.464 424.555 124.578 424.573C131.978 425.929 139.892 425.374 147.39 425.941C149.546 426.105 149.906 423.129 147.833 422.647Z" fill="#929497"/>
<path d="M102.685 327.211C100.756 327.578 99.456 328.259 97.9237 329.488C96.586 330.523 95.5485 331.896 94.9178 333.465C94.906 333.497 94.9036 333.532 94.9108 333.565C94.918 333.598 94.9345 333.629 94.9584 333.653C94.9823 333.677 95.0126 333.694 95.0457 333.701C95.0788 333.709 95.1134 333.707 95.1454 333.695C98.1138 332.568 100.908 331.027 103.446 329.118C104.234 328.504 103.757 327.008 102.685 327.211Z" fill="white"/>
<path d="M108.968 328.049C107.517 328.379 106.482 329.405 105.392 330.367C104.168 331.449 103.006 332.621 101.721 333.635C101.686 333.67 101.665 333.717 101.661 333.767C101.658 333.817 101.672 333.866 101.701 333.907C101.73 333.948 101.772 333.976 101.821 333.989C101.869 334.001 101.92 333.996 101.965 333.975C103.348 333.054 104.903 332.352 106.396 331.637C107.62 331.057 108.92 330.592 109.793 329.527C110.273 328.94 109.762 327.858 108.968 328.049Z" fill="white"/>
<path d="M165.432 132.688C163.053 131.295 160.13 130.754 157.533 129.841C154.936 128.928 152.312 127.795 149.646 127.031C148.784 126.786 147.688 127.741 148.422 128.59C152.162 132.867 159.075 136.913 164.857 136.82C167.307 136.788 167.021 133.618 165.432 132.688Z" fill="#8C4238"/>
<path d="M172.492 127.327C170.778 126.838 169.065 126.4 167.352 125.956C165.773 125.555 164.111 124.703 162.456 125.053C161.57 125.242 160.703 126.209 161.2 127.173C162.084 128.887 163.79 129.621 165.511 130.355C167.342 131.158 169.296 131.645 171.29 131.797C173.745 131.978 175.18 128.115 172.492 127.327Z" fill="#8C4238"/>
<path d="M81.5996 235.898C84.1209 242.715 91.3053 245.995 98.049 247.119C105.126 248.301 113.314 247.831 119.653 244.181C122.498 242.539 124.931 240.042 125.66 236.757C126.079 234.865 123.171 234.065 122.75 235.957C121.553 241.342 114.985 243.4 110.232 244.211C103.953 245.278 96.7541 244.722 91.0262 241.763C88.199 240.294 85.641 238.15 84.5101 235.093C83.8419 233.289 80.9241 234.069 81.5996 235.895V235.898Z" fill="#400705"/>
<path d="M52.2818 291.897C50.5701 300.243 49.3279 308.68 48.5611 317.165C48.3898 319.099 51.4079 319.087 51.5793 317.165C52.3245 308.945 53.5307 300.773 55.1923 292.687C55.579 290.79 52.671 289.98 52.2818 291.884V291.897Z" fill="#400705"/>
<path d="M72.3983 235.031C67.4635 243.826 63.5249 253.145 60.2351 262.675C59.5986 264.513 62.514 265.304 63.1455 263.475C66.3522 254.193 70.1953 245.116 75.0052 236.549C75.955 234.855 73.3505 233.33 72.3983 235.026V235.031Z" fill="#400705"/>
<path d="M162.811 315.075C161.749 307.763 160.522 300.476 159.022 293.241C158.63 291.339 155.72 292.144 156.114 294.041C157.612 301.277 158.838 308.564 159.9 315.876C160.018 316.688 161.039 317.119 161.756 316.931C162.625 316.7 162.926 315.876 162.811 315.075Z" fill="#400705"/>
<path d="M151.252 264.797C147.58 254.425 143.03 244.309 137.429 234.831C136.45 233.159 133.831 234.676 134.822 236.353C140.293 245.611 144.751 255.468 148.342 265.6C148.985 267.416 151.903 266.633 151.252 264.797Z" fill="#400705"/>
<path d="M74.7044 236.828L81.6709 236.204C82.4542 236.133 83.2179 235.56 83.1787 234.693C83.1445 233.937 82.5129 233.11 81.6709 233.186L74.7044 233.81C73.9211 233.878 73.1574 234.454 73.1965 235.318C73.2308 236.076 73.8623 236.901 74.7044 236.828Z" fill="#400705"/>
<path d="M48.7987 318.852C51.7532 322.619 57.2583 324.22 61.6816 325.356C69.003 327.233 76.628 328.007 84.1574 328.438C102.046 329.463 120.319 328.45 137.929 325.092C145.864 323.579 153.972 321.586 161.183 317.824C162.896 316.923 161.381 314.319 159.66 315.217C153.607 318.38 146.844 320.154 140.198 321.567C131.782 323.354 123.22 324.423 114.647 325.067C98.4527 326.291 81.4893 326.506 65.5197 323.148C60.7098 322.137 54.1716 320.837 50.9405 316.717C49.7435 315.19 47.6213 317.339 48.806 318.852H48.7987Z" fill="#400705"/>
<path d="M52.2968 303.225C58.1716 306.407 64.7807 307.207 71.3213 307.915C78.699 308.715 86.0865 309.283 93.5083 309.418C107.292 309.663 121.051 308.539 134.666 306.417C142.467 305.193 150.21 303.665 157.92 301.969C159.817 301.553 159.014 298.643 157.117 299.059C130.436 304.933 103.51 308.018 76.2169 305.408C68.6948 304.691 60.6047 304.28 53.8243 300.618C52.1108 299.695 50.5883 302.3 52.2993 303.225H52.2968Z" fill="#400705"/>
<path d="M86.7079 306.556C86.4631 299.969 86.304 293.392 86.5978 286.803C86.6834 284.859 83.6604 284.864 83.5796 286.803C83.2858 293.392 83.4572 299.969 83.6897 306.556C83.7583 308.493 86.7764 308.515 86.7079 306.556Z" fill="#400705"/>
<path d="M88.5735 244.923C87.6417 249.7 86.8421 254.498 86.1746 259.319C86.062 260.124 86.3704 260.939 87.2272 261.174C87.9322 261.37 88.9725 260.929 89.0827 260.122C89.7517 255.301 90.5521 250.502 91.4839 245.726C91.6382 244.928 91.2563 244.098 90.429 243.87C89.6946 243.667 88.7301 244.115 88.5735 244.923Z" fill="#400705"/>
<path d="M68.932 304.204C68.6677 299.879 68.9688 295.566 69.0275 291.231C69.0544 289.287 66.0363 289.287 66.0094 291.231C65.9506 295.556 65.6495 299.869 65.9139 304.204C65.9232 304.601 66.0854 304.98 66.3667 305.261C66.648 305.542 67.0268 305.703 67.4242 305.712C68.2026 305.712 68.9834 305.022 68.932 304.204Z" fill="#400705"/>
<path d="M74.7213 236.549C71.9166 244.655 69.7566 252.97 68.2615 261.416C67.9261 263.316 70.8342 264.131 71.172 262.219C72.6671 253.773 74.827 245.458 77.6318 237.352C78.2682 235.514 75.3528 234.723 74.7213 236.549Z" fill="#400705"/>
<path d="M126.918 304.491C126.01 297.448 125.374 290.396 124.128 283.4C123.79 281.491 120.88 282.299 121.22 284.201C122.417 290.932 123.026 297.715 123.9 304.491C124.005 305.306 124.519 305.989 125.41 305.999C126.145 305.999 127.024 305.299 126.918 304.491Z" fill="#400705"/>
<path d="M119.426 258.313C118.493 253.615 117.223 248.996 116.199 244.321C116.026 243.523 115.098 243.058 114.344 243.266C113.962 243.378 113.639 243.635 113.442 243.981C113.245 244.327 113.19 244.736 113.289 245.121C114.315 249.799 115.583 254.423 116.515 259.116C116.674 259.916 117.626 260.374 118.371 260.171C119.205 259.94 119.595 259.116 119.426 258.313Z" fill="#400705"/>
<path d="M145.522 302.655C144.915 298.437 144.237 294.229 143.441 290.041C143.29 289.241 142.325 288.783 141.586 288.986C140.746 289.216 140.379 290.039 140.531 290.844C141.326 295.03 142 299.24 142.614 303.458C142.729 304.265 143.755 304.708 144.469 304.513C145.336 304.268 145.639 303.465 145.522 302.655Z" fill="#400705"/>
<path d="M136.646 262.608C133.751 253.4 130.355 244.358 126.473 235.521C125.7 233.746 123.1 235.276 123.869 237.046C127.635 245.652 130.929 254.458 133.736 263.423C134.311 265.271 137.224 264.483 136.646 262.62V262.608Z" fill="#400705"/>
<path d="M97.6967 356.874C104.795 357.327 111.95 357.329 118.993 356.235C119.805 356.11 120.239 355.102 120.048 354.379C119.82 353.518 118.993 353.2 118.192 353.324C111.439 354.375 104.507 354.289 97.7041 353.856C95.7654 353.731 95.7727 356.749 97.7041 356.874H97.6967Z" fill="#400705"/>
<path d="M103.676 356.847C102.352 373.8 101.424 390.781 100.391 407.761L101.899 406.254C92.8152 406.41 83.7118 406.498 74.6279 406.254C72.8508 406.202 71.0688 406.146 69.2966 405.989C68.7874 405.945 68.3909 405.813 67.9258 405.818C67.1156 405.818 68.244 406.139 68.1069 406.124C68.244 406.139 68.195 406.503 68.1069 406.09C68.0702 405.918 68.0066 405.744 67.9625 405.576C67.8426 405.128 67.752 404.672 67.6639 404.219C67.3995 402.893 67.1915 401.556 66.9883 400.22C65.7644 392.108 64.8538 383.944 63.8526 375.803C63.4169 372.244 62.9836 368.684 62.4745 365.135C62.1489 362.856 61.9042 361.062 60.7341 359.072C57.1064 352.901 54.125 346.262 52.8179 339.191C52.0835 335.223 52.0835 331.25 52.223 327.233C52.2891 325.29 49.271 325.292 49.2049 327.233C49.0849 330.856 49.0751 334.43 49.5867 338.028C50.3969 343.722 52.3136 349.178 54.7908 354.348C55.6035 356.046 56.4822 357.716 57.4124 359.353C57.8799 360.176 58.509 360.996 58.8811 361.86C58.8542 361.799 58.7416 361.473 58.8493 361.823C59.0711 362.664 59.2346 363.52 59.3388 364.384C59.8553 367.7 60.2519 371.037 60.6631 374.366C61.7157 382.87 62.6679 391.39 63.9114 399.872C64.2541 402.212 64.4401 404.79 65.2479 407.03C66.0557 409.269 68.9196 409.005 70.9097 409.12C81.2076 409.71 91.5962 409.455 101.904 409.277C102.302 409.268 102.681 409.106 102.962 408.825C103.244 408.543 103.406 408.164 103.414 407.766C104.447 390.793 105.373 373.813 106.697 356.852C106.849 354.913 103.83 354.923 103.681 356.852L103.676 356.847Z" fill="#400705"/>
<path d="M111.098 356.847C113.088 372.107 114.946 387.391 117.125 402.621C117.321 403.985 117.345 405.603 117.81 406.91C118.329 408.359 119.974 408.596 121.313 408.809C127.107 409.725 133.121 409.69 138.969 409.612C142.597 409.561 146.234 409.429 149.845 409.054C152.293 408.809 154.912 408.564 157.166 407.509C158.924 406.685 157.394 404.082 155.644 404.902C154.151 405.605 151.808 405.828 150.014 406.019C147.103 406.327 144.173 406.469 141.246 406.547C135.371 406.704 129.42 406.692 123.567 406.08C122.781 406.007 121.999 405.893 121.225 405.74C120.98 405.688 120.571 405.495 120.329 405.495C120.15 405.512 120.307 405.453 120.295 405.495C120.351 405.348 120.637 406.185 120.721 406.107C120.951 405.899 120.17 402.753 120.114 402.371C119.181 395.909 118.351 389.43 117.507 382.955C116.364 374.251 115.234 365.546 114.116 356.842C113.872 354.943 110.849 354.918 111.098 356.842V356.847Z" fill="#400705"/>
<path d="M159.024 322.849C159.67 327.919 160.13 332.9 159.719 338.026C159.352 342.096 158.749 346.142 157.913 350.142C157.423 352.664 156.623 355.168 156.481 357.731C155.896 368.516 155.817 379.355 155.656 390.152C155.58 395.244 155.386 400.377 155.639 405.466C155.734 407.399 158.752 407.424 158.657 405.466C158.121 394.712 158.752 383.81 159.017 373.054C159.134 368.266 159.244 363.476 159.455 358.69C159.479 358.142 159.494 357.591 159.54 357.043C159.555 356.872 159.651 356.348 159.54 357.011C159.758 355.836 160.062 354.673 160.309 353.503C161.215 349.215 162.008 344.897 162.512 340.53C163.195 334.547 162.82 328.78 162.064 322.837C161.819 320.935 158.801 320.911 159.046 322.837L159.024 322.849Z" fill="#400705"/>
<path d="M55.4693 329.373C53.8831 331.576 52.2872 333.779 50.701 335.982C50.2383 336.623 50.5688 337.695 51.2419 338.045C52.0228 338.456 52.8134 338.19 53.3079 337.504C54.8941 335.301 56.4901 333.098 58.0762 330.895C58.5389 330.251 58.2084 329.182 57.5328 328.829C56.7544 328.418 55.9638 328.685 55.4693 329.373Z" fill="#400705"/>
<path d="M160.517 330.129C159.864 329.669 159.216 329.197 158.573 328.714L158.356 328.548C158.152 328.396 158.627 328.761 158.28 328.489L157.849 328.151C157.528 327.894 157.208 327.635 156.892 327.37C155.658 326.344 154.469 325.269 153.325 324.146C152.76 323.596 151.747 323.542 151.191 324.146C150.913 324.432 150.758 324.815 150.758 325.214C150.758 325.612 150.913 325.995 151.191 326.281C153.609 328.644 156.219 330.803 158.995 332.733C159.646 333.186 160.708 332.873 161.06 332.192C161.252 331.844 161.303 331.436 161.201 331.052C161.1 330.668 160.855 330.337 160.517 330.129Z" fill="#400705"/>
<path d="M105.524 246.685C105.346 244.588 104.969 242.495 104.599 240.424C104.423 239.445 104.247 238.444 104.014 237.467C103.85 236.774 103.671 236.067 103.035 235.655C102.014 234.999 100.492 234.799 99.3633 234.466C97.0599 233.795 94.7614 233.102 92.4922 232.324C89.9 231.435 87.2882 230.471 84.9309 229.051C84.3924 228.728 83.5332 228.792 83.1024 229.296C82.0335 230.491 81.4116 232.019 81.3424 233.621C81.2372 235.562 84.2553 235.555 84.3606 233.621C84.3927 232.808 84.7019 232.031 85.2369 231.418L83.4084 231.663C87.435 234.086 92.1373 235.467 96.6095 236.803C98.1687 237.271 99.7402 237.704 101.295 238.189C101.65 238.299 101.676 238.434 101.449 238.223C101.552 238.316 100.798 237.638 100.908 237.508C100.932 237.614 100.964 237.718 101.003 237.819C101.194 238.6 101.358 239.386 101.51 240.177C101.957 242.328 102.294 244.502 102.518 246.688C102.68 248.609 105.701 248.626 105.537 246.688L105.524 246.685Z" fill="#400705"/>
<path d="M106.112 246.462C106.731 243.503 107.397 240.553 108.019 237.594L106.55 238.703C109.164 238.58 111.823 238.306 114.3 237.42C116.777 236.534 119.01 235.131 121.127 233.565C121.783 233.075 122.106 232.258 121.668 231.501C121.291 230.855 120.263 230.471 119.604 230.96C117.717 232.356 115.722 233.714 113.485 234.51C111.248 235.305 108.903 235.575 106.538 235.685C105.909 235.714 105.223 236.128 105.084 236.791C104.465 239.751 103.796 242.7 103.177 245.66C102.781 247.554 105.689 248.352 106.088 246.462H106.112Z" fill="#400705"/>
<path d="M73.556 144.526C66.9787 144.709 61.8334 151.524 62.0513 159.746C62.2691 167.969 67.8012 174.482 74.3785 174.299C80.9558 174.115 86.1011 167.3 85.871 159.08C85.6409 150.861 80.1333 144.342 73.556 144.526ZM66.6483 159.773C62.7611 159.881 62.5971 153.847 66.4794 153.739C70.3616 153.632 70.5305 159.663 66.6483 159.773Z" fill="#400705"/>
<path d="M139.574 144.038C132.997 144.222 127.851 151.037 128.069 159.259C128.287 167.481 133.817 173.997 140.394 173.811C146.971 173.625 152.117 166.815 151.899 158.593C151.681 150.371 146.151 143.855 139.574 144.038ZM145.074 157.134C141.187 157.244 141.023 151.211 144.905 151.1C148.788 150.99 148.949 157.027 145.074 157.134Z" fill="#400705"/>
<path d="M2.79482 119.793C29.7208 115.653 57.0165 113.891 84.2264 113.108C111.804 112.315 139.437 112.618 166.977 114.224C179.809 114.973 192.633 116.006 205.389 117.617C207.31 117.861 207.293 114.838 205.389 114.598C180.959 111.514 156.273 110.332 131.668 109.864C103.124 109.323 74.5208 109.906 46.0429 112.018C31.3095 113.113 16.5981 114.638 1.98214 116.885C0.0679479 117.178 0.880629 120.086 2.78258 119.793H2.79482Z" fill="#400705"/>
<path d="M3.27418 117.174C2.29506 93.5424 9.68502 69.9528 23.5299 50.8133C30.1757 41.6291 38.4077 33.0862 48.0986 27.0866C57.8483 21.0552 68.6163 16.5071 79.4307 12.7962C81.3474 12.1402 83.6948 11.8171 84.5051 9.70463C84.8086 8.91154 84.8062 8.07438 84.9163 7.25681C84.953 6.96797 84.9408 6.40253 85.1611 6.16509C85.5601 5.72203 86.9847 5.70245 87.5526 5.57761C94.3894 4.0722 101.341 3.12979 108.359 3.03678C111.827 2.98777 115.296 3.13487 118.748 3.47738C120.503 3.64057 122.252 3.86495 123.993 4.15053C124.83 4.28516 125.668 4.42714 126.5 4.58135C126.59 4.59848 127.8 4.71842 127.944 4.85795C127.699 4.61317 127.734 4.75514 127.822 4.99748C128.399 6.58366 128.066 8.3926 128.833 9.93717C129.773 11.8391 132.333 11.9248 134.157 12.4707C154.789 18.6245 173.346 31.4902 186.648 48.3826C199.78 65.0572 207.552 86.0448 206.279 107.4C206.112 110.168 205.798 112.926 205.337 115.661C205.019 117.56 207.927 118.378 208.247 116.464C211.919 94.5975 206.38 72.3859 194.322 53.9294C182.139 35.2892 164.03 20.6733 143.37 12.4756C140.772 11.4458 138.136 10.523 135.461 9.70708C134.262 9.33991 133.05 8.94581 131.824 8.6741C131.065 8.50765 131.579 8.82587 131.393 8.18454C131.265 7.68065 131.178 7.16745 131.131 6.64976C130.923 5.11252 130.845 3.0074 129.295 2.15066C128.135 1.50933 126.429 1.48975 125.134 1.28169C123.239 0.973264 121.337 0.717055 119.428 0.51307C112.303 -0.233313 105.117 -0.16515 98.0072 0.71624C94.4644 1.15032 90.9461 1.74351 87.4522 2.49581C85.0705 3.00495 82.6545 3.24239 82.0523 5.96681C81.8834 6.72809 82.094 7.90304 81.6999 8.58353C81.2421 9.37173 79.4772 9.58714 78.6229 9.87843C75.9597 10.7906 73.3185 11.7641 70.6993 12.7987C65.0287 15.0035 59.4733 17.4937 54.0542 20.2596C43.5408 25.6815 34.5646 32.8463 26.8271 41.8004C10.9799 60.1371 1.39916 83.7805 0.263369 108.009C0.118948 111.061 0.121394 114.114 0.246233 117.164C0.327011 119.1 3.34518 119.122 3.2644 117.164L3.27418 117.174Z" fill="#400705"/>
<path d="M61.4642 99.3195C63.6598 75.7483 68.8266 52.5491 76.8415 30.2739C79.1783 23.8019 81.7493 17.4228 84.5545 11.1368C85.3378 9.37931 82.7382 7.84208 81.95 9.6143C72.0878 31.7475 64.9891 55.014 61.0726 78.9292C59.9613 85.6933 59.0891 92.4901 58.4559 99.3195C58.2747 101.251 61.2929 101.239 61.474 99.3195H61.4642Z" fill="#400705"/>
<path d="M54.6638 100.646C56.0271 77.1072 61.0286 53.9215 69.4902 31.9138C71.9478 25.5283 74.6984 19.2668 77.7418 13.1293C78.5986 11.3938 75.9965 9.86142 75.1373 11.6067C64.4171 33.2872 57.1791 56.5211 53.6895 80.4541C52.7104 87.1546 52.0291 93.8853 51.6456 100.646C51.533 102.585 54.5512 102.58 54.6638 100.646Z" fill="#400705"/>
<path d="M153.742 100.401C153.283 87.6789 152.091 74.9937 150.173 62.4085C148.193 49.577 145.471 36.6134 140.443 24.5946C138.169 19.1555 135.388 13.8951 131.518 9.41808C130.248 7.94939 128.123 10.0888 129.386 11.5526C136.566 19.8752 140.157 31.1474 142.881 41.5947C146.195 54.2744 148.132 67.3115 149.387 80.3461C150.029 87.0221 150.477 93.7128 150.734 100.418C150.807 102.354 153.825 102.376 153.752 100.418L153.742 100.401Z" fill="#400705"/>
<path d="M160.814 101.75C160.273 88.4716 158.926 75.238 156.782 62.1225C154.679 49.3008 151.909 36.2857 146.656 24.3404C144.472 19.3762 141.738 14.4071 137.733 10.6693C136.316 9.34504 134.177 11.4746 135.599 12.8038C139.026 15.986 141.385 20.1277 143.349 24.3208C145.855 29.6668 147.676 35.336 149.223 41.0198C152.785 54.101 154.878 67.6007 156.293 81.0637C157.011 87.9437 157.516 94.8416 157.808 101.758C157.886 103.694 160.904 103.716 160.826 101.758L160.814 101.75Z" fill="#400705"/>
<path d="M125.389 144.648C129.131 141.894 134.103 139.77 138.763 139.339C145.169 138.749 149.996 142.301 155.178 145.488C156.282 146.166 157.729 145.27 157.254 143.931C152.359 130.076 129.797 130.554 124.26 143.764C124.202 143.914 124.194 144.079 124.237 144.234C124.279 144.388 124.37 144.525 124.497 144.624C124.623 144.723 124.778 144.779 124.939 144.783C125.099 144.788 125.257 144.74 125.389 144.648Z" fill="#400705"/>
<path d="M58.152 143.238C62.7246 142.78 66.0145 138.531 71.0104 138.169C77.2818 137.713 81.913 141.738 87.0779 144.56C88.2602 145.206 89.7485 143.681 89.1684 142.501C85.9226 135.892 78.3368 132.407 71.0863 132.84C66.1907 133.136 56.8768 136.656 57.6796 142.876C57.6955 142.986 57.7535 143.087 57.8415 143.156C57.9296 143.224 58.0408 143.257 58.152 143.245V143.238Z" fill="#400705"/>
<path d="M26.4824 132.754C26.7958 143.946 27.1083 155.138 27.42 166.331C27.4738 168.27 30.492 168.277 30.4381 166.331C30.1248 155.139 29.8123 143.947 29.5006 132.754C29.4467 130.815 26.4286 130.808 26.4824 132.754Z" fill="#400705"/>
<path d="M27.5789 176.247C28.6388 187.382 30.2715 198.938 37.5073 207.932C41.5755 212.994 47.1664 216.58 52.7694 219.725C58.817 223.08 65.1659 225.86 71.7327 228.028C79.1618 230.523 86.8015 232.322 94.4974 233.722C96.3969 234.067 97.2096 231.159 95.3003 230.811C82.366 228.462 69.5296 224.966 57.7703 218.984C52.1403 216.115 46.2827 212.808 41.8203 208.262C38.014 204.385 35.3924 199.587 33.7572 194.432C31.8895 188.542 31.1699 182.374 30.575 176.247C30.3939 174.33 27.3733 174.311 27.5569 176.247H27.5789Z" fill="#400705"/>
<path d="M182.367 143.483C181.783 153.204 180.804 162.889 179.43 172.536C179.158 174.436 182.066 175.256 182.34 173.339C183.756 163.43 184.77 153.476 185.38 143.476C185.495 141.537 182.477 141.544 182.362 143.476L182.367 143.483Z" fill="#400705"/>
<path d="M178.734 181.669C178.31 191.95 174.702 201.545 167.356 208.884C159.651 216.584 149.358 221.292 139.234 224.91C132.247 227.404 125.102 229.421 117.923 231.274C116.045 231.763 116.841 234.669 118.726 234.184C131.281 230.943 144.004 227.277 155.487 221.115C164.676 216.185 173.07 209.241 177.596 199.648C180.261 194.003 181.495 187.884 181.757 181.669C181.835 179.728 178.82 179.73 178.739 181.669H178.734Z" fill="#400705"/>
<path d="M92.1378 174.12C97.8241 173.987 103.515 173.934 109.204 173.916C111.897 173.916 114.57 173.904 117.255 173.953C118.097 173.97 118.939 173.985 119.781 174.036C119.945 174.036 120.425 174.085 120.415 174.088C120.285 174.11 120.488 174.071 120.523 174.115C120.486 174.066 119.703 173.85 120.033 173.792C120.009 173.792 120.058 174.903 120.06 175.015C120.129 179.216 119.996 183.654 118.868 187.725C118.139 190.475 116.631 192.956 114.526 194.87C110.727 198.245 105.057 199.104 100.534 196.693C92.3899 192.353 92.1745 181.686 92.7008 173.667C92.7645 172.688 91.2542 172.702 91.1905 173.667C90.6569 181.745 90.9458 191.575 98.0444 196.904C102.487 200.235 108.626 200.414 113.358 197.572C115.883 196.032 117.906 193.79 119.179 191.12C120.932 187.48 121.326 183.216 121.507 179.228C121.558 178.102 121.57 176.976 121.561 175.848C121.561 175.282 121.546 174.717 121.534 174.151C121.534 173.73 121.612 173.214 121.289 172.883C120.966 172.553 120.31 172.565 119.847 172.536C117.568 172.384 115.27 172.416 112.993 172.409C106.038 172.387 99.0831 172.456 92.128 172.614C91.1489 172.636 91.1489 174.146 92.128 174.122L92.1378 174.12Z" fill="#400705"/>
<path d="M185.035 156.75C186.148 154.366 188.78 153.387 191.284 153.97C194.221 154.655 196.473 157.152 197.94 159.646C200.747 164.444 200.696 169.763 199.367 174.994C197.075 184.024 191.064 197.024 179.539 194.78C177.642 194.41 176.83 197.318 178.736 197.69C183.833 198.684 189.034 197.039 192.917 193.644C196.493 190.515 198.718 185.879 200.422 181.537C202.135 177.131 203.57 172.211 203.315 167.442C203.026 162.008 200.544 156.334 196.101 153.03C191.871 149.882 184.937 149.847 182.43 155.233C181.613 156.98 184.212 158.515 185.035 156.755V156.75Z" fill="#400705"/>
<path d="M26.1275 145.711C21.9075 144.46 17.5601 145.823 14.2507 148.597C10.508 151.737 8.76023 156.403 8.24618 161.159C7.67829 166.422 8.35878 172.115 9.76138 177.209C10.9853 181.696 13.1712 185.72 16.7573 188.736C20.1842 191.619 24.742 194.412 29.3831 194.236C31.3193 194.165 31.3414 191.145 29.3831 191.218C25.026 191.384 20.544 188.325 17.5626 185.402C13.8125 181.73 12.383 176.431 11.6389 171.381C10.8335 165.905 10.4761 159.656 13.1883 154.618C15.4868 150.349 20.4192 147.155 25.3344 148.623C27.1996 149.179 27.9976 146.266 26.1349 145.713L26.1275 145.711Z" fill="#400705"/>
<path d="M6.78971 120.126C4.99648 126.103 4.0893 132.312 4.09711 138.553C4.12893 144.65 5.12519 151.017 8.39303 156.27C9.41622 157.917 12.028 156.402 11 154.748C7.91082 149.781 7.08346 143.779 7.11528 138.026C7.16253 132.233 8.03287 126.477 9.70017 120.928C10.2558 119.063 7.34537 118.268 6.78971 120.126Z" fill="#400705"/>
<path d="M89.4669 113.781C93.1607 121.296 99.454 127.636 106.384 132.23C108.066 133.356 109.83 134.357 111.659 135.224C113.201 135.958 115.216 137.109 116.966 136.847C121.22 136.205 118.87 128.732 118.278 126.248L116.06 127.961C135.961 143.138 162.324 144.068 186.312 144.555C188.254 144.594 188.254 141.576 186.312 141.537C162.813 141.059 137.084 140.23 117.585 125.354C116.464 124.5 115.093 125.905 115.367 127.068C115.828 129.004 116.275 131.021 116.346 133.013C116.346 133.138 116.442 133.851 116.346 133.917C116.251 133.983 115.264 133.508 115.093 133.444C114.359 133.165 113.646 132.852 112.942 132.514C109.957 131.065 107.146 129.283 104.563 127.202C99.4834 123.146 94.9672 118.145 92.0788 112.271C91.222 110.528 88.6175 112.055 89.4718 113.793L89.4669 113.781Z" fill="#400705"/>
<path d="M201.399 117.046C206.049 129.266 206.918 144.026 198.42 154.831C197.232 156.341 199.355 158.503 200.554 156.963C209.743 145.28 209.393 129.609 204.309 116.244C203.626 114.447 200.706 115.228 201.399 117.046Z" fill="#400705"/>
<path d="M47.1885 113.338C44.5717 118.199 39.845 121.969 35.5001 125.21C31.1155 128.498 26.4788 131.437 21.6332 133.998C19.9197 134.898 21.4349 137.505 23.1558 136.602C28.2266 133.927 33.067 130.836 37.6273 127.362C42.1802 123.913 47.0416 119.979 49.7954 114.863C50.7158 113.15 48.1113 111.627 47.1885 113.338Z" fill="#400705"/>
<path d="M1.7984 119.33C14.2945 114.109 26.8029 108.675 39.9183 105.216C53.5468 101.642 67.4379 99.1582 81.4602 97.7871C95.5915 96.3943 109.855 96.2621 123.986 97.7381C137.771 99.2197 151.462 101.478 164.992 104.501C178.744 107.532 192.354 111.355 205.45 116.567C207.256 117.284 208.039 114.364 206.253 113.656C181.865 103.968 155.764 98.754 129.817 95.4127C101.263 91.741 72.56 94.4776 44.6083 100.967C29.4955 104.475 15.2712 110.462 0.997977 116.42C-0.769348 117.154 0.00660023 120.079 1.7984 119.33Z" fill="#400705"/>
<path d="M191.674 169.804C188.427 172.403 185.98 175.867 184.616 179.796C184.355 180.53 184.915 181.48 185.672 181.652C186.057 181.748 186.465 181.693 186.81 181.497C187.156 181.301 187.412 180.979 187.527 180.599C187.61 180.354 187.696 180.124 187.789 179.892C187.826 179.796 187.862 179.703 187.901 179.61C187.823 179.801 187.923 179.556 187.955 179.485C188.136 179.069 188.335 178.663 188.543 178.261C188.985 177.411 189.487 176.594 190.043 175.813C190.175 175.63 190.31 175.446 190.447 175.268C190.349 175.392 190.447 175.268 190.491 175.216C190.57 175.118 190.65 175.02 190.736 174.925C191.04 174.555 191.358 174.191 191.691 173.855C192.352 173.165 193.062 172.522 193.813 171.931C194.435 171.442 194.366 170.303 193.813 169.797C193.152 169.192 192.344 169.273 191.678 169.797L191.674 169.804Z" fill="#400705"/>
<path d="M187.786 177.422L189.605 178.239C189.962 178.426 190.374 178.48 190.768 178.391C190.96 178.348 191.137 178.255 191.282 178.122C191.445 178.016 191.579 177.87 191.671 177.699C191.874 177.346 191.928 176.928 191.823 176.536L191.671 176.176C191.54 175.952 191.354 175.766 191.13 175.635L189.309 174.817C189.142 174.708 188.948 174.646 188.748 174.639C188.549 174.593 188.341 174.602 188.146 174.666C187.955 174.71 187.779 174.803 187.635 174.935C187.471 175.041 187.337 175.187 187.245 175.358C187.144 175.533 187.079 175.725 187.053 175.925C187.027 176.124 187.041 176.327 187.094 176.521L187.245 176.881C187.376 177.105 187.562 177.291 187.786 177.422Z" fill="#400705"/>
<path d="M16.8057 165.337C17.3956 165.973 17.9733 166.619 18.5314 167.295C18.8105 167.621 19.0854 167.956 19.3563 168.299L19.7357 168.788C19.8924 168.991 19.6231 168.644 19.7798 168.847L20.0099 169.15C21.0541 170.534 22.0271 171.971 22.9252 173.454C23.3365 174.127 24.2985 174.433 24.9912 173.995C25.3315 173.788 25.5781 173.456 25.679 173.071C25.7799 172.686 25.7273 172.276 25.5322 171.929C23.6343 168.813 21.4257 165.897 18.9402 163.227C18.6558 162.946 18.2724 162.789 17.8729 162.789C17.4735 162.789 17.0901 162.946 16.8057 163.227C16.5306 163.513 16.377 163.895 16.377 164.293C16.377 164.69 16.5306 165.072 16.8057 165.359V165.337Z" fill="#400705"/>
<path d="M16.5686 170.6C18.5048 169.89 20.6173 169.929 22.5535 169.219C23.2879 168.95 23.8729 168.184 23.6061 167.364C23.3613 166.629 22.5437 166.02 21.7507 166.311C19.8144 167.019 17.702 166.982 15.7657 167.689C15.0314 167.961 14.4464 168.727 14.7132 169.547C14.958 170.281 15.7755 170.891 16.5686 170.6Z" fill="#400705"/>
<path d="M66.4745 327.099C66.5234 328.078 66.5708 329.048 66.6164 330.009C66.6654 331.018 66.756 331.967 67.554 332.702C68.254 333.326 69.2234 333.536 70.1021 333.779C71.0626 334.052 72.0456 334.239 73.0395 334.337C74.8827 334.501 76.6917 334.038 78.104 332.822C78.772 332.267 79.2779 331.542 79.5682 330.723C79.8586 329.904 79.9227 329.023 79.7539 328.171C79.5923 327.373 78.645 326.913 77.8984 327.116C77.5167 327.229 77.1937 327.486 76.9971 327.832C76.8004 328.179 76.7454 328.588 76.8434 328.974C76.9169 329.338 76.8924 328.778 76.8581 329.14C76.8581 329.216 76.792 329.605 76.8581 329.299C76.8336 329.412 76.8018 329.524 76.77 329.637C76.7284 329.789 76.8606 329.498 76.7333 329.735C76.6647 329.862 76.5937 329.98 76.5179 330.107C76.3196 330.43 76.6647 329.99 76.3955 330.264C76.3074 330.352 76.2266 330.442 76.136 330.528C76.0822 330.579 75.8912 330.751 76.0406 330.626C75.8012 330.807 75.5436 330.963 75.2719 331.091C75.458 331.001 75.2303 331.106 75.1495 331.133C75.032 331.172 74.9048 331.206 74.7946 331.235C74.1501 331.368 73.4874 331.387 72.8364 331.292C72.2106 331.195 71.5917 331.058 70.9833 330.883C70.6431 330.79 70.3028 330.695 69.9675 330.592C69.8199 330.555 69.6751 330.507 69.5342 330.45C69.7301 330.54 69.4583 330.315 69.5342 330.435C69.5722 330.5 69.6165 330.56 69.6664 330.616C69.6297 330.45 69.6224 330.415 69.6444 330.511C69.6664 330.606 69.664 330.57 69.6444 330.401C69.6444 330.048 69.6101 329.686 69.593 329.334L69.4828 327.101C69.4741 326.704 69.3124 326.325 69.0315 326.045C68.7506 325.764 68.3721 325.602 67.975 325.593C67.1868 325.593 66.4255 326.284 66.4647 327.101L66.4745 327.099Z" fill="#400705"/>
<path d="M127.06 327.559C126.468 329.541 128.022 331.475 129.917 331.911C130.867 332.092 131.842 332.101 132.796 331.938C133.67 331.845 134.538 331.7 135.395 331.502C137.04 331.079 138.661 330.171 139.437 328.594C140.213 327.018 140.171 325.116 138.93 323.772C138.646 323.492 138.263 323.335 137.864 323.335C137.465 323.335 137.082 323.492 136.798 323.772C136.521 324.058 136.367 324.441 136.367 324.839C136.367 325.237 136.521 325.62 136.798 325.906C137.021 326.151 136.724 325.706 136.852 325.973C136.928 326.132 136.952 326.259 136.893 326.029C136.92 326.139 136.95 326.254 136.979 326.364C136.888 326.034 136.964 326.305 136.964 326.428C136.964 326.55 136.903 326.856 136.979 326.501C136.952 326.621 136.933 326.746 136.898 326.856C136.864 326.975 136.824 327.092 136.778 327.206C136.879 326.961 136.778 327.182 136.717 327.292C136.56 327.584 136.327 327.828 136.042 327.997C135.914 328.078 135.797 328.151 135.65 328.22C135.584 328.256 135.518 328.288 135.449 328.32H135.461C135.178 328.431 134.888 328.523 134.592 328.597C134.018 328.738 133.436 328.845 132.85 328.917L132.629 328.947L132.14 329.003C131.807 329.04 131.473 329.056 131.139 329.049C131.139 329.049 130.664 329 130.894 329.049C130.732 329.022 130.573 328.981 130.419 328.927C130.637 329 130.331 328.876 130.274 328.846C130.03 328.724 130.355 328.983 130.164 328.758C130.11 328.694 129.92 328.401 130.064 328.66C130.042 328.621 129.895 328.31 129.966 328.499C130.037 328.687 129.966 328.144 129.946 328.396C129.961 328.513 129.968 328.499 129.964 328.349C129.934 328.542 129.942 328.552 129.986 328.379C130.078 327.997 130.019 327.595 129.82 327.257C129.621 326.918 129.298 326.671 128.92 326.566C128.541 326.462 128.137 326.509 127.793 326.697C127.449 326.886 127.191 327.201 127.075 327.576L127.06 327.559Z" fill="#400705"/>
<path d="M127.638 328.768C122.31 329.661 116.951 330.332 111.561 330.782C110.748 330.849 110.053 331.426 110.053 332.29C110.053 333.054 110.746 333.867 111.561 333.801C117.215 333.331 122.845 332.623 128.451 331.678C129.254 331.544 129.704 330.55 129.503 329.823C129.259 328.971 128.453 328.633 127.648 328.768H127.638Z" fill="#400705"/>
<path d="M89.8632 331.385C85.7835 331.263 81.7095 331.018 77.6412 330.651C76.8285 330.577 76.1309 331.4 76.1309 332.161C76.1309 333.04 76.8261 333.595 77.6412 333.669C81.7062 334.046 85.7802 334.29 89.8632 334.403C91.8043 334.462 91.8043 331.444 89.8632 331.385Z" fill="#400705"/>
<path d="M139.346 329.806C144.472 328.768 149.627 327.723 154.577 326.041C156.917 325.246 159.418 324.384 161.56 323.126C162.454 322.602 163.186 321.841 163.274 320.769C163.389 319.545 162.757 318.203 162.41 317.048C161.854 315.193 158.941 315.983 159.502 317.851L159.957 319.369L160.185 320.127C160.248 320.511 160.282 320.593 160.287 320.372C160.145 320.646 159.262 320.916 159.005 321.038C158.503 321.283 157.996 321.508 157.485 321.728C155.488 322.57 153.445 323.295 151.365 323.9C147.147 325.155 142.832 326.034 138.524 326.905C136.622 327.292 137.425 330.203 139.324 329.816L139.346 329.806Z" fill="#400705"/>
<path d="M50.3018 329.47C56.015 330.907 61.8065 332.464 67.7327 332.408C69.6738 332.391 69.6909 329.373 67.7327 329.39C62.0586 329.436 56.5633 327.921 51.1022 326.553C49.2198 326.08 48.4096 328.988 50.3018 329.463V329.47Z" fill="#400705"/>
<path d="M88.2871 328.572C87.2125 330.895 87.8464 333.742 90.0715 335.159C91.3811 335.994 93.0236 336.006 94.5216 336.109C96.2498 336.229 97.978 336.337 99.7086 336.378C102.959 336.454 106.562 336.466 109.693 335.522C112.824 334.577 113.61 331.85 113.304 328.841C113.11 326.927 110.09 326.908 110.286 328.841C110.369 329.679 110.53 330.668 110.242 331.485C109.909 332.435 108.954 332.628 108.061 332.809C105.613 333.299 103.069 333.402 100.573 333.375C98.1518 333.348 95.7113 333.23 93.3002 333.005C92.4337 332.924 91.5867 332.795 91.0972 332.011C90.911 331.732 90.7953 331.413 90.7599 331.079C90.7246 330.746 90.7705 330.409 90.894 330.097C91.7042 328.345 89.1022 326.81 88.2895 328.572H88.2871Z" fill="#400705"/>
<path d="M49.7507 318.438C47.8733 321.224 47.9418 325.292 49.9955 327.963C50.2051 328.292 50.524 328.537 50.8963 328.655C51.2889 328.758 51.7062 328.704 52.059 328.504C52.6759 328.107 53.1165 327.108 52.6 326.438C52.3952 326.172 52.2102 325.891 52.0468 325.598C51.9709 325.458 51.9073 325.314 51.8338 325.174C51.731 324.984 51.9538 325.507 51.8338 325.155C51.8069 325.081 51.7775 325.006 51.7531 324.932C51.6432 324.612 51.5565 324.285 51.4936 323.953C51.4789 323.877 51.4666 323.799 51.452 323.708C51.4103 323.493 51.474 323.975 51.452 323.757C51.452 323.578 51.4226 323.402 51.4153 323.224C51.4083 322.907 51.4197 322.589 51.4495 322.274C51.4103 322.45 51.474 321.978 51.4495 322.274C51.4642 322.195 51.4764 322.117 51.4911 322.029C51.5205 321.875 51.5572 321.721 51.5989 321.569C51.6405 321.417 51.6967 321.226 51.7555 321.06C51.7824 320.986 51.8143 320.913 51.8387 320.837C51.7996 320.95 51.7531 321.028 51.8387 320.871C51.992 320.551 52.1679 320.242 52.365 319.946C52.5652 319.6 52.6207 319.189 52.5194 318.802C52.4181 318.415 52.1682 318.084 51.824 317.88C51.4765 317.687 51.0682 317.636 50.6839 317.737C50.2996 317.838 49.9689 318.083 49.7605 318.421L49.7507 318.438Z" fill="#400705"/>
<path d="M67.6811 408.488C68.6602 411.6 68.4423 414.52 67.3506 417.562C66.4571 420.049 66.0753 422.492 67.8059 424.717C69.419 426.793 71.9011 427.643 74.4419 427.875C77.5996 428.162 80.8601 427.875 84.0276 427.799C87.3974 427.731 90.7689 427.661 94.142 427.591C96.3695 427.542 98.8981 427.454 100.506 425.675C102.435 423.533 101.356 420.718 100.805 418.282C100.12 415.24 100.266 412.077 100.381 408.98C100.455 407.039 97.4441 407.042 97.3633 408.98C97.2678 411.56 97.1846 414.145 97.5004 416.713C97.6477 417.869 97.8701 419.013 98.1662 420.14C98.4526 421.251 99.0988 422.896 98.0928 423.812C96.6926 425.102 93.3171 424.573 91.6134 424.607L83.3936 424.779C80.7793 424.833 78.143 424.984 75.5263 424.901C73.4041 424.835 70.5621 424.321 69.703 422.04C69.2428 420.816 69.8498 419.489 70.2611 418.346C70.6572 417.308 70.9571 416.237 71.1569 415.144C71.5647 412.643 71.3709 410.08 70.5915 407.668C70.004 405.825 67.0911 406.613 67.6811 408.471V408.488Z" fill="#400705"/>
<path d="M97.8844 410.642C88.6599 410.177 79.4168 410.221 70.1972 410.775C68.2683 410.89 68.2536 413.91 70.1972 413.793C79.4167 413.237 88.66 413.193 97.8844 413.661C99.8256 413.758 99.8182 410.74 97.8844 410.642Z" fill="#400705"/>
<path d="M71.1691 425.795C80.0541 422.036 89.9699 421.485 99.2162 424.238C101.081 424.791 101.879 421.88 100.019 421.327C89.988 418.384 79.2436 419.042 69.6466 423.188C67.867 423.951 69.4018 426.551 71.1691 425.795Z" fill="#400705"/>
<path d="M74.29 412.706C74.2211 415.62 74.4765 418.533 75.0513 421.391C75.2031 422.167 76.1699 422.683 76.9067 422.446C77.2877 422.331 77.6097 422.074 77.8058 421.728C78.0019 421.382 78.0569 420.973 77.9593 420.588C77.4469 417.993 77.2284 415.349 77.3082 412.706C77.2925 412.316 77.1266 411.948 76.8453 411.677C76.564 411.407 76.1892 411.256 75.7991 411.256C75.4091 411.256 75.0342 411.407 74.7529 411.677C74.4716 411.948 74.3057 412.316 74.29 412.706Z" fill="#400705"/>
<path d="M90.823 413.325C90.7471 415.839 90.7593 418.353 90.6834 420.867C90.686 421.266 90.8457 421.648 91.1279 421.93C91.4101 422.213 91.7922 422.372 92.1913 422.375C92.5893 422.368 92.9691 422.207 93.2507 421.926C93.5324 421.644 93.6941 421.265 93.7016 420.867C93.7775 418.353 93.7628 415.839 93.8411 413.325C93.8373 412.926 93.6769 412.544 93.3944 412.262C93.1119 411.98 92.73 411.821 92.3308 411.817C91.9333 411.825 91.5541 411.986 91.2729 412.267C90.9918 412.549 90.8305 412.928 90.823 413.325Z" fill="#400705"/>
<path d="M76.8848 419.31C81.7462 418.644 86.6541 419.066 91.5375 418.845C92.5166 418.801 92.5166 417.293 91.5375 417.337C86.5097 417.582 81.4867 417.171 76.4834 417.854C75.5238 417.984 75.9326 419.44 76.8848 419.31Z" fill="#400705"/>
<path d="M76.608 416.395C81.4861 415.993 86.3817 415.842 91.2753 415.945C92.2544 415.967 92.2544 414.456 91.2753 414.437C86.3817 414.334 81.4861 414.483 76.608 414.885C75.646 414.965 75.6288 416.473 76.608 416.395Z" fill="#400705"/>
<path d="M151.152 407.387C150.402 409.708 150.195 412.17 150.548 414.584C150.741 415.772 151.054 416.938 151.48 418.065C151.899 419.225 152.486 420.512 152.038 421.758C151.213 424.045 148.313 424.549 146.217 424.62C143.601 424.708 140.964 424.549 138.348 424.495L130.13 424.326C128.417 424.292 125.061 424.816 123.649 423.531C122.65 422.613 123.291 420.943 123.575 419.859C123.85 418.824 124.061 417.772 124.207 416.711C124.559 414.048 124.478 411.37 124.378 408.694C124.307 406.758 121.289 406.736 121.36 408.694C121.475 411.788 121.624 414.951 120.936 417.996C120.386 420.432 119.309 423.247 121.237 425.386C122.843 427.168 125.374 427.254 127.602 427.305C130.972 427.381 134.346 427.442 137.716 427.513C140.881 427.577 144.144 427.875 147.302 427.587C149.843 427.357 152.325 426.507 153.938 424.431C155.666 422.204 155.284 419.761 154.391 417.274C153.299 414.234 153.074 411.311 154.063 408.2C154.65 406.347 151.737 405.551 151.152 407.399V407.387Z" fill="#400705"/>
<path d="M123.871 413.36C133.095 412.895 142.337 412.939 151.556 413.495C153.497 413.61 153.49 410.592 151.556 410.477C142.337 409.921 133.095 409.876 123.871 410.342C121.938 410.44 121.928 413.458 123.871 413.36Z" fill="#400705"/>
<path d="M152.109 422.889C142.512 418.744 131.768 418.086 121.737 421.029C119.879 421.58 120.67 424.493 122.54 423.939C131.785 421.185 141.701 421.735 150.584 425.496C152.352 426.253 153.889 423.653 152.109 422.889Z" fill="#400705"/>
<path d="M144.445 412.408C144.524 415.051 144.305 417.695 143.792 420.29C143.64 421.061 144.012 421.957 144.847 422.145C145.596 422.316 146.538 421.92 146.702 421.092C147.276 418.234 147.531 415.322 147.463 412.408C147.444 411.619 146.783 410.861 145.953 410.897C145.555 410.904 145.174 411.065 144.893 411.347C144.612 411.629 144.451 412.009 144.445 412.408Z" fill="#400705"/>
<path d="M127.915 413.027C127.991 415.541 127.979 418.055 128.055 420.569C128.079 421.357 128.73 422.113 129.562 422.076C130.395 422.04 131.097 421.413 131.073 420.569C130.994 418.055 131.009 415.541 130.933 413.027C130.909 412.239 130.255 411.48 129.423 411.519C128.627 411.553 127.888 412.182 127.915 413.027Z" fill="#400705"/>
<path d="M145.278 417.556C140.272 416.873 135.242 417.272 130.221 417.039C129.242 416.993 129.242 418.508 130.221 418.547C135.117 418.775 140.012 418.346 144.876 419.01C145.826 419.139 146.237 417.685 145.278 417.556Z" fill="#400705"/>
<path d="M145.148 414.586C140.269 414.185 135.374 414.035 130.48 414.136C129.501 414.158 129.501 415.666 130.48 415.646C135.374 415.543 140.269 415.693 145.148 416.094C146.127 416.175 146.11 414.665 145.148 414.586Z" fill="#400705"/>
<path d="M91.7238 281.43C84.4073 284.59 76.4225 286.597 68.6703 288.347C64.0439 289.392 59.3685 290.305 54.6345 290.758C50.7987 291.133 46.6742 291.407 42.9731 290.119C34.1144 287.042 32.2736 276.167 36.0555 268.512C39.8129 260.909 46.4245 254.577 52.8059 249.175C56.5453 245.951 60.5586 243.06 64.8003 240.534C67.5394 238.93 70.7901 237.031 74.0457 236.862C75.9795 236.771 76.0039 233.751 74.0457 233.844C70.8415 233.998 67.7621 235.464 64.9887 236.958C60.9694 239.114 57.2292 241.775 53.6505 244.592C46.2874 250.389 38.8852 257.304 34.2221 265.538C29.8479 273.259 29.7083 284.093 37.0322 290.163C44.312 296.195 55.2881 294.026 63.7746 292.437C73.7152 290.582 83.9349 288.056 93.2488 284.036C95.0259 283.268 93.4936 280.668 91.7238 281.43Z" fill="#400705"/>
<path d="M91.0653 257.899C79.4161 258.942 67.7694 260.313 56.2769 262.518C54.3725 262.883 55.1802 265.793 57.0798 265.429C68.3079 263.272 79.6829 261.935 91.0653 260.917C92.9844 260.746 93.004 257.735 91.0653 257.899Z" fill="#400705"/>
<path d="M90.3018 259.407C89.7094 266.995 90.5465 274.705 91.1218 282.272C91.2686 284.196 94.2868 284.213 94.1375 282.272C93.5573 274.705 92.7275 266.995 93.3199 259.407C93.4717 257.47 90.4511 257.48 90.3018 259.407Z" fill="#400705"/>
<path d="M93.5669 261.441C95.1237 257.791 96.4039 253.608 99.001 250.531C99.5493 249.88 101.628 248.066 102.565 248.68C103.449 249.258 103.353 251.838 103.383 252.717C103.49 255.984 103.336 259.257 103.441 262.53C103.51 264.733 103.554 266.919 103.427 269.11C103.314 271.002 103.157 273.151 102.203 274.84C100.406 278.052 95.5398 276.458 92.6954 275.99C90.7935 275.68 89.9784 278.588 91.8926 278.901C95.53 279.496 100.23 280.859 103.365 278.167C106.915 275.112 106.572 268.865 106.501 264.642C106.462 262.337 106.291 260.031 106.313 257.725C106.33 255.816 106.474 253.911 106.357 251.999C106.247 250.222 106.048 248.054 104.783 246.673C103.348 245.109 101.187 245.532 99.4906 246.399C94.6757 248.847 92.9133 255.326 90.9526 259.93C90.1987 261.698 92.7982 263.237 93.5571 261.453L93.5669 261.441Z" fill="#400705"/>
<path d="M117.243 261.583C118.317 265.051 119.233 268.601 119.622 272.219C119.956 275.533 119.926 278.873 119.534 282.181C119.443 282.999 120.293 283.682 121.044 283.689C121.935 283.689 122.461 282.989 122.552 282.181C123.372 274.867 122.322 267.781 120.151 260.78C119.578 258.932 116.665 259.72 117.243 261.583Z" fill="#400705"/>
<path d="M120.28 283.755C130.375 288.678 141.285 292.734 152.413 294.481C161.83 295.95 173.158 295.492 178.418 286.137C182.824 278.304 180.058 269.646 175.381 262.709C170.345 255.238 163.91 248.548 156.951 242.852C153.571 240.086 149.977 237.406 146.007 235.543C143.481 234.358 140.181 233.073 137.413 234.209C135.64 234.943 136.416 237.858 138.215 237.119C140.132 236.333 142.404 237.212 144.193 238.015C147.319 239.418 150.205 241.403 152.919 243.479C159.521 248.544 165.429 254.455 170.492 261.059C174.974 266.917 179.268 273.944 177.062 281.621C176.428 283.769 175.295 285.737 173.755 287.363C172.215 288.989 170.312 290.228 168.201 290.979C163.984 292.516 159.333 292.362 154.941 291.821C143.49 290.413 132.125 286.191 121.805 281.156C120.065 280.306 118.535 282.908 120.28 283.762V283.755Z" fill="#400705"/>
<path d="M118.875 262.055C130.843 264.258 142.967 265.482 154.949 267.59C156.848 267.925 157.663 265.017 155.749 264.679C143.755 262.567 131.643 261.353 119.678 259.145C117.779 258.795 116.966 261.703 118.875 262.055Z" fill="#400705"/>
<path d="M120.586 261.94C119.971 259.705 118.912 257.551 117.812 255.522C116.478 253.06 114.926 250.607 112.956 248.6C111.451 247.067 109.35 245.523 107.081 245.971C104.944 246.392 104.176 247.887 103.958 249.86C103.348 255.434 104.129 261.265 104.462 266.836C104.609 269.284 104.337 272.197 105.236 274.522C106.087 276.725 107.958 278.194 110.222 278.762C112.601 279.361 115.225 279.131 117.565 278.461C119.058 278.035 121.423 277.276 121.876 275.553C122.365 273.673 119.462 272.86 118.968 274.75C119.034 274.49 119.362 274.505 118.968 274.615C119.301 274.51 118.672 274.794 118.535 274.86C117.939 275.171 117.307 275.409 116.655 275.57C115.069 276.043 113.403 276.187 111.759 275.993C110.232 275.775 108.726 275.095 108.087 273.602C107.319 271.812 107.615 269.352 107.502 267.441C107.204 262.361 106.746 257.258 106.836 252.164C106.831 251.36 106.876 250.558 106.971 249.76C106.971 249.806 107.089 249.29 107.113 249.126C107.16 248.791 106.956 249.329 107.113 249.102C107.145 249.055 106.8 249.234 107.199 249.102C107.732 248.92 107.874 248.803 108.503 249.031C109.321 249.322 110.016 249.944 110.628 250.543C112.484 252.364 113.891 254.638 115.127 256.908C116.138 258.758 117.107 260.697 117.668 262.738C118.185 264.608 121.095 263.813 120.578 261.935L120.586 261.94Z" fill="#400705"/>
<path d="M122.297 232.797C122.476 234.011 122.654 235.226 122.831 236.441C122.936 236.821 123.185 237.144 123.526 237.342C123.878 237.544 124.296 237.598 124.688 237.494C125.067 237.388 125.389 237.14 125.589 236.801L125.741 236.441C125.814 236.179 125.814 235.901 125.741 235.639C125.565 234.423 125.387 233.208 125.207 231.994C125.104 231.614 124.855 231.291 124.515 231.093C124.344 230.992 124.155 230.926 123.958 230.899C123.762 230.872 123.562 230.884 123.37 230.934C123.178 230.984 122.999 231.072 122.841 231.192C122.683 231.312 122.551 231.462 122.451 231.634L122.297 231.994C122.226 232.257 122.226 232.534 122.297 232.797Z" fill="#400705"/>
<path d="M125.993 235.93C129.42 236.363 132.658 236.375 135.968 237.399C136.349 237.491 136.752 237.432 137.09 237.233C137.428 237.034 137.676 236.711 137.78 236.333C137.885 235.954 137.838 235.55 137.649 235.206C137.461 234.861 137.146 234.604 136.771 234.488C133.251 233.396 129.613 233.369 126 232.909C125.19 232.806 124.492 233.675 124.492 234.42C124.492 235.32 125.188 235.825 126 235.927L125.993 235.93Z" fill="#400705"/>
<path d="M117.046 277.609C117.641 279.52 118.336 281.4 119.127 283.239C119.325 283.578 119.649 283.827 120.028 283.932C120.42 284.036 120.838 283.981 121.19 283.78C121.53 283.58 121.778 283.256 121.883 282.877C121.967 282.483 121.913 282.073 121.731 281.714L121.653 281.53C121.741 281.738 121.753 281.775 121.69 281.613C121.651 281.523 121.611 281.43 121.575 281.337C121.487 281.121 121.398 280.904 121.313 280.688C121.149 280.27 120.987 279.849 120.823 279.425C120.507 278.563 120.215 277.694 119.947 276.818C119.702 276.067 118.882 275.509 118.089 275.766C117.333 276.01 116.787 276.813 117.036 277.621L117.046 277.609Z" fill="#400705"/>
<path d="M93.7019 278.147L92.6664 282.399C92.4804 283.165 92.9112 284.071 93.719 284.257C94.5268 284.443 95.3761 284.012 95.5769 283.202L96.6123 278.95C96.7983 278.184 96.3675 277.278 95.5573 277.092C94.7471 276.906 93.9001 277.337 93.7019 278.147Z" fill="#400705"/>
</svg>
