<svg width="258" height="420" viewBox="0 0 258 420" fill="none" xmlns="http://www.w3.org/2000/svg">
<path d="M62.2841 158.444C64.2879 153.392 69.5304 150.26 74.3761 150.813C73.2676 147.21 72.3501 143.083 74.1802 140.789C77.362 136.789 88.0901 138.076 92.5787 137.764C100.899 137.186 109.273 136.841 117.259 134.208C125.443 131.505 132.962 127.336 140.015 122.418C142.336 120.801 145.649 122.483 145.329 125.424C144.751 130.726 148.106 128.236 151.164 126.48C152.774 125.558 154.264 124.248 155.707 123.1C160.052 119.628 163.871 115.807 165.223 110.222C165.627 108.56 166.842 107.368 168.662 107.534C182.327 108.774 197.429 107.038 210.657 110.74C211.166 110.884 211.111 111.653 210.657 111.831L210.598 111.854C213.993 116.399 218.211 120.228 223.245 122.922C225.529 124.144 228.337 124.801 229.77 127.17C231.094 129.362 230.678 132.187 230.631 134.609C230.631 135.068 230.234 140.296 230.335 141.965C230.993 141.3 234.355 140.846 233.349 141.032C249.227 138.123 250.641 162.66 247.851 172.205C245.961 178.653 241.53 184.498 234.956 186.645C230.693 188.039 230.474 186.415 228.339 189.552C226.144 192.776 225.145 197.106 223.099 200.516C213.908 215.827 193.506 219.115 177.322 223.698C176.916 225.327 175.921 226.728 174.364 227.914C172.204 229.565 169.404 229.987 167.15 231.497C164.129 233.508 162.19 236.457 160.561 239.629C159.189 242.312 154.492 242.448 154.214 238.85C153.85 234.138 146.234 232.958 143.199 230.356C139.293 227.009 136.297 224.789 131.122 223.519C123.29 221.597 115.59 219.276 108.423 215.514C98.0792 210.083 89.1416 201.832 84.5587 191.243C83.5089 191.801 82.3561 192.139 81.1711 192.235C75.9335 192.696 72.231 189.259 69.58 185.185C61.7261 179.908 58.8891 167.012 62.2841 158.444Z" fill="#FFE4D2"/>
<path d="M209.872 336.951C211.995 335.683 214.467 336.239 216.796 336.569C219.658 336.97 222.5 337.432 225.384 337.719C225.653 337.751 225.91 337.853 226.128 338.014C226.195 337.972 226.252 337.928 226.324 337.888C226.548 337.795 226.796 337.778 227.031 337.84C227.266 337.902 227.474 338.039 227.623 338.23C227.991 338.837 228.233 339.512 228.335 340.214C228.613 340.821 228.75 341.483 228.737 342.151C228.725 342.818 228.562 343.474 228.26 344.07C227.876 346.347 226.981 348.596 225.902 349.891C222.472 353.992 215.414 351.627 211.575 349.491C211.183 349.27 210.806 349.021 210.447 348.747C209.944 348.859 209.419 348.835 208.928 348.678C208.437 348.522 207.996 348.237 207.65 347.855C204.902 344.849 206.539 338.942 209.872 336.951Z" fill="#FFE4D2"/>
<path d="M3.14604 184.585C3.50067 182.819 4.02394 182.129 4.77288 180.567C4.99111 180.111 5.79459 179.997 5.97067 179.632C6.82872 177.864 6.03267 175.893 5.97067 174.137C5.89379 171.337 5.89131 168.505 8.94656 167.205C12.6664 165.616 15.8655 169.078 18.772 170.925C21.8074 172.869 22.5142 172.046 25.3512 172.435C26.5912 172.607 27.9179 172.768 29.0165 173.482C34.5492 177.083 31.9056 185.284 36.982 189.624C37.1025 189.722 37.1999 189.845 37.2673 189.985C37.3347 190.125 37.3704 190.278 37.3718 190.434C37.3732 190.589 37.3403 190.743 37.2755 190.884C37.2107 191.025 37.1156 191.15 36.9969 191.251C36.9969 191.285 36.9969 191.318 36.9969 191.352C36.7712 198.09 33.1232 203.799 28.4833 208.446C27.6798 209.25 26.2514 209.26 25.2768 208.905C23.3821 208.231 22.963 207.477 21.5371 206.16C18.0801 202.966 14.1296 202.745 9.53926 202.192C6.06739 201.783 2.70214 201.406 1.10756 197.892C-0.620941 194.006 2.40207 188.384 3.14604 184.585Z" fill="#FFE4D2"/>
<path d="M235.331 169.561C235.624 167.79 236.409 166.136 237.595 164.787C236.851 163.369 237.396 161.836 238.505 160.705C241.803 157.33 246.805 159.136 247.056 163.875C247.247 167.515 245.853 171.548 242.914 173.847C241.285 175.121 238.884 175.788 237.044 174.591C235.288 173.432 234.996 171.508 235.331 169.561Z" fill="#FFA294"/>
<path d="M68.8414 170.147C70.9717 168.631 73.097 169.725 74.694 171.359C75.8457 172.584 76.6123 174.12 76.8987 175.776C77.3624 178.283 75.9439 180.646 73.216 180.661C69.9524 180.679 67.475 177.383 67.5816 174.256C67.5816 174.219 67.594 174.181 67.599 174.142C67.5414 173.98 67.4958 173.814 67.4626 173.646C67.294 172.396 67.785 170.898 68.8414 170.147Z" fill="#FFA294"/>
<path d="M153.201 160.909C153.358 160.507 153.623 160.155 153.966 159.893C154.309 159.631 154.718 159.467 155.147 159.421C155.48 159.401 155.819 159.421 156.154 159.421C156.742 159.421 157.317 159.451 157.801 159.845C158.197 160.155 158.482 160.585 158.614 161.07C158.757 161.596 158.705 162.155 158.468 162.645C158.23 163.135 157.823 163.523 157.322 163.736C157.006 163.867 156.671 163.951 156.33 163.984C156.108 164.113 155.861 164.198 155.606 164.232C155.205 164.279 154.798 164.224 154.424 164.071C154.049 163.919 153.72 163.674 153.466 163.359C153.189 163.002 153.028 162.57 153.005 162.119C152.952 161.915 152.942 161.702 152.975 161.493C153.009 161.285 153.086 161.086 153.201 160.909Z" fill="#FFA294"/>
<path d="M79.5273 141.64C83.2844 137.704 91.4309 139.19 96.361 138.664C111.764 137.027 128 131.81 140.786 122.907C142.902 121.436 146.84 122.297 146.902 125.387C146.929 126.875 146.842 128.489 146.902 130.076C150.126 128.893 155.127 124.739 156.429 123.628C160.397 120.238 162.669 116.295 165.65 112.164C170.362 105.647 179.255 108.017 186.412 108.149C194.305 108.293 206.484 106.239 213.038 111.353C216.689 114.2 219.806 117.845 223.442 120.777C226.978 123.619 230.653 126.019 233.609 129.489C234.214 130.195 233.523 131.244 232.662 131.16C231.898 131.08 231.139 130.954 230.39 130.783C231.906 133.65 232.399 137.01 231.204 141.008C230.978 141.752 229.85 141.876 229.418 141.256C226.673 137.37 226.618 132.11 222.97 128.797C221.812 127.743 220.701 126.704 219.608 125.664C217.322 124.156 215.145 122.487 213.095 120.67C211.811 119.527 209.916 116.95 208.384 116.184C205.862 114.944 200.676 115.995 197.866 116.02C195.111 116.045 192.351 115.975 189.596 115.953C185.955 115.923 182.201 115.628 178.568 115.864C174.27 116.142 172.643 116.209 170.257 119.795C164.965 127.753 156.995 134.674 147.713 137.419C141.853 139.155 139.985 136.455 139.459 132.487C131.705 136.951 123.836 140.77 115.005 143.225C109.657 144.728 104.199 145.81 98.6822 146.461C95.7385 146.798 84.5467 145.655 83.1951 148.472C82.652 149.606 81.112 150.292 80.0233 149.372C77.5434 147.304 77.1788 144.11 79.5273 141.64Z" fill="#FFA294"/>
<path d="M141.632 226.051C147.779 226.574 153.585 227.601 159.799 227.239C164.883 226.944 169.87 225.85 174.962 226.47C175.049 226.483 175.131 226.52 175.197 226.578C175.264 226.636 175.311 226.713 175.335 226.798C175.359 226.883 175.357 226.973 175.331 227.057C175.304 227.141 175.253 227.215 175.185 227.271C170.369 230.708 164.648 232.519 158.755 233.059C159.348 234.612 159.172 236.283 158.86 237.932C158.612 239.172 157.523 240.033 156.241 239.706C154.959 239.378 154.423 238.103 154.795 236.893C155.083 235.99 155.447 235.112 155.881 234.27C156.066 233.884 156.3 233.525 156.578 233.201C151.089 233.393 145.608 232.619 140.387 230.914C137.557 229.994 138.862 225.815 141.632 226.051Z" fill="#FFA294"/>
<path d="M207.583 339.319C208.065 338.551 208.731 337.917 209.522 337.474C210.005 337.203 211.627 337.01 211.781 336.911C213.053 336.083 214.881 336.623 215.315 337.995C219.203 336.861 223.63 337.094 227.786 337.747C227.853 337.756 227.914 337.788 227.958 337.839C228.003 337.89 228.027 337.955 228.027 338.022C228.027 338.089 228.003 338.154 227.958 338.205C227.914 338.255 227.853 338.288 227.786 338.297C221.775 339.812 214.973 341.231 211.62 347.014C210.38 349.167 207.315 347.805 206.908 345.804C206.469 343.557 206.3 341.323 207.583 339.319Z" fill="#FFA294"/>
<path d="M11.8258 196.93C14.2908 194.551 19.6276 196.759 22.5762 196.553C25.1714 196.352 27.6887 195.573 29.944 194.273C32.1993 192.973 34.1354 191.186 35.6106 189.041C35.9727 188.503 36.6671 188.932 36.6671 189.465C36.6906 191.129 36.3458 192.778 35.6572 194.293C34.9687 195.808 33.9534 197.152 32.6843 198.229C33.0057 198.625 33.2286 199.092 33.3346 199.59C33.4407 200.089 33.4269 200.606 33.2944 201.098C32.5504 203.826 30.6012 206.13 28.771 208.246C27.2037 210.058 24.7635 209.659 23.6525 207.618C21.8496 204.3 21.5123 204.042 17.9859 204.059C16.3169 204.059 14.2065 203.811 12.7483 202.891C10.7321 201.607 9.94848 198.735 11.8258 196.93Z" fill="#FFA294"/>
<path d="M9.15029 186.219C12.3742 185.567 14.4896 184.277 15.0847 180.786C15.1186 180.542 15.207 180.309 15.3432 180.104C15.4795 179.9 15.6601 179.728 15.8717 179.603C16.0833 179.478 16.3204 179.402 16.5654 179.381C16.8104 179.359 17.057 179.394 17.2869 179.481C18.388 179.92 19.1072 180.721 20.1041 181.329C21.1556 181.964 22.3856 182.147 23.4966 182.623C23.579 182.659 23.6524 182.712 23.7113 182.78C23.7703 182.847 23.8132 182.927 23.8371 183.014C23.8609 183.1 23.8649 183.191 23.8489 183.279C23.8329 183.367 23.7973 183.451 23.7446 183.523C22.5617 185.368 20.0619 185.597 18.0408 184.763C17.7631 186.435 17.1803 188.019 15.9577 189.329C15.1433 190.202 14.1057 190.836 12.957 191.162C12.9347 192.355 12.5041 193.505 11.7369 194.42C10.1398 196.349 7.24078 194.192 8.61713 192.106C9.15527 191.293 8.77582 190.666 8.09633 190.227C6.35543 189.088 7.36227 186.564 9.15029 186.219Z" fill="#FFA294"/>
<path d="M9.56626 196.57C9.63895 196.476 9.73456 196.402 9.84401 196.354C9.92189 196.32 10.007 196.305 10.092 196.31C10.1769 196.302 10.2623 196.317 10.34 196.352C10.4478 196.396 10.5425 196.467 10.6153 196.558C10.6859 196.649 10.7316 196.756 10.7477 196.87C10.7638 196.984 10.7497 197.101 10.707 197.208C10.6748 197.279 10.645 197.351 10.6128 197.421C10.5703 197.522 10.4987 197.609 10.4072 197.67C10.3156 197.731 10.2082 197.763 10.0982 197.763C9.98826 197.763 9.88074 197.731 9.78919 197.67C9.69764 197.609 9.62612 197.522 9.58361 197.421L9.48937 197.208C9.44732 197.103 9.43233 196.99 9.44578 196.879C9.45922 196.767 9.50067 196.661 9.56626 196.57Z" fill="#FFA294"/>
<path d="M213.641 109.924C224.649 110.631 235.784 111.045 246.758 112.129C246.868 112.144 246.977 112.165 247.085 112.194C247.534 111.921 248.119 111.911 248.456 112.442C254.984 122.857 253.954 136.534 250.259 147.793C249.617 149.757 246.787 149.566 246.021 147.825C243.817 142.761 239.077 140.881 233.964 142.099C232.674 142.404 231.608 141.233 231.357 140.115C230.745 137.387 230.636 135.016 230.537 132.266C230.408 128.64 229.483 127.165 226.502 124.665C221.941 120.846 216.781 117.58 211.977 114.078C210.023 112.66 211.412 109.781 213.641 109.924Z" fill="#9C5043"/>
<path d="M56.154 119.66C57.3592 115.968 59.2092 115.854 62.9737 115.378C69.9448 114.495 76.9654 113.917 83.9538 113.19C98.2703 111.702 112.639 109.733 127.032 109.193C134.68 108.905 142.333 109.193 149.984 109.101C155.956 109.036 161.93 108.392 167.715 110.113C167.795 110.141 167.866 110.188 167.925 110.248C167.983 110.309 168.027 110.382 168.053 110.462C168.35 110.363 168.675 110.579 168.549 110.929C165.491 119.722 155.678 129.811 146.775 132.769C145.535 133.183 143.715 132.553 143.665 130.984C143.633 129.992 144.094 124.382 143.278 123.861C143.167 123.792 142.869 123.861 142.467 124.018C139.072 131.132 128.996 133.58 121.14 135.177C119.414 135.903 117.652 136.539 115.86 137.084C110.209 138.771 104.274 139.515 98.4687 140.499C92.8815 141.449 87.1182 142.825 81.4293 142.513C78.4236 143.919 79.5867 146.667 79.366 150.783C79.2444 153.03 76.4719 153.65 74.9616 152.576C71.727 152.971 68.5519 153.755 65.5057 154.912C64.9388 155.136 64.3152 155.174 63.7255 155.019C63.1359 154.864 62.611 154.525 62.2273 154.052C58.8422 149.734 56.9302 144.985 56.0077 139.579C55.043 133.965 54.3734 125.119 56.154 119.66Z" fill="#9C5043"/>
<path d="M216.25 110.108C223.442 109.165 232.176 110.418 239.376 112.327C239.571 111.782 239.941 111.317 240.428 111.003C240.915 110.689 241.491 110.544 242.069 110.591C244.363 110.678 251.614 111.717 250.28 115.529C250.174 115.79 249.986 116.008 249.744 116.152C249.502 116.295 249.22 116.355 248.941 116.322C248.5 116.265 248.056 116.242 247.611 116.253C250.067 118.485 251.559 121.518 252.777 125.429C252.966 126.039 252.303 126.708 251.723 126.252C246.133 121.865 240.983 119.222 233.828 118.358C227.688 117.615 221.409 117.329 215.663 114.887C213.391 113.939 213.731 110.438 216.25 110.108Z" fill="#8C4238"/>
<path d="M72.1751 114.257C83.0197 111.834 94.1372 110.909 105.222 110.465C116.382 110.016 127.569 110.108 138.738 109.721C147.564 109.409 159.089 106.639 167.505 109.721C168.522 110.093 168.688 111.517 167.855 112.161C161.254 117.27 150.53 116.843 142.545 117.178C132.306 117.605 122.056 117.565 111.812 117.83C101.644 118.096 91.4291 118.632 81.3607 120.229C76.7307 120.973 72.0263 121.816 67.5401 123.204C64.651 124.095 62.2604 125.436 59.2101 125.436C58.2999 125.436 57.7221 124.41 57.7916 123.621C58.2875 117.01 66.9375 115.43 72.1751 114.257Z" fill="#8C4238"/>
<path d="M247.341 114.086C253.866 123.74 253.749 136.621 249.858 147.26C249.263 148.886 246.478 148.252 246.86 146.491C249.27 135.433 247.827 125.729 245.62 114.812C245.434 113.885 246.808 113.31 247.341 114.086Z" fill="#E27B6D"/>
<path d="M61.6715 117.796C62.3287 117.096 63.7001 117.416 63.5364 118.54C61.7261 131.014 60.8234 141.149 67.6878 152.447C68.8112 154.297 66.5942 155.999 65.0665 154.498C55.9181 145.511 52.1834 127.891 61.6715 117.796Z" fill="#E27B6D"/>
<path d="M143.822 169.604C148.728 169.84 153.643 169.804 158.545 169.497C162.017 169.281 165.516 168.48 168.809 169.822C168.982 169.894 169.134 170.011 169.249 170.159C169.364 170.308 169.438 170.483 169.465 170.669C169.492 170.855 169.47 171.045 169.401 171.219C169.333 171.394 169.22 171.548 169.075 171.667C169.018 171.716 168.951 171.749 168.894 171.793C168.938 171.878 168.977 171.966 169.01 172.056C171.108 180.669 166.248 195.174 155.534 194.847C144.062 194.494 141.558 181.398 141.042 172.416C140.947 170.734 142.13 169.524 143.822 169.604Z" fill="#FF5FAF"/>
<path d="M144.645 181.346C148.464 174.229 166.716 174.497 169.106 182.943C169.292 183.603 169.042 184.458 168.459 184.813C169.243 188.377 164.491 193.066 161.838 194.331C157.019 196.625 151.469 195.469 147.663 191.967C147.502 191.861 147.333 191.777 147.167 191.658C144.087 189.314 142.765 184.858 144.645 181.346Z" fill="#FF7BB1"/>
<path d="M146.443 169.671C149.872 169.557 153.265 169.919 156.704 169.705C159.184 169.559 162.448 169.013 164.772 169.998C164.939 170.07 165.073 170.203 165.145 170.371C165.217 170.538 165.222 170.727 165.158 170.898C164.166 174.028 159.532 174.449 156.776 174.653C152.994 174.933 148.684 175.084 145.77 172.284C144.977 171.523 145.014 169.72 146.443 169.671Z" fill="white"/>
<path d="M190.432 147.552C194.07 146.56 197.465 150.28 196.557 153.848C196.049 155.847 194.179 157.291 192.076 157.01C190.288 156.762 188.656 155.274 188.53 153.447C188.511 153.096 188.53 152.744 188.587 152.398L188.572 152.383L188.242 151.82L188.559 152.37L188.507 152.318C188.252 151.987 188.087 151.596 188.026 151.183C188.001 150.919 188.001 150.655 188.026 150.391C188.096 149.732 188.363 149.108 188.792 148.602C189.221 148.095 189.792 147.73 190.432 147.552Z" fill="white"/>
<path d="M113.418 151.88C113.543 151.552 113.716 151.246 113.931 150.969C113.922 150.232 114.145 149.51 114.568 148.906C114.911 148.443 115.371 148.08 115.9 147.852C116.43 147.625 117.01 147.543 117.581 147.614C119.126 147.862 120.118 148.755 120.83 150.094C121.187 150.805 121.365 151.592 121.348 152.388C121.383 153.459 121.076 154.514 120.471 155.398C120.078 155.942 119.563 156.386 118.967 156.694C118.371 157.001 117.711 157.164 117.041 157.169C114.33 157.179 112.51 154.384 113.418 151.88Z" fill="white"/>
<path d="M237.024 147.929C236.965 147.761 236.946 147.581 236.969 147.404C236.993 147.227 237.057 147.057 237.158 146.91C237.962 145.685 239.772 145.918 240.878 146.568C242.063 147.272 242.862 148.304 243.013 149.7C243.219 151.537 240.781 152.676 239.623 151.128C239.554 151.034 239.482 150.945 239.405 150.858C239.696 151.124 239.613 151.041 239.157 150.61C239.045 150.469 238.961 150.31 238.857 150.164C238.825 150.121 238.609 149.876 238.552 149.804L238.49 149.764C238.306 149.612 238.135 149.446 237.976 149.268C237.909 149.199 237.632 148.901 237.86 149.12C237.572 148.844 237.26 148.624 237.099 148.239C237.079 148.162 237.056 148.085 237.037 148.009C237.027 147.992 237.021 147.975 237.017 147.956C237.017 147.956 237.017 147.937 237.017 147.927L236.994 147.847C237.002 147.897 237.002 147.899 237.024 147.929Z" fill="white"/>
<path d="M212.305 177.321C212.431 177.094 212.622 176.909 212.853 176.79C213.085 176.671 213.346 176.623 213.604 176.651C214.022 176.68 214.423 176.828 214.76 177.078C215.097 177.327 215.355 177.668 215.504 178.06C215.702 178.592 215.781 179.161 215.737 179.726C215.68 180.5 214.71 180.634 214.249 180.138C214.231 180.12 214.215 180.1 214.202 180.079C214.188 180.072 214.176 180.064 214.165 180.054C214.093 179.997 214.023 179.94 213.949 179.888L213.798 179.806L213.701 179.766C213.454 179.661 213.22 179.53 213.001 179.374C212.779 179.195 212.577 178.992 212.399 178.769C212.049 178.4 212.074 177.733 212.305 177.321Z" fill="#FF6A68"/>
<path d="M209.066 177.993C209.25 177.746 209.523 177.581 209.827 177.531C210.131 177.481 210.442 177.55 210.696 177.725C210.824 177.82 210.932 177.941 211.012 178.08C211.092 178.218 211.143 178.372 211.162 178.531C211.169 178.663 211.169 178.796 211.162 178.928C211.168 179.106 211.114 179.281 211.008 179.424L210.849 179.588C210.729 179.68 210.586 179.74 210.435 179.761C210.171 179.744 209.908 179.727 209.644 179.709C209.42 179.655 209.222 179.527 209.081 179.345C208.936 179.15 208.856 178.914 208.853 178.671C208.85 178.428 208.925 178.191 209.066 177.993Z" fill="#FF6A68"/>
<path d="M211.176 178.794C211.176 178.834 211.176 178.876 211.176 178.915C211.176 178.839 211.176 178.762 211.176 178.685C211.166 178.722 211.173 178.757 211.176 178.794Z" fill="#FF6A68"/>
<path d="M103.158 181.177C103.566 181.206 103.959 181.344 104.295 181.576C104.632 181.809 104.9 182.128 105.07 182.499C105.268 182.899 105.419 183.321 105.519 183.756C105.73 184.456 105.271 185.244 104.468 185.14C103.997 185.113 103.53 185.03 103.079 184.892C102.794 184.769 102.52 184.62 102.261 184.448C101.899 184.179 101.633 183.801 101.502 183.37C101.102 182.333 101.931 180.922 103.158 181.177Z" fill="#FF6A68"/>
<path d="M97.8315 182.903C98.1514 182.511 98.8234 182.32 99.2376 182.695C99.5369 182.938 99.8141 183.207 100.066 183.498L100.678 184.27C101.088 184.785 100.51 185.646 99.8749 185.341L99.002 184.917C98.6646 184.742 98.3427 184.539 98.0398 184.309C97.8282 184.149 97.688 183.911 97.6491 183.649C97.6101 183.386 97.6756 183.118 97.8315 182.903Z" fill="#FF6A68"/>
<path d="M192.455 234.776C192.507 234.862 192.554 234.952 192.607 235.041C200.393 236.211 204.927 242.168 209.363 248.963C215.567 258.494 220.605 268.735 224.369 279.466C228.167 290.189 230.637 301.336 231.722 312.66C232.268 318.48 232.364 324.355 232.595 330.193C232.709 333.062 233.394 335.46 230.76 337.332C227.34 339.763 211.34 338.188 209.143 337.293C206.556 336.236 209.413 331.21 209.656 328.861C210.365 322.091 209.46 315.182 208.312 308.526C204.079 283.932 199.109 259.136 187.528 236.824C185.916 233.727 190.774 231.884 192.455 234.776Z" fill="white"/>
<path d="M162.407 231.713C166.079 230.307 169.995 229.218 173.775 228.127C174.068 228.049 174.376 228.037 174.675 228.092C175.513 227.564 176.783 227.681 177.17 228.755C178.529 232.536 175.498 236.353 172.401 238.243C171.165 238.991 169.86 239.617 168.502 240.11C168.308 240.44 168.039 240.72 167.716 240.926C165.764 242.213 163.711 242.84 161.427 243.264C159.416 243.636 157.97 241.759 158.064 239.941C158.253 236.276 158.637 233.154 162.407 231.713Z" fill="white"/>
<path d="M142.083 228.038C144.02 229.206 145.887 230.587 147.909 231.604C149.892 232.596 151.829 232.348 153.778 233.072C155.591 233.747 156.454 236.048 156.328 238.163C157.714 239.77 156.514 242.424 154.051 242.411C150.054 242.387 145.922 240.179 142.609 238.101C139.484 236.15 137.329 233.843 137.57 229.972C137.716 227.651 140.392 227.019 142.083 228.038Z" fill="white"/>
<path d="M29.3468 205.587C31.9135 199.742 34.7108 193.994 37.4387 188.228C38.0314 186.97 39.5838 186.033 40.9751 186.703C47.9188 190.043 55.1999 192.213 62.0196 195.938C69.1593 199.836 76.0088 204.243 83.203 208.052C97.6361 215.695 113.136 220.124 127.936 226.79C129.396 227.448 128.876 229.682 127.236 229.518C127.073 229.503 126.907 229.476 126.74 229.459C126.946 230.153 126.835 230.947 126.202 231.73C122.396 236.425 120.593 242.813 118.515 248.423C116.156 254.749 113.942 261.122 111.819 267.518C111.167 269.48 108.709 269.874 107.164 268.84C88.2273 256.16 69.0799 243.773 50.5922 230.443C46.0142 227.137 41.457 223.81 36.9204 220.464C34.4157 218.617 29.0392 216.139 27.6654 213.074C26.5221 210.559 28.3474 207.864 29.3468 205.587Z" fill="white"/>
<path d="M190.29 235.21C201.487 245.754 206.774 262.134 210.377 276.699C212.579 285.733 214.029 294.934 214.712 304.208C215.111 309.357 215.414 314.532 215.518 319.698C215.64 325.729 214.841 332.665 223.759 332.45C226.105 332.392 227.079 335.371 224.848 336.477C220.265 338.751 206.268 339.626 209.98 330.934C210.076 330.702 210.217 330.491 210.396 330.314C210.574 330.136 210.786 329.997 211.02 329.903C210.682 329.125 210.444 328.307 210.313 327.47C208.607 316.943 209.269 305.805 208.049 295.166C206.809 284.384 205.008 273.678 201.564 263.357C198.367 253.784 193.397 245.122 189.385 235.909C189.176 235.408 189.851 234.798 190.29 235.21Z" fill="#FFCFE9"/>
<path d="M139.504 229.501C144.836 234.694 152.238 238.327 159.792 237.952C167.061 237.59 171.485 233.558 177.417 230.23C177.816 230.007 178.317 230.376 178.372 230.776C179.416 238.624 167.289 242.533 161.26 243.036C151.341 243.867 143.216 239.5 137.158 231.911C135.997 230.463 138.103 228.129 139.504 229.501Z" fill="#FFCFE9"/>
<path d="M30.6458 209.53C35.8536 212.3 40.6969 215.509 45.4037 218.907C56.5509 225.997 67.8196 232.958 79.5447 238.935C87.0043 242.734 96.6412 248.078 105.167 245.893C111.952 244.157 124.163 234.734 126.847 227.978C126.971 227.663 127.377 227.82 127.38 228.115C127.409 234.081 123.07 240.212 118.311 244.631C117.502 249.095 115.335 253.159 113.229 257.159C112.25 259.826 111.438 262.551 110.799 265.318C110.189 267.964 107.369 268.681 105.502 266.789C105.309 266.593 105.103 266.414 104.907 266.224C101.899 266.06 98.6028 263.719 96.2593 262.519C90.9696 259.806 85.4766 256.966 80.983 253.053C80.6265 252.725 80.3787 252.296 80.2732 251.823C80.1677 251.351 80.2094 250.857 80.3928 250.409C75.9612 248.046 71.5842 245.601 67.527 242.687C61.4512 238.322 55.8714 233.313 50.0139 228.68C43.09 223.224 35.5287 218.679 28.5031 213.374C26.4572 211.99 28.4064 208.33 30.6458 209.53Z" fill="#FFCFE9"/>
<path d="M54.5103 109.2C54.5585 109.01 54.6215 108.825 54.6987 108.645C54.5117 108.324 54.3769 107.976 54.2995 107.613C51.3236 92.7484 58.0194 75.8899 63.9711 62.5405C67.133 55.443 70.3545 48.157 75.4482 42.1879C80.2319 36.5932 86.0796 32.107 92.0314 27.8391C98.0997 23.4844 104.238 19.09 110.988 15.8388C114.175 14.3037 117.475 13.2175 120.836 12.1413C122.363 11.6453 124.134 11.2584 125.525 10.4053C127.931 8.94713 128.372 6.68545 130.041 4.85775C133.56 1.00645 138.153 1.52971 143.132 1.48011C152.385 1.38587 161.672 1.81242 170.821 3.23341C172.202 3.44668 173.053 4.42377 173.348 5.73068C173.474 7.33087 174.079 8.85605 175.084 10.1077C196.369 13.778 218.254 27.2191 232.137 43.5196C247.386 61.427 254.109 85.946 256.579 108.92C256.755 110.559 255.629 112.193 253.933 112.392C241.451 113.88 230.497 112.213 218.093 110.544C203.868 108.627 188.991 108.697 174.645 108.955C161.06 109.203 147.47 109.379 133.89 109.813C119.903 110.262 105.929 111.896 91.9545 112.191C91.0182 112.228 90.1011 111.919 89.3779 111.323C87.5791 111.531 85.7779 111.716 83.9741 111.876C83.9009 111.942 83.8239 112.003 83.7435 112.059C78.0843 115.697 70.3519 115.983 63.7653 116.253C60.9605 116.367 58.5451 116.03 56.8637 114.703C55.1972 114.319 53.6795 112.603 54.1036 110.877L54.5103 109.2Z" fill="#FDE41B"/>
<path d="M177.501 11.514C187.15 21.9297 191.885 38.7063 196.326 51.9366C200.773 65.2116 205.569 80.0142 205.323 94.0951C205.269 97.2198 199.991 98.0084 199.146 94.9408C195.24 80.7383 193.033 66.3102 188.425 52.2218C184.256 39.4775 176.74 25.5429 176.331 11.9976C176.319 11.8571 176.352 11.7165 176.426 11.5961C176.499 11.4758 176.609 11.3819 176.739 11.3281C176.869 11.2742 177.013 11.2632 177.15 11.2967C177.287 11.3301 177.41 11.4062 177.501 11.514Z" fill="#FFAD12"/>
<path d="M107.23 46.0467C109.71 34.3489 111.989 19.1471 122.928 12.248C124.188 11.4519 125.735 12.7935 124.845 14.1178C117.73 24.6946 115.999 40.2015 113.948 52.5565C111.619 66.5729 111.429 80.5621 110.005 94.6431C109.613 98.5316 103.557 98.6258 103.131 94.6852C101.4 78.7493 103.912 61.6181 107.23 46.0467Z" fill="#FFAD12"/>
<path d="M59.6361 112.114C72.8614 105.267 90.387 105.684 104.932 104.798C122.373 103.735 139.784 102.567 157.258 102.125C173.407 101.728 189.556 101.808 205.671 103.04C221.349 104.238 238.093 104.672 252.7 110.976C253.24 111.209 253.196 112.129 252.553 112.174C237.614 113.203 222.651 109.942 207.751 108.982C190.754 107.891 173.645 107.802 156.623 108.238C140.613 108.645 124.595 109.433 108.604 110.321C100.721 110.76 92.8346 111.216 84.9758 111.988C76.7921 112.794 68.6952 114.795 60.5139 115.368C60.1102 115.411 59.7043 115.308 59.3694 115.079C59.0344 114.849 58.7923 114.508 58.6865 114.116C58.5807 113.724 58.6182 113.307 58.7923 112.94C58.9663 112.573 59.2655 112.28 59.6361 112.114Z" fill="#FFAD12"/>
<path d="M130.214 6.40544C134.152 1.44561 142.051 1.8424 147.881 1.82256C155.095 1.79528 162.361 2.95588 169.288 4.93981C170.959 5.41843 170.23 8.1389 168.544 7.87107C160.923 6.65839 153.496 6.15001 145.773 6.70551C140.608 7.07998 135.211 9.14574 130.353 6.88158C130.309 6.86346 130.27 6.83565 130.238 6.80022C130.206 6.76479 130.183 6.72264 130.169 6.67691C130.156 6.63118 130.153 6.58303 130.161 6.53604C130.169 6.48904 130.187 6.44441 130.214 6.40544Z" fill="white"/>
<path d="M175.977 12.6249C221.959 19.9853 254.196 62.5232 256.509 107.978C256.581 109.384 254.453 109.714 254.312 108.275C249.784 62.5654 217.974 28.7195 175.739 13.5425C175.223 13.3689 175.431 12.5257 175.977 12.6249Z" fill="white"/>
<path d="M102.094 305.123C102.724 295.154 105.35 285.051 107.992 275.364C110.92 264.624 114.02 253.928 118.7 243.869C121.048 238.818 123.818 227.547 130.807 226.892C140.726 225.964 138.871 235.135 145.19 239.725C150.259 243.413 159.058 242.076 164.871 240.965C171.968 239.621 174.58 236.958 178.637 231.294C178.886 230.954 179.222 230.688 179.609 230.521C179.996 230.355 180.421 230.296 180.839 230.349C182.078 230.559 183.261 231.024 184.311 231.715C184.6 231.538 184.936 231.449 185.275 231.46C185.614 231.471 185.943 231.581 186.22 231.777C190.027 234.257 191.113 238.079 192.611 242.233C194.518 247.52 196.403 252.817 198.196 258.144C202.01 269.464 205.462 280.942 207.868 292.654C209.108 298.705 213.48 311.134 207.24 315.831C201.397 320.233 191.552 320.933 183.584 320.819C183.167 321.21 182.625 321.443 182.054 321.476C159.631 323.112 135.603 320.047 113.547 315.96C105.69 314.529 101.554 313.597 102.094 305.123Z" fill="#FF761D"/>
<path d="M104.475 312.752C107.924 312.774 110.511 315.06 113.859 316.427C119.344 318.659 125.267 319.591 131.119 320.395C140.112 321.612 149.17 322.275 158.244 322.379C162.586 321.523 167.046 321.453 171.413 322.173C171.443 322.173 171.47 322.19 171.5 322.195C175.098 321.771 178.691 321.297 182.28 320.747C186.582 320.085 190.863 319.296 195.175 318.634C199.071 318.034 203.741 317.982 207.238 315.938C207.319 315.532 207.391 315.127 207.486 314.721C207.701 313.729 209.202 313.3 209.611 314.428C209.611 314.455 209.626 314.48 209.633 314.505C210.511 314.505 211.334 315.497 210.957 316.422C210.819 316.764 210.652 317.074 210.489 317.389C213.628 330.334 206.573 342.059 202.089 353.948C198.915 362.38 198.994 372.396 197.997 381.279C197.43 386.323 198.392 396.26 193.977 399.702C189.563 403.144 179.393 401.885 174.027 402.222C169.679 402.497 163.259 404.377 160.883 399.772C159.467 397.044 159.812 392.828 159.499 389.79C159.003 385.044 158.56 380.292 158.17 375.536C157.508 367.62 156.29 357.378 156.156 349.439C154.036 348.963 150.991 349.921 148.843 349.772C148.945 351.041 148.24 353.159 148.178 354.427C147.655 365.135 148.216 376.061 145.584 386.45C143.824 393.393 142.68 400.481 135.062 402.802C127.037 405.25 116.374 402.723 108.544 400.789C106.523 400.293 105.762 398.326 106.119 396.759C105.739 396.194 105.541 395.527 105.551 394.847C105.608 380.463 104.435 366.162 103.319 351.835C102.382 339.741 102.327 327.12 100.237 315.177C99.7928 312.759 102.865 311.474 104.475 312.752Z" fill="#A4A2A6"/>
<path d="M103.223 300.935C103.179 300.81 103.147 300.681 103.129 300.55L103.089 299.953C103.007 298.698 103.585 297.336 104.857 296.873C106.781 296.163 108.272 296.186 110.375 296.359C112.263 296.519 114.139 296.803 115.989 297.21C117.331 297.5 118.288 297.255 118.177 297.579C119.109 295.972 119.288 290.834 119.717 289.175C120.746 285.192 121.921 281.239 123.045 277.286C127.241 262.481 131.313 247.654 136.087 233.025C136.674 231.217 138.946 231.289 140.054 232.457C142.222 234.768 144.412 237.057 146.661 239.289C147.308 239.929 147.313 241.072 147.03 241.861C142.686 253.985 140.791 265.829 139.387 278.563C139.105 281.138 138.832 283.712 138.5 286.278C138.145 289.039 136.389 293.795 136.88 296.446C138.212 303.638 151.172 302.812 156.744 302.705C160.281 302.638 163.787 302.333 167.304 301.942C168.625 301.793 174.399 301.713 175.443 300.902C178.399 298.611 176.97 287.189 176.995 283.419C177.094 269.571 176.167 255.723 172.445 242.332C172.184 241.397 172.231 240.14 173.176 239.547C175.717 238.376 177.115 236.204 177.37 233.03C177.496 231.941 178.659 230.862 179.81 231.123L181.347 231.259C181.482 231.164 181.636 231.099 181.798 231.068C181.96 231.037 182.127 231.041 182.287 231.08C182.448 231.118 182.598 231.19 182.729 231.291C182.859 231.392 182.966 231.52 183.044 231.666C183.069 231.71 183.091 231.76 183.113 231.807C188.098 241.305 189.152 253.725 191.136 264.145C193.266 275.317 194.856 285.968 192.532 297.235C192.502 297.367 192.463 297.497 192.415 297.624C192.633 297.964 192.904 298.267 193.216 298.522C195.696 300.451 203.104 298.088 206.01 297.334C207.193 297.029 208.535 298.192 208.631 299.318C208.974 303.268 211.012 309.733 208.927 313.421C206.618 317.518 200.086 318.515 195.949 319.289C183.302 321.657 170.029 322.133 157.203 321.768C143.588 321.377 130.052 319.556 116.818 316.337C112.818 315.365 107.057 314.889 104.034 311.874C100.783 308.647 102.437 304.855 103.223 300.935Z" fill="#FFF100"/>
<path d="M160.038 350.079C163.187 348.016 168.965 348.616 172.408 349.64C173.598 349.995 173.628 351.624 172.792 352.319C170.379 354.325 167.706 354.846 164.998 355.808C165.223 358.9 166.357 362.454 166.771 365.289L168.616 377.936C169.563 384.429 172.028 391.742 169.581 398.023C168.725 400.216 165.528 400.781 164.102 398.81C160.335 393.587 160.779 386.762 160.097 380.523C159.326 373.467 158.386 366.402 157.831 359.327C157.56 355.88 156.811 352.197 160.038 350.079Z" fill="#908C93"/>
<path d="M136.7 372.956C137.89 366.092 139.18 359.185 140.968 352.44C139.877 351.65 138.672 351.032 137.394 350.607C136.553 350.23 136.777 349.147 137.597 348.943C139.946 348.356 142.309 347.899 144.67 347.401C147.12 346.887 149.119 349.333 148.906 351.584C148.144 359.57 146.619 367.535 145.253 375.436C144.013 382.549 143.805 390.685 140.814 397.279C139.361 400.481 134.272 400.186 133.823 396.421C132.923 388.828 135.4 380.446 136.7 372.956Z" fill="#908C93"/>
<path d="M180.175 383.767C181.997 381.418 186.015 379.675 188.996 380.141C190.652 380.389 190.98 382.289 189.889 383.365C188.976 384.245 187.788 384.801 186.739 385.5C185.603 386.244 184.465 387.142 183.18 387.618C180.916 388.454 178.588 385.813 180.175 383.767Z" fill="#908C93"/>
<path d="M125.574 382.212C126.25 381.95 126.982 381.865 127.7 381.964C128.575 382.125 129.498 382.74 129.418 383.729C129.381 384.225 129.007 384.627 128.612 384.925C128.46 385.16 128.262 385.362 128.03 385.52C127.799 385.678 127.538 385.789 127.263 385.845L126.596 385.993C125.641 386.207 124.682 385.423 124.444 384.548C124.316 384.087 124.361 383.596 124.569 383.167C124.777 382.737 125.134 382.397 125.574 382.212Z" fill="#908C93"/>
<path d="M111.355 379.022C111.868 378.33 113.036 378.065 113.731 378.67C114.965 379.789 116.124 380.987 117.203 382.256C117.377 382.48 117.463 382.76 117.446 383.044C117.429 383.327 117.309 383.595 117.108 383.796C116.909 383.996 116.645 384.119 116.364 384.143C116.082 384.167 115.801 384.091 115.571 383.928C114.231 383.169 112.942 382.324 111.712 381.398C111.358 381.125 111.123 380.725 111.056 380.282C110.99 379.839 111.097 379.388 111.355 379.022Z" fill="#908C93"/>
<path d="M186.959 336.549C187.83 336.956 188.547 337.424 189.1 338.225C189.658 339.023 190.029 339.936 190.186 340.896C190.513 342.754 187.706 343.507 187.002 341.757C186.504 340.548 185.941 339.366 185.315 338.218C184.809 337.258 186.007 336.107 186.959 336.549Z" fill="#908C93"/>
<path d="M181.41 336.779C181.938 337.747 182.551 338.682 182.831 339.755C182.928 340.12 182.352 340.348 182.154 340.043C181.546 339.118 181.264 338.034 180.897 336.995C180.868 336.927 180.868 336.85 180.896 336.782C180.923 336.714 180.977 336.659 181.045 336.631C181.114 336.602 181.19 336.602 181.259 336.63C181.327 336.657 181.381 336.711 181.41 336.779Z" fill="#908C93"/>
<path d="M131.767 335.463C132.059 334.803 132.278 334.138 132.803 333.635C133.275 333.179 134.023 333.419 134.408 333.831C134.919 334.379 135.023 335.378 135.055 336.11C135.102 337.127 134.738 338.007 134.175 338.838C133.235 340.214 130.951 339.262 131.199 337.642C131.285 336.893 131.476 336.159 131.767 335.463Z" fill="#908C93"/>
<path d="M125.808 335.121C126.054 334.492 126.444 333.931 126.946 333.481C127.019 333.427 127.103 333.389 127.192 333.372C127.281 333.355 127.373 333.359 127.461 333.383C127.549 333.407 127.63 333.45 127.698 333.511C127.766 333.571 127.819 333.645 127.854 333.729C127.871 333.771 127.871 333.811 127.886 333.853C128.024 333.949 128.133 334.08 128.201 334.233C128.269 334.386 128.294 334.555 128.273 334.721C128.228 335.056 128.196 335.393 128.134 335.713C128.113 335.884 128.056 336.048 127.966 336.194C127.876 336.341 127.757 336.467 127.615 336.564C127.473 336.66 127.312 336.726 127.143 336.755C126.973 336.785 126.8 336.778 126.633 336.736C126.467 336.693 126.311 336.616 126.177 336.508C126.043 336.401 125.933 336.266 125.855 336.113C125.777 335.96 125.733 335.792 125.725 335.621C125.716 335.449 125.745 335.278 125.808 335.118V335.121Z" fill="#908C93"/>
<path d="M119.762 353.003C120.387 352.608 121.104 352.379 121.842 352.338C122.399 352.318 122.957 352.334 123.511 352.388C124.059 352.415 124.255 353.085 123.985 353.489C123.328 354.456 122.636 355.538 121.505 355.969C121.117 356.124 120.687 356.134 120.293 355.997C119.898 355.861 119.566 355.587 119.357 355.225C118.958 354.555 119.033 353.464 119.762 353.003Z" fill="#908C93"/>
<path d="M113.502 350.605C114.395 349.613 115.486 348.837 116.312 347.756C116.768 347.153 117.902 347.508 117.743 348.329C117.436 349.903 116.843 351.577 115.566 352.619C114.333 353.633 112.396 351.852 113.502 350.605Z" fill="#908C93"/>
<path d="M184.131 357.048C185.534 358.394 186.784 359.9 186.693 361.955C186.653 362.831 185.524 362.967 185.026 362.417C184.007 361.291 183.469 359.867 182.546 358.672C181.792 357.69 183.174 356.13 184.131 357.048Z" fill="#908C93"/>
<path d="M179.679 360.274C180.882 360.274 180.641 362.132 179.451 362.132C178.26 362.132 178.476 360.274 179.679 360.274Z" fill="#908C93"/>
<path d="M192.225 321.446C192.264 320.886 192.455 320.346 192.775 319.884C193.096 319.422 193.536 319.056 194.048 318.823C196.689 317.622 199.58 317.062 202.497 316.747C204.26 316.219 206.018 315.71 207.831 315.284C208.781 315.061 209.52 315.78 209.723 316.623C210.802 317.263 211.263 318.808 210.016 319.735C207.082 321.915 203.719 323.728 200.131 324.494C198.076 325.116 195.893 325.178 193.807 324.673C192.455 324.318 191.912 322.738 192.225 321.446Z" fill="#414042"/>
<path d="M173.576 321.672C175.867 320.789 179.101 321.129 181.134 322.517C181.853 323.013 182.082 324.233 181.489 324.91C179.614 327.051 176.303 327.829 173.618 327.016C172.655 326.726 171.951 325.679 171.825 324.722C171.799 324.475 171.799 324.225 171.825 323.978C171.885 323.473 172.079 322.992 172.387 322.587C172.695 322.182 173.105 321.866 173.576 321.672Z" fill="#414042"/>
<path d="M132.5 320.134C132.645 319.789 132.896 319.5 133.218 319.31C133.54 319.119 133.914 319.038 134.286 319.078C135.434 319.184 136.535 319.889 137.564 320.484C138.563 320.3 139.575 320.196 140.59 320.171C143.397 320.013 146.294 320.447 148.595 322.155C150.029 323.232 149.26 325.183 147.715 325.568C145.136 326.207 141.731 326.741 139.067 326.423C137.272 326.21 134.435 324.935 134.802 322.736C134.19 322.636 133.602 322.426 133.066 322.116C132.426 321.766 132.245 320.786 132.5 320.134Z" fill="#414042"/>
<path d="M100.693 312.605C104.706 314.056 109.137 314.79 113.299 315.787C116.562 316.571 120.096 316.955 122.913 318.877C123.821 319.497 123.588 320.945 122.608 321.357C114.888 324.534 105.122 320.04 99.354 315.016C98.191 313.994 99.1606 312.052 100.693 312.605Z" fill="#414042"/>
<path d="M186.94 233.431C193.522 241.652 196.495 253.705 199.531 263.637C202.787 274.3 205.254 284.989 206.678 296.044C206.978 298.37 203.583 298.772 203.104 296.525C200.689 285.162 198.204 273.755 195.02 262.578C192.327 253.117 187.496 243.46 186.323 233.689C186.315 233.615 186.332 233.54 186.37 233.475C186.409 233.411 186.467 233.36 186.536 233.331C186.605 233.303 186.682 233.297 186.755 233.315C186.827 233.333 186.893 233.374 186.94 233.431Z" fill="#FF4D00"/>
<path d="M113.998 257.005C117.445 247.408 121.755 234.163 130.74 228.422C130.789 228.387 130.847 228.367 130.907 228.364C130.967 228.361 131.026 228.376 131.078 228.405C131.13 228.435 131.173 228.479 131.201 228.532C131.229 228.585 131.241 228.645 131.236 228.705C129.961 238.793 122.856 248.274 119.377 257.792C115.189 269.251 113.775 280.835 111.248 292.642C110.573 295.796 106.373 295.181 106.363 292.042C106.343 280.418 110.097 267.897 113.998 257.005Z" fill="#FF4D00"/>
<path d="M162.808 402.914C162.909 401.347 164.568 400.169 166.066 400.367C174.25 401.446 182.498 399.494 190.588 400.863C190.784 400.891 190.969 400.971 191.123 401.095C191.277 401.219 191.394 401.383 191.463 401.568C191.532 401.754 191.549 401.955 191.513 402.149C191.476 402.344 191.388 402.525 191.257 402.673C191.276 404.198 191.558 405.708 192.09 407.137C192.683 408.687 193.675 410.378 193.348 412.097C193.078 413.381 192.314 414.507 191.22 415.232C191.138 415.452 191.066 415.693 190.972 415.896C189.516 419.014 185.556 419.1 182.555 419.423C178.367 419.874 173.107 419.395 168.916 418.711C166.418 418.302 163.517 418.215 162.391 415.638C160.973 412.372 162.582 406.361 162.808 402.914Z" fill="white"/>
<path d="M110.464 404.563C109.812 402.854 111.184 400.508 113.212 400.942C120.067 402.408 127.298 401.947 134.247 401.478C134.664 401.452 135.083 401.495 135.487 401.604C135.544 401.456 135.586 401.297 135.648 401.148C136.241 399.747 138.18 400.079 138.465 401.495C139.509 405.48 139.782 409.991 140.486 414.091C140.764 415.703 139.512 416.841 138.103 417.218C131.219 419.065 121.351 419.294 114.336 418.002C112.039 417.578 110.249 416.514 109.42 414.282C108.046 410.651 111.977 408.536 110.464 404.563Z" fill="white"/>
<path d="M163.978 413.895C168.283 413.178 173.032 413.88 177.369 414.185C181.05 414.433 185.285 414.336 188.281 416.717C188.306 416.737 188.327 416.762 188.341 416.79C188.355 416.819 188.362 416.85 188.362 416.882C188.362 416.914 188.355 416.945 188.341 416.974C188.327 417.003 188.306 417.028 188.281 417.047C185.236 419.078 181.3 418.714 177.749 418.622C173.119 418.503 167.998 418.622 163.551 417.29C161.771 416.759 162.356 414.165 163.978 413.895Z" fill="#929497"/>
<path d="M114.045 415.953C121.14 413.9 129.624 412.729 136.861 414.961C136.884 414.919 136.916 414.883 136.955 414.854C136.993 414.825 137.038 414.805 137.085 414.796C137.132 414.786 137.18 414.786 137.227 414.797C137.274 414.807 137.318 414.828 137.357 414.857L137.949 415.353C138.296 415.636 138.329 416.345 137.808 416.496C130.465 418.555 121.919 418.324 114.358 418.21C113.205 418.195 112.932 416.276 114.045 415.953Z" fill="#929497"/>
<path d="M162.853 321.994C164.636 321.918 165.829 322.912 167.205 323.939C168.249 324.725 169.685 325.816 169.757 327.23C169.765 327.32 169.739 327.41 169.684 327.482C169.629 327.554 169.549 327.603 169.459 327.619C168.2 327.956 166.826 327.14 165.739 326.585C164.385 325.9 162.838 325.459 161.997 324.105C161.521 323.358 161.752 322.042 162.853 321.994Z" fill="white"/>
<path d="M156.591 321.756C158.059 321.796 159.126 322.823 160.13 323.782C160.574 324.214 160.972 324.691 161.318 325.206C161.732 325.809 161.792 326.394 162.03 327.076C162.059 327.151 162.066 327.234 162.049 327.313C162.033 327.393 161.994 327.466 161.937 327.523C161.881 327.581 161.808 327.621 161.729 327.639C161.65 327.657 161.568 327.652 161.492 327.624C160.926 327.44 160.373 327.43 159.823 327.2C159.264 326.962 158.72 326.694 158.191 326.396C157.087 325.786 155.884 325.37 155.173 324.266C154.421 323.086 155.2 321.719 156.591 321.756Z" fill="white"/>
<path d="M100.359 132.973C103.196 131.366 106.442 130.428 109.381 128.975C112.605 127.378 115.898 125.751 118.998 123.926C119.675 123.529 120.389 124.367 119.767 124.918C114.586 129.429 108.6 135.877 101.351 136.621C99.072 136.869 98.5413 133.999 100.359 132.973Z" fill="#8C4238"/>
<path d="M98.4418 128.39C100.066 126.438 102.769 125.436 105.066 124.531C105.626 124.31 106.306 125.027 105.847 125.523C104.208 127.306 102.328 129.528 99.9645 130.332C98.851 130.716 97.5763 129.429 98.4418 128.39Z" fill="#8C4238"/>
<path d="M39.5369 189.502C36.065 197.418 32.1666 205.126 28.7022 213.044C27.9408 214.78 25.3939 213.292 26.1503 211.556C29.6222 203.64 33.5206 195.933 36.9826 188.015C37.7439 186.279 40.2933 187.767 39.5369 189.502Z" fill="#400705"/>
<path d="M36.8301 189.939C35.1091 189.223 33.6063 187.459 32.3663 186.128C31.7885 185.505 31.0346 184.783 30.7965 183.94C30.4593 182.743 30.4791 181.376 30.2708 180.146C30.0501 178.829 29.8046 177.398 29.1548 176.215C28.4728 174.975 27.1263 174.427 25.7549 174.383C23.9941 174.323 22.3772 175.067 20.9289 176.01C19.6195 176.86 17.9183 177.993 17.2463 179.462C16.9547 180.143 16.9101 180.904 17.1202 181.615C17.3303 182.325 17.7819 182.94 18.397 183.353C19.7237 184.183 21.4324 183.72 22.4243 182.609C23.6965 181.188 25.7821 183.286 24.5149 184.699C21.8788 187.645 16.8842 187.291 14.8804 183.819C14.4082 183.013 14.1265 182.11 14.0568 181.178C13.9872 180.247 14.1315 179.312 14.4787 178.445C15.2921 176.508 17.028 175.164 18.6945 173.981C22.0375 171.571 26.9179 170.145 30.4146 173.111C32.9838 175.293 33.1822 179.444 33.5715 182.534C33.5864 182.656 33.7749 183.447 33.5715 182.953C33.6215 183.093 33.707 183.218 33.8195 183.315C34.2634 183.847 34.7353 184.354 35.2331 184.836C35.7869 185.389 36.3565 185.926 36.9418 186.445C37.1674 186.643 37.3906 186.844 37.6287 187.025C37.5022 186.929 38.1668 187.313 37.6287 187.09C38.3727 187.4 38.8835 188.067 38.6628 188.908C38.4793 189.607 37.5791 190.249 36.8426 189.942L36.8301 189.939Z" fill="#400705"/>
<path d="M13.2094 183.281C12.5526 182.546 11.7613 181.945 10.8783 181.508C10.103 181.103 9.23787 180.902 8.3637 180.922C7.63691 180.954 6.94577 181.246 6.41695 181.746C6.15443 181.998 5.94311 182.299 5.79452 182.631C5.7192 182.769 5.66169 182.917 5.62339 183.07C5.54439 183.321 5.48389 183.577 5.44236 183.836C5.40516 184.084 5.45724 183.653 5.44236 183.913C5.44236 184.047 5.42501 184.178 5.42253 184.31C5.41918 184.523 5.42829 184.735 5.4498 184.947C5.43244 184.788 5.49938 185.232 5.52418 185.337C5.58594 185.591 5.66889 185.84 5.77217 186.081C5.69034 185.887 5.83915 186.205 5.85651 186.239C5.91107 186.343 5.96809 186.445 6.02761 186.547C6.11193 186.688 6.30041 186.976 6.34505 187.043C6.63185 187.398 6.95335 187.724 7.30477 188.015C8.88099 189.247 10.881 189.804 12.8672 189.565C13.8592 189.421 14.7941 188.94 15.2281 188.201C15.4295 187.878 15.5471 187.51 15.5703 187.13C15.5777 187 15.5777 186.87 15.5703 186.74C15.5951 186.944 15.548 186.676 15.5257 186.604C15.5034 186.532 15.3918 186.259 15.4835 186.453C15.4132 186.312 15.3302 186.178 15.2355 186.053C14.7743 185.401 15.1215 184.407 15.7662 184.03C16.5102 183.596 17.3261 183.908 17.7899 184.56C19.5779 187.072 18.0056 190.611 15.4315 191.836C12.7184 193.126 9.34575 192.615 6.78648 191.192C4.30657 189.818 2.52845 187.345 2.49125 184.466C2.45406 181.666 4.10817 178.971 6.87824 178.187C9.94589 177.321 13.2714 178.958 15.3298 181.188C16.6193 182.584 14.5337 184.682 13.2392 183.278L13.2094 183.281Z" fill="#400705"/>
<path d="M4.73201 188.141C4.65514 188.188 4.58073 188.235 4.50882 188.288C4.63033 188.188 4.62785 188.196 4.50882 188.305C4.38205 188.424 4.26202 188.55 4.14924 188.682C4.34515 188.434 4.04259 188.87 4.01283 188.93C3.98307 188.989 3.92852 189.084 3.89132 189.163C3.95084 189.012 3.94836 189.014 3.89132 189.163C3.83428 189.312 3.77973 189.5 3.73757 189.674C3.71773 189.761 3.70037 189.847 3.68302 189.937C3.70286 189.771 3.70286 189.771 3.68302 189.937C3.68302 190.118 3.66068 190.296 3.66564 190.477C3.66564 190.542 3.72764 191.087 3.66564 190.757C3.69477 190.936 3.73367 191.114 3.78219 191.288C3.79955 191.343 3.99052 191.849 3.86653 191.568C4.00284 191.878 4.17692 192.17 4.38482 192.436C4.25834 192.278 4.61051 192.67 4.64771 192.709C4.78959 192.853 4.93944 192.989 5.09655 193.116C4.94032 192.989 5.36439 193.297 5.41151 193.327C5.5851 193.436 5.76366 193.537 5.9447 193.629C5.99429 193.657 6.47785 193.877 6.29434 193.795C6.4853 193.87 6.68124 193.937 6.87963 193.996C7.07802 194.056 7.27887 194.105 7.47975 194.148C7.53183 194.16 8.0898 194.254 7.84925 194.222C8.17809 194.264 8.50983 194.28 8.84122 194.269C8.89826 194.269 9.45625 194.217 9.13138 194.269C9.31506 194.244 9.49718 194.208 9.67695 194.162C9.85798 194.12 10.0341 194.068 10.2101 194.009C10.2969 193.981 10.3812 193.949 10.4581 193.914C10.3143 193.976 10.3217 193.971 10.478 193.914C10.6342 193.857 10.7954 193.751 10.9467 193.666C11.0211 193.622 11.0955 193.572 11.1674 193.523C11.0409 193.624 11.0434 193.622 11.1674 193.523C11.2914 193.423 11.4154 193.292 11.5245 193.165C11.3013 193.413 11.6063 193.017 11.646 192.957C11.7204 192.806 11.7229 192.813 11.646 192.975C11.6758 192.898 11.7006 192.818 11.7229 192.727C11.7459 192.645 11.7641 192.562 11.7775 192.479C11.7551 192.66 11.7502 192.66 11.765 192.479C11.7714 192.086 11.9303 191.711 12.2079 191.433C12.4856 191.156 12.8604 190.997 13.253 190.991C14.0218 190.991 14.7732 191.67 14.7409 192.479C14.6883 193.309 14.4158 194.111 13.9513 194.802C13.4867 195.492 12.8469 196.047 12.0973 196.409C10.5875 197.162 8.87602 197.41 7.21441 197.118C3.82685 196.622 0.662461 193.989 0.687261 190.363C0.674179 189.419 0.900956 188.486 1.34638 187.653C1.79181 186.82 2.44132 186.113 3.23414 185.599C3.40189 185.472 3.59476 185.382 3.80002 185.334C4.00527 185.287 4.21822 185.284 4.42478 185.325C4.63134 185.366 4.82681 185.451 4.99826 185.573C5.1697 185.696 5.31322 185.853 5.41932 186.035C5.52541 186.217 5.59166 186.419 5.6137 186.629C5.63573 186.838 5.61307 187.05 5.54716 187.25C5.48125 187.45 5.37362 187.634 5.23139 187.789C5.08916 187.944 4.91556 188.068 4.72208 188.151L4.73201 188.141Z" fill="#400705"/>
<path d="M3.74095 195.172C4.0063 195.06 3.7583 195.172 3.64175 195.249C3.59463 195.273 3.55494 195.313 3.50534 195.335C3.52518 195.335 3.69384 195.152 3.59464 195.266C3.51122 195.353 3.42347 195.436 3.33176 195.514C3.16312 195.67 3.44584 195.306 3.27969 195.581C3.21769 195.683 3.16311 195.789 3.10359 195.893C2.97216 196.124 3.16311 195.663 3.10359 195.921C3.07136 196.04 3.0317 196.154 3.00442 196.275C2.99202 196.325 2.9821 196.377 2.97218 196.429C2.9077 196.699 2.97218 196.226 2.97218 196.407C2.97218 196.64 2.97218 196.88 2.97218 197.114C2.97218 197.401 2.91762 196.866 2.97218 197.161C3.00194 197.307 3.03168 197.453 3.07135 197.6C3.11103 197.746 3.14328 197.815 3.17304 197.922C3.19288 197.991 3.28216 198.185 3.15073 197.887C3.17305 197.939 3.19538 197.991 3.22266 198.044C3.34417 198.292 3.4979 198.5 3.62933 198.733C3.70621 198.872 3.5847 198.678 3.5723 198.664C3.6219 198.721 3.66901 198.78 3.72109 198.837C3.77317 198.894 3.8798 199.006 3.96908 199.085L4.09804 199.202C4.24684 199.338 3.92943 199.085 4.11542 199.219C4.24685 199.313 4.38077 199.4 4.51965 199.482C4.65629 199.561 4.797 199.633 4.94122 199.698C5.09745 199.77 4.92633 199.698 4.90153 199.68L5.09497 199.747C5.24377 199.799 5.39751 199.841 5.55127 199.879C5.63806 199.899 6.11917 199.978 5.8315 199.946C6.12944 199.98 6.42942 199.993 6.72923 199.985C6.8681 199.985 7.00947 199.985 7.14835 199.961L7.35665 199.941C7.0789 199.973 7.39633 199.928 7.45089 199.918C7.75193 199.863 8.04925 199.79 8.34117 199.698C8.47757 199.653 8.609 199.603 8.74292 199.556C8.78259 199.556 8.99092 199.447 8.7826 199.556L9.03059 199.435C9.34691 199.281 9.65189 199.104 9.94322 198.907C10.0027 198.867 10.0598 198.827 10.1193 198.783C9.94321 198.912 10.1962 198.718 10.2259 198.693C10.3565 198.579 10.483 198.46 10.6053 198.336C10.6748 198.264 10.7393 198.19 10.8037 198.115C10.8682 198.041 10.9302 197.939 10.8434 198.066C10.9541 197.908 11.0527 197.742 11.1385 197.57C11.0393 197.773 11.1832 197.399 11.208 197.322C11.2774 197.096 11.2079 197.533 11.2228 197.295C11.229 197.176 11.229 197.056 11.2228 196.937C11.2228 196.543 11.3796 196.164 11.6587 195.885C11.9377 195.606 12.3161 195.45 12.7108 195.45C13.1038 195.455 13.4793 195.613 13.7572 195.891C14.0352 196.169 14.1936 196.544 14.1987 196.937C14.2806 198.974 12.8001 200.657 11.1584 201.649C9.64635 202.58 7.88719 203.029 6.11421 202.936C4.37827 202.812 2.62497 202.13 1.49165 200.762C0.482762 199.584 -0.04813 198.071 0.00370216 196.521C0.0324898 195.664 0.281912 194.828 0.727848 194.096C1.26734 193.285 2.04817 192.665 2.95977 192.322C3.67647 192.022 4.61634 192.645 4.78002 193.354C4.97593 194.22 4.51221 194.842 3.74591 195.174L3.74095 195.172Z" fill="#400705"/>
<path d="M10.9619 200.142C11.0165 200.186 11.1355 200.283 11.0115 200.186C11.0884 200.246 11.1702 200.303 11.2595 200.36C11.4207 200.474 11.5869 200.581 11.7555 200.682C12.0914 200.887 12.4411 201.069 12.802 201.225C12.6557 201.161 12.7847 201.225 12.8566 201.245L13.1344 201.347C13.3203 201.414 13.5088 201.473 13.6973 201.525C13.8858 201.577 14.0792 201.627 14.2701 201.669C14.3677 201.691 14.4644 201.711 14.5603 201.729C14.6438 201.739 14.7266 201.754 14.8083 201.773C14.6694 201.751 14.9521 201.788 14.9769 201.791C15.0761 201.803 15.1728 201.811 15.272 201.818C15.4679 201.833 15.6663 201.84 15.8623 201.843C16.2566 201.847 16.6508 201.827 17.0427 201.783C17.2907 201.756 16.8418 201.818 17.0873 201.783L17.3775 201.731C17.5709 201.694 17.7619 201.652 17.9528 201.602C18.1438 201.553 18.3322 201.496 18.5182 201.434L18.7985 201.334C18.8357 201.32 19.1333 201.201 18.9225 201.29C19.6664 200.972 20.5096 201.072 20.9461 201.82C21.3106 202.443 21.1544 203.524 20.4154 203.844C18.533 204.667 16.4596 204.953 14.4247 204.67C12.3898 204.388 10.4729 203.547 8.88626 202.242C8.26876 201.734 8.36052 200.675 8.88626 200.149C9.49632 199.539 10.3568 199.653 10.9768 200.149L10.9619 200.142Z" fill="#400705"/>
<path d="M19.9441 202.339C22.92 204.903 26.1215 207.174 29.09 209.741C29.6777 210.237 29.6505 211.318 29.09 211.832C28.8079 212.1 28.4338 212.249 28.0447 212.249C27.6557 212.249 27.2815 212.1 26.9994 211.832C24.0235 209.265 20.8195 206.993 17.851 204.429C17.2658 203.921 17.2931 202.852 17.851 202.339C18.1329 202.069 18.5077 201.919 18.8976 201.919C19.2874 201.919 19.6622 202.069 19.9441 202.339Z" fill="#400705"/>
<path d="M20.1925 174.254C18.6557 172.364 16.8462 170.713 14.8235 169.356C13.2934 168.344 10.6523 166.67 8.8494 168.014C7.55489 168.979 7.45074 171.062 7.67889 172.525C7.9864 174.509 8.31871 176.696 9.63803 178.279C10.1514 178.891 10.2406 179.767 9.63803 180.369C9.11229 180.895 8.06079 180.987 7.54745 180.369C6.1339 178.675 5.49903 176.803 5.08488 174.665C4.69801 172.657 4.37813 170.621 5.04522 168.624C5.74208 166.529 7.36642 164.949 9.60331 164.656C12.0212 164.342 14.3573 165.507 16.3164 166.802C18.5602 168.284 20.5711 170.092 22.2831 172.166C22.7791 172.783 22.8857 173.654 22.2831 174.256C21.7598 174.78 20.7009 174.876 20.1925 174.256V174.254Z" fill="#400705"/>
<path d="M179.492 232.011C176.539 240.026 168.333 243.932 160.186 244.247C151.477 244.584 142.549 240.931 137.641 233.538C136.585 231.949 139.144 230.466 140.193 232.05C144.451 238.461 152.278 241.474 159.784 241.305C166.622 241.144 174.121 238.081 176.648 231.229C177.3 229.459 180.159 230.238 179.5 232.016L179.492 232.011Z" fill="#400705"/>
<path d="M188.505 231.16C199.295 250.379 205.787 272.138 209.525 293.778C210.546 299.7 211.327 305.657 211.866 311.65C212.034 313.545 209.076 313.533 208.91 311.65C207.01 290.157 201.901 268.639 193.683 248.68C191.431 243.187 188.85 237.835 185.953 232.653C185.021 230.991 187.572 229.498 188.505 231.165V231.16Z" fill="#400705"/>
<path d="M129.193 229.439C117.924 248.844 110.594 270.251 105.996 292.156C104.721 298.2 103.66 304.285 102.772 310.396C102.497 312.271 99.6449 311.475 99.9202 309.61C103.144 287.63 108.642 265.911 117.666 245.564C120.34 239.536 123.34 233.658 126.651 227.956C127.606 226.309 130.163 227.797 129.205 229.444L129.193 229.439Z" fill="#400705"/>
<path d="M127.39 228.933C103.687 219.036 80.5672 207.797 57.3552 196.823C51.0297 193.832 44.6927 190.866 38.3442 187.925C36.6082 187.132 38.1185 184.58 39.8321 185.373C62.9598 196.037 85.8122 207.281 109.022 217.741C115.368 220.598 121.739 223.398 128.162 226.081C129.898 226.803 129.131 229.665 127.376 228.933H127.39Z" fill="#400705"/>
<path d="M27.9727 211.638C49.8604 228.387 71.9068 245.286 95.2601 259.959C99.724 262.771 104.302 265.626 109.182 267.687C110.918 268.431 109.43 270.973 107.694 270.241C103.414 268.433 99.3917 265.99 95.4461 263.545C89.8787 260.111 84.4428 256.46 79.0539 252.75C66.7833 244.301 54.7508 235.487 42.8472 226.56C37.3765 222.463 31.9265 218.337 26.4971 214.183C25.0092 213.042 26.4773 210.463 27.9851 211.628L27.9727 211.638Z" fill="#400705"/>
<path d="M186.251 232.923L179.423 232.311C178.655 232.241 177.906 231.681 177.935 230.823C177.968 230.079 178.588 229.27 179.423 229.335L186.251 229.947C187.019 230.017 187.766 230.577 187.739 231.435C187.706 232.179 187.086 232.988 186.251 232.923Z" fill="#400705"/>
<path d="M211.637 313.309C208.74 317.002 203.349 318.572 199.014 319.683C191.837 321.523 184.365 322.282 176.985 322.703C159.455 323.71 141.547 322.716 124.287 319.425C116.51 317.937 108.564 315.988 101.504 312.3C99.8152 311.42 101.311 308.865 102.992 309.748C108.924 312.846 115.553 314.584 122.065 315.968C130.313 317.721 138.705 318.768 147.112 319.4C162.984 320.59 179.599 320.811 195.26 317.52C199.972 316.528 206.38 315.256 209.546 311.219C210.719 309.731 212.8 311.826 211.637 313.309Z" fill="#400705"/>
<path d="M208.21 297.994C202.444 301.106 195.984 301.897 189.566 302.592C182.335 303.375 175.096 303.933 167.822 304.065C154.312 304.313 140.828 303.202 127.484 301.123C119.841 299.931 112.252 298.428 104.699 296.764C102.839 296.355 103.625 293.503 105.485 293.912C131.623 299.665 158.024 302.693 184.77 300.136C192.143 299.43 200.071 299.028 206.717 295.44C208.391 294.537 209.887 297.089 208.205 297.994H208.21Z" fill="#400705"/>
<path d="M172.66 240.864C176.509 260.752 178.116 281.009 177.449 301.255C177.384 303.154 174.428 303.162 174.49 301.255C175.16 281.273 173.585 261.28 169.796 241.65C169.436 239.79 172.276 238.994 172.648 240.864H172.66Z" fill="#400705"/>
<path d="M186.229 232.655C193.579 253.913 196.27 276.55 194.864 298.956C194.747 300.845 191.789 300.858 191.908 298.956C193.296 276.773 190.65 254.479 183.377 233.441C182.754 231.639 185.609 230.865 186.229 232.655Z" fill="#400705"/>
<path d="M148.439 241.055C144.258 260.314 140.593 279.682 138.053 299.234C137.805 301.096 134.852 301.118 135.095 299.234C137.669 279.419 141.349 259.803 145.587 240.269C145.992 238.409 148.843 239.195 148.439 241.055Z" fill="#400705"/>
<path d="M139.001 230.133C129.547 251.862 123.05 274.761 119.685 298.217C119.415 300.092 116.563 299.293 116.833 297.428C120.264 273.725 126.861 250.589 136.447 228.641C137.206 226.905 139.755 228.393 139.001 230.128V230.133Z" fill="#400705"/>
<path d="M138.798 228.504C137.352 228.886 135.822 229 134.334 229.062C132.922 229.16 131.504 229.136 130.096 228.99C129.332 228.893 128.578 228.38 128.608 227.502C128.64 226.783 129.265 225.918 130.096 226.014C131.464 226.159 132.842 226.185 134.215 226.091C134.959 226.056 135.703 226.004 136.447 225.92L136.712 225.888C137.062 225.848 136.479 225.925 136.677 225.888C136.836 225.863 136.997 225.841 137.156 225.813C137.446 225.764 137.731 225.704 138.017 225.63C138.379 225.571 138.749 225.649 139.058 225.847C139.366 226.045 139.591 226.35 139.688 226.703C139.786 227.057 139.749 227.434 139.586 227.762C139.422 228.09 139.143 228.347 138.803 228.482L138.798 228.504Z" fill="#400705"/>
<path d="M163.715 350.57C156.772 351.014 149.748 351.017 142.852 349.945C142.056 349.824 141.632 348.834 141.82 348.128C142.041 347.282 142.852 346.972 143.638 347.093C150.257 348.123 157.049 348.038 163.725 347.614C165.627 347.493 165.62 350.451 163.725 350.57H163.715Z" fill="#400705"/>
<path d="M157.859 350.545C159.158 367.089 160.785 383.61 161.807 400.174L160.319 398.686C169.207 398.837 178.119 398.842 187.003 398.517C188.738 398.452 190.474 398.383 192.21 398.217C192.706 398.172 193.051 398.061 193.488 398.051C193.527 398.051 193.921 397.927 193.929 397.939C193.904 397.899 193.158 398.408 193.361 398.361C193.235 398.39 193.302 398.648 193.361 398.296C193.391 398.145 193.448 397.999 193.483 397.85C193.582 397.411 193.676 396.974 193.758 396.533C194.006 395.238 194.189 393.929 194.37 392.625C195.462 384.726 196.218 376.783 197.078 368.86C197.453 365.442 197.822 362.025 198.269 358.618C198.413 357.524 198.544 356.423 198.765 355.342C199.013 354.102 199.648 353.197 200.285 352.093C203.677 346.221 206.445 339.917 207.687 333.221C208.409 329.33 208.399 325.439 208.27 321.501C208.206 319.596 211.164 319.599 211.226 321.501C211.343 324.988 211.358 328.43 210.879 331.897C210.113 337.439 208.278 342.756 205.887 347.8C205.101 349.457 204.253 351.081 203.355 352.681C202.844 353.586 202.167 354.489 201.741 355.436C201.741 355.436 201.884 355.019 201.773 355.406C201.582 356.175 201.443 356.957 201.356 357.745C200.888 360.969 200.555 364.215 200.201 367.454C199.29 375.744 198.487 384.052 197.378 392.32C197.076 394.579 196.944 397.098 196.163 399.263C195.382 401.428 192.54 401.175 190.641 401.299C180.575 401.957 170.397 401.818 160.314 401.647C159.921 401.64 159.546 401.481 159.269 401.204C158.991 400.926 158.832 400.551 158.826 400.159C157.804 383.595 156.18 367.074 154.878 350.531C154.729 348.633 157.687 348.641 157.836 350.531L157.859 350.545Z" fill="#400705"/>
<path d="M150.582 350.546C148.633 365.502 146.81 380.481 144.677 395.412C144.486 396.746 144.462 398.334 144.005 399.628C143.509 401.047 141.883 401.28 140.571 401.488C134.894 402.386 128.999 402.353 123.268 402.274C119.712 402.225 116.148 402.096 112.605 401.729C110.207 401.481 107.645 401.252 105.43 400.213C103.694 399.405 105.207 396.856 106.918 397.659C108.384 398.346 110.68 398.567 112.436 398.753C115.29 399.058 118.162 399.194 121.029 399.271C126.787 399.427 132.62 399.415 138.354 398.812C139.125 398.742 139.893 398.631 140.653 398.48C140.9 398.428 141.292 398.232 141.528 398.254C141.704 398.269 141.55 398.212 141.563 398.239C141.506 398.095 141.225 398.916 141.144 398.842C140.92 398.636 141.684 395.551 141.739 395.179C142.654 388.845 143.475 382.497 144.296 376.151C145.408 367.62 146.515 359.089 147.616 350.558C147.864 348.696 150.82 348.673 150.575 350.558L150.582 350.546Z" fill="#400705"/>
<path d="M103.612 317.226C102.98 322.185 102.531 327.078 102.93 332.09C103.292 336.08 103.883 340.045 104.701 343.967C105.197 346.446 105.968 348.892 106.105 351.406C106.68 361.976 106.757 372.597 106.916 383.179C106.99 388.169 107.179 393.2 106.931 398.187C106.836 400.082 103.88 400.092 103.974 398.187C104.498 387.648 103.88 376.964 103.62 366.422C103.506 361.73 103.399 357.036 103.191 352.346C103.169 351.808 103.154 351.267 103.107 350.732C103.107 350.563 103 350.05 103.119 350.7C102.908 349.549 102.608 348.408 102.375 347.262C101.485 343.047 100.711 338.831 100.222 334.558C99.5553 328.693 99.9198 323.044 100.661 317.216C100.909 315.353 103.86 315.331 103.62 317.216L103.612 317.226Z" fill="#400705"/>
<path d="M205.1 323.619C206.655 325.781 208.22 327.936 209.774 330.096C210.226 330.726 209.903 331.77 209.244 332.12C208.477 332.524 207.704 332.261 207.22 331.589C205.665 329.429 204.1 327.274 202.548 325.112C202.094 324.482 202.417 323.438 203.076 323.088C203.843 322.684 204.616 322.947 205.1 323.619Z" fill="#400705"/>
<path d="M102.15 324.35C102.794 323.902 103.429 323.441 104.054 322.967L104.27 322.803C104.466 322.652 104.005 323.011 104.342 322.746C104.483 322.634 104.625 322.525 104.766 322.411C105.08 322.16 105.392 321.905 105.703 321.647C106.913 320.642 108.079 319.59 109.2 318.49C109.486 318.263 109.846 318.149 110.21 318.17C110.575 318.191 110.919 318.345 111.177 318.603C111.436 318.862 111.59 319.206 111.611 319.571C111.632 319.935 111.518 320.295 111.291 320.581C108.92 322.896 106.362 325.011 103.642 326.905C103.005 327.349 101.971 327.041 101.619 326.374C101.431 326.033 101.381 325.633 101.48 325.256C101.579 324.879 101.818 324.555 102.15 324.35Z" fill="#400705"/>
<path d="M187.9 232.236C202.259 233.724 211.025 248.432 216.848 260.098C224.365 275.156 228.953 291.561 231.534 308.151C232.967 317.491 233.846 326.907 234.165 336.35C234.188 336.948 233.694 337.667 233.079 337.776C225.287 339.19 217.317 339.264 209.428 338.912C207.534 338.828 207.524 335.869 209.428 335.954C217.042 336.291 224.774 336.288 232.293 334.924L231.207 336.35C230.632 320.315 228.628 304.295 224.447 288.781C220.553 274.325 214.872 259.518 205.795 247.453C201.418 241.642 195.471 235.978 187.9 235.195C186.025 234.999 186.005 232.04 187.9 232.236Z" fill="#400705"/>
<path d="M226.405 327.006C227.102 330.26 227.046 333.63 226.242 336.859C226.136 337.236 225.885 337.556 225.544 337.75C225.203 337.944 224.8 337.995 224.421 337.893C224.048 337.781 223.731 337.53 223.539 337.19C223.347 336.851 223.293 336.451 223.39 336.073C224.061 333.359 224.117 330.53 223.553 327.792C223.395 327.048 223.776 326.158 224.587 325.972C225.331 325.803 226.234 326.198 226.405 327.006Z" fill="#400705"/>
<path d="M220.173 331.408V336.447C220.198 336.656 220.177 336.867 220.114 337.067C220.051 337.267 219.946 337.452 219.806 337.608C219.667 337.765 219.496 337.891 219.304 337.976C219.113 338.062 218.905 338.107 218.695 338.107C218.485 338.107 218.278 338.062 218.086 337.976C217.895 337.891 217.724 337.765 217.584 337.608C217.445 337.452 217.34 337.267 217.276 337.067C217.213 336.867 217.193 336.656 217.217 336.447V331.408C217.193 331.2 217.213 330.988 217.276 330.788C217.34 330.588 217.445 330.404 217.584 330.247C217.724 330.09 217.895 329.965 218.086 329.879C218.278 329.793 218.485 329.749 218.695 329.749C218.905 329.749 219.113 329.793 219.304 329.879C219.496 329.965 219.667 330.09 219.806 330.247C219.946 330.404 220.051 330.588 220.114 330.788C220.177 330.988 220.198 331.2 220.173 331.408Z" fill="#400705"/>
<path d="M230.728 338.531C230.76 341.953 230.703 345.561 228.895 348.592C227.159 351.503 224.255 352.832 220.959 353.055C218.685 353.202 215.999 353.256 213.867 352.311C211.734 351.367 210.682 349.383 209.839 347.352C209.532 346.608 210.172 345.725 210.871 345.531C211.724 345.298 212.384 345.824 212.691 346.565C212.993 347.348 213.411 348.082 213.931 348.74C214.297 349.181 214.772 349.517 215.31 349.715C216.939 350.256 218.906 350.181 220.667 350.099C223.146 349.985 225.244 349.093 226.494 346.858C227.898 344.346 227.811 341.318 227.784 338.528C227.767 336.626 230.723 336.624 230.742 338.528L230.728 338.531Z" fill="#400705"/>
<path d="M44.5212 202.195L36.5185 197.466C36.325 197.382 36.1515 197.259 36.0092 197.104C35.867 196.948 35.7594 196.764 35.6935 196.564C35.6275 196.364 35.6048 196.153 35.6269 195.943C35.6489 195.734 35.7152 195.531 35.8213 195.349C35.9274 195.167 36.0709 195.01 36.2423 194.888C36.4138 194.765 36.6092 194.681 36.8158 194.64C37.0224 194.598 37.2353 194.602 37.4406 194.649C37.6458 194.696 37.8387 194.786 38.0064 194.914L46.0091 199.643C46.2026 199.726 46.3762 199.85 46.5184 200.005C46.6607 200.16 46.7683 200.344 46.8342 200.544C46.9001 200.744 46.9228 200.956 46.9008 201.165C46.8787 201.375 46.8125 201.577 46.7064 201.759C46.6003 201.941 46.4567 202.098 46.2853 202.221C46.1139 202.343 45.9184 202.428 45.7119 202.469C45.5053 202.51 45.2923 202.507 45.0871 202.46C44.8818 202.412 44.6889 202.322 44.5212 202.195Z" fill="#400705"/>
<path d="M34.0288 199.97C36.7783 201.549 39.3264 203.455 41.6174 205.647C41.893 205.925 42.0476 206.301 42.0476 206.693C42.0476 207.085 41.893 207.461 41.6174 207.74C41.3362 208.009 40.9617 208.16 40.5721 208.16C40.1825 208.16 39.808 208.009 39.5268 207.74C38.9928 207.229 38.4447 206.733 37.8826 206.252C37.6024 206.004 37.3172 205.778 37.0295 205.547L36.7815 205.344C36.6823 205.265 36.6575 205.247 36.7815 205.344C36.6278 205.225 36.4716 205.096 36.3153 204.992C35.112 204.097 33.8556 203.275 32.5533 202.532C32.361 202.448 32.1887 202.324 32.0476 202.169C31.9065 202.013 31.7999 201.83 31.7347 201.63C31.6696 201.431 31.6474 201.22 31.6696 201.011C31.6918 200.802 31.7579 200.601 31.8635 200.419C31.9691 200.238 32.1119 200.081 32.2825 199.959C32.4531 199.837 32.6476 199.752 32.8533 199.71C33.0589 199.668 33.2711 199.671 33.4759 199.717C33.6806 199.763 33.8733 199.852 34.0412 199.977L34.0288 199.97Z" fill="#400705"/>
<path d="M31.1414 206.844L37.3263 210.48C37.6184 210.699 37.8199 211.017 37.8925 211.375C37.9651 211.733 37.9037 212.104 37.72 212.42C37.5363 212.735 37.2431 212.972 36.8962 213.085C36.5493 213.199 36.1728 213.18 35.8384 213.034L29.6535 209.399C29.4612 209.315 29.2888 209.191 29.1478 209.036C29.0067 208.88 28.9001 208.697 28.835 208.497C28.7698 208.298 28.7476 208.087 28.7698 207.878C28.792 207.669 28.858 207.468 28.9637 207.286C29.0693 207.105 29.2121 206.948 29.3827 206.826C29.5533 206.704 29.7478 206.619 29.9535 206.577C30.1591 206.535 30.3713 206.538 30.576 206.584C30.7808 206.63 30.9735 206.719 31.1414 206.844Z" fill="#400705"/>
<path d="M156.045 242.585C156.219 240.529 156.588 238.476 156.95 236.447C157.124 235.478 157.297 234.508 157.526 233.551C157.687 232.869 157.86 232.177 158.485 231.773C159.477 231.13 160.965 230.934 162.096 230.607C164.353 229.95 166.604 229.273 168.829 228.509C171.368 227.639 173.928 226.694 176.239 225.302C176.521 225.139 176.85 225.074 177.173 225.115C177.497 225.157 177.798 225.304 178.029 225.533C179.081 226.703 179.694 228.202 179.765 229.774C179.87 231.676 176.911 231.668 176.807 229.774C176.773 228.98 176.47 228.222 175.949 227.624L177.742 227.857C173.796 230.23 169.189 231.577 164.804 232.896C163.276 233.355 161.736 233.779 160.214 234.252C159.864 234.362 159.839 234.5 160.06 234.287C159.961 234.379 160.7 233.714 160.591 233.588C160.569 233.691 160.537 233.793 160.496 233.89C160.31 234.657 160.149 235.428 160 236.204C159.561 238.313 159.23 240.442 159.009 242.585C158.85 244.467 155.891 244.485 156.05 242.585H156.045Z" fill="#400705"/>
<path d="M155.544 242.952L153.602 233.675L155.028 234.761C148.88 234.441 143.372 231.626 138.499 228.025C137.86 227.552 137.537 226.743 137.971 226.002C138.341 225.369 139.348 224.995 139.992 225.471C144.421 228.745 149.416 231.512 155.028 231.802C155.648 231.835 156.318 232.236 156.454 232.889L158.388 242.166C158.775 244.023 155.926 244.817 155.536 242.952H155.544Z" fill="#400705"/>
<path d="M186.648 140.621C193.096 140.621 198.323 147.158 198.323 155.218C198.323 163.277 193.098 169.812 186.648 169.812C180.198 169.812 174.972 163.277 174.972 155.218C174.972 147.158 180.2 140.621 186.648 140.621ZM193.84 155.369C197.651 155.369 197.646 149.454 193.84 149.454C190.033 149.454 190.025 155.369 193.832 155.369H193.84Z" fill="#400705"/>
<path d="M121.959 141.953C128.406 141.953 133.634 148.487 133.634 156.547C133.634 164.607 128.406 171.144 121.959 171.144C115.511 171.144 110.278 164.609 110.278 156.547C110.278 148.485 115.511 141.953 121.959 141.953ZM116.929 154.933C120.741 154.933 120.736 149.018 116.929 149.018C113.123 149.018 113.123 154.933 116.929 154.933Z" fill="#400705"/>
<path d="M255.643 114.5C229.143 111.177 202.35 110.172 175.658 110.138C148.717 110.103 121.748 111.13 94.9001 113.438C82.2674 114.52 69.6471 115.879 57.1136 117.818C55.2512 118.106 54.4477 115.256 56.3275 114.966C80.0925 111.288 104.155 109.431 128.163 108.288C156.092 106.958 184.105 106.73 212.041 107.99C226.611 108.65 241.17 109.726 255.643 111.541C257.508 111.774 257.53 114.735 255.643 114.5Z" fill="#400705"/>
<path d="M254.751 111.861C255.054 88.8278 247.252 66.0498 233.322 47.7431C226.681 39.0163 218.507 30.8797 209.039 25.2602C199.367 19.5167 188.669 15.3406 177.968 11.9505C176.193 11.3876 173.599 11.1421 172.512 9.43341C172.036 8.68944 171.925 7.79419 171.813 6.93366C171.659 5.73586 171.736 5.40355 170.484 5.1382C163.637 3.67699 156.654 2.943 149.653 2.94844C146.204 2.95699 142.759 3.16316 139.334 3.56594C137.598 3.77177 135.862 4.03712 134.126 4.34463C133.299 4.49342 132.473 4.65214 131.646 4.82077C131.172 4.91997 130.696 5.039 130.22 5.1258L129.503 5.287C129.702 5.1382 129.766 5.1382 129.699 5.287C128.99 6.73031 129.503 8.64976 128.856 10.1625C127.996 12.1663 125.469 12.3101 123.614 12.9202C103.573 19.5167 85.6188 32.6925 73.12 49.67C60.8048 66.402 53.7767 87.0125 55.6094 107.886C55.8517 110.605 56.2399 113.308 56.7724 115.985C57.137 117.843 54.2925 118.639 53.9205 116.772C49.7047 95.3699 54.6174 73.373 66.0051 54.9299C77.3929 36.4868 94.7721 21.6098 114.76 13.1186C117.24 12.0646 119.762 11.095 122.322 10.2369C122.994 10.0104 123.669 9.79217 124.345 9.5822C124.72 9.46565 125.744 9.33421 125.989 9.1259C126.438 8.73407 126.408 7.54868 126.485 6.90638C126.656 5.2622 126.785 3.25099 128.524 2.51445C129.957 1.90439 131.82 1.77048 133.347 1.49521C135.103 1.17943 136.866 0.913254 138.637 0.696674C145.716 -0.174775 152.872 -0.228861 159.964 0.535482C163.515 0.909948 167.052 1.45553 170.556 2.14743C172.803 2.58885 174.221 3.26587 174.618 5.6689C174.727 6.3236 174.618 7.49164 175.146 7.9653C175.89 8.63984 178.025 8.87047 178.988 9.17798C181.565 10.0046 184.128 10.8809 186.675 11.8067C192.287 13.8341 197.79 16.1519 203.162 18.7504C213.525 23.8169 222.426 30.7284 230.146 39.299C245.888 56.7774 255.689 79.4736 257.449 102.941C257.67 105.917 257.75 108.88 257.697 111.854C257.673 113.756 254.722 113.761 254.741 111.854L254.751 111.861Z" fill="#400705"/>
<path d="M197.256 95.9625C194.462 72.9933 188.784 50.4678 180.358 28.9181C177.878 22.5819 175.15 16.3499 172.199 10.2146C171.38 8.50593 173.935 7.0031 174.753 8.72664C185.027 30.1779 192.633 52.8418 197.129 76.2076C198.392 82.7545 199.401 89.3511 200.212 95.9675C200.443 97.8522 197.484 97.8349 197.256 95.9675V95.9625Z" fill="#400705"/>
<path d="M203.955 97.071C201.971 73.9974 196.413 51.3725 187.478 30.0067C184.906 23.8665 182.04 17.8551 178.927 11.9728C178.037 10.2914 180.591 8.79602 181.482 10.4848C192.542 31.3774 200.254 53.8773 204.334 77.1623C205.491 83.7588 206.35 90.3967 206.911 97.076C207.074 98.9731 204.116 98.9607 203.955 97.076V97.071Z" fill="#400705"/>
<path d="M106.886 99.5558C106.98 87.0292 107.808 74.519 109.366 62.0893C110.975 49.5186 113.252 36.7941 117.847 24.9228C119.938 19.529 122.524 14.3137 126.192 9.8102C127.395 8.32225 129.478 10.4376 128.285 11.9032C121.485 20.2482 118.291 31.4152 115.905 41.7143C113.004 54.2279 111.476 67.0516 110.603 79.8553C110.155 86.4122 109.898 92.979 109.832 99.5558C109.815 101.458 106.856 101.463 106.876 99.5558H106.886Z" fill="#400705"/>
<path d="M99.9939 101.064C100.16 88.0393 101.12 75.0369 102.868 62.1292C104.582 49.5163 106.898 36.6282 111.776 24.809C113.802 19.8938 116.314 14.986 120.138 11.2116C121.495 9.87245 123.588 11.9556 122.231 13.3022C118.98 16.5112 116.775 20.6477 114.963 24.804C112.664 30.111 111.034 35.7156 109.675 41.3301C106.546 54.2431 104.874 67.5106 103.868 80.7459C103.353 87.5061 103.048 94.2771 102.952 101.059C102.928 102.961 99.9765 102.966 99.9939 101.059V101.064Z" fill="#400705"/>
<path d="M135.856 142.148C132.086 139.534 127.154 137.608 122.549 137.317C116.292 136.926 111.637 140.581 106.677 143.822C106.447 143.989 106.17 144.078 105.885 144.076C105.601 144.073 105.325 143.98 105.097 143.81C104.87 143.639 104.703 143.401 104.621 143.128C104.539 142.856 104.546 142.565 104.641 142.297C109.063 128.578 131.176 128.524 136.957 141.285C137.262 141.962 136.419 142.543 135.851 142.148H135.856Z" fill="#400705"/>
<path d="M201.69 138.932C197.189 138.605 193.822 134.468 188.894 134.312C182.781 134.106 178.322 138.136 173.36 141.037C172.187 141.724 170.793 140.157 171.311 139.021C174.307 132.445 181.727 128.854 188.82 129.102C193.603 129.27 202.767 132.467 202.154 138.56C202.139 138.669 202.082 138.768 201.996 138.835C201.909 138.903 201.8 138.934 201.69 138.922V138.932Z" fill="#400705"/>
<path d="M232.442 127.844V160.763C232.442 162.665 229.485 162.667 229.485 160.763V127.844C229.485 125.94 232.442 125.937 232.442 127.844Z" fill="#400705"/>
<path d="M232.557 170.479C231.791 181.931 230.343 193.818 222.734 202.966C218.59 207.941 212.882 211.569 207.287 214.708C201.308 218.015 195.057 220.802 188.601 223.038C181.427 225.537 174.096 227.561 166.656 229.094C164.799 229.486 164.005 226.637 165.87 226.243C178.483 223.584 190.994 219.822 202.496 213.925C208.091 211.056 213.856 207.725 218.382 203.318C222.407 199.39 225.157 194.467 226.792 189.111C228.632 183.077 229.18 176.753 229.599 170.487C229.725 168.597 232.684 168.585 232.557 170.487V170.479Z" fill="#400705"/>
<path d="M80.0228 142.63C80.861 152.134 82.0869 161.594 83.7005 171.007C84.0204 172.87 81.1709 173.671 80.8486 171.793C79.1953 162.128 77.9338 152.407 77.0642 142.63C76.8981 140.732 79.8566 140.745 80.0228 142.63Z" fill="#400705"/>
<path d="M84.6284 179.932C85.3104 189.852 88.9633 199.005 96.3088 205.835C103.954 212.945 114.055 216.995 123.866 220.104C130.725 222.284 137.716 224.03 144.724 225.664C146.577 226.096 145.793 228.948 143.938 228.516C131.717 225.667 119.308 222.564 107.979 217.064C98.9946 212.697 90.7365 206.361 86.1561 197.287C83.4282 191.881 82.1088 185.954 81.6922 179.927C81.5608 178.028 84.5193 178.038 84.6508 179.927L84.6284 179.932Z" fill="#400705"/>
<path d="M169.233 170.124C164.574 170.144 159.911 170.226 155.252 170.328C150.981 170.42 146.683 170.442 142.423 170.777C142.175 170.796 141.461 170.814 141.451 170.893C141.473 170.893 141.495 170.889 141.515 170.881C141.536 170.872 141.554 170.86 141.57 170.844C142.12 170.184 141.845 170.717 141.92 170.935C142.046 171.315 141.92 172.027 141.934 172.438C141.952 173.403 141.984 174.368 142.046 175.33C142.267 178.898 142.716 182.678 144.06 186.016C145.342 189.192 147.594 192.094 150.755 193.572C152.475 194.362 154.362 194.716 156.251 194.603C158.14 194.489 159.971 193.911 161.583 192.92C169.377 188.081 169.457 177.733 168.698 169.673C168.608 168.726 170.089 168.731 170.186 169.673C170.93 177.609 170.801 186.812 164.425 192.612C163.059 193.879 161.439 194.838 159.672 195.427C157.905 196.015 156.032 196.219 154.18 196.025C150.438 195.601 147.237 193.594 144.977 190.609C142.624 187.476 141.674 183.771 141.094 179.962C140.799 178.035 140.61 176.093 140.528 174.144C140.486 173.133 140.469 172.121 140.464 171.109C140.464 170.568 140.315 169.884 140.861 169.559C141.218 169.346 141.736 169.361 142.133 169.311C142.877 169.244 143.621 169.207 144.365 169.172C146.802 169.053 149.243 168.984 151.683 168.924C157.541 168.773 163.403 168.661 169.263 168.636C170.215 168.636 170.218 170.11 169.263 170.124H169.233Z" fill="#400705"/>
<path d="M77.7491 155.615C75.3659 150.866 69.5456 153.219 66.9119 156.319C63.5095 160.324 62.4778 165.862 63.5268 170.923C65.357 179.729 71.7973 191.824 82.6693 189.522C84.5267 189.131 85.3203 191.98 83.4554 192.374C73.2382 194.542 65.6422 186.122 62.3761 177.41C60.5584 172.565 59.487 167.394 60.7344 162.283C61.7958 157.936 64.4369 153.44 68.4494 151.223C72.4619 149.006 78.1062 149.735 80.3109 154.132C81.1615 155.828 78.6121 157.328 77.7566 155.619L77.7491 155.615Z" fill="#400705"/>
<path d="M233.183 140.474C237.275 139.133 241.598 140.378 244.886 143.016C248.623 146.009 250.478 150.515 251.086 155.168C251.758 160.333 251.269 165.879 250.029 170.93C248.941 175.364 246.902 179.362 243.472 182.405C240.189 185.329 235.785 188.156 231.242 188.108C229.339 188.089 229.334 185.133 231.242 185.15C235.509 185.192 239.817 182.035 242.649 179.099C246.26 175.352 247.517 169.983 248.068 164.963C248.651 159.617 248.812 153.64 246.039 148.822C243.661 144.688 238.731 141.766 233.967 143.326C232.154 143.919 231.375 141.065 233.181 140.474H233.183Z" fill="#400705"/>
<path d="M251.385 114.931C253.306 120.735 254.365 126.789 254.53 132.901C254.666 138.88 253.845 145.132 250.785 150.372C249.828 152.014 247.269 150.526 248.233 148.884C251.12 143.924 251.742 138.019 251.556 132.39C251.349 126.716 250.335 121.101 248.546 115.713C247.951 113.9 250.805 113.123 251.398 114.926L251.385 114.931Z" fill="#400705"/>
<path d="M170.188 110.976C166.776 118.441 160.764 124.807 154.106 129.496C152.489 130.646 150.789 131.675 149.02 132.574C147.532 133.318 145.573 134.503 143.861 134.277C139.705 133.727 141.82 126.369 142.336 123.901L144.816 125.34C125.579 140.886 99.8503 142.588 76.1423 143.731C74.2403 143.823 74.2452 140.864 76.1423 140.772C98.9427 139.674 124.188 138.228 142.723 123.249C143.864 122.327 145.513 123.17 145.203 124.688C144.789 126.671 144.432 128.72 144.412 130.753C144.412 131.621 144.462 131.361 145.225 131.071C145.932 130.8 146.622 130.476 147.299 130.141C150.279 128.646 153.07 126.801 155.614 124.645C160.574 120.487 164.941 115.403 167.649 109.483C168.44 107.747 170.989 109.255 170.203 110.971L170.188 110.976Z" fill="#400705"/>
<path d="M60.6432 117.23C56.4273 129.347 56.0107 143.795 64.6358 154.151C65.846 155.604 63.7629 157.707 62.5453 156.244C53.2258 145.052 53.1811 129.657 57.7913 116.444C58.4137 114.659 61.2632 115.427 60.6432 117.23Z" fill="#400705"/>
<path d="M211.644 109.384C214.343 114.076 219.084 117.627 223.444 120.683C227.823 123.782 232.439 126.532 237.25 128.906C238.961 129.744 237.463 132.296 235.762 131.46C230.718 128.976 225.889 126.079 221.324 122.798C216.77 119.544 211.922 115.812 209.085 110.877C208.133 109.223 210.687 107.732 211.637 109.389L211.644 109.384Z" fill="#400705"/>
<path d="M256.214 113.964C243.936 109.238 231.643 104.293 218.809 101.257C205.264 98.0842 191.485 96.0109 177.606 95.0574C163.502 94.0655 149.277 94.3308 135.261 96.2627C122.013 98.1142 108.874 100.681 95.9023 103.95C82.6571 107.261 69.5408 111.321 56.985 116.719C55.2491 117.463 53.7463 114.917 55.4971 114.165C79.0215 104.052 104.284 98.1549 129.508 94.1672C157.531 89.738 185.759 91.5136 213.48 97.1058C228.518 100.139 242.743 105.634 257.005 111.127C258.763 111.804 257.997 114.664 256.219 113.979L256.214 113.964Z" fill="#400705"/>
<path d="M71.3437 168.418C74.7194 170.919 77.3101 174.332 78.8107 178.256C79.0885 178.978 78.5057 179.908 77.7791 180.074C76.9334 180.267 76.2564 179.826 75.9588 179.042C75.9167 178.928 75.872 178.817 75.8274 178.705C75.8125 178.665 75.6861 178.37 75.7828 178.593C75.6985 178.395 75.6092 178.197 75.5174 178.003C75.3207 177.59 75.1116 177.184 74.89 176.786C74.4447 175.989 73.9476 175.223 73.4021 174.492C73.3525 174.425 73.2731 174.325 73.3698 174.447L73.1442 174.167C73.0078 173.998 72.8664 173.834 72.725 173.671C72.4258 173.327 72.115 172.996 71.7926 172.679C71.4677 172.356 71.1354 172.044 70.8006 171.744C70.6196 171.585 70.4361 171.431 70.2501 171.28C70.1757 171.221 70.1013 171.159 70.0244 171.102C70.2278 171.26 69.8682 170.985 69.8657 170.983C69.2482 170.521 68.8737 169.681 69.335 168.959C69.7293 168.346 70.694 167.935 71.3586 168.428L71.3437 168.418Z" fill="#400705"/>
<path d="M75.6071 175.999L73.8464 176.85C73.4961 177.031 73.0933 177.084 72.7081 176.999C72.5228 176.954 72.352 176.863 72.2121 176.733C72.0521 176.629 71.9207 176.487 71.8302 176.319C71.731 176.148 71.6667 175.959 71.6411 175.764C71.6156 175.568 71.6293 175.369 71.6814 175.178C71.7831 174.806 72.0272 174.489 72.3609 174.295L74.1217 173.445C74.2861 173.338 74.4763 173.277 74.6722 173.269C74.8671 173.226 75.0699 173.235 75.26 173.296C75.4457 173.339 75.6168 173.431 75.7559 173.561C75.9166 173.664 76.048 173.807 76.1378 173.976C76.2368 174.146 76.3009 174.334 76.3264 174.53C76.352 174.725 76.3385 174.924 76.2867 175.114C76.1858 175.487 75.9415 175.805 75.6071 175.999Z" fill="#400705"/>
<path d="M242.782 159.488C242.235 160.115 241.698 160.759 241.17 161.42L240.982 161.668C240.942 161.717 240.771 161.938 240.885 161.789C240.761 161.948 240.637 162.109 240.518 162.285C240.26 162.629 240.006 162.977 239.754 163.329C238.762 164.713 237.853 166.144 237.027 167.622C236.943 167.816 236.82 167.989 236.665 168.131C236.509 168.274 236.325 168.381 236.125 168.447C235.925 168.513 235.714 168.536 235.504 168.514C235.295 168.492 235.092 168.425 234.91 168.319C234.728 168.213 234.571 168.07 234.449 167.898C234.326 167.727 234.242 167.531 234.201 167.325C234.159 167.118 234.162 166.905 234.21 166.7C234.257 166.495 234.347 166.302 234.475 166.134C236.25 163.03 238.337 160.114 240.702 157.432C240.98 157.157 241.356 157.003 241.747 157.003C242.138 157.003 242.514 157.157 242.792 157.432C243.062 157.714 243.212 158.089 243.212 158.479C243.212 158.869 243.062 159.243 242.792 159.525L242.782 159.488Z" fill="#400705"/>
<path d="M243.15 164.597L237.362 162.613C236.618 162.365 236.072 161.586 236.328 160.795C236.576 160.071 237.364 159.493 238.148 159.761L243.936 161.745C244.665 161.993 245.226 162.774 244.968 163.565C244.735 164.289 243.934 164.867 243.15 164.599V164.597Z" fill="#400705"/>
<path d="M211.861 350.312C210.881 350.593 209.839 350.574 208.87 350.258C207.34 349.71 206.328 348.49 205.867 346.947C205.565 345.816 205.462 344.641 205.562 343.475C205.611 342.704 206.206 341.957 207.05 341.987C207.811 342.019 208.582 342.637 208.537 343.475C208.505 343.981 208.505 344.487 208.537 344.993C208.537 345.092 208.537 345.191 208.56 345.288L208.575 345.432C208.597 345.68 208.55 345.241 208.547 345.246C208.551 345.453 208.59 345.659 208.661 345.853C208.699 346.017 208.746 346.178 208.798 346.334C208.82 346.404 208.847 346.473 208.872 346.543C208.942 346.739 208.783 346.312 208.783 346.337C208.799 346.386 208.82 346.434 208.847 346.478C208.906 346.602 208.972 346.723 209.043 346.84C209.081 346.9 209.12 346.957 209.157 347.014C209.321 347.262 208.909 346.731 209.073 346.907C209.153 346.997 209.229 347.086 209.321 347.17C209.358 347.207 209.398 347.242 209.44 347.277C209.688 347.495 209.18 347.093 209.324 347.193C209.42 347.255 209.512 347.319 209.611 347.374C209.653 347.398 209.698 347.421 209.743 347.443L209.807 347.473C209.981 347.565 209.403 347.319 209.586 347.381C209.777 347.452 209.973 347.508 210.172 347.55C210.223 347.555 210.273 347.563 210.323 347.574C210.271 347.555 209.844 347.522 210.095 347.542C210.192 347.542 210.286 347.557 210.385 347.56C210.484 347.562 210.591 347.56 210.693 347.56C210.864 347.56 211.28 347.473 210.616 347.582C210.783 347.558 210.949 347.524 211.112 347.48C211.306 347.403 211.514 347.368 211.723 347.377C211.932 347.385 212.137 347.438 212.324 347.531C212.511 347.624 212.676 347.756 212.809 347.917C212.942 348.079 213.04 348.266 213.095 348.468C213.151 348.669 213.163 348.88 213.132 349.087C213.1 349.294 213.026 349.491 212.913 349.667C212.8 349.843 212.651 349.993 212.476 350.108C212.301 350.222 212.104 350.299 211.898 350.332L211.861 350.312Z" fill="#400705"/>
<path d="M194.315 321.392C194.269 322.344 194.222 323.295 194.176 324.246C194.127 325.238 194.04 326.173 193.256 326.872C192.572 327.482 191.622 327.688 190.761 327.926C189.819 328.195 188.855 328.379 187.88 328.474C186.074 328.633 184.301 328.179 182.92 326.986C182.267 326.444 181.772 325.735 181.487 324.935C181.203 324.135 181.139 323.274 181.303 322.441C181.462 321.657 182.392 321.201 183.123 321.406C183.497 321.517 183.814 321.769 184.006 322.109C184.199 322.448 184.252 322.849 184.155 323.227C184.083 323.584 184.108 323.033 184.142 323.39C184.142 323.462 184.207 323.847 184.142 323.544C184.167 323.656 184.199 323.765 184.232 323.876C184.271 324.025 184.142 323.74 184.266 323.973C184.333 324.097 184.405 324.221 184.477 324.338C184.673 324.655 184.333 324.221 184.599 324.491C184.683 324.576 184.762 324.665 184.847 324.739C184.931 324.814 185.095 324.96 184.941 324.836C185.172 325.014 185.421 325.166 185.685 325.29C185.504 325.203 185.727 325.305 185.806 325.332C185.92 325.371 186.036 325.404 186.154 325.431C186.781 325.562 187.427 325.581 188.061 325.488C188.676 325.396 189.285 325.264 189.883 325.094C190.216 325.002 190.548 324.908 190.875 324.809C191.02 324.771 191.161 324.724 191.299 324.668C191.109 324.757 191.374 324.536 191.299 324.653C191.262 324.716 191.219 324.776 191.171 324.831C191.205 324.668 191.213 324.633 191.19 324.727C191.168 324.821 191.173 324.787 191.19 324.62C191.19 324.273 191.225 323.921 191.24 323.574C191.278 322.845 191.314 322.116 191.347 321.387C191.352 320.994 191.511 320.619 191.789 320.341C192.067 320.063 192.442 319.904 192.835 319.899C193.603 319.899 194.352 320.576 194.323 321.387L194.315 321.392Z" fill="#400705"/>
<path d="M134.939 321.853C135.519 323.795 133.996 325.687 132.139 326.116C131.208 326.295 130.253 326.304 129.319 326.143C128.461 326.054 127.61 325.912 126.77 325.717C125.158 325.3 123.571 324.41 122.802 322.867C122.033 321.325 122.058 319.457 123.298 318.14C123.577 317.866 123.952 317.711 124.343 317.711C124.735 317.711 125.11 317.866 125.389 318.14C125.659 318.422 125.81 318.797 125.81 319.187C125.81 319.577 125.659 319.952 125.389 320.233C125.17 320.469 125.461 320.038 125.337 320.298C125.262 320.454 125.237 320.578 125.294 320.353C125.267 320.462 125.24 320.573 125.21 320.68C125.302 320.357 125.225 320.623 125.225 320.742C125.225 320.861 125.287 321.163 125.225 320.816C125.25 320.933 125.27 321.049 125.302 321.163C125.334 321.278 125.374 321.394 125.418 321.506C125.322 321.258 125.418 321.483 125.48 321.59C125.633 321.877 125.862 322.116 126.143 322.282C126.267 322.361 126.391 322.433 126.524 322.5L126.723 322.599C127.001 322.707 127.285 322.797 127.573 322.87C128.137 323.007 128.707 323.112 129.282 323.185C129.004 323.145 129.503 323.212 129.498 323.212L129.994 323.269C130.319 323.304 130.646 323.319 130.973 323.314C130.973 323.314 131.44 323.264 131.221 323.314C131.38 323.288 131.536 323.248 131.688 323.194C131.474 323.266 131.774 323.142 131.829 323.115C132.077 322.994 131.75 323.249 131.938 323.028C131.99 322.966 132.186 322.676 132.035 322.932C132.055 322.894 132.198 322.589 132.132 322.773C132.065 322.956 132.132 322.426 132.151 322.674C132.134 322.788 132.129 322.773 132.134 322.627C132.162 322.817 132.155 322.827 132.112 322.656C132.035 322.462 131.999 322.254 132.008 322.045C132.017 321.836 132.069 321.631 132.163 321.444C132.256 321.257 132.387 321.092 132.549 320.959C132.71 320.826 132.898 320.728 133.099 320.673C133.301 320.617 133.512 320.605 133.718 320.636C133.925 320.668 134.123 320.742 134.299 320.855C134.475 320.968 134.625 321.117 134.739 321.292C134.854 321.467 134.93 321.664 134.964 321.87L134.939 321.853Z" fill="#400705"/>
<path d="M134.373 323.028C139.596 323.905 144.847 324.566 150.128 325.012C150.924 325.077 151.616 325.645 151.616 326.5C151.616 327.244 150.936 328.045 150.128 327.988C144.588 327.53 139.074 326.837 133.587 325.91C132.798 325.779 132.347 324.804 132.553 324.09C132.783 323.256 133.582 322.927 134.373 323.058V323.028Z" fill="#400705"/>
<path d="M171.393 325.59C175.393 325.471 179.385 325.23 183.371 324.866C184.17 324.792 184.859 325.61 184.859 326.354C184.859 327.215 184.177 327.76 183.371 327.842C179.389 328.209 175.396 328.45 171.393 328.566C169.491 328.623 169.491 325.665 171.393 325.608V325.59Z" fill="#400705"/>
<path d="M122.899 324.045C117.877 323.029 112.836 322.004 107.975 320.355C105.679 319.576 103.226 318.731 101.13 317.498C100.255 316.985 99.5358 316.239 99.4366 315.187C99.3225 313.984 99.9325 312.675 100.282 311.542C100.828 309.724 103.685 310.498 103.134 312.328L102.688 313.816L102.465 314.56C102.403 314.934 102.368 315.011 102.365 314.788C102.502 315.058 103.37 315.321 103.62 315.442C104.116 315.676 104.612 315.9 105.108 316.117C107.062 316.942 109.061 317.653 111.097 318.247C115.229 319.487 119.459 320.338 123.683 321.193C125.545 321.57 124.756 324.417 122.897 324.045H122.899Z" fill="#400705"/>
<path d="M210.167 323.715C204.565 325.124 198.903 326.649 193.083 326.602C191.18 326.585 191.175 323.626 193.083 323.644C198.645 323.691 204.029 322.21 209.381 320.864C211.226 320.4 212.014 323.252 210.167 323.715Z" fill="#400705"/>
<path d="M172.938 322.837C173.99 325.114 173.37 327.904 171.19 329.285C169.905 330.104 168.296 330.118 166.828 330.218C165.134 330.334 163.44 330.441 161.744 330.481C158.56 330.555 155.048 330.567 151.958 329.642C148.868 328.717 148.124 326.041 148.422 323.095C148.61 321.218 151.571 321.198 151.38 323.095C151.296 323.916 151.132 324.883 151.423 325.684C151.747 326.617 152.682 326.805 153.56 326.984C155.966 327.48 158.451 327.564 160.898 327.537C163.272 327.512 165.662 327.396 168.026 327.175C168.874 327.095 169.702 326.969 170.188 326.203C170.37 325.928 170.483 325.614 170.518 325.287C170.552 324.96 170.507 324.629 170.386 324.323C169.593 322.607 172.142 321.099 172.938 322.835V322.837Z" fill="#400705"/>
<path d="M210.715 312.905C212.555 315.633 212.488 319.616 210.467 322.237C210.26 322.561 209.947 322.801 209.581 322.917C209.197 323.02 208.788 322.966 208.443 322.768C207.838 322.379 207.406 321.399 207.912 320.744C208.115 320.485 208.296 320.209 208.455 319.921C208.53 319.785 208.592 319.643 208.664 319.507C208.763 319.319 208.545 319.832 208.664 319.487C208.691 319.413 208.718 319.341 208.743 319.269C208.849 318.957 208.932 318.638 208.991 318.314C208.991 318.24 209.016 318.163 209.031 318.086C209.07 317.873 209.008 318.349 209.031 318.133C209.031 317.957 209.06 317.786 209.065 317.61C209.072 317.299 209.061 316.989 209.033 316.68C209.011 316.39 209.07 316.853 209.033 316.68C209.018 316.603 209.006 316.526 208.991 316.452C208.961 316.298 208.927 316.147 208.887 315.998C208.842 315.829 208.79 315.663 208.733 315.502C208.706 315.43 208.676 315.358 208.651 315.286C208.688 315.395 208.736 315.472 208.651 315.318C208.501 315.004 208.328 314.701 208.135 314.411C207.94 314.072 207.886 313.669 207.985 313.29C208.084 312.911 208.329 312.587 208.666 312.387C209.006 312.198 209.407 312.148 209.783 312.247C210.16 312.345 210.484 312.586 210.687 312.918L210.715 312.905Z" fill="#400705"/>
<path d="M193.603 400.868C192.633 403.915 192.859 406.78 193.925 409.761C194.801 412.198 195.165 414.591 193.482 416.774C191.899 418.807 189.467 419.641 186.979 419.866C183.884 420.149 180.685 419.866 177.583 419.794C174.28 419.725 170.976 419.663 167.663 419.591C165.481 419.541 163.001 419.457 161.426 417.711C159.536 415.613 160.593 412.853 161.131 410.467C161.806 407.492 161.659 404.387 161.548 401.354C161.476 399.449 164.434 399.452 164.504 401.354C164.598 403.881 164.682 406.415 164.372 408.932C164.228 410.066 164.009 411.19 163.718 412.295C163.437 413.386 162.805 414.998 163.79 415.903C165.163 417.166 168.472 416.647 170.141 416.682L178.195 416.848C180.76 416.903 183.344 417.052 185.908 416.972C187.986 416.905 190.773 416.402 191.612 414.167C192.061 412.97 191.468 411.665 191.064 410.547C190.676 409.53 190.382 408.48 190.186 407.41C189.787 404.958 189.977 402.446 190.741 400.082C191.314 398.274 194.171 399.047 193.593 400.868H193.603Z" fill="#400705"/>
<path d="M164.011 402.978C173.05 402.522 182.108 402.566 191.143 403.109C193.035 403.223 193.048 406.182 191.143 406.065C182.108 405.523 173.05 405.48 164.011 405.936C162.108 406.033 162.113 403.075 164.011 402.978Z" fill="#400705"/>
<path d="M190.19 417.828C181.483 414.145 171.766 413.605 162.705 416.303C160.875 416.846 160.094 413.991 161.919 413.451C171.748 410.568 182.275 411.214 191.678 415.276C193.414 416.02 191.926 418.572 190.19 417.828Z" fill="#400705"/>
<path d="M187.13 405.002C187.198 407.858 186.948 410.712 186.386 413.513C186.235 414.274 185.288 414.78 184.566 414.547C184.193 414.434 183.878 414.182 183.685 413.843C183.493 413.505 183.439 413.105 183.534 412.727C184.037 410.184 184.251 407.593 184.174 405.002C184.15 404.793 184.17 404.582 184.233 404.382C184.297 404.182 184.401 403.997 184.541 403.841C184.681 403.684 184.852 403.558 185.043 403.473C185.235 403.387 185.442 403.342 185.652 403.342C185.862 403.342 186.069 403.387 186.261 403.473C186.452 403.558 186.624 403.684 186.763 403.841C186.903 403.997 187.008 404.182 187.071 404.382C187.134 404.582 187.154 404.793 187.13 405.002Z" fill="#400705"/>
<path d="M170.932 405.609C171.006 408.072 170.994 410.537 171.068 412.999C171.068 413.394 170.911 413.773 170.632 414.052C170.353 414.331 169.975 414.487 169.58 414.487C169.187 414.482 168.812 414.324 168.534 414.046C168.256 413.768 168.097 413.392 168.092 412.999C168.018 410.537 168.03 408.072 167.956 405.609C167.956 405.215 168.113 404.836 168.392 404.557C168.671 404.278 169.049 404.121 169.444 404.121C169.837 404.127 170.212 404.286 170.49 404.564C170.767 404.841 170.926 405.216 170.932 405.609Z" fill="#400705"/>
<path d="M184.591 411.472C179.824 410.822 175.016 411.241 170.23 411.02C169.282 410.976 169.275 409.495 170.23 409.532C175.157 409.761 180.08 409.371 184.985 410.028C185.923 410.157 185.523 411.583 184.591 411.454V411.472Z" fill="#400705"/>
<path d="M184.861 408.617C180.077 408.222 175.276 408.075 170.477 408.176C169.525 408.196 169.525 406.718 170.477 406.688C175.276 406.586 180.077 406.732 184.861 407.127C185.803 407.206 185.811 408.684 184.861 408.615V408.617Z" fill="#400705"/>
<path d="M111.322 400.077C112.058 402.351 112.26 404.765 111.912 407.13C111.723 408.295 111.417 409.438 111 410.542C110.591 411.678 110.008 412.948 110.452 414.16C111.26 416.392 114.105 416.888 116.156 416.965C118.72 417.052 121.304 416.896 123.868 416.843L131.92 416.677C133.607 416.643 136.88 417.173 138.274 415.899C139.253 414.998 138.624 413.362 138.346 412.29C138.076 411.276 137.869 410.245 137.726 409.205C137.381 406.594 137.46 403.97 137.557 401.349C137.629 399.449 140.588 399.442 140.516 401.349C140.402 404.382 140.268 407.479 140.932 410.463C141.47 412.848 142.527 415.608 140.637 417.704C139.063 419.44 136.583 419.537 134.4 419.584C131.095 419.658 127.791 419.72 124.481 419.79C121.376 419.852 118.179 420.144 115.084 419.862C112.604 419.636 110.162 418.803 108.582 416.769C106.886 414.587 107.263 412.194 108.138 409.756C109.207 406.78 109.43 403.911 108.46 400.863C107.883 399.045 110.737 398.266 111.312 400.077H111.322Z" fill="#400705"/>
<path d="M138.053 405.939C129.014 405.483 119.956 405.526 110.921 406.068C109.019 406.182 109.026 403.224 110.921 403.112C119.955 402.563 129.013 402.513 138.053 402.964C139.946 403.06 139.958 406.019 138.053 405.922V405.939Z" fill="#400705"/>
<path d="M110.392 415.269C119.795 411.208 130.323 410.563 140.151 413.446C141.971 413.987 141.198 416.841 139.365 416.298C130.304 413.599 120.587 414.138 111.88 417.823C110.144 418.567 108.641 416.018 110.392 415.269Z" fill="#400705"/>
<path d="M117.901 404.997C117.824 407.588 118.039 410.179 118.541 412.722C118.693 413.478 118.326 414.353 117.51 414.542C116.766 414.708 115.851 414.319 115.689 413.508C115.127 410.707 114.878 407.853 114.945 404.997C114.965 404.223 115.61 403.482 116.433 403.509C116.828 403.509 117.206 403.666 117.485 403.945C117.765 404.224 117.921 404.602 117.921 404.997H117.901Z" fill="#400705"/>
<path d="M134.102 405.604C134.028 408.067 134.04 410.532 133.966 412.995C133.941 413.766 133.301 414.51 132.478 414.482C132.083 414.482 131.705 414.326 131.426 414.047C131.147 413.768 130.99 413.389 130.99 412.995C131.064 410.532 131.052 408.067 131.126 405.604C131.151 404.831 131.791 404.089 132.614 404.116C133.438 404.144 134.117 404.766 134.102 405.604Z" fill="#400705"/>
<path d="M117.091 410.041C121.996 409.372 126.918 409.763 131.846 409.545C132.798 409.501 132.796 410.981 131.846 411.033C127.06 411.256 122.249 410.837 117.485 411.487C116.552 411.613 116.151 410.19 117.091 410.061V410.041Z" fill="#400705"/>
<path d="M117.222 407.132C122.006 406.738 126.807 406.591 131.606 406.693C132.555 406.713 132.558 408.181 131.606 408.181C126.807 408.08 122.006 408.227 117.222 408.62C116.272 408.7 116.277 407.219 117.222 407.132Z" fill="#400705"/>
</svg>
