<svg width="211" height="410" viewBox="0 0 211 410" fill="none" xmlns="http://www.w3.org/2000/svg">
<path d="M187.114 151.579C184.391 148.673 178.844 149.02 175.369 149.541C175.548 146.688 175.082 142.749 175.625 139.856C176.091 137.346 176.543 138.302 174.348 138.328C154.17 138.56 131.652 138.041 116.711 122.021C114.084 119.203 108.786 121.444 110.451 125.511C111.042 126.616 111.437 127.815 111.616 129.055C105.875 127.119 101.377 122.03 97.2815 117.709C93.8692 114.107 90.5082 107.738 85.3174 106.938C79.0988 105.977 71.6192 107.778 65.2537 107.752C59.5735 107.731 53.56 106.726 47.9427 107.752C47.5138 107.161 46.5442 107.287 46.1386 107.973C43.5747 112.394 40.6309 115.294 36.1977 117.776C33.6547 119.2 29.8648 120.322 27.9652 122.73C25.1496 126.3 26.6833 131.656 26.2824 136.119C25.1169 135.887 24.8233 138.279 23.9842 138.339C20.9121 138.572 16.9264 137.232 14.5723 139.172C9.64728 143.237 7.87118 149.751 7.65908 155.898C7.19291 169.027 12.3673 181.329 25.7719 183.195C25.956 183.221 29.0351 182.653 29.2145 182.646C32.3402 194.665 39.3653 202.506 51.0893 208.987C58.0281 212.822 65.4961 215.712 72.7659 218.83C80.6698 222.215 90.9184 224.817 96.0578 232.17C97.2862 233.927 100.349 234.094 101.598 232.237C105.535 226.392 114.159 224.372 120.291 221.566C123.396 220.144 127.354 219.586 130.435 218.113C140.329 216.098 148.781 210.986 156.669 204.573C160.02 201.848 165.269 194.995 168.218 190.078C179.497 194.064 188.104 182.041 190.43 171.726C191.897 165.222 192.004 156.803 187.114 151.579Z" fill="#FFE4D2"/>
<path d="M204.056 240.638C202.402 240.873 200.722 240.861 199.071 240.6C197.852 240.405 196.637 239.856 195.84 238.885C195.265 238.201 194.831 237.411 194.563 236.559C194.53 236.456 194.521 236.349 194.493 236.244C194.155 236.065 193.794 235.886 193.437 235.709C191.82 234.932 190.244 234.804 188.529 235.449C182.813 237.594 180.937 243.905 177.364 248.084C177.068 248.433 177.194 249.15 177.679 249.28C177.797 249.312 177.912 249.322 178.019 249.347C178.023 250.008 178.149 250.663 178.389 251.279C180.268 256.098 187.118 260.107 191.472 262.215C192.883 262.899 194.619 262.02 195.216 260.672C196.603 257.536 198.796 254.834 201.329 252.528C201.828 252.215 202.276 251.828 202.658 251.381C202.891 251.195 203.11 251.002 203.341 250.823C205.028 249.501 207.769 248.412 208.306 246.099C208.968 243.295 206.483 241.636 204.056 240.638Z" fill="#FFE4D2"/>
<path d="M49.523 332.621C49.4321 330.838 47.7422 329.384 46.0687 329.13C43.2274 328.7 40.5913 329.861 37.7383 329.828C35.4868 329.808 33.4053 329.463 31.4218 330.464C31.1316 330.249 30.8057 330.086 30.4592 329.984C29.9744 329.845 29.3077 329.961 29.1329 330.531C28.7697 331.838 28.6761 333.204 28.8579 334.547C28.8603 334.684 28.8696 334.819 28.8859 334.955C28.9068 335.108 28.9558 335.248 28.9861 335.397C29.1695 336.407 29.461 337.395 29.8555 338.343C31.1584 341.437 32.9765 343.301 36.3818 343.615C39.5937 343.909 43.7682 344.155 46.4253 342.005C49.3272 339.674 49.6978 336.039 49.523 332.621Z" fill="#FFE4D2"/>
<path d="M20.1453 160.955C19.6889 160.357 19.1507 159.826 18.5463 159.377C18.5532 158.829 18.4292 158.288 18.1847 157.797C17.9401 157.307 17.582 156.881 17.14 156.557C16.6981 156.232 16.1849 156.017 15.6431 155.929C15.1013 155.842 14.5465 155.885 14.0245 156.054C10.4001 157.206 9.87335 161.885 11.174 164.915C12.4745 167.945 16.2295 172.282 20.0031 170.779C24.4876 169.001 22.1941 163.7 20.1453 160.955Z" fill="#FFA294"/>
<path d="M184.515 169.008C183.349 167.549 181.522 167.721 180.273 168.775H180.2C178.135 168.71 176.998 170.451 176.268 172.147C175.471 173.992 175.42 176.177 176.749 177.785C178.429 179.814 181.105 179.426 182.75 177.62C184.641 175.521 186.613 171.624 184.515 169.008Z" fill="#FFA294"/>
<path d="M176.837 146.16C176.371 142.702 177.173 139.591 173.833 137.411C169.248 134.419 160.081 136.827 155.049 136.58C142.252 135.954 123.622 133.599 115.672 122.244C113.413 119.019 108.679 121.374 108.912 124.941C108.961 125.662 109.094 127.268 109.101 128.606C101.584 126.302 94.1629 119.007 89.9884 113.316C88.2286 110.912 86.9979 108.662 84.0308 107.701C79.7677 106.305 74.0083 107.252 69.5424 107.235C63.3634 107.215 57.0236 106.814 50.8562 107.135C47.7982 107.296 46.1479 107.601 43.943 109.6C36.9505 115.961 31.2726 122.13 23.0798 127.159C21.5065 128.124 22.6136 130.972 24.4387 130.554C31.5682 128.945 38.1935 125.615 43.7332 120.855C45.3648 119.459 47.4625 116.117 49.213 115.233C51.4273 114.116 55.8511 114.749 58.2659 114.796L69.4958 115.012C72.2415 115.066 75.19 114.817 77.9217 115.163C82.1335 115.701 82.6346 116.646 85.0354 119.643C90.7715 126.8 98.4842 132.673 107.118 135.875C112.292 137.8 115.017 136.122 116.15 132.908C122.639 137.823 130.298 140.587 138.656 142.377C145.132 143.738 151.729 144.44 158.347 144.471C161.393 144.494 164.873 143.708 167.852 144.033C170.763 144.354 169.924 144.785 171.115 147.607C172.395 150.695 177.289 149.562 176.837 146.16Z" fill="#FFA294"/>
<path d="M206.658 244.542C204.376 246.248 201.87 247.935 199.535 249.766C197.894 250.786 196.155 251.639 194.344 252.312C188.13 254.536 184.205 250.155 178.853 247.954C178.268 247.721 177.436 248.363 177.788 249.001C180.009 253.038 183.811 256.321 188.323 257.315C188.396 257.549 188.516 257.766 188.676 257.952C188.837 258.138 189.034 258.289 189.256 258.394C191.75 259.679 193.386 261.154 195.705 259.132C196.938 258.057 197.901 256.293 199.02 254.783C202.404 252.393 205.371 248.991 208.163 246.553C209.343 245.496 207.956 243.556 206.658 244.542Z" fill="#FFA294"/>
<path d="M49.2619 332.802C48.2876 331.318 46.4207 330.538 44.563 330.01C44.2072 329.708 43.7671 329.522 43.302 329.477L41.7963 329.3C40.4421 329.14 39.5517 329.828 39.1695 330.75C36.1953 329.987 32.832 329.265 29.8975 329.375C29.764 329.391 29.6396 329.451 29.5439 329.545C29.4482 329.639 29.3864 329.763 29.3684 329.896C29.1353 333.275 34.5405 334.229 36.9412 335.043C38.9574 335.727 41.1949 336.206 42.9291 337.517C44.2973 338.554 45.0268 340.309 46.9264 340.386C47.98 340.427 49.2759 339.971 49.6279 338.838C50.1733 337.077 50.3178 334.41 49.2619 332.802Z" fill="#FFA294"/>
<path d="M42.4606 107.564C31.9579 108.615 21.4249 109.33 10.8686 109.486C10.3217 109.475 9.78752 109.651 9.35359 109.983C9.20939 109.928 9.0504 109.924 8.90347 109.972C8.75654 110.02 8.63067 110.117 8.54712 110.246C2.62217 119.668 4.08127 133.446 5.87834 143.887C6.2233 145.89 8.77088 146.693 10.0948 145.05C13.8404 140.413 19.0521 138.367 24.9841 139.426C26.8487 139.756 27.8533 137.855 27.4245 136.306C26.7928 134.014 24.8605 130.302 25.4456 127.91C26.1658 124.96 29.5199 122.928 31.7388 121.036C35.6643 117.723 39.8701 114.755 44.3089 112.166C46.6327 110.793 44.8194 107.328 42.4606 107.564Z" fill="#9C5043"/>
<path d="M193.423 115.04C193.095 113.227 191.719 112.329 189.946 112.327C171.108 112.294 152.776 109.911 134.132 107.508C125.631 106.409 117.1 105.393 108.53 105.16C102.549 104.995 93.396 103.587 88.0864 106.584C86.2451 107.622 86.7835 110.165 88.0282 111.324L88.2612 111.545C88.6566 111.879 89.1442 112.086 89.6597 112.138C93.4566 120.143 100.065 126.349 107.74 130.965C109.509 132.031 112.12 131.035 111.807 128.671C111.604 127.535 111.47 126.387 111.406 125.234C121.252 129.837 131.377 134.975 141.768 137.8C146.646 139.124 151.522 139.396 156.55 139.393C160.195 139.393 163.845 139.205 167.486 139.442C169.191 139.542 170.89 139.729 172.576 140.001C174.068 142.202 174.645 144.565 174.308 147.091C174.283 149.171 176.266 150.509 178.117 149.334C181.986 147.578 185.099 148.254 187.456 151.363C188.622 152.792 190.675 152.482 191.484 150.868C197.227 139.414 195.631 127.191 193.423 115.04Z" fill="#9C5043"/>
<path d="M44.9802 108.583C35.1161 107.319 24.1939 108.08 14.6795 110.989C7.81756 113.083 6.09509 118.284 6.54727 124.971C6.63118 126.184 8.28372 126.239 8.74989 125.274C10.3395 121.99 11.6984 118.835 15.3251 117.304C18.6839 115.885 23.0728 115.675 26.6599 115.117C32.9205 114.151 39.2464 113.316 45.3531 111.564C46.8915 111.119 46.4369 108.769 44.9802 108.583Z" fill="#8C4238"/>
<path d="M186.552 113.537C175.569 110.745 164.274 109.167 153.002 108.134C142.103 107.135 131.162 106.738 120.226 106.384C110.019 106.058 98.8898 104.941 88.9674 107.645L89.0164 107.682C87.851 108.234 87.2916 110.221 88.9418 110.812C96.7547 113.604 105.533 113.427 113.746 113.604C123.34 113.809 132.929 113.974 142.511 114.535C151.578 115.07 160.636 115.894 169.605 117.346C174.08 118.07 178.532 118.933 182.944 119.973C185.158 120.494 189.47 121.109 191.046 122.984C191.95 124.059 192.374 126.572 192.91 127.871C193.927 130.284 197.442 129.306 197.264 126.758C196.67 118.191 195.484 115.808 186.552 113.537Z" fill="#8C4238"/>
<path d="M9.00395 127.794C9.38621 122.274 11.4513 117.302 12.5445 111.952C12.6517 111.424 11.9361 110.998 11.5236 111.349C4.02066 117.758 -0.0233192 137.562 8.30471 144.717C9.00395 145.318 10.0738 144.792 10.2067 143.945C11.0318 138.693 8.62403 133.246 9.00395 127.794Z" fill="#E27B6D"/>
<path d="M192.451 115.966C192.361 115.899 192.256 115.856 192.144 115.842C192.033 115.828 191.92 115.842 191.816 115.885C191.712 115.927 191.62 115.996 191.551 116.084C191.481 116.172 191.436 116.276 191.419 116.387C190.659 121.665 192.314 127.212 191.803 132.676C191.284 138.239 190.454 143.826 186.342 147.919C184.958 149.299 187.142 150.963 188.543 150.172C197.843 144.915 201.763 122.582 192.451 115.966Z" fill="#E27B6D"/>
<path d="M112.623 166.379C109.127 165.883 105.775 166.462 102.328 166.772C102.203 166.662 102.066 166.567 101.92 166.488C101.239 166.144 100.661 165.885 99.8874 165.841L98.0554 165.739C97.6114 165.709 97.1666 165.784 96.7563 165.956C96.3461 166.128 95.9817 166.393 95.6919 166.73C92.8367 166.469 89.9907 166.102 87.1727 166.525C87.0259 166.545 86.8858 166.599 86.7642 166.684C86.6426 166.769 86.5429 166.881 86.4735 167.012C86.2764 167.113 86.1023 167.254 85.962 167.425C85.8216 167.596 85.7181 167.795 85.6577 168.008C85.3127 169.171 85.2055 169.778 85.3407 170.988C85.3591 171.337 85.4793 171.672 85.6864 171.953C85.8935 172.233 86.1785 172.447 86.5061 172.568C86.1076 180.671 89.8066 190.639 99.0087 190.809C110.625 191.023 114.31 178.358 114.672 169.069C114.728 167.773 114.008 166.574 112.623 166.379Z" fill="#FF5FAF"/>
<path d="M111.162 180.182C110.29 176.424 106.843 174.404 103.325 173.555C99.7545 172.692 95.4145 172.624 92.2889 174.809C90.0746 175.824 88.2799 177.536 87.4152 180.094C87.3995 180.134 87.3919 180.176 87.3929 180.219C87.3939 180.262 87.4035 180.304 87.4211 180.344C87.4386 180.383 87.4639 180.418 87.4953 180.448C87.5267 180.477 87.5636 180.5 87.6039 180.515C87.0562 181.925 87.2357 183.628 88.5363 185.566C90.8834 189.057 97.2372 190.918 101.181 190.018C102.536 189.697 103.829 189.159 105.011 188.424C105.481 188.52 105.968 188.494 106.425 188.347C108.102 187.836 109.523 186.709 110.402 185.194C111.281 183.68 111.552 181.889 111.162 180.182Z" fill="#FF7BB1"/>
<path d="M109.854 166.267C106.262 165.846 102.68 166.639 99.0506 166.362C96.1627 166.144 93.3028 165.069 90.4732 165.934C89.9767 166.085 89.8625 166.739 90.1352 167.119C92.1956 169.995 96.5403 170.444 99.8524 170.651C103.53 170.884 107.311 170.767 110.511 168.81C111.588 168.152 111.019 166.404 109.854 166.267Z" fill="white"/>
<path d="M140.782 145.297C138.295 143.203 134.255 144.201 133.202 147.345C132.908 148.243 132.884 149.207 133.133 150.119C133.381 151.03 133.891 151.849 134.6 152.475C135.063 152.869 135.603 153.16 136.187 153.33C136.77 153.5 137.383 153.545 137.985 153.462C138.419 153.654 138.902 153.71 139.369 153.62C143.371 152.755 143.551 147.633 140.782 145.297Z" fill="white"/>
<path d="M66.2723 145.953C65.6383 145.281 65.0835 144.734 64.1535 144.482C63.4883 144.309 62.7934 144.281 62.1164 144.401C61.3255 144.535 60.5775 144.854 59.9334 145.332C59.2894 145.809 58.7675 146.432 58.4104 147.149C57.0678 149.846 58.8952 153.341 61.9579 153.595C64.6966 153.827 67.4703 151.233 66.6872 148.487C66.9412 147.635 66.8829 146.6 66.2723 145.953Z" fill="white"/>
<path d="M18.3902 144.38C18.1571 143.966 17.7829 143.65 17.3357 143.489C16.8886 143.328 16.3984 143.333 15.9545 143.503C14.2996 144.092 12.6913 145.792 12.7939 147.64C12.8446 148.031 13.0476 148.387 13.3591 148.63C13.6706 148.873 14.0654 148.984 14.4581 148.938C14.8127 148.845 15.1547 148.709 15.4767 148.534C15.3368 148.608 15.7097 148.417 15.747 148.399C15.9801 148.278 16.2132 148.145 16.4276 148.01C16.9393 147.691 17.4179 147.323 17.8564 146.909C18.5883 146.237 18.9006 145.297 18.3902 144.38Z" fill="white"/>
<path d="M21.926 142.1C21.5568 141.955 21.1453 141.961 20.7809 142.118C20.4164 142.274 20.1286 142.568 19.9798 142.935C19.9588 142.982 19.9402 143.03 19.9192 143.079L19.8796 143.17C20.0148 142.937 20.0008 142.972 19.8353 143.251C19.7717 143.412 19.7446 143.584 19.756 143.756C19.756 143.756 19.756 143.77 19.756 143.777C19.7817 144.359 20.4366 144.68 20.9518 144.608C21.0107 144.6 21.0691 144.589 21.1266 144.573C21.1395 144.581 21.152 144.589 21.1639 144.599C21.8841 144.973 22.7045 144.399 22.8164 143.668C22.863 143.345 22.8008 143.016 22.6396 142.732C22.4785 142.448 22.2275 142.226 21.926 142.1Z" fill="white"/>
<path d="M50.4227 175.982C50.2933 175.7 50.0943 175.456 49.8444 175.272C49.5945 175.088 49.3018 174.97 48.9939 174.93C48.5999 174.896 48.2051 174.986 47.8654 175.188C47.5257 175.39 47.2583 175.694 47.1012 176.056C46.9402 176.38 46.8709 176.741 46.9008 177.101C46.9008 177.078 47.1898 178.111 47.0103 177.399C47.058 177.724 47.224 178.02 47.4765 178.23C47.7462 178.415 48.0705 178.504 48.3972 178.483C48.6717 178.47 48.9388 178.39 49.1757 178.251C49.3267 178.163 49.4603 178.049 49.5696 177.913H49.5882C49.7716 177.843 49.9392 177.737 50.0809 177.602C50.2227 177.466 50.3357 177.303 50.4135 177.123C50.4913 176.943 50.5322 176.75 50.5337 176.554C50.5353 176.357 50.4975 176.163 50.4227 175.982Z" fill="#FF6A68"/>
<path d="M54.8652 176.471C54.8125 176.323 54.7226 176.192 54.6042 176.089C54.4271 175.894 54.1854 175.769 53.9236 175.738C53.5647 175.688 53.2003 175.771 52.898 175.97C52.675 176.158 52.502 176.398 52.3945 176.668C52.3061 176.899 52.2688 177.146 52.285 177.392C52.2714 177.523 52.2867 177.656 52.3298 177.781C52.3728 177.906 52.4427 178.02 52.5344 178.116C52.6284 178.211 52.7428 178.285 52.869 178.331C52.9953 178.377 53.1302 178.394 53.2639 178.381C53.5077 178.395 53.7518 178.36 53.9818 178.279C54.2532 178.18 54.4941 178.012 54.6811 177.792C54.8205 177.606 54.9111 177.387 54.9445 177.157C54.9549 177.025 54.9549 176.892 54.9445 176.759C54.9211 176.666 54.8885 176.568 54.8652 176.471Z" fill="#FF6A68"/>
<path d="M150.38 177.725C150.107 177.518 149.773 177.404 149.43 177.402C149.086 177.4 148.752 177.509 148.476 177.713C148.108 178 147.864 178.416 147.793 178.877C147.752 179.09 147.724 179.305 147.709 179.521C147.701 179.808 147.715 180.095 147.751 180.38C147.816 181.169 148.807 181.543 149.417 181.092C149.564 180.98 149.699 180.859 149.837 180.727C150.047 180.678 150.243 180.578 150.405 180.436C150.568 180.294 150.693 180.114 150.769 179.912C150.848 179.684 150.91 179.451 150.956 179.214C150.998 178.937 150.967 178.654 150.866 178.393C150.765 178.132 150.597 177.902 150.38 177.725Z" fill="#FF6A68"/>
<path d="M156.475 179.682C156.454 179.547 156.397 179.42 156.31 179.314C156.284 179.284 156.144 179.137 156.111 179.112C156.088 179.093 155.899 178.981 155.878 178.97C155.794 178.942 155.709 178.919 155.622 178.9H155.61C155.596 178.9 155.377 178.9 155.354 178.9C155.307 178.907 155.261 178.918 155.216 178.932C155.17 178.942 155.124 178.954 155.079 178.97C155.039 178.987 155.001 179.008 154.965 179.033C154.925 179.051 154.887 179.072 154.85 179.095L154.83 179.112C154.792 179.144 154.685 179.247 154.652 179.286L154.638 179.305C154.595 179.371 154.555 179.441 154.52 179.512C154.52 179.512 154.466 179.698 154.461 179.728C154.461 179.754 154.461 179.919 154.461 179.945C154.467 179.982 154.475 180.018 154.487 180.054C154.487 180.054 154.487 180.068 154.487 180.091C154.485 180.12 154.485 180.149 154.487 180.177C154.497 180.267 154.532 180.352 154.587 180.424C154.62 180.51 154.677 180.586 154.75 180.643C154.81 180.721 154.891 180.781 154.983 180.815C155.096 180.896 155.228 180.945 155.366 180.957H155.634L155.895 180.892L156.128 180.759L156.331 180.564L156.473 180.331C156.53 180.207 156.554 180.071 156.543 179.935C156.543 179.846 156.519 179.759 156.475 179.682Z" fill="#FF6A68"/>
<path d="M66.0718 230.132C65.8387 230.197 65.6266 230.287 65.4075 230.364C64.5777 229.478 63.1513 229.066 61.9742 229.88C43.9407 242.35 35.3865 267.325 30.8088 287.623C29.2938 294.338 28.1144 301.119 27.0259 307.92C26.1821 313.193 24.3874 319.236 24.7533 324.57C24.8978 326.664 25.1542 328.416 27.182 329.505C28.5805 330.257 31.2866 329.472 32.5429 329.347C36.9855 328.902 41.3441 328.881 45.81 328.912C47.4066 328.926 48.6722 327.92 48.544 326.215C47.2807 309.431 46.7376 293.577 50.3947 276.986C52.1009 269.254 54.483 261.713 57.2706 254.306C58.4826 251.085 59.704 247.863 60.9999 244.673C62.5476 240.845 64.072 234.855 67.0904 231.94C67.9341 231.123 67.2605 229.787 66.0718 230.132Z" fill="white"/>
<path d="M96.8946 230.513C96.7105 229.624 96.4401 228.782 95.8178 228.047C94.2981 226.255 91.4265 226.169 89.3194 226.99C88.76 226.816 88.2123 226.644 87.7019 226.469C86.5551 226.076 85.3197 225.783 84.2825 225.143C83.2453 224.503 82.3643 223.649 81.1476 223.237C79.833 222.793 78.4252 223.491 78.2038 224.924C77.6513 228.473 80.1453 230.96 83.0985 232.419C86.1728 233.936 89.753 235.884 93.2539 236.452C94.1536 236.956 95.0556 237.001 95.8644 236.533C98.44 235.933 98.5798 232.21 96.8946 230.513Z" fill="white"/>
<path d="M113.609 223.223C110.283 225.734 106.85 227.721 102.556 226.727C100.605 226.276 99.3303 228.237 99.3583 229.883C99.3583 230.62 99.3583 231.363 99.3583 232.103C99.0801 232.383 98.8661 232.72 98.7309 233.091C98.5957 233.461 98.5426 233.857 98.5751 234.25C98.5915 234.404 98.6078 234.557 98.6264 234.716C98.684 235.137 98.8319 235.541 99.0599 235.9C99.288 236.259 99.5909 236.564 99.948 236.796C100.069 236.924 100.22 237.02 100.387 237.077C100.554 237.134 100.732 237.149 100.906 237.122C107.477 238.497 115.59 232.421 117.835 226.518C118.786 224.009 115.849 221.531 113.609 223.223Z" fill="white"/>
<path d="M197.26 260.163L196.847 259.814C196.048 259.137 194.593 259.085 193.775 259.777C193.461 260.042 193.202 260.265 192.969 260.475C189.68 258.104 186.414 255.711 183.196 253.24C181.098 251.632 178.322 247.309 175.655 247.814C173.77 248.172 168.213 254.041 165.302 257.955C163.13 255.395 160.228 249.731 158.724 247.816C155.701 243.926 152.378 240.277 148.788 236.901C143.984 232.433 134.959 224.082 128.33 229.189C127.785 229.61 127.832 230.571 128.531 230.818C128.619 230.848 128.701 230.89 128.787 230.923C128.749 231.389 128.824 231.857 129.004 232.289C133.861 244.282 140.525 254.185 143.891 266.767C146.362 276 146.793 288.025 156.815 292.237C165.239 295.779 173.131 293.168 179.345 287.246C183.431 283.353 187.107 278.908 190.568 274.462C193.328 270.918 197.038 266.878 198.204 262.469C198.428 261.629 197.878 260.684 197.26 260.163Z" fill="white"/>
<path d="M95.9436 233.99C92.769 232.333 89.4476 231.316 86.4688 229.238C83.9679 227.495 81.8282 224.831 79.0755 223.539C78.6769 223.351 78.0592 223.651 78.0522 224.126C77.9334 231.523 88.9115 237.913 95.5008 237.224C97.3048 237.036 97.3678 234.727 95.9436 233.99Z" fill="#FFCFE9"/>
<path d="M117.881 225.794C112.015 229.252 106.369 232.759 99.5051 233.859C98.8059 233.971 98.7406 235.069 99.5051 235.132C106.994 235.749 114.93 233.924 119.762 227.712C120.744 226.436 119.138 225.054 117.881 225.794Z" fill="#FFCFE9"/>
<path d="M66.6778 230.348C66.9249 229.578 65.9529 228.917 65.4052 229.606C55.4642 242.064 49.1967 258.208 44.831 273.38C42.7564 280.483 41.2045 287.728 40.188 295.057C39.3046 301.617 41.4793 321.454 32.9625 323.027C32.429 323.109 31.9424 323.379 31.5898 323.787C31.2373 324.195 31.0418 324.716 31.0384 325.255C31.0351 325.794 31.224 326.316 31.5715 326.729C31.9189 327.141 32.4021 327.417 32.9345 327.506C37.3304 328.397 41.1926 328.423 45.5816 327.506C47.0849 327.194 48.2014 325.991 48.0289 324.381C47.6723 321.056 47.4299 318.452 46.1969 315.371C46.0237 314.941 45.7121 314.58 45.3112 314.345C46.4323 305.345 45.9195 296.195 47.5628 287.155C51.2175 267.099 60.5151 249.55 66.6778 230.348Z" fill="#FFCFE9"/>
<path d="M162.605 260.167C161.323 260.261 159.904 261.291 158.925 262.083C157.697 263.053 156.784 264.365 156.303 265.852C155.559 268.074 158.144 269.415 159.717 267.844C160.592 266.986 161.366 266.033 162.025 265C162.64 264.037 163.612 263.037 163.959 261.948C164.248 261.007 163.619 260.091 162.605 260.167Z" fill="#FFCFE9"/>
<path d="M190.209 264.149C185.955 270.785 181.035 278.429 174.704 283.285C165.633 290.245 154.58 286.078 149.352 276.617C148.886 275.781 147.702 276.035 147.72 277.031C148.012 288.177 157.927 295.413 168.821 293.428C181.562 291.102 188.866 276.765 193.039 265.803C193.677 264.142 191.26 262.511 190.209 264.149Z" fill="#FFCFE9"/>
<path d="M187.708 260.64C186.85 260.505 186.153 260.928 185.54 261.478C184.927 262.027 184.401 262.611 184.17 263.455C183.939 264.3 184.093 265.187 184.927 265.673C185.641 266.09 186.745 265.989 187.235 265.245C187.577 264.72 187.888 264.176 188.167 263.616C188.24 263.525 188.302 263.423 188.368 263.327C188.633 262.984 188.794 262.572 188.834 262.141C188.878 261.794 188.785 261.443 188.575 261.163C188.365 260.883 188.054 260.696 187.708 260.64Z" fill="#FFCFE9"/>
<path d="M184.466 258.504C184.171 258.455 183.869 258.465 183.578 258.534C183.19 258.583 182.835 258.773 182.578 259.067C182.438 259.254 182.334 259.464 182.27 259.688C182.114 260.181 182.068 260.647 182.394 261.084C182.532 261.262 182.715 261.4 182.923 261.484C183.132 261.569 183.359 261.597 183.583 261.566C183.754 261.539 183.916 261.47 184.055 261.367C184.194 261.263 184.305 261.127 184.38 260.97C184.62 260.817 184.804 260.59 184.904 260.323C184.979 260.112 185.084 259.918 185.165 259.711C185.391 259.146 185.025 258.629 184.466 258.504Z" fill="#FFCFE9"/>
<path d="M195.642 74.4585C194.167 69.1321 191.148 65.4789 188.198 60.946C185.184 56.3155 182.748 51.3754 179.525 46.8705C167.171 29.5838 149.257 17.1697 128.999 11.0127C127.64 0.541574 111.903 3.15238 104.54 3.22219C97.4633 3.28967 82.3969 1.12796 81.059 10.1285C72.097 9.68404 62.0441 15.4618 54.8815 19.478C45.5233 24.7252 36.3911 31.0265 28.9069 38.7496C11.2043 57.0182 5.69187 82.8214 0.76218 106.87C0.351955 108.876 2.42405 110.91 4.41224 110.556C23.194 107.226 42.4163 106.833 61.4148 106.046C71.188 105.646 80.8492 105.46 90.599 106.4C99.0203 107.214 107.148 108.064 115.539 106.663C115.583 106.663 115.62 106.693 115.667 106.703C117.616 107.073 119.499 107.436 121.473 107.633C121.473 107.61 121.473 107.584 121.473 107.561C122.16 107.606 122.842 107.41 123.398 107.005C146.178 108.443 167.612 113.276 190.505 113.572C191.878 113.59 193.715 114.037 194.234 113.057C196.099 113.788 198.43 113.106 198.556 110.498C199.166 98.6025 198.849 86.0302 195.642 74.4585Z" fill="#FDE41B"/>
<path d="M134.777 89.6462C132.733 89.6462 133.146 92.7969 135.164 92.7969C137.183 92.7969 136.801 89.6462 134.777 89.6462Z" fill="#FDE41B"/>
<path d="M190.416 109.988C176.616 104.739 161.048 103.436 146.441 102.077C131.011 100.632 115.516 100.164 100.025 100.106C84.3128 100.048 68.5798 100.338 52.8747 100.855C38.067 101.344 22.6952 101.821 9.43283 109.083C8.86644 109.392 8.98997 110.346 9.73117 110.246C38.9597 106.456 68.5192 106.058 97.9738 106.009C113.422 105.977 128.89 106.398 144.292 107.657C159.459 108.883 174.334 112.28 189.454 113.537C191.475 113.711 192.472 110.77 190.416 109.988Z" fill="#FFAD12"/>
<path d="M79.5929 12.0459C79.6092 11.8932 79.5758 11.7393 79.4976 11.6071C79.4194 11.4749 79.3006 11.3713 79.1588 11.3117C79.017 11.2522 78.8598 11.2399 78.7105 11.2765C78.5611 11.3132 78.4276 11.397 78.3296 11.5154C69.046 22.7707 64.2071 38.3331 59.2844 51.8688C54.4666 65.1113 50.9984 79.0518 53.1311 93.1692C53.7534 97.2995 59.6947 96.4781 59.5059 92.3874C58.8066 77.4951 62.9625 63.6407 67.9784 49.7908C72.386 37.6211 78.4928 25.086 79.5929 12.0459Z" fill="#FFAD12"/>
<path d="M148.271 51.0823C145.429 38.4099 141.472 22.4612 131.419 13.4514C130.768 12.8697 129.743 13.5398 129.841 14.3426C131.496 27.9248 138.682 40.9206 141.434 54.4237C144.306 68.5086 143.283 82.3607 144.681 96.4967C145.038 100.099 149.809 99.5985 150.585 96.5316C154.214 82.3212 151.417 65.1369 148.271 51.0823Z" fill="#FFAD12"/>
<path d="M125.277 6.54741C119.977 3.31765 113.283 3.77139 107.236 3.66203C100.108 3.56061 92.9822 3.98448 85.9164 4.9302C83.1894 5.28389 83.7068 9.40253 86.4362 9.15123C94.0627 8.45315 101.677 8.51132 109.33 8.75565C114.635 8.92319 120.187 9.8493 125.128 7.59219C125.501 7.42931 125.699 6.80337 125.277 6.54741Z" fill="white"/>
<path d="M79.2829 12.4508C34.2957 15.3408 3.87615 64.839 2.33082 105.935C2.23059 108.615 6.22795 109.279 6.55193 106.505C9.09719 84.7272 14.9662 64.141 28.9278 46.7426C35.0183 39.1499 42.2135 32.7462 50.2595 27.3012C59.4523 21.0883 69.624 17.9167 79.4181 12.9697C79.4764 12.9431 79.5234 12.8968 79.5509 12.839C79.5783 12.7812 79.5846 12.7156 79.5684 12.6537C79.5523 12.5918 79.5148 12.5375 79.4626 12.5004C79.4104 12.4633 79.3468 12.4457 79.2829 12.4508Z" fill="white"/>
<path d="M153.079 300.188C153.258 299.898 153.376 299.574 153.426 299.237C153.476 298.9 153.457 298.556 153.37 298.227C147.455 273.745 140.488 249.531 128.431 227.295C127.801 226.132 126.731 225.271 125.326 225.457L118.21 226.409C116.478 226.641 115.558 228.117 115.59 229.757C115.672 233.864 108.048 235.609 104.992 236.168C101.46 236.796 97.8442 236.796 94.312 236.168C87.0562 234.92 80.6441 231.048 75.9265 225.448C75.0315 224.386 73.5817 224.117 72.4116 224.929C69.2487 227.123 67.8642 229.445 67.475 232.728C58.7647 244.051 53.7231 259.816 50.2012 272.954C47.9846 281.21 45.8752 289.878 45.197 298.42C44.7891 303.567 46.2855 307.371 50.9588 309.95C57.3592 313.477 66.1814 313.905 73.2904 314.71C81.791 315.664 90.3509 315.984 98.8991 315.669C116.784 315.043 135.342 311.841 151.972 305.082C154.328 304.135 154.331 301.645 153.079 300.188Z" fill="#FF761D"/>
<path d="M153.335 306.026C152.99 304.56 151.371 304.214 150.478 305.263C150.033 305.183 149.574 305.241 149.163 305.431C133.908 312.272 117.128 313.894 100.582 314.126C92.1187 314.245 83.6532 313.342 75.2273 312.651C68.6823 312.116 61.86 311.755 55.5994 309.691C53.7853 308.639 51.8589 307.792 49.8563 307.167C49.2441 306.959 48.584 306.936 47.959 307.101C47.8336 307.036 47.6939 307.003 47.5524 307.005C47.4109 307.007 47.2723 307.045 47.1491 307.114C47.0258 307.184 46.9219 307.283 46.8468 307.402C46.7717 307.522 46.7278 307.658 46.719 307.799C45.4137 308.963 45.1037 311.146 46.6724 312.404C46.5908 320.095 46.5092 326.992 49.6698 334.727C51.4739 339.148 54.3454 342.952 56.2497 347.278C58.5805 352.555 58.3102 359.559 58.8649 365.209C59.3777 370.419 59.9487 375.648 60.7296 380.825C61.1398 383.566 61.5104 386.265 63.8902 387.98C66.7011 390.007 70.8453 389.097 74.0898 389.083C80.4713 389.091 86.844 389.558 93.1583 390.479C94.5335 390.67 96.1324 389.614 96.2187 388.153C97.137 372.592 99.1462 357.1 100.016 341.549C102.05 341.987 104.16 342.119 106.278 342.175C107.043 349.243 107.87 356.301 108.761 363.35C109.728 370.891 109.665 380.385 112.201 387.564C113.546 391.371 116.229 391.187 119.935 391.15C128.386 391.064 136.95 391.08 145.366 390.154C147.198 389.954 148.026 388.678 148.037 387.334C148.383 386.972 148.602 386.508 148.66 386.012C150.462 371.776 149.229 357.295 150.524 342.992C151.126 336.358 151.846 329.728 152.604 323.118C153.242 317.512 154.638 311.574 153.335 306.026Z" fill="#A4A2A6"/>
<path d="M150.639 293.917C153.277 292.467 151.96 287.476 148.727 288.279C146.835 288.744 140.803 290.995 139.024 290.043C136.901 288.912 136.339 285.035 135.668 282.804C134.004 277.27 133.244 271.544 131.799 265.959C129.41 256.724 126.042 247.258 121.468 238.692C120.818 235.968 120.191 233.238 119.522 230.516C119.159 229.036 117.271 228.205 116.198 229.585C114.399 231.912 112.29 233.915 110.327 236.086C110.299 236.061 110.278 236.03 110.25 236.005C109.884 235.644 109.208 235.975 109.164 236.447C108.332 245.403 113.126 255.739 114.961 264.426C117.086 274.548 117.804 284.67 118.981 294.908C109.577 295.102 100.335 296.463 90.8298 295.606C88.2659 295.374 85.8885 295.234 83.9119 294.629C83.6051 294.735 83.2831 294.789 82.9586 294.79C81.2198 294.79 80.3061 293.526 80.1943 292.184C79.4228 291.164 78.8634 289.805 78.5627 287.956C77.7352 282.69 78.7282 276.254 79.1524 270.946C79.9145 261.44 81.4622 252.061 83.525 242.753C84.0354 240.456 85.6717 237.133 84.7883 234.741C83.6579 231.681 80.4809 230.767 79.0615 227.428C78.8927 227.026 78.599 226.689 78.2237 226.467C77.8485 226.245 77.4116 226.15 76.9777 226.195C75.5536 226.374 75.3461 226.367 74.6469 226.681C74.2973 225.818 73.0596 225.285 72.4629 226.26C66.8037 235.551 64.8807 247.132 63.5638 257.78C62.3086 268.223 62.2085 278.773 63.2655 289.238C63.3098 289.318 63.3495 289.402 63.3844 289.487C63.564 289.828 63.6493 290.211 63.6314 290.597V290.762C63.633 291.272 63.4969 291.774 63.2375 292.214L62.7877 292.798C62.4347 293.15 61.9962 293.405 61.5151 293.538L60.7482 293.643C60.3621 293.659 59.9785 293.573 59.6364 293.394C59.2789 293.28 58.9576 293.074 58.7041 292.798C58.601 292.697 58.5081 292.586 58.4267 292.467C56.5294 292.602 54.4876 292.16 52.01 290.669C50.5998 289.822 49.1221 290.406 48.7118 292.009C47.6 296.353 45.6818 301.419 47.4555 305.719C47.6102 306.083 47.8755 306.389 48.2138 306.594C48.5522 306.799 48.9466 306.893 49.3412 306.862C55.5761 312.888 67.5216 311.914 75.486 312.772C87.1774 314.029 98.6544 314.168 110.392 313.454C121.098 312.802 132.153 312.328 142.439 309.033C145.406 308.081 150.555 306.666 152.275 303.695C154.193 300.423 151.869 296.933 150.639 293.917Z" fill="#FFF100"/>
<path d="M98.0414 344.632C98.0111 343.117 96.4308 341.679 94.9787 341.535C90.986 341.135 87.583 340.174 84.2242 342.438C84.0686 342.557 83.9656 342.732 83.9369 342.926C83.9082 343.119 83.9561 343.317 84.0704 343.476C85.6484 345.933 87.9699 346.808 90.5804 347.592C88.9698 360.132 87.2613 372.993 86.4129 385.521C86.2824 387.45 88.2076 389.495 90.2331 388.499C96.6196 385.363 96.2513 378.028 96.7781 371.69C97.5146 362.708 98.2232 353.651 98.0414 344.632Z" fill="#908C93"/>
<path d="M115.886 346.033C117.439 345.479 118.754 344.412 119.615 343.008C120.026 342.38 120.007 341.563 119.382 341.065C116.723 338.971 114.304 339.301 110.966 339.473C108.812 339.585 107.365 341.847 107.556 343.832C108.866 357.561 109.588 372.686 113.926 385.842C114.947 388.937 120.191 388.385 120.354 385.053C120.965 372.274 118.201 358.738 115.886 346.033Z" fill="#908C93"/>
<path d="M73.062 366.282C72.9336 365.238 72.4785 364.261 71.7614 363.49C70.9957 362.653 69.9719 362.095 68.8525 361.905C67.3445 361.6 66.0555 363.669 67.1091 364.851C67.186 364.939 67.7221 365.67 67.9551 366.031C67.9551 366.045 67.9714 366.077 68.0041 366.163C68.053 366.296 68.102 366.433 68.1556 366.566C68.2768 366.861 68.4166 367.136 68.5145 367.443C68.8688 368.567 70.2277 369.111 71.2952 368.839C71.8507 368.7 72.3364 368.364 72.6615 367.893C72.9867 367.422 73.129 366.85 73.062 366.282Z" fill="#908C93"/>
<path d="M83.4271 362.135C82.9982 361.712 82.1545 361.519 81.6603 361.986C81.0753 362.538 80.4809 363.057 79.9402 363.65C79.4461 364.192 79.0218 364.795 78.5417 365.346C77.8704 366.11 78.8237 367.415 79.7537 366.964C80.4944 366.642 81.1978 366.241 81.8515 365.768C82.4998 365.232 83.0659 364.605 83.532 363.906C83.7303 363.648 83.8289 363.326 83.8096 363.001C83.7904 362.676 83.6546 362.369 83.4271 362.135Z" fill="#908C93"/>
<path d="M128.808 364.755V364.828C128.816 364.527 128.759 364.227 128.64 363.95C128.507 363.66 128.334 363.389 128.128 363.145C127.717 362.72 127.228 362.378 126.687 362.14C125.629 361.591 124.142 362.691 124.405 363.869C124.483 364.343 124.599 364.81 124.75 365.265C124.857 365.563 125.009 365.843 125.202 366.093C125.381 366.293 125.573 366.48 125.776 366.654L125.515 366.389C125.715 366.63 125.973 366.818 126.264 366.936C126.555 367.053 126.871 367.096 127.184 367.061C127.792 366.992 128.524 366.536 128.699 365.914C128.826 365.542 128.864 365.145 128.808 364.755Z" fill="#908C93"/>
<path d="M136.337 361.791C135.787 362.042 135.22 362.273 134.689 362.559C134.157 362.845 133.67 363.38 133.202 363.813C132.561 364.402 132.377 365.309 133.036 365.982C133.696 366.654 134.619 366.515 135.213 365.872C135.679 365.379 136.206 364.904 136.521 364.306C136.791 363.794 137.015 363.25 137.255 362.722C137.495 362.194 136.889 361.54 136.337 361.791Z" fill="#908C93"/>
<path d="M137.055 326.727C136.683 327.549 136.314 328.369 135.948 329.189C135.388 330.436 137.493 331.269 137.884 329.994C138.147 329.128 138.411 328.263 138.677 327.399C139.001 326.34 137.526 325.675 137.055 326.727Z" fill="#908C93"/>
<path d="M141.765 326.417C140.934 327.449 140.256 328.596 139.754 329.821C139.288 330.857 140.807 331.76 141.49 330.834C142.303 329.787 142.96 328.63 143.443 327.397C143.526 327.179 143.528 326.94 143.45 326.721C143.373 326.501 143.22 326.317 143.019 326.2C142.818 326.082 142.582 326.04 142.352 326.079C142.123 326.119 141.915 326.239 141.765 326.417Z" fill="#908C93"/>
<path d="M118.709 324.225C118.322 323.318 117.038 323.695 117.077 324.639C117.154 326.168 117.25 327.627 117.776 329.081C118.243 330.364 120.2 329.817 120.051 328.5C119.877 326.978 119.308 325.624 118.709 324.225Z" fill="#908C93"/>
<path d="M122.112 324.618L121.734 325.856C121.697 325.945 121.679 326.041 121.682 326.137C121.685 326.233 121.708 326.327 121.751 326.414C121.793 326.5 121.853 326.576 121.928 326.638C122.002 326.699 122.088 326.743 122.181 326.768C122.274 326.793 122.372 326.798 122.467 326.783C122.562 326.767 122.652 326.732 122.732 326.679C122.813 326.625 122.88 326.555 122.931 326.474C122.982 326.392 123.015 326.301 123.028 326.205C123.112 325.782 123.193 325.356 123.277 324.933C123.408 324.269 122.315 323.953 122.112 324.618Z" fill="#908C93"/>
<path d="M66.4331 332.965C66.3538 332.369 65.4751 332.034 65.1092 332.597C64.671 333.265 64.2305 333.954 64.0253 334.731C63.7923 335.601 63.9437 336.451 64.1209 337.321C64.1656 337.627 64.3177 337.907 64.5499 338.111C64.7821 338.315 65.0795 338.43 65.3889 338.436C65.9809 338.436 66.6429 337.97 66.6708 337.335C66.7035 336.579 66.8526 335.827 66.7967 335.069C66.7454 334.361 66.5286 333.677 66.4331 332.965Z" fill="#908C93"/>
<path d="M71.8942 332.104C71.8019 332.08 71.7056 332.075 71.6114 332.091C71.5172 332.106 71.4274 332.141 71.3478 332.194C71.2681 332.246 71.2005 332.315 71.1492 332.395C71.098 332.476 71.0643 332.566 71.0504 332.66C70.9665 333.084 70.8826 333.51 70.801 333.933C70.6705 334.596 71.7613 334.913 71.9665 334.247L72.344 333.009C72.3796 332.921 72.3961 332.826 72.3923 332.73C72.3886 332.635 72.3646 332.542 72.3222 332.456C72.2797 332.371 72.2196 332.295 72.1459 332.234C72.0721 332.174 71.9863 332.129 71.8942 332.104Z" fill="#908C93"/>
<path d="M90.0373 327.965C89.5455 326.971 88.8975 326.103 88.2939 325.172C87.9349 324.616 87.21 325.151 87.3615 325.696C87.6366 326.708 87.8277 327.725 88.2193 328.7C88.6878 329.873 90.5827 329.084 90.0373 327.965Z" fill="#908C93"/>
<path d="M92.8879 328.09L92.3821 326.585C92.219 326.094 91.5034 326.322 91.5384 326.801L91.6549 328.404C91.7178 329.298 93.1979 329.009 92.8879 328.09Z" fill="#908C93"/>
<path d="M76.444 378.263L76.0664 377.865C75.994 377.769 75.8951 377.695 75.7817 377.654C75.6683 377.613 75.5453 377.605 75.4277 377.633C75.3107 377.662 75.205 377.725 75.1245 377.815C75.0439 377.904 74.992 378.016 74.9756 378.135L74.9196 378.642C74.8845 378.838 74.8989 379.04 74.9616 379.229C74.9942 379.317 75.0408 379.401 75.0828 379.487C75.1649 379.682 75.314 379.842 75.5032 379.937C75.6925 380.032 75.9095 380.056 76.1153 380.006C76.3222 379.955 76.5032 379.831 76.6243 379.656C76.7454 379.481 76.7981 379.268 76.7726 379.057C76.7414 378.766 76.6273 378.491 76.444 378.263Z" fill="#908C93"/>
<path d="M63.1256 314.35C63.0196 314.109 62.8739 313.888 62.6944 313.696C62.6618 313.654 62.5896 313.549 62.5499 313.496C62.4214 313.202 62.1995 312.958 61.9186 312.803C61.6376 312.647 61.3132 312.588 60.9953 312.635C57.9443 309.742 52.4505 309.943 48.8074 308.151C47.4509 307.483 46.4999 308.996 46.8822 310.152C46.8043 310.204 46.7331 310.265 46.67 310.333L46.5861 310.438C46.12 311.027 46.1899 311.767 46.5628 312.367C47.8215 314.401 50.3364 315.16 52.5321 315.806C55.2242 316.591 57.562 317.221 60.2634 316.653C60.2774 316.653 60.2844 316.677 60.2961 316.686C60.5505 316.876 60.8486 316.999 61.163 317.043C61.4774 317.088 61.7981 317.053 62.0954 316.942C62.3942 316.819 62.656 316.621 62.8549 316.367C63.0539 316.113 63.1834 315.811 63.2305 315.492C63.2964 315.109 63.2602 314.715 63.1256 314.35Z" fill="#414042"/>
<path d="M83.6951 315.541C81.8491 313.966 79.8143 313.691 77.4718 313.447C76.1526 313.312 74.3159 313.538 73.584 314.843C72.6144 316.579 74.3788 318.603 75.9288 319.134C78.3226 319.953 80.8026 320.234 83.1544 319.248C83.5023 319.102 83.8066 318.868 84.0376 318.57C84.2686 318.272 84.4186 317.92 84.473 317.547C84.5274 317.174 84.4844 316.793 84.3481 316.442C84.2118 316.091 83.9869 315.78 83.6951 315.541Z" fill="#414042"/>
<path d="M120.793 312.097C118.117 311.865 115.432 312.155 112.756 312.23C110.439 312.295 109.094 312.695 107.642 314.057C107.412 314.07 107.188 314.131 106.982 314.234C106.777 314.337 106.594 314.481 106.446 314.657C106.386 314.736 106.325 314.813 106.267 314.89C106.011 315.226 105.87 315.636 105.864 316.059C105.859 316.481 105.989 316.894 106.237 317.237C107.773 319.25 110.97 319.685 113.348 319.453C115.877 319.204 117.958 318.217 120.009 316.893C120.452 316.767 120.9 316.66 121.333 316.493L121.247 316.407C123.172 315.527 123.389 312.332 120.793 312.097Z" fill="#414042"/>
<path d="M149.347 305.631C143.725 307.623 134.349 307.06 130.419 312.235C130.347 312.33 130.298 312.439 130.275 312.556C130.252 312.672 130.256 312.793 130.287 312.908C130.317 313.022 130.373 313.129 130.45 313.219C130.528 313.309 130.624 313.381 130.733 313.428C133.638 314.911 137.726 314.029 140.756 313.386C144.334 312.635 147.856 311.758 151.091 310.024C153.727 308.612 152.287 304.591 149.347 305.631Z" fill="#414042"/>
<path d="M69.258 228.098C62.9252 237.315 60.2587 249.738 56.597 260.209C53.229 269.843 49.6185 279.167 50.1103 289.529C50.2106 291.602 53.3735 291.506 53.6648 289.549C55.357 278.501 58.5199 268.407 62.142 257.866C65.3329 248.584 70.1181 238.578 70.7661 228.719C70.8127 227.961 69.7685 227.358 69.258 228.098Z" fill="#FF4D00"/>
<path d="M140.721 254.718C137.174 244.882 132.952 234.939 125.764 227.156C125.654 227.018 125.498 226.924 125.324 226.89C125.151 226.856 124.971 226.884 124.816 226.97C124.662 227.056 124.543 227.194 124.481 227.359C124.418 227.524 124.416 227.706 124.475 227.872C127.426 237.745 132.255 247.004 135.735 256.698C139.246 266.471 140.663 276.758 143.861 286.559C144.735 289.245 148.413 287.886 148.343 285.415C148.063 275.258 144.147 264.214 140.721 254.718Z" fill="#FF4D00"/>
<path d="M105.649 235.956C99.8011 238.709 92.9019 237.715 86.9093 235.863C85.8675 235.542 84.723 236.668 85.5109 237.657C87.7764 240.528 92.6828 241.066 96.0928 241.18C100.085 241.31 103.955 240.291 106.558 237.154C107.029 236.577 106.353 235.623 105.649 235.956Z" fill="#FF4D00"/>
<path d="M93.1093 393.342C93.4963 391.927 92.9322 389.921 91.1002 389.851C83.8327 389.579 76.5372 389.956 69.2674 390.119C68.7701 390.138 68.294 390.325 67.9155 390.647C67.7617 390.505 67.6195 390.363 67.4493 390.228C67.1813 390.021 66.6708 390.091 66.5659 390.461C65.5054 394.119 63.6618 400.676 64.8109 404.394C66.0439 408.387 71.0901 407.729 74.4208 407.636C77.6304 407.545 80.8399 407.352 84.0448 407.203C86.3103 407.098 89.8276 407.564 91.9253 406.617C97.1277 404.264 92.0255 397.309 93.1093 393.342Z" fill="white"/>
<path d="M144.108 394.861C144.893 392.83 143.297 391.157 141.311 391.173C134.528 391.224 127.902 391.769 121.103 391.231C120.703 391.191 120.3 391.23 119.915 391.347C119.531 391.463 119.174 391.655 118.865 391.911C118.723 391.694 118.581 391.48 118.417 391.273C117.741 390.419 116.518 390.829 116.294 391.82C115.578 394.987 115.296 398.207 114.565 401.402C114.171 403.119 113.837 404.66 114.756 406.314C116.958 410.27 122.778 409.272 126.491 409.246L135.966 409.174C138.127 409.155 140.786 409.43 142.726 408.192C147.35 405.225 142.579 398.817 144.108 394.861Z" fill="white"/>
<path d="M90.5967 404.227C90.1306 404.227 89.6807 404.199 89.2215 404.192C86.632 402.098 81.4925 402.682 77.8821 403.82C75.0431 403.766 72.2625 404.052 69.7102 405.36C69.293 405.574 69.2837 406.291 69.8314 406.333C76.7073 407.031 84.117 408.802 90.8927 406.624C92.0372 406.263 91.8554 404.243 90.5967 404.227Z" fill="#929497"/>
<path d="M138.957 405.588C132.132 403.936 122.983 403.494 116.303 405.895C116.248 405.919 116.202 405.959 116.169 406.009C116.136 406.059 116.119 406.117 116.119 406.177C116.119 406.237 116.136 406.295 116.169 406.345C116.202 406.395 116.248 406.435 116.303 406.458C123.186 408.567 131.768 408.855 138.943 408.802C140.928 408.788 140.6 405.984 138.957 405.588Z" fill="#929497"/>
<path d="M92.8669 314.25C90.2331 315.397 88.3078 317.707 86.9373 320.167C86.618 320.737 87.3475 321.377 87.8976 321.142C90.2075 320.151 92.7294 319.048 94.5987 317.349C95.9996 316.069 94.8668 313.379 92.8669 314.25Z" fill="white"/>
<path d="M101.132 314.513C98.3607 315.595 96.2373 317.908 94.8854 320.497C94.8613 320.558 94.8531 320.623 94.8618 320.687C94.8704 320.751 94.8956 320.812 94.9348 320.864C94.974 320.915 95.0259 320.956 95.0855 320.981C95.145 321.007 95.2102 321.016 95.2747 321.009C98.1532 320.47 100.978 319.092 102.815 316.753C103.708 315.616 102.47 313.989 101.132 314.513Z" fill="white"/>
<path d="M155.037 130.076C153.242 128.373 150.69 127.419 148.534 126.235C147.59 125.713 142.437 122.682 142.241 123.026C142.397 122.754 142.141 122.414 141.868 122.374C141.243 122.291 140.866 122.581 140.702 123.203C140.36 124.429 141.751 125.53 142.495 126.228C145.422 129.046 149.625 132.459 153.732 133.19C155.585 133.532 156.205 131.182 155.037 130.076Z" fill="#8C4238"/>
<path d="M159.769 125.713C158.407 124.275 156.752 123.298 154.967 122.437C153.718 121.835 151.667 120.955 150.305 121.506C150.166 121.565 150.055 121.676 149.995 121.814C149.935 121.953 149.931 122.109 149.984 122.251C150.396 123.503 151.998 124.497 153 125.276C154.331 126.318 155.564 127.515 156.993 128.42C158.685 129.504 161.409 127.447 159.769 125.713Z" fill="#8C4238"/>
<path d="M76.5792 226.944C78.952 233.354 85.5528 236.619 91.937 237.771C98.4633 238.934 106.001 238.557 111.851 235.186C114.572 233.617 116.853 231.23 117.55 228.086C117.951 226.281 115.171 225.51 114.767 227.321C113.644 232.382 107.675 234.353 103.167 235.09C97.3398 236.049 90.6736 235.409 85.413 232.573C82.7675 231.146 80.425 229.052 79.3528 226.178C78.7142 224.454 75.9242 225.201 76.5698 226.944H76.5792Z" fill="#400705"/>
<path d="M67.7873 226.115C57.2636 244.833 50.9285 266.022 47.2761 287.095C46.2785 292.861 45.5171 298.662 44.9919 304.498C44.8287 306.345 47.7143 306.334 47.8774 304.498C49.7281 283.569 54.7114 262.613 62.7294 243.176C64.9263 237.827 67.4451 232.616 70.272 227.57C71.181 225.941 68.6893 224.496 67.7803 226.115H67.7873Z" fill="#400705"/>
<path d="M126.489 227.679C140.061 251.004 147.515 276.71 151.429 303.278C151.699 305.105 154.48 304.328 154.212 302.513C150.263 275.702 142.674 249.762 128.981 226.225C128.048 224.621 125.554 226.071 126.489 227.679Z" fill="#400705"/>
<path d="M69.9876 227.83L76.6468 227.235C77.3949 227.169 78.1268 226.62 78.0895 225.794C78.0569 225.073 77.4509 224.284 76.6468 224.356L69.9876 224.95C69.2371 225.017 68.5075 225.564 68.5448 226.39C68.5774 227.114 69.1835 227.902 69.9876 227.83Z" fill="#400705"/>
<path d="M45.2226 306.115C48.0476 309.71 53.3082 311.234 57.5363 312.323C64.5288 314.115 71.8266 314.852 79.0242 315.264C96.1254 316.244 113.595 315.264 130.428 312.072C138.017 310.627 145.767 308.726 152.655 305.133C154.3 304.274 152.844 301.789 151.198 302.645C145.413 305.67 138.945 307.357 132.591 308.695C124.547 310.401 116.362 311.422 108.164 312.037C92.6828 313.2 76.465 313.41 61.1981 310.205C56.6017 309.242 50.3504 308 47.2621 304.069C46.1176 302.613 44.0875 304.663 45.2226 306.105V306.115Z" fill="#400705"/>
<path d="M48.5673 291.199C54.1893 294.224 60.4918 295.001 66.7477 295.679C73.8008 296.439 80.8632 296.984 87.9582 297.112C101.137 297.345 114.297 296.272 127.307 294.248C134.766 293.084 142.166 291.623 149.534 290.003C151.347 289.605 150.58 286.827 148.767 287.225C123.27 292.828 97.5169 295.776 71.4257 293.275C64.2328 292.577 56.5085 292.195 50.0171 288.702C48.3855 287.821 46.9264 290.306 48.5627 291.188L48.5673 291.199Z" fill="#400705"/>
<path d="M83.243 235.565C79.4902 254.933 77.9265 274.661 78.5813 294.378C78.6443 296.225 81.5298 296.239 81.4669 294.378C80.8089 274.919 82.3413 255.448 86.0353 236.331C86.3849 234.52 83.6043 233.743 83.2523 235.565H83.243Z" fill="#400705"/>
<path d="M70.0086 227.57C62.839 248.279 60.2191 270.306 61.585 292.137C61.6992 293.978 64.5847 293.998 64.4682 292.137C63.114 270.534 65.6966 248.821 72.7893 228.335C73.3976 226.581 70.6123 225.827 70.0086 227.57Z" fill="#400705"/>
<path d="M106.871 235.751C110.949 254.506 114.525 273.368 117.003 292.407C117.236 294.22 120.126 294.243 119.886 292.407C117.376 273.11 113.786 253.997 109.651 234.986C109.257 233.173 106.477 233.941 106.871 235.751Z" fill="#400705"/>
<path d="M116.399 227.872C125.298 248.233 131.743 269.408 134.92 291.416C135.185 293.245 137.964 292.467 137.703 290.65C134.486 268.377 127.895 247.016 118.891 226.427C118.149 224.733 115.662 226.195 116.399 227.882V227.872Z" fill="#400705"/>
<path d="M118.028 228.147C118.322 228.1 117.585 228.191 117.986 228.147L118.345 228.114C118.674 228.089 119.002 228.07 119.333 228.056C120.217 228.014 121.103 227.998 121.986 227.998C122.974 227.998 123.962 228.019 124.951 228.075C125.44 228.1 125.932 228.137 126.419 228.184C126.638 228.207 126.857 228.231 127.076 228.258C126.741 228.217 127.151 228.258 127.191 228.275L127.545 228.333C128.312 228.466 129.1 228.128 129.319 227.328C129.51 226.63 129.086 225.699 128.312 225.557C126.22 225.23 124.103 225.083 121.986 225.117C120.42 225.117 118.814 225.117 117.261 225.35C116.492 225.473 116.063 226.432 116.254 227.123C116.487 227.94 117.257 228.251 118.028 228.128V228.147Z" fill="#400705"/>
<path d="M91.9672 342.403C98.7476 342.834 105.593 342.836 112.32 341.793C113.096 341.672 113.511 340.711 113.329 340.023C113.11 339.199 112.32 338.896 111.553 339.015C105.097 340.018 98.4702 339.946 91.9742 339.522C90.1096 339.404 90.1282 342.284 91.9742 342.403H91.9672Z" fill="#400705"/>
<path d="M97.6847 342.377C96.4416 358.131 95.3244 373.894 94.333 389.667L95.7758 388.227C87.1774 388.376 78.5557 388.441 69.9596 388.136C68.3583 388.078 66.7454 388.029 65.1511 387.852C64.8528 387.82 64.34 387.62 64.044 387.678C63.748 387.736 64.023 387.543 64.2584 387.878C64.4496 388.146 64.4099 387.978 64.3866 388.036C64.4286 387.934 63.9554 386.407 63.8552 385.942C63.5755 384.625 63.3401 383.296 63.114 381.968C61.8251 374.419 60.8158 366.819 59.7226 359.241C59.2565 356.05 58.809 352.858 58.2775 349.679C58.119 348.728 57.9745 347.762 57.7438 346.824C57.4198 345.519 56.6063 344.46 55.9467 343.297C52.7302 337.633 50.1197 331.564 48.9939 325.123C48.3482 321.463 48.3739 317.794 48.4951 314.096C48.558 312.235 45.6725 312.235 45.6118 314.096C45.5 317.424 45.4767 320.716 45.9242 324.025C46.6374 329.3 48.3366 334.354 50.5718 339.173C51.2711 340.67 52.0146 342.142 52.8071 343.594C53.2406 344.382 53.685 345.164 54.1403 345.94C54.4031 346.33 54.645 346.733 54.8652 347.148C54.9398 347.317 54.7114 346.743 54.7976 346.985C55.008 347.662 55.1639 348.356 55.2638 349.058C55.8162 352.083 56.2381 355.122 56.6809 358.159C57.8324 366.07 58.8836 374.007 60.2005 381.893C60.5757 384.146 60.8391 386.547 61.599 388.718C62.3332 390.831 64.5824 390.705 66.51 390.84C76.2225 391.52 86.0633 391.271 95.7921 391.103C96.1722 391.095 96.5343 390.94 96.8031 390.672C97.0719 390.404 97.2266 390.042 97.2349 389.663C98.2022 373.889 99.349 358.126 100.584 342.373C100.731 340.511 97.8433 340.532 97.7011 342.373L97.6847 342.377Z" fill="#400705"/>
<path d="M104.78 342.377C106.682 356.942 108.46 371.529 110.542 386.07C110.728 387.371 110.751 388.916 111.197 390.163C111.693 391.545 113.266 391.771 114.546 391.973C120.084 392.848 125.834 392.816 131.423 392.741C134.892 392.692 138.369 392.567 141.821 392.208C144.152 391.976 146.665 391.743 148.814 390.733C150.494 389.947 149.03 387.475 147.359 388.248C145.93 388.916 143.691 389.13 141.977 389.311C139.18 389.607 136.383 389.742 133.586 389.816C127.969 389.968 122.282 389.956 116.688 389.37C115.935 389.3 115.187 389.192 114.446 389.046C114.213 388.995 113.821 388.813 113.59 388.813C113.42 388.827 113.569 388.772 113.558 388.799C113.611 388.66 113.886 389.458 113.966 389.386C114.185 389.186 113.439 386.182 113.385 385.819C112.492 379.652 111.7 373.467 110.891 367.289C109.803 358.982 108.724 350.675 107.651 342.366C107.418 340.553 104.526 340.53 104.766 342.366L104.78 342.377Z" fill="#400705"/>
<path d="M150.597 309.929C151.214 314.769 151.655 319.523 151.263 324.404C150.951 328.293 150.294 332.146 149.536 335.969C149.07 338.375 148.301 340.767 148.166 343.224C147.606 353.516 147.529 363.86 147.376 374.173C147.303 379.033 147.119 383.932 147.359 388.788C147.452 390.633 150.338 390.649 150.245 388.788C149.734 378.526 150.338 368.12 150.59 357.856C150.702 353.286 150.807 348.714 151.009 344.146C151.033 343.622 151.047 343.097 151.091 342.573C151.105 342.41 151.196 341.91 151.091 342.543C151.298 341.421 151.587 340.311 151.825 339.197C152.692 335.104 153.457 330.98 153.923 326.822C154.575 321.114 154.219 315.611 153.494 309.936C153.261 308.123 150.375 308.1 150.608 309.936L150.597 309.929Z" fill="#400705"/>
<path d="M51.5974 316.155C50.0824 318.25 48.5673 320.358 47.0407 322.464C46.5978 323.076 46.9125 324.093 47.5581 324.432C48.304 324.828 49.0591 324.572 49.53 323.916C51.0473 321.821 52.574 319.713 54.0891 317.61C54.5319 316.995 54.2172 315.981 53.5716 315.639C52.8257 315.246 52.0706 315.499 51.5974 316.155Z" fill="#400705"/>
<path d="M152.026 316.877C151.404 316.439 150.782 315.99 150.161 315.529L149.953 315.369C149.76 315.222 150.212 315.571 149.881 315.313L149.469 314.99C149.158 314.746 148.852 314.498 148.553 314.245C147.376 313.268 146.24 312.242 145.143 311.169C144.869 310.912 144.507 310.772 144.132 310.777C143.757 310.783 143.399 310.934 143.133 311.199C142.868 311.464 142.717 311.821 142.711 312.196C142.705 312.57 142.846 312.932 143.103 313.205C145.415 315.46 147.909 317.52 150.562 319.364C151.184 319.797 152.193 319.497 152.536 318.848C152.719 318.515 152.767 318.126 152.671 317.759C152.575 317.392 152.341 317.077 152.019 316.877H152.026Z" fill="#400705"/>
<path d="M68.3863 227.163C54.3804 228.612 45.8286 242.937 40.1507 254.294C32.818 268.954 28.3428 284.935 25.8255 301.091C24.4288 310.185 23.5726 319.354 23.2616 328.549C23.2406 329.13 23.7278 329.828 24.3221 329.945C31.9206 331.32 39.7055 331.39 47.3973 331.05C49.2456 330.969 49.2619 328.088 47.3973 328.169C39.9713 328.5 32.4287 328.495 25.0936 327.169L26.1518 328.565C26.7135 312.947 28.6691 297.345 32.7457 282.238C36.5449 268.16 42.0853 253.727 50.9401 241.983C55.2102 236.324 61.0116 230.813 68.3956 230.043C70.2253 229.855 70.244 226.972 68.3956 227.163H68.3863Z" fill="#400705"/>
<path d="M30.8158 319.453C30.1368 322.622 30.1918 325.904 30.9766 329.049C31.0783 329.417 31.3224 329.73 31.6553 329.919C31.9882 330.108 32.3825 330.157 32.7515 330.055C33.1206 329.954 33.4341 329.71 33.6232 329.378C33.8122 329.045 33.8613 328.652 33.7596 328.283C33.1033 325.641 33.0484 322.885 33.5988 320.218C33.755 319.483 33.382 318.627 32.5919 318.447C31.867 318.282 30.9836 318.666 30.8158 319.453Z" fill="#400705"/>
<path d="M36.8946 323.741V328.646C36.8946 329.028 37.0466 329.395 37.3172 329.665C37.5877 329.935 37.9547 330.087 38.3374 330.087C38.72 330.087 39.087 329.935 39.3576 329.665C39.6281 329.395 39.7801 329.028 39.7801 328.646V323.741C39.7801 323.359 39.6281 322.993 39.3576 322.723C39.087 322.453 38.72 322.301 38.3374 322.301C37.9547 322.301 37.5877 322.453 37.3172 322.723C37.0466 322.993 36.8946 323.359 36.8946 323.741Z" fill="#400705"/>
<path d="M26.6017 330.678C26.569 334.01 26.6226 337.524 28.3871 340.474C30.0839 343.311 32.9159 344.604 36.1371 344.809C38.3583 344.951 40.9805 345.005 43.0573 344.095C45.134 343.185 46.1643 341.242 46.987 339.269C47.2854 338.55 46.6631 337.684 45.9778 337.496C45.148 337.263 44.5047 337.782 44.204 338.503C43.9109 339.265 43.5047 339.979 42.999 340.621C42.6436 341.051 42.1793 341.379 41.6541 341.57C40.0668 342.098 38.1579 342.035 36.4307 341.945C34.0044 341.833 31.9626 340.963 30.7459 338.787C29.3754 336.341 29.4616 333.393 29.4872 330.678C29.5035 328.816 26.618 328.816 26.6017 330.678Z" fill="#400705"/>
<path d="M99.4399 237.24C99.2721 235.237 98.9108 233.238 98.5588 231.263C98.3887 230.332 98.2208 229.373 97.9994 228.442C97.8409 227.779 97.6708 227.104 97.0671 226.711C96.0951 226.085 94.636 225.894 93.5452 225.576C91.3449 224.936 89.1493 224.277 86.9793 223.533C84.5016 222.686 82.0053 221.764 79.7538 220.41C79.2386 220.1 78.4159 220.163 78.0056 220.643C76.9833 221.783 76.3886 223.242 76.3228 224.77C76.2225 226.632 79.1197 226.618 79.2083 224.77C79.241 223.998 79.5362 223.259 80.0451 222.676L78.297 222.909C82.1452 225.222 86.6413 226.539 90.9161 227.816C92.4078 228.263 93.9088 228.677 95.3959 229.138C95.7339 229.245 95.7595 229.371 95.5427 229.171C95.643 229.261 94.9204 228.615 95.0276 228.489C95.048 228.591 95.0785 228.691 95.1185 228.787C95.3003 229.534 95.4588 230.283 95.601 231.037C96.0283 233.091 96.3504 235.165 96.566 237.252C96.7198 239.086 99.596 239.114 99.4492 237.252L99.4399 237.24Z" fill="#400705"/>
<path d="M100.011 237.026C100.603 234.201 101.239 231.388 101.834 228.563L100.435 229.62C106.432 229.31 111.805 226.569 116.557 223.062C117.184 222.597 117.49 221.815 117.075 221.092C116.716 220.475 115.732 220.11 115.103 220.575C110.784 223.761 105.908 226.457 100.435 226.739C99.8314 226.772 99.1765 227.163 99.0366 227.798C98.4446 230.62 97.8059 233.436 97.2139 236.261C96.834 238.069 99.6147 238.841 99.9969 237.026H100.011Z" fill="#400705"/>
<path d="M69.6053 137.946C63.3121 137.946 58.2169 144.308 58.2169 152.159C58.2169 160.01 63.3121 166.372 69.6053 166.372C75.8986 166.372 80.9961 160.008 80.9961 152.159C80.9961 144.31 75.8986 137.946 69.6053 137.946ZM62.5989 152.308C58.8696 152.308 58.8859 146.546 62.5989 146.546C66.3119 146.546 66.3049 152.308 62.5919 152.308H62.5989Z" fill="#400705"/>
<path d="M132.703 139.24C126.41 139.24 121.312 145.604 121.312 153.455C121.312 161.306 126.412 167.668 132.703 167.668C138.994 167.668 144.091 161.304 144.091 153.455C144.091 145.606 138.992 139.24 132.703 139.24ZM137.598 151.882C133.868 151.882 133.887 146.121 137.598 146.121C141.308 146.121 141.32 151.882 137.607 151.882H137.598Z" fill="#400705"/>
<path d="M2.29352 112.506C28.147 109.272 54.2708 108.292 80.3178 108.257C106.6 108.224 132.908 109.234 159.1 111.473C171.425 112.527 183.736 113.849 195.962 115.738C197.777 116.017 198.56 113.244 196.728 112.96C173.546 109.379 150.072 107.571 126.652 106.458C99.4096 105.162 72.083 104.939 44.8403 106.167C30.6223 106.81 16.4253 107.859 2.30518 109.625C0.489466 109.858 0.466158 112.736 2.30518 112.506H2.29352Z" fill="#400705"/>
<path d="M3.17691 109.937C2.8809 87.5055 10.4934 65.3253 24.0797 47.4965C30.5571 38.9963 38.5308 31.0778 47.7679 25.6025C57.2054 20.0063 67.6381 15.9412 78.0686 12.6393C79.8004 12.0924 82.3293 11.8528 83.3828 10.189C83.849 9.45605 83.9539 8.59276 84.0634 7.75274C84.2149 6.58929 84.1403 6.26584 85.3594 6.00756C92.0415 4.58207 98.8559 3.86606 105.689 3.87145C109.053 3.88136 112.414 4.08257 115.756 4.47412C117.455 4.67423 119.145 4.9395 120.827 5.23269C121.634 5.37696 122.439 5.53209 123.242 5.69808C123.708 5.79115 124.175 5.90983 124.641 5.9936L125.34 6.1495C125.146 6.00523 125.084 6.00523 125.149 6.1495C125.848 7.54565 125.34 9.42347 125.972 10.8964C126.811 12.8487 129.277 12.9906 131.085 13.5817C150.634 20.004 168.145 32.8369 180.34 49.3697C192.353 65.6581 199.201 85.7347 197.423 106.065C197.186 108.712 196.807 111.344 196.288 113.951C195.931 115.761 198.712 116.536 199.071 114.717C203.171 93.8743 198.39 72.4527 187.279 54.4912C176.168 36.5297 159.211 22.0447 139.73 13.7702C137.306 12.7417 134.85 11.7993 132.351 10.9639C131.696 10.7452 131.039 10.5311 130.379 10.3263C130.013 10.2146 129.016 10.0936 128.773 9.88187C128.337 9.50026 128.368 8.34611 128.307 7.72017C128.139 6.11925 128.013 4.15998 126.319 3.44329C124.92 2.84993 123.102 2.71729 121.613 2.45203C119.9 2.14487 118.18 1.88891 116.453 1.67251C109.545 0.822577 102.562 0.770264 95.6429 1.5166C92.177 1.88193 88.7297 2.41247 85.3104 3.08495C83.1195 3.51543 81.7349 4.17627 81.348 6.51483C81.2431 7.1524 81.348 8.29026 80.8353 8.75332C80.1174 9.40718 78.0243 9.63289 77.0849 9.93307C74.5723 10.732 72.0768 11.5852 69.5983 12.4927C64.1236 14.4702 58.7555 16.7303 53.5157 19.264C43.4069 24.1994 34.7246 30.9288 27.1937 39.2755C11.8149 56.2946 2.24458 78.4003 0.53842 101.255C0.321653 104.145 0.244742 107.04 0.282035 109.937C0.307674 111.799 3.1909 111.799 3.16759 109.937H3.17691Z" fill="#400705"/>
<path d="M59.2518 94.456C61.9758 72.0865 67.514 50.149 75.7354 29.1627C78.1595 22.9948 80.8119 16.9231 83.6928 10.9476C84.4923 9.28383 82.0053 7.82252 81.2035 9.49325C71.181 30.3843 63.7596 52.4551 59.373 75.2101C58.1447 81.5882 57.1564 88.0081 56.3663 94.4537C56.1332 96.2896 59.0281 96.2733 59.2518 94.4537V94.456Z" fill="#400705"/>
<path d="M52.7162 95.5334C54.6549 73.0623 60.0805 51.0287 68.7989 30.2215C71.3092 24.2436 74.1038 18.3914 77.1385 12.6626C78.0079 11.0337 75.507 9.56775 74.6492 11.2082C63.8603 31.5543 56.3381 53.4653 52.3573 76.1409C51.2354 82.5647 50.3978 89.0289 49.8446 95.5334C49.6838 97.381 52.5717 97.3693 52.7279 95.5334H52.7162Z" fill="#400705"/>
<path d="M147.406 97.9463C147.311 85.7473 146.499 73.5644 144.975 61.4603C143.406 49.216 141.187 36.8159 136.703 25.2651C134.663 20.0132 132.141 14.9336 128.561 10.5496C127.396 9.11161 125.359 11.1593 126.522 12.5857C133.155 20.7206 136.267 31.5943 138.598 41.6349C141.427 53.821 142.917 66.3003 143.77 78.7772C144.205 85.1654 144.455 91.5605 144.52 97.9626C144.539 99.8242 147.424 99.8242 147.406 97.9626V97.9463Z" fill="#400705"/>
<path d="M154.128 99.4216C153.968 86.7399 153.034 74.0797 151.331 61.5115C149.66 49.2277 147.401 36.6763 142.642 25.165C140.665 20.3785 138.213 15.5991 134.484 11.9249C133.16 10.6218 131.118 12.6555 132.444 13.9609C135.614 17.086 137.777 21.1139 139.532 25.1604C141.777 30.3308 143.364 35.7897 144.69 41.2557C147.744 53.821 149.373 66.7517 150.354 79.6498C150.855 86.2326 151.165 92.8295 151.249 99.4286C151.273 101.29 154.158 101.29 154.135 99.4286L154.128 99.4216Z" fill="#400705"/>
<path d="M119.145 139.431C122.823 136.887 127.633 135.01 132.125 134.728C138.229 134.346 142.758 137.907 147.604 141.06C147.828 141.223 148.099 141.311 148.377 141.309C148.654 141.307 148.924 141.217 149.146 141.05C149.368 140.884 149.531 140.651 149.611 140.385C149.69 140.12 149.682 139.836 149.588 139.575C145.278 126.218 123.699 126.163 118.065 138.591C117.767 139.249 118.59 139.817 119.145 139.431Z" fill="#400705"/>
<path d="M54.9211 136.301C59.3124 135.98 62.5965 131.961 67.4027 131.801C73.3673 131.601 77.7166 135.524 82.5531 138.351C83.6975 139.019 85.0563 137.495 84.5529 136.387C81.63 129.981 74.3952 126.491 67.4749 126.735C62.8133 126.9 53.8676 130.014 54.4666 135.947C54.4817 136.053 54.5372 136.149 54.6215 136.215C54.7058 136.281 54.8123 136.312 54.9188 136.301H54.9211Z" fill="#400705"/>
<path d="M24.9281 125.499V157.557C24.9281 159.419 27.8137 159.419 27.8137 157.557V125.499C27.8137 123.638 24.9281 123.638 24.9281 125.499Z" fill="#400705"/>
<path d="M24.8139 167.021C25.5621 178.174 26.9746 189.75 34.3983 198.651C38.4399 203.495 44.0083 207.028 49.4647 210.085C55.2708 213.343 61.4195 215.986 67.6917 218.199C74.6899 220.634 81.8417 222.604 89.1003 224.096C90.9114 224.477 91.6852 221.701 89.8672 221.32C77.5651 218.73 65.3586 215.065 54.1403 209.322C48.6815 206.53 43.0573 203.298 38.6427 198.995C34.7176 195.17 32.0325 190.386 30.4405 185.159C28.6458 179.282 28.1097 173.124 27.6995 167.021C27.576 165.183 24.6904 165.159 24.8139 167.021Z" fill="#400705"/>
<path d="M173.609 139.898C172.792 149.158 171.596 158.37 170.022 167.535C169.709 169.35 172.488 170.127 172.802 168.303C174.42 158.888 175.651 149.42 176.495 139.898C176.658 138.053 173.772 138.065 173.609 139.898Z" fill="#400705"/>
<path d="M169.117 176.229C168.437 186.046 164.666 195.06 157.428 201.846C149.837 208.964 139.859 213.157 130.093 216.352C123.377 218.551 116.522 220.307 109.642 221.901C107.835 222.32 108.6 225.098 110.411 224.677C122.464 221.871 134.67 218.686 145.793 213.133C154.718 208.677 162.936 202.288 167.549 193.264C170.262 187.959 171.593 182.146 172.003 176.229C172.131 174.379 169.246 174.386 169.117 176.229Z" fill="#400705"/>
<path d="M86.5854 166.674C92.0232 166.7 97.4633 166.8 102.901 166.935C105.488 167 108.078 167.067 110.663 167.188C111.472 167.228 112.28 167.265 113.085 167.34C113.238 167.372 113.394 167.391 113.551 167.396C113.603 167.399 113.654 167.411 113.702 167.433L113.565 167.375C113.292 167.033 113.18 167.007 113.224 167.296C113.098 167.528 113.224 168.184 113.224 168.459C113.173 172.415 112.917 176.578 111.747 180.38C110.963 183.03 109.415 185.391 107.295 187.167C103.565 190.206 98.2045 190.823 94.009 188.445C86.3173 184.103 86.4106 173.874 87.1308 166.239C87.217 165.308 85.7743 165.325 85.688 166.239C84.9655 173.878 84.9631 183.321 91.606 188.554C95.8015 191.865 101.675 192.214 106.311 189.58C108.719 188.187 110.678 186.134 111.956 183.665C113.716 180.303 114.201 176.331 114.499 172.596C114.586 171.533 114.632 170.467 114.658 169.399C114.674 168.757 114.681 168.112 114.683 167.47C114.683 167.07 114.779 166.583 114.471 166.265C114.164 165.946 113.525 165.944 113.094 165.904C110.921 165.699 108.724 165.671 106.542 165.599C99.8944 165.394 93.2453 165.275 86.5947 165.241C85.6624 165.241 85.6624 166.677 86.5947 166.679L86.5854 166.674Z" fill="#400705"/>
<path d="M175.828 152.545C176.944 150.321 179.506 149.471 181.858 150.097C184.464 150.795 186.456 152.966 187.785 155.216C190.538 159.852 190.489 165.008 189.104 170.055C186.722 178.732 180.583 191.193 169.5 188.712C167.691 188.308 166.917 191.084 168.733 191.488C173.572 192.573 178.599 191.107 182.382 187.968C185.941 185.013 188.209 180.547 189.964 176.357C191.738 172.098 193.227 167.314 192.966 162.644C192.668 157.567 190.382 152.243 186.226 149.148C182.238 146.169 175.814 146.179 173.336 151.109C172.506 152.762 174.993 154.223 175.828 152.564V152.545Z" fill="#400705"/>
<path d="M24.2056 137.802C20.2152 136.496 15.9988 137.709 12.7845 140.275C9.14147 143.191 7.33044 147.58 6.73841 152.112C6.08112 157.143 6.55893 162.544 7.76863 167.47C8.82915 171.786 10.8173 175.672 14.1644 178.639C17.3646 181.485 21.6533 184.238 26.0959 184.194C27.9605 184.175 27.9605 181.297 26.0959 181.313C21.9307 181.355 17.7282 178.288 14.9639 175.419C11.442 171.772 10.216 166.544 9.6799 161.65C9.11118 156.443 8.95268 150.623 11.6564 145.93C13.9873 141.904 18.7864 139.058 23.4341 140.578C25.2032 141.157 25.9607 138.377 24.2009 137.802H24.2056Z" fill="#400705"/>
<path d="M6.44006 112.927C4.56982 118.583 3.54108 124.483 3.38669 130.437C3.25383 136.254 4.05563 142.346 7.03908 147.449C7.97141 149.048 10.4677 147.601 9.53073 145.995C6.71276 141.178 6.10676 135.414 6.28623 129.939C6.48902 124.414 7.47786 118.946 9.22306 113.7C9.80343 111.934 7.0181 111.177 6.44006 112.934V112.927Z" fill="#400705"/>
<path d="M85.6554 109.074C88.9861 116.343 94.8411 122.542 101.342 127.11C102.921 128.229 104.579 129.231 106.304 130.109C107.752 130.835 109.668 131.987 111.336 131.766C115.39 131.231 113.327 124.064 112.823 121.662L110.413 123.059C129.179 138.197 154.277 139.854 177.401 140.976C179.266 141.067 179.252 138.184 177.401 138.097C155.16 137.025 130.535 135.619 112.453 121.032C111.341 120.134 109.733 120.955 110.043 122.428C110.446 124.362 110.796 126.356 110.812 128.336C110.812 129.178 110.765 128.925 110.022 128.643C109.323 128.38 108.661 128.066 107.999 127.738C105.091 126.282 102.369 124.485 99.8874 122.386C95.0463 118.337 90.7972 113.386 88.147 107.622C87.3755 105.937 84.8839 107.389 85.6554 109.074Z" fill="#400705"/>
<path d="M192.514 115.166C196.637 126.965 197.034 141.036 188.619 151.121C187.44 152.536 189.47 154.584 190.659 153.157C199.749 142.26 199.793 127.268 195.297 114.4C194.689 112.66 191.901 113.409 192.514 115.166Z" fill="#400705"/>
<path d="M45.2133 107.524C42.5818 112.094 37.9504 115.552 33.706 118.528C29.4292 121.546 24.9215 124.224 20.2245 126.537C18.558 127.352 20.0194 129.837 21.6813 129.022C26.6009 126.604 31.3113 123.783 35.7641 120.587C40.2067 117.418 44.9382 113.783 47.7049 108.978C48.6373 107.368 46.1409 105.916 45.2133 107.524Z" fill="#400705"/>
<path d="M1.73879 111.985C13.7169 107.382 25.7066 102.57 38.2255 99.6101C51.438 96.516 64.8793 94.4928 78.4182 93.5601C92.17 92.5921 106.052 92.8621 119.725 94.7236C132.648 96.5264 145.464 99.0221 158.118 102.2C171.04 105.427 183.834 109.381 196.083 114.637C197.77 115.361 199.241 112.881 197.537 112.15C174.59 102.3 149.946 96.5595 125.342 92.6736C98.0134 88.3618 70.4701 90.0907 43.4302 95.5357C28.76 98.4909 14.8963 103.84 0.971943 109.19C-0.743542 109.851 0.00232982 112.636 1.73879 111.968V111.985Z" fill="#400705"/>
<path d="M182.063 165.015C178.771 167.45 176.244 170.773 174.779 174.593C174.506 175.291 175.077 176.205 175.786 176.366C176.611 176.552 177.271 176.115 177.56 175.361C177.604 175.251 177.646 175.142 177.688 175.033C177.704 174.993 177.825 174.707 177.732 174.923C177.816 174.73 177.902 174.537 177.993 174.348C178.182 173.946 178.387 173.55 178.604 173.162C179.039 172.385 179.526 171.639 180.061 170.928L180.093 170.886C180.166 170.795 180.238 170.702 180.312 170.611C180.445 170.448 180.583 170.288 180.72 170.13C181.014 169.795 181.318 169.47 181.632 169.155C181.946 168.84 182.27 168.536 182.606 168.243C182.783 168.089 182.963 167.938 183.144 167.791L183.377 167.617C183.177 167.773 183.529 167.505 183.531 167.5C184.135 167.054 184.503 166.234 184.049 165.532C183.664 164.936 182.722 164.533 182.075 165.015H182.063Z" fill="#400705"/>
<path d="M177.916 172.408L179.634 173.236C179.794 173.34 179.979 173.399 180.17 173.406C180.361 173.45 180.56 173.441 180.746 173.38C180.929 173.339 181.098 173.25 181.235 173.122C181.393 173.023 181.521 172.884 181.608 172.72C181.705 172.553 181.767 172.37 181.792 172.179C181.817 171.989 181.804 171.795 181.753 171.61C181.705 171.43 181.621 171.261 181.508 171.113C181.394 170.966 181.252 170.842 181.091 170.749L179.373 169.92C179.212 169.818 179.028 169.759 178.837 169.75C178.646 169.708 178.447 169.717 178.261 169.776C178.078 169.818 177.91 169.907 177.772 170.034C177.614 170.134 177.486 170.273 177.399 170.437C177.302 170.603 177.24 170.787 177.215 170.977C177.19 171.168 177.204 171.362 177.254 171.547C177.352 171.91 177.59 172.22 177.916 172.408Z" fill="#400705"/>
<path d="M14.831 156.317C15.3694 156.929 15.8962 157.553 16.4043 158.179L16.5884 158.411L16.6817 158.53C16.8029 158.686 16.9148 158.842 17.0406 158.995C17.2924 159.331 17.5418 159.67 17.7842 160.012C18.7445 161.363 19.636 162.761 20.4553 164.201C20.5509 164.364 20.6779 164.507 20.8289 164.621C20.9798 164.736 21.1519 164.819 21.3352 164.867C21.5185 164.915 21.7095 164.927 21.8973 164.901C22.085 164.875 22.2659 164.813 22.4295 164.717C22.5931 164.622 22.7363 164.495 22.8508 164.344C22.9654 164.194 23.049 164.022 23.0971 163.839C23.1451 163.656 23.1566 163.465 23.1308 163.278C23.1051 163.09 23.0426 162.91 22.9469 162.746C21.2146 159.724 19.1787 156.885 16.8705 154.274C16.5991 154.006 16.2326 153.856 15.8507 153.856C15.4689 153.856 15.1024 154.006 14.831 154.274C14.5684 154.548 14.4219 154.913 14.4219 155.292C14.4219 155.671 14.5684 156.036 14.831 156.31V156.317Z" fill="#400705"/>
<path d="M14.4837 161.292C14.959 161.135 15.4451 161.012 15.9382 160.924C16.1712 160.88 16.4276 160.843 16.6747 160.806C16.7796 160.792 16.8868 160.773 16.9917 160.761C16.5861 160.806 16.9917 160.761 17.0826 160.75C18.1516 160.645 19.2083 160.439 20.2385 160.136C20.9541 159.903 21.4948 159.13 21.2478 158.362C21.0147 157.664 20.2385 157.101 19.4717 157.357C18.9961 157.514 18.5101 157.636 18.0173 157.725C17.7842 157.769 17.5278 157.806 17.2807 157.841C17.1758 157.857 17.0709 157.874 16.9637 157.885C17.3693 157.841 16.9637 157.885 16.8728 157.885C15.8036 157.99 14.7468 158.197 13.7169 158.502C13.0013 158.735 12.4606 159.505 12.7076 160.273C12.9407 160.983 13.7169 161.536 14.4837 161.28V161.292Z" fill="#400705"/>
<path d="M45.0035 342.152C45.9606 342.425 46.9777 342.407 47.924 342.098C49.4158 341.563 50.4017 340.374 50.8515 338.871C51.1473 337.767 51.2482 336.619 51.1499 335.481C51.1009 334.729 50.5206 334.003 49.7071 334.04C48.9659 334.073 48.2131 334.675 48.2643 335.481C48.2946 335.973 48.2946 336.466 48.2643 336.958C48.2643 337.054 48.2504 337.151 48.241 337.247L48.227 337.386C48.2061 337.619 48.2527 337.2 48.2527 337.205C48.2504 337.407 48.2134 337.607 48.1431 337.796C48.1058 337.954 48.0615 338.112 48.0103 338.261C47.987 338.329 47.9613 338.394 47.938 338.461C47.8681 338.652 48.0243 338.229 48.0243 338.261C48.0101 338.31 47.9889 338.356 47.9613 338.399C47.9031 338.52 47.8401 338.631 47.7702 338.755L47.6583 338.922C47.4998 339.155 47.8914 338.647 47.7399 338.817C47.663 338.906 47.5884 338.992 47.5068 339.073C47.4695 339.108 47.4299 339.145 47.3903 339.178C47.1432 339.39 47.6443 338.999 47.5022 339.094C47.4121 339.158 47.3187 339.217 47.2224 339.271L47.0966 339.339L47.0313 339.369C46.8612 339.457 47.4252 339.218 47.2458 339.278C47.0598 339.347 46.8689 339.402 46.6747 339.443C46.626 339.448 46.5777 339.457 46.5302 339.469C46.5815 339.448 46.9964 339.418 46.7633 339.436C46.6701 339.436 46.5768 339.45 46.4813 339.453C46.3857 339.455 46.2808 339.453 46.1806 339.453C46.0128 339.453 45.6072 339.366 46.2552 339.474C46.0933 339.45 45.933 339.418 45.775 339.376C45.406 339.274 45.0116 339.323 44.6788 339.512C44.3459 339.701 44.1018 340.014 44.0001 340.382C43.8984 340.751 43.9475 341.144 44.1365 341.477C44.3256 341.809 44.6391 342.053 45.0082 342.154L45.0035 342.152Z" fill="#400705"/>
<path d="M62.1187 313.987C62.1654 314.918 62.2112 315.844 62.2563 316.765C62.3029 317.726 62.3891 318.643 63.1536 319.325C63.8202 319.918 64.7456 320.121 65.587 320.351C66.506 320.613 67.4468 320.792 68.398 320.886C70.1601 321.042 71.8942 320.6 73.2391 319.436C73.8748 318.908 74.3567 318.219 74.6342 317.441C74.9118 316.664 74.975 315.826 74.8171 315.015C74.6632 314.254 73.7565 313.815 73.0433 314.01C72.6786 314.118 72.3699 314.363 72.1818 314.693C71.9936 315.023 71.9407 315.413 72.0341 315.781C72.1063 316.132 72.083 315.595 72.048 315.941C72.048 316.014 71.9851 316.386 72.048 316.093C72.0224 316.202 71.9921 316.307 71.9618 316.416C71.9315 316.525 72.048 316.283 71.9268 316.509C71.8616 316.63 71.7916 316.742 71.7194 316.863C71.5306 317.172 71.8616 316.751 71.6028 317.014C71.5213 317.098 71.442 317.184 71.3558 317.265C71.3045 317.314 71.1227 317.479 71.2649 317.361C71.036 317.533 70.7899 317.681 70.5307 317.803C70.7078 317.717 70.4887 317.817 70.4141 317.842C70.3022 317.88 70.1811 317.912 70.0738 317.94C69.4602 318.067 68.8291 318.085 68.2092 317.994C67.6103 317.902 67.0179 317.772 66.4354 317.605C66.1114 317.517 65.7875 317.424 65.4658 317.326C65.3243 317.291 65.1856 317.246 65.0509 317.191C65.2374 317.279 64.9787 317.063 65.0509 317.177C65.0887 317.238 65.1316 317.295 65.1791 317.349C65.1441 317.191 65.1372 317.158 65.1581 317.249C65.1791 317.34 65.1768 317.307 65.1581 317.144C65.1581 316.807 65.1255 316.463 65.1092 316.125L65.0043 313.996C64.9966 313.616 64.8421 313.255 64.5732 312.986C64.3042 312.718 63.9417 312.563 63.5615 312.556C62.811 312.556 62.0814 313.214 62.1187 313.996V313.987Z" fill="#400705"/>
<path d="M120.04 314.436C119.473 316.328 120.96 318.171 122.771 318.587C123.679 318.76 124.611 318.769 125.522 318.613C126.359 318.525 127.189 318.386 128.009 318.196C129.58 317.794 131.13 316.926 131.871 315.422C132.612 313.919 132.584 312.102 131.388 310.82C131.116 310.553 130.749 310.404 130.368 310.404C129.986 310.404 129.619 310.553 129.347 310.82C129.083 311.094 128.936 311.459 128.936 311.839C128.936 312.219 129.083 312.584 129.347 312.858C129.561 313.091 129.277 312.665 129.4 312.921C129.473 313.072 129.496 313.193 129.44 312.975C129.468 313.079 129.494 313.189 129.521 313.293C129.435 312.979 129.521 313.237 129.507 313.354C129.493 313.47 129.449 313.766 129.521 313.426C129.496 313.54 129.477 313.659 129.445 313.763C129.412 313.877 129.374 313.989 129.33 314.098C129.426 313.866 129.33 314.075 129.27 314.178C129.122 314.458 128.9 314.692 128.626 314.852C128.505 314.929 128.379 315.001 128.251 315.066L128.058 315.162C128.16 315.122 128.165 315.12 128.072 315.162C127.801 315.267 127.524 315.354 127.242 315.425C126.692 315.559 126.135 315.661 125.573 315.732C125.846 315.695 125.361 315.758 125.363 315.758L124.897 315.813C124.58 315.848 124.261 315.862 123.941 315.855C123.941 315.855 123.487 315.811 123.708 315.855C123.55 315.829 123.394 315.79 123.242 315.739C123.452 315.809 123.158 315.688 123.105 315.66C122.872 315.543 123.182 315.79 123 315.576C122.949 315.518 122.767 315.234 122.904 315.483C122.883 315.446 122.743 315.15 122.809 315.329C122.874 315.509 122.809 314.99 122.79 315.232C122.806 315.343 122.813 315.329 122.809 315.185C122.781 315.371 122.788 315.381 122.827 315.215C122.884 315.031 122.902 314.838 122.883 314.646C122.863 314.455 122.805 314.269 122.712 314.101C122.619 313.932 122.493 313.784 122.342 313.664C122.191 313.545 122.017 313.457 121.831 313.406C121.645 313.355 121.451 313.341 121.26 313.366C121.069 313.391 120.884 313.454 120.718 313.552C120.552 313.649 120.407 313.779 120.291 313.933C120.176 314.087 120.093 314.263 120.047 314.45L120.04 314.436Z" fill="#400705"/>
<path d="M120.592 315.581C115.497 316.432 110.374 317.072 105.223 317.5C104.446 317.566 103.78 318.117 103.78 318.941C103.78 319.671 104.442 320.446 105.223 320.381C110.629 319.934 116.007 319.26 121.359 318.357C122.128 318.229 122.557 317.279 122.366 316.586C122.133 315.771 121.364 315.45 120.592 315.581Z" fill="#400705"/>
<path d="M84.4783 318.073C80.5765 317.956 76.6817 317.724 72.7939 317.375C72.0177 317.303 71.3511 318.087 71.3511 318.815C71.3511 319.653 72.0154 320.183 72.7939 320.255C76.6786 320.612 80.5734 320.845 84.4783 320.954C86.343 321.009 86.343 318.129 84.4783 318.073Z" fill="#400705"/>
<path d="M131.785 316.57C136.679 315.578 141.602 314.582 146.343 312.977C148.583 312.218 150.974 311.395 153.021 310.185C153.874 309.684 154.575 308.958 154.671 307.934C154.783 306.771 154.177 305.487 153.846 304.384C153.314 302.613 150.529 303.367 151.065 305.149L151.499 306.599C151.571 306.831 151.646 307.08 151.718 307.322C151.778 307.69 151.811 307.768 151.816 307.555C151.681 307.818 150.837 308.074 150.59 308.19C150.11 308.423 149.627 308.639 149.138 308.849C147.232 309.652 145.282 310.344 143.297 310.922C139.264 312.123 135.139 312.961 131.018 313.794C129.2 314.161 129.969 316.937 131.785 316.57Z" fill="#400705"/>
<path d="M46.6561 316.251C52.1218 317.621 57.6436 319.106 63.3215 319.059C65.1861 319.043 65.1861 316.162 63.3215 316.179C57.8976 316.223 52.644 314.783 47.4252 313.473C45.6235 313.021 44.8613 315.799 46.6561 316.251Z" fill="#400705"/>
<path d="M82.9702 315.392C81.947 317.61 82.5507 320.328 84.6788 321.675C85.9304 322.471 87.5014 322.485 88.9325 322.582C90.5851 322.694 92.2376 322.799 93.8901 322.836C96.9971 322.911 100.433 322.922 103.447 322.022C106.46 321.121 107.176 318.515 106.896 315.644C106.712 313.817 103.824 313.798 104.011 315.644C104.092 316.444 104.244 317.386 103.969 318.166C103.652 319.073 102.74 319.257 101.885 319.432C99.5377 319.897 97.1137 319.997 94.7269 319.972C92.4124 319.946 90.0793 319.832 87.7741 319.618C86.9466 319.541 86.1425 319.418 85.6647 318.671C85.4869 318.404 85.3764 318.099 85.3427 317.78C85.309 317.462 85.3531 317.14 85.4712 316.842C86.245 315.171 83.7581 313.705 82.9796 315.388L82.9702 315.392Z" fill="#400705"/>
<path d="M46.1316 305.722C44.3369 308.379 44.4022 312.258 46.3647 314.81C46.566 315.125 46.8712 315.358 47.2271 315.471C47.6023 315.571 48.0016 315.519 48.3389 315.327C48.9286 314.948 49.3482 313.994 48.8564 313.356C48.6597 313.102 48.4829 312.834 48.3273 312.553C48.2527 312.421 48.1921 312.283 48.1222 312.151C48.0266 311.967 48.2387 312.467 48.1222 312.13L48.0452 311.918C47.9408 311.614 47.8582 311.303 47.7982 310.987C47.7842 310.913 47.7725 310.838 47.7586 310.755C47.7189 310.548 47.7772 311.011 47.7586 310.801C47.7586 310.631 47.7282 310.461 47.7236 310.292C47.717 309.99 47.7279 309.687 47.7562 309.386C47.7772 309.103 47.7189 309.554 47.7562 309.386C47.7702 309.314 47.7819 309.238 47.7958 309.154C47.8238 309.005 47.8588 308.858 47.8984 308.712C47.938 308.565 47.9916 308.386 48.0499 308.228C48.0732 308.155 48.1035 308.086 48.1291 308.016C48.0919 308.123 48.0452 308.197 48.1291 308.048C48.2744 307.742 48.4427 307.446 48.6326 307.164C48.8228 306.834 48.8751 306.442 48.7783 306.073C48.6815 305.704 48.4433 305.388 48.1152 305.193C47.7827 305.009 47.3921 304.961 47.0244 305.057C46.6567 305.153 46.3403 305.387 46.141 305.71L46.1316 305.722Z" fill="#400705"/>
<path d="M63.6058 390.356C64.5381 393.323 64.333 396.113 63.2911 399.015C62.4357 401.388 62.0698 403.72 63.7247 405.846C65.2653 407.827 67.6404 408.639 70.0668 408.858C73.0969 409.132 76.2062 408.858 79.2316 408.788C82.4552 408.72 85.6787 408.66 88.9022 408.588C91.0303 408.541 93.4496 408.457 94.9857 406.756C96.8293 404.716 95.7991 402.028 95.2723 399.703C94.6151 396.799 94.7572 393.781 94.8668 390.829C94.9367 388.967 92.0512 388.967 91.9836 390.829C91.8903 393.29 91.8111 395.757 92.1118 398.21C92.2533 399.314 92.4666 400.407 92.7504 401.483C93.0231 402.547 93.6408 404.115 92.6805 404.997C91.3403 406.228 88.1144 405.723 86.4828 405.758L78.6279 405.919C76.127 405.97 73.605 406.116 71.1041 406.037C69.0763 405.974 66.3585 405.483 65.5381 403.305C65.0999 402.142 65.6779 400.872 66.0718 399.78C66.4508 398.79 66.7372 397.768 66.9272 396.725C67.3183 394.338 67.1329 391.892 66.3865 389.591C65.8271 387.829 63.0417 388.583 63.6058 390.356Z" fill="#400705"/>
<path d="M92.4754 392.411C83.6568 391.966 74.8204 392.009 66.0066 392.539C64.1629 392.648 64.1419 395.529 66.0066 395.417C74.8205 394.889 83.6568 394.847 92.4754 395.292C94.34 395.385 94.326 392.499 92.4754 392.411Z" fill="#400705"/>
<path d="M66.9366 406.873C75.4277 403.286 84.9046 402.761 93.741 405.388C95.5241 405.914 96.2863 403.136 94.5078 402.61C84.9183 399.802 74.6475 400.431 65.4728 404.385C63.7713 405.114 65.2397 407.596 66.9296 406.873H66.9366Z" fill="#400705"/>
<path d="M69.92 394.382C69.8563 397.163 70.1002 399.943 70.6472 402.67C70.7964 403.41 71.7194 403.904 72.4233 403.675C72.7869 403.566 73.0943 403.321 73.2818 402.991C73.4693 402.662 73.5225 402.272 73.4302 401.905C72.9395 399.428 72.73 396.905 72.8055 394.382C72.8025 394.001 72.6495 393.636 72.3796 393.367C72.1097 393.097 71.7445 392.944 71.3628 392.941C70.9824 392.949 70.6195 393.103 70.3505 393.371C70.0815 393.64 69.9271 394.002 69.92 394.382Z" fill="#400705"/>
<path d="M85.723 394.973C85.6507 397.372 85.6647 399.771 85.5901 402.17C85.5931 402.551 85.7461 402.916 86.0161 403.185C86.286 403.455 86.6512 403.607 87.0329 403.61C87.4133 403.603 87.7761 403.449 88.0451 403.181C88.3142 402.912 88.4685 402.55 88.4757 402.17C88.5479 399.771 88.5363 397.372 88.6085 394.973C88.6055 394.592 88.4525 394.227 88.1826 393.958C87.9127 393.688 87.5474 393.536 87.1657 393.532C86.7857 393.541 86.4235 393.695 86.1547 393.964C85.8859 394.232 85.7313 394.593 85.723 394.973Z" fill="#400705"/>
<path d="M72.4023 400.678C77.064 400.045 81.7419 400.446 86.4129 400.236C87.3452 400.194 87.3452 398.754 86.4129 398.796C81.6067 399.029 76.8053 398.638 72.0201 399.289C71.1041 399.415 71.4933 400.802 72.4023 400.685V400.678Z" fill="#400705"/>
<path d="M72.1343 397.902C76.7978 397.518 81.4781 397.374 86.1565 397.472C87.0888 397.493 87.0888 396.052 86.1565 396.032C81.4781 395.934 76.7978 396.078 72.1343 396.462C71.2159 396.536 71.2019 397.977 72.1343 397.902Z" fill="#400705"/>
<path d="M143.078 390.612C142.361 392.827 142.163 395.178 142.499 397.481C142.685 398.616 142.984 399.729 143.392 400.804C143.791 401.912 144.352 403.147 143.926 404.329C143.138 406.512 140.362 406.994 138.36 407.061C135.859 407.143 133.337 406.994 130.838 406.94L122.981 406.78C121.336 406.747 118.135 407.259 116.786 406.021C115.83 405.144 116.443 403.552 116.714 402.507C116.978 401.519 117.179 400.515 117.317 399.501C117.653 396.96 117.578 394.405 117.483 391.85C117.413 390.003 114.527 389.989 114.597 391.85C114.707 394.805 114.849 397.821 114.192 400.725C113.665 403.052 112.635 405.737 114.481 407.78C116.014 409.481 118.443 409.563 120.564 409.611C123.787 409.681 127.01 409.747 130.232 409.809C133.262 409.872 136.379 410.156 139.397 409.881C141.826 409.649 144.199 408.851 145.739 406.856C147.394 404.732 147.028 402.4 146.175 400.027C145.131 397.123 144.914 394.335 145.861 391.366C146.422 389.595 143.639 388.839 143.078 390.601V390.612Z" fill="#400705"/>
<path d="M116.991 396.313C125.809 395.869 134.644 395.912 143.457 396.441C145.322 396.553 145.306 393.672 143.457 393.56C134.644 393.032 125.809 392.99 116.991 393.435C115.143 393.528 115.126 396.409 116.991 396.313Z" fill="#400705"/>
<path d="M143.984 405.409C134.81 401.452 124.538 400.824 114.949 403.634C113.173 404.157 113.931 406.938 115.716 406.41C124.553 403.784 134.029 404.309 142.52 407.894C144.208 408.618 145.679 406.137 143.975 405.409H143.984Z" fill="#400705"/>
<path d="M136.658 395.403C136.734 397.926 136.525 400.45 136.034 402.926C135.889 403.664 136.244 404.518 137.043 404.699C137.759 404.862 138.661 404.483 138.817 403.692C139.366 400.964 139.61 398.184 139.544 395.403C139.525 394.652 138.894 393.928 138.101 393.963C137.72 393.969 137.357 394.123 137.088 394.391C136.818 394.66 136.664 395.023 136.658 395.403Z" fill="#400705"/>
<path d="M120.855 395.997C120.93 398.393 120.916 400.795 120.991 403.192C121.012 403.945 121.636 404.669 122.431 404.632C123.226 404.595 123.899 403.999 123.874 403.192C123.802 400.795 123.813 398.393 123.741 395.997C123.718 395.243 123.093 394.519 122.298 394.556C121.917 394.562 121.553 394.715 121.284 394.984C121.015 395.253 120.861 395.616 120.855 395.997Z" fill="#400705"/>
<path d="M137.451 400.318C132.666 399.666 127.862 400.045 123.056 399.824C122.123 399.78 122.123 401.221 123.056 401.265C127.717 401.481 132.419 401.072 137.066 401.705C137.975 401.83 138.367 400.441 137.451 400.308V400.318Z" fill="#400705"/>
<path d="M137.33 397.484C132.667 397.1 127.987 396.957 123.31 397.055C122.377 397.074 122.377 398.514 123.31 398.496C127.987 398.398 132.667 398.54 137.33 398.924C138.262 399.001 138.262 397.56 137.33 397.484Z" fill="#400705"/>
<path d="M179.133 248.237C181.883 245.91 182.277 241.517 186.109 240.389C189.244 239.458 192.973 241.117 196.003 241.82C198.138 242.32 200.307 242.663 202.492 242.846C204.077 242.976 206.003 242.995 207.415 243.816C209.937 245.287 203.525 248.638 202.476 249.275C201.029 250.155 199.912 250.985 198.863 252.326C197.08 254.615 195.4 256.98 193.624 259.274C192.5 260.721 194.528 262.764 195.663 261.31C197.421 259.039 199.094 256.703 200.849 254.432C202.001 252.945 203.231 252.191 204.83 251.218C207.341 249.692 212.322 246.897 210.671 243.218C208.968 239.423 202.576 240.147 199.25 239.553C195.246 238.855 191.046 236.924 186.923 237.329C184.922 237.538 183.053 238.425 181.627 239.842C179.695 241.703 179.142 244.477 177.105 246.199C175.686 247.4 177.734 249.429 179.145 248.237H179.133Z" fill="#400705"/>
<path d="M129.864 229.308C132.647 228.661 135.582 229.878 137.989 231.169C141.616 233.131 144.83 235.795 147.795 238.637C154.375 244.945 160.055 252.431 164.09 260.612C164.621 261.689 165.985 261.389 166.582 260.612C169.411 256.921 172.315 253.289 175.206 249.654C176.35 248.219 174.322 246.164 173.164 247.618C170.11 251.444 167.059 255.274 164.074 259.158H166.565C162.218 250.343 155.948 242.204 148.709 235.56C143.798 231.053 136.334 224.829 129.081 226.52C127.275 226.941 128.039 229.72 129.848 229.296L129.864 229.308Z" fill="#400705"/>
<path d="M174.112 248.714C179.226 253.229 184.767 257.149 190.349 261.047C191.535 261.878 192.719 262.715 193.885 263.576C194.738 264.205 195.619 264.572 196.703 264.491C197.787 264.409 198.889 263.879 199.267 262.783C199.71 261.494 198.929 260.328 198.12 259.39C196.908 257.994 194.875 260.028 196.08 261.426C196.198 261.618 196.333 261.799 196.484 261.966L196.537 262.157C196.512 262.088 196.505 262.014 196.519 261.942C196.532 261.869 196.565 261.802 196.614 261.747C196.71 261.408 196.847 261.633 196.528 261.622C195.845 261.596 195.554 261.243 194.845 260.726C192.98 259.36 191.064 258.045 189.165 256.719C184.662 253.575 180.273 250.304 176.152 246.669C174.765 245.445 172.716 247.476 174.112 248.705V248.714Z" fill="#400705"/>
<path d="M183.718 241.934C185.431 239.937 187.275 237.687 189.927 236.982C190.964 236.708 192.099 236.705 193.053 237.233C193.82 237.655 194.551 238.425 194.647 239.265C194.736 240.037 195.246 240.705 196.09 240.705C196.789 240.705 197.621 240.042 197.533 239.265C197.129 235.719 193.768 233.557 190.33 233.99C186.601 234.455 183.995 237.192 181.678 239.895C181.172 240.486 181.098 241.352 181.678 241.934C182.198 242.45 183.21 242.527 183.718 241.934Z" fill="#400705"/>
<path d="M196.815 262.085C191.766 270.178 186.99 278.648 179.897 285.17C176.252 288.521 171.796 291.569 166.721 292.028C161.225 292.523 156.07 290.087 151.804 286.829C150.331 285.703 148.891 288.204 150.347 289.317C154.832 292.737 160.37 295.25 166.122 294.95C171.441 294.671 176.161 292.062 180.189 288.735C188.424 281.933 193.736 272.47 199.302 263.539C200.285 261.961 197.791 260.514 196.81 262.085H196.815Z" fill="#400705"/>
<path d="M163.808 259.258C163.701 259.43 163.589 259.6 163.472 259.763L163.402 259.86C163.535 259.679 163.323 259.958 163.295 259.991C163.062 260.277 162.808 260.551 162.549 260.819C162.018 261.366 161.451 261.878 160.894 262.399C159.776 263.448 158.643 264.586 157.997 266.001C157.687 266.685 157.778 267.583 158.515 267.972C159.149 268.305 160.146 268.188 160.489 267.455C160.64 267.123 160.817 266.804 161.02 266.501C161.064 266.434 161.111 266.369 161.158 266.306L161.242 266.19C161.307 266.103 161.279 266.136 161.162 266.29C161.257 266.138 161.371 266 161.503 265.88C162.002 265.326 162.53 264.798 163.083 264.298C164.262 263.197 165.439 262.092 166.299 260.712C166.488 260.381 166.54 259.99 166.443 259.621C166.347 259.253 166.109 258.937 165.782 258.741C165.45 258.556 165.059 258.506 164.691 258.603C164.323 258.699 164.006 258.934 163.808 259.258Z" fill="#400705"/>
<path d="M179.184 252.079C177.819 253.416 176.598 254.892 175.539 256.482C175.349 256.812 175.296 257.204 175.393 257.573C175.49 257.942 175.728 258.258 176.056 258.453C176.389 258.636 176.779 258.685 177.147 258.589C177.515 258.493 177.831 258.259 178.031 257.936C178.362 257.441 178.709 256.958 179.072 256.486L178.839 256.777C179.569 255.836 180.364 254.947 181.217 254.115C181.484 253.844 181.634 253.478 181.634 253.097C181.634 252.716 181.484 252.351 181.217 252.079C180.943 251.815 180.577 251.668 180.197 251.668C179.817 251.668 179.451 251.815 179.177 252.079H179.184Z" fill="#400705"/>
<path d="M183.07 256.084L180.121 260.454C179.93 260.784 179.878 261.176 179.975 261.545C180.072 261.914 180.31 262.23 180.639 262.425C180.971 262.608 181.362 262.657 181.729 262.561C182.097 262.465 182.414 262.231 182.613 261.908L185.561 257.538C185.983 256.912 185.701 255.909 185.044 255.567C184.711 255.383 184.321 255.334 183.953 255.431C183.586 255.527 183.269 255.761 183.07 256.084Z" fill="#400705"/>
<path d="M188.624 259.649L186.659 262.227C186.481 262.568 186.43 262.961 186.515 263.337C186.618 263.697 186.855 264.005 187.177 264.198C187.343 264.294 187.527 264.357 187.718 264.381C187.909 264.406 188.103 264.393 188.288 264.342L188.633 264.198C188.847 264.073 189.026 263.895 189.151 263.681L191.116 261.096C191.22 260.935 191.279 260.75 191.288 260.558C191.33 260.369 191.321 260.171 191.263 259.986C191.159 259.625 190.922 259.317 190.598 259.125C190.432 259.029 190.248 258.966 190.057 258.941C189.866 258.916 189.672 258.929 189.486 258.978L189.142 259.125C188.928 259.25 188.749 259.428 188.624 259.642V259.649Z" fill="#400705"/>
<path d="M41.7893 326.217C41.7054 327.368 41.6207 328.521 41.5352 329.675C41.5354 329.96 41.6202 330.238 41.7789 330.475C41.9376 330.712 42.1631 330.896 42.4268 331.005C42.6905 331.114 42.9806 331.142 43.2605 331.086C43.5403 331.031 43.7973 330.893 43.9989 330.692C44.256 330.413 44.4056 330.053 44.4208 329.675C44.5047 328.521 44.5894 327.368 44.6749 326.217C44.6741 325.835 44.5216 325.468 44.2506 325.198C43.9801 324.928 43.6133 324.776 43.2309 324.776C42.8485 324.776 42.4817 324.928 42.2112 325.198C41.9539 325.477 41.8044 325.838 41.7893 326.217Z" fill="#400705"/>
<path d="M114.744 223.076C114.786 224.921 115.05 226.754 115.53 228.535C115.631 228.904 115.875 229.217 116.208 229.406C116.541 229.594 116.935 229.643 117.304 229.542C117.674 229.44 117.987 229.197 118.176 228.864C118.365 228.532 118.414 228.138 118.313 227.77C118.067 226.864 117.88 225.943 117.755 225.012C117.772 225.14 117.79 225.268 117.807 225.396C117.707 224.624 117.648 223.848 117.63 223.069C117.613 222.316 116.979 221.594 116.187 221.629C115.806 221.635 115.442 221.788 115.173 222.057C114.903 222.326 114.749 222.689 114.744 223.069V223.076Z" fill="#400705"/>
</svg>
