<svg width="314" height="84" viewBox="0 0 314 84" fill="none" xmlns="http://www.w3.org/2000/svg">
<path d="M168.458 12.9091C171.799 12.9091 174.604 13.9964 176.873 16.1709C179.142 18.3455 180.276 21.1188 180.276 24.4909C180.276 27.863 179.142 30.6364 176.873 32.8109C174.604 34.9855 171.799 36.0727 168.458 36.0727H164.062V46H155.6V12.9091H168.458ZM168.458 28.0364C169.404 28.0364 170.192 27.7055 170.822 27.0436C171.484 26.3818 171.815 25.5309 171.815 24.4909C171.815 23.4509 171.484 22.6158 170.822 21.9855C170.192 21.3236 169.404 20.9927 168.458 20.9927H164.062V28.0364H168.458ZM193.717 46.6618C190.218 46.6618 187.24 45.4642 184.782 43.0691C182.324 40.6424 181.095 37.68 181.095 34.1818C181.095 30.6836 182.324 27.737 184.782 25.3418C187.24 22.9152 190.218 21.7018 193.717 21.7018C197.246 21.7018 200.224 22.9152 202.651 25.3418C205.109 27.737 206.338 30.6836 206.338 34.1818C206.338 37.68 205.109 40.6424 202.651 43.0691C200.224 45.4642 197.246 46.6618 193.717 46.6618ZM193.717 39.0982C195.103 39.0982 196.238 38.6412 197.12 37.7273C198.034 36.8133 198.491 35.6315 198.491 34.1818C198.491 32.7321 198.034 31.5503 197.12 30.6364C196.238 29.7224 195.103 29.2655 193.717 29.2655C192.361 29.2655 191.227 29.7224 190.313 30.6364C189.431 31.5503 188.989 32.7321 188.989 34.1818C188.989 35.6315 189.431 36.8133 190.313 37.7273C191.227 38.6412 192.361 39.0982 193.717 39.0982ZM209.79 46V11.4909H217.637V46H209.79Z" fill="url(#paint0_linear_103_199)"/>
<path d="M241.073 12.9091C245.642 12.9091 249.456 14.5006 252.513 17.6836C255.601 20.8352 257.145 24.7588 257.145 29.4545C257.145 34.1503 255.601 38.0897 252.513 41.2727C249.456 44.4242 245.642 46 241.073 46H227.6V12.9091H241.073ZM241.073 37.8218C243.373 37.8218 245.248 37.0655 246.698 35.5527C248.148 34.0085 248.873 31.9758 248.873 29.4545C248.873 26.9333 248.148 24.9164 246.698 23.4036C245.248 21.8594 243.373 21.0873 241.073 21.0873H236.298V37.8218H241.073ZM272.226 46.6618C268.728 46.6618 265.749 45.4642 263.291 43.0691C260.833 40.6424 259.604 37.68 259.604 34.1818C259.604 30.6836 260.833 27.737 263.291 25.3418C265.749 22.9152 268.728 21.7018 272.226 21.7018C275.756 21.7018 278.734 22.9152 281.16 25.3418C283.619 27.737 284.848 30.6836 284.848 34.1818C284.848 37.68 283.619 40.6424 281.16 43.0691C278.734 45.4642 275.756 46.6618 272.226 46.6618ZM272.226 39.0982C273.612 39.0982 274.747 38.6412 275.629 37.7273C276.543 36.8133 277 35.6315 277 34.1818C277 32.7321 276.543 31.5503 275.629 30.6364C274.747 29.7224 273.612 29.2655 272.226 29.2655C270.871 29.2655 269.736 29.7224 268.822 30.6364C267.94 31.5503 267.499 32.7321 267.499 34.1818C267.499 35.6315 267.94 36.8133 268.822 37.7273C269.736 38.6412 270.871 39.0982 272.226 39.0982ZM302.717 21.7018C305.27 21.7018 307.35 22.5842 308.957 24.3491C310.596 26.0824 311.415 28.5879 311.415 31.8655V46H303.568V32.8582C303.568 31.6291 303.237 30.6994 302.575 30.0691C301.945 29.4388 301.094 29.1236 300.023 29.1236C298.793 29.1236 297.832 29.5018 297.139 30.2582C296.477 30.983 296.146 32.0388 296.146 33.4255V46H288.299V22.3636H296.146V24.7273C297.564 22.7103 299.755 21.7018 302.717 21.7018Z" fill="white"/>
<path d="M34.4497 13.3358V46.4268H31.1406V18.3468L19.5588 37.7286H19.0861L7.50427 18.3468V46.4268H4.19518V13.3358H8.30791L19.3225 31.7722L30.337 13.3358H34.4497ZM61.8587 22.7904H64.9787V46.4268H61.8587V41.794C59.6841 45.2607 56.5011 46.994 52.3096 46.994C48.9375 46.994 46.0538 45.7965 43.6587 43.4013C41.295 41.0062 40.1132 38.0752 40.1132 34.6086C40.1132 31.1419 41.295 28.211 43.6587 25.8158C46.0538 23.4207 48.9375 22.2231 52.3096 22.2231C56.5011 22.2231 59.6841 23.9565 61.8587 27.4231V22.7904ZM45.9278 41.274C47.7241 43.0704 49.9302 43.9686 52.5459 43.9686C55.1617 43.9686 57.3678 43.0704 59.1641 41.274C60.9605 39.4462 61.8587 37.2243 61.8587 34.6086C61.8587 31.9928 60.9605 29.7868 59.1641 27.9904C57.3678 26.1625 55.1617 25.2486 52.5459 25.2486C49.9302 25.2486 47.7241 26.1625 45.9278 27.9904C44.1314 29.7868 43.2332 31.9928 43.2332 34.6086C43.2332 37.2243 44.1314 39.4462 45.9278 41.274ZM74.0428 28.9831C74.0428 30.0546 74.5156 30.9055 75.461 31.5358C76.4065 32.1662 77.5568 32.6546 78.9119 33.0013C80.2671 33.348 81.6222 33.7419 82.9774 34.1831C84.3325 34.5928 85.4828 35.3019 86.4283 36.3104C87.3738 37.2874 87.8465 38.5795 87.8465 40.1868C87.8465 42.2037 87.0428 43.8425 85.4356 45.1031C83.8598 46.3637 81.8113 46.994 79.2901 46.994C77.021 46.994 75.0828 46.4898 73.4756 45.4813C71.8998 44.4728 70.7968 43.1649 70.1665 41.5577L72.8138 39.9977C73.255 41.2268 74.0428 42.2037 75.1774 42.9286C76.3435 43.6219 77.7144 43.9686 79.2901 43.9686C80.8344 43.9686 82.1265 43.6692 83.1665 43.0704C84.2065 42.4401 84.7265 41.4789 84.7265 40.1868C84.7265 39.1152 84.2538 38.2643 83.3083 37.634C82.3628 37.0037 81.2125 36.5152 79.8574 36.1686C78.5022 35.8219 77.1471 35.4437 75.7919 35.034C74.4368 34.5928 73.2865 33.8837 72.341 32.9068C71.3956 31.8983 70.9228 30.5904 70.9228 28.9831C70.9228 27.0607 71.6792 25.4534 73.1919 24.1613C74.7362 22.8692 76.6744 22.2231 79.0065 22.2231C80.9289 22.2231 82.615 22.6643 84.0647 23.5468C85.5144 24.3977 86.5859 25.5637 87.2792 27.0449L84.6792 28.5577C83.7653 26.3516 81.8744 25.2486 79.0065 25.2486C77.6513 25.2486 76.4853 25.5795 75.5083 26.2413C74.5313 26.8716 74.0428 27.7855 74.0428 28.9831ZM104.655 25.8158H97.848V40.1395C97.848 41.4316 98.1001 42.3613 98.6043 42.9286C99.1086 43.4643 99.865 43.748 100.873 43.7795C101.882 43.7795 103.143 43.748 104.655 43.6849V46.4268C101.346 46.931 98.8565 46.6946 97.1862 45.7177C95.5474 44.7407 94.728 42.8813 94.728 40.1395V25.8158H89.7643V22.7904H94.728V17.1177L97.848 16.1722V22.7904H104.655V25.8158ZM119.344 22.2231C122.842 22.2231 125.663 23.468 127.806 25.9577C129.981 28.4158 131.068 31.331 131.068 34.7031C131.068 35.0498 131.036 35.5383 130.973 36.1686H110.221C110.536 38.5637 111.544 40.4704 113.246 41.8886C114.979 43.2752 117.107 43.9686 119.628 43.9686C121.424 43.9686 122.968 43.6062 124.261 42.8813C125.584 42.1249 126.577 41.148 127.239 39.9504L129.981 41.5577C128.941 43.228 127.522 44.5516 125.726 45.5286C123.93 46.5055 121.881 46.994 119.581 46.994C115.862 46.994 112.836 45.828 110.504 43.4958C108.172 41.1637 107.006 38.2013 107.006 34.6086C107.006 31.0789 108.156 28.1322 110.457 25.7686C112.757 23.4049 115.72 22.2231 119.344 22.2231ZM119.344 25.2486C116.886 25.2486 114.822 25.9892 113.151 27.4704C111.513 28.9201 110.536 30.811 110.221 33.1431H127.853C127.538 30.6534 126.577 28.7152 124.97 27.3286C123.362 25.9419 121.487 25.2486 119.344 25.2486ZM139.151 26.714C140.6 23.8462 143.09 22.4122 146.62 22.4122V25.4377C144.477 25.4377 142.696 26.068 141.278 27.3286C139.86 28.5892 139.151 30.5746 139.151 33.2849V46.4268H136.031V22.7904H139.151V26.714Z" fill="#67EEE0"/>
<path d="M14.8097 67.6235V78.6538H13.6846V68.7045H6.8017V78.6538H5.69867V67.6235H14.8097ZM29.3561 67.3808C30.9444 67.3808 32.2901 67.9397 33.3932 69.0574C34.5109 70.1605 35.0698 71.5209 35.0698 73.1387C35.0698 74.7564 34.5109 76.1242 33.3932 77.2419C32.2901 78.345 30.9444 78.8965 29.3561 78.8965C28.3119 78.8965 27.3706 78.6465 26.5323 78.1464C25.7087 77.6464 25.069 76.9625 24.613 76.0948V83.0659H23.51V67.6235H24.613V70.1825C25.069 69.3148 25.7087 68.6309 26.5323 68.1309C27.3706 67.6309 28.3119 67.3808 29.3561 67.3808ZM25.9587 76.4698C26.8706 77.3816 27.981 77.8376 29.2899 77.8376C30.5988 77.8376 31.7019 77.3816 32.599 76.4698C33.5108 75.558 33.9667 74.4476 33.9667 73.1387C33.9667 71.8297 33.5108 70.7193 32.599 69.8075C31.7019 68.8957 30.5988 68.4397 29.2899 68.4397C27.981 68.4397 26.8706 68.8957 25.9587 69.8075C25.0616 70.7193 24.613 71.8297 24.613 73.1387C24.613 74.4476 25.0616 75.558 25.9587 76.4698ZM48.0752 78.8965C46.4574 78.8965 45.0823 78.345 43.9499 77.2419C42.8321 76.1242 42.2733 74.7564 42.2733 73.1387C42.2733 71.5209 42.8321 70.1605 43.9499 69.0574C45.0823 67.9397 46.4574 67.3808 48.0752 67.3808C49.6783 67.3808 51.0387 67.9397 52.1564 69.0574C53.2888 70.1605 53.8551 71.5209 53.8551 73.1387C53.8551 74.7564 53.2888 76.1242 52.1564 77.2419C51.0387 78.345 49.6783 78.8965 48.0752 78.8965ZM44.744 76.4698C45.6559 77.3816 46.7663 77.8376 48.0752 77.8376C49.3841 77.8376 50.4872 77.3816 51.3843 76.4698C52.2814 75.558 52.73 74.4476 52.73 73.1387C52.73 71.8297 52.2814 70.7193 51.3843 69.8075C50.4872 68.8957 49.3841 68.4397 48.0752 68.4397C46.7663 68.4397 45.6559 68.8957 44.744 69.8075C43.8469 70.7193 43.3983 71.8297 43.3983 73.1387C43.3983 74.4476 43.8469 75.558 44.744 76.4698ZM72.4594 67.6235V78.6538H71.3343V69.3001L67.209 75.808H67.0546L62.9072 69.256V78.6538H61.8041V67.6235H63.1057L67.1207 73.9549L71.1358 67.6235H72.4594ZM85.5131 71.9033C86.5279 71.9033 87.3882 72.2195 88.0942 72.8519C88.8001 73.4843 89.1531 74.2932 89.1531 75.2785C89.1531 76.2639 88.8001 77.0728 88.0942 77.7052C87.3882 78.3376 86.5279 78.6538 85.5131 78.6538H81.1451V67.6235H82.2481V71.9033H85.5131ZM90.8517 67.6235H91.9548V78.6538H90.8517V67.6235ZM85.5131 77.5728C86.219 77.5728 86.8146 77.3596 87.3 76.9331C87.7853 76.5066 88.028 75.9551 88.028 75.2785C88.028 74.5873 87.7853 74.0358 87.3 73.624C86.8294 73.1975 86.2337 72.9842 85.5131 72.9842H82.2481V77.5728H85.5131ZM114.138 67.6235H115.263V78.6538H100.637V67.6235H101.74V77.5728H107.387V67.6235H108.512V77.5728H114.138V67.6235ZM132.92 67.6235V78.6538H131.817V68.7045H126.258V74.0211C126.258 75.8153 125.927 77.0581 125.265 77.7493C124.603 78.4406 123.699 78.7421 122.551 78.6538V77.617C123.434 77.6905 124.088 77.4552 124.515 76.911C124.941 76.3669 125.155 75.4035 125.155 74.0211V67.6235H132.92ZM146.566 67.3808C148.184 67.3808 149.493 67.9544 150.493 69.1016C151.508 70.2487 152.015 71.6091 152.015 73.1828C152.015 73.2416 152.008 73.3298 151.993 73.4475C151.993 73.5652 151.993 73.6534 151.993 73.7122H141.999C142.132 74.9476 142.624 75.9477 143.477 76.7125C144.345 77.4625 145.411 77.8376 146.676 77.8376C147.559 77.8376 148.331 77.6537 148.993 77.2861C149.654 76.9184 150.154 76.433 150.493 75.8301L151.463 76.4036C151.008 77.1684 150.36 77.7787 149.522 78.2347C148.684 78.6759 147.728 78.8965 146.654 78.8965C144.963 78.8965 143.573 78.3597 142.485 77.2861C141.396 76.1977 140.852 74.8153 140.852 73.1387C140.852 71.4915 141.382 70.1237 142.441 69.0354C143.514 67.9324 144.889 67.3808 146.566 67.3808ZM146.566 68.4397C145.316 68.4397 144.272 68.8295 143.433 69.609C142.595 70.3884 142.117 71.3959 141.999 72.6313H150.868C150.75 71.3223 150.28 70.3002 149.456 69.5648C148.647 68.8148 147.684 68.4397 146.566 68.4397ZM167.874 67.6235H168.999V78.6538H167.874V73.6681H160.991V78.6538H159.888V67.6235H160.991V72.6092H167.874V67.6235ZM185.685 67.6235H186.81V78.6538H185.685V73.6681H178.802V78.6538H177.699V67.6235H178.802V72.6092H185.685V67.6235ZM199.878 71.9033C200.893 71.9033 201.753 72.2195 202.459 72.8519C203.165 73.4843 203.518 74.2932 203.518 75.2785C203.518 76.2639 203.165 77.0728 202.459 77.7052C201.753 78.3376 200.893 78.6538 199.878 78.6538H195.51V67.6235H196.613V71.9033H199.878ZM205.217 67.6235H206.32V78.6538H205.217V67.6235ZM199.878 77.5728C200.584 77.5728 201.18 77.3596 201.665 76.9331C202.151 76.5066 202.393 75.9551 202.393 75.2785C202.393 74.5873 202.151 74.0358 201.665 73.624C201.195 73.1975 200.599 72.9842 199.878 72.9842H196.613V77.5728H199.878ZM219.966 67.3808C221.584 67.3808 222.892 67.9544 223.893 69.1016C224.907 70.2487 225.415 71.6091 225.415 73.1828C225.415 73.2416 225.407 73.3298 225.393 73.4475C225.393 73.5652 225.393 73.6534 225.393 73.7122H215.399C215.532 74.9476 216.024 75.9477 216.877 76.7125C217.745 77.4625 218.811 77.8376 220.076 77.8376C220.958 77.8376 221.731 77.6537 222.392 77.2861C223.054 76.9184 223.554 76.433 223.893 75.8301L224.863 76.4036C224.407 77.1684 223.76 77.7787 222.922 78.2347C222.084 78.6759 221.128 78.8965 220.054 78.8965C218.363 78.8965 216.973 78.3597 215.885 77.2861C214.796 76.1977 214.252 74.8153 214.252 73.1387C214.252 71.4915 214.781 70.1237 215.84 69.0354C216.914 67.9324 218.289 67.3808 219.966 67.3808ZM219.966 68.4397C218.716 68.4397 217.671 68.8295 216.833 69.609C215.995 70.3884 215.517 71.3959 215.399 72.6313H224.268C224.15 71.3223 223.679 70.3002 222.856 69.5648C222.047 68.8148 221.083 68.4397 219.966 68.4397ZM253.574 67.6235V78.6538H252.449V68.7045H245.566V78.6538H244.463V67.6235H253.574ZM267.327 78.8965C265.709 78.8965 264.334 78.345 263.201 77.2419C262.083 76.1242 261.525 74.7564 261.525 73.1387C261.525 71.5209 262.083 70.1605 263.201 69.0574C264.334 67.9397 265.709 67.3808 267.327 67.3808C268.93 67.3808 270.29 67.9397 271.408 69.0574C272.54 70.1605 273.106 71.5209 273.106 73.1387C273.106 74.7564 272.54 76.1242 271.408 77.2419C270.29 78.345 268.93 78.8965 267.327 78.8965ZM263.995 76.4698C264.907 77.3816 266.018 77.8376 267.327 77.8376C268.635 77.8376 269.739 77.3816 270.636 76.4698C271.533 75.558 271.981 74.4476 271.981 73.1387C271.981 71.8297 271.533 70.7193 270.636 69.8075C269.739 68.8957 268.635 68.4397 267.327 68.4397C266.018 68.4397 264.907 68.8957 263.995 69.8075C263.098 70.7193 262.65 71.8297 262.65 73.1387C262.65 74.4476 263.098 75.558 263.995 76.4698ZM289.581 67.6235V78.6538H288.478V68.7045H282.919V74.0211C282.919 75.8153 282.588 77.0581 281.926 77.7493C281.264 78.4406 280.36 78.7421 279.213 78.6538V77.617C280.095 77.6905 280.75 77.4552 281.176 76.911C281.603 76.3669 281.816 75.4035 281.816 74.0211V67.6235H289.581ZM302.632 71.9033C303.646 71.9033 304.507 72.2195 305.213 72.8519C305.919 73.4843 306.272 74.2932 306.272 75.2785C306.272 76.2639 305.919 77.0728 305.213 77.7052C304.507 78.3376 303.646 78.6538 302.632 78.6538H298.264V67.6235H299.367V71.9033H302.632ZM307.97 67.6235H309.073V78.6538H307.97V67.6235ZM302.632 77.5728C303.338 77.5728 303.933 77.3596 304.419 76.9331C304.904 76.5066 305.147 75.9551 305.147 75.2785C305.147 74.5873 304.904 74.0358 304.419 73.624C303.948 73.1975 303.352 72.9842 302.632 72.9842H299.367V77.5728H302.632Z" fill="white"/>
<defs>
<linearGradient id="paint0_linear_103_199" x1="153" y1="-2.34956" x2="211.239" y2="66.4197" gradientUnits="userSpaceOnUse">
<stop offset="0.166667" stop-color="#FD5703"/>
<stop offset="0.880208" stop-color="#FFA114"/>
</linearGradient>
</defs>
</svg>
