<svg width="470" height="316" viewBox="0 0 470 316" fill="none" xmlns="http://www.w3.org/2000/svg">
<g opacity="0.8">
<path d="M449.723 163.968L224.039 294.258L26.6624 180.309L252.346 50.0046L449.723 163.968Z" fill="#A59D9A"/>
<path d="M191.235 292.89L179.16 299.864L6.16467 199.972L18.2255 192.998L191.235 292.89Z" fill="#A59D9A"/>
<path d="M115.137 272.994L105.114 278.778L29.1661 234.938L39.1895 229.14L115.137 272.994Z" fill="#A59D9A"/>
<path d="M469.277 169.492L215.521 316L203.241 308.917L456.998 162.395L469.277 169.492Z" fill="#A59D9A"/>
<path d="M137.44 276.905L134.227 273.267C134.104 273.153 133.966 273.056 133.816 272.98L133.68 272.898L133.502 272.802C127.895 269.575 136.811 274.744 68.6166 235.225L67.0304 235.635L65.4168 236.593L64.7194 237.522L128.237 274.32L128.962 274.717L136.374 277.192L137.905 277.698C137.973 277.698 138.124 277.698 138.083 277.698L137.44 276.905Z" fill="#A59D9A"/>
</g>
<path d="M20.1254 170.928L20.1527 174.032L220.99 289.991L222.753 284.508L20.1254 170.928Z" fill="#124F66"/>
<path d="M451.951 120.278L251.046 3.55249C259.894 8.69409 256.776 34.2927 226.925 51.5225L20.1122 170.928L220.976 287.667L427.789 168.33C457.64 151.032 460.758 125.419 451.951 120.278Z" fill="url(#paint0_linear_103_1080)"/>
<path d="M211.143 279.599C211.093 279.598 211.043 279.583 211 279.557C210.957 279.53 210.921 279.493 210.897 279.448C210.878 279.417 210.866 279.383 210.861 279.347C210.857 279.311 210.86 279.274 210.87 279.24C210.88 279.205 210.898 279.173 210.921 279.145C210.945 279.117 210.974 279.095 211.006 279.079L420.991 157.828C421.06 157.828 428.608 153.288 431.808 148.174C431.964 148.014 432.134 147.868 432.314 147.736C440.519 141.09 442.775 134.786 443.171 130.657C443.636 125.597 441.804 120.565 437.62 115.683C437.572 115.628 437.545 115.558 437.545 115.485C437.545 115.412 437.572 115.341 437.62 115.287C437.673 115.236 437.744 115.207 437.818 115.207C437.892 115.207 437.963 115.236 438.016 115.287C442.283 120.278 444.183 125.46 443.691 130.67C443.294 134.896 441.052 141.364 432.628 148.133L432.246 148.447C428.977 153.657 421.566 158.019 421.306 158.279L211.28 279.558C211.239 279.584 211.192 279.598 211.143 279.599Z" fill="#D3DBDD"/>
<path d="M220.99 285.438H220.839L24.2826 171.174C24.2415 171.147 24.2075 171.111 24.1837 171.068C24.1599 171.025 24.1469 170.977 24.1459 170.928C24.1452 170.88 24.1576 170.834 24.1817 170.793C24.2059 170.752 24.2408 170.718 24.2826 170.695L227.868 53.0951C249.542 40.583 257.254 23.8728 257.268 13.3571C257.275 12.1046 257.161 10.8544 256.926 9.62399C256.915 9.57068 256.92 9.51539 256.939 9.46455C256.959 9.41371 256.992 9.36942 257.036 9.33683C257.08 9.30742 257.133 9.29175 257.186 9.29175C257.239 9.29175 257.292 9.30742 257.336 9.33683L446.481 117.734C447.138 117.912 454.399 120.004 454.399 130.192C454.399 139.695 447.165 154.956 426.872 166.675L221.126 285.41C221.084 285.433 221.037 285.442 220.99 285.438ZM24.98 170.928L220.99 284.85L426.571 166.142C446.659 154.56 453.797 139.504 453.811 130.151C453.811 119.977 446.372 118.254 446.29 118.227H446.208L257.583 10.1983C257.75 11.2796 257.832 12.3724 257.829 13.4665C257.829 24.1189 250.021 41.0479 228.141 53.6694L24.98 170.928Z" fill="#D3DBDD"/>
<g style="mix-blend-mode:multiply" opacity="0.55">
<path d="M231.287 48.7876L432.807 165.116C457.982 148.064 460.266 125.118 451.952 120.278L251.047 3.55249C259.443 8.4206 257.022 31.6945 231.287 48.7876Z" fill="url(#paint1_linear_103_1080)"/>
</g>
<path d="M247.424 24.4059C247.311 24.3437 247.184 24.311 247.055 24.311C246.925 24.311 246.798 24.3437 246.685 24.4059C246.375 24.6155 246.125 24.9032 245.961 25.2401C244.114 28.9716 241.275 32.1224 237.756 34.3472C236.192 35.308 234.407 35.8496 232.573 35.9198C231.397 35.9645 230.23 35.6905 229.196 35.1267L430.073 151.92C431.107 152.484 432.274 152.758 433.451 152.713C435.284 152.637 437.067 152.095 438.634 151.141C442.156 148.914 444.995 145.758 446.838 142.02C447.002 141.687 447.253 141.403 447.563 141.199C447.675 141.133 447.802 141.098 447.932 141.098C448.062 141.098 448.19 141.133 448.301 141.199L247.424 24.4059Z" fill="#154A67"/>
<path d="M252.441 1.05003C249.706 -0.563553 245.877 -0.413135 241.392 2.17134C240.597 2.63373 239.826 3.13576 239.081 3.67553C225.735 13.3981 219.937 33.1577 227.731 37.6702L428.595 154.395C420.828 149.883 427.515 131.641 439.945 120.92C440.808 120.284 441.723 119.721 442.68 119.238C447.179 116.64 450.461 116.175 453.237 117.789L252.441 1.05003Z" fill="url(#paint2_linear_103_1080)"/>
<path d="M442.256 118.91C441.458 119.368 440.687 119.87 439.945 120.414C424.766 131.463 419.433 155.462 432.547 155.325C434.71 155.237 436.814 154.597 438.66 153.466C442.807 150.843 446.152 147.129 448.328 142.731C449.011 141.473 448.328 140.762 447.548 141.2C447.238 141.403 446.987 141.687 446.823 142.02C444.98 145.758 442.141 148.914 438.619 151.141C437.052 152.096 435.269 152.637 433.436 152.713C422.045 152.809 427.159 132.079 440.273 122.63C440.916 122.163 441.583 121.729 442.27 121.331C460.512 110.801 465.886 146.355 427.843 168.316L220.976 287.667V290.032L427.788 170.627C468.853 146.888 462.891 106.986 442.256 118.91Z" fill="#26607B"/>
<path d="M269.481 257.446C269.436 257.46 269.389 257.46 269.344 257.446L259.348 251.689C259.284 251.652 259.237 251.591 259.216 251.52C259.196 251.448 259.204 251.372 259.239 251.306C259.276 251.242 259.337 251.195 259.408 251.174C259.479 251.154 259.556 251.162 259.622 251.197L269.618 256.967C269.65 256.986 269.678 257.01 269.7 257.04C269.722 257.069 269.738 257.103 269.747 257.138C269.756 257.174 269.758 257.211 269.752 257.248C269.746 257.284 269.733 257.319 269.713 257.35C269.686 257.385 269.65 257.411 269.609 257.428C269.569 257.445 269.525 257.451 269.481 257.446Z" fill="#D3DBDD"/>
<path d="M319.187 228.757C319.137 228.769 319.086 228.769 319.036 228.757L309.054 222.987C308.99 222.949 308.943 222.889 308.922 222.817C308.902 222.746 308.91 222.669 308.945 222.604C308.963 222.572 308.987 222.544 309.017 222.522C309.046 222.499 309.08 222.483 309.116 222.474C309.151 222.465 309.189 222.464 309.225 222.469C309.261 222.475 309.296 222.488 309.327 222.508L319.31 228.224C319.342 228.242 319.37 228.267 319.392 228.296C319.414 228.326 319.43 228.359 319.439 228.395C319.448 228.431 319.45 228.468 319.444 228.504C319.438 228.541 319.425 228.576 319.406 228.607C319.385 228.648 319.354 228.684 319.316 228.71C319.277 228.737 319.233 228.753 319.187 228.757Z" fill="#D3DBDD"/>
<path d="M339.357 217.107C339.312 217.119 339.265 217.119 339.22 217.107L329.224 211.336C329.162 211.297 329.118 211.235 329.1 211.164C329.082 211.092 329.092 211.017 329.128 210.953C329.146 210.921 329.171 210.893 329.2 210.871C329.23 210.849 329.263 210.833 329.299 210.824C329.335 210.815 329.372 210.813 329.408 210.819C329.445 210.825 329.48 210.838 329.511 210.857L339.493 216.628C339.526 216.644 339.555 216.666 339.579 216.694C339.602 216.721 339.62 216.754 339.63 216.788C339.64 216.823 339.643 216.86 339.638 216.896C339.634 216.932 339.622 216.966 339.603 216.997C339.574 217.034 339.536 217.064 339.493 217.083C339.45 217.102 339.403 217.11 339.357 217.107Z" fill="#D3DBDD"/>
<path d="M399.17 182.565H399.033L389.051 176.767C388.995 176.725 388.957 176.663 388.943 176.594C388.93 176.526 388.942 176.455 388.977 176.394C389.012 176.334 389.068 176.288 389.135 176.266C389.201 176.244 389.274 176.247 389.338 176.275L399.32 182.045C399.385 182.083 399.432 182.143 399.452 182.215C399.473 182.286 399.465 182.363 399.43 182.428C399.404 182.473 399.366 182.51 399.32 182.534C399.274 182.559 399.222 182.569 399.17 182.565Z" fill="#D3DBDD"/>
<path d="M424.344 168.043C424.299 168.055 424.252 168.055 424.207 168.043L414.211 162.272C414.179 162.254 414.151 162.229 414.129 162.2C414.107 162.17 414.09 162.137 414.082 162.101C414.073 162.065 414.071 162.028 414.077 161.992C414.083 161.955 414.096 161.92 414.115 161.889C414.134 161.857 414.158 161.829 414.188 161.807C414.217 161.785 414.251 161.769 414.286 161.76C414.322 161.751 414.359 161.749 414.396 161.755C414.432 161.761 414.467 161.774 414.498 161.793L424.481 167.55C424.545 167.588 424.592 167.648 424.612 167.72C424.633 167.791 424.625 167.868 424.59 167.933C424.561 167.97 424.523 167.999 424.481 168.019C424.438 168.038 424.391 168.046 424.344 168.043Z" fill="#D3DBDD"/>
<path d="M264.421 254.397C264.363 254.391 264.308 254.367 264.264 254.329C264.22 254.291 264.188 254.241 264.173 254.184C264.158 254.128 264.161 254.068 264.181 254.013C264.201 253.958 264.237 253.911 264.284 253.877L334.024 213.606C334.09 213.571 334.166 213.563 334.238 213.583C334.309 213.604 334.37 213.651 334.407 213.715C334.426 213.747 334.438 213.783 334.443 213.82C334.448 213.857 334.445 213.894 334.435 213.93C334.425 213.966 334.407 213.999 334.384 214.028C334.36 214.057 334.331 214.081 334.298 214.098L264.558 254.356C264.516 254.38 264.469 254.394 264.421 254.397Z" fill="#D3DBDD"/>
<path d="M394.096 179.529C394.047 179.528 393.999 179.515 393.956 179.491C393.913 179.467 393.877 179.433 393.85 179.392C393.814 179.328 393.804 179.253 393.821 179.182C393.839 179.111 393.884 179.049 393.945 179.009L418.983 164.556C419.047 164.535 419.115 164.538 419.177 164.562C419.238 164.586 419.29 164.632 419.322 164.69C419.354 164.748 419.365 164.815 419.353 164.88C419.342 164.946 419.307 165.005 419.257 165.048L394.233 179.488C394.192 179.514 394.144 179.528 394.096 179.529Z" fill="#D3DBDD"/>
<path d="M305.921 198.865C305.876 198.878 305.829 198.878 305.784 198.865L248.598 165.841C248.556 165.815 248.521 165.779 248.497 165.736C248.473 165.693 248.461 165.644 248.461 165.595C248.46 165.547 248.473 165.5 248.497 165.459C248.521 165.418 248.556 165.385 248.598 165.362L250.69 164.145C250.732 164.125 250.779 164.114 250.826 164.114C250.874 164.114 250.921 164.125 250.963 164.145L308.15 197.169C308.195 197.192 308.233 197.227 308.26 197.271C308.287 197.314 308.301 197.364 308.3 197.415C308.301 197.465 308.288 197.513 308.261 197.555C308.234 197.596 308.195 197.629 308.15 197.648L306.058 198.865C306.013 198.879 305.965 198.879 305.921 198.865ZM249.295 165.595L305.921 198.29L307.452 197.415L250.826 164.72L249.295 165.595Z" fill="#D3DBDD"/>
<path d="M131.354 210.365C131.309 210.377 131.262 210.377 131.217 210.365L129.125 209.162C129.083 209.136 129.048 209.1 129.024 209.057C129 209.013 128.988 208.965 128.988 208.916C128.987 208.868 129 208.821 129.024 208.78C129.048 208.739 129.083 208.706 129.125 208.683L188.54 174.374C188.584 174.347 188.633 174.333 188.684 174.333C188.735 174.333 188.784 174.347 188.828 174.374L190.92 175.577C190.961 175.604 190.995 175.64 191.019 175.683C191.043 175.726 191.055 175.774 191.056 175.823C191.057 175.871 191.045 175.918 191.021 175.959C190.997 176 190.962 176.033 190.92 176.056L131.491 210.365C131.446 210.379 131.398 210.379 131.354 210.365ZM129.822 208.875L131.354 209.763L190.154 175.782L188.609 174.893L129.822 208.875Z" fill="#D3DBDD"/>
<path d="M162.051 161.807H161.915L159.823 160.59C159.781 160.567 159.746 160.534 159.722 160.493C159.698 160.452 159.685 160.405 159.686 160.357C159.686 160.308 159.698 160.26 159.722 160.216C159.746 160.173 159.781 160.137 159.823 160.111L178.557 149.295C178.6 149.268 178.649 149.254 178.7 149.254C178.751 149.254 178.801 149.268 178.844 149.295L180.936 150.498C180.978 150.524 181.014 150.56 181.038 150.603C181.062 150.646 181.075 150.695 181.075 150.744C181.075 150.794 181.062 150.843 181.038 150.886C181.014 150.929 180.978 150.965 180.936 150.99L162.188 161.807H162.051ZM160.52 160.33L162.051 161.205L180.239 150.717L178.693 149.828L160.52 160.33Z" fill="#D3DBDD"/>
<path d="M198.044 140.981C197.994 140.993 197.943 140.993 197.893 140.981L195.801 139.777C195.758 139.752 195.723 139.716 195.699 139.673C195.675 139.63 195.662 139.581 195.662 139.531C195.662 139.482 195.675 139.433 195.699 139.39C195.723 139.347 195.758 139.311 195.801 139.285L235.607 116.367C235.65 116.34 235.7 116.326 235.751 116.326C235.802 116.326 235.851 116.34 235.894 116.367L237.987 117.57C238.029 117.596 238.064 117.632 238.089 117.675C238.113 117.718 238.126 117.767 238.126 117.816C238.126 117.866 238.113 117.915 238.089 117.958C238.064 118.001 238.029 118.037 237.987 118.062L198.18 140.981C198.136 140.993 198.088 140.993 198.044 140.981ZM196.498 139.49L198.044 140.379L237.262 117.734L235.717 116.845L196.498 139.49Z" fill="#D3DBDD"/>
<path d="M250.855 167.044C250.81 167.058 250.762 167.058 250.718 167.044L248.626 165.841C248.58 165.818 248.542 165.783 248.515 165.739C248.489 165.696 248.475 165.646 248.475 165.595C248.474 165.546 248.488 165.497 248.515 165.456C248.541 165.414 248.58 165.382 248.626 165.362L257.582 160.18C257.625 160.159 257.672 160.149 257.719 160.149C257.766 160.149 257.813 160.159 257.856 160.18L259.948 161.397C259.994 161.416 260.032 161.448 260.059 161.49C260.086 161.531 260.1 161.58 260.098 161.629C260.099 161.68 260.085 161.73 260.058 161.774C260.032 161.817 259.994 161.853 259.948 161.875L250.937 166.962C250.916 166.996 250.888 167.024 250.855 167.044ZM249.323 165.595L250.855 166.484L259.251 161.629L257.719 160.754L249.323 165.595Z" fill="#D3DBDD"/>
<path d="M277.109 151.92H276.973L274.881 150.703C274.839 150.681 274.804 150.647 274.78 150.606C274.756 150.565 274.743 150.518 274.744 150.471C274.744 150.422 274.756 150.373 274.78 150.33C274.804 150.287 274.839 150.251 274.881 150.225L323.931 121.837C323.973 121.816 324.02 121.805 324.068 121.805C324.115 121.805 324.162 121.816 324.204 121.837L326.296 123.054C326.338 123.076 326.373 123.11 326.397 123.151C326.421 123.192 326.434 123.239 326.433 123.286C326.433 123.335 326.421 123.384 326.397 123.427C326.373 123.47 326.338 123.506 326.296 123.532L277.26 151.92H277.109ZM275.551 150.403L277.082 151.278L325.572 123.286L324.04 122.411L275.551 150.403Z" fill="#D3DBDD"/>
<path d="M208.683 255.012C208.638 255.024 208.591 255.024 208.546 255.012L64.5949 171.871C64.5525 171.846 64.5173 171.81 64.4929 171.767C64.4685 171.724 64.4557 171.675 64.4557 171.625C64.4557 171.576 64.4685 171.527 64.4929 171.484C64.5173 171.441 64.5525 171.405 64.5949 171.379L237.262 71.7334C237.305 71.7128 237.352 71.7021 237.399 71.7021C237.446 71.7021 237.493 71.7128 237.536 71.7334L381.487 154.847C381.529 154.873 381.563 154.909 381.587 154.952C381.611 154.995 381.624 155.044 381.624 155.093C381.624 155.14 381.612 155.187 381.588 155.228C381.564 155.269 381.529 155.303 381.487 155.325L295.338 205.046C295.297 205.073 295.25 205.087 295.201 205.087C295.152 205.087 295.105 205.073 295.064 205.046L292.835 203.76C292.79 203.737 292.752 203.702 292.725 203.659C292.698 203.615 292.685 203.565 292.685 203.514C292.684 203.465 292.697 203.416 292.724 203.375C292.751 203.333 292.79 203.301 292.835 203.282L376.25 155.093L237.331 74.8786L69.7639 171.625L208.683 251.84L275.551 213.264C275.591 213.237 275.639 213.223 275.688 213.223C275.736 213.223 275.784 213.237 275.824 213.264L278.053 214.549C278.096 214.575 278.131 214.611 278.155 214.654C278.18 214.697 278.192 214.746 278.192 214.796C278.192 214.845 278.18 214.894 278.155 214.937C278.131 214.98 278.096 215.016 278.053 215.042L208.874 254.971C208.847 254.991 208.816 255.006 208.783 255.013C208.75 255.02 208.716 255.02 208.683 255.012ZM65.2923 171.598L208.683 254.479L277.301 214.823L275.633 213.852L208.819 252.4C208.779 252.427 208.731 252.442 208.683 252.442C208.634 252.442 208.586 252.427 208.546 252.4L69.0665 171.871C69.0202 171.849 68.9813 171.814 68.954 171.771C68.9267 171.727 68.9122 171.677 68.9122 171.625C68.9122 171.574 68.9267 171.524 68.954 171.48C68.9813 171.437 69.0202 171.402 69.0665 171.379L237.18 74.2905C237.223 74.2639 237.273 74.2498 237.324 74.2498C237.375 74.2498 237.424 74.2639 237.467 74.2905L376.947 154.819C376.989 154.845 377.024 154.881 377.047 154.925C377.071 154.968 377.084 155.016 377.084 155.066C377.084 155.113 377.072 155.16 377.048 155.201C377.024 155.242 376.989 155.276 376.947 155.298L293.533 203.487L295.201 204.458L380.762 155.066L237.331 72.2941L65.2923 171.598Z" fill="#D3DBDD"/>
<path d="M132.775 144.988H132.638L121.945 138.807C121.903 138.781 121.868 138.745 121.844 138.702C121.82 138.659 121.808 138.61 121.808 138.561C121.807 138.513 121.82 138.466 121.844 138.425C121.868 138.384 121.903 138.351 121.945 138.328L124.037 137.111C124.082 137.091 124.131 137.081 124.181 137.081C124.23 137.081 124.279 137.091 124.324 137.111L135.004 143.292C135.049 143.315 135.088 143.35 135.114 143.394C135.141 143.437 135.155 143.487 135.154 143.538C135.155 143.588 135.142 143.636 135.115 143.678C135.088 143.719 135.049 143.751 135.004 143.771L132.912 144.988H132.775ZM122.642 138.533L132.775 144.386L134.306 143.511L124.174 137.658L122.642 138.533Z" fill="#D3DBDD"/>
<path d="M207.848 188.336C207.803 188.349 207.755 188.349 207.711 188.336L149.936 154.984C149.894 154.958 149.86 154.922 149.836 154.878C149.812 154.835 149.799 154.787 149.8 154.737C149.799 154.69 149.811 154.643 149.835 154.602C149.859 154.561 149.894 154.528 149.936 154.505L152.028 153.288C152.074 153.268 152.123 153.258 152.172 153.258C152.221 153.258 152.27 153.268 152.316 153.288L210.077 186.64C210.119 186.665 210.154 186.702 210.179 186.745C210.203 186.788 210.216 186.837 210.216 186.886C210.216 186.936 210.203 186.984 210.179 187.028C210.154 187.071 210.119 187.107 210.077 187.132L207.984 188.336C207.94 188.348 207.892 188.348 207.848 188.336ZM150.634 154.655L207.848 187.693L209.379 186.804L152.165 153.767L150.634 154.655Z" fill="#D3DBDD"/>
<path d="M265.977 221.92C265.928 221.932 265.876 221.932 265.827 221.92L224.954 198.29C224.912 198.265 224.876 198.229 224.852 198.186C224.828 198.143 224.815 198.094 224.815 198.044C224.815 197.995 224.828 197.946 224.852 197.903C224.876 197.86 224.912 197.824 224.954 197.798L227.046 196.595C227.087 196.568 227.134 196.553 227.183 196.553C227.232 196.553 227.279 196.568 227.32 196.595L268.193 220.183C268.235 220.209 268.27 220.245 268.295 220.288C268.319 220.331 268.332 220.38 268.332 220.429C268.332 220.479 268.319 220.528 268.295 220.571C268.27 220.614 268.235 220.65 268.193 220.676L266.101 221.879C266.064 221.903 266.021 221.917 265.977 221.92ZM225.665 198.044L265.977 221.291L267.509 220.402L227.197 197.155L225.665 198.044Z" fill="#D3DBDD"/>
<path d="M284.712 147.504C284.668 147.517 284.62 147.517 284.576 147.504L269.944 139.053C269.898 139.034 269.86 139.001 269.833 138.96C269.806 138.918 269.792 138.87 269.793 138.82C269.793 138.769 269.807 138.719 269.834 138.676C269.86 138.632 269.898 138.597 269.944 138.574L272.036 137.371C272.076 137.344 272.124 137.329 272.173 137.329C272.221 137.329 272.269 137.344 272.31 137.371L286.941 145.808C286.984 145.833 287.019 145.87 287.043 145.913C287.068 145.956 287.08 146.005 287.08 146.054C287.08 146.104 287.068 146.152 287.043 146.196C287.019 146.239 286.984 146.275 286.941 146.3L284.849 147.504C284.804 147.516 284.757 147.516 284.712 147.504ZM270.641 138.779L284.712 146.902L286.244 146.013L272.173 137.89L270.641 138.779Z" fill="#D3DBDD"/>
<path d="M252.783 129.07C252.738 129.084 252.69 129.084 252.646 129.07L195.719 96.2516C195.677 96.2291 195.642 96.1955 195.618 96.1545C195.594 96.1136 195.582 96.0667 195.582 96.0192C195.583 95.9701 195.596 95.922 195.62 95.8791C195.644 95.8362 195.678 95.7998 195.719 95.773L197.811 94.5697C197.852 94.5426 197.899 94.5282 197.948 94.5282C197.997 94.5282 198.044 94.5426 198.085 94.5697L255.039 127.306C255.081 127.332 255.115 127.368 255.139 127.411C255.163 127.455 255.176 127.503 255.176 127.552C255.176 127.6 255.164 127.647 255.14 127.688C255.116 127.729 255.081 127.762 255.039 127.785L252.947 129.002C252.902 129.043 252.844 129.068 252.783 129.07ZM196.416 95.9235L252.783 128.469L254.314 127.58L197.948 95.0346L196.416 95.9235Z" fill="#D3DBDD"/>
<path d="M295.119 205.06C295.075 205.073 295.027 205.073 294.982 205.06L275.551 193.792C275.519 193.773 275.491 193.749 275.469 193.719C275.446 193.69 275.43 193.656 275.421 193.621C275.412 193.585 275.411 193.548 275.417 193.511C275.422 193.475 275.436 193.44 275.455 193.409C275.474 193.377 275.498 193.349 275.527 193.327C275.557 193.304 275.59 193.288 275.626 193.279C275.662 193.27 275.699 193.269 275.736 193.275C275.772 193.28 275.807 193.294 275.838 193.313L295.283 204.54C295.347 204.577 295.395 204.638 295.415 204.709C295.435 204.781 295.427 204.857 295.393 204.923C295.363 204.968 295.323 205.004 295.274 205.028C295.226 205.053 295.173 205.063 295.119 205.06Z" fill="#D3DBDD"/>
<g opacity="0.5">
<path d="M275.92 213.592C271.216 210.857 268.658 207.329 268.658 203.528C268.658 199.726 271.216 196.144 275.865 193.464C275.874 193.452 275.885 193.443 275.898 193.437C275.911 193.43 275.926 193.427 275.94 193.427C275.955 193.427 275.969 193.43 275.982 193.437C275.995 193.443 276.006 193.452 276.015 193.464C276.035 193.484 276.045 193.511 276.045 193.539C276.045 193.567 276.035 193.594 276.015 193.614C271.448 196.253 268.918 199.754 268.918 203.487C268.918 207.22 271.448 210.721 275.974 213.456C275.994 213.476 276.004 213.503 276.004 213.531C276.004 213.559 275.994 213.586 275.974 213.606C275.955 213.607 275.936 213.602 275.92 213.592Z" fill="#D3DBDD"/>
</g>
<path d="M190.304 198.414C190.255 198.413 190.207 198.4 190.164 198.376C190.121 198.352 190.085 198.318 190.058 198.277C190.023 198.211 190.015 198.135 190.036 198.063C190.056 197.992 190.103 197.931 190.167 197.894L209.612 186.667C209.644 186.649 209.679 186.638 209.714 186.633C209.75 186.629 209.787 186.631 209.822 186.641C209.857 186.65 209.889 186.667 209.918 186.689C209.947 186.711 209.971 186.738 209.988 186.77C210.006 186.801 210.018 186.836 210.023 186.872C210.027 186.908 210.025 186.944 210.015 186.979C210.006 187.014 209.989 187.047 209.967 187.075C209.945 187.104 209.917 187.128 209.886 187.146L190.441 198.414C190.396 198.426 190.349 198.426 190.304 198.414Z" fill="#D3DBDD"/>
<g opacity="0.5">
<path d="M207.574 202.27C201.548 202.403 195.588 200.99 190.263 198.168C190.251 198.159 190.242 198.147 190.236 198.134C190.229 198.121 190.226 198.107 190.226 198.092C190.226 198.078 190.229 198.064 190.236 198.051C190.242 198.038 190.251 198.026 190.263 198.017C190.283 197.998 190.31 197.987 190.338 197.987C190.366 197.987 190.393 197.998 190.413 198.017C199.889 203.487 215.328 203.487 224.818 198.017C224.843 198.003 224.873 197.999 224.902 198.007C224.916 198.01 224.929 198.017 224.94 198.026C224.952 198.035 224.961 198.046 224.968 198.058C224.976 198.071 224.98 198.085 224.982 198.099C224.984 198.113 224.983 198.128 224.979 198.142C224.975 198.156 224.969 198.169 224.96 198.18C224.951 198.192 224.94 198.201 224.927 198.209C219.585 201.022 213.611 202.42 207.574 202.27Z" fill="#D3DBDD"/>
</g>
<path d="M294.529 161.944H294.392L274.933 150.703C274.871 150.664 274.827 150.602 274.809 150.531C274.791 150.46 274.801 150.384 274.837 150.32C274.877 150.259 274.939 150.214 275.01 150.196C275.081 150.179 275.156 150.189 275.22 150.225L294.693 161.492C294.757 161.53 294.804 161.59 294.825 161.662C294.845 161.733 294.837 161.81 294.802 161.875C294.767 161.91 294.723 161.935 294.675 161.947C294.627 161.959 294.576 161.958 294.529 161.944Z" fill="#D3DBDD"/>
<g opacity="0.5">
<path d="M277.258 165.759C271.232 165.891 265.272 164.479 259.946 161.656C259.933 161.649 259.922 161.64 259.914 161.628C259.905 161.617 259.898 161.604 259.894 161.59C259.891 161.576 259.89 161.561 259.891 161.547C259.893 161.532 259.898 161.519 259.905 161.506C259.912 161.493 259.922 161.482 259.933 161.474C259.945 161.465 259.958 161.458 259.972 161.454C259.986 161.451 260 161.449 260.015 161.451C260.029 161.453 260.043 161.458 260.055 161.465C269.532 166.935 284.97 166.935 294.46 161.465C294.473 161.458 294.487 161.453 294.501 161.451C294.516 161.449 294.53 161.451 294.544 161.454C294.558 161.458 294.571 161.465 294.583 161.474C294.594 161.482 294.604 161.493 294.611 161.506C294.618 161.519 294.623 161.532 294.624 161.547C294.626 161.561 294.625 161.576 294.621 161.59C294.618 161.604 294.611 161.617 294.602 161.628C294.593 161.64 294.582 161.649 294.57 161.656C289.243 164.477 283.284 165.89 277.258 165.759Z" fill="#D3DBDD"/>
</g>
<path d="M252.987 128.961C252.937 128.96 252.887 128.945 252.844 128.919C252.801 128.893 252.765 128.855 252.741 128.811C252.722 128.78 252.71 128.745 252.706 128.709C252.701 128.673 252.704 128.637 252.714 128.602C252.724 128.567 252.742 128.535 252.765 128.507C252.789 128.479 252.818 128.457 252.851 128.441L272.296 117.201C272.361 117.166 272.438 117.158 272.509 117.179C272.581 117.199 272.641 117.246 272.679 117.31C272.698 117.342 272.71 117.378 272.715 117.415C272.72 117.452 272.717 117.49 272.707 117.525C272.696 117.561 272.679 117.595 272.655 117.624C272.632 117.652 272.602 117.676 272.569 117.693L253.124 128.92C253.083 128.946 253.036 128.96 252.987 128.961Z" fill="#D3DBDD"/>
<g opacity="0.5">
<path d="M272.187 137.494C272.172 137.502 272.156 137.507 272.139 137.507C272.122 137.507 272.106 137.502 272.091 137.494C272.08 137.485 272.07 137.474 272.064 137.461C272.058 137.447 272.055 137.433 272.055 137.419C272.055 137.404 272.058 137.39 272.064 137.377C272.07 137.364 272.08 137.352 272.091 137.343C276.658 134.704 279.174 131.19 279.174 127.471C279.174 123.751 276.658 120.25 272.091 117.611C272.071 117.589 272.06 117.559 272.06 117.529C272.06 117.499 272.071 117.47 272.091 117.447C272.113 117.431 272.139 117.422 272.166 117.422C272.193 117.422 272.22 117.431 272.241 117.447C276.877 120.182 279.434 123.71 279.434 127.512C279.434 131.313 276.877 134.896 272.241 137.576L272.187 137.494Z" fill="#D3DBDD"/>
</g>
<path d="M197.784 140.844C197.739 140.858 197.691 140.858 197.647 140.844L178.188 129.617C178.156 129.599 178.128 129.574 178.106 129.545C178.084 129.516 178.068 129.482 178.059 129.446C178.05 129.411 178.048 129.373 178.054 129.337C178.06 129.301 178.073 129.266 178.092 129.234C178.13 129.17 178.19 129.123 178.262 129.103C178.333 129.082 178.41 129.09 178.475 129.125L197.92 140.365C197.952 140.382 197.98 140.406 198.002 140.434C198.024 140.462 198.04 140.494 198.049 140.529C198.058 140.564 198.06 140.6 198.054 140.635C198.048 140.671 198.035 140.705 198.016 140.735C197.991 140.773 197.956 140.803 197.915 140.822C197.874 140.841 197.829 140.849 197.784 140.844Z" fill="#D3DBDD"/>
<g opacity="0.5">
<path d="M178.584 149.377C173.88 146.642 171.323 143.114 171.323 139.299C171.323 135.484 173.88 131.928 178.53 129.234C178.551 129.218 178.578 129.209 178.605 129.209C178.632 129.209 178.659 129.218 178.68 129.234C178.698 129.258 178.708 129.287 178.708 129.316C178.708 129.346 178.698 129.375 178.68 129.398C174.113 132.038 171.583 135.538 171.583 139.258C171.583 142.977 174.113 146.491 178.68 149.131C178.699 149.151 178.71 149.178 178.71 149.206C178.71 149.234 178.699 149.261 178.68 149.281C178.68 149.294 178.678 149.306 178.673 149.318C178.668 149.329 178.661 149.34 178.652 149.349C178.643 149.358 178.633 149.365 178.621 149.369C178.61 149.374 178.597 149.377 178.584 149.377Z" fill="#D3DBDD"/>
</g>
<path d="M115.259 155.093C115.21 155.092 115.162 155.079 115.119 155.055C115.076 155.031 115.04 154.997 115.013 154.956C114.977 154.892 114.967 154.817 114.985 154.746C115.002 154.674 115.047 154.613 115.109 154.573L134.567 143.346C134.599 143.327 134.634 143.314 134.67 143.308C134.706 143.302 134.744 143.304 134.779 143.313C134.815 143.322 134.849 143.338 134.878 143.36C134.907 143.382 134.932 143.41 134.95 143.442C134.985 143.508 134.993 143.584 134.973 143.656C134.952 143.727 134.905 143.788 134.841 143.825L115.396 155.052C115.355 155.078 115.308 155.092 115.259 155.093Z" fill="#D3DBDD"/>
<g opacity="0.5">
<path d="M132.531 158.894C126.501 159.019 120.539 157.607 115.205 154.792C115.186 154.772 115.175 154.745 115.175 154.717C115.175 154.689 115.186 154.662 115.205 154.642C115.228 154.622 115.257 154.61 115.287 154.61C115.318 154.61 115.347 154.622 115.369 154.642C124.846 160.111 140.284 160.111 149.774 154.642C149.774 154.642 149.884 154.642 149.925 154.642C149.944 154.662 149.955 154.689 149.955 154.717C149.955 154.745 149.944 154.772 149.925 154.792C144.571 157.618 138.584 159.03 132.531 158.894Z" fill="#D3DBDD"/>
</g>
<g opacity="0.5">
<path d="M263.244 88.2796C263.214 88.2798 263.184 88.2687 263.161 88.2485C263.139 88.2283 263.124 88.2004 263.121 88.1702V76.6289C263.121 76.6128 263.124 76.5968 263.13 76.5818C263.136 76.5669 263.146 76.5533 263.157 76.5419C263.168 76.5305 263.182 76.5214 263.197 76.5152C263.212 76.509 263.228 76.5059 263.244 76.5059C263.274 76.5092 263.302 76.5237 263.322 76.5464C263.342 76.5691 263.354 76.5985 263.353 76.6289V88.1702C263.35 88.1982 263.338 88.2243 263.318 88.2442C263.298 88.2641 263.272 88.2766 263.244 88.2796Z" fill="#D3DBDD"/>
</g>
<g opacity="0.5">
<path d="M265.882 89.8384C265.85 89.8384 265.818 89.8254 265.795 89.8024C265.772 89.7793 265.759 89.748 265.759 89.7153V78.1741C265.763 78.1439 265.777 78.116 265.8 78.0958C265.823 78.0756 265.852 78.0645 265.882 78.0647C265.91 78.0677 265.936 78.0801 265.956 78.1C265.976 78.12 265.989 78.1461 265.992 78.1741V89.7153C265.992 89.7457 265.981 89.7751 265.961 89.7978C265.94 89.8206 265.913 89.835 265.882 89.8384Z" fill="#D3DBDD"/>
</g>
<g opacity="0.5">
<path d="M268.575 91.3837C268.56 91.386 268.545 91.3848 268.531 91.3801C268.517 91.3755 268.503 91.3675 268.493 91.3568C268.482 91.3461 268.474 91.3331 268.469 91.3188C268.465 91.3044 268.464 91.2892 268.466 91.2743V79.7331C268.466 79.7187 268.469 79.7045 268.474 79.6912C268.48 79.6779 268.488 79.6658 268.498 79.6557C268.508 79.6455 268.52 79.6375 268.533 79.632C268.547 79.6265 268.561 79.6237 268.575 79.6237C268.603 79.6266 268.629 79.6391 268.649 79.659C268.669 79.6789 268.682 79.7051 268.685 79.7331V91.2743C268.685 91.3033 268.673 91.3311 268.653 91.3516C268.632 91.3722 268.604 91.3837 268.575 91.3837Z" fill="#D3DBDD"/>
</g>
<g opacity="0.5">
<path d="M271.271 92.9426C271.242 92.9426 271.214 92.9311 271.194 92.9106C271.173 92.8901 271.162 92.8623 271.162 92.8332V81.292C271.165 81.264 271.177 81.2379 271.197 81.218C271.217 81.1981 271.243 81.1856 271.271 81.1826C271.3 81.1826 271.328 81.1941 271.348 81.2146C271.369 81.2352 271.38 81.263 271.38 81.292V92.8332C271.383 92.8481 271.382 92.8634 271.377 92.8777C271.372 92.8921 271.364 92.9051 271.354 92.9158C271.343 92.9264 271.33 92.9344 271.316 92.9391C271.301 92.9438 271.286 92.945 271.271 92.9426Z" fill="#D3DBDD"/>
</g>
<g opacity="0.5">
<path d="M273.965 94.4879C273.937 94.4849 273.911 94.4724 273.891 94.4525C273.871 94.4326 273.858 94.4065 273.855 94.3785V82.8372C273.855 82.8082 273.867 82.7804 273.887 82.7599C273.908 82.7394 273.936 82.7278 273.965 82.7278C273.98 82.7255 273.995 82.7267 274.009 82.7314C274.024 82.7361 274.037 82.7441 274.047 82.7547C274.058 82.7654 274.066 82.7784 274.071 82.7928C274.075 82.8071 274.077 82.8223 274.074 82.8372V94.3785C274.074 94.3928 274.071 94.4071 274.066 94.4203C274.06 94.4336 274.052 94.4457 274.042 94.4558C274.032 94.466 274.02 94.4741 274.007 94.4796C273.993 94.4851 273.979 94.4879 273.965 94.4879Z" fill="#D3DBDD"/>
</g>
<g opacity="0.5">
<path d="M276.658 96.0602C276.63 96.0572 276.604 96.0448 276.584 96.0249C276.564 96.005 276.551 95.9788 276.548 95.9508V84.4096C276.548 84.3792 276.559 84.3498 276.58 84.3271C276.6 84.3043 276.628 84.2899 276.658 84.2865C276.673 84.2864 276.689 84.2896 276.703 84.2959C276.717 84.3023 276.73 84.3116 276.74 84.3232C276.751 84.3349 276.759 84.3486 276.763 84.3635C276.768 84.3784 276.769 84.3941 276.767 84.4096V95.9508C276.767 95.9798 276.756 96.0077 276.735 96.0282C276.715 96.0487 276.687 96.0602 276.658 96.0602Z" fill="#D3DBDD"/>
</g>
<g opacity="0.5">
<path d="M279.351 97.6192C279.321 97.6158 279.293 97.6014 279.273 97.5786C279.253 97.5559 279.242 97.5265 279.242 97.4961V85.9549C279.245 85.9269 279.258 85.9007 279.277 85.8808C279.297 85.8609 279.323 85.8484 279.351 85.8455C279.382 85.8453 279.411 85.8564 279.434 85.8766C279.457 85.8968 279.471 85.9246 279.475 85.9549V97.4961C279.475 97.5287 279.462 97.5601 279.438 97.5831C279.415 97.6062 279.384 97.6192 279.351 97.6192Z" fill="#D3DBDD"/>
</g>
<g opacity="0.5">
<path d="M282.046 99.1643C282.017 99.1643 281.989 99.1528 281.969 99.1323C281.948 99.1118 281.937 99.0839 281.937 99.0549V87.5137C281.94 87.4857 281.952 87.4596 281.972 87.4396C281.992 87.4197 282.018 87.4073 282.046 87.4043C282.076 87.4041 282.106 87.4152 282.129 87.4354C282.151 87.4556 282.166 87.4835 282.169 87.5137V99.0549C282.169 99.0705 282.166 99.086 282.16 99.1002C282.153 99.1144 282.144 99.1272 282.132 99.1375C282.121 99.1479 282.107 99.1557 282.092 99.1603C282.077 99.1649 282.061 99.1663 282.046 99.1643Z" fill="#D3DBDD"/>
</g>
<g opacity="0.5">
<path d="M284.755 100.723C284.739 100.725 284.724 100.724 284.709 100.719C284.694 100.715 284.68 100.707 284.668 100.696C284.657 100.686 284.647 100.673 284.641 100.659C284.635 100.645 284.632 100.629 284.632 100.614V89.0178C284.635 88.9876 284.649 88.9597 284.672 88.9395C284.695 88.9193 284.724 88.9083 284.755 88.9084C284.783 88.9114 284.809 88.9239 284.829 88.9438C284.849 88.9637 284.861 88.9899 284.864 89.0178V100.559C284.875 100.577 284.88 100.597 284.879 100.618C284.879 100.638 284.872 100.658 284.861 100.676C284.85 100.693 284.834 100.706 284.815 100.715C284.796 100.723 284.775 100.726 284.755 100.723Z" fill="#D3DBDD"/>
</g>
<g opacity="0.5">
<path d="M287.447 102.282C287.417 102.282 287.39 102.271 287.369 102.25C287.349 102.23 287.337 102.202 287.337 102.173V90.6317C287.335 90.6168 287.336 90.6015 287.341 90.5872C287.345 90.5728 287.353 90.5598 287.364 90.5491C287.375 90.5385 287.388 90.5305 287.402 90.5258C287.416 90.5212 287.432 90.5199 287.447 90.5223C287.461 90.5223 287.475 90.5251 287.488 90.5306C287.502 90.5361 287.514 90.5441 287.524 90.5543C287.534 90.5645 287.542 90.5765 287.548 90.5898C287.553 90.6031 287.556 90.6173 287.556 90.6317V102.173C287.553 102.201 287.54 102.227 287.521 102.247C287.501 102.267 287.475 102.279 287.447 102.282Z" fill="#D3DBDD"/>
</g>
<g opacity="0.5">
<path d="M290.14 103.841C290.111 103.841 290.083 103.83 290.062 103.809C290.042 103.789 290.03 103.761 290.03 103.732V92.1906C290.028 92.1757 290.029 92.1605 290.034 92.1461C290.038 92.1318 290.046 92.1188 290.057 92.1081C290.068 92.0974 290.081 92.0895 290.095 92.0848C290.109 92.0801 290.125 92.0789 290.14 92.0812C290.169 92.0812 290.196 92.0927 290.217 92.1133C290.237 92.1338 290.249 92.1616 290.249 92.1906V103.732C290.246 103.76 290.234 103.786 290.214 103.806C290.194 103.826 290.168 103.838 290.14 103.841Z" fill="#D3DBDD"/>
</g>
<g opacity="0.5">
<path d="M292.835 105.427C292.821 105.427 292.806 105.425 292.793 105.419C292.78 105.414 292.768 105.406 292.758 105.395C292.747 105.385 292.739 105.373 292.734 105.36C292.728 105.347 292.726 105.332 292.726 105.318V93.7768C292.724 93.7613 292.725 93.7456 292.73 93.7307C292.734 93.7158 292.742 93.7021 292.752 93.6904C292.763 93.6788 292.775 93.6695 292.79 93.6631C292.804 93.6568 292.819 93.6536 292.835 93.6537C292.865 93.6571 292.893 93.6715 292.913 93.6942C292.933 93.717 292.945 93.7464 292.944 93.7768V105.318C292.941 105.346 292.929 105.372 292.909 105.392C292.889 105.412 292.863 105.424 292.835 105.427Z" fill="#D3DBDD"/>
</g>
<g opacity="0.5">
<path d="M295.529 106.959C295.499 106.956 295.471 106.941 295.451 106.918C295.43 106.896 295.419 106.866 295.419 106.836V95.2946C295.422 95.2666 295.435 95.2405 295.455 95.2205C295.475 95.2006 295.501 95.1882 295.529 95.1852C295.558 95.1852 295.586 95.1967 295.606 95.2172C295.627 95.2377 295.638 95.2656 295.638 95.2946V106.795C295.649 106.813 295.654 106.833 295.654 106.853C295.653 106.874 295.647 106.894 295.635 106.911C295.624 106.928 295.608 106.942 295.589 106.95C295.57 106.959 295.549 106.962 295.529 106.959Z" fill="#D3DBDD"/>
</g>
<g opacity="0.5">
<path d="M298.222 108.504C298.207 108.504 298.193 108.501 298.18 108.496C298.166 108.49 298.154 108.482 298.144 108.472C298.134 108.462 298.126 108.45 298.121 108.437C298.115 108.423 298.112 108.409 298.112 108.395V96.8535C298.115 96.8255 298.128 96.7994 298.148 96.7795C298.167 96.7596 298.194 96.7471 298.222 96.7441C298.252 96.744 298.281 96.755 298.304 96.7752C298.327 96.7954 298.341 96.8233 298.345 96.8535V108.395C298.345 108.41 298.342 108.426 298.335 108.44C298.329 108.454 298.32 108.467 298.308 108.477C298.296 108.488 298.283 108.496 298.268 108.5C298.253 108.505 298.237 108.506 298.222 108.504Z" fill="#D3DBDD"/>
</g>
<g opacity="0.5">
<path d="M300.917 110.063C300.889 110.06 300.863 110.047 300.843 110.028C300.823 110.008 300.81 109.981 300.807 109.954V98.4123C300.807 98.3979 300.81 98.3837 300.816 98.3704C300.821 98.3571 300.829 98.3451 300.839 98.3349C300.849 98.3248 300.861 98.3167 300.875 98.3112C300.888 98.3057 300.902 98.3029 300.917 98.3029C300.932 98.3009 300.948 98.3023 300.963 98.3069C300.978 98.3115 300.991 98.3193 301.003 98.3297C301.015 98.34 301.024 98.3527 301.03 98.367C301.037 98.3812 301.04 98.3967 301.04 98.4123V109.954C301.036 109.984 301.022 110.012 300.999 110.032C300.976 110.052 300.947 110.063 300.917 110.063Z" fill="#D3DBDD"/>
</g>
<g opacity="0.5">
<path d="M303.624 111.622C303.594 111.622 303.564 111.611 303.541 111.591C303.519 111.57 303.504 111.542 303.501 111.512V99.9573C303.501 99.9417 303.504 99.9263 303.51 99.912C303.517 99.8978 303.526 99.885 303.538 99.8747C303.549 99.8643 303.563 99.8566 303.578 99.852C303.593 99.8473 303.609 99.846 303.624 99.8479C303.653 99.8479 303.681 99.8594 303.701 99.88C303.722 99.9005 303.733 99.9283 303.733 99.9573V111.499C303.734 111.529 303.723 111.558 303.702 111.581C303.682 111.604 303.654 111.618 303.624 111.622Z" fill="#D3DBDD"/>
</g>
<g opacity="0.5">
<path d="M306.319 113.181C306.304 113.181 306.29 113.178 306.277 113.172C306.264 113.167 306.252 113.159 306.241 113.149C306.231 113.139 306.223 113.126 306.218 113.113C306.212 113.1 306.209 113.086 306.209 113.071V101.53C306.208 101.515 306.209 101.499 306.214 101.484C306.218 101.469 306.226 101.455 306.236 101.444C306.247 101.432 306.259 101.423 306.274 101.416C306.288 101.41 306.303 101.407 306.319 101.407C306.349 101.41 306.377 101.425 306.397 101.448C306.417 101.47 306.428 101.5 306.428 101.53V113.071C306.425 113.099 306.413 113.125 306.393 113.145C306.373 113.165 306.347 113.178 306.319 113.181Z" fill="#D3DBDD"/>
</g>
<g opacity="0.5">
<path d="M309.011 114.74C308.996 114.74 308.98 114.737 308.966 114.73C308.952 114.724 308.939 114.715 308.929 114.703C308.918 114.691 308.911 114.678 308.906 114.663C308.902 114.648 308.9 114.632 308.902 114.617V103.075C308.902 103.046 308.914 103.019 308.934 102.998C308.955 102.977 308.982 102.966 309.011 102.966C309.039 102.969 309.066 102.981 309.086 103.001C309.105 103.021 309.118 103.047 309.121 103.075V114.617C309.121 114.647 309.11 114.676 309.09 114.699C309.07 114.722 309.042 114.736 309.011 114.74Z" fill="#D3DBDD"/>
</g>
<g opacity="0.5">
<path d="M311.705 116.285C311.69 116.287 311.675 116.286 311.661 116.281C311.646 116.277 311.633 116.269 311.623 116.258C311.612 116.247 311.604 116.234 311.599 116.22C311.595 116.206 311.594 116.19 311.596 116.175V104.634C311.596 104.605 311.607 104.577 311.628 104.557C311.648 104.536 311.676 104.525 311.705 104.525C311.733 104.528 311.759 104.54 311.779 104.56C311.799 104.58 311.812 104.606 311.815 104.634V116.175C311.815 116.204 311.803 116.232 311.783 116.253C311.762 116.273 311.734 116.285 311.705 116.285Z" fill="#D3DBDD"/>
</g>
<g opacity="0.5">
<path d="M314.4 117.844C314.371 117.844 314.343 117.832 314.323 117.812C314.302 117.791 314.291 117.763 314.291 117.734V106.193C314.294 106.165 314.306 106.139 314.326 106.119C314.346 106.099 314.372 106.087 314.4 106.084C314.429 106.084 314.457 106.095 314.478 106.116C314.498 106.136 314.51 106.164 314.51 106.193V117.734C314.512 117.749 314.511 117.764 314.506 117.779C314.501 117.793 314.493 117.806 314.483 117.817C314.472 117.827 314.459 117.835 314.445 117.84C314.43 117.845 314.415 117.846 314.4 117.844Z" fill="#D3DBDD"/>
</g>
<g opacity="0.5">
<path d="M381.459 165.335H361.466C361.434 165.335 361.403 165.322 361.379 165.299C361.356 165.276 361.343 165.245 361.343 165.212C361.347 165.182 361.361 165.154 361.384 165.134C361.407 165.114 361.436 165.103 361.466 165.103H381.459C381.487 165.106 381.513 165.118 381.533 165.138C381.552 165.158 381.565 165.184 381.568 165.212C381.568 165.243 381.557 165.272 381.537 165.295C381.517 165.318 381.489 165.332 381.459 165.335Z" fill="#D3DBDD"/>
</g>
<g opacity="0.5">
<path d="M378.751 166.881H358.772C358.757 166.883 358.741 166.881 358.726 166.877C358.711 166.872 358.698 166.864 358.686 166.854C358.674 166.844 358.665 166.831 358.659 166.817C358.652 166.802 358.649 166.787 358.649 166.771C358.653 166.741 358.667 166.713 358.69 166.693C358.713 166.673 358.742 166.662 358.772 166.662H378.751C378.781 166.662 378.811 166.673 378.833 166.693C378.856 166.713 378.871 166.741 378.874 166.771C378.874 166.787 378.871 166.802 378.864 166.817C378.858 166.831 378.849 166.844 378.837 166.854C378.826 166.864 378.812 166.872 378.797 166.877C378.782 166.881 378.766 166.883 378.751 166.881Z" fill="#D3DBDD"/>
</g>
<g opacity="0.5">
<path d="M376.055 168.439H356.063C356.034 168.439 356.006 168.428 355.986 168.407C355.965 168.387 355.953 168.359 355.953 168.33C355.956 168.302 355.969 168.276 355.989 168.256C356.009 168.236 356.035 168.224 356.063 168.221H376.055C376.084 168.221 376.112 168.232 376.132 168.253C376.153 168.273 376.164 168.301 376.164 168.33C376.167 168.345 376.165 168.36 376.161 168.374C376.156 168.389 376.148 168.402 376.137 168.413C376.127 168.423 376.114 168.431 376.099 168.436C376.085 168.441 376.07 168.442 376.055 168.439Z" fill="#D3DBDD"/>
</g>
<g opacity="0.5">
<path d="M373.361 169.998H353.369C353.341 169.995 353.315 169.983 353.295 169.963C353.275 169.943 353.263 169.917 353.26 169.889C353.26 169.86 353.271 169.832 353.292 169.812C353.312 169.791 353.34 169.779 353.369 169.779H373.361C373.376 169.777 373.391 169.778 373.406 169.783C373.42 169.788 373.433 169.796 373.444 169.806C373.454 169.817 373.462 169.83 373.467 169.844C373.472 169.859 373.473 169.874 373.471 169.889C373.471 169.903 373.468 169.917 373.462 169.931C373.457 169.944 373.449 169.956 373.439 169.966C373.428 169.976 373.416 169.984 373.403 169.99C373.39 169.995 373.376 169.998 373.361 169.998Z" fill="#D3DBDD"/>
</g>
<g opacity="0.5">
<path d="M370.669 171.557H350.677C350.649 171.554 350.622 171.542 350.603 171.522C350.583 171.502 350.57 171.476 350.567 171.448C350.567 171.419 350.579 171.391 350.599 171.37C350.62 171.35 350.648 171.338 350.677 171.338H370.669C370.698 171.338 370.725 171.35 370.746 171.37C370.766 171.391 370.778 171.419 370.778 171.448C370.775 171.476 370.763 171.502 370.743 171.522C370.723 171.542 370.697 171.554 370.669 171.557Z" fill="#D3DBDD"/>
</g>
<g opacity="0.5">
<path d="M367.975 173.116H348.024C347.995 173.116 347.967 173.104 347.947 173.084C347.926 173.063 347.915 173.036 347.915 173.007C347.913 172.991 347.914 172.975 347.919 172.961C347.923 172.946 347.931 172.932 347.941 172.92C347.952 172.909 347.965 172.899 347.979 172.893C347.993 172.887 348.008 172.883 348.024 172.884H368.016C368.046 172.887 368.074 172.901 368.094 172.924C368.115 172.947 368.126 172.976 368.126 173.007C368.124 173.024 368.119 173.041 368.11 173.057C368.101 173.072 368.09 173.085 368.075 173.096C368.061 173.106 368.045 173.113 368.027 173.117C368.01 173.12 367.992 173.12 367.975 173.116Z" fill="#D3DBDD"/>
</g>
<g opacity="0.5">
<path d="M365.283 174.675H345.291C345.275 174.675 345.26 174.672 345.245 174.666C345.231 174.659 345.218 174.65 345.208 174.638C345.198 174.627 345.19 174.613 345.185 174.598C345.181 174.583 345.179 174.567 345.181 174.552C345.181 174.523 345.193 174.495 345.213 174.475C345.234 174.454 345.262 174.443 345.291 174.443H365.283C365.311 174.446 365.337 174.458 365.357 174.478C365.377 174.498 365.389 174.524 365.392 174.552C365.392 174.582 365.381 174.612 365.361 174.635C365.341 174.657 365.313 174.672 365.283 174.675Z" fill="#D3DBDD"/>
</g>
<g opacity="0.5">
<path d="M362.588 176.22H342.555C342.54 176.222 342.525 176.221 342.51 176.217C342.496 176.212 342.483 176.204 342.472 176.193C342.462 176.183 342.454 176.17 342.449 176.155C342.444 176.141 342.443 176.126 342.445 176.111C342.445 176.082 342.457 176.054 342.477 176.033C342.498 176.013 342.526 176.001 342.555 176.001H362.547C362.575 176.004 362.601 176.017 362.621 176.037C362.641 176.057 362.653 176.083 362.656 176.111C362.658 176.134 362.652 176.157 362.64 176.177C362.628 176.196 362.609 176.212 362.588 176.22Z" fill="#D3DBDD"/>
</g>
<g opacity="0.5">
<path d="M359.881 177.779H339.902C339.872 177.779 339.842 177.768 339.82 177.748C339.797 177.728 339.783 177.7 339.779 177.67C339.779 177.654 339.782 177.639 339.789 177.624C339.795 177.61 339.804 177.597 339.816 177.587C339.828 177.577 339.841 177.569 339.856 177.564C339.871 177.56 339.887 177.558 339.902 177.56H359.881C359.896 177.558 359.912 177.56 359.927 177.564C359.942 177.569 359.955 177.577 359.967 177.587C359.979 177.597 359.988 177.61 359.994 177.624C360.001 177.639 360.004 177.654 360.004 177.67C360 177.7 359.986 177.728 359.963 177.748C359.94 177.768 359.911 177.779 359.881 177.779Z" fill="#D3DBDD"/>
</g>
<g opacity="0.5">
<path d="M357.186 179.338H337.194C337.171 179.338 337.149 179.331 337.13 179.319C337.11 179.307 337.095 179.29 337.085 179.27C337.085 179.241 337.096 179.213 337.117 179.192C337.137 179.172 337.165 179.16 337.194 179.16H357.186C357.202 179.158 357.217 179.16 357.232 179.164C357.247 179.169 357.261 179.177 357.272 179.187C357.284 179.197 357.293 179.21 357.3 179.224C357.306 179.239 357.309 179.254 357.309 179.27C357.298 179.292 357.28 179.311 357.258 179.323C357.236 179.335 357.211 179.34 357.186 179.338Z" fill="#D3DBDD"/>
</g>
<g opacity="0.5">
<path d="M354.492 180.897H334.5C334.472 180.894 334.446 180.881 334.426 180.862C334.406 180.842 334.393 180.815 334.391 180.787C334.39 180.757 334.401 180.728 334.422 180.705C334.442 180.682 334.47 180.668 334.5 180.664H354.492C354.508 180.664 354.523 180.668 354.537 180.674C354.552 180.68 354.564 180.689 354.575 180.701C354.585 180.713 354.593 180.727 354.597 180.741C354.602 180.756 354.603 180.772 354.601 180.787C354.601 180.817 354.59 180.844 354.569 180.865C354.549 180.885 354.521 180.897 354.492 180.897Z" fill="#D3DBDD"/>
</g>
<g opacity="0.5">
<path d="M161.944 116.64H141.952C141.924 116.637 141.898 116.625 141.878 116.605C141.858 116.585 141.846 116.559 141.843 116.531C141.842 116.5 141.853 116.471 141.874 116.448C141.894 116.426 141.922 116.411 141.952 116.408H161.944C161.96 116.408 161.975 116.411 161.989 116.417C162.004 116.423 162.016 116.433 162.027 116.444C162.037 116.456 162.045 116.47 162.049 116.485C162.054 116.5 162.055 116.515 162.053 116.531C162.053 116.545 162.051 116.559 162.045 116.573C162.04 116.586 162.032 116.598 162.021 116.608C162.011 116.618 161.999 116.626 161.986 116.632C161.973 116.637 161.958 116.64 161.944 116.64Z" fill="#D3DBDD"/>
</g>
<g opacity="0.5">
<path d="M159.317 118.199H139.256C139.226 118.196 139.198 118.181 139.178 118.159C139.158 118.136 139.147 118.106 139.147 118.076C139.15 118.048 139.162 118.022 139.182 118.002C139.202 117.982 139.228 117.97 139.256 117.967H159.317C159.346 117.967 159.373 117.978 159.394 117.999C159.414 118.019 159.426 118.047 159.426 118.076C159.428 118.092 159.427 118.107 159.422 118.122C159.417 118.137 159.41 118.151 159.399 118.162C159.389 118.174 159.376 118.183 159.362 118.19C159.348 118.196 159.332 118.199 159.317 118.199Z" fill="#D3DBDD"/>
</g>
<g opacity="0.5">
<path d="M156.583 119.744H136.563C136.549 119.744 136.535 119.742 136.522 119.736C136.508 119.731 136.496 119.723 136.486 119.712C136.476 119.702 136.468 119.69 136.462 119.677C136.457 119.664 136.454 119.649 136.454 119.635C136.457 119.607 136.47 119.581 136.489 119.561C136.509 119.541 136.535 119.529 136.563 119.526H156.583C156.611 119.529 156.637 119.541 156.657 119.561C156.677 119.581 156.689 119.607 156.692 119.635C156.692 119.664 156.681 119.692 156.66 119.712C156.64 119.733 156.612 119.744 156.583 119.744Z" fill="#D3DBDD"/>
</g>
<g opacity="0.5">
<path d="M153.847 121.303H133.868C133.84 121.3 133.814 121.288 133.794 121.268C133.774 121.248 133.762 121.222 133.759 121.194C133.759 121.165 133.771 121.137 133.791 121.117C133.812 121.096 133.839 121.084 133.868 121.084H153.847C153.876 121.084 153.904 121.096 153.924 121.117C153.945 121.137 153.956 121.165 153.956 121.194C153.953 121.222 153.941 121.248 153.921 121.268C153.901 121.288 153.875 121.3 153.847 121.303Z" fill="#D3DBDD"/>
</g>
<g opacity="0.5">
<path d="M151.113 122.862H131.176C131.147 122.862 131.119 122.851 131.099 122.83C131.078 122.809 131.067 122.782 131.067 122.753C131.064 122.738 131.065 122.722 131.07 122.708C131.075 122.694 131.083 122.681 131.093 122.67C131.104 122.659 131.117 122.651 131.132 122.647C131.146 122.642 131.161 122.641 131.176 122.643H151.113C151.142 122.643 151.17 122.655 151.191 122.675C151.211 122.696 151.223 122.724 151.223 122.753C151.22 122.781 151.207 122.807 151.187 122.827C151.167 122.847 151.141 122.859 151.113 122.862Z" fill="#D3DBDD"/>
</g>
<g opacity="0.5">
<path d="M148.473 124.421H128.481C128.467 124.421 128.453 124.418 128.439 124.413C128.426 124.407 128.414 124.399 128.404 124.389C128.394 124.379 128.386 124.367 128.38 124.353C128.375 124.34 128.372 124.326 128.372 124.312C128.37 124.296 128.371 124.28 128.376 124.265C128.38 124.251 128.388 124.237 128.398 124.225C128.409 124.214 128.422 124.204 128.436 124.198C128.45 124.192 128.466 124.188 128.481 124.188H148.473C148.503 124.192 148.531 124.206 148.551 124.229C148.572 124.252 148.583 124.281 148.583 124.312C148.58 124.34 148.567 124.366 148.547 124.386C148.527 124.405 148.501 124.418 148.473 124.421Z" fill="#D3DBDD"/>
</g>
<g opacity="0.5">
<path d="M145.764 125.939H125.786C125.77 125.939 125.755 125.936 125.741 125.929C125.726 125.923 125.714 125.914 125.703 125.902C125.693 125.891 125.685 125.877 125.681 125.862C125.676 125.847 125.675 125.831 125.677 125.816C125.677 125.787 125.688 125.759 125.709 125.738C125.729 125.718 125.757 125.706 125.786 125.706H145.764C145.795 125.706 145.824 125.717 145.847 125.738C145.87 125.758 145.884 125.786 145.887 125.816C145.887 125.848 145.875 125.88 145.851 125.903C145.828 125.926 145.797 125.939 145.764 125.939Z" fill="#D3DBDD"/>
</g>
<g opacity="0.5">
<path d="M143.071 127.525H123.079C123.05 127.525 123.022 127.514 123.001 127.493C122.981 127.473 122.969 127.445 122.969 127.416C122.972 127.388 122.985 127.362 123.005 127.342C123.024 127.322 123.051 127.309 123.079 127.306H143.071C143.101 127.306 143.13 127.317 143.153 127.337C143.176 127.358 143.19 127.385 143.194 127.416C143.194 127.431 143.191 127.447 143.184 127.461C143.178 127.475 143.169 127.488 143.157 127.498C143.145 127.509 143.132 127.516 143.117 127.521C143.102 127.526 143.086 127.527 143.071 127.525Z" fill="#D3DBDD"/>
</g>
<g opacity="0.5">
<path d="M140.377 129.084H120.385C120.356 129.084 120.328 129.072 120.307 129.052C120.287 129.031 120.275 129.004 120.275 128.975C120.278 128.947 120.291 128.92 120.311 128.9C120.331 128.881 120.357 128.868 120.385 128.865H140.377C140.406 128.865 140.434 128.877 140.454 128.897C140.475 128.918 140.486 128.945 140.486 128.975C140.489 128.989 140.487 129.005 140.483 129.019C140.478 129.033 140.47 129.046 140.459 129.057C140.449 129.068 140.436 129.076 140.421 129.08C140.407 129.085 140.392 129.086 140.377 129.084Z" fill="#D3DBDD"/>
</g>
<g opacity="0.5">
<path d="M137.684 130.643H117.692C117.664 130.64 117.638 130.627 117.618 130.608C117.598 130.588 117.586 130.562 117.583 130.534C117.583 130.505 117.594 130.477 117.615 130.456C117.635 130.436 117.663 130.424 117.692 130.424H137.684C137.699 130.422 137.714 130.423 137.729 130.428C137.743 130.432 137.756 130.44 137.767 130.451C137.777 130.462 137.785 130.475 137.79 130.489C137.795 130.503 137.796 130.519 137.794 130.534C137.794 130.563 137.782 130.59 137.761 130.611C137.741 130.631 137.713 130.643 137.684 130.643Z" fill="#D3DBDD"/>
</g>
<g opacity="0.5">
<path d="M134.99 132.202H114.998C114.97 132.199 114.944 132.186 114.924 132.166C114.904 132.147 114.892 132.12 114.889 132.092C114.889 132.062 114.9 132.033 114.92 132.01C114.94 131.987 114.968 131.973 114.998 131.969H134.99C135.021 131.973 135.049 131.987 135.069 132.01C135.089 132.033 135.1 132.062 135.1 132.092C135.097 132.12 135.084 132.147 135.064 132.166C135.045 132.186 135.018 132.199 134.99 132.202Z" fill="#D3DBDD"/>
</g>
<g opacity="0.5">
<path d="M132.297 133.761H112.305C112.274 133.757 112.247 133.743 112.226 133.72C112.206 133.698 112.195 133.668 112.195 133.638C112.198 133.61 112.211 133.584 112.231 133.564C112.25 133.544 112.277 133.531 112.305 133.528H132.297C132.325 133.531 132.351 133.544 132.371 133.564C132.391 133.584 132.403 133.61 132.406 133.638C132.406 133.668 132.395 133.698 132.375 133.72C132.355 133.743 132.327 133.757 132.297 133.761Z" fill="#D3DBDD"/>
</g>
<g opacity="0.5">
<path d="M129.603 135.306H109.611C109.596 135.308 109.581 135.307 109.566 135.302C109.552 135.298 109.539 135.29 109.528 135.279C109.518 135.268 109.51 135.255 109.505 135.241C109.5 135.227 109.499 135.211 109.501 135.197C109.501 135.168 109.513 135.14 109.533 135.119C109.554 135.099 109.582 135.087 109.611 135.087H129.603C129.631 135.09 129.657 135.103 129.677 135.123C129.697 135.142 129.709 135.169 129.712 135.197C129.712 135.226 129.701 135.253 129.68 135.274C129.66 135.294 129.632 135.306 129.603 135.306Z" fill="#D3DBDD"/>
</g>
<g opacity="0.5">
<path d="M126.909 136.878H106.917C106.902 136.881 106.887 136.879 106.873 136.875C106.858 136.87 106.845 136.862 106.835 136.851C106.824 136.841 106.816 136.828 106.811 136.813C106.807 136.799 106.805 136.784 106.808 136.769C106.808 136.74 106.819 136.712 106.84 136.692C106.86 136.671 106.888 136.66 106.917 136.66H126.909C126.937 136.663 126.963 136.675 126.983 136.695C127.003 136.715 127.016 136.741 127.018 136.769C127.018 136.798 127.007 136.826 126.986 136.846C126.966 136.867 126.938 136.878 126.909 136.878Z" fill="#D3DBDD"/>
</g>
<g opacity="0.5">
<path d="M124.2 138.424H104.222C104.191 138.424 104.162 138.413 104.139 138.392C104.117 138.372 104.102 138.344 104.099 138.314C104.099 138.299 104.102 138.283 104.108 138.269C104.115 138.255 104.124 138.242 104.135 138.231C104.147 138.221 104.161 138.213 104.176 138.209C104.191 138.204 104.206 138.203 104.222 138.205H124.2C124.216 138.203 124.231 138.204 124.246 138.209C124.261 138.213 124.275 138.221 124.287 138.231C124.298 138.242 124.308 138.255 124.314 138.269C124.32 138.283 124.323 138.299 124.323 138.314C124.32 138.344 124.305 138.372 124.283 138.392C124.26 138.413 124.231 138.424 124.2 138.424Z" fill="#D3DBDD"/>
</g>
<g opacity="0.5">
<path d="M121.508 139.982H101.516C101.488 139.979 101.461 139.967 101.442 139.947C101.422 139.927 101.409 139.901 101.406 139.873C101.406 139.844 101.418 139.816 101.438 139.796C101.459 139.775 101.487 139.764 101.516 139.764H121.508C121.523 139.761 121.538 139.762 121.552 139.767C121.566 139.772 121.579 139.78 121.59 139.79C121.601 139.801 121.609 139.814 121.613 139.829C121.618 139.843 121.619 139.858 121.617 139.873C121.617 139.902 121.606 139.93 121.585 139.95C121.564 139.971 121.537 139.982 121.508 139.982Z" fill="#D3DBDD"/>
</g>
<g opacity="0.5">
<path d="M118.814 141.541H98.8221C98.7941 141.538 98.7679 141.526 98.748 141.506C98.7281 141.486 98.7157 141.46 98.7127 141.432C98.7125 141.402 98.7236 141.372 98.7438 141.349C98.764 141.327 98.7919 141.312 98.8221 141.309H118.814C118.83 141.309 118.845 141.312 118.859 141.318C118.874 141.325 118.886 141.334 118.897 141.346C118.907 141.357 118.915 141.371 118.919 141.386C118.924 141.401 118.925 141.416 118.924 141.432C118.924 141.461 118.912 141.489 118.891 141.509C118.871 141.53 118.843 141.541 118.814 141.541Z" fill="#D3DBDD"/>
</g>
<g opacity="0.5">
<path d="M116.119 143.1H96.127C96.0968 143.097 96.0689 143.082 96.0487 143.06C96.0285 143.037 96.0174 143.008 96.0176 142.977C96.0206 142.949 96.033 142.923 96.0529 142.903C96.0728 142.883 96.099 142.871 96.127 142.868H116.119C116.148 142.868 116.176 142.879 116.196 142.9C116.217 142.92 116.228 142.948 116.228 142.977C116.23 142.993 116.229 143.008 116.224 143.023C116.22 143.038 116.212 143.052 116.202 143.064C116.191 143.075 116.179 143.084 116.164 143.091C116.15 143.097 116.135 143.1 116.119 143.1Z" fill="#D3DBDD"/>
</g>
<g opacity="0.5">
<path d="M113.425 144.645H93.4332C93.4042 144.645 93.3763 144.634 93.3558 144.613C93.3353 144.593 93.3238 144.565 93.3238 144.536C93.3268 144.508 93.3393 144.482 93.3592 144.462C93.3791 144.442 93.4052 144.43 93.4332 144.427H113.425C113.453 144.43 113.479 144.442 113.499 144.462C113.519 144.482 113.532 144.508 113.535 144.536C113.535 144.565 113.523 144.593 113.503 144.613C113.482 144.634 113.454 144.645 113.425 144.645Z" fill="#D3DBDD"/>
</g>
<g opacity="0.5">
<path d="M110.732 146.204H90.7396C90.7247 146.207 90.7094 146.205 90.6951 146.201C90.6808 146.196 90.6677 146.188 90.6571 146.177C90.6464 146.167 90.6384 146.154 90.6337 146.139C90.6291 146.125 90.6278 146.11 90.6302 146.095C90.6302 146.066 90.6417 146.038 90.6622 146.018C90.6827 145.997 90.7106 145.986 90.7396 145.986H110.732C110.76 145.989 110.786 146.001 110.806 146.021C110.826 146.041 110.838 146.067 110.841 146.095C110.841 146.109 110.838 146.124 110.833 146.137C110.827 146.15 110.819 146.162 110.809 146.172C110.799 146.183 110.787 146.191 110.773 146.196C110.76 146.202 110.746 146.204 110.732 146.204Z" fill="#D3DBDD"/>
</g>
<g opacity="0.5">
<path d="M141.403 226.241C141.372 226.238 141.345 226.224 141.324 226.201C141.304 226.178 141.293 226.149 141.293 226.118V214.577C141.296 214.549 141.309 214.523 141.329 214.503C141.349 214.483 141.375 214.471 141.403 214.468C141.432 214.468 141.46 214.479 141.48 214.5C141.501 214.52 141.512 214.548 141.512 214.577V226.118C141.514 226.134 141.513 226.15 141.508 226.164C141.503 226.179 141.496 226.193 141.485 226.205C141.475 226.216 141.462 226.226 141.448 226.232C141.434 226.238 141.418 226.242 141.403 226.241Z" fill="#D3DBDD"/>
</g>
<g opacity="0.5">
<path d="M144.097 227.787C144.083 227.787 144.069 227.784 144.056 227.778C144.042 227.773 144.03 227.765 144.02 227.754C144.01 227.744 144.002 227.732 143.996 227.719C143.991 227.706 143.988 227.691 143.988 227.677V216.191C143.991 216.163 144.003 216.136 144.023 216.117C144.043 216.097 144.069 216.084 144.097 216.081C144.126 216.081 144.154 216.093 144.175 216.113C144.195 216.134 144.207 216.162 144.207 216.191V227.732C144.198 227.752 144.182 227.769 144.162 227.779C144.142 227.789 144.119 227.792 144.097 227.787Z" fill="#D3DBDD"/>
</g>
<g opacity="0.5">
<path d="M146.791 229.346C146.763 229.343 146.737 229.33 146.717 229.31C146.698 229.29 146.685 229.264 146.682 229.236V217.695C146.682 217.666 146.694 217.638 146.714 217.618C146.735 217.597 146.762 217.586 146.791 217.586C146.806 217.583 146.822 217.584 146.836 217.589C146.85 217.594 146.863 217.602 146.874 217.612C146.885 217.623 146.893 217.636 146.897 217.65C146.902 217.665 146.903 217.68 146.901 217.695V229.236C146.901 229.265 146.889 229.293 146.869 229.313C146.848 229.334 146.821 229.346 146.791 229.346Z" fill="#D3DBDD"/>
</g>
<g opacity="0.5">
<path d="M149.485 230.904C149.457 230.901 149.431 230.889 149.411 230.869C149.391 230.849 149.379 230.823 149.376 230.795V219.254C149.376 219.225 149.387 219.197 149.408 219.176C149.428 219.156 149.456 219.144 149.485 219.144C149.501 219.142 149.516 219.144 149.531 219.148C149.546 219.153 149.56 219.161 149.572 219.171C149.583 219.182 149.592 219.194 149.599 219.209C149.605 219.223 149.608 219.238 149.608 219.254V230.795C149.605 230.825 149.59 230.853 149.568 230.873C149.545 230.894 149.516 230.905 149.485 230.904Z" fill="#D3DBDD"/>
</g>
<g opacity="0.5">
<path d="M152.193 232.463C152.162 232.463 152.133 232.452 152.11 232.432C152.087 232.412 152.073 232.384 152.069 232.354V220.813C152.069 220.78 152.082 220.749 152.106 220.726C152.129 220.702 152.16 220.689 152.193 220.689C152.223 220.693 152.251 220.707 152.271 220.73C152.291 220.753 152.302 220.782 152.302 220.813V232.354C152.299 232.382 152.287 232.408 152.267 232.428C152.247 232.448 152.221 232.46 152.193 232.463Z" fill="#D3DBDD"/>
</g>
<g opacity="0.5">
<path d="M154.885 233.967C154.87 233.968 154.854 233.964 154.84 233.958C154.826 233.952 154.813 233.942 154.803 233.931C154.792 233.919 154.785 233.905 154.78 233.89C154.775 233.876 154.774 233.86 154.776 233.844V222.303C154.776 222.274 154.787 222.246 154.808 222.226C154.828 222.205 154.856 222.194 154.885 222.194C154.913 222.197 154.939 222.209 154.959 222.229C154.979 222.249 154.992 222.275 154.995 222.303V233.967C154.978 233.976 154.959 233.98 154.94 233.98C154.921 233.98 154.902 233.976 154.885 233.967Z" fill="#D3DBDD"/>
</g>
<g opacity="0.5">
<path d="M157.578 235.567C157.563 235.57 157.548 235.568 157.534 235.564C157.519 235.559 157.506 235.551 157.496 235.54C157.485 235.53 157.477 235.517 157.472 235.502C157.468 235.488 157.466 235.473 157.469 235.458V223.917C157.469 223.888 157.48 223.86 157.501 223.839C157.521 223.819 157.549 223.807 157.578 223.807C157.606 223.81 157.632 223.823 157.652 223.843C157.672 223.863 157.685 223.889 157.687 223.917V235.458C157.687 235.487 157.676 235.515 157.655 235.535C157.635 235.556 157.607 235.567 157.578 235.567Z" fill="#D3DBDD"/>
</g>
<g opacity="0.5">
<path d="M160.274 237.126C160.259 237.129 160.244 237.127 160.23 237.123C160.215 237.118 160.202 237.11 160.192 237.099C160.181 237.089 160.173 237.076 160.168 237.061C160.164 237.047 160.162 237.032 160.165 237.017V225.476C160.165 225.461 160.168 225.447 160.173 225.434C160.179 225.42 160.187 225.408 160.197 225.398C160.207 225.388 160.219 225.38 160.232 225.375C160.246 225.369 160.26 225.366 160.274 225.366C160.302 225.369 160.328 225.382 160.348 225.402C160.368 225.421 160.381 225.448 160.384 225.476V237.017C160.384 237.046 160.372 237.074 160.352 237.094C160.331 237.115 160.303 237.126 160.274 237.126Z" fill="#D3DBDD"/>
</g>
<g opacity="0.5">
<path d="M162.966 238.685C162.938 238.682 162.912 238.67 162.892 238.65C162.872 238.63 162.859 238.604 162.856 238.576V227.034C162.856 227.005 162.868 226.978 162.888 226.957C162.909 226.936 162.937 226.925 162.966 226.925C162.981 226.923 162.996 226.924 163.01 226.929C163.025 226.933 163.038 226.941 163.048 226.952C163.059 226.963 163.067 226.976 163.072 226.99C163.076 227.004 163.077 227.019 163.075 227.034V238.576C163.075 238.605 163.064 238.632 163.043 238.653C163.023 238.673 162.995 238.685 162.966 238.685Z" fill="#D3DBDD"/>
</g>
<g opacity="0.5">
<path d="M165.661 240.244C165.633 240.241 165.606 240.228 165.587 240.209C165.567 240.189 165.554 240.163 165.551 240.135V228.593C165.551 228.563 165.562 228.533 165.582 228.511C165.602 228.488 165.63 228.474 165.661 228.47C165.676 228.47 165.692 228.473 165.706 228.48C165.72 228.486 165.733 228.495 165.743 228.507C165.754 228.519 165.761 228.532 165.766 228.547C165.771 228.562 165.772 228.578 165.77 228.593V240.135C165.77 240.164 165.758 240.191 165.738 240.212C165.717 240.232 165.69 240.244 165.661 240.244Z" fill="#D3DBDD"/>
</g>
<g opacity="0.5">
<path d="M168.356 241.803C168.326 241.8 168.298 241.785 168.278 241.762C168.258 241.74 168.247 241.71 168.247 241.68V230.152C168.247 230.122 168.258 230.092 168.278 230.07C168.298 230.047 168.326 230.033 168.356 230.029C168.389 230.029 168.42 230.042 168.443 230.065C168.466 230.088 168.479 230.12 168.479 230.152V241.68C168.479 241.712 168.466 241.744 168.443 241.767C168.42 241.79 168.389 241.803 168.356 241.803Z" fill="#D3DBDD"/>
</g>
<g opacity="0.5">
<path d="M171.063 243.362C171.03 243.362 170.999 243.349 170.976 243.326C170.953 243.303 170.94 243.272 170.94 243.239V231.698C170.943 231.667 170.958 231.64 170.98 231.619C171.003 231.599 171.033 231.588 171.063 231.588C171.091 231.591 171.117 231.604 171.137 231.624C171.157 231.644 171.169 231.67 171.172 231.698V243.239C171.173 243.269 171.161 243.299 171.141 243.321C171.121 243.344 171.093 243.359 171.063 243.362Z" fill="#D3DBDD"/>
</g>
<g opacity="0.5">
<path d="M173.757 244.907C173.741 244.909 173.725 244.908 173.711 244.903C173.696 244.898 173.682 244.891 173.67 244.88C173.659 244.87 173.649 244.857 173.643 244.843C173.637 244.829 173.633 244.813 173.634 244.798V233.256C173.637 233.226 173.651 233.198 173.674 233.178C173.697 233.158 173.726 233.147 173.757 233.147C173.785 233.15 173.811 233.162 173.831 233.182C173.851 233.202 173.863 233.228 173.866 233.256V244.798C173.866 244.827 173.854 244.854 173.834 244.875C173.813 244.895 173.786 244.907 173.757 244.907Z" fill="#D3DBDD"/>
</g>
<g opacity="0.5">
<path d="M176.451 246.466C176.422 246.466 176.394 246.455 176.373 246.434C176.353 246.413 176.341 246.386 176.341 246.357V234.815C176.339 234.8 176.34 234.785 176.345 234.771C176.35 234.757 176.358 234.744 176.368 234.733C176.379 234.722 176.392 234.714 176.406 234.71C176.421 234.705 176.436 234.704 176.451 234.706C176.48 234.706 176.508 234.718 176.528 234.738C176.549 234.759 176.56 234.786 176.56 234.815V246.357C176.557 246.385 176.545 246.411 176.525 246.431C176.505 246.451 176.479 246.463 176.451 246.466Z" fill="#D3DBDD"/>
</g>
<g opacity="0.5">
<path d="M179.144 248.025C179.115 248.025 179.087 248.013 179.067 247.993C179.046 247.972 179.035 247.944 179.035 247.915V236.374C179.033 236.359 179.034 236.343 179.039 236.328C179.043 236.313 179.051 236.299 179.062 236.288C179.072 236.276 179.085 236.267 179.099 236.26C179.113 236.254 179.129 236.251 179.144 236.251C179.174 236.254 179.202 236.269 179.222 236.292C179.243 236.314 179.254 236.344 179.254 236.374V247.915C179.251 247.943 179.238 247.97 179.218 247.989C179.198 248.009 179.172 248.022 179.144 248.025Z" fill="#D3DBDD"/>
</g>
<g opacity="0.5">
<path d="M181.839 249.584C181.809 249.58 181.781 249.566 181.761 249.543C181.741 249.52 181.73 249.491 181.73 249.461V237.933C181.73 237.903 181.741 237.873 181.761 237.851C181.781 237.828 181.809 237.813 181.839 237.81C181.855 237.81 181.87 237.813 181.884 237.819C181.899 237.826 181.911 237.835 181.922 237.847C181.932 237.858 181.94 237.872 181.944 237.887C181.949 237.902 181.95 237.918 181.949 237.933V249.461C181.95 249.476 181.949 249.492 181.944 249.507C181.94 249.522 181.932 249.535 181.922 249.547C181.911 249.559 181.899 249.568 181.884 249.574C181.87 249.581 181.855 249.584 181.839 249.584Z" fill="#D3DBDD"/>
</g>
<g opacity="0.5">
<path d="M184.532 251.143C184.502 251.139 184.474 251.125 184.454 251.102C184.433 251.079 184.422 251.05 184.422 251.02V239.437C184.425 239.409 184.438 239.383 184.458 239.363C184.478 239.343 184.504 239.331 184.532 239.328C184.561 239.328 184.589 239.339 184.609 239.36C184.63 239.381 184.641 239.408 184.641 239.437V250.979C184.652 250.996 184.657 251.017 184.657 251.037C184.656 251.058 184.65 251.078 184.638 251.095C184.627 251.112 184.611 251.126 184.592 251.134C184.573 251.143 184.552 251.146 184.532 251.143Z" fill="#D3DBDD"/>
</g>
<g opacity="0.5">
<path d="M187.225 252.688C187.196 252.688 187.168 252.676 187.147 252.656C187.127 252.635 187.115 252.607 187.115 252.578V241.037C187.118 241.009 187.131 240.983 187.151 240.963C187.171 240.943 187.197 240.931 187.225 240.928C187.254 240.928 187.281 240.939 187.302 240.96C187.322 240.98 187.334 241.008 187.334 241.037V252.578C187.336 252.593 187.335 252.609 187.33 252.623C187.326 252.637 187.318 252.65 187.307 252.661C187.296 252.672 187.283 252.68 187.269 252.684C187.255 252.689 187.24 252.69 187.225 252.688Z" fill="#D3DBDD"/>
</g>
<g opacity="0.5">
<path d="M189.919 254.247C189.891 254.244 189.865 254.231 189.845 254.211C189.825 254.191 189.813 254.165 189.81 254.137V242.596C189.81 242.567 189.822 242.539 189.842 242.519C189.863 242.498 189.89 242.487 189.919 242.487C189.935 242.485 189.951 242.486 189.965 242.491C189.98 242.495 189.994 242.503 190.006 242.513C190.017 242.524 190.027 242.536 190.033 242.551C190.039 242.565 190.043 242.58 190.042 242.596V254.137C190.039 254.167 190.025 254.195 190.002 254.216C189.979 254.236 189.95 254.247 189.919 254.247Z" fill="#D3DBDD"/>
</g>
<g opacity="0.5">
<path d="M192.629 255.846C192.598 255.847 192.569 255.836 192.546 255.815C192.523 255.795 192.509 255.767 192.506 255.737V244.196C192.506 244.18 192.509 244.165 192.515 244.151C192.521 244.136 192.531 244.124 192.542 244.113C192.554 244.103 192.568 244.095 192.583 244.09C192.598 244.086 192.613 244.084 192.629 244.086C192.658 244.086 192.686 244.098 192.706 244.118C192.727 244.139 192.738 244.167 192.738 244.196V255.737C192.735 255.765 192.723 255.791 192.703 255.811C192.683 255.831 192.657 255.843 192.629 255.846Z" fill="#D3DBDD"/>
</g>
<path d="M309.34 113.782H309.203L260.112 85.4353C260.066 85.4129 260.027 85.3779 260 85.3343C259.972 85.2908 259.958 85.2405 259.958 85.1891C259.958 85.1377 259.972 85.0874 260 85.0439C260.027 85.0003 260.066 84.9654 260.112 84.943L267.838 80.4851C267.879 80.458 267.926 80.4436 267.975 80.4436C268.024 80.4436 268.071 80.458 268.112 80.4851L317.217 108.832C317.259 108.858 317.293 108.894 317.317 108.937C317.341 108.981 317.354 109.029 317.353 109.078C317.354 109.126 317.342 109.173 317.318 109.214C317.293 109.255 317.259 109.288 317.217 109.311L309.477 113.782H309.34ZM260.81 85.1617L309.34 113.181L316.519 109.078L267.975 81.0457L260.81 85.1617Z" fill="#D3DBDD"/>
<path d="M349.625 182.565C349.581 182.579 349.533 182.579 349.488 182.565L341.762 178.107C341.717 178.084 341.679 178.049 341.652 178.005C341.625 177.962 341.611 177.912 341.612 177.861C341.611 177.811 341.624 177.763 341.651 177.721C341.678 177.68 341.717 177.648 341.762 177.628L366.308 163.448C366.348 163.421 366.396 163.406 366.445 163.406C366.493 163.406 366.541 163.421 366.581 163.448L374.307 167.906C374.354 167.928 374.393 167.963 374.42 168.007C374.447 168.05 374.462 168.101 374.462 168.152C374.462 168.203 374.447 168.254 374.42 168.297C374.393 168.341 374.354 168.376 374.307 168.398L349.693 182.565C349.671 182.568 349.648 182.568 349.625 182.565ZM342.46 177.82L349.625 181.922L373.61 168.07L366.445 163.968L342.46 177.82Z" fill="#D3DBDD"/>
<path d="M106.903 147.531C106.859 147.543 106.811 147.543 106.767 147.531L99.0406 143.073C98.995 143.05 98.9568 143.015 98.9303 142.971C98.9037 142.928 98.8898 142.878 98.8901 142.827C98.889 142.777 98.9027 142.729 98.9296 142.687C98.9564 142.646 98.9951 142.614 99.0406 142.594L141.09 118.309C141.133 118.282 141.182 118.268 141.233 118.268C141.284 118.268 141.334 118.282 141.377 118.309L149.103 122.766C149.145 122.792 149.18 122.828 149.205 122.871C149.229 122.914 149.242 122.963 149.242 123.013C149.242 123.062 149.229 123.111 149.205 123.154C149.18 123.197 149.145 123.233 149.103 123.259L107.04 147.531C106.996 147.545 106.948 147.545 106.903 147.531ZM99.738 142.786L106.903 146.888L148.378 122.972L141.213 118.869L99.738 142.786Z" fill="#D3DBDD"/>
<path d="M187.324 251.607C187.28 251.621 187.232 251.621 187.188 251.607L138.083 223.26C138.041 223.234 138.006 223.198 137.982 223.155C137.958 223.112 137.946 223.063 137.946 223.014C137.945 222.966 137.958 222.92 137.982 222.879C138.006 222.838 138.041 222.804 138.083 222.781L145.809 218.31C145.854 218.29 145.903 218.28 145.952 218.28C146.002 218.28 146.051 218.29 146.096 218.31L195.187 246.657C195.233 246.679 195.272 246.714 195.3 246.758C195.327 246.802 195.342 246.852 195.342 246.903C195.342 246.955 195.327 247.005 195.3 247.048C195.272 247.092 195.233 247.127 195.187 247.149L187.461 251.607C187.416 251.619 187.369 251.619 187.324 251.607ZM138.807 223.028L187.352 251.06L194.517 246.958L145.987 218.925L138.807 223.028Z" fill="#D3DBDD"/>
<g style="mix-blend-mode:multiply" opacity="0.4">
<path d="M286.189 98.8635L260.331 83.931C238.001 71.036 203.035 71.7608 180.705 84.6558C158.374 97.5508 157.13 117.734 179.46 130.629L205.305 145.548C227.649 158.443 263.859 158.443 286.189 145.548C308.52 132.653 308.52 111.759 286.189 98.8635Z" fill="#235974"/>
<path d="M247.956 239.437C247.887 239.103 247.748 238.788 247.547 238.512C247.347 238.236 247.09 238.006 246.794 237.837L193.067 206.755C192.869 206.639 192.695 206.485 192.556 206.302C192.418 206.119 192.317 205.91 192.26 205.687C192.202 205.464 192.19 205.233 192.223 205.005C192.256 204.778 192.334 204.559 192.452 204.362L219.486 159.688C220.054 158.746 220.396 157.685 220.486 156.59C220.576 155.494 220.412 154.392 220.006 153.37C219.354 151.818 218.197 150.532 216.724 149.719L206.4 143.716C205.041 142.93 203.498 142.516 201.928 142.516C200.358 142.516 198.816 142.93 197.457 143.716L188.514 148.871C188.163 149.082 187.871 149.379 187.666 149.733L186.832 149.254L90.7959 204.704C90.685 204.767 90.5929 204.859 90.5289 204.969C90.4648 205.08 90.4311 205.205 90.4311 205.333C90.4311 205.461 90.4648 205.586 90.5289 205.696C90.5929 205.807 90.685 205.898 90.7959 205.962L104.757 214.016C105.124 214.225 105.539 214.334 105.961 214.334C106.383 214.334 106.797 214.225 107.164 214.016L202.01 159.318C202.118 159.256 202.208 159.166 202.27 159.058C202.332 158.95 202.365 158.828 202.365 158.703C202.365 158.578 202.332 158.456 202.27 158.348C202.208 158.24 202.118 158.15 202.01 158.088L192.274 152.454L199.904 148.051C200.517 147.695 201.213 147.508 201.921 147.508C202.63 147.508 203.326 147.695 203.938 148.051L214.536 154.163C214.789 154.312 215.009 154.51 215.185 154.745C215.361 154.979 215.489 155.246 215.562 155.531C215.634 155.813 215.65 156.107 215.607 156.396C215.565 156.685 215.466 156.962 215.315 157.212L188.24 201.887C187.71 202.765 187.391 203.755 187.308 204.777C187.224 205.8 187.38 206.828 187.761 207.781C188.367 209.233 189.447 210.438 190.825 211.199L206.468 220.224L202.626 222.44C202.569 222.475 202.523 222.525 202.49 222.583C202.458 222.642 202.441 222.708 202.441 222.775C202.441 222.842 202.458 222.907 202.49 222.966C202.523 223.024 202.569 223.074 202.626 223.11L246.644 248.53C246.912 248.685 247.216 248.767 247.526 248.767C247.835 248.767 248.139 248.685 248.408 248.53L255.382 244.428C255.45 244.388 255.506 244.332 255.545 244.263C255.585 244.195 255.605 244.117 255.605 244.038C255.605 243.96 255.585 243.882 255.545 243.814C255.506 243.745 255.45 243.688 255.382 243.649L247.956 239.437Z" fill="#235974"/>
</g>
<path d="M190.334 285.151L178.888 291.755V298.893L179.503 299.249L190.963 292.63V285.506L190.334 285.151Z" fill="#7C7C7C"/>
<path d="M38.878 183.221L38.7823 214.194C38.8126 214.455 38.7729 214.719 38.6671 214.959C38.5613 215.2 38.3934 215.407 38.1806 215.561L52.2926 207.357C52.5101 207.206 52.6824 207 52.7909 206.759C52.8993 206.518 52.9398 206.251 52.908 205.989L52.99 175.016L38.878 183.221Z" fill="#FFAD12"/>
<path d="M51.9776 170.613C51.4123 169.331 50.6562 168.141 49.735 167.085C49.5983 166.921 49.4342 166.757 49.2837 166.593C45.9015 163.081 42.3414 159.745 38.6177 156.597C37.3381 155.459 35.9659 154.43 34.5153 153.52L33.8179 153.096C28.4712 150.02 23.6305 149.732 20.1435 151.729L6.01776 159.934L38.9048 183.18L53.0169 174.975C52.9786 173.465 52.6246 171.979 51.9776 170.613Z" fill="#FFC421"/>
<path d="M35.1584 174.798C31.7777 171.289 28.2224 167.953 24.506 164.802C23.2261 163.664 21.854 162.635 20.4037 161.725L19.7063 161.315C9.21796 155.257 0.657744 159.947 0.425279 171.871C0.192813 184.178 9.2453 199.521 20.0208 205.743L36.7173 215.315C37.8796 215.985 38.8232 215.452 38.8232 214.125L38.9189 183.153C38.7279 180.002 37.3903 177.03 35.1584 174.798Z" fill="#FD7B03"/>
<path d="M18.476 167.222C11.3243 163.12 5.49896 166.401 5.48528 174.62C5.47161 182.838 11.2422 192.862 18.394 197.005C25.5457 201.148 31.371 197.812 31.3984 189.593C31.4257 181.375 25.6004 171.352 18.476 167.222Z" fill="#B01E1E"/>
<path d="M18.4762 171.447C13.3483 168.494 9.17755 170.873 9.16388 176.753C9.335 179.961 10.2615 183.084 11.8678 185.867C13.4742 188.649 15.715 191.013 18.4078 192.766C23.5357 195.733 27.6928 193.354 27.7201 187.46C27.5468 184.252 26.6195 181.13 25.0133 178.348C23.4072 175.566 21.1675 173.202 18.4762 171.447Z" fill="#D88F39"/>
<g style="mix-blend-mode:screen" opacity="0.5">
<path d="M49.735 167.085L35.623 175.29C36.54 176.346 37.2915 177.536 37.8519 178.818L51.9776 170.613C51.4123 169.331 50.6562 168.141 49.735 167.085Z" fill="#FFC255"/>
</g>
<path d="M50.2132 179.064L41.735 183.96V206.29L50.2132 201.394V179.064Z" fill="url(#paint3_linear_103_1080)"/>
<path d="M51.7177 202.844L40.2312 209.476V212.99L51.7177 206.358V202.844Z" fill="#303030"/>
<path style="mix-blend-mode:multiply" opacity="0.5" d="M49.6799 179.365V201.094L41.735 205.675V206.29L50.2132 201.394V179.064L49.6799 179.365Z" fill="url(#paint4_linear_103_1080)"/>
<path d="M54.7111 184.137C54.4172 183.47 54.0355 182.844 53.5761 182.278L50.8413 178.873C50.7721 178.799 50.694 178.735 50.6088 178.681C50.5579 178.648 50.4985 178.631 50.4379 178.631C50.3772 178.631 50.3178 178.648 50.2669 178.681L41.7204 183.631L45.8227 193.969L54.3966 188.978C54.7435 188.73 55.0186 188.394 55.1939 188.005C55.3692 187.616 55.4385 187.187 55.3949 186.763C55.3468 185.85 55.1142 184.957 54.7111 184.137Z" fill="#D34242"/>
<path d="M42.0485 183.659C42.1389 183.711 42.218 183.781 42.281 183.864L45.0159 187.269C46.0691 188.529 46.6792 190.1 46.7525 191.74C46.7525 193.108 46.0961 194.12 45.0022 194.188L42.2673 194.421C42.1965 194.446 42.1193 194.446 42.0485 194.421C41.9128 194.334 41.799 194.218 41.7159 194.08C41.6329 193.943 41.5829 193.788 41.5699 193.627V183.987C41.5699 183.604 41.8023 183.522 42.0485 183.659Z" fill="#B01E1E"/>
<path d="M187.709 283.961L176.29 290.552L40.2296 211.992L51.6478 205.401L187.709 283.961Z" fill="#E5E2DF"/>
<path d="M48.9704 210.105L48.6832 209.927L54.3718 206.645L54.6726 206.809L48.9704 210.105Z" fill="#3C373D"/>
<path d="M53.2782 212.594L52.9911 212.416L58.6796 209.134L58.9805 209.298L53.2782 212.594Z" fill="#3C373D"/>
<path d="M57.5988 215.069L57.2979 214.905L62.9865 211.609L63.2873 211.787L57.5988 215.069Z" fill="#3C373D"/>
<path d="M61.9066 217.557L61.6058 217.393L67.308 214.098L67.5952 214.276L61.9066 217.557Z" fill="#3C373D"/>
<path d="M64.6814 221.304L63.9567 220.894L71.5187 216.532L72.2297 216.942L64.6814 221.304Z" fill="#D34242"/>
<path d="M70.617 222.59L70.3162 222.426L76.0047 219.13L76.3056 219.308L70.617 222.59Z" fill="#3C373D"/>
<path d="M74.9239 225.078L74.623 224.914L80.3253 221.619L80.6124 221.796L74.9239 225.078Z" fill="#3C373D"/>
<path d="M79.2327 227.567L78.9319 227.389L84.6341 224.107L84.9213 224.272L79.2327 227.567Z" fill="#3C373D"/>
<path d="M83.5386 230.056L83.2377 229.878L88.94 226.596L89.2271 226.76L83.5386 230.056Z" fill="#3C373D"/>
<path d="M86.315 233.803L85.6039 233.393L93.1522 229.03L93.8633 229.441L86.315 233.803Z" fill="#D34242"/>
<path d="M92.249 235.088L91.9482 234.91L97.6504 231.629L97.9376 231.793L92.249 235.088Z" fill="#3C373D"/>
<path d="M96.5579 237.577L96.257 237.399L101.959 234.117L102.26 234.281L96.5579 237.577Z" fill="#3C373D"/>
<path d="M100.865 240.066L100.578 239.888L106.267 236.606L106.568 236.77L100.865 240.066Z" fill="#3C373D"/>
<path d="M105.172 242.541L104.885 242.377L110.574 239.081L110.874 239.259L105.172 242.541Z" fill="#3C373D"/>
<path d="M107.949 246.287L107.238 245.877L114.786 241.515L115.497 241.925L107.949 246.287Z" fill="#D34242"/>
<path d="M113.883 247.573L113.595 247.409L119.284 244.113L119.585 244.291L113.883 247.573Z" fill="#3C373D"/>
<path d="M118.191 250.062L117.904 249.898L123.593 246.602L123.894 246.78L118.191 250.062Z" fill="#3C373D"/>
<path d="M122.511 252.55L122.21 252.386L127.899 249.091L128.2 249.268L122.511 252.55Z" fill="#3C373D"/>
<path d="M126.819 255.039L126.518 254.861L132.22 251.579L132.507 251.757L126.819 255.039Z" fill="#3C373D"/>
<path d="M129.596 258.786L128.885 258.375L136.42 254.013L137.145 254.424L129.596 258.786Z" fill="#D34242"/>
<path d="M135.53 260.071L135.229 259.894L140.932 256.612L141.219 256.776L135.53 260.071Z" fill="#3C373D"/>
<path d="M139.838 262.56L139.537 262.382L145.239 259.101L145.527 259.265L139.838 262.56Z" fill="#3C373D"/>
<path d="M144.144 265.049L143.843 264.871L149.545 261.589L149.832 261.753L144.144 265.049Z" fill="#3C373D"/>
<path d="M148.452 267.538L148.151 267.36L153.853 264.078L154.14 264.242L148.452 267.538Z" fill="#3C373D"/>
<path d="M151.228 271.271L150.517 270.861L158.065 266.512L158.777 266.922L151.228 271.271Z" fill="#D34242"/>
<path d="M157.164 272.556L156.877 272.392L162.565 269.096L162.852 269.274L157.164 272.556Z" fill="#3C373D"/>
<path d="M161.47 275.045L161.169 274.881L166.871 271.585L167.172 271.763L161.47 275.045Z" fill="#3C373D"/>
<path d="M165.777 277.534L165.49 277.37L171.179 274.074L171.48 274.252L165.777 277.534Z" fill="#3C373D"/>
<path d="M170.085 280.023L169.798 279.858L175.487 276.563L175.788 276.741L170.085 280.023Z" fill="#3C373D"/>
<path d="M172.861 283.769L172.15 283.359L179.698 278.997L180.41 279.407L172.861 283.769Z" fill="#D34242"/>
<path d="M179.476 291.783L172.556 287.79V288.815L179.476 292.808L190.962 286.176V285.15L179.476 291.783Z" fill="#7C7C7C"/>
<path d="M179.476 291.783L172.556 287.79L184.043 281.158L190.962 285.151L179.476 291.783Z" fill="#A3A3A3"/>
<path d="M286.382 143.716C264.161 156.556 228.115 156.556 205.894 143.716L180.159 128.865C157.924 116.039 159.155 95.9236 181.376 83.0969C203.597 70.2703 238.426 69.5592 260.688 82.3858L286.382 97.2226C308.617 110.09 308.617 130.903 286.382 143.716Z" fill="#FFC343"/>
<path d="M234.023 73.9761H234.091C215.836 71.5967 195.939 74.7692 181.403 83.1653C159.155 95.9783 157.924 116.093 180.159 128.92L190.524 134.909C201.259 112.128 216.752 92.1904 234.023 73.9761Z" fill="#F2A741"/>
<path d="M249.133 51.2627C207.152 35.8379 169.698 59.5494 167.702 106.603C167.702 114.589 174.429 119.922 184.234 126.964C189.813 130.904 195.869 134.121 202.257 136.537C205.29 137.778 208.39 138.851 211.542 139.75C232.368 145.22 253.823 142.594 268.728 134.28C279.736 128.099 286.04 120.852 286.163 112.606C286.163 111.239 286.163 107.232 286.163 105.92C285.439 80.8132 273.515 60.2058 249.133 51.2627Z" fill="url(#paint5_radial_103_1080)"/>
<path d="M198.14 139.272L180.145 128.879V117.488L198.14 127.881V139.272Z" fill="#FD5703"/>
<path d="M202.64 136.687L198.141 139.272V127.881L202.64 125.283V136.687Z" fill="#FFA114"/>
<path d="M198.14 127.881L180.145 117.488L184.63 114.89L202.639 125.283L198.14 127.881Z" fill="#FFB821"/>
<path d="M239.096 54.4488L237.263 53.4642C229.267 49.2958 220.28 47.4037 211.282 47.9944C203.26 49.7515 195.765 53.3727 189.403 58.5648C194.654 56.7051 206.701 55.2282 222.372 63.009C247.984 75.7262 268.496 90.1801 266.992 135.196L268.51 136.072C269.111 135.771 269.74 135.484 270.315 135.155C276.085 131.928 280.324 129.85 283.073 125.788C283.073 124.859 283.073 122.206 283.073 121.303C283.059 80.9225 263.723 66.6737 239.096 54.4488Z" fill="url(#paint6_radial_103_1080)"/>
<path d="M224.411 61.7921C208.74 54.0113 195.024 55.0506 189.336 58.5649C194.587 56.7052 206.634 55.2283 222.305 63.0091C247.917 75.7263 268.429 90.1803 266.924 135.197L268.442 136.072H268.538C270.22 89.5239 249.681 74.3452 224.411 61.7921Z" fill="#D88F39"/>
<path d="M246.835 233.461L193.067 202.516C192.869 202.401 192.695 202.249 192.557 202.066C192.418 201.884 192.318 201.676 192.26 201.455C192.203 201.233 192.19 201.003 192.223 200.776C192.256 200.55 192.334 200.332 192.451 200.136L219.486 155.38C219.974 154.57 220.295 153.67 220.431 152.735C220.568 151.799 220.516 150.845 220.279 149.93C220.042 149.014 219.625 148.155 219.052 147.403C218.479 146.65 217.762 146.02 216.942 145.548L206.358 139.422C204.997 138.642 203.456 138.232 201.887 138.232C200.318 138.232 198.777 138.642 197.415 139.422L188.472 144.591C187.95 144.937 187.579 145.47 187.436 146.08C187.293 146.691 187.388 147.332 187.702 147.875C188.016 148.418 188.525 148.82 189.126 149C189.726 149.18 190.373 149.124 190.934 148.843L199.863 143.688C200.478 143.341 201.173 143.158 201.88 143.158C202.587 143.158 203.281 143.341 203.897 143.688L214.495 149.801C214.747 149.95 214.968 150.147 215.144 150.382C215.32 150.617 215.448 150.884 215.52 151.168C215.593 151.451 215.608 151.745 215.566 152.034C215.524 152.322 215.425 152.6 215.274 152.85L188.199 197.538C187.744 198.294 187.445 199.133 187.318 200.006C187.191 200.878 187.239 201.768 187.459 202.622C187.679 203.476 188.067 204.277 188.6 204.98C189.133 205.682 189.801 206.272 190.564 206.714L244.291 237.741C244.667 237.952 245.091 238.065 245.522 238.069C246.064 238.07 246.592 237.891 247.022 237.561C247.453 237.231 247.762 236.769 247.902 236.245C248.043 235.721 248.006 235.165 247.798 234.664C247.59 234.163 247.223 233.745 246.753 233.475L246.835 233.461Z" fill="#A3A3A3"/>
<path d="M112.579 203.364C112.579 210.638 107.465 213.592 101.174 209.955C94.8842 206.317 89.77 197.47 89.77 190.209C89.77 182.948 94.8842 179.994 101.174 183.618C107.465 187.241 112.579 196.102 112.579 203.364Z" fill="#D4CEBB"/>
<path d="M109.625 201.668C109.625 207.055 105.837 209.243 101.174 206.55C98.7149 204.943 96.6681 202.781 95.1999 200.236C93.7318 197.692 92.8834 194.837 92.7237 191.904C92.7237 186.516 96.5115 184.329 101.174 187.036C103.634 188.639 105.681 190.8 107.149 193.342C108.617 195.884 109.466 198.736 109.625 201.668Z" fill="#7C7C7C"/>
<path d="M106.508 199.863C106.508 203.268 104.115 204.649 101.175 202.94C99.623 201.929 98.331 200.567 97.4043 198.963C96.4777 197.359 95.9425 195.559 95.8423 193.709C95.8423 190.304 98.2353 188.937 101.175 190.633C102.726 191.645 104.017 193.008 104.943 194.611C105.87 196.215 106.406 198.014 106.508 199.863Z" fill="#383638"/>
<path d="M93.0373 182.865L186.297 129.029C188.362 127.785 191.247 127.935 194.502 129.781C200.792 133.419 205.906 142.252 205.906 149.527C205.906 153.124 204.662 155.653 202.638 156.857L109.31 210.72C111.334 209.503 112.578 206.974 112.578 203.377C112.578 196.116 107.464 187.269 101.174 183.631C97.9874 181.785 95.0474 181.635 93.0373 182.865Z" fill="#F0ECE0"/>
<path d="M208.698 205.456C208.044 205.141 207.317 205.01 206.594 205.077C205.871 205.145 205.18 205.408 204.596 205.839C202.92 206.927 201.524 208.396 200.524 210.126C199.523 211.856 198.946 213.798 198.839 215.794C198.768 216.501 198.882 217.214 199.17 217.863C199.458 218.513 199.909 219.077 200.48 219.499L247.534 246.657L255.739 232.613L208.698 205.456Z" fill="url(#paint7_linear_103_1080)"/>
<path d="M245.893 242.965C245.893 246.63 248.463 248.107 251.636 246.274C253.312 245.186 254.708 243.717 255.708 241.987C256.709 240.257 257.286 238.315 257.393 236.319C257.393 232.654 254.822 231.164 251.636 232.996C249.962 234.089 248.569 235.561 247.571 237.293C246.573 239.025 245.998 240.969 245.893 242.965Z" fill="#FFB821"/>
<path d="M245.891 242.965C246.794 236.497 252.236 230.972 255.71 232.6C252.988 230.234 245.878 235.772 245.891 242.965Z" fill="url(#paint8_linear_103_1080)"/>
<path d="M136.673 275.551L138.041 276.796C138.041 276.796 138.041 276.878 137.945 276.796L135.771 276.016L136.673 275.551Z" fill="url(#paint9_linear_103_1080)"/>
<path d="M129.29 272.529L64.4728 235.006V236.032L129.29 273.555V272.529Z" fill="#EE9B1E"/>
<path d="M129.919 271.435L65.1018 233.912L64.4728 235.006L129.29 272.529L129.919 271.435Z" fill="#FFB821"/>
<path d="M130.82 270.929L65.9898 233.393L65.101 233.912L129.918 271.435L130.82 270.929Z" fill="#FFC343"/>
<path d="M128.688 271.285L131.423 271.421C131.977 271.578 132.497 271.838 132.955 272.187L137.194 276.016C136.688 275.729 136.401 276.125 136.592 276.358L130.001 273.965C129.741 273.787 129.345 273.609 129.263 273.377L128.374 271.462L128.688 271.285Z" fill="url(#paint10_linear_103_1080)"/>
<path d="M132.353 271.805C132.189 272.201 131.573 271.969 131.327 272.133C131.081 272.297 132.585 273.254 131.601 273.405C131.069 273.374 130.547 273.254 130.055 273.049C129.905 273.049 129.686 273.049 129.632 273.049C129.577 273.049 130.11 273.514 130.014 273.938L126.131 271.627L128.059 269.302L132.353 271.805Z" fill="#FFB821"/>
<path d="M128.058 269.329L129.221 269.999L132.352 271.804C132.174 272.187 131.559 271.968 131.327 272.133C131.318 272.147 131.314 272.164 131.314 272.18C131.314 272.197 131.318 272.214 131.327 272.228L127.101 269.794L128.058 269.329Z" fill="#FFC343"/>
<path d="M126.623 270.984L130.315 273.131L130.055 273.049C129.905 273.049 129.686 273.049 129.631 273.049C129.576 273.049 130.11 273.514 130.014 273.937L125.447 271.312L126.623 270.984Z" fill="#EE9B1E"/>
<path d="M105.305 278.464L29.6717 234.801V234.35L105.305 278.012V278.464Z" fill="#D1A15A"/>
<path d="M114.973 272.885L105.305 278.464V278.013L114.973 272.433V272.885Z" fill="#EEBA65"/>
<path d="M105.305 278.012L29.6718 234.35L39.3396 228.771L114.973 272.433L105.305 278.012Z" fill="#FFD079"/>
<path d="M82.0989 253.453H82.1947L79.1042 255.245H78.9949L82.0989 253.453ZM81.9212 255.846H82.0306L84.2322 254.575H84.1228L81.9212 255.846ZM83.945 257.009L84.0544 257.077L86.256 255.805L86.1466 255.737L83.945 257.009ZM77.8599 253.494L77.9693 253.563L80.1709 252.291L80.0615 252.223L77.8599 253.494ZM71.8021 250.035L71.8978 250.103L74.0994 248.831L74.0037 248.763L71.8021 250.035ZM68.8758 249.378L68.9715 249.447L72.0756 247.655H71.9662L68.8758 249.378ZM75.8634 252.387H75.9591L78.1607 251.115H78.065L75.8634 252.387ZM86.0098 258.239H86.1056L88.3072 256.968H88.2114L86.0098 258.239ZM73.8259 251.211H73.9353L76.1369 249.939H76.0275L73.8259 251.211ZM94.1325 262.93H94.2282L96.4298 261.658H96.3341L94.1325 262.93ZM98.2348 265.268L98.3305 265.336L100.518 264.051L100.423 263.983L98.2348 265.268ZM96.1973 264.106H96.3067L98.5083 262.834H98.3989L96.1973 264.106ZM104.593 266.403H104.484L102.282 267.675H102.392L104.593 266.403ZM99.3561 266.964H99.4655L102.556 265.172H102.46L99.3561 266.964ZM67.6997 247.642H67.7955L69.9971 246.37H69.9013L67.6997 247.642ZM89.1276 261.043L89.237 261.111L92.3274 259.32H92.2317L89.1276 261.043ZM92.054 261.699L92.1633 261.767L94.3649 260.496L94.2555 260.427L92.054 261.699ZM87.9516 259.361H88.061L90.2626 258.089H90.1532L87.9516 259.361ZM41.3217 232.463H41.4311L43.6327 231.232H43.5233L41.3217 232.463ZM106.453 267.511L104.252 268.782L104.347 268.851L106.549 267.579L106.453 267.511ZM38.3954 231.807H38.5048L41.5952 230.015H41.4995L38.3954 231.807ZM43.3592 233.625L43.4549 233.694L45.6565 232.422L45.5608 232.354L43.3592 233.625ZM45.383 234.801H45.4924L47.694 233.53H47.5846L45.383 234.801ZM108.286 271.134H108.381L110.583 269.863H110.487L108.286 271.134ZM112.62 271.134H112.511L109.421 272.912H109.516L112.62 271.134ZM47.3932 236.018H47.4889L49.6905 234.747H49.5948L47.3932 236.018ZM108.559 268.837H108.45L106.248 270.109H106.357L108.559 268.837ZM63.5974 245.344L63.7068 245.413L65.9084 244.141L65.799 244.073L63.5974 245.344ZM58.702 243.539H58.7977L61.9018 241.748H61.7924L58.702 243.539ZM61.6283 244.196H61.724L63.9256 242.924H63.8299L61.6283 244.196ZM48.5555 237.659L48.6649 237.728L51.7553 235.936H51.6596L48.5555 237.659ZM57.5806 241.83L57.6764 241.898L59.878 240.627L59.7822 240.558L57.5806 241.83ZM65.7033 246.52H65.799L68.0006 245.249H67.9049L65.7033 246.52ZM51.4818 238.316H51.5912L53.7928 237.058L53.6834 236.989L51.4818 238.316ZM53.5193 239.492H53.6151L55.8166 238.22H55.7209L53.5193 239.492ZM55.5432 240.668H55.6526L57.8541 239.396H57.7447L55.5432 240.668Z" fill="#CE9D4E"/>
<path d="M366.584 206.523L350.886 208.492V223.151L362.045 226.856L368.581 217.667L366.584 206.523Z" fill="#282726"/>
<path d="M337.252 236.483L328.076 231.178L350.885 218.009L360.074 223.315L337.252 236.483Z" fill="#4A4846"/>
<path d="M333.928 232.914C333.928 235.526 332.109 236.579 329.826 235.28C328.634 234.504 327.641 233.459 326.928 232.228C326.216 230.998 325.803 229.616 325.724 228.196C325.724 225.598 327.556 224.532 329.826 225.844C331.018 226.616 332.012 227.659 332.725 228.887C333.438 230.116 333.85 231.496 333.928 232.914Z" fill="#7FAD36"/>
<path d="M326.927 225.571L350.857 211.76C351.32 211.534 351.836 211.439 352.35 211.484C352.863 211.53 353.354 211.715 353.77 212.02C354.962 212.795 355.955 213.84 356.667 215.071C357.38 216.302 357.793 217.683 357.872 219.103C357.922 219.604 357.841 220.109 357.637 220.569C357.433 221.029 357.114 221.428 356.71 221.728L332.78 235.54C333.187 235.242 333.508 234.843 333.713 234.383C333.917 233.922 333.996 233.415 333.942 232.914C333.864 231.496 333.451 230.116 332.738 228.887C332.026 227.659 331.032 226.616 329.84 225.844C329.425 225.538 328.935 225.35 328.421 225.302C327.908 225.254 327.391 225.347 326.927 225.571Z" fill="#92CC40"/>
<path d="M454.879 177.204L445.69 171.899V153.753L454.879 159.058V177.204Z" fill="#CF9A46"/>
<path d="M468.676 169.246L454.879 177.204V159.058L468.676 151.086V169.246Z" fill="#383534"/>
<path d="M454.879 159.058L445.69 153.753L459.487 145.781L468.676 151.086L454.879 159.058Z" fill="#4A4846"/>
<path d="M229.346 307.413L220.171 302.107V283.961L229.346 289.267V307.413Z" fill="#CF9A46"/>
<path d="M361.455 212.99V224.244L335.802 239.054V227.8L229.346 289.266V307.413L455.741 176.712V158.552L361.455 212.99Z" fill="#FFA114"/>
<path d="M360.074 213.783V223.315L337.306 236.456V226.938L333.45 229.167V242.254L363.999 224.627V211.527L360.074 213.783Z" fill="#383534"/>
<path d="M360.77 213.387L455.74 158.552L446.55 153.26L351.581 208.081L360.77 213.387Z" fill="#FFC343"/>
<path d="M363.958 211.555L354.768 206.249L350.885 208.492L360.074 213.784L363.958 211.555Z" fill="#4A4846"/>
<path d="M333.997 228.853L324.807 223.547L220.171 283.961L229.346 289.267L333.997 228.853Z" fill="#FFC343"/>
<path d="M215.987 315.125L206.798 309.819V291.673L215.987 296.979V315.125Z" fill="#282726"/>
<path d="M229.784 307.167L215.987 315.125V296.979L229.784 289.007V307.167Z" fill="#383534"/>
<path d="M215.987 296.979L206.797 291.674L220.609 283.701L229.784 289.007L215.987 296.979Z" fill="#4A4846"/>
<path d="M428.583 176.89C430.47 175.796 432.316 175.864 433.355 177.273C434.859 179.406 433.998 183.754 431.331 187.077C430.576 188.038 429.648 188.849 428.596 189.47C426.709 190.564 424.877 190.496 423.865 189.019C422.306 186.913 423.222 182.537 425.82 179.324C426.581 178.347 427.518 177.521 428.583 176.89Z" fill="#383534"/>
<path d="M259.376 274.566C261.263 273.486 263.109 273.554 264.162 274.963C265.653 277.096 264.791 281.445 262.138 284.754C261.38 285.715 260.454 286.531 259.403 287.16C257.516 288.241 255.67 288.186 254.672 286.709C253.113 284.603 254.029 280.228 256.628 277.014C257.387 276.037 258.318 275.208 259.376 274.566Z" fill="#383534"/>
<path d="M337.32 226.925L328.131 221.619L324.261 223.862L333.45 229.167L337.32 226.925Z" fill="#4A4846"/>
<defs>
<linearGradient id="paint0_linear_103_1080" x1="306.66" y1="35.6601" x2="181.594" y2="252.264" gradientUnits="userSpaceOnUse">
<stop stop-color="#2B6886"/>
<stop offset="1" stop-color="#2F708D"/>
</linearGradient>
<linearGradient id="paint1_linear_103_1080" x1="357.01" y1="64.732" x2="332.478" y2="107.205" gradientUnits="userSpaceOnUse">
<stop stop-color="#235D75"/>
<stop offset="0.17" stop-color="#2A6179"/>
<stop offset="0.41" stop-color="#3D6E83"/>
<stop offset="0.7" stop-color="#5B8393"/>
<stop offset="1" stop-color="#839DA8"/>
</linearGradient>
<linearGradient id="paint2_linear_103_1080" x1="347.246" y1="55.7889" x2="324.888" y2="94.5149" gradientUnits="userSpaceOnUse">
<stop stop-color="#2F708D"/>
<stop offset="1" stop-color="#2B6886"/>
</linearGradient>
<linearGradient id="paint3_linear_103_1080" x1="46.0425" y1="192.793" x2="50.8149" y2="201.039" gradientUnits="userSpaceOnUse">
<stop stop-color="#BC2E2E"/>
<stop offset="1" stop-color="#C63434"/>
</linearGradient>
<linearGradient id="paint4_linear_103_1080" x1="46.0425" y1="192.793" x2="50.8149" y2="201.039" gradientUnits="userSpaceOnUse">
<stop stop-color="#BC2E2E"/>
<stop offset="1" stop-color="#C63434"/>
</linearGradient>
<radialGradient id="paint5_radial_103_1080" cx="0" cy="0" r="1" gradientUnits="userSpaceOnUse" gradientTransform="translate(265.378 67.1388) scale(116.397 116.397)">
<stop stop-color="#FFC421"/>
<stop offset="0.45" stop-color="#F39628"/>
<stop offset="1" stop-color="#FD5703"/>
</radialGradient>
<radialGradient id="paint6_radial_103_1080" cx="0" cy="0" r="1" gradientUnits="userSpaceOnUse" gradientTransform="translate(244.333 57.0606) scale(104.514)">
<stop stop-color="#FFC421"/>
<stop offset="0.68" stop-color="#FFAD12"/>
<stop offset="1" stop-color="#FFA114"/>
</radialGradient>
<linearGradient id="paint7_linear_103_1080" x1="230.167" y1="217.845" x2="222.031" y2="231.943" gradientUnits="userSpaceOnUse">
<stop stop-color="#FFC421"/>
<stop offset="0.45" stop-color="#FFA114"/>
<stop offset="1" stop-color="#FD5703"/>
</linearGradient>
<linearGradient id="paint8_linear_103_1080" x1="246.602" y1="243.252" x2="251.908" y2="234.322" gradientUnits="userSpaceOnUse">
<stop stop-color="#F2A741"/>
<stop offset="0.24" stop-color="#F8B34A"/>
<stop offset="0.61" stop-color="#FDBE52"/>
<stop offset="1" stop-color="#FFC255"/>
</linearGradient>
<linearGradient id="paint9_linear_103_1080" x1="132.522" y1="277.028" x2="132.144" y2="277.406" gradientUnits="userSpaceOnUse">
<stop offset="0.25" stop-color="#3B3B3B"/>
<stop offset="0.43" stop-color="#636363"/>
<stop offset="0.58" stop-color="#545454"/>
<stop offset="0.73" stop-color="#3B3B3B"/>
</linearGradient>
<linearGradient id="paint10_linear_103_1080" x1="133.502" y1="272.707" x2="132.367" y2="274.348" gradientUnits="userSpaceOnUse">
<stop stop-color="#F5DFC1"/>
<stop offset="0.72" stop-color="#EED4B1"/>
<stop offset="1" stop-color="#EACFA9"/>
</linearGradient>
</defs>
</svg>
