<svg version="1.2" xmlns="http://www.w3.org/2000/svg" viewBox="0 0 87 86" width="87" height="86">
	<title>sliderarrow-svg</title>
	<defs>
		<linearGradient id="g1" x1="87" y1="87.7" x2="2.9" y2="1.3" gradientUnits="userSpaceOnUse">
			<stop offset=".2" stop-color="#fd5703"/>
			<stop offset=".9" stop-color="#ffa114"/>
		</linearGradient>
	</defs>
	<style>
		.s0 { fill: url(#g1) } 
		.s1 { fill: none;stroke: #1c3d4e } 
		.s2 { fill: #ffffff } 
	</style>
	<g id="Layer">
		<path id="Layer" fill-rule="evenodd" class="s0" d="m47.4 84.3c-13.2 0.2-24.8-7.5-32.9-17.8-8.1-10.3-12.8-23.4-9.4-35.9 3.2-12.1 14.4-19.5 25.8-24.7 11-5 23.4-8 34.4-2.9 11.2 5.1 18 16.4 20.7 28.4 2.6 11.9 0.1 24.1-7.1 34-7.6 10.4-18.6 18.7-31.5 18.9z"/>
		<path id="Layer" class="s1" d="m20.8 81c-11.3-6.3-17.4-18.7-19.2-31.6-1.8-12.8 0.6-26.3 9.7-35.3 8.7-8.7 21.8-9.4 34.3-8.2 12 1.1 24.1 4.7 30.9 14.5 7 9.9 7.3 22.9 3.5 34.5-3.7 11.5-11.9 20.7-22.9 25.5-11.7 5.2-25.3 6.8-36.3 0.6z"/>
		<path id="Layer" class="s2" d="m42.4 55.2q-0.2 0.1-0.4 0.1-0.2 0-0.4-0.1-0.2 0-0.3-0.2c-0.2-0.2-0.3-0.5-0.3-0.8 0-0.3 0.1-0.5 0.3-0.8l11.1-11.6-11.1-11.6c-0.2-0.2-0.3-0.5-0.3-0.8 0-0.3 0.1-0.6 0.3-0.8q0.1-0.1 0.3-0.2 0.2-0.1 0.4-0.1 0.2 0 0.4 0.1 0.2 0.1 0.4 0.2l11.8 12.4c0.2 0.2 0.4 0.5 0.4 0.8 0 0.3-0.2 0.6-0.4 0.8l-11.8 12.4q-0.2 0.2-0.4 0.2z"/>
		<path id="Layer copy" class="s1" d="m40.4 59.2q-0.2 0.1-0.4 0.1-0.2 0-0.4-0.1-0.2 0-0.3-0.2c-0.2-0.2-0.3-0.5-0.3-0.8 0-0.3 0.1-0.5 0.3-0.8l11.1-11.6-11.1-11.6c-0.2-0.2-0.3-0.5-0.3-0.8 0-0.3 0.1-0.6 0.3-0.8q0.1-0.1 0.3-0.2 0.2-0.1 0.4-0.1 0.2 0 0.4 0.1 0.2 0.1 0.4 0.2l11.8 12.4c0.2 0.2 0.4 0.5 0.4 0.8 0 0.3-0.2 0.6-0.4 0.8l-11.8 12.4q-0.2 0.2-0.4 0.2z"/>
	</g>
</svg>