<svg width="20" height="21" viewBox="0 0 20 21" fill="none" xmlns="http://www.w3.org/2000/svg">
<path d="M15.5831 19.5005L15.5705 19.4999L15.558 19.5C15.4786 19.5003 15.4003 19.4817 15.3296 19.4458C15.3291 19.4455 15.3285 19.4452 15.328 19.445L10.2319 16.777L10 16.6556L9.7681 16.777L4.6681 19.447L4.6673 19.4474C4.58449 19.491 4.49113 19.5104 4.39784 19.5035C4.30454 19.4966 4.21504 19.4637 4.13951 19.4085C4.06399 19.3533 4.00547 19.278 3.97061 19.1912C3.93574 19.1044 3.92594 19.0095 3.9423 18.9174L3.45001 18.83L3.9423 18.9174L4.9423 13.2874L4.98871 13.0261L4.7983 12.8412L0.68119 8.84403C0.617973 8.78022 0.573098 8.70056 0.551306 8.61339C0.529663 8.52682 0.531589 8.43606 0.556842 8.35053C0.586136 8.26348 0.638853 8.18616 0.709242 8.12706C0.780828 8.06697 0.867827 8.02814 0.960368 8.01499L0.962054 8.01474L6.66205 7.18474L6.92316 7.14672L7.03913 6.90971L9.54913 1.77971L9.55001 1.7779C9.59095 1.69337 9.65487 1.62208 9.73446 1.57219C9.81405 1.52231 9.90608 1.49585 10 1.49585C10.0939 1.49585 10.186 1.52231 10.2656 1.57219C10.3451 1.62208 10.4091 1.69337 10.45 1.7779L10.45 1.77791L10.4521 1.78217L12.9921 6.90217L13.1086 7.13697L13.368 7.17474L19.068 8.00475L19.0696 8.00498C19.1622 8.01814 19.2492 8.05697 19.3208 8.11706C19.3912 8.17615 19.4439 8.25347 19.4732 8.34051C19.4984 8.42604 19.5004 8.51681 19.4787 8.60338C19.4569 8.69056 19.412 8.77024 19.3488 8.83405L15.2317 12.8312L15.0413 13.0161L15.0877 13.2774L16.0877 18.9074L16.0877 18.9074L16.0888 18.9135C16.1067 19.0072 16.0973 19.1041 16.0619 19.1927C16.0268 19.2805 15.9675 19.3566 15.8909 19.412C15.8008 19.4744 15.6926 19.5056 15.5831 19.5005Z" stroke="#FFA114"/>
</svg>
