<svg width="206" height="56" viewBox="0 0 206 56" fill="none" xmlns="http://www.w3.org/2000/svg">
<path d="M111.037 8.50401C113.207 8.50401 115.029 9.2103 116.503 10.6229C117.977 12.0355 118.714 13.8371 118.714 16.0276C118.714 18.2181 117.977 20.0197 116.503 21.4323C115.029 22.8449 113.207 23.5512 111.037 23.5512H108.181V30H102.684V8.50401H111.037ZM111.037 18.3307C111.651 18.3307 112.163 18.1158 112.572 17.6859C113.002 17.2559 113.217 16.7032 113.217 16.0276C113.217 15.352 113.002 14.8095 112.572 14.4001C112.163 13.9701 111.651 13.7552 111.037 13.7552H108.181V18.3307H111.037ZM127.445 30.4299C125.172 30.4299 123.237 29.652 121.641 28.0961C120.044 26.5197 119.245 24.5953 119.245 22.3229C119.245 20.0504 120.044 18.1363 121.641 16.5804C123.237 15.004 125.172 14.2158 127.445 14.2158C129.737 14.2158 131.672 15.004 133.248 16.5804C134.845 18.1363 135.644 20.0504 135.644 22.3229C135.644 24.5953 134.845 26.5197 133.248 28.0961C131.672 29.652 129.737 30.4299 127.445 30.4299ZM127.445 25.5165C128.345 25.5165 129.082 25.2197 129.656 24.626C130.249 24.0323 130.546 23.2646 130.546 22.3229C130.546 21.3811 130.249 20.6134 129.656 20.0197C129.082 19.426 128.345 19.1292 127.445 19.1292C126.564 19.1292 125.827 19.426 125.233 20.0197C124.66 20.6134 124.374 21.3811 124.374 22.3229C124.374 23.2646 124.66 24.0323 125.233 24.626C125.827 25.2197 126.564 25.5165 127.445 25.5165ZM137.886 30V7.58275H142.983V30H137.886Z" fill="white"/>
<path d="M158.207 8.50401C161.176 8.50401 163.653 9.53786 165.639 11.6056C167.645 13.6528 168.648 16.2016 168.648 19.252C168.648 22.3024 167.645 24.8614 165.639 26.9291C163.653 28.9764 161.176 30 158.207 30H149.455V8.50401H158.207ZM158.207 24.6874C159.702 24.6874 160.92 24.1961 161.862 23.2134C162.803 22.2103 163.274 20.8898 163.274 19.252C163.274 17.6142 162.803 16.304 161.862 15.3213C160.92 14.3182 159.702 13.8166 158.207 13.8166H155.106V24.6874H158.207ZM178.444 30.4299C176.172 30.4299 174.237 29.652 172.641 28.0961C171.044 26.5197 170.245 24.5953 170.245 22.3229C170.245 20.0504 171.044 18.1363 172.641 16.5804C174.237 15.004 176.172 14.2158 178.444 14.2158C180.737 14.2158 182.672 15.004 184.248 16.5804C185.845 18.1363 186.644 20.0504 186.644 22.3229C186.644 24.5953 185.845 26.5197 184.248 28.0961C182.672 29.652 180.737 30.4299 178.444 30.4299ZM178.444 25.5165C179.345 25.5165 180.082 25.2197 180.655 24.626C181.249 24.0323 181.546 23.2646 181.546 22.3229C181.546 21.3811 181.249 20.6134 180.655 20.0197C180.082 19.426 179.345 19.1292 178.444 19.1292C177.564 19.1292 176.827 19.426 176.233 20.0197C175.66 20.6134 175.374 21.3811 175.374 22.3229C175.374 23.2646 175.66 24.0323 176.233 24.626C176.827 25.2197 177.564 25.5165 178.444 25.5165ZM198.252 14.2158C199.91 14.2158 201.261 14.789 202.305 15.9355C203.37 17.0615 203.902 18.689 203.902 20.8181V30H198.804V21.463C198.804 20.6646 198.59 20.0607 198.16 19.6512C197.75 19.2418 197.197 19.037 196.501 19.037C195.703 19.037 195.078 19.2827 194.628 19.774C194.198 20.2449 193.983 20.9307 193.983 21.8315V30H188.886V14.6457H193.983V16.1811C194.904 14.8709 196.327 14.2158 198.252 14.2158Z" fill="white"/>
<path d="M22.7064 8.07969V29.5757H20.5568V11.3348L13.0332 23.9253H12.7261L5.20253 11.3348V29.5757H3.05293V8.07969H5.72457L12.8797 20.056L20.0348 8.07969H22.7064ZM40.5114 14.2214H42.5381V29.5757H40.5114V26.5662C39.0988 28.8182 37.0311 29.9442 34.3082 29.9442C32.1177 29.9442 30.2445 29.1662 28.6886 27.6103C27.1532 26.0544 26.3854 24.1505 26.3854 21.8985C26.3854 19.6466 27.1532 17.7427 28.6886 16.1868C30.2445 14.6309 32.1177 13.8529 34.3082 13.8529C37.0311 13.8529 39.0988 14.9789 40.5114 17.2308V14.2214ZM30.1626 26.2285C31.3295 27.3954 32.7626 27.9788 34.4618 27.9788C36.161 27.9788 37.5941 27.3954 38.761 26.2285C39.9279 25.0411 40.5114 23.5978 40.5114 21.8985C40.5114 20.1993 39.9279 18.7663 38.761 17.5993C37.5941 16.4119 36.161 15.8182 34.4618 15.8182C32.7626 15.8182 31.3295 16.4119 30.1626 17.5993C28.9957 18.7663 28.4122 20.1993 28.4122 21.8985C28.4122 23.5978 28.9957 25.0411 30.1626 26.2285ZM48.4263 18.2442C48.4263 18.9403 48.7334 19.493 49.3475 19.9025C49.9617 20.3119 50.7089 20.6293 51.5892 20.8545C52.4696 21.0796 53.3499 21.3356 54.2302 21.6222C55.1105 21.8883 55.8577 22.3489 56.4719 23.0041C57.0861 23.6387 57.3932 24.4781 57.3932 25.5222C57.3932 26.8324 56.8711 27.8969 55.827 28.7158C54.8034 29.5347 53.4727 29.9442 51.8349 29.9442C50.3609 29.9442 49.1019 29.6166 48.0578 28.9615C47.0341 28.3064 46.3176 27.4568 45.9082 26.4127L47.6278 25.3993C47.9145 26.1977 48.4263 26.8324 49.1633 27.3033C49.9207 27.7536 50.8113 27.9788 51.8349 27.9788C52.8381 27.9788 53.6774 27.7844 54.353 27.3954C55.0286 26.9859 55.3664 26.3615 55.3664 25.5222C55.3664 24.8261 55.0593 24.2733 54.4451 23.8639C53.831 23.4544 53.0837 23.1371 52.2034 22.9119C51.3231 22.6867 50.4428 22.4411 49.5625 22.1749C48.6822 21.8883 47.9349 21.4277 47.3208 20.793C46.7066 20.1379 46.3995 19.2883 46.3995 18.2442C46.3995 16.9954 46.8908 15.9513 47.8735 15.112C48.8767 14.2726 50.1357 13.8529 51.6507 13.8529C52.8995 13.8529 53.9948 14.1395 54.9365 14.7127C55.8782 15.2655 56.5743 16.023 57.0247 16.9852L55.3357 17.9678C54.742 16.5348 53.5137 15.8182 51.6507 15.8182C50.7704 15.8182 50.0129 16.0332 49.3782 16.4631C48.7436 16.8726 48.4263 17.4663 48.4263 18.2442ZM68.3122 16.1868H63.8902V25.4914C63.8902 26.3308 64.054 26.9347 64.3815 27.3033C64.7091 27.6513 65.2004 27.8355 65.8555 27.856C66.5106 27.856 67.3295 27.8355 68.3122 27.7946V29.5757C66.1626 29.9032 64.5453 29.7497 63.4603 29.1151C62.3957 28.4804 61.8634 27.2725 61.8634 25.4914V16.1868H58.639V14.2214H61.8634V10.5364L63.8902 9.9222V14.2214H68.3122V16.1868ZM77.8542 13.8529C80.1266 13.8529 81.9589 14.6616 83.351 16.2789C84.7636 17.8757 85.4699 19.7694 85.4699 21.96C85.4699 22.1852 85.4494 22.5025 85.4085 22.9119H71.9274C72.1322 24.4678 72.7873 25.7064 73.8928 26.6277C75.0188 27.5284 76.4006 27.9788 78.0384 27.9788C79.2054 27.9788 80.2085 27.7434 81.0479 27.2725C81.9077 26.7812 82.5526 26.1466 82.9825 25.3686L84.7636 26.4127C84.088 27.4977 83.1668 28.3576 81.9998 28.9922C80.8329 29.6269 79.5022 29.9442 78.0077 29.9442C75.592 29.9442 73.6266 29.1867 72.1117 27.6718C70.5967 26.1568 69.8393 24.2324 69.8393 21.8985C69.8393 19.6056 70.5865 17.6915 72.081 16.156C73.5755 14.6206 75.4999 13.8529 77.8542 13.8529ZM77.8542 15.8182C76.2573 15.8182 74.9164 16.2993 73.8314 17.2616C72.7668 18.2033 72.1322 19.4316 71.9274 20.9466H83.3817C83.177 19.3293 82.5526 18.0702 81.5085 17.1694C80.4644 16.2686 79.2463 15.8182 77.8542 15.8182ZM90.7206 16.7702C91.6623 14.9072 93.2796 13.9757 95.5725 13.9757V15.9411C94.1804 15.9411 93.0237 16.3505 92.1025 17.1694C91.1812 17.9883 90.7206 19.2781 90.7206 21.0387V29.5757H88.6938V14.2214H90.7206V16.7702Z" fill="white"/>
<path d="M11.2258 43.9377V51.103H10.495V44.6399H6.02379V51.103H5.30726V43.9377H11.2258ZM20.6752 43.7801C21.707 43.7801 22.5812 44.1431 23.2977 44.8692C24.0238 45.5857 24.3869 46.4694 24.3869 47.5204C24.3869 48.5713 24.0238 49.4598 23.2977 50.1859C22.5812 50.9024 21.707 51.2607 20.6752 51.2607C19.9969 51.2607 19.3855 51.0983 18.8409 50.7734C18.3059 50.4486 17.8903 50.0043 17.5941 49.4407V53.9692H16.8776V43.9377H17.5941V45.6001C17.8903 45.0364 18.3059 44.5921 18.8409 44.2673C19.3855 43.9425 19.9969 43.7801 20.6752 43.7801ZM18.4683 49.6843C19.0606 50.2766 19.7819 50.5728 20.6322 50.5728C21.4825 50.5728 22.199 50.2766 22.7818 49.6843C23.3742 49.092 23.6703 48.3706 23.6703 47.5204C23.6703 46.6701 23.3742 45.9488 22.7818 45.3564C22.199 44.7641 21.4825 44.4679 20.6322 44.4679C19.7819 44.4679 19.0606 44.7641 18.4683 45.3564C17.8855 45.9488 17.5941 46.6701 17.5941 47.5204C17.5941 48.3706 17.8855 49.092 18.4683 49.6843ZM32.8352 51.2607C31.7843 51.2607 30.891 50.9024 30.1554 50.1859C29.4293 49.4598 29.0663 48.5713 29.0663 47.5204C29.0663 46.4694 29.4293 45.5857 30.1554 44.8692C30.891 44.1431 31.7843 43.7801 32.8352 43.7801C33.8766 43.7801 34.7603 44.1431 35.4864 44.8692C36.222 45.5857 36.5899 46.4694 36.5899 47.5204C36.5899 48.5713 36.222 49.4598 35.4864 50.1859C34.7603 50.9024 33.8766 51.2607 32.8352 51.2607ZM30.6713 49.6843C31.2636 50.2766 31.9849 50.5728 32.8352 50.5728C33.6855 50.5728 34.402 50.2766 34.9848 49.6843C35.5676 49.092 35.859 48.3706 35.859 47.5204C35.859 46.6701 35.5676 45.9488 34.9848 45.3564C34.402 44.7641 33.6855 44.4679 32.8352 44.4679C31.9849 44.4679 31.2636 44.7641 30.6713 45.3564C30.0885 45.9488 29.7971 46.6701 29.7971 47.5204C29.7971 48.3706 30.0885 49.092 30.6713 49.6843ZM48.6753 43.9377V51.103H47.9444V45.0268L45.2646 49.2544H45.1643L42.4701 44.9982V51.103H41.7536V43.9377H42.5991L45.2073 48.0506L47.8155 43.9377H48.6753ZM57.155 46.7178C57.8142 46.7178 58.3731 46.9233 58.8317 47.3341C59.2903 47.7449 59.5196 48.2703 59.5196 48.9104C59.5196 49.5505 59.2903 50.076 58.8317 50.4868C58.3731 50.8976 57.8142 51.103 57.155 51.103H54.3176V43.9377H55.0341V46.7178H57.155ZM60.623 43.9377H61.3396V51.103H60.623V43.9377ZM57.155 50.4008C57.6136 50.4008 58.0005 50.2623 58.3158 49.9852C58.6311 49.7082 58.7887 49.3499 58.7887 48.9104C58.7887 48.4614 58.6311 48.1031 58.3158 47.8356C58.0101 47.5586 57.6232 47.42 57.155 47.42H55.0341V50.4008H57.155ZM75.7498 43.9377H76.4807V51.103H66.9795V43.9377H67.696V50.4008H71.3647V43.9377H72.0955V50.4008H75.7498V43.9377ZM87.9507 43.9377V51.103H87.2342V44.6399H83.6229V48.0936C83.6229 49.2591 83.4079 50.0664 82.978 50.5155C82.5481 50.9645 81.9605 51.1603 81.2153 51.103V50.4295C81.7885 50.4773 82.2137 50.3244 82.4907 49.9709C82.7678 49.6174 82.9063 48.9916 82.9063 48.0936V43.9377H87.9507ZM96.8152 43.7801C97.8662 43.7801 98.7164 44.1527 99.3661 44.8979C100.025 45.643 100.355 46.5268 100.355 47.549C100.355 47.5872 100.35 47.6446 100.341 47.721C100.341 47.7974 100.341 47.8547 100.341 47.893H93.8488C93.9348 48.6955 94.2548 49.3451 94.809 49.8419C95.3726 50.3292 96.0653 50.5728 96.8869 50.5728C97.4601 50.5728 97.9617 50.4534 98.3916 50.2145C98.8215 49.9757 99.1464 49.6604 99.3661 49.2687L99.9967 49.6413C99.7005 50.1381 99.2801 50.5346 98.7356 50.8307C98.191 51.1174 97.57 51.2607 96.8726 51.2607C95.7739 51.2607 94.8711 50.912 94.1641 50.2145C93.4571 49.5075 93.1036 48.6095 93.1036 47.5204C93.1036 46.4503 93.4475 45.5618 94.1354 44.8549C94.8328 44.1383 95.7261 43.7801 96.8152 43.7801ZM96.8152 44.4679C96.0032 44.4679 95.3249 44.7211 94.7803 45.2275C94.2357 45.7338 93.9252 46.3882 93.8488 47.1908H99.6097C99.5333 46.3405 99.2276 45.6765 98.6926 45.1988C98.1671 44.7116 97.5413 44.4679 96.8152 44.4679ZM110.657 43.9377H111.388V51.103H110.657V47.8643H106.186V51.103H105.469V43.9377H106.186V47.1764H110.657V43.9377ZM122.227 43.9377H122.958V51.103H122.227V47.8643H117.756V51.103H117.039V43.9377H117.756V47.1764H122.227V43.9377ZM131.447 46.7178C132.106 46.7178 132.665 46.9233 133.124 47.3341C133.582 47.7449 133.812 48.2703 133.812 48.9104C133.812 49.5505 133.582 50.076 133.124 50.4868C132.665 50.8976 132.106 51.103 131.447 51.103H128.61V43.9377H129.326V46.7178H131.447ZM134.915 43.9377H135.632V51.103H134.915V43.9377ZM131.447 50.4008C131.906 50.4008 132.293 50.2623 132.608 49.9852C132.923 49.7082 133.081 49.3499 133.081 48.9104C133.081 48.4614 132.923 48.1031 132.608 47.8356C132.302 47.5586 131.915 47.42 131.447 47.42H129.326V50.4008H131.447ZM144.496 43.7801C145.547 43.7801 146.397 44.1527 147.047 44.8979C147.706 45.643 148.036 46.5268 148.036 47.549C148.036 47.5872 148.031 47.6446 148.021 47.721C148.021 47.7974 148.021 47.8547 148.021 47.893H141.53C141.616 48.6955 141.936 49.3451 142.49 49.8419C143.053 50.3292 143.746 50.5728 144.568 50.5728C145.141 50.5728 145.642 50.4534 146.072 50.2145C146.502 49.9757 146.827 49.6604 147.047 49.2687L147.677 49.6413C147.381 50.1381 146.961 50.5346 146.416 50.8307C145.872 51.1174 145.251 51.2607 144.553 51.2607C143.455 51.2607 142.552 50.912 141.845 50.2145C141.138 49.5075 140.784 48.6095 140.784 47.5204C140.784 46.4503 141.128 45.5618 141.816 44.8549C142.514 44.1383 143.407 43.7801 144.496 43.7801ZM144.496 44.4679C143.684 44.4679 143.006 44.7211 142.461 45.2275C141.917 45.7338 141.606 46.3882 141.53 47.1908H147.291C147.214 46.3405 146.908 45.6765 146.373 45.1988C145.848 44.7116 145.222 44.4679 144.496 44.4679ZM166.328 43.9377V51.103H165.597V44.6399H161.126V51.103H160.41V43.9377H166.328ZM175.262 51.2607C174.211 51.2607 173.318 50.9024 172.582 50.1859C171.856 49.4598 171.493 48.5713 171.493 47.5204C171.493 46.4694 171.856 45.5857 172.582 44.8692C173.318 44.1431 174.211 43.7801 175.262 43.7801C176.303 43.7801 177.187 44.1431 177.913 44.8692C178.649 45.5857 179.016 46.4694 179.016 47.5204C179.016 48.5713 178.649 49.4598 177.913 50.1859C177.187 50.9024 176.303 51.2607 175.262 51.2607ZM173.098 49.6843C173.69 50.2766 174.412 50.5728 175.262 50.5728C176.112 50.5728 176.829 50.2766 177.411 49.6843C177.994 49.092 178.286 48.3706 178.286 47.5204C178.286 46.6701 177.994 45.9488 177.411 45.3564C176.829 44.7641 176.112 44.4679 175.262 44.4679C174.412 44.4679 173.69 44.7641 173.098 45.3564C172.515 45.9488 172.224 46.6701 172.224 47.5204C172.224 48.3706 172.515 49.092 173.098 49.6843ZM189.719 43.9377V51.103H189.002V44.6399H185.391V48.0936C185.391 49.2591 185.176 50.0664 184.746 50.5155C184.316 50.9645 183.728 51.1603 182.983 51.103V50.4295C183.556 50.4773 183.982 50.3244 184.259 49.9709C184.536 49.6174 184.674 48.9916 184.674 48.0936V43.9377H189.719ZM198.196 46.7178C198.855 46.7178 199.414 46.9233 199.873 47.3341C200.331 47.7449 200.561 48.2703 200.561 48.9104C200.561 49.5505 200.331 50.076 199.873 50.4868C199.414 50.8976 198.855 51.103 198.196 51.103H195.359V43.9377H196.075V46.7178H198.196ZM201.664 43.9377H202.381V51.103H201.664V43.9377ZM198.196 50.4008C198.655 50.4008 199.042 50.2623 199.357 49.9852C199.672 49.7082 199.83 49.3499 199.83 48.9104C199.83 48.4614 199.672 48.1031 199.357 47.8356C199.051 47.5586 198.664 47.42 198.196 47.42H196.075V50.4008H198.196Z" fill="white"/>
</svg>
