<svg width="1920" height="1566" viewBox="0 0 1920 1566" fill="none" xmlns="http://www.w3.org/2000/svg">
<path fill-rule="evenodd" clip-rule="evenodd" d="M1443.88 1353.98C1666.29 1381.73 1797.11 1316.96 1876.31 1277.75C1893.05 1269.46 1907.49 1262.31 1920 1257.42V1176.78V1172.24V305.449H1920V0.52295C1777.96 0.52295 1707.24 34.2756 1626.55 72.7859C1561.52 103.821 1490.02 137.945 1369.5 159.984C1169.59 196.542 1082.37 168.747 968.476 132.45C884.14 105.574 785.175 74.0354 615 60.5084C364.238 40.5759 267.733 114.984 179.503 183.012C126.995 223.497 77.4174 261.723 0 276.456L-0.00012207 283L0 305.449L-0.00012207 1172.24V1176.78V1516.66C75.6772 1554.51 408.958 1632.64 671.073 1445.03C933.187 1257.42 1062.99 1275.93 1443.88 1353.98Z" fill="white"/>
</svg>
