<svg width="171" height="197" viewBox="0 0 171 197" fill="none" xmlns="http://www.w3.org/2000/svg">
<g clip-path="url(#clip0_103_386)">
<path d="M2.79445 96.0516C1.22449 60.697 51.0864 16.2692 94.0719 23.6842C139.491 31.506 179.305 129.701 136.272 162.803C93.2398 195.905 4.36441 131.875 2.79445 96.0516Z" fill="url(#paint0_linear_103_386)"/>
<path d="M99.2999 105.453C99.2999 105.453 100.525 65.875 143.965 43.0823C143.965 43.0823 156.635 79.3598 109.834 115.716L99.2999 105.453Z" fill="url(#paint1_radial_103_386)"/>
<g style="mix-blend-mode:soft-light">
<path d="M142.332 46.4612L105.674 107.111L102.361 97.913C102.361 97.913 106.6 62.4333 142.332 46.4612Z" fill="#BDE0FF"/>
</g>
<path d="M66.5035 110.913C66.5035 110.913 76.7868 75.7463 41.8709 56.6924C41.8709 56.6924 26.9563 88.6836 61.9193 109.63L66.5035 110.913Z" fill="url(#paint2_radial_103_386)"/>
<g style="mix-blend-mode:soft-light">
<path d="M41.8709 56.6924L66.5036 110.913L61.2442 107.784C61.2442 107.784 31.5249 90.2792 41.8709 56.6924Z" fill="#BDE0FF"/>
</g>
<path d="M111.938 100.041C111.938 100.041 118.846 76.982 144.907 78.8592C144.907 78.8592 141.767 101.808 114.921 100.948L111.938 100.041Z" fill="url(#paint3_radial_103_386)"/>
<g style="mix-blend-mode:soft-light">
<path d="M144.923 78.8591L111.954 100.041L115.957 100.213C115.957 100.213 138.627 101.057 144.923 78.8591Z" fill="#BDE0FF"/>
</g>
<path d="M0 62.5588L10.4245 46.6179L15.9822 50.4037L4.89827 65.359L0 62.5588Z" fill="#FF1D9C"/>
<path d="M127.669 39.1088L120.306 48.8861L117.166 46.3675L123.901 37.2942L127.669 39.1088Z" fill="#4F31E0"/>
<path d="M65.1219 52.4998L53.2216 55.4565L52.3895 51.5456L63.3478 48.7454L65.1219 52.4998Z" fill="#4F31E0"/>
<path d="M88.4358 33.6336L87.1798 18.7096L92.345 15.7061L96.3013 33.8057L88.4358 33.6336Z" fill="#6877FF"/>
<path d="M51.9814 136.725L51.3848 137.632L54.3206 149.021C54.3685 149.189 54.4001 149.362 54.4148 149.537C54.8127 151.907 54.8444 154.323 54.509 156.702L53.2374 156.358L44.6968 154.027L35.7637 151.618L18.4941 160.488C17.6314 157.965 17.1447 155.329 17.0498 152.666V152.447L17.5679 141.23L16.8457 140.511L3.78363 127.636C3.01072 126.03 2.81131 124.208 3.21842 122.474L22.0579 120.487L29.7193 119.705L42.5302 118.344L61.3697 116.373C62.1685 117.966 62.369 119.792 61.9349 121.519L51.9814 136.725Z" fill="url(#paint4_radial_103_386)"/>
<path d="M52.0442 136.928C51.8244 137.147 51.6203 137.398 51.3848 137.632L53.6926 151.711L54.509 156.764C54.1165 156.764 53.7083 156.764 53.3158 156.764H53.0332C52.1855 156.764 51.3691 156.639 50.5527 156.514C50.0239 156.453 49.4996 156.359 48.9828 156.232L47.821 155.998L46.5336 155.654C46.1097 155.544 45.6701 155.435 45.2305 155.294H45.0892L44.7125 155.153C41.5726 154.136 38.5739 152.806 35.8579 151.727C30.568 155.51 24.7495 158.498 18.5883 160.597L18.3371 155.341L17.6621 141.168L16.9399 140.636C11.3037 136.428 6.89213 132.814 3.87781 127.573L6.20137 126.697L22.0108 120.737L22.1678 120.424L26.2184 112.368L30.7084 103.482L42.6401 118.281L42.8599 118.547L59.3131 121.05L62.1076 121.472C59.8036 127.232 56.3841 132.484 52.0442 136.928Z" fill="url(#paint5_radial_103_386)"/>
<path d="M59.3131 121.05C56.1732 125.915 50.9138 132.47 50.9138 132.47C50.9138 132.47 51.4162 134.253 52.0599 136.725C52.0599 136.725 52.0599 136.866 52.0599 136.928C53.2384 141.049 54.032 145.27 54.4306 149.537C54.4306 150.585 54.3206 151.289 53.9753 151.524C53.8926 151.578 53.8028 151.62 53.7083 151.649C53.1906 151.757 52.6561 151.757 52.1384 151.649H52.0285L51.0865 151.508C50.5998 151.43 50.1131 151.336 49.6108 151.211C48.1978 150.882 46.5964 150.413 44.9794 149.897C41.0545 148.645 37.1296 147.112 35.7951 146.612L35.3241 146.424C35.3241 146.424 21.6341 155.56 18.3371 155.341C18.234 155.366 18.1263 155.366 18.0232 155.341C17.5993 155.2 17.3324 154.074 17.1597 152.462C16.875 148.553 16.8068 144.631 16.9556 140.714V140.526C17.0341 137.945 17.1126 136.068 17.1126 136.068C13.3081 133.177 9.67044 130.075 6.21705 126.776C4.4273 124.961 3.18704 123.334 3.32833 122.489C3.73652 120.096 21.4614 115.637 21.4614 115.637C21.4614 115.637 22.7016 112.274 24.2873 108.52C26.2655 103.826 28.7931 98.5702 30.1589 98.4137C32.8279 98.1322 42.3105 113.479 42.3105 113.479C42.3105 113.479 61.2756 114.574 61.4797 116.42C61.1101 118.104 60.3701 119.685 59.3131 121.05Z" fill="url(#paint6_radial_103_386)"/>
<path style="mix-blend-mode:multiply" opacity="0.62" d="M53.3158 156.686H53.0333C52.2013 156.665 51.3721 156.581 50.5527 156.436C50.024 156.375 49.4996 156.281 48.9828 156.154L47.821 155.92L46.5336 155.575C46.1097 155.466 45.6701 155.357 45.2305 155.216H45.0893L44.7125 155.106C41.6864 154.166 38.728 153.021 35.8579 151.68L35.2927 146.518L35.7637 146.706C38.757 147.994 41.8176 149.122 44.9323 150.085C46.4767 150.588 48.0493 151 49.6421 151.32C50.1445 151.446 50.6312 151.539 51.1179 151.618L52.0599 151.758H52.1698C52.2534 151.766 52.3374 151.766 52.4209 151.758L53.3473 156.373L53.3158 156.686Z" fill="url(#paint7_linear_103_386)"/>
<g style="mix-blend-mode:multiply" opacity="0.5">
<path d="M62.0292 121.473C59.7485 127.226 56.3559 132.478 52.0442 136.928C53.2227 141.05 54.0163 145.27 54.4148 149.537C54.8127 151.907 54.8444 154.323 54.509 156.702C54.1166 156.702 53.7083 156.702 53.3159 156.702H53.0333C52.2013 156.68 51.3722 156.597 50.5528 156.452C50.024 156.391 49.4996 156.297 48.9828 156.17L47.821 155.935L46.5336 155.591C46.1097 155.482 45.6702 155.372 45.2306 155.231H45.0893L44.7125 155.122V154.105L44.9009 150.1V150.022L29.8293 119.752L26.2184 112.477L24.2716 108.41C26.2498 103.717 28.7774 98.4608 30.1433 98.3044C32.8122 98.0228 42.2948 113.369 42.2948 113.369C42.2948 113.369 61.2599 114.464 61.464 116.31C62.2666 117.908 62.4671 119.74 62.0292 121.473Z" fill="#361488"/>
</g>
<path d="M122.112 136.725L122.708 137.632L119.741 149.083C119.741 149.255 119.741 149.412 119.647 149.6C119.249 151.969 119.217 154.385 119.552 156.764L120.824 156.42L129.365 154.089L138.251 151.68L155.52 160.55C156.39 158.028 156.882 155.393 156.98 152.728V152.509L156.478 141.293L157.2 140.573L170.246 127.698C171.02 126.075 171.208 124.235 170.78 122.489L151.941 120.502L144.295 119.72L131.468 118.359L112.629 116.388C111.829 117.982 111.633 119.809 112.079 121.535L122.112 136.725Z" fill="url(#paint8_radial_103_386)"/>
<path d="M122.017 136.928C122.237 137.147 122.441 137.398 122.677 137.632L120.369 151.712L119.552 156.764C119.961 156.764 120.369 156.764 120.761 156.764H121.028C121.876 156.764 122.708 156.639 123.509 156.514C124.037 156.453 124.562 156.359 125.079 156.233L126.241 155.998L127.528 155.654C127.952 155.544 128.376 155.435 128.815 155.294H128.957C129.085 155.24 129.216 155.193 129.349 155.153C132.489 154.136 135.488 152.807 138.188 151.727C143.478 155.51 149.296 158.499 155.457 160.597L155.709 155.466L156.399 141.293L157.106 140.761C162.758 136.553 167.169 132.939 170.168 127.699L167.844 126.823L152.035 120.862L151.878 120.549L147.827 112.493L143.337 103.607L131.406 118.406L131.186 118.672L114.827 121.16L112.032 121.582C114.318 127.3 117.711 132.515 122.017 136.928Z" fill="url(#paint9_radial_103_386)"/>
<path d="M114.843 121.05C117.982 125.915 123.242 132.47 123.242 132.47C123.242 132.47 122.724 134.253 122.08 136.725C122.08 136.725 122.08 136.866 122.08 136.928C120.909 141.051 120.116 145.271 119.709 149.537C119.709 150.585 119.835 151.289 120.18 151.524L120.432 151.649C120.975 151.766 121.537 151.766 122.08 151.649H122.111L123.053 151.508C123.54 151.43 124.027 151.336 124.529 151.211C125.942 150.882 127.559 150.413 129.161 149.897C133.07 148.645 137.01 147.112 138.345 146.612L138.8 146.424C138.8 146.424 152.443 155.529 155.709 155.325C155.812 155.35 155.919 155.35 156.023 155.325C156.446 155.184 156.713 154.058 156.902 152.447C157.194 148.538 157.263 144.615 157.106 140.698C157.106 140.698 157.106 140.573 157.106 140.511C157.027 137.929 156.933 136.052 156.933 136.052C160.741 133.166 164.379 130.063 167.829 126.76C169.618 124.945 170.859 123.318 170.717 122.474C170.325 120.08 152.584 115.622 152.584 115.622C152.584 115.622 151.36 112.258 149.758 108.504C147.765 103.811 145.237 98.5546 143.871 98.3981C141.202 98.1165 131.72 113.463 131.72 113.463C131.72 113.463 112.755 114.558 112.55 116.404C112.959 118.103 113.742 119.69 114.843 121.05Z" fill="url(#paint10_radial_103_386)"/>
<path style="mix-blend-mode:multiply" opacity="0.62" d="M120.761 156.686H121.028C121.86 156.665 122.69 156.582 123.509 156.436C124.038 156.375 124.562 156.281 125.079 156.154L126.241 155.92L127.528 155.575C127.952 155.466 128.376 155.357 128.815 155.216H128.957L129.349 155.106C132.369 154.163 135.322 153.018 138.188 151.68L138.753 146.518L138.298 146.706C135.298 147.991 132.232 149.119 129.114 150.085C127.57 150.59 125.997 151.002 124.404 151.32C123.901 151.446 123.415 151.539 122.928 151.618L121.986 151.758H121.892H121.625L120.699 156.373L120.761 156.686Z" fill="url(#paint11_linear_103_386)"/>
<path d="M133.682 97.6316C134.668 100.254 134.668 103.144 133.682 105.766L114.403 129.107L117.056 147.331C117.368 151.348 117.029 155.389 116.051 159.299L87.7921 148.239L59.5328 159.189C58.6089 155.086 58.2968 150.869 58.6065 146.674L61.3539 128.966L42.2161 105.5C41.4939 102.153 41.0858 100.197 42.2161 97.3657L133.682 97.6316Z" fill="#981382"/>
<path d="M104.355 97.9914L133.682 105.813C128.297 115.95 123.132 121.457 114.403 129.153L116.051 159.346C104.748 158.266 95.642 152.431 87.7922 148.286C78.812 153.526 71.1977 156.107 59.5329 159.236L61.354 129.044C52.782 121.144 46.1725 114.636 42.2162 105.579L71.5902 97.9757L88.059 72.5862L104.355 97.9914Z" fill="#981382"/>
<path d="M104.355 89.8569C104.355 89.8569 133.682 94.7533 133.682 97.6787C133.682 101.84 114.403 121.019 114.403 121.019C114.403 121.019 119.38 149.428 116.051 151.211C112.315 153.213 87.7921 140.151 87.7921 140.151C87.7921 140.151 63.3949 152.916 59.5328 151.102C56.7854 149.803 61.3539 120.909 61.3539 120.909C61.3539 120.909 40.9444 101.699 42.2161 97.444C43.2366 93.8146 71.5901 89.8412 71.5901 89.8412C71.5901 89.8412 84.1497 64.4516 88.0589 64.4516C92.2821 64.3734 104.355 89.8569 104.355 89.8569Z" fill="url(#paint12_linear_103_386)"/>
<path d="M114.042 148.286C109.615 148.286 94.1662 140.558 88.5771 137.586L87.8078 137.179L87.0542 137.586C81.4495 140.511 65.954 148.098 61.4953 148.098C60.726 145.282 62.0919 131.985 63.8816 120.644L64.0072 119.799L63.3949 119.204C54.7445 111.038 45.5759 100.807 45.3561 98.2419C47.24 96.4429 60.6946 93.627 72.3751 91.9844L73.2386 91.8749L73.6154 91.1084C78.8433 80.549 85.7668 68.7067 88.0904 67.5178C90.4767 68.6285 97.2904 80.5177 102.377 91.171L102.738 91.9375L103.57 92.0783C114.858 93.9555 127.842 96.7714 130.448 98.3357C129.38 101.277 120.526 111.226 112.393 119.329L111.797 119.924L111.938 120.753C113.963 132.251 115.376 145.783 114.246 148.208L114.042 148.286Z" fill="url(#paint13_radial_103_386)"/>
<path style="mix-blend-mode:multiply" opacity="0.62" d="M87.8077 148.239V140.104C87.8077 140.104 103.099 148.912 113.461 151.211L114.183 159.033C114.183 159.033 105.014 158.564 87.8077 148.239Z" fill="url(#paint14_linear_103_386)"/>
<g style="mix-blend-mode:soft-light">
<path d="M51.0551 96.13C51.0551 96.13 78.9219 116.232 114.262 115.904C114.262 115.904 130.275 104.014 132.505 98.0073C132.505 98.0073 126.492 94.4248 103.806 91.3274C103.806 91.3274 96.8351 73.8692 88.0276 65.6406C81.918 73.1436 77.2792 81.7246 74.3532 90.9363C74.3532 90.9363 60.6004 91.8437 51.0551 96.13Z" fill="white"/>
</g>
<path d="M27.019 27.3761C29.5152 32.2569 70.8837 20.8997 75.0755 12.8119C79.2673 4.72417 58.3868 -1.8305 46.9261 0.453471C35.4654 2.73744 23.8006 21.0561 27.019 27.3761Z" fill="url(#paint15_linear_103_386)"/>
<path d="M43.8019 154.84C47.2085 151.473 51.3055 148.879 55.8121 147.238C78.1756 143.711 100.957 143.711 123.32 147.238C123.32 147.238 129.914 150.867 132.081 154.84H43.8019Z" fill="url(#paint16_radial_103_386)"/>
<g style="mix-blend-mode:soft-light">
<path d="M100.776 145.173L103.162 151.524C103.162 151.524 113.948 151.931 120.526 152.947L116.742 146.315C116.742 146.315 106.302 145.11 100.776 145.173Z" fill="white"/>
</g>
<path d="M50.2387 191.04C50.2387 191.04 43.8019 179.338 43.8019 154.84C43.8019 154.84 82.9567 145.72 132.081 154.84C132.081 154.84 132.081 179.26 123.148 196.984L117.04 191.024L50.2387 191.04Z" fill="url(#paint17_linear_103_386)"/>
<g style="mix-blend-mode:soft-light">
<path d="M61.5581 162.381L62.2489 166.776H110.823L111.593 162.005L61.5581 162.381Z" fill="white"/>
<path d="M62.6414 169.107L63.3792 172.909H85.8925V169.107H62.6414Z" fill="white"/>
<path d="M63.4264 175.24L64.1643 179.041H96.0502V175.24H63.4264Z" fill="white"/>
</g>
<path style="mix-blend-mode:multiply" opacity="0.81" d="M117.041 191.024L122.41 185.517C122.41 185.517 86.9287 192.901 48.7002 187.441L50.2702 191.04L117.041 191.024Z" fill="url(#paint18_linear_103_386)"/>
</g>
<defs>
<linearGradient id="paint0_linear_103_386" x1="78.6531" y1="172.017" x2="78.6531" y2="22.8548" gradientUnits="userSpaceOnUse">
<stop stop-color="#FD5703"/>
<stop offset="1" stop-color="#FFAD12"/>
</linearGradient>
<radialGradient id="paint1_radial_103_386" cx="0" cy="0" r="1" gradientUnits="userSpaceOnUse" gradientTransform="translate(124.105 49.4724) scale(35.2786 51.0021)">
<stop stop-color="#67EEE0"/>
<stop offset="1" stop-color="#5DCEFF"/>
</radialGradient>
<radialGradient id="paint2_radial_103_386" cx="0" cy="0" r="1" gradientUnits="userSpaceOnUse" gradientTransform="translate(54.3812 61.4626) scale(22.2887 38.073)">
<stop stop-color="#67EEE0"/>
<stop offset="1" stop-color="#5DCEFF"/>
</radialGradient>
<radialGradient id="paint3_radial_103_386" cx="0" cy="0" r="1" gradientUnits="userSpaceOnUse" gradientTransform="translate(129.628 80.7055) scale(25.1599 15.6034)">
<stop stop-color="#67EEE0"/>
<stop offset="1" stop-color="#5DCEFF"/>
</radialGradient>
<radialGradient id="paint4_radial_103_386" cx="0" cy="0" r="1" gradientUnits="userSpaceOnUse" gradientTransform="translate(34.5053 138.993) rotate(-6.15813) scale(25.2596 25.1716)">
<stop stop-color="#A157FF"/>
<stop offset="1" stop-color="#63399A"/>
</radialGradient>
<radialGradient id="paint5_radial_103_386" cx="0" cy="0" r="1" gradientUnits="userSpaceOnUse" gradientTransform="translate(33.6311 131.094) rotate(-6.15813) scale(28.5407 28.4412)">
<stop stop-color="#A157FF"/>
<stop offset="1" stop-color="#63399A"/>
</radialGradient>
<radialGradient id="paint6_radial_103_386" cx="0" cy="0" r="1" gradientUnits="userSpaceOnUse" gradientTransform="translate(28.7992 108.863) rotate(-6.15813) scale(32.8736 32.7591)">
<stop stop-color="#FF81FF"/>
<stop offset="1" stop-color="#9552FF"/>
</radialGradient>
<linearGradient id="paint7_linear_103_386" x1="35.8787" y1="152.503" x2="52.625" y2="150.683" gradientUnits="userSpaceOnUse">
<stop stop-color="#8B8BE0"/>
<stop offset="1" stop-color="#A177B7"/>
</linearGradient>
<radialGradient id="paint8_radial_103_386" cx="0" cy="0" r="1" gradientUnits="userSpaceOnUse" gradientTransform="translate(141.4 135.341) rotate(-173.682) scale(25.1609 25.0733)">
<stop stop-color="#A157FF"/>
<stop offset="1" stop-color="#63399A"/>
</radialGradient>
<radialGradient id="paint9_radial_103_386" cx="0" cy="0" r="1" gradientUnits="userSpaceOnUse" gradientTransform="translate(142.276 127.489) rotate(-173.682) scale(28.4291 28.3302)">
<stop stop-color="#A157FF"/>
<stop offset="1" stop-color="#63399A"/>
</radialGradient>
<radialGradient id="paint10_radial_103_386" cx="0" cy="0" r="1" gradientUnits="userSpaceOnUse" gradientTransform="translate(160.012 110.952) rotate(-173.682) scale(32.7451 32.6311)">
<stop stop-color="#FF81FF"/>
<stop offset="1" stop-color="#9552FF"/>
</radialGradient>
<linearGradient id="paint11_linear_103_386" x1="139.979" y1="148.793" x2="123.303" y2="146.933" gradientUnits="userSpaceOnUse">
<stop stop-color="#8B8BE0"/>
<stop offset="1" stop-color="#A177B7"/>
</linearGradient>
<linearGradient id="paint12_linear_103_386" x1="49.8334" y1="90.0366" x2="123.889" y2="144.172" gradientUnits="userSpaceOnUse">
<stop stop-color="#971A8F"/>
<stop offset="0.47" stop-color="#EF22AC"/>
<stop offset="1" stop-color="#FE4CCE"/>
</linearGradient>
<radialGradient id="paint13_radial_103_386" cx="0" cy="0" r="1" gradientUnits="userSpaceOnUse" gradientTransform="translate(96.7785 91.4494) rotate(35.972) scale(47.2336 47.1816)">
<stop stop-color="#FE117E"/>
<stop offset="1" stop-color="#B31A8F"/>
</radialGradient>
<linearGradient id="paint14_linear_103_386" x1="87.8077" y1="149.6" x2="114.183" y2="149.6" gradientUnits="userSpaceOnUse">
<stop stop-color="#8B8BE0"/>
<stop offset="1" stop-color="#A177B7"/>
</linearGradient>
<linearGradient id="paint15_linear_103_386" x1="51.0219" y1="28.5537" x2="51.0219" y2="-0.00829012" gradientUnits="userSpaceOnUse">
<stop stop-color="#FD5703"/>
<stop offset="1" stop-color="#FFAD12"/>
</linearGradient>
<radialGradient id="paint16_radial_103_386" cx="0" cy="0" r="1" gradientUnits="userSpaceOnUse" gradientTransform="translate(102.016 148.051) scale(40.5835 40.4386)">
<stop stop-color="#3996F7"/>
<stop offset="1" stop-color="#744FD8"/>
</radialGradient>
<linearGradient id="paint17_linear_103_386" x1="87.9492" y1="196.984" x2="87.9492" y2="150.789" gradientUnits="userSpaceOnUse">
<stop stop-color="#1C257B"/>
<stop offset="1" stop-color="#4F3BBA"/>
</linearGradient>
<linearGradient id="paint18_linear_103_386" x1="85.5472" y1="191.04" x2="85.5472" y2="185.517" gradientUnits="userSpaceOnUse">
<stop stop-color="#7460E0"/>
<stop offset="1" stop-color="white"/>
</linearGradient>
<clipPath id="clip0_103_386">
<rect width="171" height="197" fill="white"/>
</clipPath>
</defs>
</svg>
