<svg width="200" height="175" viewBox="0 0 200 175" fill="none" xmlns="http://www.w3.org/2000/svg">
<g clip-path="url(#clip0_103_348)">
<path d="M20.7425 75.7732C19.1283 39.4688 70.3954 -6.15267 114.592 1.46162C161.275 9.49356 202.211 110.327 157.966 144.318C113.721 178.309 22.4374 112.592 20.7425 75.7732Z" fill="url(#paint0_linear_103_348)"/>
<path d="M131.848 149.314C131.848 149.314 157.934 115.387 200.065 134.856C200.065 134.856 180.178 170.92 136.223 152.655L131.848 149.314Z" fill="url(#paint1_radial_103_348)"/>
<g style="mix-blend-mode:soft-light">
<path d="M199.984 134.92L131.768 149.378L138.224 152.189C138.224 152.189 175.432 167.787 199.984 134.92Z" fill="#BDE0FF"/>
</g>
<path d="M60.3713 150.76C60.3713 150.76 15.3511 139.515 0 84.6406C0 84.6406 40.5165 74.2633 70.573 136.382L60.3713 150.76Z" fill="url(#paint2_radial_103_348)"/>
<g style="mix-blend-mode:soft-light">
<path d="M3.45435 87.3232L63.8418 143.932L52.5423 145.426C52.5423 145.426 12.9136 131.82 3.45435 87.3232Z" fill="#BDE0FF"/>
</g>
<path d="M142.663 136.35C142.663 136.35 152.914 101.652 183.729 105.299C183.729 105.299 179.984 140.655 142.663 136.35Z" fill="url(#paint3_radial_103_348)"/>
<g style="mix-blend-mode:soft-light">
<path d="M183.729 105.299L144.052 134.069C144.052 134.069 173.349 142.615 183.729 105.299Z" fill="#BDE0FF"/>
</g>
<path d="M141.921 2.13643C138.014 6.21665 163.309 42.2961 172.591 43.4849C181.872 44.6736 181.098 22.3448 174.915 12.08C168.733 1.81515 146.957 -3.14859 141.921 2.13643Z" fill="url(#paint4_linear_103_348)"/>
<path d="M100.42 68.625C89.8419 68.6218 79.5008 71.7404 70.7042 77.5863C61.9075 83.4322 55.0505 91.7429 51.0003 101.467C46.9502 111.192 45.8888 121.893 47.9505 132.217C50.0122 142.542 55.1043 152.026 62.5827 159.471C70.0612 166.915 79.5901 171.986 89.9644 174.041C100.339 176.095 111.092 175.042 120.865 171.015C130.638 166.987 138.991 160.166 144.868 151.414C150.745 142.661 153.882 132.371 153.882 121.845C153.882 107.733 148.25 94.1985 138.224 84.2184C128.199 74.2382 114.6 68.6293 100.42 68.625ZM100.42 155.659C93.7152 155.659 87.1613 153.681 81.5868 149.974C76.0122 146.267 71.6674 140.999 69.1017 134.834C66.536 128.67 65.8647 121.888 67.1727 115.344C68.4807 108.8 71.7092 102.789 76.4499 98.0713C81.1907 93.3535 87.2308 90.1407 93.8064 88.839C100.382 87.5374 107.198 88.2054 113.392 90.7587C119.586 93.3119 124.88 97.6357 128.605 103.183C132.33 108.731 134.318 115.253 134.318 121.925C134.275 130.851 130.688 139.399 124.337 145.703C117.987 152.008 109.39 155.558 100.42 155.579V155.659Z" fill="url(#paint5_linear_103_348)"/>
<path d="M48.1678 91.1144C48.1678 91.1144 38.3696 114.712 49.895 139.306C49.895 139.306 68.8296 174.213 100.42 175.064C132.01 175.916 150.928 139.306 150.928 139.306C150.928 139.306 162.018 111.997 151.396 88.0461L135.706 88.3032C135.706 88.3032 144.391 159.209 100.42 155.659C56.4487 152.109 60.4035 102.793 60.4035 102.793L48.1678 91.1144Z" fill="url(#paint6_linear_103_348)"/>
<path d="M100.403 54.6172C89.4132 54.614 78.6689 57.8545 69.5295 63.9289C60.39 70.0032 53.2661 78.6384 49.0588 88.7424C44.8516 98.8463 43.7499 109.965 45.8932 120.692C48.0366 131.419 53.3286 141.273 61.0999 149.006C68.8712 156.74 78.7727 162.006 89.552 164.139C100.331 166.272 111.504 165.176 121.657 160.989C131.81 156.802 140.487 149.713 146.591 140.618C152.695 131.522 155.951 120.83 155.948 109.893C155.944 95.2343 150.091 81.1771 139.675 70.8118C129.259 60.4465 115.134 54.6214 100.403 54.6172ZM100.403 146.904C93.0605 146.904 85.8825 144.737 79.777 140.678C73.6716 136.618 68.913 130.847 66.1029 124.096C63.2929 117.345 62.5576 109.916 63.9902 102.749C65.4227 95.5823 68.9587 88.999 74.1509 83.8319C79.3432 78.6647 85.9586 75.1459 93.1605 73.7203C100.362 72.2947 107.827 73.0263 114.611 75.8228C121.395 78.6192 127.194 83.3548 131.273 89.4307C135.353 95.5065 137.53 102.65 137.53 109.957C137.505 119.748 133.585 129.131 126.628 136.055C119.671 142.978 110.242 146.879 100.403 146.904Z" fill="url(#paint7_radial_103_348)"/>
<path d="M154.447 96.8331C151.243 83.6883 143.306 72.1691 132.141 64.4563C120.975 56.7435 107.355 53.3726 93.8598 54.9818C80.3644 56.5911 67.9304 63.0687 58.9119 73.1883C49.8934 83.3079 44.9164 96.367 44.9233 109.893C44.9158 115.727 45.8477 121.525 47.6835 127.065C50.031 134.214 53.8182 140.811 58.814 146.453C63.8097 152.096 69.909 156.666 76.7392 159.884C84.1286 163.393 92.2159 165.205 100.403 165.185C115.132 165.168 129.253 159.337 139.666 148.971C150.08 138.605 155.935 124.551 155.948 109.893C155.978 105.495 155.474 101.11 154.447 96.8331ZM100.468 146.904C91.3687 146.907 82.5852 143.584 75.7856 137.566C68.986 131.549 64.6437 123.256 63.5835 114.262C63.4021 112.813 63.3105 111.354 63.3091 109.893C63.3091 100.083 67.2249 90.6756 74.1951 83.7392C81.1652 76.8028 90.6188 72.9059 100.476 72.9059C110.333 72.9059 119.787 76.8028 126.757 83.7392C133.727 90.6756 137.643 100.083 137.643 109.893C137.66 110.091 137.66 110.29 137.643 110.487C137.503 120.214 133.514 129.493 126.542 136.31C119.57 143.128 110.178 146.935 100.403 146.904H100.468Z" fill="url(#paint8_radial_103_348)"/>
<path d="M100.403 72.9141C93.0605 72.9141 85.8825 75.081 79.777 79.1407C73.6716 83.2005 68.913 88.9709 66.1029 95.722C63.2929 102.473 62.5576 109.902 63.9902 117.069C65.4227 124.236 68.9587 130.819 74.1509 135.986C79.3432 141.154 85.9586 144.672 93.1605 146.098C100.362 147.524 107.827 146.792 114.611 143.996C121.395 141.199 127.194 136.464 131.273 130.388C135.353 124.312 137.53 117.168 137.53 109.861C137.509 100.069 133.59 90.6833 126.633 83.759C119.675 76.8347 110.244 72.9353 100.403 72.9141ZM100.403 145.025C93.4206 145.028 86.5936 142.97 80.786 139.112C74.9784 135.254 70.451 129.768 67.7766 123.349C65.1021 116.929 64.4008 109.865 65.7611 103.049C67.1214 96.2332 70.4824 89.9718 75.4189 85.0569C80.3555 80.1421 86.6457 76.7945 93.4942 75.4376C100.343 74.0808 107.442 74.7756 113.893 77.4341C120.345 80.0927 125.86 84.5956 129.739 90.3733C133.619 96.1511 135.69 102.944 135.69 109.893C135.692 114.506 134.781 119.074 133.009 123.336C131.236 127.599 128.637 131.472 125.361 134.734C122.084 137.997 118.193 140.585 113.911 142.35C109.629 144.116 105.039 145.025 100.403 145.025Z" fill="url(#paint9_linear_103_348)"/>
<g style="mix-blend-mode:soft-light" opacity="0.5">
<path d="M93.527 146.262L76.7392 159.884C69.909 156.666 63.8097 152.096 58.814 146.454C53.8182 140.811 50.0309 134.214 47.6835 127.065L63.5835 114.214C64.5101 122.027 67.9112 129.344 73.2945 135.106C78.6778 140.867 85.7639 144.775 93.527 146.262Z" fill="white"/>
</g>
<g style="mix-blend-mode:soft-light" opacity="0.5">
<path d="M137.546 110.487C137.563 110.29 137.563 110.091 137.546 109.893C137.559 102.186 135.149 94.667 130.653 88.3903C126.158 82.1137 119.803 77.3932 112.478 74.8899L128.345 62.0388C134.829 65.7877 140.483 70.8026 144.969 76.782C149.454 82.7615 152.678 89.5819 154.447 96.8332L137.546 110.487Z" fill="white"/>
</g>
<path d="M82.276 162.165C82.276 162.165 108.442 169.876 137.579 150.92C137.579 150.984 118.386 172.606 82.276 162.165Z" fill="url(#paint10_radial_103_348)"/>
<g style="mix-blend-mode:soft-light" opacity="0.5">
<path d="M76.7392 159.884L79.6771 170.823C79.6771 170.823 57.9015 163.932 48.3777 135.676L47.619 127.065C50.0642 134.173 53.8952 140.731 58.8922 146.363C63.8893 151.995 69.9542 156.589 76.7392 159.884Z" fill="white"/>
</g>
<path d="M174.835 86.6003L186.441 68.8657L192.623 73.0745L180.291 89.7006L174.835 86.6003Z" fill="#FF1D9C"/>
<path d="M40.6295 55.0669L58.7409 41.011L63.1638 47.0831L46.5536 60.1591L40.6295 55.0669Z" fill="#FF1D9C"/>
<path d="M30.347 144.286L17.1105 150.936L13.7853 144.286L27.28 136.447L30.347 144.286Z" fill="#4F31E0"/>
<path d="M118.709 41.6054L128.2 51.9666L131.929 47.6936L122.97 37.8625L118.709 41.6054Z" fill="#6877FF"/>
<path d="M60.8232 101.476L72.8975 80.721L99.0799 101.459C99.0799 101.459 128.781 71.3557 152.349 63.7415L158.918 90.4557C158.918 90.4557 129.233 97.6363 101.404 131.547L60.8232 101.476Z" fill="url(#paint11_linear_103_348)"/>
<path d="M60.8232 111.05L72.8975 90.295L99.0799 111.033C99.0799 111.033 128.781 80.9297 152.349 73.3154L158.918 100.03C158.918 100.03 129.233 107.21 101.404 141.121L60.8232 111.05Z" fill="url(#paint12_linear_103_348)"/>
<path d="M152.3 63.7415V73.3155L158.87 100.03V87.9658L152.3 63.7415Z" fill="#BF006F"/>
<path d="M72.8975 80.7209V90.295L60.8232 111.066V101.475L72.8975 80.7209Z" fill="#BF006F"/>
<g style="mix-blend-mode:soft-light">
<path d="M152.3 63.8057V73.444C144.885 76.2562 137.839 79.9509 131.316 84.4478C119.764 92.3614 108.958 101.303 99.0315 111.162V101.524C106.414 94.0657 114.316 87.1357 122.68 80.7852C128.121 76.6476 133.843 72.8904 139.806 69.5405C143.765 67.2122 147.951 65.2907 152.3 63.8057Z" fill="white"/>
</g>
<g style="mix-blend-mode:soft-light">
<path d="M142.663 77.4279L131.364 84.3193L127.635 77.203C131.545 74.3591 135.638 71.7727 139.887 69.4602L142.663 77.4279Z" fill="white"/>
</g>
</g>
<defs>
<linearGradient id="paint0_linear_103_348" x1="98.7311" y1="153.782" x2="98.7311" y2="0.609944" gradientUnits="userSpaceOnUse">
<stop stop-color="#FD5703"/>
<stop offset="1" stop-color="#FFAD12"/>
</linearGradient>
<radialGradient id="paint1_radial_103_348" cx="0" cy="0" r="1" gradientUnits="userSpaceOnUse" gradientTransform="translate(168.451 131.379) scale(52.0582 20.3558)">
<stop stop-color="#67EEE0"/>
<stop offset="1" stop-color="#5DCEFF"/>
</radialGradient>
<radialGradient id="paint2_radial_103_348" cx="0" cy="0" r="1" gradientUnits="userSpaceOnUse" gradientTransform="translate(37.8674 89.864) scale(53.8567 46.8848)">
<stop stop-color="#67EEE0"/>
<stop offset="1" stop-color="#5DCEFF"/>
</radialGradient>
<radialGradient id="paint3_radial_103_348" cx="0" cy="0" r="1" gradientUnits="userSpaceOnUse" gradientTransform="translate(164.698 107.818) scale(31.3384 22.2477)">
<stop stop-color="#67EEE0"/>
<stop offset="1" stop-color="#5DCEFF"/>
</radialGradient>
<linearGradient id="paint4_linear_103_348" x1="160.519" y1="43.5305" x2="160.519" y2="-0.00442561" gradientUnits="userSpaceOnUse">
<stop stop-color="#FD5703"/>
<stop offset="1" stop-color="#FFAD12"/>
</linearGradient>
<linearGradient id="paint5_linear_103_348" x1="46.941" y1="121.764" x2="153.882" y2="121.764" gradientUnits="userSpaceOnUse">
<stop stop-color="#1C257B"/>
<stop offset="1" stop-color="#6A2C9A"/>
</linearGradient>
<linearGradient id="paint6_linear_103_348" x1="44.2776" y1="131.483" x2="155.997" y2="131.483" gradientUnits="userSpaceOnUse">
<stop stop-color="#1C257B"/>
<stop offset="1" stop-color="#6A2C9A"/>
</linearGradient>
<radialGradient id="paint7_radial_103_348" cx="0" cy="0" r="1" gradientUnits="userSpaceOnUse" gradientTransform="translate(123.858 60.4323) scale(55.5448 55.2758)">
<stop stop-color="#39AEF7"/>
<stop offset="1" stop-color="#6840D5"/>
</radialGradient>
<radialGradient id="paint8_radial_103_348" cx="0" cy="0" r="1" gradientUnits="userSpaceOnUse" gradientTransform="translate(104.487 64.3519) scale(79.2736 78.8898)">
<stop stop-color="#3996F7"/>
<stop offset="1" stop-color="#6840D5"/>
</radialGradient>
<linearGradient id="paint9_linear_103_348" x1="100.404" y1="146.904" x2="100.404" y2="72.9141" gradientUnits="userSpaceOnUse">
<stop stop-color="#60B3F7"/>
<stop offset="1" stop-color="#364AC2"/>
</linearGradient>
<radialGradient id="paint10_radial_103_348" cx="0" cy="0" r="1" gradientUnits="userSpaceOnUse" gradientTransform="translate(111.961 152.221) scale(19.9838 19.8871)">
<stop stop-color="#3996F7"/>
<stop offset="1" stop-color="#6840D5"/>
</radialGradient>
<linearGradient id="paint11_linear_103_348" x1="109.847" y1="131.547" x2="109.847" y2="63.7415" gradientUnits="userSpaceOnUse">
<stop stop-color="#B31A8F"/>
<stop offset="1" stop-color="#FE117E"/>
</linearGradient>
<linearGradient id="paint12_linear_103_348" x1="109.847" y1="141.121" x2="109.847" y2="73.3154" gradientUnits="userSpaceOnUse">
<stop stop-color="#63004A"/>
<stop offset="1" stop-color="#BA0065"/>
</linearGradient>
<clipPath id="clip0_103_348">
<rect width="200" height="175" fill="white"/>
</clipPath>
</defs>
</svg>
