<svg width="176" height="211" viewBox="0 0 176 211" fill="none" xmlns="http://www.w3.org/2000/svg">
<g clip-path="url(#clip0_103_283)">
<path d="M48.3019 151.381C20.2816 132.09 14.937 67.8227 45.2126 38.9875C77.2182 8.49938 175.32 34.9329 175.985 87.332C176.649 139.731 76.7085 170.937 48.3019 151.381Z" fill="url(#paint0_linear_103_283)"/>
<path d="M112.313 189.791C112.313 189.791 120.886 150.492 164.06 150.476C164.06 150.476 161.526 189.136 117.333 191.023L112.313 189.791Z" fill="url(#paint1_radial_103_283)"/>
<g style="mix-blend-mode:soft-light">
<path d="M164.06 150.476L112.313 189.791L118.909 189.604C118.909 189.604 156.352 188.278 164.06 150.476Z" fill="#BDE0FF"/>
</g>
<path d="M70.916 201.331C70.916 201.331 27.8659 202.891 3.05176e-05 157.088C3.05176e-05 157.088 38.4778 140.604 81.3116 189.073L70.916 201.331Z" fill="url(#paint2_radial_103_283)"/>
<g style="mix-blend-mode:soft-light">
<path d="M3.78448 158.616L72.2598 194.251L62.5129 198.54C62.5129 198.54 23.6799 196.465 3.78448 158.616Z" fill="#BDE0FF"/>
</g>
<path d="M69.2786 165.229C69.2786 165.229 69.0932 131.154 40.6558 126.46C40.6558 126.46 34.9096 159.459 69.2786 165.229Z" fill="url(#paint3_radial_103_283)"/>
<g style="mix-blend-mode:soft-light">
<path d="M40.6558 126.46L68.6298 162.796C68.6298 162.796 40.3005 162.952 40.6558 126.46Z" fill="#BDE0FF"/>
</g>
<path d="M104.096 25.186L126.262 26.1373L125.69 33.467L105.254 32.7184L104.096 25.186Z" fill="#FF1D9C"/>
<path d="M45.9695 68.5713L55.1448 78.7236L58.7439 74.5286L50.0938 64.9065L45.9695 68.5713Z" fill="#6877FF"/>
<path d="M161.851 122.857C161.859 122.722 161.859 122.587 161.851 122.452L167.443 122.015C167.563 118.411 166.426 114.879 164.23 112.034L159.781 114.795C158.698 112.82 157.225 111.09 155.453 109.714C153.68 108.338 151.647 107.344 149.478 106.795L150.621 102.116C147.266 100.899 143.596 100.899 140.241 102.116L141.384 106.795C139.217 107.347 137.184 108.342 135.412 109.718C133.641 111.094 132.166 112.822 131.081 114.795L126.632 112.034C124.451 114.887 123.316 118.414 123.419 122.015L129.027 122.452C129.019 122.587 129.019 122.722 129.027 122.857C129.014 127.02 130.565 131.032 133.367 134.086L128.64 138.156C130.638 141.135 133.606 143.314 137.028 144.316L139.484 138.312C143.321 139.809 147.572 139.809 151.409 138.312L153.865 144.316C157.29 143.312 160.262 141.133 162.268 138.156L157.526 134.086C160.32 131.029 161.866 127.017 161.851 122.857ZM147.671 129.22C146.955 129.491 146.196 129.628 145.431 129.626C143.704 129.603 142.049 128.924 140.797 127.723C139.57 126.535 138.846 124.915 138.773 123.2C138.766 123.086 138.766 122.972 138.773 122.857C138.771 121.852 138.999 120.859 139.438 119.957C139.844 119.073 140.438 118.291 141.177 117.666C141.917 117.04 142.784 116.587 143.716 116.339C144.288 116.168 144.881 116.083 145.477 116.089C146.073 116.085 146.667 116.169 147.238 116.339C148.171 116.587 149.038 117.04 149.777 117.666C150.517 118.291 151.111 119.073 151.517 119.957C151.956 120.859 152.183 121.852 152.181 122.857C152.189 122.972 152.189 123.086 152.181 123.2C152.109 124.915 151.384 126.535 150.158 127.723C149.455 128.41 148.603 128.922 147.671 129.22Z" fill="url(#paint4_linear_103_283)"/>
<path d="M161.835 118.304V117.898L167.427 117.461C167.541 113.858 166.404 110.328 164.214 107.481L159.766 110.241C158.68 108.268 157.206 106.54 155.434 105.165C153.662 103.789 151.63 102.794 149.463 102.241L150.606 97.5623C147.244 96.3497 143.571 96.3497 140.21 97.5623L141.353 102.241C139.189 102.796 137.159 103.791 135.39 105.167C133.621 106.543 132.149 108.27 131.066 110.241L126.601 107.481C124.42 110.333 123.285 113.86 123.388 117.461L128.996 117.898V118.304C128.984 122.466 130.535 126.478 133.336 129.532L128.594 133.618C130.607 136.589 133.576 138.765 136.997 139.778L139.453 133.758C143.29 135.255 147.541 135.255 151.378 133.758L153.834 139.778C157.255 138.765 160.224 136.589 162.237 133.618L157.495 129.532C160.296 126.478 161.848 122.466 161.835 118.304ZM147.671 124.666C146.955 124.94 146.196 125.078 145.431 125.072C144.66 125.084 143.895 124.946 143.176 124.666C142.263 124.344 141.437 123.81 140.766 123.107C139.54 121.919 138.815 120.299 138.743 118.584C138.735 118.47 138.735 118.355 138.743 118.241C138.735 117.237 138.957 116.244 139.391 115.341C139.801 114.46 140.396 113.679 141.135 113.055C141.874 112.43 142.739 111.975 143.67 111.723C144.826 111.39 146.051 111.39 147.207 111.723C148.138 111.975 149.003 112.43 149.742 113.055C150.481 113.679 151.076 114.46 151.486 115.341C151.925 116.243 152.152 117.236 152.15 118.241C152.166 118.355 152.166 118.47 152.15 118.584C152.078 120.299 151.353 121.919 150.127 123.107C149.445 123.819 148.602 124.355 147.671 124.666Z" fill="url(#paint5_linear_103_283)"/>
<path d="M136.487 138.702C133.816 137.755 131.483 136.029 129.783 133.743L134.587 129.61L133.969 128.939C131.318 126.046 129.85 122.246 129.861 118.304C129.853 118.189 129.853 118.075 129.861 117.961V117.087L124.176 116.651C124.256 113.791 125.158 111.017 126.771 108.666L131.297 111.473L131.745 110.678C132.769 108.808 134.162 107.17 135.839 105.866C137.516 104.562 139.44 103.62 141.492 103.099L142.326 102.88L141.168 98.077C142.473 97.6692 143.833 97.4641 145.199 97.4688C146.648 97.4694 148.089 97.6795 149.478 98.0926L148.335 102.88L149.169 103.099C151.224 103.619 153.151 104.56 154.831 105.864C156.51 107.167 157.906 108.806 158.931 110.678L159.379 111.473L163.921 108.65C165.525 111.009 166.411 113.79 166.469 116.651L160.816 117.087V117.961C160.823 118.075 160.823 118.189 160.816 118.304C160.823 122.248 159.349 126.048 156.692 128.939L156.074 129.61L160.909 133.758C159.195 136.033 156.851 137.742 154.174 138.671L151.702 132.62L150.899 132.947C147.266 134.362 143.241 134.362 139.608 132.947L138.82 132.62L136.487 138.702ZM145.416 110.631C144.731 110.626 144.05 110.72 143.392 110.912C141.798 111.36 140.392 112.321 139.388 113.65C138.384 114.979 137.838 116.602 137.831 118.273C137.831 118.444 137.831 118.616 137.831 118.772C137.933 120.673 138.751 122.464 140.117 123.778C140.89 124.545 141.825 125.126 142.851 125.477C144.491 126.091 146.294 126.091 147.933 125.477C148.954 125.123 149.883 124.542 150.652 123.778C152.031 122.434 152.848 120.61 152.938 118.678C152.949 118.548 152.949 118.418 152.938 118.288C152.948 117.146 152.689 116.018 152.181 114.998C151.575 113.692 150.611 112.589 149.404 111.818C148.197 111.047 146.797 110.641 145.369 110.647L145.416 110.631Z" fill="url(#paint6_linear_103_283)"/>
<path d="M162.237 133.618V138.156C160.26 141.162 157.277 143.349 153.834 144.316V139.778C157.097 138.459 159.985 136.343 162.237 133.618Z" fill="url(#paint7_linear_103_283)"/>
<path d="M136.997 139.778V144.316C133.6 143.262 130.649 141.094 128.609 138.156V133.618C128.609 133.618 132.224 138.562 136.997 139.778Z" fill="url(#paint8_linear_103_283)"/>
<path d="M167.412 117.461L167.427 122L161.835 122.436L161.82 117.882L167.412 117.461Z" fill="url(#paint9_linear_103_283)"/>
<path d="M150.142 102.428L150.606 102.054L150.59 97.5L149.463 102.241L150.142 102.428Z" fill="url(#paint10_linear_103_283)"/>
<path d="M140.21 97.5L140.225 102.054L140.658 102.428L141.353 102.241L140.21 97.5Z" fill="url(#paint11_linear_103_283)"/>
<path d="M123.388 117.461V122L128.996 122.436V117.882L123.388 117.461Z" fill="url(#paint12_linear_103_283)"/>
<path style="mix-blend-mode:multiply" d="M136.997 144.316V139.762L139.453 133.758V138.312L136.997 144.316Z" fill="url(#paint13_linear_103_283)"/>
<path style="mix-blend-mode:multiply" d="M151.378 138.312V133.758L153.819 139.762V143.864L151.378 138.312Z" fill="url(#paint14_linear_103_283)"/>
<path d="M170.516 73.9826L161.279 79.6436L157.588 72.5479L167.674 66.6062L170.516 73.9826Z" fill="#4F31E0"/>
<path d="M86.8879 0.920158C76.6003 -3.07215 68.0892 6.90863 69.0006 13.3961C69.9119 19.8836 90.4561 17.1857 93.0357 13.9731C95.6153 10.7606 89.7301 2.0274 86.8879 0.920158Z" fill="url(#paint15_linear_103_283)"/>
<path d="M131.792 179.171C133.336 174.679 134.402 163.965 131.792 157.338L125.458 166.211C124.847 161.777 123.31 157.524 120.948 153.735L125.752 150.398C123.497 146.142 120.047 142.654 115.835 140.37L112.746 144.924C109.069 142.219 104.852 140.356 100.388 139.466L101.346 134.319C96.7678 132.923 91.8832 132.923 87.3049 134.319L88.2626 139.466C83.7952 140.352 79.576 142.221 75.9052 144.94L72.8159 140.37C68.6142 142.673 65.1641 146.156 62.8837 150.398L67.7185 153.735C65.3455 157.52 63.8023 161.774 63.1926 166.211L56.8749 165.026C55.5205 169.647 55.5205 174.565 56.8749 179.186L63.7332 177.892C64.7052 182.114 66.5357 186.087 69.1087 189.557L62.93 193.845C65.2128 198.082 68.6627 201.559 72.8623 203.857L77.3264 197.261C80.822 199.569 84.7489 201.129 88.865 201.846L87.3204 209.939C91.9031 211.305 96.7787 211.305 101.361 209.939L99.8168 201.877C103.933 201.142 107.861 199.584 111.371 197.292L115.82 203.857C120.024 201.571 123.471 198.09 125.736 193.845L119.558 189.557C122.128 186.087 123.953 182.114 124.918 177.892L131.792 179.171ZM105.378 179.732C104.34 181.004 103.097 182.09 101.701 182.945C100.16 183.88 98.4563 184.51 96.6811 184.8C95.9061 184.939 95.1203 185.007 94.3332 185.003C93.541 185.007 92.7501 184.939 91.9699 184.8C90.2015 184.511 88.5034 183.887 86.9651 182.96C84.8467 181.684 83.0943 179.872 81.8808 177.703C80.6673 175.535 80.0346 173.084 80.045 170.593C80.045 170.203 80.045 169.782 80.045 169.408C80.2087 167.327 80.8145 165.306 81.8213 163.482C82.7734 161.821 84.0318 160.36 85.5286 159.178C87.2522 157.839 89.2536 156.911 91.3829 156.464C93.2939 156.069 95.2644 156.069 97.1754 156.464C99.3046 156.911 101.306 157.839 103.03 159.178C104.522 160.361 105.775 161.822 106.721 163.482C107.74 165.302 108.352 167.324 108.513 169.408C108.513 169.782 108.513 170.203 108.513 170.593C108.517 171.977 108.319 173.354 107.926 174.679C107.416 176.517 106.55 178.234 105.378 179.732Z" fill="#7C006F"/>
<path d="M131.807 171.482C132.924 167.677 133.141 163.66 132.44 159.755C132.288 158.93 132.076 158.116 131.807 157.322L125.489 158.523C124.871 154.09 123.334 149.839 120.979 146.047L125.783 142.725C125.07 141.294 124.182 139.958 123.141 138.749C121.151 136.247 118.675 134.183 115.866 132.682L112.777 137.236C109.101 134.532 104.883 132.674 100.419 131.793L101.377 126.631C96.7964 125.251 91.9163 125.251 87.3358 126.631L88.2935 131.793C83.8265 132.671 79.6068 134.535 75.9361 137.251L72.8468 132.682C68.6487 134.991 65.2039 138.48 62.93 142.725L67.7648 146.047C65.3862 149.829 63.8425 154.084 63.2389 158.523L56.9212 157.322C56.339 159.15 56.0064 161.049 55.9326 162.968C55.7281 165.843 56.0635 168.732 56.9212 171.482L63.7796 170.204C64.7528 174.423 66.5775 178.394 69.1396 181.869L62.9609 186.157C63.9238 188 65.1407 189.696 66.5754 191.194C68.3629 193.218 70.498 194.898 72.8777 196.154L77.3572 189.557C80.8538 191.866 84.78 193.432 88.8959 194.157L87.3513 202.22C91.9318 203.6 96.8119 203.6 101.392 202.22L99.8477 194.173C102.519 193.694 105.116 192.86 107.571 191.693C108.871 191.075 110.13 190.372 111.34 189.588L115.804 196.154C120.01 193.877 123.46 190.4 125.721 186.157L119.542 181.869C122.121 178.402 123.952 174.428 124.918 170.204L131.807 171.482ZM105.393 172.044C104.349 173.32 103.101 174.411 101.701 175.272C100.163 176.199 98.4648 176.823 96.6965 177.112C95.1393 177.403 93.5425 177.403 91.9853 177.112C90.3631 176.866 88.7953 176.338 87.3513 175.553L86.9651 175.35C85.563 174.485 84.315 173.389 83.2733 172.106C82.0743 170.618 81.1768 168.907 80.632 167.069L80.5393 166.726C80.2215 165.499 80.0605 164.236 80.0604 162.968C80.0604 162.578 80.0604 162.157 80.0604 161.782C80.2957 158.389 81.7516 155.2 84.1538 152.815C84.591 152.366 85.0553 151.944 85.544 151.552C87.2608 150.202 89.265 149.273 91.3983 148.838C92.3492 148.644 93.3167 148.545 94.2869 148.542C94.8012 148.508 95.3172 148.508 95.8315 148.542C96.3104 148.542 96.7738 148.683 97.2526 148.761C99.3746 149.201 101.367 150.13 103.076 151.474C104.574 152.659 105.837 154.12 106.799 155.778C107.797 157.606 108.402 159.625 108.575 161.704C108.575 162.079 108.575 162.5 108.575 162.89C108.57 164.278 108.372 165.658 107.988 166.991C107.849 167.474 107.664 167.958 107.478 168.426C106.96 169.727 106.258 170.946 105.393 172.044Z" fill="url(#paint16_linear_103_283)"/>
<g style="mix-blend-mode:soft-light">
<path d="M87.4285 175.49L69.1704 181.869C66.6083 178.394 64.7837 174.423 63.8105 170.204L56.9521 171.483C56.0944 168.732 55.759 165.843 55.9635 162.968L84.2774 152.753C81.8751 155.138 80.4193 158.327 80.184 161.72C80.184 162.094 80.184 162.515 80.184 162.905C80.1841 164.174 80.345 165.437 80.6628 166.664L80.7555 167.007C81.3003 168.844 82.1978 170.556 83.3969 172.044C84.4385 173.327 85.6865 174.423 87.0887 175.288L87.4285 175.49Z" fill="white"/>
</g>
<g style="mix-blend-mode:soft-light">
<path d="M108.034 167.007C108.418 165.674 108.616 164.293 108.621 162.905C108.621 162.515 108.621 162.094 108.621 161.72C108.448 159.64 107.843 157.621 106.845 155.794C105.884 154.135 104.621 152.675 103.122 151.49C101.414 150.145 99.421 149.216 97.299 148.776C96.8201 148.698 96.3567 148.604 95.8779 148.558L123.188 138.702C124.229 139.911 125.116 141.247 125.829 142.678L121.025 146C123.381 149.792 124.918 154.043 125.536 158.476L131.853 157.275C132.123 158.07 132.334 158.883 132.487 159.708L107.509 168.441C107.71 167.973 107.895 167.49 108.034 167.007Z" fill="white"/>
</g>
<path d="M94.4413 201.565C92.723 201.576 91.0086 201.399 89.3284 201.035L90.8731 192.785L89.1276 192.489C85.269 191.801 81.5898 190.325 78.3149 188.153L76.8938 187.218L72.337 193.908C69.5294 192.022 67.124 189.588 65.2624 186.75L71.6574 182.336L70.5761 180.87C68.1417 177.599 66.4156 173.848 65.5096 169.86L65.1234 168.301L58.1879 169.611C57.5082 166.272 57.5082 162.829 58.1879 159.49L64.7527 160.737L64.9998 158.897C65.5556 154.691 67.0103 150.658 69.2632 147.076L70.1745 145.641L65.247 142.273C67.1025 139.42 69.515 136.979 72.337 135.099L75.55 139.778L77.002 138.702C80.4668 136.127 84.4558 134.364 88.6797 133.54L90.3788 133.212L89.3902 127.91C91.0128 127.546 92.671 127.368 94.3332 127.38C96.0463 127.369 97.7555 127.547 99.4306 127.91L98.442 133.212L100.141 133.54C104.368 134.361 108.362 136.119 111.834 138.686L113.286 139.762L116.484 135.084C119.313 136.96 121.727 139.408 123.574 142.273L118.677 145.641L119.573 147.076C121.807 150.673 123.26 154.707 123.836 158.913L124.084 160.737L130.648 159.49C131.343 162.827 131.343 166.274 130.648 169.611L123.697 168.301L123.327 169.954C122.415 173.935 120.689 177.68 118.26 180.948L117.179 182.414L123.574 186.843C121.726 189.694 119.311 192.126 116.484 193.986L111.958 187.311L110.537 188.247C109.392 188.99 108.2 189.657 106.969 190.243C104.642 191.349 102.18 192.135 99.6469 192.582L97.9014 192.879L99.446 201.128C97.7989 201.46 96.1204 201.607 94.4413 201.565ZM94.3332 146.78C93.2433 146.785 92.1567 146.9 91.0894 147.123C88.6972 147.609 86.4497 148.65 84.5245 150.164C82.8465 151.487 81.4359 153.123 80.3693 154.983C79.2382 157.032 78.5585 159.303 78.3767 161.642C78.3522 162.083 78.3522 162.526 78.3767 162.967C78.3786 164.389 78.5603 165.804 78.9174 167.178C78.9174 167.396 79.01 167.521 79.0409 167.615C79.6461 169.66 80.6491 171.564 81.9912 173.213C83.1552 174.649 84.5492 175.877 86.1155 176.847C87.8561 177.884 89.7737 178.582 91.769 178.906C92.6355 179.063 93.5144 179.142 94.395 179.139C95.2908 179.14 96.1849 179.062 97.0672 178.906C99.0504 178.582 100.954 177.878 102.674 176.831C104.238 175.87 105.632 174.653 106.799 173.229C109.137 170.329 110.418 166.707 110.429 162.967C110.429 162.531 110.429 162.047 110.429 161.626C110.239 159.299 109.56 157.039 108.436 154.998C107.371 153.133 105.96 151.491 104.281 150.164C102.356 148.65 100.108 147.609 97.716 147.123C96.6051 146.872 95.4715 146.736 94.3332 146.717V146.78Z" fill="url(#paint17_linear_103_283)"/>
<path d="M125.783 142.663L125.767 150.351L124.022 151.568L120.963 146L125.783 142.663Z" fill="#7C006F"/>
<path d="M125.767 193.768V186.079C125.767 186.079 121.257 193.331 115.85 196.091V203.78C115.85 203.78 123.528 200.006 125.767 193.768Z" fill="#981382"/>
<path d="M62.8682 193.768V186.079C65.1512 190.31 68.5944 193.786 72.785 196.091V203.78C72.785 203.78 67.5331 201.971 62.8682 193.768Z" fill="#7C006F"/>
<path d="M56.8594 179.171V171.498C55.6671 166.849 55.6671 161.971 56.8594 157.322C54.1668 164.351 54.1668 172.142 56.8594 179.171Z" fill="#7C006F"/>
<path d="M62.8682 150.351L62.8837 142.663L67.7185 146L64.6137 151.568L62.8682 150.351Z" fill="#7C006F"/>
<path d="M87.3049 130.686L87.3204 126.584L88.2781 131.731H87.5057L87.3049 130.686Z" fill="url(#paint18_linear_103_283)"/>
<path d="M101.346 126.584V130.686L101.114 131.887L100.388 131.731L101.346 126.584Z" fill="url(#paint19_linear_103_283)"/>
<path style="mix-blend-mode:multiply" opacity="0.62" d="M115.85 203.842L115.866 196.154L111.402 189.588L111.386 197.261L115.85 203.842Z" fill="url(#paint20_linear_103_283)"/>
<path style="mix-blend-mode:multiply" opacity="0.62" d="M124.933 177.876L124.949 170.188L131.792 171.482L131.776 179.171L124.933 177.876Z" fill="url(#paint21_linear_103_283)"/>
<path style="mix-blend-mode:multiply" opacity="0.62" d="M77.2646 197.245V189.573L72.8005 196.154L72.785 203.842L77.2646 197.245Z" fill="url(#paint22_linear_103_283)"/>
<path style="mix-blend-mode:multiply" opacity="0.62" d="M63.7023 177.876L63.7178 170.188L56.8594 171.482L56.844 179.171L63.7023 177.876Z" fill="url(#paint23_linear_103_283)"/>
<g style="mix-blend-mode:multiply" opacity="0.86">
<path d="M99.8631 194.173L101.408 202.22C96.4494 204.513 89.2049 202.735 87.3667 202.22L88.9114 194.158C84.7954 193.432 80.8692 191.866 77.3727 189.557L72.8931 196.154C70.5135 194.898 68.3783 193.218 66.5909 191.194L80.6319 166.664L80.7246 167.007C81.2694 168.844 82.1669 170.556 83.366 172.044C85.5419 174.772 88.6493 176.579 92.078 177.112C93.6351 177.403 95.232 177.403 96.7892 177.112C98.5575 176.823 100.256 176.199 101.794 175.272C103.194 174.411 104.442 173.32 105.486 172.044L107.726 191.694C105.227 192.872 102.582 193.706 99.8631 194.173Z" fill="#C99AC7"/>
</g>
<path d="M101.331 202.236V209.924C101.331 209.924 96.264 212.372 87.2895 209.924V202.236C91.9137 203.271 96.7063 203.271 101.331 202.236Z" fill="#7C006F"/>
<path d="M127.374 83.1369C127.454 74.2638 124.892 65.5709 120.021 58.185L115.233 57.4988L114.059 77.7723C111.23 80.8286 107.485 82.8615 103.4 83.558C99.6128 81.8632 96.4814 78.9593 94.4877 75.2927L98.3339 55.2687L93.6072 54.7229C87.0548 60.6749 82.4354 68.4858 80.3539 77.1329C80.3539 77.1329 79.6433 81.8114 79.7206 82.248C80.0913 84.8836 82.6555 89.2658 90.2553 93.4608L85.1578 158.149C82.2197 159.71 79.8515 162.176 78.3974 165.189C76.9434 168.203 76.4794 171.606 77.073 174.904C77.6666 178.202 79.2867 181.222 81.6978 183.527C84.1089 185.831 87.1853 187.298 90.4794 187.716C93.7736 188.133 97.1138 187.479 100.014 185.848C102.915 184.217 105.224 181.695 106.607 178.647C107.989 175.6 108.373 172.186 107.702 168.904C107.031 165.621 105.34 162.64 102.875 160.394L113.796 96.4551C121.998 94.3341 125.628 90.8565 126.756 88.2209C126.972 87.7219 127.374 83.1369 127.374 83.1369ZM95.8161 180.2L87.1505 179.108L83.7676 170.983L89.035 163.966L97.7006 165.073L101.083 173.182L95.8161 180.2Z" fill="url(#paint24_linear_103_283)"/>
<path d="M126.74 88.2519C126.821 79.3787 124.259 70.6858 119.388 63.2999L114.646 62.6917L113.472 83.0431C110.633 86.0941 106.885 88.1257 102.798 88.8289C99.0118 87.1242 95.8817 84.216 93.8852 80.548L97.7315 60.5396L92.9893 59.9314C86.4452 65.8572 81.8168 73.6325 79.7051 82.2478C79.7051 82.2478 80.5856 93.6165 89.591 98.5913L84.5091 163.279C81.5638 164.833 79.187 167.296 77.7249 170.309C76.2628 173.322 75.7919 176.728 76.3807 180.03C76.9695 183.332 78.5873 186.358 80.9984 188.667C83.4094 190.976 86.4878 192.447 89.7849 192.866C93.0821 193.286 96.4257 192.631 99.3287 190.998C102.232 189.365 104.542 186.839 105.924 183.787C107.306 180.736 107.686 177.319 107.01 174.034C106.334 170.749 104.636 167.768 102.165 165.525L113.085 101.586C123.095 99.0436 126.74 88.2519 126.74 88.2519ZM95.1519 185.331L86.5017 184.223L83.1189 176.114L88.3862 169.096L97.0364 170.188L100.435 178.313L95.1519 185.331Z" fill="url(#paint25_linear_103_283)"/>
<path d="M93.6664 54.7158L93.0282 59.8374L97.7639 60.4389L98.4021 55.3173L93.6664 54.7158Z" fill="#E5E2FF"/>
<path d="M115.297 57.5098L114.659 62.6313L119.395 63.2328L120.033 58.1112L115.297 57.5098Z" fill="#E5E2FF"/>
<path d="M87.1758 179.121L86.5377 184.242L95.1968 185.342L95.835 180.22L87.1758 179.121Z" fill="#E5E2FF"/>
<path d="M92.8039 105.64L88.4943 158.18C90.0391 159.239 91.8107 159.912 93.6636 160.146C95.5164 160.379 97.3976 160.165 99.1526 159.521L108.421 107.621C101.083 102.599 92.8039 105.64 92.8039 105.64ZM97.438 158.85C96.2028 159.021 94.9505 159.021 93.7153 158.85C92.5581 158.709 91.4284 158.393 90.3634 157.915L94.1324 106.171C96.4267 105.801 98.7607 105.754 101.068 106.03C103.135 106.295 105.15 106.873 107.046 107.746L97.438 158.85Z" fill="url(#paint26_linear_103_283)"/>
<path d="M97.3762 158.851L99.1526 159.521C97.4227 160.295 95.5168 160.579 93.6392 160.343C91.7616 160.107 89.9832 159.359 88.4943 158.18L90.3016 157.977C92.5364 158.916 94.9833 159.218 97.3762 158.851Z" fill="#E5E2FF"/>
<path style="mix-blend-mode:multiply" opacity="0.62" d="M92.804 105.64L94.0706 106.233C98.4332 105.455 102.926 105.997 106.984 107.793L108.359 107.605C106.082 106.111 103.5 105.156 100.806 104.813C98.1125 104.47 95.3765 104.748 92.804 105.625V105.64Z" fill="url(#paint27_linear_103_283)"/>
<path style="mix-blend-mode:multiply" opacity="0.62" d="M89.6374 98.6382C97.1452 101.412 105.176 102.44 113.132 101.648L111.742 109.82C111.742 109.82 110.614 104.907 102.319 103.426C92.6186 101.695 89.1277 108.229 89.1277 108.229L89.6374 98.6382Z" fill="url(#paint28_linear_103_283)"/>
<path style="mix-blend-mode:screen" opacity="0.5" d="M111.742 109.773C111.085 108.195 110.018 106.826 108.652 105.812L98.2412 166.492L102.165 165.525L111.742 109.773Z" fill="url(#paint29_linear_103_283)"/>
<path d="M111.742 109.773C111.742 109.773 105.656 114.888 109.703 121.719L111.742 109.773Z" fill="white"/>
</g>
<defs>
<linearGradient id="paint0_linear_103_283" x1="100.3" y1="157.262" x2="100.3" y2="26.0602" gradientUnits="userSpaceOnUse">
<stop stop-color="#FD5703"/>
<stop offset="1" stop-color="#FFAD12"/>
</linearGradient>
<radialGradient id="paint1_radial_103_283" cx="0" cy="0" r="1" gradientUnits="userSpaceOnUse" gradientTransform="translate(140.079 154.043) scale(39.4896 28.4715)">
<stop stop-color="#67EEE0"/>
<stop offset="1" stop-color="#5DCEFF"/>
</radialGradient>
<radialGradient id="paint2_radial_103_283" cx="0" cy="0" r="1" gradientUnits="userSpaceOnUse" gradientTransform="translate(43.6294 158.517) scale(62.0517 32.9681)">
<stop stop-color="#67EEE0"/>
<stop offset="1" stop-color="#5DCEFF"/>
</radialGradient>
<radialGradient id="paint3_radial_103_283" cx="0" cy="0" r="1" gradientUnits="userSpaceOnUse" gradientTransform="translate(55.8467 129.871) scale(22.1184 27.2231)">
<stop stop-color="#67EEE0"/>
<stop offset="1" stop-color="#5DCEFF"/>
</radialGradient>
<linearGradient id="paint4_linear_103_283" x1="123.388" y1="122.733" x2="167.427" y2="122.733" gradientUnits="userSpaceOnUse">
<stop stop-color="#3D2C97"/>
<stop offset="1" stop-color="#183683"/>
</linearGradient>
<linearGradient id="paint5_linear_103_283" x1="145.4" y1="139.778" x2="145.4" y2="96.5954" gradientUnits="userSpaceOnUse">
<stop stop-color="#7459F1"/>
<stop offset="1" stop-color="#60B3F7"/>
</linearGradient>
<linearGradient id="paint6_linear_103_283" x1="145.4" y1="138.702" x2="145.4" y2="97.4688" gradientUnits="userSpaceOnUse">
<stop stop-color="#744FD8"/>
<stop offset="1" stop-color="#3996F7"/>
</linearGradient>
<linearGradient id="paint7_linear_103_283" x1="153.834" y1="138.967" x2="162.237" y2="138.967" gradientUnits="userSpaceOnUse">
<stop stop-color="#3D2C97"/>
<stop offset="1" stop-color="#183683"/>
</linearGradient>
<linearGradient id="paint8_linear_103_283" x1="128.594" y1="138.967" x2="136.997" y2="138.967" gradientUnits="userSpaceOnUse">
<stop stop-color="#3D2C97"/>
<stop offset="1" stop-color="#183683"/>
</linearGradient>
<linearGradient id="paint9_linear_103_283" x1="161.82" y1="119.941" x2="167.427" y2="119.941" gradientUnits="userSpaceOnUse">
<stop stop-color="#3D2C97"/>
<stop offset="1" stop-color="#183683"/>
</linearGradient>
<linearGradient id="paint10_linear_103_283" x1="149.463" y1="99.964" x2="150.606" y2="99.964" gradientUnits="userSpaceOnUse">
<stop stop-color="#3D2C97"/>
<stop offset="1" stop-color="#183683"/>
</linearGradient>
<linearGradient id="paint11_linear_103_283" x1="140.21" y1="99.964" x2="141.353" y2="99.964" gradientUnits="userSpaceOnUse">
<stop stop-color="#3D2C97"/>
<stop offset="1" stop-color="#183683"/>
</linearGradient>
<linearGradient id="paint12_linear_103_283" x1="126.2" y1="122.436" x2="126.2" y2="117.461" gradientUnits="userSpaceOnUse">
<stop stop-color="#3D2C97"/>
<stop offset="1" stop-color="#183683"/>
</linearGradient>
<linearGradient id="paint13_linear_103_283" x1="138.217" y1="144.316" x2="138.217" y2="133.758" gradientUnits="userSpaceOnUse">
<stop stop-color="#8B8BE0"/>
<stop offset="1" stop-color="#A177B7"/>
</linearGradient>
<linearGradient id="paint14_linear_103_283" x1="152.598" y1="143.848" x2="152.598" y2="133.758" gradientUnits="userSpaceOnUse">
<stop stop-color="#8B8BE0"/>
<stop offset="1" stop-color="#A177B7"/>
</linearGradient>
<linearGradient id="paint15_linear_103_283" x1="81.2898" y1="17.3643" x2="81.2898" y2="0.00419045" gradientUnits="userSpaceOnUse">
<stop stop-color="#FD5703"/>
<stop offset="1" stop-color="#FFAD12"/>
</linearGradient>
<linearGradient id="paint16_linear_103_283" x1="94.3332" y1="203.249" x2="94.3332" y2="125.54" gradientUnits="userSpaceOnUse">
<stop stop-color="#971A8F"/>
<stop offset="0.47" stop-color="#EF22AC"/>
<stop offset="1" stop-color="#FE4CCE"/>
</linearGradient>
<linearGradient id="paint17_linear_103_283" x1="94.3486" y1="201.503" x2="94.3486" y2="127.302" gradientUnits="userSpaceOnUse">
<stop stop-color="#B31A8F"/>
<stop offset="1" stop-color="#FE117E"/>
</linearGradient>
<linearGradient id="paint18_linear_103_283" x1="87.7838" y1="131.731" x2="87.7838" y2="126.584" gradientUnits="userSpaceOnUse">
<stop stop-color="#3D2CB0"/>
<stop offset="1" stop-color="#0355C7"/>
</linearGradient>
<linearGradient id="paint19_linear_103_283" x1="100.867" y1="131.887" x2="100.867" y2="126.584" gradientUnits="userSpaceOnUse">
<stop stop-color="#3D2CB0"/>
<stop offset="1" stop-color="#0355C7"/>
</linearGradient>
<linearGradient id="paint20_linear_103_283" x1="113.626" y1="203.842" x2="113.626" y2="189.588" gradientUnits="userSpaceOnUse">
<stop stop-color="#8B8BE0"/>
<stop offset="1" stop-color="#A177B7"/>
</linearGradient>
<linearGradient id="paint21_linear_103_283" x1="128.362" y1="179.171" x2="128.362" y2="170.188" gradientUnits="userSpaceOnUse">
<stop stop-color="#8B8BE0"/>
<stop offset="1" stop-color="#A177B7"/>
</linearGradient>
<linearGradient id="paint22_linear_103_283" x1="75.0248" y1="203.842" x2="75.0248" y2="189.573" gradientUnits="userSpaceOnUse">
<stop stop-color="#8B8BE0"/>
<stop offset="1" stop-color="#A177B7"/>
</linearGradient>
<linearGradient id="paint23_linear_103_283" x1="60.2886" y1="179.171" x2="60.2886" y2="170.188" gradientUnits="userSpaceOnUse">
<stop stop-color="#8B8BE0"/>
<stop offset="1" stop-color="#A177B7"/>
</linearGradient>
<linearGradient id="paint24_linear_103_283" x1="90.8394" y1="185.199" x2="106.87" y2="54.2048" gradientUnits="userSpaceOnUse">
<stop stop-color="#DBCCFF"/>
<stop offset="1" stop-color="#D1BBFF"/>
</linearGradient>
<linearGradient id="paint25_linear_103_283" x1="90.2259" y1="190.309" x2="106.256" y2="59.3149" gradientUnits="userSpaceOnUse">
<stop stop-color="#B5A6E7"/>
<stop offset="1" stop-color="#7760BF"/>
</linearGradient>
<linearGradient id="paint26_linear_103_283" x1="94.137" y1="157.733" x2="100.895" y2="102.508" gradientUnits="userSpaceOnUse">
<stop stop-color="#B5A6E7"/>
<stop offset="1" stop-color="#7760BF"/>
</linearGradient>
<linearGradient id="paint27_linear_103_283" x1="92.8673" y1="102.653" x2="108.408" y2="104.519" gradientUnits="userSpaceOnUse">
<stop stop-color="#8B8BE0"/>
<stop offset="1" stop-color="#A177B7"/>
</linearGradient>
<linearGradient id="paint28_linear_103_283" x1="100.198" y1="107.247" x2="101.36" y2="97.755" gradientUnits="userSpaceOnUse">
<stop stop-color="white"/>
<stop offset="1" stop-color="#A177B7"/>
</linearGradient>
<linearGradient id="paint29_linear_103_283" x1="101.672" y1="164.373" x2="109.122" y2="103.499" gradientUnits="userSpaceOnUse">
<stop/>
<stop offset="1" stop-color="white"/>
</linearGradient>
<clipPath id="clip0_103_283">
<rect width="176" height="211" fill="white"/>
</clipPath>
</defs>
</svg>
