<svg width="191" height="185" viewBox="0 0 191 185" fill="none" xmlns="http://www.w3.org/2000/svg">
<path d="M147.552 137.791C120.734 168.118 97.9741 169.966 80.4999 147.279C56.4115 115.984 12.1772 131.393 9.04344 92.1699C5.90963 52.9468 79.5323 -7.86624 128.359 0.841977C177.186 9.55019 197.187 81.7143 147.552 137.791Z" fill="url(#paint0_linear_103_232)"/>
<path d="M36.0922 129.125C23.7736 120.98 9.8087 131.479 9.1444 140.159C8.48009 148.838 36.0922 151.25 40.4246 147.813C44.7571 144.376 39.5148 131.378 36.0922 129.125Z" fill="url(#paint1_linear_103_232)"/>
<path d="M122.438 22.6199L138.28 31.9057L134.886 37.4079L119.968 27.4433L122.438 22.6199Z" fill="#FF1D9C"/>
<path d="M0.40728 75.7787L16.0618 63.5757L19.86 68.8468L5.51956 80.1978L0.40728 75.7787Z" fill="#A74AFF"/>
<path d="M61.6824 33.8696L60.6859 45.625L56.8589 45.1629L57.6821 34.3173L61.6824 33.8696Z" fill="#4F31E0"/>
<path d="M179.148 78.4361L187.351 87.4475L190.571 83.7216L182.816 75.2012L179.148 78.4361Z" fill="#6877FF"/>
<path d="M110.437 141.329C110.437 141.729 110.318 142.119 110.096 142.452C109.874 142.784 109.558 143.044 109.188 143.197C108.819 143.35 108.412 143.39 108.02 143.312C107.628 143.234 107.268 143.041 106.985 142.758C106.702 142.476 106.51 142.115 106.432 141.723C106.354 141.331 106.394 140.924 106.547 140.555C106.7 140.186 106.959 139.87 107.291 139.648C107.624 139.425 108.015 139.307 108.415 139.307C108.68 139.307 108.943 139.359 109.188 139.461C109.434 139.562 109.657 139.711 109.844 139.899C110.032 140.087 110.181 140.31 110.283 140.555C110.384 140.8 110.437 141.063 110.437 141.329Z" fill="url(#paint2_linear_103_232)"/>
<path d="M78.1878 156.998C78.1878 156.998 64.0063 138.585 68.512 115.233C68.512 115.233 103.46 133.328 104.919 155.337L129.123 155.944C129.123 155.944 156.778 131.393 184.853 130.093C184.853 130.093 180.52 156.998 155.378 160.276L78.1878 156.998Z" fill="url(#paint3_radial_103_232)"/>
<path d="M136.358 151.698C136.358 151.698 137.947 107.709 184.853 99.1162C184.853 99.1162 189.719 141.242 142.048 151.972L136.358 151.698Z" fill="url(#paint4_radial_103_232)"/>
<path d="M57.3931 156.925C57.3931 156.925 28.7412 143.278 27.2393 93.8159C27.2393 93.8159 65.8414 98.4516 78.1889 156.997L57.3931 156.925Z" fill="url(#paint5_radial_103_232)"/>
<g style="mix-blend-mode:soft-light">
<path d="M184.839 99.1162L136.344 151.698L143.464 150.253C143.464 150.253 183.915 141.329 184.839 99.1162Z" fill="#67EEE0"/>
</g>
<g style="mix-blend-mode:soft-light">
<path d="M29.5784 96.8049L68.5703 156.954L58.7357 155.871C58.7357 155.871 28.2931 136.259 29.5784 96.8049Z" fill="#BDE0FF"/>
</g>
<path d="M71.9784 153.864C71.9784 153.864 51.977 129.617 28.8706 142.961C28.8706 142.961 43.7887 169.938 71.9784 153.864Z" fill="url(#paint6_radial_103_232)"/>
<g style="mix-blend-mode:soft-light">
<path d="M28.8706 142.96L70.1733 152.506C70.1733 152.506 49.7386 169.273 28.8706 142.96Z" fill="#BDE0FF"/>
</g>
<path d="M159.067 120.942C166.073 92.9655 149.073 64.6062 121.097 57.5997C93.1204 50.5933 64.7611 67.5929 57.7547 95.5694C50.7482 123.546 67.7478 151.905 95.7243 158.912C123.701 165.918 152.06 148.919 159.067 120.942Z" fill="url(#paint7_linear_103_232)"/>
<g style="mix-blend-mode:soft-light">
<path d="M107.158 60.1536V56.0233C114.711 55.7593 122.229 57.177 129.167 60.1741C136.105 63.1712 142.291 67.6727 147.276 73.3531L143.94 75.7937C139.249 70.7533 133.55 66.7561 127.213 64.0616C120.876 61.3671 114.043 60.0356 107.158 60.1536Z" fill="white"/>
</g>
<g style="mix-blend-mode:soft-light">
<path d="M147.292 79.8803L150.801 77.7141C153.108 80.8773 155.046 84.2931 156.578 87.8954L152.491 88.8196C151.06 85.674 149.319 82.6794 147.292 79.8803Z" fill="white"/>
</g>
<path d="M156.681 117.839C163.073 91.1733 146.638 64.375 119.973 57.983C93.3077 51.591 66.5094 68.0259 60.1174 94.6914C53.7254 121.357 70.1603 148.155 96.8257 154.547C123.491 160.939 150.289 144.504 156.681 117.839Z" fill="url(#paint8_radial_103_232)"/>
<path d="M145.576 115.185C150.481 94.6588 137.818 74.0428 117.292 69.1376C96.7656 64.2325 76.1496 76.8957 71.2445 97.4217C66.3393 117.948 79.0026 138.564 99.5286 143.469C120.055 148.374 140.671 135.711 145.576 115.185Z" fill="url(#paint9_linear_103_232)"/>
<path d="M141.857 116.569C146.266 98.089 134.86 79.5339 116.38 75.1246C97.9003 70.7153 79.3452 82.1216 74.9359 100.601C70.5267 119.081 81.9329 137.636 100.413 142.045C118.892 146.455 137.447 135.048 141.857 116.569Z" fill="url(#paint10_linear_103_232)"/>
<path d="M105.945 106.294L107.966 74.5803H109.858L111.663 106.294H105.945Z" fill="url(#paint11_linear_103_232)"/>
<path d="M108.805 108.2L108.473 103.435L129.124 104.474V106.294L108.805 108.2Z" fill="url(#paint12_linear_103_232)"/>
<path d="M112.632 105.37C112.632 106.058 112.428 106.731 112.045 107.303C111.663 107.876 111.119 108.322 110.483 108.585C109.847 108.849 109.148 108.918 108.472 108.783C107.797 108.649 107.177 108.318 106.69 107.831C106.204 107.344 105.872 106.724 105.738 106.049C105.604 105.374 105.672 104.674 105.936 104.038C106.199 103.402 106.645 102.858 107.218 102.476C107.79 102.094 108.463 101.889 109.151 101.889C110.074 101.889 110.96 102.256 111.612 102.909C112.265 103.561 112.632 104.447 112.632 105.37Z" fill="url(#paint13_linear_103_232)"/>
<path d="M78.0019 107.391C79.1185 107.391 80.0237 106.486 80.0237 105.369C80.0237 104.253 79.1185 103.347 78.0019 103.347C76.8853 103.347 75.9801 104.253 75.9801 105.369C75.9801 106.486 76.8853 107.391 78.0019 107.391Z" fill="url(#paint14_linear_103_232)"/>
<path d="M138.714 107.391C139.83 107.391 140.735 106.486 140.735 105.369C140.735 104.253 139.83 103.347 138.714 103.347C137.597 103.347 136.692 104.253 136.692 105.369C136.692 106.486 137.597 107.391 138.714 107.391Z" fill="url(#paint15_linear_103_232)"/>
<path d="M109.18 76.6022C110.296 76.6022 111.202 75.697 111.202 74.5804C111.202 73.4638 110.296 72.5586 109.18 72.5586C108.063 72.5586 107.158 73.4638 107.158 74.5804C107.158 75.697 108.063 76.6022 109.18 76.6022Z" fill="url(#paint16_linear_103_232)"/>
<path opacity="0.73" d="M99.7497 70.5367L104.082 82.6965C104.082 82.6965 122.452 82.9708 131.593 94.163L140.749 89.6573C138.713 81.83 122.437 65.1067 99.7497 70.5367Z" fill="white"/>
<g style="mix-blend-mode:soft-light">
<path d="M86.3923 135.221L90.8403 128.996C90.8403 128.996 100.949 136.087 116.546 135.033L118.799 141.763C113.257 143.231 107.452 143.404 101.833 142.27C96.2136 141.135 90.9305 138.723 86.3923 135.221Z" fill="white"/>
</g>
<path d="M118.797 57.7278C118.797 57.7278 124.935 73.8734 138.279 66.6237C132.635 62.0695 125.935 59.0101 118.797 57.7278Z" fill="white"/>
<path d="M52.7145 180.321L50.9382 152.781C50.9382 152.781 106.827 150.095 164.001 152.507L160.78 181.635L52.7145 180.321Z" fill="url(#paint17_linear_103_232)"/>
<path d="M56.3834 177.938L55.4302 155.294C55.4302 155.294 106.553 154.196 159.871 156.189L158.051 179.021L56.3834 177.938Z" fill="url(#paint18_linear_103_232)"/>
<path style="mix-blend-mode:multiply" opacity="0.4" d="M159.87 156.277C157.395 159.076 155.741 162.504 155.09 166.184L59.7766 164.913L55.4441 155.381C55.4441 155.381 136.302 154.472 159.87 156.277Z" fill="url(#paint19_linear_103_232)"/>
<path d="M55.4302 155.337L56.3112 177.361L106.524 178.516L104.979 155.337C104.979 155.337 87.7069 154.399 55.4302 155.337Z" fill="url(#paint20_linear_103_232)"/>
<path style="mix-blend-mode:soft-light" d="M56.0064 175.079L70.6934 154.933H75.4446L59.7612 177.361H56.2519L56.0064 175.079Z" fill="url(#paint21_linear_103_232)"/>
<path style="mix-blend-mode:soft-light" d="M70.839 177.635L87.0424 154.947L91.4903 154.99L76.529 177.822L70.839 177.635Z" fill="url(#paint22_linear_103_232)"/>
<path style="mix-blend-mode:soft-light" d="M90.2631 178.126L104.921 155.352L105.282 160.623L94.3934 178.126H90.2631Z" fill="url(#paint23_linear_103_232)"/>
<path d="M52.7149 180.321L56.0076 184.004L157.3 185L160.78 181.635L52.7149 180.321Z" fill="#A181C9"/>
<g style="mix-blend-mode:soft-light">
<path d="M55.4302 155.338L55.7479 163.584H105.412L104.863 155.338C104.863 155.338 87.9669 154.948 55.4302 155.338Z" fill="white"/>
</g>
<path d="M91.4903 154.991C91.4903 154.991 97.4547 161.042 105.47 155.092L91.4903 154.991Z" fill="white"/>
<path d="M99.7496 151.553C99.7496 151.553 102.956 155.005 110.436 154.918C117.917 154.832 120.459 151.553 120.459 151.553C120.459 151.553 102.84 151.524 99.7496 151.553Z" fill="white"/>
<g style="mix-blend-mode:soft-light">
<path d="M59.7619 177.361C59.7619 177.361 89.468 172.754 102.595 178.429L59.7619 177.361Z" fill="white"/>
</g>
<path style="mix-blend-mode:screen" d="M158.051 179.065C158.051 179.065 155.812 178.213 154.686 172.162H106.047L106.466 178.516L158.051 179.065Z" fill="url(#paint24_linear_103_232)"/>
<path d="M135.031 178.704C135.031 178.704 142.729 174.371 148.274 178.963L135.031 178.704Z" fill="white"/>
<path d="M177.893 11.1245C176.925 0.914388 165.17 -2.06056 160.173 1.36207C155.176 4.7847 165.95 20.7859 169.661 21.5801C173.373 22.3744 178.153 13.9406 177.893 11.1245Z" fill="url(#paint25_linear_103_232)"/>
<defs>
<linearGradient id="paint0_linear_103_232" x1="92.5303" y1="162.643" x2="92.5303" y2="-0.0110619" gradientUnits="userSpaceOnUse">
<stop stop-color="#FD5703"/>
<stop offset="1" stop-color="#FFAD12"/>
</linearGradient>
<linearGradient id="paint1_linear_103_232" x1="25.5798" y1="149.317" x2="25.5798" y2="126.191" gradientUnits="userSpaceOnUse">
<stop stop-color="#FD5703"/>
<stop offset="1" stop-color="#FFAD12"/>
</linearGradient>
<linearGradient id="paint2_linear_103_232" x1="108.415" y1="143.351" x2="108.415" y2="139.307" gradientUnits="userSpaceOnUse">
<stop stop-color="#1C257B"/>
<stop offset="1" stop-color="#482C83"/>
</linearGradient>
<radialGradient id="paint3_radial_103_232" cx="0" cy="0" r="1" gradientUnits="userSpaceOnUse" gradientTransform="translate(130.527 119.196) scale(89.4582 31.6285)">
<stop stop-color="#67EEE0"/>
<stop offset="1" stop-color="#5DCEFF"/>
</radialGradient>
<radialGradient id="paint4_radial_103_232" cx="0" cy="0" r="1" gradientUnits="userSpaceOnUse" gradientTransform="translate(162.454 103.766) scale(37.1146 37.1146)">
<stop stop-color="#67EEE0"/>
<stop offset="1" stop-color="#5DCEFF"/>
</radialGradient>
<radialGradient id="paint5_radial_103_232" cx="0" cy="0" r="1" gradientUnits="userSpaceOnUse" gradientTransform="translate(54.5773 99.3745) scale(38.8814 44.3651)">
<stop stop-color="#67EEE0"/>
<stop offset="1" stop-color="#5DCEFF"/>
</radialGradient>
<radialGradient id="paint6_radial_103_232" cx="0" cy="0" r="1" gradientUnits="userSpaceOnUse" gradientTransform="translate(52.001 140.714) scale(32.8971 14.0595)">
<stop stop-color="#67EEE0"/>
<stop offset="1" stop-color="#5DCEFF"/>
</radialGradient>
<linearGradient id="paint7_linear_103_232" x1="108.432" y1="160.466" x2="108.432" y2="56.0396" gradientUnits="userSpaceOnUse">
<stop stop-color="#4C25A6"/>
<stop offset="0.6" stop-color="#457AE2"/>
<stop offset="1" stop-color="#6DD9F7"/>
</linearGradient>
<radialGradient id="paint8_radial_103_232" cx="0" cy="0" r="1" gradientUnits="userSpaceOnUse" gradientTransform="translate(112.036 65.3772) scale(70.8499 70.8499)">
<stop stop-color="#3996F7"/>
<stop offset="1" stop-color="#6840D5"/>
</radialGradient>
<linearGradient id="paint9_linear_103_232" x1="108.43" y1="144.506" x2="108.43" y2="68.0819" gradientUnits="userSpaceOnUse">
<stop stop-color="#DDCDFF"/>
<stop offset="1" stop-color="#9F9CFF"/>
</linearGradient>
<linearGradient id="paint10_linear_103_232" x1="108.393" y1="142.989" x2="108.393" y2="74.2044" gradientUnits="userSpaceOnUse">
<stop stop-color="#EEF0FF"/>
<stop offset="1" stop-color="#DDCDFF"/>
</linearGradient>
<linearGradient id="paint11_linear_103_232" x1="108.804" y1="106.294" x2="108.804" y2="74.5803" gradientUnits="userSpaceOnUse">
<stop stop-color="#1C257B"/>
<stop offset="1" stop-color="#482C83"/>
</linearGradient>
<linearGradient id="paint12_linear_103_232" x1="118.799" y1="108.2" x2="118.799" y2="103.435" gradientUnits="userSpaceOnUse">
<stop stop-color="#1C257B"/>
<stop offset="1" stop-color="#482C83"/>
</linearGradient>
<linearGradient id="paint13_linear_103_232" x1="109.18" y1="108.85" x2="109.18" y2="101.889" gradientUnits="userSpaceOnUse">
<stop stop-color="#1C257B"/>
<stop offset="1" stop-color="#482C83"/>
</linearGradient>
<linearGradient id="paint14_linear_103_232" x1="78.0019" y1="107.391" x2="78.0019" y2="103.347" gradientUnits="userSpaceOnUse">
<stop stop-color="#1C257B"/>
<stop offset="1" stop-color="#482C83"/>
</linearGradient>
<linearGradient id="paint15_linear_103_232" x1="138.714" y1="107.391" x2="138.714" y2="103.347" gradientUnits="userSpaceOnUse">
<stop stop-color="#1C257B"/>
<stop offset="1" stop-color="#482C83"/>
</linearGradient>
<linearGradient id="paint16_linear_103_232" x1="109.18" y1="76.6022" x2="109.18" y2="72.5586" gradientUnits="userSpaceOnUse">
<stop stop-color="#1C257B"/>
<stop offset="1" stop-color="#482C83"/>
</linearGradient>
<linearGradient id="paint17_linear_103_232" x1="107.462" y1="181.635" x2="107.462" y2="151.496" gradientUnits="userSpaceOnUse">
<stop stop-color="#D1BBFF"/>
<stop offset="1" stop-color="#EFEAFF"/>
</linearGradient>
<linearGradient id="paint18_linear_103_232" x1="107.651" y1="179.065" x2="107.651" y2="155.034" gradientUnits="userSpaceOnUse">
<stop stop-color="#DDCDFF"/>
<stop offset="1" stop-color="#9F9CFF"/>
</linearGradient>
<linearGradient id="paint19_linear_103_232" x1="107.65" y1="166.14" x2="107.65" y2="155.121" gradientUnits="userSpaceOnUse">
<stop stop-color="white"/>
<stop offset="1" stop-color="#7460E0"/>
</linearGradient>
<linearGradient id="paint20_linear_103_232" x1="80.9483" y1="178.516" x2="80.9483" y2="154.919" gradientUnits="userSpaceOnUse">
<stop stop-color="#FD5703"/>
<stop offset="1" stop-color="#FFAD12"/>
</linearGradient>
<linearGradient id="paint21_linear_103_232" x1="65.7255" y1="177.361" x2="65.7255" y2="154.933" gradientUnits="userSpaceOnUse">
<stop stop-color="#B9ACF4"/>
<stop offset="1" stop-color="#E1D1F5"/>
</linearGradient>
<linearGradient id="paint22_linear_103_232" x1="81.1647" y1="177.822" x2="81.1647" y2="154.947" gradientUnits="userSpaceOnUse">
<stop stop-color="#B9ACF4"/>
<stop offset="1" stop-color="#E1D1F5"/>
</linearGradient>
<linearGradient id="paint23_linear_103_232" x1="97.7727" y1="178.126" x2="97.7727" y2="155.352" gradientUnits="userSpaceOnUse">
<stop stop-color="#B9ACF4"/>
<stop offset="1" stop-color="#E1D1F5"/>
</linearGradient>
<linearGradient id="paint24_linear_103_232" x1="132.056" y1="179.065" x2="132.056" y2="172.162" gradientUnits="userSpaceOnUse">
<stop stop-color="white"/>
<stop offset="1"/>
</linearGradient>
<linearGradient id="paint25_linear_103_232" x1="168.378" y1="21.6327" x2="168.378" y2="0.00292352" gradientUnits="userSpaceOnUse">
<stop stop-color="#FD5703"/>
<stop offset="1" stop-color="#FFAD12"/>
</linearGradient>
</defs>
</svg>
