<svg width="32" height="23" viewBox="0 0 32 23" fill="none" xmlns="http://www.w3.org/2000/svg">
<path d="M31.6258 9.40755C31.7445 9.50414 31.8387 9.61955 31.903 9.74699C31.9673 9.87442 32.0003 10.0113 32 10.1495C31.9997 10.2878 31.9663 10.4245 31.9015 10.5518C31.8368 10.6791 31.7421 10.7943 31.6231 10.8905L17.1107 22.6771C16.8559 22.8841 16.514 23 16.1581 23C15.8022 23 15.4604 22.8841 15.2056 22.6771L0.693193 10.8905C0.574344 10.7941 0.479881 10.6788 0.415382 10.5515C0.350881 10.4241 0.317651 10.2873 0.317651 10.149C0.317651 10.0108 0.350881 9.87398 0.415382 9.74663C0.479881 9.61928 0.574344 9.50398 0.693193 9.40755C0.936925 9.20916 1.26412 9.0981 1.60482 9.0981C1.94553 9.0981 2.27272 9.20916 2.51645 9.40755L16.1581 20.4913L29.8053 9.40755C30.0489 9.20984 30.3755 9.09921 30.7156 9.09921C31.0556 9.09921 31.3822 9.20984 31.6258 9.40755ZM31.6258 0.309455C31.7445 0.406038 31.8387 0.521453 31.903 0.648889C31.9673 0.776325 32.0003 0.913198 32 1.05143C31.9997 1.18966 31.9663 1.32645 31.9015 1.45372C31.8368 1.58099 31.7421 1.69617 31.6231 1.79244L17.1107 13.579C16.8559 13.786 16.514 13.9019 16.1581 13.9019C15.8022 13.9019 15.4604 13.786 15.2056 13.579L0.693193 1.79244C0.574345 1.69601 0.479881 1.58072 0.415382 1.45336C0.350882 1.32601 0.317652 1.18918 0.317652 1.05095C0.317652 0.912717 0.350882 0.775886 0.415382 0.648533C0.479881 0.521179 0.574345 0.405885 0.693193 0.309454C0.936926 0.111064 1.26412 -1.34351e-06 1.60482 -1.32862e-06C1.94553 -1.31372e-06 2.27272 0.111064 2.51645 0.309454L16.1581 11.3932L29.8053 0.309455C30.0489 0.111746 30.3755 0.00110891 30.7156 0.00110892C31.0556 0.00110894 31.3822 0.111746 31.6258 0.309455Z" fill="#789C4B"/>
</svg>
