<svg width="65" height="65" viewBox="0 0 65 65" fill="none" xmlns="http://www.w3.org/2000/svg">
<path d="M20.228 32.0449C20.1867 32.001 20.1625 31.9438 20.1595 31.8837C20.1565 31.8235 20.1751 31.7642 20.2119 31.7165C20.2487 31.6688 20.3012 31.6357 20.3601 31.6233C20.4191 31.6108 20.4805 31.6197 20.5335 31.6484C23.5267 33.2474 25.0835 36.8191 26.338 39.7929C26.9889 41.3317 27.5319 42.9139 27.963 44.5281C29.0452 42.5781 30.0592 37.4106 27.5567 32.7761C24.557 27.2251 14.8818 22.1974 14.8818 22.1974C14.8818 22.1974 13.9522 33.3774 16.7765 38.6066C19.266 43.2184 24.6805 45.3764 26.7247 45.3861C25.5287 40.4884 23.725 35.7239 20.228 32.0449Z" fill="#789C4B"/>
<path d="M35.1812 31.0309C30.9172 35.1389 30.1015 40.9499 30.5045 43.6539C31.2435 42.2843 32.0572 40.9563 32.942 39.6759C35.542 35.9417 39.117 33.5919 43.147 31.6257C43.203 31.5929 43.2698 31.5838 43.3325 31.6002C43.3953 31.6167 43.449 31.6574 43.4817 31.7134C43.5145 31.7695 43.5237 31.8362 43.5072 31.899C43.4907 31.9618 43.45 32.0154 43.394 32.0482C39.299 34.4922 35.9417 37.2287 33.5335 41.4114C32.8022 42.6822 32.136 43.9887 31.5055 45.3114C33.631 46.0882 40.6055 45.6819 45.1165 41.3464C50.1117 36.5332 53.0465 23.7639 53.0465 23.7639C53.0465 23.7639 40.4852 25.9187 35.1812 31.0309Z" fill="#789C4B"/>
<path d="M32.5001 62.7054C26.526 62.7054 20.6861 60.9339 15.7188 57.6149C10.7515 54.2959 6.88001 49.5784 4.59383 44.0591C2.30764 38.5397 1.70947 32.4664 2.87496 26.6071C4.04045 20.7478 6.91724 15.3657 11.1416 11.1414C15.3659 6.91711 20.748 4.04032 26.6073 2.87484C32.4665 1.70935 38.5399 2.30752 44.0592 4.5937C49.5785 6.87989 54.296 10.7514 57.615 15.7187C60.934 20.6859 62.7056 26.5259 62.7056 32.4999C62.7004 40.5093 59.5164 48.1892 53.8529 53.8527C48.1894 59.5163 40.5095 62.7003 32.5001 62.7054ZM32.5001 4.72219C27.0061 4.72219 21.6356 6.35133 17.0676 9.40359C12.4996 12.4558 8.9392 16.7941 6.83677 21.8699C4.73434 26.9456 4.18424 32.5308 5.25605 37.9191C6.32786 43.3075 8.97345 48.257 12.8582 52.1418C16.743 56.0266 21.6925 58.6721 27.0809 59.7439C32.4692 60.8158 38.0544 60.2657 43.1301 58.1632C48.2059 56.0608 52.5442 52.5004 55.5964 47.9324C58.6487 43.3644 60.2778 37.9939 60.2778 32.4999C60.2701 25.1352 57.341 18.0743 52.1333 12.8667C46.9257 7.659 39.8648 4.72994 32.5001 4.72219Z" fill="#789C4B"/>
<path d="M32.5 65C26.0721 65 19.7886 63.0939 14.444 59.5228C9.09938 55.9516 4.93378 50.8758 2.47393 44.9372C0.0140836 38.9986 -0.629527 32.464 0.624492 26.1596C1.87851 19.8552 4.97383 14.0642 9.51904 9.51904C14.0642 4.97383 19.8552 1.87851 26.1596 0.624492C32.464 -0.629527 38.9986 0.0140836 44.9372 2.47393C50.8758 4.93378 55.9516 9.09938 59.5228 14.444C63.0939 19.7886 65 26.0721 65 32.5C64.9905 41.1166 61.5634 49.3776 55.4705 55.4705C49.3776 61.5634 41.1166 64.9905 32.5 65ZM32.5 0.484259C26.1679 0.484259 19.978 2.36195 14.713 5.87988C9.44805 9.39782 5.34451 14.398 2.92131 20.2481C0.498116 26.0982 -0.135899 32.5355 1.09944 38.746C2.33477 44.9564 5.38398 50.6611 9.86146 55.1386C14.3389 59.616 20.0436 62.6653 26.2541 63.9006C32.4645 65.1359 38.9018 64.5019 44.7519 62.0787C50.602 59.6555 55.6022 55.552 59.1201 50.287C62.6381 45.022 64.5158 38.8321 64.5158 32.5C64.5063 24.0118 61.1302 15.874 55.1281 9.87191C49.126 3.86984 40.9882 0.493721 32.5 0.484259Z" fill="#789C4B"/>
</svg>
