<svg width="59" height="85" viewBox="0 0 59 85" fill="none" xmlns="http://www.w3.org/2000/svg">
<path fill-rule="evenodd" clip-rule="evenodd" d="M36.6054 76.5789C36.6653 76.6847 36.7075 76.7997 36.7302 76.9193C36.7302 77.6002 36.7302 78.3169 36.7302 78.9977C36.6864 79.2225 36.7178 79.4556 36.8194 79.6607C36.8194 79.6607 36.8194 79.8219 36.8194 79.9115C36.9264 80.2698 36.5341 80.7178 37.0155 81.0045C37.0626 81.4113 37.1462 81.8131 37.2651 82.2049C37.3721 82.5095 37.1582 82.832 37.4078 83.1187C37.561 83.3706 37.6181 83.6698 37.5683 83.9608C37.5683 83.9608 37.5683 84.1041 37.6931 84.1758C37.8179 84.2475 37.8357 84.7133 37.9427 85C37.5326 85 37.4078 84.8388 37.3186 84.5879L36.8372 82.9933C36.8041 82.824 36.7624 82.6566 36.7124 82.4916C36.6266 82.3352 36.5816 82.1595 36.5816 81.9809C36.5816 81.8023 36.6266 81.6266 36.7124 81.4703C36.1495 80.2168 35.7653 78.8898 35.5713 77.5285C35.1247 77.123 34.7076 76.6859 34.3232 76.2205C34.0603 75.8788 33.768 75.561 33.4495 75.2709C33.3569 75.1748 33.2382 75.1083 33.1082 75.0796C32.9782 75.0509 32.8426 75.0614 32.7185 75.1096C32.4721 75.1893 32.2334 75.2913 32.0053 75.4143C31.0155 75.9714 29.9842 76.4506 28.9207 76.8476C28.0954 77.1222 27.2484 77.326 26.3888 77.4568C25.3903 77.6539 24.4097 77.8868 23.4112 78.1019L22.2344 78.3706C22.1534 78.3979 22.0658 78.3979 21.9848 78.3706C21.5053 78.2237 20.9879 78.2686 20.5406 78.496C20.3877 78.5705 20.2201 78.6092 20.0502 78.6092C19.8804 78.6092 19.7127 78.5705 19.5599 78.496C19.1454 78.344 18.6907 78.344 18.2761 78.496C17.9669 78.5815 17.6404 78.5815 17.3311 78.496C17.053 78.4257 16.8074 78.2611 16.6358 78.0302C16.5843 77.9423 16.5147 77.8664 16.4316 77.8077C16.3486 77.749 16.2541 77.7088 16.1544 77.6897C15.8398 77.6131 15.5302 77.5174 15.2272 77.4031C15.061 77.3656 14.9074 77.2853 14.7814 77.1701C14.5322 76.89 14.2016 76.6957 13.8364 76.6147L12.0534 76.0055C11.8609 75.9457 11.6882 75.8342 11.5542 75.683C11.3759 75.3605 10.9123 75.253 10.9123 74.7692L10.4309 74.6259C9.98513 74.4825 9.96731 74.4467 9.93165 73.8733C9.93716 73.8137 9.93716 73.7537 9.93165 73.6941C9.48295 73.5041 9.09011 73.2019 8.79052 72.8162C8.66571 72.6191 8.32694 72.5474 8.20213 72.3503C8.07732 72.1533 7.88119 72.0457 7.70289 71.9024C7.29244 71.6519 6.9735 71.2748 6.79356 70.8274C6.77666 70.7369 6.74014 70.6512 6.68659 70.5765C6.16952 70.0032 5.75942 69.3044 4.90358 69.1073C4.76816 69.0585 4.63696 68.9986 4.51132 68.9281C4.44199 68.7079 4.35861 68.4925 4.2617 68.2831C4.14343 68.0779 4.01242 67.8805 3.86943 67.6919L4.11905 67.2081L2.33605 65.4163C2.44517 65.3364 2.54664 65.2464 2.63916 65.1476C2.72203 65.0502 2.76757 64.9263 2.76757 64.7982C2.76757 64.6701 2.72203 64.5461 2.63916 64.4488L2.13992 63.965C2.13992 63.965 2.13992 63.8754 2.13992 63.7858L2.4252 63.3917C2.2469 63.0512 1.87248 62.9616 1.62286 62.7287C1.57173 62.6215 1.55293 62.5017 1.56877 62.3839C1.58461 62.2661 1.63438 62.1555 1.71198 62.0658C1.92595 61.8687 1.87246 61.6537 1.71198 61.4387C1.55151 61.2237 1.39105 61.0266 1.24841 60.8115C1.10577 60.5965 0.945305 60.1845 1.39106 59.7903C1.48463 59.7053 1.57389 59.6155 1.6585 59.5215C1.61113 59.385 1.53163 59.2621 1.42672 59.1632C1.09309 58.9162 0.833915 58.5814 0.677864 58.1956L0.963125 57.7656C0.731334 57.1744 -0.017517 56.9056 0.000313043 56.1351L0.588709 55.6693C0.644118 55.6323 0.690964 55.5839 0.726074 55.5271C0.761184 55.4703 0.78373 55.4067 0.792186 55.3404C0.800643 55.2741 0.794801 55.2067 0.775073 55.1429C0.755346 55.0791 0.722205 55.0203 0.677864 54.9705C0.634588 54.8917 0.580557 54.8193 0.517373 54.7555C0.391541 54.6582 0.289287 54.5334 0.218265 54.3906C0.147242 54.2479 0.109302 54.0909 0.107289 53.9313C-0.0353514 53.0892 0.0002989 52.9996 0.570861 52.48C1.14142 51.9604 0.570861 51.2079 0.570861 50.527L1.28408 49.9895C1.31346 49.8701 1.31254 49.7452 1.28139 49.6262C1.25023 49.5072 1.18984 49.398 1.10577 49.3086C1.00295 49.2051 0.931607 49.0743 0.900033 48.9315C0.868459 48.7887 0.87798 48.6399 0.927484 48.5023C1.03508 48.1705 1.03508 47.8129 0.927484 47.481C0.881319 47.3119 0.880067 47.1336 0.923866 46.9638C0.967664 46.794 1.05498 46.6388 1.1771 46.5135C1.26625 46.406 1.39107 46.2626 1.37324 46.1372C1.34624 45.921 1.38877 45.7018 1.49463 45.5116C1.6005 45.3214 1.76412 45.1702 1.9616 45.0801C1.72981 44.9547 1.60501 44.8472 1.49803 44.8472C1.33783 44.8438 1.18436 44.7819 1.06624 44.6731C0.94812 44.5643 0.873435 44.416 0.856149 44.2559C0.78957 44.0572 0.777633 43.8441 0.821569 43.6391C0.865505 43.4341 0.963682 43.2449 1.10577 43.0913C0.820487 41.9804 0.820498 41.9804 1.28408 41.2996C1.28408 40.8695 0.891825 40.4395 1.12362 39.9557C1.40816 39.828 1.68236 39.6783 1.94378 39.5078C1.98888 39.4846 2.02823 39.4515 2.05892 39.411C2.08962 39.3705 2.11088 39.3236 2.12114 39.2737C2.13141 39.2239 2.13041 39.1723 2.11823 39.1229C2.10605 39.0735 2.08299 39.0275 2.05076 38.9882C2.05076 38.9882 2.05076 38.8628 1.94378 38.8449C1.40888 38.4149 1.44453 37.8415 1.51585 37.1965H2.01512H2.35387C2.42693 37.1841 2.49619 37.1549 2.5562 37.1113C2.61622 37.0676 2.66537 37.0106 2.69988 36.9447C2.73439 36.8788 2.7533 36.8058 2.75514 36.7314C2.75697 36.657 2.74171 36.5831 2.71049 36.5156C2.71049 36.3185 2.56783 36.1394 2.49651 35.9423C2.36276 35.6151 2.36276 35.2481 2.49651 34.921C2.7283 34.7239 3.15623 34.921 3.28104 34.4193C3.25668 33.7204 3.11815 33.0303 2.87095 32.3767L3.37019 31.7854C3.37975 31.7141 3.37975 31.6418 3.37019 31.5704L3.0136 30.9612C2.657 30.4058 2.65699 30.4058 2.7818 29.6712C3.12057 29.492 3.58414 29.5099 3.74461 28.9903C3.63713 28.8265 3.51795 28.6709 3.38802 28.5245C3.19001 28.3586 3.05272 28.1311 2.99782 27.878C2.94292 27.6248 2.97356 27.3605 3.08491 27.1269C3.2072 27.0957 3.32651 27.0537 3.4415 27.0015C3.92291 26.7327 3.94075 26.5715 3.6733 26.1773C3.5647 26.0372 3.4917 25.8726 3.46063 25.6978C3.42956 25.5229 3.44135 25.3431 3.49499 25.1739C3.79964 25.1116 4.09804 25.0217 4.38649 24.9051C4.79659 24.708 4.85008 24.4751 4.67178 24.063C4.47724 23.6935 4.37908 23.2805 4.38649 22.8626L4.88576 22.3967C4.89754 22.3075 4.89754 22.2172 4.88576 22.128C4.69098 21.7992 4.63328 21.4063 4.72527 21.035C5.02838 20.8738 5.42064 20.8737 5.61677 20.4437C5.61677 19.8704 5.08187 19.2253 5.61677 18.652L6.20517 18.7595C6.26473 18.7709 6.3262 18.7668 6.38375 18.7476C6.44131 18.7285 6.49305 18.6949 6.5341 18.6501C6.57514 18.6052 6.60412 18.5506 6.61833 18.4914C6.63253 18.4321 6.63147 18.3703 6.61525 18.3116C6.57868 18.0868 6.52504 17.8652 6.45479 17.6486C6.32304 17.1922 6.32304 16.7075 6.45479 16.251C6.58767 16.2236 6.71869 16.1877 6.84705 16.1435C7.18582 15.9823 7.25715 15.8211 7.13234 15.4627C7.00635 15.1821 6.96901 14.8694 7.02536 14.5668L7.27498 14.3876C7.38082 14.3371 7.46261 14.2468 7.50265 14.1361C7.54269 14.0255 7.53776 13.9034 7.48894 13.7964C7.39087 13.5243 7.39087 13.2263 7.48894 12.9543L8.04166 12.7034C8.43393 12.4526 8.48741 12.3272 8.34477 11.8434C8.25827 11.6565 8.23586 11.4462 8.28103 11.2452C8.32619 11.0442 8.43639 10.8639 8.59439 10.7325C8.68153 10.6525 8.74569 10.5504 8.78018 10.4369C8.81468 10.3235 8.81825 10.2028 8.79052 10.0875C8.79052 9.7829 8.79052 9.46037 8.79052 9.11994C8.96313 9.07133 9.13039 9.0053 9.28976 8.92284C9.44129 8.86631 9.57117 8.76311 9.66083 8.62796C9.75049 8.49281 9.79538 8.33262 9.78903 8.17032C9.79797 8.08096 9.79797 7.99093 9.78903 7.90157C9.75703 7.72732 9.77151 7.54765 9.83101 7.38086C9.89051 7.21406 9.9929 7.06608 10.1278 6.95195C10.3308 6.78311 10.4694 6.54885 10.52 6.28899C10.5381 6.17299 10.5902 6.06503 10.6696 5.97887C10.749 5.89272 10.8521 5.83229 10.9658 5.80524C11.0911 5.76868 11.2002 5.69005 11.2749 5.58245C11.3495 5.47485 11.3852 5.34479 11.3759 5.21396C11.3759 4.89145 11.3759 4.56893 11.3759 4.2285C11.4631 4.11395 11.565 4.01152 11.679 3.92391C11.8231 3.82289 11.9282 3.67523 11.9769 3.50564C12.0256 3.33604 12.0148 3.15479 11.9465 2.9922C11.8845 2.73916 11.8845 2.47481 11.9465 2.22176C11.9422 2.02606 11.9061 1.83236 11.8395 1.6484C11.7147 1.2363 11.5542 0.824192 11.4472 0.412092C11.4472 0.322505 11.4472 0.215008 11.4472 0C11.8249 0.444603 12.1593 0.924605 12.4457 1.4334C12.4457 1.59465 12.6062 1.75589 12.6953 1.91714C12.9449 2.36508 13.248 2.81303 13.8364 2.7772L14.2465 3.49388C14.3358 3.68163 14.4898 3.83047 14.68 3.91284C14.8701 3.9952 15.0835 4.0055 15.2807 3.94182L15.7086 3.83432L16.297 4.60475C16.4253 4.83832 16.6318 5.01867 16.8799 5.11379C17.128 5.20891 17.4015 5.21266 17.6521 5.12437H17.8482C18.2048 5.3573 18.2761 5.76939 18.4544 6.12774C18.5447 6.34187 18.6459 6.55119 18.7576 6.75486C19.025 7.25654 19.1498 7.29238 19.7382 7.20279H20.0413C20.1305 7.39988 20.2018 7.61489 20.3088 7.81198C20.6297 8.457 20.7902 8.52868 21.5925 8.4391C21.8243 8.58243 21.9313 8.99452 22.3057 8.95869C22.5891 8.90391 22.8689 8.83212 23.1437 8.74369C23.322 9.01245 23.5182 9.26329 23.6786 9.54996C23.7934 9.76805 23.9697 9.94726 24.1854 10.0652C24.401 10.1831 24.6465 10.2345 24.8911 10.2129H25.1229C25.3903 10.6967 25.6578 11.1446 25.9252 11.5925C26.0146 11.7797 26.1695 11.9271 26.3604 12.0065C26.5512 12.0858 26.7646 12.0916 26.9594 12.0226L27.9222 11.8255C28.202 12.5099 28.7314 13.0611 29.4021 13.3664L29.8835 13.1872L30.044 13.3664C30.2401 14.2443 30.7215 14.7818 31.72 14.6206C31.8626 14.9312 32.0053 15.2178 32.1479 15.4806C32.2136 15.661 32.3364 15.8148 32.4974 15.9184C32.6585 16.022 32.8489 16.0696 33.0394 16.054C33.2534 16.054 33.503 16.054 33.7348 16.054C33.9666 16.054 34.0736 16.5377 34.2162 16.7707C34.3177 16.9958 34.4888 17.1819 34.704 17.3014C34.9193 17.4208 35.1672 17.4672 35.4108 17.4336C35.4867 17.4131 35.5667 17.4131 35.6426 17.4336L36.6768 18.5803H37.1225C37.2842 19.2212 37.6468 19.7929 38.1566 20.2108L38.8699 20.1033C39.173 20.4975 39.1195 21.0171 39.4047 21.3933C39.69 21.7696 40.118 21.9667 40.4033 22.3071L40.9738 22.1638L42.1684 23.7943L42.7033 23.6151C42.7763 23.6588 42.8424 23.7131 42.8995 23.7764C43.0956 23.9914 43.2739 24.2243 43.4522 24.4572C43.6141 24.6505 43.8229 24.7987 44.0584 24.8872C44.2545 25.3172 44.4507 25.6756 44.5933 26.0518C44.7359 26.4281 44.7003 26.5356 44.7716 26.7865C44.8429 27.0373 45.146 26.7865 45.3956 26.7865C45.5374 26.897 45.6481 27.0426 45.7169 27.2091C45.7856 27.3756 45.8101 27.5572 45.7879 27.7361C45.7879 28.0765 45.9127 28.1482 46.2693 28.0228H46.5368L46.9825 28.8649L47.4283 29.7249L48.0167 29.5637C48.4019 29.779 48.6941 30.1301 48.8369 30.5491L49.5144 30.2624C49.5144 30.2624 49.6392 30.2624 49.6749 30.2624C49.764 30.4088 49.8358 30.5652 49.8888 30.7283C50.0152 31.2887 50.3542 31.7772 50.8338 32.09L51.44 31.9109C51.44 31.9109 51.5827 31.9109 51.5827 32.0184C51.6966 32.5294 51.8765 33.0233 52.1176 33.4875C52.1176 33.5951 52.2424 33.7743 52.3494 33.8101C52.5431 33.8987 52.7088 34.0392 52.8284 34.2162C52.9479 34.3931 53.0166 34.5998 53.0269 34.8135H53.9006C54.0611 35.1718 53.7936 35.6018 54.0789 35.9064C54.3642 36.211 54.0789 36.5873 54.3285 36.9456L55.0596 36.7485C55.1096 37.077 55.1872 37.4007 55.2913 37.7161C55.4518 38.0207 55.1665 38.2894 55.2913 38.594H55.7906L56.7534 40.0453H56.9139C57.0015 40.1002 57.0683 40.1829 57.1038 40.2802C57.1393 40.3776 57.1415 40.4841 57.11 40.5829C57.0735 40.8135 57.0198 41.0411 56.9496 41.2637C56.8975 41.3823 56.8706 41.5104 56.8706 41.64C56.8706 41.7696 56.8975 41.8977 56.9496 42.0162C57.0739 42.232 57.1755 42.4602 57.2527 42.6971H58.1085C58.1437 42.8625 58.1437 43.0334 58.1085 43.1988C57.9974 43.5688 58.0358 43.9679 58.2155 44.3097C58.2938 44.4368 58.344 44.5795 58.3624 44.728C58.3809 44.8764 58.3673 45.0271 58.3224 45.1697C58.1887 45.534 58.1887 45.9343 58.3224 46.2985C58.3498 46.4947 58.3498 46.6936 58.3224 46.8898L58.7147 47.1406C58.6023 47.4915 58.5188 47.851 58.4651 48.2156C58.476 48.5701 58.5118 48.9233 58.5721 49.2728L59 49.5953C58.6919 50.1454 58.5092 50.7574 58.4651 51.387L58.9287 51.6737C58.9287 51.9246 58.8395 52.0679 58.7147 52.2112C58.6234 52.2853 58.5483 52.3775 58.494 52.4821C58.4397 52.5866 58.4073 52.7013 58.399 52.8189C58.3906 52.9365 58.4064 53.0546 58.4454 53.1658C58.4844 53.2771 58.5457 53.3791 58.6256 53.4655C58.6256 53.4655 58.6256 53.5729 58.6256 53.7163C58.6256 53.8596 58.3046 54.2538 58.1085 54.5405L57.7519 55.0243C57.6101 55.1547 57.5222 55.3339 57.5057 55.5264C57.4892 55.7189 57.5452 55.9105 57.6627 56.0635C57.7302 56.1697 57.7841 56.2841 57.8232 56.4039C57.5914 56.7085 57.3418 56.9772 57.11 57.2818C56.6286 57.891 56.6108 58.0165 56.8782 58.769C56.1294 59.5394 56.1115 59.629 56.5216 60.6503C56.4147 60.8358 56.2893 61.01 56.1472 61.1699C55.9662 61.3203 55.8515 61.5364 55.8282 61.7712C55.8048 62.0061 55.8746 62.2407 56.0224 62.4242C55.8988 62.6231 55.8085 62.8409 55.7549 63.0692C55.7648 63.3067 55.8067 63.5418 55.8797 63.768C55.5722 64.2058 55.2388 64.6246 54.8813 65.0221C54.7185 65.1558 54.6117 65.346 54.582 65.5551C54.5523 65.7642 54.6018 65.9768 54.7208 66.1509C54.5068 66.4376 54.2037 66.6526 54.1324 67.0647C54.0611 67.4768 53.8115 67.5306 53.6332 67.7456C53.4549 67.9606 53.2944 68.0502 53.2766 68.2114C53.2459 68.3984 53.1695 68.5748 53.0544 68.7249C52.9393 68.875 52.7889 68.9941 52.6168 69.0715C52.2602 69.2686 51.9928 69.5194 52.0463 69.9494L50.0671 70.9707C49.6571 71.1678 49.2113 71.3649 49.1222 71.9024C49.1222 72.0099 48.9973 72.0995 48.926 72.1891L48.3554 72.87L46.2515 73.2641C45.897 73.3759 45.5329 73.4539 45.1639 73.4971C44.2678 73.5686 43.3676 73.5686 42.4715 73.4971C41.726 73.3809 40.964 73.436 40.2428 73.6583C39.8216 73.7571 39.3914 73.8112 38.959 73.8196C38.3736 73.8474 37.8041 74.0197 37.3008 74.3213C37.1628 74.3959 37.0432 74.5006 36.9506 74.6277C36.8581 74.7548 36.795 74.9011 36.7659 75.0559C36.6966 75.3695 36.643 75.6865 36.6054 76.0055C36.5995 76.2431 36.5112 76.4713 36.3558 76.6506V75.8801C36.3619 75.7932 36.3454 75.7062 36.3079 75.6276C36.2704 75.5491 36.2132 75.4817 36.1419 75.4321C35.9992 75.3425 35.8744 75.1992 35.6961 75.4321C35.5178 75.6651 35.6961 75.6472 35.6961 75.7547L35.0721 75.9697C35.2136 76.2395 35.3939 76.487 35.607 76.7043C36.124 76.8476 36.4093 76.8476 36.6054 76.5789ZM18.294 20.7842C18.294 20.7842 18.2048 20.7842 18.294 20.8917C18.3831 20.9992 18.2939 20.9992 18.4009 21.0529C18.4111 21.0057 18.4111 20.9568 18.4009 20.9096C18.4009 20.9096 18.4009 20.82 18.294 20.7842C18.3303 20.7344 18.3603 20.6802 18.3831 20.6229H18.2583C18.2583 20.6229 18.2761 20.7125 18.294 20.7842ZM38.1566 72.6191C38.3178 72.4299 38.4611 72.2259 38.5846 72.0099C38.5846 71.8845 38.5846 71.7232 38.4598 71.6874C38.3355 71.8047 38.2427 71.9515 38.1897 72.1143C38.1367 72.2772 38.1254 72.4508 38.1566 72.6191ZM31.0246 58.9482H30.882C30.8383 59.0589 30.8025 59.1727 30.775 59.2886C30.775 59.432 30.775 59.5752 30.9355 59.5215C30.9977 59.4794 31.0422 59.4156 31.0603 59.3424C31.0678 59.204 31.0558 59.0652 31.0246 58.9302V58.9482ZM51.3866 56.2606C51.6005 56.2606 51.7253 56.2606 51.7788 56.1531C51.8323 56.0456 51.7788 55.9739 51.7788 55.8664C51.7788 55.7589 51.547 55.8664 51.4936 55.8664C51.4401 55.8664 51.4579 56.0814 51.3866 56.2606ZM30.6145 58.2494C30.703 58.2655 30.7935 58.2655 30.882 58.2494C30.9134 58.2227 30.9391 58.1899 30.9575 58.1529C30.9759 58.116 30.9866 58.0756 30.989 58.0344C30.989 57.9269 30.7928 57.891 30.7037 58.0344C30.6676 58.1032 30.6377 58.1752 30.6145 58.2494ZM29.8657 55.8843H30.1866C30.1866 55.8843 30.1866 55.7589 30.1866 55.741L29.937 55.5797L29.8657 55.8843ZM27.6547 49.0399H27.4943H27.6191C27.6191 49.0399 27.6369 49.0936 27.6547 49.0399ZM39.7614 69.1073H39.9931V68.964H39.7792C39.7778 69.0122 39.7719 69.0602 39.7614 69.1073ZM28.1718 39.3824C28.1077 39.364 28.0398 39.364 27.9757 39.3824V39.5078H28.1718V39.3824ZM32.1836 74.2496H32.3262C32.3262 74.2496 32.3262 74.1421 32.3262 74.1242C32.3262 74.1063 32.2192 74.1242 32.2014 74.1242C32.1836 74.1242 32.1836 74.1958 32.1836 74.2496ZM30.2758 53.9672L30.3649 53.8417H30.2758C30.2665 53.883 30.2665 53.9259 30.2758 53.9672ZM27.3695 48.5919V48.4665C27.3753 48.5081 27.3753 48.5503 27.3695 48.5919ZM24.5701 38.2178L24.4453 38.1103V38.1998L24.5701 38.2178ZM32.6293 17.9532L32.7363 17.8457C32.7363 17.8457 32.665 17.8815 32.6293 17.9174V17.9532ZM43.0778 62.8542C43.0879 62.8069 43.0879 62.758 43.0778 62.7108H42.9886C43.0237 62.7417 43.0538 62.778 43.0778 62.8183V62.8542Z" fill="#9CAC57"/>
</svg>
