<svg width="62" height="62" viewBox="0 0 62 62" fill="none" xmlns="http://www.w3.org/2000/svg">
<rect width="62" height="62" rx="31" fill="url(#paint0_linear_52_945)"/>
<path d="M40.6976 32.7232C40.2319 31.7826 38.9178 30.9905 37.1712 32.3272C34.7926 34.2084 31 34.2084 31 34.2084C31 34.2084 27.2074 34.2084 24.8288 32.3272C23.0822 30.9905 21.7681 31.7826 21.3024 32.7232C20.4707 34.3734 21.4022 35.182 23.5147 36.5187C25.3278 37.6738 27.8063 38.1029 29.4031 38.2679L28.0724 39.5881C26.1761 41.4528 24.3464 43.2515 23.0988 44.5057C22.3503 45.2648 22.3503 46.4694 23.0988 47.179L23.3317 47.4431C24.0802 48.1856 25.3112 48.1856 26.0597 47.4431L31 42.5254C32.9129 44.3902 34.726 46.1889 35.9902 47.4431C36.7387 48.1856 37.953 48.1856 38.7182 47.4431L38.9344 47.179C39.6996 46.4694 39.6996 45.2648 38.9344 44.5057L33.9775 39.5881L32.6634 38.2514C34.2436 38.1029 36.6888 37.6573 38.4853 36.5187C40.5978 35.182 41.5293 34.3734 40.6976 32.7232ZM31 19.241C33.2955 19.241 35.1585 21.0893 35.1585 23.35C35.1585 25.6273 33.2955 27.4591 31 27.4591C28.7045 27.4591 26.8415 25.6273 26.8415 23.35C26.8415 21.0893 28.7045 19.241 31 19.241ZM31 31.7001C35.6575 31.7001 39.4168 27.9706 39.4168 23.35C39.4168 21.1355 38.5301 19.0116 36.9516 17.4457C35.3731 15.8797 33.2323 15 31 15C28.7677 15 26.6269 15.8797 25.0484 17.4457C23.4699 19.0116 22.5832 21.1355 22.5832 23.35C22.5832 27.9706 26.3425 31.7001 31 31.7001Z" fill="#3A3A3A"/>
<defs>
<linearGradient id="paint0_linear_52_945" x1="31" y1="0" x2="31" y2="62" gradientUnits="userSpaceOnUse">
<stop stop-color="#789C4B"/>
<stop offset="1" stop-color="#789C4B"/>
</linearGradient>
</defs>
</svg>
