<svg width="62" height="62" viewBox="0 0 62 62" fill="none" xmlns="http://www.w3.org/2000/svg">
<rect width="62" height="62" rx="31" fill="url(#paint0_linear_52_939)"/>
<path d="M45.2892 24.219C45.5058 23.5157 45.2892 23 44.2651 23H40.8725C40.0092 23 39.6147 23.4461 39.3982 23.9361C39.3982 23.9361 37.6732 28.0482 35.2289 30.7145C34.4399 31.4903 34.0795 31.7353 33.6494 31.7353C33.4344 31.7353 33.1219 31.4903 33.1219 30.7871V24.219C33.1219 23.3751 32.8728 23 32.1534 23H26.8224C26.284 23 25.9591 23.3902 25.9591 23.7622C25.9591 24.5607 27.1813 24.7453 27.3066 26.9956V31.8775C27.3066 32.9467 27.1101 33.1418 26.677 33.1418C25.5275 33.1418 22.7305 29.0146 21.0705 24.29C20.7472 23.372 20.4208 23.0015 19.5544 23.0015H16.1634C15.1934 23.0015 15 23.4477 15 23.9377C15 24.8178 16.1494 29.1734 20.3543 34.934C23.1575 38.8676 27.1039 41 30.6992 41C32.8542 41 33.1203 40.5266 33.1203 39.71V36.7367C33.1203 35.79 33.3261 35.5994 34.0083 35.5994C34.5095 35.5994 35.3728 35.8474 37.3855 37.7424C39.6844 39.9897 40.0649 40.9985 41.3567 40.9985H44.7478C45.7162 40.9985 46.2004 40.5251 45.922 39.5905C45.6172 38.6604 44.5188 37.3068 43.0615 35.7053C42.2694 34.7918 41.086 33.8088 40.7255 33.3173C40.2227 32.6836 40.3681 32.4038 40.7255 31.8412C40.727 31.8427 44.8592 26.1533 45.2892 24.219V24.219Z" fill="#3A3A3A"/>
<defs>
<linearGradient id="paint0_linear_52_939" x1="31" y1="0" x2="31" y2="62" gradientUnits="userSpaceOnUse">
<stop stop-color="#789C4B"/>
<stop offset="1" stop-color="#789C4B"/>
</linearGradient>
</defs>
</svg>
