<svg width="62" height="62" viewBox="0 0 62 62" fill="none" xmlns="http://www.w3.org/2000/svg">
<rect width="62" height="62" rx="31" fill="url(#paint0_linear_52_932)"/>
<mask id="mask0_52_932" style="mask-type:luminance" maskUnits="userSpaceOnUse" x="14" y="14" width="34" height="35">
<path d="M14.8989 14.8994H48V48.0005H14.8989V14.8994Z" fill="white"/>
</mask>
<g mask="url(#mask0_52_932)">
<path fill-rule="evenodd" clip-rule="evenodd" d="M38.9179 34.7353C38.5068 34.5298 36.4918 33.5395 36.1167 33.4016C35.7415 33.2651 35.4684 33.1975 35.194 33.6085C34.9209 34.0167 34.1361 34.9408 33.8975 35.2139C33.6575 35.4884 33.4189 35.5215 33.0093 35.3173C32.5997 35.1105 31.2784 34.6788 29.713 33.283C28.4951 32.1962 27.6718 30.8542 27.4331 30.4432C27.1945 30.0336 27.4069 29.8115 27.6124 29.6074C27.7973 29.424 28.0221 29.1288 28.2276 28.8902C28.4331 28.6502 28.5007 28.4792 28.6372 28.2047C28.7751 27.9317 28.7062 27.693 28.6027 27.4875C28.5007 27.282 27.6814 25.2643 27.3394 24.4436C27.007 23.6451 26.6691 23.754 26.418 23.7402C26.1781 23.7292 25.905 23.7264 25.6319 23.7264C25.3588 23.7264 24.9147 23.8285 24.5396 24.2395C24.163 24.6491 23.1052 25.6408 23.1052 27.6586C23.1052 29.675 24.5727 31.6238 24.7782 31.8983C24.9837 32.1713 27.6676 36.3117 31.779 38.0868C32.7583 38.5088 33.521 38.7612 34.1154 38.9488C35.0974 39.2619 35.9912 39.2177 36.6973 39.1115C37.4835 38.9943 39.122 38.1199 39.464 37.1627C39.8047 36.2055 39.8047 35.3849 39.7026 35.2139C39.6006 35.0429 39.3275 34.9408 38.9165 34.7353H38.9179ZM31.4398 44.9456H31.4342C28.9923 44.9461 26.5951 44.2896 24.494 43.0451L23.9975 42.7499L18.8365 44.1043L20.2143 39.0729L19.8902 38.5571C18.525 36.3839 17.8025 33.8689 17.8062 31.3024C17.809 23.7857 23.9244 17.6703 31.4453 17.6703C35.0864 17.6703 38.5096 19.0909 41.0832 21.6673C42.3526 22.9314 43.3587 24.4347 44.0434 26.0903C44.728 27.7458 45.0776 29.5206 45.0719 31.3121C45.0691 38.8288 38.9537 44.9456 31.4398 44.9456V44.9456ZM43.0417 19.7102C41.5221 18.1805 39.714 16.9677 37.7222 16.1419C35.7304 15.3161 33.5946 14.8938 31.4384 14.8995C22.399 14.8995 15.0395 22.2576 15.0368 31.3011C15.0326 34.1791 15.7876 37.0074 17.2256 39.5005L14.8989 48.0006L23.5934 45.7194C25.9986 47.0298 28.6939 47.7164 31.4329 47.7165H31.4398C40.4791 47.7165 47.8386 40.3584 47.8414 31.3135C47.848 29.1581 47.4273 27.0229 46.6034 25.0312C45.7796 23.0395 44.569 21.231 43.0417 19.7102" fill="#3A3A3A"/>
</g>
<defs>
<linearGradient id="paint0_linear_52_932" x1="31" y1="0" x2="31" y2="62" gradientUnits="userSpaceOnUse">
<stop stop-color="#789C4B"/>
<stop offset="1" stop-color="#789C4B"/>
</linearGradient>
</defs>
</svg>
