<svg width="62" height="62" viewBox="0 0 62 62" fill="none" xmlns="http://www.w3.org/2000/svg">
<rect width="62" height="62" rx="31" fill="url(#paint0_linear_52_942)"/>
<path d="M47.3113 23.4366C47.1234 22.7712 46.7551 22.1643 46.2432 21.6767C45.7313 21.1892 45.0937 20.8381 44.3943 20.6586C41.8199 20 31.5 20 31.5 20C31.5 20 21.1801 20 18.6057 20.6551C17.906 20.834 17.2681 21.1849 16.7561 21.6726C16.2441 22.1602 15.876 22.7674 15.6887 23.4331C15 25.8854 15 31 15 31C15 31 15 36.1147 15.6887 38.5634C16.0681 39.9156 17.1877 40.9806 18.6057 41.3414C21.1801 42 31.5 42 31.5 42C31.5 42 41.8199 42 44.3943 41.3414C45.816 40.9806 46.9319 39.9156 47.3113 38.5634C48 36.1147 48 31 48 31C48 31 48 25.8854 47.3113 23.4366ZM28.2221 35.6943V26.3057L36.7667 30.965L28.2221 35.6943Z" fill="#3A3A3A"/>
<defs>
<linearGradient id="paint0_linear_52_942" x1="31" y1="0" x2="31" y2="62" gradientUnits="userSpaceOnUse">
<stop stop-color="#789C4B"/>
<stop offset="1" stop-color="#789C4B"/>
</linearGradient>
</defs>
</svg>
