<svg width="235" height="53" viewBox="0 0 235 53" fill="none" xmlns="http://www.w3.org/2000/svg">
<path fill-rule="evenodd" clip-rule="evenodd" d="M9.81041 33.5678C12.6493 33.5678 14.9491 35.8345 14.9491 38.6323C14.9491 41.4302 12.6493 43.6968 9.81041 43.6968C6.97156 43.6968 4.67173 41.4302 4.67173 38.6323C4.63579 35.8699 6.97156 33.5678 9.81041 33.5678ZM33.5633 28.8221C36.0788 28.8221 38.1271 30.8408 38.1271 33.3199C38.1271 35.799 36.0788 37.8177 33.5633 37.8177C31.0479 37.8177 28.9996 35.799 28.9996 33.3199C28.9996 30.8408 31.0479 28.8221 33.5633 28.8221ZM17.3927 15.5057C18.5426 15.5057 19.4409 16.4265 19.4409 17.5244C19.4409 18.6577 18.5066 19.5431 17.3927 19.5431C16.2427 19.5431 15.3444 18.6223 15.3444 17.5244C15.3084 16.3911 16.2427 15.5057 17.3927 15.5057ZM17.3927 10.7599C21.2018 10.7599 24.2562 13.8057 24.2562 17.5244C24.2562 21.2785 21.1658 24.2888 17.3927 24.2888C13.5836 24.2888 10.5291 21.2431 10.5291 17.5244C10.4932 13.7703 13.5836 10.7599 17.3927 10.7599ZM46.6796 22.341C44.0563 21.2076 42.8705 18.2327 44.0204 15.6473C45.1703 13.062 48.1888 11.8932 50.8121 13.0265C53.4353 14.1599 54.6212 17.1348 53.4712 19.7202C52.3213 22.3055 49.2669 23.4743 46.6796 22.341ZM47.3623 27.3346V27.4409C48.4044 27.5825 49.4825 27.5471 50.5246 27.37V27.2638C50.5965 26.4846 51.0995 25.8471 51.8542 25.5638C52.0698 25.493 52.3213 25.3867 52.5369 25.2805C53.2556 24.9263 54.0462 24.9972 54.693 25.4576L54.7649 25.5284C55.5914 24.9263 56.346 24.1472 56.9569 23.2972L56.885 23.2264C56.382 22.6243 56.2742 21.8451 56.5976 21.1014C56.7054 20.8889 56.7772 20.641 56.8491 20.4285C57.1007 19.6848 57.7115 19.1889 58.5021 19.0473H58.6099C58.7537 18.0202 58.7177 16.9577 58.538 15.9307H58.4302C57.6397 15.8598 56.9929 15.364 56.7054 14.6203C56.6335 14.4078 56.5257 14.1599 56.4179 13.9474C56.0585 13.239 56.1304 12.4599 56.5976 11.8224L56.6694 11.7162C56.0585 10.9016 55.268 10.1579 54.4055 9.55578L54.3337 9.62661C53.7228 10.1224 52.9322 10.2287 52.1776 9.90994C51.962 9.80369 51.7104 9.73286 51.4948 9.66203C50.7402 9.41412 50.2371 8.81205 50.0934 8.03289V7.92665C49.0512 7.78498 47.9732 7.8204 46.9311 7.99748V8.10373C46.8592 8.88288 46.3561 9.52037 45.6015 9.80369C45.3859 9.87453 45.1344 9.98077 44.9187 10.087C44.2001 10.4412 43.4095 10.3704 42.7627 9.90994L42.6908 9.83911C41.8643 10.4412 41.1097 11.2203 40.4988 12.0703L40.5706 12.1411C41.0737 12.7432 41.1815 13.5224 40.8581 14.2661C40.7503 14.4786 40.6784 14.7265 40.5706 14.939C40.3191 15.6827 39.7082 16.1786 38.9176 16.3202H38.8098C38.6661 17.3473 38.702 18.4098 38.8817 19.4368H38.9895C40.4269 19.5785 41.2175 20.7827 40.5347 22.0576C39.2051 24.643 36.4741 26.1659 33.3837 26.1659C30.8682 26.1659 28.8559 25.1742 27.2029 23.5097C26.3404 22.6597 25.6577 21.6681 25.1905 20.5702C24.364 22.6243 22.711 24.2888 20.6268 25.1388C21.6689 25.5638 22.6391 26.2367 23.5375 27.1221C25.2265 28.7867 26.053 30.5929 26.2326 32.8949C26.053 34.8782 26.7357 36.8615 28.245 38.349C29.5746 39.6594 31.5869 40.5094 33.4196 40.5094C35.2523 40.5094 37.1209 39.8365 38.5942 38.349C40.1035 36.8615 40.7862 34.8782 40.6066 32.8949C40.8222 30.0971 42.2236 27.6534 44.5594 26.1659C45.4218 25.6701 47.1108 25.6346 47.3623 27.3346ZM57.2085 33.5324C60.1551 33.5324 62.5628 35.9053 62.5628 38.8094C62.5628 41.7135 60.1551 44.0864 57.2085 44.0864C54.2618 44.0864 51.8542 41.7135 51.8542 38.8094C51.8901 35.9053 54.2618 33.5324 57.2085 33.5324ZM55.9507 29.3179H58.4662L58.6099 30.4866C59.1849 30.5929 59.7239 30.7345 60.227 30.9116L60.9457 29.9908L63.1018 31.2304L62.6346 32.3283C63.0658 32.6824 63.4611 33.072 63.8205 33.497L64.9344 33.0366L66.1922 35.1615L65.2579 35.8699C65.4375 36.3657 65.6172 36.9323 65.6891 37.4636L66.8749 37.6053V40.0844L65.6891 40.226C65.5813 40.7573 65.4375 41.2885 65.2579 41.8198L66.2281 42.5281L64.9704 44.653L63.8564 44.1926C63.4971 44.6176 63.1018 45.0072 62.6706 45.3614L63.1377 46.4593L60.9816 47.6988L60.2629 46.7426C59.7598 46.9197 59.2208 47.0613 58.6459 47.1676L58.5021 48.3363H55.9867L55.8429 47.1676C55.3039 47.0613 54.7649 46.9197 54.2259 46.7426L53.5072 47.6988L51.3511 46.4593L51.8182 45.3614C51.387 45.0072 50.9917 44.6176 50.6324 44.1926L49.5184 44.653L48.2607 42.5281L49.195 41.8198C49.0153 41.3239 48.8356 40.7573 48.7638 40.226L47.5779 40.0844V37.6053L48.7638 37.4636C48.8716 36.9323 49.0153 36.4011 49.195 35.8699L48.2607 35.1615L49.5184 33.0366L50.6324 33.497C50.9917 33.072 51.387 32.6824 51.8182 32.3283L51.3511 31.2304L53.5072 29.9908L54.2259 30.9116C54.729 30.7345 55.3039 30.5575 55.8429 30.4866L55.9507 29.3179ZM11.7868 23.7576C11.8587 24.9263 11.6431 26.0951 11.1759 27.1929C10.7447 28.3617 10.1698 29.3533 9.37919 30.2387C8.8761 30.2741 8.37302 30.345 7.86993 30.4512L7.07936 29.2117C6.03725 29.495 5.10294 29.9554 4.24051 30.5221L4.70766 31.9033C3.84523 32.5408 3.12653 33.2845 2.55157 34.2053L1.11418 33.8866C0.61109 34.772 0.251742 35.7636 0.0361328 36.7907L1.36572 37.4636C1.22198 38.5261 1.25792 39.5885 1.50946 40.5802L0.251742 41.3593C0.539221 42.3864 1.00637 43.3072 1.58133 44.1572L2.98279 43.6968C3.59368 44.5114 4.38425 45.2551 5.31855 45.8218L4.99514 47.2384C5.89351 47.7342 6.89969 48.0884 7.9418 48.3009L8.62456 46.9905C9.7026 47.1322 10.7807 47.0967 11.7868 46.8488L12.5774 48.0884C13.6195 47.8051 14.5538 47.3447 15.4162 46.778L14.9491 45.3968C15.7756 44.7947 16.5302 44.0155 17.1052 43.0947L18.5426 43.4135C19.0457 42.5281 19.405 41.5364 19.6206 40.5094L18.327 39.8365C18.4707 38.774 18.4348 37.7115 18.1832 36.6844L19.4409 35.9053C19.1535 34.8782 18.6863 33.9574 18.1114 33.1074L16.7099 33.5678C16.3505 33.1074 15.9553 32.6824 15.524 32.2929C15.4522 31.1241 15.6319 29.9554 16.0631 28.7867C16.5302 27.6888 17.1052 26.6263 17.8598 25.7763C17.7161 25.7763 17.5723 25.7763 17.4286 25.7763C15.2366 25.8471 13.2602 25.0326 11.7868 23.7576Z" fill="#FF3636"/>
<path d="M94.8175 19.5631L92.1078 19.5631V12.565C92.1078 11.5319 91.4353 10.9471 90.3475 10.9471C89.675 10.9471 89.141 11.142 88.7652 11.4734V19.5631H86.0555V12.4481C86.0555 11.5124 85.3434 10.9471 84.1963 10.9471C83.5831 10.9471 83.0887 11.0446 82.7129 11.2005V19.5631H80.0229V9.58258C81.1108 9.15373 82.5151 8.82234 84.038 8.82234C85.7588 8.82234 86.8466 9.34866 87.4598 9.89447C88.1323 9.38765 89.4377 8.82234 91.0397 8.82234C93.3934 8.82234 94.8175 10.1674 94.8175 12.2921V19.5631Z" fill="black"/>
<path d="M106.092 19.5631H103.382V12.643C103.382 11.5904 102.729 10.9471 101.503 10.9471C100.87 10.9471 100.257 11.0641 99.9009 11.2005V19.5631H97.2109V9.58258C98.3383 9.13424 99.7031 8.82234 101.463 8.82234C104.628 8.82234 106.092 10.1089 106.092 12.3701V19.5631Z" fill="black"/>
<path d="M117.78 14.3C117.78 17.4384 116.06 19.7971 112.954 19.7971C109.849 19.7971 108.128 17.4384 108.128 14.3C108.128 11.1616 109.849 8.82243 112.954 8.82243C116.06 8.82243 117.78 11.1616 117.78 14.3ZM115.091 14.2805C115.091 12.1753 114.379 10.9082 112.954 10.9082C111.53 10.9082 110.818 12.1753 110.818 14.2805C110.818 16.3858 111.53 17.6334 112.954 17.6334C114.379 17.6334 115.091 16.3858 115.091 14.2805Z" fill="black"/>
<path d="M128.659 19.4267C128.659 22.3896 126.819 23.9491 123.951 23.9491C122.25 23.9491 120.866 23.5982 119.897 23.1304L120.668 21.0446C121.38 21.415 122.488 21.6879 123.675 21.6879C125.257 21.6879 125.989 20.8887 125.989 19.4267V18.7834C125.474 19.0173 124.703 19.1538 124.011 19.1538C121.301 19.1538 119.442 17.3019 119.442 14.144C119.442 10.5962 121.558 8.82236 124.901 8.82236C126.404 8.82236 127.789 9.15374 128.659 9.58259V19.4267ZM125.989 16.8536V11.0836C125.712 10.9666 125.217 10.8691 124.663 10.8691C123.18 10.8691 122.132 11.8438 122.132 14.0465C122.132 16.1128 123.101 17.146 124.584 17.146C125.079 17.146 125.672 17.0095 125.989 16.8536Z" fill="black"/>
<path d="M140.348 14.3C140.348 17.4384 138.628 19.7971 135.522 19.7971C132.417 19.7971 130.696 17.4384 130.696 14.3C130.696 11.1616 132.417 8.82243 135.522 8.82243C138.628 8.82243 140.348 11.1616 140.348 14.3ZM137.658 14.2805C137.658 12.1753 136.946 10.9082 135.522 10.9082C134.098 10.9082 133.386 12.1753 133.386 14.2805C133.386 16.3858 134.098 17.6334 135.522 17.6334C136.946 17.6334 137.658 16.3858 137.658 14.2805Z" fill="black"/>
<path d="M151.603 14.261C151.603 17.4968 149.882 19.6801 146.618 19.6801C146.045 19.6801 145.412 19.5631 145.076 19.4461V23.7542H142.386V9.58258C143.177 9.17322 144.68 8.82234 146.282 8.82234C149.724 8.82234 151.603 10.8496 151.603 14.261ZM148.893 14.261C148.893 12.1362 147.983 10.8886 146.322 10.8886C145.827 10.8886 145.313 10.9861 145.076 11.1031V17.4578C145.293 17.5553 145.867 17.6528 146.342 17.6528C148.023 17.6528 148.893 16.2493 148.893 14.261Z" fill="black"/>
<path d="M159.376 8.91981L158.881 11.1225C158.545 11.0251 158.11 10.9666 157.675 10.9666C157.18 10.9666 156.666 11.0446 156.33 11.181V19.5631H153.64V9.58258C154.747 9.15373 156.27 8.82234 157.991 8.82234C158.545 8.82234 159.019 8.86133 159.376 8.91981Z" fill="black"/>
<path d="M163.964 5.93735C163.964 6.73657 163.272 7.37985 162.422 7.37985C161.571 7.37985 160.879 6.73657 160.879 5.93735C160.879 5.13813 161.571 4.51434 162.422 4.51434C163.272 4.51434 163.964 5.13813 163.964 5.93735ZM163.767 19.5631H161.077V9.05626H163.767V19.5631Z" fill="black"/>
<path d="M176.128 9.05626L172.291 19.5631H169.166L165.309 9.05626H168.355L170.313 15.606C170.55 16.4052 170.709 17.3019 170.709 17.3019H170.748C170.748 17.3019 170.906 16.4052 171.144 15.606L173.102 9.05626H176.128Z" fill="black"/>
<path d="M186.927 14.3C186.927 17.4384 185.207 19.7971 182.101 19.7971C178.996 19.7971 177.275 17.4384 177.275 14.3C177.275 11.1616 178.996 8.82243 182.101 8.82243C185.207 8.82243 186.927 11.1616 186.927 14.3ZM184.238 14.2805C184.238 12.1753 183.525 10.9082 182.101 10.9082C180.677 10.9082 179.965 12.1753 179.965 14.2805C179.965 16.3858 180.677 17.6334 182.101 17.6334C183.525 17.6334 184.238 16.3858 184.238 14.2805Z" fill="black"/>
<path d="M197.806 19.0369C197.034 19.4462 195.531 19.7971 193.909 19.7971C190.468 19.7971 188.589 17.7893 188.589 14.378C188.589 11.1421 190.31 8.95889 193.573 8.95889C194.147 8.95889 194.76 9.05635 195.096 9.17331V4.26102L197.806 4.26102V19.0369ZM195.096 17.4969V11.1616C194.879 11.0642 194.325 10.9667 193.85 10.9667C192.169 10.9667 191.279 12.3507 191.279 14.339C191.279 16.4638 192.189 17.7113 193.85 17.7113C194.325 17.7113 194.879 17.6139 195.096 17.4969Z" fill="black"/>
<path d="M208.526 19.0369C207.735 19.4462 206.132 19.7971 204.53 19.7971C201.326 19.7971 199.724 18.5496 199.724 16.4053C199.724 13.5398 202.75 12.9745 205.974 12.7991V12.2532C205.974 11.1616 205.203 10.7523 203.977 10.7523C202.968 10.7523 201.742 11.0642 200.99 11.376L200.317 9.58267C201.208 9.2123 202.73 8.82243 204.273 8.82243C207.003 8.82243 208.526 9.87507 208.526 12.5651V19.0369ZM205.974 17.6919V14.495C203.996 14.5924 202.256 14.7679 202.256 16.3468C202.256 17.341 203.047 17.9063 204.451 17.9063C205.025 17.9063 205.697 17.8088 205.974 17.6919Z" fill="black"/>
<path d="M214.104 18.0622C214.104 18.9784 213.332 19.7386 212.403 19.7386C211.473 19.7386 210.702 18.9784 210.702 18.0622C210.702 17.146 211.473 16.3858 212.403 16.3858C213.332 16.3858 214.104 17.146 214.104 18.0622Z" fill="black"/>
<path d="M222.035 8.91981L221.54 11.1225C221.204 11.0251 220.769 10.9666 220.334 10.9666C219.839 10.9666 219.325 11.0446 218.989 11.181V19.5631H216.299V9.58258C217.406 9.15373 218.929 8.82234 220.65 8.82234C221.204 8.82234 221.679 8.86133 222.035 8.91981Z" fill="black"/>
<path d="M232.439 19.0369C231.509 19.4852 229.847 19.7971 228.186 19.7971C225.239 19.7971 223.696 18.6275 223.696 15.8985V9.05635H226.386V15.957C226.386 17.0876 226.999 17.6139 228.186 17.6139C228.878 17.6139 229.452 17.4969 229.749 17.38V9.05635L232.439 9.05635V19.0369Z" fill="black"/>
<path d="M86.5282 38.4341C86.5282 40.1554 85.2116 41.2014 82.6724 41.2014C81.5708 41.2014 80.3885 40.9763 79.7168 40.685V31.8138C80.4423 31.5092 81.5305 31.2974 82.6456 31.2974C85.1175 31.2974 86.2729 32.3964 86.2729 33.919C86.2729 35.018 85.534 35.8257 84.7548 36.0376V36.064C85.534 36.3156 86.5282 37.0703 86.5282 38.4341ZM84.4727 34.0912C84.4727 33.2305 83.895 32.7141 82.6456 32.7141C82.2156 32.7141 81.7723 32.7803 81.517 32.873V35.5079H82.7127C83.371 35.5079 83.7203 35.4152 84.0025 35.1901C84.2846 34.9651 84.4727 34.5678 84.4727 34.0912ZM84.6608 38.3149C84.6608 37.7853 84.4458 37.3749 84.0562 37.1365C83.7338 36.9379 83.3979 36.832 82.7396 36.832H81.517V39.6258C81.7857 39.7185 82.2559 39.7847 82.659 39.7847C83.989 39.7847 84.6608 39.308 84.6608 38.3149Z" fill="#1B1A1A"/>
<path d="M94.1727 37.4411C94.1727 39.639 93.0038 41.122 90.7871 41.122C90.3975 41.122 89.9676 41.0425 89.7392 40.9631V43.8893H87.9121V34.2633C88.4495 33.9853 89.4705 33.7469 90.5587 33.7469C92.8964 33.7469 94.1727 35.124 94.1727 37.4411ZM92.3321 37.4411C92.3321 35.9978 91.7141 35.1504 90.5856 35.1504C90.2497 35.1504 89.9004 35.2166 89.7392 35.2961V39.6125C89.887 39.6787 90.2766 39.7449 90.599 39.7449C91.741 39.7449 92.3321 38.7916 92.3321 37.4411Z" fill="#1B1A1A"/>
<path d="M101.199 40.685C100.661 40.9631 99.573 41.2014 98.4848 41.2014C96.3084 41.2014 95.2202 40.354 95.2202 38.8975C95.2202 36.9512 97.2757 36.5672 99.4656 36.448V36.0773C99.4656 35.3358 98.9416 35.0577 98.1087 35.0577C97.4235 35.0577 96.5905 35.2696 96.08 35.4814L95.6233 34.2633C96.2278 34.0117 97.2623 33.7469 98.3102 33.7469C100.164 33.7469 101.199 34.4619 101.199 36.2891V40.685ZM99.4656 39.7714V37.6C98.1221 37.6662 96.9399 37.7853 96.9399 38.8578C96.9399 39.5331 97.4772 39.9171 98.4311 39.9171C98.8207 39.9171 99.2775 39.8509 99.4656 39.7714Z" fill="#1B1A1A"/>
<path d="M113.25 39.9037L113.142 42.9756H111.879L111.812 41.0424H102.824V33.9057H104.651V39.6389H106.814V33.9057H108.641V39.6389H110.804V33.9057H112.632V39.6389L113.25 39.9037Z" fill="#1B1A1A"/>
<path d="M120.209 40.685C119.672 40.9631 118.583 41.2014 117.495 41.2014C115.319 41.2014 114.23 40.354 114.23 38.8975C114.23 36.9512 116.286 36.5672 118.476 36.448V36.0773C118.476 35.3358 117.952 35.0577 117.119 35.0577C116.434 35.0577 115.601 35.2696 115.09 35.4814L114.634 34.2633C115.238 34.0117 116.273 33.7469 117.32 33.7469C119.174 33.7469 120.209 34.4619 120.209 36.2891V40.685ZM118.476 39.7714V37.6C117.132 37.6662 115.95 37.7853 115.95 38.8578C115.95 39.5331 116.487 39.9171 117.441 39.9171C117.831 39.9171 118.288 39.8509 118.476 39.7714Z" fill="#1B1A1A"/>
<path d="M128.055 36.9909C128.055 37.1895 128.055 37.3881 128.028 37.6L123.366 38.2223C123.527 39.2683 124.306 39.7847 125.368 39.7847C126.093 39.7847 126.872 39.5993 127.383 39.3345L127.907 40.685C127.302 40.9896 126.281 41.2014 125.233 41.2014C122.842 41.2014 121.579 39.6655 121.579 37.4675C121.579 35.2828 122.829 33.7469 124.938 33.7469C126.94 33.7469 128.055 35.0445 128.055 36.9909ZM126.281 36.6731C126.281 35.6006 125.744 35.0577 124.897 35.0577C123.944 35.0577 123.272 35.7463 123.245 37.0836L126.281 36.6731Z" fill="#1B1A1A"/>
<path d="M138.547 41.0425H136.828L136.331 36.5671C136.277 36.1037 136.25 35.5476 136.25 35.5476H136.223C136.223 35.5476 136.129 36.1037 135.981 36.5671L134.53 41.0425H133.106L131.655 36.5671C131.508 36.1037 131.4 35.5476 131.4 35.5476H131.373C131.373 35.5476 131.36 36.1037 131.306 36.5671L130.809 41.0425H129.089L130.07 33.9058H132.26L133.59 38.0104C133.724 38.4208 133.805 38.9505 133.805 38.9505H133.832C133.832 38.9505 133.912 38.4208 134.047 38.0104L135.363 33.9058H137.567L138.547 41.0425Z" fill="#1B1A1A"/>
<path d="M144.74 40.7115C144.27 41.016 143.679 41.2014 142.819 41.2014C141.127 41.2014 139.582 40.0098 139.582 37.4675C139.582 34.9253 141.127 33.7469 142.819 33.7469C143.679 33.7469 144.284 33.9323 144.74 34.2368L144.163 35.5344C143.894 35.3358 143.504 35.2299 143.088 35.2299C142.188 35.2299 141.476 35.9713 141.476 37.4543C141.476 38.9373 142.215 39.6787 143.088 39.6787C143.504 39.6787 143.894 39.5596 144.163 39.361L144.74 40.7115Z" fill="#1B1A1A"/>
<path d="M151.82 41.0425H150.034V38.2752H149.268C148.757 38.2752 148.395 38.54 148.206 38.9902L147.374 41.0425H145.466L146.379 38.871C146.554 38.4605 146.89 38.0501 147.279 37.8382V37.8118C146.514 37.5734 145.869 36.9246 145.869 35.9978C145.869 34.6075 147.038 33.7469 149.066 33.7469C150.047 33.7469 151.149 33.9455 151.82 34.2633V41.0425ZM150.034 37.1894V35.0312C149.792 34.9385 149.442 34.8856 149.053 34.8856C148.112 34.8856 147.656 35.3225 147.656 36.064C147.656 36.7657 148.112 37.1894 149.053 37.1894H150.034Z" fill="#1B1A1A"/>
<path d="M162.81 39.1226C162.81 40.5394 161.668 41.2014 159.478 41.2014C158.484 41.2014 157.503 41.016 156.805 40.685V34.2633C157.503 33.9323 158.484 33.7469 159.465 33.7469C161.507 33.7469 162.622 34.4884 162.622 35.733C162.622 36.5407 161.937 37.1895 161.198 37.3484V37.3616C161.923 37.5337 162.81 38.0501 162.81 39.1226ZM160.862 35.8654C160.862 35.2431 160.432 34.8591 159.465 34.8591C159.129 34.8591 158.753 34.9253 158.551 35.0048V36.9114H159.545C160.029 36.9114 160.298 36.8452 160.513 36.6863C160.728 36.5275 160.862 36.2097 160.862 35.8654ZM160.996 39.0167C160.996 38.6327 160.822 38.3282 160.54 38.1561C160.298 38.0104 160.083 37.9442 159.572 37.9442H158.551V39.9436C158.766 40.0362 159.156 40.0892 159.478 40.0892C160.513 40.0892 160.996 39.7449 160.996 39.0167Z" fill="#1B1A1A"/>
<path d="M173.276 41.0425H171.556L171.059 36.5671C171.005 36.1037 170.979 35.5476 170.979 35.5476H170.952C170.952 35.5476 170.858 36.1037 170.71 36.5671L169.259 41.0425H167.835L166.384 36.5671C166.236 36.1037 166.129 35.5476 166.129 35.5476H166.102C166.102 35.5476 166.088 36.1037 166.035 36.5671L165.538 41.0425H163.818L164.799 33.9058H166.988L168.318 38.0104C168.453 38.4208 168.533 38.9505 168.533 38.9505H168.56C168.56 38.9505 168.641 38.4208 168.775 38.0104L170.092 33.9058H172.295L173.276 41.0425Z" fill="#1B1A1A"/>
<path d="M180.786 36.9909C180.786 37.1895 180.786 37.3881 180.759 37.6L176.097 38.2223C176.258 39.2683 177.037 39.7847 178.099 39.7847C178.824 39.7847 179.603 39.5993 180.114 39.3345L180.638 40.685C180.033 40.9896 179.012 41.2014 177.964 41.2014C175.573 41.2014 174.31 39.6655 174.31 37.4675C174.31 35.2828 175.559 33.7469 177.669 33.7469C179.67 33.7469 180.786 35.0445 180.786 36.9909ZM179.012 36.6731C179.012 35.6006 178.475 35.0577 177.628 35.0577C176.675 35.0577 176.003 35.7463 175.976 37.0836L179.012 36.6731Z" fill="#1B1A1A"/>
<path d="M187.073 40.7115C186.603 41.016 186.012 41.2014 185.152 41.2014C183.459 41.2014 181.914 40.0098 181.914 37.4675C181.914 34.9253 183.459 33.7469 185.152 33.7469C186.012 33.7469 186.616 33.9323 187.073 34.2368L186.495 35.5344C186.227 35.3358 185.837 35.2299 185.421 35.2299C184.52 35.2299 183.808 35.9713 183.808 37.4543C183.808 38.9373 184.547 39.6787 185.421 39.6787C185.837 39.6787 186.227 39.5596 186.495 39.361L187.073 40.7115Z" fill="#1B1A1A"/>
<path d="M193.28 35.3225H191.493V41.0425H189.653V35.3225H187.866V33.9058H193.28V35.3225Z" fill="#1B1A1A"/>
<path d="M200.696 36.9909C200.696 37.1895 200.696 37.3881 200.669 37.6L196.007 38.2223C196.168 39.2683 196.947 39.7847 198.009 39.7847C198.734 39.7847 199.513 39.5993 200.024 39.3345L200.548 40.685C199.943 40.9896 198.922 41.2014 197.874 41.2014C195.483 41.2014 194.22 39.6655 194.22 37.4675C194.22 35.2828 195.47 33.7469 197.579 33.7469C199.581 33.7469 200.696 35.0445 200.696 36.9909ZM198.922 36.6731C198.922 35.6006 198.385 35.0577 197.539 35.0577C196.585 35.0577 195.913 35.7463 195.886 37.0836L198.922 36.6731Z" fill="#1B1A1A"/>
</svg>
