<svg width="21" height="35" viewBox="0 0 21 35" fill="none" xmlns="http://www.w3.org/2000/svg">
<path d="M4.01156 34.6503L20.3545 18.3062C20.5883 18.0727 20.7053 17.8041 20.7053 17.5002C20.7053 17.1963 20.5883 16.9271 20.3545 16.6935L4.01157 0.350824C3.77744 0.116695 3.50879 -7.51684e-07 3.20477 -7.64973e-07C2.90087 -7.78257e-07 2.63185 0.117063 2.39822 0.350823L0.645201 2.10396C0.411442 2.33772 0.294622 2.60674 0.294622 2.91064C0.294622 3.21454 0.411442 3.48355 0.645201 3.71731L14.4278 17.5002L0.644339 31.2835C0.41058 31.5172 0.294499 31.7863 0.294499 32.0897C0.294499 32.3941 0.411316 32.6631 0.644339 32.8968L2.39809 34.6502C2.63173 34.8838 2.90087 34.9999 3.20464 34.9999C3.50879 35 3.7778 34.8839 4.01156 34.6503Z" fill="white"/>
</svg>
