<svg width="96" height="108" viewBox="0 0 96 108" fill="none" xmlns="http://www.w3.org/2000/svg">
<path d="M36.3077 81.4651L48.3077 85.4996C48.3077 85.4996 78.3077 79.4479 82.3077 79.4479C86.3077 79.4479 86.3077 83.4824 82.3077 87.5168C78.3077 91.5513 64.3077 103.655 52.3077 103.655C40.3077 103.655 32.3077 97.603 24.3077 97.603H4.30768" stroke="#ABD373" stroke-width="5" stroke-linecap="round" stroke-linejoin="round"/>
<path d="M4.30768 73.3965C8.30768 69.362 16.3077 63.3103 24.3077 63.3103C32.3077 63.3103 51.3077 71.3793 54.3077 75.4138C57.3077 79.4482 48.3077 85.5 48.3077 85.5" stroke="#ABD373" stroke-width="5" stroke-linecap="round" stroke-linejoin="round"/>
<path d="M59.0769 26.0689C59.0769 20.1427 56.7429 14.4592 52.5882 10.2688C48.4336 6.0783 42.7986 3.72412 36.9231 3.72412H25.8462V11.1724C25.8462 17.0986 28.1802 22.7821 32.3349 26.9726C36.4895 31.163 42.1244 33.5172 48 33.5172H59.0769M59.0769 40.9655C59.0769 35.0393 61.411 29.3558 65.5656 25.1653C69.7203 20.9749 75.3552 18.6207 81.2308 18.6207H92.3077V22.3448C92.3077 28.271 89.9736 33.9545 85.819 38.145C81.6643 42.3355 76.0294 44.6896 70.1539 44.6896H59.0769M59.0769 63.3103V26.0689" stroke="#ABD373" stroke-width="5" stroke-linecap="round" stroke-linejoin="round"/>
</svg>
