<svg width="108" height="82" viewBox="0 0 108 82" fill="none" xmlns="http://www.w3.org/2000/svg">
<g clip-path="url(#clip0_97_578)">
<path d="M2.79309 28.4204C2.79309 42.0128 8.18809 55.0484 17.7912 64.6596C27.3944 74.2709 40.4191 79.6704 54 79.6704C67.5809 79.6704 80.6056 74.2709 90.2087 64.6596C99.8119 55.0484 105.207 42.0128 105.207 28.4204" stroke="#ABD373" stroke-width="5" stroke-linecap="round" stroke-linejoin="round"/>
<path d="M54 79.6704C54 66.0781 59.395 53.0424 68.9981 43.4312C78.6013 33.8199 91.626 28.4204 105.207 28.4204M2.79309 28.4204C9.51768 28.4204 16.1764 29.746 22.3891 32.3216C28.6018 34.8971 34.2468 38.6722 39.0018 43.4312C43.7568 48.1902 47.5287 53.8399 50.1021 60.0579C52.6755 66.2758 54 72.9402 54 79.6704" stroke="#ABD373" stroke-width="5" stroke-linecap="round" stroke-linejoin="round"/>
<path d="M54 2.79541C59.1605 7.72594 63.1992 13.7112 65.8412 20.344C68.4833 26.9768 69.6667 34.1014 69.3109 41.2329M38.6891 41.2329C38.3333 34.1014 39.5167 26.9768 42.1588 20.344C44.8008 13.7112 48.8395 7.72594 54 2.79541" stroke="#ABD373" stroke-width="5" stroke-linecap="round" stroke-linejoin="round"/>
</g>
<defs>
<clipPath id="clip0_97_578">
<rect width="108" height="82" fill="white"/>
</clipPath>
</defs>
</svg>
