<svg width="114" height="70" viewBox="0 0 114 70" fill="none" xmlns="http://www.w3.org/2000/svg">
<g clip-path="url(#clip0_97_603)">
<path d="M37.0953 67.7273C39.7348 67.7273 42.2662 66.6737 44.1327 64.7984C45.9991 62.923 47.0476 60.3795 47.0476 57.7273C47.0476 55.0751 45.9991 52.5316 44.1327 50.6562C42.2662 48.7809 39.7348 47.7273 37.0953 47.7273C34.4557 47.7273 31.9243 48.7809 30.0579 50.6562C28.1914 52.5316 27.1429 55.0751 27.1429 57.7273C27.1429 60.3795 28.1914 62.923 30.0579 64.7984C31.9243 66.6737 34.4557 67.7273 37.0953 67.7273V67.7273ZM86.8572 67.7273C89.4967 67.7273 92.0281 66.6737 93.8946 64.7984C95.761 62.923 96.8095 60.3795 96.8095 57.7273C96.8095 55.0751 95.761 52.5316 93.8946 50.6562C92.0281 48.7809 89.4967 47.7273 86.8572 47.7273C84.2176 47.7273 81.6862 48.7809 79.8198 50.6562C77.9533 52.5316 76.9048 55.0751 76.9048 57.7273C76.9048 60.3795 77.9533 62.923 79.8198 64.7984C81.6862 66.6737 84.2176 67.7273 86.8572 67.7273V67.7273Z" stroke="#ABD373" stroke-width="5" stroke-miterlimit="1.5" stroke-linecap="round" stroke-linejoin="round"/>
<path d="M47.2964 57.7273H71.9286V5.72729C71.9286 4.93165 71.614 4.16858 71.0541 3.60597C70.4941 3.04337 69.7347 2.72729 68.9428 2.72729H2.2619M25.4012 57.7273H15.2C14.8079 57.7273 14.4197 57.6497 14.0574 57.4989C13.6952 57.3482 13.366 57.1272 13.0888 56.8486C12.8115 56.57 12.5916 56.2393 12.4416 55.8754C12.2915 55.5114 12.2143 55.1213 12.2143 54.7273V30.2273" stroke="#ABD373" stroke-width="5" stroke-linecap="round"/>
<path d="M7.2381 17.7273H27.1429" stroke="#ABD373" stroke-width="5" stroke-linecap="round" stroke-linejoin="round"/>
<path d="M71.9286 17.7273H99.845C100.422 17.7274 100.987 17.8956 101.471 18.2115C101.955 18.5275 102.337 18.9775 102.572 19.5073L111.479 39.6473C111.649 40.0297 111.737 40.4436 111.738 40.8623V54.7273C111.738 55.1213 111.661 55.5114 111.511 55.8753C111.361 56.2393 111.141 56.57 110.864 56.8486C110.586 57.1272 110.257 57.3482 109.895 57.4989C109.533 57.6497 109.144 57.7273 108.752 57.7273H99.2976M71.9286 57.7273H76.9048" stroke="#ABD373" stroke-width="5" stroke-linecap="round"/>
</g>
<defs>
<clipPath id="clip0_97_603">
<rect width="114" height="70" fill="white"/>
</clipPath>
</defs>
</svg>
