<svg width="17" height="16" viewBox="0 0 17 16" fill="none" xmlns="http://www.w3.org/2000/svg">
<path d="M6.79141 9.34346C7.79291 10.3594 9.00469 11.1438 10.3417 11.6415L12.1504 10.2022C12.204 10.1653 12.2676 10.1455 12.3327 10.1455C12.3978 10.1455 12.4614 10.1653 12.515 10.2022L15.8733 12.366C16.0008 12.4426 16.1087 12.5479 16.1886 12.6734C16.2684 12.7989 16.318 12.9413 16.3333 13.0893C16.3487 13.2372 16.3294 13.3867 16.277 13.526C16.2247 13.6652 16.1407 13.7904 16.0316 13.8916L14.458 15.446C14.2327 15.6687 13.9557 15.8321 13.6518 15.9217C13.3479 16.0113 13.0266 16.0242 12.7165 15.9594C9.62307 15.3205 6.77181 13.8242 4.48855 11.6415C2.25597 9.43713 0.711036 6.63225 0.0411567 3.56712C-0.0250187 3.26182 -0.011207 2.9446 0.0812534 2.64621C0.173714 2.34781 0.341687 2.07836 0.568895 1.86397L2.20009 0.290347C2.30103 0.186616 2.42413 0.107065 2.56017 0.0576512C2.69621 0.00823711 2.84167 -0.00976002 2.98566 0.00500748C3.12964 0.019775 3.26841 0.0669244 3.39159 0.142925C3.51477 0.218926 3.61916 0.321809 3.69695 0.44387L5.93264 3.75903C5.9712 3.81109 5.99201 3.87416 5.99201 3.93894C5.99201 4.00372 5.9712 4.06679 5.93264 4.11885L4.45977 5.88917C4.97099 7.19937 5.76747 8.37934 6.79141 9.34346Z" fill="#0F2B3E"/>
</svg>
