<svg width="18" height="14" viewBox="0 0 18 14" fill="none" xmlns="http://www.w3.org/2000/svg">
<path d="M17.2308 3.63246V11.3077C17.2308 12.0217 16.9471 12.7065 16.4422 13.2114C15.9373 13.7163 15.2525 14 14.5385 14H2.69231C1.97826 14 1.29346 13.7163 0.788559 13.2114C0.283653 12.7065 0 12.0217 0 11.3077V3.63246L8.34185 8.54108C8.42472 8.58995 8.51917 8.61573 8.61539 8.61573C8.7116 8.61573 8.80605 8.58995 8.88892 8.54108L17.2308 3.63246ZM14.5385 3.33337e-08C15.2009 -0.000104156 15.8402 0.244038 16.3339 0.68572C16.8277 1.1274 17.1412 1.73561 17.2146 2.394L8.61539 7.45231L0.016154 2.394C0.0895551 1.73561 0.403118 1.1274 0.896856 0.68572C1.39059 0.244038 2.02984 -0.000104156 2.69231 3.33337e-08H14.5385Z" fill="#0F2B3E"/>
</svg>
