<svg width="21" height="19" viewBox="0 0 21 19" fill="none" xmlns="http://www.w3.org/2000/svg">
<path d="M20 3.375H6.9375M4.5625 3.375H1M20 15.25H6.9375M4.5625 15.25H1M14.0625 9.3125H1M20 9.3125H16.4375M5.75 1C6.06494 1 6.36699 1.12511 6.58969 1.34781C6.81239 1.57051 6.9375 1.87256 6.9375 2.1875V4.5625C6.9375 4.87744 6.81239 5.17949 6.58969 5.40219C6.36699 5.62489 6.06494 5.75 5.75 5.75C5.43506 5.75 5.13301 5.62489 4.91031 5.40219C4.68761 5.17949 4.5625 4.87744 4.5625 4.5625V2.1875C4.5625 1.87256 4.68761 1.57051 4.91031 1.34781C5.13301 1.12511 5.43506 1 5.75 1V1ZM5.75 12.875C6.06494 12.875 6.36699 13.0001 6.58969 13.2228C6.81239 13.4455 6.9375 13.7476 6.9375 14.0625V16.4375C6.9375 16.7524 6.81239 17.0545 6.58969 17.2772C6.36699 17.4999 6.06494 17.625 5.75 17.625C5.43506 17.625 5.13301 17.4999 4.91031 17.2772C4.68761 17.0545 4.5625 16.7524 4.5625 16.4375V14.0625C4.5625 13.7476 4.68761 13.4455 4.91031 13.2228C5.13301 13.0001 5.43506 12.875 5.75 12.875ZM15.25 6.9375C15.5649 6.9375 15.867 7.06261 16.0897 7.28531C16.3124 7.50801 16.4375 7.81006 16.4375 8.125V10.5C16.4375 10.8149 16.3124 11.117 16.0897 11.3397C15.867 11.5624 15.5649 11.6875 15.25 11.6875C14.9351 11.6875 14.633 11.5624 14.4103 11.3397C14.1876 11.117 14.0625 10.8149 14.0625 10.5V8.125C14.0625 7.81006 14.1876 7.50801 14.4103 7.28531C14.633 7.06261 14.9351 6.9375 15.25 6.9375V6.9375Z" stroke="#ABD373" stroke-width="1.5" stroke-linecap="round" stroke-linejoin="round"/>
</svg>
